<svg xmlns="http://www.w3.org/2000/svg" xmlns:xlink="http://www.w3.org/1999/xlink" display="block" class="plt-container" width="705.0" height="470.0">
  <style type="text/css">
  .plt-container {
   font-family: Lucida Grande, sans-serif;
   user-select: none;
   -webkit-user-select: none;
   -moz-user-select: none;
   -ms-user-select: none;
}
text {
   text-rendering: optimizeLegibility;
}
#xXxprefixXx0 .plot-title {
fill: #bbbbbb;
font-weight: normal;
   font-style: normal;font-family: Lucida Grande, sans-serif;
font-size: 16.0px;

}
#xXxprefixXx0 .plot-subtitle {
fill: #bbbbbb;
font-weight: normal;
   font-style: normal;font-family: Lucida Grande, sans-serif;
font-size: 15.0px;

}
#xXxprefixXx0 .plot-caption {
fill: #bbbbbb;
font-weight: normal;
   font-style: normal;font-family: Lucida Grande, sans-serif;
font-size: 13.0px;

}
#xXxprefixXx0 .hyperlink-element {
fill: #118ed8;
font-weight: normal;
   font-style: normal;
}
#xXxprefixXx0 .legend-title {
fill: #bbbbbb;
font-weight: normal;
   font-style: normal;font-family: Lucida Grande, sans-serif;
font-size: 15.0px;

}
#xXxprefixXx0 .legend-item {
fill: #bbbbbb;
font-weight: normal;
   font-style: normal;font-family: Lucida Grande, sans-serif;
font-size: 13.0px;

}
#xXxprefixXx0 .axis-title-x {
fill: #bbbbbb;
font-weight: normal;
   font-style: normal;font-family: Lucida Grande, sans-serif;
font-size: 15.0px;

}
#xXxprefixXx0 .axis-text-x {
fill: #bbbbbb;
font-weight: normal;
   font-style: normal;font-family: Lucida Grande, sans-serif;
font-size: 13.0px;

}
#xXxprefixXx2 .axis-tooltip-text-x {
fill: #303030;
font-weight: normal;
   font-style: normal;font-family: Lucida Grande, sans-serif;
font-size: 13.0px;

}
#xXxprefixXx0 .axis-title-y {
fill: #bbbbbb;
font-weight: normal;
   font-style: normal;font-family: Lucida Grande, sans-serif;
font-size: 15.0px;

}
#xXxprefixXx0 .axis-text-y {
fill: #bbbbbb;
font-weight: normal;
   font-style: normal;font-family: Lucida Grande, sans-serif;
font-size: 13.0px;

}
#xXxprefixXx2 .axis-tooltip-text-y {
fill: #303030;
font-weight: normal;
   font-style: normal;font-family: Lucida Grande, sans-serif;
font-size: 13.0px;

}
#xXxprefixXx0 .facet-strip-text-x {
fill: #bbbbbb;
font-weight: normal;
   font-style: normal;font-family: Lucida Grande, sans-serif;
font-size: 13.0px;

}
#xXxprefixXx0 .facet-strip-text-y {
fill: #bbbbbb;
font-weight: normal;
   font-style: normal;font-family: Lucida Grande, sans-serif;
font-size: 13.0px;

}
#xXxprefixXx2 .tooltip-text {
fill: #bbbbbb;
font-weight: normal;
   font-style: normal;font-family: Lucida Grande, sans-serif;
font-size: 13.0px;

}
#xXxprefixXx2 .tooltip-title {
fill: #bbbbbb;
font-weight: bold;
   font-style: normal;font-family: Lucida Grande, sans-serif;
font-size: 13.0px;

}
#xXxprefixXx2 .tooltip-label {
fill: #bbbbbb;
font-weight: bold;
   font-style: normal;font-family: Lucida Grande, sans-serif;
font-size: 13.0px;

}

  </style>
  <g id="xXxprefixXx0">
    <path fill-rule="evenodd" fill="rgb(25,25,28)" fill-opacity="1.0" d="M0.0 0.0 L0.0 470.0 L705.0 470.0 L705.0 0.0 Z">
    </path>
    <g transform="translate(6.5 6.5 ) ">
      <g>
        <g transform="">
          <g>
          </g>
        </g>
        <g transform="">
          <g>
          </g>
        </g>
        <g transform="translate(0.0 457.0 ) ">
        </g>
        <g transform="">
        </g>
      </g>
      <g clip-path="url(#xXxprefixXx1)" clip-bounds-jfx="[rect (0.0, 0.0), (614.7024014286222, 457.0)]">
        <g transform="">
          <g>
            <g>
              <g>
                <path d="M307.3512007143111 228.5 L183.03596379327695 241.56605790845663 A125.0 125.0 0.0 0 1 307.3512007143112 103.5 L307.3512007143111 228.5 A0.0 0.0 0.0 0 0 307.3512007143111 228.5 " fill="rgb(228,26,28)" stroke-width="1.0" fill-opacity="1.0">
                </path>
              </g>
              <g>
                <path d="M307.3512007143111 228.5 L307.3512007143111 141.2027027027027 A87.29729729729729 87.29729729729729 0.0 0 1 389.4080374663519 198.70916822810014 L307.3512007143111 228.5 A0.0 0.0 0.0 0 0 307.3512007143111 228.5 " fill="rgb(55,126,184)" stroke-width="1.0" fill-opacity="1.0">
                </path>
              </g>
              <g>
                <path d="M307.3512007143111 228.5 L421.7988940789996 186.94962937077122 A121.75675675675677 121.75675675675677 0.0 0 1 341.291777363893 345.430513864508 L307.3512007143111 228.5 A0.0 0.0 0.0 0 0 307.3512007143111 228.5 " fill="rgb(77,175,74)" stroke-width="1.0" fill-opacity="1.0">
                </path>
              </g>
              <g>
                <path d="M307.3512007143111 228.5 L325.92245963578046 292.48084720888176 A66.62162162162163 66.62162162162163 0.0 0 1 264.8599832781637 279.812151663018 L307.3512007143111 228.5 A0.0 0.0 0.0 0 0 307.3512007143111 228.5 " fill="rgb(152,78,163)" stroke-width="1.0" fill-opacity="1.0">
                </path>
              </g>
              <g>
                <path d="M307.3512007143111 228.5 L275.46124036669545 267.01013410814744 A50.0 50.0 0.0 0 1 257.6251059458975 233.72642316338266 L307.3512007143111 228.5 A0.0 0.0 0.0 0 0 307.3512007143111 228.5 " fill="rgb(255,127,0)" stroke-width="1.0" fill-opacity="1.0">
                </path>
              </g>
              <g>
                <path d="M183.03596379327695 241.56605790845663 A125.0 125.0 0.0 0 1 307.3512007143112 103.5 M307.3512007143111 228.5 A0.0 0.0 0.0 0 0 307.3512007143111 228.5 " fill="none" stroke-width="0.75" stroke="rgb(48,48,48)" stroke-opacity="1.0">
                </path>
              </g>
              <g>
                <path d="M307.3512007143111 141.2027027027027 A87.29729729729729 87.29729729729729 0.0 0 1 389.4080374663519 198.70916822810014 M307.3512007143111 228.5 A0.0 0.0 0.0 0 0 307.3512007143111 228.5 " fill="none" stroke-width="0.75" stroke="rgb(48,48,48)" stroke-opacity="1.0">
                </path>
              </g>
              <g>
                <path d="M421.7988940789996 186.94962937077122 A121.75675675675677 121.75675675675677 0.0 0 1 341.291777363893 345.430513864508 M307.3512007143111 228.5 A0.0 0.0 0.0 0 0 307.3512007143111 228.5 " fill="none" stroke-width="0.75" stroke="rgb(48,48,48)" stroke-opacity="1.0">
                </path>
              </g>
              <g>
                <path d="M325.92245963578046 292.48084720888176 A66.62162162162163 66.62162162162163 0.0 0 1 264.8599832781637 279.812151663018 M307.3512007143111 228.5 A0.0 0.0 0.0 0 0 307.3512007143111 228.5 " fill="none" stroke-width="0.75" stroke="rgb(48,48,48)" stroke-opacity="1.0">
                </path>
              </g>
              <g>
                <path d="M275.46124036669545 267.01013410814744 A50.0 50.0 0.0 0 1 257.6251059458975 233.72642316338266 M307.3512007143111 228.5 A0.0 0.0 0.0 0 0 307.3512007143111 228.5 " fill="none" stroke-width="0.75" stroke="rgb(48,48,48)" stroke-opacity="1.0">
                </path>
              </g>
              <g>
                <path d="M307.3512007143111 228.5 L182.66301808251384 241.605256082182 M307.3512007143111 228.5 L307.3512007143112 103.125 " fill="none" stroke-width="0.75" stroke="rgb(48,48,48)" stroke-opacity="1.0">
                </path>
              </g>
              <g>
                <path d="M307.3512007143111 228.5 L307.3512007143111 140.8277027027027 M307.3512007143111 228.5 L389.7605262000778 198.5811967758292 " fill="none" stroke-width="0.75" stroke="rgb(48,48,48)" stroke-opacity="1.0">
                </path>
              </g>
              <g>
                <path d="M307.3512007143111 228.5 L422.15138281272544 186.8216579185003 M307.3512007143111 228.5 L341.396311326382 345.7906494649231 " fill="none" stroke-width="0.75" stroke="rgb(48,48,48)" stroke-opacity="1.0">
                </path>
              </g>
              <g>
                <path d="M307.3512007143111 228.5 L326.0269935982694 292.84098280929686 M307.3512007143111 228.5 L264.6208085755566 280.10097766882916 " fill="none" stroke-width="0.75" stroke="rgb(48,48,48)" stroke-opacity="1.0">
                </path>
              </g>
              <g>
                <path d="M307.3512007143111 228.5 L275.2220656640883 267.2989601139585 M307.3512007143111 228.5 L257.25216023513434 233.76562133710803 " fill="none" stroke-width="0.75" stroke="rgb(48,48,48)" stroke-opacity="1.0">
                </path>
              </g>
            </g>
          </g>
        </g>
        <defs>
          <clipPath id="xXxprefixXx1">
            <rect x="0.0" y="0.0" width="614.7024014286222" height="457.0">
            </rect>
          </clipPath>
        </defs>
      </g>
      <g>
      </g>
    </g>
    <g transform="translate(632.7024014286222 161.25 ) ">
      <rect x="0.0" y="0.0" height="147.5" width="72.29759857137772" stroke="rgb(187,187,187)" stroke-opacity="1.0" stroke-width="0.0" fill="rgb(25,25,28)" fill-opacity="1.0">
      </rect>
      <g transform="translate(5.0 5.0 ) ">
        <g transform="translate(0.0 12.0 ) ">
          <text class="legend-title" y="0.0">
            <tspan>month</tspan>
          </text>
        </g>
        <g transform="translate(0.0 22.5 ) ">
          <g transform="">
            <g>
              <g transform="translate(1.0 1.0 ) ">
                <g>
                  <circle cx="10.5" cy="10.5" r="5.0" fill="rgb(228,26,28)" fill-opacity="1.0" stroke="rgb(187,187,187)" stroke-opacity="1.0" stroke-width="0.75">
                  </circle>
                </g>
              </g>
            </g>
            <g transform="translate(26.9903027277341 16.05 ) ">
              <text class="legend-item" y="0.0">
                <tspan>Jan</tspan>
              </text>
            </g>
          </g>
          <g transform="translate(0.0 23.0 ) ">
            <g>
              <g transform="translate(1.0 1.0 ) ">
                <g>
                  <circle cx="10.5" cy="10.5" r="5.0" fill="rgb(55,126,184)" fill-opacity="1.0" stroke="rgb(187,187,187)" stroke-opacity="1.0" stroke-width="0.75">
                  </circle>
                </g>
              </g>
            </g>
            <g transform="translate(26.9903027277341 16.05 ) ">
              <text class="legend-item" y="0.0">
                <tspan>Feb</tspan>
              </text>
            </g>
          </g>
          <g transform="translate(0.0 46.0 ) ">
            <g>
              <g transform="translate(1.0 1.0 ) ">
                <g>
                  <circle cx="10.5" cy="10.5" r="5.0" fill="rgb(77,175,74)" fill-opacity="1.0" stroke="rgb(187,187,187)" stroke-opacity="1.0" stroke-width="0.75">
                  </circle>
                </g>
              </g>
            </g>
            <g transform="translate(26.9903027277341 16.05 ) ">
              <text class="legend-item" y="0.0">
                <tspan>Mar</tspan>
              </text>
            </g>
          </g>
          <g transform="translate(0.0 69.0 ) ">
            <g>
              <g transform="translate(1.0 1.0 ) ">
                <g>
                  <circle cx="10.5" cy="10.5" r="5.0" fill="rgb(152,78,163)" fill-opacity="1.0" stroke="rgb(187,187,187)" stroke-opacity="1.0" stroke-width="0.75">
                  </circle>
                </g>
              </g>
            </g>
            <g transform="translate(26.9903027277341 16.05 ) ">
              <text class="legend-item" y="0.0">
                <tspan>May</tspan>
              </text>
            </g>
          </g>
          <g transform="translate(0.0 92.0 ) ">
            <g>
              <g transform="translate(1.0 1.0 ) ">
                <g>
                  <circle cx="10.5" cy="10.5" r="5.0" fill="rgb(255,127,0)" fill-opacity="1.0" stroke="rgb(187,187,187)" stroke-opacity="1.0" stroke-width="0.75">
                  </circle>
                </g>
              </g>
            </g>
            <g transform="translate(26.9903027277341 16.05 ) ">
              <text class="legend-item" y="0.0">
                <tspan>Apr</tspan>
              </text>
            </g>
          </g>
        </g>
      </g>
    </g>
    <path fill="rgb(0,0,0)" fill-opacity="0.0" stroke="rgb(187,187,187)" stroke-opacity="1.0" stroke-width="0.0" d="M0.0 0.0 L0.0 470.0 L705.0 470.0 L705.0 0.0 Z" pointer-events="none">
    </path>
  </g>
  <g id="xXxprefixXx2">
  </g>
</svg>