<svg xmlns="http://www.w3.org/2000/svg" xmlns:xlink="http://www.w3.org/1999/xlink" display="block" class="plt-container" width="705.0" height="470.0">
  <style type="text/css">
  .plt-container {
   font-family: Lucida Grande, sans-serif;
   user-select: none;
   -webkit-user-select: none;
   -moz-user-select: none;
   -ms-user-select: none;
}
text {
   text-rendering: optimizeLegibility;
}
#xXxprefixXx0 .plot-title {
   fill: #bbbbbb;
   font-family: Lucida Grande, sans-serif;
   font-size: 16.0px;
   font-weight: normal;
   font-style: normal;   
}
#xXxprefixXx0 .plot-subtitle {
   fill: #bbbbbb;
   font-family: Lucida Grande, sans-serif;
   font-size: 15.0px;
   font-weight: normal;
   font-style: normal;   
}
#xXxprefixXx0 .plot-caption {
   fill: #bbbbbb;
   font-family: Lucida Grande, sans-serif;
   font-size: 13.0px;
   font-weight: normal;
   font-style: normal;   
}
#xXxprefixXx0 .legend-title {
   fill: #bbbbbb;
   font-family: Lucida Grande, sans-serif;
   font-size: 15.0px;
   font-weight: normal;
   font-style: normal;   
}
#xXxprefixXx0 .legend-item {
   fill: #bbbbbb;
   font-family: Lucida Grande, sans-serif;
   font-size: 13.0px;
   font-weight: normal;
   font-style: normal;   
}
#xXxprefixXx0 .axis-title-x {
   fill: #bbbbbb;
   font-family: Lucida Grande, sans-serif;
   font-size: 15.0px;
   font-weight: normal;
   font-style: normal;   
}
#xXxprefixXx0 .axis-text-x {
   fill: #bbbbbb;
   font-family: Lucida Grande, sans-serif;
   font-size: 13.0px;
   font-weight: normal;
   font-style: normal;   
}
#xXxprefixXx2 .axis-tooltip-text-x {
   fill: #303030;
   font-family: Lucida Grande, sans-serif;
   font-size: 13.0px;
   font-weight: normal;
   font-style: normal;   
}
#xXxprefixXx0 .axis-title-y {
   fill: #bbbbbb;
   font-family: Lucida Grande, sans-serif;
   font-size: 15.0px;
   font-weight: normal;
   font-style: normal;   
}
#xXxprefixXx0 .axis-text-y {
   fill: #bbbbbb;
   font-family: Lucida Grande, sans-serif;
   font-size: 13.0px;
   font-weight: normal;
   font-style: normal;   
}
#xXxprefixXx2 .axis-tooltip-text-y {
   fill: #303030;
   font-family: Lucida Grande, sans-serif;
   font-size: 13.0px;
   font-weight: normal;
   font-style: normal;   
}
#xXxprefixXx0 .facet-strip-text-x {
   fill: #bbbbbb;
   font-family: Lucida Grande, sans-serif;
   font-size: 13.0px;
   font-weight: normal;
   font-style: normal;   
}
#xXxprefixXx0 .facet-strip-text-y {
   fill: #bbbbbb;
   font-family: Lucida Grande, sans-serif;
   font-size: 13.0px;
   font-weight: normal;
   font-style: normal;   
}
#xXxprefixXx2 .tooltip-text {
   fill: #bbbbbb;
   font-family: Lucida Grande, sans-serif;
   font-size: 13.0px;
   font-weight: normal;
   font-style: normal;   
}
#xXxprefixXx2 .tooltip-title {
   fill: #bbbbbb;
   font-family: Lucida Grande, sans-serif;
   font-size: 13.0px;
   font-weight: bold;
   font-style: normal;   
}
#xXxprefixXx2 .tooltip-label {
   fill: #bbbbbb;
   font-family: Lucida Grande, sans-serif;
   font-size: 13.0px;
   font-weight: bold;
   font-style: normal;   
}

  </style>
  <g id="xXxprefixXx0">
    <path fill-rule="evenodd" fill="rgb(25,25,28)" fill-opacity="1.0" d="M0.0 0.0 L0.0 470.0 L705.0 470.0 L705.0 0.0 Z">
    </path>
    <g transform="translate(6.5 6.5 ) ">
      <g>
        <g transform="">
          <g>
          </g>
        </g>
        <g transform="">
          <g>
          </g>
        </g>
        <g transform="translate(0.0 457.0 ) ">
        </g>
        <g transform="">
        </g>
      </g>
      <g clip-path="url(#xXxprefixXx1)" clip-bounds-jfx="[rect (0.0, 0.0), (617.6830068840904, 457.0)]">
        <g transform="">
          <g>
            <g>
              <g>
                <path d="M308.8415034420452 228.5 L184.52626652101105 241.56605790845663 A125.0 125.0 0.0 0 1 308.8415034420453 103.5 L308.8415034420452 228.5 A0.0 0.0 0.0 0 0 308.8415034420452 228.5 " fill="rgb(228,26,28)" stroke-width="1.0" fill-opacity="1.0">
                </path>
              </g>
              <g>
                <path d="M308.8415034420452 228.5 L308.8415034420452 141.2027027027027 A87.29729729729729 87.29729729729729 0.0 0 1 390.898340194086 198.70916822810014 L308.8415034420452 228.5 A0.0 0.0 0.0 0 0 308.8415034420452 228.5 " fill="rgb(55,126,184)" stroke-width="1.0" fill-opacity="1.0">
                </path>
              </g>
              <g>
                <path d="M308.8415034420452 228.5 L423.2891968067337 186.94962937077122 A121.75675675675677 121.75675675675677 0.0 0 1 342.7820800916271 345.430513864508 L308.8415034420452 228.5 A0.0 0.0 0.0 0 0 308.8415034420452 228.5 " fill="rgb(77,175,74)" stroke-width="1.0" fill-opacity="1.0">
                </path>
              </g>
              <g>
                <path d="M308.8415034420452 228.5 L327.41276236351456 292.48084720888176 A66.62162162162163 66.62162162162163 0.0 0 1 266.35028600589783 279.812151663018 L308.8415034420452 228.5 A0.0 0.0 0.0 0 0 308.8415034420452 228.5 " fill="rgb(152,78,163)" stroke-width="1.0" fill-opacity="1.0">
                </path>
              </g>
              <g>
                <path d="M308.8415034420452 228.5 L276.95154309442955 267.01013410814744 A50.0 50.0 0.0 0 1 259.1154086736316 233.72642316338266 L308.8415034420452 228.5 A0.0 0.0 0.0 0 0 308.8415034420452 228.5 " fill="rgb(255,127,0)" stroke-width="1.0" fill-opacity="1.0">
                </path>
              </g>
              <g>
                <path d="M184.52626652101105 241.56605790845663 A125.0 125.0 0.0 0 1 308.8415034420453 103.5 M308.8415034420452 228.5 A0.0 0.0 0.0 0 0 308.8415034420452 228.5 " fill="none" stroke-width="0.75" stroke="rgb(48,48,48)" stroke-opacity="1.0">
                </path>
              </g>
              <g>
                <path d="M308.8415034420452 141.2027027027027 A87.29729729729729 87.29729729729729 0.0 0 1 390.898340194086 198.70916822810014 M308.8415034420452 228.5 A0.0 0.0 0.0 0 0 308.8415034420452 228.5 " fill="none" stroke-width="0.75" stroke="rgb(48,48,48)" stroke-opacity="1.0">
                </path>
              </g>
              <g>
                <path d="M423.2891968067337 186.94962937077122 A121.75675675675677 121.75675675675677 0.0 0 1 342.7820800916271 345.430513864508 M308.8415034420452 228.5 A0.0 0.0 0.0 0 0 308.8415034420452 228.5 " fill="none" stroke-width="0.75" stroke="rgb(48,48,48)" stroke-opacity="1.0">
                </path>
              </g>
              <g>
                <path d="M327.41276236351456 292.48084720888176 A66.62162162162163 66.62162162162163 0.0 0 1 266.35028600589783 279.812151663018 M308.8415034420452 228.5 A0.0 0.0 0.0 0 0 308.8415034420452 228.5 " fill="none" stroke-width="0.75" stroke="rgb(48,48,48)" stroke-opacity="1.0">
                </path>
              </g>
              <g>
                <path d="M276.95154309442955 267.01013410814744 A50.0 50.0 0.0 0 1 259.1154086736316 233.72642316338266 M308.8415034420452 228.5 A0.0 0.0 0.0 0 0 308.8415034420452 228.5 " fill="none" stroke-width="0.75" stroke="rgb(48,48,48)" stroke-opacity="1.0">
                </path>
              </g>
              <g>
                <path d="M308.8415034420452 228.5 L184.15332081024795 241.605256082182 M308.8415034420452 228.5 L308.8415034420453 103.125 " fill="none" stroke-width="0.75" stroke="rgb(48,48,48)" stroke-opacity="1.0">
                </path>
              </g>
              <g>
                <path d="M308.8415034420452 228.5 L308.8415034420452 140.8277027027027 M308.8415034420452 228.5 L391.2508289278119 198.5811967758292 " fill="none" stroke-width="0.75" stroke="rgb(48,48,48)" stroke-opacity="1.0">
                </path>
              </g>
              <g>
                <path d="M308.8415034420452 228.5 L423.64168554045955 186.8216579185003 M308.8415034420452 228.5 L342.8866140541161 345.7906494649231 " fill="none" stroke-width="0.75" stroke="rgb(48,48,48)" stroke-opacity="1.0">
                </path>
              </g>
              <g>
                <path d="M308.8415034420452 228.5 L327.51729632600353 292.84098280929686 M308.8415034420452 228.5 L266.1111113032907 280.10097766882916 " fill="none" stroke-width="0.75" stroke="rgb(48,48,48)" stroke-opacity="1.0">
                </path>
              </g>
              <g>
                <path d="M308.8415034420452 228.5 L276.7123683918224 267.2989601139585 M308.8415034420452 228.5 L258.74246296286844 233.76562133710803 " fill="none" stroke-width="0.75" stroke="rgb(48,48,48)" stroke-opacity="1.0">
                </path>
              </g>
            </g>
          </g>
        </g>
        <defs>
          <clipPath id="xXxprefixXx1">
            <rect x="0.0" y="0.0" width="617.6830068840904" height="457.0">
            </rect>
          </clipPath>
        </defs>
      </g>
      <g>
      </g>
    </g>
    <g transform="translate(630.6830068840904 156.25 ) ">
      <rect x="5.0" y="5.0" height="147.5" width="64.31699311590951" stroke="rgb(187,187,187)" stroke-opacity="1.0" stroke-width="0.0" fill="rgb(25,25,28)" fill-opacity="1.0">
      </rect>
      <g transform="translate(10.0 10.0 ) ">
        <g transform="translate(0.0 12.0 ) ">
          <text class="legend-title" y="0.0">
            <tspan>month</tspan>
          </text>
        </g>
        <g transform="translate(0.0 22.5 ) ">
          <g transform="">
            <g>
              <rect x="0.0" y="0.0" height="23.0" width="23.0" stroke-width="0.0" fill="rgb(25,25,28)" fill-opacity="1.0">
              </rect>
              <g transform="translate(1.0 1.0 ) ">
                <g>
                  <circle cx="10.5" cy="10.5" r="5.0" fill="rgb(228,26,28)" fill-opacity="1.0" stroke="rgb(187,187,187)" stroke-opacity="1.0" stroke-width="0.75">
                  </circle>
                </g>
              </g>
              <rect x="0.0" y="0.0" height="23.0" width="23.0" stroke="rgb(25,25,28)" stroke-opacity="1.0" stroke-width="1.0" fill-opacity="0.0">
              </rect>
            </g>
            <g transform="translate(26.9903027277341 16.05 ) ">
              <text class="legend-item" y="0.0">
                <tspan>Jan</tspan>
              </text>
            </g>
          </g>
          <g transform="translate(0.0 23.0 ) ">
            <g>
              <rect x="0.0" y="0.0" height="23.0" width="23.0" stroke-width="0.0" fill="rgb(25,25,28)" fill-opacity="1.0">
              </rect>
              <g transform="translate(1.0 1.0 ) ">
                <g>
                  <circle cx="10.5" cy="10.5" r="5.0" fill="rgb(55,126,184)" fill-opacity="1.0" stroke="rgb(187,187,187)" stroke-opacity="1.0" stroke-width="0.75">
                  </circle>
                </g>
              </g>
              <rect x="0.0" y="0.0" height="23.0" width="23.0" stroke="rgb(25,25,28)" stroke-opacity="1.0" stroke-width="1.0" fill-opacity="0.0">
              </rect>
            </g>
            <g transform="translate(26.9903027277341 16.05 ) ">
              <text class="legend-item" y="0.0">
                <tspan>Feb</tspan>
              </text>
            </g>
          </g>
          <g transform="translate(0.0 46.0 ) ">
            <g>
              <rect x="0.0" y="0.0" height="23.0" width="23.0" stroke-width="0.0" fill="rgb(25,25,28)" fill-opacity="1.0">
              </rect>
              <g transform="translate(1.0 1.0 ) ">
                <g>
                  <circle cx="10.5" cy="10.5" r="5.0" fill="rgb(77,175,74)" fill-opacity="1.0" stroke="rgb(187,187,187)" stroke-opacity="1.0" stroke-width="0.75">
                  </circle>
                </g>
              </g>
              <rect x="0.0" y="0.0" height="23.0" width="23.0" stroke="rgb(25,25,28)" stroke-opacity="1.0" stroke-width="1.0" fill-opacity="0.0">
              </rect>
            </g>
            <g transform="translate(26.9903027277341 16.05 ) ">
              <text class="legend-item" y="0.0">
                <tspan>Mar</tspan>
              </text>
            </g>
          </g>
          <g transform="translate(0.0 69.0 ) ">
            <g>
              <rect x="0.0" y="0.0" height="23.0" width="23.0" stroke-width="0.0" fill="rgb(25,25,28)" fill-opacity="1.0">
              </rect>
              <g transform="translate(1.0 1.0 ) ">
                <g>
                  <circle cx="10.5" cy="10.5" r="5.0" fill="rgb(152,78,163)" fill-opacity="1.0" stroke="rgb(187,187,187)" stroke-opacity="1.0" stroke-width="0.75">
                  </circle>
                </g>
              </g>
              <rect x="0.0" y="0.0" height="23.0" width="23.0" stroke="rgb(25,25,28)" stroke-opacity="1.0" stroke-width="1.0" fill-opacity="0.0">
              </rect>
            </g>
            <g transform="translate(26.9903027277341 16.05 ) ">
              <text class="legend-item" y="0.0">
                <tspan>May</tspan>
              </text>
            </g>
          </g>
          <g transform="translate(0.0 92.0 ) ">
            <g>
              <rect x="0.0" y="0.0" height="23.0" width="23.0" stroke-width="0.0" fill="rgb(25,25,28)" fill-opacity="1.0">
              </rect>
              <g transform="translate(1.0 1.0 ) ">
                <g>
                  <circle cx="10.5" cy="10.5" r="5.0" fill="rgb(255,127,0)" fill-opacity="1.0" stroke="rgb(187,187,187)" stroke-opacity="1.0" stroke-width="0.75">
                  </circle>
                </g>
              </g>
              <rect x="0.0" y="0.0" height="23.0" width="23.0" stroke="rgb(25,25,28)" stroke-opacity="1.0" stroke-width="1.0" fill-opacity="0.0">
              </rect>
            </g>
            <g transform="translate(26.9903027277341 16.05 ) ">
              <text class="legend-item" y="0.0">
                <tspan>Apr</tspan>
              </text>
            </g>
          </g>
        </g>
      </g>
    </g>
    <path fill="rgb(0,0,0)" fill-opacity="0.0" stroke="rgb(187,187,187)" stroke-opacity="1.0" stroke-width="0.0" d="M0.0 0.0 L0.0 470.0 L705.0 470.0 L705.0 0.0 Z">
    </path>
  </g>
  <g id="xXxprefixXx2">
  </g>
</svg>