<svg xmlns="http://www.w3.org/2000/svg" xmlns:xlink="http://www.w3.org/1999/xlink" display="block" class="plt-container" width="705.0" height="470.0">
  <style type="text/css">
  .plt-container {
   font-family: Lucida Grande, sans-serif;
   user-select: none;
   -webkit-user-select: none;
   -moz-user-select: none;
   -ms-user-select: none;
}
text {
   text-rendering: optimizeLegibility;
}
#xXxprefixXx0 .plot-title {
fill: #474747;
font-weight: normal;
   font-style: normal;font-family: Lucida Grande, sans-serif;
font-size: 16.0px;

}
#xXxprefixXx0 .plot-subtitle {
fill: #474747;
font-weight: normal;
   font-style: normal;font-family: Lucida Grande, sans-serif;
font-size: 15.0px;

}
#xXxprefixXx0 .plot-caption {
fill: #474747;
font-weight: normal;
   font-style: normal;font-family: Lucida Grande, sans-serif;
font-size: 13.0px;

}
#xXxprefixXx0 .hyperlink-element {
fill: #118ed8;
font-weight: normal;
   font-style: normal;
}
#xXxprefixXx0 .legend-title {
fill: #474747;
font-weight: normal;
   font-style: normal;font-family: Lucida Grande, sans-serif;
font-size: 15.0px;

}
#xXxprefixXx0 .legend-item {
fill: #474747;
font-weight: normal;
   font-style: normal;font-family: Lucida Grande, sans-serif;
font-size: 13.0px;

}
#xXxprefixXx0 .axis-title-x {
fill: #474747;
font-weight: normal;
   font-style: normal;font-family: Lucida Grande, sans-serif;
font-size: 15.0px;

}
#xXxprefixXx0 .axis-text-x {
fill: #474747;
font-weight: normal;
   font-style: normal;font-family: Lucida Grande, sans-serif;
font-size: 13.0px;

}
#xXxprefixXx2 .axis-tooltip-text-x {
fill: #ffffff;
font-weight: normal;
   font-style: normal;font-family: Lucida Grande, sans-serif;
font-size: 13.0px;

}
#xXxprefixXx0 .axis-title-y {
fill: #474747;
font-weight: normal;
   font-style: normal;font-family: Lucida Grande, sans-serif;
font-size: 15.0px;

}
#xXxprefixXx0 .axis-text-y {
fill: #474747;
font-weight: normal;
   font-style: normal;font-family: Lucida Grande, sans-serif;
font-size: 13.0px;

}
#xXxprefixXx2 .axis-tooltip-text-y {
fill: #ffffff;
font-weight: normal;
   font-style: normal;font-family: Lucida Grande, sans-serif;
font-size: 13.0px;

}
#xXxprefixXx0 .facet-strip-text-x {
fill: #474747;
font-weight: normal;
   font-style: normal;font-family: Lucida Grande, sans-serif;
font-size: 13.0px;

}
#xXxprefixXx0 .facet-strip-text-y {
fill: #474747;
font-weight: normal;
   font-style: normal;font-family: Lucida Grande, sans-serif;
font-size: 13.0px;

}
#xXxprefixXx2 .tooltip-text {
fill: #474747;
font-weight: normal;
   font-style: normal;font-family: Lucida Grande, sans-serif;
font-size: 13.0px;

}
#xXxprefixXx2 .tooltip-title {
fill: #474747;
font-weight: bold;
   font-style: normal;font-family: Lucida Grande, sans-serif;
font-size: 13.0px;

}
#xXxprefixXx2 .tooltip-label {
fill: #474747;
font-weight: bold;
   font-style: normal;font-family: Lucida Grande, sans-serif;
font-size: 13.0px;

}

  </style>
  <g id="xXxprefixXx0">
    <path fill-rule="evenodd" fill="rgb(255,255,255)" fill-opacity="1.0" d="M0.0 0.0 L0.0 470.0 L705.0 470.0 L705.0 0.0 Z">
    </path>
    <g transform="translate(6.5 6.5 ) ">
      <g>
        <g transform="">
          <g>
          </g>
        </g>
        <g transform="">
          <g>
          </g>
        </g>
        <g transform="translate(0.0 457.0 ) ">
        </g>
        <g transform="">
        </g>
      </g>
      <g clip-path="url(#xXxprefixXx1)" clip-bounds-jfx="[rect (0.0, 0.0), (571.9845414590388, 457.0)]">
        <g transform="">
          <g>
            <g>
              <g>
                <path d="M154.68561883186612 242.01159381525756 L121.85895585745283 245.38949226907192 A165.0 165.0 0.0 0 1 285.9922707295194 63.5 L285.9922707295194 96.5 A132.0 132.0 0.0 0 0 154.68561883186612 242.01159381525756 " fill="rgb(30,136,229)" stroke-width="1.0" fill-opacity="0.8">
                </path>
              </g>
              <g>
                <path d="M285.9922707295194 96.5 L285.9922707295194 63.5 A165.0 165.0 0.0 0 1 449.3506626585058 205.2828557661444 L416.6789842727086 209.9262846129155 A132.0 132.0 0.0 0 0 285.9922707295194 96.5 " fill="rgb(211,47,47)" stroke-width="1.0" fill-opacity="0.8">
                </path>
              </g>
              <g>
                <path d="M416.6789842727086 209.9262846129155 L449.3506626585058 205.2828557661444 A165.0 165.0 0.0 0 1 433.8993714545011 301.6333682742025 L404.3179513095048 287.006694619362 A132.0 132.0 0.0 0 0 416.6789842727086 209.9262846129155 " fill="rgb(123,31,162)" stroke-width="1.0" fill-opacity="0.8">
                </path>
              </g>
              <g>
                <path d="M404.3179513095048 287.006694619362 L433.8993714545011 301.6333682742025 A165.0 165.0 0.0 0 1 270.3228172490534 392.7542791759883 L273.4567079451466 359.90342334079065 A132.0 132.0 0.0 0 0 404.3179513095048 287.006694619362 " fill="rgb(251,192,45)" stroke-width="1.0" fill-opacity="0.8">
                </path>
              </g>
              <g>
                <path d="M273.4567079451466 359.90342334079065 L270.3228172490534 392.7542791759883 A165.0 165.0 0.0 0 1 201.02733638480774 369.94242620868334 L218.02032325375006 341.65394096694666 A132.0 132.0 0.0 0 0 273.4567079451466 359.90342334079065 " fill="rgb(56,142,60)" stroke-width="1.0" fill-opacity="0.8">
                </path>
              </g>
              <g>
                <path d="M218.02032325375006 341.65394096694666 L201.02733638480774 369.94242620868334 A165.0 165.0 0.0 0 1 121.85895585745283 245.38949226907204 L154.68561883186615 242.01159381525764 A132.0 132.0 0.0 0 0 218.02032325375006 341.65394096694666 " fill="rgb(117,117,117)" stroke-width="1.0" fill-opacity="0.8">
                </path>
              </g>
              <g>
                <path d="M121.85895585745283 245.38949226907192 A165.0 165.0 0.0 0 1 285.9922707295194 63.5 M285.9922707295194 96.5 A132.0 132.0 0.0 0 0 154.68561883186612 242.01159381525756 " fill="none" stroke-width="0.75" stroke="rgb(255,255,255)" stroke-opacity="1.0">
                </path>
              </g>
              <g>
                <path d="M285.9922707295194 63.5 A165.0 165.0 0.0 0 1 449.3506626585058 205.2828557661444 M416.6789842727086 209.9262846129155 A132.0 132.0 0.0 0 0 285.9922707295194 96.5 " fill="none" stroke-width="0.75" stroke="rgb(255,255,255)" stroke-opacity="1.0">
                </path>
              </g>
              <g>
                <path d="M449.3506626585058 205.2828557661444 A165.0 165.0 0.0 0 1 433.8993714545011 301.6333682742025 M404.3179513095048 287.006694619362 A132.0 132.0 0.0 0 0 416.6789842727086 209.9262846129155 " fill="none" stroke-width="0.75" stroke="rgb(255,255,255)" stroke-opacity="1.0">
                </path>
              </g>
              <g>
                <path d="M433.8993714545011 301.6333682742025 A165.0 165.0 0.0 0 1 270.3228172490534 392.7542791759883 M273.4567079451466 359.90342334079065 A132.0 132.0 0.0 0 0 404.3179513095048 287.006694619362 " fill="none" stroke-width="0.75" stroke="rgb(255,255,255)" stroke-opacity="1.0">
                </path>
              </g>
              <g>
                <path d="M270.3228172490534 392.7542791759883 A165.0 165.0 0.0 0 1 201.02733638480774 369.94242620868334 M218.02032325375006 341.65394096694666 A132.0 132.0 0.0 0 0 273.4567079451466 359.90342334079065 " fill="none" stroke-width="0.75" stroke="rgb(255,255,255)" stroke-opacity="1.0">
                </path>
              </g>
              <g>
                <path d="M201.02733638480774 369.94242620868334 A165.0 165.0 0.0 0 1 121.85895585745283 245.38949226907204 M154.68561883186615 242.01159381525764 A132.0 132.0 0.0 0 0 218.02032325375006 341.65394096694666 " fill="none" stroke-width="0.75" stroke="rgb(255,255,255)" stroke-opacity="1.0">
                </path>
              </g>
              <g>
                <path d="M155.05864909293902 241.9732086055551 L121.48592559637993 245.42787747877438 M285.9922707295194 96.875 L285.9922707295194 63.125 " fill="none" stroke-width="0.75" stroke="rgb(255,255,255)" stroke-opacity="1.0">
                </path>
              </g>
              <g>
                <path d="M285.9922707295194 96.875 L285.9922707295194 63.125 M416.3077152001427 209.97905084981062 L449.7219317310718 205.23008952924926 " fill="none" stroke-width="0.75" stroke="rgb(255,255,255)" stroke-opacity="1.0">
                </path>
              </g>
              <g>
                <path d="M416.3077152001427 209.97905084981062 L449.7219317310718 205.23008952924926 M403.9817988078571 286.8404824187388 L434.23552395614877 301.7995804748257 " fill="none" stroke-width="0.75" stroke="rgb(255,255,255)" stroke-opacity="1.0">
                </path>
              </g>
              <g>
                <path d="M403.9817988078571 286.8404824187388 L434.23552395614877 301.7995804748257 M273.49232033942036 359.53011816084523 L270.2872048547796 393.1275843559338 " fill="none" stroke-width="0.75" stroke="rgb(255,255,255)" stroke-opacity="1.0">
                </path>
              </g>
              <g>
                <path d="M273.49232033942036 359.53011816084523 L270.2872048547796 393.1275843559338 M218.21342537726076 341.33248090738147 L200.834234261297 370.26388626824854 " fill="none" stroke-width="0.75" stroke="rgb(255,255,255)" stroke-opacity="1.0">
                </path>
              </g>
              <g>
                <path d="M218.21342537726076 341.33248090738147 L200.834234261297 370.26388626824854 M155.05864909293902 241.97320860555521 L121.48592559637996 245.4278774787745 " fill="none" stroke-width="0.75" stroke="rgb(255,255,255)" stroke-opacity="1.0">
                </path>
              </g>
            </g>
          </g>
        </g>
        <defs>
          <clipPath id="xXxprefixXx1">
            <rect x="0.0" y="0.0" width="571.9845414590388" height="457.0">
            </rect>
          </clipPath>
        </defs>
      </g>
      <g>
      </g>
    </g>
    <g transform="translate(589.9845414590388 149.75 ) ">
      <rect x="0.0" y="0.0" height="170.5" width="115.01545854096113" stroke="rgb(71,71,71)" stroke-opacity="1.0" stroke-width="0.0" fill="rgb(255,255,255)" fill-opacity="1.0">
      </rect>
      <g transform="translate(5.0 5.0 ) ">
        <g transform="translate(0.0 12.0 ) ">
          <text class="legend-title" y="0.0">
            <tspan>language</tspan>
          </text>
        </g>
        <g transform="translate(0.0 22.5 ) ">
          <g transform="">
            <g>
              <g transform="translate(1.0 1.0 ) ">
                <g>
                  <circle cx="10.5" cy="10.5" r="5.0" fill="rgb(30,136,229)" fill-opacity="1.0" stroke="rgb(71,71,71)" stroke-opacity="1.0" stroke-width="0.75">
                  </circle>
                </g>
              </g>
            </g>
            <g transform="translate(26.9903027277341 16.05 ) ">
              <text class="legend-item" y="0.0">
                <tspan>Kotlin</tspan>
              </text>
            </g>
          </g>
          <g transform="translate(0.0 23.0 ) ">
            <g>
              <g transform="translate(1.0 1.0 ) ">
                <g>
                  <circle cx="10.5" cy="10.5" r="5.0" fill="rgb(211,47,47)" fill-opacity="1.0" stroke="rgb(71,71,71)" stroke-opacity="1.0" stroke-width="0.75">
                  </circle>
                </g>
              </g>
            </g>
            <g transform="translate(26.9903027277341 16.05 ) ">
              <text class="legend-item" y="0.0">
                <tspan>Java</tspan>
              </text>
            </g>
          </g>
          <g transform="translate(0.0 46.0 ) ">
            <g>
              <g transform="translate(1.0 1.0 ) ">
                <g>
                  <circle cx="10.5" cy="10.5" r="5.0" fill="rgb(123,31,162)" fill-opacity="1.0" stroke="rgb(71,71,71)" stroke-opacity="1.0" stroke-width="0.75">
                  </circle>
                </g>
              </g>
            </g>
            <g transform="translate(26.9903027277341 16.05 ) ">
              <text class="legend-item" y="0.0">
                <tspan>C++</tspan>
              </text>
            </g>
          </g>
          <g transform="translate(0.0 69.0 ) ">
            <g>
              <g transform="translate(1.0 1.0 ) ">
                <g>
                  <circle cx="10.5" cy="10.5" r="5.0" fill="rgb(251,192,45)" fill-opacity="1.0" stroke="rgb(71,71,71)" stroke-opacity="1.0" stroke-width="0.75">
                  </circle>
                </g>
              </g>
            </g>
            <g transform="translate(26.9903027277341 16.05 ) ">
              <text class="legend-item" y="0.0">
                <tspan>JavaScript</tspan>
              </text>
            </g>
          </g>
          <g transform="translate(0.0 92.0 ) ">
            <g>
              <g transform="translate(1.0 1.0 ) ">
                <g>
                  <circle cx="10.5" cy="10.5" r="5.0" fill="rgb(56,142,60)" fill-opacity="1.0" stroke="rgb(71,71,71)" stroke-opacity="1.0" stroke-width="0.75">
                  </circle>
                </g>
              </g>
            </g>
            <g transform="translate(26.9903027277341 16.05 ) ">
              <text class="legend-item" y="0.0">
                <tspan>C#</tspan>
              </text>
            </g>
          </g>
          <g transform="translate(0.0 115.0 ) ">
            <g>
              <g transform="translate(1.0 1.0 ) ">
                <g>
                  <circle cx="10.5" cy="10.5" r="5.0" fill="rgb(117,117,117)" fill-opacity="1.0" stroke="rgb(71,71,71)" stroke-opacity="1.0" stroke-width="0.75">
                  </circle>
                </g>
              </g>
            </g>
            <g transform="translate(26.9903027277341 16.05 ) ">
              <text class="legend-item" y="0.0">
                <tspan>Other</tspan>
              </text>
            </g>
          </g>
        </g>
      </g>
    </g>
    <path fill="rgb(0,0,0)" fill-opacity="0.0" stroke="rgb(71,71,71)" stroke-opacity="1.0" stroke-width="0.0" d="M0.0 0.0 L0.0 470.0 L705.0 470.0 L705.0 0.0 Z" pointer-events="none">
    </path>
  </g>
  <g id="xXxprefixXx2">
  </g>
</svg>