<svg xmlns="http://www.w3.org/2000/svg" xmlns:xlink="http://www.w3.org/1999/xlink" display="block" class="plt-container" width="705.0" height="470.0">
  <style type="text/css">
  .plt-container {
   font-family: Lucida Grande, sans-serif;
   user-select: none;
   -webkit-user-select: none;
   -moz-user-select: none;
   -ms-user-select: none;
}
text {
   text-rendering: optimizeLegibility;
}
#xXxprefixXx0 .plot-title {
   fill: #bbbbbb;
   font-family: Lucida Grande, sans-serif;
   font-size: 16.0px;
   font-weight: normal;
   font-style: normal;   
}
#xXxprefixXx0 .plot-subtitle {
   fill: #bbbbbb;
   font-family: Lucida Grande, sans-serif;
   font-size: 15.0px;
   font-weight: normal;
   font-style: normal;   
}
#xXxprefixXx0 .plot-caption {
   fill: #bbbbbb;
   font-family: Lucida Grande, sans-serif;
   font-size: 13.0px;
   font-weight: normal;
   font-style: normal;   
}
#xXxprefixXx0 .legend-title {
   fill: #bbbbbb;
   font-family: Lucida Grande, sans-serif;
   font-size: 15.0px;
   font-weight: normal;
   font-style: normal;   
}
#xXxprefixXx0 .legend-item {
   fill: #bbbbbb;
   font-family: Lucida Grande, sans-serif;
   font-size: 13.0px;
   font-weight: normal;
   font-style: normal;   
}
#xXxprefixXx0 .axis-title-x {
   fill: #bbbbbb;
   font-family: Lucida Grande, sans-serif;
   font-size: 15.0px;
   font-weight: normal;
   font-style: normal;   
}
#xXxprefixXx0 .axis-text-x {
   fill: #bbbbbb;
   font-family: Lucida Grande, sans-serif;
   font-size: 13.0px;
   font-weight: normal;
   font-style: normal;   
}
#xXxprefixXx2 .axis-tooltip-text-x {
   fill: #303030;
   font-family: Lucida Grande, sans-serif;
   font-size: 13.0px;
   font-weight: normal;
   font-style: normal;   
}
#xXxprefixXx0 .axis-title-y {
   fill: #bbbbbb;
   font-family: Lucida Grande, sans-serif;
   font-size: 15.0px;
   font-weight: normal;
   font-style: normal;   
}
#xXxprefixXx0 .axis-text-y {
   fill: #bbbbbb;
   font-family: Lucida Grande, sans-serif;
   font-size: 13.0px;
   font-weight: normal;
   font-style: normal;   
}
#xXxprefixXx2 .axis-tooltip-text-y {
   fill: #303030;
   font-family: Lucida Grande, sans-serif;
   font-size: 13.0px;
   font-weight: normal;
   font-style: normal;   
}
#xXxprefixXx0 .facet-strip-text-x {
   fill: #bbbbbb;
   font-family: Lucida Grande, sans-serif;
   font-size: 13.0px;
   font-weight: normal;
   font-style: normal;   
}
#xXxprefixXx0 .facet-strip-text-y {
   fill: #bbbbbb;
   font-family: Lucida Grande, sans-serif;
   font-size: 13.0px;
   font-weight: normal;
   font-style: normal;   
}
#xXxprefixXx2 .tooltip-text {
   fill: #bbbbbb;
   font-family: Lucida Grande, sans-serif;
   font-size: 13.0px;
   font-weight: normal;
   font-style: normal;   
}
#xXxprefixXx2 .tooltip-title {
   fill: #bbbbbb;
   font-family: Lucida Grande, sans-serif;
   font-size: 13.0px;
   font-weight: bold;
   font-style: normal;   
}
#xXxprefixXx2 .tooltip-label {
   fill: #bbbbbb;
   font-family: Lucida Grande, sans-serif;
   font-size: 13.0px;
   font-weight: bold;
   font-style: normal;   
}

  </style>
  <g id="xXxprefixXx0">
    <path fill-rule="evenodd" fill="rgb(25,25,28)" fill-opacity="1.0" d="M0.0 0.0 L0.0 470.0 L705.0 470.0 L705.0 0.0 Z">
    </path>
    <g transform="translate(6.5 6.5 ) ">
      <g>
        <g transform="">
          <g>
          </g>
        </g>
        <g transform="">
          <g>
          </g>
        </g>
        <g transform="translate(0.0 457.0 ) ">
        </g>
        <g transform="">
        </g>
      </g>
      <g clip-path="url(#xXxprefixXx1)" clip-bounds-jfx="[rect (0.0, 0.0), (574.965146914507, 457.0)]">
        <g transform="">
          <g>
            <g>
              <g>
                <path d="M156.17592155960023 242.01159381525756 L123.34925858518693 245.38949226907192 A165.0 165.0 0.0 0 1 287.4825734572535 63.5 L287.4825734572535 96.5 A132.0 132.0 0.0 0 0 156.17592155960023 242.01159381525756 " fill="rgb(30,136,229)" stroke-width="1.0" fill-opacity="0.8">
                </path>
              </g>
              <g>
                <path d="M287.4825734572535 96.5 L287.4825734572535 63.5 A165.0 165.0 0.0 0 1 450.84096538624 205.2828557661444 L418.1692870004427 209.9262846129155 A132.0 132.0 0.0 0 0 287.4825734572535 96.5 " fill="rgb(211,47,47)" stroke-width="1.0" fill-opacity="0.8">
                </path>
              </g>
              <g>
                <path d="M418.1692870004427 209.9262846129155 L450.84096538624 205.2828557661444 A165.0 165.0 0.0 0 1 435.3896741822352 301.6333682742025 L405.80825403723884 287.006694619362 A132.0 132.0 0.0 0 0 418.1692870004427 209.9262846129155 " fill="rgb(123,31,162)" stroke-width="1.0" fill-opacity="0.8">
                </path>
              </g>
              <g>
                <path d="M405.80825403723884 287.006694619362 L435.3896741822352 301.6333682742025 A165.0 165.0 0.0 0 1 271.8131199767875 392.7542791759883 L274.9470106728807 359.90342334079065 A132.0 132.0 0.0 0 0 405.80825403723884 287.006694619362 " fill="rgb(251,192,45)" stroke-width="1.0" fill-opacity="0.8">
                </path>
              </g>
              <g>
                <path d="M274.9470106728807 359.90342334079065 L271.8131199767875 392.7542791759883 A165.0 165.0 0.0 0 1 202.51763911254184 369.94242620868334 L219.51062598148417 341.65394096694666 A132.0 132.0 0.0 0 0 274.9470106728807 359.90342334079065 " fill="rgb(56,142,60)" stroke-width="1.0" fill-opacity="0.8">
                </path>
              </g>
              <g>
                <path d="M219.51062598148417 341.65394096694666 L202.51763911254184 369.94242620868334 A165.0 165.0 0.0 0 1 123.34925858518693 245.38949226907204 L156.17592155960025 242.01159381525764 A132.0 132.0 0.0 0 0 219.51062598148417 341.65394096694666 " fill="rgb(117,117,117)" stroke-width="1.0" fill-opacity="0.8">
                </path>
              </g>
              <g>
                <path d="M123.34925858518693 245.38949226907192 A165.0 165.0 0.0 0 1 287.4825734572535 63.5 M287.4825734572535 96.5 A132.0 132.0 0.0 0 0 156.17592155960023 242.01159381525756 " fill="none" stroke-width="0.75" stroke="rgb(48,48,48)" stroke-opacity="1.0">
                </path>
              </g>
              <g>
                <path d="M287.4825734572535 63.5 A165.0 165.0 0.0 0 1 450.84096538624 205.2828557661444 M418.1692870004427 209.9262846129155 A132.0 132.0 0.0 0 0 287.4825734572535 96.5 " fill="none" stroke-width="0.75" stroke="rgb(48,48,48)" stroke-opacity="1.0">
                </path>
              </g>
              <g>
                <path d="M450.84096538624 205.2828557661444 A165.0 165.0 0.0 0 1 435.3896741822352 301.6333682742025 M405.80825403723884 287.006694619362 A132.0 132.0 0.0 0 0 418.1692870004427 209.9262846129155 " fill="none" stroke-width="0.75" stroke="rgb(48,48,48)" stroke-opacity="1.0">
                </path>
              </g>
              <g>
                <path d="M435.3896741822352 301.6333682742025 A165.0 165.0 0.0 0 1 271.8131199767875 392.7542791759883 M274.9470106728807 359.90342334079065 A132.0 132.0 0.0 0 0 405.80825403723884 287.006694619362 " fill="none" stroke-width="0.75" stroke="rgb(48,48,48)" stroke-opacity="1.0">
                </path>
              </g>
              <g>
                <path d="M271.8131199767875 392.7542791759883 A165.0 165.0 0.0 0 1 202.51763911254184 369.94242620868334 M219.51062598148417 341.65394096694666 A132.0 132.0 0.0 0 0 274.9470106728807 359.90342334079065 " fill="none" stroke-width="0.75" stroke="rgb(48,48,48)" stroke-opacity="1.0">
                </path>
              </g>
              <g>
                <path d="M202.51763911254184 369.94242620868334 A165.0 165.0 0.0 0 1 123.34925858518693 245.38949226907204 M156.17592155960025 242.01159381525764 A132.0 132.0 0.0 0 0 219.51062598148417 341.65394096694666 " fill="none" stroke-width="0.75" stroke="rgb(48,48,48)" stroke-opacity="1.0">
                </path>
              </g>
              <g>
                <path d="M156.54895182067312 241.9732086055551 L122.97622832411403 245.42787747877438 M287.4825734572535 96.875 L287.4825734572535 63.125 " fill="none" stroke-width="0.75" stroke="rgb(48,48,48)" stroke-opacity="1.0">
                </path>
              </g>
              <g>
                <path d="M287.4825734572535 96.875 L287.4825734572535 63.125 M417.7980179278768 209.97905084981062 L451.2122344588058 205.23008952924926 " fill="none" stroke-width="0.75" stroke="rgb(48,48,48)" stroke-opacity="1.0">
                </path>
              </g>
              <g>
                <path d="M417.7980179278768 209.97905084981062 L451.2122344588058 205.23008952924926 M405.47210153559115 286.8404824187388 L435.7258266838829 301.7995804748257 " fill="none" stroke-width="0.75" stroke="rgb(48,48,48)" stroke-opacity="1.0">
                </path>
              </g>
              <g>
                <path d="M405.47210153559115 286.8404824187388 L435.7258266838829 301.7995804748257 M274.98262306715446 359.53011816084523 L271.7775075825137 393.1275843559338 " fill="none" stroke-width="0.75" stroke="rgb(48,48,48)" stroke-opacity="1.0">
                </path>
              </g>
              <g>
                <path d="M274.98262306715446 359.53011816084523 L271.7775075825137 393.1275843559338 M219.70372810499487 341.33248090738147 L202.32453698903112 370.26388626824854 " fill="none" stroke-width="0.75" stroke="rgb(48,48,48)" stroke-opacity="1.0">
                </path>
              </g>
              <g>
                <path d="M219.70372810499487 341.33248090738147 L202.32453698903112 370.26388626824854 M156.54895182067312 241.97320860555521 L122.97622832411406 245.4278774787745 " fill="none" stroke-width="0.75" stroke="rgb(48,48,48)" stroke-opacity="1.0">
                </path>
              </g>
            </g>
          </g>
        </g>
        <defs>
          <clipPath id="xXxprefixXx1">
            <rect x="0.0" y="0.0" width="574.965146914507" height="457.0">
            </rect>
          </clipPath>
        </defs>
      </g>
      <g>
      </g>
    </g>
    <g transform="translate(587.965146914507 144.75 ) ">
      <rect x="5.0" y="5.0" height="170.5" width="107.03485308549293" stroke="rgb(187,187,187)" stroke-opacity="1.0" stroke-width="0.0" fill="rgb(25,25,28)" fill-opacity="1.0">
      </rect>
      <g transform="translate(10.0 10.0 ) ">
        <g transform="translate(0.0 12.0 ) ">
          <text class="legend-title" y="0.0">
            <tspan>language</tspan>
          </text>
        </g>
        <g transform="translate(0.0 22.5 ) ">
          <g transform="">
            <g>
              <rect x="0.0" y="0.0" height="23.0" width="23.0" stroke-width="0.0" fill="rgb(25,25,28)" fill-opacity="1.0">
              </rect>
              <g transform="translate(1.0 1.0 ) ">
                <g>
                  <circle cx="10.5" cy="10.5" r="5.0" fill="rgb(30,136,229)" fill-opacity="1.0" stroke="rgb(187,187,187)" stroke-opacity="1.0" stroke-width="0.75">
                  </circle>
                </g>
              </g>
              <rect x="0.0" y="0.0" height="23.0" width="23.0" stroke="rgb(25,25,28)" stroke-opacity="1.0" stroke-width="1.0" fill-opacity="0.0">
              </rect>
            </g>
            <g transform="translate(26.9903027277341 16.05 ) ">
              <text class="legend-item" y="0.0">
                <tspan>Kotlin</tspan>
              </text>
            </g>
          </g>
          <g transform="translate(0.0 23.0 ) ">
            <g>
              <rect x="0.0" y="0.0" height="23.0" width="23.0" stroke-width="0.0" fill="rgb(25,25,28)" fill-opacity="1.0">
              </rect>
              <g transform="translate(1.0 1.0 ) ">
                <g>
                  <circle cx="10.5" cy="10.5" r="5.0" fill="rgb(211,47,47)" fill-opacity="1.0" stroke="rgb(187,187,187)" stroke-opacity="1.0" stroke-width="0.75">
                  </circle>
                </g>
              </g>
              <rect x="0.0" y="0.0" height="23.0" width="23.0" stroke="rgb(25,25,28)" stroke-opacity="1.0" stroke-width="1.0" fill-opacity="0.0">
              </rect>
            </g>
            <g transform="translate(26.9903027277341 16.05 ) ">
              <text class="legend-item" y="0.0">
                <tspan>Java</tspan>
              </text>
            </g>
          </g>
          <g transform="translate(0.0 46.0 ) ">
            <g>
              <rect x="0.0" y="0.0" height="23.0" width="23.0" stroke-width="0.0" fill="rgb(25,25,28)" fill-opacity="1.0">
              </rect>
              <g transform="translate(1.0 1.0 ) ">
                <g>
                  <circle cx="10.5" cy="10.5" r="5.0" fill="rgb(123,31,162)" fill-opacity="1.0" stroke="rgb(187,187,187)" stroke-opacity="1.0" stroke-width="0.75">
                  </circle>
                </g>
              </g>
              <rect x="0.0" y="0.0" height="23.0" width="23.0" stroke="rgb(25,25,28)" stroke-opacity="1.0" stroke-width="1.0" fill-opacity="0.0">
              </rect>
            </g>
            <g transform="translate(26.9903027277341 16.05 ) ">
              <text class="legend-item" y="0.0">
                <tspan>C++</tspan>
              </text>
            </g>
          </g>
          <g transform="translate(0.0 69.0 ) ">
            <g>
              <rect x="0.0" y="0.0" height="23.0" width="23.0" stroke-width="0.0" fill="rgb(25,25,28)" fill-opacity="1.0">
              </rect>
              <g transform="translate(1.0 1.0 ) ">
                <g>
                  <circle cx="10.5" cy="10.5" r="5.0" fill="rgb(251,192,45)" fill-opacity="1.0" stroke="rgb(187,187,187)" stroke-opacity="1.0" stroke-width="0.75">
                  </circle>
                </g>
              </g>
              <rect x="0.0" y="0.0" height="23.0" width="23.0" stroke="rgb(25,25,28)" stroke-opacity="1.0" stroke-width="1.0" fill-opacity="0.0">
              </rect>
            </g>
            <g transform="translate(26.9903027277341 16.05 ) ">
              <text class="legend-item" y="0.0">
                <tspan>JavaScript</tspan>
              </text>
            </g>
          </g>
          <g transform="translate(0.0 92.0 ) ">
            <g>
              <rect x="0.0" y="0.0" height="23.0" width="23.0" stroke-width="0.0" fill="rgb(25,25,28)" fill-opacity="1.0">
              </rect>
              <g transform="translate(1.0 1.0 ) ">
                <g>
                  <circle cx="10.5" cy="10.5" r="5.0" fill="rgb(56,142,60)" fill-opacity="1.0" stroke="rgb(187,187,187)" stroke-opacity="1.0" stroke-width="0.75">
                  </circle>
                </g>
              </g>
              <rect x="0.0" y="0.0" height="23.0" width="23.0" stroke="rgb(25,25,28)" stroke-opacity="1.0" stroke-width="1.0" fill-opacity="0.0">
              </rect>
            </g>
            <g transform="translate(26.9903027277341 16.05 ) ">
              <text class="legend-item" y="0.0">
                <tspan>C#</tspan>
              </text>
            </g>
          </g>
          <g transform="translate(0.0 115.0 ) ">
            <g>
              <rect x="0.0" y="0.0" height="23.0" width="23.0" stroke-width="0.0" fill="rgb(25,25,28)" fill-opacity="1.0">
              </rect>
              <g transform="translate(1.0 1.0 ) ">
                <g>
                  <circle cx="10.5" cy="10.5" r="5.0" fill="rgb(117,117,117)" fill-opacity="1.0" stroke="rgb(187,187,187)" stroke-opacity="1.0" stroke-width="0.75">
                  </circle>
                </g>
              </g>
              <rect x="0.0" y="0.0" height="23.0" width="23.0" stroke="rgb(25,25,28)" stroke-opacity="1.0" stroke-width="1.0" fill-opacity="0.0">
              </rect>
            </g>
            <g transform="translate(26.9903027277341 16.05 ) ">
              <text class="legend-item" y="0.0">
                <tspan>Other</tspan>
              </text>
            </g>
          </g>
        </g>
      </g>
    </g>
    <path fill="rgb(0,0,0)" fill-opacity="0.0" stroke="rgb(187,187,187)" stroke-opacity="1.0" stroke-width="0.0" d="M0.0 0.0 L0.0 470.0 L705.0 470.0 L705.0 0.0 Z">
    </path>
  </g>
  <g id="xXxprefixXx2">
  </g>
</svg>