<svg xmlns="http://www.w3.org/2000/svg" xmlns:xlink="http://www.w3.org/1999/xlink" display="block" class="plt-container" width="705.0" height="470.0">
  <style type="text/css">
  .plt-container {
   font-family: Lucida Grande, sans-serif;
   user-select: none;
   -webkit-user-select: none;
   -moz-user-select: none;
   -ms-user-select: none;
}
text {
   text-rendering: optimizeLegibility;
}
#xXxprefixXx0 .plot-title {
fill: #bbbbbb;
font-weight: normal;
   font-style: normal;font-family: Lucida Grande, sans-serif;
font-size: 16.0px;

}
#xXxprefixXx0 .plot-subtitle {
fill: #bbbbbb;
font-weight: normal;
   font-style: normal;font-family: Lucida Grande, sans-serif;
font-size: 15.0px;

}
#xXxprefixXx0 .plot-caption {
fill: #bbbbbb;
font-weight: normal;
   font-style: normal;font-family: Lucida Grande, sans-serif;
font-size: 13.0px;

}
#xXxprefixXx0 .hyperlink-element {
fill: #118ed8;
font-weight: normal;
   font-style: normal;
}
#xXxprefixXx0 .legend-title {
fill: #bbbbbb;
font-weight: normal;
   font-style: normal;font-family: Lucida Grande, sans-serif;
font-size: 15.0px;

}
#xXxprefixXx0 .legend-item {
fill: #bbbbbb;
font-weight: normal;
   font-style: normal;font-family: Lucida Grande, sans-serif;
font-size: 13.0px;

}
#xXxprefixXx0 .axis-title-x {
fill: #bbbbbb;
font-weight: normal;
   font-style: normal;font-family: Lucida Grande, sans-serif;
font-size: 15.0px;

}
#xXxprefixXx0 .axis-text-x {
fill: #bbbbbb;
font-weight: normal;
   font-style: normal;font-family: Lucida Grande, sans-serif;
font-size: 13.0px;

}
#xXxprefixXx2 .axis-tooltip-text-x {
fill: #303030;
font-weight: normal;
   font-style: normal;font-family: Lucida Grande, sans-serif;
font-size: 13.0px;

}
#xXxprefixXx0 .axis-title-y {
fill: #bbbbbb;
font-weight: normal;
   font-style: normal;font-family: Lucida Grande, sans-serif;
font-size: 15.0px;

}
#xXxprefixXx0 .axis-text-y {
fill: #bbbbbb;
font-weight: normal;
   font-style: normal;font-family: Lucida Grande, sans-serif;
font-size: 13.0px;

}
#xXxprefixXx2 .axis-tooltip-text-y {
fill: #303030;
font-weight: normal;
   font-style: normal;font-family: Lucida Grande, sans-serif;
font-size: 13.0px;

}
#xXxprefixXx0 .facet-strip-text-x {
fill: #bbbbbb;
font-weight: normal;
   font-style: normal;font-family: Lucida Grande, sans-serif;
font-size: 13.0px;

}
#xXxprefixXx0 .facet-strip-text-y {
fill: #bbbbbb;
font-weight: normal;
   font-style: normal;font-family: Lucida Grande, sans-serif;
font-size: 13.0px;

}
#xXxprefixXx2 .tooltip-text {
fill: #bbbbbb;
font-weight: normal;
   font-style: normal;font-family: Lucida Grande, sans-serif;
font-size: 13.0px;

}
#xXxprefixXx2 .tooltip-title {
fill: #bbbbbb;
font-weight: bold;
   font-style: normal;font-family: Lucida Grande, sans-serif;
font-size: 13.0px;

}
#xXxprefixXx2 .tooltip-label {
fill: #bbbbbb;
font-weight: bold;
   font-style: normal;font-family: Lucida Grande, sans-serif;
font-size: 13.0px;

}

  </style>
  <g id="xXxprefixXx0">
    <path fill-rule="evenodd" fill="rgb(25,25,28)" fill-opacity="1.0" d="M68.50134490176401 0.0 L68.50134490176401 470.0 L636.498655098236 470.0 L636.498655098236 0.0 Z">
    </path>
    <g transform="translate(98.00134490176401 6.5 ) ">
      <g>
        <g transform="translate(21.961210910936405 0.0 ) ">
          <g>
            <line x1="0.0" y1="0.0" x2="0.0" y2="411.0" stroke="rgb(71,71,71)" stroke-opacity="1.0" stroke-width="1.0" fill="none">
            </line>
            <line x1="84.6815715965489" y1="0.0" x2="84.6815715965489" y2="411.0" stroke="rgb(71,71,71)" stroke-opacity="1.0" stroke-width="1.0" fill="none">
            </line>
            <line x1="169.36314319309793" y1="0.0" x2="169.36314319309793" y2="411.0" stroke="rgb(71,71,71)" stroke-opacity="1.0" stroke-width="1.0" fill="none">
            </line>
            <line x1="254.04471478964672" y1="0.0" x2="254.04471478964672" y2="411.0" stroke="rgb(71,71,71)" stroke-opacity="1.0" stroke-width="1.0" fill="none">
            </line>
            <line x1="338.7262863861956" y1="0.0" x2="338.7262863861956" y2="411.0" stroke="rgb(71,71,71)" stroke-opacity="1.0" stroke-width="1.0" fill="none">
            </line>
            <line x1="423.4078579827445" y1="0.0" x2="423.4078579827445" y2="411.0" stroke="rgb(71,71,71)" stroke-opacity="1.0" stroke-width="1.0" fill="none">
            </line>
            <line x1="508.0894295792934" y1="0.0" x2="508.0894295792934" y2="411.0" stroke="rgb(71,71,71)" stroke-opacity="1.0" stroke-width="1.0" fill="none">
            </line>
          </g>
        </g>
        <g transform="translate(21.961210910936405 0.0 ) ">
          <g>
            <line x1="0.0" y1="389.92737578506717" x2="510.0360992855356" y2="389.92737578506717" stroke="rgb(71,71,71)" stroke-opacity="1.0" stroke-width="1.0" fill="none">
            </line>
            <line x1="0.0" y1="367.0029342735717" x2="510.0360992855356" y2="367.0029342735717" stroke="rgb(71,71,71)" stroke-opacity="1.0" stroke-width="1.0" fill="none">
            </line>
            <line x1="0.0" y1="343.1241273209573" x2="510.0360992855356" y2="343.1241273209573" stroke="rgb(71,71,71)" stroke-opacity="1.0" stroke-width="1.0" fill="none">
            </line>
            <line x1="0.0" y1="318.00817866392936" x2="510.0360992855356" y2="318.00817866392936" stroke="rgb(71,71,71)" stroke-opacity="1.0" stroke-width="1.0" fill="none">
            </line>
            <line x1="0.0" y1="291.3050200875813" x2="510.0360992855356" y2="291.3050200875813" stroke="rgb(71,71,71)" stroke-opacity="1.0" stroke-width="1.0" fill="none">
            </line>
            <line x1="0.0" y1="262.5662816006661" x2="510.0360992855356" y2="262.5662816006661" stroke="rgb(71,71,71)" stroke-opacity="1.0" stroke-width="1.0" fill="none">
            </line>
            <line x1="0.0" y1="231.1964404120346" x2="510.0360992855356" y2="231.1964404120346" stroke="rgb(71,71,71)" stroke-opacity="1.0" stroke-width="1.0" fill="none">
            </line>
            <line x1="0.0" y1="196.3716210466921" x2="510.0360992855356" y2="196.3716210466921" stroke="rgb(71,71,71)" stroke-opacity="1.0" stroke-width="1.0" fill="none">
            </line>
            <line x1="0.0" y1="156.8957787902985" x2="510.0360992855356" y2="156.8957787902985" stroke="rgb(71,71,71)" stroke-opacity="1.0" stroke-width="1.0" fill="none">
            </line>
            <line x1="0.0" y1="110.92494578233146" x2="510.0360992855356" y2="110.92494578233146" stroke="rgb(71,71,71)" stroke-opacity="1.0" stroke-width="1.0" fill="none">
            </line>
            <line x1="0.0" y1="55.38020839373269" x2="510.0360992855356" y2="55.38020839373269" stroke="rgb(71,71,71)" stroke-opacity="1.0" stroke-width="1.0" fill="none">
            </line>
          </g>
        </g>
        <g transform="translate(21.961210910936405 411.0 ) ">
          <g transform="translate(0.0 0.0 ) ">
            <line stroke-width="1.0" stroke="rgb(187,187,187)" stroke-opacity="1.0" x2="0.0" y2="4.0">
            </line>
            <g transform="translate(0.0 7.0 ) ">
              <text class="axis-text-x" text-anchor="middle" dy="0.7em">
                <tspan>-180</tspan>
              </text>
            </g>
          </g>
          <g transform="translate(84.6815715965489 0.0 ) ">
            <line stroke-width="1.0" stroke="rgb(187,187,187)" stroke-opacity="1.0" x2="0.0" y2="4.0">
            </line>
            <g transform="translate(0.0 7.0 ) ">
              <text class="axis-text-x" text-anchor="middle" dy="0.7em">
                <tspan>-160</tspan>
              </text>
            </g>
          </g>
          <g transform="translate(169.36314319309793 0.0 ) ">
            <line stroke-width="1.0" stroke="rgb(187,187,187)" stroke-opacity="1.0" x2="0.0" y2="4.0">
            </line>
            <g transform="translate(0.0 7.0 ) ">
              <text class="axis-text-x" text-anchor="middle" dy="0.7em">
                <tspan>-140</tspan>
              </text>
            </g>
          </g>
          <g transform="translate(254.04471478964672 0.0 ) ">
            <line stroke-width="1.0" stroke="rgb(187,187,187)" stroke-opacity="1.0" x2="0.0" y2="4.0">
            </line>
            <g transform="translate(0.0 7.0 ) ">
              <text class="axis-text-x" text-anchor="middle" dy="0.7em">
                <tspan>-120</tspan>
              </text>
            </g>
          </g>
          <g transform="translate(338.7262863861956 0.0 ) ">
            <line stroke-width="1.0" stroke="rgb(187,187,187)" stroke-opacity="1.0" x2="0.0" y2="4.0">
            </line>
            <g transform="translate(0.0 7.0 ) ">
              <text class="axis-text-x" text-anchor="middle" dy="0.7em">
                <tspan>-100</tspan>
              </text>
            </g>
          </g>
          <g transform="translate(423.4078579827445 0.0 ) ">
            <line stroke-width="1.0" stroke="rgb(187,187,187)" stroke-opacity="1.0" x2="0.0" y2="4.0">
            </line>
            <g transform="translate(0.0 7.0 ) ">
              <text class="axis-text-x" text-anchor="middle" dy="0.7em">
                <tspan>-80</tspan>
              </text>
            </g>
          </g>
          <g transform="translate(508.0894295792934 0.0 ) ">
            <line stroke-width="1.0" stroke="rgb(187,187,187)" stroke-opacity="1.0" x2="0.0" y2="4.0">
            </line>
            <g transform="translate(0.0 7.0 ) ">
              <text class="axis-text-x" text-anchor="middle" dy="0.7em">
                <tspan>-60</tspan>
              </text>
            </g>
          </g>
          <line x1="0.0" y1="0.0" x2="510.0360992855356" y2="0.0" stroke-width="1.0" stroke="rgb(187,187,187)" stroke-opacity="1.0">
          </line>
        </g>
        <g transform="translate(21.961210910936405 0.0 ) ">
          <g transform="translate(0.0 389.92737578506717 ) ">
            <g transform="translate(-3.0 0.0 ) ">
              <text class="axis-text-y" text-anchor="end" dy="0.35em">
                <tspan>20</tspan>
              </text>
            </g>
          </g>
          <g transform="translate(0.0 367.0029342735717 ) ">
            <g transform="translate(-3.0 0.0 ) ">
              <text class="axis-text-y" text-anchor="end" dy="0.35em">
                <tspan>25</tspan>
              </text>
            </g>
          </g>
          <g transform="translate(0.0 343.1241273209573 ) ">
            <g transform="translate(-3.0 0.0 ) ">
              <text class="axis-text-y" text-anchor="end" dy="0.35em">
                <tspan>30</tspan>
              </text>
            </g>
          </g>
          <g transform="translate(0.0 318.00817866392936 ) ">
            <g transform="translate(-3.0 0.0 ) ">
              <text class="axis-text-y" text-anchor="end" dy="0.35em">
                <tspan>35</tspan>
              </text>
            </g>
          </g>
          <g transform="translate(0.0 291.3050200875813 ) ">
            <g transform="translate(-3.0 0.0 ) ">
              <text class="axis-text-y" text-anchor="end" dy="0.35em">
                <tspan>40</tspan>
              </text>
            </g>
          </g>
          <g transform="translate(0.0 262.5662816006661 ) ">
            <g transform="translate(-3.0 0.0 ) ">
              <text class="axis-text-y" text-anchor="end" dy="0.35em">
                <tspan>45</tspan>
              </text>
            </g>
          </g>
          <g transform="translate(0.0 231.1964404120346 ) ">
            <g transform="translate(-3.0 0.0 ) ">
              <text class="axis-text-y" text-anchor="end" dy="0.35em">
                <tspan>50</tspan>
              </text>
            </g>
          </g>
          <g transform="translate(0.0 196.3716210466921 ) ">
            <g transform="translate(-3.0 0.0 ) ">
              <text class="axis-text-y" text-anchor="end" dy="0.35em">
                <tspan>55</tspan>
              </text>
            </g>
          </g>
          <g transform="translate(0.0 156.8957787902985 ) ">
            <g transform="translate(-3.0 0.0 ) ">
              <text class="axis-text-y" text-anchor="end" dy="0.35em">
                <tspan>60</tspan>
              </text>
            </g>
          </g>
          <g transform="translate(0.0 110.92494578233146 ) ">
            <g transform="translate(-3.0 0.0 ) ">
              <text class="axis-text-y" text-anchor="end" dy="0.35em">
                <tspan>65</tspan>
              </text>
            </g>
          </g>
          <g transform="translate(0.0 55.38020839373269 ) ">
            <g transform="translate(-3.0 0.0 ) ">
              <text class="axis-text-y" text-anchor="end" dy="0.35em">
                <tspan>70</tspan>
              </text>
            </g>
          </g>
        </g>
      </g>
      <g clip-path="url(#xXxprefixXx1)" clip-bounds-jfx="[rect (21.961210910936405, 0.0), (510.0360992855356, 411.0)]">
        <g transform="translate(21.961210910936405 0.0 ) ">
          <g>
            <g>
              <g>
                <path d="M480.78665977800597 398.95381364034176 L480.78665977800597 398.95381364034176 L479.41845962572063 398.8562824104774 L477.5632769255763 399.07571065689353 L477.7951774093934 398.0267846838862 L477.308190627456 397.2697064080605 L478.05026370751375 396.5852544969 L484.24193888017436 397.2452718798064 L484.26512892855607 397.97796713085245 L483.38391555820806 398.8075167031432 L481.6910631967358 399.19758879292647 L480.78665977800597 398.95381364034176 ZM442.430738928429 293.0477921715742 L442.430738928429 293.0477921715742 L441.99013224325495 293.4092216590691 L442.08288820270315 294.281251233635 L442.70901527493095 295.0913530513512 L442.8713413795244 296.437735740375 L443.7757447982541 297.8389434636885 L444.1931614350463 297.8984574554654 L444.37868182210013 299.76847056960116 L443.54384854851554 302.04194169742465 L442.4075488800473 303.2765026778306 L441.17848901805206 306.4917858564568 L440.45960598637606 306.8991590913622 L440.22770550255893 306.1714218602401 L440.5987420425878 304.5364763414051 L441.7350417110561 302.4538948354732 L440.830642526405 302.68909819370776 L440.5059860831396 301.4526991911209 L440.99296863099835 301.06921015984517 L440.3436557444675 300.1828115426128 L440.1349453090321 300.56716334876063 L439.2537361727627 300.47850444588744 L438.952269777879 299.50187792185045 L439.230546124381 299.50187792185045 L439.53201251926464 297.71988802087856 L439.16097597923584 295.9894675883987 L439.6247727127916 294.97145003936356 L440.3436557444675 294.7915168419513 L440.45960598637606 293.7402251494261 L439.9030490592935 294.4013763496205 L438.789939439207 295.0913530513512 L437.9782962140041 298.0471969995865 L438.72036929406175 300.15322994697544 L438.81312948758864 301.89471648581105 L437.83915592371375 301.0396954737864 L436.4477699571252 300.62626172459466 L436.03035332033295 299.7980813293708 L435.24190014351177 300.2715428970279 L434.9404337486281 299.6203830429647 L435.5665565867772 298.79006170605874 L434.7317233131926 299.7980813293708 L434.9172437002463 300.3602541154852 L436.05354336871466 300.1828115426128 L436.2622495700715 301.0396954737864 L437.7463999642655 301.3937252560698 L439.3464921322109 302.80665002650187 L438.81312948758864 304.30236751022403 L439.30011626952614 305.47154878977216 L438.72036929406175 306.025714752432 L438.65079914891663 306.6955241241276 L439.1841660276175 307.10268564654524 L438.6044190521532 307.74168287010866 L437.7232099158838 306.8991590913622 L437.51449948044836 307.18988207458847 L438.2797626088878 307.79972381367895 L440.36684579284923 307.9447843710793 L441.387195219409 312.0144122617031 L440.2045154541772 311.813325256992 L437.44492933530324 312.7604373979778 L437.49130943206666 313.1329497287441 L440.08856944634726 312.8464316139574 L440.5059860831396 313.333389061872 L441.271249211579 313.1329497287441 L441.54952555808103 314.3912632005016 L441.294435025882 314.9904828774426 L440.7842624296415 315.0475069854956 L439.7175329063184 316.3284806994152 L438.3029526572695 316.3853227095617 L438.071056407531 317.2653817316739 L439.16097597923584 318.31337736686055 L438.2565725605061 319.7536762670534 L435.21871009513006 320.0355152359841 L432.5982642665464 322.3116212358077 L431.9953272427003 323.934084130437 L431.11411810643085 323.5709572179554 L429.5835918495521 323.90616165128654 L427.91392530238295 324.99380629745224 L427.00952188365324 326.30097688488405 L426.12830851330517 328.1853780686705 L425.17752923189056 328.1853780686705 L423.4151024911946 330.1719711258226 L422.5338933549251 330.47470928104565 L419.6583569941425 333.0808468478273 L418.61481751920115 334.77370746436293 L417.9423145842885 337.1930024973108 L417.4785178507328 337.5453332050689 L417.29299746367906 339.653808146654 L418.08145064050024 344.1637465278566 L419.3105105024954 347.28010298945765 L421.1888832510214 350.58814773753414 L420.91060690451945 350.82549652342516 L421.0033670980463 352.3524212634612 L423.2759664349829 358.5456460028388 L422.78897965304543 363.53679839758695 L422.3947530646349 363.6140218835528 L422.11647671813284 365.2076819415165 L421.30483349292996 366.07971770285747 L418.8467137689397 366.43840236930106 L418.63800756758286 365.2333494717533 L417.6872240520897 363.15050181133716 L416.945150972032 362.7639324015436 L416.2958380855011 363.04744290004055 L415.64652096489175 360.9305203269402 L414.76531182862226 359.8689884142984 L414.69574168347714 358.15580945626823 L414.20875490153963 357.9737865978021 L414.3247051434483 358.5716253745006 L413.8840984582742 358.72747528395513 L412.0057257097482 355.49733810317844 L413.28116566850684 353.58644457841046 L412.4463323949222 353.6913334882547 L411.8897754678396 354.29403008905916 L411.33322277483563 353.350371841934 L412.07529585489334 350.72002182532583 L412.214431911105 348.52648120542017 L411.5419289761925 347.28010298945765 L410.73028575098965 347.12076482712166 L409.014239107057 345.4712857157391 L408.96786324437227 344.7512331503541 L407.9938896804973 343.6825464117769 L406.37060323009166 342.61150384471705 L404.95602721512137 342.85269693986174 L405.02559736026643 343.60229935828113 L402.7993738860148 344.3774583442671 L400.9210011374887 344.59108167346415 L400.52677454907814 343.41500474420957 L398.32374535728667 341.9677429211848 L395.33226298867413 341.1887083732586 L390.9957705161578 341.91405655651545 L389.9290409928347 341.1080458969434 L389.8130907509261 339.89648776549 L389.4884343076606 339.7616783140962 L388.95506742895986 341.5649491442749 L386.3810016971395 341.43061444112664 L385.9635850603472 341.1080458969434 L383.52865538473856 341.88721112985695 L381.8357987891878 342.90627420179374 L381.74304282973947 343.3882424803245 L382.7633922562992 343.7092924903443 L383.20399894147323 342.93306305671496 L384.0852123118213 343.7092924903443 L384.01564216667606 344.32403793161916 L383.5054653363569 344.59108167346415 L382.5546860549424 344.35074886756547 L382.34597561950693 345.49793426787915 L383.15761884470976 346.110444069794 L384.45624885185015 346.2967123896982 L385.29107789135605 347.12076482712166 L384.6185749564435 347.9434548084847 L383.87650187638576 347.78433323804586 L383.25037903823664 346.9348057896647 L381.69666273297605 346.4829106379541 L381.69666273297605 345.6577904493116 L380.93139960453664 345.9241104032203 L380.6299289755744 347.253550169894 L380.0733762825703 347.3597529572519 L379.65595964577807 346.6424486140964 L378.6819860819032 346.6158617066342 L378.3341395902561 347.3597529572519 L377.6848267037252 347.5720858289136 L376.4325767933483 347.0676407683486 L375.899214148726 345.870857909968 L374.577394093204 345.41798428392315 L374.2063575531751 344.40416636212734 L373.09324793308855 344.53768458292365 L373.07005788470684 343.9232033894737 L372.1192743692137 344.96469358772276 L371.28444532970775 345.3913314034479 L367.4117453566685 344.2171844654414 L361.91576740138083 345.3380213113634 L361.1273142245597 344.96469358772276 L360.9881739342694 344.1637465278566 L360.4316170071868 344.7245440604919 L360.0373904187762 344.59108167346415 L359.82868421741944 345.28470544176656 L360.2692909025934 345.5778712740232 L360.33886104773853 346.4829106379541 L358.2749679121588 348.6324141187836 L355.72409222872017 349.9018601830959 L354.6805485197002 349.71692911479323 L353.63700904475877 349.9282733965298 L353.1500222628213 349.3204252820835 L352.84855586793765 349.45262940433645 L353.9616654880242 350.693649739279 L353.1500222628213 351.0890830682777 L352.38475913438185 350.8518617883386 L352.2688088924734 351.7211435121157 L351.31802961105876 352.61522931816427 L349.71793320903475 355.99355497934965 L349.254136475479 355.8630155814353 L349.1381862335704 356.4893062415353 L349.625173015508 356.3328018568535 L349.3932767657693 357.5835339425724 L349.0454302741221 358.3377705894335 L349.5556028703627 360.1539904124128 L350.50638638585593 362.35129956060575 L349.20775637871566 362.8412677893773 L348.6743937340933 362.22229197908234 L346.35541430039325 362.0416241863672 L345.219114631925 361.2666719452574 L344.3610913099586 361.1891156892642 L342.22762802923387 359.76531254532256 L341.83340144082325 358.3377705894335 L341.0681383123838 357.4794219348448 L340.9290022561721 355.28826754052267 L339.00424941088266 352.9041588958023 L337.47371891992526 351.45787782702735 L335.87362675197977 347.4924697783207 L334.22715025319235 345.76433568354537 L333.39231697960776 345.3913314034479 L332.7430040930769 344.32403793161916 L328.8239282573529 343.76278024101737 L328.6152178219175 344.2706116803778 L327.59486839535776 344.4308729215496 L326.82960526691824 345.44463572122027 L325.5309752597781 348.0495109668849 L324.8352822764838 348.07602149541543 L321.1712927388801 346.1370581250419 L319.64076648200114 344.88465680966675 L318.8755033535616 342.23608018057143 L317.99429421729235 340.32761672453154 L315.8840209849492 338.925014009416 L313.5186614544856 336.40607536016904 L312.45193193116256 335.88977992830746 L311.7098588511048 334.5828923742937 L311.08373177887705 334.31015524749455 L303.9644673731836 334.31015524749455 L303.9644673731836 336.5689987634658 L291.83620332598264 336.5689987634658 L275.9975738784933 330.77723927067495 L276.39180046690376 329.64858956747463 L266.21147931337396 330.5572389502305 L265.7013024830548 329.896582855602 L264.7505189675618 326.7173430904754 L261.7358465505675 324.3527017123414 L261.411190107302 324.6594315830216 L260.76187722077105 324.46426662059076 L260.8546331802194 323.9620048197258 L260.1125601001617 322.9277537135306 L259.1154007219837 323.15158658685067 L257.3529739812876 322.39569169925807 L257.0978876831673 321.7787995414533 L255.91520791793567 321.0204991302332 L252.04251217897513 320.8518037409251 L251.3004390989173 320.17636757050275 L251.37000924406237 317.492198091403 L250.25689962397587 316.7262080791943 L250.2105195272124 315.6742481577703 L248.6104231251885 314.50546780428454 L246.0131673449864 311.1519270339255 L245.85083700631446 309.4503783749472 L246.1754934495799 309.59485452773583 L246.47695984446352 308.58245092173763 L245.87402705469617 307.65460579553337 L245.13195397463858 307.7707043854647 L243.81013391911642 306.2588206985381 L243.39271728232416 303.3645389624328 L244.18117045914528 303.3645389624328 L243.85651401587984 301.3937252560698 L243.5086675242327 301.6000899283001 L243.43909737908757 302.57151135281765 L242.60426410550303 302.7772653482326 L241.607104727325 302.04194169742465 L241.44477438865306 300.773968649153 L240.79546150212218 299.76847056960116 L238.2213957703018 297.03461773000436 L237.85035923027306 294.7915168419513 L238.10544552839326 293.7703026120182 L237.7344089883644 292.23332674630757 L235.57775565925783 289.87051626943355 L235.36904945790093 288.86637822674766 L236.43577898122408 286.4208307570306 L236.83000556963464 283.2482309985584 L236.4821590779875 281.69819338357553 L236.0183623444318 281.3251988960061 L236.20388273148558 280.0791313275299 L235.60094570763954 279.4232252712105 L235.34585940951922 276.283404144432 L234.76611666813358 275.27283123453856 L236.38939888446077 269.6305310599454 L237.2010421096636 261.7000995436073 L237.34018239995385 255.83029925363127 L239.03303899550463 254.92588412655374 L238.26777586706532 254.69100499033794 L237.64164879483758 255.06002703666468 L236.83000556963464 254.5231396005804 L236.9923359083067 253.682524747328 L237.54888860131064 253.24457233629073 L236.69086951342297 251.96109543554525 L235.2994793127558 245.7441107117181 L234.46464603917127 244.8117319190644 L234.11679954752412 242.93894853876898 L234.5805962810798 241.6844163132863 L237.17785206128178 243.07804415048804 L239.54321159174526 243.3560509226643 L240.65632121183182 243.04327581845845 L241.18968809053274 243.59911796442947 L242.18684746871065 243.5644051965807 L242.88254468608352 244.95003168563247 L243.39271728232416 244.84631234361626 L243.78694387073472 248.38867347833641 L244.20436050752699 248.2175904556198 L243.78694387073472 246.77698773678938 L243.90289411264337 245.36457429758448 L244.59858709593766 243.91136037959197 L244.0420344029336 243.32131225555395 L243.5086675242327 239.30141887889474 L242.8361645893201 239.16069242075935 L242.21003751709247 238.42088188916208 L242.37236785576442 237.71471072499523 L359.24893724195505 237.71471072499523 L359.24893724195505 235.23080856710658 L360.0837705155396 235.30204597999344 L360.6403274426222 235.80025747668293 L361.1968801356263 239.16069242075935 L361.63748682080023 239.5475425961325 L363.0288770214674 239.65296676970047 L364.8144895764665 240.10940125963532 L365.00000996352026 240.8103558785818 L366.3913959301088 240.63525792233057 L367.48131550181364 240.0041259552268 L368.4320990173068 240.14448541020815 L369.5220185890117 240.67028509073756 L369.8234849838954 241.33507615956387 L370.4496120561231 241.26516167238833 L371.0293547975088 242.69538808910787 L371.3076311440109 242.10312998522016 L372.3743649014126 241.82404967283904 L372.5598810543877 242.4168161683955 L373.81213096476455 242.83458781033414 L373.81213096476455 243.3907858865618 L374.4382538029137 243.8419975950207 L375.71369376167235 243.59911796442947 L377.52249636505314 242.59095555393694 L377.8935371391606 243.52968873215363 L380.467602870981 243.3907858865618 L381.6039025394492 244.1886641836358 L382.6938221111541 244.05004173087443 L381.18648590265684 245.19190938195578 L377.9399130018455 246.467468236909 L372.21203456274066 251.69026260563618 L372.536691006006 252.19789905570963 L373.4874745214991 252.2655263385185 L377.52249636505314 250.63868595571805 L377.8935371391606 251.08007384146117 L377.31379016369635 251.89340633075918 L379.30811315413087 253.04224394649407 L380.95458965291834 252.40073976389525 L381.69666273297605 251.6563922324718 L383.5518454331204 251.35140363020722 L385.3142679397378 250.40076892612186 L388.7695512759847 247.53237550754196 L389.7203305573992 247.9779250432335 L387.6564374218196 250.53674240091826 L387.67962747020124 251.69026260563618 L388.49127069540407 250.80851614047657 L389.9522310412164 250.9443227388085 L391.0885307096847 251.5547604259532 L392.665437063327 253.54783548477727 L393.7321665866501 253.278281828625 L395.0539824080936 253.85081780871982 L397.3265859791087 252.43452838521344 L400.0861678639042 252.3669415475711 L401.9645448465087 251.85955661872865 L402.1268709511021 253.581508272514 L402.96170422468674 253.81716596482428 L403.7965374982713 253.54783548477727 L404.1443839899185 253.95175305106068 L404.70094091700105 253.4467783243588 L405.92999654491757 253.278281828625 L405.9531865932993 255.4286379923852 L406.5097435203819 256.33171044117387 L407.3445767939665 256.56544115708436 L407.4373369874933 255.96408190993193 L408.24897597861764 255.96408190993193 L408.68958266379167 256.5988189093174 L408.3185461237628 257.0657550342066 L405.9995666900628 256.66556450741274 L404.88645706997625 256.9324088674546 L403.68058725636274 256.19807374797267 L403.49507110338766 257.4321858288914 L402.1732510478656 256.4652880761395 L400.10935791228593 255.93064122934578 L399.4368549773733 256.7322969034016 L397.1178755436733 256.765658153 L396.51494275390587 257.76495437500836 L395.19312269838383 258.32991542049297 L395.262692843529 257.53204651952456 L394.6829458680647 257.3655915924131 L394.45104961832607 258.1970667320177 L393.03647360335583 258.59545671056844 L391.181286669133 261.83158904255333 L391.1117207580664 262.7178136422124 L390.3000775328635 262.84891341355103 L389.34929401737037 265.1676372350077 L389.83628079930776 265.33033747674085 L391.181286669133 263.5363616683725 L392.062500039481 263.07821166957865 L392.7581930227753 261.56855950354395 L393.63940639312324 261.2394939155566 L393.56983624797806 262.028722656015 L391.78422369297897 265.232722953078 L391.4827572980952 267.5678942192966 L390.6479240245107 269.2125429476327 L390.7870600807223 270.3367661819775 L389.90585094445294 272.89300364368796 L390.53197378260217 275.58894024853123 L390.23050738771843 278.3587551799661 L391.96973984595417 282.1018349118835 L393.26836985309444 282.1018349118835 L395.37864308543755 280.70269646869565 L396.4917527055241 278.6408295913341 L397.1178755436733 275.9679033073046 L397.0251153501464 274.25938784425324 L395.7728696738481 270.8815208275621 L396.1670962622587 269.59839537904236 L395.8888156816781 268.05241882081117 L396.862789245553 266.46713299821624 L396.93235939069814 264.41820632544056 L397.6280523739925 264.12450483651304 L397.72081256751926 263.14369906411525 L398.8107321392242 262.88168053600657 L399.64556541280876 261.7987214028715 L399.5759952676636 263.9612351087634 L400.0166019528376 264.05920980570363 L400.57315464584167 262.97996314880345 L400.59634469422326 261.14071063369545 L400.9441911858705 260.6793498665129 L402.10368090272044 260.38242722916084 L401.7326443626916 259.09278110021967 L402.497907491131 257.9977020442651 L403.4486910066242 257.9312190368026 L404.5154205299473 258.62862869959974 L405.5589600048888 258.7281433767891 L406.06913683520787 259.589378415748 L408.64320256702825 260.4154314025397 L409.3620898327828 261.7000995436073 L408.7823428573185 262.3898509200419 L409.5476059857579 264.2877032144952 L409.29251968763765 266.4995584993049 L408.4344963656713 267.0503234032871 L408.22579016431456 268.1815133019524 L407.2054365036762 268.56850457772475 L406.6488838106722 269.91961969339206 L406.85759001202905 270.4329617643448 L407.8779394385887 270.91353929521455 L409.5939860825214 268.66518689247323 L411.05494219425515 268.0846969206126 L412.214431911105 269.3733689106855 L413.18840547498 274.48132192025525 L412.7477987898059 276.5671115836461 L412.05210580651163 276.88208522597745 L412.02891575812987 276.12568850237074 L411.5651190245743 276.3464709482134 L411.0317521458734 278.0764541243609 L410.1737330579857 278.7348073049561 L409.91864252578677 280.04792434862213 L408.7823428573185 281.6049805515888 L410.98537204910986 282.84584840012866 L411.40278868590224 282.41202365558775 L412.91012489439936 283.58835822756345 L414.8812578364522 282.84584840012866 L416.04074755330225 283.00066325867044 L419.1249901154417 280.9206955356294 L422.0005264762243 279.89184913833503 L427.00952188365324 276.9135673782065 L428.26177179403 275.58894024853123 L427.5892688591175 274.4179246565437 L427.33417832691856 272.8293220134118 L429.8154880992906 272.15998352306303 L432.89973066143006 272.3513499329696 L433.8505141769232 272.98850461913486 L436.2854396184532 272.7656347400829 L437.39855347261835 272.3513499329696 L438.5812290037715 271.29752805649 L439.3464921322109 271.2655444950407 L439.76390876900325 268.729626909085 L438.81312948758864 268.0846969206126 L439.02183568894554 267.341555029338 L440.7146922844964 266.33740068861465 L443.3815182098436 263.47094902757567 L445.306271055133 262.45546975140184 L459.3824779960051 262.4882684703285 L459.9854107857725 260.94305833943963 L460.9593843496474 261.10777652570926 L463.0000874368454 259.9200389029323 L462.698616807883 259.4901157591588 L463.97405676664164 257.76495437500836 L464.6465597015542 257.1990485760298 L464.4378535001974 256.1312355214022 L464.8552701369897 254.5231396005804 L465.50458302352047 253.98539137201513 L465.7596735557194 252.2655263385185 L469.0294322708339 247.49807700884438 L469.7946953992734 247.7038144378241 L469.84107549603675 248.8672285081291 L470.3976324231194 249.27686665924122 L471.76582834132626 248.59384985811965 L473.22678445306 248.14913239535355 L475.10516143566457 249.95847593501784 L475.0587813389012 258.4959030942132 L476.51973745063486 258.9270852279071 L476.31102701519944 259.6224595315994 L476.6820635552283 260.28339553310764 L476.3805971603446 260.87714881291174 L476.9835341841906 261.7987214028715 L477.7719873610117 261.60144925496627 L478.53725048945114 263.73251904758354 L477.65603711910313 264.67905859210396 L477.14586028878404 264.3203336222035 L476.72844365199177 264.9722886821023 L476.1255108622243 264.8094138139794 L476.05594071707907 265.3628695300712 L475.267487540258 265.29780236338064 L474.0152376298811 266.5644004159451 L473.71377123499747 265.6880219535915 L473.27316454982343 265.6230159003072 L473.48187498525886 266.5644004159451 L472.50790142138396 267.0179492742137 L472.2760051716454 266.2725222624838 L471.81220843808967 266.661640589988 L470.7222888663849 266.661640589988 L470.69909881800316 265.7855022251149 L470.04978593147223 265.98039236775713 L469.6787451573648 268.246042632931 L468.89029621462225 268.95507345602897 L468.1018430378011 268.69740838620606 L466.988729183636 269.5341210429867 L466.4553665390136 270.1442959316147 L465.80604941840426 270.0159296382774 L465.62053326542906 269.3733689106855 L464.66974974993593 270.40089949711205 L464.9248402821348 271.0415840399104 L464.2291472988405 271.2655444950407 L464.18276720207706 271.80886488102965 L463.39431402525594 272.4788738787791 L462.28120440516943 275.08302785911644 L462.4435305097628 276.094137030714 L461.5855071877965 277.6683005158784 L461.5623171394148 278.54683311394314 L462.48991060652617 278.67215821547893 L463.0464675336088 279.57950254489316 L462.95370734008196 280.29749932037316 L463.4638799363225 281.1385639745789 L464.6465597015542 281.69819338357553 L466.0147598538397 281.1696773885882 L465.71329345895595 281.9466388343088 L463.69578042013967 282.62900317933304 L462.95370734008196 282.659989746413 L462.51310065490793 282.13286621080266 L461.81740767161364 282.2879774995739 L461.7942176232319 282.6909736887425 L460.1709311728262 283.06257087969806 L460.68110800314537 281.9155916970699 L460.0549809309176 281.63605414423483 L459.4752381895319 283.6501667014797 L455.6489225473348 284.26767441007826 L453.4458891214647 284.144254714432 L450.26888636579844 285.80692579508695 L452.0776932032578 286.2674526955136 L452.4487297432868 285.92978489465145 L454.7908992253685 285.7454781342434 L456.0895249984302 284.8533421911161 L456.182285191957 285.49958530978404 L456.85478812686955 285.7762032408706 L452.03131310649445 287.8289838157634 L449.08620660056664 288.2870126155626 L448.71517006053784 287.3703912504339 L448.0194770772436 287.73730936248353 L447.64844053721475 288.59205123792935 L448.8079302540647 289.01868963468945 L448.90069044759156 289.65773960556436 L448.3905136172724 292.62569486933626 L446.2106744738627 295.45085345455163 L445.4454113454233 296.82581224961183 L445.0511847570127 295.929658264076 L442.31478868652044 294.281251233635 L442.430738928429 293.0477921715742 ZM103.16402322046144 394.65079079111854 L103.16402322046144 394.65079079111854 L102.12048374552 394.2583934926686 L102.09729369713818 392.85878439482474 L101.35522061708059 391.1362951756676 L102.35237999525862 389.78001139567453 L102.14367379390171 388.7178367474429 L104.64816938057686 389.82937660693085 L105.45981260577969 390.52012500331966 L105.45981260577969 391.1116581743589 L106.66568241939319 392.07186890800904 L105.92360933933526 392.85878439482474 L103.67420005078054 393.81669833675585 L103.16402322046144 394.65079079111854 ZM99.1289971428289 385.2731328136062 L99.1289971428289 385.2731328136062 L99.61598392476628 385.8939641817036 L100.24211099699403 385.6208709295941 L101.6103069152008 386.34061072231924 L101.401600713844 386.9852497132747 L99.73193416667482 387.18348128922344 L99.6623640215297 386.3902205788722 L98.66520464335167 385.7698424337765 L99.1289971428289 385.2731328136062 ZM97.45933482973828 384.45276395205497 L97.45933482973828 384.45276395205497 L97.04191819294601 384.9252202753731 L96.06794462907112 384.9252202753731 L96.36941102395485 384.40301188616803 L97.45933482973828 384.45276395205497 ZM93.35473860696038 382.23521688527956 L93.35473860696038 382.23521688527956 L93.81853534051629 383.3075414155313 L93.58663909077757 383.9301917998839 L92.68223567204802 384.02975804090534 L92.07929864820187 382.7591256358993 L93.35473860696038 382.23521688527956 ZM86.93116718456122 379.80976153366265 L86.93116718456122 379.80976153366265 L87.65005021623722 380.33563193146625 L87.51090992594709 381.0111226769595 L87.02392314400959 381.4360690293877 L85.67891727418441 380.91109378940286 L85.84124761285636 380.16039262732556 L86.93116718456122 379.80976153366265 ZM400.0861678639042 258.16384642018096 L400.0861678639042 258.16384642018096 L400.15573800904934 258.8939363486337 L399.5991853160453 259.02651245236876 L399.83108156578385 257.9977020442651 L400.0861678639042 258.16384642018096 ZM386.1259111649406 244.25795334503096 L386.1259111649406 244.25795334503096 L384.50262894861356 245.15736546778015 L384.54900481129835 244.50034339826794 L387.21583497072413 243.00850377323607 L386.7056581404049 244.05004173087443 L386.1259111649406 244.25795334503096 ZM242.5346981944365 242.13799896397882 L242.5346981944365 242.13799896397882 L243.09125088744042 241.85894862908293 L242.9984906939136 243.14756967941133 L242.325987759001 242.66057885078303 L242.5346981944365 242.13799896397882 ZM241.23606818729615 240.3899615355301 L241.23606818729615 240.3899615355301 L241.69986492085184 239.5475425961325 L242.325987759001 240.5651922118005 L242.14047160602593 241.43991963214597 L241.16649804215092 241.1952321036159 L241.23606818729615 240.3899615355301 ZM136.39500265477955 52.32559012839806 L136.39500265477955 52.32559012839806 L136.83560510587506 52.873893123103585 L139.03863853174505 53.42102011830701 L140.19812824859503 53.07920649215083 L143.5374571088547 53.55762380690254 L144.55781076949302 53.284344037420226 L147.363772751052 55.462494976297364 L149.79870242666038 55.73347895079331 L150.4712053615732 55.05549734635542 L152.09449181197874 54.647844546238275 L152.79018479527303 53.76239378278717 L154.55261153596905 53.62589852960696 L154.52942148758746 54.23955921799012 L155.5729609625289 53.898816847508556 L157.72961429163547 54.851751430864056 L159.19057040336918 56.40969737731581 L160.55876632157606 57.15148636628152 L160.86023695053825 57.82399595527028 L162.11248262683648 57.958290601432054 L163.29516239206828 59.096975349033244 L163.52706287588546 59.831116890303974 L164.24594590756146 59.230610680294035 L165.12715927790953 59.697791461757674 L165.12715927790953 154.30404072110036 L167.09829221996233 155.00532913447108 L167.35337851808265 154.25722493233053 L169.41727165366228 155.33199974802562 L170.64632728157892 153.97616524797786 L173.22039724747776 153.83553778878075 L172.7566005139222 156.12374914373947 L173.40591340045285 156.91326498905534 L174.86687374626524 157.654311005115 L175.19153018953068 158.85434663792074 L179.50483261366526 163.24140949594107 L180.17733554857784 165.99399442347948 L182.79778137716164 163.92076965190927 L183.84132508618154 163.87552977398622 L184.32830763404036 162.87842287041667 L184.28192753727694 161.37612761944496 L185.02400061733465 161.37612761944496 L185.20952100438842 160.04928364715806 L188.50247400196326 158.57786659382515 L190.42722684725277 160.5533040176843 L190.2417064601991 161.74105204684446 L190.7055031937548 162.92382277426287 L191.79542276545953 163.1960606529547 L193.1636229177451 164.95927699225228 L193.07086272421816 165.45460942208848 L193.69698556236733 166.39785206010714 L195.43622225468164 167.4720153604768 L198.26537428462223 172.12432256836024 L202.16126007196442 179.542569729506 L201.6742775241056 180.48322760687836 L203.01928339393078 180.82452981388536 L202.69462695066545 182.18570994179083 L203.7845465223702 182.73686530146773 L203.92368681266055 184.2998366053206 L205.0136063843653 184.21556560348694 L207.10068956832674 185.8125380235042 L208.3993153413885 186.10575896938332 L209.72113539691065 187.0671449709206 L209.9066557839643 187.81732888412154 L211.2748517021712 188.02536629777512 L211.69226833896334 188.9390019234932 L211.0661455008143 190.63411449200555 L211.15890146026243 192.032424111664 L211.76183848410858 194.32112756686809 L210.27769232399305 196.9556022451598 L208.79354192979906 198.4448309276092 L208.3761252930068 197.68102506188336 L207.81957260000286 197.92244153454192 L207.54129625350083 195.7426067527469 L207.07749951994504 194.9717945866028 L208.05146884974135 194.15823464398107 L207.77319250323944 193.8729629059314 L206.79921893936455 194.89053862889995 L206.26585629474232 194.23969234413784 L205.66291927089628 194.60597405855788 L203.90049676427884 192.9745774829609 L204.5034295540462 191.16954686010337 L203.39031993395963 191.78614401167647 L203.34393983719622 192.68815720948953 L202.46273070092684 191.9913917511435 L202.27721031387307 191.1283938285871 L202.8801473377191 190.18028559222398 L202.69462695066545 189.22910922148407 L201.8597936770808 190.01508261551282 L201.02496040349627 188.3163807216577 L200.51478780725563 188.64860674544053 L200.19012712991173 187.2340132590857 L201.00177035511445 186.31502743469952 L201.79022353193557 186.31502743469952 L201.55832728219707 185.18319496629266 L201.97574391898934 183.7094255430627 L201.32643103245857 183.75163759099894 L199.03063741306153 180.952406537887 L196.80441817288852 179.84220499869116 L196.85079826965193 176.7020475002821 L196.13191523797582 176.31252531740063 L196.29424557664788 175.01027757054413 L195.5521682625116 174.66200645894708 L194.16078229592313 171.99244672316928 L192.28240954739704 171.68449933244995 L190.2185164118173 169.2976848196052 L189.33730304146934 163.64922165238403 L188.91988640467696 164.95927699225228 L189.94024006531527 168.36405493971853 L190.2880865569624 170.53779202467706 L190.17213631505388 171.72851216084416 L189.36049308985093 171.46433332075787 L188.71118020332028 170.13977216809843 L187.8531568813538 169.91841756593874 L186.64728706774042 170.27250724740708 L186.67047711612213 168.36405493971853 L185.9284040360643 166.75636144123126 L185.25590110115184 167.2485648132593 L182.58907517580462 165.54457830073574 L182.35717469198744 166.038896841365 L183.81813503779983 166.57716342018608 L184.9544347062681 167.91838131446775 L185.3950413914422 167.96298015580015 L186.11392442311796 170.27250724740708 L184.6529640773059 170.97937726799728 L183.79494498941824 170.53779202467706 L183.77175494103642 171.64047971607096 L182.2876087809209 170.18402406727557 L178.25258270328834 167.15913530398763 L177.32498923617698 165.04940344207427 L175.14515009276727 164.14685220715467 L170.43762108022213 161.05642313071576 L170.55357132213055 159.91166434640814 L170.9477979105411 160.27849121982075 L171.41159041001833 159.54434983656546 L170.9477979105411 157.88548091024484 L171.52754065192698 156.9596383522407 L171.24926430542496 156.54200142549655 L170.20572483048352 158.30112237337858 L168.02588145299524 159.4524461511624 L165.42862567279315 159.03851553151674 L163.24878229530486 157.97789891725927 L163.1560263358566 157.14504662345468 L162.1356726752183 157.330340749527 L158.61082342790485 156.17025343641888 L152.88294498879986 156.91326498905534 L151.4451789254481 155.70486235957293 L149.65956213637025 155.14537757136856 L149.1030094433661 154.39764876165384 L148.89429900793084 153.1312926014799 L147.6652433800142 153.225294739513 L147.24782674322182 154.3508486631889 L145.06798336573365 152.84910451173283 L144.7201368740864 152.18954113411155 L142.47072758553168 153.41320403071308 L141.38080801382682 154.865210488603 L140.91701128027103 153.50711123338232 L141.38080801382682 152.75497544889782 L142.0301209003576 152.94320180535982 L144.16358418108246 151.95360082608465 L143.88530360050197 151.19725425223885 L142.88814422232383 151.57568007982707 L142.49391763391338 150.5812070626851 L141.5663241668019 150.43884634002995 L140.638734933769 147.91172820268582 L140.29088844212185 148.53371790927253 L138.99225843498152 148.86806340493064 L138.57484179818925 148.53371790927253 L138.13423511301528 149.34499356787552 L136.51094866260962 149.05893728592315 L136.4413785174645 149.96378340186135 L135.35145894575953 150.20141636164982 L134.841286349519 149.8686819773693 L135.21232288954786 148.24682375831748 L134.74852615599207 148.29466151623978 L134.00645307593447 150.01132625159892 L135.0268025024941 150.5812070626851 L135.7456855341702 153.1312926014799 L135.37464899414124 154.53800202585575 L134.56300576893852 154.06988324923196 L134.33110951919969 154.77175901256987 L135.11956269602092 155.05201974372324 L135.560169381195 156.91326498905534 L134.42386971272674 157.28402870247595 L133.797742640499 156.91326498905534 L132.80058326232108 157.4229418924117 L132.290406432002 157.00600404037283 L130.96858637647983 157.05235359299036 L131.01496647324325 156.35618489573 L130.04099714344693 157.70056192358368 L129.48444021636442 156.91326498905534 L128.78874723307013 158.02409650396532 L129.09021362795374 158.5317685193512 L127.23503092780959 159.26855694660242 L126.88718443616244 160.1409840720939 L125.93640092066914 160.919295715663 L125.28708803413838 160.64484866416598 L124.56820500246226 161.5586530866807 L123.98845802699805 161.51303280661767 L122.78259244746323 163.37741233450663 L121.4839624403229 163.51334969525902 L121.06654580353074 162.92382277426287 L120.27809262670962 163.92076965190927 L118.65480617630385 163.15071280551064 L119.02584271633259 161.74105204684446 L120.7882694570286 161.33047776535034 L122.24922556876243 159.6821490353068 L122.29560566552584 158.76221687358958 L120.64912916673825 160.00341803071888 L119.28093324853137 159.26855694660242 L119.11860290985942 158.76221687358958 L119.81429589315371 156.63486346766405 L120.9969756583854 155.09870255501215 L121.53034253708631 153.60098684038684 L121.66947859329798 152.23670522509377 L121.06654580353074 150.7234862851099 L122.52750191526445 150.15390602104424 L125.3102780825202 147.95962379617964 L125.98278101743256 148.82032441827027 L126.84080433939903 149.05893728592315 L128.11624429815754 148.15112348210732 L126.14511135610462 146.03733010335384 L125.03200173601817 146.13376328484935 L124.24354855919694 145.6995578363614 L122.6898322539364 146.71165782656465 L122.08689523009048 147.91172820268582 L120.76507940864701 148.19897774803502 L119.39687925636156 149.58315615481092 L119.25774320014989 150.486308013211 L118.21419949112976 150.9604711203624 L117.98230324139115 151.95360082608465 L117.24023016133356 152.56662191596905 L116.89238366968641 154.30404072110036 L115.45461337225572 155.42526414543613 L116.15031058962859 156.30971148642948 L115.57056361416448 157.60805245587852 L114.22555774433908 157.83926048407466 L114.10960750243055 159.49840175107215 L112.85735759205375 160.09514178360007 L112.46313100364318 159.406483033958 L111.83700816549413 160.69060982154724 L111.0949350854363 160.7363635388072 L111.23407114164797 161.64986316411722 L109.58759464286061 162.19655439293876 L109.26293819959517 164.6887252374322 L111.14131094812114 164.8240334611109 L112.62546134231513 165.49959743524363 L113.0428779791074 166.3081538249096 L112.43994095526148 167.60600129598436 L111.44278157708345 168.4085838758188 L110.51518810997209 168.4530977074242 L110.42242791644503 169.16450242862362 L109.8194951266778 169.43081299670854 L110.0977714731797 170.3167385334387 L109.47164863503053 171.64047971607096 L108.1266385311269 172.87046326134248 L105.90041929095366 173.22091122911763 L105.34386236387115 173.70208016723376 L105.5061927025431 174.35692166620993 L104.46265322760166 174.70556349673996 L104.2539427921663 175.66214010933652 L103.5350597604903 175.05378172556004 L102.74660658366918 176.9182251739444 L101.42478652814714 176.78853808088888 L101.51754672167397 177.781306567316 L100.72909354485284 177.5226515604503 L100.1725408518488 177.953614193293 L100.1725408518488 179.28549945706902 L99.29132748150084 181.3357210899319 L97.87675146653044 181.59097448520896 L96.53174136262669 183.03320419949665 L95.7896682825691 182.31298676220575 L94.53741837219218 184.25770415954048 L94.18957188054515 183.7094255430627 L93.49387889725074 183.87823692607145 L93.3315485585789 184.9731188229963 L92.61266552690267 185.39312720707636 L91.75464220493654 185.22519353205547 L91.08213927002384 186.31502743469952 L92.26481903525553 186.64953715569533 L90.98937907649702 189.063368832391 L87.32539377297189 189.84979402928315 L86.30504011233359 191.95035366413134 L86.18909410450351 190.18028559222398 L85.47020683874905 189.9737748646026 L84.56580765409785 190.46916703133365 L83.01209134883732 191.86826030273596 L82.40915432499128 192.85185684927075 L82.22363817201608 192.15547936589553 L81.85260163198723 192.9745774829609 L81.01776835840269 192.44242571256717 L79.46405205314215 193.7098222693104 L78.30456233629218 193.66902300391365 L78.46689267496413 192.68815720948953 L77.95671584464503 191.745077262581 L77.49291911108924 192.5243590099887 L77.53929920785254 193.3424329068152 L75.98558290259211 195.8236289056112 L75.45221602389131 195.2154284833494 L75.28988991929782 196.14749586636992 L74.2231561618961 195.98560668595218 L74.06083005730272 194.52461738582542 L73.41151717077184 194.19896630469935 L73.17961668695455 194.72796705679337 L73.75936366241888 195.37773958651235 L73.48108308183839 196.39015639427953 L72.62306399395072 196.91524849055816 L71.97374687334127 195.78312060264363 L71.18529369652015 195.70208735403133 L71.04615764030859 196.14749586636992 L71.83461081712949 196.79416162441532 L70.39684051969903 197.84199118875335 L71.3708140835738 198.12347209087335 L71.39400413195551 198.60538377738317 L70.58236090675257 198.24401780872535 L69.49244133504772 199.20667871146293 L67.38216810270455 199.16662968826734 L66.33862862776323 199.80676104233692 L65.03999862062301 200.84405454812475 L64.15878525027495 200.64485366777285 L63.85731885539133 199.28676059128048 L64.73853222573928 198.846050584409 L65.41103516065175 197.19760949525534 L66.29224853099981 197.15728866777715 L68.19381132790761 196.066562343614 L69.72433758478644 196.02608728258792 L70.30408032617197 197.0766305613585 L70.74468701134595 196.3092891839358 L70.6519310518978 195.4183034428941 L72.48392370366025 195.01241418716728 L75.17393967738928 191.29297136575758 L77.02912237753355 189.72576072061202 L79.20896575502184 189.0219190677863 L80.11336493967303 189.3533454076462 L80.99457831002098 188.89753453971917 L81.22647455975948 189.56030125604406 L80.73949201190067 190.3041267683521 L81.27285465652301 190.88135443883886 L81.43518499519496 189.9737748646026 L82.52510456689981 189.8911268020658 L82.82657096178355 190.46916703133365 L83.4990781307747 190.67533687186432 L83.52226817915653 189.9737748646026 L82.40915432499128 189.3533454076462 L82.31639836554302 188.9390019234932 L83.05847144560084 186.98367121931568 L85.40064092768239 184.76288316710543 L87.5340999743288 183.79384350269976 L89.08781627958945 182.3978120845507 L89.82988935964704 182.90624331275995 L90.43282638349308 182.69450533258788 L90.36325623834784 180.952406537887 L91.54593600357975 179.15687444641458 L93.16922245398541 177.9966671289086 L94.46784822704706 176.44242736628837 L95.44182179092184 169.3420677998658 L97.06510824132772 167.65064922474085 L96.87958785427384 166.3081538249096 L92.98370206693176 168.2304262480581 L91.75464220493654 168.00757199489976 L91.4531758100527 167.2038535819928 L90.7574828267584 166.84591800255316 L90.52558234294145 165.9490848873532 L89.89945950479228 166.35300649098326 L89.50523291638171 167.73991587464525 L90.17773585129419 169.47517521841786 L89.36609262609124 170.22826909286522 L88.64720959441547 169.96269578468798 L86.30504011233359 165.814313542844 L85.81805756447466 165.814313542844 L85.49339688713076 166.84591800255316 L85.07598448441706 167.02493816323016 L84.44985741218943 166.1735614122316 L83.6845942837499 166.038896841365 L83.33674779210276 164.64361634568218 L79.02344536796818 167.3379661460907 L78.861115029296 167.96298015580015 L77.26102286135074 168.89793419541917 L76.4725696845295 168.0521568343724 L77.1914527162055 167.06967759723852 L76.4029995393845 162.24206417132524 L77.46972906270753 161.19348378853562 L75.2203197741527 156.12374914373947 L74.31591635542304 155.37863583512228 L74.08402010568443 156.91326498905534 L71.25486384166516 158.20881080709387 L69.1677806577037 158.6239655149153 L67.05751165943923 158.02409650396532 L66.94156141753058 156.681282943494 L66.10672814394604 156.26323036041498 L64.78491232250258 154.39764876165384 L63.67180270241602 154.0230281811356 L62.373172695275684 151.95360082608465 L63.25438606562352 151.00784387028602 L63.439902218598945 149.2496713145818 L62.767399283686245 149.6307641758779 L62.67463909015942 148.53371790927253 L62.999295533424856 147.6241807429468 L62.14127221145873 146.80784762898912 L62.04851625201036 147.67212603831388 L61.00497254299046 147.33634341922664 L60.86583648677856 145.84437165962095 L60.05419326157585 145.65126970835223 L59.61358657640187 144.63527474722423 L59.636776624783465 143.37218361576055 L58.82513339958052 143.95586623931212 L58.68599310929028 142.7384544881844 L59.68315672154699 142.44548107677025 L58.871513496344164 141.07410462835054 L60.30927955969594 140.9758956405352 L60.65712605134297 138.16185890247198 L63.880508903773034 133.4066686533007 L64.27473549218337 133.60855614345382 L64.04283924244487 132.03995568532565 L65.06318866900472 129.33706778525232 L65.94440203935267 128.25865083040674 L67.59087430406157 127.79515105106668 L68.86631426281997 128.25865083040674 L70.6519310518978 129.90026079198793 L71.81142076874778 129.6955981770937 L75.05798943548075 125.67360945461456 L75.89282270906529 125.4137425786189 L76.10153314450088 126.03699565344169 L78.09585190085659 126.03699565344169 L79.85827864155272 125.51771922587756 L81.43518499519496 122.9587582833584 L81.43518499519496 122.32836064070028 L80.55397162484701 118.46145377243778 L79.3249117628518 116.9097561887524 L78.861115029296 115.56485757296616 L80.11336493967303 115.94211062980298 L81.29604470490472 114.80876847944228 L81.36561485004972 113.72493026850572 L79.83508859317101 111.70821173265261 L78.69878892470274 113.29017221061116 L77.63205940137959 113.01808390146647 L76.634895789123 113.88778678110043 L75.49859612065472 114.10477515828688 L73.92168976701237 115.56485757296616 L73.5274631786018 117.01704906268043 L72.87815029207081 117.60645008785372 L72.57668389718731 115.88824974642858 L71.78823072036607 115.51092102011955 L71.23167379328356 116.85608880061386 L70.90701735001801 116.21124346030103 L69.44606123828441 115.24107572012366 L66.4545746355933 115.29506646771534 L63.50947236374395 116.53385941170319 L58.477286907933376 115.13306165957727 L57.61926358596713 114.53821644581069 L57.22503699755657 113.56197483940292 L57.52650339244019 112.2001681525025 L56.34382362720862 111.05087104655792 L56.57572411102569 109.78642853346702 L57.3177971910834 109.12434362194938 L57.0858967072661 107.51749553311532 L53.02768481533053 106.73830139250458 L50.49999494619499 105.06088302327629 L50.36085888998343 103.99304459554992 L57.87434988408745 98.760880614688 L59.08021969770073 99.56375718041392 L60.30927955969594 99.73548872055147 L60.58755590619819 98.58851670999508 L59.84548282614037 98.41604067924385 L59.77591691507371 97.43656135683858 L62.72101918692283 95.81536718703387 L66.03715799880104 94.59291495941494 L67.82277478787853 94.47619465242872 L68.79674411767485 94.8844904829673 L68.28657152143421 96.62720515437809 L68.10105113438067 98.70343842836718 L68.72717820660841 100.07861875863631 L73.04047639666442 99.79270787800039 L73.5274631786018 100.30711549910586 L74.64057279868825 100.42129536862473 L75.61454636256326 99.90710919406996 L76.88998632132189 100.47836689417142 L78.11904194923841 98.18590845255403 L79.00025531958647 98.0707621126117 L79.6031923434324 98.53103716609871 L79.90465873831613 97.20557653444206 L78.21180214276524 96.5692984735083 L76.58851569235958 97.0900032664967 L76.75084603103153 95.35034363641478 L75.47540607227302 93.48199600629874 L74.08402010568443 92.8954252115899 L73.66660346889216 91.18695249208884 L74.75652304059702 90.77289438790024 L76.1479090071856 92.48404150609247 L75.89282270906529 93.83332069366713 L78.02628598978993 96.1055990459306 L78.3741324814373 94.8262010955799 L76.704465934268 93.13021416726764 L77.42334896594411 90.06157494118094 L76.84360622455836 89.52681447374948 L75.19712972577099 90.18026337030636 L73.5042731302201 90.00221067605514 L73.2491868320999 89.46732958947598 L72.39116351013342 90.00221067605514 L68.84312421443838 88.69281198052141 L68.77355406929314 87.31690711845727 L67.70682454597011 84.24004451224727 L66.84880122400375 83.08448153485733 L61.42238917978261 78.34854490886738 L60.146953455102675 78.1001745217036 L58.24539065819499 76.22976209803744 L56.390203723972036 75.1638918269744 L56.29744776452367 74.7866683384297 L57.68883373111237 74.21979144345295 L58.31495656926154 72.44827684774066 L58.36133666602484 68.86868156241553 L62.118086397155366 69.12600866996917 L66.66328507102855 68.2887746377383 L67.84596483626046 67.64289969483116 L69.72433758478644 65.82588516812666 L71.50995013978559 63.01046570366742 L72.64624980825374 57.68963150238932 L76.84360622455836 51.50095503097015 L77.14507261944198 52.18833196073899 L78.76835906984786 52.394191813210966 L81.13371860031123 51.087639425544296 L86.16590405612203 45.37151163544871 L87.51090992594709 45.15995374059287 L87.65005021623722 45.79410549216817 L89.0182461344441 45.30101169427434 L90.36325623834784 45.441992234533416 L93.00689211531324 44.877618126913774 L95.60414789551544 42.96361447784949 L98.17821786141428 38.94773641134782 L99.22175733635572 38.07893042211015 L99.40727772340938 38.80313993980877 L103.37272942181835 40.46106608934531 L103.69739009916225 41.608118070132775 L102.32918994687668 43.105883958879986 L101.70306710872774 43.17698913257442 L101.72625715710944 45.15995374059287 L103.72058014754396 44.5242454479054 L103.83652615537403 43.4612129850081 L104.74092957410369 42.465062190057324 L105.04239596898731 43.034759077830756 L105.7148989038999 40.74831386365855 L107.68603184595281 42.82126607473231 L107.36137540268749 44.38276011060037 L108.59043526468258 44.80698247873761 L109.30931829635858 45.72372143491265 L110.37604781968162 44.241196770649935 L112.25442480228628 44.17038582117772 L113.32115432560943 43.674174512921525 L117.44893636269035 44.7363273980946 L116.77643342777787 47.75704874723948 L119.32730911121632 48.52412106795964 L119.51282949826998 49.288925880779914 L121.99413927064211 50.604610850114796 L122.01732931902382 49.982223688144074 L123.80294187402296 49.150039417350115 L125.51898851795556 49.2194920176222 L125.54217433225858 49.912976603444235 L126.5393379445153 49.982223688144074 L127.58287741945662 49.01107796245287 L129.29892406338934 48.87204142997632 L132.15126614171163 50.32818003250708 L132.91652927015093 50.12066200981599 L134.00645307593447 51.56977654836618 L134.63257591408353 51.018688976659746 L135.65292534064326 51.43211512620576 L136.39500265477955 52.32559012839806 ZM204.92084619083846 195.4994070619739 L204.92084619083846 195.4994070619739 L205.0599864811287 194.28041276422 L205.9643898998586 195.01241418716728 L205.82524960956835 196.2688472960367 L204.73533003786338 196.10703187091372 L204.92084619083846 195.4994070619739 ZM203.94687686104226 193.2198654591283 L203.94687686104226 193.2198654591283 L204.73533003786338 194.1175047984549 L204.2947233526894 195.4183034428941 L203.94687686104226 194.9717945866028 L203.94687686104226 193.2198654591283 ZM196.47976172962296 186.23133808078774 L196.47976172962296 186.23133808078774 L198.31175438138564 186.48233408952842 L198.77555111494132 187.94216606778025 L201.23367083893163 190.55165235392792 L201.72065762086913 191.53965740228296 L202.5322966119934 193.66902300391365 L202.62505680552022 194.60597405855788 L203.1120435874576 194.32112756686809 L203.3207497888145 195.05302820474924 L203.41350998234134 197.92244153454192 L203.1120435874576 198.56525369472263 L201.92936382222592 198.4448309276092 L201.60470737896048 196.9959505072515 L201.1872907421681 197.11696235709837 L200.32926742020197 196.02608728258792 L200.07418112208165 196.39015639427953 L199.35529809040565 196.02608728258792 L199.47124409823562 197.11696235709837 L200.1437512672269 196.83453186673256 L200.5843537183223 197.2379248413921 L200.3756475169654 198.72574153184667 L199.56400429176244 198.56525369472263 L198.33494442976723 196.67301789015733 L198.0566680832652 194.68730832294432 L197.08269451939054 194.76862019429672 L197.08269451939054 193.99525919129007 L197.82477183352682 193.9137339685094 L198.56684491358442 193.2198654591283 L198.24218423624052 191.9913917511435 L197.36097509997103 191.745077262581 L196.89717836641535 188.7730971173532 L196.29424557664788 189.47753646455624 L196.0623450928308 188.35793057083856 L196.68846793097987 187.81732888412154 L196.17829533473923 186.524138120975 L196.47976172962296 186.23133808078774 ZM195.15794167410104 181.76102360065278 L195.15794167410104 181.76102360065278 L194.55500888433357 180.99502214094872 L195.25070186762787 180.48322760687836 L198.56684491358442 181.1654217801701 L199.28572794526053 182.60976682019162 L200.607543766704 183.79384350269976 L200.46840771049222 184.67874632851039 L199.77271472719792 185.14119033746078 L198.82193121170485 184.9310838478866 L198.14942827679215 185.47705772160106 L197.2218348096808 185.14119033746078 L196.20148538312105 185.47705772160106 L196.0855351412124 182.48261258203433 L195.320272012773 182.44021543529834 L195.15794167410104 181.76102360065278 ZM199.10020755820688 185.56096404350643 L199.10020755820688 185.56096404350643 L200.12056121884495 185.39312720707636 L200.56116790401904 185.68677820240367 L200.4220276137287 186.8166520324317 L199.51762419499903 187.0671449709206 L198.7059809697962 186.35686310187248 L199.10020755820688 185.56096404350643 ZM195.8768289398556 192.2374925998891 L195.8768289398556 192.2374925998891 L196.68846793097987 192.729092521766 L197.2450248580625 192.1144641719734 L197.8015817851449 192.4014505075737 L197.2218348096808 193.5057694593072 L196.31743139095113 193.17899831040296 L195.8768289398556 192.2374925998891 ZM194.27673253783166 185.22519353205547 L194.27673253783166 185.22519353205547 L193.07086272421816 183.3715157111195 L193.00129257907304 182.3978120845507 L193.51146940939213 181.93097288571005 L194.04483205401448 182.3978120845507 L194.16078229592313 181.59097448520896 L195.8304488430922 182.99089523057188 L195.99277494768558 184.34196294298425 L195.41303220629993 184.51039956908312 L195.0419956662712 186.0220094834716 L195.45941230306335 186.44051642718244 L194.94923547274414 188.19169573068302 L194.29992258621337 187.81732888412154 L194.20716239268654 188.89753453971917 L193.78974575589427 188.35793057083856 L193.53465945777396 186.23133808078774 L194.27673253783166 185.22519353205547 ZM191.74904266869612 171.5524201093712 L191.74904266869612 171.5524201093712 L193.18680873204823 172.16825963098 L194.02164200563266 172.0803707196991 L193.97526190886913 172.6950740539179 L195.18113172248286 174.87972548429337 L194.3463026829769 174.53129560883735 L194.13759224754142 175.27119561918732 L195.0419956662712 176.39913320982726 L195.320272012773 178.3839248322791 L194.41586859404333 178.8994521870123 L192.65344608742578 180.99502214094872 L192.21283940225192 180.952406537887 L192.1896493538702 177.22060108992383 L190.89101934672976 171.64047971607096 L190.7286932421364 170.0512477388191 L191.74904266869612 171.5524201093712 ZM185.1167608108616 171.68449933244995 L185.1167608108616 171.68449933244995 L186.3922007696201 171.72851216084416 L187.22703404320475 171.02349900319746 L188.43290385681803 171.99244672316928 L187.7835867362087 173.04573693341206 L188.015487220026 173.4397283354001 L188.6184200097931 172.2561295252478 L190.07937612152705 172.65120993093143 L190.89101934672976 173.5272083366204 L190.42722684725277 175.09727133978828 L190.79826338728162 175.227724436647 L191.28524593514044 177.30692796392657 L190.17213631505388 177.60889572994574 L188.1082474135527 175.92246627114127 L188.17512226621545 177.5852963331892 L188.7575603000837 176.78853808088888 L189.76631681949175 177.69511405935805 L191.16929992731048 178.0397214881262 L192.07369911196167 183.32924834039528 L191.9345630557499 187.60913561011597 L191.35481608028556 187.10887289357913 L189.77790972664332 183.7094255430627 L188.7807503484653 182.69450533258788 L189.12859684011255 181.8884949157761 L188.73437025170176 179.9277579776479 L187.6212606316153 178.34092190248265 L187.94592217863897 177.89823133691527 L187.52850043808849 178.34092190248265 L186.76323730964907 178.0397214881262 L186.29944057609328 176.96144120693754 L184.74572427083262 174.70556349673996 L183.88770094886638 174.007862969222 L183.9340810456299 172.7389314459868 L184.51382802109413 172.30005433767104 L184.6993441740692 171.199917713474 L185.1167608108616 171.68449933244995 ZM186.9023775999392 178.64180770808554 L186.9023775999392 178.64180770808554 L187.50531038970666 178.64180770808554 L188.13143322785584 180.056039932562 L187.8531568813538 181.0376314644687 L186.9023775999392 181.25058396729276 L186.9023775999392 178.64180770808554 ZM139.38648502339208 155.1920447958214 L139.38648502339208 155.1920447958214 L137.60086823431448 157.330340749527 L137.4617321781028 158.16264363201566 L136.02396188067212 158.71614065189175 L136.32543250963454 157.4229418924117 L137.87914881489496 156.0772371223852 L138.85311814469128 154.58477078036697 L139.38648502339208 155.1920447958214 ZM137.34578193619416 151.95360082608465 L137.34578193619416 151.95360082608465 L136.51094866260962 155.56509393735217 L135.67611538902509 154.95863072422327 L136.37181260639795 152.84910451173283 L137.34578193619416 151.95360082608465 ZM114.57340423598623 173.1333374938937 L114.57340423598623 173.1333374938937 L114.55021418760452 173.48347167937078 L113.08925384179224 172.95810952802924 L114.13279755081226 170.89111331083387 L115.08357683222675 170.7145033789314 L115.73289395283632 168.80902256279643 L116.45177698451243 170.4935950431743 L117.05470977427967 169.91841756593874 L118.21419949112976 170.84697108383494 L118.21419949112976 172.12432256836024 L116.52134712965744 172.30005433767104 L114.57340423598623 173.1333374938937 ZM110.26010181185188 177.00465074483213 L110.26010181185188 177.00465074483213 L111.46597162546516 175.96583234063047 L110.37604781968162 175.74894437489604 L110.3528620053786 174.8361949071322 L111.25726119002968 174.2260794832173 L111.90657831063913 174.66200645894708 L111.99933427008739 175.5753095795685 L112.39356085849795 173.614661600729 L113.18201403531918 174.2260794832173 L113.32115432560943 173.3522215775145 L114.01684730890372 173.87685319046233 L114.85168058248826 173.87685319046233 L115.50099346901914 173.39597830226325 L116.56772722642086 174.2260794832173 L116.56772722642086 176.52899611151776 L117.91273309624603 176.35583252765247 L117.03151972589819 177.86747327243046 L115.408237509571 177.2637638248949 L116.01117029933823 178.25489677883184 L115.54737356578255 179.07109255863344 L114.71254029219801 178.68476575840907 L114.6893502438163 180.22698614141137 L113.41391451913637 180.65392909037467 L112.99649788234399 181.29315566055612 L112.20804470552287 180.69658871187903 L111.37321143193833 182.31298676220575 L110.02820132803458 183.20240927157909 L109.77311502991427 181.46337981704664 L108.79914570011795 182.3978120845507 L108.75276560335465 181.8460107131005 L107.87155223300658 181.29315566055612 L107.80198208786146 179.71382797135357 L106.9439587658951 179.07109255863344 L107.43094554783261 177.22060108992383 L109.12380214338339 176.05254483378172 L110.16734161832483 176.13923114831806 L110.26010181185188 177.00465074483213 ZM107.82517213624317 184.2998366053206 L107.82517213624317 184.2998366053206 L106.9439587658951 185.85443824764144 L106.66568241939319 185.60290813754239 L107.82517213624317 184.2998366053206 ZM103.16402322046144 189.47753646455624 L103.16402322046144 189.47753646455624 L103.83652615537403 189.56030125604406 L103.6046299056353 191.1283938285871 L102.49152028554886 190.92254210908885 L102.30599989849509 190.3866585081658 L103.16402322046144 189.47753646455624 ZM85.14555039548361 194.28041276422 L85.14555039548361 194.28041276422 L84.8904640973634 195.8641316635385 L83.59183409022296 197.15728866777715 L84.2179611624507 195.17483677865118 L84.65856784762468 195.37773958651235 L85.14555039548361 194.28041276422 ZM82.4787244701364 193.7098222693104 L82.4787244701364 193.7098222693104 L83.26717764695752 193.7098222693104 L83.24398759857581 194.52461738582542 L82.45553442175469 195.4183034428941 L81.7598414384604 194.8092677373662 L81.31923475328642 195.37773958651235 L81.29604470490472 193.54659132178568 L82.4787244701364 193.7098222693104 ZM75.12755958062587 196.51141582430745 L75.12755958062587 196.51141582430745 L75.2203197741527 197.15728866777715 L74.73333299221531 197.56024315266643 L74.36229645218646 196.8748892415823 L75.12755958062587 196.51141582430745 ZM74.45505664571317 124.26736782220479 L74.45505664571317 124.26736782220479 L73.82892957348554 125.20566954183346 L73.62022337212875 124.37178529590068 L74.45505664571317 124.26736782220479 ZM72.8085801469258 200.12631513100337 L72.8085801469258 200.12631513100337 L73.71298356565558 200.40563687974503 L73.62022337212875 201.00331229170274 L72.90134034045275 200.96350400517417 L72.8085801469258 200.12631513100337 ZM61.190492930044 201.52033758507787 L61.190492930044 201.52033758507787 L61.491959324927734 202.35363257754295 L60.842646438396855 202.71005572351027 L60.61074595457967 201.83805551967407 L61.190492930044 201.52033758507787 ZM57.73521382787567 153.83553778878075 L57.73521382787567 153.83553778878075 L58.70918315767199 153.50711123338232 L58.91789359310758 154.11673045533445 L59.77591691507371 153.97616524797786 L60.61074595457967 154.53800202585575 L60.773076293251734 156.9596383522407 L60.33246960807787 157.74680521422476 L59.24255003637279 158.20881080709387 L59.01065378663441 159.03851553151674 L57.41055738461023 158.1164688584172 L56.66848430455252 158.16264363201566 L54.511830975445946 156.9596383522407 L53.58423750833447 156.26323036041498 L53.25958106506914 155.14537757136856 L53.72337779862494 154.865210488603 L55.300284152266954 155.14537757136856 L56.04235723232489 154.25722493233053 L57.17865690079316 153.55405298479945 L57.73521382787567 153.83553778878075 ZM60.37884970484117 202.551697839832 L60.37884970484117 202.551697839832 L59.08021969770073 203.34264391868481 L58.801943351198815 202.78920326174313 L59.358500278281554 202.07612796547494 L60.37884970484117 202.551697839832 ZM57.68883373111237 203.57951608784384 L57.68883373111237 203.57951608784384 L58.38452671440655 204.1315080468505 L56.993140747818074 205.7030383723095 L58.77875330281722 204.7217963744074 L58.801943351198815 205.27168718735544 L56.92357060267284 206.36846239209228 L56.807620360764304 207.03242010984337 L55.555370450387386 207.73384546836547 L54.46545087868253 207.7727662018848 L52.401561977181586 209.01557708006465 L51.6826747114269 208.39481005968707 L53.09725496047565 207.6559889526962 L54.60459116897289 207.14943878214598 L54.34950487085257 206.44665185106533 L54.952437660620035 205.7030383723095 L55.85684107934969 206.0555086164519 L55.94959703879783 205.58545650896428 L54.975627709001856 205.42861634046494 L54.442260830300825 204.91829685073503 L54.90605756385651 204.0527142081392 L56.5525340626441 203.54005639402902 L56.90038055429113 204.52516010530383 L57.68883373111237 203.57951608784384 ZM47.46213248081904 209.67375091365443 L47.46213248081904 209.67375091365443 L49.08541893122481 208.31712365533593 L49.80430196290081 207.07143137717804 L50.7782755267757 206.75920700248503 L51.288448123016224 207.1104376007255 L51.47396851006988 208.04507103635507 L49.66516590668914 209.05433321875114 L48.69119234281425 210.52339179629223 L47.90273916599301 211.0243338783198 L47.46213248081904 209.67375091365443 ZM34.96283189358928 123.48295986865907 L34.96283189358928 123.48295986865907 L38.32535503630925 124.89326962589092 L40.27329792998057 123.6923602606239 L41.15450706624995 123.79699972442148 L41.942960243071184 124.47616252063483 L42.151670678506434 125.62165600492824 L43.84452727405744 126.24443190306079 L44.37788991867967 126.81405562328302 L47.90273916599301 127.48572068473197 L47.183856134317125 128.875414069982 L46.11712661099398 128.56720267781122 L44.98082694252571 128.82406976180806 L43.86771308836046 130.81933400417762 L42.10529058174302 128.66997863658094 L41.224077211394956 128.56720267781122 L40.8066605746028 127.58889703689681 L38.673201527956394 126.34809056792892 L37.676037915699794 126.29626618693896 L36.145511658820965 127.38249569184512 L34.986021941970876 126.81405562328302 L34.49903939411206 125.67360945461456 L34.96283189358928 123.48295986865907 ZM43.40392058888335 211.5244515754381 L43.40392058888335 211.5244515754381 L43.58943674185855 212.21557043501457 L42.499517170153695 212.2539203547381 L42.38356692824516 211.79340925459098 L43.40392058888335 211.5244515754381 ZM41.71106399333246 179.4997392838639 L41.71106399333246 179.4997392838639 L41.1313212519467 180.22698614141137 L41.015371010038166 179.4997392838639 L41.71106399333246 179.4997392838639 ZM39.50803480154116 212.90512464318414 L39.50803480154116 212.90512464318414 L39.786311148042955 213.55494142114645 L38.99785797122183 214.01280231718374 L38.8819077293133 213.3257498178399 L39.50803480154116 212.90512464318414 ZM32.040919670121866 215.04049788146284 L32.040919670121866 215.04049788146284 L32.11048981526699 215.83743716344947 L31.29884659006416 215.9889949281382 L31.461172694657535 215.30637003387267 L32.040919670121866 215.04049788146284 ZM26.985544165929582 216.70789989922446 L26.985544165929582 216.70789989922446 L29.188573357720998 217.19881247291937 L27.310200609195135 217.53822126349536 L26.985544165929582 216.70789989922446 ZM24.040437660001885 215.79953428831874 L24.040437660001885 215.79953428831874 L24.017251845698638 215.11648688717185 L24.62018463546599 214.85044282538917 L25.478207957432346 215.53408289982553 L25.153551514166907 216.1783455531214 L24.64337468384781 216.14048477397205 L24.8057007884413 216.85903557232365 L22.278015153384445 217.68894952422164 L21.304041589509552 217.46282944057617 L21.582322170089924 216.93457554453408 L22.62586164503159 217.01009695637185 L24.040437660001885 215.79953428831874 ZM14.950040312255396 218.7419733920163 L14.950040312255396 218.7419733920163 L15.715303440694925 218.62931985490906 L15.715303440694925 219.491941037529 L14.741329876820032 219.37956092886367 L13.535460063206756 220.38950040115267 L13.071667563729534 219.0421750237851 L13.581840159969943 219.00467177990663 L13.651410305115292 217.99017796354428 L14.277537377342924 217.95253965988638 L14.277537377342924 218.70442678444198 L14.950040312255396 218.7419733920163 ZM12.051313903091113 218.10306528787953 L12.051313903091113 218.10306528787953 L12.515110636646796 218.44147246249577 L12.190454193381356 219.60428028137142 L11.541141306850477 219.94104638477762 L12.051313903091113 218.10306528787953 ZM7.946721914392015 218.29111896094878 L7.946721914392015 218.29111896094878 L8.665604946068129 218.32871592862114 L9.314917832598667 219.1546779610557 L8.6192248493046 220.12798408084058 L7.946721914392015 218.29111896094878 ZM0.0 210.83175889223656 L0.0 210.83175889223656 L0.0 212.4455975693919 L0.0 210.83175889223656 Z" fill="rgb(17,142,216)" stroke-width="1.6500000000000001" stroke="rgb(48,48,48)" stroke-opacity="1.0" fill-opacity="1.0">
                </path>
              </g>
            </g>
          </g>
        </g>
        <defs>
          <clipPath id="xXxprefixXx1">
            <rect x="21.961210910936405" y="0.0" width="510.0360992855356" height="411.0">
            </rect>
          </clipPath>
        </defs>
      </g>
      <g>
      </g>
    </g>
    <g transform="translate(84.50134490176401 212.0 ) rotate(-90.0 ) ">
      <text class="axis-title-y" y="0.0" text-anchor="middle">
        <tspan>lat</tspan>
      </text>
    </g>
    <g transform="translate(374.9806054554682 463.0 ) ">
      <text class="axis-title-x" y="0.0" text-anchor="middle">
        <tspan>lon</tspan>
      </text>
    </g>
    <path fill="rgb(0,0,0)" fill-opacity="0.0" stroke="rgb(187,187,187)" stroke-opacity="1.0" stroke-width="0.0" d="M68.50134490176401 0.0 L68.50134490176401 470.0 L636.498655098236 470.0 L636.498655098236 0.0 Z" pointer-events="none">
    </path>
  </g>
  <g id="xXxprefixXx2">
  </g>
</svg>