<svg xmlns="http://www.w3.org/2000/svg" xmlns:xlink="http://www.w3.org/1999/xlink" display="block" class="plt-container" width="705.0" height="470.0">
  <style type="text/css">
  .plt-container {
   font-family: Lucida Grande, sans-serif;
   user-select: none;
   -webkit-user-select: none;
   -moz-user-select: none;
   -ms-user-select: none;
}
text {
   text-rendering: optimizeLegibility;
}
#xXxprefixXx0 .plot-title {
fill: #bbbbbb;
font-weight: normal;
   font-style: normal;font-family: Lucida Grande, sans-serif;
font-size: 16.0px;

}
#xXxprefixXx0 .plot-subtitle {
fill: #bbbbbb;
font-weight: normal;
   font-style: normal;font-family: Lucida Grande, sans-serif;
font-size: 15.0px;

}
#xXxprefixXx0 .plot-caption {
fill: #bbbbbb;
font-weight: normal;
   font-style: normal;font-family: Lucida Grande, sans-serif;
font-size: 13.0px;

}
#xXxprefixXx0 .hyperlink-element {
fill: #118ed8;
font-weight: normal;
   font-style: normal;
}
#xXxprefixXx0 .legend-title {
fill: #bbbbbb;
font-weight: normal;
   font-style: normal;font-family: Lucida Grande, sans-serif;
font-size: 15.0px;

}
#xXxprefixXx0 .legend-item {
fill: #bbbbbb;
font-weight: normal;
   font-style: normal;font-family: Lucida Grande, sans-serif;
font-size: 13.0px;

}
#xXxprefixXx0 .axis-title-x {
fill: #bbbbbb;
font-weight: normal;
   font-style: normal;font-family: Lucida Grande, sans-serif;
font-size: 15.0px;

}
#xXxprefixXx0 .axis-text-x {
fill: #bbbbbb;
font-weight: normal;
   font-style: normal;font-family: Lucida Grande, sans-serif;
font-size: 13.0px;

}
#xXxprefixXx3 .axis-tooltip-text-x {
fill: #303030;
font-weight: normal;
   font-style: normal;font-family: Lucida Grande, sans-serif;
font-size: 13.0px;

}
#xXxprefixXx0 .axis-title-y {
fill: #bbbbbb;
font-weight: normal;
   font-style: normal;font-family: Lucida Grande, sans-serif;
font-size: 15.0px;

}
#xXxprefixXx0 .axis-text-y {
fill: #bbbbbb;
font-weight: normal;
   font-style: normal;font-family: Lucida Grande, sans-serif;
font-size: 13.0px;

}
#xXxprefixXx3 .axis-tooltip-text-y {
fill: #303030;
font-weight: normal;
   font-style: normal;font-family: Lucida Grande, sans-serif;
font-size: 13.0px;

}
#xXxprefixXx0 .facet-strip-text-x {
fill: #bbbbbb;
font-weight: normal;
   font-style: normal;font-family: Lucida Grande, sans-serif;
font-size: 13.0px;

}
#xXxprefixXx0 .facet-strip-text-y {
fill: #bbbbbb;
font-weight: normal;
   font-style: normal;font-family: Lucida Grande, sans-serif;
font-size: 13.0px;

}
#xXxprefixXx3 .tooltip-text {
fill: #bbbbbb;
font-weight: normal;
   font-style: normal;font-family: Lucida Grande, sans-serif;
font-size: 13.0px;

}
#xXxprefixXx3 .tooltip-title {
fill: #bbbbbb;
font-weight: bold;
   font-style: normal;font-family: Lucida Grande, sans-serif;
font-size: 13.0px;

}
#xXxprefixXx3 .tooltip-label {
fill: #bbbbbb;
font-weight: bold;
   font-style: normal;font-family: Lucida Grande, sans-serif;
font-size: 13.0px;

}

  </style>
  <g id="xXxprefixXx0">
    <path fill-rule="evenodd" fill="rgb(25,25,28)" fill-opacity="1.0" d="M0.0 0.0 L0.0 470.0 L705.0 470.0 L705.0 0.0 Z">
    </path>
    <g transform="translate(29.5 26.5 ) ">
      <g>
        <g transform="translate(42.99591213121782 0.0 ) ">
          <g>
            <line x1="27.26640412510891" y1="0.0" x2="27.26640412510891" y2="391.0" stroke="rgb(71,71,71)" stroke-opacity="1.0" stroke-width="1.0" fill="none">
            </line>
            <line x1="98.5517731847227" y1="0.0" x2="98.5517731847227" y2="391.0" stroke="rgb(71,71,71)" stroke-opacity="1.0" stroke-width="1.0" fill="none">
            </line>
            <line x1="169.83714224433652" y1="0.0" x2="169.83714224433652" y2="391.0" stroke="rgb(71,71,71)" stroke-opacity="1.0" stroke-width="1.0" fill="none">
            </line>
            <line x1="241.12251130395032" y1="0.0" x2="241.12251130395032" y2="391.0" stroke="rgb(71,71,71)" stroke-opacity="1.0" stroke-width="1.0" fill="none">
            </line>
            <line x1="312.4078803635641" y1="0.0" x2="312.4078803635641" y2="391.0" stroke="rgb(71,71,71)" stroke-opacity="1.0" stroke-width="1.0" fill="none">
            </line>
            <line x1="383.6932494231779" y1="0.0" x2="383.6932494231779" y2="391.0" stroke="rgb(71,71,71)" stroke-opacity="1.0" stroke-width="1.0" fill="none">
            </line>
            <line x1="454.9786184827917" y1="0.0" x2="454.9786184827917" y2="391.0" stroke="rgb(71,71,71)" stroke-opacity="1.0" stroke-width="1.0" fill="none">
            </line>
            <line x1="526.2639875424055" y1="0.0" x2="526.2639875424055" y2="391.0" stroke="rgb(71,71,71)" stroke-opacity="1.0" stroke-width="1.0" fill="none">
            </line>
            <line x1="597.5493566020193" y1="0.0" x2="597.5493566020193" y2="391.0" stroke="rgb(71,71,71)" stroke-opacity="1.0" stroke-width="1.0" fill="none">
            </line>
          </g>
        </g>
        <g transform="translate(42.99591213121782 0.0 ) ">
          <g>
            <line x1="0.0" y1="391.0" x2="626.0040878687822" y2="391.0" stroke="rgb(71,71,71)" stroke-opacity="1.0" stroke-width="1.0" fill="none">
            </line>
            <line x1="0.0" y1="336.63652675024974" x2="626.0040878687822" y2="336.63652675024974" stroke="rgb(71,71,71)" stroke-opacity="1.0" stroke-width="1.0" fill="none">
            </line>
            <line x1="0.0" y1="282.2730535004995" x2="626.0040878687822" y2="282.2730535004995" stroke="rgb(71,71,71)" stroke-opacity="1.0" stroke-width="1.0" fill="none">
            </line>
            <line x1="0.0" y1="227.9095802507493" x2="626.0040878687822" y2="227.9095802507493" stroke="rgb(71,71,71)" stroke-opacity="1.0" stroke-width="1.0" fill="none">
            </line>
            <line x1="0.0" y1="173.54610700099903" x2="626.0040878687822" y2="173.54610700099903" stroke="rgb(71,71,71)" stroke-opacity="1.0" stroke-width="1.0" fill="none">
            </line>
            <line x1="0.0" y1="119.18263375124877" x2="626.0040878687822" y2="119.18263375124877" stroke="rgb(71,71,71)" stroke-opacity="1.0" stroke-width="1.0" fill="none">
            </line>
            <line x1="0.0" y1="64.81916050149852" x2="626.0040878687822" y2="64.81916050149852" stroke="rgb(71,71,71)" stroke-opacity="1.0" stroke-width="1.0" fill="none">
            </line>
            <line x1="0.0" y1="10.455687251748259" x2="626.0040878687822" y2="10.455687251748259" stroke="rgb(71,71,71)" stroke-opacity="1.0" stroke-width="1.0" fill="none">
            </line>
          </g>
        </g>
        <g transform="translate(42.99591213121782 391.0 ) ">
          <g transform="translate(27.26640412510891 0.0 ) ">
            <line stroke-width="1.0" stroke="rgb(187,187,187)" stroke-opacity="1.0" x2="0.0" y2="4.0">
            </line>
            <g transform="translate(0.0 7.0 ) ">
              <text class="axis-text-x" text-anchor="middle" dy="0.7em">
                <tspan>0</tspan>
              </text>
            </g>
          </g>
          <g transform="translate(98.5517731847227 0.0 ) ">
            <line stroke-width="1.0" stroke="rgb(187,187,187)" stroke-opacity="1.0" x2="0.0" y2="4.0">
            </line>
            <g transform="translate(0.0 7.0 ) ">
              <text class="axis-text-x" text-anchor="middle" dy="0.7em">
                <tspan>10</tspan>
              </text>
            </g>
          </g>
          <g transform="translate(169.83714224433652 0.0 ) ">
            <line stroke-width="1.0" stroke="rgb(187,187,187)" stroke-opacity="1.0" x2="0.0" y2="4.0">
            </line>
            <g transform="translate(0.0 7.0 ) ">
              <text class="axis-text-x" text-anchor="middle" dy="0.7em">
                <tspan>20</tspan>
              </text>
            </g>
          </g>
          <g transform="translate(241.12251130395032 0.0 ) ">
            <line stroke-width="1.0" stroke="rgb(187,187,187)" stroke-opacity="1.0" x2="0.0" y2="4.0">
            </line>
            <g transform="translate(0.0 7.0 ) ">
              <text class="axis-text-x" text-anchor="middle" dy="0.7em">
                <tspan>30</tspan>
              </text>
            </g>
          </g>
          <g transform="translate(312.4078803635641 0.0 ) ">
            <line stroke-width="1.0" stroke="rgb(187,187,187)" stroke-opacity="1.0" x2="0.0" y2="4.0">
            </line>
            <g transform="translate(0.0 7.0 ) ">
              <text class="axis-text-x" text-anchor="middle" dy="0.7em">
                <tspan>40</tspan>
              </text>
            </g>
          </g>
          <g transform="translate(383.6932494231779 0.0 ) ">
            <line stroke-width="1.0" stroke="rgb(187,187,187)" stroke-opacity="1.0" x2="0.0" y2="4.0">
            </line>
            <g transform="translate(0.0 7.0 ) ">
              <text class="axis-text-x" text-anchor="middle" dy="0.7em">
                <tspan>50</tspan>
              </text>
            </g>
          </g>
          <g transform="translate(454.9786184827917 0.0 ) ">
            <line stroke-width="1.0" stroke="rgb(187,187,187)" stroke-opacity="1.0" x2="0.0" y2="4.0">
            </line>
            <g transform="translate(0.0 7.0 ) ">
              <text class="axis-text-x" text-anchor="middle" dy="0.7em">
                <tspan>60</tspan>
              </text>
            </g>
          </g>
          <g transform="translate(526.2639875424055 0.0 ) ">
            <line stroke-width="1.0" stroke="rgb(187,187,187)" stroke-opacity="1.0" x2="0.0" y2="4.0">
            </line>
            <g transform="translate(0.0 7.0 ) ">
              <text class="axis-text-x" text-anchor="middle" dy="0.7em">
                <tspan>70</tspan>
              </text>
            </g>
          </g>
          <g transform="translate(597.5493566020193 0.0 ) ">
            <line stroke-width="1.0" stroke="rgb(187,187,187)" stroke-opacity="1.0" x2="0.0" y2="4.0">
            </line>
            <g transform="translate(0.0 7.0 ) ">
              <text class="axis-text-x" text-anchor="middle" dy="0.7em">
                <tspan>80</tspan>
              </text>
            </g>
          </g>
          <line x1="0.0" y1="0.0" x2="626.0040878687822" y2="0.0" stroke-width="1.0" stroke="rgb(187,187,187)" stroke-opacity="1.0">
          </line>
        </g>
        <g transform="translate(42.99591213121782 0.0 ) ">
          <g transform="translate(0.0 391.0 ) ">
            <g transform="translate(-3.0 0.0 ) ">
              <text class="axis-text-y" text-anchor="end" dy="0.35em">
                <tspan>0.000</tspan>
              </text>
            </g>
          </g>
          <g transform="translate(0.0 336.63652675024974 ) ">
            <g transform="translate(-3.0 0.0 ) ">
              <text class="axis-text-y" text-anchor="end" dy="0.35em">
                <tspan>0.005</tspan>
              </text>
            </g>
          </g>
          <g transform="translate(0.0 282.2730535004995 ) ">
            <g transform="translate(-3.0 0.0 ) ">
              <text class="axis-text-y" text-anchor="end" dy="0.35em">
                <tspan>0.010</tspan>
              </text>
            </g>
          </g>
          <g transform="translate(0.0 227.9095802507493 ) ">
            <g transform="translate(-3.0 0.0 ) ">
              <text class="axis-text-y" text-anchor="end" dy="0.35em">
                <tspan>0.015</tspan>
              </text>
            </g>
          </g>
          <g transform="translate(0.0 173.54610700099903 ) ">
            <g transform="translate(-3.0 0.0 ) ">
              <text class="axis-text-y" text-anchor="end" dy="0.35em">
                <tspan>0.020</tspan>
              </text>
            </g>
          </g>
          <g transform="translate(0.0 119.18263375124877 ) ">
            <g transform="translate(-3.0 0.0 ) ">
              <text class="axis-text-y" text-anchor="end" dy="0.35em">
                <tspan>0.025</tspan>
              </text>
            </g>
          </g>
          <g transform="translate(0.0 64.81916050149852 ) ">
            <g transform="translate(-3.0 0.0 ) ">
              <text class="axis-text-y" text-anchor="end" dy="0.35em">
                <tspan>0.030</tspan>
              </text>
            </g>
          </g>
          <g transform="translate(0.0 10.455687251748259 ) ">
            <g transform="translate(-3.0 0.0 ) ">
              <text class="axis-text-y" text-anchor="end" dy="0.35em">
                <tspan>0.035</tspan>
              </text>
            </g>
          </g>
        </g>
      </g>
      <g clip-path="url(#xXxprefixXx2)" clip-bounds-jfx="[rect (42.99591213121782, 0.0), (626.0040878687822, 391.0)]">
        <g transform="translate(42.99591213121782 0.0 ) ">
          <g>
            <g>
              <rect x="569.3290724046657" y="385.7918747918748" height="5.208125208125182" width="25.60923293962867" stroke="rgb(48,48,48)" stroke-opacity="1.0" fill="rgb(84,112,198)" fill-opacity="0.9" stroke-width="1.6500000000000001">
              </rect>
              <rect x="540.8743147519909" y="388.3959373959374" height="2.6040626040626194" width="25.609232939628782" stroke="rgb(48,48,48)" stroke-opacity="1.0" fill="rgb(84,112,198)" fill-opacity="0.9" stroke-width="1.6500000000000001">
              </rect>
              <rect x="512.4196114857368" y="377.97968697968696" height="13.02031302031304" width="25.60923293962867" stroke="rgb(48,48,48)" stroke-opacity="1.0" fill="rgb(84,112,198)" fill-opacity="0.9" stroke-width="1.6500000000000001">
              </rect>
              <rect x="483.9648538330622" y="364.959373959374" height="26.040626040626023" width="25.609232939628725" stroke="rgb(48,48,48)" stroke-opacity="1.0" fill="rgb(84,112,198)" fill-opacity="0.9" stroke-width="1.6500000000000001">
              </rect>
              <rect x="455.5101233735978" y="333.7106227106227" height="57.289377289377285" width="25.609232939628725" stroke="rgb(48,48,48)" stroke-opacity="1.0" fill="rgb(84,112,198)" fill-opacity="0.9" stroke-width="1.6500000000000001">
              </rect>
              <rect x="427.0553929141334" y="344.12687312687314" height="46.873126873126864" width="25.609232939628725" stroke="rgb(48,48,48)" stroke-opacity="1.0" fill="rgb(84,112,198)" fill-opacity="0.9" stroke-width="1.6500000000000001">
              </rect>
              <rect x="398.600662454669" y="315.4821844821845" height="75.5178155178155" width="25.609232939628725" stroke="rgb(48,48,48)" stroke-opacity="1.0" fill="rgb(84,112,198)" fill-opacity="0.9" stroke-width="1.6500000000000001">
              </rect>
              <rect x="370.1459319952046" y="271.21312021312025" height="119.78687978687975" width="25.609232939628782" stroke="rgb(48,48,48)" stroke-opacity="1.0" fill="rgb(84,112,198)" fill-opacity="0.9" stroke-width="1.6500000000000001">
              </rect>
              <rect x="341.6912015357402" y="252.984681984682" height="138.015318015318" width="25.609232939628725" stroke="rgb(48,48,48)" stroke-opacity="1.0" fill="rgb(84,112,198)" fill-opacity="0.9" stroke-width="1.6500000000000001">
              </rect>
              <rect x="313.23647107627585" y="237.36030636030637" height="153.63969363969363" width="25.609232939628725" stroke="rgb(48,48,48)" stroke-opacity="1.0" fill="rgb(84,112,198)" fill-opacity="0.9" stroke-width="1.6500000000000001">
              </rect>
              <rect x="284.7817406168114" y="190.4871794871795" height="200.5128205128205" width="25.609232939628725" stroke="rgb(48,48,48)" stroke-opacity="1.0" fill="rgb(84,112,198)" fill-opacity="0.9" stroke-width="1.6500000000000001">
              </rect>
              <rect x="256.32701015734705" y="156.63436563436565" height="234.36563436563435" width="25.609232939628725" stroke="rgb(48,48,48)" stroke-opacity="1.0" fill="rgb(84,112,198)" fill-opacity="0.9" stroke-width="1.6500000000000001">
              </rect>
              <rect x="227.87226610127752" y="52.47186147186147" height="338.5281385281385" width="25.609232939628725" stroke="rgb(48,48,48)" stroke-opacity="1.0" fill="rgb(84,112,198)" fill-opacity="0.9" stroke-width="1.6500000000000001">
              </rect>
              <rect x="199.41753564181312" y="18.619047619047592" height="372.3809523809524" width="25.609232939628754" stroke="rgb(48,48,48)" stroke-opacity="1.0" fill="rgb(84,112,198)" fill-opacity="0.9" stroke-width="1.6500000000000001">
              </rect>
              <rect x="170.96280518234872" y="36.84748584748587" height="354.15251415251413" width="25.609232939628754" stroke="rgb(48,48,48)" stroke-opacity="1.0" fill="rgb(84,112,198)" fill-opacity="0.9" stroke-width="1.6500000000000001">
              </rect>
              <rect x="142.50807472288432" y="104.55311355311358" height="286.4468864468864" width="25.609232939628754" stroke="rgb(48,48,48)" stroke-opacity="1.0" fill="rgb(84,112,198)" fill-opacity="0.9" stroke-width="1.6500000000000001">
              </rect>
              <rect x="114.05334426341992" y="328.5024975024975" height="62.49750249750252" width="25.609232939628754" stroke="rgb(48,48,48)" stroke-opacity="1.0" fill="rgb(84,112,198)" fill-opacity="0.9" stroke-width="1.6500000000000001">
              </rect>
              <rect x="85.59861380395553" y="325.8984348984349" height="65.10156510156509" width="25.60923293962874" stroke="rgb(48,48,48)" stroke-opacity="1.0" fill="rgb(84,112,198)" fill-opacity="0.9" stroke-width="1.6500000000000001">
              </rect>
              <rect x="57.14388334449113" y="325.8984348984349" height="65.10156510156509" width="25.60923293962874" stroke="rgb(48,48,48)" stroke-opacity="1.0" fill="rgb(84,112,198)" fill-opacity="0.9" stroke-width="1.6500000000000001">
              </rect>
              <rect x="28.68915288502674" y="284.23343323343323" height="106.76656676656677" width="25.609232939628736" stroke="rgb(48,48,48)" stroke-opacity="1.0" fill="rgb(84,112,198)" fill-opacity="0.9" stroke-width="1.6500000000000001">
              </rect>
            </g>
            <g>
              <g>
                <path d="M28.454731266762828 331.3589855873428 L28.454731266762828 331.3589855873428 L29.568419419708146 329.5062896265298 L30.68210736020651 327.7196859761717 L31.795795725598783 326.00616156659083 L32.9094838785441 324.3722071547968 L34.02317160659551 322.8237515055776 L35.13686018443474 321.36612088755584 L36.25054791248615 320.0039732542796 L37.36423649032538 318.741267866265 L38.477924218376785 317.5812349130378 L39.5916119464282 316.5263350091898 L40.70530052426743 315.57827438335767 L41.81898825231884 314.7379745002651 L42.93267598037025 314.0055821867088 L44.0463654079973 313.38050000951614 L45.1600531360487 312.86138627554556 L46.27374086410011 312.44621072460916 L47.38742859215152 312.1322595924659 L48.50111801977857 311.9162216817021 L49.614805747829976 311.7942035507106 L50.72849347588139 311.7618155845715 L51.842181203932796 311.814207436003 L52.955868931984206 311.94615915923544 L54.06955835961126 312.1521166509617 L55.18324608766267 312.4262827842116 L56.29693381571407 312.7626781642671 L57.41062154376549 313.1551968215857 L58.52430927181689 313.59767709370203 L59.63799699986831 314.0839725071296 L60.75168812707099 314.6079821553188 L61.865375855122394 315.1637215805588 L62.97906358317381 315.7453784669002 L64.09275131122521 316.3473126401554 L65.20643903927663 316.9641421387789 L66.32012676732803 317.5907280248888 L67.43381449537945 318.22221488821026 L68.54750222343085 318.85404097206185 L69.66118995148227 319.4819432363484 L70.77488107868496 320.1019573575609 L71.88856880673636 320.71041266578356 L73.00225653478778 321.3039118927221 L74.11594426283918 321.87931598272434 L75.2296319908906 322.43373902978766 L76.343319718942 322.96447233266383 L77.45700744699342 323.4689995838383 L78.57069517504482 323.944941176607 L79.68438290309622 324.3900137011328 L80.79807403029892 324.80198944050125 L81.91176175835032 325.1786710557559 L83.02544948640174 325.51782576698946 L84.13913721445314 325.81716510137164 L85.25282494250455 326.07429932621255 L86.36651606970725 326.28670200801156 L87.48020039860737 326.4516745715065 L88.59389152581006 326.56631085872266 L89.70757585471019 326.627487002987 L90.82126698191288 326.63182598797704 L91.934951310813 326.57569258472796 L93.04864243801569 326.45516803666766 L94.16232676691583 326.2660601856028 L95.27601789411851 326.0038882827396 L96.3897090213212 325.66390324065617 L97.50339335022133 325.24110282228105 L98.61708447742402 324.7302265779007 L99.73076880632415 324.12581660107475 L100.84445993352684 323.4222023396576 L101.95814426242697 322.613586666679 L103.07183538962965 321.69404081735075 L104.18551971852979 320.6575752709692 L105.29921084573247 319.49818025485837 L106.41290197293516 318.20987637430045 L107.5265863018353 316.7867804314443 L108.64027742903798 315.2231358032635 L109.75396175793811 313.5134137014161 L110.8676528851408 311.6523283612233 L111.98133721404093 309.6349281755437 L113.09502834124362 307.4566412617098 L114.20871267014374 305.1133412804372 L115.32240379734644 302.6013980657539 L116.43609492454912 299.9177383809168 L117.54977925344926 297.05990161133394 L118.66347038065194 294.02605495354413 L119.77715470955208 290.8151048010621 L120.89084583675476 287.42663598846286 L122.00453016565488 283.8610535551854 L123.11822129285758 280.1195219896167 L124.2319056217577 276.2040361109939 L125.3455967489604 272.11740081743176 L126.45928787616309 267.8632513378951 L127.57297220506322 263.44607348417065 L128.6866633322659 258.87115302093696 L129.80034766116603 254.14458579175073 L130.91403878836874 249.27322708911652 L132.02772311726886 244.26472203244506 L133.14141424447155 239.12737393023534 L134.25509857337167 233.87016453204666 L135.36878970057435 228.50269327258272 L136.48248082777707 223.03510638978992 L137.5961651566772 217.47802604295535 L138.70985628387987 211.8425098087631 L139.82354061278 206.13995954742032 L140.9372317399827 200.38204039476955 L142.05091606888283 194.58066051031662 L143.16460039778295 188.7477685575114 L144.2782983232882 182.89549546755114 L145.39198265218832 177.03581015585763 L146.50566698108847 171.1806815378526 L147.61936490659372 165.3418760092383 L148.73304923549384 159.53093719402557 L149.84673356439396 153.7591251886179 L150.9604178932941 148.03735580589571 L152.07411581879936 142.3761195673285 L153.18780014769948 136.7855019549467 L154.3014844765996 131.27514290739805 L155.41518240210485 125.85409505614359 L156.528866731005 120.53094523728959 L157.64255105990512 115.31373348369976 L158.75623538880524 110.20993277302324 L159.8699333143105 105.22644902769451 L160.98361764321064 100.36966161887744 L162.09730197211076 95.64536261054945 L163.21098630101088 91.05881751541722 L164.32468422651613 86.61478554688864 L165.43836855541628 82.31751961907304 L166.5520528843164 78.17074609480892 L167.66575080982165 74.17778629749591 L168.77943513872177 70.34145525123495 L169.8931194676219 66.66418319265989 L171.00680379652204 63.14799531896551 L172.12050172202729 59.794552291851744 L173.2341860509274 56.605089481607365 L174.34787037982753 53.58059923485786 L175.46156830533278 50.72162835484596 L176.57525263423292 48.0285211250947 L177.68893696313305 45.50119653771628 L178.80262129203317 43.13937106510343 L179.91631921753842 40.94239664415386 L181.03000354643854 38.90934168415782 L182.14368787533868 37.039031570742395 L183.2573722042388 35.32988665009543 L184.37107012974406 33.780165252629445 L185.48475445864418 32.38768016537392 L186.59843878754432 31.150082159582837 L187.71213671304957 30.06465747101504 L188.8258210419497 29.128368303878176 L189.93950537084982 28.33797434266046 L191.05318969974996 27.68983023241111 L192.1668876252552 27.180128602403727 L193.28057195415533 26.804738050360754 L194.39425628305546 26.559324654285263 L195.5079542085607 26.439311468516678 L196.62163853746083 26.439878523731238 L197.73532286636097 26.556124842717338 L198.8490071952611 26.782987432487744 L199.96270512076634 27.11524128427976 L201.07638944966646 27.547701893274393 L202.1900737785666 28.075103746765024 L203.30375810746673 28.692221835988846 L204.41745603297198 29.393952664014705 L205.5311403618721 30.17523323785548 L206.64482469077225 31.031162580299508 L207.7585226162775 31.957123241742465 L208.87220694517762 32.948659788355656 L209.98589127407774 34.00168132180545 L211.09957560297786 35.11233996742146 L212.2132735284831 36.27715238602855 L213.32695785738326 37.49304027789054 L214.44064218628338 38.757289878766244 L215.55434011178863 40.06755195990962 L216.66802444068875 41.421963339901424 L217.7817087695889 42.81902537281735 L218.89539309848902 44.257563444284415 L220.00909102399427 45.73692949120027 L221.1227753528944 47.256637466238146 L222.2364596817945 48.816727873341904 L223.3501576072998 50.41736272828717 L224.4638419361999 52.0590078264288 L225.57752626510003 53.74239223875685 L226.69121059400015 55.46828554020544 L227.8049085195054 57.237639573456136 L228.91859284840555 59.05138592921861 L230.03227717730567 60.91051695411835 L231.1459615062058 62.81592373492106 L232.25965943171104 64.76837584656084 L233.3733437606112 66.76846059622426 L234.4870280895113 68.81662352729404 L235.60072601501656 70.913006403574 L236.71441034391668 73.05746746126033 L237.8280946728168 75.24958140894222 L238.94177900171695 77.4885179157697 L240.0554769272222 79.77320362722958 L241.16916125612232 82.10209939345361 L242.28284558502244 84.47336228499461 L243.3965435105277 86.88478483691 L244.51022783942784 89.33383555270632 L245.62391216832796 91.81763865236672 L246.73759649722808 94.3330753322112 L247.85129442273333 96.87674326095231 L248.96497875163348 99.44501733561117 L250.0786630805336 102.03413068940534 L251.19234740943372 104.64017469174871 L252.30604533493897 107.25915970416742 L253.4197296638391 109.88705558424351 L254.53341399273924 112.5198726935032 L255.6471119182445 115.15366189741644 L256.76078265053945 117.78461582525688 L257.87448057604473 120.40902836615783 L258.98817850154995 123.02339592897215 L260.101849233845 125.62447819818806 L261.21554715935025 128.2091968740694 L262.3292450848555 130.77481794040295 L263.4429158171505 133.31887065661107 L264.55661374265577 135.83916780972325 L265.670311668161 138.33382596634823 L266.783982400456 140.801285724646 L267.89768032596123 143.24025095841176 L269.01135105825625 145.64970906904816 L270.12504898376153 148.0289714895089 L271.23874690926675 150.37753192049524 L272.3524176415618 152.69514733834384 L273.466115567067 154.98175698713882 L274.57981349257227 157.23750263068382 L275.6934842248673 159.4626880485581 L276.8071821503725 161.65767777625672 L277.9208800758778 163.82299836505035 L279.03455080817275 165.9592371221255 L280.14824873367803 168.06700160664062 L281.26191946597305 170.1469398816981 L282.3756173914783 172.1997405143442 L283.48931531698355 174.2260718196532 L284.60298604927857 176.22654135678363 L285.7166839747838 178.20179718883776 L286.83038190028907 180.15236586708633 L287.9440526325841 182.07881444674388 L289.0577505580893 183.9816087231652 L290.1714484835946 185.86121449170517 L291.28511921588955 187.71799628785885 L292.39881714139483 189.55233889909326 L293.51251506690005 191.36452585301566 L294.62618579919507 193.15486092920534 L295.73988372470035 194.92358715132565 L296.8535544569953 196.670927291068 L297.9672523825006 198.39708386815192 L299.08095030800587 200.10223915032495 L300.19462104030083 201.78655515336263 L301.3083189658061 203.45017364106866 L302.42201689131133 205.09323637724665 L303.53568762360635 206.71582436978443 L304.6493855491116 208.31801862656974 L305.76308347461685 209.89990015549043 L306.87675420691187 211.46146895654647 L307.9904521324171 213.00272502973783 L309.1041228647121 214.52360761914875 L310.2178207902174 216.0240559688633 L311.3315187157226 217.5039080631059 L312.44518944801763 218.96298163412908 L313.55888737352285 220.4010336582694 L314.6725852990281 221.81782111186345 L315.78625603132315 223.21296933343024 L316.89995395682837 224.58611378747466 L318.01365188233365 225.93683930857173 L319.12732261462867 227.2647104793246 L320.2410205401339 228.56924125240647 L321.3546912724289 229.84996583246254 L322.46838919793413 231.10639817216602 L323.5820871234394 232.3380724761621 L324.6957578557344 233.54455332705388 L325.80945578123965 234.72546606336027 L326.9231537067449 235.88047652754418 L328.0368244390399 237.00933156995617 L329.15052236454517 238.1118894267927 L330.2642202900504 239.1881095941098 L331.3778910223454 240.23807307979527 L332.4915889478507 241.2619925295546 L333.6052868733559 242.2602324788828 L334.7189576056509 243.23332960503663 L335.8326555311562 244.1819623490763 L336.94632626345117 245.10699141980965 L338.06002418895645 246.00943954182006 L339.17372211446167 246.89051170743852 L340.2873928467567 247.75157492477157 L341.40109077226197 248.59414809171537 L342.5147886977672 249.41992224792764 L343.6284594300622 250.23070994489782 L344.74215735556743 251.0284756239049 L345.8558552810727 251.81528498608768 L346.9695260133677 252.5933049924447 L348.08322393887295 253.36480386383417 L349.19689467116797 254.13209032505833 L350.31059259667325 254.8975338568351 L351.42429052217847 255.66351406586855 L352.5379612544735 256.4324206848486 L353.6516591799787 257.20664344646525 L354.765357105484 257.9884910755205 L355.879027837779 258.7802520448448 L356.9927257632842 259.5841135674085 L358.1064236887895 260.4021818482943 L359.22009442108447 261.23642132878115 L360.33379234658975 262.0886648123304 L361.44749027209497 262.960613464586 L362.56116100439 263.85378618344384 L363.67485892989527 264.76949934708074 L364.7885296621903 265.70890731789774 L365.9022275876955 266.6729315606185 L367.0159255132008 267.66229102024715 L368.12959624549575 268.67749199608255 L369.243294171001 269.71877751178795 L370.35699209650625 270.7861981972933 L371.47066282880127 271.87953128090714 L372.58436075430654 272.9983413452326 L373.69805867981177 274.1419702011812 L374.8117294121068 275.30951663600143 L375.925427337612 276.49986679123595 L377.039098069907 277.7116941627222 L378.1527959954123 278.943479852564 L379.2664939209175 280.19351256913166 L380.38016465321255 281.4599291310059 L381.4938625787178 282.7406942150059 L382.60756050422304 284.033661112105 L383.72123123651807 285.33657172743096 L384.8349291620233 286.64706670625174 L385.94862708752856 287.96274618989145 L387.0622978198236 289.2811596897442 L388.1759957453288 290.59982633924636 L389.2896664776238 291.916305775778 L390.40336440312905 293.22816776270537 L391.5170623286343 294.53305294529633 L392.63073306092934 295.8286829767067 L393.74443098643457 297.11286051798004 L394.85812891193984 298.38354011994954 L395.9717996442348 299.638777593308 L397.0854975697401 300.87680089051 L398.19919549524536 302.09598985379967 L399.3128662275403 303.29490659316855 L400.4265641530456 304.47228536036994 L401.5402620785508 305.62703254891846 L402.65393281084584 306.7582520090555 L403.7676307363511 307.8652146697909 L404.8813014686461 308.947363601896 L405.99499939415136 310.0043089549108 L407.1086973196566 311.0358279571439 L408.2223680519516 312.04182441172856 L409.3360659774569 313.0223438856016 L410.4497639029621 313.97754839453864 L411.5634346352571 314.90769615118205 L412.67713256076235 315.8131263760619 L413.7908304862676 316.6942643605892 L414.90450121856264 317.5515708371258 L416.01819914406786 318.3855622309563 L417.1318698763629 319.1967600303584 L418.24556780186816 319.98572622755376 L419.3592657273734 320.75301268877786 L420.4729364596684 321.49916115428044 L421.5866343851736 322.2247184273041 L422.7003323106789 322.93020599612646 L423.8140030429739 323.61613016004634 L424.92770096847914 324.2829769663904 L426.0413988939844 324.93123246248547 L427.1550696262794 325.5613523177004 L428.26876755178466 326.17380232739004 L429.3824382840797 326.7690432239161 L430.4961362095849 327.34754080263355 L431.6098341350902 327.90979629984804 L432.7235048673852 328.45632614084434 L433.8372027928904 328.9876872548509 L434.9509007183957 329.50448720102634 L436.06457145069066 330.0073892314519 L437.17826937619594 330.49712748011075 L438.29196730170116 330.97450696288786 L439.4056380339962 331.4404137035559 L440.51933595950146 331.8958147337756 L441.6330338850067 332.34176821908113 L442.7467046173017 332.7794234588806 L443.8604025428069 333.210015823463 L444.97407327510194 333.6348616910049 L446.0877712006072 334.05537869954276 L447.20146912611244 334.47303511704285 L448.31513985840746 334.8893751563662 L449.42883778391274 335.3060139122759 L450.54253570941796 335.7246019204856 L451.656206441713 336.14680996868117 L452.7699043672182 336.5743544114853 L453.8836022927235 337.00894147753456 L454.9972730250185 337.4522672694797 L456.1109709505237 337.9059975120136 L457.22464168281874 338.371767551871 L458.33833960832396 338.8511367908921 L459.45203753382924 339.34560387500096 L460.56570826612426 339.8565611272692 L461.6794061916295 340.3852996109084 L462.79310411713476 340.9329990032847 L463.9067748494297 341.5006870919745 L465.020472774935 342.08925496374343 L466.1341707004403 342.6994316895818 L467.24784143273524 343.3317843247041 L468.3615393582405 343.98669765657735 L469.47523728374574 344.66437420492105 L470.58890801604076 345.3648342217071 L471.70260594154604 346.08790050218107 L472.816276673841 346.83320344785477 L473.9299745993463 347.6001962554857 L475.0436725248515 348.3881245391186 L476.1573432571465 349.196051645051 L477.2710411826518 350.02286371482563 L478.384739108157 350.86726968523084 L479.49840984045204 351.7278164772792 L480.61210776595726 352.6028940592008 L481.72580569146254 353.49074557242915 L482.83947642375756 354.3894901150694 L483.9531471560526 355.29713033638825 L485.06687227476806 356.21156509429585 L486.1805430070631 357.1306173018078 L487.29421373935804 358.05204152153425 L488.4079388580736 358.97354674914845 L489.52160959036854 359.8928141338624 L490.63528032266356 360.80752229339134 L491.74900544137904 361.7153625029331 L492.86267617367406 362.61406147863653 L493.9763469059691 363.5013915035872 L495.09007202468456 364.375213463248 L496.2037427569796 365.2334667194731 L497.3174134892746 366.07420961445206 L498.4311386079901 366.8956270651988 L499.5448093402851 367.6960457525312 L500.6584800725801 368.47395690453897 L501.7722051912956 369.2280162965841 L502.8858759235906 369.9570619717759 L503.9995466558856 370.6601243669574 L505.1132173881806 371.3364301099498 L506.2269425068961 371.98540328530083 L507.3406132391911 372.60667429452235 L508.4542839714861 373.2000722616011 L509.5680090902016 373.76562756449505 L510.6816798224966 374.3035591776508 L511.79535055479164 374.8142759377521 L512.9090756735071 375.29836008899247 L514.0227464058021 375.75655589134107 L515.1364171380972 376.18976076030486 L516.2501422568126 376.5990024834602 L517.3638129891076 376.9854316259635 L518.4774837214026 377.35029368408954 L519.5912088401182 377.694920224994 L520.7048795724131 378.02070483749657 L521.8185503047081 378.329081614361 L522.9322754234236 378.62151122906386 L524.0459461557186 378.8994619495717 L525.1596168880136 379.1643881206199 L526.2733420067291 379.41771624048266 L527.3870127390242 379.6608247090008 L528.5006834713191 379.89503876458866 L529.6144085900346 380.1216077007658 L530.7280793223297 380.3416985374159 L531.8417500546246 380.5563865276745 L532.9554207869196 380.7666500949364 L534.0691459056352 380.9733600739954 L535.1828166379302 381.1772809767926 L536.2964873702251 381.3790678280457 L537.4102124889406 381.57926553237496 L538.5238832212357 381.7783145701702 L539.6375539535306 381.9765497318428 L540.7512790722462 382.1742077123148 L541.8649498045412 382.37143407263466 L542.9786205368362 382.56828830296996 L544.0923456555516 382.7647539485935 L545.2060163878467 382.96074493862454 L546.3196871201417 383.1561163448887 L547.4334122388572 383.35067450790433 L548.5470829711522 383.5441827327492 L549.6607537034472 383.7363739465433 L550.7744788221627 383.9269582929381 L551.8881495544578 384.11563199235434 L553.0018202867527 384.30208303784923 L554.1155454054682 384.48600195397637 L555.2292161377633 384.66708432828244 L556.3428868700582 384.8450403044189 L557.4565576023532 385.01959711363855 L558.5702827210687 385.1905022391662 L559.6839534533638 385.3575310106881 L560.7976241856587 385.52048470572936 L561.9113493043742 385.67919434689907 L563.0250200366693 385.83352196763843 L564.1386907689642 385.98336092865753 L565.2524158876797 386.1286356014987 L566.3660866199748 386.26930168497324 L567.4797573522698 386.4053452558505 L568.5934824709852 386.53678150310935 L569.7071532032803 386.66365219644206 L570.8208239355753 386.78602663556507 L571.9345490542908 386.9039969036633 L573.0482197865857 387.01767818382723 L574.1618905188808 387.12720559468227 L575.2756156375963 387.23273229176624 L576.3892863698912 387.33442756890713 L577.5029571021863 387.43247495960077 L578.6166822209018 387.5270693890771 L579.7303529531968 387.61841559211507 L580.8440236854918 387.7067262144202 L581.9577488042073 387.79221896469085 L583.0714195365023 387.8751153488703 L584.1850902687974 387.95563845508696 L585.2987610010923 388.03401073859527 L586.4124861198078 388.110451806716 L587.5261568521028 388.1851768366511 L588.6398275843978 388.25839436042435 L589.7535527031133 388.33030563200685 L590.8672234354083 388.4011005136357 L591.9808941677034 388.4709579504692 L593.0946192864188 388.5400432808722 L594.2082900187138 388.6085074453231 L595.3219607510089 388.6764847713545 L596.4356858697244 388.74409281533497 L597.5493566020193 388.81143109672036 L597.5493566020193 391.0 L596.4356858697244 391.0 L595.3219607510089 391.0 L594.2082900187138 391.0 L593.0946192864188 391.0 L591.9808941677034 391.0 L590.8672234354083 391.0 L589.7535527031133 391.0 L588.6398275843978 391.0 L587.5261568521028 391.0 L586.4124861198078 391.0 L585.2987610010923 391.0 L584.1850902687974 391.0 L583.0714195365023 391.0 L581.9577488042073 391.0 L580.8440236854918 391.0 L579.7303529531968 391.0 L578.6166822209018 391.0 L577.5029571021863 391.0 L576.3892863698912 391.0 L575.2756156375963 391.0 L574.1618905188808 391.0 L573.0482197865857 391.0 L571.9345490542908 391.0 L570.8208239355753 391.0 L569.7071532032803 391.0 L568.5934824709852 391.0 L567.4797573522698 391.0 L566.3660866199748 391.0 L565.2524158876797 391.0 L564.1386907689642 391.0 L563.0250200366693 391.0 L561.9113493043742 391.0 L560.7976241856587 391.0 L559.6839534533638 391.0 L558.5702827210687 391.0 L557.4565576023532 391.0 L556.3428868700582 391.0 L555.2292161377633 391.0 L554.1155454054682 391.0 L553.0018202867527 391.0 L551.8881495544578 391.0 L550.7744788221627 391.0 L549.6607537034472 391.0 L548.5470829711522 391.0 L547.4334122388572 391.0 L546.3196871201417 391.0 L545.2060163878467 391.0 L544.0923456555516 391.0 L542.9786205368362 391.0 L541.8649498045412 391.0 L540.7512790722462 391.0 L539.6375539535306 391.0 L538.5238832212357 391.0 L537.4102124889406 391.0 L536.2964873702251 391.0 L535.1828166379302 391.0 L534.0691459056352 391.0 L532.9554207869196 391.0 L531.8417500546246 391.0 L530.7280793223297 391.0 L529.6144085900346 391.0 L528.5006834713191 391.0 L527.3870127390242 391.0 L526.2733420067291 391.0 L525.1596168880136 391.0 L524.0459461557186 391.0 L522.9322754234236 391.0 L521.8185503047081 391.0 L520.7048795724131 391.0 L519.5912088401182 391.0 L518.4774837214026 391.0 L517.3638129891076 391.0 L516.2501422568126 391.0 L515.1364171380972 391.0 L514.0227464058021 391.0 L512.9090756735071 391.0 L511.79535055479164 391.0 L510.6816798224966 391.0 L509.5680090902016 391.0 L508.4542839714861 391.0 L507.3406132391911 391.0 L506.2269425068961 391.0 L505.1132173881806 391.0 L503.9995466558856 391.0 L502.8858759235906 391.0 L501.7722051912956 391.0 L500.6584800725801 391.0 L499.5448093402851 391.0 L498.4311386079901 391.0 L497.3174134892746 391.0 L496.2037427569796 391.0 L495.09007202468456 391.0 L493.9763469059691 391.0 L492.86267617367406 391.0 L491.74900544137904 391.0 L490.63528032266356 391.0 L489.52160959036854 391.0 L488.4079388580736 391.0 L487.29421373935804 391.0 L486.1805430070631 391.0 L485.06687227476806 391.0 L483.9531471560526 391.0 L482.83947642375756 391.0 L481.72580569146254 391.0 L480.61210776595726 391.0 L479.49840984045204 391.0 L478.384739108157 391.0 L477.2710411826518 391.0 L476.1573432571465 391.0 L475.0436725248515 391.0 L473.9299745993463 391.0 L472.816276673841 391.0 L471.70260594154604 391.0 L470.58890801604076 391.0 L469.47523728374574 391.0 L468.3615393582405 391.0 L467.24784143273524 391.0 L466.1341707004403 391.0 L465.020472774935 391.0 L463.9067748494297 391.0 L462.79310411713476 391.0 L461.6794061916295 391.0 L460.56570826612426 391.0 L459.45203753382924 391.0 L458.33833960832396 391.0 L457.22464168281874 391.0 L456.1109709505237 391.0 L454.9972730250185 391.0 L453.8836022927235 391.0 L452.7699043672182 391.0 L451.656206441713 391.0 L450.54253570941796 391.0 L449.42883778391274 391.0 L448.31513985840746 391.0 L447.20146912611244 391.0 L446.0877712006072 391.0 L444.97407327510194 391.0 L443.8604025428069 391.0 L442.7467046173017 391.0 L441.6330338850067 391.0 L440.51933595950146 391.0 L439.4056380339962 391.0 L438.29196730170116 391.0 L437.17826937619594 391.0 L436.06457145069066 391.0 L434.9509007183957 391.0 L433.8372027928904 391.0 L432.7235048673852 391.0 L431.6098341350902 391.0 L430.4961362095849 391.0 L429.3824382840797 391.0 L428.26876755178466 391.0 L427.1550696262794 391.0 L426.0413988939844 391.0 L424.92770096847914 391.0 L423.8140030429739 391.0 L422.7003323106789 391.0 L421.5866343851736 391.0 L420.4729364596684 391.0 L419.3592657273734 391.0 L418.24556780186816 391.0 L417.1318698763629 391.0 L416.01819914406786 391.0 L414.90450121856264 391.0 L413.7908304862676 391.0 L412.67713256076235 391.0 L411.5634346352571 391.0 L410.4497639029621 391.0 L409.3360659774569 391.0 L408.2223680519516 391.0 L407.1086973196566 391.0 L405.99499939415136 391.0 L404.8813014686461 391.0 L403.7676307363511 391.0 L402.65393281084584 391.0 L401.5402620785508 391.0 L400.4265641530456 391.0 L399.3128662275403 391.0 L398.19919549524536 391.0 L397.0854975697401 391.0 L395.9717996442348 391.0 L394.85812891193984 391.0 L393.74443098643457 391.0 L392.63073306092934 391.0 L391.5170623286343 391.0 L390.40336440312905 391.0 L389.2896664776238 391.0 L388.1759957453288 391.0 L387.0622978198236 391.0 L385.94862708752856 391.0 L384.8349291620233 391.0 L383.72123123651807 391.0 L382.60756050422304 391.0 L381.4938625787178 391.0 L380.38016465321255 391.0 L379.2664939209175 391.0 L378.1527959954123 391.0 L377.039098069907 391.0 L375.925427337612 391.0 L374.8117294121068 391.0 L373.69805867981177 391.0 L372.58436075430654 391.0 L371.47066282880127 391.0 L370.35699209650625 391.0 L369.243294171001 391.0 L368.12959624549575 391.0 L367.0159255132008 391.0 L365.9022275876955 391.0 L364.7885296621903 391.0 L363.67485892989527 391.0 L362.56116100439 391.0 L361.44749027209497 391.0 L360.33379234658975 391.0 L359.22009442108447 391.0 L358.1064236887895 391.0 L356.9927257632842 391.0 L355.879027837779 391.0 L354.765357105484 391.0 L353.6516591799787 391.0 L352.5379612544735 391.0 L351.42429052217847 391.0 L350.31059259667325 391.0 L349.19689467116797 391.0 L348.08322393887295 391.0 L346.9695260133677 391.0 L345.8558552810727 391.0 L344.74215735556743 391.0 L343.6284594300622 391.0 L342.5147886977672 391.0 L341.40109077226197 391.0 L340.2873928467567 391.0 L339.17372211446167 391.0 L338.06002418895645 391.0 L336.94632626345117 391.0 L335.8326555311562 391.0 L334.7189576056509 391.0 L333.6052868733559 391.0 L332.4915889478507 391.0 L331.3778910223454 391.0 L330.2642202900504 391.0 L329.15052236454517 391.0 L328.0368244390399 391.0 L326.9231537067449 391.0 L325.80945578123965 391.0 L324.6957578557344 391.0 L323.5820871234394 391.0 L322.46838919793413 391.0 L321.3546912724289 391.0 L320.2410205401339 391.0 L319.12732261462867 391.0 L318.01365188233365 391.0 L316.89995395682837 391.0 L315.78625603132315 391.0 L314.6725852990281 391.0 L313.55888737352285 391.0 L312.44518944801763 391.0 L311.3315187157226 391.0 L310.2178207902174 391.0 L309.1041228647121 391.0 L307.9904521324171 391.0 L306.87675420691187 391.0 L305.76308347461685 391.0 L304.6493855491116 391.0 L303.53568762360635 391.0 L302.42201689131133 391.0 L301.3083189658061 391.0 L300.19462104030083 391.0 L299.08095030800587 391.0 L297.9672523825006 391.0 L296.8535544569953 391.0 L295.73988372470035 391.0 L294.62618579919507 391.0 L293.51251506690005 391.0 L292.39881714139483 391.0 L291.28511921588955 391.0 L290.1714484835946 391.0 L289.0577505580893 391.0 L287.9440526325841 391.0 L286.83038190028907 391.0 L285.7166839747838 391.0 L284.60298604927857 391.0 L283.48931531698355 391.0 L282.3756173914783 391.0 L281.26191946597305 391.0 L280.14824873367803 391.0 L279.03455080817275 391.0 L277.9208800758778 391.0 L276.8071821503725 391.0 L275.6934842248673 391.0 L274.57981349257227 391.0 L273.466115567067 391.0 L272.3524176415618 391.0 L271.23874690926675 391.0 L270.12504898376153 391.0 L269.01135105825625 391.0 L267.89768032596123 391.0 L266.783982400456 391.0 L265.670311668161 391.0 L264.55661374265577 391.0 L263.4429158171505 391.0 L262.3292450848555 391.0 L261.21554715935025 391.0 L260.101849233845 391.0 L258.98817850154995 391.0 L257.87448057604473 391.0 L256.76078265053945 391.0 L255.6471119182445 391.0 L254.53341399273924 391.0 L253.4197296638391 391.0 L252.30604533493897 391.0 L251.19234740943372 391.0 L250.0786630805336 391.0 L248.96497875163348 391.0 L247.85129442273333 391.0 L246.73759649722808 391.0 L245.62391216832796 391.0 L244.51022783942784 391.0 L243.3965435105277 391.0 L242.28284558502244 391.0 L241.16916125612232 391.0 L240.0554769272222 391.0 L238.94177900171695 391.0 L237.8280946728168 391.0 L236.71441034391668 391.0 L235.60072601501656 391.0 L234.4870280895113 391.0 L233.3733437606112 391.0 L232.25965943171104 391.0 L231.1459615062058 391.0 L230.03227717730567 391.0 L228.91859284840555 391.0 L227.8049085195054 391.0 L226.69121059400015 391.0 L225.57752626510003 391.0 L224.4638419361999 391.0 L223.3501576072998 391.0 L222.2364596817945 391.0 L221.1227753528944 391.0 L220.00909102399427 391.0 L218.89539309848902 391.0 L217.7817087695889 391.0 L216.66802444068875 391.0 L215.55434011178863 391.0 L214.44064218628338 391.0 L213.32695785738326 391.0 L212.2132735284831 391.0 L211.09957560297786 391.0 L209.98589127407774 391.0 L208.87220694517762 391.0 L207.7585226162775 391.0 L206.64482469077225 391.0 L205.5311403618721 391.0 L204.41745603297198 391.0 L203.30375810746673 391.0 L202.1900737785666 391.0 L201.07638944966646 391.0 L199.96270512076634 391.0 L198.8490071952611 391.0 L197.73532286636097 391.0 L196.62163853746083 391.0 L195.5079542085607 391.0 L194.39425628305546 391.0 L193.28057195415533 391.0 L192.1668876252552 391.0 L191.05318969974996 391.0 L189.93950537084982 391.0 L188.8258210419497 391.0 L187.71213671304957 391.0 L186.59843878754432 391.0 L185.48475445864418 391.0 L184.37107012974406 391.0 L183.2573722042388 391.0 L182.14368787533868 391.0 L181.03000354643854 391.0 L179.91631921753842 391.0 L178.80262129203317 391.0 L177.68893696313305 391.0 L176.57525263423292 391.0 L175.46156830533278 391.0 L174.34787037982753 391.0 L173.2341860509274 391.0 L172.12050172202729 391.0 L171.00680379652204 391.0 L169.8931194676219 391.0 L168.77943513872177 391.0 L167.66575080982165 391.0 L166.5520528843164 391.0 L165.43836855541628 391.0 L164.32468422651613 391.0 L163.21098630101088 391.0 L162.09730197211076 391.0 L160.98361764321064 391.0 L159.8699333143105 391.0 L158.75623538880524 391.0 L157.64255105990512 391.0 L156.528866731005 391.0 L155.41518240210485 391.0 L154.3014844765996 391.0 L153.18780014769948 391.0 L152.07411581879936 391.0 L150.9604178932941 391.0 L149.84673356439396 391.0 L148.73304923549384 391.0 L147.61936490659372 391.0 L146.50566698108847 391.0 L145.39198265218832 391.0 L144.2782983232882 391.0 L143.16460039778295 391.0 L142.05091606888283 391.0 L140.9372317399827 391.0 L139.82354061278 391.0 L138.70985628387987 391.0 L137.5961651566772 391.0 L136.48248082777707 391.0 L135.36878970057435 391.0 L134.25509857337167 391.0 L133.14141424447155 391.0 L132.02772311726886 391.0 L130.91403878836874 391.0 L129.80034766116603 391.0 L128.6866633322659 391.0 L127.57297220506322 391.0 L126.45928787616309 391.0 L125.3455967489604 391.0 L124.2319056217577 391.0 L123.11822129285758 391.0 L122.00453016565488 391.0 L120.89084583675476 391.0 L119.77715470955208 391.0 L118.66347038065194 391.0 L117.54977925344926 391.0 L116.43609492454912 391.0 L115.32240379734644 391.0 L114.20871267014374 391.0 L113.09502834124362 391.0 L111.98133721404093 391.0 L110.8676528851408 391.0 L109.75396175793811 391.0 L108.64027742903798 391.0 L107.5265863018353 391.0 L106.41290197293516 391.0 L105.29921084573247 391.0 L104.18551971852979 391.0 L103.07183538962965 391.0 L101.95814426242697 391.0 L100.84445993352684 391.0 L99.73076880632415 391.0 L98.61708447742402 391.0 L97.50339335022133 391.0 L96.3897090213212 391.0 L95.27601789411851 391.0 L94.16232676691583 391.0 L93.04864243801569 391.0 L91.934951310813 391.0 L90.82126698191288 391.0 L89.70757585471019 391.0 L88.59389152581006 391.0 L87.48020039860737 391.0 L86.36651606970725 391.0 L85.25282494250455 391.0 L84.13913721445314 391.0 L83.02544948640174 391.0 L81.91176175835032 391.0 L80.79807403029892 391.0 L79.68438290309622 391.0 L78.57069517504482 391.0 L77.45700744699342 391.0 L76.343319718942 391.0 L75.2296319908906 391.0 L74.11594426283918 391.0 L73.00225653478778 391.0 L71.88856880673636 391.0 L70.77488107868496 391.0 L69.66118995148227 391.0 L68.54750222343085 391.0 L67.43381449537945 391.0 L66.32012676732803 391.0 L65.20643903927663 391.0 L64.09275131122521 391.0 L62.97906358317381 391.0 L61.865375855122394 391.0 L60.75168812707099 391.0 L59.63799699986831 391.0 L58.52430927181689 391.0 L57.41062154376549 391.0 L56.29693381571407 391.0 L55.18324608766267 391.0 L54.06955835961126 391.0 L52.955868931984206 391.0 L51.842181203932796 391.0 L50.72849347588139 391.0 L49.614805747829976 391.0 L48.50111801977857 391.0 L47.38742859215152 391.0 L46.27374086410011 391.0 L45.1600531360487 391.0 L44.0463654079973 391.0 L42.93267598037025 391.0 L41.81898825231884 391.0 L40.70530052426743 391.0 L39.5916119464282 391.0 L38.477924218376785 391.0 L37.36423649032538 391.0 L36.25054791248615 391.0 L35.13686018443474 391.0 L34.02317160659551 391.0 L32.9094838785441 391.0 L31.795795725598783 391.0 L30.68210736020651 391.0 L29.568419419708146 391.0 L28.454731266762828 391.0 Z" fill="rgb(255,102,102)" stroke-width="1.0" fill-opacity="0.5019607843137255">
                </path>
              </g>
              <g>
                <path d="M28.454731266762828 331.3589855873428 L28.454731266762828 331.3589855873428 L29.568419419708146 329.5062896265298 L30.68210736020651 327.7196859761717 L31.795795725598783 326.00616156659083 L32.9094838785441 324.3722071547968 L34.02317160659551 322.8237515055776 L35.13686018443474 321.36612088755584 L36.25054791248615 320.0039732542796 L37.36423649032538 318.741267866265 L38.477924218376785 317.5812349130378 L39.5916119464282 316.5263350091898 L40.70530052426743 315.57827438335767 L41.81898825231884 314.7379745002651 L42.93267598037025 314.0055821867088 L44.0463654079973 313.38050000951614 L45.1600531360487 312.86138627554556 L46.27374086410011 312.44621072460916 L47.38742859215152 312.1322595924659 L48.50111801977857 311.9162216817021 L49.614805747829976 311.7942035507106 L50.72849347588139 311.7618155845715 L51.842181203932796 311.814207436003 L52.955868931984206 311.94615915923544 L54.06955835961126 312.1521166509617 L55.18324608766267 312.4262827842116 L56.29693381571407 312.7626781642671 L57.41062154376549 313.1551968215857 L58.52430927181689 313.59767709370203 L59.63799699986831 314.0839725071296 L60.75168812707099 314.6079821553188 L61.865375855122394 315.1637215805588 L62.97906358317381 315.7453784669002 L64.09275131122521 316.3473126401554 L65.20643903927663 316.9641421387789 L66.32012676732803 317.5907280248888 L67.43381449537945 318.22221488821026 L68.54750222343085 318.85404097206185 L69.66118995148227 319.4819432363484 L70.77488107868496 320.1019573575609 L71.88856880673636 320.71041266578356 L73.00225653478778 321.3039118927221 L74.11594426283918 321.87931598272434 L75.2296319908906 322.43373902978766 L76.343319718942 322.96447233266383 L77.45700744699342 323.4689995838383 L78.57069517504482 323.944941176607 L79.68438290309622 324.3900137011328 L80.79807403029892 324.80198944050125 L81.91176175835032 325.1786710557559 L83.02544948640174 325.51782576698946 L84.13913721445314 325.81716510137164 L85.25282494250455 326.07429932621255 L86.36651606970725 326.28670200801156 L87.48020039860737 326.4516745715065 L88.59389152581006 326.56631085872266 L89.70757585471019 326.627487002987 L90.82126698191288 326.63182598797704 L91.934951310813 326.57569258472796 L93.04864243801569 326.45516803666766 L94.16232676691583 326.2660601856028 L95.27601789411851 326.0038882827396 L96.3897090213212 325.66390324065617 L97.50339335022133 325.24110282228105 L98.61708447742402 324.7302265779007 L99.73076880632415 324.12581660107475 L100.84445993352684 323.4222023396576 L101.95814426242697 322.613586666679 L103.07183538962965 321.69404081735075 L104.18551971852979 320.6575752709692 L105.29921084573247 319.49818025485837 L106.41290197293516 318.20987637430045 L107.5265863018353 316.7867804314443 L108.64027742903798 315.2231358032635 L109.75396175793811 313.5134137014161 L110.8676528851408 311.6523283612233 L111.98133721404093 309.6349281755437 L113.09502834124362 307.4566412617098 L114.20871267014374 305.1133412804372 L115.32240379734644 302.6013980657539 L116.43609492454912 299.9177383809168 L117.54977925344926 297.05990161133394 L118.66347038065194 294.02605495354413 L119.77715470955208 290.8151048010621 L120.89084583675476 287.42663598846286 L122.00453016565488 283.8610535551854 L123.11822129285758 280.1195219896167 L124.2319056217577 276.2040361109939 L125.3455967489604 272.11740081743176 L126.45928787616309 267.8632513378951 L127.57297220506322 263.44607348417065 L128.6866633322659 258.87115302093696 L129.80034766116603 254.14458579175073 L130.91403878836874 249.27322708911652 L132.02772311726886 244.26472203244506 L133.14141424447155 239.12737393023534 L134.25509857337167 233.87016453204666 L135.36878970057435 228.50269327258272 L136.48248082777707 223.03510638978992 L137.5961651566772 217.47802604295535 L138.70985628387987 211.8425098087631 L139.82354061278 206.13995954742032 L140.9372317399827 200.38204039476955 L142.05091606888283 194.58066051031662 L143.16460039778295 188.7477685575114 L144.2782983232882 182.89549546755114 L145.39198265218832 177.03581015585763 L146.50566698108847 171.1806815378526 L147.61936490659372 165.3418760092383 L148.73304923549384 159.53093719402557 L149.84673356439396 153.7591251886179 L150.9604178932941 148.03735580589571 L152.07411581879936 142.3761195673285 L153.18780014769948 136.7855019549467 L154.3014844765996 131.27514290739805 L155.41518240210485 125.85409505614359 L156.528866731005 120.53094523728959 L157.64255105990512 115.31373348369976 L158.75623538880524 110.20993277302324 L159.8699333143105 105.22644902769451 L160.98361764321064 100.36966161887744 L162.09730197211076 95.64536261054945 L163.21098630101088 91.05881751541722 L164.32468422651613 86.61478554688864 L165.43836855541628 82.31751961907304 L166.5520528843164 78.17074609480892 L167.66575080982165 74.17778629749591 L168.77943513872177 70.34145525123495 L169.8931194676219 66.66418319265989 L171.00680379652204 63.14799531896551 L172.12050172202729 59.794552291851744 L173.2341860509274 56.605089481607365 L174.34787037982753 53.58059923485786 L175.46156830533278 50.72162835484596 L176.57525263423292 48.0285211250947 L177.68893696313305 45.50119653771628 L178.80262129203317 43.13937106510343 L179.91631921753842 40.94239664415386 L181.03000354643854 38.90934168415782 L182.14368787533868 37.039031570742395 L183.2573722042388 35.32988665009543 L184.37107012974406 33.780165252629445 L185.48475445864418 32.38768016537392 L186.59843878754432 31.150082159582837 L187.71213671304957 30.06465747101504 L188.8258210419497 29.128368303878176 L189.93950537084982 28.33797434266046 L191.05318969974996 27.68983023241111 L192.1668876252552 27.180128602403727 L193.28057195415533 26.804738050360754 L194.39425628305546 26.559324654285263 L195.5079542085607 26.439311468516678 L196.62163853746083 26.439878523731238 L197.73532286636097 26.556124842717338 L198.8490071952611 26.782987432487744 L199.96270512076634 27.11524128427976 L201.07638944966646 27.547701893274393 L202.1900737785666 28.075103746765024 L203.30375810746673 28.692221835988846 L204.41745603297198 29.393952664014705 L205.5311403618721 30.17523323785548 L206.64482469077225 31.031162580299508 L207.7585226162775 31.957123241742465 L208.87220694517762 32.948659788355656 L209.98589127407774 34.00168132180545 L211.09957560297786 35.11233996742146 L212.2132735284831 36.27715238602855 L213.32695785738326 37.49304027789054 L214.44064218628338 38.757289878766244 L215.55434011178863 40.06755195990962 L216.66802444068875 41.421963339901424 L217.7817087695889 42.81902537281735 L218.89539309848902 44.257563444284415 L220.00909102399427 45.73692949120027 L221.1227753528944 47.256637466238146 L222.2364596817945 48.816727873341904 L223.3501576072998 50.41736272828717 L224.4638419361999 52.0590078264288 L225.57752626510003 53.74239223875685 L226.69121059400015 55.46828554020544 L227.8049085195054 57.237639573456136 L228.91859284840555 59.05138592921861 L230.03227717730567 60.91051695411835 L231.1459615062058 62.81592373492106 L232.25965943171104 64.76837584656084 L233.3733437606112 66.76846059622426 L234.4870280895113 68.81662352729404 L235.60072601501656 70.913006403574 L236.71441034391668 73.05746746126033 L237.8280946728168 75.24958140894222 L238.94177900171695 77.4885179157697 L240.0554769272222 79.77320362722958 L241.16916125612232 82.10209939345361 L242.28284558502244 84.47336228499461 L243.3965435105277 86.88478483691 L244.51022783942784 89.33383555270632 L245.62391216832796 91.81763865236672 L246.73759649722808 94.3330753322112 L247.85129442273333 96.87674326095231 L248.96497875163348 99.44501733561117 L250.0786630805336 102.03413068940534 L251.19234740943372 104.64017469174871 L252.30604533493897 107.25915970416742 L253.4197296638391 109.88705558424351 L254.53341399273924 112.5198726935032 L255.6471119182445 115.15366189741644 L256.76078265053945 117.78461582525688 L257.87448057604473 120.40902836615783 L258.98817850154995 123.02339592897215 L260.101849233845 125.62447819818806 L261.21554715935025 128.2091968740694 L262.3292450848555 130.77481794040295 L263.4429158171505 133.31887065661107 L264.55661374265577 135.83916780972325 L265.670311668161 138.33382596634823 L266.783982400456 140.801285724646 L267.89768032596123 143.24025095841176 L269.01135105825625 145.64970906904816 L270.12504898376153 148.0289714895089 L271.23874690926675 150.37753192049524 L272.3524176415618 152.69514733834384 L273.466115567067 154.98175698713882 L274.57981349257227 157.23750263068382 L275.6934842248673 159.4626880485581 L276.8071821503725 161.65767777625672 L277.9208800758778 163.82299836505035 L279.03455080817275 165.9592371221255 L280.14824873367803 168.06700160664062 L281.26191946597305 170.1469398816981 L282.3756173914783 172.1997405143442 L283.48931531698355 174.2260718196532 L284.60298604927857 176.22654135678363 L285.7166839747838 178.20179718883776 L286.83038190028907 180.15236586708633 L287.9440526325841 182.07881444674388 L289.0577505580893 183.9816087231652 L290.1714484835946 185.86121449170517 L291.28511921588955 187.71799628785885 L292.39881714139483 189.55233889909326 L293.51251506690005 191.36452585301566 L294.62618579919507 193.15486092920534 L295.73988372470035 194.92358715132565 L296.8535544569953 196.670927291068 L297.9672523825006 198.39708386815192 L299.08095030800587 200.10223915032495 L300.19462104030083 201.78655515336263 L301.3083189658061 203.45017364106866 L302.42201689131133 205.09323637724665 L303.53568762360635 206.71582436978443 L304.6493855491116 208.31801862656974 L305.76308347461685 209.89990015549043 L306.87675420691187 211.46146895654647 L307.9904521324171 213.00272502973783 L309.1041228647121 214.52360761914875 L310.2178207902174 216.0240559688633 L311.3315187157226 217.5039080631059 L312.44518944801763 218.96298163412908 L313.55888737352285 220.4010336582694 L314.6725852990281 221.81782111186345 L315.78625603132315 223.21296933343024 L316.89995395682837 224.58611378747466 L318.01365188233365 225.93683930857173 L319.12732261462867 227.2647104793246 L320.2410205401339 228.56924125240647 L321.3546912724289 229.84996583246254 L322.46838919793413 231.10639817216602 L323.5820871234394 232.3380724761621 L324.6957578557344 233.54455332705388 L325.80945578123965 234.72546606336027 L326.9231537067449 235.88047652754418 L328.0368244390399 237.00933156995617 L329.15052236454517 238.1118894267927 L330.2642202900504 239.1881095941098 L331.3778910223454 240.23807307979527 L332.4915889478507 241.2619925295546 L333.6052868733559 242.2602324788828 L334.7189576056509 243.23332960503663 L335.8326555311562 244.1819623490763 L336.94632626345117 245.10699141980965 L338.06002418895645 246.00943954182006 L339.17372211446167 246.89051170743852 L340.2873928467567 247.75157492477157 L341.40109077226197 248.59414809171537 L342.5147886977672 249.41992224792764 L343.6284594300622 250.23070994489782 L344.74215735556743 251.0284756239049 L345.8558552810727 251.81528498608768 L346.9695260133677 252.5933049924447 L348.08322393887295 253.36480386383417 L349.19689467116797 254.13209032505833 L350.31059259667325 254.8975338568351 L351.42429052217847 255.66351406586855 L352.5379612544735 256.4324206848486 L353.6516591799787 257.20664344646525 L354.765357105484 257.9884910755205 L355.879027837779 258.7802520448448 L356.9927257632842 259.5841135674085 L358.1064236887895 260.4021818482943 L359.22009442108447 261.23642132878115 L360.33379234658975 262.0886648123304 L361.44749027209497 262.960613464586 L362.56116100439 263.85378618344384 L363.67485892989527 264.76949934708074 L364.7885296621903 265.70890731789774 L365.9022275876955 266.6729315606185 L367.0159255132008 267.66229102024715 L368.12959624549575 268.67749199608255 L369.243294171001 269.71877751178795 L370.35699209650625 270.7861981972933 L371.47066282880127 271.87953128090714 L372.58436075430654 272.9983413452326 L373.69805867981177 274.1419702011812 L374.8117294121068 275.30951663600143 L375.925427337612 276.49986679123595 L377.039098069907 277.7116941627222 L378.1527959954123 278.943479852564 L379.2664939209175 280.19351256913166 L380.38016465321255 281.4599291310059 L381.4938625787178 282.7406942150059 L382.60756050422304 284.033661112105 L383.72123123651807 285.33657172743096 L384.8349291620233 286.64706670625174 L385.94862708752856 287.96274618989145 L387.0622978198236 289.2811596897442 L388.1759957453288 290.59982633924636 L389.2896664776238 291.916305775778 L390.40336440312905 293.22816776270537 L391.5170623286343 294.53305294529633 L392.63073306092934 295.8286829767067 L393.74443098643457 297.11286051798004 L394.85812891193984 298.38354011994954 L395.9717996442348 299.638777593308 L397.0854975697401 300.87680089051 L398.19919549524536 302.09598985379967 L399.3128662275403 303.29490659316855 L400.4265641530456 304.47228536036994 L401.5402620785508 305.62703254891846 L402.65393281084584 306.7582520090555 L403.7676307363511 307.8652146697909 L404.8813014686461 308.947363601896 L405.99499939415136 310.0043089549108 L407.1086973196566 311.0358279571439 L408.2223680519516 312.04182441172856 L409.3360659774569 313.0223438856016 L410.4497639029621 313.97754839453864 L411.5634346352571 314.90769615118205 L412.67713256076235 315.8131263760619 L413.7908304862676 316.6942643605892 L414.90450121856264 317.5515708371258 L416.01819914406786 318.3855622309563 L417.1318698763629 319.1967600303584 L418.24556780186816 319.98572622755376 L419.3592657273734 320.75301268877786 L420.4729364596684 321.49916115428044 L421.5866343851736 322.2247184273041 L422.7003323106789 322.93020599612646 L423.8140030429739 323.61613016004634 L424.92770096847914 324.2829769663904 L426.0413988939844 324.93123246248547 L427.1550696262794 325.5613523177004 L428.26876755178466 326.17380232739004 L429.3824382840797 326.7690432239161 L430.4961362095849 327.34754080263355 L431.6098341350902 327.90979629984804 L432.7235048673852 328.45632614084434 L433.8372027928904 328.9876872548509 L434.9509007183957 329.50448720102634 L436.06457145069066 330.0073892314519 L437.17826937619594 330.49712748011075 L438.29196730170116 330.97450696288786 L439.4056380339962 331.4404137035559 L440.51933595950146 331.8958147337756 L441.6330338850067 332.34176821908113 L442.7467046173017 332.7794234588806 L443.8604025428069 333.210015823463 L444.97407327510194 333.6348616910049 L446.0877712006072 334.05537869954276 L447.20146912611244 334.47303511704285 L448.31513985840746 334.8893751563662 L449.42883778391274 335.3060139122759 L450.54253570941796 335.7246019204856 L451.656206441713 336.14680996868117 L452.7699043672182 336.5743544114853 L453.8836022927235 337.00894147753456 L454.9972730250185 337.4522672694797 L456.1109709505237 337.9059975120136 L457.22464168281874 338.371767551871 L458.33833960832396 338.8511367908921 L459.45203753382924 339.34560387500096 L460.56570826612426 339.8565611272692 L461.6794061916295 340.3852996109084 L462.79310411713476 340.9329990032847 L463.9067748494297 341.5006870919745 L465.020472774935 342.08925496374343 L466.1341707004403 342.6994316895818 L467.24784143273524 343.3317843247041 L468.3615393582405 343.98669765657735 L469.47523728374574 344.66437420492105 L470.58890801604076 345.3648342217071 L471.70260594154604 346.08790050218107 L472.816276673841 346.83320344785477 L473.9299745993463 347.6001962554857 L475.0436725248515 348.3881245391186 L476.1573432571465 349.196051645051 L477.2710411826518 350.02286371482563 L478.384739108157 350.86726968523084 L479.49840984045204 351.7278164772792 L480.61210776595726 352.6028940592008 L481.72580569146254 353.49074557242915 L482.83947642375756 354.3894901150694 L483.9531471560526 355.29713033638825 L485.06687227476806 356.21156509429585 L486.1805430070631 357.1306173018078 L487.29421373935804 358.05204152153425 L488.4079388580736 358.97354674914845 L489.52160959036854 359.8928141338624 L490.63528032266356 360.80752229339134 L491.74900544137904 361.7153625029331 L492.86267617367406 362.61406147863653 L493.9763469059691 363.5013915035872 L495.09007202468456 364.375213463248 L496.2037427569796 365.2334667194731 L497.3174134892746 366.07420961445206 L498.4311386079901 366.8956270651988 L499.5448093402851 367.6960457525312 L500.6584800725801 368.47395690453897 L501.7722051912956 369.2280162965841 L502.8858759235906 369.9570619717759 L503.9995466558856 370.6601243669574 L505.1132173881806 371.3364301099498 L506.2269425068961 371.98540328530083 L507.3406132391911 372.60667429452235 L508.4542839714861 373.2000722616011 L509.5680090902016 373.76562756449505 L510.6816798224966 374.3035591776508 L511.79535055479164 374.8142759377521 L512.9090756735071 375.29836008899247 L514.0227464058021 375.75655589134107 L515.1364171380972 376.18976076030486 L516.2501422568126 376.5990024834602 L517.3638129891076 376.9854316259635 L518.4774837214026 377.35029368408954 L519.5912088401182 377.694920224994 L520.7048795724131 378.02070483749657 L521.8185503047081 378.329081614361 L522.9322754234236 378.62151122906386 L524.0459461557186 378.8994619495717 L525.1596168880136 379.1643881206199 L526.2733420067291 379.41771624048266 L527.3870127390242 379.6608247090008 L528.5006834713191 379.89503876458866 L529.6144085900346 380.1216077007658 L530.7280793223297 380.3416985374159 L531.8417500546246 380.5563865276745 L532.9554207869196 380.7666500949364 L534.0691459056352 380.9733600739954 L535.1828166379302 381.1772809767926 L536.2964873702251 381.3790678280457 L537.4102124889406 381.57926553237496 L538.5238832212357 381.7783145701702 L539.6375539535306 381.9765497318428 L540.7512790722462 382.1742077123148 L541.8649498045412 382.37143407263466 L542.9786205368362 382.56828830296996 L544.0923456555516 382.7647539485935 L545.2060163878467 382.96074493862454 L546.3196871201417 383.1561163448887 L547.4334122388572 383.35067450790433 L548.5470829711522 383.5441827327492 L549.6607537034472 383.7363739465433 L550.7744788221627 383.9269582929381 L551.8881495544578 384.11563199235434 L553.0018202867527 384.30208303784923 L554.1155454054682 384.48600195397637 L555.2292161377633 384.66708432828244 L556.3428868700582 384.8450403044189 L557.4565576023532 385.01959711363855 L558.5702827210687 385.1905022391662 L559.6839534533638 385.3575310106881 L560.7976241856587 385.52048470572936 L561.9113493043742 385.67919434689907 L563.0250200366693 385.83352196763843 L564.1386907689642 385.98336092865753 L565.2524158876797 386.1286356014987 L566.3660866199748 386.26930168497324 L567.4797573522698 386.4053452558505 L568.5934824709852 386.53678150310935 L569.7071532032803 386.66365219644206 L570.8208239355753 386.78602663556507 L571.9345490542908 386.9039969036633 L573.0482197865857 387.01767818382723 L574.1618905188808 387.12720559468227 L575.2756156375963 387.23273229176624 L576.3892863698912 387.33442756890713 L577.5029571021863 387.43247495960077 L578.6166822209018 387.5270693890771 L579.7303529531968 387.61841559211507 L580.8440236854918 387.7067262144202 L581.9577488042073 387.79221896469085 L583.0714195365023 387.8751153488703 L584.1850902687974 387.95563845508696 L585.2987610010923 388.03401073859527 L586.4124861198078 388.110451806716 L587.5261568521028 388.1851768366511 L588.6398275843978 388.25839436042435 L589.7535527031133 388.33030563200685 L590.8672234354083 388.4011005136357 L591.9808941677034 388.4709579504692 L593.0946192864188 388.5400432808722 L594.2082900187138 388.6085074453231 L595.3219607510089 388.6764847713545 L596.4356858697244 388.74409281533497 L597.5493566020193 388.81143109672036 " fill="none" stroke-width="1.6500000000000001" stroke="rgb(187,187,187)" stroke-opacity="1.0">
                </path>
              </g>
            </g>
          </g>
        </g>
        <defs>
          <clipPath id="xXxprefixXx1">
            <rect x="42.99591213121782" y="0.0" width="626.0040878687822" height="391.0">
            </rect>
          </clipPath>
        </defs>
        <defs>
          <clipPath id="xXxprefixXx2">
            <rect x="42.99591213121782" y="0.0" width="626.0040878687822" height="391.0">
            </rect>
          </clipPath>
        </defs>
      </g>
      <g>
      </g>
    </g>
    <g transform="translate(72.49591213121782 16.8 ) ">
      <text class="plot-title" y="0.0">
        <tspan>Titanic passengers age distribution</tspan>
      </text>
    </g>
    <g transform="translate(16.0 222.0 ) rotate(-90.0 ) ">
      <text class="axis-title-y" y="0.0" text-anchor="middle">
        <tspan>density*</tspan>
      </text>
    </g>
    <g transform="translate(385.49795606560895 463.0 ) ">
      <text class="axis-title-x" y="0.0" text-anchor="middle">
        <tspan>age</tspan>
      </text>
    </g>
    <path fill="rgb(0,0,0)" fill-opacity="0.0" stroke="rgb(187,187,187)" stroke-opacity="1.0" stroke-width="0.0" d="M0.0 0.0 L0.0 470.0 L705.0 470.0 L705.0 0.0 Z" pointer-events="none">
    </path>
  </g>
  <g id="xXxprefixXx3">
  </g>
</svg>