<svg xmlns="http://www.w3.org/2000/svg" xmlns:xlink="http://www.w3.org/1999/xlink" class="plt-container" width="705.0" height="470.0">
  <style type="text/css">
  .plt-container {
   font-family: Lucida Grande, sans-serif;
   user-select: none;
   -webkit-user-select: none;
   -moz-user-select: none;
   -ms-user-select: none;
}
text {
   text-rendering: optimizeLegibility;
}
#xXxprefixXx0 .plot-title {
   fill: #474747;
   font-family: Lucida Grande, sans-serif;
   font-size: 16.0px;
   font-weight: normal;
   font-style: normal;   
}
#xXxprefixXx0 .plot-subtitle {
   fill: #474747;
   font-family: Lucida Grande, sans-serif;
   font-size: 15.0px;
   font-weight: normal;
   font-style: normal;   
}
#xXxprefixXx0 .plot-caption {
   fill: #474747;
   font-family: Lucida Grande, sans-serif;
   font-size: 13.0px;
   font-weight: normal;
   font-style: normal;   
}
#xXxprefixXx0 .legend-title {
   fill: #474747;
   font-family: Lucida Grande, sans-serif;
   font-size: 15.0px;
   font-weight: normal;
   font-style: normal;   
}
#xXxprefixXx0 .legend-item {
   fill: #474747;
   font-family: Lucida Grande, sans-serif;
   font-size: 13.0px;
   font-weight: normal;
   font-style: normal;   
}
#xXxprefixXx0 .axis-title-x {
   fill: #474747;
   font-family: Lucida Grande, sans-serif;
   font-size: 15.0px;
   font-weight: normal;
   font-style: normal;   
}
#xXxprefixXx0 .axis-text-x {
   fill: #474747;
   font-family: Lucida Grande, sans-serif;
   font-size: 13.0px;
   font-weight: normal;
   font-style: normal;   
}
#xXxprefixXx2 .axis-tooltip-text-x {
   fill: #ffffff;
   font-family: Lucida Grande, sans-serif;
   font-size: 13.0px;
   font-weight: normal;
   font-style: normal;   
}
#xXxprefixXx0 .axis-title-y {
   fill: #474747;
   font-family: Lucida Grande, sans-serif;
   font-size: 15.0px;
   font-weight: normal;
   font-style: normal;   
}
#xXxprefixXx0 .axis-text-y {
   fill: #474747;
   font-family: Lucida Grande, sans-serif;
   font-size: 13.0px;
   font-weight: normal;
   font-style: normal;   
}
#xXxprefixXx2 .axis-tooltip-text-y {
   fill: #ffffff;
   font-family: Lucida Grande, sans-serif;
   font-size: 13.0px;
   font-weight: normal;
   font-style: normal;   
}
#xXxprefixXx0 .facet-strip-text-x {
   fill: #474747;
   font-family: Lucida Grande, sans-serif;
   font-size: 13.0px;
   font-weight: normal;
   font-style: normal;   
}
#xXxprefixXx0 .facet-strip-text-y {
   fill: #474747;
   font-family: Lucida Grande, sans-serif;
   font-size: 13.0px;
   font-weight: normal;
   font-style: normal;   
}
#xXxprefixXx2 .tooltip-text {
   fill: #474747;
   font-family: Lucida Grande, sans-serif;
   font-size: 13.0px;
   font-weight: normal;
   font-style: normal;   
}
#xXxprefixXx2 .tooltip-title {
   fill: #474747;
   font-family: Lucida Grande, sans-serif;
   font-size: 13.0px;
   font-weight: bold;
   font-style: normal;   
}
#xXxprefixXx2 .tooltip-label {
   fill: #474747;
   font-family: Lucida Grande, sans-serif;
   font-size: 13.0px;
   font-weight: bold;
   font-style: normal;   
}

  </style>
  <g id="xXxprefixXx0">
    <path fill-rule="evenodd" fill="rgb(255,255,255)" fill-opacity="1.0" d="M0.0 0.0 L0.0 470.0 L705.0 470.0 L705.0 0.0 Z">
    </path>
    <g transform="translate(23.0 34.0 ) ">
      <g transform="translate(27.034701220281416 390.0 ) ">
        <line x1="7.600575961430195" y1="-0.0" x2="7.600575961430195" y2="-390.0" stroke="rgb(233,233,233)" stroke-opacity="1.0" stroke-width="1.0">
        </line>
        <line x1="69.64630413283089" y1="-0.0" x2="69.64630413283089" y2="-390.0" stroke="rgb(233,233,233)" stroke-opacity="1.0" stroke-width="1.0">
        </line>
        <line x1="131.6920323042316" y1="-0.0" x2="131.6920323042316" y2="-390.0" stroke="rgb(233,233,233)" stroke-opacity="1.0" stroke-width="1.0">
        </line>
        <line x1="193.73776047563229" y1="-0.0" x2="193.73776047563229" y2="-390.0" stroke="rgb(233,233,233)" stroke-opacity="1.0" stroke-width="1.0">
        </line>
        <line x1="255.78348864703298" y1="-0.0" x2="255.78348864703298" y2="-390.0" stroke="rgb(233,233,233)" stroke-opacity="1.0" stroke-width="1.0">
        </line>
        <line x1="317.8292168184339" y1="-0.0" x2="317.8292168184339" y2="-390.0" stroke="rgb(233,233,233)" stroke-opacity="1.0" stroke-width="1.0">
        </line>
        <line x1="379.8749449898346" y1="-0.0" x2="379.8749449898346" y2="-390.0" stroke="rgb(233,233,233)" stroke-opacity="1.0" stroke-width="1.0">
        </line>
        <line x1="441.9206731612353" y1="-0.0" x2="441.9206731612353" y2="-390.0" stroke="rgb(233,233,233)" stroke-opacity="1.0" stroke-width="1.0">
        </line>
        <line x1="503.966401332636" y1="-0.0" x2="503.966401332636" y2="-390.0" stroke="rgb(233,233,233)" stroke-opacity="1.0" stroke-width="1.0">
        </line>
        <line x1="566.0121295040367" y1="-0.0" x2="566.0121295040367" y2="-390.0" stroke="rgb(233,233,233)" stroke-opacity="1.0" stroke-width="1.0">
        </line>
        <line x1="628.0578576754376" y1="-0.0" x2="628.0578576754376" y2="-390.0" stroke="rgb(233,233,233)" stroke-opacity="1.0" stroke-width="1.0">
        </line>
        <g transform="translate(7.600575961430195 0.0 ) ">
          <line stroke-width="1.0" stroke="rgb(71,71,71)" stroke-opacity="1.0" x2="0.0" y2="4.0">
          </line>
          <g transform="translate(0.0 7.0 ) ">
            <text class="axis-text-x" text-anchor="middle" dy="0.7em">
            4.6
            </text>
          </g>
        </g>
        <g transform="translate(69.64630413283089 0.0 ) ">
          <line stroke-width="1.0" stroke="rgb(71,71,71)" stroke-opacity="1.0" x2="0.0" y2="4.0">
          </line>
          <g transform="translate(0.0 7.0 ) ">
            <text class="axis-text-x" text-anchor="middle" dy="0.7em">
            4.8
            </text>
          </g>
        </g>
        <g transform="translate(131.6920323042316 0.0 ) ">
          <line stroke-width="1.0" stroke="rgb(71,71,71)" stroke-opacity="1.0" x2="0.0" y2="4.0">
          </line>
          <g transform="translate(0.0 7.0 ) ">
            <text class="axis-text-x" text-anchor="middle" dy="0.7em">
            5.0
            </text>
          </g>
        </g>
        <g transform="translate(193.73776047563229 0.0 ) ">
          <line stroke-width="1.0" stroke="rgb(71,71,71)" stroke-opacity="1.0" x2="0.0" y2="4.0">
          </line>
          <g transform="translate(0.0 7.0 ) ">
            <text class="axis-text-x" text-anchor="middle" dy="0.7em">
            5.2
            </text>
          </g>
        </g>
        <g transform="translate(255.78348864703298 0.0 ) ">
          <line stroke-width="1.0" stroke="rgb(71,71,71)" stroke-opacity="1.0" x2="0.0" y2="4.0">
          </line>
          <g transform="translate(0.0 7.0 ) ">
            <text class="axis-text-x" text-anchor="middle" dy="0.7em">
            5.4
            </text>
          </g>
        </g>
        <g transform="translate(317.8292168184339 0.0 ) ">
          <line stroke-width="1.0" stroke="rgb(71,71,71)" stroke-opacity="1.0" x2="0.0" y2="4.0">
          </line>
          <g transform="translate(0.0 7.0 ) ">
            <text class="axis-text-x" text-anchor="middle" dy="0.7em">
            5.6
            </text>
          </g>
        </g>
        <g transform="translate(379.8749449898346 0.0 ) ">
          <line stroke-width="1.0" stroke="rgb(71,71,71)" stroke-opacity="1.0" x2="0.0" y2="4.0">
          </line>
          <g transform="translate(0.0 7.0 ) ">
            <text class="axis-text-x" text-anchor="middle" dy="0.7em">
            5.8
            </text>
          </g>
        </g>
        <g transform="translate(441.9206731612353 0.0 ) ">
          <line stroke-width="1.0" stroke="rgb(71,71,71)" stroke-opacity="1.0" x2="0.0" y2="4.0">
          </line>
          <g transform="translate(0.0 7.0 ) ">
            <text class="axis-text-x" text-anchor="middle" dy="0.7em">
            6.0
            </text>
          </g>
        </g>
        <g transform="translate(503.966401332636 0.0 ) ">
          <line stroke-width="1.0" stroke="rgb(71,71,71)" stroke-opacity="1.0" x2="0.0" y2="4.0">
          </line>
          <g transform="translate(0.0 7.0 ) ">
            <text class="axis-text-x" text-anchor="middle" dy="0.7em">
            6.2
            </text>
          </g>
        </g>
        <g transform="translate(566.0121295040367 0.0 ) ">
          <line stroke-width="1.0" stroke="rgb(71,71,71)" stroke-opacity="1.0" x2="0.0" y2="4.0">
          </line>
          <g transform="translate(0.0 7.0 ) ">
            <text class="axis-text-x" text-anchor="middle" dy="0.7em">
            6.4
            </text>
          </g>
        </g>
        <g transform="translate(628.0578576754376 0.0 ) ">
          <line stroke-width="1.0" stroke="rgb(71,71,71)" stroke-opacity="1.0" x2="0.0" y2="4.0">
          </line>
          <g transform="translate(0.0 7.0 ) ">
            <text class="axis-text-x" text-anchor="middle" dy="0.7em">
            6.6
            </text>
          </g>
        </g>
        <line x1="0.0" y1="0.0" x2="644.9652987797186" y2="0.0" stroke-width="1.0" stroke="rgb(71,71,71)" stroke-opacity="1.0">
        </line>
      </g>
      <g transform="translate(27.034701220281416 0.0 ) ">
        <line x1="0.0" y1="352.6211760554029" x2="644.9652987797186" y2="352.6211760554029" stroke="rgb(233,233,233)" stroke-opacity="1.0" stroke-width="1.0">
        </line>
        <line x1="0.0" y1="315.2423521108058" x2="644.9652987797186" y2="315.2423521108058" stroke="rgb(233,233,233)" stroke-opacity="1.0" stroke-width="1.0">
        </line>
        <line x1="0.0" y1="277.8635281662087" x2="644.9652987797186" y2="277.8635281662087" stroke="rgb(233,233,233)" stroke-opacity="1.0" stroke-width="1.0">
        </line>
        <line x1="0.0" y1="240.48470422161165" x2="644.9652987797186" y2="240.48470422161165" stroke="rgb(233,233,233)" stroke-opacity="1.0" stroke-width="1.0">
        </line>
        <line x1="0.0" y1="203.10588027701456" x2="644.9652987797186" y2="203.10588027701456" stroke="rgb(233,233,233)" stroke-opacity="1.0" stroke-width="1.0">
        </line>
        <line x1="0.0" y1="165.72705633241748" x2="644.9652987797186" y2="165.72705633241748" stroke="rgb(233,233,233)" stroke-opacity="1.0" stroke-width="1.0">
        </line>
        <line x1="0.0" y1="128.34823238782042" x2="644.9652987797186" y2="128.34823238782042" stroke="rgb(233,233,233)" stroke-opacity="1.0" stroke-width="1.0">
        </line>
        <line x1="0.0" y1="90.9694084432233" x2="644.9652987797186" y2="90.9694084432233" stroke="rgb(233,233,233)" stroke-opacity="1.0" stroke-width="1.0">
        </line>
        <line x1="0.0" y1="53.59058449862624" x2="644.9652987797186" y2="53.59058449862624" stroke="rgb(233,233,233)" stroke-opacity="1.0" stroke-width="1.0">
        </line>
        <line x1="0.0" y1="16.211760554029183" x2="644.9652987797186" y2="16.211760554029183" stroke="rgb(233,233,233)" stroke-opacity="1.0" stroke-width="1.0">
        </line>
        <g transform="translate(0.0 390.0 ) ">
          <g transform="translate(-3.0 0.0 ) ">
            <text class="axis-text-y" text-anchor="end" dy="0.35em">
            0.0
            </text>
          </g>
        </g>
        <g transform="translate(0.0 352.6211760554029 ) ">
          <g transform="translate(-3.0 0.0 ) ">
            <text class="axis-text-y" text-anchor="end" dy="0.35em">
            0.1
            </text>
          </g>
        </g>
        <g transform="translate(0.0 315.2423521108058 ) ">
          <g transform="translate(-3.0 0.0 ) ">
            <text class="axis-text-y" text-anchor="end" dy="0.35em">
            0.2
            </text>
          </g>
        </g>
        <g transform="translate(0.0 277.8635281662087 ) ">
          <g transform="translate(-3.0 0.0 ) ">
            <text class="axis-text-y" text-anchor="end" dy="0.35em">
            0.3
            </text>
          </g>
        </g>
        <g transform="translate(0.0 240.48470422161165 ) ">
          <g transform="translate(-3.0 0.0 ) ">
            <text class="axis-text-y" text-anchor="end" dy="0.35em">
            0.4
            </text>
          </g>
        </g>
        <g transform="translate(0.0 203.10588027701456 ) ">
          <g transform="translate(-3.0 0.0 ) ">
            <text class="axis-text-y" text-anchor="end" dy="0.35em">
            0.5
            </text>
          </g>
        </g>
        <g transform="translate(0.0 165.72705633241748 ) ">
          <g transform="translate(-3.0 0.0 ) ">
            <text class="axis-text-y" text-anchor="end" dy="0.35em">
            0.6
            </text>
          </g>
        </g>
        <g transform="translate(0.0 128.34823238782042 ) ">
          <g transform="translate(-3.0 0.0 ) ">
            <text class="axis-text-y" text-anchor="end" dy="0.35em">
            0.7
            </text>
          </g>
        </g>
        <g transform="translate(0.0 90.9694084432233 ) ">
          <g transform="translate(-3.0 0.0 ) ">
            <text class="axis-text-y" text-anchor="end" dy="0.35em">
            0.8
            </text>
          </g>
        </g>
        <g transform="translate(0.0 53.59058449862624 ) ">
          <g transform="translate(-3.0 0.0 ) ">
            <text class="axis-text-y" text-anchor="end" dy="0.35em">
            0.9
            </text>
          </g>
        </g>
        <g transform="translate(0.0 16.211760554029183 ) ">
          <g transform="translate(-3.0 0.0 ) ">
            <text class="axis-text-y" text-anchor="end" dy="0.35em">
            1.0
            </text>
          </g>
        </g>
      </g>
      <g transform="translate(27.034701220281416 0.0 ) " clip-path="url(#xXxprefixXx1)" clip-bounds-jfx="[rect (0.0, 0.0), (644.9652987797186, 390.0)]">
        <defs>
          <clipPath id="xXxprefixXx1">
            <rect x="0.0" y="0.0" width="644.9652987797186" height="390.0">
            </rect>
          </clipPath>
        </defs>
        <g>
          <path d="M29.316604489987185 349.7131473424549 L29.316604489987185 349.7131473424549 L30.463938273368967 349.0566173724966 L31.611419985294333 348.4056489265284 L32.758901697219926 347.76057341233945 L33.90623548060171 347.1217110979612 L35.053717192527074 346.4893627568494 L36.201050975909084 345.86381523776254 L37.34853268783445 345.24533589488345 L38.496014399759815 344.63416701794034 L39.643348183141825 344.03054254184315 L40.79082989506719 343.4346657671684 L41.93816367844897 342.84672606979547 L43.08564539037434 342.26689054608875 L44.23312710229993 341.69530958277596 L45.380460885681714 341.13210014731214 L46.52794259760708 340.5773680673946 L47.67527638098909 340.0311968912056 L48.822758092914455 339.493642317533 L49.97009187629624 338.9647377656498 L51.11757358822183 338.4444999451924 L52.265055300147196 337.93291214652436 L53.41238908352898 337.42994652025163 L54.559870795454344 336.93554736758614 L55.707204578836354 336.449625570467 L56.85468629076172 335.9720864409544 L58.002168002687085 335.50279630195695 L59.149501786069095 335.04160476674684 L60.29698349799446 334.5883335992022 L61.44431728137624 334.14278228368596 L62.591798993301836 333.7047280250457 L63.7392807052272 333.2739201787352 L64.88661448860898 332.8500858206927 L66.03409620053435 332.4329297473414 L67.18142998391636 332.0221233358316 L68.32891169584173 331.61732125367723 L69.47624547922373 331.2181503189981 L70.6237271911491 330.82422064027764 L71.77120890307447 330.43510333684753 L72.91854268645625 330.05035838828206 L74.06602439838161 329.6695123548824 L75.21335818176362 329.29207508731344 L76.36083989368899 328.91752301696715 L77.50832160561436 328.54532143547806 L78.65565538899637 328.17489664532883 L79.80313710092173 327.80566380924455 L80.95047088430351 327.4370102405564 L82.0979525962291 327.0682954032013 L83.24543430815447 326.6988620514799 L84.39276809153625 326.32803623005645 L85.54024980346162 325.9551049944435 L86.68758358684363 325.5793554001535 L87.835065298769 325.2000410834261 L88.982399082151 324.8163934009858 L90.12988079407637 324.42763256979947 L91.27736250600174 324.03296209719747 L92.42469628938352 323.63156878087386 L93.57217800130911 323.22261156912845 L94.7195117846909 322.80524384038245 L95.86699349661626 322.3786134031781 L97.01447520854163 321.9418402166638 L98.16180899192364 321.49404423998783 L99.309290703849 321.03433429254073 L100.45662448723101 320.56180805395564 L101.60410619915638 320.07555763398676 L102.75158791108174 319.5746807122672 L103.89892169446352 319.0582638286723 L105.04640340638912 318.5253990929564 L106.1937371897709 317.9751786148736 L107.34121890169627 317.4067000740571 L108.48870061362163 316.81906672001867 L109.63603439700364 316.2113985119066 L110.783516108929 315.5828154088692 L111.93084989231102 314.9324652194488 L113.07833160423638 314.25950689194525 L114.22566538761816 313.56311608429496 L115.37314709954353 312.8425018737072 L116.52062881146912 312.0968900470276 L117.6679625948509 311.3255509501322 L118.81544430677627 310.52776049877593 L119.96277809015828 309.70285587738067 L121.11025980208365 308.8501965498834 L122.25774151400901 307.9691865392516 L123.40507529739102 307.0592855672409 L124.55255700931639 306.11998120500095 L125.69989079269817 305.1508222923482 L126.84737250462354 304.15140779800856 L127.99485421654913 303.12139795937463 L129.1421879999309 302.0605031427484 L130.28966971185628 300.96849498309876 L131.4370034952383 299.84521752381903 L132.58448520716365 298.6905705070907 L133.73181899054543 297.50452608351964 L134.87930070247103 296.2871232422576 L136.0267824143964 295.03847895075955 L137.17411619777818 293.7587881547838 L138.32159790970354 292.4482959289978 L139.46893169308555 291.10735874564546 L140.61641340501092 289.73637763600084 L141.76389511693628 288.3358650289143 L142.9112289003183 286.90638905202445 L144.05871061224366 285.44859581127287 L145.20604439562544 283.9632205306624 L146.3535261075508 282.451076412499 L147.5010078194764 280.9130657771496 L148.64834160285818 279.3501466437692 L149.79582331478355 277.7633661495739 L150.94315709816556 276.153849410083 L152.09063881009092 274.5227883793613 L153.2381205220163 272.87145298977725 L154.3854543053983 271.2011800122448 L155.53293601732366 269.5133730562237 L156.68026980070545 267.8095137094769 L157.8277515126308 266.0911058392827 L158.97508529601282 264.3597535707379 L160.1225670079382 262.6171055879698 L161.27004871986355 260.8648328546208 L162.41738250324556 259.10468431263683 L163.56486421517093 257.33844232323656 L164.7121979985527 255.5679003873962 L165.8596797104783 253.79492998439542 L167.00716142240367 252.02139145375617 L168.15449520578545 250.2491674145157 L169.30197691771082 248.48018504474172 L170.44931070109283 246.716338103229 L171.5967924130182 244.9595649078029 L172.74427412494356 243.21178149677345 L173.89160790832557 241.47489276869317 L175.03908962025093 239.75080362211446 L176.18642340363272 238.04138553631694 L177.3339051155583 236.34847657130734 L178.4812388989401 234.67391478709249 L179.62872061086546 233.01946026537576 L180.77620232279082 231.38685080834534 L181.92353610617283 229.77777965915905 L183.0710178180982 228.19385094291363 L184.2183516014802 226.63664650519067 L185.36583331340557 225.1076590735108 L186.51331502533094 223.60830339709136 L187.66064880871272 222.13992738660394 L188.80813052063831 220.70381211417447 L189.9554643040201 219.3011049748375 L191.10294601594546 217.93289766483943 L192.25042772787083 216.60017048285056 L193.39776151125284 215.3038257492378 L194.5452432231782 214.04464324703434 L195.6925770065602 212.8232802219396 L196.84005871848558 211.64032708110722 L197.98754043041095 210.49622941484188 L199.13487421379273 209.39132141587208 L200.2823559257181 208.3258481588654 L201.4296897091001 207.299921041398 L202.57717142102547 206.31351778395464 L203.72450520440748 205.36652698895915 L204.87198691633284 204.4587147215016 L206.0194686282582 203.5897133695806 L207.16680241164 202.75905506337628 L208.31428412356559 201.96614939573496 L209.46161790694737 201.2102945619268 L210.60909961887273 200.4906662198881 L211.7565813307981 199.8063954685248 L212.9039151141801 199.1563906115905 L214.05139682610547 198.53955995283872 L215.19873060948748 197.9546781189316 L216.34621232141285 197.40038605943994 L217.49369403333822 196.87530244441928 L218.64102781672 196.3779122668337 L219.7885095286456 195.90661140158647 L220.93584331202737 195.45975116455025 L222.08332502395274 195.0356160330521 L223.23065880733475 194.63235680732762 L224.3781405192601 194.24812428761248 L225.52562223118548 193.88102471511183 L226.6729560145675 193.5290306539394 L227.82043772649286 193.19015922723946 L228.96777150987464 192.86231616058004 L230.1152532218 192.54345173855967 L231.2627349337256 192.23142712771596 L232.41006871710738 191.92408121507128 L233.55755042903274 191.61927516716318 L234.70488421241475 191.31484787101405 L235.85236592434012 191.00861593413103 L236.99984763626549 190.69841824353648 L238.1471814196475 190.38209368625272 L239.29466313157286 190.05748114930213 L240.44199691495464 189.72246407873757 L241.58947862688 189.37492592061184 L242.7369603388056 189.01281695952346 L243.88429412218738 188.6340652005557 L245.03177583411275 188.23668776685287 L246.17910961749476 187.81872406107436 L247.32659132942013 187.37825804491013 L248.4739251128019 186.91339595956532 L249.6214068247275 186.42237772333652 L250.76888853665287 185.90344325452028 L251.91622232003465 185.35492158947406 L253.06370403196001 184.77516404407064 L254.21103781534202 184.16263333175888 L255.3585195272674 183.5158590045334 L256.50600123919276 182.8334374529345 L257.65333502257477 182.11400962653292 L258.80081673450013 181.35637243150606 L259.9481505178819 180.55932277403133 L261.0956322298073 179.72176895786228 L262.2431139417329 178.84270840481344 L263.39044772511465 177.92120537524494 L264.53792943704 176.95643552709322 L265.68526322042203 175.94761907732504 L266.8327449323474 174.8941099199987 L267.9800787157294 173.79530650820286 L269.12756042765477 172.65071869260237 L270.27504213958014 171.4599008828926 L271.4223759229619 170.2225634453755 L272.5698576348873 168.9384390258683 L273.7171914182693 167.60734938824905 L274.86467313019466 166.2292722530026 L276.01215484212 164.80416306109842 L277.15948862550204 163.33213321011274 L278.3069703374274 161.81336093616738 L279.4543041208092 160.24811359344517 L280.6017858327348 158.63670309515936 L281.74926754466014 156.97955275209938 L282.8966013280419 155.27715271360037 L284.0440830399673 153.53010452657364 L285.1914168233493 151.73903201744574 L286.33889853527467 149.9046481307041 L287.4862323186567 148.02777720841237 L288.63371403058204 146.1093104311799 L289.7811957425074 144.150138979616 L290.9285295258892 142.15135454996712 L292.0760112378148 140.11398199993403 L293.22334502119656 138.03920214382404 L294.37082673312193 135.92826263449027 L295.5183084450473 133.782433404301 L296.6656422284293 131.60309578320067 L297.81312394035467 129.3916756601643 L298.9604577237367 127.14964348319722 L300.10793943566205 124.87855881836578 L301.2554211475874 122.58007034979727 L302.4027549309692 120.25582676161895 L303.5502366428948 117.90756585601906 L304.69757042627657 115.53711455324668 L305.84505213820194 113.146299773551 L306.9925338501273 110.73703755524201 L308.1398676335093 108.31128849566039 L309.2873493454347 105.87110231020745 L310.4346831288167 103.41850643476954 L311.58216484074205 100.95566198232427 L312.72949862412383 98.4847300658493 L313.8769803360492 96.00793863686795 L315.0244620479748 93.52753792641874 L316.1717958313566 91.04584500408606 L317.31927754328194 88.5652214984845 L318.46661132666395 86.0880513177442 L319.6140930385893 83.61676292902547 L320.7615747505147 81.15382935851926 L321.9089085338967 78.70176819144694 L323.05639024582206 76.26307473351471 L324.20372402920384 73.84031112897429 L325.3512057411292 71.43610636062334 L326.4986874530546 69.05300029319841 L327.6460212364366 66.69366646852745 L328.79350294836195 64.36073386940814 L329.94083673174396 62.05685375815318 L331.0883184436693 59.78467739707531 L332.2356522270511 57.54687832800255 L333.38313393897647 55.34610781324773 L334.53061565090206 53.18506167415404 L335.67794943428385 51.066391173034276 L336.8254311462092 48.99270301317074 L337.9727649295912 46.96667073639139 L339.1202466415166 44.99090104597866 L340.26772835344195 43.06795608618427 L341.41506213682396 41.20039800126011 L342.5625438487493 39.39076665594274 L343.7098776321311 37.64151279690793 L344.8573593440565 35.95510945034653 L346.00484105598207 34.333918244873246 L347.15217483936385 32.78027852958763 L348.2996565512892 31.29646281504347 L349.4469903346712 29.88469905276412 L350.5944720465966 28.547103796696717 L351.74195375852196 27.285749041758038 L352.88928754190397 26.10263994431898 L354.03676925382933 24.999670263174494 L355.1841030372111 23.978644639058473 L356.3315847491365 23.041278594643813 L357.4789185325185 22.18922081405782 L358.62640024444386 21.42394174530591 L359.7738819563692 20.74691183639345 L360.92121573975123 20.15935646065833 L362.0686974516766 19.662523270953614 L363.2160312350584 19.257437124980015 L364.363512946984 18.945033762377363 L365.51099465890934 18.726137525209253 L366.6583284422911 18.60141679893269 L367.8058101542165 18.571428571428555 L368.9531439375985 18.636573873970974 L370.10062564952386 18.797142340258063 L371.24810736144923 19.05324536786594 L372.39544114483124 19.404905236309844 L373.5429228567566 19.85192142995271 L374.6902566401384 20.394026594611717 L375.837738352064 21.03079741949739 L376.98507213544576 21.761610078183253 L378.1325538473711 22.58572934666654 L379.2800355592965 23.502308603368476 L380.4273693426785 24.510322990588236 L381.57485105460387 25.608569414503222 L382.7221848379859 26.795800222260425 L383.86966654991124 28.07052268633913 L385.0171482618366 29.431177240673094 L386.1644820452184 30.876026083074066 L387.31196375714376 32.40324229329286 L388.45929754052577 34.010865273989 L389.60677925245113 35.69675619170005 L390.7542609643765 37.45873165393317 L391.9015947477585 39.294430032073535 L393.0490764596839 41.20144513847606 L394.19641024306566 43.17721482888885 L395.34389195499125 45.219087840999066 L396.4913736669166 47.3243237944331 L397.6387074502984 49.49009319075628 L398.78618916222376 51.713521972503486 L399.9335229456058 53.991602405118215 L401.08100465753114 56.32130447452869 L402.22833844091315 58.69953132811753 L403.3758201528385 61.12309699520631 L404.5233018647639 63.58883778463189 L405.67063564814566 66.09350088717025 L406.81811736007126 68.63381121408207 L407.96545114345304 71.20649367662793 L409.1129328553784 73.80825090655344 L410.26041456730377 76.43576325608876 L411.4077483506858 79.08575563649453 L412.55523006261114 81.75488612048582 L413.70256384599315 84.43990189883851 L414.8500455579185 87.13757244184376 L415.9975272698439 89.84466721979271 L417.14486105322567 92.55800026200706 L418.29234276515126 95.27445243635407 L419.43967654853304 97.99092689021631 L420.5871582604584 100.70446044806778 L421.7344920438404 103.41206765486709 L422.8819737557658 106.11089673266451 L424.02945546769115 108.79816274205575 L425.17678925107316 111.47114758218243 L426.3242709629985 114.1272668292774 L427.4716047463803 116.76398061860408 L428.6190864583057 119.3789050420325 L429.76656817023127 121.96970075046318 L430.91390195361305 124.53418435140321 L432.0613836655384 127.07028384993583 L433.2087174489204 129.57601636920543 L434.3561991608458 132.04953270944748 L435.50368087277116 134.48909506847383 L436.65101465615317 136.89309932118772 L437.79849636807853 139.26005274006843 L438.9458301514603 141.58861855420201 L440.0933118633857 143.87752683122017 L441.2407935753113 146.12568587487644 L442.38812735869305 148.33209310698533 L443.5356090706184 150.49585734693747 L444.68294285400043 152.61624337073022 L445.8304245659258 154.692627351937 L446.9777583493076 156.72449686170745 L448.12524006123317 158.71142858925217 L449.27272177315854 160.6531551803883 L450.4200555565403 162.54947611947878 L451.5675372684657 164.40030228846265 L452.7148710518477 166.2056782463704 L453.86235276377306 167.96571539077823 L455.0098344756984 169.68059195780793 L456.15716825908044 171.3506198606728 L457.3046499710058 172.97617785113184 L458.4519837543876 174.55771151948966 L459.59946546631295 176.09573329459667 L460.74694717823854 177.59084472336414 L461.8942809616203 179.04366963221867 L463.0417626735457 180.45494324516287 L464.1890964569277 181.8254007861995 L465.33657816885307 183.15584431787698 L466.48391195223485 184.44712046177412 L467.63139366416044 185.70009811898507 L468.7788753760858 186.91569074963436 L469.9262091594676 188.0948118138466 L471.07369087139296 189.2383970512616 L472.22102465477496 190.3474490400648 L473.36850636670033 191.42290351989604 L474.5159880786257 192.46576306894082 L475.6633218620077 193.47698570635418 L476.8108035739331 194.45757401032162 L477.95813735731485 195.40850827951343 L479.10561906924045 196.33072425356937 L480.2531007811658 197.22520223115976 L481.4004345645476 198.0929002314396 L482.54791627647296 198.93473171453346 L483.69525005985497 199.75158786105067 L484.84273177178034 200.54440441063105 L485.99006555516235 201.31400570533825 L487.1375472670877 202.06128292578157 L488.2850289790131 202.78703813450943 L489.43236276239486 203.49208453382786 L490.57984447432045 204.17720190677002 L491.72717825770223 204.84314775685382 L492.8746599696276 205.49066844783962 L494.02214168155297 206.12047692421487 L495.169475464935 206.7332638509518 L496.31695717686034 207.32970875326504 L497.46429096024235 207.91046887685397 L498.6117726721677 208.47619032766036 L499.7592543840931 209.02749693211072 L500.90658816747487 209.56500137687402 L502.05406987940046 210.08931634861915 L503.20140366278224 210.60102111474217 L504.3488853747076 211.10071722215437 L505.496367086633 211.58897279849424 L506.643700870015 212.06640053043068 L507.79118258194035 212.53354626608692 L508.93851636532236 212.99102269213185 L510.0859980772477 213.43940907596155 L511.2333318606295 213.87930696448734 L512.3808135725549 214.3113290443781 L513.5282952844802 214.7360768625452 L514.6756290678622 215.1541965249303 L515.8231107797876 215.56632299771766 L516.9704445631696 215.97313580612186 L518.117926275095 216.37530333559988 L519.2654079870204 216.77353853063923 L520.4127417704021 217.16856547548494 L521.5602234823277 217.56111939413975 L522.7075572657095 217.95196892987923 L523.8550389776349 218.34191614525173 L525.0025206895602 218.7317631028057 L526.1498544729423 219.12235642411997 L527.2973361848676 219.51455387053105 L528.4446699682496 219.90924662264828 L529.592151680175 220.30732586108095 L530.7394854635568 220.70972732546895 L531.8869671754821 221.11740903496724 L533.0344488874077 221.5313290087309 L534.1817826707895 221.95247868518777 L535.3292643827149 222.38186064252338 L536.4765981660969 222.82047745892325 L537.6240798780223 223.2693762716033 L538.7715615899476 223.72958193826435 L539.9188953733296 224.2021415961223 L541.066377085255 224.6881023823931 L542.2137108686368 225.1885114342928 L543.3611925805621 225.70442702879492 L544.5086742924877 226.23688516335784 L545.6560080758695 226.78693297519754 L546.8034897877949 227.35559532201472 L547.9508235711769 227.94388592175255 L549.0983052831023 228.55278507308125 L550.2457869950276 229.18329535418636 L551.3931207784096 229.83635250470763 L552.540602490335 230.51288112452733 L553.6879362737168 231.21378353401235 L554.8354179856422 231.93991749449918 L555.9827517690242 232.69211848780907 L557.1302334809495 233.47116629697524 L558.2777151928749 234.27779614600033 L559.4250489762569 235.11272097937183 L560.5725306881823 235.9765757632739 L561.719864471564 236.86996204461784 L562.8673461834896 237.79343681128447 L564.014827895415 238.7474679330937 L565.1621616787968 239.73251214010784 L566.3096433907222 240.7489259045706 L567.4569771741042 241.79703227945285 L568.6044588860295 242.87705405990692 L569.7519405979549 243.9892029013276 L570.8992743813369 245.13356792177572 L572.0467560932623 246.31022709955465 L573.1940898766441 247.51913587563396 L574.3415715885696 248.76022741146787 L575.4889053719514 250.0333457504498 L576.6363870838768 251.3382680974274 L577.7838687958022 252.67470481870265 L578.9312025791842 254.04231058178942 L580.0786842911095 255.44062865662542 L581.2260180744915 256.8692023131484 L582.3734997864169 258.3274634237198 L583.5209814983423 259.81479930167086 L584.6683152817241 261.3305081422716 L585.8157969936494 262.87387700103466 L586.9631307770314 264.4440815358963 L588.1106124889568 266.0402639855201 L589.2580942008822 267.66152202953907 L590.4054279842642 269.30688650904057 L591.5529096961895 270.97533256632386 L592.7002434795713 272.665813064173 L593.8477251914969 274.3771917473111 L594.9952069034223 276.1083435002188 L596.1425406868041 277.85806522907353 L597.2900223987294 279.62513156053745 L598.4373561821114 281.4082837019999 L599.5848378940368 283.2062294415773 L600.7321716774188 285.0176654276286 L601.8796533893442 286.841243749482 L603.0271351012696 288.6755942169508 L604.1744688846513 290.5193466398481 L605.3219505965769 292.371130827987 L606.4692843799587 294.2295208923926 L607.6167660918841 296.0931132236052 L608.7642478038094 297.9605042121651 L609.9115815871914 299.83028467873385 L611.0590632991168 301.701039874094 L612.2063970824988 303.5713717586647 L613.3538787944242 305.4398767229863 L614.5013605063496 307.3051845768719 L615.6486942897313 309.165913990377 L615.6486942897313 390.0 L614.5013605063496 390.0 L613.3538787944242 390.0 L612.2063970824988 390.0 L611.0590632991168 390.0 L609.9115815871914 390.0 L608.7642478038094 390.0 L607.6167660918841 390.0 L606.4692843799587 390.0 L605.3219505965769 390.0 L604.1744688846513 390.0 L603.0271351012696 390.0 L601.8796533893442 390.0 L600.7321716774188 390.0 L599.5848378940368 390.0 L598.4373561821114 390.0 L597.2900223987294 390.0 L596.1425406868041 390.0 L594.9952069034223 390.0 L593.8477251914969 390.0 L592.7002434795713 390.0 L591.5529096961895 390.0 L590.4054279842642 390.0 L589.2580942008822 390.0 L588.1106124889568 390.0 L586.9631307770314 390.0 L585.8157969936494 390.0 L584.6683152817241 390.0 L583.5209814983423 390.0 L582.3734997864169 390.0 L581.2260180744915 390.0 L580.0786842911095 390.0 L578.9312025791842 390.0 L577.7838687958022 390.0 L576.6363870838768 390.0 L575.4889053719514 390.0 L574.3415715885696 390.0 L573.1940898766441 390.0 L572.0467560932623 390.0 L570.8992743813369 390.0 L569.7519405979549 390.0 L568.6044588860295 390.0 L567.4569771741042 390.0 L566.3096433907222 390.0 L565.1621616787968 390.0 L564.014827895415 390.0 L562.8673461834896 390.0 L561.719864471564 390.0 L560.5725306881823 390.0 L559.4250489762569 390.0 L558.2777151928749 390.0 L557.1302334809495 390.0 L555.9827517690242 390.0 L554.8354179856422 390.0 L553.6879362737168 390.0 L552.540602490335 390.0 L551.3931207784096 390.0 L550.2457869950276 390.0 L549.0983052831023 390.0 L547.9508235711769 390.0 L546.8034897877949 390.0 L545.6560080758695 390.0 L544.5086742924877 390.0 L543.3611925805621 390.0 L542.2137108686368 390.0 L541.066377085255 390.0 L539.9188953733296 390.0 L538.7715615899476 390.0 L537.6240798780223 390.0 L536.4765981660969 390.0 L535.3292643827149 390.0 L534.1817826707895 390.0 L533.0344488874077 390.0 L531.8869671754821 390.0 L530.7394854635568 390.0 L529.592151680175 390.0 L528.4446699682496 390.0 L527.2973361848676 390.0 L526.1498544729423 390.0 L525.0025206895602 390.0 L523.8550389776349 390.0 L522.7075572657095 390.0 L521.5602234823277 390.0 L520.4127417704021 390.0 L519.2654079870204 390.0 L518.117926275095 390.0 L516.9704445631696 390.0 L515.8231107797876 390.0 L514.6756290678622 390.0 L513.5282952844802 390.0 L512.3808135725549 390.0 L511.2333318606295 390.0 L510.0859980772477 390.0 L508.93851636532236 390.0 L507.79118258194035 390.0 L506.643700870015 390.0 L505.496367086633 390.0 L504.3488853747076 390.0 L503.20140366278224 390.0 L502.05406987940046 390.0 L500.90658816747487 390.0 L499.7592543840931 390.0 L498.6117726721677 390.0 L497.46429096024235 390.0 L496.31695717686034 390.0 L495.169475464935 390.0 L494.02214168155297 390.0 L492.8746599696276 390.0 L491.72717825770223 390.0 L490.57984447432045 390.0 L489.43236276239486 390.0 L488.2850289790131 390.0 L487.1375472670877 390.0 L485.99006555516235 390.0 L484.84273177178034 390.0 L483.69525005985497 390.0 L482.54791627647296 390.0 L481.4004345645476 390.0 L480.2531007811658 390.0 L479.10561906924045 390.0 L477.95813735731485 390.0 L476.8108035739331 390.0 L475.6633218620077 390.0 L474.5159880786257 390.0 L473.36850636670033 390.0 L472.22102465477496 390.0 L471.07369087139296 390.0 L469.9262091594676 390.0 L468.7788753760858 390.0 L467.63139366416044 390.0 L466.48391195223485 390.0 L465.33657816885307 390.0 L464.1890964569277 390.0 L463.0417626735457 390.0 L461.8942809616203 390.0 L460.74694717823854 390.0 L459.59946546631295 390.0 L458.4519837543876 390.0 L457.3046499710058 390.0 L456.15716825908044 390.0 L455.0098344756984 390.0 L453.86235276377306 390.0 L452.7148710518477 390.0 L451.5675372684657 390.0 L450.4200555565403 390.0 L449.27272177315854 390.0 L448.12524006123317 390.0 L446.9777583493076 390.0 L445.8304245659258 390.0 L444.68294285400043 390.0 L443.5356090706184 390.0 L442.38812735869305 390.0 L441.2407935753113 390.0 L440.0933118633857 390.0 L438.9458301514603 390.0 L437.79849636807853 390.0 L436.65101465615317 390.0 L435.50368087277116 390.0 L434.3561991608458 390.0 L433.2087174489204 390.0 L432.0613836655384 390.0 L430.91390195361305 390.0 L429.76656817023127 390.0 L428.6190864583057 390.0 L427.4716047463803 390.0 L426.3242709629985 390.0 L425.17678925107316 390.0 L424.02945546769115 390.0 L422.8819737557658 390.0 L421.7344920438404 390.0 L420.5871582604584 390.0 L419.43967654853304 390.0 L418.29234276515126 390.0 L417.14486105322567 390.0 L415.9975272698439 390.0 L414.8500455579185 390.0 L413.70256384599315 390.0 L412.55523006261114 390.0 L411.4077483506858 390.0 L410.26041456730377 390.0 L409.1129328553784 390.0 L407.96545114345304 390.0 L406.81811736007126 390.0 L405.67063564814566 390.0 L404.5233018647639 390.0 L403.3758201528385 390.0 L402.22833844091315 390.0 L401.08100465753114 390.0 L399.9335229456058 390.0 L398.78618916222376 390.0 L397.6387074502984 390.0 L396.4913736669166 390.0 L395.34389195499125 390.0 L394.19641024306566 390.0 L393.0490764596839 390.0 L391.9015947477585 390.0 L390.7542609643765 390.0 L389.60677925245113 390.0 L388.45929754052577 390.0 L387.31196375714376 390.0 L386.1644820452184 390.0 L385.0171482618366 390.0 L383.86966654991124 390.0 L382.7221848379859 390.0 L381.57485105460387 390.0 L380.4273693426785 390.0 L379.2800355592965 390.0 L378.1325538473711 390.0 L376.98507213544576 390.0 L375.837738352064 390.0 L374.6902566401384 390.0 L373.5429228567566 390.0 L372.39544114483124 390.0 L371.24810736144923 390.0 L370.10062564952386 390.0 L368.9531439375985 390.0 L367.8058101542165 390.0 L366.6583284422911 390.0 L365.51099465890934 390.0 L364.363512946984 390.0 L363.2160312350584 390.0 L362.0686974516766 390.0 L360.92121573975123 390.0 L359.7738819563692 390.0 L358.62640024444386 390.0 L357.4789185325185 390.0 L356.3315847491365 390.0 L355.1841030372111 390.0 L354.03676925382933 390.0 L352.88928754190397 390.0 L351.74195375852196 390.0 L350.5944720465966 390.0 L349.4469903346712 390.0 L348.2996565512892 390.0 L347.15217483936385 390.0 L346.00484105598207 390.0 L344.8573593440565 390.0 L343.7098776321311 390.0 L342.5625438487493 390.0 L341.41506213682396 390.0 L340.26772835344195 390.0 L339.1202466415166 390.0 L337.9727649295912 390.0 L336.8254311462092 390.0 L335.67794943428385 390.0 L334.53061565090206 390.0 L333.38313393897647 390.0 L332.2356522270511 390.0 L331.0883184436693 390.0 L329.94083673174396 390.0 L328.79350294836195 390.0 L327.6460212364366 390.0 L326.4986874530546 390.0 L325.3512057411292 390.0 L324.20372402920384 390.0 L323.05639024582206 390.0 L321.9089085338967 390.0 L320.7615747505147 390.0 L319.6140930385893 390.0 L318.46661132666395 390.0 L317.31927754328194 390.0 L316.1717958313566 390.0 L315.0244620479748 390.0 L313.8769803360492 390.0 L312.72949862412383 390.0 L311.58216484074205 390.0 L310.4346831288167 390.0 L309.2873493454347 390.0 L308.1398676335093 390.0 L306.9925338501273 390.0 L305.84505213820194 390.0 L304.69757042627657 390.0 L303.5502366428948 390.0 L302.4027549309692 390.0 L301.2554211475874 390.0 L300.10793943566205 390.0 L298.9604577237367 390.0 L297.81312394035467 390.0 L296.6656422284293 390.0 L295.5183084450473 390.0 L294.37082673312193 390.0 L293.22334502119656 390.0 L292.0760112378148 390.0 L290.9285295258892 390.0 L289.7811957425074 390.0 L288.63371403058204 390.0 L287.4862323186567 390.0 L286.33889853527467 390.0 L285.1914168233493 390.0 L284.0440830399673 390.0 L282.8966013280419 390.0 L281.74926754466014 390.0 L280.6017858327348 390.0 L279.4543041208092 390.0 L278.3069703374274 390.0 L277.15948862550204 390.0 L276.01215484212 390.0 L274.86467313019466 390.0 L273.7171914182693 390.0 L272.5698576348873 390.0 L271.4223759229619 390.0 L270.27504213958014 390.0 L269.12756042765477 390.0 L267.9800787157294 390.0 L266.8327449323474 390.0 L265.68526322042203 390.0 L264.53792943704 390.0 L263.39044772511465 390.0 L262.2431139417329 390.0 L261.0956322298073 390.0 L259.9481505178819 390.0 L258.80081673450013 390.0 L257.65333502257477 390.0 L256.50600123919276 390.0 L255.3585195272674 390.0 L254.21103781534202 390.0 L253.06370403196001 390.0 L251.91622232003465 390.0 L250.76888853665287 390.0 L249.6214068247275 390.0 L248.4739251128019 390.0 L247.32659132942013 390.0 L246.17910961749476 390.0 L245.03177583411275 390.0 L243.88429412218738 390.0 L242.7369603388056 390.0 L241.58947862688 390.0 L240.44199691495464 390.0 L239.29466313157286 390.0 L238.1471814196475 390.0 L236.99984763626549 390.0 L235.85236592434012 390.0 L234.70488421241475 390.0 L233.55755042903274 390.0 L232.41006871710738 390.0 L231.2627349337256 390.0 L230.1152532218 390.0 L228.96777150987464 390.0 L227.82043772649286 390.0 L226.6729560145675 390.0 L225.52562223118548 390.0 L224.3781405192601 390.0 L223.23065880733475 390.0 L222.08332502395274 390.0 L220.93584331202737 390.0 L219.7885095286456 390.0 L218.64102781672 390.0 L217.49369403333822 390.0 L216.34621232141285 390.0 L215.19873060948748 390.0 L214.05139682610547 390.0 L212.9039151141801 390.0 L211.7565813307981 390.0 L210.60909961887273 390.0 L209.46161790694737 390.0 L208.31428412356559 390.0 L207.16680241164 390.0 L206.0194686282582 390.0 L204.87198691633284 390.0 L203.72450520440748 390.0 L202.57717142102547 390.0 L201.4296897091001 390.0 L200.2823559257181 390.0 L199.13487421379273 390.0 L197.98754043041095 390.0 L196.84005871848558 390.0 L195.6925770065602 390.0 L194.5452432231782 390.0 L193.39776151125284 390.0 L192.25042772787083 390.0 L191.10294601594546 390.0 L189.9554643040201 390.0 L188.80813052063831 390.0 L187.66064880871272 390.0 L186.51331502533094 390.0 L185.36583331340557 390.0 L184.2183516014802 390.0 L183.0710178180982 390.0 L181.92353610617283 390.0 L180.77620232279082 390.0 L179.62872061086546 390.0 L178.4812388989401 390.0 L177.3339051155583 390.0 L176.18642340363272 390.0 L175.03908962025093 390.0 L173.89160790832557 390.0 L172.74427412494356 390.0 L171.5967924130182 390.0 L170.44931070109283 390.0 L169.30197691771082 390.0 L168.15449520578545 390.0 L167.00716142240367 390.0 L165.8596797104783 390.0 L164.7121979985527 390.0 L163.56486421517093 390.0 L162.41738250324556 390.0 L161.27004871986355 390.0 L160.1225670079382 390.0 L158.97508529601282 390.0 L157.8277515126308 390.0 L156.68026980070545 390.0 L155.53293601732366 390.0 L154.3854543053983 390.0 L153.2381205220163 390.0 L152.09063881009092 390.0 L150.94315709816556 390.0 L149.79582331478355 390.0 L148.64834160285818 390.0 L147.5010078194764 390.0 L146.3535261075508 390.0 L145.20604439562544 390.0 L144.05871061224366 390.0 L142.9112289003183 390.0 L141.76389511693628 390.0 L140.61641340501092 390.0 L139.46893169308555 390.0 L138.32159790970354 390.0 L137.17411619777818 390.0 L136.0267824143964 390.0 L134.87930070247103 390.0 L133.73181899054543 390.0 L132.58448520716365 390.0 L131.4370034952383 390.0 L130.28966971185628 390.0 L129.1421879999309 390.0 L127.99485421654913 390.0 L126.84737250462354 390.0 L125.69989079269817 390.0 L124.55255700931639 390.0 L123.40507529739102 390.0 L122.25774151400901 390.0 L121.11025980208365 390.0 L119.96277809015828 390.0 L118.81544430677627 390.0 L117.6679625948509 390.0 L116.52062881146912 390.0 L115.37314709954353 390.0 L114.22566538761816 390.0 L113.07833160423638 390.0 L111.93084989231102 390.0 L110.783516108929 390.0 L109.63603439700364 390.0 L108.48870061362163 390.0 L107.34121890169627 390.0 L106.1937371897709 390.0 L105.04640340638912 390.0 L103.89892169446352 390.0 L102.75158791108174 390.0 L101.60410619915638 390.0 L100.45662448723101 390.0 L99.309290703849 390.0 L98.16180899192364 390.0 L97.01447520854163 390.0 L95.86699349661626 390.0 L94.7195117846909 390.0 L93.57217800130911 390.0 L92.42469628938352 390.0 L91.27736250600174 390.0 L90.12988079407637 390.0 L88.982399082151 390.0 L87.835065298769 390.0 L86.68758358684363 390.0 L85.54024980346162 390.0 L84.39276809153625 390.0 L83.24543430815447 390.0 L82.0979525962291 390.0 L80.95047088430351 390.0 L79.80313710092173 390.0 L78.65565538899637 390.0 L77.50832160561436 390.0 L76.36083989368899 390.0 L75.21335818176362 390.0 L74.06602439838161 390.0 L72.91854268645625 390.0 L71.77120890307447 390.0 L70.6237271911491 390.0 L69.47624547922373 390.0 L68.32891169584173 390.0 L67.18142998391636 390.0 L66.03409620053435 390.0 L64.88661448860898 390.0 L63.7392807052272 390.0 L62.591798993301836 390.0 L61.44431728137624 390.0 L60.29698349799446 390.0 L59.149501786069095 390.0 L58.002168002687085 390.0 L56.85468629076172 390.0 L55.707204578836354 390.0 L54.559870795454344 390.0 L53.41238908352898 390.0 L52.265055300147196 390.0 L51.11757358822183 390.0 L49.97009187629624 390.0 L48.822758092914455 390.0 L47.67527638098909 390.0 L46.52794259760708 390.0 L45.380460885681714 390.0 L44.23312710229993 390.0 L43.08564539037434 390.0 L41.93816367844897 390.0 L40.79082989506719 390.0 L39.643348183141825 390.0 L38.496014399759815 390.0 L37.34853268783445 390.0 L36.201050975909084 390.0 L35.053717192527074 390.0 L33.90623548060171 390.0 L32.758901697219926 390.0 L31.611419985294333 390.0 L30.463938273368967 390.0 L29.316604489987185 390.0 Z" fill="rgb(238,102,102)" stroke-width="1.0" fill-opacity="0.5019607843137255">
          </path>
        </g>
        <g>
          <path d="M29.316604489987185 349.7131473424549 L29.316604489987185 349.7131473424549 L30.463938273368967 349.0566173724966 L31.611419985294333 348.4056489265284 L32.758901697219926 347.76057341233945 L33.90623548060171 347.1217110979612 L35.053717192527074 346.4893627568494 L36.201050975909084 345.86381523776254 L37.34853268783445 345.24533589488345 L38.496014399759815 344.63416701794034 L39.643348183141825 344.03054254184315 L40.79082989506719 343.4346657671684 L41.93816367844897 342.84672606979547 L43.08564539037434 342.26689054608875 L44.23312710229993 341.69530958277596 L45.380460885681714 341.13210014731214 L46.52794259760708 340.5773680673946 L47.67527638098909 340.0311968912056 L48.822758092914455 339.493642317533 L49.97009187629624 338.9647377656498 L51.11757358822183 338.4444999451924 L52.265055300147196 337.93291214652436 L53.41238908352898 337.42994652025163 L54.559870795454344 336.93554736758614 L55.707204578836354 336.449625570467 L56.85468629076172 335.9720864409544 L58.002168002687085 335.50279630195695 L59.149501786069095 335.04160476674684 L60.29698349799446 334.5883335992022 L61.44431728137624 334.14278228368596 L62.591798993301836 333.7047280250457 L63.7392807052272 333.2739201787352 L64.88661448860898 332.8500858206927 L66.03409620053435 332.4329297473414 L67.18142998391636 332.0221233358316 L68.32891169584173 331.61732125367723 L69.47624547922373 331.2181503189981 L70.6237271911491 330.82422064027764 L71.77120890307447 330.43510333684753 L72.91854268645625 330.05035838828206 L74.06602439838161 329.6695123548824 L75.21335818176362 329.29207508731344 L76.36083989368899 328.91752301696715 L77.50832160561436 328.54532143547806 L78.65565538899637 328.17489664532883 L79.80313710092173 327.80566380924455 L80.95047088430351 327.4370102405564 L82.0979525962291 327.0682954032013 L83.24543430815447 326.6988620514799 L84.39276809153625 326.32803623005645 L85.54024980346162 325.9551049944435 L86.68758358684363 325.5793554001535 L87.835065298769 325.2000410834261 L88.982399082151 324.8163934009858 L90.12988079407637 324.42763256979947 L91.27736250600174 324.03296209719747 L92.42469628938352 323.63156878087386 L93.57217800130911 323.22261156912845 L94.7195117846909 322.80524384038245 L95.86699349661626 322.3786134031781 L97.01447520854163 321.9418402166638 L98.16180899192364 321.49404423998783 L99.309290703849 321.03433429254073 L100.45662448723101 320.56180805395564 L101.60410619915638 320.07555763398676 L102.75158791108174 319.5746807122672 L103.89892169446352 319.0582638286723 L105.04640340638912 318.5253990929564 L106.1937371897709 317.9751786148736 L107.34121890169627 317.4067000740571 L108.48870061362163 316.81906672001867 L109.63603439700364 316.2113985119066 L110.783516108929 315.5828154088692 L111.93084989231102 314.9324652194488 L113.07833160423638 314.25950689194525 L114.22566538761816 313.56311608429496 L115.37314709954353 312.8425018737072 L116.52062881146912 312.0968900470276 L117.6679625948509 311.3255509501322 L118.81544430677627 310.52776049877593 L119.96277809015828 309.70285587738067 L121.11025980208365 308.8501965498834 L122.25774151400901 307.9691865392516 L123.40507529739102 307.0592855672409 L124.55255700931639 306.11998120500095 L125.69989079269817 305.1508222923482 L126.84737250462354 304.15140779800856 L127.99485421654913 303.12139795937463 L129.1421879999309 302.0605031427484 L130.28966971185628 300.96849498309876 L131.4370034952383 299.84521752381903 L132.58448520716365 298.6905705070907 L133.73181899054543 297.50452608351964 L134.87930070247103 296.2871232422576 L136.0267824143964 295.03847895075955 L137.17411619777818 293.7587881547838 L138.32159790970354 292.4482959289978 L139.46893169308555 291.10735874564546 L140.61641340501092 289.73637763600084 L141.76389511693628 288.3358650289143 L142.9112289003183 286.90638905202445 L144.05871061224366 285.44859581127287 L145.20604439562544 283.9632205306624 L146.3535261075508 282.451076412499 L147.5010078194764 280.9130657771496 L148.64834160285818 279.3501466437692 L149.79582331478355 277.7633661495739 L150.94315709816556 276.153849410083 L152.09063881009092 274.5227883793613 L153.2381205220163 272.87145298977725 L154.3854543053983 271.2011800122448 L155.53293601732366 269.5133730562237 L156.68026980070545 267.8095137094769 L157.8277515126308 266.0911058392827 L158.97508529601282 264.3597535707379 L160.1225670079382 262.6171055879698 L161.27004871986355 260.8648328546208 L162.41738250324556 259.10468431263683 L163.56486421517093 257.33844232323656 L164.7121979985527 255.5679003873962 L165.8596797104783 253.79492998439542 L167.00716142240367 252.02139145375617 L168.15449520578545 250.2491674145157 L169.30197691771082 248.48018504474172 L170.44931070109283 246.716338103229 L171.5967924130182 244.9595649078029 L172.74427412494356 243.21178149677345 L173.89160790832557 241.47489276869317 L175.03908962025093 239.75080362211446 L176.18642340363272 238.04138553631694 L177.3339051155583 236.34847657130734 L178.4812388989401 234.67391478709249 L179.62872061086546 233.01946026537576 L180.77620232279082 231.38685080834534 L181.92353610617283 229.77777965915905 L183.0710178180982 228.19385094291363 L184.2183516014802 226.63664650519067 L185.36583331340557 225.1076590735108 L186.51331502533094 223.60830339709136 L187.66064880871272 222.13992738660394 L188.80813052063831 220.70381211417447 L189.9554643040201 219.3011049748375 L191.10294601594546 217.93289766483943 L192.25042772787083 216.60017048285056 L193.39776151125284 215.3038257492378 L194.5452432231782 214.04464324703434 L195.6925770065602 212.8232802219396 L196.84005871848558 211.64032708110722 L197.98754043041095 210.49622941484188 L199.13487421379273 209.39132141587208 L200.2823559257181 208.3258481588654 L201.4296897091001 207.299921041398 L202.57717142102547 206.31351778395464 L203.72450520440748 205.36652698895915 L204.87198691633284 204.4587147215016 L206.0194686282582 203.5897133695806 L207.16680241164 202.75905506337628 L208.31428412356559 201.96614939573496 L209.46161790694737 201.2102945619268 L210.60909961887273 200.4906662198881 L211.7565813307981 199.8063954685248 L212.9039151141801 199.1563906115905 L214.05139682610547 198.53955995283872 L215.19873060948748 197.9546781189316 L216.34621232141285 197.40038605943994 L217.49369403333822 196.87530244441928 L218.64102781672 196.3779122668337 L219.7885095286456 195.90661140158647 L220.93584331202737 195.45975116455025 L222.08332502395274 195.0356160330521 L223.23065880733475 194.63235680732762 L224.3781405192601 194.24812428761248 L225.52562223118548 193.88102471511183 L226.6729560145675 193.5290306539394 L227.82043772649286 193.19015922723946 L228.96777150987464 192.86231616058004 L230.1152532218 192.54345173855967 L231.2627349337256 192.23142712771596 L232.41006871710738 191.92408121507128 L233.55755042903274 191.61927516716318 L234.70488421241475 191.31484787101405 L235.85236592434012 191.00861593413103 L236.99984763626549 190.69841824353648 L238.1471814196475 190.38209368625272 L239.29466313157286 190.05748114930213 L240.44199691495464 189.72246407873757 L241.58947862688 189.37492592061184 L242.7369603388056 189.01281695952346 L243.88429412218738 188.6340652005557 L245.03177583411275 188.23668776685287 L246.17910961749476 187.81872406107436 L247.32659132942013 187.37825804491013 L248.4739251128019 186.91339595956532 L249.6214068247275 186.42237772333652 L250.76888853665287 185.90344325452028 L251.91622232003465 185.35492158947406 L253.06370403196001 184.77516404407064 L254.21103781534202 184.16263333175888 L255.3585195272674 183.5158590045334 L256.50600123919276 182.8334374529345 L257.65333502257477 182.11400962653292 L258.80081673450013 181.35637243150606 L259.9481505178819 180.55932277403133 L261.0956322298073 179.72176895786228 L262.2431139417329 178.84270840481344 L263.39044772511465 177.92120537524494 L264.53792943704 176.95643552709322 L265.68526322042203 175.94761907732504 L266.8327449323474 174.8941099199987 L267.9800787157294 173.79530650820286 L269.12756042765477 172.65071869260237 L270.27504213958014 171.4599008828926 L271.4223759229619 170.2225634453755 L272.5698576348873 168.9384390258683 L273.7171914182693 167.60734938824905 L274.86467313019466 166.2292722530026 L276.01215484212 164.80416306109842 L277.15948862550204 163.33213321011274 L278.3069703374274 161.81336093616738 L279.4543041208092 160.24811359344517 L280.6017858327348 158.63670309515936 L281.74926754466014 156.97955275209938 L282.8966013280419 155.27715271360037 L284.0440830399673 153.53010452657364 L285.1914168233493 151.73903201744574 L286.33889853527467 149.9046481307041 L287.4862323186567 148.02777720841237 L288.63371403058204 146.1093104311799 L289.7811957425074 144.150138979616 L290.9285295258892 142.15135454996712 L292.0760112378148 140.11398199993403 L293.22334502119656 138.03920214382404 L294.37082673312193 135.92826263449027 L295.5183084450473 133.782433404301 L296.6656422284293 131.60309578320067 L297.81312394035467 129.3916756601643 L298.9604577237367 127.14964348319722 L300.10793943566205 124.87855881836578 L301.2554211475874 122.58007034979727 L302.4027549309692 120.25582676161895 L303.5502366428948 117.90756585601906 L304.69757042627657 115.53711455324668 L305.84505213820194 113.146299773551 L306.9925338501273 110.73703755524201 L308.1398676335093 108.31128849566039 L309.2873493454347 105.87110231020745 L310.4346831288167 103.41850643476954 L311.58216484074205 100.95566198232427 L312.72949862412383 98.4847300658493 L313.8769803360492 96.00793863686795 L315.0244620479748 93.52753792641874 L316.1717958313566 91.04584500408606 L317.31927754328194 88.5652214984845 L318.46661132666395 86.0880513177442 L319.6140930385893 83.61676292902547 L320.7615747505147 81.15382935851926 L321.9089085338967 78.70176819144694 L323.05639024582206 76.26307473351471 L324.20372402920384 73.84031112897429 L325.3512057411292 71.43610636062334 L326.4986874530546 69.05300029319841 L327.6460212364366 66.69366646852745 L328.79350294836195 64.36073386940814 L329.94083673174396 62.05685375815318 L331.0883184436693 59.78467739707531 L332.2356522270511 57.54687832800255 L333.38313393897647 55.34610781324773 L334.53061565090206 53.18506167415404 L335.67794943428385 51.066391173034276 L336.8254311462092 48.99270301317074 L337.9727649295912 46.96667073639139 L339.1202466415166 44.99090104597866 L340.26772835344195 43.06795608618427 L341.41506213682396 41.20039800126011 L342.5625438487493 39.39076665594274 L343.7098776321311 37.64151279690793 L344.8573593440565 35.95510945034653 L346.00484105598207 34.333918244873246 L347.15217483936385 32.78027852958763 L348.2996565512892 31.29646281504347 L349.4469903346712 29.88469905276412 L350.5944720465966 28.547103796696717 L351.74195375852196 27.285749041758038 L352.88928754190397 26.10263994431898 L354.03676925382933 24.999670263174494 L355.1841030372111 23.978644639058473 L356.3315847491365 23.041278594643813 L357.4789185325185 22.18922081405782 L358.62640024444386 21.42394174530591 L359.7738819563692 20.74691183639345 L360.92121573975123 20.15935646065833 L362.0686974516766 19.662523270953614 L363.2160312350584 19.257437124980015 L364.363512946984 18.945033762377363 L365.51099465890934 18.726137525209253 L366.6583284422911 18.60141679893269 L367.8058101542165 18.571428571428555 L368.9531439375985 18.636573873970974 L370.10062564952386 18.797142340258063 L371.24810736144923 19.05324536786594 L372.39544114483124 19.404905236309844 L373.5429228567566 19.85192142995271 L374.6902566401384 20.394026594611717 L375.837738352064 21.03079741949739 L376.98507213544576 21.761610078183253 L378.1325538473711 22.58572934666654 L379.2800355592965 23.502308603368476 L380.4273693426785 24.510322990588236 L381.57485105460387 25.608569414503222 L382.7221848379859 26.795800222260425 L383.86966654991124 28.07052268633913 L385.0171482618366 29.431177240673094 L386.1644820452184 30.876026083074066 L387.31196375714376 32.40324229329286 L388.45929754052577 34.010865273989 L389.60677925245113 35.69675619170005 L390.7542609643765 37.45873165393317 L391.9015947477585 39.294430032073535 L393.0490764596839 41.20144513847606 L394.19641024306566 43.17721482888885 L395.34389195499125 45.219087840999066 L396.4913736669166 47.3243237944331 L397.6387074502984 49.49009319075628 L398.78618916222376 51.713521972503486 L399.9335229456058 53.991602405118215 L401.08100465753114 56.32130447452869 L402.22833844091315 58.69953132811753 L403.3758201528385 61.12309699520631 L404.5233018647639 63.58883778463189 L405.67063564814566 66.09350088717025 L406.81811736007126 68.63381121408207 L407.96545114345304 71.20649367662793 L409.1129328553784 73.80825090655344 L410.26041456730377 76.43576325608876 L411.4077483506858 79.08575563649453 L412.55523006261114 81.75488612048582 L413.70256384599315 84.43990189883851 L414.8500455579185 87.13757244184376 L415.9975272698439 89.84466721979271 L417.14486105322567 92.55800026200706 L418.29234276515126 95.27445243635407 L419.43967654853304 97.99092689021631 L420.5871582604584 100.70446044806778 L421.7344920438404 103.41206765486709 L422.8819737557658 106.11089673266451 L424.02945546769115 108.79816274205575 L425.17678925107316 111.47114758218243 L426.3242709629985 114.1272668292774 L427.4716047463803 116.76398061860408 L428.6190864583057 119.3789050420325 L429.76656817023127 121.96970075046318 L430.91390195361305 124.53418435140321 L432.0613836655384 127.07028384993583 L433.2087174489204 129.57601636920543 L434.3561991608458 132.04953270944748 L435.50368087277116 134.48909506847383 L436.65101465615317 136.89309932118772 L437.79849636807853 139.26005274006843 L438.9458301514603 141.58861855420201 L440.0933118633857 143.87752683122017 L441.2407935753113 146.12568587487644 L442.38812735869305 148.33209310698533 L443.5356090706184 150.49585734693747 L444.68294285400043 152.61624337073022 L445.8304245659258 154.692627351937 L446.9777583493076 156.72449686170745 L448.12524006123317 158.71142858925217 L449.27272177315854 160.6531551803883 L450.4200555565403 162.54947611947878 L451.5675372684657 164.40030228846265 L452.7148710518477 166.2056782463704 L453.86235276377306 167.96571539077823 L455.0098344756984 169.68059195780793 L456.15716825908044 171.3506198606728 L457.3046499710058 172.97617785113184 L458.4519837543876 174.55771151948966 L459.59946546631295 176.09573329459667 L460.74694717823854 177.59084472336414 L461.8942809616203 179.04366963221867 L463.0417626735457 180.45494324516287 L464.1890964569277 181.8254007861995 L465.33657816885307 183.15584431787698 L466.48391195223485 184.44712046177412 L467.63139366416044 185.70009811898507 L468.7788753760858 186.91569074963436 L469.9262091594676 188.0948118138466 L471.07369087139296 189.2383970512616 L472.22102465477496 190.3474490400648 L473.36850636670033 191.42290351989604 L474.5159880786257 192.46576306894082 L475.6633218620077 193.47698570635418 L476.8108035739331 194.45757401032162 L477.95813735731485 195.40850827951343 L479.10561906924045 196.33072425356937 L480.2531007811658 197.22520223115976 L481.4004345645476 198.0929002314396 L482.54791627647296 198.93473171453346 L483.69525005985497 199.75158786105067 L484.84273177178034 200.54440441063105 L485.99006555516235 201.31400570533825 L487.1375472670877 202.06128292578157 L488.2850289790131 202.78703813450943 L489.43236276239486 203.49208453382786 L490.57984447432045 204.17720190677002 L491.72717825770223 204.84314775685382 L492.8746599696276 205.49066844783962 L494.02214168155297 206.12047692421487 L495.169475464935 206.7332638509518 L496.31695717686034 207.32970875326504 L497.46429096024235 207.91046887685397 L498.6117726721677 208.47619032766036 L499.7592543840931 209.02749693211072 L500.90658816747487 209.56500137687402 L502.05406987940046 210.08931634861915 L503.20140366278224 210.60102111474217 L504.3488853747076 211.10071722215437 L505.496367086633 211.58897279849424 L506.643700870015 212.06640053043068 L507.79118258194035 212.53354626608692 L508.93851636532236 212.99102269213185 L510.0859980772477 213.43940907596155 L511.2333318606295 213.87930696448734 L512.3808135725549 214.3113290443781 L513.5282952844802 214.7360768625452 L514.6756290678622 215.1541965249303 L515.8231107797876 215.56632299771766 L516.9704445631696 215.97313580612186 L518.117926275095 216.37530333559988 L519.2654079870204 216.77353853063923 L520.4127417704021 217.16856547548494 L521.5602234823277 217.56111939413975 L522.7075572657095 217.95196892987923 L523.8550389776349 218.34191614525173 L525.0025206895602 218.7317631028057 L526.1498544729423 219.12235642411997 L527.2973361848676 219.51455387053105 L528.4446699682496 219.90924662264828 L529.592151680175 220.30732586108095 L530.7394854635568 220.70972732546895 L531.8869671754821 221.11740903496724 L533.0344488874077 221.5313290087309 L534.1817826707895 221.95247868518777 L535.3292643827149 222.38186064252338 L536.4765981660969 222.82047745892325 L537.6240798780223 223.2693762716033 L538.7715615899476 223.72958193826435 L539.9188953733296 224.2021415961223 L541.066377085255 224.6881023823931 L542.2137108686368 225.1885114342928 L543.3611925805621 225.70442702879492 L544.5086742924877 226.23688516335784 L545.6560080758695 226.78693297519754 L546.8034897877949 227.35559532201472 L547.9508235711769 227.94388592175255 L549.0983052831023 228.55278507308125 L550.2457869950276 229.18329535418636 L551.3931207784096 229.83635250470763 L552.540602490335 230.51288112452733 L553.6879362737168 231.21378353401235 L554.8354179856422 231.93991749449918 L555.9827517690242 232.69211848780907 L557.1302334809495 233.47116629697524 L558.2777151928749 234.27779614600033 L559.4250489762569 235.11272097937183 L560.5725306881823 235.9765757632739 L561.719864471564 236.86996204461784 L562.8673461834896 237.79343681128447 L564.014827895415 238.7474679330937 L565.1621616787968 239.73251214010784 L566.3096433907222 240.7489259045706 L567.4569771741042 241.79703227945285 L568.6044588860295 242.87705405990692 L569.7519405979549 243.9892029013276 L570.8992743813369 245.13356792177572 L572.0467560932623 246.31022709955465 L573.1940898766441 247.51913587563396 L574.3415715885696 248.76022741146787 L575.4889053719514 250.0333457504498 L576.6363870838768 251.3382680974274 L577.7838687958022 252.67470481870265 L578.9312025791842 254.04231058178942 L580.0786842911095 255.44062865662542 L581.2260180744915 256.8692023131484 L582.3734997864169 258.3274634237198 L583.5209814983423 259.81479930167086 L584.6683152817241 261.3305081422716 L585.8157969936494 262.87387700103466 L586.9631307770314 264.4440815358963 L588.1106124889568 266.0402639855201 L589.2580942008822 267.66152202953907 L590.4054279842642 269.30688650904057 L591.5529096961895 270.97533256632386 L592.7002434795713 272.665813064173 L593.8477251914969 274.3771917473111 L594.9952069034223 276.1083435002188 L596.1425406868041 277.85806522907353 L597.2900223987294 279.62513156053745 L598.4373561821114 281.4082837019999 L599.5848378940368 283.2062294415773 L600.7321716774188 285.0176654276286 L601.8796533893442 286.841243749482 L603.0271351012696 288.6755942169508 L604.1744688846513 290.5193466398481 L605.3219505965769 292.371130827987 L606.4692843799587 294.2295208923926 L607.6167660918841 296.0931132236052 L608.7642478038094 297.9605042121651 L609.9115815871914 299.83028467873385 L611.0590632991168 301.701039874094 L612.2063970824988 303.5713717586647 L613.3538787944242 305.4398767229863 L614.5013605063496 307.3051845768719 L615.6486942897313 309.165913990377 " fill="none" stroke-width="1.1" stroke="rgb(59,162,114)" stroke-opacity="1.0">
          </path>
        </g>
      </g>
    </g>
    <g transform="translate(50.03470122028142 15.2 ) ">
      <text class="plot-title" y="0.0">
      Flight length experiment
      </text>
    </g>
    <g transform="translate(14.5 229.0 ) rotate(-90.0 ) ">
      <text class="axis-title-y" y="0.0" text-anchor="middle">
      density*
      </text>
    </g>
    <g transform="translate(372.51735061014074 461.5 ) ">
      <text class="axis-title-x" y="0.0" text-anchor="middle">
      length
      </text>
    </g>
    <path fill="rgb(0,0,0)" fill-opacity="0.0" stroke="rgb(71,71,71)" stroke-opacity="1.0" stroke-width="0.0" d="M0.0 0.0 L0.0 470.0 L705.0 470.0 L705.0 0.0 Z">
    </path>
  </g>
  <g id="xXxprefixXx2">
  </g>
</svg>