<svg xmlns="http://www.w3.org/2000/svg" xmlns:xlink="http://www.w3.org/1999/xlink" display="block" class="plt-container" width="705.0" height="470.0">
  <style type="text/css">
  .plt-container {
   font-family: Lucida Grande, sans-serif;
   user-select: none;
   -webkit-user-select: none;
   -moz-user-select: none;
   -ms-user-select: none;
}
text {
   text-rendering: optimizeLegibility;
}
#xXxprefixXx0 .plot-title {
   fill: #474747;
   font-family: Lucida Grande, sans-serif;
   font-size: 16.0px;
   font-weight: normal;
   font-style: normal;   
}
#xXxprefixXx0 .plot-subtitle {
   fill: #474747;
   font-family: Lucida Grande, sans-serif;
   font-size: 15.0px;
   font-weight: normal;
   font-style: normal;   
}
#xXxprefixXx0 .plot-caption {
   fill: #474747;
   font-family: Lucida Grande, sans-serif;
   font-size: 13.0px;
   font-weight: normal;
   font-style: normal;   
}
#xXxprefixXx0 .legend-title {
   fill: #474747;
   font-family: Lucida Grande, sans-serif;
   font-size: 15.0px;
   font-weight: normal;
   font-style: normal;   
}
#xXxprefixXx0 .legend-item {
   fill: #474747;
   font-family: Lucida Grande, sans-serif;
   font-size: 13.0px;
   font-weight: normal;
   font-style: normal;   
}
#xXxprefixXx0 .axis-title-x {
   fill: #474747;
   font-family: Lucida Grande, sans-serif;
   font-size: 15.0px;
   font-weight: normal;
   font-style: normal;   
}
#xXxprefixXx0 .axis-text-x {
   fill: #474747;
   font-family: Lucida Grande, sans-serif;
   font-size: 13.0px;
   font-weight: normal;
   font-style: normal;   
}
#xXxprefixXx2 .axis-tooltip-text-x {
   fill: #ffffff;
   font-family: Lucida Grande, sans-serif;
   font-size: 13.0px;
   font-weight: normal;
   font-style: normal;   
}
#xXxprefixXx0 .axis-title-y {
   fill: #474747;
   font-family: Lucida Grande, sans-serif;
   font-size: 15.0px;
   font-weight: normal;
   font-style: normal;   
}
#xXxprefixXx0 .axis-text-y {
   fill: #474747;
   font-family: Lucida Grande, sans-serif;
   font-size: 13.0px;
   font-weight: normal;
   font-style: normal;   
}
#xXxprefixXx2 .axis-tooltip-text-y {
   fill: #ffffff;
   font-family: Lucida Grande, sans-serif;
   font-size: 13.0px;
   font-weight: normal;
   font-style: normal;   
}
#xXxprefixXx0 .facet-strip-text-x {
   fill: #474747;
   font-family: Lucida Grande, sans-serif;
   font-size: 13.0px;
   font-weight: normal;
   font-style: normal;   
}
#xXxprefixXx0 .facet-strip-text-y {
   fill: #474747;
   font-family: Lucida Grande, sans-serif;
   font-size: 13.0px;
   font-weight: normal;
   font-style: normal;   
}
#xXxprefixXx2 .tooltip-text {
   fill: #474747;
   font-family: Lucida Grande, sans-serif;
   font-size: 13.0px;
   font-weight: normal;
   font-style: normal;   
}
#xXxprefixXx2 .tooltip-title {
   fill: #474747;
   font-family: Lucida Grande, sans-serif;
   font-size: 13.0px;
   font-weight: bold;
   font-style: normal;   
}
#xXxprefixXx2 .tooltip-label {
   fill: #474747;
   font-family: Lucida Grande, sans-serif;
   font-size: 13.0px;
   font-weight: bold;
   font-style: normal;   
}

  </style>
  <g id="xXxprefixXx0">
    <path fill-rule="evenodd" fill="rgb(255,255,255)" fill-opacity="1.0" d="M0.0 0.0 L0.0 470.0 L705.0 470.0 L705.0 0.0 Z">
    </path>
    <g transform="translate(29.5 6.5 ) ">
      <g>
        <g transform="translate(35.01530667574961 0.0 ) ">
          <g>
            <line x1="38.063621032350966" y1="0.0" x2="38.063621032350966" y2="411.0" stroke="rgb(233,233,233)" stroke-opacity="1.0" stroke-width="1.0" fill="none">
            </line>
            <line x1="134.35174450572887" y1="0.0" x2="134.35174450572887" y2="411.0" stroke="rgb(233,233,233)" stroke-opacity="1.0" stroke-width="1.0" fill="none">
            </line>
            <line x1="230.63986797910678" y1="0.0" x2="230.63986797910678" y2="411.0" stroke="rgb(233,233,233)" stroke-opacity="1.0" stroke-width="1.0" fill="none">
            </line>
            <line x1="326.9279914524847" y1="0.0" x2="326.9279914524847" y2="411.0" stroke="rgb(233,233,233)" stroke-opacity="1.0" stroke-width="1.0" fill="none">
            </line>
            <line x1="423.21611492586266" y1="0.0" x2="423.21611492586266" y2="411.0" stroke="rgb(233,233,233)" stroke-opacity="1.0" stroke-width="1.0" fill="none">
            </line>
            <line x1="519.5042383992405" y1="0.0" x2="519.5042383992405" y2="411.0" stroke="rgb(233,233,233)" stroke-opacity="1.0" stroke-width="1.0" fill="none">
            </line>
            <line x1="615.7923618726185" y1="0.0" x2="615.7923618726185" y2="411.0" stroke="rgb(233,233,233)" stroke-opacity="1.0" stroke-width="1.0" fill="none">
            </line>
          </g>
        </g>
        <g transform="translate(35.01530667574961 0.0 ) ">
          <g>
            <line x1="0.0" y1="411.0" x2="633.9846933242504" y2="411.0" stroke="rgb(233,233,233)" stroke-opacity="1.0" stroke-width="1.0" fill="none">
            </line>
            <line x1="0.0" y1="360.9486368933591" x2="633.9846933242504" y2="360.9486368933591" stroke="rgb(233,233,233)" stroke-opacity="1.0" stroke-width="1.0" fill="none">
            </line>
            <line x1="0.0" y1="310.89727378671813" x2="633.9846933242504" y2="310.89727378671813" stroke="rgb(233,233,233)" stroke-opacity="1.0" stroke-width="1.0" fill="none">
            </line>
            <line x1="0.0" y1="260.84591068007717" x2="633.9846933242504" y2="260.84591068007717" stroke="rgb(233,233,233)" stroke-opacity="1.0" stroke-width="1.0" fill="none">
            </line>
            <line x1="0.0" y1="210.79454757343626" x2="633.9846933242504" y2="210.79454757343626" stroke="rgb(233,233,233)" stroke-opacity="1.0" stroke-width="1.0" fill="none">
            </line>
            <line x1="0.0" y1="160.74318446679533" x2="633.9846933242504" y2="160.74318446679533" stroke="rgb(233,233,233)" stroke-opacity="1.0" stroke-width="1.0" fill="none">
            </line>
            <line x1="0.0" y1="110.69182136015439" x2="633.9846933242504" y2="110.69182136015439" stroke="rgb(233,233,233)" stroke-opacity="1.0" stroke-width="1.0" fill="none">
            </line>
            <line x1="0.0" y1="60.640458253513486" x2="633.9846933242504" y2="60.640458253513486" stroke="rgb(233,233,233)" stroke-opacity="1.0" stroke-width="1.0" fill="none">
            </line>
            <line x1="0.0" y1="10.58909514687258" x2="633.9846933242504" y2="10.58909514687258" stroke="rgb(233,233,233)" stroke-opacity="1.0" stroke-width="1.0" fill="none">
            </line>
          </g>
        </g>
      </g>
      <g clip-path="url(#xXxprefixXx1)" clip-bounds-jfx="[rect (35.01530667574961, 0.0), (633.9846933242504, 411.0)]">
        <g transform="translate(35.01530667574961 0.0 ) ">
          <g>
            <g>
              <g>
                <path d="M28.817486060193175 406.2418469590465 L28.817486060193175 406.2418469590465 L29.94538041271761 406.03899603809884 L31.07327476524199 405.8331152094683 L32.20114616088881 405.62431494825046 L33.32904051341325 405.4126968728876 L34.45691190906007 405.19835327902905 L35.58480626158445 404.98136760567104 L36.71270061410888 404.76181583357555 L37.840572009755704 404.5397646207115 L38.96846636228008 404.3152736329533 L40.09636071480452 404.08839554408064 L41.22423211045134 403.8591769680579 L42.352126462975775 403.62765939131333 L43.479997858622596 403.39387917273916 L44.607892211146975 403.15786987438975 L45.73578656367141 402.91966132920214 L46.86365795931823 402.6792796409965 L47.99155231184261 402.43674718447573 L49.11944666436705 402.19208353750474 L50.24731806001387 401.9453036165522 L51.37521241253825 401.69641581213176 L52.50310676506268 401.445419191964 L53.6309781607095 401.19230443325614 L54.75887251323388 400.93704822902595 L55.8867439088807 400.6796095589848 L57.01463826140514 400.4199268926998 L58.14253261392952 400.15791166363863 L59.27040400957634 399.8934454723319 L60.398298362100775 399.62637449269715 L61.526192714625154 399.3565010815256 L62.654064110271975 399.08358191392335 L63.78195846279641 398.80731959279785 L64.90985281532079 398.52735705518205 L66.03772421096761 398.24327291083836 L67.16561856349205 397.95457771314096 L68.29348995913887 397.66070650084197 L69.42138431166325 397.36101879807126 L70.54927866418768 397.0547948852191 L71.6771500598345 396.7412330020988 L72.80504441235891 396.4194512125047 L73.93293876488332 396.08848740421274 L75.06081016053014 395.7473039503763 L76.18870451305455 395.3947877095267 L77.31659886557895 395.0297612129245 L78.44447026122577 394.6509873259557 L79.57236461375018 394.2571776386457 L80.700236009397 393.84700831440693 L81.82813036192141 393.41912009003886 L82.95602471444582 392.9721462441067 L84.08389611009264 392.5047200551757 L85.21179046261705 392.015487853721 L86.33968481514145 391.5031276677138 L87.4675562107883 390.9663697327649 L88.59545056331271 390.4040076794771 L89.72332195895953 389.81491717903015 L90.85121631148394 389.19807272420826 L91.97911066400835 388.55257000410313 L93.10698205965517 387.87762776867214 L94.23487641217957 387.1726139325587 L95.36277076470398 386.43705489788505 L96.4906421603508 385.67064301248644 L97.61853651287521 384.8732533509384 L98.74643086539962 384.0449455791153 L99.87430226104644 383.18597141242464 L101.00219661357085 382.2967764803656 L102.13006800921767 381.37800778476344 L103.25796236174207 380.4305043769764 L104.38585671426648 379.45529735789603 L105.5137281099133 378.4536005551539 L106.64162246243771 377.42681798135646 L107.76951681496212 376.37650840747153 L108.89738821060894 375.3043909565044 L110.02528256313335 374.21233391614624 L111.15317691565775 373.1023211767199 L112.28104831130457 371.9764522311798 L113.40894266382898 370.8369123421746 L114.5368140594758 369.6859688129306 L115.66470841200021 368.52592623784506 L116.79260276452462 367.35912277337 L117.92047416017144 366.1879040341916 L119.04836851269584 365.0146044476445 L120.17626286522025 363.8415174207749 L121.3041342608671 362.6708804238716 L122.43202861339151 361.50484888664624 L123.55992296591592 360.34547755264737 L124.68779436156274 359.1947055627921 L125.81568871408714 358.05431916419434 L126.94356010973397 356.9259628975164 L128.07145446225837 355.8110911184461 L129.19934881478278 354.71098291416513 L130.3272202104296 353.62669735394365 L131.455114562954 352.55909213472574 L132.58300891547842 351.508786289958 L133.71088031112524 350.47616391870656 L134.83877466364964 349.4613704565403 L135.96665753773524 348.46430148817905 L137.09454041182087 347.48459528925946 L138.2224232859065 346.5216477428035 L139.3503176384309 345.57459369363283 L140.4782005125165 344.642314406603 L141.60608338660214 343.72345994130643 L142.73397773912654 342.8164267773694 L143.86186061321214 341.919380189155 L144.98974348729777 341.0302766204661 L146.11762636138337 340.1468487680766 L147.24552071390778 339.26665033113744 L148.3734035879934 338.3870410947077 L149.501286462079 337.5052167626919 L150.62916933616464 336.6182387907774 L151.75706368868904 335.7230194699656 L152.88494656277467 334.8163890506805 L154.01282943686027 333.8950808263005 L155.14072378938468 332.95576842432934 L156.2686066634703 331.99508072286517 L157.3964895375559 331.00963168353746 L158.52437241164154 329.9960501844443 L159.65226676416594 328.9509949366211 L160.78014963825154 327.87117685874307 L161.90803251233717 326.7533889100629 L163.03591538642277 325.5945359233476 L164.16380973894718 324.39163460487885 L165.2916926130328 323.1418657420924 L166.4195754871184 321.842574203579 L167.54745836120404 320.4912913137865 L168.67535271372844 319.08577214419176 L169.80323558781407 317.62397313859753 L170.93111846189967 316.1041192372415 L172.05901281442408 314.52465166915556 L173.1868956885097 312.88430253450946 L174.3147785625953 311.1820724299074 L175.44266143668094 309.41720807368563 L176.57055578920534 307.5892694300205 L177.69843866329094 305.6980625848204 L178.82632153737657 303.74368449513116 L179.95420441146217 301.726493156199 L181.08209876398658 299.6471076014705 L182.2099816380722 297.50637806965545 L183.3378645121578 295.30540837942965 L184.46574738624344 293.0455111800293 L185.59364173876784 290.7281781183136 L186.72152461285347 288.35510967170217 L187.84940748693907 285.92812564936315 L188.97730183946348 283.44920248338514 L190.1051847135491 280.92042847937114 L191.2330675876347 278.34393669232975 L192.36095046172034 275.72196459254985 L193.48884481424474 273.0567496503204 L194.61672768833034 270.3505293359302 L195.74461056241597 267.6055560361368 L196.87249343650157 264.82402247182324 L198.00038778902598 262.00806169799824 L199.1282706631116 259.1597471037961 L200.25615353719724 256.28104766307115 L201.38404788972161 253.3738130179288 L202.51193076380724 250.43977347872573 L203.63981363789287 247.48056985700714 L204.76769651197847 244.49766396669511 L205.89559086450288 241.49239828996298 L207.0234737385885 238.4659810607667 L208.1513566126741 235.41953101425074 L209.27923948675974 232.3539878879364 L210.40713383928414 229.27020192053345 L211.53501671336977 226.16893385194012 L212.66289958745537 223.05088475618027 L213.79078246154097 219.91663637552895 L214.9186768140654 216.76680028519854 L216.046559688151 213.6019134780583 L217.1744425622366 210.42257261285195 L218.30233691476104 207.229344515386 L219.43021978884664 204.02291534321571 L220.55810266293224 200.8040160033021 L221.68598553701787 197.57352656729213 L222.81387988954228 194.33244643858154 L223.94176276362788 191.08195401818907 L225.0696456377135 187.82339178828806 L226.19752851179913 184.55835581101795 L227.32542286432354 181.28866589554696 L228.45330573840914 178.01636559807227 L229.58118861249477 174.74379680416294 L230.70907722579977 171.47356989582264 L231.8369600998854 168.20860850089545 L232.9648487131904 164.95210474366021 L234.0927373264954 161.70754907776757 L235.22062020058104 158.47874520270855 L236.34850881388604 155.26976531440894 L237.47639168797167 152.08497993816633 L238.60428030127667 148.92898334630723 L239.7321631753623 145.80660847465555 L240.8600517886673 142.72298658840714 L241.98793466275293 139.68327878569494 L243.11582327605794 136.6929444940239 L244.24370615014354 133.75750280677312 L245.37159476344857 130.88250265025908 L246.49947763753417 128.0736122825469 L247.62736625083917 125.33644029582734 L248.7552548641442 122.67647595054245 L249.8831377382298 120.09923834007145 L251.01102635153484 117.60988856254733 L252.13890922562044 115.21355788316583 L253.26679783892544 112.91498973893948 L254.39468071301104 110.71859940457159 L255.52256932631607 108.62847399245652 L256.6504522004017 106.6482531209308 L257.7783408137067 104.78103941546169 L258.9062236877923 103.0295178403959 L260.0341123010973 101.39568720252464 L261.16199517518294 99.88100931577014 L262.28988378848794 98.48625983649919 L263.41777240179294 97.21155809646046 L264.5456552758786 96.05627760397311 L265.6735438891836 95.01913554273818 L266.8014267632692 94.0980436071527 L267.9293153765742 93.29025716699573 L269.05719825065984 92.59219626980496 L270.18508686396484 91.99959480556305 L271.31296973805047 91.50747067376005 L272.4408583513555 91.11015561633081 L273.5687412254411 90.80132505059214 L274.6966298387461 90.5739980692428 L275.82451271283173 90.42062693917495 L276.95240132613674 90.33318660028584 L278.08028420022237 90.30314483254062 L279.20817281352737 90.32155175478374 L280.33605855722266 90.37921882236225 L281.463944300918 90.46662932831418 L282.5918300446133 90.57405773511715 L283.7197157883086 90.69183817112338 L284.8476015320039 90.81012576706172 L285.97548727569927 90.91928448422146 L287.10337588900427 91.0097976156406 L288.23126163269956 91.07235728491747 L289.35914737639484 91.09801361089654 L290.4870331200902 91.0782940394173 L291.6149188637855 91.0051138445026 L292.7428046074808 90.87095512598182 L293.8706903511761 90.66898614123971 L294.99857609487145 90.39294197346732 L296.12646183856674 90.03739302809703 L297.2543475822621 89.59759586811646 L298.3822333259574 89.06958271287994 L299.5101190696527 88.45025093692027 L300.638004813348 87.73733323701146 L301.76589055704335 86.92936779923133 L302.8937777355435 86.02572813189903 L304.0216634792388 85.02659323263777 L305.1495492229341 83.9329177554373 L306.2774364014343 82.7464618435917 L307.4053221451296 81.46970163088719 L308.5332078888249 80.10573974279112 L309.6610936325202 78.65836496232583 L310.78897937621554 77.13193289832049 L311.9168651199108 75.53127648659898 L313.04475086360617 73.86170598998018 L314.1726380421063 72.12891949946646 L315.30052306839923 70.33897310130641 L316.42840952949695 68.4981317123088 L317.55629527319223 66.61289891278 L318.6841810168876 64.6899274477122 L319.8120674779853 62.73598939384647 L320.93995322168064 60.757797162049314 L322.0678389653759 58.762182494936155 L323.19572506777246 56.75588763631083 L324.3236109908184 54.745565331165494 L325.4514970035396 52.73777882568089 L326.5793829041667 50.73897203428896 L327.7072688496314 48.75543970673573 L328.8351548623527 46.79335726101846 L329.96304060604797 44.85869128457415 L331.0909267084445 42.95725920015394 L332.21881281084103 41.09475909876005 L333.3466985545363 39.27673990670894 L334.47458429823166 37.50851188681952 L335.6024707593294 35.79541513484787 L336.7303565030247 34.14249141717829 L337.85824224672 32.554752667257844 L338.9861287078178 31.037121319722075 L340.11401445151307 29.594340811583322 L341.24190019520836 28.231094913979632 L342.3697859389037 26.95194806630036 L343.497671682599 25.761285710311654 L344.62555742629434 24.66340378896814 L345.7534446047945 23.662508746412925 L346.8813303484898 22.762478864480045 L348.0092160921851 21.96716259206636 L349.13710183588046 21.280080215759654 L350.26498757957575 20.704483525713158 L351.3928747580759 20.24338564858249 L352.52076050177124 19.899382049902783 L353.6486462454665 19.67479969877445 L354.77653198916187 19.571428571428612 L355.90441773285715 19.59070064885009 L357.0323034765525 19.73351091915447 L358.1601892202478 20.000217377587944 L359.28807496394313 20.390670859464592 L360.4159607076384 20.90415537429203 L361.5438464513337 21.539298606959733 L362.67173219502905 22.294221082424997 L363.79961793872434 23.166387001027147 L364.92750655202934 24.152663904361702 L366.0553922957247 25.24944200702936 L367.18327803942 26.452425366075488 L368.3111637831153 27.756930210361986 L369.4390495268106 29.15773577588152 L370.56693527050595 30.649203637506105 L371.69482101420124 32.22539704073597 L372.8227067578966 33.879991402887924 L373.95059250159187 35.60651297659274 L375.0784811148969 37.39833884979549 L376.2063639889825 39.24869694575506 L377.3342526022875 41.15090468654216 L378.46213547637313 43.098368993038775 L379.59002408967814 45.08464595081301 L380.71790696376377 47.103560141867604 L381.84579557706877 49.149234477577124 L382.9736784511544 51.216209530436686 L384.1015670644594 53.29953303287357 L385.22944993854503 55.394700211372935 L386.35733855185003 57.49786261703781 L387.48522716515504 59.60570879384073 L388.61311003924067 61.71561344330945 L389.74099865254567 63.82563742452692 L390.8688815266313 65.9345277541313 L391.9967701399363 68.04165794044184 L393.1246530140219 70.14711748226995 L394.25254162732693 72.25162237010818 L395.38042450141256 74.35657475200418 L396.50831311471757 76.46385410300064 L397.63619598880314 78.57599622275819 L398.76408460210814 80.6958650732467 L399.89196747619377 82.82689144224236 L401.0198560894988 84.97271494808172 L402.1477389635844 87.13730337141044 L403.2756275768894 89.3248333234344 L404.4035161901944 91.53951124829666 L405.53139906428004 93.78566292188907 L406.65928767758504 96.06743512248028 L407.78717055167067 98.38894479540187 L408.9150591649757 100.75401055661348 L410.0429420390613 103.16624219151453 L411.1708306523663 105.62877215850938 L412.29871352645193 108.14443458663067 L413.42660213975694 110.71552661204157 L414.55448501384257 113.34380837803604 L415.68237362714757 116.03056270091298 L416.8102565012332 118.77635640647901 L417.9381451145382 121.58130882648277 L419.0660337278432 124.44482330218062 L420.19391660192883 127.36570651608508 L421.32180521523384 130.34219832490237 L422.44968808931947 133.3719419265948 L423.57757096340504 136.45204352625535 L424.7054653159295 139.5790723361079 L425.8333481900151 142.74915007431832 L426.96123106410073 145.957980797932 L428.0891139381863 149.2009105687481 L429.21700829071074 152.47298711919387 L430.3448911647963 155.7689598523248 L431.47277403888194 159.08351850532196 L432.60065691296757 162.41115890127472 L433.728551265492 165.74634703033527 L434.8564341395776 169.08360854853018 L435.9843170136632 172.41749894482317 L437.11221136618764 175.74279745520693 L438.24009424027327 179.05440264742276 L439.36797711435884 182.34749650211535 L440.49585998844447 185.61754441283256 L441.62375434096884 188.86036976836849 L442.7516372150545 192.0721241198263 L443.8795200891401 195.2493468464925 L445.00740296322573 198.38899498877427 L446.1352973157501 201.48844324819933 L447.26318018983574 204.54546907094735 L448.39106306392137 207.5582824807873 L449.518945938007 210.52551116260864 L450.6468402905314 213.44617062948424 L451.774723164617 216.31964930620185 L452.90260603870263 219.14572344573256 L454.030500391227 221.92448254688793 L455.15838326531264 224.65635918725715 L456.2862661393982 227.3420246079269 L457.4141490134839 229.98241854641844 L458.5420433660083 232.57870448728207 L459.6699262400939 235.13220999622243 L460.7978091141795 237.64445655303604 L461.92569198826516 240.11702530339363 L463.05358634078954 242.55167639058917 L464.18146921487516 244.95018487438512 L465.30935208896074 247.31440039688695 L466.4372464414852 249.64618751666876 L467.56512931557074 251.94741079230457 L468.69301218965643 254.21997953177424 L469.820895063742 256.465713544246 L470.94878941626644 258.68647738829407 L472.076672290352 260.8840461236807 L473.20455516443764 263.0602097266372 L474.33243803852326 265.2166835910516 L475.4603323910477 267.35515327787493 L476.5882152651333 269.47725959865227 L477.7160981392189 271.58462844846025 L478.84398101330453 273.6788558894383 L479.97187536582896 275.76146340138274 L481.09975823991454 277.8339873805587 L482.22764111400016 279.89791947382537 L483.35553546652454 281.95473641157344 L484.48341834061017 284.0058850912564 L485.6113012146958 286.0527602026876 L486.73918408878137 288.09677135214906 L487.8670784413058 290.13923864711114 L488.99496131539144 292.1814672785758 L490.12284418947706 294.2247027716704 L491.25072706356264 296.2701086109453 L492.37862141608707 298.31878115684185 L493.5065042901727 300.3717198127558 L494.6343871642583 302.4298121085686 L495.7622700383439 304.4938262424125 L496.89016439086834 306.5643663312657 L498.0180472649539 308.6419171603573 L499.1459301390396 310.7267472261221 L500.27382449156397 312.8189758603087 L501.4017073656496 314.91849118940274 L502.52959023973517 317.02498742579803 L503.6574731138208 319.13793503485965 L504.7853674663452 321.2565732766892 L505.91325034043086 323.37992512259405 L507.04113321451644 325.5067599639152 L508.16901608860206 327.63566073613646 L509.29691044112644 329.76494933654106 L510.4247933152121 331.89276866478934 L511.5526761892977 334.0170677064498 L512.6805705418221 336.1355940747649 L513.8084534159077 338.24596113476 L514.9363362899933 340.3456480032429 L516.064219164079 342.43201446527263 L517.1921135166034 344.5023308070969 L518.319996390689 346.5538374820261 L519.4478792647747 348.58373392308187 L520.575773617299 350.58922329240323 L521.7036450129458 352.5675460433006 L522.8315393654702 354.51600975319286 L523.9594337179947 356.4320003109594 L525.0873051136415 358.3130341245794 L526.2151994661658 360.1567581211325 L527.3430938186902 361.96098703796986 L528.4709652143371 363.7237146100658 L529.5988595668615 365.4431247573692 L530.7267309625083 367.1176214177407 L531.8546253150328 368.74581735960106 L532.9825196675572 370.32654909840016 L534.1103910632039 371.85889181308534 L535.2382854157283 373.3421332422812 L536.3661797682528 374.7757811425242 L537.4940511638996 376.159574475614 L538.621945516424 377.49343865920764 L539.7498169120709 378.77751167063957 L540.8777112645953 380.01210302663316 L542.0056056171197 381.1976900541833 L543.1334770127664 382.33490483864654 L544.2613713652909 383.42451184903837 L545.3892657178153 384.46739861524 L546.5171371134621 385.46454962417846 L547.6450314659866 386.41703699703396 L548.7729258185109 387.32600370821234 L549.9007972141578 388.19264866887664 L551.0286915666821 389.0182136750373 L552.156562962329 389.803974084759 L553.2844573148534 390.55122017257486 L554.4123516673778 391.2612627231625 L555.5402230630247 391.9354106566409 L556.668117415549 392.57497662224625 L557.7960117680734 393.18126767553895 L558.9238831637202 393.75558900752077 L560.0517775162447 394.29923089272506 L561.1796718687691 394.813483605685 L562.3075432644159 395.2996225044653 L563.4354376169404 395.7589257439684 L564.5633090125871 396.19266215630404 L565.6912033651115 396.60210150586107 L566.8190977176359 396.98851355702845 L567.9469691132828 397.3531718033123 L569.0748634658072 397.69735253505655 L570.2027578183315 398.02233763628084 L571.3306292139785 398.3294155169599 L572.4585235665029 398.6198773839062 L573.5863949621496 398.895020037608 L574.714289314674 399.1561412108329 L575.8421836671985 399.4045358395106 L576.9700550628453 399.64149326589495 L578.0979494153697 399.86829164488853 L579.225843767894 400.0861942149253 L580.353715163541 400.29643811061914 L581.4816095160653 400.50023156592596 L582.6095038685897 400.69874738818896 L583.7373752642366 400.89310990622823 L584.865269616761 401.0843940380617 L585.9931410124078 401.2736141035537 L587.1210353649321 401.46171729845986 L588.2489297174566 401.64957530391354 L589.3768011131035 401.8379842864258 L590.5046954656278 402.027649981417 L591.6325898181523 402.2191942191716 L592.7604612137991 402.41314000836957 L593.8883555663235 402.60991992660007 L595.016249918848 402.80986679756865 L596.1441213144947 403.0132174202142 L597.2720156670191 403.2201121025693 L598.3998870626659 403.43059699245885 L599.5277814151904 403.6446282727562 L600.6556757677147 403.862074492082 L601.7835471633616 404.0827244891776 L602.911441515886 404.3062897236038 L604.0393358684104 404.53241406467293 L605.1672072640572 404.7606807835436 L605.1672072640572 411.0 L604.0393358684104 411.0 L602.911441515886 411.0 L601.7835471633616 411.0 L600.6556757677147 411.0 L599.5277814151904 411.0 L598.3998870626659 411.0 L597.2720156670191 411.0 L596.1441213144947 411.0 L595.016249918848 411.0 L593.8883555663235 411.0 L592.7604612137991 411.0 L591.6325898181523 411.0 L590.5046954656278 411.0 L589.3768011131035 411.0 L588.2489297174566 411.0 L587.1210353649321 411.0 L585.9931410124078 411.0 L584.865269616761 411.0 L583.7373752642366 411.0 L582.6095038685897 411.0 L581.4816095160653 411.0 L580.353715163541 411.0 L579.225843767894 411.0 L578.0979494153697 411.0 L576.9700550628453 411.0 L575.8421836671985 411.0 L574.714289314674 411.0 L573.5863949621496 411.0 L572.4585235665029 411.0 L571.3306292139785 411.0 L570.2027578183315 411.0 L569.0748634658072 411.0 L567.9469691132828 411.0 L566.8190977176359 411.0 L565.6912033651115 411.0 L564.5633090125871 411.0 L563.4354376169404 411.0 L562.3075432644159 411.0 L561.1796718687691 411.0 L560.0517775162447 411.0 L558.9238831637202 411.0 L557.7960117680734 411.0 L556.668117415549 411.0 L555.5402230630247 411.0 L554.4123516673778 411.0 L553.2844573148534 411.0 L552.156562962329 411.0 L551.0286915666821 411.0 L549.9007972141578 411.0 L548.7729258185109 411.0 L547.6450314659866 411.0 L546.5171371134621 411.0 L545.3892657178153 411.0 L544.2613713652909 411.0 L543.1334770127664 411.0 L542.0056056171197 411.0 L540.8777112645953 411.0 L539.7498169120709 411.0 L538.621945516424 411.0 L537.4940511638996 411.0 L536.3661797682528 411.0 L535.2382854157283 411.0 L534.1103910632039 411.0 L532.9825196675572 411.0 L531.8546253150328 411.0 L530.7267309625083 411.0 L529.5988595668615 411.0 L528.4709652143371 411.0 L527.3430938186902 411.0 L526.2151994661658 411.0 L525.0873051136415 411.0 L523.9594337179947 411.0 L522.8315393654702 411.0 L521.7036450129458 411.0 L520.575773617299 411.0 L519.4478792647747 411.0 L518.319996390689 411.0 L517.1921135166034 411.0 L516.064219164079 411.0 L514.9363362899933 411.0 L513.8084534159077 411.0 L512.6805705418221 411.0 L511.5526761892977 411.0 L510.4247933152121 411.0 L509.29691044112644 411.0 L508.16901608860206 411.0 L507.04113321451644 411.0 L505.91325034043086 411.0 L504.7853674663452 411.0 L503.6574731138208 411.0 L502.52959023973517 411.0 L501.4017073656496 411.0 L500.27382449156397 411.0 L499.1459301390396 411.0 L498.0180472649539 411.0 L496.89016439086834 411.0 L495.7622700383439 411.0 L494.6343871642583 411.0 L493.5065042901727 411.0 L492.37862141608707 411.0 L491.25072706356264 411.0 L490.12284418947706 411.0 L488.99496131539144 411.0 L487.8670784413058 411.0 L486.73918408878137 411.0 L485.6113012146958 411.0 L484.48341834061017 411.0 L483.35553546652454 411.0 L482.22764111400016 411.0 L481.09975823991454 411.0 L479.97187536582896 411.0 L478.84398101330453 411.0 L477.7160981392189 411.0 L476.5882152651333 411.0 L475.4603323910477 411.0 L474.33243803852326 411.0 L473.20455516443764 411.0 L472.076672290352 411.0 L470.94878941626644 411.0 L469.820895063742 411.0 L468.69301218965643 411.0 L467.56512931557074 411.0 L466.4372464414852 411.0 L465.30935208896074 411.0 L464.18146921487516 411.0 L463.05358634078954 411.0 L461.92569198826516 411.0 L460.7978091141795 411.0 L459.6699262400939 411.0 L458.5420433660083 411.0 L457.4141490134839 411.0 L456.2862661393982 411.0 L455.15838326531264 411.0 L454.030500391227 411.0 L452.90260603870263 411.0 L451.774723164617 411.0 L450.6468402905314 411.0 L449.518945938007 411.0 L448.39106306392137 411.0 L447.26318018983574 411.0 L446.1352973157501 411.0 L445.00740296322573 411.0 L443.8795200891401 411.0 L442.7516372150545 411.0 L441.62375434096884 411.0 L440.49585998844447 411.0 L439.36797711435884 411.0 L438.24009424027327 411.0 L437.11221136618764 411.0 L435.9843170136632 411.0 L434.8564341395776 411.0 L433.728551265492 411.0 L432.60065691296757 411.0 L431.47277403888194 411.0 L430.3448911647963 411.0 L429.21700829071074 411.0 L428.0891139381863 411.0 L426.96123106410073 411.0 L425.8333481900151 411.0 L424.7054653159295 411.0 L423.57757096340504 411.0 L422.44968808931947 411.0 L421.32180521523384 411.0 L420.19391660192883 411.0 L419.0660337278432 411.0 L417.9381451145382 411.0 L416.8102565012332 411.0 L415.68237362714757 411.0 L414.55448501384257 411.0 L413.42660213975694 411.0 L412.29871352645193 411.0 L411.1708306523663 411.0 L410.0429420390613 411.0 L408.9150591649757 411.0 L407.78717055167067 411.0 L406.65928767758504 411.0 L405.53139906428004 411.0 L404.4035161901944 411.0 L403.2756275768894 411.0 L402.1477389635844 411.0 L401.0198560894988 411.0 L399.89196747619377 411.0 L398.76408460210814 411.0 L397.63619598880314 411.0 L396.50831311471757 411.0 L395.38042450141256 411.0 L394.25254162732693 411.0 L393.1246530140219 411.0 L391.9967701399363 411.0 L390.8688815266313 411.0 L389.74099865254567 411.0 L388.61311003924067 411.0 L387.48522716515504 411.0 L386.35733855185003 411.0 L385.22944993854503 411.0 L384.1015670644594 411.0 L382.9736784511544 411.0 L381.84579557706877 411.0 L380.71790696376377 411.0 L379.59002408967814 411.0 L378.46213547637313 411.0 L377.3342526022875 411.0 L376.2063639889825 411.0 L375.0784811148969 411.0 L373.95059250159187 411.0 L372.8227067578966 411.0 L371.69482101420124 411.0 L370.56693527050595 411.0 L369.4390495268106 411.0 L368.3111637831153 411.0 L367.18327803942 411.0 L366.0553922957247 411.0 L364.92750655202934 411.0 L363.79961793872434 411.0 L362.67173219502905 411.0 L361.5438464513337 411.0 L360.4159607076384 411.0 L359.28807496394313 411.0 L358.1601892202478 411.0 L357.0323034765525 411.0 L355.90441773285715 411.0 L354.77653198916187 411.0 L353.6486462454665 411.0 L352.52076050177124 411.0 L351.3928747580759 411.0 L350.26498757957575 411.0 L349.13710183588046 411.0 L348.0092160921851 411.0 L346.8813303484898 411.0 L345.7534446047945 411.0 L344.62555742629434 411.0 L343.497671682599 411.0 L342.3697859389037 411.0 L341.24190019520836 411.0 L340.11401445151307 411.0 L338.9861287078178 411.0 L337.85824224672 411.0 L336.7303565030247 411.0 L335.6024707593294 411.0 L334.47458429823166 411.0 L333.3466985545363 411.0 L332.21881281084103 411.0 L331.0909267084445 411.0 L329.96304060604797 411.0 L328.8351548623527 411.0 L327.7072688496314 411.0 L326.5793829041667 411.0 L325.4514970035396 411.0 L324.3236109908184 411.0 L323.19572506777246 411.0 L322.0678389653759 411.0 L320.93995322168064 411.0 L319.8120674779853 411.0 L318.6841810168876 411.0 L317.55629527319223 411.0 L316.42840952949695 411.0 L315.30052306839923 411.0 L314.1726380421063 411.0 L313.04475086360617 411.0 L311.9168651199108 411.0 L310.78897937621554 411.0 L309.6610936325202 411.0 L308.5332078888249 411.0 L307.4053221451296 411.0 L306.2774364014343 411.0 L305.1495492229341 411.0 L304.0216634792388 411.0 L302.8937777355435 411.0 L301.76589055704335 411.0 L300.638004813348 411.0 L299.5101190696527 411.0 L298.3822333259574 411.0 L297.2543475822621 411.0 L296.12646183856674 411.0 L294.99857609487145 411.0 L293.8706903511761 411.0 L292.7428046074808 411.0 L291.6149188637855 411.0 L290.4870331200902 411.0 L289.35914737639484 411.0 L288.23126163269956 411.0 L287.10337588900427 411.0 L285.97548727569927 411.0 L284.8476015320039 411.0 L283.7197157883086 411.0 L282.5918300446133 411.0 L281.463944300918 411.0 L280.33605855722266 411.0 L279.20817281352737 411.0 L278.08028420022237 411.0 L276.95240132613674 411.0 L275.82451271283173 411.0 L274.6966298387461 411.0 L273.5687412254411 411.0 L272.4408583513555 411.0 L271.31296973805047 411.0 L270.18508686396484 411.0 L269.05719825065984 411.0 L267.9293153765742 411.0 L266.8014267632692 411.0 L265.6735438891836 411.0 L264.5456552758786 411.0 L263.41777240179294 411.0 L262.28988378848794 411.0 L261.16199517518294 411.0 L260.0341123010973 411.0 L258.9062236877923 411.0 L257.7783408137067 411.0 L256.6504522004017 411.0 L255.52256932631607 411.0 L254.39468071301104 411.0 L253.26679783892544 411.0 L252.13890922562044 411.0 L251.01102635153484 411.0 L249.8831377382298 411.0 L248.7552548641442 411.0 L247.62736625083917 411.0 L246.49947763753417 411.0 L245.37159476344857 411.0 L244.24370615014354 411.0 L243.11582327605794 411.0 L241.98793466275293 411.0 L240.8600517886673 411.0 L239.7321631753623 411.0 L238.60428030127667 411.0 L237.47639168797167 411.0 L236.34850881388604 411.0 L235.22062020058104 411.0 L234.0927373264954 411.0 L232.9648487131904 411.0 L231.8369600998854 411.0 L230.70907722579977 411.0 L229.58118861249477 411.0 L228.45330573840914 411.0 L227.32542286432354 411.0 L226.19752851179913 411.0 L225.0696456377135 411.0 L223.94176276362788 411.0 L222.81387988954228 411.0 L221.68598553701787 411.0 L220.55810266293224 411.0 L219.43021978884664 411.0 L218.30233691476104 411.0 L217.1744425622366 411.0 L216.046559688151 411.0 L214.9186768140654 411.0 L213.79078246154097 411.0 L212.66289958745537 411.0 L211.53501671336977 411.0 L210.40713383928414 411.0 L209.27923948675974 411.0 L208.1513566126741 411.0 L207.0234737385885 411.0 L205.89559086450288 411.0 L204.76769651197847 411.0 L203.63981363789287 411.0 L202.51193076380724 411.0 L201.38404788972161 411.0 L200.25615353719724 411.0 L199.1282706631116 411.0 L198.00038778902598 411.0 L196.87249343650157 411.0 L195.74461056241597 411.0 L194.61672768833034 411.0 L193.48884481424474 411.0 L192.36095046172034 411.0 L191.2330675876347 411.0 L190.1051847135491 411.0 L188.97730183946348 411.0 L187.84940748693907 411.0 L186.72152461285347 411.0 L185.59364173876784 411.0 L184.46574738624344 411.0 L183.3378645121578 411.0 L182.2099816380722 411.0 L181.08209876398658 411.0 L179.95420441146217 411.0 L178.82632153737657 411.0 L177.69843866329094 411.0 L176.57055578920534 411.0 L175.44266143668094 411.0 L174.3147785625953 411.0 L173.1868956885097 411.0 L172.05901281442408 411.0 L170.93111846189967 411.0 L169.80323558781407 411.0 L168.67535271372844 411.0 L167.54745836120404 411.0 L166.4195754871184 411.0 L165.2916926130328 411.0 L164.16380973894718 411.0 L163.03591538642277 411.0 L161.90803251233717 411.0 L160.78014963825154 411.0 L159.65226676416594 411.0 L158.52437241164154 411.0 L157.3964895375559 411.0 L156.2686066634703 411.0 L155.14072378938468 411.0 L154.01282943686027 411.0 L152.88494656277467 411.0 L151.75706368868904 411.0 L150.62916933616464 411.0 L149.501286462079 411.0 L148.3734035879934 411.0 L147.24552071390778 411.0 L146.11762636138337 411.0 L144.98974348729777 411.0 L143.86186061321214 411.0 L142.73397773912654 411.0 L141.60608338660214 411.0 L140.4782005125165 411.0 L139.3503176384309 411.0 L138.2224232859065 411.0 L137.09454041182087 411.0 L135.96665753773524 411.0 L134.83877466364964 411.0 L133.71088031112524 411.0 L132.58300891547842 411.0 L131.455114562954 411.0 L130.3272202104296 411.0 L129.19934881478278 411.0 L128.07145446225837 411.0 L126.94356010973397 411.0 L125.81568871408714 411.0 L124.68779436156274 411.0 L123.55992296591592 411.0 L122.43202861339151 411.0 L121.3041342608671 411.0 L120.17626286522025 411.0 L119.04836851269584 411.0 L117.92047416017144 411.0 L116.79260276452462 411.0 L115.66470841200021 411.0 L114.5368140594758 411.0 L113.40894266382898 411.0 L112.28104831130457 411.0 L111.15317691565775 411.0 L110.02528256313335 411.0 L108.89738821060894 411.0 L107.76951681496212 411.0 L106.64162246243771 411.0 L105.5137281099133 411.0 L104.38585671426648 411.0 L103.25796236174207 411.0 L102.13006800921767 411.0 L101.00219661357085 411.0 L99.87430226104644 411.0 L98.74643086539962 411.0 L97.61853651287521 411.0 L96.4906421603508 411.0 L95.36277076470398 411.0 L94.23487641217957 411.0 L93.10698205965517 411.0 L91.97911066400835 411.0 L90.85121631148394 411.0 L89.72332195895953 411.0 L88.59545056331271 411.0 L87.4675562107883 411.0 L86.33968481514145 411.0 L85.21179046261705 411.0 L84.08389611009264 411.0 L82.95602471444582 411.0 L81.82813036192141 411.0 L80.700236009397 411.0 L79.57236461375018 411.0 L78.44447026122577 411.0 L77.31659886557895 411.0 L76.18870451305455 411.0 L75.06081016053014 411.0 L73.93293876488332 411.0 L72.80504441235891 411.0 L71.6771500598345 411.0 L70.54927866418768 411.0 L69.42138431166325 411.0 L68.29348995913887 411.0 L67.16561856349205 411.0 L66.03772421096761 411.0 L64.90985281532079 411.0 L63.78195846279641 411.0 L62.654064110271975 411.0 L61.526192714625154 411.0 L60.398298362100775 411.0 L59.27040400957634 411.0 L58.14253261392952 411.0 L57.01463826140514 411.0 L55.8867439088807 411.0 L54.75887251323388 411.0 L53.6309781607095 411.0 L52.50310676506268 411.0 L51.37521241253825 411.0 L50.24731806001387 411.0 L49.11944666436705 411.0 L47.99155231184261 411.0 L46.86365795931823 411.0 L45.73578656367141 411.0 L44.607892211146975 411.0 L43.479997858622596 411.0 L42.352126462975775 411.0 L41.22423211045134 411.0 L40.09636071480452 411.0 L38.96846636228008 411.0 L37.840572009755704 411.0 L36.71270061410888 411.0 L35.58480626158445 411.0 L34.45691190906007 411.0 L33.32904051341325 411.0 L32.20114616088881 411.0 L31.07327476524199 411.0 L29.94538041271761 411.0 L28.817486060193175 411.0 Z" fill="rgb(71,71,71)" stroke-width="1.0" fill-opacity="0.10196078431372549">
                </path>
              </g>
              <g>
                <path d="M28.817486060193175 406.2418469590465 L28.817486060193175 406.2418469590465 L29.94538041271761 406.03899603809884 L31.07327476524199 405.8331152094683 L32.20114616088881 405.62431494825046 L33.32904051341325 405.4126968728876 L34.45691190906007 405.19835327902905 L35.58480626158445 404.98136760567104 L36.71270061410888 404.76181583357555 L37.840572009755704 404.5397646207115 L38.96846636228008 404.3152736329533 L40.09636071480452 404.08839554408064 L41.22423211045134 403.8591769680579 L42.352126462975775 403.62765939131333 L43.479997858622596 403.39387917273916 L44.607892211146975 403.15786987438975 L45.73578656367141 402.91966132920214 L46.86365795931823 402.6792796409965 L47.99155231184261 402.43674718447573 L49.11944666436705 402.19208353750474 L50.24731806001387 401.9453036165522 L51.37521241253825 401.69641581213176 L52.50310676506268 401.445419191964 L53.6309781607095 401.19230443325614 L54.75887251323388 400.93704822902595 L55.8867439088807 400.6796095589848 L57.01463826140514 400.4199268926998 L58.14253261392952 400.15791166363863 L59.27040400957634 399.8934454723319 L60.398298362100775 399.62637449269715 L61.526192714625154 399.3565010815256 L62.654064110271975 399.08358191392335 L63.78195846279641 398.80731959279785 L64.90985281532079 398.52735705518205 L66.03772421096761 398.24327291083836 L67.16561856349205 397.95457771314096 L68.29348995913887 397.66070650084197 L69.42138431166325 397.36101879807126 L70.54927866418768 397.0547948852191 L71.6771500598345 396.7412330020988 L72.80504441235891 396.4194512125047 L73.93293876488332 396.08848740421274 L75.06081016053014 395.7473039503763 L76.18870451305455 395.3947877095267 L77.31659886557895 395.0297612129245 L78.44447026122577 394.6509873259557 L79.57236461375018 394.2571776386457 L80.700236009397 393.84700831440693 L81.82813036192141 393.41912009003886 L82.95602471444582 392.9721462441067 L84.08389611009264 392.5047200551757 L85.21179046261705 392.015487853721 L86.33968481514145 391.5031276677138 L87.4675562107883 390.9663697327649 L88.59545056331271 390.4040076794771 L89.72332195895953 389.81491717903015 L90.85121631148394 389.19807272420826 L91.97911066400835 388.55257000410313 L93.10698205965517 387.87762776867214 L94.23487641217957 387.1726139325587 L95.36277076470398 386.43705489788505 L96.4906421603508 385.67064301248644 L97.61853651287521 384.8732533509384 L98.74643086539962 384.0449455791153 L99.87430226104644 383.18597141242464 L101.00219661357085 382.2967764803656 L102.13006800921767 381.37800778476344 L103.25796236174207 380.4305043769764 L104.38585671426648 379.45529735789603 L105.5137281099133 378.4536005551539 L106.64162246243771 377.42681798135646 L107.76951681496212 376.37650840747153 L108.89738821060894 375.3043909565044 L110.02528256313335 374.21233391614624 L111.15317691565775 373.1023211767199 L112.28104831130457 371.9764522311798 L113.40894266382898 370.8369123421746 L114.5368140594758 369.6859688129306 L115.66470841200021 368.52592623784506 L116.79260276452462 367.35912277337 L117.92047416017144 366.1879040341916 L119.04836851269584 365.0146044476445 L120.17626286522025 363.8415174207749 L121.3041342608671 362.6708804238716 L122.43202861339151 361.50484888664624 L123.55992296591592 360.34547755264737 L124.68779436156274 359.1947055627921 L125.81568871408714 358.05431916419434 L126.94356010973397 356.9259628975164 L128.07145446225837 355.8110911184461 L129.19934881478278 354.71098291416513 L130.3272202104296 353.62669735394365 L131.455114562954 352.55909213472574 L132.58300891547842 351.508786289958 L133.71088031112524 350.47616391870656 L134.83877466364964 349.4613704565403 L135.96665753773524 348.46430148817905 L137.09454041182087 347.48459528925946 L138.2224232859065 346.5216477428035 L139.3503176384309 345.57459369363283 L140.4782005125165 344.642314406603 L141.60608338660214 343.72345994130643 L142.73397773912654 342.8164267773694 L143.86186061321214 341.919380189155 L144.98974348729777 341.0302766204661 L146.11762636138337 340.1468487680766 L147.24552071390778 339.26665033113744 L148.3734035879934 338.3870410947077 L149.501286462079 337.5052167626919 L150.62916933616464 336.6182387907774 L151.75706368868904 335.7230194699656 L152.88494656277467 334.8163890506805 L154.01282943686027 333.8950808263005 L155.14072378938468 332.95576842432934 L156.2686066634703 331.99508072286517 L157.3964895375559 331.00963168353746 L158.52437241164154 329.9960501844443 L159.65226676416594 328.9509949366211 L160.78014963825154 327.87117685874307 L161.90803251233717 326.7533889100629 L163.03591538642277 325.5945359233476 L164.16380973894718 324.39163460487885 L165.2916926130328 323.1418657420924 L166.4195754871184 321.842574203579 L167.54745836120404 320.4912913137865 L168.67535271372844 319.08577214419176 L169.80323558781407 317.62397313859753 L170.93111846189967 316.1041192372415 L172.05901281442408 314.52465166915556 L173.1868956885097 312.88430253450946 L174.3147785625953 311.1820724299074 L175.44266143668094 309.41720807368563 L176.57055578920534 307.5892694300205 L177.69843866329094 305.6980625848204 L178.82632153737657 303.74368449513116 L179.95420441146217 301.726493156199 L181.08209876398658 299.6471076014705 L182.2099816380722 297.50637806965545 L183.3378645121578 295.30540837942965 L184.46574738624344 293.0455111800293 L185.59364173876784 290.7281781183136 L186.72152461285347 288.35510967170217 L187.84940748693907 285.92812564936315 L188.97730183946348 283.44920248338514 L190.1051847135491 280.92042847937114 L191.2330675876347 278.34393669232975 L192.36095046172034 275.72196459254985 L193.48884481424474 273.0567496503204 L194.61672768833034 270.3505293359302 L195.74461056241597 267.6055560361368 L196.87249343650157 264.82402247182324 L198.00038778902598 262.00806169799824 L199.1282706631116 259.1597471037961 L200.25615353719724 256.28104766307115 L201.38404788972161 253.3738130179288 L202.51193076380724 250.43977347872573 L203.63981363789287 247.48056985700714 L204.76769651197847 244.49766396669511 L205.89559086450288 241.49239828996298 L207.0234737385885 238.4659810607667 L208.1513566126741 235.41953101425074 L209.27923948675974 232.3539878879364 L210.40713383928414 229.27020192053345 L211.53501671336977 226.16893385194012 L212.66289958745537 223.05088475618027 L213.79078246154097 219.91663637552895 L214.9186768140654 216.76680028519854 L216.046559688151 213.6019134780583 L217.1744425622366 210.42257261285195 L218.30233691476104 207.229344515386 L219.43021978884664 204.02291534321571 L220.55810266293224 200.8040160033021 L221.68598553701787 197.57352656729213 L222.81387988954228 194.33244643858154 L223.94176276362788 191.08195401818907 L225.0696456377135 187.82339178828806 L226.19752851179913 184.55835581101795 L227.32542286432354 181.28866589554696 L228.45330573840914 178.01636559807227 L229.58118861249477 174.74379680416294 L230.70907722579977 171.47356989582264 L231.8369600998854 168.20860850089545 L232.9648487131904 164.95210474366021 L234.0927373264954 161.70754907776757 L235.22062020058104 158.47874520270855 L236.34850881388604 155.26976531440894 L237.47639168797167 152.08497993816633 L238.60428030127667 148.92898334630723 L239.7321631753623 145.80660847465555 L240.8600517886673 142.72298658840714 L241.98793466275293 139.68327878569494 L243.11582327605794 136.6929444940239 L244.24370615014354 133.75750280677312 L245.37159476344857 130.88250265025908 L246.49947763753417 128.0736122825469 L247.62736625083917 125.33644029582734 L248.7552548641442 122.67647595054245 L249.8831377382298 120.09923834007145 L251.01102635153484 117.60988856254733 L252.13890922562044 115.21355788316583 L253.26679783892544 112.91498973893948 L254.39468071301104 110.71859940457159 L255.52256932631607 108.62847399245652 L256.6504522004017 106.6482531209308 L257.7783408137067 104.78103941546169 L258.9062236877923 103.0295178403959 L260.0341123010973 101.39568720252464 L261.16199517518294 99.88100931577014 L262.28988378848794 98.48625983649919 L263.41777240179294 97.21155809646046 L264.5456552758786 96.05627760397311 L265.6735438891836 95.01913554273818 L266.8014267632692 94.0980436071527 L267.9293153765742 93.29025716699573 L269.05719825065984 92.59219626980496 L270.18508686396484 91.99959480556305 L271.31296973805047 91.50747067376005 L272.4408583513555 91.11015561633081 L273.5687412254411 90.80132505059214 L274.6966298387461 90.5739980692428 L275.82451271283173 90.42062693917495 L276.95240132613674 90.33318660028584 L278.08028420022237 90.30314483254062 L279.20817281352737 90.32155175478374 L280.33605855722266 90.37921882236225 L281.463944300918 90.46662932831418 L282.5918300446133 90.57405773511715 L283.7197157883086 90.69183817112338 L284.8476015320039 90.81012576706172 L285.97548727569927 90.91928448422146 L287.10337588900427 91.0097976156406 L288.23126163269956 91.07235728491747 L289.35914737639484 91.09801361089654 L290.4870331200902 91.0782940394173 L291.6149188637855 91.0051138445026 L292.7428046074808 90.87095512598182 L293.8706903511761 90.66898614123971 L294.99857609487145 90.39294197346732 L296.12646183856674 90.03739302809703 L297.2543475822621 89.59759586811646 L298.3822333259574 89.06958271287994 L299.5101190696527 88.45025093692027 L300.638004813348 87.73733323701146 L301.76589055704335 86.92936779923133 L302.8937777355435 86.02572813189903 L304.0216634792388 85.02659323263777 L305.1495492229341 83.9329177554373 L306.2774364014343 82.7464618435917 L307.4053221451296 81.46970163088719 L308.5332078888249 80.10573974279112 L309.6610936325202 78.65836496232583 L310.78897937621554 77.13193289832049 L311.9168651199108 75.53127648659898 L313.04475086360617 73.86170598998018 L314.1726380421063 72.12891949946646 L315.30052306839923 70.33897310130641 L316.42840952949695 68.4981317123088 L317.55629527319223 66.61289891278 L318.6841810168876 64.6899274477122 L319.8120674779853 62.73598939384647 L320.93995322168064 60.757797162049314 L322.0678389653759 58.762182494936155 L323.19572506777246 56.75588763631083 L324.3236109908184 54.745565331165494 L325.4514970035396 52.73777882568089 L326.5793829041667 50.73897203428896 L327.7072688496314 48.75543970673573 L328.8351548623527 46.79335726101846 L329.96304060604797 44.85869128457415 L331.0909267084445 42.95725920015394 L332.21881281084103 41.09475909876005 L333.3466985545363 39.27673990670894 L334.47458429823166 37.50851188681952 L335.6024707593294 35.79541513484787 L336.7303565030247 34.14249141717829 L337.85824224672 32.554752667257844 L338.9861287078178 31.037121319722075 L340.11401445151307 29.594340811583322 L341.24190019520836 28.231094913979632 L342.3697859389037 26.95194806630036 L343.497671682599 25.761285710311654 L344.62555742629434 24.66340378896814 L345.7534446047945 23.662508746412925 L346.8813303484898 22.762478864480045 L348.0092160921851 21.96716259206636 L349.13710183588046 21.280080215759654 L350.26498757957575 20.704483525713158 L351.3928747580759 20.24338564858249 L352.52076050177124 19.899382049902783 L353.6486462454665 19.67479969877445 L354.77653198916187 19.571428571428612 L355.90441773285715 19.59070064885009 L357.0323034765525 19.73351091915447 L358.1601892202478 20.000217377587944 L359.28807496394313 20.390670859464592 L360.4159607076384 20.90415537429203 L361.5438464513337 21.539298606959733 L362.67173219502905 22.294221082424997 L363.79961793872434 23.166387001027147 L364.92750655202934 24.152663904361702 L366.0553922957247 25.24944200702936 L367.18327803942 26.452425366075488 L368.3111637831153 27.756930210361986 L369.4390495268106 29.15773577588152 L370.56693527050595 30.649203637506105 L371.69482101420124 32.22539704073597 L372.8227067578966 33.879991402887924 L373.95059250159187 35.60651297659274 L375.0784811148969 37.39833884979549 L376.2063639889825 39.24869694575506 L377.3342526022875 41.15090468654216 L378.46213547637313 43.098368993038775 L379.59002408967814 45.08464595081301 L380.71790696376377 47.103560141867604 L381.84579557706877 49.149234477577124 L382.9736784511544 51.216209530436686 L384.1015670644594 53.29953303287357 L385.22944993854503 55.394700211372935 L386.35733855185003 57.49786261703781 L387.48522716515504 59.60570879384073 L388.61311003924067 61.71561344330945 L389.74099865254567 63.82563742452692 L390.8688815266313 65.9345277541313 L391.9967701399363 68.04165794044184 L393.1246530140219 70.14711748226995 L394.25254162732693 72.25162237010818 L395.38042450141256 74.35657475200418 L396.50831311471757 76.46385410300064 L397.63619598880314 78.57599622275819 L398.76408460210814 80.6958650732467 L399.89196747619377 82.82689144224236 L401.0198560894988 84.97271494808172 L402.1477389635844 87.13730337141044 L403.2756275768894 89.3248333234344 L404.4035161901944 91.53951124829666 L405.53139906428004 93.78566292188907 L406.65928767758504 96.06743512248028 L407.78717055167067 98.38894479540187 L408.9150591649757 100.75401055661348 L410.0429420390613 103.16624219151453 L411.1708306523663 105.62877215850938 L412.29871352645193 108.14443458663067 L413.42660213975694 110.71552661204157 L414.55448501384257 113.34380837803604 L415.68237362714757 116.03056270091298 L416.8102565012332 118.77635640647901 L417.9381451145382 121.58130882648277 L419.0660337278432 124.44482330218062 L420.19391660192883 127.36570651608508 L421.32180521523384 130.34219832490237 L422.44968808931947 133.3719419265948 L423.57757096340504 136.45204352625535 L424.7054653159295 139.5790723361079 L425.8333481900151 142.74915007431832 L426.96123106410073 145.957980797932 L428.0891139381863 149.2009105687481 L429.21700829071074 152.47298711919387 L430.3448911647963 155.7689598523248 L431.47277403888194 159.08351850532196 L432.60065691296757 162.41115890127472 L433.728551265492 165.74634703033527 L434.8564341395776 169.08360854853018 L435.9843170136632 172.41749894482317 L437.11221136618764 175.74279745520693 L438.24009424027327 179.05440264742276 L439.36797711435884 182.34749650211535 L440.49585998844447 185.61754441283256 L441.62375434096884 188.86036976836849 L442.7516372150545 192.0721241198263 L443.8795200891401 195.2493468464925 L445.00740296322573 198.38899498877427 L446.1352973157501 201.48844324819933 L447.26318018983574 204.54546907094735 L448.39106306392137 207.5582824807873 L449.518945938007 210.52551116260864 L450.6468402905314 213.44617062948424 L451.774723164617 216.31964930620185 L452.90260603870263 219.14572344573256 L454.030500391227 221.92448254688793 L455.15838326531264 224.65635918725715 L456.2862661393982 227.3420246079269 L457.4141490134839 229.98241854641844 L458.5420433660083 232.57870448728207 L459.6699262400939 235.13220999622243 L460.7978091141795 237.64445655303604 L461.92569198826516 240.11702530339363 L463.05358634078954 242.55167639058917 L464.18146921487516 244.95018487438512 L465.30935208896074 247.31440039688695 L466.4372464414852 249.64618751666876 L467.56512931557074 251.94741079230457 L468.69301218965643 254.21997953177424 L469.820895063742 256.465713544246 L470.94878941626644 258.68647738829407 L472.076672290352 260.8840461236807 L473.20455516443764 263.0602097266372 L474.33243803852326 265.2166835910516 L475.4603323910477 267.35515327787493 L476.5882152651333 269.47725959865227 L477.7160981392189 271.58462844846025 L478.84398101330453 273.6788558894383 L479.97187536582896 275.76146340138274 L481.09975823991454 277.8339873805587 L482.22764111400016 279.89791947382537 L483.35553546652454 281.95473641157344 L484.48341834061017 284.0058850912564 L485.6113012146958 286.0527602026876 L486.73918408878137 288.09677135214906 L487.8670784413058 290.13923864711114 L488.99496131539144 292.1814672785758 L490.12284418947706 294.2247027716704 L491.25072706356264 296.2701086109453 L492.37862141608707 298.31878115684185 L493.5065042901727 300.3717198127558 L494.6343871642583 302.4298121085686 L495.7622700383439 304.4938262424125 L496.89016439086834 306.5643663312657 L498.0180472649539 308.6419171603573 L499.1459301390396 310.7267472261221 L500.27382449156397 312.8189758603087 L501.4017073656496 314.91849118940274 L502.52959023973517 317.02498742579803 L503.6574731138208 319.13793503485965 L504.7853674663452 321.2565732766892 L505.91325034043086 323.37992512259405 L507.04113321451644 325.5067599639152 L508.16901608860206 327.63566073613646 L509.29691044112644 329.76494933654106 L510.4247933152121 331.89276866478934 L511.5526761892977 334.0170677064498 L512.6805705418221 336.1355940747649 L513.8084534159077 338.24596113476 L514.9363362899933 340.3456480032429 L516.064219164079 342.43201446527263 L517.1921135166034 344.5023308070969 L518.319996390689 346.5538374820261 L519.4478792647747 348.58373392308187 L520.575773617299 350.58922329240323 L521.7036450129458 352.5675460433006 L522.8315393654702 354.51600975319286 L523.9594337179947 356.4320003109594 L525.0873051136415 358.3130341245794 L526.2151994661658 360.1567581211325 L527.3430938186902 361.96098703796986 L528.4709652143371 363.7237146100658 L529.5988595668615 365.4431247573692 L530.7267309625083 367.1176214177407 L531.8546253150328 368.74581735960106 L532.9825196675572 370.32654909840016 L534.1103910632039 371.85889181308534 L535.2382854157283 373.3421332422812 L536.3661797682528 374.7757811425242 L537.4940511638996 376.159574475614 L538.621945516424 377.49343865920764 L539.7498169120709 378.77751167063957 L540.8777112645953 380.01210302663316 L542.0056056171197 381.1976900541833 L543.1334770127664 382.33490483864654 L544.2613713652909 383.42451184903837 L545.3892657178153 384.46739861524 L546.5171371134621 385.46454962417846 L547.6450314659866 386.41703699703396 L548.7729258185109 387.32600370821234 L549.9007972141578 388.19264866887664 L551.0286915666821 389.0182136750373 L552.156562962329 389.803974084759 L553.2844573148534 390.55122017257486 L554.4123516673778 391.2612627231625 L555.5402230630247 391.9354106566409 L556.668117415549 392.57497662224625 L557.7960117680734 393.18126767553895 L558.9238831637202 393.75558900752077 L560.0517775162447 394.29923089272506 L561.1796718687691 394.813483605685 L562.3075432644159 395.2996225044653 L563.4354376169404 395.7589257439684 L564.5633090125871 396.19266215630404 L565.6912033651115 396.60210150586107 L566.8190977176359 396.98851355702845 L567.9469691132828 397.3531718033123 L569.0748634658072 397.69735253505655 L570.2027578183315 398.02233763628084 L571.3306292139785 398.3294155169599 L572.4585235665029 398.6198773839062 L573.5863949621496 398.895020037608 L574.714289314674 399.1561412108329 L575.8421836671985 399.4045358395106 L576.9700550628453 399.64149326589495 L578.0979494153697 399.86829164488853 L579.225843767894 400.0861942149253 L580.353715163541 400.29643811061914 L581.4816095160653 400.50023156592596 L582.6095038685897 400.69874738818896 L583.7373752642366 400.89310990622823 L584.865269616761 401.0843940380617 L585.9931410124078 401.2736141035537 L587.1210353649321 401.46171729845986 L588.2489297174566 401.64957530391354 L589.3768011131035 401.8379842864258 L590.5046954656278 402.027649981417 L591.6325898181523 402.2191942191716 L592.7604612137991 402.41314000836957 L593.8883555663235 402.60991992660007 L595.016249918848 402.80986679756865 L596.1441213144947 403.0132174202142 L597.2720156670191 403.2201121025693 L598.3998870626659 403.43059699245885 L599.5277814151904 403.6446282727562 L600.6556757677147 403.862074492082 L601.7835471633616 404.0827244891776 L602.911441515886 404.3062897236038 L604.0393358684104 404.53241406467293 L605.1672072640572 404.7606807835436 " fill="none" stroke-width="1.6500000000000001" stroke="rgb(71,71,71)" stroke-opacity="1.0">
                </path>
              </g>
            </g>
          </g>
        </g>
        <defs>
          <clipPath id="xXxprefixXx1">
            <rect x="35.01530667574961" y="0.0" width="633.9846933242504" height="411.0">
            </rect>
          </clipPath>
        </defs>
      </g>
      <g>
        <g transform="translate(35.01530667574961 411.0 ) ">
          <g transform="translate(38.063621032350966 0.0 ) ">
            <line stroke-width="1.0" stroke="rgb(71,71,71)" stroke-opacity="1.0" x2="0.0" y2="4.0">
            </line>
            <g transform="translate(0.0 7.0 ) ">
              <text class="axis-text-x" text-anchor="middle" dy="0.7em">
                <tspan>-3</tspan>
              </text>
            </g>
          </g>
          <g transform="translate(134.35174450572887 0.0 ) ">
            <line stroke-width="1.0" stroke="rgb(71,71,71)" stroke-opacity="1.0" x2="0.0" y2="4.0">
            </line>
            <g transform="translate(0.0 7.0 ) ">
              <text class="axis-text-x" text-anchor="middle" dy="0.7em">
                <tspan>-2</tspan>
              </text>
            </g>
          </g>
          <g transform="translate(230.63986797910678 0.0 ) ">
            <line stroke-width="1.0" stroke="rgb(71,71,71)" stroke-opacity="1.0" x2="0.0" y2="4.0">
            </line>
            <g transform="translate(0.0 7.0 ) ">
              <text class="axis-text-x" text-anchor="middle" dy="0.7em">
                <tspan>-1</tspan>
              </text>
            </g>
          </g>
          <g transform="translate(326.9279914524847 0.0 ) ">
            <line stroke-width="1.0" stroke="rgb(71,71,71)" stroke-opacity="1.0" x2="0.0" y2="4.0">
            </line>
            <g transform="translate(0.0 7.0 ) ">
              <text class="axis-text-x" text-anchor="middle" dy="0.7em">
                <tspan>0</tspan>
              </text>
            </g>
          </g>
          <g transform="translate(423.21611492586266 0.0 ) ">
            <line stroke-width="1.0" stroke="rgb(71,71,71)" stroke-opacity="1.0" x2="0.0" y2="4.0">
            </line>
            <g transform="translate(0.0 7.0 ) ">
              <text class="axis-text-x" text-anchor="middle" dy="0.7em">
                <tspan>1</tspan>
              </text>
            </g>
          </g>
          <g transform="translate(519.5042383992405 0.0 ) ">
            <line stroke-width="1.0" stroke="rgb(71,71,71)" stroke-opacity="1.0" x2="0.0" y2="4.0">
            </line>
            <g transform="translate(0.0 7.0 ) ">
              <text class="axis-text-x" text-anchor="middle" dy="0.7em">
                <tspan>2</tspan>
              </text>
            </g>
          </g>
          <g transform="translate(615.7923618726185 0.0 ) ">
            <line stroke-width="1.0" stroke="rgb(71,71,71)" stroke-opacity="1.0" x2="0.0" y2="4.0">
            </line>
            <g transform="translate(0.0 7.0 ) ">
              <text class="axis-text-x" text-anchor="middle" dy="0.7em">
                <tspan>3</tspan>
              </text>
            </g>
          </g>
          <line x1="0.0" y1="0.0" x2="633.9846933242504" y2="0.0" stroke-width="1.0" stroke="rgb(71,71,71)" stroke-opacity="1.0">
          </line>
        </g>
        <g transform="translate(35.01530667574961 0.0 ) ">
          <g transform="translate(0.0 411.0 ) ">
            <g transform="translate(-3.0 0.0 ) ">
              <text class="axis-text-y" text-anchor="end" dy="0.35em">
                <tspan>0.00</tspan>
              </text>
            </g>
          </g>
          <g transform="translate(0.0 360.9486368933591 ) ">
            <g transform="translate(-3.0 0.0 ) ">
              <text class="axis-text-y" text-anchor="end" dy="0.35em">
                <tspan>0.05</tspan>
              </text>
            </g>
          </g>
          <g transform="translate(0.0 310.89727378671813 ) ">
            <g transform="translate(-3.0 0.0 ) ">
              <text class="axis-text-y" text-anchor="end" dy="0.35em">
                <tspan>0.10</tspan>
              </text>
            </g>
          </g>
          <g transform="translate(0.0 260.84591068007717 ) ">
            <g transform="translate(-3.0 0.0 ) ">
              <text class="axis-text-y" text-anchor="end" dy="0.35em">
                <tspan>0.15</tspan>
              </text>
            </g>
          </g>
          <g transform="translate(0.0 210.79454757343626 ) ">
            <g transform="translate(-3.0 0.0 ) ">
              <text class="axis-text-y" text-anchor="end" dy="0.35em">
                <tspan>0.20</tspan>
              </text>
            </g>
          </g>
          <g transform="translate(0.0 160.74318446679533 ) ">
            <g transform="translate(-3.0 0.0 ) ">
              <text class="axis-text-y" text-anchor="end" dy="0.35em">
                <tspan>0.25</tspan>
              </text>
            </g>
          </g>
          <g transform="translate(0.0 110.69182136015439 ) ">
            <g transform="translate(-3.0 0.0 ) ">
              <text class="axis-text-y" text-anchor="end" dy="0.35em">
                <tspan>0.30</tspan>
              </text>
            </g>
          </g>
          <g transform="translate(0.0 60.640458253513486 ) ">
            <g transform="translate(-3.0 0.0 ) ">
              <text class="axis-text-y" text-anchor="end" dy="0.35em">
                <tspan>0.35</tspan>
              </text>
            </g>
          </g>
          <g transform="translate(0.0 10.58909514687258 ) ">
            <g transform="translate(-3.0 0.0 ) ">
              <text class="axis-text-y" text-anchor="end" dy="0.35em">
                <tspan>0.40</tspan>
              </text>
            </g>
          </g>
        </g>
      </g>
    </g>
    <g transform="translate(16.0 212.0 ) rotate(-90.0 ) ">
      <text class="axis-title-y" y="0.0" text-anchor="middle">
        <tspan>density*</tspan>
      </text>
    </g>
    <g transform="translate(381.50765333787484 463.0 ) ">
      <text class="axis-title-x" y="0.0" text-anchor="middle">
        <tspan>sample</tspan>
      </text>
    </g>
    <path fill="rgb(0,0,0)" fill-opacity="0.0" stroke="rgb(71,71,71)" stroke-opacity="1.0" stroke-width="0.0" d="M0.0 0.0 L0.0 470.0 L705.0 470.0 L705.0 0.0 Z">
    </path>
  </g>
  <g id="xXxprefixXx2">
  </g>
</svg>