<svg xmlns="http://www.w3.org/2000/svg" xmlns:xlink="http://www.w3.org/1999/xlink" display="block" class="plt-container" width="705.0" height="470.0">
  <style type="text/css">
  .plt-container {
   font-family: Lucida Grande, sans-serif;
   user-select: none;
   -webkit-user-select: none;
   -moz-user-select: none;
   -ms-user-select: none;
}
text {
   text-rendering: optimizeLegibility;
}
#xXxprefixXx0 .plot-title {
fill: #bbbbbb;
font-weight: normal;
   font-style: normal;font-family: Lucida Grande, sans-serif;
font-size: 16.0px;

}
#xXxprefixXx0 .plot-subtitle {
fill: #bbbbbb;
font-weight: normal;
   font-style: normal;font-family: Lucida Grande, sans-serif;
font-size: 15.0px;

}
#xXxprefixXx0 .plot-caption {
fill: #bbbbbb;
font-weight: normal;
   font-style: normal;font-family: Lucida Grande, sans-serif;
font-size: 13.0px;

}
#xXxprefixXx0 .hyperlink-element {
fill: #118ed8;
font-weight: normal;
   font-style: normal;
}
#xXxprefixXx0 .legend-title {
fill: #bbbbbb;
font-weight: normal;
   font-style: normal;font-family: Lucida Grande, sans-serif;
font-size: 15.0px;

}
#xXxprefixXx0 .legend-item {
fill: #bbbbbb;
font-weight: normal;
   font-style: normal;font-family: Lucida Grande, sans-serif;
font-size: 13.0px;

}
#xXxprefixXx0 .axis-title-x {
fill: #bbbbbb;
font-weight: normal;
   font-style: normal;font-family: Lucida Grande, sans-serif;
font-size: 15.0px;

}
#xXxprefixXx0 .axis-text-x {
fill: #bbbbbb;
font-weight: normal;
   font-style: normal;font-family: Lucida Grande, sans-serif;
font-size: 13.0px;

}
#xXxprefixXx2 .axis-tooltip-text-x {
fill: #303030;
font-weight: normal;
   font-style: normal;font-family: Lucida Grande, sans-serif;
font-size: 13.0px;

}
#xXxprefixXx0 .axis-title-y {
fill: #bbbbbb;
font-weight: normal;
   font-style: normal;font-family: Lucida Grande, sans-serif;
font-size: 15.0px;

}
#xXxprefixXx0 .axis-text-y {
fill: #bbbbbb;
font-weight: normal;
   font-style: normal;font-family: Lucida Grande, sans-serif;
font-size: 13.0px;

}
#xXxprefixXx2 .axis-tooltip-text-y {
fill: #303030;
font-weight: normal;
   font-style: normal;font-family: Lucida Grande, sans-serif;
font-size: 13.0px;

}
#xXxprefixXx0 .facet-strip-text-x {
fill: #bbbbbb;
font-weight: normal;
   font-style: normal;font-family: Lucida Grande, sans-serif;
font-size: 13.0px;

}
#xXxprefixXx0 .facet-strip-text-y {
fill: #bbbbbb;
font-weight: normal;
   font-style: normal;font-family: Lucida Grande, sans-serif;
font-size: 13.0px;

}
#xXxprefixXx2 .tooltip-text {
fill: #bbbbbb;
font-weight: normal;
   font-style: normal;font-family: Lucida Grande, sans-serif;
font-size: 13.0px;

}
#xXxprefixXx2 .tooltip-title {
fill: #bbbbbb;
font-weight: bold;
   font-style: normal;font-family: Lucida Grande, sans-serif;
font-size: 13.0px;

}
#xXxprefixXx2 .tooltip-label {
fill: #bbbbbb;
font-weight: bold;
   font-style: normal;font-family: Lucida Grande, sans-serif;
font-size: 13.0px;

}

  </style>
  <g id="xXxprefixXx0">
    <path fill-rule="evenodd" fill="rgb(25,25,28)" fill-opacity="1.0" d="M0.0 0.0 L0.0 470.0 L705.0 470.0 L705.0 0.0 Z">
    </path>
    <g transform="translate(29.5 26.5 ) ">
      <g>
        <g transform="translate(27.034701220281416 0.0 ) ">
          <g>
            <line x1="7.565222543304344" y1="0.0" x2="7.565222543304344" y2="391.0" stroke="rgb(71,71,71)" stroke-opacity="1.0" stroke-width="1.0" fill="none">
            </line>
            <line x1="69.32235040571732" y1="0.0" x2="69.32235040571732" y2="391.0" stroke="rgb(71,71,71)" stroke-opacity="1.0" stroke-width="1.0" fill="none">
            </line>
            <line x1="131.0794782681303" y1="0.0" x2="131.0794782681303" y2="391.0" stroke="rgb(71,71,71)" stroke-opacity="1.0" stroke-width="1.0" fill="none">
            </line>
            <line x1="192.8366061305435" y1="0.0" x2="192.8366061305435" y2="391.0" stroke="rgb(71,71,71)" stroke-opacity="1.0" stroke-width="1.0" fill="none">
            </line>
            <line x1="254.59373399295646" y1="0.0" x2="254.59373399295646" y2="391.0" stroke="rgb(71,71,71)" stroke-opacity="1.0" stroke-width="1.0" fill="none">
            </line>
            <line x1="316.35086185536943" y1="0.0" x2="316.35086185536943" y2="391.0" stroke="rgb(71,71,71)" stroke-opacity="1.0" stroke-width="1.0" fill="none">
            </line>
            <line x1="378.1079897177824" y1="0.0" x2="378.1079897177824" y2="391.0" stroke="rgb(71,71,71)" stroke-opacity="1.0" stroke-width="1.0" fill="none">
            </line>
            <line x1="439.8651175801954" y1="0.0" x2="439.8651175801954" y2="391.0" stroke="rgb(71,71,71)" stroke-opacity="1.0" stroke-width="1.0" fill="none">
            </line>
            <line x1="501.62224544260835" y1="0.0" x2="501.62224544260835" y2="391.0" stroke="rgb(71,71,71)" stroke-opacity="1.0" stroke-width="1.0" fill="none">
            </line>
            <line x1="563.3793733050213" y1="0.0" x2="563.3793733050213" y2="391.0" stroke="rgb(71,71,71)" stroke-opacity="1.0" stroke-width="1.0" fill="none">
            </line>
            <line x1="625.1365011674343" y1="0.0" x2="625.1365011674343" y2="391.0" stroke="rgb(71,71,71)" stroke-opacity="1.0" stroke-width="1.0" fill="none">
            </line>
          </g>
        </g>
        <g transform="translate(27.034701220281416 0.0 ) ">
          <g>
            <line x1="0.0" y1="391.0" x2="641.9652987797186" y2="391.0" stroke="rgb(71,71,71)" stroke-opacity="1.0" stroke-width="1.0" fill="none">
            </line>
            <line x1="0.0" y1="353.52533291708346" x2="641.9652987797186" y2="353.52533291708346" stroke="rgb(71,71,71)" stroke-opacity="1.0" stroke-width="1.0" fill="none">
            </line>
            <line x1="0.0" y1="316.05066583416686" x2="641.9652987797186" y2="316.05066583416686" stroke="rgb(71,71,71)" stroke-opacity="1.0" stroke-width="1.0" fill="none">
            </line>
            <line x1="0.0" y1="278.57599875125027" x2="641.9652987797186" y2="278.57599875125027" stroke="rgb(71,71,71)" stroke-opacity="1.0" stroke-width="1.0" fill="none">
            </line>
            <line x1="0.0" y1="241.10133166833373" x2="641.9652987797186" y2="241.10133166833373" stroke="rgb(71,71,71)" stroke-opacity="1.0" stroke-width="1.0" fill="none">
            </line>
            <line x1="0.0" y1="203.62666458541716" x2="641.9652987797186" y2="203.62666458541716" stroke="rgb(71,71,71)" stroke-opacity="1.0" stroke-width="1.0" fill="none">
            </line>
            <line x1="0.0" y1="166.1519975025006" x2="641.9652987797186" y2="166.1519975025006" stroke="rgb(71,71,71)" stroke-opacity="1.0" stroke-width="1.0" fill="none">
            </line>
            <line x1="0.0" y1="128.67733041958405" x2="641.9652987797186" y2="128.67733041958405" stroke="rgb(71,71,71)" stroke-opacity="1.0" stroke-width="1.0" fill="none">
            </line>
            <line x1="0.0" y1="91.20266333666746" x2="641.9652987797186" y2="91.20266333666746" stroke="rgb(71,71,71)" stroke-opacity="1.0" stroke-width="1.0" fill="none">
            </line>
            <line x1="0.0" y1="53.727996253750916" x2="641.9652987797186" y2="53.727996253750916" stroke="rgb(71,71,71)" stroke-opacity="1.0" stroke-width="1.0" fill="none">
            </line>
            <line x1="0.0" y1="16.253329170834377" x2="641.9652987797186" y2="16.253329170834377" stroke="rgb(71,71,71)" stroke-opacity="1.0" stroke-width="1.0" fill="none">
            </line>
          </g>
        </g>
        <g transform="translate(27.034701220281416 391.0 ) ">
          <g transform="translate(7.565222543304344 0.0 ) ">
            <line stroke-width="1.0" stroke="rgb(187,187,187)" stroke-opacity="1.0" x2="0.0" y2="4.0">
            </line>
            <g transform="translate(0.0 7.0 ) ">
              <text class="axis-text-x" text-anchor="middle" dy="0.7em">
                <tspan>4.6</tspan>
              </text>
            </g>
          </g>
          <g transform="translate(69.32235040571732 0.0 ) ">
            <line stroke-width="1.0" stroke="rgb(187,187,187)" stroke-opacity="1.0" x2="0.0" y2="4.0">
            </line>
            <g transform="translate(0.0 7.0 ) ">
              <text class="axis-text-x" text-anchor="middle" dy="0.7em">
                <tspan>4.8</tspan>
              </text>
            </g>
          </g>
          <g transform="translate(131.0794782681303 0.0 ) ">
            <line stroke-width="1.0" stroke="rgb(187,187,187)" stroke-opacity="1.0" x2="0.0" y2="4.0">
            </line>
            <g transform="translate(0.0 7.0 ) ">
              <text class="axis-text-x" text-anchor="middle" dy="0.7em">
                <tspan>5.0</tspan>
              </text>
            </g>
          </g>
          <g transform="translate(192.8366061305435 0.0 ) ">
            <line stroke-width="1.0" stroke="rgb(187,187,187)" stroke-opacity="1.0" x2="0.0" y2="4.0">
            </line>
            <g transform="translate(0.0 7.0 ) ">
              <text class="axis-text-x" text-anchor="middle" dy="0.7em">
                <tspan>5.2</tspan>
              </text>
            </g>
          </g>
          <g transform="translate(254.59373399295646 0.0 ) ">
            <line stroke-width="1.0" stroke="rgb(187,187,187)" stroke-opacity="1.0" x2="0.0" y2="4.0">
            </line>
            <g transform="translate(0.0 7.0 ) ">
              <text class="axis-text-x" text-anchor="middle" dy="0.7em">
                <tspan>5.4</tspan>
              </text>
            </g>
          </g>
          <g transform="translate(316.35086185536943 0.0 ) ">
            <line stroke-width="1.0" stroke="rgb(187,187,187)" stroke-opacity="1.0" x2="0.0" y2="4.0">
            </line>
            <g transform="translate(0.0 7.0 ) ">
              <text class="axis-text-x" text-anchor="middle" dy="0.7em">
                <tspan>5.6</tspan>
              </text>
            </g>
          </g>
          <g transform="translate(378.1079897177824 0.0 ) ">
            <line stroke-width="1.0" stroke="rgb(187,187,187)" stroke-opacity="1.0" x2="0.0" y2="4.0">
            </line>
            <g transform="translate(0.0 7.0 ) ">
              <text class="axis-text-x" text-anchor="middle" dy="0.7em">
                <tspan>5.8</tspan>
              </text>
            </g>
          </g>
          <g transform="translate(439.8651175801954 0.0 ) ">
            <line stroke-width="1.0" stroke="rgb(187,187,187)" stroke-opacity="1.0" x2="0.0" y2="4.0">
            </line>
            <g transform="translate(0.0 7.0 ) ">
              <text class="axis-text-x" text-anchor="middle" dy="0.7em">
                <tspan>6.0</tspan>
              </text>
            </g>
          </g>
          <g transform="translate(501.62224544260835 0.0 ) ">
            <line stroke-width="1.0" stroke="rgb(187,187,187)" stroke-opacity="1.0" x2="0.0" y2="4.0">
            </line>
            <g transform="translate(0.0 7.0 ) ">
              <text class="axis-text-x" text-anchor="middle" dy="0.7em">
                <tspan>6.2</tspan>
              </text>
            </g>
          </g>
          <g transform="translate(563.3793733050213 0.0 ) ">
            <line stroke-width="1.0" stroke="rgb(187,187,187)" stroke-opacity="1.0" x2="0.0" y2="4.0">
            </line>
            <g transform="translate(0.0 7.0 ) ">
              <text class="axis-text-x" text-anchor="middle" dy="0.7em">
                <tspan>6.4</tspan>
              </text>
            </g>
          </g>
          <g transform="translate(625.1365011674343 0.0 ) ">
            <line stroke-width="1.0" stroke="rgb(187,187,187)" stroke-opacity="1.0" x2="0.0" y2="4.0">
            </line>
            <g transform="translate(0.0 7.0 ) ">
              <text class="axis-text-x" text-anchor="middle" dy="0.7em">
                <tspan>6.6</tspan>
              </text>
            </g>
          </g>
          <line x1="0.0" y1="0.0" x2="641.9652987797186" y2="0.0" stroke-width="1.0" stroke="rgb(187,187,187)" stroke-opacity="1.0">
          </line>
        </g>
        <g transform="translate(27.034701220281416 0.0 ) ">
          <g transform="translate(0.0 391.0 ) ">
            <g transform="translate(-3.0 0.0 ) ">
              <text class="axis-text-y" text-anchor="end" dy="0.35em">
                <tspan>0.0</tspan>
              </text>
            </g>
          </g>
          <g transform="translate(0.0 353.52533291708346 ) ">
            <g transform="translate(-3.0 0.0 ) ">
              <text class="axis-text-y" text-anchor="end" dy="0.35em">
                <tspan>0.1</tspan>
              </text>
            </g>
          </g>
          <g transform="translate(0.0 316.05066583416686 ) ">
            <g transform="translate(-3.0 0.0 ) ">
              <text class="axis-text-y" text-anchor="end" dy="0.35em">
                <tspan>0.2</tspan>
              </text>
            </g>
          </g>
          <g transform="translate(0.0 278.57599875125027 ) ">
            <g transform="translate(-3.0 0.0 ) ">
              <text class="axis-text-y" text-anchor="end" dy="0.35em">
                <tspan>0.3</tspan>
              </text>
            </g>
          </g>
          <g transform="translate(0.0 241.10133166833373 ) ">
            <g transform="translate(-3.0 0.0 ) ">
              <text class="axis-text-y" text-anchor="end" dy="0.35em">
                <tspan>0.4</tspan>
              </text>
            </g>
          </g>
          <g transform="translate(0.0 203.62666458541716 ) ">
            <g transform="translate(-3.0 0.0 ) ">
              <text class="axis-text-y" text-anchor="end" dy="0.35em">
                <tspan>0.5</tspan>
              </text>
            </g>
          </g>
          <g transform="translate(0.0 166.1519975025006 ) ">
            <g transform="translate(-3.0 0.0 ) ">
              <text class="axis-text-y" text-anchor="end" dy="0.35em">
                <tspan>0.6</tspan>
              </text>
            </g>
          </g>
          <g transform="translate(0.0 128.67733041958405 ) ">
            <g transform="translate(-3.0 0.0 ) ">
              <text class="axis-text-y" text-anchor="end" dy="0.35em">
                <tspan>0.7</tspan>
              </text>
            </g>
          </g>
          <g transform="translate(0.0 91.20266333666746 ) ">
            <g transform="translate(-3.0 0.0 ) ">
              <text class="axis-text-y" text-anchor="end" dy="0.35em">
                <tspan>0.8</tspan>
              </text>
            </g>
          </g>
          <g transform="translate(0.0 53.727996253750916 ) ">
            <g transform="translate(-3.0 0.0 ) ">
              <text class="axis-text-y" text-anchor="end" dy="0.35em">
                <tspan>0.9</tspan>
              </text>
            </g>
          </g>
          <g transform="translate(0.0 16.253329170834377 ) ">
            <g transform="translate(-3.0 0.0 ) ">
              <text class="axis-text-y" text-anchor="end" dy="0.35em">
                <tspan>1.0</tspan>
              </text>
            </g>
          </g>
        </g>
      </g>
      <g clip-path="url(#xXxprefixXx1)" clip-bounds-jfx="[rect (27.034701220281416, 0.0), (641.9652987797186, 391.0)]">
        <g transform="translate(27.034701220281416 0.0 ) ">
          <g>
            <g>
              <g>
                <path d="M29.180240853623445 350.609847720256 L29.180240853623445 350.609847720256 L30.322237913685967 349.95163434011835 L31.464382214215448 349.29899674428873 L32.6065265147447 348.65226719031983 L33.74852357480722 348.0117667674432 L34.8906678753367 347.3777970203285 L36.032664935399225 346.750645533244 L37.17480923592848 346.13058034589596 L38.31695353645796 345.5178443692684 L39.45895059652048 344.9126721381043 L40.601094897049734 344.3152674742637 L41.743091957112256 343.72582023920523 L42.885236257641736 343.1444979577454 L44.02738055817099 342.571451402219 L45.16937761823351 342.00679783999755 L46.31152191876299 341.45064337013156 L47.453518978825514 340.90307175502915 L48.59566327935477 340.3641388362959 L49.737660339417516 339.83387811889503 L50.87980463994677 339.31230635530824 L52.02194894047602 338.7994067930539 L53.16394600053877 338.2951515113292 L54.306090301068025 337.7994846685287 L55.44808736113055 337.3123169180836 L56.59023166166003 336.83355332926453 L57.73237596218928 336.36305988221835 L58.8743730222518 335.9006858046103 L60.01651732278128 335.4462524033027 L61.158514382843805 334.9995586485159 L62.30065868337306 334.5603811738279 L63.44280298390254 334.128468692014 L64.58480004396506 333.7035475792073 L65.72694434449431 333.28532187489867 L66.86894140455684 332.8734621136158 L68.01108570508632 332.4676220774046 L69.15308276514884 332.0674276275083 L70.29522706567809 331.6724878726886 L71.43737136620757 331.28237283258306 L72.5793684262701 330.8966413585084 L73.72151272679935 330.51481879681796 L74.8635097868621 330.1364137413834 L76.00565408739135 329.76090128111326 L77.1477983879206 329.38774533659466 L78.28979544798335 329.01637073929123 L79.4319397485126 328.6461911523452 L80.57393680857513 328.2765923180963 L81.7160811091046 327.9069320580813 L82.85822540963386 327.5365514413555 L84.00022246969638 327.1647747844925 L85.14236677022586 326.79088731494204 L86.28436383028838 326.41417426015386 L87.42650813081764 326.0338873426143 L88.56850519088016 325.6492559481678 L89.71064949140964 325.25949829433745 L90.8527937919389 324.8638158461647 L91.99479085200142 324.4613933162094 L93.1369351525309 324.05138749622876 L94.27893221259342 323.63294959381926 L95.42107651312267 323.20522523241704 L96.56322081365215 322.76733211465523 L97.70521787371467 322.31838794316724 L98.84736217424393 321.8574992522652 L99.98935923430668 321.38376140794014 L101.13150353483593 320.8962641920226 L102.27364783536518 320.39410297050375 L103.41564489542793 319.8763619410535 L104.55778919595718 319.3421308855024 L105.6997862560197 318.790499585681 L106.84193055654919 318.22056340758036 L107.98407485707844 317.6314233013521 L109.12607191714096 317.0221969696295 L110.26821621767021 316.3920021150458 L111.41021327773296 315.7399843610371 L112.55235757826222 315.0653004993605 L113.69435463832474 314.3671240742547 L114.83649893885422 313.6446621349219 L115.97864323938347 312.89713848304564 L117.120640299446 312.1238215935941 L118.26278459997548 311.3239855256959 L119.404781660038 310.4969657642457 L120.54692596056725 309.64212013078054 L121.68907026109673 308.75885112012145 L122.83106732115925 307.84661706869537 L123.9732116216885 306.9049042337317 L125.11520868175126 305.93326029822606 L126.25735298228051 304.93128320261883 L127.39949728280976 303.89863231311665 L128.5414943428725 302.83501725337084 L129.68363864340176 301.740209072799 L130.8256357034643 300.6140514149057 L131.96778000399377 299.4564437648012 L133.1097770640563 298.26735820168255 L134.25192136458554 297.0468338146737 L135.3940656651148 295.79498787114613 L136.53606272517754 294.51201581671916 L137.6782070257068 293.1981633544568 L138.82020408576932 291.8537878706343 L139.9623483862988 290.4792914248111 L141.10449268682805 289.0751877597577 L142.24648974689057 287.6420464598501 L143.38863404742006 286.18051528771207 L144.53063110748258 284.6913313525359 L145.67277540801183 283.1753099417618 L146.8149197085413 281.6333556893987 L147.95691676860383 280.06642907106095 L149.09906106913309 278.4755799089318 L150.24105812919584 276.86193620344216 L151.3832024297251 275.2266929649494 L152.52534673025434 273.5711233820587 L153.6673437903171 271.8965676533019 L154.80948809084634 270.20443298713707 L155.95148515090887 268.4962047702704 L157.09362945143812 266.7733907260501 L158.23562651150087 265.0375990927141 L159.37777081203012 263.29048278178504 L160.51991511255937 261.5337170414275 L161.66191217262212 259.76905529805384 L162.80405647315138 257.9982844830397 L163.9460535332139 256.2232026960818 L165.08819783374338 254.44568621512462 L166.23034213427263 252.66760014979144 L167.37233919433515 250.89083194634782 L168.51448349486463 249.1173137243436 L169.65648055492716 247.34894409836548 L170.7986248554564 245.58766635628444 L171.9407691559859 243.83540144932928 L173.0827662160484 242.09405916040777 L174.22491051657767 240.36554927242756 L175.36690757664041 238.65174806333312 L176.50905187716967 236.95449830610556 L177.6510489372322 235.27564277372605 L178.79319323776144 233.616946060928 L179.93533753829092 231.98015042580266 L181.07733459835345 230.3669534531569 L182.2194788988827 228.77896338122878 L183.36147595894545 227.21776611161422 L184.5036202594747 225.6848581993403 L185.64576456000395 224.18165802118645 L186.7877616200667 222.7095169440055 L187.92990592059596 221.26971932472364 L189.07190298065848 219.863415500414 L190.21404728118796 218.49169996654413 L191.3561915817172 217.15555553537067 L192.49818864177973 215.8558868409025 L193.64033294230921 214.5934756656165 L194.78233000237174 213.3689809404574 L195.924474302901 212.18299458644339 L197.06661860343047 211.0359633364184 L198.208615663493 209.92822224001534 L199.35075996402225 208.8600170002984 L200.49275702408477 207.83145930047849 L201.63490132461425 206.84252680391347 L202.77689838467677 205.89310782739236 L203.91904268520602 204.9829678361721 L205.0611869857355 204.11173827565645 L206.20318404579803 203.2789500763593 L207.34532834632728 202.48401131726249 L208.48732540639003 201.72621839413685 L209.62946970691928 201.00474485122115 L210.77161400744853 200.31871955946974 L211.91361106751128 199.66704802341508 L213.05575536804054 199.04863574758957 L214.19775242810306 198.46225421667245 L215.33989672863254 197.9065408954898 L216.4820410291618 197.38011091222546 L217.6240380892243 196.8814453752102 L218.7661823897538 196.40893604620592 L219.90817944981632 195.9609300136901 L221.05032375034557 195.53570735621375 L222.1923208104081 195.13141413247462 L223.33446511093757 194.74619640117047 L224.47660941146682 194.37815554771467 L225.61860647152935 194.02525893766745 L226.76075077205883 193.68551860987338 L227.90274783212135 193.35683491996613 L229.0448921326506 193.03715289686366 L230.18703643318008 192.72432822291523 L231.3290334932426 192.41619424382785 L232.47117779377186 192.11060664195077 L233.6131748538346 191.80539876299102 L234.75531915436386 191.49838161601343 L235.8974634548931 191.18738854672503 L237.03946051495586 190.87025290083284 L238.18160481548512 190.54480802404393 L239.32360187554764 190.2089319353497 L240.46574617607712 189.8605026537416 L241.60789047660637 189.4974652081376 L242.7498875366689 189.11774229081354 L243.89203183719837 188.71934594061403 L245.0340288972609 188.30031053302585 L246.17617319779015 187.85871511682015 L247.31817025785267 187.39266107741037 L248.46031455838215 186.900383820063 L249.6024588589114 186.3801187500447 L250.74445591897393 185.83019061919066 L251.8866002195034 185.2489465159785 L253.02859727956593 184.63484521209674 L254.17074158009518 183.98641248916041 L255.31288588062466 183.30224113871125 L256.4548829406872 182.5809686255753 L257.59702724121644 181.82138877107403 L258.7390243012792 181.02229539652885 L259.88116860180844 180.1825940064722 L261.0233129023377 179.30127945200525 L262.16530996240044 178.37741359415583 L263.3074542629297 177.41016997716267 L264.4494513229922 176.39876681854895 L265.5915956235217 175.342556355691 L266.7335926835842 174.24093549924953 L267.8757369841135 173.09341284309622 L269.01788128464295 171.8995416543872 L270.1598783447055 170.6590315567739 L271.30202264523473 169.37161451055 L272.44401970529725 168.03711182257788 L273.58616400582673 166.65550115621542 L274.728308306356 165.22673783817817 L275.8703053664185 163.75093355167712 L277.012449666948 162.22826698984986 L278.1544467270105 160.6590061924027 L279.29659102753976 159.0434638723264 L280.43873532806924 157.3820644258227 L281.58073238813176 155.67529925901985 L282.722876688661 153.92377146125716 L283.86487374872377 152.1281064585161 L285.007018049253 150.28901902334692 L286.14901510931554 148.40733561151086 L287.291159409845 146.48394968869573 L288.4333037103743 144.51975472058936 L289.5753007704368 142.51584520265936 L290.7174450709663 140.47324862044667 L291.8594421310288 138.3931488159877 L293.00158643155805 136.27679664124537 L294.1437307320873 134.12546528482483 L295.28572779215006 131.94053961854223 L296.4278720926793 129.72344918749803 L297.56986915274183 127.47566821007717 L298.7120134532713 125.19876025123335 L299.85415775380056 122.89437822248908 L300.9961548138631 120.5641750353667 L302.13829911439257 118.20989294795754 L303.2802961744551 115.83336356492168 L304.42244047498434 113.43641849091904 L305.5645847755138 111.02097867717856 L306.70658183557634 108.58900974821336 L307.8487261361056 106.1425666751054 L308.99072319616835 103.68368209229459 L310.1328674966976 101.21452265407385 L311.2748645567601 98.73725501473609 L312.4170088572896 96.25411283850093 L313.55915315781886 93.7673521262301 L314.7011502178814 91.27929588871189 L315.84329451841063 88.7923118100191 L316.9852915784734 86.30878991086661 L318.12743587900263 83.83116488525371 L319.2695801795319 81.36191610046416 L320.41157723959464 78.90356759706606 L321.5537215401239 76.45862107898523 L322.6957186001864 74.02964526007423 L323.8378629007159 71.61927586411213 L324.98000720124514 69.23005926830916 L326.12200426130767 66.86467586972884 L327.26414856183715 64.52576139215023 L328.40614562189967 62.21597389599458 L329.5482899224289 59.937971441683146 L330.69028698249167 57.694434426279486 L331.8324312830209 55.48802091020474 L332.9745755835502 53.32143362716471 L334.1165726436129 51.19733063758048 L335.2587169441422 49.118325328589094 L336.4007140042047 47.08709809725394 L337.54285830473395 45.1062623307119 L338.68500260526343 43.17838674281552 L339.82699966532596 41.306040047417184 L340.9691439658552 39.4917686217272 L342.11114102591796 37.738029496387185 L343.2532853264472 36.0473020386807 L344.39542962697647 34.421953932680594 L345.5374266870392 32.86433052581731 L346.67957098756847 31.37671015559482 L347.821568047631 29.961326486232736 L348.96371234816047 28.620301498739536 L350.1058566486897 27.355712500839445 L351.24785370875225 26.16956979033006 L352.3899980092817 25.063771981798027 L353.53199506934425 24.04012834326113 L354.6741393698735 23.100358796168507 L355.81613642993625 22.246116252042555 L356.9582807304655 21.478874929268216 L358.10042503099476 20.800109046230375 L359.2424220910573 20.21104711824978 L360.38456639158676 19.712939997289368 L361.5265634516493 19.30681516889024 L362.66870775217853 18.993610772024454 L363.810852052708 18.774153262453353 L364.95284911277054 18.649112739442785 L366.0949934132998 18.619047619047592 L367.23699047336254 18.684359960827294 L368.3791347738918 18.84534014113052 L369.52127907442105 19.102099843168162 L370.6632761344838 19.454661403582463 L371.80542043501305 19.90282379259361 L372.94741749507557 20.446318970495327 L374.08956179560505 21.084722541085853 L375.2315588556676 21.81740907838372 L376.3737031561968 22.643641473196453 L377.5158474567263 23.562570933120696 L378.6578445167888 24.573169972615347 L379.7999888173181 25.67423241300196 L380.9419858773806 26.864507402317486 L382.0841301779101 28.142498385534907 L383.22627447843934 29.506641797700468 L384.36827153850186 30.955195380722955 L385.51041583903134 32.48632752994229 L386.65241289909386 34.09807262084536 L387.7945571996231 35.78828633578132 L388.9367015001526 37.55477968381501 L390.0786985602151 39.39518498087375 L391.22084286074437 41.30708986960036 L392.3628399208071 43.287925636142404 L393.5049842213364 45.33503422007857 L394.6471285218656 47.445668214418845 L395.7891255819284 49.61699086560435 L396.9312698824576 51.84612074679194 L398.07326694252015 54.13004241128516 L399.21541124304963 56.46571807574543 L400.35740830311215 58.850042946907536 L401.4995526036414 61.27982288493757 L402.6416969041709 63.751886086643765 L403.7836939642334 66.26297140226558 L404.92583826476266 68.80979534540018 L406.0678353248252 71.38907442964495 L407.20997962535466 73.99750283195488 L408.3521239258839 76.6317523926428 L409.49412098594644 79.28853962530604 L410.6362652864759 81.96451403361527 L411.77826234653844 84.6564144678099 L412.9204066470677 87.36100211477157 L414.0625509475972 90.07503816138194 L415.2045480076597 92.79532846780711 L416.34669230818895 95.51874590413962 L417.4886893682517 98.24218567711432 L418.63083366878095 100.9626770133192 L419.7728307288435 103.67722680270009 L420.91497502937295 106.38297595505594 L422.0571193299022 109.0771323901123 L423.19911638996473 111.75697103752134 L424.3412606904942 114.41990084678838 L425.48325775055673 117.06337544070306 L426.625402051086 119.68500479855055 L427.76754635161547 122.28244357290026 L428.909543411678 124.85350277281702 L430.05168771220724 127.39610509057673 L431.19368477226976 129.9082625650239 L432.33582907279924 132.3881212548563 L433.4779733733285 134.83393890198272 L434.619970433391 137.2441072681651 L435.7621147339205 139.6171297983763 L436.904111793983 141.9516662940846 L438.0462560945123 144.24644356668483 L439.18840039504175 146.50036712070946 L440.3303974551043 148.71243180725963 L441.47254175563353 150.88174416064757 L442.6145388156963 153.0075670716808 L443.75668311622553 155.08927511437787 L444.89868017628805 157.12635454596824 L446.04082447681753 159.11838097025023 L447.1829687773468 161.0650863475175 L448.3249658374093 162.96626964799026 L449.4671101379388 164.82184152509976 L450.6091071980013 166.63184665213035 L451.75125149853056 168.39639671229304 L452.8933957990598 170.11567039872537 L454.03539285912257 171.7899804244181 L455.1775371596518 173.41970651228857 L456.31953421971434 175.00529539518064 L457.4616785202438 176.54726081586486 L458.6038228207731 178.04620586368046 L459.7458198808356 179.50275596460895 L460.8879641813651 180.91764822784276 L462.0299612414276 182.29161976257438 L463.17210554195685 183.6254746879228 L464.3141026020196 184.9200617962915 L465.45624690254886 186.17625221672606 L466.5983912030781 187.3949617515565 L467.74038826314086 188.5771062031129 L468.8825325636701 189.72362371036738 L470.02452962373263 190.8355194222188 L471.1666739242621 191.91373147763935 L472.30881822479137 192.95926502552786 L473.4508152848539 193.9730805414987 L474.59295958538314 194.95618317445067 L475.7349566454459 195.90955573664039 L476.87710094597514 196.83413636704006 L478.0192452465044 197.7309078779063 L479.16124230656715 198.60083074485354 L480.3033866070964 199.44482077021172 L481.4453836671589 200.26377141966873 L482.5875279676884 201.05862083219677 L483.7295250277509 201.83019546355706 L484.8716693282802 202.5793887794374 L486.01381362880966 203.3070048989569 L487.1558106888722 204.01385910955563 L488.29795498940143 204.70073319371045 L489.4399520494642 205.368386597256 L490.58209634999344 206.0175675977059 L491.7242406505227 206.6489909676103 L492.86623771058544 207.26334914287733 L494.0083820111147 207.86132339109392 L495.1503790711772 208.44357264320487 L496.29252337170647 209.01074466183385 L497.43466767223595 209.5634648729623 L498.57666473229847 210.1023475342506 L499.7188090328277 210.6280069033592 L500.86080609289047 211.14102373298508 L502.0029503934197 211.6420011124676 L503.145094693949 212.1315086261827 L504.2870917540117 212.61016053179077 L505.429236054541 213.0785040770256 L506.5712331146035 213.53715351954756 L507.713377415133 213.98668961205374 L508.8553744751955 214.42771544388344 L509.99751877572476 214.86084527269702 L511.13966307625424 215.28668218783375 L512.2816601363168 215.7058739519173 L513.423804436846 216.11905715925027 L514.5658014969088 216.5269130774196 L515.707945797438 216.93011180569115 L516.8500900979673 217.3293681166152 L517.9920871580298 217.7254079510631 L519.1342314585593 218.1189684182273 L520.2762285186218 218.51082013226352 L521.418372819151 218.90176721229082 L522.5605171196805 219.29261377742827 L523.702514179743 219.68420862007923 L524.8446584802723 220.0774117009683 L525.986655540335 220.47311648578327 L527.1287998408643 220.87221644021193 L528.2707969009268 221.27564970322655 L529.4129412014563 221.68437675044152 L530.5550855019856 222.09935805747122 L531.6970825620481 222.52158760489337 L532.8392268625776 222.95207054160676 L533.9812239226401 223.39181201651022 L535.1233682231693 223.84186185178692 L536.2655125236988 224.30324753297782 L537.4075095837613 224.7770188822662 L538.5496538842906 225.26422572183515 L539.6916509443531 225.7659178738679 L540.8337952448826 226.28315632886876 L541.9759395454118 226.8169797406998 L543.1179366054744 227.3684379315442 L544.2600809060039 227.93855838694296 L545.4020779660664 228.528357424116 L546.5442222665956 229.13881785531993 L547.6863665671251 229.7709448294535 L548.8283636271876 230.42567648548894 L549.9705079277169 231.1039397940774 L551.1125049877796 231.80663938922774 L552.2546492883089 232.53463523166454 L553.3966463483714 233.28876494547012 L554.5387906489009 234.0698103131213 L555.6809349494301 234.87850844381057 L556.8229320094927 235.71557411008817 L557.9650763100221 236.58164390625666 L559.1070733700847 237.47732092165532 L560.2492176706139 238.40316357233905 L561.3913619711434 239.35964092779395 L562.5333590312059 240.34721088918502 L563.6755033317352 241.36623084278742 L564.8175003917977 242.41702466991296 L565.9596446923272 243.4998157369836 L567.1017889928564 244.6148162421002 L568.243786052919 245.76211553183154 L569.3859303534484 246.9417917844253 L570.527927413511 248.15380032659712 L571.6700717140402 249.39807414842036 L572.812068774103 250.67445689339968 L573.9542130746322 251.98272519511312 L575.0963573751615 253.32258867721214 L576.2383544352242 254.69370112174272 L577.3804987357535 256.09560462753984 L578.522495795816 257.5278412934385 L579.6646400963455 258.98984153506274 L580.8067843968747 260.4809910947521 L581.9487814569372 262.0005863682775 L583.0909257574667 263.5479125830886 L584.2329228175292 265.12214328342424 L585.3750671180585 266.7224185085599 L586.517211418588 268.3478336244866 L587.6592084786505 269.9974169872689 L588.8013527791798 271.67014111136575 L589.9433498392423 273.364956174594 L591.0854941397718 275.08072300820163 L592.227638440301 276.8163136117578 L593.3696355003635 278.57052180658394 L594.511779800893 280.3421190773593 L595.6537768609555 282.1298434037999 L596.7959211614848 283.93239926065826 L597.9379182215475 285.7484799543661 L599.0800625220768 287.5767341180704 L600.222206822606 289.4157880482763 L601.3642038826688 291.26426804148866 L602.506348183198 293.1208003942126 L603.6483452432606 294.98395556134744 L604.79048954379 296.85232633443496 L605.9326338443193 298.72450550501685 L607.0746309043818 300.5990802804742 L608.2167752049113 302.47463228402756 L609.3587722649738 304.3497598913792 L610.5009165655031 306.22305589407085 L611.6430608660323 308.09314658860745 L612.7850579260951 309.9586471031729 L612.7850579260951 391.0 L611.6430608660323 391.0 L610.5009165655031 391.0 L609.3587722649738 391.0 L608.2167752049113 391.0 L607.0746309043818 391.0 L605.9326338443193 391.0 L604.79048954379 391.0 L603.6483452432606 391.0 L602.506348183198 391.0 L601.3642038826688 391.0 L600.222206822606 391.0 L599.0800625220768 391.0 L597.9379182215475 391.0 L596.7959211614848 391.0 L595.6537768609555 391.0 L594.511779800893 391.0 L593.3696355003635 391.0 L592.227638440301 391.0 L591.0854941397718 391.0 L589.9433498392423 391.0 L588.8013527791798 391.0 L587.6592084786505 391.0 L586.517211418588 391.0 L585.3750671180585 391.0 L584.2329228175292 391.0 L583.0909257574667 391.0 L581.9487814569372 391.0 L580.8067843968747 391.0 L579.6646400963455 391.0 L578.522495795816 391.0 L577.3804987357535 391.0 L576.2383544352242 391.0 L575.0963573751615 391.0 L573.9542130746322 391.0 L572.812068774103 391.0 L571.6700717140402 391.0 L570.527927413511 391.0 L569.3859303534484 391.0 L568.243786052919 391.0 L567.1017889928564 391.0 L565.9596446923272 391.0 L564.8175003917977 391.0 L563.6755033317352 391.0 L562.5333590312059 391.0 L561.3913619711434 391.0 L560.2492176706139 391.0 L559.1070733700847 391.0 L557.9650763100221 391.0 L556.8229320094927 391.0 L555.6809349494301 391.0 L554.5387906489009 391.0 L553.3966463483714 391.0 L552.2546492883089 391.0 L551.1125049877796 391.0 L549.9705079277169 391.0 L548.8283636271876 391.0 L547.6863665671251 391.0 L546.5442222665956 391.0 L545.4020779660664 391.0 L544.2600809060039 391.0 L543.1179366054744 391.0 L541.9759395454118 391.0 L540.8337952448826 391.0 L539.6916509443531 391.0 L538.5496538842906 391.0 L537.4075095837613 391.0 L536.2655125236988 391.0 L535.1233682231693 391.0 L533.9812239226401 391.0 L532.8392268625776 391.0 L531.6970825620481 391.0 L530.5550855019856 391.0 L529.4129412014563 391.0 L528.2707969009268 391.0 L527.1287998408643 391.0 L525.986655540335 391.0 L524.8446584802723 391.0 L523.702514179743 391.0 L522.5605171196805 391.0 L521.418372819151 391.0 L520.2762285186218 391.0 L519.1342314585593 391.0 L517.9920871580298 391.0 L516.8500900979673 391.0 L515.707945797438 391.0 L514.5658014969088 391.0 L513.423804436846 391.0 L512.2816601363168 391.0 L511.13966307625424 391.0 L509.99751877572476 391.0 L508.8553744751955 391.0 L507.713377415133 391.0 L506.5712331146035 391.0 L505.429236054541 391.0 L504.2870917540117 391.0 L503.145094693949 391.0 L502.0029503934197 391.0 L500.86080609289047 391.0 L499.7188090328277 391.0 L498.57666473229847 391.0 L497.43466767223595 391.0 L496.29252337170647 391.0 L495.1503790711772 391.0 L494.0083820111147 391.0 L492.86623771058544 391.0 L491.7242406505227 391.0 L490.58209634999344 391.0 L489.4399520494642 391.0 L488.29795498940143 391.0 L487.1558106888722 391.0 L486.01381362880966 391.0 L484.8716693282802 391.0 L483.7295250277509 391.0 L482.5875279676884 391.0 L481.4453836671589 391.0 L480.3033866070964 391.0 L479.16124230656715 391.0 L478.0192452465044 391.0 L476.87710094597514 391.0 L475.7349566454459 391.0 L474.59295958538314 391.0 L473.4508152848539 391.0 L472.30881822479137 391.0 L471.1666739242621 391.0 L470.02452962373263 391.0 L468.8825325636701 391.0 L467.74038826314086 391.0 L466.5983912030781 391.0 L465.45624690254886 391.0 L464.3141026020196 391.0 L463.17210554195685 391.0 L462.0299612414276 391.0 L460.8879641813651 391.0 L459.7458198808356 391.0 L458.6038228207731 391.0 L457.4616785202438 391.0 L456.31953421971434 391.0 L455.1775371596518 391.0 L454.03539285912257 391.0 L452.8933957990598 391.0 L451.75125149853056 391.0 L450.6091071980013 391.0 L449.4671101379388 391.0 L448.3249658374093 391.0 L447.1829687773468 391.0 L446.04082447681753 391.0 L444.89868017628805 391.0 L443.75668311622553 391.0 L442.6145388156963 391.0 L441.47254175563353 391.0 L440.3303974551043 391.0 L439.18840039504175 391.0 L438.0462560945123 391.0 L436.904111793983 391.0 L435.7621147339205 391.0 L434.619970433391 391.0 L433.4779733733285 391.0 L432.33582907279924 391.0 L431.19368477226976 391.0 L430.05168771220724 391.0 L428.909543411678 391.0 L427.76754635161547 391.0 L426.625402051086 391.0 L425.48325775055673 391.0 L424.3412606904942 391.0 L423.19911638996473 391.0 L422.0571193299022 391.0 L420.91497502937295 391.0 L419.7728307288435 391.0 L418.63083366878095 391.0 L417.4886893682517 391.0 L416.34669230818895 391.0 L415.2045480076597 391.0 L414.0625509475972 391.0 L412.9204066470677 391.0 L411.77826234653844 391.0 L410.6362652864759 391.0 L409.49412098594644 391.0 L408.3521239258839 391.0 L407.20997962535466 391.0 L406.0678353248252 391.0 L404.92583826476266 391.0 L403.7836939642334 391.0 L402.6416969041709 391.0 L401.4995526036414 391.0 L400.35740830311215 391.0 L399.21541124304963 391.0 L398.07326694252015 391.0 L396.9312698824576 391.0 L395.7891255819284 391.0 L394.6471285218656 391.0 L393.5049842213364 391.0 L392.3628399208071 391.0 L391.22084286074437 391.0 L390.0786985602151 391.0 L388.9367015001526 391.0 L387.7945571996231 391.0 L386.65241289909386 391.0 L385.51041583903134 391.0 L384.36827153850186 391.0 L383.22627447843934 391.0 L382.0841301779101 391.0 L380.9419858773806 391.0 L379.7999888173181 391.0 L378.6578445167888 391.0 L377.5158474567263 391.0 L376.3737031561968 391.0 L375.2315588556676 391.0 L374.08956179560505 391.0 L372.94741749507557 391.0 L371.80542043501305 391.0 L370.6632761344838 391.0 L369.52127907442105 391.0 L368.3791347738918 391.0 L367.23699047336254 391.0 L366.0949934132998 391.0 L364.95284911277054 391.0 L363.810852052708 391.0 L362.66870775217853 391.0 L361.5265634516493 391.0 L360.38456639158676 391.0 L359.2424220910573 391.0 L358.10042503099476 391.0 L356.9582807304655 391.0 L355.81613642993625 391.0 L354.6741393698735 391.0 L353.53199506934425 391.0 L352.3899980092817 391.0 L351.24785370875225 391.0 L350.1058566486897 391.0 L348.96371234816047 391.0 L347.821568047631 391.0 L346.67957098756847 391.0 L345.5374266870392 391.0 L344.39542962697647 391.0 L343.2532853264472 391.0 L342.11114102591796 391.0 L340.9691439658552 391.0 L339.82699966532596 391.0 L338.68500260526343 391.0 L337.54285830473395 391.0 L336.4007140042047 391.0 L335.2587169441422 391.0 L334.1165726436129 391.0 L332.9745755835502 391.0 L331.8324312830209 391.0 L330.69028698249167 391.0 L329.5482899224289 391.0 L328.40614562189967 391.0 L327.26414856183715 391.0 L326.12200426130767 391.0 L324.98000720124514 391.0 L323.8378629007159 391.0 L322.6957186001864 391.0 L321.5537215401239 391.0 L320.41157723959464 391.0 L319.2695801795319 391.0 L318.12743587900263 391.0 L316.9852915784734 391.0 L315.84329451841063 391.0 L314.7011502178814 391.0 L313.55915315781886 391.0 L312.4170088572896 391.0 L311.2748645567601 391.0 L310.1328674966976 391.0 L308.99072319616835 391.0 L307.8487261361056 391.0 L306.70658183557634 391.0 L305.5645847755138 391.0 L304.42244047498434 391.0 L303.2802961744551 391.0 L302.13829911439257 391.0 L300.9961548138631 391.0 L299.85415775380056 391.0 L298.7120134532713 391.0 L297.56986915274183 391.0 L296.4278720926793 391.0 L295.28572779215006 391.0 L294.1437307320873 391.0 L293.00158643155805 391.0 L291.8594421310288 391.0 L290.7174450709663 391.0 L289.5753007704368 391.0 L288.4333037103743 391.0 L287.291159409845 391.0 L286.14901510931554 391.0 L285.007018049253 391.0 L283.86487374872377 391.0 L282.722876688661 391.0 L281.58073238813176 391.0 L280.43873532806924 391.0 L279.29659102753976 391.0 L278.1544467270105 391.0 L277.012449666948 391.0 L275.8703053664185 391.0 L274.728308306356 391.0 L273.58616400582673 391.0 L272.44401970529725 391.0 L271.30202264523473 391.0 L270.1598783447055 391.0 L269.01788128464295 391.0 L267.8757369841135 391.0 L266.7335926835842 391.0 L265.5915956235217 391.0 L264.4494513229922 391.0 L263.3074542629297 391.0 L262.16530996240044 391.0 L261.0233129023377 391.0 L259.88116860180844 391.0 L258.7390243012792 391.0 L257.59702724121644 391.0 L256.4548829406872 391.0 L255.31288588062466 391.0 L254.17074158009518 391.0 L253.02859727956593 391.0 L251.8866002195034 391.0 L250.74445591897393 391.0 L249.6024588589114 391.0 L248.46031455838215 391.0 L247.31817025785267 391.0 L246.17617319779015 391.0 L245.0340288972609 391.0 L243.89203183719837 391.0 L242.7498875366689 391.0 L241.60789047660637 391.0 L240.46574617607712 391.0 L239.32360187554764 391.0 L238.18160481548512 391.0 L237.03946051495586 391.0 L235.8974634548931 391.0 L234.75531915436386 391.0 L233.6131748538346 391.0 L232.47117779377186 391.0 L231.3290334932426 391.0 L230.18703643318008 391.0 L229.0448921326506 391.0 L227.90274783212135 391.0 L226.76075077205883 391.0 L225.61860647152935 391.0 L224.47660941146682 391.0 L223.33446511093757 391.0 L222.1923208104081 391.0 L221.05032375034557 391.0 L219.90817944981632 391.0 L218.7661823897538 391.0 L217.6240380892243 391.0 L216.4820410291618 391.0 L215.33989672863254 391.0 L214.19775242810306 391.0 L213.05575536804054 391.0 L211.91361106751128 391.0 L210.77161400744853 391.0 L209.62946970691928 391.0 L208.48732540639003 391.0 L207.34532834632728 391.0 L206.20318404579803 391.0 L205.0611869857355 391.0 L203.91904268520602 391.0 L202.77689838467677 391.0 L201.63490132461425 391.0 L200.49275702408477 391.0 L199.35075996402225 391.0 L198.208615663493 391.0 L197.06661860343047 391.0 L195.924474302901 391.0 L194.78233000237174 391.0 L193.64033294230921 391.0 L192.49818864177973 391.0 L191.3561915817172 391.0 L190.21404728118796 391.0 L189.07190298065848 391.0 L187.92990592059596 391.0 L186.7877616200667 391.0 L185.64576456000395 391.0 L184.5036202594747 391.0 L183.36147595894545 391.0 L182.2194788988827 391.0 L181.07733459835345 391.0 L179.93533753829092 391.0 L178.79319323776144 391.0 L177.6510489372322 391.0 L176.50905187716967 391.0 L175.36690757664041 391.0 L174.22491051657767 391.0 L173.0827662160484 391.0 L171.9407691559859 391.0 L170.7986248554564 391.0 L169.65648055492716 391.0 L168.51448349486463 391.0 L167.37233919433515 391.0 L166.23034213427263 391.0 L165.08819783374338 391.0 L163.9460535332139 391.0 L162.80405647315138 391.0 L161.66191217262212 391.0 L160.51991511255937 391.0 L159.37777081203012 391.0 L158.23562651150087 391.0 L157.09362945143812 391.0 L155.95148515090887 391.0 L154.80948809084634 391.0 L153.6673437903171 391.0 L152.52534673025434 391.0 L151.3832024297251 391.0 L150.24105812919584 391.0 L149.09906106913309 391.0 L147.95691676860383 391.0 L146.8149197085413 391.0 L145.67277540801183 391.0 L144.53063110748258 391.0 L143.38863404742006 391.0 L142.24648974689057 391.0 L141.10449268682805 391.0 L139.9623483862988 391.0 L138.82020408576932 391.0 L137.6782070257068 391.0 L136.53606272517754 391.0 L135.3940656651148 391.0 L134.25192136458554 391.0 L133.1097770640563 391.0 L131.96778000399377 391.0 L130.8256357034643 391.0 L129.68363864340176 391.0 L128.5414943428725 391.0 L127.39949728280976 391.0 L126.25735298228051 391.0 L125.11520868175126 391.0 L123.9732116216885 391.0 L122.83106732115925 391.0 L121.68907026109673 391.0 L120.54692596056725 391.0 L119.404781660038 391.0 L118.26278459997548 391.0 L117.120640299446 391.0 L115.97864323938347 391.0 L114.83649893885422 391.0 L113.69435463832474 391.0 L112.55235757826222 391.0 L111.41021327773296 391.0 L110.26821621767021 391.0 L109.12607191714096 391.0 L107.98407485707844 391.0 L106.84193055654919 391.0 L105.6997862560197 391.0 L104.55778919595718 391.0 L103.41564489542793 391.0 L102.27364783536518 391.0 L101.13150353483593 391.0 L99.98935923430668 391.0 L98.84736217424393 391.0 L97.70521787371467 391.0 L96.56322081365215 391.0 L95.42107651312267 391.0 L94.27893221259342 391.0 L93.1369351525309 391.0 L91.99479085200142 391.0 L90.8527937919389 391.0 L89.71064949140964 391.0 L88.56850519088016 391.0 L87.42650813081764 391.0 L86.28436383028838 391.0 L85.14236677022586 391.0 L84.00022246969638 391.0 L82.85822540963386 391.0 L81.7160811091046 391.0 L80.57393680857513 391.0 L79.4319397485126 391.0 L78.28979544798335 391.0 L77.1477983879206 391.0 L76.00565408739135 391.0 L74.8635097868621 391.0 L73.72151272679935 391.0 L72.5793684262701 391.0 L71.43737136620757 391.0 L70.29522706567809 391.0 L69.15308276514884 391.0 L68.01108570508632 391.0 L66.86894140455684 391.0 L65.72694434449431 391.0 L64.58480004396506 391.0 L63.44280298390254 391.0 L62.30065868337306 391.0 L61.158514382843805 391.0 L60.01651732278128 391.0 L58.8743730222518 391.0 L57.73237596218928 391.0 L56.59023166166003 391.0 L55.44808736113055 391.0 L54.306090301068025 391.0 L53.16394600053877 391.0 L52.02194894047602 391.0 L50.87980463994677 391.0 L49.737660339417516 391.0 L48.59566327935477 391.0 L47.453518978825514 391.0 L46.31152191876299 391.0 L45.16937761823351 391.0 L44.02738055817099 391.0 L42.885236257641736 391.0 L41.743091957112256 391.0 L40.601094897049734 391.0 L39.45895059652048 391.0 L38.31695353645796 391.0 L37.17480923592848 391.0 L36.032664935399225 391.0 L34.8906678753367 391.0 L33.74852357480722 391.0 L32.6065265147447 391.0 L31.464382214215448 391.0 L30.322237913685967 391.0 L29.180240853623445 391.0 Z" fill="rgb(238,102,102)" stroke-width="1.0" fill-opacity="0.5019607843137255">
                </path>
              </g>
              <g>
                <path d="M29.180240853623445 350.609847720256 L29.180240853623445 350.609847720256 L30.322237913685967 349.95163434011835 L31.464382214215448 349.29899674428873 L32.6065265147447 348.65226719031983 L33.74852357480722 348.0117667674432 L34.8906678753367 347.3777970203285 L36.032664935399225 346.750645533244 L37.17480923592848 346.13058034589596 L38.31695353645796 345.5178443692684 L39.45895059652048 344.9126721381043 L40.601094897049734 344.3152674742637 L41.743091957112256 343.72582023920523 L42.885236257641736 343.1444979577454 L44.02738055817099 342.571451402219 L45.16937761823351 342.00679783999755 L46.31152191876299 341.45064337013156 L47.453518978825514 340.90307175502915 L48.59566327935477 340.3641388362959 L49.737660339417516 339.83387811889503 L50.87980463994677 339.31230635530824 L52.02194894047602 338.7994067930539 L53.16394600053877 338.2951515113292 L54.306090301068025 337.7994846685287 L55.44808736113055 337.3123169180836 L56.59023166166003 336.83355332926453 L57.73237596218928 336.36305988221835 L58.8743730222518 335.9006858046103 L60.01651732278128 335.4462524033027 L61.158514382843805 334.9995586485159 L62.30065868337306 334.5603811738279 L63.44280298390254 334.128468692014 L64.58480004396506 333.7035475792073 L65.72694434449431 333.28532187489867 L66.86894140455684 332.8734621136158 L68.01108570508632 332.4676220774046 L69.15308276514884 332.0674276275083 L70.29522706567809 331.6724878726886 L71.43737136620757 331.28237283258306 L72.5793684262701 330.8966413585084 L73.72151272679935 330.51481879681796 L74.8635097868621 330.1364137413834 L76.00565408739135 329.76090128111326 L77.1477983879206 329.38774533659466 L78.28979544798335 329.01637073929123 L79.4319397485126 328.6461911523452 L80.57393680857513 328.2765923180963 L81.7160811091046 327.9069320580813 L82.85822540963386 327.5365514413555 L84.00022246969638 327.1647747844925 L85.14236677022586 326.79088731494204 L86.28436383028838 326.41417426015386 L87.42650813081764 326.0338873426143 L88.56850519088016 325.6492559481678 L89.71064949140964 325.25949829433745 L90.8527937919389 324.8638158461647 L91.99479085200142 324.4613933162094 L93.1369351525309 324.05138749622876 L94.27893221259342 323.63294959381926 L95.42107651312267 323.20522523241704 L96.56322081365215 322.76733211465523 L97.70521787371467 322.31838794316724 L98.84736217424393 321.8574992522652 L99.98935923430668 321.38376140794014 L101.13150353483593 320.8962641920226 L102.27364783536518 320.39410297050375 L103.41564489542793 319.8763619410535 L104.55778919595718 319.3421308855024 L105.6997862560197 318.790499585681 L106.84193055654919 318.22056340758036 L107.98407485707844 317.6314233013521 L109.12607191714096 317.0221969696295 L110.26821621767021 316.3920021150458 L111.41021327773296 315.7399843610371 L112.55235757826222 315.0653004993605 L113.69435463832474 314.3671240742547 L114.83649893885422 313.6446621349219 L115.97864323938347 312.89713848304564 L117.120640299446 312.1238215935941 L118.26278459997548 311.3239855256959 L119.404781660038 310.4969657642457 L120.54692596056725 309.64212013078054 L121.68907026109673 308.75885112012145 L122.83106732115925 307.84661706869537 L123.9732116216885 306.9049042337317 L125.11520868175126 305.93326029822606 L126.25735298228051 304.93128320261883 L127.39949728280976 303.89863231311665 L128.5414943428725 302.83501725337084 L129.68363864340176 301.740209072799 L130.8256357034643 300.6140514149057 L131.96778000399377 299.4564437648012 L133.1097770640563 298.26735820168255 L134.25192136458554 297.0468338146737 L135.3940656651148 295.79498787114613 L136.53606272517754 294.51201581671916 L137.6782070257068 293.1981633544568 L138.82020408576932 291.8537878706343 L139.9623483862988 290.4792914248111 L141.10449268682805 289.0751877597577 L142.24648974689057 287.6420464598501 L143.38863404742006 286.18051528771207 L144.53063110748258 284.6913313525359 L145.67277540801183 283.1753099417618 L146.8149197085413 281.6333556893987 L147.95691676860383 280.06642907106095 L149.09906106913309 278.4755799089318 L150.24105812919584 276.86193620344216 L151.3832024297251 275.2266929649494 L152.52534673025434 273.5711233820587 L153.6673437903171 271.8965676533019 L154.80948809084634 270.20443298713707 L155.95148515090887 268.4962047702704 L157.09362945143812 266.7733907260501 L158.23562651150087 265.0375990927141 L159.37777081203012 263.29048278178504 L160.51991511255937 261.5337170414275 L161.66191217262212 259.76905529805384 L162.80405647315138 257.9982844830397 L163.9460535332139 256.2232026960818 L165.08819783374338 254.44568621512462 L166.23034213427263 252.66760014979144 L167.37233919433515 250.89083194634782 L168.51448349486463 249.1173137243436 L169.65648055492716 247.34894409836548 L170.7986248554564 245.58766635628444 L171.9407691559859 243.83540144932928 L173.0827662160484 242.09405916040777 L174.22491051657767 240.36554927242756 L175.36690757664041 238.65174806333312 L176.50905187716967 236.95449830610556 L177.6510489372322 235.27564277372605 L178.79319323776144 233.616946060928 L179.93533753829092 231.98015042580266 L181.07733459835345 230.3669534531569 L182.2194788988827 228.77896338122878 L183.36147595894545 227.21776611161422 L184.5036202594747 225.6848581993403 L185.64576456000395 224.18165802118645 L186.7877616200667 222.7095169440055 L187.92990592059596 221.26971932472364 L189.07190298065848 219.863415500414 L190.21404728118796 218.49169996654413 L191.3561915817172 217.15555553537067 L192.49818864177973 215.8558868409025 L193.64033294230921 214.5934756656165 L194.78233000237174 213.3689809404574 L195.924474302901 212.18299458644339 L197.06661860343047 211.0359633364184 L198.208615663493 209.92822224001534 L199.35075996402225 208.8600170002984 L200.49275702408477 207.83145930047849 L201.63490132461425 206.84252680391347 L202.77689838467677 205.89310782739236 L203.91904268520602 204.9829678361721 L205.0611869857355 204.11173827565645 L206.20318404579803 203.2789500763593 L207.34532834632728 202.48401131726249 L208.48732540639003 201.72621839413685 L209.62946970691928 201.00474485122115 L210.77161400744853 200.31871955946974 L211.91361106751128 199.66704802341508 L213.05575536804054 199.04863574758957 L214.19775242810306 198.46225421667245 L215.33989672863254 197.9065408954898 L216.4820410291618 197.38011091222546 L217.6240380892243 196.8814453752102 L218.7661823897538 196.40893604620592 L219.90817944981632 195.9609300136901 L221.05032375034557 195.53570735621375 L222.1923208104081 195.13141413247462 L223.33446511093757 194.74619640117047 L224.47660941146682 194.37815554771467 L225.61860647152935 194.02525893766745 L226.76075077205883 193.68551860987338 L227.90274783212135 193.35683491996613 L229.0448921326506 193.03715289686366 L230.18703643318008 192.72432822291523 L231.3290334932426 192.41619424382785 L232.47117779377186 192.11060664195077 L233.6131748538346 191.80539876299102 L234.75531915436386 191.49838161601343 L235.8974634548931 191.18738854672503 L237.03946051495586 190.87025290083284 L238.18160481548512 190.54480802404393 L239.32360187554764 190.2089319353497 L240.46574617607712 189.8605026537416 L241.60789047660637 189.4974652081376 L242.7498875366689 189.11774229081354 L243.89203183719837 188.71934594061403 L245.0340288972609 188.30031053302585 L246.17617319779015 187.85871511682015 L247.31817025785267 187.39266107741037 L248.46031455838215 186.900383820063 L249.6024588589114 186.3801187500447 L250.74445591897393 185.83019061919066 L251.8866002195034 185.2489465159785 L253.02859727956593 184.63484521209674 L254.17074158009518 183.98641248916041 L255.31288588062466 183.30224113871125 L256.4548829406872 182.5809686255753 L257.59702724121644 181.82138877107403 L258.7390243012792 181.02229539652885 L259.88116860180844 180.1825940064722 L261.0233129023377 179.30127945200525 L262.16530996240044 178.37741359415583 L263.3074542629297 177.41016997716267 L264.4494513229922 176.39876681854895 L265.5915956235217 175.342556355691 L266.7335926835842 174.24093549924953 L267.8757369841135 173.09341284309622 L269.01788128464295 171.8995416543872 L270.1598783447055 170.6590315567739 L271.30202264523473 169.37161451055 L272.44401970529725 168.03711182257788 L273.58616400582673 166.65550115621542 L274.728308306356 165.22673783817817 L275.8703053664185 163.75093355167712 L277.012449666948 162.22826698984986 L278.1544467270105 160.6590061924027 L279.29659102753976 159.0434638723264 L280.43873532806924 157.3820644258227 L281.58073238813176 155.67529925901985 L282.722876688661 153.92377146125716 L283.86487374872377 152.1281064585161 L285.007018049253 150.28901902334692 L286.14901510931554 148.40733561151086 L287.291159409845 146.48394968869573 L288.4333037103743 144.51975472058936 L289.5753007704368 142.51584520265936 L290.7174450709663 140.47324862044667 L291.8594421310288 138.3931488159877 L293.00158643155805 136.27679664124537 L294.1437307320873 134.12546528482483 L295.28572779215006 131.94053961854223 L296.4278720926793 129.72344918749803 L297.56986915274183 127.47566821007717 L298.7120134532713 125.19876025123335 L299.85415775380056 122.89437822248908 L300.9961548138631 120.5641750353667 L302.13829911439257 118.20989294795754 L303.2802961744551 115.83336356492168 L304.42244047498434 113.43641849091904 L305.5645847755138 111.02097867717856 L306.70658183557634 108.58900974821336 L307.8487261361056 106.1425666751054 L308.99072319616835 103.68368209229459 L310.1328674966976 101.21452265407385 L311.2748645567601 98.73725501473609 L312.4170088572896 96.25411283850093 L313.55915315781886 93.7673521262301 L314.7011502178814 91.27929588871189 L315.84329451841063 88.7923118100191 L316.9852915784734 86.30878991086661 L318.12743587900263 83.83116488525371 L319.2695801795319 81.36191610046416 L320.41157723959464 78.90356759706606 L321.5537215401239 76.45862107898523 L322.6957186001864 74.02964526007423 L323.8378629007159 71.61927586411213 L324.98000720124514 69.23005926830916 L326.12200426130767 66.86467586972884 L327.26414856183715 64.52576139215023 L328.40614562189967 62.21597389599458 L329.5482899224289 59.937971441683146 L330.69028698249167 57.694434426279486 L331.8324312830209 55.48802091020474 L332.9745755835502 53.32143362716471 L334.1165726436129 51.19733063758048 L335.2587169441422 49.118325328589094 L336.4007140042047 47.08709809725394 L337.54285830473395 45.1062623307119 L338.68500260526343 43.17838674281552 L339.82699966532596 41.306040047417184 L340.9691439658552 39.4917686217272 L342.11114102591796 37.738029496387185 L343.2532853264472 36.0473020386807 L344.39542962697647 34.421953932680594 L345.5374266870392 32.86433052581731 L346.67957098756847 31.37671015559482 L347.821568047631 29.961326486232736 L348.96371234816047 28.620301498739536 L350.1058566486897 27.355712500839445 L351.24785370875225 26.16956979033006 L352.3899980092817 25.063771981798027 L353.53199506934425 24.04012834326113 L354.6741393698735 23.100358796168507 L355.81613642993625 22.246116252042555 L356.9582807304655 21.478874929268216 L358.10042503099476 20.800109046230375 L359.2424220910573 20.21104711824978 L360.38456639158676 19.712939997289368 L361.5265634516493 19.30681516889024 L362.66870775217853 18.993610772024454 L363.810852052708 18.774153262453353 L364.95284911277054 18.649112739442785 L366.0949934132998 18.619047619047592 L367.23699047336254 18.684359960827294 L368.3791347738918 18.84534014113052 L369.52127907442105 19.102099843168162 L370.6632761344838 19.454661403582463 L371.80542043501305 19.90282379259361 L372.94741749507557 20.446318970495327 L374.08956179560505 21.084722541085853 L375.2315588556676 21.81740907838372 L376.3737031561968 22.643641473196453 L377.5158474567263 23.562570933120696 L378.6578445167888 24.573169972615347 L379.7999888173181 25.67423241300196 L380.9419858773806 26.864507402317486 L382.0841301779101 28.142498385534907 L383.22627447843934 29.506641797700468 L384.36827153850186 30.955195380722955 L385.51041583903134 32.48632752994229 L386.65241289909386 34.09807262084536 L387.7945571996231 35.78828633578132 L388.9367015001526 37.55477968381501 L390.0786985602151 39.39518498087375 L391.22084286074437 41.30708986960036 L392.3628399208071 43.287925636142404 L393.5049842213364 45.33503422007857 L394.6471285218656 47.445668214418845 L395.7891255819284 49.61699086560435 L396.9312698824576 51.84612074679194 L398.07326694252015 54.13004241128516 L399.21541124304963 56.46571807574543 L400.35740830311215 58.850042946907536 L401.4995526036414 61.27982288493757 L402.6416969041709 63.751886086643765 L403.7836939642334 66.26297140226558 L404.92583826476266 68.80979534540018 L406.0678353248252 71.38907442964495 L407.20997962535466 73.99750283195488 L408.3521239258839 76.6317523926428 L409.49412098594644 79.28853962530604 L410.6362652864759 81.96451403361527 L411.77826234653844 84.6564144678099 L412.9204066470677 87.36100211477157 L414.0625509475972 90.07503816138194 L415.2045480076597 92.79532846780711 L416.34669230818895 95.51874590413962 L417.4886893682517 98.24218567711432 L418.63083366878095 100.9626770133192 L419.7728307288435 103.67722680270009 L420.91497502937295 106.38297595505594 L422.0571193299022 109.0771323901123 L423.19911638996473 111.75697103752134 L424.3412606904942 114.41990084678838 L425.48325775055673 117.06337544070306 L426.625402051086 119.68500479855055 L427.76754635161547 122.28244357290026 L428.909543411678 124.85350277281702 L430.05168771220724 127.39610509057673 L431.19368477226976 129.9082625650239 L432.33582907279924 132.3881212548563 L433.4779733733285 134.83393890198272 L434.619970433391 137.2441072681651 L435.7621147339205 139.6171297983763 L436.904111793983 141.9516662940846 L438.0462560945123 144.24644356668483 L439.18840039504175 146.50036712070946 L440.3303974551043 148.71243180725963 L441.47254175563353 150.88174416064757 L442.6145388156963 153.0075670716808 L443.75668311622553 155.08927511437787 L444.89868017628805 157.12635454596824 L446.04082447681753 159.11838097025023 L447.1829687773468 161.0650863475175 L448.3249658374093 162.96626964799026 L449.4671101379388 164.82184152509976 L450.6091071980013 166.63184665213035 L451.75125149853056 168.39639671229304 L452.8933957990598 170.11567039872537 L454.03539285912257 171.7899804244181 L455.1775371596518 173.41970651228857 L456.31953421971434 175.00529539518064 L457.4616785202438 176.54726081586486 L458.6038228207731 178.04620586368046 L459.7458198808356 179.50275596460895 L460.8879641813651 180.91764822784276 L462.0299612414276 182.29161976257438 L463.17210554195685 183.6254746879228 L464.3141026020196 184.9200617962915 L465.45624690254886 186.17625221672606 L466.5983912030781 187.3949617515565 L467.74038826314086 188.5771062031129 L468.8825325636701 189.72362371036738 L470.02452962373263 190.8355194222188 L471.1666739242621 191.91373147763935 L472.30881822479137 192.95926502552786 L473.4508152848539 193.9730805414987 L474.59295958538314 194.95618317445067 L475.7349566454459 195.90955573664039 L476.87710094597514 196.83413636704006 L478.0192452465044 197.7309078779063 L479.16124230656715 198.60083074485354 L480.3033866070964 199.44482077021172 L481.4453836671589 200.26377141966873 L482.5875279676884 201.05862083219677 L483.7295250277509 201.83019546355706 L484.8716693282802 202.5793887794374 L486.01381362880966 203.3070048989569 L487.1558106888722 204.01385910955563 L488.29795498940143 204.70073319371045 L489.4399520494642 205.368386597256 L490.58209634999344 206.0175675977059 L491.7242406505227 206.6489909676103 L492.86623771058544 207.26334914287733 L494.0083820111147 207.86132339109392 L495.1503790711772 208.44357264320487 L496.29252337170647 209.01074466183385 L497.43466767223595 209.5634648729623 L498.57666473229847 210.1023475342506 L499.7188090328277 210.6280069033592 L500.86080609289047 211.14102373298508 L502.0029503934197 211.6420011124676 L503.145094693949 212.1315086261827 L504.2870917540117 212.61016053179077 L505.429236054541 213.0785040770256 L506.5712331146035 213.53715351954756 L507.713377415133 213.98668961205374 L508.8553744751955 214.42771544388344 L509.99751877572476 214.86084527269702 L511.13966307625424 215.28668218783375 L512.2816601363168 215.7058739519173 L513.423804436846 216.11905715925027 L514.5658014969088 216.5269130774196 L515.707945797438 216.93011180569115 L516.8500900979673 217.3293681166152 L517.9920871580298 217.7254079510631 L519.1342314585593 218.1189684182273 L520.2762285186218 218.51082013226352 L521.418372819151 218.90176721229082 L522.5605171196805 219.29261377742827 L523.702514179743 219.68420862007923 L524.8446584802723 220.0774117009683 L525.986655540335 220.47311648578327 L527.1287998408643 220.87221644021193 L528.2707969009268 221.27564970322655 L529.4129412014563 221.68437675044152 L530.5550855019856 222.09935805747122 L531.6970825620481 222.52158760489337 L532.8392268625776 222.95207054160676 L533.9812239226401 223.39181201651022 L535.1233682231693 223.84186185178692 L536.2655125236988 224.30324753297782 L537.4075095837613 224.7770188822662 L538.5496538842906 225.26422572183515 L539.6916509443531 225.7659178738679 L540.8337952448826 226.28315632886876 L541.9759395454118 226.8169797406998 L543.1179366054744 227.3684379315442 L544.2600809060039 227.93855838694296 L545.4020779660664 228.528357424116 L546.5442222665956 229.13881785531993 L547.6863665671251 229.7709448294535 L548.8283636271876 230.42567648548894 L549.9705079277169 231.1039397940774 L551.1125049877796 231.80663938922774 L552.2546492883089 232.53463523166454 L553.3966463483714 233.28876494547012 L554.5387906489009 234.0698103131213 L555.6809349494301 234.87850844381057 L556.8229320094927 235.71557411008817 L557.9650763100221 236.58164390625666 L559.1070733700847 237.47732092165532 L560.2492176706139 238.40316357233905 L561.3913619711434 239.35964092779395 L562.5333590312059 240.34721088918502 L563.6755033317352 241.36623084278742 L564.8175003917977 242.41702466991296 L565.9596446923272 243.4998157369836 L567.1017889928564 244.6148162421002 L568.243786052919 245.76211553183154 L569.3859303534484 246.9417917844253 L570.527927413511 248.15380032659712 L571.6700717140402 249.39807414842036 L572.812068774103 250.67445689339968 L573.9542130746322 251.98272519511312 L575.0963573751615 253.32258867721214 L576.2383544352242 254.69370112174272 L577.3804987357535 256.09560462753984 L578.522495795816 257.5278412934385 L579.6646400963455 258.98984153506274 L580.8067843968747 260.4809910947521 L581.9487814569372 262.0005863682775 L583.0909257574667 263.5479125830886 L584.2329228175292 265.12214328342424 L585.3750671180585 266.7224185085599 L586.517211418588 268.3478336244866 L587.6592084786505 269.9974169872689 L588.8013527791798 271.67014111136575 L589.9433498392423 273.364956174594 L591.0854941397718 275.08072300820163 L592.227638440301 276.8163136117578 L593.3696355003635 278.57052180658394 L594.511779800893 280.3421190773593 L595.6537768609555 282.1298434037999 L596.7959211614848 283.93239926065826 L597.9379182215475 285.7484799543661 L599.0800625220768 287.5767341180704 L600.222206822606 289.4157880482763 L601.3642038826688 291.26426804148866 L602.506348183198 293.1208003942126 L603.6483452432606 294.98395556134744 L604.79048954379 296.85232633443496 L605.9326338443193 298.72450550501685 L607.0746309043818 300.5990802804742 L608.2167752049113 302.47463228402756 L609.3587722649738 304.3497598913792 L610.5009165655031 306.22305589407085 L611.6430608660323 308.09314658860745 L612.7850579260951 309.9586471031729 " fill="none" stroke-width="1.1" stroke="rgb(59,162,114)" stroke-opacity="1.0">
                </path>
              </g>
            </g>
          </g>
        </g>
        <defs>
          <clipPath id="xXxprefixXx1">
            <rect x="27.034701220281416" y="0.0" width="641.9652987797186" height="391.0">
            </rect>
          </clipPath>
        </defs>
      </g>
      <g>
      </g>
    </g>
    <g transform="translate(56.53470122028142 16.8 ) ">
      <text class="plot-title" y="0.0">
        <tspan>Flight length experiment</tspan>
      </text>
    </g>
    <g transform="translate(16.0 222.0 ) rotate(-90.0 ) ">
      <text class="axis-title-y" y="0.0" text-anchor="middle">
        <tspan>density*</tspan>
      </text>
    </g>
    <g transform="translate(377.51735061014074 463.0 ) ">
      <text class="axis-title-x" y="0.0" text-anchor="middle">
        <tspan>length</tspan>
      </text>
    </g>
    <path fill="rgb(0,0,0)" fill-opacity="0.0" stroke="rgb(187,187,187)" stroke-opacity="1.0" stroke-width="0.0" d="M0.0 0.0 L0.0 470.0 L705.0 470.0 L705.0 0.0 Z" pointer-events="none">
    </path>
  </g>
  <g id="xXxprefixXx2">
  </g>
</svg>