<svg xmlns="http://www.w3.org/2000/svg" xmlns:xlink="http://www.w3.org/1999/xlink" class="plt-container" width="705.0" height="470.0">
  <style type="text/css">
  .plt-container {
   font-family: Lucida Grande, sans-serif;
   user-select: none;
   -webkit-user-select: none;
   -moz-user-select: none;
   -ms-user-select: none;
}
text {
   text-rendering: optimizeLegibility;
}
#xXxprefixXx0 .plot-title {
   fill: #bbbbbb;
   font-family: Lucida Grande, sans-serif;
   font-size: 16.0px;
   font-weight: normal;
   font-style: normal;   
}
#xXxprefixXx0 .plot-subtitle {
   fill: #bbbbbb;
   font-family: Lucida Grande, sans-serif;
   font-size: 15.0px;
   font-weight: normal;
   font-style: normal;   
}
#xXxprefixXx0 .plot-caption {
   fill: #bbbbbb;
   font-family: Lucida Grande, sans-serif;
   font-size: 13.0px;
   font-weight: normal;
   font-style: normal;   
}
#xXxprefixXx0 .legend-title {
   fill: #bbbbbb;
   font-family: Lucida Grande, sans-serif;
   font-size: 15.0px;
   font-weight: normal;
   font-style: normal;   
}
#xXxprefixXx0 .legend-item {
   fill: #bbbbbb;
   font-family: Lucida Grande, sans-serif;
   font-size: 13.0px;
   font-weight: normal;
   font-style: normal;   
}
#xXxprefixXx0 .axis-title-x {
   fill: #bbbbbb;
   font-family: Lucida Grande, sans-serif;
   font-size: 15.0px;
   font-weight: normal;
   font-style: normal;   
}
#xXxprefixXx0 .axis-text-x {
   fill: #bbbbbb;
   font-family: Lucida Grande, sans-serif;
   font-size: 13.0px;
   font-weight: normal;
   font-style: normal;   
}
#xXxprefixXx3 .axis-tooltip-text-x {
   fill: #303030;
   font-family: Lucida Grande, sans-serif;
   font-size: 13.0px;
   font-weight: normal;
   font-style: normal;   
}
#xXxprefixXx0 .axis-title-y {
   fill: #bbbbbb;
   font-family: Lucida Grande, sans-serif;
   font-size: 15.0px;
   font-weight: normal;
   font-style: normal;   
}
#xXxprefixXx0 .axis-text-y {
   fill: #bbbbbb;
   font-family: Lucida Grande, sans-serif;
   font-size: 13.0px;
   font-weight: normal;
   font-style: normal;   
}
#xXxprefixXx3 .axis-tooltip-text-y {
   fill: #303030;
   font-family: Lucida Grande, sans-serif;
   font-size: 13.0px;
   font-weight: normal;
   font-style: normal;   
}
#xXxprefixXx0 .facet-strip-text-x {
   fill: #bbbbbb;
   font-family: Lucida Grande, sans-serif;
   font-size: 13.0px;
   font-weight: normal;
   font-style: normal;   
}
#xXxprefixXx0 .facet-strip-text-y {
   fill: #bbbbbb;
   font-family: Lucida Grande, sans-serif;
   font-size: 13.0px;
   font-weight: normal;
   font-style: normal;   
}
#xXxprefixXx3 .tooltip-text {
   fill: #bbbbbb;
   font-family: Lucida Grande, sans-serif;
   font-size: 13.0px;
   font-weight: normal;
   font-style: normal;   
}
#xXxprefixXx3 .tooltip-title {
   fill: #bbbbbb;
   font-family: Lucida Grande, sans-serif;
   font-size: 13.0px;
   font-weight: bold;
   font-style: normal;   
}
#xXxprefixXx3 .tooltip-label {
   fill: #bbbbbb;
   font-family: Lucida Grande, sans-serif;
   font-size: 13.0px;
   font-weight: bold;
   font-style: normal;   
}

  </style>
  <g id="xXxprefixXx0">
    <path fill-rule="evenodd" fill="rgb(25,25,28)" fill-opacity="1.0" d="M0.0 0.0 L0.0 470.0 L705.0 470.0 L705.0 0.0 Z">
    </path>
    <g transform="translate(23.0 34.0 ) ">
      <g transform="translate(42.99591213121782 390.0 ) ">
        <line x1="27.397072940154207" y1="-0.0" x2="27.397072940154207" y2="-390.0" stroke="rgb(71,71,71)" stroke-opacity="1.0" stroke-width="1.0">
        </line>
        <line x1="99.02406294334189" y1="-0.0" x2="99.02406294334189" y2="-390.0" stroke="rgb(71,71,71)" stroke-opacity="1.0" stroke-width="1.0">
        </line>
        <line x1="170.65105294652957" y1="-0.0" x2="170.65105294652957" y2="-390.0" stroke="rgb(71,71,71)" stroke-opacity="1.0" stroke-width="1.0">
        </line>
        <line x1="242.27804294971725" y1="-0.0" x2="242.27804294971725" y2="-390.0" stroke="rgb(71,71,71)" stroke-opacity="1.0" stroke-width="1.0">
        </line>
        <line x1="313.90503295290495" y1="-0.0" x2="313.90503295290495" y2="-390.0" stroke="rgb(71,71,71)" stroke-opacity="1.0" stroke-width="1.0">
        </line>
        <line x1="385.5320229560926" y1="-0.0" x2="385.5320229560926" y2="-390.0" stroke="rgb(71,71,71)" stroke-opacity="1.0" stroke-width="1.0">
        </line>
        <line x1="457.1590129592803" y1="-0.0" x2="457.1590129592803" y2="-390.0" stroke="rgb(71,71,71)" stroke-opacity="1.0" stroke-width="1.0">
        </line>
        <line x1="528.786002962468" y1="-0.0" x2="528.786002962468" y2="-390.0" stroke="rgb(71,71,71)" stroke-opacity="1.0" stroke-width="1.0">
        </line>
        <line x1="600.4129929656557" y1="-0.0" x2="600.4129929656557" y2="-390.0" stroke="rgb(71,71,71)" stroke-opacity="1.0" stroke-width="1.0">
        </line>
        <g transform="translate(27.397072940154207 0.0 ) ">
          <line stroke-width="1.0" stroke="rgb(187,187,187)" stroke-opacity="1.0" x2="0.0" y2="4.0">
          </line>
          <g transform="translate(0.0 7.0 ) ">
            <text class="axis-text-x" text-anchor="middle" dy="0.7em">
            0
            </text>
          </g>
        </g>
        <g transform="translate(99.02406294334189 0.0 ) ">
          <line stroke-width="1.0" stroke="rgb(187,187,187)" stroke-opacity="1.0" x2="0.0" y2="4.0">
          </line>
          <g transform="translate(0.0 7.0 ) ">
            <text class="axis-text-x" text-anchor="middle" dy="0.7em">
            10
            </text>
          </g>
        </g>
        <g transform="translate(170.65105294652957 0.0 ) ">
          <line stroke-width="1.0" stroke="rgb(187,187,187)" stroke-opacity="1.0" x2="0.0" y2="4.0">
          </line>
          <g transform="translate(0.0 7.0 ) ">
            <text class="axis-text-x" text-anchor="middle" dy="0.7em">
            20
            </text>
          </g>
        </g>
        <g transform="translate(242.27804294971725 0.0 ) ">
          <line stroke-width="1.0" stroke="rgb(187,187,187)" stroke-opacity="1.0" x2="0.0" y2="4.0">
          </line>
          <g transform="translate(0.0 7.0 ) ">
            <text class="axis-text-x" text-anchor="middle" dy="0.7em">
            30
            </text>
          </g>
        </g>
        <g transform="translate(313.90503295290495 0.0 ) ">
          <line stroke-width="1.0" stroke="rgb(187,187,187)" stroke-opacity="1.0" x2="0.0" y2="4.0">
          </line>
          <g transform="translate(0.0 7.0 ) ">
            <text class="axis-text-x" text-anchor="middle" dy="0.7em">
            40
            </text>
          </g>
        </g>
        <g transform="translate(385.5320229560926 0.0 ) ">
          <line stroke-width="1.0" stroke="rgb(187,187,187)" stroke-opacity="1.0" x2="0.0" y2="4.0">
          </line>
          <g transform="translate(0.0 7.0 ) ">
            <text class="axis-text-x" text-anchor="middle" dy="0.7em">
            50
            </text>
          </g>
        </g>
        <g transform="translate(457.1590129592803 0.0 ) ">
          <line stroke-width="1.0" stroke="rgb(187,187,187)" stroke-opacity="1.0" x2="0.0" y2="4.0">
          </line>
          <g transform="translate(0.0 7.0 ) ">
            <text class="axis-text-x" text-anchor="middle" dy="0.7em">
            60
            </text>
          </g>
        </g>
        <g transform="translate(528.786002962468 0.0 ) ">
          <line stroke-width="1.0" stroke="rgb(187,187,187)" stroke-opacity="1.0" x2="0.0" y2="4.0">
          </line>
          <g transform="translate(0.0 7.0 ) ">
            <text class="axis-text-x" text-anchor="middle" dy="0.7em">
            70
            </text>
          </g>
        </g>
        <g transform="translate(600.4129929656557 0.0 ) ">
          <line stroke-width="1.0" stroke="rgb(187,187,187)" stroke-opacity="1.0" x2="0.0" y2="4.0">
          </line>
          <g transform="translate(0.0 7.0 ) ">
            <text class="axis-text-x" text-anchor="middle" dy="0.7em">
            80
            </text>
          </g>
        </g>
        <line x1="0.0" y1="0.0" x2="629.0040878687822" y2="0.0" stroke-width="1.0" stroke="rgb(187,187,187)" stroke-opacity="1.0">
        </line>
      </g>
      <g transform="translate(42.99591213121782 0.0 ) ">
        <line x1="0.0" y1="335.77556376623374" x2="629.0040878687822" y2="335.77556376623374" stroke="rgb(71,71,71)" stroke-opacity="1.0" stroke-width="1.0">
        </line>
        <line x1="0.0" y1="281.55112753246755" x2="629.0040878687822" y2="281.55112753246755" stroke="rgb(71,71,71)" stroke-opacity="1.0" stroke-width="1.0">
        </line>
        <line x1="0.0" y1="227.32669129870132" x2="629.0040878687822" y2="227.32669129870132" stroke="rgb(71,71,71)" stroke-opacity="1.0" stroke-width="1.0">
        </line>
        <line x1="0.0" y1="173.1022550649351" x2="629.0040878687822" y2="173.1022550649351" stroke="rgb(71,71,71)" stroke-opacity="1.0" stroke-width="1.0">
        </line>
        <line x1="0.0" y1="118.87781883116884" x2="629.0040878687822" y2="118.87781883116884" stroke="rgb(71,71,71)" stroke-opacity="1.0" stroke-width="1.0">
        </line>
        <line x1="0.0" y1="64.65338259740258" x2="629.0040878687822" y2="64.65338259740258" stroke="rgb(71,71,71)" stroke-opacity="1.0" stroke-width="1.0">
        </line>
        <line x1="0.0" y1="10.428946363636385" x2="629.0040878687822" y2="10.428946363636385" stroke="rgb(71,71,71)" stroke-opacity="1.0" stroke-width="1.0">
        </line>
        <g transform="translate(0.0 390.0 ) ">
          <g transform="translate(-3.0 0.0 ) ">
            <text class="axis-text-y" text-anchor="end" dy="0.35em">
            0.000
            </text>
          </g>
        </g>
        <g transform="translate(0.0 335.77556376623374 ) ">
          <g transform="translate(-3.0 0.0 ) ">
            <text class="axis-text-y" text-anchor="end" dy="0.35em">
            0.005
            </text>
          </g>
        </g>
        <g transform="translate(0.0 281.55112753246755 ) ">
          <g transform="translate(-3.0 0.0 ) ">
            <text class="axis-text-y" text-anchor="end" dy="0.35em">
            0.010
            </text>
          </g>
        </g>
        <g transform="translate(0.0 227.32669129870132 ) ">
          <g transform="translate(-3.0 0.0 ) ">
            <text class="axis-text-y" text-anchor="end" dy="0.35em">
            0.015
            </text>
          </g>
        </g>
        <g transform="translate(0.0 173.1022550649351 ) ">
          <g transform="translate(-3.0 0.0 ) ">
            <text class="axis-text-y" text-anchor="end" dy="0.35em">
            0.020
            </text>
          </g>
        </g>
        <g transform="translate(0.0 118.87781883116884 ) ">
          <g transform="translate(-3.0 0.0 ) ">
            <text class="axis-text-y" text-anchor="end" dy="0.35em">
            0.025
            </text>
          </g>
        </g>
        <g transform="translate(0.0 64.65338259740258 ) ">
          <g transform="translate(-3.0 0.0 ) ">
            <text class="axis-text-y" text-anchor="end" dy="0.35em">
            0.030
            </text>
          </g>
        </g>
        <g transform="translate(0.0 10.428946363636385 ) ">
          <g transform="translate(-3.0 0.0 ) ">
            <text class="axis-text-y" text-anchor="end" dy="0.35em">
            0.035
            </text>
          </g>
        </g>
      </g>
      <g transform="translate(42.99591213121782 0.0 ) " clip-path="url(#xXxprefixXx1)" clip-bounds-jfx="[rect (0.0, 0.0), (629.0040878687822, 390.0)]">
        <defs>
          <clipPath id="xXxprefixXx1">
            <rect x="0.0" y="0.0" width="629.0040878687822" height="390.0">
            </rect>
          </clipPath>
        </defs>
        <rect x="572.0574686728573" y="384.8051948051948" height="5.1948051948052125" width="25.731960091587894" stroke="rgb(48,48,48)" stroke-opacity="1.0" fill="rgb(255,255,255)" fill-opacity="0.9" stroke-width="1.6500000000000001">
        </rect>
        <rect x="543.4663472573699" y="387.4025974025974" height="2.5974025974026063" width="25.73196009158778" stroke="rgb(48,48,48)" stroke-opacity="1.0" fill="rgb(255,255,255)" fill-opacity="0.9" stroke-width="1.6500000000000001">
        </rect>
        <rect x="514.875280488939" y="377.012987012987" height="12.987012987012974" width="25.73196009158778" stroke="rgb(48,48,48)" stroke-opacity="1.0" fill="rgb(255,255,255)" fill-opacity="0.9" stroke-width="1.6500000000000001">
        </rect>
        <rect x="486.28415907345146" y="364.02597402597405" height="25.97402597402595" width="25.731960091587837" stroke="rgb(48,48,48)" stroke-opacity="1.0" fill="rgb(255,255,255)" fill-opacity="0.9" stroke-width="1.6500000000000001">
        </rect>
        <rect x="457.6930649814922" y="332.8571428571429" height="57.14285714285711" width="25.731960091587837" stroke="rgb(48,48,48)" stroke-opacity="1.0" fill="rgb(255,255,255)" fill-opacity="0.9" stroke-width="1.6500000000000001">
        </rect>
        <rect x="429.10197088953305" y="343.24675324675326" height="46.75324675324674" width="25.73196009158778" stroke="rgb(48,48,48)" stroke-opacity="1.0" fill="rgb(255,255,255)" fill-opacity="0.9" stroke-width="1.6500000000000001">
        </rect>
        <rect x="400.5108767975738" y="314.67532467532465" height="75.32467532467535" width="25.731960091587837" stroke="rgb(48,48,48)" stroke-opacity="1.0" fill="rgb(255,255,255)" fill-opacity="0.9" stroke-width="1.6500000000000001">
        </rect>
        <rect x="371.9197827056146" y="270.51948051948057" height="119.48051948051943" width="25.731960091587837" stroke="rgb(48,48,48)" stroke-opacity="1.0" fill="rgb(255,255,255)" fill-opacity="0.9" stroke-width="1.6500000000000001">
        </rect>
        <rect x="343.3286886136554" y="252.33766233766232" height="137.66233766233768" width="25.731960091587837" stroke="rgb(48,48,48)" stroke-opacity="1.0" fill="rgb(255,255,255)" fill-opacity="0.9" stroke-width="1.6500000000000001">
        </rect>
        <rect x="314.73759452169617" y="236.75324675324677" height="153.24675324675323" width="25.731960091587837" stroke="rgb(48,48,48)" stroke-opacity="1.0" fill="rgb(255,255,255)" fill-opacity="0.9" stroke-width="1.6500000000000001">
        </rect>
        <rect x="286.14650042973693" y="190.0" height="200.0" width="25.731960091587837" stroke="rgb(48,48,48)" stroke-opacity="1.0" fill="rgb(255,255,255)" fill-opacity="0.9" stroke-width="1.6500000000000001">
        </rect>
        <rect x="257.55540633777775" y="156.23376623376623" height="233.76623376623377" width="25.731960091587837" stroke="rgb(48,48,48)" stroke-opacity="1.0" fill="rgb(255,255,255)" fill-opacity="0.9" stroke-width="1.6500000000000001">
        </rect>
        <rect x="228.96429858405438" y="52.33766233766232" height="337.6623376623377" width="25.731960091587837" stroke="rgb(48,48,48)" stroke-opacity="1.0" fill="rgb(255,255,255)" fill-opacity="0.9" stroke-width="1.6500000000000001">
        </rect>
        <rect x="200.37320449209517" y="18.571428571428555" height="371.42857142857144" width="25.731960091587837" stroke="rgb(48,48,48)" stroke-opacity="1.0" fill="rgb(255,255,255)" fill-opacity="0.9" stroke-width="1.6500000000000001">
        </rect>
        <rect x="171.78211040013596" y="36.75324675324674" height="353.24675324675326" width="25.731960091587837" stroke="rgb(48,48,48)" stroke-opacity="1.0" fill="rgb(255,255,255)" fill-opacity="0.9" stroke-width="1.6500000000000001">
        </rect>
        <rect x="143.19101630817676" y="104.28571428571428" height="285.7142857142857" width="25.73196009158781" stroke="rgb(48,48,48)" stroke-opacity="1.0" fill="rgb(255,255,255)" fill-opacity="0.9" stroke-width="1.6500000000000001">
        </rect>
        <rect x="114.59992221621754" y="327.6623376623377" height="62.33766233766232" width="25.731960091587823" stroke="rgb(48,48,48)" stroke-opacity="1.0" fill="rgb(255,255,255)" fill-opacity="0.9" stroke-width="1.6500000000000001">
        </rect>
        <rect x="86.00882812425833" y="325.06493506493507" height="64.93506493506493" width="25.731960091587823" stroke="rgb(48,48,48)" stroke-opacity="1.0" fill="rgb(255,255,255)" fill-opacity="0.9" stroke-width="1.6500000000000001">
        </rect>
        <rect x="57.41773403229911" y="325.06493506493507" height="64.93506493506493" width="25.731960091587837" stroke="rgb(48,48,48)" stroke-opacity="1.0" fill="rgb(255,255,255)" fill-opacity="0.9" stroke-width="1.6500000000000001">
        </rect>
        <rect x="28.8266399403399" y="283.5064935064935" height="106.49350649350652" width="25.731960091587826" stroke="rgb(48,48,48)" stroke-opacity="1.0" fill="rgb(255,255,255)" fill-opacity="0.9" stroke-width="1.6500000000000001">
        </rect>
      </g>
      <g transform="translate(42.99591213121782 0.0 ) " clip-path="url(#xXxprefixXx2)" clip-bounds-jfx="[rect (0.0, 0.0), (629.0040878687822, 390.0)]">
        <defs>
          <clipPath id="xXxprefixXx2">
            <rect x="0.0" y="0.0" width="629.0040878687822" height="390.0">
            </rect>
          </clipPath>
        </defs>
        <g>
          <path d="M28.59109490312646 330.511520151058 L28.59109490312646 330.511520151058 L29.710120184891835 328.66356254308596 L30.82914525319214 326.88152821152676 L31.94817074842258 325.17238621731565 L33.06719603018795 323.54261071706077 L34.1862208850232 321.9981153124687 L35.3052465937187 320.5442126499917 L36.42427144855394 319.1855487702533 L37.54329715724944 317.9260728077835 L38.66232201208469 316.7690066907538 L39.78134686691993 315.71680474062407 L40.900372575615435 314.77116882227494 L42.01939743045068 313.9330180437427 L43.13842228528592 313.202498856308 L44.25744884784169 312.5790153547603 L45.376473702676925 312.06122927739835 L46.495498557512164 311.6471155565156 L47.61452341234741 311.3339673684443 L48.73354997490317 311.11848198430647 L49.852574829738415 310.9967759201461 L50.97159968457366 310.96447078768 L52.09062453940891 311.0167286446066 L53.209649394244146 311.1483428954011 L54.32867595679991 311.35377364162423 L55.44770081163515 311.62723858271744 L56.56672566647039 311.9627736165324 L57.685750521305636 312.35428838981693 L58.80477537614088 312.79563699883323 L59.92380023097613 313.2806886899758 L61.0428285012524 313.8033581600366 L62.16185335608765 314.3576762568233 L63.28087821092289 314.93784552964473 L64.39990306575814 315.538240229311 L65.51892792059338 316.1534921588843 L66.63795277542862 316.7784755235464 L67.75697763026386 317.4083473309514 L68.87600248509911 318.0385574913149 L69.99502733993435 318.6648538674575 L71.11405561021063 319.28328227480495 L72.23308046504587 319.8901814313442 L73.35210531988112 320.4821627574466 L74.47113017471636 321.0560952257353 L75.59015502955161 321.6091003110414 L76.70917988438684 322.1384762397414 L77.82820473922209 322.6417131398899 L78.94722959405733 323.11643749073335 L80.06625444889258 323.5603717223575 L81.18528271916885 323.9712938153337 L82.3043075740041 324.3470120504982 L83.42333242883934 324.6852993583782 L84.54235728367459 324.9838731190152 L85.66138213850984 325.24034971156755 L86.78041040878611 325.4522091640013 L87.89943184818031 325.6167598027814 L89.0184601184566 325.73110290256227 L90.1374815578508 325.79212258609954 L91.25650982812708 325.79645047394126 L92.37553126752128 325.74046063438334 L93.49455953779757 325.62024433324905 L94.61358097719177 325.43162013397716 L95.73260924746805 325.1701187474896 L96.85163751774434 324.831003232368 L97.97065895713854 324.4092841449862 L99.08968722741481 323.89971448946613 L100.20870866680903 323.29685031820753 L101.3277369370853 322.59503558175567 L102.44675837647951 321.7884879795519 L103.5657866467558 320.8712939098895 L104.68480808615 319.8374791705319 L105.80383635642627 318.68104935906587 L106.92286462670256 317.39604037334317 L108.04188606609677 315.9765840620544 L109.16091433637304 314.41693852499435 L110.27993577576726 312.71158911394446 L111.39896404604353 310.85526358280583 L112.51798548543773 308.84302298839395 L113.63701375571402 306.6703071408359 L114.75603519510823 304.3330002541445 L115.8750634653845 301.82748144665993 L116.99409173566079 299.15068534157933 L118.11311317505499 296.30015761744306 L119.23214144533127 293.27407015826657 L120.35116288472548 290.07133215451205 L121.47019115500176 286.69152950255886 L122.58921259439596 283.1350662059394 L123.70824086467225 279.40310377480955 L124.82726230406645 275.4976319265668 L125.94629057434273 271.4214483856736 L127.06531884461901 267.178179083834 L128.18434028401322 262.7722983601702 L129.3033685542895 258.20907846078114 L130.4223899936837 253.49459963883064 L131.54141826396 248.635699654106 L132.6604397033542 243.6400040732828 L133.7794679736305 238.51579496877693 L134.8984894130247 233.2720311189212 L136.01751768330095 227.91828740743546 L137.13654595357724 222.46468412280834 L138.25556739297144 216.92181625767924 L139.37459566324773 211.30071310848493 L140.49361710264193 205.61274737466476 L141.61264537291822 199.86955435795426 L142.73166681231243 194.0830117622084 L143.85068825170663 188.26503769163537 L144.96972335286497 182.4277320520331 L146.08874479225918 176.58303314778638 L147.2077662316534 170.74287928328008 L148.32680133281175 164.91900676113283 L149.44582277220596 159.12292968202036 L150.56484421160016 153.3658793441457 L151.68386565099436 147.65874364270925 L152.80290075215274 142.0119862692023 L153.92192219154694 136.43566691158367 L155.04094363094114 130.93940085392643 L156.1599787320995 125.53221757518156 L157.2790001714937 120.2226819502377 L158.3980216108879 115.01881344921458 L159.5170430502821 109.92806593728659 L160.63607815144044 104.95732767468252 L161.75509959083467 100.1129617170389 L162.87412103022888 95.40074531487028 L163.99314246962308 90.82593051409901 L165.11217757078143 86.39326435623161 L166.23119901017563 82.10698887835923 L167.35022044956983 77.97082091298074 L168.4692555507282 73.98807328906241 L169.5882769901224 70.16155383115506 L170.7072984295166 66.49368656045357 L171.82631986891082 62.98649149462034 L172.94535497006916 59.64162504813851 L174.06437640946336 56.46031943178224 L175.1833978488576 53.44356445420607 L176.30243295001594 50.591905520178784 L177.42145438941014 47.9056860327031 L178.54047582880435 45.38482519107248 L179.65949726819855 43.02904019281419 L180.7785323693569 40.83768463227619 L181.89755380875113 38.80982930133388 L183.01657524814533 36.94430258974302 L184.13559668753953 35.239528883726905 L185.25463178869788 33.69377096809586 L186.37365322809208 32.304847223774516 L187.49267466748628 31.07041443027441 L188.61170976864466 29.987765763927996 L189.73073120803886 29.05387119824161 L190.84975264743306 28.265498704955405 L191.96877408682727 27.619012252277003 L193.0878091879856 27.110614207001106 L194.20683062737982 26.736183733096425 L195.32585206677405 26.491397992765314 L196.4448871679324 26.371691746090733 L197.5639086073266 26.37225735103624 L198.6829300467208 26.488206364858684 L199.801951486115 26.714488743402114 L200.92098658727338 27.04589284109744 L202.04000802666758 27.477247412728957 L203.15902946606178 28.0033004123743 L204.27805090545598 28.618840194464553 L205.39708600661433 29.31877631449038 L206.51610744600853 30.09805872829571 L207.63512888540274 30.951798993137572 L208.7541639865611 31.875391468745704 L209.8731854259553 32.86439211626265 L210.99220686534952 33.9147205000105 L212.11122830474372 35.022538586430585 L213.23026340590206 36.18437194514354 L214.34928484529627 37.39715014930255 L215.4683062846905 38.65816637524 L216.58734138584884 39.96507740246739 L217.70636282524305 41.316024814735385 L218.82538426463725 42.70951379897383 L219.94440570403145 44.14437274493844 L221.06344080518983 45.61995524697727 L222.18246224458403 47.135776500851364 L223.30148368397823 48.69187690691393 L224.42051878513658 50.288418066578004 L225.53954022453078 51.925864583905934 L226.65856166392498 53.604943665256144 L227.7775831033192 55.32642291734044 L228.89661820447756 57.09125174846008 L230.01563964387176 58.900359366739735 L231.13466108326597 60.75473558083411 L232.25368252266017 62.65526919851459 L233.37271762381852 64.60272782649292 L234.49173906321275 66.59769726989117 L235.61076050260695 68.64062193259508 L236.7297956037653 70.73164321584102 L237.8488170431595 72.87061971839262 L238.9678384825537 75.0571272365408 L240.0868599219479 77.29033756304398 L241.20589502310628 79.56918008854097 L242.32491646250048 81.89211959960846 L243.44393790189469 84.25731788017362 L244.56297300305303 86.6625731109844 L245.68199444244723 89.10536026996283 L246.80101588184144 91.58281093202822 L247.92003732123567 94.09181426998049 L249.039072422394 96.62897665414675 L250.15809386178822 99.19068225291136 L251.27711530118242 101.77317383342222 L252.39613674057662 104.37255276159078 L253.51517184173497 106.98483960262217 L254.6341932811292 109.6060145213682 L255.7532147205234 112.23209808303392 L256.87224982168175 114.85915125317752 L257.99125759931184 117.4833763985938 L259.11029270047015 120.10107688696047 L260.22932780162853 122.70875808772155 L261.34833557925856 125.30318797261725 L262.46737068041693 127.88129611480065 L263.5864057815753 130.44035549042752 L264.70541355920534 132.97790167794966 L265.8244486603637 135.49175305829172 L266.94348376152203 137.98003101502763 L268.0624915391521 140.44118013455736 L269.1815266403105 142.87390760557696 L270.3005344179405 145.2772034192552 L271.4195695190989 147.65038076958686 L272.5386046202572 149.99293465215638 L273.6576123978873 152.30462266484423 L274.7766474990457 154.58538420712054 L275.895682600204 156.83536068022173 L277.0146903778341 159.05485508679706 L278.1337254789924 161.24423103002587 L279.2527605801508 163.40401371450034 L280.3717683577808 165.53478894534254 L281.4908034589392 167.63716272785126 L282.60981123656927 169.7117814676784 L283.7288463377276 171.75933197082924 L284.84788143888596 173.78048084313235 L285.966889216516 175.77583408988647 L287.08592431767437 177.74603811674353 L288.2049594188327 179.69161812829583 L289.3239671964628 181.61313972948875 L290.4430022976211 183.51106752438474 L291.56203739877947 185.38586611704608 L292.68104517640955 187.23789911065205 L293.8000802775679 189.06755030855848 L294.91911537872625 190.87510251323812 L296.0381231563563 192.66085872734035 L297.15715825751465 194.42506135298464 L298.27616603514474 196.16793259211386 L299.39520113630306 197.88967444649424 L300.51423623746143 199.5904687177154 L301.63324401509146 201.27047700719035 L302.75227911624984 202.92984071615544 L303.8713142174082 204.56870124584705 L304.99032199503824 206.18713939697167 L306.1093570961966 207.7852359702358 L307.22839219735494 209.36307176634594 L308.347399974985 210.9206467853021 L309.46643507614334 212.45796102710423 L310.58544285377343 213.97495389122253 L311.7044779549318 215.47156477712707 L312.8235130560901 216.94763208340487 L313.9425208337202 218.40297400846634 L315.0615559348785 219.83734815019196 L316.1805910360369 221.25051210646228 L317.29959881366693 222.6420921740097 L318.4186339148253 224.011724749655 L319.5376690159837 225.35899572977743 L320.6566767936137 226.6834708105795 L321.7757118947721 227.98466518782232 L322.8947196724021 229.26211425744344 L324.0137547735605 230.51533321520395 L325.13278987471887 231.74385745704146 L326.2517976523489 232.94725267915857 L327.3708327535073 234.12514517828774 L328.4898678546656 235.27720165151464 L329.6088756322957 236.40316959663147 L330.727910733454 237.5029076124019 L331.84694583461237 238.57637529847267 L332.96595361224246 239.62365345555025 L334.0849887134008 240.6449541854892 L335.20402381455915 241.6406410914688 L336.3230315921892 242.61124947816953 L337.44206669334756 243.55745605150832 L338.56107447097764 244.4801193189917 L339.68010957213596 245.3802593895392 L340.79914467329434 246.2590781736599 L341.91815245092437 247.11793918327598 L343.03718755208274 247.95835743163425 L344.1562226532411 248.78201963348283 L345.27523043087115 249.5907337046295 L346.3942655320295 250.38645906220694 L347.51330063318784 251.17125612423067 L348.6323084108179 251.94728630959955 L349.75134351197624 252.71681203809547 L350.87035128960633 253.48213612985356 L351.9893863907647 254.24562200553885 L353.108421491923 255.0096431859047 L354.2274292695531 255.77658329179272 L355.34646437071143 256.54882594404455 L356.4654994718698 257.3286739627954 L357.58450724949984 258.1184099680038 L358.7035423506582 258.920215578745 L359.8225774518166 259.7361916133881 L360.9415852294466 260.56829748906557 L362.060620330605 261.41836132176184 L363.1796554317633 262.2880799263134 L364.2986632093934 263.17896831596704 L365.41769831055177 264.0923395022033 L366.5367060881818 265.0293448950898 L367.6557411893402 265.9909036026629 L368.7747762904985 266.9777327311928 L369.8937840681286 267.9903372850951 L371.01281916928696 269.02895966648924 L372.1318542704453 270.0936503758168 L373.25086204807536 271.184187211135 L374.3698971492337 272.3001358686463 L375.48893225039205 273.44083984261044 L376.6079400280221 274.6054002251676 L377.72697512918046 275.7927060066036 L378.84598290681055 277.0014340753495 L379.96501800796887 278.23006941815845 L381.08405310912724 279.47690512010576 L382.20306088675727 280.7400827649419 L383.32209598791565 282.0175722349163 L384.441131089074 283.30723231130673 L385.56013886670405 284.60681067441965 L386.6791739678624 285.9139540036782 L387.79820906902074 287.2262685781526 L388.91721684665083 288.5413101764712 L390.03625194780915 289.85660427699764 L391.15525972543924 291.16971675844866 L392.2742948265976 292.47822359962936 L393.39332992775593 293.7797714799631 L394.512337705386 295.0720878795796 L395.63137280654433 296.35298107931516 L396.7504079077027 297.6204108613307 L397.8694156853328 298.87243800867043 L398.9884507864911 300.10729500587956 L400.1074858876495 301.3233658388283 L401.2264936652795 302.51921629497633 L402.3455287664379 303.6935838632846 L403.4645638675962 304.8453777342154 L404.5835716452263 305.9737040499531 L405.7026067463847 307.07783560413924 L406.8216145240147 308.15721689191673 L407.9406496251731 309.21145905988544 L409.0596847263314 310.24033990610263 L410.1786925039615 311.24376347972924 L411.29772760511986 312.2217752311627 L412.4167627062782 313.17453676181606 L413.53577048390827 314.10230562394116 L414.6548055850666 315.00542017049656 L415.77384068622496 315.8843046051913 L416.892848463855 316.7394184820436 L418.01188356501336 317.5712769055574 L419.13089134264345 318.3804000302808 L420.24992644380177 319.167348411115 L421.36896154496014 319.93267250287306 L422.4879693225902 320.67691266027975 L423.60700442374855 321.40061428810384 L424.7260395249069 322.1042975408934 L425.84504730253695 322.7884674230641 L426.96408240369533 323.4536087388549 L428.08311750485365 324.1002062925047 L429.20212528248373 324.7287145879876 L430.32116038364205 325.339598229366 L431.44016816127214 325.933316770658 L432.5592032624305 326.51033481592606 L433.67823836358883 327.0711523195415 L434.7972461412189 327.6162843860084 L435.91628124237724 328.14628652018376 L437.0353163435356 328.6617647273664 L438.1543241211657 329.16338056334075 L439.273359222324 329.6518662845094 L440.3923943234824 330.12802484789324 L441.5114021011124 330.59274001121946 L442.6304372022708 331.04697633292193 L443.7494723034292 331.49178927222925 L444.8684800810592 331.9283251891648 L445.9875151822176 332.35781629450275 L447.1065229598476 332.78157559972357 L448.225558061006 333.201017117191 L449.3445931621643 333.61760535971024 L450.4636009397944 334.03288059074896 L451.58263604095276 334.4484537743928 L452.7016711421111 334.8659712250368 L453.82067891974117 335.28709945725234 L454.9397140208995 335.7135504360083 L456.05874912205786 336.14702602618536 L457.1777568996879 336.5892179925757 L458.29679200084627 337.04178779970664 L459.41579977847636 337.5063666118407 L460.5348348796347 337.9845098425778 L461.65386998079305 338.4777123049882 L462.7728777584231 338.98736276121474 L463.89191285958145 339.51474897251734 L465.0109479607398 340.06104759918423 L466.12995573836986 340.62728380017916 L467.24899083952823 341.21434638327355 L468.36802594068655 341.82296255482584 L469.48703371831664 342.4536979197816 L470.606068819475 343.1069362814966 L471.72510392063333 343.78287964173705 L472.8441116982634 344.48154820067975 L473.96314679942174 345.2027652067791 L475.0821545770518 345.9461620068117 L476.20118967821014 346.7111931960087 L477.3202247793685 347.49710631779095 L478.4392325569986 348.3029671139895 L479.5582676581569 349.12766457489005 L480.6773027593153 349.9699109392328 L481.7963105369453 350.828256844345 L482.9153456381037 351.701096376185 L484.0343807392621 352.5866771694306 L485.1533885168921 353.4831231326779 L486.2723962945222 354.3884420235074 L487.3914587192088 355.30053807359434 L488.5104664968389 356.2172397639515 L489.6294742744689 357.13630739999576 L490.7485366991556 358.05545583674655 L491.86754447678567 358.97237215398036 L492.9865522544157 359.88474090645167 L494.10561467910236 360.79025927402535 L495.2246224567324 361.6866597868753 L496.3436302343625 362.5717204255729 L497.46269265904914 363.44330754646217 L498.58170043667917 364.2993657815716 L499.70070821430926 365.13795843896753 L500.81977063899586 365.9572750778198 L501.93877841662595 366.75564665853494 L503.057786194256 367.53156826795447 L504.17684861894264 368.28369911935494 L505.29585639657273 369.01088022760257 L506.41486417420276 369.7121445092414 L507.53387195183285 370.3867205700267 L508.65293437651945 371.0340339674356 L509.77194215414954 371.6537160482448 L510.8909499317796 372.2455963734641 L512.0100123564663 372.8097052433582 L513.1290201340963 373.3462610723371 L514.2480279117264 373.8556716514663 L515.3670903364131 374.3385177358237 L516.4860981140431 374.7955416819003 L517.6051058916731 375.2276386100227 L518.7241683163599 375.63583367915464 L519.8431760939899 376.0212745118306 L520.9621838716199 376.38520341891285 L522.0812462963065 376.72894856201447 L523.2002540739367 377.0538999657894 L524.3192618515667 377.36148805524493 L525.4383242762533 377.65316976812 L526.5573320538834 377.9304096172198 L527.6763398315135 378.19465822772827 L528.7954022562001 378.44733844958625 L529.9144100338301 378.68982515731534 L531.0334178114603 378.9234401999733 L532.1524802361469 379.1494296759557 L533.2714880137769 379.36895762044037 L534.390495791407 379.5830965365551 L535.5095035690371 379.792822345333 L536.6285659937237 379.99900365436883 L537.7475737713538 380.2024030203302 L538.8665815489838 380.40367379267985 L539.9856439736704 380.60335948242 L541.1046517513005 380.80189944339224 L542.2236595289305 380.99962760976643 L543.3427219536172 381.19678007110684 L544.4617297312473 381.39350201618294 L545.5807375088773 381.58985278301355 L546.699799933564 381.7858159589552 L547.818807711194 381.9813056932572 L548.9378154888241 382.1761774284056 L550.0568779135108 382.3702380002115 L551.1758856911408 382.56325131911046 L552.2948934687709 382.75495099527336 L553.4139558934575 382.9450479136723 L554.5329636710876 383.1332390716578 L555.6519714487176 383.31921326025883 L556.7710338734042 383.5026617955263 L557.8900416510344 383.6832810435553 L559.0090494286644 383.86078188931805 L560.1280572062944 384.0348922616855 L561.247119630981 384.2053602897054 L562.3661274086112 384.3719618776684 L563.4851351862412 384.5344988113413 L564.6041976109278 384.6928025455004 L565.723205388558 384.8467354664424 L566.842213166188 384.99619120761236 L567.9612755908746 385.1410943339757 L569.0802833685046 385.2814006576459 L570.1992911461348 385.41709629100177 L571.3183535708214 385.5481963841756 L572.4373613484514 385.6747426000317 L573.5563691260816 385.79680406104956 L574.6754315507682 385.91447261490714 L575.7944393283982 386.02786315010906 L576.9134471060282 386.1371104397087 L578.032509530715 386.2423672475418 L579.151517308345 386.3438024344598 L580.270525085975 386.44159906456343 L581.3895875106617 386.5359515645526 L582.5085952882918 386.62706414558795 L583.6276030659218 386.715148909524 L584.7466654906085 386.80042300825943 L585.8656732682385 386.8831073812261 L586.9846810458686 386.96342454599466 L588.1036888234986 387.0415963888802 L589.2227512481853 387.11784195554793 L590.3417590258153 387.19237587287455 L591.4607668034454 387.2654061395537 L592.5798292281321 387.3371334948406 L593.6988370057621 387.4077473153911 L594.8178447833922 387.47742608870334 L595.9369072080788 387.5463347302817 L597.0559149857089 387.61462379456776 L598.1749227633389 387.68242726554547 L599.2939851880255 387.74986239892746 L600.4129929656557 387.81702845964435 L600.4129929656557 390.0 L599.2939851880255 390.0 L598.1749227633389 390.0 L597.0559149857089 390.0 L595.9369072080788 390.0 L594.8178447833922 390.0 L593.6988370057621 390.0 L592.5798292281321 390.0 L591.4607668034454 390.0 L590.3417590258153 390.0 L589.2227512481853 390.0 L588.1036888234986 390.0 L586.9846810458686 390.0 L585.8656732682385 390.0 L584.7466654906085 390.0 L583.6276030659218 390.0 L582.5085952882918 390.0 L581.3895875106617 390.0 L580.270525085975 390.0 L579.151517308345 390.0 L578.032509530715 390.0 L576.9134471060282 390.0 L575.7944393283982 390.0 L574.6754315507682 390.0 L573.5563691260816 390.0 L572.4373613484514 390.0 L571.3183535708214 390.0 L570.1992911461348 390.0 L569.0802833685046 390.0 L567.9612755908746 390.0 L566.842213166188 390.0 L565.723205388558 390.0 L564.6041976109278 390.0 L563.4851351862412 390.0 L562.3661274086112 390.0 L561.247119630981 390.0 L560.1280572062944 390.0 L559.0090494286644 390.0 L557.8900416510344 390.0 L556.7710338734042 390.0 L555.6519714487176 390.0 L554.5329636710876 390.0 L553.4139558934575 390.0 L552.2948934687709 390.0 L551.1758856911408 390.0 L550.0568779135108 390.0 L548.9378154888241 390.0 L547.818807711194 390.0 L546.699799933564 390.0 L545.5807375088773 390.0 L544.4617297312473 390.0 L543.3427219536172 390.0 L542.2236595289305 390.0 L541.1046517513005 390.0 L539.9856439736704 390.0 L538.8665815489838 390.0 L537.7475737713538 390.0 L536.6285659937237 390.0 L535.5095035690371 390.0 L534.390495791407 390.0 L533.2714880137769 390.0 L532.1524802361469 390.0 L531.0334178114603 390.0 L529.9144100338301 390.0 L528.7954022562001 390.0 L527.6763398315135 390.0 L526.5573320538834 390.0 L525.4383242762533 390.0 L524.3192618515667 390.0 L523.2002540739367 390.0 L522.0812462963065 390.0 L520.9621838716199 390.0 L519.8431760939899 390.0 L518.7241683163599 390.0 L517.6051058916731 390.0 L516.4860981140431 390.0 L515.3670903364131 390.0 L514.2480279117264 390.0 L513.1290201340963 390.0 L512.0100123564663 390.0 L510.8909499317796 390.0 L509.77194215414954 390.0 L508.65293437651945 390.0 L507.53387195183285 390.0 L506.41486417420276 390.0 L505.29585639657273 390.0 L504.17684861894264 390.0 L503.057786194256 390.0 L501.93877841662595 390.0 L500.81977063899586 390.0 L499.70070821430926 390.0 L498.58170043667917 390.0 L497.46269265904914 390.0 L496.3436302343625 390.0 L495.2246224567324 390.0 L494.10561467910236 390.0 L492.9865522544157 390.0 L491.86754447678567 390.0 L490.7485366991556 390.0 L489.6294742744689 390.0 L488.5104664968389 390.0 L487.3914587192088 390.0 L486.2723962945222 390.0 L485.1533885168921 390.0 L484.0343807392621 390.0 L482.9153456381037 390.0 L481.7963105369453 390.0 L480.6773027593153 390.0 L479.5582676581569 390.0 L478.4392325569986 390.0 L477.3202247793685 390.0 L476.20118967821014 390.0 L475.0821545770518 390.0 L473.96314679942174 390.0 L472.8441116982634 390.0 L471.72510392063333 390.0 L470.606068819475 390.0 L469.48703371831664 390.0 L468.36802594068655 390.0 L467.24899083952823 390.0 L466.12995573836986 390.0 L465.0109479607398 390.0 L463.89191285958145 390.0 L462.7728777584231 390.0 L461.65386998079305 390.0 L460.5348348796347 390.0 L459.41579977847636 390.0 L458.29679200084627 390.0 L457.1777568996879 390.0 L456.05874912205786 390.0 L454.9397140208995 390.0 L453.82067891974117 390.0 L452.7016711421111 390.0 L451.58263604095276 390.0 L450.4636009397944 390.0 L449.3445931621643 390.0 L448.225558061006 390.0 L447.1065229598476 390.0 L445.9875151822176 390.0 L444.8684800810592 390.0 L443.7494723034292 390.0 L442.6304372022708 390.0 L441.5114021011124 390.0 L440.3923943234824 390.0 L439.273359222324 390.0 L438.1543241211657 390.0 L437.0353163435356 390.0 L435.91628124237724 390.0 L434.7972461412189 390.0 L433.67823836358883 390.0 L432.5592032624305 390.0 L431.44016816127214 390.0 L430.32116038364205 390.0 L429.20212528248373 390.0 L428.08311750485365 390.0 L426.96408240369533 390.0 L425.84504730253695 390.0 L424.7260395249069 390.0 L423.60700442374855 390.0 L422.4879693225902 390.0 L421.36896154496014 390.0 L420.24992644380177 390.0 L419.13089134264345 390.0 L418.01188356501336 390.0 L416.892848463855 390.0 L415.77384068622496 390.0 L414.6548055850666 390.0 L413.53577048390827 390.0 L412.4167627062782 390.0 L411.29772760511986 390.0 L410.1786925039615 390.0 L409.0596847263314 390.0 L407.9406496251731 390.0 L406.8216145240147 390.0 L405.7026067463847 390.0 L404.5835716452263 390.0 L403.4645638675962 390.0 L402.3455287664379 390.0 L401.2264936652795 390.0 L400.1074858876495 390.0 L398.9884507864911 390.0 L397.8694156853328 390.0 L396.7504079077027 390.0 L395.63137280654433 390.0 L394.512337705386 390.0 L393.39332992775593 390.0 L392.2742948265976 390.0 L391.15525972543924 390.0 L390.03625194780915 390.0 L388.91721684665083 390.0 L387.79820906902074 390.0 L386.6791739678624 390.0 L385.56013886670405 390.0 L384.441131089074 390.0 L383.32209598791565 390.0 L382.20306088675727 390.0 L381.08405310912724 390.0 L379.96501800796887 390.0 L378.84598290681055 390.0 L377.72697512918046 390.0 L376.6079400280221 390.0 L375.48893225039205 390.0 L374.3698971492337 390.0 L373.25086204807536 390.0 L372.1318542704453 390.0 L371.01281916928696 390.0 L369.8937840681286 390.0 L368.7747762904985 390.0 L367.6557411893402 390.0 L366.5367060881818 390.0 L365.41769831055177 390.0 L364.2986632093934 390.0 L363.1796554317633 390.0 L362.060620330605 390.0 L360.9415852294466 390.0 L359.8225774518166 390.0 L358.7035423506582 390.0 L357.58450724949984 390.0 L356.4654994718698 390.0 L355.34646437071143 390.0 L354.2274292695531 390.0 L353.108421491923 390.0 L351.9893863907647 390.0 L350.87035128960633 390.0 L349.75134351197624 390.0 L348.6323084108179 390.0 L347.51330063318784 390.0 L346.3942655320295 390.0 L345.27523043087115 390.0 L344.1562226532411 390.0 L343.03718755208274 390.0 L341.91815245092437 390.0 L340.79914467329434 390.0 L339.68010957213596 390.0 L338.56107447097764 390.0 L337.44206669334756 390.0 L336.3230315921892 390.0 L335.20402381455915 390.0 L334.0849887134008 390.0 L332.96595361224246 390.0 L331.84694583461237 390.0 L330.727910733454 390.0 L329.6088756322957 390.0 L328.4898678546656 390.0 L327.3708327535073 390.0 L326.2517976523489 390.0 L325.13278987471887 390.0 L324.0137547735605 390.0 L322.8947196724021 390.0 L321.7757118947721 390.0 L320.6566767936137 390.0 L319.5376690159837 390.0 L318.4186339148253 390.0 L317.29959881366693 390.0 L316.1805910360369 390.0 L315.0615559348785 390.0 L313.9425208337202 390.0 L312.8235130560901 390.0 L311.7044779549318 390.0 L310.58544285377343 390.0 L309.46643507614334 390.0 L308.347399974985 390.0 L307.22839219735494 390.0 L306.1093570961966 390.0 L304.99032199503824 390.0 L303.8713142174082 390.0 L302.75227911624984 390.0 L301.63324401509146 390.0 L300.51423623746143 390.0 L299.39520113630306 390.0 L298.27616603514474 390.0 L297.15715825751465 390.0 L296.0381231563563 390.0 L294.91911537872625 390.0 L293.8000802775679 390.0 L292.68104517640955 390.0 L291.56203739877947 390.0 L290.4430022976211 390.0 L289.3239671964628 390.0 L288.2049594188327 390.0 L287.08592431767437 390.0 L285.966889216516 390.0 L284.84788143888596 390.0 L283.7288463377276 390.0 L282.60981123656927 390.0 L281.4908034589392 390.0 L280.3717683577808 390.0 L279.2527605801508 390.0 L278.1337254789924 390.0 L277.0146903778341 390.0 L275.895682600204 390.0 L274.7766474990457 390.0 L273.6576123978873 390.0 L272.5386046202572 390.0 L271.4195695190989 390.0 L270.3005344179405 390.0 L269.1815266403105 390.0 L268.0624915391521 390.0 L266.94348376152203 390.0 L265.8244486603637 390.0 L264.70541355920534 390.0 L263.5864057815753 390.0 L262.46737068041693 390.0 L261.34833557925856 390.0 L260.22932780162853 390.0 L259.11029270047015 390.0 L257.99125759931184 390.0 L256.87224982168175 390.0 L255.7532147205234 390.0 L254.6341932811292 390.0 L253.51517184173497 390.0 L252.39613674057662 390.0 L251.27711530118242 390.0 L250.15809386178822 390.0 L249.039072422394 390.0 L247.92003732123567 390.0 L246.80101588184144 390.0 L245.68199444244723 390.0 L244.56297300305303 390.0 L243.44393790189469 390.0 L242.32491646250048 390.0 L241.20589502310628 390.0 L240.0868599219479 390.0 L238.9678384825537 390.0 L237.8488170431595 390.0 L236.7297956037653 390.0 L235.61076050260695 390.0 L234.49173906321275 390.0 L233.37271762381852 390.0 L232.25368252266017 390.0 L231.13466108326597 390.0 L230.01563964387176 390.0 L228.89661820447756 390.0 L227.7775831033192 390.0 L226.65856166392498 390.0 L225.53954022453078 390.0 L224.42051878513658 390.0 L223.30148368397823 390.0 L222.18246224458403 390.0 L221.06344080518983 390.0 L219.94440570403145 390.0 L218.82538426463725 390.0 L217.70636282524305 390.0 L216.58734138584884 390.0 L215.4683062846905 390.0 L214.34928484529627 390.0 L213.23026340590206 390.0 L212.11122830474372 390.0 L210.99220686534952 390.0 L209.8731854259553 390.0 L208.7541639865611 390.0 L207.63512888540274 390.0 L206.51610744600853 390.0 L205.39708600661433 390.0 L204.27805090545598 390.0 L203.15902946606178 390.0 L202.04000802666758 390.0 L200.92098658727338 390.0 L199.801951486115 390.0 L198.6829300467208 390.0 L197.5639086073266 390.0 L196.4448871679324 390.0 L195.32585206677405 390.0 L194.20683062737982 390.0 L193.0878091879856 390.0 L191.96877408682727 390.0 L190.84975264743306 390.0 L189.73073120803886 390.0 L188.61170976864466 390.0 L187.49267466748628 390.0 L186.37365322809208 390.0 L185.25463178869788 390.0 L184.13559668753953 390.0 L183.01657524814533 390.0 L181.89755380875113 390.0 L180.7785323693569 390.0 L179.65949726819855 390.0 L178.54047582880435 390.0 L177.42145438941014 390.0 L176.30243295001594 390.0 L175.1833978488576 390.0 L174.06437640946336 390.0 L172.94535497006916 390.0 L171.82631986891082 390.0 L170.7072984295166 390.0 L169.5882769901224 390.0 L168.4692555507282 390.0 L167.35022044956983 390.0 L166.23119901017563 390.0 L165.11217757078143 390.0 L163.99314246962308 390.0 L162.87412103022888 390.0 L161.75509959083467 390.0 L160.63607815144044 390.0 L159.5170430502821 390.0 L158.3980216108879 390.0 L157.2790001714937 390.0 L156.1599787320995 390.0 L155.04094363094114 390.0 L153.92192219154694 390.0 L152.80290075215274 390.0 L151.68386565099436 390.0 L150.56484421160016 390.0 L149.44582277220596 390.0 L148.32680133281175 390.0 L147.2077662316534 390.0 L146.08874479225918 390.0 L144.96972335286497 390.0 L143.85068825170663 390.0 L142.73166681231243 390.0 L141.61264537291822 390.0 L140.49361710264193 390.0 L139.37459566324773 390.0 L138.25556739297144 390.0 L137.13654595357724 390.0 L136.01751768330095 390.0 L134.8984894130247 390.0 L133.7794679736305 390.0 L132.6604397033542 390.0 L131.54141826396 390.0 L130.4223899936837 390.0 L129.3033685542895 390.0 L128.18434028401322 390.0 L127.06531884461901 390.0 L125.94629057434273 390.0 L124.82726230406645 390.0 L123.70824086467225 390.0 L122.58921259439596 390.0 L121.47019115500176 390.0 L120.35116288472548 390.0 L119.23214144533127 390.0 L118.11311317505499 390.0 L116.99409173566079 390.0 L115.8750634653845 390.0 L114.75603519510823 390.0 L113.63701375571402 390.0 L112.51798548543773 390.0 L111.39896404604353 390.0 L110.27993577576726 390.0 L109.16091433637304 390.0 L108.04188606609677 390.0 L106.92286462670256 390.0 L105.80383635642627 390.0 L104.68480808615 390.0 L103.5657866467558 390.0 L102.44675837647951 390.0 L101.3277369370853 390.0 L100.20870866680903 390.0 L99.08968722741481 390.0 L97.97065895713854 390.0 L96.85163751774434 390.0 L95.73260924746805 390.0 L94.61358097719177 390.0 L93.49455953779757 390.0 L92.37553126752128 390.0 L91.25650982812708 390.0 L90.1374815578508 390.0 L89.0184601184566 390.0 L87.89943184818031 390.0 L86.78041040878611 390.0 L85.66138213850984 390.0 L84.54235728367459 390.0 L83.42333242883934 390.0 L82.3043075740041 390.0 L81.18528271916885 390.0 L80.06625444889258 390.0 L78.94722959405733 390.0 L77.82820473922209 390.0 L76.70917988438684 390.0 L75.59015502955161 390.0 L74.47113017471636 390.0 L73.35210531988112 390.0 L72.23308046504587 390.0 L71.11405561021063 390.0 L69.99502733993435 390.0 L68.87600248509911 390.0 L67.75697763026386 390.0 L66.63795277542862 390.0 L65.51892792059338 390.0 L64.39990306575814 390.0 L63.28087821092289 390.0 L62.16185335608765 390.0 L61.0428285012524 390.0 L59.92380023097613 390.0 L58.80477537614088 390.0 L57.685750521305636 390.0 L56.56672566647039 390.0 L55.44770081163515 390.0 L54.32867595679991 390.0 L53.209649394244146 390.0 L52.09062453940891 390.0 L50.97159968457366 390.0 L49.852574829738415 390.0 L48.73354997490317 390.0 L47.61452341234741 390.0 L46.495498557512164 390.0 L45.376473702676925 390.0 L44.25744884784169 390.0 L43.13842228528592 390.0 L42.01939743045068 390.0 L40.900372575615435 390.0 L39.78134686691993 390.0 L38.66232201208469 390.0 L37.54329715724944 390.0 L36.42427144855394 390.0 L35.3052465937187 390.0 L34.1862208850232 390.0 L33.06719603018795 390.0 L31.94817074842258 390.0 L30.82914525319214 390.0 L29.710120184891835 390.0 L28.59109490312646 390.0 Z" fill="rgb(255,102,102)" stroke-width="1.0" fill-opacity="0.5019607843137255">
          </path>
        </g>
        <g>
          <path d="M28.59109490312646 330.511520151058 L28.59109490312646 330.511520151058 L29.710120184891835 328.66356254308596 L30.82914525319214 326.88152821152676 L31.94817074842258 325.17238621731565 L33.06719603018795 323.54261071706077 L34.1862208850232 321.9981153124687 L35.3052465937187 320.5442126499917 L36.42427144855394 319.1855487702533 L37.54329715724944 317.9260728077835 L38.66232201208469 316.7690066907538 L39.78134686691993 315.71680474062407 L40.900372575615435 314.77116882227494 L42.01939743045068 313.9330180437427 L43.13842228528592 313.202498856308 L44.25744884784169 312.5790153547603 L45.376473702676925 312.06122927739835 L46.495498557512164 311.6471155565156 L47.61452341234741 311.3339673684443 L48.73354997490317 311.11848198430647 L49.852574829738415 310.9967759201461 L50.97159968457366 310.96447078768 L52.09062453940891 311.0167286446066 L53.209649394244146 311.1483428954011 L54.32867595679991 311.35377364162423 L55.44770081163515 311.62723858271744 L56.56672566647039 311.9627736165324 L57.685750521305636 312.35428838981693 L58.80477537614088 312.79563699883323 L59.92380023097613 313.2806886899758 L61.0428285012524 313.8033581600366 L62.16185335608765 314.3576762568233 L63.28087821092289 314.93784552964473 L64.39990306575814 315.538240229311 L65.51892792059338 316.1534921588843 L66.63795277542862 316.7784755235464 L67.75697763026386 317.4083473309514 L68.87600248509911 318.0385574913149 L69.99502733993435 318.6648538674575 L71.11405561021063 319.28328227480495 L72.23308046504587 319.8901814313442 L73.35210531988112 320.4821627574466 L74.47113017471636 321.0560952257353 L75.59015502955161 321.6091003110414 L76.70917988438684 322.1384762397414 L77.82820473922209 322.6417131398899 L78.94722959405733 323.11643749073335 L80.06625444889258 323.5603717223575 L81.18528271916885 323.9712938153337 L82.3043075740041 324.3470120504982 L83.42333242883934 324.6852993583782 L84.54235728367459 324.9838731190152 L85.66138213850984 325.24034971156755 L86.78041040878611 325.4522091640013 L87.89943184818031 325.6167598027814 L89.0184601184566 325.73110290256227 L90.1374815578508 325.79212258609954 L91.25650982812708 325.79645047394126 L92.37553126752128 325.74046063438334 L93.49455953779757 325.62024433324905 L94.61358097719177 325.43162013397716 L95.73260924746805 325.1701187474896 L96.85163751774434 324.831003232368 L97.97065895713854 324.4092841449862 L99.08968722741481 323.89971448946613 L100.20870866680903 323.29685031820753 L101.3277369370853 322.59503558175567 L102.44675837647951 321.7884879795519 L103.5657866467558 320.8712939098895 L104.68480808615 319.8374791705319 L105.80383635642627 318.68104935906587 L106.92286462670256 317.39604037334317 L108.04188606609677 315.9765840620544 L109.16091433637304 314.41693852499435 L110.27993577576726 312.71158911394446 L111.39896404604353 310.85526358280583 L112.51798548543773 308.84302298839395 L113.63701375571402 306.6703071408359 L114.75603519510823 304.3330002541445 L115.8750634653845 301.82748144665993 L116.99409173566079 299.15068534157933 L118.11311317505499 296.30015761744306 L119.23214144533127 293.27407015826657 L120.35116288472548 290.07133215451205 L121.47019115500176 286.69152950255886 L122.58921259439596 283.1350662059394 L123.70824086467225 279.40310377480955 L124.82726230406645 275.4976319265668 L125.94629057434273 271.4214483856736 L127.06531884461901 267.178179083834 L128.18434028401322 262.7722983601702 L129.3033685542895 258.20907846078114 L130.4223899936837 253.49459963883064 L131.54141826396 248.635699654106 L132.6604397033542 243.6400040732828 L133.7794679736305 238.51579496877693 L134.8984894130247 233.2720311189212 L136.01751768330095 227.91828740743546 L137.13654595357724 222.46468412280834 L138.25556739297144 216.92181625767924 L139.37459566324773 211.30071310848493 L140.49361710264193 205.61274737466476 L141.61264537291822 199.86955435795426 L142.73166681231243 194.0830117622084 L143.85068825170663 188.26503769163537 L144.96972335286497 182.4277320520331 L146.08874479225918 176.58303314778638 L147.2077662316534 170.74287928328008 L148.32680133281175 164.91900676113283 L149.44582277220596 159.12292968202036 L150.56484421160016 153.3658793441457 L151.68386565099436 147.65874364270925 L152.80290075215274 142.0119862692023 L153.92192219154694 136.43566691158367 L155.04094363094114 130.93940085392643 L156.1599787320995 125.53221757518156 L157.2790001714937 120.2226819502377 L158.3980216108879 115.01881344921458 L159.5170430502821 109.92806593728659 L160.63607815144044 104.95732767468252 L161.75509959083467 100.1129617170389 L162.87412103022888 95.40074531487028 L163.99314246962308 90.82593051409901 L165.11217757078143 86.39326435623161 L166.23119901017563 82.10698887835923 L167.35022044956983 77.97082091298074 L168.4692555507282 73.98807328906241 L169.5882769901224 70.16155383115506 L170.7072984295166 66.49368656045357 L171.82631986891082 62.98649149462034 L172.94535497006916 59.64162504813851 L174.06437640946336 56.46031943178224 L175.1833978488576 53.44356445420607 L176.30243295001594 50.591905520178784 L177.42145438941014 47.9056860327031 L178.54047582880435 45.38482519107248 L179.65949726819855 43.02904019281419 L180.7785323693569 40.83768463227619 L181.89755380875113 38.80982930133388 L183.01657524814533 36.94430258974302 L184.13559668753953 35.239528883726905 L185.25463178869788 33.69377096809586 L186.37365322809208 32.304847223774516 L187.49267466748628 31.07041443027441 L188.61170976864466 29.987765763927996 L189.73073120803886 29.05387119824161 L190.84975264743306 28.265498704955405 L191.96877408682727 27.619012252277003 L193.0878091879856 27.110614207001106 L194.20683062737982 26.736183733096425 L195.32585206677405 26.491397992765314 L196.4448871679324 26.371691746090733 L197.5639086073266 26.37225735103624 L198.6829300467208 26.488206364858684 L199.801951486115 26.714488743402114 L200.92098658727338 27.04589284109744 L202.04000802666758 27.477247412728957 L203.15902946606178 28.0033004123743 L204.27805090545598 28.618840194464553 L205.39708600661433 29.31877631449038 L206.51610744600853 30.09805872829571 L207.63512888540274 30.951798993137572 L208.7541639865611 31.875391468745704 L209.8731854259553 32.86439211626265 L210.99220686534952 33.9147205000105 L212.11122830474372 35.022538586430585 L213.23026340590206 36.18437194514354 L214.34928484529627 37.39715014930255 L215.4683062846905 38.65816637524 L216.58734138584884 39.96507740246739 L217.70636282524305 41.316024814735385 L218.82538426463725 42.70951379897383 L219.94440570403145 44.14437274493844 L221.06344080518983 45.61995524697727 L222.18246224458403 47.135776500851364 L223.30148368397823 48.69187690691393 L224.42051878513658 50.288418066578004 L225.53954022453078 51.925864583905934 L226.65856166392498 53.604943665256144 L227.7775831033192 55.32642291734044 L228.89661820447756 57.09125174846008 L230.01563964387176 58.900359366739735 L231.13466108326597 60.75473558083411 L232.25368252266017 62.65526919851459 L233.37271762381852 64.60272782649292 L234.49173906321275 66.59769726989117 L235.61076050260695 68.64062193259508 L236.7297956037653 70.73164321584102 L237.8488170431595 72.87061971839262 L238.9678384825537 75.0571272365408 L240.0868599219479 77.29033756304398 L241.20589502310628 79.56918008854097 L242.32491646250048 81.89211959960846 L243.44393790189469 84.25731788017362 L244.56297300305303 86.6625731109844 L245.68199444244723 89.10536026996283 L246.80101588184144 91.58281093202822 L247.92003732123567 94.09181426998049 L249.039072422394 96.62897665414675 L250.15809386178822 99.19068225291136 L251.27711530118242 101.77317383342222 L252.39613674057662 104.37255276159078 L253.51517184173497 106.98483960262217 L254.6341932811292 109.6060145213682 L255.7532147205234 112.23209808303392 L256.87224982168175 114.85915125317752 L257.99125759931184 117.4833763985938 L259.11029270047015 120.10107688696047 L260.22932780162853 122.70875808772155 L261.34833557925856 125.30318797261725 L262.46737068041693 127.88129611480065 L263.5864057815753 130.44035549042752 L264.70541355920534 132.97790167794966 L265.8244486603637 135.49175305829172 L266.94348376152203 137.98003101502763 L268.0624915391521 140.44118013455736 L269.1815266403105 142.87390760557696 L270.3005344179405 145.2772034192552 L271.4195695190989 147.65038076958686 L272.5386046202572 149.99293465215638 L273.6576123978873 152.30462266484423 L274.7766474990457 154.58538420712054 L275.895682600204 156.83536068022173 L277.0146903778341 159.05485508679706 L278.1337254789924 161.24423103002587 L279.2527605801508 163.40401371450034 L280.3717683577808 165.53478894534254 L281.4908034589392 167.63716272785126 L282.60981123656927 169.7117814676784 L283.7288463377276 171.75933197082924 L284.84788143888596 173.78048084313235 L285.966889216516 175.77583408988647 L287.08592431767437 177.74603811674353 L288.2049594188327 179.69161812829583 L289.3239671964628 181.61313972948875 L290.4430022976211 183.51106752438474 L291.56203739877947 185.38586611704608 L292.68104517640955 187.23789911065205 L293.8000802775679 189.06755030855848 L294.91911537872625 190.87510251323812 L296.0381231563563 192.66085872734035 L297.15715825751465 194.42506135298464 L298.27616603514474 196.16793259211386 L299.39520113630306 197.88967444649424 L300.51423623746143 199.5904687177154 L301.63324401509146 201.27047700719035 L302.75227911624984 202.92984071615544 L303.8713142174082 204.56870124584705 L304.99032199503824 206.18713939697167 L306.1093570961966 207.7852359702358 L307.22839219735494 209.36307176634594 L308.347399974985 210.9206467853021 L309.46643507614334 212.45796102710423 L310.58544285377343 213.97495389122253 L311.7044779549318 215.47156477712707 L312.8235130560901 216.94763208340487 L313.9425208337202 218.40297400846634 L315.0615559348785 219.83734815019196 L316.1805910360369 221.25051210646228 L317.29959881366693 222.6420921740097 L318.4186339148253 224.011724749655 L319.5376690159837 225.35899572977743 L320.6566767936137 226.6834708105795 L321.7757118947721 227.98466518782232 L322.8947196724021 229.26211425744344 L324.0137547735605 230.51533321520395 L325.13278987471887 231.74385745704146 L326.2517976523489 232.94725267915857 L327.3708327535073 234.12514517828774 L328.4898678546656 235.27720165151464 L329.6088756322957 236.40316959663147 L330.727910733454 237.5029076124019 L331.84694583461237 238.57637529847267 L332.96595361224246 239.62365345555025 L334.0849887134008 240.6449541854892 L335.20402381455915 241.6406410914688 L336.3230315921892 242.61124947816953 L337.44206669334756 243.55745605150832 L338.56107447097764 244.4801193189917 L339.68010957213596 245.3802593895392 L340.79914467329434 246.2590781736599 L341.91815245092437 247.11793918327598 L343.03718755208274 247.95835743163425 L344.1562226532411 248.78201963348283 L345.27523043087115 249.5907337046295 L346.3942655320295 250.38645906220694 L347.51330063318784 251.17125612423067 L348.6323084108179 251.94728630959955 L349.75134351197624 252.71681203809547 L350.87035128960633 253.48213612985356 L351.9893863907647 254.24562200553885 L353.108421491923 255.0096431859047 L354.2274292695531 255.77658329179272 L355.34646437071143 256.54882594404455 L356.4654994718698 257.3286739627954 L357.58450724949984 258.1184099680038 L358.7035423506582 258.920215578745 L359.8225774518166 259.7361916133881 L360.9415852294466 260.56829748906557 L362.060620330605 261.41836132176184 L363.1796554317633 262.2880799263134 L364.2986632093934 263.17896831596704 L365.41769831055177 264.0923395022033 L366.5367060881818 265.0293448950898 L367.6557411893402 265.9909036026629 L368.7747762904985 266.9777327311928 L369.8937840681286 267.9903372850951 L371.01281916928696 269.02895966648924 L372.1318542704453 270.0936503758168 L373.25086204807536 271.184187211135 L374.3698971492337 272.3001358686463 L375.48893225039205 273.44083984261044 L376.6079400280221 274.6054002251676 L377.72697512918046 275.7927060066036 L378.84598290681055 277.0014340753495 L379.96501800796887 278.23006941815845 L381.08405310912724 279.47690512010576 L382.20306088675727 280.7400827649419 L383.32209598791565 282.0175722349163 L384.441131089074 283.30723231130673 L385.56013886670405 284.60681067441965 L386.6791739678624 285.9139540036782 L387.79820906902074 287.2262685781526 L388.91721684665083 288.5413101764712 L390.03625194780915 289.85660427699764 L391.15525972543924 291.16971675844866 L392.2742948265976 292.47822359962936 L393.39332992775593 293.7797714799631 L394.512337705386 295.0720878795796 L395.63137280654433 296.35298107931516 L396.7504079077027 297.6204108613307 L397.8694156853328 298.87243800867043 L398.9884507864911 300.10729500587956 L400.1074858876495 301.3233658388283 L401.2264936652795 302.51921629497633 L402.3455287664379 303.6935838632846 L403.4645638675962 304.8453777342154 L404.5835716452263 305.9737040499531 L405.7026067463847 307.07783560413924 L406.8216145240147 308.15721689191673 L407.9406496251731 309.21145905988544 L409.0596847263314 310.24033990610263 L410.1786925039615 311.24376347972924 L411.29772760511986 312.2217752311627 L412.4167627062782 313.17453676181606 L413.53577048390827 314.10230562394116 L414.6548055850666 315.00542017049656 L415.77384068622496 315.8843046051913 L416.892848463855 316.7394184820436 L418.01188356501336 317.5712769055574 L419.13089134264345 318.3804000302808 L420.24992644380177 319.167348411115 L421.36896154496014 319.93267250287306 L422.4879693225902 320.67691266027975 L423.60700442374855 321.40061428810384 L424.7260395249069 322.1042975408934 L425.84504730253695 322.7884674230641 L426.96408240369533 323.4536087388549 L428.08311750485365 324.1002062925047 L429.20212528248373 324.7287145879876 L430.32116038364205 325.339598229366 L431.44016816127214 325.933316770658 L432.5592032624305 326.51033481592606 L433.67823836358883 327.0711523195415 L434.7972461412189 327.6162843860084 L435.91628124237724 328.14628652018376 L437.0353163435356 328.6617647273664 L438.1543241211657 329.16338056334075 L439.273359222324 329.6518662845094 L440.3923943234824 330.12802484789324 L441.5114021011124 330.59274001121946 L442.6304372022708 331.04697633292193 L443.7494723034292 331.49178927222925 L444.8684800810592 331.9283251891648 L445.9875151822176 332.35781629450275 L447.1065229598476 332.78157559972357 L448.225558061006 333.201017117191 L449.3445931621643 333.61760535971024 L450.4636009397944 334.03288059074896 L451.58263604095276 334.4484537743928 L452.7016711421111 334.8659712250368 L453.82067891974117 335.28709945725234 L454.9397140208995 335.7135504360083 L456.05874912205786 336.14702602618536 L457.1777568996879 336.5892179925757 L458.29679200084627 337.04178779970664 L459.41579977847636 337.5063666118407 L460.5348348796347 337.9845098425778 L461.65386998079305 338.4777123049882 L462.7728777584231 338.98736276121474 L463.89191285958145 339.51474897251734 L465.0109479607398 340.06104759918423 L466.12995573836986 340.62728380017916 L467.24899083952823 341.21434638327355 L468.36802594068655 341.82296255482584 L469.48703371831664 342.4536979197816 L470.606068819475 343.1069362814966 L471.72510392063333 343.78287964173705 L472.8441116982634 344.48154820067975 L473.96314679942174 345.2027652067791 L475.0821545770518 345.9461620068117 L476.20118967821014 346.7111931960087 L477.3202247793685 347.49710631779095 L478.4392325569986 348.3029671139895 L479.5582676581569 349.12766457489005 L480.6773027593153 349.9699109392328 L481.7963105369453 350.828256844345 L482.9153456381037 351.701096376185 L484.0343807392621 352.5866771694306 L485.1533885168921 353.4831231326779 L486.2723962945222 354.3884420235074 L487.3914587192088 355.30053807359434 L488.5104664968389 356.2172397639515 L489.6294742744689 357.13630739999576 L490.7485366991556 358.05545583674655 L491.86754447678567 358.97237215398036 L492.9865522544157 359.88474090645167 L494.10561467910236 360.79025927402535 L495.2246224567324 361.6866597868753 L496.3436302343625 362.5717204255729 L497.46269265904914 363.44330754646217 L498.58170043667917 364.2993657815716 L499.70070821430926 365.13795843896753 L500.81977063899586 365.9572750778198 L501.93877841662595 366.75564665853494 L503.057786194256 367.53156826795447 L504.17684861894264 368.28369911935494 L505.29585639657273 369.01088022760257 L506.41486417420276 369.7121445092414 L507.53387195183285 370.3867205700267 L508.65293437651945 371.0340339674356 L509.77194215414954 371.6537160482448 L510.8909499317796 372.2455963734641 L512.0100123564663 372.8097052433582 L513.1290201340963 373.3462610723371 L514.2480279117264 373.8556716514663 L515.3670903364131 374.3385177358237 L516.4860981140431 374.7955416819003 L517.6051058916731 375.2276386100227 L518.7241683163599 375.63583367915464 L519.8431760939899 376.0212745118306 L520.9621838716199 376.38520341891285 L522.0812462963065 376.72894856201447 L523.2002540739367 377.0538999657894 L524.3192618515667 377.36148805524493 L525.4383242762533 377.65316976812 L526.5573320538834 377.9304096172198 L527.6763398315135 378.19465822772827 L528.7954022562001 378.44733844958625 L529.9144100338301 378.68982515731534 L531.0334178114603 378.9234401999733 L532.1524802361469 379.1494296759557 L533.2714880137769 379.36895762044037 L534.390495791407 379.5830965365551 L535.5095035690371 379.792822345333 L536.6285659937237 379.99900365436883 L537.7475737713538 380.2024030203302 L538.8665815489838 380.40367379267985 L539.9856439736704 380.60335948242 L541.1046517513005 380.80189944339224 L542.2236595289305 380.99962760976643 L543.3427219536172 381.19678007110684 L544.4617297312473 381.39350201618294 L545.5807375088773 381.58985278301355 L546.699799933564 381.7858159589552 L547.818807711194 381.9813056932572 L548.9378154888241 382.1761774284056 L550.0568779135108 382.3702380002115 L551.1758856911408 382.56325131911046 L552.2948934687709 382.75495099527336 L553.4139558934575 382.9450479136723 L554.5329636710876 383.1332390716578 L555.6519714487176 383.31921326025883 L556.7710338734042 383.5026617955263 L557.8900416510344 383.6832810435553 L559.0090494286644 383.86078188931805 L560.1280572062944 384.0348922616855 L561.247119630981 384.2053602897054 L562.3661274086112 384.3719618776684 L563.4851351862412 384.5344988113413 L564.6041976109278 384.6928025455004 L565.723205388558 384.8467354664424 L566.842213166188 384.99619120761236 L567.9612755908746 385.1410943339757 L569.0802833685046 385.2814006576459 L570.1992911461348 385.41709629100177 L571.3183535708214 385.5481963841756 L572.4373613484514 385.6747426000317 L573.5563691260816 385.79680406104956 L574.6754315507682 385.91447261490714 L575.7944393283982 386.02786315010906 L576.9134471060282 386.1371104397087 L578.032509530715 386.2423672475418 L579.151517308345 386.3438024344598 L580.270525085975 386.44159906456343 L581.3895875106617 386.5359515645526 L582.5085952882918 386.62706414558795 L583.6276030659218 386.715148909524 L584.7466654906085 386.80042300825943 L585.8656732682385 386.8831073812261 L586.9846810458686 386.96342454599466 L588.1036888234986 387.0415963888802 L589.2227512481853 387.11784195554793 L590.3417590258153 387.19237587287455 L591.4607668034454 387.2654061395537 L592.5798292281321 387.3371334948406 L593.6988370057621 387.4077473153911 L594.8178447833922 387.47742608870334 L595.9369072080788 387.5463347302817 L597.0559149857089 387.61462379456776 L598.1749227633389 387.68242726554547 L599.2939851880255 387.74986239892746 L600.4129929656557 387.81702845964435 " fill="none" stroke-width="1.6500000000000001" stroke="rgb(187,187,187)" stroke-opacity="1.0">
          </path>
        </g>
      </g>
    </g>
    <g transform="translate(65.99591213121782 15.2 ) ">
      <text class="plot-title" y="0.0">
      Titanic passengers age distribution
      </text>
    </g>
    <g transform="translate(14.5 229.0 ) rotate(-90.0 ) ">
      <text class="axis-title-y" y="0.0" text-anchor="middle">
      density*
      </text>
    </g>
    <g transform="translate(380.49795606560895 461.5 ) ">
      <text class="axis-title-x" y="0.0" text-anchor="middle">
      age
      </text>
    </g>
    <path fill="rgb(0,0,0)" fill-opacity="0.0" stroke="rgb(187,187,187)" stroke-opacity="1.0" stroke-width="0.0" d="M0.0 0.0 L0.0 470.0 L705.0 470.0 L705.0 0.0 Z">
    </path>
  </g>
  <g id="xXxprefixXx3">
  </g>
</svg>