<svg id="JetBrains2020" xmlns="http://www.w3.org/2000/svg" xmlns:xlink="http://www.w3.org/1999/xlink" width="105" height="105" viewBox="0 0 105 105">
    <defs>
        <linearGradient id="linear-gradient" x1="33.84902" y1="28.25432" x2="92.10917" y2="39.86561" gradientUnits="userSpaceOnUse">
            <stop offset="0.24211" stop-color="#3bea62"/>
            <stop offset="0.85664" stop-color="#fcf84a"/>
        </linearGradient>
        <linearGradient id="linear-gradient-2" x1="27.61053" y1="11.14323" x2="83.54943" y2="96.22513" gradientUnits="userSpaceOnUse">
            <stop offset="0.0176" stop-color="#3bea62"/>
            <stop offset="0.78604" stop-color="#087cfa"/>
        </linearGradient>
        <linearGradient id="linear-gradient-3" x1="26.83312" y1="58.48395" x2="97.68324" y2="84.07315" gradientUnits="userSpaceOnUse">
            <stop offset="0.12092" stop-color="#1faeb5"/>
            <stop offset="0.97461" stop-color="#087cfa"/>
        </linearGradient>
        <linearGradient id="linear-gradient-4" x1="6.45208" y1="62.47225" x2="97.96658" y2="21.91237" gradientUnits="userSpaceOnUse">
            <stop offset="0.12092" stop-color="#1faeb5"/>
            <stop offset="0.8556" stop-color="#fcf84a"/>
        </linearGradient>
    </defs>
    <g>
        <g>
            <path d="M93.6232,15.84907a12.13027,12.13027,0,0,0-3.82706-1.257C88.95675,14.498,37.902,4.69346,35.19986,4.5336a19.24532,19.24532,0,0,0-3.97038.176C7.48634,8.24513,1.51508,37.14956,21.09986,49.22382a20.8621,20.8621,0,0,0,15.442,2.6013C45.81748,49.80606,87.62263,39.484,90.34883,38.89145,101.94968,36.36962,104.36659,21.50872,93.6232,15.84907Z" fill="url(#linear-gradient)"/>
            <path d="M94.1211,60.32109C92.11338,58.06969,55.946,16.96184,48.21573,10.25821A27.72239,27.72239,0,0,0,42.95,6.684,19.16043,19.16043,0,0,0,31.22948,4.70964C9.7987,7.90081,2.84674,31.76014,16.09774,45.25614c1.42977,1.4562,41.24388,45.72315,41.58624,46.15607a25.91865,25.91865,0,0,0,6.78187,5.96968,21.04684,21.04684,0,0,0,15.58089,2.62437C99.6569,95.73566,105.98607,73.62646,94.1211,60.32109Z" fill="url(#linear-gradient-2)"/>
            <path d="M86.51146,54.45216a18.98215,18.98215,0,0,0-2.47013-1.08332c-.67007-.23883-54.468-17.221-55.6551-17.51849a15.65671,15.65671,0,0,0-6.10438-.298C2.97464,38.42766-1.88062,61.93216,14.04536,71.75057c3.74257,2.30732,52.79895,26.94229,54.05645,27.41423a21.13384,21.13384,0,0,0,11.94493.84146C102.97519,95.01305,107.7477,65.63338,86.51146,54.45216Z" fill="url(#linear-gradient-3)"/>
            <path d="M93.6232,15.84907a9.78144,9.78144,0,0,0-5.98306-1.00959,14.68735,14.68735,0,0,0-3.0779.79611c-4.8083,1.83258-66.33606,20.794-68.09553,21.55867a19.34919,19.34919,0,0,0-2.42135,34.55631,16.96462,16.96462,0,0,0,12.55718,2.11536,22.356,22.356,0,0,0,4.83051-1.63286c7.61282-3.60746,61.67245-34.165,62.82779-34.82366A12.14916,12.14916,0,0,0,93.6232,15.84907Z" fill="url(#linear-gradient-4)"/>
        </g>
        <g>
            <rect x="22.50026" y="22.50026" width="59.99948" height="59.99948"/>
            <rect x="29.97889" y="71.16325" width="22.4998" height="3.74997" fill="#fff"/>
            <path d="M29.97889,29.92146h8.802c7.09312,0,11.99379,4.86859,11.99379,11.22v.06468c0,6.35143-4.90067,11.28445-11.99379,11.28445h-8.802Zm4.96523,4.48178V48.00911h3.83674A6.43108,6.43108,0,0,0,45.5838,41.2706v-.06443a6.48181,6.48181,0,0,0-6.80294-6.80293Z" fill="#fff"/>
            <path d="M53.989,29.94148h4.97578V48.32721h9.86926v4.17414H53.989Z" fill="#fff"/>
        </g>
    </g>
</svg>
