<svg width="987" height="801" xmlns="http://www.w3.org/2000/svg" xmlns:xlink="http://www.w3.org/1999/xlink" version="1.1" baseProfile="full" viewBox="0 0 987 801">
<rect width="987" height="801" x="0" y="0" id="0" fill="none"></rect>
<path d="M0 308.385C72.051 308.385 288.204 89.712 360.255 89.712" transform="translate(69.09 8.01)" fill="none" stroke="#ccc" stroke-width="1.5"></path>
<path d="M360.255 89.712C432.306 89.712 648.459 22.428 720.51 22.428" transform="translate(69.09 8.01)" fill="none" stroke="#ccc" stroke-width="1.5"></path>
<path d="M360.255 89.712C432.306 89.712 648.459 44.856 720.51 44.856" transform="translate(69.09 8.01)" fill="none" stroke="#ccc" stroke-width="1.5"></path>
<path d="M360.255 89.712C432.306 89.712 648.459 67.284 720.51 67.284" transform="translate(69.09 8.01)" fill="none" stroke="#ccc" stroke-width="1.5"></path>
<path d="M360.255 89.712C432.306 89.712 648.459 89.712 720.51 89.712" transform="translate(69.09 8.01)" fill="none" stroke="#ccc" stroke-width="1.5"></path>
<path d="M360.255 89.712C432.306 89.712 648.459 112.14 720.51 112.14" transform="translate(69.09 8.01)" fill="none" stroke="#ccc" stroke-width="1.5"></path>
<path d="M360.255 89.712C432.306 89.712 648.459 134.568 720.51 134.568" transform="translate(69.09 8.01)" fill="none" stroke="#ccc" stroke-width="1.5"></path>
<path d="M360.255 89.712C432.306 89.712 648.459 156.996 720.51 156.996" transform="translate(69.09 8.01)" fill="none" stroke="#ccc" stroke-width="1.5"></path>
<path d="M0 308.385C72.051 308.385 288.204 482.202 360.255 482.202" transform="translate(69.09 8.01)" fill="none" stroke="#ccc" stroke-width="1.5"></path>
<path d="M360.255 482.202C432.306 482.202 648.459 201.852 720.51 201.852" transform="translate(69.09 8.01)" fill="none" stroke="#ccc" stroke-width="1.5"></path>
<path d="M360.255 482.202C432.306 482.202 648.459 224.28 720.51 224.28" transform="translate(69.09 8.01)" fill="none" stroke="#ccc" stroke-width="1.5"></path>
<path d="M360.255 482.202C432.306 482.202 648.459 246.708 720.51 246.708" transform="translate(69.09 8.01)" fill="none" stroke="#ccc" stroke-width="1.5"></path>
<path d="M360.255 482.202C432.306 482.202 648.459 269.136 720.51 269.136" transform="translate(69.09 8.01)" fill="none" stroke="#ccc" stroke-width="1.5"></path>
<path d="M360.255 482.202C432.306 482.202 648.459 291.564 720.51 291.564" transform="translate(69.09 8.01)" fill="none" stroke="#ccc" stroke-width="1.5"></path>
<path d="M360.255 482.202C432.306 482.202 648.459 313.992 720.51 313.992" transform="translate(69.09 8.01)" fill="none" stroke="#ccc" stroke-width="1.5"></path>
<path d="M360.255 482.202C432.306 482.202 648.459 336.42 720.51 336.42" transform="translate(69.09 8.01)" fill="none" stroke="#ccc" stroke-width="1.5"></path>
<path d="M360.255 482.202C432.306 482.202 648.459 358.848 720.51 358.848" transform="translate(69.09 8.01)" fill="none" stroke="#ccc" stroke-width="1.5"></path>
<path d="M360.255 482.202C432.306 482.202 648.459 381.276 720.51 381.276" transform="translate(69.09 8.01)" fill="none" stroke="#ccc" stroke-width="1.5"></path>
<path d="M360.255 482.202C432.306 482.202 648.459 403.704 720.51 403.704" transform="translate(69.09 8.01)" fill="none" stroke="#ccc" stroke-width="1.5"></path>
<path d="M360.255 482.202C432.306 482.202 648.459 426.132 720.51 426.132" transform="translate(69.09 8.01)" fill="none" stroke="#ccc" stroke-width="1.5"></path>
<path d="M360.255 482.202C432.306 482.202 648.459 448.56 720.51 448.56" transform="translate(69.09 8.01)" fill="none" stroke="#ccc" stroke-width="1.5"></path>
<path d="M360.255 482.202C432.306 482.202 648.459 470.988 720.51 470.988" transform="translate(69.09 8.01)" fill="none" stroke="#ccc" stroke-width="1.5"></path>
<path d="M360.255 482.202C432.306 482.202 648.459 493.416 720.51 493.416" transform="translate(69.09 8.01)" fill="none" stroke="#ccc" stroke-width="1.5"></path>
<path d="M360.255 482.202C432.306 482.202 648.459 515.844 720.51 515.844" transform="translate(69.09 8.01)" fill="none" stroke="#ccc" stroke-width="1.5"></path>
<path d="M360.255 482.202C432.306 482.202 648.459 538.272 720.51 538.272" transform="translate(69.09 8.01)" fill="none" stroke="#ccc" stroke-width="1.5"></path>
<path d="M360.255 482.202C432.306 482.202 648.459 560.7 720.51 560.7" transform="translate(69.09 8.01)" fill="none" stroke="#ccc" stroke-width="1.5"></path>
<path d="M360.255 482.202C432.306 482.202 648.459 583.128 720.51 583.128" transform="translate(69.09 8.01)" fill="none" stroke="#ccc" stroke-width="1.5"></path>
<path d="M360.255 482.202C432.306 482.202 648.459 605.556 720.51 605.556" transform="translate(69.09 8.01)" fill="none" stroke="#ccc" stroke-width="1.5"></path>
<path d="M360.255 482.202C432.306 482.202 648.459 627.984 720.51 627.984" transform="translate(69.09 8.01)" fill="none" stroke="#ccc" stroke-width="1.5"></path>
<path d="M360.255 482.202C432.306 482.202 648.459 650.412 720.51 650.412" transform="translate(69.09 8.01)" fill="none" stroke="#ccc" stroke-width="1.5"></path>
<path d="M360.255 482.202C432.306 482.202 648.459 672.84 720.51 672.84" transform="translate(69.09 8.01)" fill="none" stroke="#ccc" stroke-width="1.5"></path>
<path d="M360.255 482.202C432.306 482.202 648.459 695.268 720.51 695.268" transform="translate(69.09 8.01)" fill="none" stroke="#ccc" stroke-width="1.5"></path>
<path d="M360.255 482.202C432.306 482.202 648.459 717.696 720.51 717.696" transform="translate(69.09 8.01)" fill="none" stroke="#ccc" stroke-width="1.5"></path>
<path d="M360.255 482.202C432.306 482.202 648.459 740.124 720.51 740.124" transform="translate(69.09 8.01)" fill="none" stroke="#ccc" stroke-width="1.5"></path>
<path d="M360.255 482.202C432.306 482.202 648.459 762.552 720.51 762.552" transform="translate(69.09 8.01)" fill="none" stroke="#ccc" stroke-width="1.5"></path>
<path d="M0 308.385C72.051 308.385 288.204 504.63 360.255 504.63" transform="translate(69.09 8.01)" fill="none" stroke="#ccc" stroke-width="1.5"></path>
<path d="M0 308.385C72.051 308.385 288.204 527.058 360.255 527.058" transform="translate(69.09 8.01)" fill="none" stroke="#ccc" stroke-width="1.5"></path>
<path d="M0 -1L1 0L0 1L-1 0Z" transform="matrix(7.5,0,0,7.5,69.09,316.395)" fill="#E24462"></path>
<path d="M0 -1L1 0L0 1L-1 0Z" transform="matrix(6,0,0,6,429.345,97.722)" fill="#E24462"></path>
<path d="M1 0A1 1 0 1 1 1 -0.0001" transform="matrix(4,0,0,4,789.6,30.438)" fill="#B125EA"></path>
<path d="M1 0A1 1 0 1 1 1 -0.0001" transform="matrix(4,0,0,4,789.6,52.866)" fill="#B125EA"></path>
<path d="M1 0A1 1 0 1 1 1 -0.0001" transform="matrix(4,0,0,4,789.6,75.294)" fill="#B125EA"></path>
<path d="M1 0A1 1 0 1 1 1 -0.0001" transform="matrix(4,0,0,4,789.6,97.722)" fill="#B125EA"></path>
<path d="M1 0A1 1 0 1 1 1 -0.0001" transform="matrix(4,0,0,4,789.6,120.15)" fill="#B125EA"></path>
<path d="M1 0A1 1 0 1 1 1 -0.0001" transform="matrix(4,0,0,4,789.6,142.578)" fill="#B125EA"></path>
<path d="M1 0A1 1 0 1 1 1 -0.0001" transform="matrix(4,0,0,4,789.6,165.006)" fill="#B125EA"></path>
<path d="M0 -1L1 0L0 1L-1 0Z" transform="matrix(6,0,0,6,429.345,490.212)" fill="#E24462"></path>
<path d="M1 0A1 1 0 1 1 1 -0.0001" transform="matrix(4,0,0,4,789.6,209.862)" fill="#7F52FF"></path>
<path d="M1 0A1 1 0 1 1 1 -0.0001" transform="matrix(4,0,0,4,789.6,232.29)" fill="#7F52FF"></path>
<path d="M1 0A1 1 0 1 1 1 -0.0001" transform="matrix(4,0,0,4,789.6,254.718)" fill="#7F52FF"></path>
<path d="M1 0A1 1 0 1 1 1 -0.0001" transform="matrix(4,0,0,4,789.6,277.146)" fill="#7F52FF"></path>
<path d="M1 0A1 1 0 1 1 1 -0.0001" transform="matrix(4,0,0,4,789.6,299.574)" fill="#7F52FF"></path>
<path d="M1 0A1 1 0 1 1 1 -0.0001" transform="matrix(4,0,0,4,789.6,322.002)" fill="#7F52FF"></path>
<path d="M1 0A1 1 0 1 1 1 -0.0001" transform="matrix(4,0,0,4,789.6,344.43)" fill="#7F52FF"></path>
<path d="M1 0A1 1 0 1 1 1 -0.0001" transform="matrix(4,0,0,4,789.6,366.858)" fill="#7F52FF"></path>
<path d="M1 0A1 1 0 1 1 1 -0.0001" transform="matrix(4,0,0,4,789.6,389.286)" fill="#7F52FF"></path>
<path d="M1 0A1 1 0 1 1 1 -0.0001" transform="matrix(4,0,0,4,789.6,411.714)" fill="#7F52FF"></path>
<path d="M1 0A1 1 0 1 1 1 -0.0001" transform="matrix(4,0,0,4,789.6,434.142)" fill="#7F52FF"></path>
<path d="M1 0A1 1 0 1 1 1 -0.0001" transform="matrix(4,0,0,4,789.6,456.57)" fill="#7F52FF"></path>
<path d="M1 0A1 1 0 1 1 1 -0.0001" transform="matrix(4,0,0,4,789.6,478.998)" fill="#7F52FF"></path>
<path d="M1 0A1 1 0 1 1 1 -0.0001" transform="matrix(4,0,0,4,789.6,501.426)" fill="#7F52FF"></path>
<path d="M1 0A1 1 0 1 1 1 -0.0001" transform="matrix(4,0,0,4,789.6,523.854)" fill="#7F52FF"></path>
<path d="M1 0A1 1 0 1 1 1 -0.0001" transform="matrix(4,0,0,4,789.6,546.282)" fill="#7F52FF"></path>
<path d="M1 0A1 1 0 1 1 1 -0.0001" transform="matrix(4,0,0,4,789.6,568.71)" fill="#7F52FF"></path>
<path d="M1 0A1 1 0 1 1 1 -0.0001" transform="matrix(4,0,0,4,789.6,591.138)" fill="#7F52FF"></path>
<path d="M1 0A1 1 0 1 1 1 -0.0001" transform="matrix(4,0,0,4,789.6,613.566)" fill="#7F52FF"></path>
<path d="M1 0A1 1 0 1 1 1 -0.0001" transform="matrix(4,0,0,4,789.6,635.994)" fill="#7F52FF"></path>
<path d="M1 0A1 1 0 1 1 1 -0.0001" transform="matrix(4,0,0,4,789.6,658.422)" fill="#7F52FF"></path>
<path d="M1 0A1 1 0 1 1 1 -0.0001" transform="matrix(4,0,0,4,789.6,680.85)" fill="#7F52FF"></path>
<path d="M1 0A1 1 0 1 1 1 -0.0001" transform="matrix(4,0,0,4,789.6,703.278)" fill="#7F52FF"></path>
<path d="M1 0A1 1 0 1 1 1 -0.0001" transform="matrix(4,0,0,4,789.6,725.706)" fill="#7F52FF"></path>
<path d="M1 0A1 1 0 1 1 1 -0.0001" transform="matrix(4,0,0,4,789.6,748.134)" fill="#7F52FF"></path>
<path d="M1 0A1 1 0 1 1 1 -0.0001" transform="matrix(4,0,0,4,789.6,770.562)" fill="#7F52FF"></path>
<path d="M0 -1L1 0L0 1L-1 0Z" transform="matrix(6,0,0,6,429.345,512.64)" fill="#E24462"></path>
<path d="M0 -1L1 0L0 1L-1 0Z" transform="matrix(6,0,0,6,429.345,535.068)" fill="#E24462"></path>
<text dominant-baseline="central" text-anchor="end" style="font-size:18px;font-family:sans-serif;font-weight:bold;" transform="translate(56.59 316.395)" fill="#333" stroke="rgb(255,255,255)" stroke-width="2" paint-order="stroke" stroke-miterlimit="2">plot</text>
<text dominant-baseline="central" text-anchor="end" style="font-size:16px;font-family:sans-serif;" xml:space="preserve" transform="translate(418.345 97.722)" fill="#333" stroke="rgb(255,255,255)" stroke-width="2" paint-order="stroke" stroke-miterlimit="2">Data Manipulation</text>
<text dominant-baseline="central" text-anchor="start" style="font-size:14px;font-family:sans-serif;" transform="translate(798.6 30.438)" fill="#333" stroke="rgb(255,255,255)" stroke-width="2" paint-order="stroke" stroke-miterlimit="2">groupBy</text>
<text dominant-baseline="central" text-anchor="start" style="font-size:14px;font-family:sans-serif;" transform="translate(798.6 52.866)" fill="#333" stroke="rgb(255,255,255)" stroke-width="2" paint-order="stroke" stroke-miterlimit="2">statBin</text>
<text dominant-baseline="central" text-anchor="start" style="font-size:14px;font-family:sans-serif;" transform="translate(798.6 75.294)" fill="#333" stroke="rgb(255,255,255)" stroke-width="2" paint-order="stroke" stroke-miterlimit="2">statDensity</text>
<text dominant-baseline="central" text-anchor="start" style="font-size:14px;font-family:sans-serif;" transform="translate(798.6 97.722)" fill="#333" stroke="rgb(255,255,255)" stroke-width="2" paint-order="stroke" stroke-miterlimit="2">statBoxplot</text>
<text dominant-baseline="central" text-anchor="start" style="font-size:14px;font-family:sans-serif;" transform="translate(798.6 120.15)" fill="#333" stroke="rgb(255,255,255)" stroke-width="2" paint-order="stroke" stroke-miterlimit="2">statSmooth</text>
<text dominant-baseline="central" text-anchor="start" style="font-size:14px;font-family:sans-serif;" transform="translate(798.6 142.578)" fill="#333" stroke="rgb(255,255,255)" stroke-width="2" paint-order="stroke" stroke-miterlimit="2">statCount</text>
<text dominant-baseline="central" text-anchor="start" style="font-size:14px;font-family:sans-serif;" transform="translate(798.6 165.006)" fill="#333" stroke="rgb(255,255,255)" stroke-width="2" paint-order="stroke" stroke-miterlimit="2">statCount2D</text>
<text dominant-baseline="central" text-anchor="end" style="font-size:16px;font-family:sans-serif;" transform="translate(418.345 490.212)" fill="#333" stroke="rgb(255,255,255)" stroke-width="2" paint-order="stroke" stroke-miterlimit="2">layers</text>
<text dominant-baseline="central" text-anchor="start" style="font-size:14px;font-family:sans-serif;" transform="translate(798.6 209.862)" fill="#333" stroke="rgb(255,255,255)" stroke-width="2" paint-order="stroke" stroke-miterlimit="2">abLine</text>
<text dominant-baseline="central" text-anchor="start" style="font-size:14px;font-family:sans-serif;" transform="translate(798.6 232.29)" fill="#333" stroke="rgb(255,255,255)" stroke-width="2" paint-order="stroke" stroke-miterlimit="2">area</text>
<text dominant-baseline="central" text-anchor="start" style="font-size:14px;font-family:sans-serif;" transform="translate(798.6 254.718)" fill="#333" stroke="rgb(255,255,255)" stroke-width="2" paint-order="stroke" stroke-miterlimit="2">bars</text>
<text dominant-baseline="central" text-anchor="start" style="font-size:14px;font-family:sans-serif;" transform="translate(798.6 277.146)" fill="#333" stroke="rgb(255,255,255)" stroke-width="2" paint-order="stroke" stroke-miterlimit="2">boxplot</text>
<text dominant-baseline="central" text-anchor="start" style="font-size:14px;font-family:sans-serif;" transform="translate(798.6 299.574)" fill="#333" stroke="rgb(255,255,255)" stroke-width="2" paint-order="stroke" stroke-miterlimit="2">boxes</text>
<text dominant-baseline="central" text-anchor="start" style="font-size:14px;font-family:sans-serif;" transform="translate(798.6 322.002)" fill="#333" stroke="rgb(255,255,255)" stroke-width="2" paint-order="stroke" stroke-miterlimit="2">countPlot</text>
<text dominant-baseline="central" text-anchor="start" style="font-size:14px;font-family:sans-serif;" transform="translate(798.6 344.43)" fill="#333" stroke="rgb(255,255,255)" stroke-width="2" paint-order="stroke" stroke-miterlimit="2">crossBars</text>
<text dominant-baseline="central" text-anchor="start" style="font-size:14px;font-family:sans-serif;" transform="translate(798.6 366.858)" fill="#333" stroke="rgb(255,255,255)" stroke-width="2" paint-order="stroke" stroke-miterlimit="2">densityPlot</text>
<text dominant-baseline="central" text-anchor="start" style="font-size:14px;font-family:sans-serif;" transform="translate(798.6 389.286)" fill="#333" stroke="rgb(255,255,255)" stroke-width="2" paint-order="stroke" stroke-miterlimit="2">errorBars</text>
<text dominant-baseline="central" text-anchor="start" style="font-size:14px;font-family:sans-serif;" transform="translate(798.6 411.714)" fill="#333" stroke="rgb(255,255,255)" stroke-width="2" paint-order="stroke" stroke-miterlimit="2">hLine</text>
<text dominant-baseline="central" text-anchor="start" style="font-size:14px;font-family:sans-serif;" transform="translate(798.6 434.142)" fill="#333" stroke="rgb(255,255,255)" stroke-width="2" paint-order="stroke" stroke-miterlimit="2">heatmap</text>
<text dominant-baseline="central" text-anchor="start" style="font-size:14px;font-family:sans-serif;" transform="translate(798.6 456.57)" fill="#333" stroke="rgb(255,255,255)" stroke-width="2" paint-order="stroke" stroke-miterlimit="2">histogram</text>
<text dominant-baseline="central" text-anchor="start" style="font-size:14px;font-family:sans-serif;" transform="translate(798.6 478.998)" fill="#333" stroke="rgb(255,255,255)" stroke-width="2" paint-order="stroke" stroke-miterlimit="2">line</text>
<text dominant-baseline="central" text-anchor="start" style="font-size:14px;font-family:sans-serif;" transform="translate(798.6 501.426)" fill="#333" stroke="rgb(255,255,255)" stroke-width="2" paint-order="stroke" stroke-miterlimit="2">lineRanges</text>
<text dominant-baseline="central" text-anchor="start" style="font-size:14px;font-family:sans-serif;" transform="translate(798.6 523.854)" fill="#333" stroke="rgb(255,255,255)" stroke-width="2" paint-order="stroke" stroke-miterlimit="2">path</text>
<text dominant-baseline="central" text-anchor="start" style="font-size:14px;font-family:sans-serif;" transform="translate(798.6 546.282)" fill="#333" stroke="rgb(255,255,255)" stroke-width="2" paint-order="stroke" stroke-miterlimit="2">pie</text>
<text dominant-baseline="central" text-anchor="start" style="font-size:14px;font-family:sans-serif;" transform="translate(798.6 568.71)" fill="#333" stroke="rgb(255,255,255)" stroke-width="2" paint-order="stroke" stroke-miterlimit="2">pointRanges</text>
<text dominant-baseline="central" text-anchor="start" style="font-size:14px;font-family:sans-serif;" transform="translate(798.6 591.138)" fill="#333" stroke="rgb(255,255,255)" stroke-width="2" paint-order="stroke" stroke-miterlimit="2">raster</text>
<text dominant-baseline="central" text-anchor="start" style="font-size:14px;font-family:sans-serif;" transform="translate(798.6 613.566)" fill="#333" stroke="rgb(255,255,255)" stroke-width="2" paint-order="stroke" stroke-miterlimit="2">rectangles</text>
<text dominant-baseline="central" text-anchor="start" style="font-size:14px;font-family:sans-serif;" transform="translate(798.6 635.994)" fill="#333" stroke="rgb(255,255,255)" stroke-width="2" paint-order="stroke" stroke-miterlimit="2">ribbon</text>
<text dominant-baseline="central" text-anchor="start" style="font-size:14px;font-family:sans-serif;" transform="translate(798.6 658.422)" fill="#333" stroke="rgb(255,255,255)" stroke-width="2" paint-order="stroke" stroke-miterlimit="2">segments</text>
<text dominant-baseline="central" text-anchor="start" style="font-size:14px;font-family:sans-serif;" transform="translate(798.6 680.85)" fill="#333" stroke="rgb(255,255,255)" stroke-width="2" paint-order="stroke" stroke-miterlimit="2">smoothLine</text>
<text dominant-baseline="central" text-anchor="start" style="font-size:14px;font-family:sans-serif;" transform="translate(798.6 703.278)" fill="#333" stroke="rgb(255,255,255)" stroke-width="2" paint-order="stroke" stroke-miterlimit="2">step</text>
<text dominant-baseline="central" text-anchor="start" style="font-size:14px;font-family:sans-serif;" transform="translate(798.6 725.706)" fill="#333" stroke="rgb(255,255,255)" stroke-width="2" paint-order="stroke" stroke-miterlimit="2">text</text>
<text dominant-baseline="central" text-anchor="start" style="font-size:14px;font-family:sans-serif;" transform="translate(798.6 748.134)" fill="#333" stroke="rgb(255,255,255)" stroke-width="2" paint-order="stroke" stroke-miterlimit="2">tiles</text>
<text dominant-baseline="central" text-anchor="start" style="font-size:14px;font-family:sans-serif;" transform="translate(798.6 770.562)" fill="#333" stroke="rgb(255,255,255)" stroke-width="2" paint-order="stroke" stroke-miterlimit="2">vLine</text>
<text dominant-baseline="central" text-anchor="start" style="font-size:16px;font-family:sans-serif;" transform="translate(440.345 512.64)" fill="#333" stroke="rgb(255,255,255)" stroke-width="2" paint-order="stroke" stroke-miterlimit="2">layout</text>
<text dominant-baseline="central" text-anchor="start" style="font-size:16px;font-family:sans-serif;" transform="translate(440.345 535.068)" fill="#333" stroke="rgb(255,255,255)" stroke-width="2" paint-order="stroke" stroke-miterlimit="2">tooltips</text>
</svg>