<svg xmlns="http://www.w3.org/2000/svg" xmlns:xlink="http://www.w3.org/1999/xlink" display="block" class="plt-container" width="705.0" height="470.0">
  <style type="text/css">
  .plt-container {
   font-family: Lucida Grande, sans-serif;
   user-select: none;
   -webkit-user-select: none;
   -moz-user-select: none;
   -ms-user-select: none;
}
text {
   text-rendering: optimizeLegibility;
}
#xXxprefixXx0 .plot-title {
fill: #474747;
font-weight: normal;
   font-style: normal;font-family: Lucida Grande, sans-serif;
font-size: 16.0px;

}
#xXxprefixXx0 .plot-subtitle {
fill: #474747;
font-weight: normal;
   font-style: normal;font-family: Lucida Grande, sans-serif;
font-size: 15.0px;

}
#xXxprefixXx0 .plot-caption {
fill: #474747;
font-weight: normal;
   font-style: normal;font-family: Lucida Grande, sans-serif;
font-size: 13.0px;

}
#xXxprefixXx0 .hyperlink-element {
fill: #118ed8;
font-weight: normal;
   font-style: normal;
}
#xXxprefixXx0 .legend-title {
fill: #474747;
font-weight: normal;
   font-style: normal;font-family: Lucida Grande, sans-serif;
font-size: 15.0px;

}
#xXxprefixXx0 .legend-item {
fill: #474747;
font-weight: normal;
   font-style: normal;font-family: Lucida Grande, sans-serif;
font-size: 13.0px;

}
#xXxprefixXx0 .axis-title-x {
fill: #474747;
font-weight: normal;
   font-style: normal;font-family: Lucida Grande, sans-serif;
font-size: 15.0px;

}
#xXxprefixXx0 .axis-text-x {
fill: #474747;
font-weight: normal;
   font-style: normal;font-family: Lucida Grande, sans-serif;
font-size: 13.0px;

}
#xXxprefixXx3 .axis-tooltip-text-x {
fill: #ffffff;
font-weight: normal;
   font-style: normal;font-family: Lucida Grande, sans-serif;
font-size: 13.0px;

}
#xXxprefixXx0 .axis-title-y {
fill: #474747;
font-weight: normal;
   font-style: normal;font-family: Lucida Grande, sans-serif;
font-size: 15.0px;

}
#xXxprefixXx0 .axis-text-y {
fill: #474747;
font-weight: normal;
   font-style: normal;font-family: Lucida Grande, sans-serif;
font-size: 13.0px;

}
#xXxprefixXx3 .axis-tooltip-text-y {
fill: #ffffff;
font-weight: normal;
   font-style: normal;font-family: Lucida Grande, sans-serif;
font-size: 13.0px;

}
#xXxprefixXx0 .facet-strip-text-x {
fill: #474747;
font-weight: normal;
   font-style: normal;font-family: Lucida Grande, sans-serif;
font-size: 13.0px;

}
#xXxprefixXx0 .facet-strip-text-y {
fill: #474747;
font-weight: normal;
   font-style: normal;font-family: Lucida Grande, sans-serif;
font-size: 13.0px;

}
#xXxprefixXx3 .tooltip-text {
fill: #474747;
font-weight: normal;
   font-style: normal;font-family: Lucida Grande, sans-serif;
font-size: 13.0px;

}
#xXxprefixXx3 .tooltip-title {
fill: #474747;
font-weight: bold;
   font-style: normal;font-family: Lucida Grande, sans-serif;
font-size: 13.0px;

}
#xXxprefixXx3 .tooltip-label {
fill: #474747;
font-weight: bold;
   font-style: normal;font-family: Lucida Grande, sans-serif;
font-size: 13.0px;

}

  </style>
  <g id="xXxprefixXx0">
    <path fill-rule="evenodd" fill="rgb(255,255,255)" fill-opacity="1.0" d="M0.0 0.0 L0.0 470.0 L705.0 470.0 L705.0 0.0 Z">
    </path>
    <g transform="translate(29.5 6.5 ) ">
      <g>
        <g transform="translate(21.961210910936405 0.0 ) ">
          <g>
            <line x1="39.380635083232676" y1="0.0" x2="39.380635083232676" y2="411.0" stroke="rgb(233,233,233)" stroke-opacity="1.0" stroke-width="1.0" fill="none">
            </line>
            <line x1="139.07844542053058" y1="0.0" x2="139.07844542053058" y2="411.0" stroke="rgb(233,233,233)" stroke-opacity="1.0" stroke-width="1.0" fill="none">
            </line>
            <line x1="238.7762557578285" y1="0.0" x2="238.7762557578285" y2="411.0" stroke="rgb(233,233,233)" stroke-opacity="1.0" stroke-width="1.0" fill="none">
            </line>
            <line x1="338.47406609512643" y1="0.0" x2="338.47406609512643" y2="411.0" stroke="rgb(233,233,233)" stroke-opacity="1.0" stroke-width="1.0" fill="none">
            </line>
            <line x1="438.17187643242437" y1="0.0" x2="438.17187643242437" y2="411.0" stroke="rgb(233,233,233)" stroke-opacity="1.0" stroke-width="1.0" fill="none">
            </line>
            <line x1="537.8696867697223" y1="0.0" x2="537.8696867697223" y2="411.0" stroke="rgb(233,233,233)" stroke-opacity="1.0" stroke-width="1.0" fill="none">
            </line>
            <line x1="637.5674971070202" y1="0.0" x2="637.5674971070202" y2="411.0" stroke="rgb(233,233,233)" stroke-opacity="1.0" stroke-width="1.0" fill="none">
            </line>
          </g>
        </g>
        <g transform="translate(21.961210910936405 0.0 ) ">
          <g>
            <line x1="0.0" y1="393.0872327980218" x2="647.0387890890636" y2="393.0872327980218" stroke="rgb(233,233,233)" stroke-opacity="1.0" stroke-width="1.0" fill="none">
            </line>
            <line x1="0.0" y1="339.74390618937434" x2="647.0387890890636" y2="339.74390618937434" stroke="rgb(233,233,233)" stroke-opacity="1.0" stroke-width="1.0" fill="none">
            </line>
            <line x1="0.0" y1="286.4005795807269" x2="647.0387890890636" y2="286.4005795807269" stroke="rgb(233,233,233)" stroke-opacity="1.0" stroke-width="1.0" fill="none">
            </line>
            <line x1="0.0" y1="233.05725297207943" x2="647.0387890890636" y2="233.05725297207943" stroke="rgb(233,233,233)" stroke-opacity="1.0" stroke-width="1.0" fill="none">
            </line>
            <line x1="0.0" y1="179.71392636343197" x2="647.0387890890636" y2="179.71392636343197" stroke="rgb(233,233,233)" stroke-opacity="1.0" stroke-width="1.0" fill="none">
            </line>
            <line x1="0.0" y1="126.37059975478451" x2="647.0387890890636" y2="126.37059975478451" stroke="rgb(233,233,233)" stroke-opacity="1.0" stroke-width="1.0" fill="none">
            </line>
            <line x1="0.0" y1="73.02727314613705" x2="647.0387890890636" y2="73.02727314613705" stroke="rgb(233,233,233)" stroke-opacity="1.0" stroke-width="1.0" fill="none">
            </line>
            <line x1="0.0" y1="19.68394653748959" x2="647.0387890890636" y2="19.68394653748959" stroke="rgb(233,233,233)" stroke-opacity="1.0" stroke-width="1.0" fill="none">
            </line>
          </g>
        </g>
      </g>
      <g clip-path="url(#xXxprefixXx2)" clip-bounds-jfx="[rect (21.961210910936405, 0.0), (647.0387890890636, 411.0)]">
        <g transform="translate(21.961210910936405 0.0 ) ">
          <g>
            <g>
              <g>
                <path d="M29.41085404950286 320.97709287027806 L29.41085404950286 320.97709287027806 L35.35244072617007 315.0897639300551 L41.294027402837344 309.2043669309281 L47.235614079504614 303.3244385174964 L53.177200756171885 297.4560789601471 L59.1187874328391 291.60561822586567 L65.06037410950637 285.7792030632509 L71.00196078617364 279.9821575970511 L76.94354746284085 274.21862171513135 L82.88513413950812 268.4909988211517 L88.82672081617537 262.80070781059345 L94.76830749284261 257.1470740002208 L100.70989416950988 251.52213495292665 L106.65148084617712 245.9157019756916 L112.59306752284434 240.3175858050978 L118.5346541995116 234.7175971777273 L124.47624087617885 229.11560713152653 L130.4178275528461 223.56618292434229 L136.35941422951336 218.14239109975227 L142.3010009061806 212.91731279744442 L148.24258758284788 207.96402915710655 L154.18417425951512 203.35562131842659 L160.12576093618236 199.16517042109234 L166.0673476128496 195.4657576047917 L172.00893428951687 192.33046400921253 L177.95052096618411 189.83237077404274 L183.89210764285136 188.0445590389702 L189.8336943195186 187.04000828886836 L195.77528099618587 186.84825891238557 L201.7168676728531 187.3879891234091 L207.65845434952035 188.56044661210305 L213.60004102618763 190.26687906863148 L219.54162770285487 192.4085341831585 L225.4832143795221 194.88665964584823 L231.42480105618935 197.6025031468647 L237.36638773285665 200.45731237637204 L243.30797440952387 203.35233502453434 L249.24956108619108 206.18881878151566 L255.19114776285838 208.86801133748017 L261.1327344395256 211.2911603825919 L267.0743211161929 213.35951360701495 L273.0159077928601 214.9743187009134 L278.9574944695273 216.03682335445137 L284.89908114619465 216.44827525779294 L290.84066782286186 216.10992210110217 L296.78225449952913 214.92301157454324 L302.7238411761964 212.78879136828013 L308.6654278528636 209.608509172477 L314.6070145295309 205.28341267729792 L320.5486012061981 199.71553211210568 L326.49018788286537 192.85199534246638 L332.43177455953264 184.7087854667697 L338.37336123619986 175.30768801374617 L344.3149479128671 165.64672099018082 L350.25653458953434 160.77571892297925 L356.1981212662016 162.60322067988875 L362.1397079428689 166.2170208403689 L368.0812946195361 169.24420626374103 L374.02288129620337 171.61304757984595 L379.96446797287064 173.30193929069836 L385.90605464953785 174.28927589831315 L391.8476413262051 174.55345190470516 L397.7892280028724 174.07286181188917 L403.73081467953966 172.82590012188007 L409.6724013562069 170.79096133669265 L415.6139880328741 167.94643995834176 L421.55557470954136 164.27073048884222 L427.49716138620863 159.74222743020886 L433.43874806287585 154.33932528445655 L439.3803347395431 148.04041855360003 L445.3219214162104 140.82390173965422 L451.2635080928776 132.668169344634 L457.20509476954487 123.55161587055402 L463.14668144621214 113.86504634760787 L469.0882681228793 106.61755913964917 L475.02985479954657 104.31003242832077 L480.9714414762139 105.71062302379441 L486.91302815288117 109.03061915995832 L492.8546148295484 112.4813090707007 L498.79620150621565 114.27398098990999 L504.7377881828829 112.61992315147437 L510.6793748595501 105.8285538879747 L516.6209615362174 94.98784455356676 L522.5625482128846 84.28925114935791 L528.5041348895518 78.08759537649905 L534.4457215662192 80.73769893614076 L540.3873082428864 96.34376614781229 L546.3288949195536 120.50578768590475 L552.2704815962209 139.65437848961201 L558.2120682728881 150.2754026759187 L564.1536549495554 154.42105679980676 L570.0952416262226 154.19149560104705 L576.03682830289 151.68687381941027 L581.9784149795571 149.00734619466726 L587.9200016562244 148.2530363762646 L593.8615883328916 150.64207826598926 L599.8031750095589 154.22682169046317 L605.7447616862261 157.440289354295 L611.6863483628933 160.32148754755087 L617.6279350395607 163.03655100551873 " fill="none" stroke-width="4.4" stroke="rgb(84,112,198)" stroke-opacity="1.0">
                </path>
              </g>
            </g>
            <g>
              <g>
                <path d="M29.41085404950286 249.63600392237424 L29.41085404950286 249.63600392237424 L35.35244072617007 244.70685060274084 L41.294027402837344 239.772511417902 L47.235614079504614 234.83622648873023 L53.177200756171885 229.90378537076015 L59.1187874328391 224.98119247336675 L65.06037410950637 220.07425347885703 L71.00196078617364 215.18793525972202 L76.94354746284085 210.32600358060245 L82.88513413950812 205.49047016270134 L88.82672081617537 200.68234397365927 L94.76830749284261 195.90052147940355 L100.70989416950988 191.1365918075121 L106.65148084617712 186.37989760872082 L112.59306752284434 181.61976014135016 L118.5346541995116 176.8454792878902 L124.47624087617885 172.0563933634356 L130.4178275528461 167.30651461760425 L136.35941422951336 162.66833197740505 L142.3010009061806 158.21432614763557 L148.24258758284788 154.0169549391042 L154.18417425951512 150.14865335059233 L160.12576093618236 146.68183383364178 L166.0673476128496 143.68888676706035 L172.00893428951687 141.24218116944002 L177.95052096618411 139.41406567896763 L183.89210764285136 138.27686983023193 L189.8336943195186 137.90280400261452 L195.77528099618587 138.3206239366882 L201.7168676728531 139.4482099940263 L207.65845434952035 141.18600154952225 L213.60004102618763 143.43443067678498 L219.54162770285487 146.09392574115134 L225.4832143795221 149.06491542684319 L231.42480105618935 152.2478331912648 L237.36638773285665 155.54312212802324 L243.30797440952387 158.8512402074139 L249.24956108619108 162.07266584912801 L255.19114776285838 165.1079037672366 L261.1327344395256 167.85749101263465 L267.0743211161929 170.2220031237681 L273.0159077928601 172.1020602833807 L278.9574944695273 173.39833336804156 L284.89908114619465 174.01154976917118 L290.84066782286186 173.84249885995692 L296.78225449952913 172.79203698256907 L302.7238411761964 170.7610918349124 L308.6654278528636 167.65066614595213 L314.6070145295309 163.36184054332415 L320.5486012061981 157.7965580752399 L326.49018788286537 150.90194035088274 L332.43177455953264 142.69404521213585 L338.37336123619986 133.19481303582745 L344.3149479128671 123.40249494068064 L350.25653458953434 118.3672340937528 L356.1981212662016 119.99794997456186 L362.1397079428689 123.38288546200921 L368.0812946195361 126.14963850023864 L374.02288129620337 128.2270481882386 L379.96446797287064 129.5941291068421 L385.90605464953785 130.22994142420356 L391.8476413262051 130.1135847479627 L397.7892280028724 129.22419196661545 L403.73081467953966 127.5409231842044 L409.6724013562069 125.0429598396298 L415.6139880328741 121.70949908766222 L421.55557470954136 117.51974850390243 L427.49716138620863 112.45292116116312 L433.43874806287585 106.48823111062333 L439.3803347395431 99.60488928806501 L445.3219214162104 91.78209985385536 L451.2635080928776 82.99905696527506 L457.20509476954487 73.23494197138984 L463.14668144621214 62.88133154209106 L469.0882681228793 54.94807845869292 L475.02985479954657 51.936796441958876 L480.9714414762139 52.61635763759105 L486.91302815288117 55.198744387737804 L492.8546148295484 57.89591705546036 L498.79620150621565 58.91981351539275 L504.7377881828829 56.48234885840091 L510.6793748595501 48.89354538180362 L516.6209615362174 37.24195556517893 L522.5625482128846 25.71959388644882 L528.5041348895518 18.68181818181813 L534.4457215662192 20.483964349083806 L540.3873082428864 35.230729448226356 L546.3288949195536 58.522575983248004 L552.2704815962209 76.79057040672708 L558.2120682728881 86.52100866451568 L564.1536549495554 89.76650011418215 L570.0952416262226 88.62759394745362 L576.03682830289 85.20482169070792 L581.9784149795571 81.59869789328889 L587.9200016562244 79.90968972299962 L593.8615883328916 81.35625898749788 L599.8031750095589 83.99106847467436 L605.7447616862261 86.24743955980648 L611.6863483628933 88.16466355074496 L617.6279350395607 89.90914716724859 L617.6279350395607 236.1639548437889 L611.6863483628933 232.4783115443568 L605.7447616862261 228.63313914878356 L599.8031750095589 224.46257490625197 L593.8615883328916 219.92789754448063 L587.9200016562244 216.59638302952956 L581.9784149795571 216.4159944960456 L576.03682830289 218.16892594811262 L570.0952416262226 219.75539725464049 L564.1536549495554 219.07561348543138 L558.2120682728881 214.02979668732172 L552.2704815962209 202.51818657249697 L546.3288949195536 182.4889993885615 L540.3873082428864 157.4568028473982 L534.4457215662192 140.9914335231977 L528.5041348895518 137.49337257118 L522.5625482128846 142.85890841226703 L516.6209615362174 152.73373354195456 L510.6793748595501 162.7635623941458 L504.7377881828829 168.75749744454782 L498.79620150621565 169.62814846442726 L492.8546148295484 167.06670108594108 L486.91302815288117 162.86249393217884 L480.9714414762139 158.80488840999777 L475.02985479954657 156.6832684146827 L469.0882681228793 158.28703982060546 L463.14668144621214 164.84876115312466 L457.20509476954487 173.86828976971822 L451.2635080928776 182.33728172399293 L445.3219214162104 189.86570362545308 L439.3803347395431 196.4759478191351 L433.43874806287585 202.19041945828974 L427.49716138620863 207.03153369925462 L421.55557470954136 211.02171247378197 L415.6139880328741 214.18338082902127 L409.6724013562069 216.5389628337555 L403.73081467953966 218.11087705955572 L397.7892280028724 218.9215316571629 L391.8476413262051 218.99331906144758 L385.90605464953785 218.34861037242274 L379.96446797287064 217.0097494745546 L374.02288129620337 214.9990469714533 L368.0812946195361 212.33877402724343 L362.1397079428689 209.05115621872855 L356.1981212662016 205.20849138521567 L350.25653458953434 203.1842037522057 L344.3149479128671 207.89094703968104 L338.37336123619986 217.4205629916649 L332.43177455953264 226.72352572140358 L326.49018788286537 234.80205033405002 L320.5486012061981 241.6345061489715 L314.6070145295309 247.20498481127171 L308.6654278528636 251.5663521990019 L302.7238411761964 254.81649090164785 L296.78225449952913 257.0539861665174 L290.84066782286186 258.37734534224745 L284.89908114619465 258.8850007464147 L278.9574944695273 258.6753133408612 L273.0159077928601 257.8465771184461 L267.0743211161929 256.4970240902618 L261.1327344395256 254.72482975254914 L255.19114776285838 252.62811890772377 L249.24956108619108 250.30497171390334 L243.30797440952387 247.8534298416548 L237.36638773285665 245.37150262472085 L231.42480105618935 242.9571731024646 L225.4832143795221 240.70840386485324 L219.54162770285487 238.72314262516568 L213.60004102618763 237.09932746047798 L207.65845434952035 235.93489167468385 L201.7168676728531 235.3277682527919 L195.77528099618587 235.37589388808294 L189.8336943195186 236.17721257512224 L183.89210764285136 237.81224824770845 L177.95052096618411 240.25067586911788 L172.00893428951687 243.41874684898508 L166.0673476128496 247.24262844252303 L160.12576093618236 251.64850700854288 L154.18417425951512 256.56258928626085 L148.24258758284788 261.9111033751089 L142.3010009061806 267.6202994472533 L136.35941422951336 273.6164502220995 L130.4178275528461 279.8258512310803 L124.47624087617885 286.17482089961743 L118.5346541995116 292.5897150675644 L112.59306752284434 299.0154114688454 L106.65148084617712 305.4515063426624 L100.70989416950988 311.9076780983412 L94.76830749284261 318.3936265210381 L88.82672081617537 324.91907164752763 L82.88513413950812 331.49152747960215 L76.94354746284085 338.1112398496603 L71.00196078617364 344.77637993438026 L65.06037410950637 351.4841526476448 L59.1187874328391 358.23004397836456 L53.177200756171885 365.0083725495341 L47.235614079504614 371.8126505462626 L41.294027402837344 378.6362224439541 L35.35244072617007 385.4726772573693 L29.41085404950286 392.3181818181818 Z" fill="rgb(71,71,71)" stroke-width="1.0" fill-opacity="0.10196078431372549">
                </path>
              </g>
              <g>
                <path d="M29.41085404950286 249.63600392237424 L29.41085404950286 249.63600392237424 L35.35244072617007 244.70685060274084 L41.294027402837344 239.772511417902 L47.235614079504614 234.83622648873023 L53.177200756171885 229.90378537076015 L59.1187874328391 224.98119247336675 L65.06037410950637 220.07425347885703 L71.00196078617364 215.18793525972202 L76.94354746284085 210.32600358060245 L82.88513413950812 205.49047016270134 L88.82672081617537 200.68234397365927 L94.76830749284261 195.90052147940355 L100.70989416950988 191.1365918075121 L106.65148084617712 186.37989760872082 L112.59306752284434 181.61976014135016 L118.5346541995116 176.8454792878902 L124.47624087617885 172.0563933634356 L130.4178275528461 167.30651461760425 L136.35941422951336 162.66833197740505 L142.3010009061806 158.21432614763557 L148.24258758284788 154.0169549391042 L154.18417425951512 150.14865335059233 L160.12576093618236 146.68183383364178 L166.0673476128496 143.68888676706035 L172.00893428951687 141.24218116944002 L177.95052096618411 139.41406567896763 L183.89210764285136 138.27686983023193 L189.8336943195186 137.90280400261452 L195.77528099618587 138.3206239366882 L201.7168676728531 139.4482099940263 L207.65845434952035 141.18600154952225 L213.60004102618763 143.43443067678498 L219.54162770285487 146.09392574115134 L225.4832143795221 149.06491542684319 L231.42480105618935 152.2478331912648 L237.36638773285665 155.54312212802324 L243.30797440952387 158.8512402074139 L249.24956108619108 162.07266584912801 L255.19114776285838 165.1079037672366 L261.1327344395256 167.85749101263465 L267.0743211161929 170.2220031237681 L273.0159077928601 172.1020602833807 L278.9574944695273 173.39833336804156 L284.89908114619465 174.01154976917118 L290.84066782286186 173.84249885995692 L296.78225449952913 172.79203698256907 L302.7238411761964 170.7610918349124 L308.6654278528636 167.65066614595213 L314.6070145295309 163.36184054332415 L320.5486012061981 157.7965580752399 L326.49018788286537 150.90194035088274 L332.43177455953264 142.69404521213585 L338.37336123619986 133.19481303582745 L344.3149479128671 123.40249494068064 L350.25653458953434 118.3672340937528 L356.1981212662016 119.99794997456186 L362.1397079428689 123.38288546200921 L368.0812946195361 126.14963850023864 L374.02288129620337 128.2270481882386 L379.96446797287064 129.5941291068421 L385.90605464953785 130.22994142420356 L391.8476413262051 130.1135847479627 L397.7892280028724 129.22419196661545 L403.73081467953966 127.5409231842044 L409.6724013562069 125.0429598396298 L415.6139880328741 121.70949908766222 L421.55557470954136 117.51974850390243 L427.49716138620863 112.45292116116312 L433.43874806287585 106.48823111062333 L439.3803347395431 99.60488928806501 L445.3219214162104 91.78209985385536 L451.2635080928776 82.99905696527506 L457.20509476954487 73.23494197138984 L463.14668144621214 62.88133154209106 L469.0882681228793 54.94807845869292 L475.02985479954657 51.936796441958876 L480.9714414762139 52.61635763759105 L486.91302815288117 55.198744387737804 L492.8546148295484 57.89591705546036 L498.79620150621565 58.91981351539275 L504.7377881828829 56.48234885840091 L510.6793748595501 48.89354538180362 L516.6209615362174 37.24195556517893 L522.5625482128846 25.71959388644882 L528.5041348895518 18.68181818181813 L534.4457215662192 20.483964349083806 L540.3873082428864 35.230729448226356 L546.3288949195536 58.522575983248004 L552.2704815962209 76.79057040672708 L558.2120682728881 86.52100866451568 L564.1536549495554 89.76650011418215 L570.0952416262226 88.62759394745362 L576.03682830289 85.20482169070792 L581.9784149795571 81.59869789328889 L587.9200016562244 79.90968972299962 L593.8615883328916 81.35625898749788 L599.8031750095589 83.99106847467436 L605.7447616862261 86.24743955980648 L611.6863483628933 88.16466355074496 L617.6279350395607 89.90914716724859 " fill="none" stroke-width="0.0" stroke="rgb(71,71,71)" stroke-opacity="1.0">
                </path>
              </g>
              <g>
                <path d="M29.41085404950286 392.3181818181818 L29.41085404950286 392.3181818181818 L35.35244072617007 385.4726772573693 L41.294027402837344 378.6362224439541 L47.235614079504614 371.8126505462626 L53.177200756171885 365.0083725495341 L59.1187874328391 358.23004397836456 L65.06037410950637 351.4841526476448 L71.00196078617364 344.77637993438026 L76.94354746284085 338.1112398496603 L82.88513413950812 331.49152747960215 L88.82672081617537 324.91907164752763 L94.76830749284261 318.3936265210381 L100.70989416950988 311.9076780983412 L106.65148084617712 305.4515063426624 L112.59306752284434 299.0154114688454 L118.5346541995116 292.5897150675644 L124.47624087617885 286.17482089961743 L130.4178275528461 279.8258512310803 L136.35941422951336 273.6164502220995 L142.3010009061806 267.6202994472533 L148.24258758284788 261.9111033751089 L154.18417425951512 256.56258928626085 L160.12576093618236 251.64850700854288 L166.0673476128496 247.24262844252303 L172.00893428951687 243.41874684898508 L177.95052096618411 240.25067586911788 L183.89210764285136 237.81224824770845 L189.8336943195186 236.17721257512224 L195.77528099618587 235.37589388808294 L201.7168676728531 235.3277682527919 L207.65845434952035 235.93489167468385 L213.60004102618763 237.09932746047798 L219.54162770285487 238.72314262516568 L225.4832143795221 240.70840386485324 L231.42480105618935 242.9571731024646 L237.36638773285665 245.37150262472085 L243.30797440952387 247.8534298416548 L249.24956108619108 250.30497171390334 L255.19114776285838 252.62811890772377 L261.1327344395256 254.72482975254914 L267.0743211161929 256.4970240902618 L273.0159077928601 257.8465771184461 L278.9574944695273 258.6753133408612 L284.89908114619465 258.8850007464147 L290.84066782286186 258.37734534224745 L296.78225449952913 257.0539861665174 L302.7238411761964 254.81649090164785 L308.6654278528636 251.5663521990019 L314.6070145295309 247.20498481127171 L320.5486012061981 241.6345061489715 L326.49018788286537 234.80205033405002 L332.43177455953264 226.72352572140358 L338.37336123619986 217.4205629916649 L344.3149479128671 207.89094703968104 L350.25653458953434 203.1842037522057 L356.1981212662016 205.20849138521567 L362.1397079428689 209.05115621872855 L368.0812946195361 212.33877402724343 L374.02288129620337 214.9990469714533 L379.96446797287064 217.0097494745546 L385.90605464953785 218.34861037242274 L391.8476413262051 218.99331906144758 L397.7892280028724 218.9215316571629 L403.73081467953966 218.11087705955572 L409.6724013562069 216.5389628337555 L415.6139880328741 214.18338082902127 L421.55557470954136 211.02171247378197 L427.49716138620863 207.03153369925462 L433.43874806287585 202.19041945828974 L439.3803347395431 196.4759478191351 L445.3219214162104 189.86570362545308 L451.2635080928776 182.33728172399293 L457.20509476954487 173.86828976971822 L463.14668144621214 164.84876115312466 L469.0882681228793 158.28703982060546 L475.02985479954657 156.6832684146827 L480.9714414762139 158.80488840999777 L486.91302815288117 162.86249393217884 L492.8546148295484 167.06670108594108 L498.79620150621565 169.62814846442726 L504.7377881828829 168.75749744454782 L510.6793748595501 162.7635623941458 L516.6209615362174 152.73373354195456 L522.5625482128846 142.85890841226703 L528.5041348895518 137.49337257118 L534.4457215662192 140.9914335231977 L540.3873082428864 157.4568028473982 L546.3288949195536 182.4889993885615 L552.2704815962209 202.51818657249697 L558.2120682728881 214.02979668732172 L564.1536549495554 219.07561348543138 L570.0952416262226 219.75539725464049 L576.03682830289 218.16892594811262 L581.9784149795571 216.4159944960456 L587.9200016562244 216.59638302952956 L593.8615883328916 219.92789754448063 L599.8031750095589 224.46257490625197 L605.7447616862261 228.63313914878356 L611.6863483628933 232.4783115443568 L617.6279350395607 236.1639548437889 " fill="none" stroke-width="0.0" stroke="rgb(71,71,71)" stroke-opacity="1.0">
                </path>
              </g>
            </g>
          </g>
        </g>
        <defs>
          <clipPath id="xXxprefixXx1">
            <rect x="21.961210910936405" y="0.0" width="647.0387890890636" height="411.0">
            </rect>
          </clipPath>
        </defs>
        <defs>
          <clipPath id="xXxprefixXx2">
            <rect x="21.961210910936405" y="0.0" width="647.0387890890636" height="411.0">
            </rect>
          </clipPath>
        </defs>
      </g>
      <g>
        <g transform="translate(21.961210910936405 411.0 ) ">
          <g transform="translate(39.380635083232676 0.0 ) ">
            <line stroke-width="1.0" stroke="rgb(71,71,71)" stroke-opacity="1.0" x2="0.0" y2="4.0">
            </line>
            <g transform="translate(0.0 7.0 ) ">
              <text class="axis-text-x" text-anchor="middle" dy="0.7em">
                <tspan>-3</tspan>
              </text>
            </g>
          </g>
          <g transform="translate(139.07844542053058 0.0 ) ">
            <line stroke-width="1.0" stroke="rgb(71,71,71)" stroke-opacity="1.0" x2="0.0" y2="4.0">
            </line>
            <g transform="translate(0.0 7.0 ) ">
              <text class="axis-text-x" text-anchor="middle" dy="0.7em">
                <tspan>-2</tspan>
              </text>
            </g>
          </g>
          <g transform="translate(238.7762557578285 0.0 ) ">
            <line stroke-width="1.0" stroke="rgb(71,71,71)" stroke-opacity="1.0" x2="0.0" y2="4.0">
            </line>
            <g transform="translate(0.0 7.0 ) ">
              <text class="axis-text-x" text-anchor="middle" dy="0.7em">
                <tspan>-1</tspan>
              </text>
            </g>
          </g>
          <g transform="translate(338.47406609512643 0.0 ) ">
            <line stroke-width="1.0" stroke="rgb(71,71,71)" stroke-opacity="1.0" x2="0.0" y2="4.0">
            </line>
            <g transform="translate(0.0 7.0 ) ">
              <text class="axis-text-x" text-anchor="middle" dy="0.7em">
                <tspan>0</tspan>
              </text>
            </g>
          </g>
          <g transform="translate(438.17187643242437 0.0 ) ">
            <line stroke-width="1.0" stroke="rgb(71,71,71)" stroke-opacity="1.0" x2="0.0" y2="4.0">
            </line>
            <g transform="translate(0.0 7.0 ) ">
              <text class="axis-text-x" text-anchor="middle" dy="0.7em">
                <tspan>1</tspan>
              </text>
            </g>
          </g>
          <g transform="translate(537.8696867697223 0.0 ) ">
            <line stroke-width="1.0" stroke="rgb(71,71,71)" stroke-opacity="1.0" x2="0.0" y2="4.0">
            </line>
            <g transform="translate(0.0 7.0 ) ">
              <text class="axis-text-x" text-anchor="middle" dy="0.7em">
                <tspan>2</tspan>
              </text>
            </g>
          </g>
          <g transform="translate(637.5674971070202 0.0 ) ">
            <line stroke-width="1.0" stroke="rgb(71,71,71)" stroke-opacity="1.0" x2="0.0" y2="4.0">
            </line>
            <g transform="translate(0.0 7.0 ) ">
              <text class="axis-text-x" text-anchor="middle" dy="0.7em">
                <tspan>3</tspan>
              </text>
            </g>
          </g>
          <line x1="0.0" y1="0.0" x2="647.0387890890636" y2="0.0" stroke-width="1.0" stroke="rgb(71,71,71)" stroke-opacity="1.0">
          </line>
        </g>
        <g transform="translate(21.961210910936405 0.0 ) ">
          <g transform="translate(0.0 393.0872327980218 ) ">
            <g transform="translate(-3.0 0.0 ) ">
              <text class="axis-text-y" text-anchor="end" dy="0.35em">
                <tspan>-3</tspan>
              </text>
            </g>
          </g>
          <g transform="translate(0.0 339.74390618937434 ) ">
            <g transform="translate(-3.0 0.0 ) ">
              <text class="axis-text-y" text-anchor="end" dy="0.35em">
                <tspan>-2</tspan>
              </text>
            </g>
          </g>
          <g transform="translate(0.0 286.4005795807269 ) ">
            <g transform="translate(-3.0 0.0 ) ">
              <text class="axis-text-y" text-anchor="end" dy="0.35em">
                <tspan>-1</tspan>
              </text>
            </g>
          </g>
          <g transform="translate(0.0 233.05725297207943 ) ">
            <g transform="translate(-3.0 0.0 ) ">
              <text class="axis-text-y" text-anchor="end" dy="0.35em">
                <tspan>0</tspan>
              </text>
            </g>
          </g>
          <g transform="translate(0.0 179.71392636343197 ) ">
            <g transform="translate(-3.0 0.0 ) ">
              <text class="axis-text-y" text-anchor="end" dy="0.35em">
                <tspan>1</tspan>
              </text>
            </g>
          </g>
          <g transform="translate(0.0 126.37059975478451 ) ">
            <g transform="translate(-3.0 0.0 ) ">
              <text class="axis-text-y" text-anchor="end" dy="0.35em">
                <tspan>2</tspan>
              </text>
            </g>
          </g>
          <g transform="translate(0.0 73.02727314613705 ) ">
            <g transform="translate(-3.0 0.0 ) ">
              <text class="axis-text-y" text-anchor="end" dy="0.35em">
                <tspan>3</tspan>
              </text>
            </g>
          </g>
          <g transform="translate(0.0 19.68394653748959 ) ">
            <g transform="translate(-3.0 0.0 ) ">
              <text class="axis-text-y" text-anchor="end" dy="0.35em">
                <tspan>4</tspan>
              </text>
            </g>
          </g>
        </g>
      </g>
    </g>
    <g transform="translate(16.0 212.0 ) rotate(-90.0 ) ">
      <text class="axis-title-y" y="0.0" text-anchor="middle">
        <tspan>y</tspan>
      </text>
    </g>
    <g transform="translate(374.9806054554682 463.0 ) ">
      <text class="axis-title-x" y="0.0" text-anchor="middle">
        <tspan>x</tspan>
      </text>
    </g>
    <path fill="rgb(0,0,0)" fill-opacity="0.0" stroke="rgb(71,71,71)" stroke-opacity="1.0" stroke-width="0.0" d="M0.0 0.0 L0.0 470.0 L705.0 470.0 L705.0 0.0 Z" pointer-events="none">
    </path>
  </g>
  <g id="xXxprefixXx3">
  </g>
</svg>