<svg xmlns="http://www.w3.org/2000/svg" xmlns:xlink="http://www.w3.org/1999/xlink" class="plt-container" width="705.0" height="470.0">
  <style type="text/css">
  .plt-container {
   font-family: Lucida Grande, sans-serif;
   user-select: none;
   -webkit-user-select: none;
   -moz-user-select: none;
   -ms-user-select: none;
}
text {
   text-rendering: optimizeLegibility;
}
#xXxprefixXx0 .plot-title {
   fill: #474747;
   font-family: Lucida Grande, sans-serif;
   font-size: 16.0px;
   font-weight: normal;
   font-style: normal;   
}
#xXxprefixXx0 .plot-subtitle {
   fill: #474747;
   font-family: Lucida Grande, sans-serif;
   font-size: 15.0px;
   font-weight: normal;
   font-style: normal;   
}
#xXxprefixXx0 .plot-caption {
   fill: #474747;
   font-family: Lucida Grande, sans-serif;
   font-size: 13.0px;
   font-weight: normal;
   font-style: normal;   
}
#xXxprefixXx0 .legend-title {
   fill: #474747;
   font-family: Lucida Grande, sans-serif;
   font-size: 15.0px;
   font-weight: normal;
   font-style: normal;   
}
#xXxprefixXx0 .legend-item {
   fill: #474747;
   font-family: Lucida Grande, sans-serif;
   font-size: 13.0px;
   font-weight: normal;
   font-style: normal;   
}
#xXxprefixXx0 .axis-title-x {
   fill: #474747;
   font-family: Lucida Grande, sans-serif;
   font-size: 15.0px;
   font-weight: normal;
   font-style: normal;   
}
#xXxprefixXx0 .axis-text-x {
   fill: #474747;
   font-family: Lucida Grande, sans-serif;
   font-size: 13.0px;
   font-weight: normal;
   font-style: normal;   
}
#xXxprefixXx3 .axis-tooltip-text-x {
   fill: #ffffff;
   font-family: Lucida Grande, sans-serif;
   font-size: 13.0px;
   font-weight: normal;
   font-style: normal;   
}
#xXxprefixXx0 .axis-title-y {
   fill: #474747;
   font-family: Lucida Grande, sans-serif;
   font-size: 15.0px;
   font-weight: normal;
   font-style: normal;   
}
#xXxprefixXx0 .axis-text-y {
   fill: #474747;
   font-family: Lucida Grande, sans-serif;
   font-size: 13.0px;
   font-weight: normal;
   font-style: normal;   
}
#xXxprefixXx3 .axis-tooltip-text-y {
   fill: #ffffff;
   font-family: Lucida Grande, sans-serif;
   font-size: 13.0px;
   font-weight: normal;
   font-style: normal;   
}
#xXxprefixXx0 .facet-strip-text-x {
   fill: #474747;
   font-family: Lucida Grande, sans-serif;
   font-size: 13.0px;
   font-weight: normal;
   font-style: normal;   
}
#xXxprefixXx0 .facet-strip-text-y {
   fill: #474747;
   font-family: Lucida Grande, sans-serif;
   font-size: 13.0px;
   font-weight: normal;
   font-style: normal;   
}
#xXxprefixXx3 .tooltip-text {
   fill: #474747;
   font-family: Lucida Grande, sans-serif;
   font-size: 13.0px;
   font-weight: normal;
   font-style: normal;   
}
#xXxprefixXx3 .tooltip-title {
   fill: #474747;
   font-family: Lucida Grande, sans-serif;
   font-size: 13.0px;
   font-weight: bold;
   font-style: normal;   
}
#xXxprefixXx3 .tooltip-label {
   fill: #474747;
   font-family: Lucida Grande, sans-serif;
   font-size: 13.0px;
   font-weight: bold;
   font-style: normal;   
}

  </style>
  <g id="xXxprefixXx0">
    <path fill-rule="evenodd" fill="rgb(255,255,255)" fill-opacity="1.0" d="M0.0 0.0 L0.0 470.0 L705.0 470.0 L705.0 0.0 Z">
    </path>
    <g transform="translate(23.0 10.0 ) ">
      <g transform="translate(21.961210910936405 414.0 ) ">
        <line x1="39.5632236810755" y1="-0.0" x2="39.5632236810755" y2="-414.0" stroke="rgb(233,233,233)" stroke-opacity="1.0" stroke-width="1.0">
        </line>
        <line x1="139.72328363316544" y1="-0.0" x2="139.72328363316544" y2="-414.0" stroke="rgb(233,233,233)" stroke-opacity="1.0" stroke-width="1.0">
        </line>
        <line x1="239.88334358525537" y1="-0.0" x2="239.88334358525537" y2="-414.0" stroke="rgb(233,233,233)" stroke-opacity="1.0" stroke-width="1.0">
        </line>
        <line x1="340.0434035373453" y1="-0.0" x2="340.0434035373453" y2="-414.0" stroke="rgb(233,233,233)" stroke-opacity="1.0" stroke-width="1.0">
        </line>
        <line x1="440.2034634894352" y1="-0.0" x2="440.2034634894352" y2="-414.0" stroke="rgb(233,233,233)" stroke-opacity="1.0" stroke-width="1.0">
        </line>
        <line x1="540.3635234415251" y1="-0.0" x2="540.3635234415251" y2="-414.0" stroke="rgb(233,233,233)" stroke-opacity="1.0" stroke-width="1.0">
        </line>
        <line x1="640.5235833936151" y1="-0.0" x2="640.5235833936151" y2="-414.0" stroke="rgb(233,233,233)" stroke-opacity="1.0" stroke-width="1.0">
        </line>
        <g transform="translate(39.5632236810755 0.0 ) ">
          <line stroke-width="1.0" stroke="rgb(71,71,71)" stroke-opacity="1.0" x2="0.0" y2="4.0">
          </line>
          <g transform="translate(0.0 7.0 ) ">
            <text class="axis-text-x" text-anchor="middle" dy="0.7em">
            -3
            </text>
          </g>
        </g>
        <g transform="translate(139.72328363316544 0.0 ) ">
          <line stroke-width="1.0" stroke="rgb(71,71,71)" stroke-opacity="1.0" x2="0.0" y2="4.0">
          </line>
          <g transform="translate(0.0 7.0 ) ">
            <text class="axis-text-x" text-anchor="middle" dy="0.7em">
            -2
            </text>
          </g>
        </g>
        <g transform="translate(239.88334358525537 0.0 ) ">
          <line stroke-width="1.0" stroke="rgb(71,71,71)" stroke-opacity="1.0" x2="0.0" y2="4.0">
          </line>
          <g transform="translate(0.0 7.0 ) ">
            <text class="axis-text-x" text-anchor="middle" dy="0.7em">
            -1
            </text>
          </g>
        </g>
        <g transform="translate(340.0434035373453 0.0 ) ">
          <line stroke-width="1.0" stroke="rgb(71,71,71)" stroke-opacity="1.0" x2="0.0" y2="4.0">
          </line>
          <g transform="translate(0.0 7.0 ) ">
            <text class="axis-text-x" text-anchor="middle" dy="0.7em">
            0
            </text>
          </g>
        </g>
        <g transform="translate(440.2034634894352 0.0 ) ">
          <line stroke-width="1.0" stroke="rgb(71,71,71)" stroke-opacity="1.0" x2="0.0" y2="4.0">
          </line>
          <g transform="translate(0.0 7.0 ) ">
            <text class="axis-text-x" text-anchor="middle" dy="0.7em">
            1
            </text>
          </g>
        </g>
        <g transform="translate(540.3635234415251 0.0 ) ">
          <line stroke-width="1.0" stroke="rgb(71,71,71)" stroke-opacity="1.0" x2="0.0" y2="4.0">
          </line>
          <g transform="translate(0.0 7.0 ) ">
            <text class="axis-text-x" text-anchor="middle" dy="0.7em">
            2
            </text>
          </g>
        </g>
        <g transform="translate(640.5235833936151 0.0 ) ">
          <line stroke-width="1.0" stroke="rgb(71,71,71)" stroke-opacity="1.0" x2="0.0" y2="4.0">
          </line>
          <g transform="translate(0.0 7.0 ) ">
            <text class="axis-text-x" text-anchor="middle" dy="0.7em">
            3
            </text>
          </g>
        </g>
        <line x1="0.0" y1="0.0" x2="650.0387890890636" y2="0.0" stroke-width="1.0" stroke="rgb(71,71,71)" stroke-opacity="1.0">
        </line>
      </g>
      <g transform="translate(21.961210910936405 0.0 ) ">
        <line x1="0.0" y1="395.9564826724599" x2="650.0387890890636" y2="395.9564826724599" stroke="rgb(233,233,233)" stroke-opacity="1.0" stroke-width="1.0">
        </line>
        <line x1="0.0" y1="342.22378871630406" x2="650.0387890890636" y2="342.22378871630406" stroke="rgb(233,233,233)" stroke-opacity="1.0" stroke-width="1.0">
        </line>
        <line x1="0.0" y1="288.49109476014826" x2="650.0387890890636" y2="288.49109476014826" stroke="rgb(233,233,233)" stroke-opacity="1.0" stroke-width="1.0">
        </line>
        <line x1="0.0" y1="234.7584008039924" x2="650.0387890890636" y2="234.7584008039924" stroke="rgb(233,233,233)" stroke-opacity="1.0" stroke-width="1.0">
        </line>
        <line x1="0.0" y1="181.02570684783657" x2="650.0387890890636" y2="181.02570684783657" stroke="rgb(233,233,233)" stroke-opacity="1.0" stroke-width="1.0">
        </line>
        <line x1="0.0" y1="127.29301289168073" x2="650.0387890890636" y2="127.29301289168073" stroke="rgb(233,233,233)" stroke-opacity="1.0" stroke-width="1.0">
        </line>
        <line x1="0.0" y1="73.56031893552489" x2="650.0387890890636" y2="73.56031893552489" stroke="rgb(233,233,233)" stroke-opacity="1.0" stroke-width="1.0">
        </line>
        <line x1="0.0" y1="19.827624979369062" x2="650.0387890890636" y2="19.827624979369062" stroke="rgb(233,233,233)" stroke-opacity="1.0" stroke-width="1.0">
        </line>
        <g transform="translate(0.0 395.9564826724599 ) ">
          <g transform="translate(-3.0 0.0 ) ">
            <text class="axis-text-y" text-anchor="end" dy="0.35em">
            -3
            </text>
          </g>
        </g>
        <g transform="translate(0.0 342.22378871630406 ) ">
          <g transform="translate(-3.0 0.0 ) ">
            <text class="axis-text-y" text-anchor="end" dy="0.35em">
            -2
            </text>
          </g>
        </g>
        <g transform="translate(0.0 288.49109476014826 ) ">
          <g transform="translate(-3.0 0.0 ) ">
            <text class="axis-text-y" text-anchor="end" dy="0.35em">
            -1
            </text>
          </g>
        </g>
        <g transform="translate(0.0 234.7584008039924 ) ">
          <g transform="translate(-3.0 0.0 ) ">
            <text class="axis-text-y" text-anchor="end" dy="0.35em">
            0
            </text>
          </g>
        </g>
        <g transform="translate(0.0 181.02570684783657 ) ">
          <g transform="translate(-3.0 0.0 ) ">
            <text class="axis-text-y" text-anchor="end" dy="0.35em">
            1
            </text>
          </g>
        </g>
        <g transform="translate(0.0 127.29301289168073 ) ">
          <g transform="translate(-3.0 0.0 ) ">
            <text class="axis-text-y" text-anchor="end" dy="0.35em">
            2
            </text>
          </g>
        </g>
        <g transform="translate(0.0 73.56031893552489 ) ">
          <g transform="translate(-3.0 0.0 ) ">
            <text class="axis-text-y" text-anchor="end" dy="0.35em">
            3
            </text>
          </g>
        </g>
        <g transform="translate(0.0 19.827624979369062 ) ">
          <g transform="translate(-3.0 0.0 ) ">
            <text class="axis-text-y" text-anchor="end" dy="0.35em">
            4
            </text>
          </g>
        </g>
      </g>
      <g transform="translate(21.961210910936405 0.0 ) " clip-path="url(#xXxprefixXx1)" clip-bounds-jfx="[rect (0.0, 0.0), (650.0387890890636, 414.0)]">
        <defs>
          <clipPath id="xXxprefixXx1">
            <rect x="0.0" y="0.0" width="650.0387890890636" height="414.0">
            </rect>
          </clipPath>
        </defs>
        <g>
          <path d="M29.547217685866485 323.31999135838225 L29.547217685866485 323.31999135838225 L35.51635257190014 317.38968921421605 L41.4854874579338 311.46133311290566 L47.45462234396746 305.5384855139745 L53.423757230001115 299.6272912153307 L59.392892116034716 293.7341263880982 L65.36202700206837 287.8651826476542 L71.33116188810203 282.0258229809712 L77.30029677413563 276.22021749407395 L83.26943166016929 270.45078713371487 L89.23856654620295 264.71896115227656 L95.20770143223658 259.0240599418282 L101.17683631827023 253.35806294528376 L107.14597120430386 247.71070709960176 L113.11510609033749 242.0717287671788 L119.08424097637115 236.43086431041144 L125.05337586240478 230.78798382591722 L131.0225107484384 225.19805287269514 L136.99164563447206 219.73467132675776 L142.96078052050572 214.4714537667688 L148.92991540653935 209.482014771392 L154.89905029257298 204.83996891929098 L160.86818517860664 200.61893078912948 L166.8373200646403 196.8925149595712 L172.80645495067392 193.7343360092798 L178.77558983670758 191.21800851691896 L184.7447247227412 189.41714706115243 L190.71385960877484 188.4052638238236 L196.6829944948085 188.21211481685555 L202.65212938084215 188.7557846644559 L208.62126426687576 189.9368002370089 L214.5903991529094 191.65568840489885 L220.55953403894307 193.81297603851002 L226.52866892497673 196.30919000822666 L232.49780381101033 199.04485718443303 L238.466938697044 201.92050443751344 L244.43607358307764 204.83665863785208 L250.40520846911124 207.69384665583328 L256.3743433551449 210.39259536184133 L262.34347824117856 212.83343162626045 L268.3126131272122 214.9168823194749 L274.2817480132459 216.54347431186895 L280.2508828992795 217.61373447382692 L286.22001778531313 218.02818967573302 L292.18915267134673 217.68736678797154 L298.15828755738045 216.49179268092675 L304.12742244341405 214.3419942249829 L310.0965573294477 211.13849829052427 L316.06569221548136 206.78183174793512 L322.03482710151496 201.1733097187634 L328.0039619875486 194.25967414058655 L333.9730968735823 186.05702477674612 L339.9422317596159 176.58730617443047 L345.91136664564954 166.85582114339383 L351.8805015316832 161.94926431657763 L357.8496364177168 163.7901055023697 L363.81877130375045 167.43028376621098 L369.7879061897841 170.47956543354934 L375.75704107581777 172.86569756218057 L381.72617596185137 174.56691694975453 L387.695310847885 175.56146039392127 L393.6644457339187 175.82756469233072 L399.63358061995234 175.34346664263288 L405.602715505986 174.08740304247772 L411.5718503920196 172.0376106895152 L417.5409852780532 169.17232638139535 L423.5101201640869 165.46978691576805 L429.4792550501205 160.90822909028338 L435.4483899361542 155.46588970259126 L441.41752482218783 149.12100555034164 L447.3866597082215 141.85181343118452 L453.3557945942551 133.63655014277 L459.32492948028874 124.45345248274784 L465.2940643663224 114.69617807277288 L471.263199252356 107.39578949833273 L477.23233413838966 105.0714195263377 L483.2014690244233 106.4822334108294 L489.170603910457 109.82646309543244 L495.1397387964906 113.3023405237715 L501.10887368252423 115.10809763947137 L507.07800856855795 113.44196638615665 L513.0471434545915 106.60102508423728 L519.0162783406251 95.68118648461467 L524.9854132266588 84.90450115774738 L530.9545481126925 78.65757782450271 L536.9236829987261 81.32702520574762 L542.8928178847598 97.0470053167744 L548.8619527707933 121.38539197558288 L554.831087656827 140.6737535150836 L560.8002225428606 151.37230342537794 L566.7693574288944 155.5482177983455 L572.738492314928 155.31698097039774 L578.7076272009616 152.7940772779461 L584.6767620869953 150.09499105740204 L590.6458969730288 149.33517532791615 L596.6150318590626 151.74165547960962 L602.5841667450961 155.35256491448115 L608.5533016311298 158.5894885466621 L614.5224365171634 161.4917173836644 L620.4915714031971 164.22659882307727 " fill="none" stroke-width="4.4" stroke="rgb(84,112,198)" stroke-opacity="1.0">
          </path>
        </g>
      </g>
      <g transform="translate(21.961210910936405 0.0 ) " clip-path="url(#xXxprefixXx2)" clip-bounds-jfx="[rect (0.0, 0.0), (650.0387890890636, 414.0)]">
        <defs>
          <clipPath id="xXxprefixXx2">
            <rect x="0.0" y="0.0" width="650.0387890890636" height="414.0">
            </rect>
          </clipPath>
        </defs>
        <g>
          <path d="M29.547217685866485 251.4581645349463 L29.547217685866485 251.4581645349463 L35.51635257190014 246.4930319940017 L41.4854874579338 241.52267573482098 L47.45462234396746 236.55035952879393 L53.423757230001115 231.58191519098466 L59.392892116034716 226.6233909585738 L65.36202700206837 221.68063489111145 L71.33116188810203 216.7586501156324 L77.30029677413563 211.86122988411046 L83.26943166016929 206.99040060184512 L89.23856654620295 202.14717860120422 L95.20770143223658 197.3304522931218 L101.17683631827023 192.5317494119465 L107.14597120430386 187.7403348175436 L113.11510609033749 182.94545182121402 L119.08424097637115 178.13632220240038 L125.05337586240478 173.3122794463804 L131.0225107484384 168.52773005276924 L136.99164563447206 163.85569206483137 L142.96078052050572 159.3691752436037 L148.92991540653935 155.14116628902468 L154.89905029257298 151.24462892249443 L160.86818517860664 147.75250415359534 L166.8373200646403 144.7377107580608 L172.80645495067392 142.2731459954943 L178.77558983670758 140.43168659633233 L184.7447247227412 139.28619004797082 L190.71385960877484 138.90939381285256 L196.6829944948085 139.33026352746694 L202.65212938084215 140.46608013996808 L208.62126426687576 142.21655630535815 L214.5903991529094 144.48139732406077 L220.55953403894307 147.16030476115972 L226.52866892497673 150.15298050295152 L232.49780381101033 153.35913124375577 L238.466938697044 156.67847338443215 L244.43607358307764 160.01073831111762 L250.40520846911124 163.2556780086107 L256.3743433551449 166.31307094801934 L262.34347824117856 169.0827281733108 L268.3126131272122 171.46449949693428 L274.2817480132459 173.35827970150757 L280.2508828992795 174.6640146335017 L286.22001778531313 175.28170706675635 L292.18915267134673 175.11142220929966 L298.15828755738045 174.05329272696736 L304.12742244341405 172.00752316217452 L310.0965573294477 168.87439363606853 L316.06569221548136 164.55426273707104 L322.03482710151496 158.94835776921974 L328.0039619875486 152.00341436804246 L333.9730968735823 143.73560758594704 L339.9422317596159 134.16703794849775 L345.91136664564954 124.30324307893378 L351.8805015316832 119.23122850319623 L357.8496364177168 120.87384741963164 L363.81877130375045 124.28349046538153 L369.7879061897841 127.07043878126227 L375.75704107581777 129.1630120436272 L381.72617596185137 130.5400716550672 L387.695310847885 131.18052493824882 L393.6644457339187 131.0633189432033 L399.63358061995234 130.16743424374403 L405.602715505986 128.47187882788472 L411.5718503920196 125.95568217422561 L417.5409852780532 122.59788959195171 L423.5101201640869 118.37755688714259 L429.4792550501205 113.2737454032154 L435.4483899361542 107.26551746909502 L441.41752482218783 100.33193227556913 L447.3866597082215 92.452042188555 L453.3557945942551 83.6048894978683 L459.32492948028874 73.76950359161896 L465.2940643663224 63.34031936356618 L471.263199252356 55.34915932335488 L477.23233413838966 52.31589714591476 L483.2014690244233 53.000418642244995 L489.170603910457 55.60165493071398 L495.1397387964906 58.318514990171735 L501.10887368252423 59.34988514689195 L507.07800856855795 56.894628777075354 L513.0471434545915 49.25043257437153 L519.0162783406251 37.513794656895556 L524.9854132266588 25.907328148393674 L530.9545481126925 18.818181818181756 L536.9236829987261 20.633482337033314 L542.8928178847598 35.4878880573375 L548.8619527707933 58.949748070716964 L554.831087656827 77.35108551918492 L560.8002225428606 87.1525488737457 L566.7693574288944 90.42173004202289 L572.738492314928 89.2745106915956 L578.7076272009616 85.82675469574957 L584.6767620869953 82.19430882681652 L590.6458969730288 80.49297212973681 L596.6150318590626 81.95010029397596 L602.5841667450961 84.6041419671902 L608.5533016311298 86.87698291425761 L614.5224365171634 88.80820124089638 L620.4915714031971 90.56541831445477 L620.4915714031971 237.88777933169973 L614.5224365171634 234.1752335264324 L608.5533016311298 230.30199417906664 L602.5841667450961 226.10098786177207 L596.6150318590626 221.53321066524327 L590.6458969730288 218.17737852609545 L584.6767620869953 217.99567328798753 L578.7076272009616 219.76139986014263 L572.738492314928 221.35945124919988 L566.7693574288944 220.6747055546681 L560.8002225428606 215.59205797701017 L554.831087656827 203.99642151098232 L548.8619527707933 183.8210358804488 L542.8928178847598 158.6061225762113 L536.9236829987261 142.0205680744619 L530.9545481126925 138.49697383082363 L524.9854132266588 143.90167416710108 L519.0162783406251 153.84857831233379 L513.0471434545915 163.95161759410306 L507.07800856855795 169.98930399523795 L501.10887368252423 170.86631013205078 L495.1397387964906 168.2861660573713 L489.170603910457 164.0512712601509 L483.2014690244233 159.9640481794138 L477.23233413838966 157.82694190676062 L471.263199252356 159.44241967331058 L465.2940643663224 166.05203678197958 L459.32492948028874 175.1374013738767 L453.3557945942551 183.6682107876717 L447.3866597082215 191.25158467381402 L441.41752482218783 197.91007882511417 L435.4483899361542 203.66626193608747 L429.4792550501205 208.54271277735134 L423.5101201640869 212.56201694439352 L417.5409852780532 215.74676317083893 L411.5718503920196 218.1195392048048 L405.602715505986 219.7029272570707 L399.63358061995234 220.51949904152173 L393.6644457339187 220.5918104414581 L387.695310847885 219.94239584959368 L381.72617596185137 218.59376224444185 L375.75704107581777 216.56838308073398 L369.7879061897841 213.88869208583645 L363.81877130375045 210.57707706704042 L357.8496364177168 206.70636358510774 L351.8805015316832 204.66730012995902 L345.91136664564954 209.40839920785388 L339.9422317596159 219.00757440036318 L333.9730968735823 228.3784419675452 L328.0039619875486 236.51593391313065 L322.03482710151496 243.39826166830704 L316.06569221548136 249.00940075879922 L310.0965573294477 253.40260294498 L304.12742244341405 256.67646528779125 L298.15828755738045 258.93029263488614 L292.18915267134673 260.2633113666434 L286.22001778531313 260.7746722847097 L280.2508828992795 260.5634543141522 L274.2817480132459 259.7286689222304 L268.3126131272122 258.36926514201554 L262.34347824117856 256.58413507921006 L256.3743433551449 254.47211977566334 L250.40520846911124 252.1320153030559 L244.43607358307764 249.66257896458657 L238.466938697044 247.1625354905947 L232.49780381101033 244.7305831251103 L226.52866892497673 242.46539951350178 L220.55953403894307 240.4656473158603 L214.5903991529094 238.8299794857369 L208.62126426687576 237.65704416865964 L202.65212938084215 237.04548918894366 L196.6829944948085 237.09396610624412 L190.71385960877484 237.90113383479465 L184.7447247227412 239.54810407433405 L178.77558983670758 242.00433043750562 L172.80645495067392 245.19552602306524 L166.8373200646403 249.04731916108156 L160.86818517860664 253.48535742466362 L154.89905029257298 258.43530891608754 L148.92991540653935 263.8228632537593 L142.96078052050572 269.5737322899339 L136.99164563447206 275.61365058868415 L131.0225107484384 281.86837569262104 L125.05337586240478 288.26368820545406 L119.08424097637115 294.72540641842255 L113.11510609033749 301.1980057131436 L107.14597120430386 307.6810793816599 L101.17683631827023 314.18437647862106 L95.20770143223658 320.7176675905347 L89.23856654620295 327.290743703349 L83.26943166016929 333.91117366558467 L77.30029677413563 340.5792051040374 L71.33116188810203 347.29299584631 L65.36202700206837 354.0497304041969 L59.392892116034716 360.8448618176227 L53.423757230001115 367.6726672396767 L47.45462234396746 374.526611499155 L41.4854874579338 381.3999904909903 L35.51635257190014 388.28634643443036 L29.547217685866485 395.18181818181813 Z" fill="rgb(71,71,71)" stroke-width="1.0" fill-opacity="0.10196078431372549">
          </path>
        </g>
        <g>
          <path d="M29.547217685866485 251.4581645349463 L29.547217685866485 251.4581645349463 L35.51635257190014 246.4930319940017 L41.4854874579338 241.52267573482098 L47.45462234396746 236.55035952879393 L53.423757230001115 231.58191519098466 L59.392892116034716 226.6233909585738 L65.36202700206837 221.68063489111145 L71.33116188810203 216.7586501156324 L77.30029677413563 211.86122988411046 L83.26943166016929 206.99040060184512 L89.23856654620295 202.14717860120422 L95.20770143223658 197.3304522931218 L101.17683631827023 192.5317494119465 L107.14597120430386 187.7403348175436 L113.11510609033749 182.94545182121402 L119.08424097637115 178.13632220240038 L125.05337586240478 173.3122794463804 L131.0225107484384 168.52773005276924 L136.99164563447206 163.85569206483137 L142.96078052050572 159.3691752436037 L148.92991540653935 155.14116628902468 L154.89905029257298 151.24462892249443 L160.86818517860664 147.75250415359534 L166.8373200646403 144.7377107580608 L172.80645495067392 142.2731459954943 L178.77558983670758 140.43168659633233 L184.7447247227412 139.28619004797082 L190.71385960877484 138.90939381285256 L196.6829944948085 139.33026352746694 L202.65212938084215 140.46608013996808 L208.62126426687576 142.21655630535815 L214.5903991529094 144.48139732406077 L220.55953403894307 147.16030476115972 L226.52866892497673 150.15298050295152 L232.49780381101033 153.35913124375577 L238.466938697044 156.67847338443215 L244.43607358307764 160.01073831111762 L250.40520846911124 163.2556780086107 L256.3743433551449 166.31307094801934 L262.34347824117856 169.0827281733108 L268.3126131272122 171.46449949693428 L274.2817480132459 173.35827970150757 L280.2508828992795 174.6640146335017 L286.22001778531313 175.28170706675635 L292.18915267134673 175.11142220929966 L298.15828755738045 174.05329272696736 L304.12742244341405 172.00752316217452 L310.0965573294477 168.87439363606853 L316.06569221548136 164.55426273707104 L322.03482710151496 158.94835776921974 L328.0039619875486 152.00341436804246 L333.9730968735823 143.73560758594704 L339.9422317596159 134.16703794849775 L345.91136664564954 124.30324307893378 L351.8805015316832 119.23122850319623 L357.8496364177168 120.87384741963164 L363.81877130375045 124.28349046538153 L369.7879061897841 127.07043878126227 L375.75704107581777 129.1630120436272 L381.72617596185137 130.5400716550672 L387.695310847885 131.18052493824882 L393.6644457339187 131.0633189432033 L399.63358061995234 130.16743424374403 L405.602715505986 128.47187882788472 L411.5718503920196 125.95568217422561 L417.5409852780532 122.59788959195171 L423.5101201640869 118.37755688714259 L429.4792550501205 113.2737454032154 L435.4483899361542 107.26551746909502 L441.41752482218783 100.33193227556913 L447.3866597082215 92.452042188555 L453.3557945942551 83.6048894978683 L459.32492948028874 73.76950359161896 L465.2940643663224 63.34031936356618 L471.263199252356 55.34915932335488 L477.23233413838966 52.31589714591476 L483.2014690244233 53.000418642244995 L489.170603910457 55.60165493071398 L495.1397387964906 58.318514990171735 L501.10887368252423 59.34988514689195 L507.07800856855795 56.894628777075354 L513.0471434545915 49.25043257437153 L519.0162783406251 37.513794656895556 L524.9854132266588 25.907328148393674 L530.9545481126925 18.818181818181756 L536.9236829987261 20.633482337033314 L542.8928178847598 35.4878880573375 L548.8619527707933 58.949748070716964 L554.831087656827 77.35108551918492 L560.8002225428606 87.1525488737457 L566.7693574288944 90.42173004202289 L572.738492314928 89.2745106915956 L578.7076272009616 85.82675469574957 L584.6767620869953 82.19430882681652 L590.6458969730288 80.49297212973681 L596.6150318590626 81.95010029397596 L602.5841667450961 84.6041419671902 L608.5533016311298 86.87698291425761 L614.5224365171634 88.80820124089638 L620.4915714031971 90.56541831445477 " fill="none" stroke-width="0.0" stroke="rgb(71,71,71)" stroke-opacity="1.0">
          </path>
        </g>
        <g>
          <path d="M29.547217685866485 395.18181818181813 L29.547217685866485 395.18181818181813 L35.51635257190014 388.28634643443036 L41.4854874579338 381.3999904909903 L47.45462234396746 374.526611499155 L53.423757230001115 367.6726672396767 L59.392892116034716 360.8448618176227 L65.36202700206837 354.0497304041969 L71.33116188810203 347.29299584631 L77.30029677413563 340.5792051040374 L83.26943166016929 333.91117366558467 L89.23856654620295 327.290743703349 L95.20770143223658 320.7176675905347 L101.17683631827023 314.18437647862106 L107.14597120430386 307.6810793816599 L113.11510609033749 301.1980057131436 L119.08424097637115 294.72540641842255 L125.05337586240478 288.26368820545406 L131.0225107484384 281.86837569262104 L136.99164563447206 275.61365058868415 L142.96078052050572 269.5737322899339 L148.92991540653935 263.8228632537593 L154.89905029257298 258.43530891608754 L160.86818517860664 253.48535742466362 L166.8373200646403 249.04731916108156 L172.80645495067392 245.19552602306524 L178.77558983670758 242.00433043750562 L184.7447247227412 239.54810407433405 L190.71385960877484 237.90113383479465 L196.6829944948085 237.09396610624412 L202.65212938084215 237.04548918894366 L208.62126426687576 237.65704416865964 L214.5903991529094 238.8299794857369 L220.55953403894307 240.4656473158603 L226.52866892497673 242.46539951350178 L232.49780381101033 244.7305831251103 L238.466938697044 247.1625354905947 L244.43607358307764 249.66257896458657 L250.40520846911124 252.1320153030559 L256.3743433551449 254.47211977566334 L262.34347824117856 256.58413507921006 L268.3126131272122 258.36926514201554 L274.2817480132459 259.7286689222304 L280.2508828992795 260.5634543141522 L286.22001778531313 260.7746722847097 L292.18915267134673 260.2633113666434 L298.15828755738045 258.93029263488614 L304.12742244341405 256.67646528779125 L310.0965573294477 253.40260294498 L316.06569221548136 249.00940075879922 L322.03482710151496 243.39826166830704 L328.0039619875486 236.51593391313065 L333.9730968735823 228.3784419675452 L339.9422317596159 219.00757440036318 L345.91136664564954 209.40839920785388 L351.8805015316832 204.66730012995902 L357.8496364177168 206.70636358510774 L363.81877130375045 210.57707706704042 L369.7879061897841 213.88869208583645 L375.75704107581777 216.56838308073398 L381.72617596185137 218.59376224444185 L387.695310847885 219.94239584959368 L393.6644457339187 220.5918104414581 L399.63358061995234 220.51949904152173 L405.602715505986 219.7029272570707 L411.5718503920196 218.1195392048048 L417.5409852780532 215.74676317083893 L423.5101201640869 212.56201694439352 L429.4792550501205 208.54271277735134 L435.4483899361542 203.66626193608747 L441.41752482218783 197.91007882511417 L447.3866597082215 191.25158467381402 L453.3557945942551 183.6682107876717 L459.32492948028874 175.1374013738767 L465.2940643663224 166.05203678197958 L471.263199252356 159.44241967331058 L477.23233413838966 157.82694190676062 L483.2014690244233 159.9640481794138 L489.170603910457 164.0512712601509 L495.1397387964906 168.2861660573713 L501.10887368252423 170.86631013205078 L507.07800856855795 169.98930399523795 L513.0471434545915 163.95161759410306 L519.0162783406251 153.84857831233379 L524.9854132266588 143.90167416710108 L530.9545481126925 138.49697383082363 L536.9236829987261 142.0205680744619 L542.8928178847598 158.6061225762113 L548.8619527707933 183.8210358804488 L554.831087656827 203.99642151098232 L560.8002225428606 215.59205797701017 L566.7693574288944 220.6747055546681 L572.738492314928 221.35945124919988 L578.7076272009616 219.76139986014263 L584.6767620869953 217.99567328798753 L590.6458969730288 218.17737852609545 L596.6150318590626 221.53321066524327 L602.5841667450961 226.10098786177207 L608.5533016311298 230.30199417906664 L614.5224365171634 234.1752335264324 L620.4915714031971 237.88777933169973 " fill="none" stroke-width="0.0" stroke="rgb(71,71,71)" stroke-opacity="1.0">
          </path>
        </g>
      </g>
    </g>
    <g transform="translate(14.5 217.0 ) rotate(-90.0 ) ">
      <text class="axis-title-y" y="0.0" text-anchor="middle">
      y
      </text>
    </g>
    <g transform="translate(369.9806054554682 461.5 ) ">
      <text class="axis-title-x" y="0.0" text-anchor="middle">
      x
      </text>
    </g>
    <path fill="rgb(0,0,0)" fill-opacity="0.0" stroke="rgb(71,71,71)" stroke-opacity="1.0" stroke-width="0.0" d="M0.0 0.0 L0.0 470.0 L705.0 470.0 L705.0 0.0 Z">
    </path>
  </g>
  <g id="xXxprefixXx3">
  </g>
</svg>