<svg xmlns="http://www.w3.org/2000/svg" xmlns:xlink="http://www.w3.org/1999/xlink" class="plt-container" width="705.0" height="470.0">
  <style type="text/css">
  .plt-container {
   font-family: Lucida Grande, sans-serif;
   user-select: none;
   -webkit-user-select: none;
   -moz-user-select: none;
   -ms-user-select: none;
}
text {
   text-rendering: optimizeLegibility;
}
#xXxprefixXx0 .plot-title {
   fill: #bbbbbb;
   font-family: Lucida Grande, sans-serif;
   font-size: 16.0px;
   font-weight: normal;
   font-style: normal;   
}
#xXxprefixXx0 .plot-subtitle {
   fill: #bbbbbb;
   font-family: Lucida Grande, sans-serif;
   font-size: 15.0px;
   font-weight: normal;
   font-style: normal;   
}
#xXxprefixXx0 .plot-caption {
   fill: #bbbbbb;
   font-family: Lucida Grande, sans-serif;
   font-size: 13.0px;
   font-weight: normal;
   font-style: normal;   
}
#xXxprefixXx0 .legend-title {
   fill: #bbbbbb;
   font-family: Lucida Grande, sans-serif;
   font-size: 15.0px;
   font-weight: normal;
   font-style: normal;   
}
#xXxprefixXx0 .legend-item {
   fill: #bbbbbb;
   font-family: Lucida Grande, sans-serif;
   font-size: 13.0px;
   font-weight: normal;
   font-style: normal;   
}
#xXxprefixXx0 .axis-title-x {
   fill: #bbbbbb;
   font-family: Lucida Grande, sans-serif;
   font-size: 15.0px;
   font-weight: normal;
   font-style: normal;   
}
#xXxprefixXx0 .axis-text-x {
   fill: #bbbbbb;
   font-family: Lucida Grande, sans-serif;
   font-size: 13.0px;
   font-weight: normal;
   font-style: normal;   
}
#xXxprefixXx3 .axis-tooltip-text-x {
   fill: #303030;
   font-family: Lucida Grande, sans-serif;
   font-size: 13.0px;
   font-weight: normal;
   font-style: normal;   
}
#xXxprefixXx0 .axis-title-y {
   fill: #bbbbbb;
   font-family: Lucida Grande, sans-serif;
   font-size: 15.0px;
   font-weight: normal;
   font-style: normal;   
}
#xXxprefixXx0 .axis-text-y {
   fill: #bbbbbb;
   font-family: Lucida Grande, sans-serif;
   font-size: 13.0px;
   font-weight: normal;
   font-style: normal;   
}
#xXxprefixXx3 .axis-tooltip-text-y {
   fill: #303030;
   font-family: Lucida Grande, sans-serif;
   font-size: 13.0px;
   font-weight: normal;
   font-style: normal;   
}
#xXxprefixXx0 .facet-strip-text-x {
   fill: #bbbbbb;
   font-family: Lucida Grande, sans-serif;
   font-size: 13.0px;
   font-weight: normal;
   font-style: normal;   
}
#xXxprefixXx0 .facet-strip-text-y {
   fill: #bbbbbb;
   font-family: Lucida Grande, sans-serif;
   font-size: 13.0px;
   font-weight: normal;
   font-style: normal;   
}
#xXxprefixXx3 .tooltip-text {
   fill: #bbbbbb;
   font-family: Lucida Grande, sans-serif;
   font-size: 13.0px;
   font-weight: normal;
   font-style: normal;   
}
#xXxprefixXx3 .tooltip-title {
   fill: #bbbbbb;
   font-family: Lucida Grande, sans-serif;
   font-size: 13.0px;
   font-weight: bold;
   font-style: normal;   
}
#xXxprefixXx3 .tooltip-label {
   fill: #bbbbbb;
   font-family: Lucida Grande, sans-serif;
   font-size: 13.0px;
   font-weight: bold;
   font-style: normal;   
}

  </style>
  <g id="xXxprefixXx0">
    <path fill-rule="evenodd" fill="rgb(25,25,28)" fill-opacity="1.0" d="M0.0 0.0 L0.0 470.0 L705.0 470.0 L705.0 0.0 Z">
    </path>
    <g transform="translate(23.0 10.0 ) ">
      <g transform="translate(27.034701220281416 414.0 ) ">
        <line x1="26.35533130918043" y1="-0.0" x2="26.35533130918043" y2="-414.0" stroke="rgb(71,71,71)" stroke-opacity="1.0" stroke-width="1.0">
        </line>
        <line x1="100.38716082935014" y1="-0.0" x2="100.38716082935014" y2="-414.0" stroke="rgb(71,71,71)" stroke-opacity="1.0" stroke-width="1.0">
        </line>
        <line x1="174.41899034951987" y1="-0.0" x2="174.41899034951987" y2="-414.0" stroke="rgb(71,71,71)" stroke-opacity="1.0" stroke-width="1.0">
        </line>
        <line x1="248.4508198696896" y1="-0.0" x2="248.4508198696896" y2="-414.0" stroke="rgb(71,71,71)" stroke-opacity="1.0" stroke-width="1.0">
        </line>
        <line x1="322.4826493898593" y1="-0.0" x2="322.4826493898593" y2="-414.0" stroke="rgb(71,71,71)" stroke-opacity="1.0" stroke-width="1.0">
        </line>
        <line x1="396.514478910029" y1="-0.0" x2="396.514478910029" y2="-414.0" stroke="rgb(71,71,71)" stroke-opacity="1.0" stroke-width="1.0">
        </line>
        <line x1="470.5463084301988" y1="-0.0" x2="470.5463084301988" y2="-414.0" stroke="rgb(71,71,71)" stroke-opacity="1.0" stroke-width="1.0">
        </line>
        <line x1="544.5781379503685" y1="-0.0" x2="544.5781379503685" y2="-414.0" stroke="rgb(71,71,71)" stroke-opacity="1.0" stroke-width="1.0">
        </line>
        <line x1="618.6099674705382" y1="-0.0" x2="618.6099674705382" y2="-414.0" stroke="rgb(71,71,71)" stroke-opacity="1.0" stroke-width="1.0">
        </line>
        <g transform="translate(26.35533130918043 0.0 ) ">
          <line stroke-width="1.0" stroke="rgb(187,187,187)" stroke-opacity="1.0" x2="0.0" y2="4.0">
          </line>
          <g transform="translate(0.0 7.0 ) ">
            <text class="axis-text-x" text-anchor="middle" dy="0.7em">
            -2.0
            </text>
          </g>
        </g>
        <g transform="translate(100.38716082935014 0.0 ) ">
          <line stroke-width="1.0" stroke="rgb(187,187,187)" stroke-opacity="1.0" x2="0.0" y2="4.0">
          </line>
          <g transform="translate(0.0 7.0 ) ">
            <text class="axis-text-x" text-anchor="middle" dy="0.7em">
            -1.5
            </text>
          </g>
        </g>
        <g transform="translate(174.41899034951987 0.0 ) ">
          <line stroke-width="1.0" stroke="rgb(187,187,187)" stroke-opacity="1.0" x2="0.0" y2="4.0">
          </line>
          <g transform="translate(0.0 7.0 ) ">
            <text class="axis-text-x" text-anchor="middle" dy="0.7em">
            -1.0
            </text>
          </g>
        </g>
        <g transform="translate(248.4508198696896 0.0 ) ">
          <line stroke-width="1.0" stroke="rgb(187,187,187)" stroke-opacity="1.0" x2="0.0" y2="4.0">
          </line>
          <g transform="translate(0.0 7.0 ) ">
            <text class="axis-text-x" text-anchor="middle" dy="0.7em">
            -0.5
            </text>
          </g>
        </g>
        <g transform="translate(322.4826493898593 0.0 ) ">
          <line stroke-width="1.0" stroke="rgb(187,187,187)" stroke-opacity="1.0" x2="0.0" y2="4.0">
          </line>
          <g transform="translate(0.0 7.0 ) ">
            <text class="axis-text-x" text-anchor="middle" dy="0.7em">
            0.0
            </text>
          </g>
        </g>
        <g transform="translate(396.514478910029 0.0 ) ">
          <line stroke-width="1.0" stroke="rgb(187,187,187)" stroke-opacity="1.0" x2="0.0" y2="4.0">
          </line>
          <g transform="translate(0.0 7.0 ) ">
            <text class="axis-text-x" text-anchor="middle" dy="0.7em">
            0.5
            </text>
          </g>
        </g>
        <g transform="translate(470.5463084301988 0.0 ) ">
          <line stroke-width="1.0" stroke="rgb(187,187,187)" stroke-opacity="1.0" x2="0.0" y2="4.0">
          </line>
          <g transform="translate(0.0 7.0 ) ">
            <text class="axis-text-x" text-anchor="middle" dy="0.7em">
            1.0
            </text>
          </g>
        </g>
        <g transform="translate(544.5781379503685 0.0 ) ">
          <line stroke-width="1.0" stroke="rgb(187,187,187)" stroke-opacity="1.0" x2="0.0" y2="4.0">
          </line>
          <g transform="translate(0.0 7.0 ) ">
            <text class="axis-text-x" text-anchor="middle" dy="0.7em">
            1.5
            </text>
          </g>
        </g>
        <g transform="translate(618.6099674705382 0.0 ) ">
          <line stroke-width="1.0" stroke="rgb(187,187,187)" stroke-opacity="1.0" x2="0.0" y2="4.0">
          </line>
          <g transform="translate(0.0 7.0 ) ">
            <text class="axis-text-x" text-anchor="middle" dy="0.7em">
            2.0
            </text>
          </g>
        </g>
        <line x1="0.0" y1="0.0" x2="644.9652987797186" y2="0.0" stroke-width="1.0" stroke="rgb(187,187,187)" stroke-opacity="1.0">
        </line>
      </g>
      <g transform="translate(27.034701220281416 0.0 ) ">
        <line x1="0.0" y1="367.14235873721384" x2="644.9652987797186" y2="367.14235873721384" stroke="rgb(71,71,71)" stroke-opacity="1.0" stroke-width="1.0">
        </line>
        <line x1="0.0" y1="320.2847174744276" x2="644.9652987797186" y2="320.2847174744276" stroke="rgb(71,71,71)" stroke-opacity="1.0" stroke-width="1.0">
        </line>
        <line x1="0.0" y1="273.42707621164146" x2="644.9652987797186" y2="273.42707621164146" stroke="rgb(71,71,71)" stroke-opacity="1.0" stroke-width="1.0">
        </line>
        <line x1="0.0" y1="226.56943494885527" x2="644.9652987797186" y2="226.56943494885527" stroke="rgb(71,71,71)" stroke-opacity="1.0" stroke-width="1.0">
        </line>
        <line x1="0.0" y1="179.7117936860691" x2="644.9652987797186" y2="179.7117936860691" stroke="rgb(71,71,71)" stroke-opacity="1.0" stroke-width="1.0">
        </line>
        <line x1="0.0" y1="132.85415242328293" x2="644.9652987797186" y2="132.85415242328293" stroke="rgb(71,71,71)" stroke-opacity="1.0" stroke-width="1.0">
        </line>
        <line x1="0.0" y1="85.99651116049671" x2="644.9652987797186" y2="85.99651116049671" stroke="rgb(71,71,71)" stroke-opacity="1.0" stroke-width="1.0">
        </line>
        <line x1="0.0" y1="39.13886989771055" x2="644.9652987797186" y2="39.13886989771055" stroke="rgb(71,71,71)" stroke-opacity="1.0" stroke-width="1.0">
        </line>
        <g transform="translate(0.0 414.0 ) ">
          <g transform="translate(-3.0 0.0 ) ">
            <text class="axis-text-y" text-anchor="end" dy="0.35em">
            0.0
            </text>
          </g>
        </g>
        <g transform="translate(0.0 367.14235873721384 ) ">
          <g transform="translate(-3.0 0.0 ) ">
            <text class="axis-text-y" text-anchor="end" dy="0.35em">
            0.5
            </text>
          </g>
        </g>
        <g transform="translate(0.0 320.2847174744276 ) ">
          <g transform="translate(-3.0 0.0 ) ">
            <text class="axis-text-y" text-anchor="end" dy="0.35em">
            1.0
            </text>
          </g>
        </g>
        <g transform="translate(0.0 273.42707621164146 ) ">
          <g transform="translate(-3.0 0.0 ) ">
            <text class="axis-text-y" text-anchor="end" dy="0.35em">
            1.5
            </text>
          </g>
        </g>
        <g transform="translate(0.0 226.56943494885527 ) ">
          <g transform="translate(-3.0 0.0 ) ">
            <text class="axis-text-y" text-anchor="end" dy="0.35em">
            2.0
            </text>
          </g>
        </g>
        <g transform="translate(0.0 179.7117936860691 ) ">
          <g transform="translate(-3.0 0.0 ) ">
            <text class="axis-text-y" text-anchor="end" dy="0.35em">
            2.5
            </text>
          </g>
        </g>
        <g transform="translate(0.0 132.85415242328293 ) ">
          <g transform="translate(-3.0 0.0 ) ">
            <text class="axis-text-y" text-anchor="end" dy="0.35em">
            3.0
            </text>
          </g>
        </g>
        <g transform="translate(0.0 85.99651116049671 ) ">
          <g transform="translate(-3.0 0.0 ) ">
            <text class="axis-text-y" text-anchor="end" dy="0.35em">
            3.5
            </text>
          </g>
        </g>
        <g transform="translate(0.0 39.13886989771055 ) ">
          <g transform="translate(-3.0 0.0 ) ">
            <text class="axis-text-y" text-anchor="end" dy="0.35em">
            4.0
            </text>
          </g>
        </g>
      </g>
      <g transform="translate(27.034701220281416 0.0 ) " clip-path="url(#xXxprefixXx1)" clip-bounds-jfx="[rect (0.0, 0.0), (644.9652987797186, 414.0)]">
        <defs>
          <clipPath id="xXxprefixXx1">
            <rect x="0.0" y="0.0" width="644.9652987797186" height="414.0">
            </rect>
          </clipPath>
        </defs>
        <g>
          <path d="M29.316604489987242 392.25004034278766 L29.316604489987242 392.25004034278766 L35.23915085160081 387.7666364165836 L41.16169721321438 383.2381398047979 L47.08424357482795 378.65408194870497 L53.00678993644152 374.01591623422297 L58.92933629805509 369.3231111612996 L64.85188265966866 364.5751812492989 L70.77442902128226 359.7710190198936 L76.69697538289586 354.9098521171744 L82.6195217445094 349.9909866766959 L88.542068106123 345.0136462007173 L94.46461446773657 339.9769847696357 L100.38716082935014 334.880147036824 L106.30970719096374 329.722142182088 L112.2322535525773 324.50210628655077 L118.1547999141909 319.2194433236681 L124.07734627580447 313.873569193027 L129.99989263741807 308.46433892837547 L135.9224389990316 302.99262454258326 L141.8449853606452 297.4581086446163 L147.76753172225878 291.8628941571709 L153.69007808387232 286.2796725915424 L159.61262444548592 280.8300897613327 L165.5351708070995 275.1790491919002 L171.4577171687131 268.96388894760753 L177.38026353032666 261.88402235340175 L183.30280989194026 254.81871538720205 L189.22535625355383 246.31436778594704 L195.14790261516742 237.04067110163757 L201.07044897678097 228.73346492917614 L206.99299533839456 220.5235624219045 L212.91554170000813 210.8008985741088 L218.8380880616217 198.45220034409388 L224.7606344232353 184.37214435462616 L230.6831807848489 169.95739464458745 L236.60572714646247 156.60461525285945 L242.528273508076 145.71047021832408 L248.4508198696896 138.67162357986297 L254.37336623130318 136.88473937635797 L260.29591259291675 141.74648164669082 L266.2184589545303 147.42337881792503 L272.14100531614395 145.69237772626207 L278.06355167775746 142.26888935269136 L283.9860980393711 136.9555391059577 L289.90864440098466 135.05710646889628 L295.8311907625982 133.4527703291697 L301.7537371242118 133.27280471586198 L307.67628348582537 134.16815192605338 L313.59882984743894 134.79345303694544 L319.5213762090525 137.5812377425184 L325.44392257066613 144.96403573675246 L331.3664689322797 134.51891977264592 L337.28901529389327 137.22784504055045 L343.21156165550684 141.40775724824834 L349.13410801712047 144.48399745293415 L355.05665437873404 148.609967646805 L360.9792007403476 154.44836223397112 L366.9017471019612 161.0219323353074 L372.8242934635747 167.282127189809 L378.7468398251883 170.48007519350693 L384.6693861868019 165.3723774108288 L390.59193254841546 162.24233822425666 L396.514478910029 170.29200282782736 L402.4370252716426 180.18742412389327 L408.3595716332562 189.2709142785669 L414.2821179948698 197.90085408107566 L420.20466435648336 206.45866237108413 L426.127210718097 215.47901906637287 L432.04975707971056 224.5779120643996 L437.97230344132413 233.62716090426323 L443.8948498029377 242.1943025741142 L449.8173961645512 250.6563490542602 L455.7399425261648 258.9576382653587 L461.6624888877784 266.8743056840871 L467.585035249392 274.192552085801 L473.50758161100555 280.93008011545544 L479.4301279726192 287.36922626178335 L485.3526743342327 293.3274248475388 L491.2752206958463 298.5737180463541 L497.1977670574599 303.59777337566373 L503.12031341907345 308.50446261078395 L509.0428597806871 313.34109831226897 L514.9654061423006 318.1352893377444 L520.8879525039142 322.8944136423976 L526.8104988655277 327.6230104761522 L532.7330452271414 332.32438069980094 L538.6555915887549 336.99722144124235 L544.5781379503685 341.6401396003667 L550.500684311982 346.2511677307042 L556.4232306735956 350.8281803050016 L562.3457770352093 355.36915912817034 L568.2683233968228 359.8724984151233 L574.1908697584364 364.3366954832734 L580.11341612005 368.76024765003365 L586.0359624816635 373.14185766578635 L591.9585088432772 377.481050012791 L597.8810552048907 381.77755460627634 L603.8036015665043 386.03037188318456 L609.7261479281178 390.2326664037812 L615.6486942897313 394.40459322340683 L615.6486942897313 414.0 L609.7261479281178 414.0 L603.8036015665043 414.0 L597.8810552048907 414.0 L591.9585088432772 414.0 L586.0359624816635 414.0 L580.11341612005 414.0 L574.1908697584364 414.0 L568.2683233968228 414.0 L562.3457770352093 414.0 L556.4232306735956 414.0 L550.500684311982 414.0 L544.5781379503685 414.0 L538.6555915887549 414.0 L532.7330452271414 414.0 L526.8104988655277 414.0 L520.8879525039142 414.0 L514.9654061423006 414.0 L509.0428597806871 414.0 L503.12031341907345 414.0 L497.1977670574599 414.0 L491.2752206958463 414.0 L485.3526743342327 414.0 L479.4301279726192 414.0 L473.50758161100555 414.0 L467.585035249392 414.0 L461.6624888877784 414.0 L455.7399425261648 414.0 L449.8173961645512 414.0 L443.8948498029377 414.0 L437.97230344132413 414.0 L432.04975707971056 414.0 L426.127210718097 414.0 L420.20466435648336 414.0 L414.2821179948698 414.0 L408.3595716332562 414.0 L402.4370252716426 414.0 L396.514478910029 414.0 L390.59193254841546 414.0 L384.6693861868019 414.0 L378.7468398251883 414.0 L372.8242934635747 414.0 L366.9017471019612 414.0 L360.9792007403476 414.0 L355.05665437873404 414.0 L349.13410801712047 414.0 L343.21156165550684 414.0 L337.28901529389327 414.0 L331.3664689322797 414.0 L325.44392257066613 414.0 L319.5213762090525 414.0 L313.59882984743894 414.0 L307.67628348582537 414.0 L301.7537371242118 414.0 L295.8311907625982 414.0 L289.90864440098466 414.0 L283.9860980393711 414.0 L278.06355167775746 414.0 L272.14100531614395 414.0 L266.2184589545303 414.0 L260.29591259291675 414.0 L254.37336623130318 414.0 L248.4508198696896 414.0 L242.528273508076 414.0 L236.60572714646247 414.0 L230.6831807848489 414.0 L224.7606344232353 414.0 L218.8380880616217 414.0 L212.91554170000813 414.0 L206.99299533839456 414.0 L201.07044897678097 414.0 L195.14790261516742 414.0 L189.22535625355383 414.0 L183.30280989194026 414.0 L177.38026353032666 414.0 L171.4577171687131 414.0 L165.5351708070995 414.0 L159.61262444548592 414.0 L153.69007808387232 414.0 L147.76753172225878 414.0 L141.8449853606452 414.0 L135.9224389990316 414.0 L129.99989263741807 414.0 L124.07734627580447 414.0 L118.1547999141909 414.0 L112.2322535525773 414.0 L106.30970719096374 414.0 L100.38716082935014 414.0 L94.46461446773657 414.0 L88.542068106123 414.0 L82.6195217445094 414.0 L76.69697538289586 414.0 L70.77442902128226 414.0 L64.85188265966866 414.0 L58.92933629805509 414.0 L53.00678993644152 414.0 L47.08424357482795 414.0 L41.16169721321438 414.0 L35.23915085160081 414.0 L29.316604489987242 414.0 Z" fill="rgb(187,187,187)" stroke-width="1.0" fill-opacity="0.10196078431372549">
          </path>
        </g>
        <g>
          <path d="M29.316604489987242 392.25004034278766 L29.316604489987242 392.25004034278766 L35.23915085160081 387.7666364165836 L41.16169721321438 383.2381398047979 L47.08424357482795 378.65408194870497 L53.00678993644152 374.01591623422297 L58.92933629805509 369.3231111612996 L64.85188265966866 364.5751812492989 L70.77442902128226 359.7710190198936 L76.69697538289586 354.9098521171744 L82.6195217445094 349.9909866766959 L88.542068106123 345.0136462007173 L94.46461446773657 339.9769847696357 L100.38716082935014 334.880147036824 L106.30970719096374 329.722142182088 L112.2322535525773 324.50210628655077 L118.1547999141909 319.2194433236681 L124.07734627580447 313.873569193027 L129.99989263741807 308.46433892837547 L135.9224389990316 302.99262454258326 L141.8449853606452 297.4581086446163 L147.76753172225878 291.8628941571709 L153.69007808387232 286.2796725915424 L159.61262444548592 280.8300897613327 L165.5351708070995 275.1790491919002 L171.4577171687131 268.96388894760753 L177.38026353032666 261.88402235340175 L183.30280989194026 254.81871538720205 L189.22535625355383 246.31436778594704 L195.14790261516742 237.04067110163757 L201.07044897678097 228.73346492917614 L206.99299533839456 220.5235624219045 L212.91554170000813 210.8008985741088 L218.8380880616217 198.45220034409388 L224.7606344232353 184.37214435462616 L230.6831807848489 169.95739464458745 L236.60572714646247 156.60461525285945 L242.528273508076 145.71047021832408 L248.4508198696896 138.67162357986297 L254.37336623130318 136.88473937635797 L260.29591259291675 141.74648164669082 L266.2184589545303 147.42337881792503 L272.14100531614395 145.69237772626207 L278.06355167775746 142.26888935269136 L283.9860980393711 136.9555391059577 L289.90864440098466 135.05710646889628 L295.8311907625982 133.4527703291697 L301.7537371242118 133.27280471586198 L307.67628348582537 134.16815192605338 L313.59882984743894 134.79345303694544 L319.5213762090525 137.5812377425184 L325.44392257066613 144.96403573675246 L331.3664689322797 134.51891977264592 L337.28901529389327 137.22784504055045 L343.21156165550684 141.40775724824834 L349.13410801712047 144.48399745293415 L355.05665437873404 148.609967646805 L360.9792007403476 154.44836223397112 L366.9017471019612 161.0219323353074 L372.8242934635747 167.282127189809 L378.7468398251883 170.48007519350693 L384.6693861868019 165.3723774108288 L390.59193254841546 162.24233822425666 L396.514478910029 170.29200282782736 L402.4370252716426 180.18742412389327 L408.3595716332562 189.2709142785669 L414.2821179948698 197.90085408107566 L420.20466435648336 206.45866237108413 L426.127210718097 215.47901906637287 L432.04975707971056 224.5779120643996 L437.97230344132413 233.62716090426323 L443.8948498029377 242.1943025741142 L449.8173961645512 250.6563490542602 L455.7399425261648 258.9576382653587 L461.6624888877784 266.8743056840871 L467.585035249392 274.192552085801 L473.50758161100555 280.93008011545544 L479.4301279726192 287.36922626178335 L485.3526743342327 293.3274248475388 L491.2752206958463 298.5737180463541 L497.1977670574599 303.59777337566373 L503.12031341907345 308.50446261078395 L509.0428597806871 313.34109831226897 L514.9654061423006 318.1352893377444 L520.8879525039142 322.8944136423976 L526.8104988655277 327.6230104761522 L532.7330452271414 332.32438069980094 L538.6555915887549 336.99722144124235 L544.5781379503685 341.6401396003667 L550.500684311982 346.2511677307042 L556.4232306735956 350.8281803050016 L562.3457770352093 355.36915912817034 L568.2683233968228 359.8724984151233 L574.1908697584364 364.3366954832734 L580.11341612005 368.76024765003365 L586.0359624816635 373.14185766578635 L591.9585088432772 377.481050012791 L597.8810552048907 381.77755460627634 L603.8036015665043 386.03037188318456 L609.7261479281178 390.2326664037812 L615.6486942897313 394.40459322340683 " fill="none" stroke-width="1.6500000000000001" stroke="rgb(187,187,187)" stroke-opacity="1.0">
          </path>
        </g>
      </g>
      <g transform="translate(27.034701220281416 0.0 ) " clip-path="url(#xXxprefixXx2)" clip-bounds-jfx="[rect (0.0, 0.0), (644.9652987797186, 414.0)]">
        <defs>
          <clipPath id="xXxprefixXx2">
            <rect x="0.0" y="0.0" width="644.9652987797186" height="414.0">
            </rect>
          </clipPath>
        </defs>
        <g>
          
          <g >
            <circle fill="#bbbbbb" stroke="#bbbbbb" stroke-opacity="0.0" stroke-width="0.0" cx="29.316604489987242" cy="371.6310927727068" r="3.3000000000000003" />
            <circle fill="#bbbbbb" stroke="#bbbbbb" stroke-opacity="0.0" stroke-width="0.0" cx="38.20042403240757" cy="362.8870262554433" r="3.3000000000000003" />
            <circle fill="#bbbbbb" stroke="#bbbbbb" stroke-opacity="0.0" stroke-width="0.0" cx="41.16169721321438" cy="354.1337797515277" r="3.3000000000000003" />
            <circle fill="#bbbbbb" stroke="#bbbbbb" stroke-opacity="0.0" stroke-width="0.0" cx="44.122970394021195" cy="363.2603708966601" r="3.3000000000000003" />
            <circle fill="#bbbbbb" stroke="#bbbbbb" stroke-opacity="0.0" stroke-width="0.0" cx="58.92933629805509" cy="386.11858360459604" r="3.3000000000000003" />
            <circle fill="#bbbbbb" stroke="#bbbbbb" stroke-opacity="0.0" stroke-width="0.0" cx="64.85188265966866" cy="349.2895611619847" r="3.3000000000000003" />
            <circle fill="#bbbbbb" stroke="#bbbbbb" stroke-opacity="0.0" stroke-width="0.0" cx="70.77442902128226" cy="359.9987391384666" r="3.3000000000000003" />
            <circle fill="#bbbbbb" stroke="#bbbbbb" stroke-opacity="0.0" stroke-width="0.0" cx="79.65824856370264" cy="361.14921801436344" r="3.3000000000000003" />
            <circle fill="#bbbbbb" stroke="#bbbbbb" stroke-opacity="0.0" stroke-width="0.0" cx="97.42588764854335" cy="341.9804571394525" r="3.3000000000000003" />
            <circle fill="#bbbbbb" stroke="#bbbbbb" stroke-opacity="0.0" stroke-width="0.0" cx="103.34843401015695" cy="341.4056441159836" r="3.3000000000000003" />
            <circle fill="#bbbbbb" stroke="#bbbbbb" stroke-opacity="0.0" stroke-width="0.0" cx="124.07734627580444" cy="334.45898724488876" r="3.3000000000000003" />
            <circle fill="#bbbbbb" stroke="#bbbbbb" stroke-opacity="0.0" stroke-width="0.0" cx="129.99989263741804" cy="328.10361140258703" r="3.3000000000000003" />
            <circle fill="#bbbbbb" stroke="#bbbbbb" stroke-opacity="0.0" stroke-width="0.0" cx="138.8837121798384" cy="317.1248023741437" r="3.3000000000000003" />
            <circle fill="#bbbbbb" stroke="#bbbbbb" stroke-opacity="0.0" stroke-width="0.0" cx="141.8449853606452" cy="333.77298202237506" r="3.3000000000000003" />
            <circle fill="#bbbbbb" stroke="#bbbbbb" stroke-opacity="0.0" stroke-width="0.0" cx="147.76753172225878" cy="312.80395964026417" r="3.3000000000000003" />
            <circle fill="#bbbbbb" stroke="#bbbbbb" stroke-opacity="0.0" stroke-width="0.0" cx="150.72880490306557" cy="306.0062853532292" r="3.3000000000000003" />
            <circle fill="#bbbbbb" stroke="#bbbbbb" stroke-opacity="0.0" stroke-width="0.0" cx="174.41899034951987" cy="296.6543471091744" r="3.3000000000000003" />
            <circle fill="#bbbbbb" stroke="#bbbbbb" stroke-opacity="0.0" stroke-width="0.0" cx="180.34153671113344" cy="278.51875716302607" r="3.3000000000000003" />
            <circle fill="#bbbbbb" stroke="#bbbbbb" stroke-opacity="0.0" stroke-width="0.0" cx="183.30280989194026" cy="271.11403776551924" r="3.3000000000000003" />
            <circle fill="#bbbbbb" stroke="#bbbbbb" stroke-opacity="0.0" stroke-width="0.0" cx="195.1479026151674" cy="256.0720218172624" r="3.3000000000000003" />
            <circle fill="#bbbbbb" stroke="#bbbbbb" stroke-opacity="0.0" stroke-width="0.0" cx="198.10917579597418" cy="254.82116268561364" r="3.3000000000000003" />
            <circle fill="#bbbbbb" stroke="#bbbbbb" stroke-opacity="0.0" stroke-width="0.0" cx="212.91554170000813" cy="215.19933443932675" r="3.3000000000000003" />
            <circle fill="#bbbbbb" stroke="#bbbbbb" stroke-opacity="0.0" stroke-width="0.0" cx="260.29591259291675" cy="129.8524621802864" r="3.3000000000000003" />
            <circle fill="#bbbbbb" stroke="#bbbbbb" stroke-opacity="0.0" stroke-width="0.0" cx="263.25718577372356" cy="119.22375107858431" r="3.3000000000000003" />
            <circle fill="#bbbbbb" stroke="#bbbbbb" stroke-opacity="0.0" stroke-width="0.0" cx="269.17973213533713" cy="115.40071982403595" r="3.3000000000000003" />
            <circle fill="#bbbbbb" stroke="#bbbbbb" stroke-opacity="0.0" stroke-width="0.0" cx="272.1410053161439" cy="105.86137490929212" r="3.3000000000000003" />
            <circle fill="#bbbbbb" stroke="#bbbbbb" stroke-opacity="0.0" stroke-width="0.0" cx="275.1022784969507" cy="110.72459327894438" r="3.3000000000000003" />
            <circle fill="#bbbbbb" stroke="#bbbbbb" stroke-opacity="0.0" stroke-width="0.0" cx="286.94737122017784" cy="76.70321507207166" r="3.3000000000000003" />
            <circle fill="#bbbbbb" stroke="#bbbbbb" stroke-opacity="0.0" stroke-width="0.0" cx="292.8699175817914" cy="68.87035166317156" r="3.3000000000000003" />
            <circle fill="#bbbbbb" stroke="#bbbbbb" stroke-opacity="0.0" stroke-width="0.0" cx="298.792463943405" cy="46.869444584185715" r="3.3000000000000003" />
            <circle fill="#bbbbbb" stroke="#bbbbbb" stroke-opacity="0.0" stroke-width="0.0" cx="301.7537371242118" cy="68.66407040386412" r="3.3000000000000003" />
            <circle fill="#bbbbbb" stroke="#bbbbbb" stroke-opacity="0.0" stroke-width="0.0" cx="325.44392257066613" cy="19.714285714285722" r="3.3000000000000003" />
            <circle fill="#bbbbbb" stroke="#bbbbbb" stroke-opacity="0.0" stroke-width="0.0" cx="328.4051957514729" cy="46.01134272559426" r="3.3000000000000003" />
            <circle fill="#bbbbbb" stroke="#bbbbbb" stroke-opacity="0.0" stroke-width="0.0" cx="331.3664689322797" cy="39.57146260542237" r="3.3000000000000003" />
            <circle fill="#bbbbbb" stroke="#bbbbbb" stroke-opacity="0.0" stroke-width="0.0" cx="334.32774211308646" cy="52.57779962450803" r="3.3000000000000003" />
            <circle fill="#bbbbbb" stroke="#bbbbbb" stroke-opacity="0.0" stroke-width="0.0" cx="343.21156165550684" cy="51.17058509510895" r="3.3000000000000003" />
            <circle fill="#bbbbbb" stroke="#bbbbbb" stroke-opacity="0.0" stroke-width="0.0" cx="352.0953811979272" cy="44.90704501537891" r="3.3000000000000003" />
            <circle fill="#bbbbbb" stroke="#bbbbbb" stroke-opacity="0.0" stroke-width="0.0" cx="372.82429346357475" cy="99.09678663986716" r="3.3000000000000003" />
            <circle fill="#bbbbbb" stroke="#bbbbbb" stroke-opacity="0.0" stroke-width="0.0" cx="378.7468398251883" cy="129.74213269550785" r="3.3000000000000003" />
            <circle fill="#bbbbbb" stroke="#bbbbbb" stroke-opacity="0.0" stroke-width="0.0" cx="390.59193254841546" cy="142.01770638717267" r="3.3000000000000003" />
            <circle fill="#bbbbbb" stroke="#bbbbbb" stroke-opacity="0.0" stroke-width="0.0" cx="396.514478910029" cy="168.52570531221437" r="3.3000000000000003" />
            <circle fill="#bbbbbb" stroke="#bbbbbb" stroke-opacity="0.0" stroke-width="0.0" cx="417.24339117567655" cy="201.77207166882053" r="3.3000000000000003" />
            <circle fill="#bbbbbb" stroke="#bbbbbb" stroke-opacity="0.0" stroke-width="0.0" cx="420.20466435648336" cy="222.2076385543309" r="3.3000000000000003" />
            <circle fill="#bbbbbb" stroke="#bbbbbb" stroke-opacity="0.0" stroke-width="0.0" cx="429.08848389890375" cy="224.6150577595132" r="3.3000000000000003" />
            <circle fill="#bbbbbb" stroke="#bbbbbb" stroke-opacity="0.0" stroke-width="0.0" cx="432.0497570797105" cy="232.00046069792478" r="3.3000000000000003" />
            <circle fill="#bbbbbb" stroke="#bbbbbb" stroke-opacity="0.0" stroke-width="0.0" cx="435.0110302605173" cy="249.5980221907396" r="3.3000000000000003" />
            <circle fill="#bbbbbb" stroke="#bbbbbb" stroke-opacity="0.0" stroke-width="0.0" cx="440.9335766221309" cy="262.6465547319964" r="3.3000000000000003" />
            <circle fill="#bbbbbb" stroke="#bbbbbb" stroke-opacity="0.0" stroke-width="0.0" cx="443.89484980293764" cy="250.0158236181311" r="3.3000000000000003" />
            <circle fill="#bbbbbb" stroke="#bbbbbb" stroke-opacity="0.0" stroke-width="0.0" cx="464.62376206858517" cy="292.74802570327574" r="3.3000000000000003" />
            <circle fill="#bbbbbb" stroke="#bbbbbb" stroke-opacity="0.0" stroke-width="0.0" cx="476.4688547918123" cy="290.3714229562724" r="3.3000000000000003" />
            <circle fill="#bbbbbb" stroke="#bbbbbb" stroke-opacity="0.0" stroke-width="0.0" cx="479.4301279726192" cy="298.51783160050854" r="3.3000000000000003" />
            <circle fill="#bbbbbb" stroke="#bbbbbb" stroke-opacity="0.0" stroke-width="0.0" cx="482.39140115342593" cy="298.031879401575" r="3.3000000000000003" />
            <circle fill="#bbbbbb" stroke="#bbbbbb" stroke-opacity="0.0" stroke-width="0.0" cx="485.3526743342327" cy="312.68624066633583" r="3.3000000000000003" />
            <circle fill="#bbbbbb" stroke="#bbbbbb" stroke-opacity="0.0" stroke-width="0.0" cx="491.27522069584626" cy="334.5478153313426" r="3.3000000000000003" />
            <circle fill="#bbbbbb" stroke="#bbbbbb" stroke-opacity="0.0" stroke-width="0.0" cx="494.23649387665307" cy="315.9967159601818" r="3.3000000000000003" />
            <circle fill="#bbbbbb" stroke="#bbbbbb" stroke-opacity="0.0" stroke-width="0.0" cx="500.15904023826664" cy="306.8909579724732" r="3.3000000000000003" />
            <circle fill="#bbbbbb" stroke="#bbbbbb" stroke-opacity="0.0" stroke-width="0.0" cx="506.0815865998802" cy="325.93169314047236" r="3.3000000000000003" />
            <circle fill="#bbbbbb" stroke="#bbbbbb" stroke-opacity="0.0" stroke-width="0.0" cx="509.042859780687" cy="321.8382984438415" r="3.3000000000000003" />
            <circle fill="#bbbbbb" stroke="#bbbbbb" stroke-opacity="0.0" stroke-width="0.0" cx="526.8104988655277" cy="332.2906102256809" r="3.3000000000000003" />
            <circle fill="#bbbbbb" stroke="#bbbbbb" stroke-opacity="0.0" stroke-width="0.0" cx="532.7330452271414" cy="347.05387419121917" r="3.3000000000000003" />
            <circle fill="#bbbbbb" stroke="#bbbbbb" stroke-opacity="0.0" stroke-width="0.0" cx="538.6555915887549" cy="339.9397102279341" r="3.3000000000000003" />
            <circle fill="#bbbbbb" stroke="#bbbbbb" stroke-opacity="0.0" stroke-width="0.0" cx="541.6168647695617" cy="346.7136261328274" r="3.3000000000000003" />
            <circle fill="#bbbbbb" stroke="#bbbbbb" stroke-opacity="0.0" stroke-width="0.0" cx="556.4232306735956" cy="347.0662820214977" r="3.3000000000000003" />
            <circle fill="#bbbbbb" stroke="#bbbbbb" stroke-opacity="0.0" stroke-width="0.0" cx="580.11341612005" cy="367.88257546741653" r="3.3000000000000003" />
            <circle fill="#bbbbbb" stroke="#bbbbbb" stroke-opacity="0.0" stroke-width="0.0" cx="600.8423283856974" cy="375.28089478444866" r="3.3000000000000003" />
            <circle fill="#bbbbbb" stroke="#bbbbbb" stroke-opacity="0.0" stroke-width="0.0" cx="603.8036015665043" cy="365.5591962572755" r="3.3000000000000003" />
            <circle fill="#bbbbbb" stroke="#bbbbbb" stroke-opacity="0.0" stroke-width="0.0" cx="615.6486942897313" cy="360.7291576932049" r="3.3000000000000003" />
          </g>
        </g>
      </g>
    </g>
    <g transform="translate(14.5 217.0 ) rotate(-90.0 ) ">
      <text class="axis-title-y" y="0.0" text-anchor="middle">
      y
      </text>
    </g>
    <g transform="translate(372.51735061014074 461.5 ) ">
      <text class="axis-title-x" y="0.0" text-anchor="middle">
      x
      </text>
    </g>
    <path fill="rgb(0,0,0)" fill-opacity="0.0" stroke="rgb(187,187,187)" stroke-opacity="1.0" stroke-width="0.0" d="M0.0 0.0 L0.0 470.0 L705.0 470.0 L705.0 0.0 Z">
    </path>
  </g>
  <g id="xXxprefixXx3">
  </g>
</svg>