<svg xmlns="http://www.w3.org/2000/svg" xmlns:xlink="http://www.w3.org/1999/xlink" class="plt-container" width="705.0" height="470.0">
  <style type="text/css">
  .plt-container {
   font-family: Lucida Grande, sans-serif;
   user-select: none;
   -webkit-user-select: none;
   -moz-user-select: none;
   -ms-user-select: none;
}
text {
   text-rendering: optimizeLegibility;
}
#xXxprefixXx0 .plot-title {
   fill: #bbbbbb;
   font-family: Lucida Grande, sans-serif;
   font-size: 16.0px;
   font-weight: normal;
   font-style: normal;   
}
#xXxprefixXx0 .plot-subtitle {
   fill: #bbbbbb;
   font-family: Lucida Grande, sans-serif;
   font-size: 15.0px;
   font-weight: normal;
   font-style: normal;   
}
#xXxprefixXx0 .plot-caption {
   fill: #bbbbbb;
   font-family: Lucida Grande, sans-serif;
   font-size: 13.0px;
   font-weight: normal;
   font-style: normal;   
}
#xXxprefixXx0 .legend-title {
   fill: #bbbbbb;
   font-family: Lucida Grande, sans-serif;
   font-size: 15.0px;
   font-weight: normal;
   font-style: normal;   
}
#xXxprefixXx0 .legend-item {
   fill: #bbbbbb;
   font-family: Lucida Grande, sans-serif;
   font-size: 13.0px;
   font-weight: normal;
   font-style: normal;   
}
#xXxprefixXx0 .axis-title-x {
   fill: #bbbbbb;
   font-family: Lucida Grande, sans-serif;
   font-size: 15.0px;
   font-weight: normal;
   font-style: normal;   
}
#xXxprefixXx0 .axis-text-x {
   fill: #bbbbbb;
   font-family: Lucida Grande, sans-serif;
   font-size: 13.0px;
   font-weight: normal;
   font-style: normal;   
}
#xXxprefixXx3 .axis-tooltip-text-x {
   fill: #303030;
   font-family: Lucida Grande, sans-serif;
   font-size: 13.0px;
   font-weight: normal;
   font-style: normal;   
}
#xXxprefixXx0 .axis-title-y {
   fill: #bbbbbb;
   font-family: Lucida Grande, sans-serif;
   font-size: 15.0px;
   font-weight: normal;
   font-style: normal;   
}
#xXxprefixXx0 .axis-text-y {
   fill: #bbbbbb;
   font-family: Lucida Grande, sans-serif;
   font-size: 13.0px;
   font-weight: normal;
   font-style: normal;   
}
#xXxprefixXx3 .axis-tooltip-text-y {
   fill: #303030;
   font-family: Lucida Grande, sans-serif;
   font-size: 13.0px;
   font-weight: normal;
   font-style: normal;   
}
#xXxprefixXx0 .facet-strip-text-x {
   fill: #bbbbbb;
   font-family: Lucida Grande, sans-serif;
   font-size: 13.0px;
   font-weight: normal;
   font-style: normal;   
}
#xXxprefixXx0 .facet-strip-text-y {
   fill: #bbbbbb;
   font-family: Lucida Grande, sans-serif;
   font-size: 13.0px;
   font-weight: normal;
   font-style: normal;   
}
#xXxprefixXx3 .tooltip-text {
   fill: #bbbbbb;
   font-family: Lucida Grande, sans-serif;
   font-size: 13.0px;
   font-weight: normal;
   font-style: normal;   
}
#xXxprefixXx3 .tooltip-title {
   fill: #bbbbbb;
   font-family: Lucida Grande, sans-serif;
   font-size: 13.0px;
   font-weight: bold;
   font-style: normal;   
}
#xXxprefixXx3 .tooltip-label {
   fill: #bbbbbb;
   font-family: Lucida Grande, sans-serif;
   font-size: 13.0px;
   font-weight: bold;
   font-style: normal;   
}

  </style>
  <g id="xXxprefixXx0">
    <path fill-rule="evenodd" fill="rgb(25,25,28)" fill-opacity="1.0" d="M0.0 0.0 L0.0 470.0 L705.0 470.0 L705.0 0.0 Z">
    </path>
    <g transform="translate(23.0 10.0 ) ">
      <g transform="translate(35.01530667574961 414.0 ) ">
        <line x1="26.029218414076354" y1="-0.0" x2="26.029218414076354" y2="-414.0" stroke="rgb(71,71,71)" stroke-opacity="1.0" stroke-width="1.0">
        </line>
        <line x1="99.14500047608857" y1="-0.0" x2="99.14500047608857" y2="-414.0" stroke="rgb(71,71,71)" stroke-opacity="1.0" stroke-width="1.0">
        </line>
        <line x1="172.26078253810078" y1="-0.0" x2="172.26078253810078" y2="-414.0" stroke="rgb(71,71,71)" stroke-opacity="1.0" stroke-width="1.0">
        </line>
        <line x1="245.376564600113" y1="-0.0" x2="245.376564600113" y2="-414.0" stroke="rgb(71,71,71)" stroke-opacity="1.0" stroke-width="1.0">
        </line>
        <line x1="318.4923466621252" y1="-0.0" x2="318.4923466621252" y2="-414.0" stroke="rgb(71,71,71)" stroke-opacity="1.0" stroke-width="1.0">
        </line>
        <line x1="391.60812872413743" y1="-0.0" x2="391.60812872413743" y2="-414.0" stroke="rgb(71,71,71)" stroke-opacity="1.0" stroke-width="1.0">
        </line>
        <line x1="464.72391078614964" y1="-0.0" x2="464.72391078614964" y2="-414.0" stroke="rgb(71,71,71)" stroke-opacity="1.0" stroke-width="1.0">
        </line>
        <line x1="537.8396928481618" y1="-0.0" x2="537.8396928481618" y2="-414.0" stroke="rgb(71,71,71)" stroke-opacity="1.0" stroke-width="1.0">
        </line>
        <line x1="610.9554749101741" y1="-0.0" x2="610.9554749101741" y2="-414.0" stroke="rgb(71,71,71)" stroke-opacity="1.0" stroke-width="1.0">
        </line>
        <g transform="translate(26.029218414076354 0.0 ) ">
          <line stroke-width="1.0" stroke="rgb(187,187,187)" stroke-opacity="1.0" x2="0.0" y2="4.0">
          </line>
          <g transform="translate(0.0 7.0 ) ">
            <text class="axis-text-x" text-anchor="middle" dy="0.7em">
            -2.0
            </text>
          </g>
        </g>
        <g transform="translate(99.14500047608857 0.0 ) ">
          <line stroke-width="1.0" stroke="rgb(187,187,187)" stroke-opacity="1.0" x2="0.0" y2="4.0">
          </line>
          <g transform="translate(0.0 7.0 ) ">
            <text class="axis-text-x" text-anchor="middle" dy="0.7em">
            -1.5
            </text>
          </g>
        </g>
        <g transform="translate(172.26078253810078 0.0 ) ">
          <line stroke-width="1.0" stroke="rgb(187,187,187)" stroke-opacity="1.0" x2="0.0" y2="4.0">
          </line>
          <g transform="translate(0.0 7.0 ) ">
            <text class="axis-text-x" text-anchor="middle" dy="0.7em">
            -1.0
            </text>
          </g>
        </g>
        <g transform="translate(245.376564600113 0.0 ) ">
          <line stroke-width="1.0" stroke="rgb(187,187,187)" stroke-opacity="1.0" x2="0.0" y2="4.0">
          </line>
          <g transform="translate(0.0 7.0 ) ">
            <text class="axis-text-x" text-anchor="middle" dy="0.7em">
            -0.5
            </text>
          </g>
        </g>
        <g transform="translate(318.4923466621252 0.0 ) ">
          <line stroke-width="1.0" stroke="rgb(187,187,187)" stroke-opacity="1.0" x2="0.0" y2="4.0">
          </line>
          <g transform="translate(0.0 7.0 ) ">
            <text class="axis-text-x" text-anchor="middle" dy="0.7em">
            0.0
            </text>
          </g>
        </g>
        <g transform="translate(391.60812872413743 0.0 ) ">
          <line stroke-width="1.0" stroke="rgb(187,187,187)" stroke-opacity="1.0" x2="0.0" y2="4.0">
          </line>
          <g transform="translate(0.0 7.0 ) ">
            <text class="axis-text-x" text-anchor="middle" dy="0.7em">
            0.5
            </text>
          </g>
        </g>
        <g transform="translate(464.72391078614964 0.0 ) ">
          <line stroke-width="1.0" stroke="rgb(187,187,187)" stroke-opacity="1.0" x2="0.0" y2="4.0">
          </line>
          <g transform="translate(0.0 7.0 ) ">
            <text class="axis-text-x" text-anchor="middle" dy="0.7em">
            1.0
            </text>
          </g>
        </g>
        <g transform="translate(537.8396928481618 0.0 ) ">
          <line stroke-width="1.0" stroke="rgb(187,187,187)" stroke-opacity="1.0" x2="0.0" y2="4.0">
          </line>
          <g transform="translate(0.0 7.0 ) ">
            <text class="axis-text-x" text-anchor="middle" dy="0.7em">
            1.5
            </text>
          </g>
        </g>
        <g transform="translate(610.9554749101741 0.0 ) ">
          <line stroke-width="1.0" stroke="rgb(187,187,187)" stroke-opacity="1.0" x2="0.0" y2="4.0">
          </line>
          <g transform="translate(0.0 7.0 ) ">
            <text class="axis-text-x" text-anchor="middle" dy="0.7em">
            2.0
            </text>
          </g>
        </g>
        <line x1="0.0" y1="0.0" x2="636.9846933242504" y2="0.0" stroke-width="1.0" stroke="rgb(187,187,187)" stroke-opacity="1.0">
        </line>
      </g>
      <g transform="translate(35.01530667574961 0.0 ) ">
        <line x1="0.0" y1="403.52360743611985" x2="636.9846933242504" y2="403.52360743611985" stroke="rgb(71,71,71)" stroke-opacity="1.0" stroke-width="1.0">
        </line>
        <line x1="0.0" y1="364.83693247902715" x2="636.9846933242504" y2="364.83693247902715" stroke="rgb(71,71,71)" stroke-opacity="1.0" stroke-width="1.0">
        </line>
        <line x1="0.0" y1="326.1502575219345" x2="636.9846933242504" y2="326.1502575219345" stroke="rgb(71,71,71)" stroke-opacity="1.0" stroke-width="1.0">
        </line>
        <line x1="0.0" y1="287.4635825648419" x2="636.9846933242504" y2="287.4635825648419" stroke="rgb(71,71,71)" stroke-opacity="1.0" stroke-width="1.0">
        </line>
        <line x1="0.0" y1="248.77690760774922" x2="636.9846933242504" y2="248.77690760774922" stroke="rgb(71,71,71)" stroke-opacity="1.0" stroke-width="1.0">
        </line>
        <line x1="0.0" y1="210.09023265065656" x2="636.9846933242504" y2="210.09023265065656" stroke="rgb(71,71,71)" stroke-opacity="1.0" stroke-width="1.0">
        </line>
        <line x1="0.0" y1="171.40355769356393" x2="636.9846933242504" y2="171.40355769356393" stroke="rgb(71,71,71)" stroke-opacity="1.0" stroke-width="1.0">
        </line>
        <line x1="0.0" y1="132.7168827364713" x2="636.9846933242504" y2="132.7168827364713" stroke="rgb(71,71,71)" stroke-opacity="1.0" stroke-width="1.0">
        </line>
        <line x1="0.0" y1="94.03020777937863" x2="636.9846933242504" y2="94.03020777937863" stroke="rgb(71,71,71)" stroke-opacity="1.0" stroke-width="1.0">
        </line>
        <line x1="0.0" y1="55.343532822285965" x2="636.9846933242504" y2="55.343532822285965" stroke="rgb(71,71,71)" stroke-opacity="1.0" stroke-width="1.0">
        </line>
        <line x1="0.0" y1="16.65685786519333" x2="636.9846933242504" y2="16.65685786519333" stroke="rgb(71,71,71)" stroke-opacity="1.0" stroke-width="1.0">
        </line>
        <g transform="translate(0.0 403.52360743611985 ) ">
          <g transform="translate(-3.0 0.0 ) ">
            <text class="axis-text-y" text-anchor="end" dy="0.35em">
            -1.0
            </text>
          </g>
        </g>
        <g transform="translate(0.0 364.83693247902715 ) ">
          <g transform="translate(-3.0 0.0 ) ">
            <text class="axis-text-y" text-anchor="end" dy="0.35em">
            -0.5
            </text>
          </g>
        </g>
        <g transform="translate(0.0 326.1502575219345 ) ">
          <g transform="translate(-3.0 0.0 ) ">
            <text class="axis-text-y" text-anchor="end" dy="0.35em">
            0.0
            </text>
          </g>
        </g>
        <g transform="translate(0.0 287.4635825648419 ) ">
          <g transform="translate(-3.0 0.0 ) ">
            <text class="axis-text-y" text-anchor="end" dy="0.35em">
            0.5
            </text>
          </g>
        </g>
        <g transform="translate(0.0 248.77690760774922 ) ">
          <g transform="translate(-3.0 0.0 ) ">
            <text class="axis-text-y" text-anchor="end" dy="0.35em">
            1.0
            </text>
          </g>
        </g>
        <g transform="translate(0.0 210.09023265065656 ) ">
          <g transform="translate(-3.0 0.0 ) ">
            <text class="axis-text-y" text-anchor="end" dy="0.35em">
            1.5
            </text>
          </g>
        </g>
        <g transform="translate(0.0 171.40355769356393 ) ">
          <g transform="translate(-3.0 0.0 ) ">
            <text class="axis-text-y" text-anchor="end" dy="0.35em">
            2.0
            </text>
          </g>
        </g>
        <g transform="translate(0.0 132.7168827364713 ) ">
          <g transform="translate(-3.0 0.0 ) ">
            <text class="axis-text-y" text-anchor="end" dy="0.35em">
            2.5
            </text>
          </g>
        </g>
        <g transform="translate(0.0 94.03020777937863 ) ">
          <g transform="translate(-3.0 0.0 ) ">
            <text class="axis-text-y" text-anchor="end" dy="0.35em">
            3.0
            </text>
          </g>
        </g>
        <g transform="translate(0.0 55.343532822285965 ) ">
          <g transform="translate(-3.0 0.0 ) ">
            <text class="axis-text-y" text-anchor="end" dy="0.35em">
            3.5
            </text>
          </g>
        </g>
        <g transform="translate(0.0 16.65685786519333 ) ">
          <g transform="translate(-3.0 0.0 ) ">
            <text class="axis-text-y" text-anchor="end" dy="0.35em">
            4.0
            </text>
          </g>
        </g>
      </g>
      <g transform="translate(35.01530667574961 0.0 ) " clip-path="url(#xXxprefixXx1)" clip-bounds-jfx="[rect (0.0, 0.0), (636.9846933242504, 414.0)]">
        <defs>
          <clipPath id="xXxprefixXx1">
            <rect x="0.0" y="0.0" width="636.9846933242504" height="414.0">
            </rect>
          </clipPath>
        </defs>
        <g>
          <path d="M28.95384969655686 320.23571580729583 L28.95384969655686 320.23571580729583 L31.27946011395096 316.46858097009385 L33.60507053134506 312.73357333220696 L35.93068094873922 309.03068755109814 L38.256291366133325 305.3599181646811 L40.581901783527485 301.721259588346 L42.90751220092159 298.11470611191265 L45.23312261831569 294.5402518965087 L47.55873303570985 290.99789097137284 L49.88434345310395 287.4876172305806 L52.20995387049811 284.0094244296928 L54.535564287892214 280.5633061823245 L56.86117470528632 277.14925595663414 L59.186785122680476 273.76726707173145 L61.51239554007458 270.4173326940035 L63.83800595746871 267.0994458333579 L66.16361637486281 263.81359933938234 L68.48922679225694 260.5597858974207 L70.81483720965107 257.33799802456355 L73.14044762704518 254.14822806555492 L75.46605804443931 250.9904681886127 L77.79166846183344 247.86471038116537 L80.11727887922757 244.7709464455023 L82.44288929662167 241.70916799434065 L84.7684997140158 238.6793664463077 L87.09411013140993 235.68153302133993 L89.41972054880407 232.71565873600088 L91.74533096619817 229.781734398717 L94.0709413835923 226.87975060493574 L96.3965518009864 224.0096977322063 L98.72216221838056 221.17156593518558 L101.04777263577466 218.3653451405733 L103.3733830531688 215.5910250419777 L105.69899347056293 212.84859509471724 L108.02460388795703 210.13804451056183 L110.35021430535119 207.45936225241786 L112.67582472274529 204.81253702896367 L115.00143514013942 202.19755728924002 L117.32704555753352 199.61441121720298 L119.65265597492765 197.0630867262467 L121.97826639232179 194.54357145370383 L124.30387680971589 192.05585275533278 L126.62948722711002 189.59991769980098 L128.95509764450415 187.1757530631762 L131.28070806189828 184.78334532343607 L133.6063184792924 182.42268065500966 L135.93192889668651 180.09374492336465 L138.25753931408065 177.79652367965446 L140.58314973147478 175.5310021554428 L142.90876014886888 173.2971652575217 L145.23437056626304 171.09499756284274 L147.5599809836571 168.92448331358196 L149.88559140105127 166.78560641235836 L152.21120181844537 164.6783504176321 L154.5368122358395 162.60269853930401 L156.86242265323366 160.55863363454554 L159.18803307062774 158.54613820388553 L161.5136434880219 156.56519438758409 L163.839253905416 154.6157839623261 L166.16486432281013 152.69788833826647 L168.49047474020423 150.81148855646353 L170.81608515759837 148.95656528673726 L173.1416955749925 147.13309882599165 L175.46730599238663 145.34106909704238 L177.79291640978073 143.58045564799247 L180.11852682717486 141.8512376522004 L182.44413724456896 140.15339390888818 L184.76974766196312 138.48690284443688 L187.09535807935725 136.85174251441978 L189.42096849675136 135.2478906064249 L191.74657891414546 133.67532444372003 L194.0721893315396 132.1340209898139 L196.39779974893375 130.62395685396967 L198.72341016632788 129.1451082977265 L201.04902058372198 127.6974512424859 L203.3746310011161 126.28096127822084 L205.70024141851022 124.89561367336398 L208.02585183590435 123.54138338593245 L210.35146225329848 122.21824507594476 L212.6770726706926 120.92617311918602 L215.0026830880867 119.66514162237274 L217.32829350548081 118.43512443977039 L219.65390392287495 117.23609519131074 L221.9795143402691 116.06802728225395 L224.30512475766324 114.93089392443753 L226.63073517505734 113.82466815914663 L228.95634559245144 112.74932288163839 L231.28195600984557 111.70483086734382 L233.6075664272397 110.69116479976557 L235.93317684463383 109.70829730008168 L238.25878726202797 108.75620095845767 L240.58439767942207 107.83484836705864 L242.91000809681617 106.9442121547446 L245.2356185142103 106.08426502342135 L247.56122893160446 105.25497978600643 L249.8868393489986 104.45632940596005 L252.2124497663927 103.68828703831508 L254.5380601837868 102.95082607213118 L256.86367060118096 102.2439201742801 L259.18928101857506 101.5675433344584 L261.5148914359692 100.92166991130927 L263.8405018533633 100.30627467951959 L266.1661122707574 99.72133287774616 L268.4917226881515 99.16682025720979 L270.8173331055457 98.64271313078416 L273.14294352293985 98.14898842239126 L275.46855394033395 97.68562371650677 L277.79416435772805 97.25259730756386 L280.11977477512215 96.84988824903792 L282.44538519251626 96.4774764019829 L284.7709956099104 96.13534248278643 L287.0966060273046 95.82346810990296 L289.4222164446987 95.54183584932329 L291.7478268620928 95.29042925853548 L294.0734372794869 95.06923292873569 L296.39904769688104 94.87823252504825 L298.72465811427514 94.71741482452123 L301.0502685316693 94.58676775167143 L303.3758789490634 94.48628041136249 L305.7014893664575 94.41594311881278 L308.0270997838516 94.37574742654346 L310.35271020124577 94.36568614809556 L312.67832061863993 94.3857533783617 L315.00393103603403 94.43594451039942 L317.32954145342813 94.51625624861614 L319.65515187082224 94.62668661823673 L321.9807622882164 94.76723497099124 L324.3063727056105 94.93790198698451 L326.63198312300466 95.13868967273476 L328.9575935403988 95.36960135539485 L331.28320395779286 95.63064167319433 L333.608814375187 95.92181656216707 L335.9344247925811 96.24313323925165 L338.2600352099753 96.59460018187698 L340.5856456273694 96.97622710416601 L342.9112560447635 97.38802492991215 L345.23686646215765 97.83000576250029 L347.56247687955175 98.30218285196236 L349.88808729694586 98.80457055937106 L352.21369771434 99.33718431878825 L354.5393081317341 99.90004059699427 L356.8649185491283 100.49315685123261 L359.1905289665224 101.11655148520975 L361.5161393839165 101.77024380359256 L363.84174980131064 102.45425396524774 L366.16736021870474 103.16860293546557 L368.4929706360989 103.91331243740709 L370.81858105349295 104.68840490300963 L373.1441914708871 105.49390342357759 L375.4698018882812 106.32983170027788 L377.79541230567537 107.196213994749 L380.1210227230695 108.09307508002212 L382.4466331404636 109.02044019194096 L384.77224355785773 109.9783349812538 L387.09785397525184 110.96678546653771 L389.423464392646 111.9858179881025 L391.74907481004016 113.03545916300538 L394.0746852274342 114.11573584129675 L396.40029564482836 115.22667506359929 L398.7259060622224 116.36830402011273 L401.05151647961657 117.54065001112016 L403.3771268970107 118.74374040905977 L405.7027373144048 119.9776026222136 L408.028347731799 121.24226406005229 L410.3539581491931 122.5377521002631 L412.6795685665872 123.86409405747935 L415.00517898398135 125.22131715371725 L417.33078940137545 126.60944849051899 L419.6563998187696 128.02851502279125 L421.98201023616366 129.47854353432103 L424.3076206535578 130.95956061494442 L426.633231070952 132.4715926393362 L428.9588414883461 134.01466574738524 L431.2844519057402 135.58880582611366 L433.6100623231343 137.19403849309472 L435.93567274052845 138.830389081322 L438.26128315792255 140.4978826254775 L440.5868935753167 142.19654384954595 L442.91250399271087 143.92639715572054 L445.2381144101049 145.68746661454352 L447.5637248274991 147.4797759562249 L449.8893352448931 149.30334856308195 L452.2149456622873 151.15820746304283 L454.54055607968144 153.04437532415622 L456.86616649707554 154.96187445005242 L459.1917769144697 156.9107267762994 L461.5173873318638 158.89095386759936 L463.84299774925796 160.90257691577423 L466.16860816665206 162.94561673848688 L468.49421858404617 165.0200937786492 L470.8198290014403 167.1260281044688 L473.14543941883437 169.26343941008648 L475.47104983622853 171.4323470167619 L477.7966602536227 173.63276987456217 L480.12227067101674 175.8647265645146 L482.4478810884109 178.12823530118314 L484.773491505805 180.42331393563137 L487.09910192319916 182.74997995873798 L489.4247123405933 185.10825050482933 L491.7503227579874 187.49814235559927 L494.0759331753816 189.91967194428582 L496.4015435927756 192.37285536007545 L498.7271540101698 194.85770835271097 L501.05276442756394 197.3742463372757 L503.378374844958 199.92248439913257 L505.70398526235215 202.50243729899626 L508.02959567974625 205.11411947811646 L510.3552060971404 207.75754506355685 L512.6808165145345 210.43272787354823 L515.0064269319287 213.13968142290344 L517.3320373493227 215.87841892847655 L519.6576477667169 218.64895331465357 L521.983258184111 221.45129721886224 L524.3088686015051 224.28546299708768 L526.6344790188992 227.151462729386 L528.9600894362934 230.0493082253827 L531.2856998536874 232.97901102974956 L533.6113102710816 235.9405824276513 L535.9369206884758 238.93403345015312 L538.2625311058698 241.9593748795853 L540.5881415232641 245.01661725485593 L542.9137519406581 248.1057708767086 L545.2393623580523 251.22684581291975 L547.5649727754463 254.3798519034302 L549.8905831928405 257.5647987654097 L552.2161936102347 260.78169579824805 L554.5418040276287 264.030552188473 L556.8674144450229 267.311376914591 L559.1930248624169 270.62417875184786 L561.5186352798112 273.9689662769106 L563.8442456972052 277.3457478724651 L566.1698561145994 280.7545317317324 L568.4954665319935 284.1953258629001 L570.8210769493876 287.66813809346894 L573.1466873667817 291.1729760745152 L575.4722977841759 294.70984728486746 L577.79790820157 298.2787590351982 L580.1235186189641 301.8797184720312 L582.4491290363583 305.51273258166304 L584.7747394537523 309.1778081940024 L587.1003498711464 312.8749519863239 L589.4259602885406 316.6041704869407 L591.7515707059347 320.36547007879443 L594.0771811233288 324.15885700296394 L596.402791540723 327.984337362095 L598.728401958117 331.8419171237493 L601.0540123755112 335.7316021236773 L603.3796227929054 339.6533980690129 L605.7052332102994 343.60731054139336 L608.0308436276936 347.59334500000506 L608.0308436276936 395.1818181818182 L605.7052332102994 390.9092351955676 L603.3796227929054 386.66936895635365 L601.0540123755112 382.4622249233623 L598.728401958117 378.287808678231 L596.402791540723 374.14612592809374 L594.0771811233288 370.03718250870077 L591.7515707059347 365.960984387614 L589.4259602885406 361.91753766747894 L587.1003498711464 357.90684858937453 L584.7747394537523 353.9289235362426 L582.4491290363583 349.98376903639604 L580.1235186189641 346.0713917671098 L577.79790820157 342.1917985582921 L575.4722977841759 338.34499639624 L573.1466873667817 334.53099242747686 L570.8210769493876 330.74979396267537 L568.4954665319935 327.00140848066417 L566.1698561145994 323.28584363251935 L563.8442456972052 319.6031072457419 L561.5186352798112 315.95320732851917 L559.1930248624169 312.33615207407223 L556.8674144450229 308.7519498650873 L554.5418040276287 305.20060927823084 L552.2161936102347 301.6821390887493 L549.8905831928405 298.1965482751485 L547.5649727754463 294.74384602395645 L545.2393623580523 291.32404173456325 L542.9137519406581 287.9371450241381 L540.5881415232641 284.5831657326223 L538.2625311058698 281.2621139277919 L535.9369206884758 277.97399991039083 L533.6113102710816 274.7188342193271 L531.2856998536874 271.4966276369307 L528.9600894362934 268.30739119426727 L526.6344790188992 265.1511361765011 L524.3088686015051 262.02787412830423 L521.983258184111 258.93761685930224 L519.6576477667169 255.8803764495509 L517.3320373493227 252.85616525503582 L515.0064269319287 249.86499591318426 L512.6808165145345 246.90688134838248 L510.3552060971404 243.98183477748444 L508.02959567974625 241.089869715303 L505.70398526235215 238.2309999800692 L503.378374844958 235.40523969884634 L501.05276442756394 232.61260331288443 L498.7271540101698 229.85310558289785 L496.4015435927756 227.12676159424967 L494.0759331753816 224.43358676202342 L491.7503227579874 221.77359683596154 L489.4247123405933 219.14680790525088 L487.09910192319916 216.55323640312906 L484.773491505805 213.99289911129017 L482.4478810884109 211.46581316406065 L480.12227067101674 208.9719960523189 L477.7966602536227 206.5114656271288 L475.47104983622853 204.08424010305407 L473.14543941883437 201.6903380611221 L470.8198290014403 199.32977845140016 L468.49421858404617 197.00258059514766 L466.16860816665206 194.70876418650562 L463.84299774925796 192.4483492936814 L461.5173873318638 190.22135635958705 L459.1917769144697 188.0278062018855 L456.86616649707554 185.8677200123985 L454.54055607968144 183.7411193558285 L452.2149456622873 181.64802616774318 L449.8893352448931 179.58846275177294 L447.5637248274991 177.56245177596665 L445.2381144101049 175.57001626825217 L442.91250399271087 173.61117961094703 L440.5868935753167 171.6859655342611 L438.26128315792255 169.7943981087366 L435.93567274052845 167.93650173656684 L433.6100623231343 166.1123011417365 L431.2844519057402 164.32182135892756 L428.9588414883461 162.56508772113355 L426.633231070952 160.84212584592788 L424.3076206535578 159.15296162033252 L421.98201023616366 157.49762118423635 L419.6563998187696 155.8761309123143 L417.33078940137545 154.2885173944023 L415.00517898398135 152.73480741428745 L412.6795685665872 151.2150279268763 L410.3539581491931 149.72920603371116 L408.028347731799 148.27736895680832 L405.7027373144048 146.85954401080085 L403.3771268970107 145.47575857337625 L401.05151647961657 144.126040054005 L398.7259060622224 142.8104158609692 L396.40029564482836 141.52891336670706 L394.0746852274342 140.28155987150163 L391.74907481004016 139.06838256555264 L389.423464392646 137.88940848948283 L387.09785397525184 136.7446644933425 L384.77224355785773 135.63417719418902 L382.4466331404636 134.55797293233198 L380.1210227230695 133.51607772634867 L377.79541230567537 132.50851722698718 L375.4698018882812 131.53531667009133 L373.1441914708871 130.59650082869234 L370.81858105349295 129.69209396442866 L368.4929706360989 128.8221197784671 L366.16736021870474 127.9866013621122 L363.84174980131064 127.18556114730126 L361.5161393839165 126.41902085719525 L359.1905289665224 125.6870014570845 L356.8649185491283 124.98952310583573 L354.5393081317341 124.32660510811581 L352.21369771434 123.69826586763119 L349.88808729694586 123.10452284162534 L347.56247687955175 122.54539249687866 L345.23686646215765 122.02089026745293 L342.9112560447635 121.5310305144209 L340.5856456273694 121.07582648781454 L338.2600352099753 120.6552902910187 L335.9344247925811 120.26943284782675 L333.608814375187 119.9182638723617 L331.28320395779286 119.60179184205245 L328.9575935403988 119.3200239738376 L326.63198312300466 119.07296620375092 L324.3063727056105 118.86062317002205 L321.9807622882164 118.68299819980382 L319.65515187082224 118.54009329961451 L317.32954145342813 118.43190914955886 L315.00393103603403 118.35844510136698 L312.67832061863993 118.31969918026368 L310.35271020124577 118.31566809065646 L308.0270997838516 118.34634722560284 L305.7014893664575 118.41173067999546 L303.3758789490634 118.51181126737526 L301.0502685316693 118.64658054026353 L298.72465811427514 118.81602881387849 L296.39904769688104 119.02014519308392 L294.0734372794869 119.25891760239648 L291.7478268620928 119.5323328188644 L289.4222164446987 119.8403765076119 L287.0966060273046 120.18303325983513 L284.7709956099104 120.56028663302229 L282.44538519251626 120.97211919316402 L280.11977477512215 121.41851255871478 L277.79416435772805 121.89944744606228 L275.46855394033395 122.41490371626048 L273.14294352293985 122.96486042278465 L270.8173331055457 123.54929586006813 L268.4917226881515 124.16818761258642 L266.1661122707574 124.82151260426167 L263.8405018533633 125.50924714796747 L261.5148914359692 126.23136699492463 L259.18928101857506 126.98784738378995 L256.86367060118096 127.77866308925039 L254.5380601837868 128.603788469949 L252.2124497663927 129.4631975155825 L249.8868393489986 130.35686389302253 L247.56122893160446 131.2847609913287 L245.2356185142103 132.24686196553407 L242.91000809681617 133.24313977909867 L240.58439767942207 134.27356724494015 L238.25878726202797 135.33811706496422 L235.93317684463383 136.43676186803094 L233.6075664272397 137.56947424630553 L231.28195600984557 138.73622678995324 L228.95634559245144 139.93699212015233 L226.63073517505734 141.17174292040536 L224.30512475766324 142.44045196614334 L221.9795143402691 143.7430921526234 L219.65390392287495 145.07963652113085 L217.32829350548081 146.45005828350295 L215.0026830880867 147.85433084500005 L212.6770726706926 149.29242782555377 L210.35146225329848 150.7643230794297 L208.02585183590435 152.26999071334438 L205.70024141851022 153.8094051030827 L203.3746310011161 155.38254090866343 L201.04902058372198 156.98937308810352 L198.72341016632788 158.62987690983573 L196.39779974893375 160.30402796383297 L194.0721893315396 162.01180217149684 L191.74657891414546 163.75317579436643 L189.42096849675136 165.52812544170487 L187.09535807935725 167.33662807702092 L184.76974766196312 169.1786610235824 L182.44413724456896 171.0542019689773 L180.11852682717486 172.96322896877896 L177.79291640978073 174.90572044936835 L175.46730599238663 176.8816552099675 L173.1416955749925 178.89101242393502 L170.81608515759837 180.9337716393738 L168.49047474020423 183.00991277909947 L166.16486432281013 185.11941614001606 L163.839253905416 187.2622623919437 L161.5136434880219 189.43843257594054 L159.18803307062774 191.64790810216164 L156.86242265323366 193.89067074729167 L154.5368122358395 196.16670265159098 L152.21120181844537 198.47598631558833 L149.88559140105127 200.818504596455 L147.5599809836571 203.19424070409212 L145.23437056626304 205.60317819695948 L142.90876014886888 208.0453009776765 L140.58314973147478 210.5205932884189 L138.25753931408065 213.02903970613838 L135.93192889668651 215.57062513762702 L133.6063184792924 218.14533481444835 L131.28070806189828 220.753154287756 L128.95509764450415 223.39406942301753 L126.62948722711002 226.068066394662 L124.30387680971589 228.77513168066716 L121.97826639232179 231.5152520571006 L119.65265597492765 234.28841459262998 L117.32704555753352 237.09460664301346 L115.00143514013942 239.9338158455838 L112.67582472274529 242.80603011373518 L110.35021430535119 245.7112376314237 L108.02460388795703 248.6494268476901 L105.69899347056293 251.62058647121262 L103.3733830531688 254.62470546489777 L101.04777263577466 257.6617730405153 L98.72216221838056 260.7317786533838 L96.3965518009864 263.83471199711164 L94.0709413835923 266.97056299839824 L91.74533096619817 270.13932181190074 L89.41972054880407 273.3409788151681 L87.09411013140993 276.57552460364803 L84.7684997140158 279.84294998576695 L82.44288929662167 283.1432459780882 L80.11727887922757 286.4764038005484 L77.79166846183344 289.8424148717748 L75.46605804443931 293.2412708044845 L73.14044762704518 296.67296340096715 L70.81483720965107 300.1374846486508 L68.48922679225694 303.6348267157537 L66.16361637486281 307.16498194701967 L63.83800595746871 310.7279428595393 L61.51239554007458 314.32370213865653 L59.186785122680476 317.9522526339591 L56.86117470528632 321.6135873553546 L54.535564287892214 325.30769946923004 L52.20995387049811 329.0345822946951 L49.88434345310395 332.79422929990835 L47.55873303570985 336.58663409848475 L45.23312261831569 340.41179044598516 L42.90751220092159 344.2696922364851 L40.581901783527485 348.16033349922327 L38.256291366133325 352.08370839532733 L35.93068094873922 356.03981121461703 L33.60507053134506 360.02863637248277 L31.27946011395096 364.050178406838 L28.95384969655686 368.10443197514553 Z" fill="rgb(187,187,187)" stroke-width="1.0" fill-opacity="0.10196078431372549">
          </path>
        </g>
        <g>
          <path d="M28.95384969655686 320.23571580729583 L28.95384969655686 320.23571580729583 L31.27946011395096 316.46858097009385 L33.60507053134506 312.73357333220696 L35.93068094873922 309.03068755109814 L38.256291366133325 305.3599181646811 L40.581901783527485 301.721259588346 L42.90751220092159 298.11470611191265 L45.23312261831569 294.5402518965087 L47.55873303570985 290.99789097137284 L49.88434345310395 287.4876172305806 L52.20995387049811 284.0094244296928 L54.535564287892214 280.5633061823245 L56.86117470528632 277.14925595663414 L59.186785122680476 273.76726707173145 L61.51239554007458 270.4173326940035 L63.83800595746871 267.0994458333579 L66.16361637486281 263.81359933938234 L68.48922679225694 260.5597858974207 L70.81483720965107 257.33799802456355 L73.14044762704518 254.14822806555492 L75.46605804443931 250.9904681886127 L77.79166846183344 247.86471038116537 L80.11727887922757 244.7709464455023 L82.44288929662167 241.70916799434065 L84.7684997140158 238.6793664463077 L87.09411013140993 235.68153302133993 L89.41972054880407 232.71565873600088 L91.74533096619817 229.781734398717 L94.0709413835923 226.87975060493574 L96.3965518009864 224.0096977322063 L98.72216221838056 221.17156593518558 L101.04777263577466 218.3653451405733 L103.3733830531688 215.5910250419777 L105.69899347056293 212.84859509471724 L108.02460388795703 210.13804451056183 L110.35021430535119 207.45936225241786 L112.67582472274529 204.81253702896367 L115.00143514013942 202.19755728924002 L117.32704555753352 199.61441121720298 L119.65265597492765 197.0630867262467 L121.97826639232179 194.54357145370383 L124.30387680971589 192.05585275533278 L126.62948722711002 189.59991769980098 L128.95509764450415 187.1757530631762 L131.28070806189828 184.78334532343607 L133.6063184792924 182.42268065500966 L135.93192889668651 180.09374492336465 L138.25753931408065 177.79652367965446 L140.58314973147478 175.5310021554428 L142.90876014886888 173.2971652575217 L145.23437056626304 171.09499756284274 L147.5599809836571 168.92448331358196 L149.88559140105127 166.78560641235836 L152.21120181844537 164.6783504176321 L154.5368122358395 162.60269853930401 L156.86242265323366 160.55863363454554 L159.18803307062774 158.54613820388553 L161.5136434880219 156.56519438758409 L163.839253905416 154.6157839623261 L166.16486432281013 152.69788833826647 L168.49047474020423 150.81148855646353 L170.81608515759837 148.95656528673726 L173.1416955749925 147.13309882599165 L175.46730599238663 145.34106909704238 L177.79291640978073 143.58045564799247 L180.11852682717486 141.8512376522004 L182.44413724456896 140.15339390888818 L184.76974766196312 138.48690284443688 L187.09535807935725 136.85174251441978 L189.42096849675136 135.2478906064249 L191.74657891414546 133.67532444372003 L194.0721893315396 132.1340209898139 L196.39779974893375 130.62395685396967 L198.72341016632788 129.1451082977265 L201.04902058372198 127.6974512424859 L203.3746310011161 126.28096127822084 L205.70024141851022 124.89561367336398 L208.02585183590435 123.54138338593245 L210.35146225329848 122.21824507594476 L212.6770726706926 120.92617311918602 L215.0026830880867 119.66514162237274 L217.32829350548081 118.43512443977039 L219.65390392287495 117.23609519131074 L221.9795143402691 116.06802728225395 L224.30512475766324 114.93089392443753 L226.63073517505734 113.82466815914663 L228.95634559245144 112.74932288163839 L231.28195600984557 111.70483086734382 L233.6075664272397 110.69116479976557 L235.93317684463383 109.70829730008168 L238.25878726202797 108.75620095845767 L240.58439767942207 107.83484836705864 L242.91000809681617 106.9442121547446 L245.2356185142103 106.08426502342135 L247.56122893160446 105.25497978600643 L249.8868393489986 104.45632940596005 L252.2124497663927 103.68828703831508 L254.5380601837868 102.95082607213118 L256.86367060118096 102.2439201742801 L259.18928101857506 101.5675433344584 L261.5148914359692 100.92166991130927 L263.8405018533633 100.30627467951959 L266.1661122707574 99.72133287774616 L268.4917226881515 99.16682025720979 L270.8173331055457 98.64271313078416 L273.14294352293985 98.14898842239126 L275.46855394033395 97.68562371650677 L277.79416435772805 97.25259730756386 L280.11977477512215 96.84988824903792 L282.44538519251626 96.4774764019829 L284.7709956099104 96.13534248278643 L287.0966060273046 95.82346810990296 L289.4222164446987 95.54183584932329 L291.7478268620928 95.29042925853548 L294.0734372794869 95.06923292873569 L296.39904769688104 94.87823252504825 L298.72465811427514 94.71741482452123 L301.0502685316693 94.58676775167143 L303.3758789490634 94.48628041136249 L305.7014893664575 94.41594311881278 L308.0270997838516 94.37574742654346 L310.35271020124577 94.36568614809556 L312.67832061863993 94.3857533783617 L315.00393103603403 94.43594451039942 L317.32954145342813 94.51625624861614 L319.65515187082224 94.62668661823673 L321.9807622882164 94.76723497099124 L324.3063727056105 94.93790198698451 L326.63198312300466 95.13868967273476 L328.9575935403988 95.36960135539485 L331.28320395779286 95.63064167319433 L333.608814375187 95.92181656216707 L335.9344247925811 96.24313323925165 L338.2600352099753 96.59460018187698 L340.5856456273694 96.97622710416601 L342.9112560447635 97.38802492991215 L345.23686646215765 97.83000576250029 L347.56247687955175 98.30218285196236 L349.88808729694586 98.80457055937106 L352.21369771434 99.33718431878825 L354.5393081317341 99.90004059699427 L356.8649185491283 100.49315685123261 L359.1905289665224 101.11655148520975 L361.5161393839165 101.77024380359256 L363.84174980131064 102.45425396524774 L366.16736021870474 103.16860293546557 L368.4929706360989 103.91331243740709 L370.81858105349295 104.68840490300963 L373.1441914708871 105.49390342357759 L375.4698018882812 106.32983170027788 L377.79541230567537 107.196213994749 L380.1210227230695 108.09307508002212 L382.4466331404636 109.02044019194096 L384.77224355785773 109.9783349812538 L387.09785397525184 110.96678546653771 L389.423464392646 111.9858179881025 L391.74907481004016 113.03545916300538 L394.0746852274342 114.11573584129675 L396.40029564482836 115.22667506359929 L398.7259060622224 116.36830402011273 L401.05151647961657 117.54065001112016 L403.3771268970107 118.74374040905977 L405.7027373144048 119.9776026222136 L408.028347731799 121.24226406005229 L410.3539581491931 122.5377521002631 L412.6795685665872 123.86409405747935 L415.00517898398135 125.22131715371725 L417.33078940137545 126.60944849051899 L419.6563998187696 128.02851502279125 L421.98201023616366 129.47854353432103 L424.3076206535578 130.95956061494442 L426.633231070952 132.4715926393362 L428.9588414883461 134.01466574738524 L431.2844519057402 135.58880582611366 L433.6100623231343 137.19403849309472 L435.93567274052845 138.830389081322 L438.26128315792255 140.4978826254775 L440.5868935753167 142.19654384954595 L442.91250399271087 143.92639715572054 L445.2381144101049 145.68746661454352 L447.5637248274991 147.4797759562249 L449.8893352448931 149.30334856308195 L452.2149456622873 151.15820746304283 L454.54055607968144 153.04437532415622 L456.86616649707554 154.96187445005242 L459.1917769144697 156.9107267762994 L461.5173873318638 158.89095386759936 L463.84299774925796 160.90257691577423 L466.16860816665206 162.94561673848688 L468.49421858404617 165.0200937786492 L470.8198290014403 167.1260281044688 L473.14543941883437 169.26343941008648 L475.47104983622853 171.4323470167619 L477.7966602536227 173.63276987456217 L480.12227067101674 175.8647265645146 L482.4478810884109 178.12823530118314 L484.773491505805 180.42331393563137 L487.09910192319916 182.74997995873798 L489.4247123405933 185.10825050482933 L491.7503227579874 187.49814235559927 L494.0759331753816 189.91967194428582 L496.4015435927756 192.37285536007545 L498.7271540101698 194.85770835271097 L501.05276442756394 197.3742463372757 L503.378374844958 199.92248439913257 L505.70398526235215 202.50243729899626 L508.02959567974625 205.11411947811646 L510.3552060971404 207.75754506355685 L512.6808165145345 210.43272787354823 L515.0064269319287 213.13968142290344 L517.3320373493227 215.87841892847655 L519.6576477667169 218.64895331465357 L521.983258184111 221.45129721886224 L524.3088686015051 224.28546299708768 L526.6344790188992 227.151462729386 L528.9600894362934 230.0493082253827 L531.2856998536874 232.97901102974956 L533.6113102710816 235.9405824276513 L535.9369206884758 238.93403345015312 L538.2625311058698 241.9593748795853 L540.5881415232641 245.01661725485593 L542.9137519406581 248.1057708767086 L545.2393623580523 251.22684581291975 L547.5649727754463 254.3798519034302 L549.8905831928405 257.5647987654097 L552.2161936102347 260.78169579824805 L554.5418040276287 264.030552188473 L556.8674144450229 267.311376914591 L559.1930248624169 270.62417875184786 L561.5186352798112 273.9689662769106 L563.8442456972052 277.3457478724651 L566.1698561145994 280.7545317317324 L568.4954665319935 284.1953258629001 L570.8210769493876 287.66813809346894 L573.1466873667817 291.1729760745152 L575.4722977841759 294.70984728486746 L577.79790820157 298.2787590351982 L580.1235186189641 301.8797184720312 L582.4491290363583 305.51273258166304 L584.7747394537523 309.1778081940024 L587.1003498711464 312.8749519863239 L589.4259602885406 316.6041704869407 L591.7515707059347 320.36547007879443 L594.0771811233288 324.15885700296394 L596.402791540723 327.984337362095 L598.728401958117 331.8419171237493 L601.0540123755112 335.7316021236773 L603.3796227929054 339.6533980690129 L605.7052332102994 343.60731054139336 L608.0308436276936 347.59334500000506 " fill="none" stroke-width="1.6500000000000001" stroke="rgb(187,187,187)" stroke-opacity="1.0">
          </path>
        </g>
        <g>
          <path d="M28.95384969655686 368.10443197514553 L28.95384969655686 368.10443197514553 L31.27946011395096 364.050178406838 L33.60507053134506 360.02863637248277 L35.93068094873922 356.03981121461703 L38.256291366133325 352.08370839532733 L40.581901783527485 348.16033349922327 L42.90751220092159 344.2696922364851 L45.23312261831569 340.41179044598516 L47.55873303570985 336.58663409848475 L49.88434345310395 332.79422929990835 L52.20995387049811 329.0345822946951 L54.535564287892214 325.30769946923004 L56.86117470528632 321.6135873553546 L59.186785122680476 317.9522526339591 L61.51239554007458 314.32370213865653 L63.83800595746871 310.7279428595393 L66.16361637486281 307.16498194701967 L68.48922679225694 303.6348267157537 L70.81483720965107 300.1374846486508 L73.14044762704518 296.67296340096715 L75.46605804443931 293.2412708044845 L77.79166846183344 289.8424148717748 L80.11727887922757 286.4764038005484 L82.44288929662167 283.1432459780882 L84.7684997140158 279.84294998576695 L87.09411013140993 276.57552460364803 L89.41972054880407 273.3409788151681 L91.74533096619817 270.13932181190074 L94.0709413835923 266.97056299839824 L96.3965518009864 263.83471199711164 L98.72216221838056 260.7317786533838 L101.04777263577466 257.6617730405153 L103.3733830531688 254.62470546489777 L105.69899347056293 251.62058647121262 L108.02460388795703 248.6494268476901 L110.35021430535119 245.7112376314237 L112.67582472274529 242.80603011373518 L115.00143514013942 239.9338158455838 L117.32704555753352 237.09460664301346 L119.65265597492765 234.28841459262998 L121.97826639232179 231.5152520571006 L124.30387680971589 228.77513168066716 L126.62948722711002 226.068066394662 L128.95509764450415 223.39406942301753 L131.28070806189828 220.753154287756 L133.6063184792924 218.14533481444835 L135.93192889668651 215.57062513762702 L138.25753931408065 213.02903970613838 L140.58314973147478 210.5205932884189 L142.90876014886888 208.0453009776765 L145.23437056626304 205.60317819695948 L147.5599809836571 203.19424070409212 L149.88559140105127 200.818504596455 L152.21120181844537 198.47598631558833 L154.5368122358395 196.16670265159098 L156.86242265323366 193.89067074729167 L159.18803307062774 191.64790810216164 L161.5136434880219 189.43843257594054 L163.839253905416 187.2622623919437 L166.16486432281013 185.11941614001606 L168.49047474020423 183.00991277909947 L170.81608515759837 180.9337716393738 L173.1416955749925 178.89101242393502 L175.46730599238663 176.8816552099675 L177.79291640978073 174.90572044936835 L180.11852682717486 172.96322896877896 L182.44413724456896 171.0542019689773 L184.76974766196312 169.1786610235824 L187.09535807935725 167.33662807702092 L189.42096849675136 165.52812544170487 L191.74657891414546 163.75317579436643 L194.0721893315396 162.01180217149684 L196.39779974893375 160.30402796383297 L198.72341016632788 158.62987690983573 L201.04902058372198 156.98937308810352 L203.3746310011161 155.38254090866343 L205.70024141851022 153.8094051030827 L208.02585183590435 152.26999071334438 L210.35146225329848 150.7643230794297 L212.6770726706926 149.29242782555377 L215.0026830880867 147.85433084500005 L217.32829350548081 146.45005828350295 L219.65390392287495 145.07963652113085 L221.9795143402691 143.7430921526234 L224.30512475766324 142.44045196614334 L226.63073517505734 141.17174292040536 L228.95634559245144 139.93699212015233 L231.28195600984557 138.73622678995324 L233.6075664272397 137.56947424630553 L235.93317684463383 136.43676186803094 L238.25878726202797 135.33811706496422 L240.58439767942207 134.27356724494015 L242.91000809681617 133.24313977909867 L245.2356185142103 132.24686196553407 L247.56122893160446 131.2847609913287 L249.8868393489986 130.35686389302253 L252.2124497663927 129.4631975155825 L254.5380601837868 128.603788469949 L256.86367060118096 127.77866308925039 L259.18928101857506 126.98784738378995 L261.5148914359692 126.23136699492463 L263.8405018533633 125.50924714796747 L266.1661122707574 124.82151260426167 L268.4917226881515 124.16818761258642 L270.8173331055457 123.54929586006813 L273.14294352293985 122.96486042278465 L275.46855394033395 122.41490371626048 L277.79416435772805 121.89944744606228 L280.11977477512215 121.41851255871478 L282.44538519251626 120.97211919316402 L284.7709956099104 120.56028663302229 L287.0966060273046 120.18303325983513 L289.4222164446987 119.8403765076119 L291.7478268620928 119.5323328188644 L294.0734372794869 119.25891760239648 L296.39904769688104 119.02014519308392 L298.72465811427514 118.81602881387849 L301.0502685316693 118.64658054026353 L303.3758789490634 118.51181126737526 L305.7014893664575 118.41173067999546 L308.0270997838516 118.34634722560284 L310.35271020124577 118.31566809065646 L312.67832061863993 118.31969918026368 L315.00393103603403 118.35844510136698 L317.32954145342813 118.43190914955886 L319.65515187082224 118.54009329961451 L321.9807622882164 118.68299819980382 L324.3063727056105 118.86062317002205 L326.63198312300466 119.07296620375092 L328.9575935403988 119.3200239738376 L331.28320395779286 119.60179184205245 L333.608814375187 119.9182638723617 L335.9344247925811 120.26943284782675 L338.2600352099753 120.6552902910187 L340.5856456273694 121.07582648781454 L342.9112560447635 121.5310305144209 L345.23686646215765 122.02089026745293 L347.56247687955175 122.54539249687866 L349.88808729694586 123.10452284162534 L352.21369771434 123.69826586763119 L354.5393081317341 124.32660510811581 L356.8649185491283 124.98952310583573 L359.1905289665224 125.6870014570845 L361.5161393839165 126.41902085719525 L363.84174980131064 127.18556114730126 L366.16736021870474 127.9866013621122 L368.4929706360989 128.8221197784671 L370.81858105349295 129.69209396442866 L373.1441914708871 130.59650082869234 L375.4698018882812 131.53531667009133 L377.79541230567537 132.50851722698718 L380.1210227230695 133.51607772634867 L382.4466331404636 134.55797293233198 L384.77224355785773 135.63417719418902 L387.09785397525184 136.7446644933425 L389.423464392646 137.88940848948283 L391.74907481004016 139.06838256555264 L394.0746852274342 140.28155987150163 L396.40029564482836 141.52891336670706 L398.7259060622224 142.8104158609692 L401.05151647961657 144.126040054005 L403.3771268970107 145.47575857337625 L405.7027373144048 146.85954401080085 L408.028347731799 148.27736895680832 L410.3539581491931 149.72920603371116 L412.6795685665872 151.2150279268763 L415.00517898398135 152.73480741428745 L417.33078940137545 154.2885173944023 L419.6563998187696 155.8761309123143 L421.98201023616366 157.49762118423635 L424.3076206535578 159.15296162033252 L426.633231070952 160.84212584592788 L428.9588414883461 162.56508772113355 L431.2844519057402 164.32182135892756 L433.6100623231343 166.1123011417365 L435.93567274052845 167.93650173656684 L438.26128315792255 169.7943981087366 L440.5868935753167 171.6859655342611 L442.91250399271087 173.61117961094703 L445.2381144101049 175.57001626825217 L447.5637248274991 177.56245177596665 L449.8893352448931 179.58846275177294 L452.2149456622873 181.64802616774318 L454.54055607968144 183.7411193558285 L456.86616649707554 185.8677200123985 L459.1917769144697 188.0278062018855 L461.5173873318638 190.22135635958705 L463.84299774925796 192.4483492936814 L466.16860816665206 194.70876418650562 L468.49421858404617 197.00258059514766 L470.8198290014403 199.32977845140016 L473.14543941883437 201.6903380611221 L475.47104983622853 204.08424010305407 L477.7966602536227 206.5114656271288 L480.12227067101674 208.9719960523189 L482.4478810884109 211.46581316406065 L484.773491505805 213.99289911129017 L487.09910192319916 216.55323640312906 L489.4247123405933 219.14680790525088 L491.7503227579874 221.77359683596154 L494.0759331753816 224.43358676202342 L496.4015435927756 227.12676159424967 L498.7271540101698 229.85310558289785 L501.05276442756394 232.61260331288443 L503.378374844958 235.40523969884634 L505.70398526235215 238.2309999800692 L508.02959567974625 241.089869715303 L510.3552060971404 243.98183477748444 L512.6808165145345 246.90688134838248 L515.0064269319287 249.86499591318426 L517.3320373493227 252.85616525503582 L519.6576477667169 255.8803764495509 L521.983258184111 258.93761685930224 L524.3088686015051 262.02787412830423 L526.6344790188992 265.1511361765011 L528.9600894362934 268.30739119426727 L531.2856998536874 271.4966276369307 L533.6113102710816 274.7188342193271 L535.9369206884758 277.97399991039083 L538.2625311058698 281.2621139277919 L540.5881415232641 284.5831657326223 L542.9137519406581 287.9371450241381 L545.2393623580523 291.32404173456325 L547.5649727754463 294.74384602395645 L549.8905831928405 298.1965482751485 L552.2161936102347 301.6821390887493 L554.5418040276287 305.20060927823084 L556.8674144450229 308.7519498650873 L559.1930248624169 312.33615207407223 L561.5186352798112 315.95320732851917 L563.8442456972052 319.6031072457419 L566.1698561145994 323.28584363251935 L568.4954665319935 327.00140848066417 L570.8210769493876 330.74979396267537 L573.1466873667817 334.53099242747686 L575.4722977841759 338.34499639624 L577.79790820157 342.1917985582921 L580.1235186189641 346.0713917671098 L582.4491290363583 349.98376903639604 L584.7747394537523 353.9289235362426 L587.1003498711464 357.90684858937453 L589.4259602885406 361.91753766747894 L591.7515707059347 365.960984387614 L594.0771811233288 370.03718250870077 L596.402791540723 374.14612592809374 L598.728401958117 378.287808678231 L601.0540123755112 382.4622249233623 L603.3796227929054 386.66936895635365 L605.7052332102994 390.9092351955676 L608.0308436276936 395.1818181818182 " fill="none" stroke-width="1.6500000000000001" stroke="rgb(187,187,187)" stroke-opacity="1.0">
          </path>
        </g>
      </g>
      <g transform="translate(35.01530667574961 0.0 ) " clip-path="url(#xXxprefixXx2)" clip-bounds-jfx="[rect (0.0, 0.0), (636.9846933242504, 414.0)]">
        <defs>
          <clipPath id="xXxprefixXx2">
            <rect x="0.0" y="0.0" width="636.9846933242504" height="414.0">
            </rect>
          </clipPath>
        </defs>
        <g>
          
          <g >
            <circle fill="#bbbbbb" stroke="#bbbbbb" stroke-opacity="0.0" stroke-width="0.0" cx="28.95384969655686" cy="275.70711022769666" r="3.3000000000000003" />
            <circle fill="#bbbbbb" stroke="#bbbbbb" stroke-opacity="0.0" stroke-width="0.0" cx="37.727743543998315" cy="283.7125188878749" r="3.3000000000000003" />
            <circle fill="#bbbbbb" stroke="#bbbbbb" stroke-opacity="0.0" stroke-width="0.0" cx="40.65237482647882" cy="284.10131185212254" r="3.3000000000000003" />
            <circle fill="#bbbbbb" stroke="#bbbbbb" stroke-opacity="0.0" stroke-width="0.0" cx="43.577006108959324" cy="279.4849066696299" r="3.3000000000000003" />
            <circle fill="#bbbbbb" stroke="#bbbbbb" stroke-opacity="0.0" stroke-width="0.0" cx="58.20016252136173" cy="292.0156401221506" r="3.3000000000000003" />
            <circle fill="#bbbbbb" stroke="#bbbbbb" stroke-opacity="0.0" stroke-width="0.0" cx="64.04942508632271" cy="275.4325124678254" r="3.3000000000000003" />
            <circle fill="#bbbbbb" stroke="#bbbbbb" stroke-opacity="0.0" stroke-width="0.0" cx="69.8986876512837" cy="266.5509662807348" r="3.3000000000000003" />
            <circle fill="#bbbbbb" stroke="#bbbbbb" stroke-opacity="0.0" stroke-width="0.0" cx="78.67258149872515" cy="261.4446247066743" r="3.3000000000000003" />
            <circle fill="#bbbbbb" stroke="#bbbbbb" stroke-opacity="0.0" stroke-width="0.0" cx="96.22036919360806" cy="264.85256702730936" r="3.3000000000000003" />
            <circle fill="#bbbbbb" stroke="#bbbbbb" stroke-opacity="0.0" stroke-width="0.0" cx="102.06963175856907" cy="268.18980523247103" r="3.3000000000000003" />
            <circle fill="#bbbbbb" stroke="#bbbbbb" stroke-opacity="0.0" stroke-width="0.0" cx="122.54205073593246" cy="255.15604680213562" r="3.3000000000000003" />
            <circle fill="#bbbbbb" stroke="#bbbbbb" stroke-opacity="0.0" stroke-width="0.0" cx="128.39131330089344" cy="258.21361107088575" r="3.3000000000000003" />
            <circle fill="#bbbbbb" stroke="#bbbbbb" stroke-opacity="0.0" stroke-width="0.0" cx="137.16520714833493" cy="250.02108626031227" r="3.3000000000000003" />
            <circle fill="#bbbbbb" stroke="#bbbbbb" stroke-opacity="0.0" stroke-width="0.0" cx="140.0898384308154" cy="238.01374172286086" r="3.3000000000000003" />
            <circle fill="#bbbbbb" stroke="#bbbbbb" stroke-opacity="0.0" stroke-width="0.0" cx="145.93910099577639" cy="251.93532319101956" r="3.3000000000000003" />
            <circle fill="#bbbbbb" stroke="#bbbbbb" stroke-opacity="0.0" stroke-width="0.0" cx="148.8637322782569" cy="245.38795056970264" r="3.3000000000000003" />
            <circle fill="#bbbbbb" stroke="#bbbbbb" stroke-opacity="0.0" stroke-width="0.0" cx="172.26078253810078" cy="229.11709589632054" r="3.3000000000000003" />
            <circle fill="#bbbbbb" stroke="#bbbbbb" stroke-opacity="0.0" stroke-width="0.0" cx="178.11004510306176" cy="217.2699095592363" r="3.3000000000000003" />
            <circle fill="#bbbbbb" stroke="#bbbbbb" stroke-opacity="0.0" stroke-width="0.0" cx="181.03467638554227" cy="226.46191257977063" r="3.3000000000000003" />
            <circle fill="#bbbbbb" stroke="#bbbbbb" stroke-opacity="0.0" stroke-width="0.0" cx="192.7332015154642" cy="199.02249650628323" r="3.3000000000000003" />
            <circle fill="#bbbbbb" stroke="#bbbbbb" stroke-opacity="0.0" stroke-width="0.0" cx="195.6578327979447" cy="199.80121368140559" r="3.3000000000000003" />
            <circle fill="#bbbbbb" stroke="#bbbbbb" stroke-opacity="0.0" stroke-width="0.0" cx="210.28098921034714" cy="171.8445458078968" r="3.3000000000000003" />
            <circle fill="#bbbbbb" stroke="#bbbbbb" stroke-opacity="0.0" stroke-width="0.0" cx="257.07508973003496" cy="102.18044468205179" r="3.3000000000000003" />
            <circle fill="#bbbbbb" stroke="#bbbbbb" stroke-opacity="0.0" stroke-width="0.0" cx="259.99972101251547" cy="99.10522381425312" r="3.3000000000000003" />
            <circle fill="#bbbbbb" stroke="#bbbbbb" stroke-opacity="0.0" stroke-width="0.0" cx="265.8489835774764" cy="81.93744942140236" r="3.3000000000000003" />
            <circle fill="#bbbbbb" stroke="#bbbbbb" stroke-opacity="0.0" stroke-width="0.0" cx="268.7736148599569" cy="81.32079162999463" r="3.3000000000000003" />
            <circle fill="#bbbbbb" stroke="#bbbbbb" stroke-opacity="0.0" stroke-width="0.0" cx="271.69824614243737" cy="72.5489649830771" r="3.3000000000000003" />
            <circle fill="#bbbbbb" stroke="#bbbbbb" stroke-opacity="0.0" stroke-width="0.0" cx="283.39677127235933" cy="61.34547965401731" r="3.3000000000000003" />
            <circle fill="#bbbbbb" stroke="#bbbbbb" stroke-opacity="0.0" stroke-width="0.0" cx="289.24603383732034" cy="63.965717329127244" r="3.3000000000000003" />
            <circle fill="#bbbbbb" stroke="#bbbbbb" stroke-opacity="0.0" stroke-width="0.0" cx="295.0952964022813" cy="41.08114712592595" r="3.3000000000000003" />
            <circle fill="#bbbbbb" stroke="#bbbbbb" stroke-opacity="0.0" stroke-width="0.0" cx="298.0199276847618" cy="22.157166141183268" r="3.3000000000000003" />
            <circle fill="#bbbbbb" stroke="#bbbbbb" stroke-opacity="0.0" stroke-width="0.0" cx="321.4169779446057" cy="19.582541512611044" r="3.3000000000000003" />
            <circle fill="#bbbbbb" stroke="#bbbbbb" stroke-opacity="0.0" stroke-width="0.0" cx="324.34160922708617" cy="18.818181818181756" r="3.3000000000000003" />
            <circle fill="#bbbbbb" stroke="#bbbbbb" stroke-opacity="0.0" stroke-width="0.0" cx="327.26624050956667" cy="18.97027611914166" r="3.3000000000000003" />
            <circle fill="#bbbbbb" stroke="#bbbbbb" stroke-opacity="0.0" stroke-width="0.0" cx="330.1908717920472" cy="23.10454421415301" r="3.3000000000000003" />
            <circle fill="#bbbbbb" stroke="#bbbbbb" stroke-opacity="0.0" stroke-width="0.0" cx="338.96476563948863" cy="36.31359651174574" r="3.3000000000000003" />
            <circle fill="#bbbbbb" stroke="#bbbbbb" stroke-opacity="0.0" stroke-width="0.0" cx="347.7386594869301" cy="46.1006490202887" r="3.3000000000000003" />
            <circle fill="#bbbbbb" stroke="#bbbbbb" stroke-opacity="0.0" stroke-width="0.0" cx="368.2110784642935" cy="60.65287024812892" r="3.3000000000000003" />
            <circle fill="#bbbbbb" stroke="#bbbbbb" stroke-opacity="0.0" stroke-width="0.0" cx="374.0603410292545" cy="86.25967256108956" r="3.3000000000000003" />
            <circle fill="#bbbbbb" stroke="#bbbbbb" stroke-opacity="0.0" stroke-width="0.0" cx="385.7588661591765" cy="109.54658662296237" r="3.3000000000000003" />
            <circle fill="#bbbbbb" stroke="#bbbbbb" stroke-opacity="0.0" stroke-width="0.0" cx="391.60812872413743" cy="126.49101101910654" r="3.3000000000000003" />
            <circle fill="#bbbbbb" stroke="#bbbbbb" stroke-opacity="0.0" stroke-width="0.0" cx="412.08054770150085" cy="156.15362266128218" r="3.3000000000000003" />
            <circle fill="#bbbbbb" stroke="#bbbbbb" stroke-opacity="0.0" stroke-width="0.0" cx="415.00517898398135" cy="156.2848899519153" r="3.3000000000000003" />
            <circle fill="#bbbbbb" stroke="#bbbbbb" stroke-opacity="0.0" stroke-width="0.0" cx="423.7790728314228" cy="168.10593592666862" r="3.3000000000000003" />
            <circle fill="#bbbbbb" stroke="#bbbbbb" stroke-opacity="0.0" stroke-width="0.0" cx="426.7037041139033" cy="183.81844418848706" r="3.3000000000000003" />
            <circle fill="#bbbbbb" stroke="#bbbbbb" stroke-opacity="0.0" stroke-width="0.0" cx="429.6283353963838" cy="183.30626987426055" r="3.3000000000000003" />
            <circle fill="#bbbbbb" stroke="#bbbbbb" stroke-opacity="0.0" stroke-width="0.0" cx="435.47759796134477" cy="177.1432553663763" r="3.3000000000000003" />
            <circle fill="#bbbbbb" stroke="#bbbbbb" stroke-opacity="0.0" stroke-width="0.0" cx="438.4022292438252" cy="189.7493459984249" r="3.3000000000000003" />
            <circle fill="#bbbbbb" stroke="#bbbbbb" stroke-opacity="0.0" stroke-width="0.0" cx="458.87464822118864" cy="225.47810284824754" r="3.3000000000000003" />
            <circle fill="#bbbbbb" stroke="#bbbbbb" stroke-opacity="0.0" stroke-width="0.0" cx="470.57317335111065" cy="226.609680316707" r="3.3000000000000003" />
            <circle fill="#bbbbbb" stroke="#bbbbbb" stroke-opacity="0.0" stroke-width="0.0" cx="473.49780463359116" cy="223.39522629890723" r="3.3000000000000003" />
            <circle fill="#bbbbbb" stroke="#bbbbbb" stroke-opacity="0.0" stroke-width="0.0" cx="476.4224359160716" cy="234.47345073748525" r="3.3000000000000003" />
            <circle fill="#bbbbbb" stroke="#bbbbbb" stroke-opacity="0.0" stroke-width="0.0" cx="479.3470671985521" cy="237.48832309787116" r="3.3000000000000003" />
            <circle fill="#bbbbbb" stroke="#bbbbbb" stroke-opacity="0.0" stroke-width="0.0" cx="485.19632976351306" cy="230.9551052204737" r="3.3000000000000003" />
            <circle fill="#bbbbbb" stroke="#bbbbbb" stroke-opacity="0.0" stroke-width="0.0" cx="488.12096104599357" cy="248.79674119703853" r="3.3000000000000003" />
            <circle fill="#bbbbbb" stroke="#bbbbbb" stroke-opacity="0.0" stroke-width="0.0" cx="493.9702236109545" cy="253.8056270979808" r="3.3000000000000003" />
            <circle fill="#bbbbbb" stroke="#bbbbbb" stroke-opacity="0.0" stroke-width="0.0" cx="499.8194861759155" cy="251.57910884893968" r="3.3000000000000003" />
            <circle fill="#bbbbbb" stroke="#bbbbbb" stroke-opacity="0.0" stroke-width="0.0" cx="502.744117458396" cy="254.52425007154193" r="3.3000000000000003" />
            <circle fill="#bbbbbb" stroke="#bbbbbb" stroke-opacity="0.0" stroke-width="0.0" cx="520.2919051532789" cy="263.4321797411354" r="3.3000000000000003" />
            <circle fill="#bbbbbb" stroke="#bbbbbb" stroke-opacity="0.0" stroke-width="0.0" cx="526.1411677182399" cy="288.11847828878047" r="3.3000000000000003" />
            <circle fill="#bbbbbb" stroke="#bbbbbb" stroke-opacity="0.0" stroke-width="0.0" cx="531.9904302832009" cy="276.0905671149648" r="3.3000000000000003" />
            <circle fill="#bbbbbb" stroke="#bbbbbb" stroke-opacity="0.0" stroke-width="0.0" cx="534.9150615656813" cy="256.1888484731995" r="3.3000000000000003" />
            <circle fill="#bbbbbb" stroke="#bbbbbb" stroke-opacity="0.0" stroke-width="0.0" cx="549.5382179780838" cy="277.56079273841044" r="3.3000000000000003" />
            <circle fill="#bbbbbb" stroke="#bbbbbb" stroke-opacity="0.0" stroke-width="0.0" cx="572.9352682379277" cy="287.53977280066556" r="3.3000000000000003" />
            <circle fill="#bbbbbb" stroke="#bbbbbb" stroke-opacity="0.0" stroke-width="0.0" cx="593.4076872152912" cy="289.30437275879814" r="3.3000000000000003" />
            <circle fill="#bbbbbb" stroke="#bbbbbb" stroke-opacity="0.0" stroke-width="0.0" cx="596.3323184977717" cy="290.59679972143624" r="3.3000000000000003" />
            <circle fill="#bbbbbb" stroke="#bbbbbb" stroke-opacity="0.0" stroke-width="0.0" cx="608.0308436276936" cy="287.49918863405435" r="3.3000000000000003" />
          </g>
        </g>
      </g>
    </g>
    <g transform="translate(14.5 217.0 ) rotate(-90.0 ) ">
      <text class="axis-title-y" y="0.0" text-anchor="middle">
      efficiency
      </text>
    </g>
    <g transform="translate(376.50765333787484 461.5 ) ">
      <text class="axis-title-x" y="0.0" text-anchor="middle">
      x
      </text>
    </g>
    <path fill="rgb(0,0,0)" fill-opacity="0.0" stroke="rgb(187,187,187)" stroke-opacity="1.0" stroke-width="0.0" d="M0.0 0.0 L0.0 470.0 L705.0 470.0 L705.0 0.0 Z">
    </path>
  </g>
  <g id="xXxprefixXx3">
  </g>
</svg>