<svg xmlns="http://www.w3.org/2000/svg" xmlns:xlink="http://www.w3.org/1999/xlink" class="plt-container" width="705.0" height="470.0">
  <style type="text/css">
  .plt-container {
   font-family: Lucida Grande, sans-serif;
   user-select: none;
   -webkit-user-select: none;
   -moz-user-select: none;
   -ms-user-select: none;
}
text {
   text-rendering: optimizeLegibility;
}
#xXxprefixXx0 .plot-title {
   fill: #bbbbbb;
   font-family: Lucida Grande, sans-serif;
   font-size: 16.0px;
   font-weight: normal;
   font-style: normal;   
}
#xXxprefixXx0 .plot-subtitle {
   fill: #bbbbbb;
   font-family: Lucida Grande, sans-serif;
   font-size: 15.0px;
   font-weight: normal;
   font-style: normal;   
}
#xXxprefixXx0 .plot-caption {
   fill: #bbbbbb;
   font-family: Lucida Grande, sans-serif;
   font-size: 13.0px;
   font-weight: normal;
   font-style: normal;   
}
#xXxprefixXx0 .legend-title {
   fill: #bbbbbb;
   font-family: Lucida Grande, sans-serif;
   font-size: 15.0px;
   font-weight: normal;
   font-style: normal;   
}
#xXxprefixXx0 .legend-item {
   fill: #bbbbbb;
   font-family: Lucida Grande, sans-serif;
   font-size: 13.0px;
   font-weight: normal;
   font-style: normal;   
}
#xXxprefixXx0 .axis-title-x {
   fill: #bbbbbb;
   font-family: Lucida Grande, sans-serif;
   font-size: 15.0px;
   font-weight: normal;
   font-style: normal;   
}
#xXxprefixXx0 .axis-text-x {
   fill: #bbbbbb;
   font-family: Lucida Grande, sans-serif;
   font-size: 13.0px;
   font-weight: normal;
   font-style: normal;   
}
#xXxprefixXx2 .axis-tooltip-text-x {
   fill: #303030;
   font-family: Lucida Grande, sans-serif;
   font-size: 13.0px;
   font-weight: normal;
   font-style: normal;   
}
#xXxprefixXx0 .axis-title-y {
   fill: #bbbbbb;
   font-family: Lucida Grande, sans-serif;
   font-size: 15.0px;
   font-weight: normal;
   font-style: normal;   
}
#xXxprefixXx0 .axis-text-y {
   fill: #bbbbbb;
   font-family: Lucida Grande, sans-serif;
   font-size: 13.0px;
   font-weight: normal;
   font-style: normal;   
}
#xXxprefixXx2 .axis-tooltip-text-y {
   fill: #303030;
   font-family: Lucida Grande, sans-serif;
   font-size: 13.0px;
   font-weight: normal;
   font-style: normal;   
}
#xXxprefixXx0 .facet-strip-text-x {
   fill: #bbbbbb;
   font-family: Lucida Grande, sans-serif;
   font-size: 13.0px;
   font-weight: normal;
   font-style: normal;   
}
#xXxprefixXx0 .facet-strip-text-y {
   fill: #bbbbbb;
   font-family: Lucida Grande, sans-serif;
   font-size: 13.0px;
   font-weight: normal;
   font-style: normal;   
}
#xXxprefixXx2 .tooltip-text {
   fill: #bbbbbb;
   font-family: Lucida Grande, sans-serif;
   font-size: 13.0px;
   font-weight: normal;
   font-style: normal;   
}
#xXxprefixXx2 .tooltip-title {
   fill: #bbbbbb;
   font-family: Lucida Grande, sans-serif;
   font-size: 13.0px;
   font-weight: bold;
   font-style: normal;   
}
#xXxprefixXx2 .tooltip-label {
   fill: #bbbbbb;
   font-family: Lucida Grande, sans-serif;
   font-size: 13.0px;
   font-weight: bold;
   font-style: normal;   
}

  </style>
  <g id="xXxprefixXx0">
    <path fill-rule="evenodd" fill="rgb(25,25,28)" fill-opacity="1.0" d="M0.0 0.0 L0.0 470.0 L705.0 470.0 L705.0 0.0 Z">
    </path>
    <g transform="translate(23.0 10.0 ) ">
      <g transform="translate(50.97651758668602 414.0 ) ">
        <line x1="30.332798103362933" y1="-0.0" x2="30.332798103362933" y2="-414.0" stroke="rgb(71,71,71)" stroke-opacity="1.0" stroke-width="1.0">
        </line>
        <line x1="117.86929828962636" y1="-0.0" x2="117.86929828962636" y2="-414.0" stroke="rgb(71,71,71)" stroke-opacity="1.0" stroke-width="1.0">
        </line>
        <line x1="205.40579847588978" y1="-0.0" x2="205.40579847588978" y2="-414.0" stroke="rgb(71,71,71)" stroke-opacity="1.0" stroke-width="1.0">
        </line>
        <line x1="292.94229866215323" y1="-0.0" x2="292.94229866215323" y2="-414.0" stroke="rgb(71,71,71)" stroke-opacity="1.0" stroke-width="1.0">
        </line>
        <line x1="380.47879884841666" y1="-0.0" x2="380.47879884841666" y2="-414.0" stroke="rgb(71,71,71)" stroke-opacity="1.0" stroke-width="1.0">
        </line>
        <line x1="468.0152990346801" y1="-0.0" x2="468.0152990346801" y2="-414.0" stroke="rgb(71,71,71)" stroke-opacity="1.0" stroke-width="1.0">
        </line>
        <line x1="555.5517992209435" y1="-0.0" x2="555.5517992209435" y2="-414.0" stroke="rgb(71,71,71)" stroke-opacity="1.0" stroke-width="1.0">
        </line>
        <g transform="translate(30.332798103362933 0.0 ) ">
          <line stroke-width="1.0" stroke="rgb(187,187,187)" stroke-opacity="1.0" x2="0.0" y2="4.0">
          </line>
          <g transform="translate(0.0 7.0 ) ">
            <text class="axis-text-x" text-anchor="middle" dy="0.7em">
            200
            </text>
          </g>
        </g>
        <g transform="translate(117.86929828962636 0.0 ) ">
          <line stroke-width="1.0" stroke="rgb(187,187,187)" stroke-opacity="1.0" x2="0.0" y2="4.0">
          </line>
          <g transform="translate(0.0 7.0 ) ">
            <text class="axis-text-x" text-anchor="middle" dy="0.7em">
            300
            </text>
          </g>
        </g>
        <g transform="translate(205.40579847588978 0.0 ) ">
          <line stroke-width="1.0" stroke="rgb(187,187,187)" stroke-opacity="1.0" x2="0.0" y2="4.0">
          </line>
          <g transform="translate(0.0 7.0 ) ">
            <text class="axis-text-x" text-anchor="middle" dy="0.7em">
            400
            </text>
          </g>
        </g>
        <g transform="translate(292.94229866215323 0.0 ) ">
          <line stroke-width="1.0" stroke="rgb(187,187,187)" stroke-opacity="1.0" x2="0.0" y2="4.0">
          </line>
          <g transform="translate(0.0 7.0 ) ">
            <text class="axis-text-x" text-anchor="middle" dy="0.7em">
            500
            </text>
          </g>
        </g>
        <g transform="translate(380.47879884841666 0.0 ) ">
          <line stroke-width="1.0" stroke="rgb(187,187,187)" stroke-opacity="1.0" x2="0.0" y2="4.0">
          </line>
          <g transform="translate(0.0 7.0 ) ">
            <text class="axis-text-x" text-anchor="middle" dy="0.7em">
            600
            </text>
          </g>
        </g>
        <g transform="translate(468.0152990346801 0.0 ) ">
          <line stroke-width="1.0" stroke="rgb(187,187,187)" stroke-opacity="1.0" x2="0.0" y2="4.0">
          </line>
          <g transform="translate(0.0 7.0 ) ">
            <text class="axis-text-x" text-anchor="middle" dy="0.7em">
            700
            </text>
          </g>
        </g>
        <g transform="translate(555.5517992209435 0.0 ) ">
          <line stroke-width="1.0" stroke="rgb(187,187,187)" stroke-opacity="1.0" x2="0.0" y2="4.0">
          </line>
          <g transform="translate(0.0 7.0 ) ">
            <text class="axis-text-x" text-anchor="middle" dy="0.7em">
            800
            </text>
          </g>
        </g>
        <line x1="0.0" y1="0.0" x2="621.023482413314" y2="0.0" stroke-width="1.0" stroke="rgb(187,187,187)" stroke-opacity="1.0">
        </line>
      </g>
      <g transform="translate(50.97651758668602 0.0 ) ">
        <line x1="0.0" y1="365.0033638823094" x2="621.023482413314" y2="365.0033638823094" stroke="rgb(71,71,71)" stroke-opacity="1.0" stroke-width="1.0">
        </line>
        <line x1="0.0" y1="316.00672776461874" x2="621.023482413314" y2="316.00672776461874" stroke="rgb(71,71,71)" stroke-opacity="1.0" stroke-width="1.0">
        </line>
        <line x1="0.0" y1="267.01009164692806" x2="621.023482413314" y2="267.01009164692806" stroke="rgb(71,71,71)" stroke-opacity="1.0" stroke-width="1.0">
        </line>
        <line x1="0.0" y1="218.01345552923743" x2="621.023482413314" y2="218.01345552923743" stroke="rgb(71,71,71)" stroke-opacity="1.0" stroke-width="1.0">
        </line>
        <line x1="0.0" y1="169.01681941154678" x2="621.023482413314" y2="169.01681941154678" stroke="rgb(71,71,71)" stroke-opacity="1.0" stroke-width="1.0">
        </line>
        <line x1="0.0" y1="120.02018329385612" x2="621.023482413314" y2="120.02018329385612" stroke="rgb(71,71,71)" stroke-opacity="1.0" stroke-width="1.0">
        </line>
        <line x1="0.0" y1="71.0235471761655" x2="621.023482413314" y2="71.0235471761655" stroke="rgb(71,71,71)" stroke-opacity="1.0" stroke-width="1.0">
        </line>
        <line x1="0.0" y1="22.026911058474866" x2="621.023482413314" y2="22.026911058474866" stroke="rgb(71,71,71)" stroke-opacity="1.0" stroke-width="1.0">
        </line>
        <g transform="translate(0.0 414.0 ) ">
          <g transform="translate(-3.0 0.0 ) ">
            <text class="axis-text-y" text-anchor="end" dy="0.35em">
            0.0000
            </text>
          </g>
        </g>
        <g transform="translate(0.0 365.0033638823094 ) ">
          <g transform="translate(-3.0 0.0 ) ">
            <text class="axis-text-y" text-anchor="end" dy="0.35em">
            0.0005
            </text>
          </g>
        </g>
        <g transform="translate(0.0 316.00672776461874 ) ">
          <g transform="translate(-3.0 0.0 ) ">
            <text class="axis-text-y" text-anchor="end" dy="0.35em">
            0.0010
            </text>
          </g>
        </g>
        <g transform="translate(0.0 267.01009164692806 ) ">
          <g transform="translate(-3.0 0.0 ) ">
            <text class="axis-text-y" text-anchor="end" dy="0.35em">
            0.0015
            </text>
          </g>
        </g>
        <g transform="translate(0.0 218.01345552923743 ) ">
          <g transform="translate(-3.0 0.0 ) ">
            <text class="axis-text-y" text-anchor="end" dy="0.35em">
            0.0020
            </text>
          </g>
        </g>
        <g transform="translate(0.0 169.01681941154678 ) ">
          <g transform="translate(-3.0 0.0 ) ">
            <text class="axis-text-y" text-anchor="end" dy="0.35em">
            0.0025
            </text>
          </g>
        </g>
        <g transform="translate(0.0 120.02018329385612 ) ">
          <g transform="translate(-3.0 0.0 ) ">
            <text class="axis-text-y" text-anchor="end" dy="0.35em">
            0.0030
            </text>
          </g>
        </g>
        <g transform="translate(0.0 71.0235471761655 ) ">
          <g transform="translate(-3.0 0.0 ) ">
            <text class="axis-text-y" text-anchor="end" dy="0.35em">
            0.0035
            </text>
          </g>
        </g>
        <g transform="translate(0.0 22.026911058474866 ) ">
          <g transform="translate(-3.0 0.0 ) ">
            <text class="axis-text-y" text-anchor="end" dy="0.35em">
            0.0040
            </text>
          </g>
        </g>
      </g>
      <g transform="translate(50.97651758668602 0.0 ) " clip-path="url(#xXxprefixXx1)" clip-bounds-jfx="[rect (0.0, 0.0), (621.023482413314, 414.0)]">
        <defs>
          <clipPath id="xXxprefixXx1">
            <rect x="0.0" y="0.0" width="621.023482413314" height="414.0">
            </rect>
          </clipPath>
        </defs>
        <g>
          <path d="M28.22834010969609 409.13498684886406 L28.22834010969609 409.13498684886406 L29.33316751124977 409.0377013814133 L30.43799491280342 408.95077474735825 L31.542822314357096 408.87434656881527 L32.647649715910745 408.80839646285546 L33.75247711746442 408.7527359942975 L34.85730451901807 408.70700262440334 L35.96213192057175 408.6706557911811 L37.0669593221254 408.64297522334175 L38.17178672367908 408.623061554516 L39.276614125232726 408.60983926783837 L40.3814415267864 408.602061964127 L41.48626892834005 408.5983199103259 L42.59109632989373 408.597049789254 L43.69592373144738 408.5965465376297 L44.80075113300106 408.59497712734327 L45.90557853455471 408.5903961155266 L47.010405936108384 408.5807627625432 L48.11523333766203 408.5639594939656 L49.22006073921571 408.53781146323865 L50.32488814076936 408.5001069563038 L51.42971554232304 408.4486183681946 L52.53454294387669 408.3811234746571 L53.639370345430365 408.29542671931057 L54.744197746984014 408.18938023878127 L55.84902514853769 408.06090435461084 L56.95385255009137 407.9080072714711 L58.05867995164499 407.72880373616556 L59.163507353198696 407.5215324308254 L60.26833475475232 407.2845718963019 L61.37316215630602 407.0164548076037 L62.477989557859644 406.71588045183285 L63.58281695941335 406.38172528983586 L64.68764436096697 406.01305151503146 L65.79247176252068 405.60911355585154 L66.8972991640743 405.1693625011163 L68.002126565628 404.693448459615 L69.10695396718162 404.18122089531323 L70.21178136873533 403.6327270071196 L71.31660877028895 403.0482082462336 L72.42143617184266 402.42809508406776 L73.52626357339628 401.77300015903705 L74.63109097494996 401.08370994072163 L75.7359183765036 400.3611750548459 L76.84074577805728 399.6064994121742 L77.94557317961093 398.82092827904563 L79.05040058116461 398.0058354173413 L80.15522798271826 397.16270940788775 L81.26005538427196 396.29313925458354 L82.36488278582559 395.3987993479733 L83.46971018737929 394.48143384781974 L84.57453758893291 393.54284052575593 L85.67936499048662 392.58485409266035 L86.78419239204024 391.60932902228706 L87.88901979359389 390.6181218740612 L88.99384719514757 389.6130731148182 L90.09867459670127 388.5959884423613 L91.2035019982549 387.56861962348603 L92.30832939980854 386.5326448756784 L93.41315680136222 385.48964884478676 L94.51798420291593 384.44110225995354 L95.62281160446955 383.3883413809973 L96.7276390060232 382.3325473909305 L97.83246640757687 381.27472592579323 L98.93729380913058 380.2156869736585 L100.0421212106842 379.1560254125886 L101.14694861223785 378.0961024915115 L102.25177601379153 377.0360285865131 L103.35660341534523 375.9756475861481 L104.46143081689885 374.9145232715279 L105.5662582184525 373.85192805898447 L106.67108562000618 372.7868344642188 L107.77591302155989 371.7179096267189 L108.88074042311354 370.6435132019781 L109.98556782466716 369.5616988873139 L111.09039522622086 368.470219795905 L112.19522262777454 367.36653783453403 L113.30005002932816 366.24783717523184 L114.40487743088184 365.11104184160905 L115.50970483243552 363.9528373593197 L116.6145322339892 362.7696963490402 L117.71935963554282 361.55790787167206 L118.8241870370965 360.31361027113326 L119.92901443865017 359.03282720170256 L121.03384184020379 357.71150647570175 L122.13866924175747 356.34556132415935 L123.24349664331115 354.93091362838373 L124.34832404486482 353.4635386540057 L125.45315144641845 351.9395108005127 L126.55797884797212 350.355049867735 L127.6628062495258 348.70656733498237 L128.76763365107948 346.99071214725814 L129.8724610526331 345.2044155047703 L130.97728845418678 343.3449341555139 L132.08211585574045 341.40989169484624 L133.18694325729413 339.3973173798982 L134.29177065884775 337.3056819698958 L135.39659806040143 335.1339301060471 L136.5014254619551 332.8815087471161 L137.6062528635088 330.5483911801993 L138.7110802650624 328.13509613208436 L139.81590766661608 325.64270151683854 L140.92073506816976 323.0728523722259 L142.02556246972344 320.42776256353676 L143.13038987127706 317.71020987096233 L144.23521727283074 314.92352412788847 L145.34004467438442 312.07156814442106 L146.4448720759381 309.1587112343961 L147.5496994774917 306.18979526573037 L148.6545268790454 303.1700932731119 L149.75935428059907 300.10526080753357 L150.86418168215275 297.00128034699947 L151.96900908370637 293.8643992537107 L153.07383648526005 290.70106193114714 L154.17866388681372 287.51783700474743 L155.2834912883674 284.3213405167369 L156.38831868992102 281.1181562829239 L157.4931460914747 277.91475470061465 L158.59797349302838 274.7174114157775 L159.70280089458205 271.5321273481615 L160.80762829613568 268.36455162978893 L161.91245569768935 265.2199090304372 L163.01728309924303 262.1029334200324 L164.1221105007967 259.01780875010064 L165.22693790235033 255.96811892410278 L166.331765303904 252.95680777057333 L167.43659270545768 249.98615013636285 L168.54142010701136 247.05773488426814 L169.64624750856498 244.1724603158847 L170.75107491011866 241.33054225399033 L171.85590231167234 238.5315347174987 L172.96072971322602 235.77436281536157 L174.06555711477964 233.05736718334518 L175.1703845163333 230.37835899927563 L176.275211917887 227.73468434760716 L177.38003931944067 225.12329647183074 L178.4848667209943 222.54083426123316 L179.58969412254797 219.98370517312364 L180.69452152410165 217.44817069783105 L181.79934892565532 214.93043243443338 L182.90417632720894 212.42671686133005 L184.00900372876262 209.93335695648656 L185.1138311303163 207.44686894443294 L186.21865853186998 204.964022616108 L187.3234859334236 202.4819038770406 L188.42831333497728 199.99796842122458 L189.53314073653095 197.51008569366965 L190.63796813808463 195.01657258439917 L191.74279553963825 192.5162165809042 L192.84762294119193 190.00828838509608 L193.9524503427456 187.49254426551732 L195.05727774429928 184.9692186577233 L196.1621051458529 182.43900773830413 L197.26693254740658 179.90304487537853 L198.37175994896026 177.36286899653967 L199.47658735051394 174.82038701197055 L200.58141475206756 172.2778314851945 L201.68624215362124 169.73771475795647 L202.79106955517491 167.20278071167115 L203.8958969567286 164.67595528995344 L205.0007243582822 162.1602968200661 L206.1055517598359 159.65894706176815 L207.21037916138957 157.17508378652786 L208.3152065629432 154.71187555506094 L209.42003396449687 152.27243922322623 L210.52486136605054 149.85980057153313 L211.62968876760422 147.47685832729945 L212.73451616915784 145.12635173532345 L213.83934357071152 142.8108317361545 L214.9441709722652 140.53263573300484 L216.04899837381888 138.29386586994633 L217.1538257753725 136.09637070523354 L218.25865317692617 133.9417301431708 L219.36348057847985 131.8312434836381 L220.46830798003353 129.76592045739693 L221.57313538158715 127.74647513395882 L222.67796278314083 125.77332261339012 L223.7827901846945 123.84657843987685 L224.88761758624818 121.96606069941004 L225.9924449878018 120.13129478300249 L227.09727238935548 118.34152080742552 L228.20209979090916 116.59570368523981 L229.30692719246284 114.89254582331688 L230.41175459401646 113.23050240344787 L231.51658199557014 111.60779916029622 L232.6214093971238 110.02245252188374 L233.7262367986775 108.47229191812653 L234.8310642002311 106.95498399627365 L235.9358916017848 105.46805841190377 L237.04071900333847 104.00893479419693 L238.14554640489214 102.57495041869521 L239.25037380644577 101.16338806402888 L240.35520120799944 99.77150348517273 L241.46002860955312 98.39655190876829 L242.5648560111068 97.0358129491301 L243.66968341266042 95.68661335965925 L244.7745108142141 94.34634707510457 L245.87933821576777 93.01249206672378 L246.98416561732145 91.68262362415703 L248.08899301887507 90.35442379381902 L249.19382042042875 89.02568684090073 L250.29864782198243 87.6943207569845 L251.4034752235361 86.35834500290906 L252.50830262508973 85.01588485097847 L253.6131300266434 83.66516286516799 L254.71795742819708 82.30448822535385 L255.8227848297507 80.93224475420448 L256.92761223130435 79.54687863543069 L258.0324396328581 78.14688691241304 L259.1372670344117 76.73080791986706 L260.2420944359653 75.29721482249533 L261.34692183751906 73.84471340896005 L262.4517492390727 72.37194521393997 L263.5565766406264 70.87759691450884 L264.66140404218004 69.36041677018062 L265.76623144373366 67.81923865182557 L266.8710588452874 66.25301393816045 L267.975886246841 64.66085125678637 L269.08071364839464 63.04206371879144 L270.18554104994837 61.39622295245073 L271.290368451502 59.72321889448523 L272.3951958530557 58.02332395973633 L273.50002325460935 56.29725989536536 L274.60485065616297 54.54626534716709 L275.7096780577167 52.77216193622269 L276.8145054592703 50.97741647555915 L277.91933286082394 49.16519685876909 L279.0241602623777 47.33941913385132 L280.1289876639313 45.50478334099938 L281.23381506548503 43.6667958455302 L282.33864246703865 41.83177613597087 L283.4434698685924 40.00684637878834 L284.548297270146 38.199902418475745 L285.65312467169963 36.41956537473686 L286.75795207325325 34.67511350453918 L287.862779474807 32.976394550774216 L288.9676068763606 31.333719373927977 L290.07243427791434 29.757738240391916 L291.17726167946796 28.25930170143232 L292.2820890810217 26.849308521638307 L293.3869164825753 25.538543586241246 L294.49174388412894 24.33750911628249 L295.59657128568256 23.256252834273653 L296.7013986872363 22.304196938399173 L297.8062260887899 21.48997185156503 L298.91105349034365 20.82125870690936 L300.01588089189727 20.304644412130244 L301.120708293451 19.94549290311363 L302.2255356950046 19.747835858878602 L303.33036309655824 19.714285714285722 L304.43519049811187 19.8459732872239 L305.5400178996656 20.142511748933202 L306.6448453012192 20.6019880276545 L307.74967270277295 21.220982066877184 L308.8545001043266 21.99461368057456 L309.9593275058803 22.916616079876064 L311.06415490743393 23.979434508989982 L312.16898230898744 25.174347841637257 L313.2738097105412 26.491610470017065 L314.3786371120949 27.920611380609046 L315.4834645136485 29.450046966444575 L316.58829191520226 31.068103881748357 L317.6931193167559 32.76264810640669 L318.7979467183095 34.521416355219685 L319.90277411986324 36.33220603728057 L321.00760152141675 38.183060137799146 L322.1124289229705 40.0624436486267 L323.2172563245242 41.959408502793735 L324.32208372607784 43.86374435818033 L325.42691112763157 45.76611301075445 L326.5317385291852 47.6581646821063 L327.6365659307388 49.53263490316232 L328.74139333229255 51.383421189984006 L329.84622073384605 53.20563916401085 L330.9510481353998 54.995658194998725 L332.0558755369535 56.75111702949562 L333.16070293850714 58.47092020275517 L334.2655303400609 60.15521631179769 L335.3703577416145 61.805359449086836 L336.4751851431681 63.42385525975732 L337.58001254472185 65.01429319281687 L338.68483994627536 66.58126657277705 L339.7896673478291 68.13028212909222 L340.89449474938283 69.66766059441261 L341.99932215093645 71.20042992759312 L343.1041495524902 72.73621264276801 L344.2089769540438 74.28310864050081 L345.3138043555974 75.8495748494305 L346.41863175715116 77.44430290433974 L347.52345915870467 79.07609601505175 L348.6282865602584 80.75374612448877 L349.73311396181214 82.48591241606118 L350.83794136336576 84.28100221101028 L351.9427687649195 86.14705529431205 L353.0475961664731 88.09163272033902 L354.15242356802673 90.12171117248278 L355.25725096958047 92.24358397879018 L356.3620783711341 94.46276991211857 L357.4669057726877 96.78393092161525 L358.57173317424144 99.21079994568942 L359.67656057579507 101.7461199386837 L360.7813879773488 104.39159519849312 L361.8862153789024 107.147856005839 L362.99104278045604 110.01443747455 L364.0958701820098 112.98977336438196 L365.2006975835634 116.07120542362787 L366.305524985117 119.25500860983556 L367.41035238667075 122.5364322868262 L368.5151797882245 125.90975722005442 L369.6200071897781 129.3683678966218 L370.72483459133184 132.9048393887611 L371.82966199288535 136.51103766889963 L372.9344893944391 140.17823197971836 L374.0393167959927 143.89721757333484 L375.1441441975463 147.65844686917006 L376.24897159910006 151.45216684897576 L377.3537990006538 155.26856031794068 L378.4586264022074 159.09788851967863 L379.56345380376115 162.93063250576114 L380.66828120531466 166.75763063141073 L381.7731086068684 170.57020958029875 L382.877936008422 174.3603064137741 L383.98276340997563 178.1205792920587 L385.08759081152937 181.84450472410242 L386.1924182130831 185.5264594643029 L387.2972456146367 189.16178548209808 L388.40207301619034 192.74683677714327 L389.5069004177441 196.27900718985052 L390.6117278192976 199.75673875522585 L391.7165552208513 203.17951055719342 L392.82138262240494 206.54780845081225 L393.9262100239587 209.86307642074553 L395.0310374255124 213.12765072613624 L396.13586482706603 216.34467833534805 L397.24069222861965 219.5180214703289 L398.3455196301734 222.65215035216391 L399.4503470317269 225.75202646050042 L400.5551744332806 228.82297878511054 L401.66000183483425 231.8705756545848 L402.764829236388 234.9004947733555 L403.8696566379417 237.91839408377194 L404.97448403949534 240.9297859963309 L406.07931144104896 243.9399174014242 L407.1841388426027 246.95365769454446 L408.2889662441562 249.97539681951125 L409.39379364570993 253.00895506777152 L410.49862104726355 256.0575060738164 L411.6034484488173 259.12351412561384 L412.708275850371 262.20868657329345 L413.81310325192464 265.31394177798325 L414.91793065347827 268.43939270433026 L416.022758055032 271.5843459330789 L417.1275854565855 274.74731556180393 L418.23241285813924 277.92605117930657 L419.33724025969286 281.1175788480784 L420.4420676612466 284.3182538143586 L421.54689506280033 287.5238234900702 L422.65172246435395 290.72949911755205 L423.7565498659076 293.9300344374184 L424.8613772674613 297.1198096317483 L425.9662046690148 300.2929188076671 L427.07103207056855 303.44325931769924 L428.17585947212217 306.56462127959946 L429.2806868736759 309.65077575555307 L430.38551427522964 312.69556017390903 L431.49034167678326 315.6929597208755 L432.5951690783369 318.6371835895642 L433.6999964798906 321.52273514411684 L434.8048238814441 324.344475232254 L435.90965128299786 327.09767805564957 L437.0144786845515 329.77807917967647 L438.1193060861052 332.38191542850655 L439.22413348765895 334.90595656505286 L440.32896088921257 337.34752879533744 L441.4337882907662 339.7045302616875 L442.5386156923199 341.9754387975592 L443.64344309387343 344.15931230823435 L444.74827049542716 346.2557822162042 L445.8530978969809 348.26504046829757 L446.9579252985345 350.1878206445625 L448.06275270008825 352.0253737378806 L449.1675801016419 353.77943918988956 L450.2724075031955 355.452211774727 L451.37723490474923 357.0463049191893 L452.48206230630274 358.5647110378885 L453.58688970785647 360.01075944658186 L454.6917171094102 361.3880723975494 L455.7965445109638 362.70051975908365 L456.90137191251756 363.9521728379102 L458.00619931407107 365.1472578195857 L459.1110267156248 366.29010927824265 L460.2158541171784 367.38512418387205 L461.32068151873204 368.43671681284474 L462.4255089202858 369.4492749455528 L463.5303363218395 370.42711771376264 L464.63516372339313 371.3744554391969 L465.73999112494687 372.2953517836622 L466.8448185265004 373.19368850927737 L467.9496459280541 374.0731331246132 L469.05447332960773 374.937109668424 L470.15930073116135 375.7887728567663 L471.2641281327151 376.63098579138244 L472.3689555342688 377.4663013970706 L473.47378293582244 378.29694772326553 L474.5786103373762 379.12481721022704 L475.6834377389297 379.95145998317423 L476.7882651404834 380.7780811986381 L477.89309254203715 381.60554242652546 L478.99791994359066 382.43436700930414 L480.1027473451444 383.26474929678335 L481.2075747466981 384.0965676117167 L482.31240214825175 384.92940075847315 L483.41722954980537 385.76254784491476 L484.522056951359 386.5950511470343 L485.6268843529127 387.42572170748423 L486.73171175446646 388.2531673235332 L487.83653915601997 389.0758225478455 L488.9413665575737 389.8919802974306 L490.04619395912744 390.69982464273386 L491.15102136068106 391.4974643307053 L492.2558487622347 392.28296658327764 L493.3606761637884 393.05439070646236 L494.46550356534203 393.8098210455973 L495.57033096689577 394.54739882943153 L496.6751583684493 395.2653524598902 L497.779985770003 395.96202582560085 L498.88481317155674 396.63590424550694 L499.98964057311036 397.2856376839632 L501.094467974664 397.91006092023804 L502.1992953762177 398.5082104028537 L503.30412277777134 399.0793375720091 L504.4089501793251 399.6229184906524 L505.5137775808786 400.1386596856368 L506.6186049824323 400.62650016372277 L507.72343238398605 401.08660963178477 L508.8282597855397 401.5193830151539 L509.9330871870933 401.9254314312391 L511.037914588647 402.3055698360702 L512.1427419902006 402.66080161784566 L513.2475693917544 402.99230046267667 L514.3523967933079 403.3013898623235 L515.4572241948616 403.5895206707738 L516.5620515964154 403.858247145177 L517.666878997969 404.1092019262571 L518.7717063995226 404.344070423481 L519.8765338010763 404.56456507078366 L520.98136120263 404.7723999096438 L522.0861886041837 404.96926593812026 L523.1910160057372 405.15680763767847 L524.2958434072909 405.33660105509585 L525.4006708088447 405.5101337754345 L526.5054982103982 405.67878707519196 L527.6103256119519 405.8438204935725 L528.7151530135056 406.006359005728 L529.8199804150593 406.1673829261912 L530.9248078166129 406.327720614928 L532.0296352181665 406.4880440037794 L533.1344626197202 406.64886690874346 L534.239290021274 406.8105460446267 L535.3441174228275 406.9732846139665 L536.4489448243812 407.13713830251265 L537.553772225935 407.3020234794705 L538.6585996274886 407.467727372489 L539.7634270290422 407.6339199651577 L540.8682544305958 407.80016734853683 L541.9730818321495 407.96594624779084 L543.0779092337033 408.1306594400306 L544.1827366352568 408.29365177956777 L545.2875640368105 408.4542265514711 L546.3923914383643 408.611661883061 L547.4972188399179 408.76522695522914 L548.6020462414715 408.9141977706976 L549.7068736430252 409.0578722540048 L550.8117010445789 409.19558447765843 L551.9165284461326 409.3267178300893 L553.0213558476861 409.4507169634019 L554.1261832492398 409.5670983821248 L555.2310106507936 409.6754595579408 L556.3358380523472 409.7754864794866 L557.4406654539008 409.8669595705654 L558.5454928554545 409.94975793432394 L559.6503202570082 410.0238619049471 L560.7551476585619 410.0893539120593 L561.8599750601154 410.1464176861104 L562.9648024616691 410.1953358553901 L564.0696298632229 410.2364860067573 L565.1744572647765 410.2703353024665 L566.2792846663301 410.29743376439956 L567.3841120678838 410.3184063543165 L568.4889394694375 410.3339439941825 L569.5937668709912 410.3447936839664 L570.6985942725447 410.35174788530963 L571.8034216740984 410.355633347932 L572.9082490756522 410.357299561397 L574.0130764772058 410.3576070177806 L575.1179038787594 410.35741547078493 L576.2227312803132 410.3575723738937 L577.3275586818668 410.3589016743054 L578.4323860834205 410.36219313069483 L579.537213484974 410.3681923114956 L580.6420408865278 410.37759141656295 L581.7468682880815 410.3910210490334 L582.8516956896351 410.4090430462325 L583.9565230911887 410.4321444589474 L585.0613504927425 410.46073274762966 L586.1661778942961 410.49513224252826 L587.2710052958498 410.5355818927626 L588.3758326974033 410.58223430734677 L589.4806600989571 410.63515606955934 L590.5854875005108 410.6943292852144 L591.6903149020644 410.7596543056939 L592.795142303618 410.8309535483909 L592.795142303618 414.0 L591.6903149020644 414.0 L590.5854875005108 414.0 L589.4806600989571 414.0 L588.3758326974033 414.0 L587.2710052958498 414.0 L586.1661778942961 414.0 L585.0613504927425 414.0 L583.9565230911887 414.0 L582.8516956896351 414.0 L581.7468682880815 414.0 L580.6420408865278 414.0 L579.537213484974 414.0 L578.4323860834205 414.0 L577.3275586818668 414.0 L576.2227312803132 414.0 L575.1179038787594 414.0 L574.0130764772058 414.0 L572.9082490756522 414.0 L571.8034216740984 414.0 L570.6985942725447 414.0 L569.5937668709912 414.0 L568.4889394694375 414.0 L567.3841120678838 414.0 L566.2792846663301 414.0 L565.1744572647765 414.0 L564.0696298632229 414.0 L562.9648024616691 414.0 L561.8599750601154 414.0 L560.7551476585619 414.0 L559.6503202570082 414.0 L558.5454928554545 414.0 L557.4406654539008 414.0 L556.3358380523472 414.0 L555.2310106507936 414.0 L554.1261832492398 414.0 L553.0213558476861 414.0 L551.9165284461326 414.0 L550.8117010445789 414.0 L549.7068736430252 414.0 L548.6020462414715 414.0 L547.4972188399179 414.0 L546.3923914383643 414.0 L545.2875640368105 414.0 L544.1827366352568 414.0 L543.0779092337033 414.0 L541.9730818321495 414.0 L540.8682544305958 414.0 L539.7634270290422 414.0 L538.6585996274886 414.0 L537.553772225935 414.0 L536.4489448243812 414.0 L535.3441174228275 414.0 L534.239290021274 414.0 L533.1344626197202 414.0 L532.0296352181665 414.0 L530.9248078166129 414.0 L529.8199804150593 414.0 L528.7151530135056 414.0 L527.6103256119519 414.0 L526.5054982103982 414.0 L525.4006708088447 414.0 L524.2958434072909 414.0 L523.1910160057372 414.0 L522.0861886041837 414.0 L520.98136120263 414.0 L519.8765338010763 414.0 L518.7717063995226 414.0 L517.666878997969 414.0 L516.5620515964154 414.0 L515.4572241948616 414.0 L514.3523967933079 414.0 L513.2475693917544 414.0 L512.1427419902006 414.0 L511.037914588647 414.0 L509.9330871870933 414.0 L508.8282597855397 414.0 L507.72343238398605 414.0 L506.6186049824323 414.0 L505.5137775808786 414.0 L504.4089501793251 414.0 L503.30412277777134 414.0 L502.1992953762177 414.0 L501.094467974664 414.0 L499.98964057311036 414.0 L498.88481317155674 414.0 L497.779985770003 414.0 L496.6751583684493 414.0 L495.57033096689577 414.0 L494.46550356534203 414.0 L493.3606761637884 414.0 L492.2558487622347 414.0 L491.15102136068106 414.0 L490.04619395912744 414.0 L488.9413665575737 414.0 L487.83653915601997 414.0 L486.73171175446646 414.0 L485.6268843529127 414.0 L484.522056951359 414.0 L483.41722954980537 414.0 L482.31240214825175 414.0 L481.2075747466981 414.0 L480.1027473451444 414.0 L478.99791994359066 414.0 L477.89309254203715 414.0 L476.7882651404834 414.0 L475.6834377389297 414.0 L474.5786103373762 414.0 L473.47378293582244 414.0 L472.3689555342688 414.0 L471.2641281327151 414.0 L470.15930073116135 414.0 L469.05447332960773 414.0 L467.9496459280541 414.0 L466.8448185265004 414.0 L465.73999112494687 414.0 L464.63516372339313 414.0 L463.5303363218395 414.0 L462.4255089202858 414.0 L461.32068151873204 414.0 L460.2158541171784 414.0 L459.1110267156248 414.0 L458.00619931407107 414.0 L456.90137191251756 414.0 L455.7965445109638 414.0 L454.6917171094102 414.0 L453.58688970785647 414.0 L452.48206230630274 414.0 L451.37723490474923 414.0 L450.2724075031955 414.0 L449.1675801016419 414.0 L448.06275270008825 414.0 L446.9579252985345 414.0 L445.8530978969809 414.0 L444.74827049542716 414.0 L443.64344309387343 414.0 L442.5386156923199 414.0 L441.4337882907662 414.0 L440.32896088921257 414.0 L439.22413348765895 414.0 L438.1193060861052 414.0 L437.0144786845515 414.0 L435.90965128299786 414.0 L434.8048238814441 414.0 L433.6999964798906 414.0 L432.5951690783369 414.0 L431.49034167678326 414.0 L430.38551427522964 414.0 L429.2806868736759 414.0 L428.17585947212217 414.0 L427.07103207056855 414.0 L425.9662046690148 414.0 L424.8613772674613 414.0 L423.7565498659076 414.0 L422.65172246435395 414.0 L421.54689506280033 414.0 L420.4420676612466 414.0 L419.33724025969286 414.0 L418.23241285813924 414.0 L417.1275854565855 414.0 L416.022758055032 414.0 L414.91793065347827 414.0 L413.81310325192464 414.0 L412.708275850371 414.0 L411.6034484488173 414.0 L410.49862104726355 414.0 L409.39379364570993 414.0 L408.2889662441562 414.0 L407.1841388426027 414.0 L406.07931144104896 414.0 L404.97448403949534 414.0 L403.8696566379417 414.0 L402.764829236388 414.0 L401.66000183483425 414.0 L400.5551744332806 414.0 L399.4503470317269 414.0 L398.3455196301734 414.0 L397.24069222861965 414.0 L396.13586482706603 414.0 L395.0310374255124 414.0 L393.9262100239587 414.0 L392.82138262240494 414.0 L391.7165552208513 414.0 L390.6117278192976 414.0 L389.5069004177441 414.0 L388.40207301619034 414.0 L387.2972456146367 414.0 L386.1924182130831 414.0 L385.08759081152937 414.0 L383.98276340997563 414.0 L382.877936008422 414.0 L381.7731086068684 414.0 L380.66828120531466 414.0 L379.56345380376115 414.0 L378.4586264022074 414.0 L377.3537990006538 414.0 L376.24897159910006 414.0 L375.1441441975463 414.0 L374.0393167959927 414.0 L372.9344893944391 414.0 L371.82966199288535 414.0 L370.72483459133184 414.0 L369.6200071897781 414.0 L368.5151797882245 414.0 L367.41035238667075 414.0 L366.305524985117 414.0 L365.2006975835634 414.0 L364.0958701820098 414.0 L362.99104278045604 414.0 L361.8862153789024 414.0 L360.7813879773488 414.0 L359.67656057579507 414.0 L358.57173317424144 414.0 L357.4669057726877 414.0 L356.3620783711341 414.0 L355.25725096958047 414.0 L354.15242356802673 414.0 L353.0475961664731 414.0 L351.9427687649195 414.0 L350.83794136336576 414.0 L349.73311396181214 414.0 L348.6282865602584 414.0 L347.52345915870467 414.0 L346.41863175715116 414.0 L345.3138043555974 414.0 L344.2089769540438 414.0 L343.1041495524902 414.0 L341.99932215093645 414.0 L340.89449474938283 414.0 L339.7896673478291 414.0 L338.68483994627536 414.0 L337.58001254472185 414.0 L336.4751851431681 414.0 L335.3703577416145 414.0 L334.2655303400609 414.0 L333.16070293850714 414.0 L332.0558755369535 414.0 L330.9510481353998 414.0 L329.84622073384605 414.0 L328.74139333229255 414.0 L327.6365659307388 414.0 L326.5317385291852 414.0 L325.42691112763157 414.0 L324.32208372607784 414.0 L323.2172563245242 414.0 L322.1124289229705 414.0 L321.00760152141675 414.0 L319.90277411986324 414.0 L318.7979467183095 414.0 L317.6931193167559 414.0 L316.58829191520226 414.0 L315.4834645136485 414.0 L314.3786371120949 414.0 L313.2738097105412 414.0 L312.16898230898744 414.0 L311.06415490743393 414.0 L309.9593275058803 414.0 L308.8545001043266 414.0 L307.74967270277295 414.0 L306.6448453012192 414.0 L305.5400178996656 414.0 L304.43519049811187 414.0 L303.33036309655824 414.0 L302.2255356950046 414.0 L301.120708293451 414.0 L300.01588089189727 414.0 L298.91105349034365 414.0 L297.8062260887899 414.0 L296.7013986872363 414.0 L295.59657128568256 414.0 L294.49174388412894 414.0 L293.3869164825753 414.0 L292.2820890810217 414.0 L291.17726167946796 414.0 L290.07243427791434 414.0 L288.9676068763606 414.0 L287.862779474807 414.0 L286.75795207325325 414.0 L285.65312467169963 414.0 L284.548297270146 414.0 L283.4434698685924 414.0 L282.33864246703865 414.0 L281.23381506548503 414.0 L280.1289876639313 414.0 L279.0241602623777 414.0 L277.91933286082394 414.0 L276.8145054592703 414.0 L275.7096780577167 414.0 L274.60485065616297 414.0 L273.50002325460935 414.0 L272.3951958530557 414.0 L271.290368451502 414.0 L270.18554104994837 414.0 L269.08071364839464 414.0 L267.975886246841 414.0 L266.8710588452874 414.0 L265.76623144373366 414.0 L264.66140404218004 414.0 L263.5565766406264 414.0 L262.4517492390727 414.0 L261.34692183751906 414.0 L260.2420944359653 414.0 L259.1372670344117 414.0 L258.0324396328581 414.0 L256.92761223130435 414.0 L255.8227848297507 414.0 L254.71795742819708 414.0 L253.6131300266434 414.0 L252.50830262508973 414.0 L251.4034752235361 414.0 L250.29864782198243 414.0 L249.19382042042875 414.0 L248.08899301887507 414.0 L246.98416561732145 414.0 L245.87933821576777 414.0 L244.7745108142141 414.0 L243.66968341266042 414.0 L242.5648560111068 414.0 L241.46002860955312 414.0 L240.35520120799944 414.0 L239.25037380644577 414.0 L238.14554640489214 414.0 L237.04071900333847 414.0 L235.9358916017848 414.0 L234.8310642002311 414.0 L233.7262367986775 414.0 L232.6214093971238 414.0 L231.51658199557014 414.0 L230.41175459401646 414.0 L229.30692719246284 414.0 L228.20209979090916 414.0 L227.09727238935548 414.0 L225.9924449878018 414.0 L224.88761758624818 414.0 L223.7827901846945 414.0 L222.67796278314083 414.0 L221.57313538158715 414.0 L220.46830798003353 414.0 L219.36348057847985 414.0 L218.25865317692617 414.0 L217.1538257753725 414.0 L216.04899837381888 414.0 L214.9441709722652 414.0 L213.83934357071152 414.0 L212.73451616915784 414.0 L211.62968876760422 414.0 L210.52486136605054 414.0 L209.42003396449687 414.0 L208.3152065629432 414.0 L207.21037916138957 414.0 L206.1055517598359 414.0 L205.0007243582822 414.0 L203.8958969567286 414.0 L202.79106955517491 414.0 L201.68624215362124 414.0 L200.58141475206756 414.0 L199.47658735051394 414.0 L198.37175994896026 414.0 L197.26693254740658 414.0 L196.1621051458529 414.0 L195.05727774429928 414.0 L193.9524503427456 414.0 L192.84762294119193 414.0 L191.74279553963825 414.0 L190.63796813808463 414.0 L189.53314073653095 414.0 L188.42831333497728 414.0 L187.3234859334236 414.0 L186.21865853186998 414.0 L185.1138311303163 414.0 L184.00900372876262 414.0 L182.90417632720894 414.0 L181.79934892565532 414.0 L180.69452152410165 414.0 L179.58969412254797 414.0 L178.4848667209943 414.0 L177.38003931944067 414.0 L176.275211917887 414.0 L175.1703845163333 414.0 L174.06555711477964 414.0 L172.96072971322602 414.0 L171.85590231167234 414.0 L170.75107491011866 414.0 L169.64624750856498 414.0 L168.54142010701136 414.0 L167.43659270545768 414.0 L166.331765303904 414.0 L165.22693790235033 414.0 L164.1221105007967 414.0 L163.01728309924303 414.0 L161.91245569768935 414.0 L160.80762829613568 414.0 L159.70280089458205 414.0 L158.59797349302838 414.0 L157.4931460914747 414.0 L156.38831868992102 414.0 L155.2834912883674 414.0 L154.17866388681372 414.0 L153.07383648526005 414.0 L151.96900908370637 414.0 L150.86418168215275 414.0 L149.75935428059907 414.0 L148.6545268790454 414.0 L147.5496994774917 414.0 L146.4448720759381 414.0 L145.34004467438442 414.0 L144.23521727283074 414.0 L143.13038987127706 414.0 L142.02556246972344 414.0 L140.92073506816976 414.0 L139.81590766661608 414.0 L138.7110802650624 414.0 L137.6062528635088 414.0 L136.5014254619551 414.0 L135.39659806040143 414.0 L134.29177065884775 414.0 L133.18694325729413 414.0 L132.08211585574045 414.0 L130.97728845418678 414.0 L129.8724610526331 414.0 L128.76763365107948 414.0 L127.6628062495258 414.0 L126.55797884797212 414.0 L125.45315144641845 414.0 L124.34832404486482 414.0 L123.24349664331115 414.0 L122.13866924175747 414.0 L121.03384184020379 414.0 L119.92901443865017 414.0 L118.8241870370965 414.0 L117.71935963554282 414.0 L116.6145322339892 414.0 L115.50970483243552 414.0 L114.40487743088184 414.0 L113.30005002932816 414.0 L112.19522262777454 414.0 L111.09039522622086 414.0 L109.98556782466716 414.0 L108.88074042311354 414.0 L107.77591302155989 414.0 L106.67108562000618 414.0 L105.5662582184525 414.0 L104.46143081689885 414.0 L103.35660341534523 414.0 L102.25177601379153 414.0 L101.14694861223785 414.0 L100.0421212106842 414.0 L98.93729380913058 414.0 L97.83246640757687 414.0 L96.7276390060232 414.0 L95.62281160446955 414.0 L94.51798420291593 414.0 L93.41315680136222 414.0 L92.30832939980854 414.0 L91.2035019982549 414.0 L90.09867459670127 414.0 L88.99384719514757 414.0 L87.88901979359389 414.0 L86.78419239204024 414.0 L85.67936499048662 414.0 L84.57453758893291 414.0 L83.46971018737929 414.0 L82.36488278582559 414.0 L81.26005538427196 414.0 L80.15522798271826 414.0 L79.05040058116461 414.0 L77.94557317961093 414.0 L76.84074577805728 414.0 L75.7359183765036 414.0 L74.63109097494996 414.0 L73.52626357339628 414.0 L72.42143617184266 414.0 L71.31660877028895 414.0 L70.21178136873533 414.0 L69.10695396718162 414.0 L68.002126565628 414.0 L66.8972991640743 414.0 L65.79247176252068 414.0 L64.68764436096697 414.0 L63.58281695941335 414.0 L62.477989557859644 414.0 L61.37316215630602 414.0 L60.26833475475232 414.0 L59.163507353198696 414.0 L58.05867995164499 414.0 L56.95385255009137 414.0 L55.84902514853769 414.0 L54.744197746984014 414.0 L53.639370345430365 414.0 L52.53454294387669 414.0 L51.42971554232304 414.0 L50.32488814076936 414.0 L49.22006073921571 414.0 L48.11523333766203 414.0 L47.010405936108384 414.0 L45.90557853455471 414.0 L44.80075113300106 414.0 L43.69592373144738 414.0 L42.59109632989373 414.0 L41.48626892834005 414.0 L40.3814415267864 414.0 L39.276614125232726 414.0 L38.17178672367908 414.0 L37.0669593221254 414.0 L35.96213192057175 414.0 L34.85730451901807 414.0 L33.75247711746442 414.0 L32.647649715910745 414.0 L31.542822314357096 414.0 L30.43799491280342 414.0 L29.33316751124977 414.0 L28.22834010969609 414.0 Z" fill="rgb(187,187,187)" stroke-width="1.0" fill-opacity="0.10196078431372549">
          </path>
        </g>
        <g>
          <path d="M28.22834010969609 409.13498684886406 L28.22834010969609 409.13498684886406 L29.33316751124977 409.0377013814133 L30.43799491280342 408.95077474735825 L31.542822314357096 408.87434656881527 L32.647649715910745 408.80839646285546 L33.75247711746442 408.7527359942975 L34.85730451901807 408.70700262440334 L35.96213192057175 408.6706557911811 L37.0669593221254 408.64297522334175 L38.17178672367908 408.623061554516 L39.276614125232726 408.60983926783837 L40.3814415267864 408.602061964127 L41.48626892834005 408.5983199103259 L42.59109632989373 408.597049789254 L43.69592373144738 408.5965465376297 L44.80075113300106 408.59497712734327 L45.90557853455471 408.5903961155266 L47.010405936108384 408.5807627625432 L48.11523333766203 408.5639594939656 L49.22006073921571 408.53781146323865 L50.32488814076936 408.5001069563038 L51.42971554232304 408.4486183681946 L52.53454294387669 408.3811234746571 L53.639370345430365 408.29542671931057 L54.744197746984014 408.18938023878127 L55.84902514853769 408.06090435461084 L56.95385255009137 407.9080072714711 L58.05867995164499 407.72880373616556 L59.163507353198696 407.5215324308254 L60.26833475475232 407.2845718963019 L61.37316215630602 407.0164548076037 L62.477989557859644 406.71588045183285 L63.58281695941335 406.38172528983586 L64.68764436096697 406.01305151503146 L65.79247176252068 405.60911355585154 L66.8972991640743 405.1693625011163 L68.002126565628 404.693448459615 L69.10695396718162 404.18122089531323 L70.21178136873533 403.6327270071196 L71.31660877028895 403.0482082462336 L72.42143617184266 402.42809508406776 L73.52626357339628 401.77300015903705 L74.63109097494996 401.08370994072163 L75.7359183765036 400.3611750548459 L76.84074577805728 399.6064994121742 L77.94557317961093 398.82092827904563 L79.05040058116461 398.0058354173413 L80.15522798271826 397.16270940788775 L81.26005538427196 396.29313925458354 L82.36488278582559 395.3987993479733 L83.46971018737929 394.48143384781974 L84.57453758893291 393.54284052575593 L85.67936499048662 392.58485409266035 L86.78419239204024 391.60932902228706 L87.88901979359389 390.6181218740612 L88.99384719514757 389.6130731148182 L90.09867459670127 388.5959884423613 L91.2035019982549 387.56861962348603 L92.30832939980854 386.5326448756784 L93.41315680136222 385.48964884478676 L94.51798420291593 384.44110225995354 L95.62281160446955 383.3883413809973 L96.7276390060232 382.3325473909305 L97.83246640757687 381.27472592579323 L98.93729380913058 380.2156869736585 L100.0421212106842 379.1560254125886 L101.14694861223785 378.0961024915115 L102.25177601379153 377.0360285865131 L103.35660341534523 375.9756475861481 L104.46143081689885 374.9145232715279 L105.5662582184525 373.85192805898447 L106.67108562000618 372.7868344642188 L107.77591302155989 371.7179096267189 L108.88074042311354 370.6435132019781 L109.98556782466716 369.5616988873139 L111.09039522622086 368.470219795905 L112.19522262777454 367.36653783453403 L113.30005002932816 366.24783717523184 L114.40487743088184 365.11104184160905 L115.50970483243552 363.9528373593197 L116.6145322339892 362.7696963490402 L117.71935963554282 361.55790787167206 L118.8241870370965 360.31361027113326 L119.92901443865017 359.03282720170256 L121.03384184020379 357.71150647570175 L122.13866924175747 356.34556132415935 L123.24349664331115 354.93091362838373 L124.34832404486482 353.4635386540057 L125.45315144641845 351.9395108005127 L126.55797884797212 350.355049867735 L127.6628062495258 348.70656733498237 L128.76763365107948 346.99071214725814 L129.8724610526331 345.2044155047703 L130.97728845418678 343.3449341555139 L132.08211585574045 341.40989169484624 L133.18694325729413 339.3973173798982 L134.29177065884775 337.3056819698958 L135.39659806040143 335.1339301060471 L136.5014254619551 332.8815087471161 L137.6062528635088 330.5483911801993 L138.7110802650624 328.13509613208436 L139.81590766661608 325.64270151683854 L140.92073506816976 323.0728523722259 L142.02556246972344 320.42776256353676 L143.13038987127706 317.71020987096233 L144.23521727283074 314.92352412788847 L145.34004467438442 312.07156814442106 L146.4448720759381 309.1587112343961 L147.5496994774917 306.18979526573037 L148.6545268790454 303.1700932731119 L149.75935428059907 300.10526080753357 L150.86418168215275 297.00128034699947 L151.96900908370637 293.8643992537107 L153.07383648526005 290.70106193114714 L154.17866388681372 287.51783700474743 L155.2834912883674 284.3213405167369 L156.38831868992102 281.1181562829239 L157.4931460914747 277.91475470061465 L158.59797349302838 274.7174114157775 L159.70280089458205 271.5321273481615 L160.80762829613568 268.36455162978893 L161.91245569768935 265.2199090304372 L163.01728309924303 262.1029334200324 L164.1221105007967 259.01780875010064 L165.22693790235033 255.96811892410278 L166.331765303904 252.95680777057333 L167.43659270545768 249.98615013636285 L168.54142010701136 247.05773488426814 L169.64624750856498 244.1724603158847 L170.75107491011866 241.33054225399033 L171.85590231167234 238.5315347174987 L172.96072971322602 235.77436281536157 L174.06555711477964 233.05736718334518 L175.1703845163333 230.37835899927563 L176.275211917887 227.73468434760716 L177.38003931944067 225.12329647183074 L178.4848667209943 222.54083426123316 L179.58969412254797 219.98370517312364 L180.69452152410165 217.44817069783105 L181.79934892565532 214.93043243443338 L182.90417632720894 212.42671686133005 L184.00900372876262 209.93335695648656 L185.1138311303163 207.44686894443294 L186.21865853186998 204.964022616108 L187.3234859334236 202.4819038770406 L188.42831333497728 199.99796842122458 L189.53314073653095 197.51008569366965 L190.63796813808463 195.01657258439917 L191.74279553963825 192.5162165809042 L192.84762294119193 190.00828838509608 L193.9524503427456 187.49254426551732 L195.05727774429928 184.9692186577233 L196.1621051458529 182.43900773830413 L197.26693254740658 179.90304487537853 L198.37175994896026 177.36286899653967 L199.47658735051394 174.82038701197055 L200.58141475206756 172.2778314851945 L201.68624215362124 169.73771475795647 L202.79106955517491 167.20278071167115 L203.8958969567286 164.67595528995344 L205.0007243582822 162.1602968200661 L206.1055517598359 159.65894706176815 L207.21037916138957 157.17508378652786 L208.3152065629432 154.71187555506094 L209.42003396449687 152.27243922322623 L210.52486136605054 149.85980057153313 L211.62968876760422 147.47685832729945 L212.73451616915784 145.12635173532345 L213.83934357071152 142.8108317361545 L214.9441709722652 140.53263573300484 L216.04899837381888 138.29386586994633 L217.1538257753725 136.09637070523354 L218.25865317692617 133.9417301431708 L219.36348057847985 131.8312434836381 L220.46830798003353 129.76592045739693 L221.57313538158715 127.74647513395882 L222.67796278314083 125.77332261339012 L223.7827901846945 123.84657843987685 L224.88761758624818 121.96606069941004 L225.9924449878018 120.13129478300249 L227.09727238935548 118.34152080742552 L228.20209979090916 116.59570368523981 L229.30692719246284 114.89254582331688 L230.41175459401646 113.23050240344787 L231.51658199557014 111.60779916029622 L232.6214093971238 110.02245252188374 L233.7262367986775 108.47229191812653 L234.8310642002311 106.95498399627365 L235.9358916017848 105.46805841190377 L237.04071900333847 104.00893479419693 L238.14554640489214 102.57495041869521 L239.25037380644577 101.16338806402888 L240.35520120799944 99.77150348517273 L241.46002860955312 98.39655190876829 L242.5648560111068 97.0358129491301 L243.66968341266042 95.68661335965925 L244.7745108142141 94.34634707510457 L245.87933821576777 93.01249206672378 L246.98416561732145 91.68262362415703 L248.08899301887507 90.35442379381902 L249.19382042042875 89.02568684090073 L250.29864782198243 87.6943207569845 L251.4034752235361 86.35834500290906 L252.50830262508973 85.01588485097847 L253.6131300266434 83.66516286516799 L254.71795742819708 82.30448822535385 L255.8227848297507 80.93224475420448 L256.92761223130435 79.54687863543069 L258.0324396328581 78.14688691241304 L259.1372670344117 76.73080791986706 L260.2420944359653 75.29721482249533 L261.34692183751906 73.84471340896005 L262.4517492390727 72.37194521393997 L263.5565766406264 70.87759691450884 L264.66140404218004 69.36041677018062 L265.76623144373366 67.81923865182557 L266.8710588452874 66.25301393816045 L267.975886246841 64.66085125678637 L269.08071364839464 63.04206371879144 L270.18554104994837 61.39622295245073 L271.290368451502 59.72321889448523 L272.3951958530557 58.02332395973633 L273.50002325460935 56.29725989536536 L274.60485065616297 54.54626534716709 L275.7096780577167 52.77216193622269 L276.8145054592703 50.97741647555915 L277.91933286082394 49.16519685876909 L279.0241602623777 47.33941913385132 L280.1289876639313 45.50478334099938 L281.23381506548503 43.6667958455302 L282.33864246703865 41.83177613597087 L283.4434698685924 40.00684637878834 L284.548297270146 38.199902418475745 L285.65312467169963 36.41956537473686 L286.75795207325325 34.67511350453918 L287.862779474807 32.976394550774216 L288.9676068763606 31.333719373927977 L290.07243427791434 29.757738240391916 L291.17726167946796 28.25930170143232 L292.2820890810217 26.849308521638307 L293.3869164825753 25.538543586241246 L294.49174388412894 24.33750911628249 L295.59657128568256 23.256252834273653 L296.7013986872363 22.304196938399173 L297.8062260887899 21.48997185156503 L298.91105349034365 20.82125870690936 L300.01588089189727 20.304644412130244 L301.120708293451 19.94549290311363 L302.2255356950046 19.747835858878602 L303.33036309655824 19.714285714285722 L304.43519049811187 19.8459732872239 L305.5400178996656 20.142511748933202 L306.6448453012192 20.6019880276545 L307.74967270277295 21.220982066877184 L308.8545001043266 21.99461368057456 L309.9593275058803 22.916616079876064 L311.06415490743393 23.979434508989982 L312.16898230898744 25.174347841637257 L313.2738097105412 26.491610470017065 L314.3786371120949 27.920611380609046 L315.4834645136485 29.450046966444575 L316.58829191520226 31.068103881748357 L317.6931193167559 32.76264810640669 L318.7979467183095 34.521416355219685 L319.90277411986324 36.33220603728057 L321.00760152141675 38.183060137799146 L322.1124289229705 40.0624436486267 L323.2172563245242 41.959408502793735 L324.32208372607784 43.86374435818033 L325.42691112763157 45.76611301075445 L326.5317385291852 47.6581646821063 L327.6365659307388 49.53263490316232 L328.74139333229255 51.383421189984006 L329.84622073384605 53.20563916401085 L330.9510481353998 54.995658194998725 L332.0558755369535 56.75111702949562 L333.16070293850714 58.47092020275517 L334.2655303400609 60.15521631179769 L335.3703577416145 61.805359449086836 L336.4751851431681 63.42385525975732 L337.58001254472185 65.01429319281687 L338.68483994627536 66.58126657277705 L339.7896673478291 68.13028212909222 L340.89449474938283 69.66766059441261 L341.99932215093645 71.20042992759312 L343.1041495524902 72.73621264276801 L344.2089769540438 74.28310864050081 L345.3138043555974 75.8495748494305 L346.41863175715116 77.44430290433974 L347.52345915870467 79.07609601505175 L348.6282865602584 80.75374612448877 L349.73311396181214 82.48591241606118 L350.83794136336576 84.28100221101028 L351.9427687649195 86.14705529431205 L353.0475961664731 88.09163272033902 L354.15242356802673 90.12171117248278 L355.25725096958047 92.24358397879018 L356.3620783711341 94.46276991211857 L357.4669057726877 96.78393092161525 L358.57173317424144 99.21079994568942 L359.67656057579507 101.7461199386837 L360.7813879773488 104.39159519849312 L361.8862153789024 107.147856005839 L362.99104278045604 110.01443747455 L364.0958701820098 112.98977336438196 L365.2006975835634 116.07120542362787 L366.305524985117 119.25500860983556 L367.41035238667075 122.5364322868262 L368.5151797882245 125.90975722005442 L369.6200071897781 129.3683678966218 L370.72483459133184 132.9048393887611 L371.82966199288535 136.51103766889963 L372.9344893944391 140.17823197971836 L374.0393167959927 143.89721757333484 L375.1441441975463 147.65844686917006 L376.24897159910006 151.45216684897576 L377.3537990006538 155.26856031794068 L378.4586264022074 159.09788851967863 L379.56345380376115 162.93063250576114 L380.66828120531466 166.75763063141073 L381.7731086068684 170.57020958029875 L382.877936008422 174.3603064137741 L383.98276340997563 178.1205792920587 L385.08759081152937 181.84450472410242 L386.1924182130831 185.5264594643029 L387.2972456146367 189.16178548209808 L388.40207301619034 192.74683677714327 L389.5069004177441 196.27900718985052 L390.6117278192976 199.75673875522585 L391.7165552208513 203.17951055719342 L392.82138262240494 206.54780845081225 L393.9262100239587 209.86307642074553 L395.0310374255124 213.12765072613624 L396.13586482706603 216.34467833534805 L397.24069222861965 219.5180214703289 L398.3455196301734 222.65215035216391 L399.4503470317269 225.75202646050042 L400.5551744332806 228.82297878511054 L401.66000183483425 231.8705756545848 L402.764829236388 234.9004947733555 L403.8696566379417 237.91839408377194 L404.97448403949534 240.9297859963309 L406.07931144104896 243.9399174014242 L407.1841388426027 246.95365769454446 L408.2889662441562 249.97539681951125 L409.39379364570993 253.00895506777152 L410.49862104726355 256.0575060738164 L411.6034484488173 259.12351412561384 L412.708275850371 262.20868657329345 L413.81310325192464 265.31394177798325 L414.91793065347827 268.43939270433026 L416.022758055032 271.5843459330789 L417.1275854565855 274.74731556180393 L418.23241285813924 277.92605117930657 L419.33724025969286 281.1175788480784 L420.4420676612466 284.3182538143586 L421.54689506280033 287.5238234900702 L422.65172246435395 290.72949911755205 L423.7565498659076 293.9300344374184 L424.8613772674613 297.1198096317483 L425.9662046690148 300.2929188076671 L427.07103207056855 303.44325931769924 L428.17585947212217 306.56462127959946 L429.2806868736759 309.65077575555307 L430.38551427522964 312.69556017390903 L431.49034167678326 315.6929597208755 L432.5951690783369 318.6371835895642 L433.6999964798906 321.52273514411684 L434.8048238814441 324.344475232254 L435.90965128299786 327.09767805564957 L437.0144786845515 329.77807917967647 L438.1193060861052 332.38191542850655 L439.22413348765895 334.90595656505286 L440.32896088921257 337.34752879533744 L441.4337882907662 339.7045302616875 L442.5386156923199 341.9754387975592 L443.64344309387343 344.15931230823435 L444.74827049542716 346.2557822162042 L445.8530978969809 348.26504046829757 L446.9579252985345 350.1878206445625 L448.06275270008825 352.0253737378806 L449.1675801016419 353.77943918988956 L450.2724075031955 355.452211774727 L451.37723490474923 357.0463049191893 L452.48206230630274 358.5647110378885 L453.58688970785647 360.01075944658186 L454.6917171094102 361.3880723975494 L455.7965445109638 362.70051975908365 L456.90137191251756 363.9521728379102 L458.00619931407107 365.1472578195857 L459.1110267156248 366.29010927824265 L460.2158541171784 367.38512418387205 L461.32068151873204 368.43671681284474 L462.4255089202858 369.4492749455528 L463.5303363218395 370.42711771376264 L464.63516372339313 371.3744554391969 L465.73999112494687 372.2953517836622 L466.8448185265004 373.19368850927737 L467.9496459280541 374.0731331246132 L469.05447332960773 374.937109668424 L470.15930073116135 375.7887728567663 L471.2641281327151 376.63098579138244 L472.3689555342688 377.4663013970706 L473.47378293582244 378.29694772326553 L474.5786103373762 379.12481721022704 L475.6834377389297 379.95145998317423 L476.7882651404834 380.7780811986381 L477.89309254203715 381.60554242652546 L478.99791994359066 382.43436700930414 L480.1027473451444 383.26474929678335 L481.2075747466981 384.0965676117167 L482.31240214825175 384.92940075847315 L483.41722954980537 385.76254784491476 L484.522056951359 386.5950511470343 L485.6268843529127 387.42572170748423 L486.73171175446646 388.2531673235332 L487.83653915601997 389.0758225478455 L488.9413665575737 389.8919802974306 L490.04619395912744 390.69982464273386 L491.15102136068106 391.4974643307053 L492.2558487622347 392.28296658327764 L493.3606761637884 393.05439070646236 L494.46550356534203 393.8098210455973 L495.57033096689577 394.54739882943153 L496.6751583684493 395.2653524598902 L497.779985770003 395.96202582560085 L498.88481317155674 396.63590424550694 L499.98964057311036 397.2856376839632 L501.094467974664 397.91006092023804 L502.1992953762177 398.5082104028537 L503.30412277777134 399.0793375720091 L504.4089501793251 399.6229184906524 L505.5137775808786 400.1386596856368 L506.6186049824323 400.62650016372277 L507.72343238398605 401.08660963178477 L508.8282597855397 401.5193830151539 L509.9330871870933 401.9254314312391 L511.037914588647 402.3055698360702 L512.1427419902006 402.66080161784566 L513.2475693917544 402.99230046267667 L514.3523967933079 403.3013898623235 L515.4572241948616 403.5895206707738 L516.5620515964154 403.858247145177 L517.666878997969 404.1092019262571 L518.7717063995226 404.344070423481 L519.8765338010763 404.56456507078366 L520.98136120263 404.7723999096438 L522.0861886041837 404.96926593812026 L523.1910160057372 405.15680763767847 L524.2958434072909 405.33660105509585 L525.4006708088447 405.5101337754345 L526.5054982103982 405.67878707519196 L527.6103256119519 405.8438204935725 L528.7151530135056 406.006359005728 L529.8199804150593 406.1673829261912 L530.9248078166129 406.327720614928 L532.0296352181665 406.4880440037794 L533.1344626197202 406.64886690874346 L534.239290021274 406.8105460446267 L535.3441174228275 406.9732846139665 L536.4489448243812 407.13713830251265 L537.553772225935 407.3020234794705 L538.6585996274886 407.467727372489 L539.7634270290422 407.6339199651577 L540.8682544305958 407.80016734853683 L541.9730818321495 407.96594624779084 L543.0779092337033 408.1306594400306 L544.1827366352568 408.29365177956777 L545.2875640368105 408.4542265514711 L546.3923914383643 408.611661883061 L547.4972188399179 408.76522695522914 L548.6020462414715 408.9141977706976 L549.7068736430252 409.0578722540048 L550.8117010445789 409.19558447765843 L551.9165284461326 409.3267178300893 L553.0213558476861 409.4507169634019 L554.1261832492398 409.5670983821248 L555.2310106507936 409.6754595579408 L556.3358380523472 409.7754864794866 L557.4406654539008 409.8669595705654 L558.5454928554545 409.94975793432394 L559.6503202570082 410.0238619049471 L560.7551476585619 410.0893539120593 L561.8599750601154 410.1464176861104 L562.9648024616691 410.1953358553901 L564.0696298632229 410.2364860067573 L565.1744572647765 410.2703353024665 L566.2792846663301 410.29743376439956 L567.3841120678838 410.3184063543165 L568.4889394694375 410.3339439941825 L569.5937668709912 410.3447936839664 L570.6985942725447 410.35174788530963 L571.8034216740984 410.355633347932 L572.9082490756522 410.357299561397 L574.0130764772058 410.3576070177806 L575.1179038787594 410.35741547078493 L576.2227312803132 410.3575723738937 L577.3275586818668 410.3589016743054 L578.4323860834205 410.36219313069483 L579.537213484974 410.3681923114956 L580.6420408865278 410.37759141656295 L581.7468682880815 410.3910210490334 L582.8516956896351 410.4090430462325 L583.9565230911887 410.4321444589474 L585.0613504927425 410.46073274762966 L586.1661778942961 410.49513224252826 L587.2710052958498 410.5355818927626 L588.3758326974033 410.58223430734677 L589.4806600989571 410.63515606955934 L590.5854875005108 410.6943292852144 L591.6903149020644 410.7596543056939 L592.795142303618 410.8309535483909 " fill="none" stroke-width="1.6500000000000001" stroke="rgb(187,187,187)" stroke-opacity="1.0">
          </path>
        </g>
      </g>
    </g>
    <g transform="translate(14.5 217.0 ) rotate(-90.0 ) ">
      <text class="axis-title-y" y="0.0" text-anchor="middle">
      density
      </text>
    </g>
    <g transform="translate(384.488258793343 461.5 ) ">
      <text class="axis-title-x" y="0.0" text-anchor="middle">
      depth
      </text>
    </g>
    <path fill="rgb(0,0,0)" fill-opacity="0.0" stroke="rgb(187,187,187)" stroke-opacity="1.0" stroke-width="0.0" d="M0.0 0.0 L0.0 470.0 L705.0 470.0 L705.0 0.0 Z">
    </path>
  </g>
  <g id="xXxprefixXx2">
  </g>
</svg>