<svg xmlns="http://www.w3.org/2000/svg" xmlns:xlink="http://www.w3.org/1999/xlink" class="plt-container" width="705.0" height="470.0">
  <style type="text/css">
  .plt-container {
   font-family: Lucida Grande, sans-serif;
   user-select: none;
   -webkit-user-select: none;
   -moz-user-select: none;
   -ms-user-select: none;
}
text {
   text-rendering: optimizeLegibility;
}
#xXxprefixXx0 .plot-title {
   fill: #bbbbbb;
   font-family: Lucida Grande, sans-serif;
   font-size: 16.0px;
   font-weight: normal;
   font-style: normal;   
}
#xXxprefixXx0 .plot-subtitle {
   fill: #bbbbbb;
   font-family: Lucida Grande, sans-serif;
   font-size: 15.0px;
   font-weight: normal;
   font-style: normal;   
}
#xXxprefixXx0 .plot-caption {
   fill: #bbbbbb;
   font-family: Lucida Grande, sans-serif;
   font-size: 13.0px;
   font-weight: normal;
   font-style: normal;   
}
#xXxprefixXx0 .legend-title {
   fill: #bbbbbb;
   font-family: Lucida Grande, sans-serif;
   font-size: 15.0px;
   font-weight: normal;
   font-style: normal;   
}
#xXxprefixXx0 .legend-item {
   fill: #bbbbbb;
   font-family: Lucida Grande, sans-serif;
   font-size: 13.0px;
   font-weight: normal;
   font-style: normal;   
}
#xXxprefixXx0 .axis-title-x {
   fill: #bbbbbb;
   font-family: Lucida Grande, sans-serif;
   font-size: 15.0px;
   font-weight: normal;
   font-style: normal;   
}
#xXxprefixXx0 .axis-text-x {
   fill: #bbbbbb;
   font-family: Lucida Grande, sans-serif;
   font-size: 13.0px;
   font-weight: normal;
   font-style: normal;   
}
#xXxprefixXx2 .axis-tooltip-text-x {
   fill: #303030;
   font-family: Lucida Grande, sans-serif;
   font-size: 13.0px;
   font-weight: normal;
   font-style: normal;   
}
#xXxprefixXx0 .axis-title-y {
   fill: #bbbbbb;
   font-family: Lucida Grande, sans-serif;
   font-size: 15.0px;
   font-weight: normal;
   font-style: normal;   
}
#xXxprefixXx0 .axis-text-y {
   fill: #bbbbbb;
   font-family: Lucida Grande, sans-serif;
   font-size: 13.0px;
   font-weight: normal;
   font-style: normal;   
}
#xXxprefixXx2 .axis-tooltip-text-y {
   fill: #303030;
   font-family: Lucida Grande, sans-serif;
   font-size: 13.0px;
   font-weight: normal;
   font-style: normal;   
}
#xXxprefixXx0 .facet-strip-text-x {
   fill: #bbbbbb;
   font-family: Lucida Grande, sans-serif;
   font-size: 13.0px;
   font-weight: normal;
   font-style: normal;   
}
#xXxprefixXx0 .facet-strip-text-y {
   fill: #bbbbbb;
   font-family: Lucida Grande, sans-serif;
   font-size: 13.0px;
   font-weight: normal;
   font-style: normal;   
}
#xXxprefixXx2 .tooltip-text {
   fill: #bbbbbb;
   font-family: Lucida Grande, sans-serif;
   font-size: 13.0px;
   font-weight: normal;
   font-style: normal;   
}
#xXxprefixXx2 .tooltip-title {
   fill: #bbbbbb;
   font-family: Lucida Grande, sans-serif;
   font-size: 13.0px;
   font-weight: bold;
   font-style: normal;   
}
#xXxprefixXx2 .tooltip-label {
   fill: #bbbbbb;
   font-family: Lucida Grande, sans-serif;
   font-size: 13.0px;
   font-weight: bold;
   font-style: normal;   
}

  </style>
  <g id="xXxprefixXx0">
    <path fill-rule="evenodd" fill="rgb(25,25,28)" fill-opacity="1.0" d="M0.0 0.0 L0.0 470.0 L705.0 470.0 L705.0 0.0 Z">
    </path>
    <g transform="translate(23.0 34.0 ) ">
      <g transform="translate(50.97651758668602 390.0 ) ">
        <line x1="26.85030971008257" y1="-0.0" x2="26.85030971008257" y2="-390.0" stroke="rgb(71,71,71)" stroke-opacity="1.0" stroke-width="1.0">
        </line>
        <line x1="117.90853545013704" y1="-0.0" x2="117.90853545013704" y2="-390.0" stroke="rgb(71,71,71)" stroke-opacity="1.0" stroke-width="1.0">
        </line>
        <line x1="208.96676119019145" y1="-0.0" x2="208.96676119019145" y2="-390.0" stroke="rgb(71,71,71)" stroke-opacity="1.0" stroke-width="1.0">
        </line>
        <line x1="300.0249869302459" y1="-0.0" x2="300.0249869302459" y2="-390.0" stroke="rgb(71,71,71)" stroke-opacity="1.0" stroke-width="1.0">
        </line>
        <line x1="391.0832126703004" y1="-0.0" x2="391.0832126703004" y2="-390.0" stroke="rgb(71,71,71)" stroke-opacity="1.0" stroke-width="1.0">
        </line>
        <line x1="482.14143841035485" y1="-0.0" x2="482.14143841035485" y2="-390.0" stroke="rgb(71,71,71)" stroke-opacity="1.0" stroke-width="1.0">
        </line>
        <line x1="573.1996641504093" y1="-0.0" x2="573.1996641504093" y2="-390.0" stroke="rgb(71,71,71)" stroke-opacity="1.0" stroke-width="1.0">
        </line>
        <g transform="translate(26.85030971008257 0.0 ) ">
          <line stroke-width="1.0" stroke="rgb(187,187,187)" stroke-opacity="1.0" x2="0.0" y2="4.0">
          </line>
          <g transform="translate(0.0 7.0 ) ">
            <text class="axis-text-x" text-anchor="middle" dy="0.7em">
            200
            </text>
          </g>
        </g>
        <g transform="translate(117.90853545013704 0.0 ) ">
          <line stroke-width="1.0" stroke="rgb(187,187,187)" stroke-opacity="1.0" x2="0.0" y2="4.0">
          </line>
          <g transform="translate(0.0 7.0 ) ">
            <text class="axis-text-x" text-anchor="middle" dy="0.7em">
            300
            </text>
          </g>
        </g>
        <g transform="translate(208.96676119019145 0.0 ) ">
          <line stroke-width="1.0" stroke="rgb(187,187,187)" stroke-opacity="1.0" x2="0.0" y2="4.0">
          </line>
          <g transform="translate(0.0 7.0 ) ">
            <text class="axis-text-x" text-anchor="middle" dy="0.7em">
            400
            </text>
          </g>
        </g>
        <g transform="translate(300.0249869302459 0.0 ) ">
          <line stroke-width="1.0" stroke="rgb(187,187,187)" stroke-opacity="1.0" x2="0.0" y2="4.0">
          </line>
          <g transform="translate(0.0 7.0 ) ">
            <text class="axis-text-x" text-anchor="middle" dy="0.7em">
            500
            </text>
          </g>
        </g>
        <g transform="translate(391.0832126703004 0.0 ) ">
          <line stroke-width="1.0" stroke="rgb(187,187,187)" stroke-opacity="1.0" x2="0.0" y2="4.0">
          </line>
          <g transform="translate(0.0 7.0 ) ">
            <text class="axis-text-x" text-anchor="middle" dy="0.7em">
            600
            </text>
          </g>
        </g>
        <g transform="translate(482.14143841035485 0.0 ) ">
          <line stroke-width="1.0" stroke="rgb(187,187,187)" stroke-opacity="1.0" x2="0.0" y2="4.0">
          </line>
          <g transform="translate(0.0 7.0 ) ">
            <text class="axis-text-x" text-anchor="middle" dy="0.7em">
            700
            </text>
          </g>
        </g>
        <g transform="translate(573.1996641504093 0.0 ) ">
          <line stroke-width="1.0" stroke="rgb(187,187,187)" stroke-opacity="1.0" x2="0.0" y2="4.0">
          </line>
          <g transform="translate(0.0 7.0 ) ">
            <text class="axis-text-x" text-anchor="middle" dy="0.7em">
            800
            </text>
          </g>
        </g>
        <line x1="0.0" y1="0.0" x2="621.023482413314" y2="0.0" stroke-width="1.0" stroke="rgb(187,187,187)" stroke-opacity="1.0">
        </line>
      </g>
      <g transform="translate(50.97651758668602 0.0 ) ">
        <line x1="0.0" y1="344.0282091665818" x2="621.023482413314" y2="344.0282091665818" stroke="rgb(71,71,71)" stroke-opacity="1.0" stroke-width="1.0">
        </line>
        <line x1="0.0" y1="298.0564183331636" x2="621.023482413314" y2="298.0564183331636" stroke="rgb(71,71,71)" stroke-opacity="1.0" stroke-width="1.0">
        </line>
        <line x1="0.0" y1="252.0846274997454" x2="621.023482413314" y2="252.0846274997454" stroke="rgb(71,71,71)" stroke-opacity="1.0" stroke-width="1.0">
        </line>
        <line x1="0.0" y1="206.1128366663272" x2="621.023482413314" y2="206.1128366663272" stroke="rgb(71,71,71)" stroke-opacity="1.0" stroke-width="1.0">
        </line>
        <line x1="0.0" y1="160.141045832909" x2="621.023482413314" y2="160.141045832909" stroke="rgb(71,71,71)" stroke-opacity="1.0" stroke-width="1.0">
        </line>
        <line x1="0.0" y1="114.16925499949082" x2="621.023482413314" y2="114.16925499949082" stroke="rgb(71,71,71)" stroke-opacity="1.0" stroke-width="1.0">
        </line>
        <line x1="0.0" y1="68.19746416607262" x2="621.023482413314" y2="68.19746416607262" stroke="rgb(71,71,71)" stroke-opacity="1.0" stroke-width="1.0">
        </line>
        <line x1="0.0" y1="22.225673332654424" x2="621.023482413314" y2="22.225673332654424" stroke="rgb(71,71,71)" stroke-opacity="1.0" stroke-width="1.0">
        </line>
        <g transform="translate(0.0 390.0 ) ">
          <g transform="translate(-3.0 0.0 ) ">
            <text class="axis-text-y" text-anchor="end" dy="0.35em">
            0.0000
            </text>
          </g>
        </g>
        <g transform="translate(0.0 344.0282091665818 ) ">
          <g transform="translate(-3.0 0.0 ) ">
            <text class="axis-text-y" text-anchor="end" dy="0.35em">
            0.0005
            </text>
          </g>
        </g>
        <g transform="translate(0.0 298.0564183331636 ) ">
          <g transform="translate(-3.0 0.0 ) ">
            <text class="axis-text-y" text-anchor="end" dy="0.35em">
            0.0010
            </text>
          </g>
        </g>
        <g transform="translate(0.0 252.0846274997454 ) ">
          <g transform="translate(-3.0 0.0 ) ">
            <text class="axis-text-y" text-anchor="end" dy="0.35em">
            0.0015
            </text>
          </g>
        </g>
        <g transform="translate(0.0 206.1128366663272 ) ">
          <g transform="translate(-3.0 0.0 ) ">
            <text class="axis-text-y" text-anchor="end" dy="0.35em">
            0.0020
            </text>
          </g>
        </g>
        <g transform="translate(0.0 160.141045832909 ) ">
          <g transform="translate(-3.0 0.0 ) ">
            <text class="axis-text-y" text-anchor="end" dy="0.35em">
            0.0025
            </text>
          </g>
        </g>
        <g transform="translate(0.0 114.16925499949082 ) ">
          <g transform="translate(-3.0 0.0 ) ">
            <text class="axis-text-y" text-anchor="end" dy="0.35em">
            0.0030
            </text>
          </g>
        </g>
        <g transform="translate(0.0 68.19746416607262 ) ">
          <g transform="translate(-3.0 0.0 ) ">
            <text class="axis-text-y" text-anchor="end" dy="0.35em">
            0.0035
            </text>
          </g>
        </g>
        <g transform="translate(0.0 22.225673332654424 ) ">
          <g transform="translate(-3.0 0.0 ) ">
            <text class="axis-text-y" text-anchor="end" dy="0.35em">
            0.0040
            </text>
          </g>
        </g>
      </g>
      <g transform="translate(50.97651758668602 0.0 ) " clip-path="url(#xXxprefixXx1)" clip-bounds-jfx="[rect (0.0, 0.0), (621.023482413314, 390.0)]">
        <defs>
          <clipPath id="xXxprefixXx1">
            <rect x="0.0" y="0.0" width="621.023482413314" height="390.0">
            </rect>
          </clipPath>
        </defs>
        <g>
          <path d="M28.22834010969609 386.2471424565671 L28.22834010969609 386.2471424565671 L29.33316751124974 386.10233317467623 L30.43799491280342 385.95444657224164 L31.542822314357068 385.80302356456934 L32.647649715910745 385.64752854529587 L33.752477117464394 385.48734837472125 L34.85730451901807 385.3217922051915 L35.96213192057172 385.15009216645393 L37.0669593221254 384.9714049221539 L38.17178672367905 384.7848140971176 L39.276614125232726 384.58933356406027 L40.381441526786375 384.3839115681293 L41.48626892834005 384.1674356584693 L42.5910963298937 383.93873838796833 L43.69592373144738 383.69660373564074 L44.80075113300103 383.4397742008119 L45.90557853455471 383.1669585144071 L47.010405936108356 382.8768399101783 L48.11523333766203 382.5680848975223 L49.22006073921568 382.2393524775051 L50.32488814076936 381.88930374459613 L51.42971554232301 381.51661181818423 L52.53454294387669 381.11997204992207 L53.639370345430336 380.69811245500347 L54.744197746984014 380.24980431733167 L55.84902514853766 379.7738729198551 L56.95385255009131 379.2692083518635 L58.05867995164499 378.7347763444844 L59.16350735319864 378.1696290838023 L60.26833475475232 377.5729159477882 L61.373162156305966 376.94389410850414 L62.477989557859644 376.2819389348409 L63.58281695941329 375.5865541234382 L64.68764436096697 374.8573814766108 L65.79247176252062 374.09421023631427 L66.8972991640743 373.2969858727783 L68.00212656562795 372.4658182158348 L69.10695396718162 371.6009888066528 L70.21178136873527 370.7029573380996 L71.31660877028895 369.7723670438446 L72.4214361718426 368.8100488901939 L73.52626357339628 367.81702442106416 L74.63109097494993 366.7945071060239 L75.7359183765036 365.74390204444603 L76.84074577805725 364.66680388595245 L77.94557317961093 363.5649928388163 L79.05040058116458 362.44042865403816 L80.15522798271823 361.29524249351255 L81.26005538427191 360.13172661599 L82.36488278582559 358.952321844206 L83.46971018737923 357.759602810216 L84.57453758893288 356.55626101312515 L85.67936499048656 355.34508576333803 L86.78419239204024 354.12894312937163 L87.88901979359389 352.9107530462155 L88.99384719514751 351.69346478714806 L90.09867459670122 350.48003104270015 L91.2035019982549 349.27338088993275 L92.30832939980854 348.07639197117965 L93.41315680136216 346.89186223275334 L94.51798420291587 345.72248159972554 L95.62281160446955 344.5708039817815 L96.7276390060232 343.4392200164564 L97.83246640757682 342.32993095909654 L98.93729380913052 341.24492412317505 L100.0421212106842 340.18595025982717 L101.14694861223785 339.1545032416845 L102.25177601379147 338.1518023834295 L103.35660341534515 337.17877769052666 L104.46143081689883 336.23605827896364 L105.5662582184525 335.3239641536016 L106.67108562000612 334.442501472018 L107.7759130215598 333.591361355958 L108.88074042311348 332.76992224519444 L109.98556782466716 331.9772557204161 L111.09039522622078 331.2121356544154 L112.19522262777446 330.47305048609934 L113.30005002932813 329.7582183513992 L114.40487743088181 329.06560475064066 L115.50970483243543 328.39294238487 L116.61453223398911 327.7377527553097 L117.71935963554279 327.097369091676 L118.82418703709646 326.46896015733745 L119.92901443865009 325.84955447281993 L121.03384184020376 325.2360645041996 L122.13866924175744 324.62531037941653 L123.24349664331112 324.0140427231049 L124.34832404486474 323.3989642384626 L125.45315144641842 322.7767497119967 L126.5579788479721 322.14406417241355 L127.66280624952577 321.49757899696965 L128.7676336510794 320.83398582560227 L129.87246105263307 320.15000821324156 L130.97728845418675 319.44241102199106 L132.08211585574043 318.70800762532986 L133.18694325729405 317.9436650642437 L134.29177065884772 317.14630735830633 L135.3965980604014 316.31291723148246 L136.50142546195502 315.4405365612249 L137.6062528635087 314.52626589891076 L138.71108026506238 313.56726343872276 L139.81590766661606 312.5607438299027 L140.92073506816968 311.50397723334504 L142.02556246972335 310.3942890176154 L143.13038987127703 309.2290604717498 L144.2352172728307 308.0057308830993 L145.34004467438433 306.72180128876334 L146.444872075938 305.37484015983887 L147.54969947749169 303.9624912201107 L148.65452687904536 302.48248353635887 L149.75935428059898 300.9326439479131 L150.86418168215266 299.3109118301568 L151.96900908370634 297.61535611231096 L153.07383648526002 295.8441943958484 L154.17866388681364 293.99581394823326 L155.28349128836732 292.0687942790843 L156.388318689921 290.061930944059 L157.49314609147467 287.9742601672155 L158.5979734930283 285.80508382670143 L159.70280089458197 283.55399431238914 L160.80762829613565 281.2208987384198 L161.91245569768932 278.8060419790757 L163.01728309924295 276.3100279933296 L164.12211050079662 273.73383891181766 L165.2269379023503 271.0788513796887 L166.33176530390398 268.34684967927234 L167.4365927054576 265.5400351971627 L168.54142010701122 262.661031850174 L169.64624750856495 259.7128871427069 L170.75107491011863 256.6990685931101 L171.85590231167225 253.6234553373896 L172.96072971322587 250.4903247937236 L174.0655571147796 247.3043343492865 L175.17038451633329 244.07049811049808 L176.2752119178869 240.79415883758725 L177.38003931944053 237.4809552630459 L178.48486672099426 234.136785069783 L179.58969412254794 230.76776387757204 L180.69452152410156 227.38018065448472 L181.79934892565518 223.98045003261075 L182.90417632720892 220.57506206352744 L184.0090037287626 217.1705299979983 L185.1138311303162 213.77333671561345 L186.21865853186983 210.38988046295262 L187.32348593342357 207.02642058296092 L188.42831333497725 203.6890239331183 L189.53314073653087 200.38351269548284 L190.6379681380845 197.11541427748384 L191.74279553963817 193.8899139883844 L192.8476229411919 190.7118111525237 L193.95245034274552 187.58547928686667 L195.05727774429914 184.514830927162 L196.16210514585282 181.5032876343602 L197.26693254740655 178.55375565128335 L198.37175994896018 175.6686076092919 L199.4765873505138 172.8496706065763 L200.58141475206747 170.09822089441275 L201.6862421536212 167.414985316291 L202.79106955517483 164.8001495482857 L203.89589695672845 162.2533730887204 L205.00072435828213 159.7738108424888 L206.10555175983586 157.36014104188243 L207.21037916138948 155.01059914317472 L208.3152065629431 152.7230172383001 L209.42003396449678 150.4948684255896 L210.52486136605052 148.3233154946063 L211.62968876760414 146.2052631995168 L212.73451616915776 144.13741332496616 L213.83934357071143 142.11632168982356 L214.9441709722651 140.13845618897818 L216.0489983738188 138.20025494293998 L217.1538257753724 136.29818361050513 L218.2586531769261 134.42879092191373 L219.36348057847977 132.5887615093539 L220.46830798003344 130.77496514846098 L221.57313538158706 128.98450157835975 L222.67796278314074 127.21474013833364 L223.78279018469442 125.46335354522137 L224.8876175862481 123.72834523597413 L225.99244498780172 122.0080698125791 L227.0972723893554 120.30124624987451 L228.20209979090907 118.60696365831683 L229.30692719246275 116.92467953084389 L230.41175459401637 115.25421054314165 L231.51658199557005 113.59571611672652 L232.62140939712373 111.94967509167594 L233.7262367986774 110.31685598746117 L234.83106420023103 108.6982814535823 L235.9358916017847 107.0951876236918 L237.04071900333838 105.50897918541915 L238.14554640489206 103.9411810607877 L239.25037380644568 102.39338765735863 L240.35520120799936 100.86721069634893 L241.46002860955304 99.36422665015544 L242.5648560111067 97.88592482721037 L243.66968341266033 96.43365712690957 L244.774510814214 95.00859045177441 L245.8793382157677 93.61166270884559 L246.9841656173213 92.2435432589395 L248.088993018875 90.90459858233925 L249.19382042042866 89.59486382494902 L250.29864782198234 88.31402077227278 L251.40347522353596 87.06138267236344 L252.50830262508964 85.83588619607133 L253.61313002664332 84.63609068647094 L254.717957428197 83.46018471217127 L255.82278482975062 82.30599980450455 L256.9276122313043 81.17103112896888 L258.032439632858 80.05246471972424 L259.13726703441165 78.94721079458327 L260.24209443596527 77.85194256908414 L261.346921837519 76.76313990355845 L262.4517492390726 75.6771370478404 L263.55657664062625 74.59017369548968 L264.6614040421799 73.49844852326652 L265.7662314437336 72.39817437231784 L266.8710588452873 71.28563422447053 L267.9758862468409 70.15723713938024 L269.0807136483946 69.00957334481012 L270.18554104994826 67.83946771140745 L271.29036845150193 66.64403089334456 L272.39519585305555 65.42070747502146 L273.50002325460923 64.16732052972202 L274.6048506561629 62.882112066656475 L275.7096780577166 61.563778916136414 L276.8145054592702 60.21150367697885 L277.9193328608239 58.82498042387044 L279.02416026237756 57.40443494408595 L280.12898766393124 55.95063934132668 L281.23381506548486 54.464920908949125 L282.33864246703854 52.949165234827205 L283.4434698685922 51.405813555409566 L284.5482972701459 49.83785442728043 L285.6531246716995 48.24880983108136 L286.7579520732532 46.64271586538973 L287.86277947480687 45.02409822790645 L288.96760687636055 43.397942718674415 L290.07243427791417 41.769661035768195 L291.17726167946785 40.14505216868139 L292.2820890810215 38.53025972894841 L293.3869164825752 36.93172559176327 L294.4917438841288 35.356140256657966 L295.5965712856825 33.8103903695316 L296.7013986872362 32.30150388218971 L297.8062260887898 30.83659335841753 L298.9110534903435 29.42279796670266 L300.01588089189715 28.067224728027952 L301.12070829345083 26.776889611508693 L302.22553569500445 25.558659089911373 L303.33036309655813 24.419192779961293 L304.4351904981118 23.364887797718495 L305.5400178996655 22.401825456114125 L306.6448453012191 21.53572091914441 L307.7496727027728 20.771876404645184 L308.85450010432646 20.115138494670134 L309.95932750588014 19.569860069364893 L311.0641549074338 19.13986732711504 L312.1689823089875 18.828432291466584 L313.2738097105411 18.638251134804705 L314.37863711209474 18.571428571428555 L315.48346451364836 18.62946848985382 L316.58829191520203 18.813270907955598 L317.69311931675577 19.12313524639302 L318.7979467183095 19.558769827907838 L319.9027741198631 20.119307424187923 L321.00760152141675 20.803326589919266 L322.1124289229704 21.608878447063717 L323.21725632452404 22.53351851266649 L324.32208372607766 23.574343101803436 L325.42691112763134 24.72802978451989 L326.5317385291851 25.990881332420088 L327.6365659307388 27.358872557122993 L328.74139333229243 28.82769941931531 L329.84622073384605 30.392829773139567 L330.95104813539973 32.04955510594118 L332.05587553695335 33.79304263715659 L333.160702938507 35.618387151656634 L334.26553034006065 37.52066196140356 L335.3703577416144 39.49496841387031 L336.4751851431681 41.53648339558464 L337.58001254472174 43.64050431349585 L338.68483994627536 45.8024910750824 L339.78966734782904 48.01810462947509 L340.89449474938266 50.283241676062346 L341.9993221509363 52.59406519353939 L343.1041495524899 54.94703049110956 L344.2089769540437 57.338906534200305 L345.3138043555974 59.76679234965661 L346.41863175715105 62.22812836972429 L347.52345915870467 64.72070263026762 L348.62828656025835 67.24265179631539 L349.73311396181197 69.79245704714805 L350.8379413633656 72.36893491328533 L351.9427687649192 74.9712232185903 L353.04759616647294 77.59876234166433 L354.15242356802673 80.2512720711095 L355.25725096958035 82.92872438823957 L356.362078371134 85.63131256753053 L357.46690577268765 88.35941703843844 L358.5717331742413 91.1135685011829 L359.6765605757949 93.89440883249847 L360.7813879773485 96.70265035419345 L361.88621537890225 99.53903406656514 L362.991042780456 102.40428746943587 L364.0958701820096 105.29908260496171 L365.20069758356334 108.2239949579689 L366.30552498511696 111.17946384090988 L367.4103523866706 114.16575487161504 L368.5151797882242 117.18292512284006 L369.6200071897778 120.23079148372676 L370.72483459133156 123.30890272521185 L371.8296619928853 126.41651570508685 L372.9344893944389 129.5525760849199 L374.03931679599253 132.71570386163114 L375.14414419754627 135.90418394256585 L376.2489715990999 139.11596191599133 L377.3537990006535 142.34864509047256 L378.45862640220713 145.599508798214 L379.56345380376086 148.86550788055737 L380.6682812053146 152.14329319987593 L381.7731086068682 155.42923295226086 L382.87793600842184 158.7194384908132 L383.9827634099756 162.00979431085355 L385.0875908115292 165.29599179669106 L386.1924182130828 168.5735662851476 L387.29724561463644 171.83793696413207 L388.4020730161902 175.0844490952328 L389.5069004177439 178.30841802742106 L390.6117278192975 181.50517445428605 L391.71655522085115 184.6701103593542 L392.8213826224049 187.7987250924869 L393.9262100239585 190.88667102462864 L395.0310374255121 193.92979823769815 L396.13586482706575 196.9241977207086 L397.2406922286195 199.86624256177026 L398.3455196301732 202.75262664810649 L399.45034703172684 205.58040041225328 L400.55517443328046 208.3470031920353 L401.6600018348342 211.05029180457052 L402.7648292363878 213.68856497043842 L403.86965663794143 216.2605832632476 L404.97448403949505 218.7655843022828 L406.0793114410488 221.20329295174187 L407.1841388426025 223.57392633939332 L408.28896624415614 225.87819356032668 L409.39379364570976 228.117289987735 L410.4986210472634 230.2928861722378 L411.6034484488171 232.40711137377298 L412.70827585037074 234.46253183511197 L413.81310325192436 236.46212397290805 L414.9179306534781 238.40924273008983 L416.02275805503183 240.3075854013354 L417.12758545658545 242.16115131018623 L418.23241285813907 243.97419778080348 L419.3372402596927 245.7511929080703 L420.4420676612464 247.4967656852951 L421.54689506280005 249.21565409774064 L422.65172246435367 250.91265183123824 L423.7565498659074 252.5925542769652 L424.86137726746114 254.26010453494877 L425.96620466901476 255.91994012910578 L427.0710320705684 257.576541144942 L428.175859472122 259.23418048703775 L429.28068687367573 260.8968769270358 L430.38551427522935 262.56835157425917 L431.490341676783 264.25198835085615 L432.5951690783367 265.9507989923795 L433.69999647989044 267.667393024099 L434.80482388144407 269.4039530845563 L435.9096512829977 271.16221588253245 L437.0144786845513 272.9434589835374 L438.1193060861049 274.74849352908365 L439.22413348765866 276.5776628983681 L440.3289608892123 278.4308472295561 L441.433788290766 280.30747362856744 L442.53861569231975 282.2065318089359 L443.6434430938734 284.12659482858123 L444.748270495427 286.06584451964443 L445.8530978969806 288.022101147056 L446.95792529853424 289.99285678116735 L448.06275270008797 291.9753118301569 L449.1675801016416 293.9664141493748 L450.2724075031953 295.9629001273242 L451.37723490474906 297.9613371413531 L452.4820623063027 299.9581667798592 L453.5868897078563 301.9497482411732 L454.6917171094099 303.9324013413973 L455.79654451096354 305.90244859331534 L456.9013719125173 307.85625585492494 L458.0061993140709 309.79027108801506 L459.11102671562463 311.70106081333364 L460.21585411717837 313.5853438981242 L461.320681518732 315.44002236306216 L462.4255089202856 317.2622089479014 L463.53033632183923 319.0492512275714 L464.63516372339285 320.79875212227563 L465.7399911249466 322.5085866957178 L466.8448185265002 324.17691518441194 L467.94964592805394 325.80219224774726 L469.0544733296077 327.3831724728016 L470.1593007311613 328.91891220966147 L471.2641281327149 330.40876785209167 L472.36895553426854 331.85239071475957 L473.47378293582216 333.24971869182366 L474.5786103373758 334.6009649125182 L475.6834377389295 335.90660363738095 L476.78826514048325 337.1673536639069 L477.893092542037 338.3841595325827 L478.9979199435906 339.55817084331585 L480.1027473451442 340.6907200080382 L481.20757474669784 341.7832987775153 L482.31240214825146 342.837533888876 L483.4172295498051 343.8551621848306 L484.5220569513588 344.8380055556966 L485.62688435291255 345.78794605097085 L486.7317117544663 346.7069014980651 L487.8365391560199 347.5968019518459 L488.94136655757353 348.4595672797246 L490.04619395912715 349.2970861633173 L491.1510213606808 350.11119676930764 L492.2558487622344 350.90366930941593 L493.3606761637881 351.67619067277474 L494.46550356534186 352.4303512741055 L495.5703309668956 353.1676342186265 L496.6751583684492 353.8894068404247 L497.77998577000284 354.59691462602916 L498.88481317155646 355.29127749015277 L499.9896405731101 355.97348832705507 L501.0944679746637 356.6444137197929 L502.1992953762173 357.3047966517957 L503.30412277777117 357.9552610316932 L504.4089501793249 358.59631781400594 L505.5137775808785 359.2283724759135 L506.61860498243215 359.8517335944065 L507.72343238398577 360.46662225908943 L508.8282597855394 361.07318205389583 L509.933087187093 361.67148934595485 L511.03791458864663 362.2615636315397 L512.1427419902004 362.84337770693674 L513.2475693917543 363.4168674555141 L514.3523967933079 363.9819410703611 L515.4572241948615 364.5384875635967 L516.5620515964151 365.08638444767024 L517.6668789979688 365.6255045094933 L518.7717063995224 366.1557216338109 L519.876533801076 366.67691566663734 L520.9813612026298 367.18897634168343 L522.0861886041835 367.69180632146634 L523.1910160057371 368.1853234293122 L524.2958434072907 368.66946216803444 L525.4006708088443 369.1441746352007 L526.505498210398 369.6094309532971 L527.6103256119516 370.0652193357371 L528.7151530135052 370.5115459067166 L529.819980415059 370.9484343848063 L530.9248078166127 371.37592572750276 L532.0296352181665 371.7940778175166 L533.1344626197201 372.20296525226576 L534.2392900212737 372.6026792768915 L535.3441174228274 372.99332787916865 L536.448944824381 373.375036043017 L537.5537722259346 373.74794613695343 L538.6585996274885 374.11221839569424 L539.7634270290421 374.4680314380374 L540.8682544305957 374.8155827527829 L541.9730818321493 375.15508907725354 L543.0779092337029 375.48678659024546 L544.1827366352566 375.8109308430207 L545.2875640368102 376.1277963581221 L546.3923914383638 376.4376758360093 L547.4972188399177 376.74087892326344 L548.6020462414713 377.0377305127309 L549.7068736430251 377.3285685646871 L550.8117010445787 377.6137414580298 L551.9165284461324 377.893604900756 L553.021355847686 378.16851844861935 L554.1261832492396 378.438841699037 L555.2310106507932 378.7049302432126 L556.3358380523471 378.9671314723766 L557.4406654539007 379.2257803434632 L558.5454928554543 379.48119521503736 L559.6503202570079 379.73367386564007 L560.7551476585616 379.9834898038713 L561.8599750601152 380.2308889726127 L562.9648024616688 380.4760869390877 L564.0696298632224 380.71926664841385 L565.1744572647763 380.9605768014852 L566.2792846663299 381.20013089910225 L567.3841120678835 381.43800697399354 L568.4889394694374 381.67424801151543 L569.593766870991 381.9088630391767 L570.6985942725446 382.14182884546506 L571.8034216740982 382.3730922704601 L572.9082490756518 382.6025729950286 L574.0130764772057 382.8301667425231 L575.1179038787593 383.0557487972398 L576.2227312803129 383.27917773769803 L577.3275586818665 383.500299280189 L578.4323860834202 383.7189501289967 L579.5372134849738 383.93496173405026 L580.6420408865274 384.1481638642493 L581.746868288081 384.35838791492733 L582.8516956896349 384.5654698804003 L583.9565230911885 384.76925293675356 L585.0613504927421 384.9695895953683 L586.166177894296 385.16634340356944 L587.2710052958496 385.35939018461414 L588.3758326974032 385.5486188244539 L589.4806600989568 385.73393162679366 L590.5854875005105 385.91524427048796 L591.6903149020643 386.0924854138939 L592.7951423036179 386.26559599917175 L592.7951423036179 390.0 L591.6903149020643 390.0 L590.5854875005105 390.0 L589.4806600989568 390.0 L588.3758326974032 390.0 L587.2710052958496 390.0 L586.166177894296 390.0 L585.0613504927421 390.0 L583.9565230911885 390.0 L582.8516956896349 390.0 L581.746868288081 390.0 L580.6420408865274 390.0 L579.5372134849738 390.0 L578.4323860834202 390.0 L577.3275586818665 390.0 L576.2227312803129 390.0 L575.1179038787593 390.0 L574.0130764772057 390.0 L572.9082490756518 390.0 L571.8034216740982 390.0 L570.6985942725446 390.0 L569.593766870991 390.0 L568.4889394694374 390.0 L567.3841120678835 390.0 L566.2792846663299 390.0 L565.1744572647763 390.0 L564.0696298632224 390.0 L562.9648024616688 390.0 L561.8599750601152 390.0 L560.7551476585616 390.0 L559.6503202570079 390.0 L558.5454928554543 390.0 L557.4406654539007 390.0 L556.3358380523471 390.0 L555.2310106507932 390.0 L554.1261832492396 390.0 L553.021355847686 390.0 L551.9165284461324 390.0 L550.8117010445787 390.0 L549.7068736430251 390.0 L548.6020462414713 390.0 L547.4972188399177 390.0 L546.3923914383638 390.0 L545.2875640368102 390.0 L544.1827366352566 390.0 L543.0779092337029 390.0 L541.9730818321493 390.0 L540.8682544305957 390.0 L539.7634270290421 390.0 L538.6585996274885 390.0 L537.5537722259346 390.0 L536.448944824381 390.0 L535.3441174228274 390.0 L534.2392900212737 390.0 L533.1344626197201 390.0 L532.0296352181665 390.0 L530.9248078166127 390.0 L529.819980415059 390.0 L528.7151530135052 390.0 L527.6103256119516 390.0 L526.505498210398 390.0 L525.4006708088443 390.0 L524.2958434072907 390.0 L523.1910160057371 390.0 L522.0861886041835 390.0 L520.9813612026298 390.0 L519.876533801076 390.0 L518.7717063995224 390.0 L517.6668789979688 390.0 L516.5620515964151 390.0 L515.4572241948615 390.0 L514.3523967933079 390.0 L513.2475693917543 390.0 L512.1427419902004 390.0 L511.03791458864663 390.0 L509.933087187093 390.0 L508.8282597855394 390.0 L507.72343238398577 390.0 L506.61860498243215 390.0 L505.5137775808785 390.0 L504.4089501793249 390.0 L503.30412277777117 390.0 L502.1992953762173 390.0 L501.0944679746637 390.0 L499.9896405731101 390.0 L498.88481317155646 390.0 L497.77998577000284 390.0 L496.6751583684492 390.0 L495.5703309668956 390.0 L494.46550356534186 390.0 L493.3606761637881 390.0 L492.2558487622344 390.0 L491.1510213606808 390.0 L490.04619395912715 390.0 L488.94136655757353 390.0 L487.8365391560199 390.0 L486.7317117544663 390.0 L485.62688435291255 390.0 L484.5220569513588 390.0 L483.4172295498051 390.0 L482.31240214825146 390.0 L481.20757474669784 390.0 L480.1027473451442 390.0 L478.9979199435906 390.0 L477.893092542037 390.0 L476.78826514048325 390.0 L475.6834377389295 390.0 L474.5786103373758 390.0 L473.47378293582216 390.0 L472.36895553426854 390.0 L471.2641281327149 390.0 L470.1593007311613 390.0 L469.0544733296077 390.0 L467.94964592805394 390.0 L466.8448185265002 390.0 L465.7399911249466 390.0 L464.63516372339285 390.0 L463.53033632183923 390.0 L462.4255089202856 390.0 L461.320681518732 390.0 L460.21585411717837 390.0 L459.11102671562463 390.0 L458.0061993140709 390.0 L456.9013719125173 390.0 L455.79654451096354 390.0 L454.6917171094099 390.0 L453.5868897078563 390.0 L452.4820623063027 390.0 L451.37723490474906 390.0 L450.2724075031953 390.0 L449.1675801016416 390.0 L448.06275270008797 390.0 L446.95792529853424 390.0 L445.8530978969806 390.0 L444.748270495427 390.0 L443.6434430938734 390.0 L442.53861569231975 390.0 L441.433788290766 390.0 L440.3289608892123 390.0 L439.22413348765866 390.0 L438.1193060861049 390.0 L437.0144786845513 390.0 L435.9096512829977 390.0 L434.80482388144407 390.0 L433.69999647989044 390.0 L432.5951690783367 390.0 L431.490341676783 390.0 L430.38551427522935 390.0 L429.28068687367573 390.0 L428.175859472122 390.0 L427.0710320705684 390.0 L425.96620466901476 390.0 L424.86137726746114 390.0 L423.7565498659074 390.0 L422.65172246435367 390.0 L421.54689506280005 390.0 L420.4420676612464 390.0 L419.3372402596927 390.0 L418.23241285813907 390.0 L417.12758545658545 390.0 L416.02275805503183 390.0 L414.9179306534781 390.0 L413.81310325192436 390.0 L412.70827585037074 390.0 L411.6034484488171 390.0 L410.4986210472634 390.0 L409.39379364570976 390.0 L408.28896624415614 390.0 L407.1841388426025 390.0 L406.0793114410488 390.0 L404.97448403949505 390.0 L403.86965663794143 390.0 L402.7648292363878 390.0 L401.6600018348342 390.0 L400.55517443328046 390.0 L399.45034703172684 390.0 L398.3455196301732 390.0 L397.2406922286195 390.0 L396.13586482706575 390.0 L395.0310374255121 390.0 L393.9262100239585 390.0 L392.8213826224049 390.0 L391.71655522085115 390.0 L390.6117278192975 390.0 L389.5069004177439 390.0 L388.4020730161902 390.0 L387.29724561463644 390.0 L386.1924182130828 390.0 L385.0875908115292 390.0 L383.9827634099756 390.0 L382.87793600842184 390.0 L381.7731086068682 390.0 L380.6682812053146 390.0 L379.56345380376086 390.0 L378.45862640220713 390.0 L377.3537990006535 390.0 L376.2489715990999 390.0 L375.14414419754627 390.0 L374.03931679599253 390.0 L372.9344893944389 390.0 L371.8296619928853 390.0 L370.72483459133156 390.0 L369.6200071897778 390.0 L368.5151797882242 390.0 L367.4103523866706 390.0 L366.30552498511696 390.0 L365.20069758356334 390.0 L364.0958701820096 390.0 L362.991042780456 390.0 L361.88621537890225 390.0 L360.7813879773485 390.0 L359.6765605757949 390.0 L358.5717331742413 390.0 L357.46690577268765 390.0 L356.362078371134 390.0 L355.25725096958035 390.0 L354.15242356802673 390.0 L353.04759616647294 390.0 L351.9427687649192 390.0 L350.8379413633656 390.0 L349.73311396181197 390.0 L348.62828656025835 390.0 L347.52345915870467 390.0 L346.41863175715105 390.0 L345.3138043555974 390.0 L344.2089769540437 390.0 L343.1041495524899 390.0 L341.9993221509363 390.0 L340.89449474938266 390.0 L339.78966734782904 390.0 L338.68483994627536 390.0 L337.58001254472174 390.0 L336.4751851431681 390.0 L335.3703577416144 390.0 L334.26553034006065 390.0 L333.160702938507 390.0 L332.05587553695335 390.0 L330.95104813539973 390.0 L329.84622073384605 390.0 L328.74139333229243 390.0 L327.6365659307388 390.0 L326.5317385291851 390.0 L325.42691112763134 390.0 L324.32208372607766 390.0 L323.21725632452404 390.0 L322.1124289229704 390.0 L321.00760152141675 390.0 L319.9027741198631 390.0 L318.7979467183095 390.0 L317.69311931675577 390.0 L316.58829191520203 390.0 L315.48346451364836 390.0 L314.37863711209474 390.0 L313.2738097105411 390.0 L312.1689823089875 390.0 L311.0641549074338 390.0 L309.95932750588014 390.0 L308.85450010432646 390.0 L307.7496727027728 390.0 L306.6448453012191 390.0 L305.5400178996655 390.0 L304.4351904981118 390.0 L303.33036309655813 390.0 L302.22553569500445 390.0 L301.12070829345083 390.0 L300.01588089189715 390.0 L298.9110534903435 390.0 L297.8062260887898 390.0 L296.7013986872362 390.0 L295.5965712856825 390.0 L294.4917438841288 390.0 L293.3869164825752 390.0 L292.2820890810215 390.0 L291.17726167946785 390.0 L290.07243427791417 390.0 L288.96760687636055 390.0 L287.86277947480687 390.0 L286.7579520732532 390.0 L285.6531246716995 390.0 L284.5482972701459 390.0 L283.4434698685922 390.0 L282.33864246703854 390.0 L281.23381506548486 390.0 L280.12898766393124 390.0 L279.02416026237756 390.0 L277.9193328608239 390.0 L276.8145054592702 390.0 L275.7096780577166 390.0 L274.6048506561629 390.0 L273.50002325460923 390.0 L272.39519585305555 390.0 L271.29036845150193 390.0 L270.18554104994826 390.0 L269.0807136483946 390.0 L267.9758862468409 390.0 L266.8710588452873 390.0 L265.7662314437336 390.0 L264.6614040421799 390.0 L263.55657664062625 390.0 L262.4517492390726 390.0 L261.346921837519 390.0 L260.24209443596527 390.0 L259.13726703441165 390.0 L258.032439632858 390.0 L256.9276122313043 390.0 L255.82278482975062 390.0 L254.717957428197 390.0 L253.61313002664332 390.0 L252.50830262508964 390.0 L251.40347522353596 390.0 L250.29864782198234 390.0 L249.19382042042866 390.0 L248.088993018875 390.0 L246.9841656173213 390.0 L245.8793382157677 390.0 L244.774510814214 390.0 L243.66968341266033 390.0 L242.5648560111067 390.0 L241.46002860955304 390.0 L240.35520120799936 390.0 L239.25037380644568 390.0 L238.14554640489206 390.0 L237.04071900333838 390.0 L235.9358916017847 390.0 L234.83106420023103 390.0 L233.7262367986774 390.0 L232.62140939712373 390.0 L231.51658199557005 390.0 L230.41175459401637 390.0 L229.30692719246275 390.0 L228.20209979090907 390.0 L227.0972723893554 390.0 L225.99244498780172 390.0 L224.8876175862481 390.0 L223.78279018469442 390.0 L222.67796278314074 390.0 L221.57313538158706 390.0 L220.46830798003344 390.0 L219.36348057847977 390.0 L218.2586531769261 390.0 L217.1538257753724 390.0 L216.0489983738188 390.0 L214.9441709722651 390.0 L213.83934357071143 390.0 L212.73451616915776 390.0 L211.62968876760414 390.0 L210.52486136605052 390.0 L209.42003396449678 390.0 L208.3152065629431 390.0 L207.21037916138948 390.0 L206.10555175983586 390.0 L205.00072435828213 390.0 L203.89589695672845 390.0 L202.79106955517483 390.0 L201.6862421536212 390.0 L200.58141475206747 390.0 L199.4765873505138 390.0 L198.37175994896018 390.0 L197.26693254740655 390.0 L196.16210514585282 390.0 L195.05727774429914 390.0 L193.95245034274552 390.0 L192.8476229411919 390.0 L191.74279553963817 390.0 L190.6379681380845 390.0 L189.53314073653087 390.0 L188.42831333497725 390.0 L187.32348593342357 390.0 L186.21865853186983 390.0 L185.1138311303162 390.0 L184.0090037287626 390.0 L182.90417632720892 390.0 L181.79934892565518 390.0 L180.69452152410156 390.0 L179.58969412254794 390.0 L178.48486672099426 390.0 L177.38003931944053 390.0 L176.2752119178869 390.0 L175.17038451633329 390.0 L174.0655571147796 390.0 L172.96072971322587 390.0 L171.85590231167225 390.0 L170.75107491011863 390.0 L169.64624750856495 390.0 L168.54142010701122 390.0 L167.4365927054576 390.0 L166.33176530390398 390.0 L165.2269379023503 390.0 L164.12211050079662 390.0 L163.01728309924295 390.0 L161.91245569768932 390.0 L160.80762829613565 390.0 L159.70280089458197 390.0 L158.5979734930283 390.0 L157.49314609147467 390.0 L156.388318689921 390.0 L155.28349128836732 390.0 L154.17866388681364 390.0 L153.07383648526002 390.0 L151.96900908370634 390.0 L150.86418168215266 390.0 L149.75935428059898 390.0 L148.65452687904536 390.0 L147.54969947749169 390.0 L146.444872075938 390.0 L145.34004467438433 390.0 L144.2352172728307 390.0 L143.13038987127703 390.0 L142.02556246972335 390.0 L140.92073506816968 390.0 L139.81590766661606 390.0 L138.71108026506238 390.0 L137.6062528635087 390.0 L136.50142546195502 390.0 L135.3965980604014 390.0 L134.29177065884772 390.0 L133.18694325729405 390.0 L132.08211585574043 390.0 L130.97728845418675 390.0 L129.87246105263307 390.0 L128.7676336510794 390.0 L127.66280624952577 390.0 L126.5579788479721 390.0 L125.45315144641842 390.0 L124.34832404486474 390.0 L123.24349664331112 390.0 L122.13866924175744 390.0 L121.03384184020376 390.0 L119.92901443865009 390.0 L118.82418703709646 390.0 L117.71935963554279 390.0 L116.61453223398911 390.0 L115.50970483243543 390.0 L114.40487743088181 390.0 L113.30005002932813 390.0 L112.19522262777446 390.0 L111.09039522622078 390.0 L109.98556782466716 390.0 L108.88074042311348 390.0 L107.7759130215598 390.0 L106.67108562000612 390.0 L105.5662582184525 390.0 L104.46143081689883 390.0 L103.35660341534515 390.0 L102.25177601379147 390.0 L101.14694861223785 390.0 L100.0421212106842 390.0 L98.93729380913052 390.0 L97.83246640757682 390.0 L96.7276390060232 390.0 L95.62281160446955 390.0 L94.51798420291587 390.0 L93.41315680136216 390.0 L92.30832939980854 390.0 L91.2035019982549 390.0 L90.09867459670122 390.0 L88.99384719514751 390.0 L87.88901979359389 390.0 L86.78419239204024 390.0 L85.67936499048656 390.0 L84.57453758893288 390.0 L83.46971018737923 390.0 L82.36488278582559 390.0 L81.26005538427191 390.0 L80.15522798271823 390.0 L79.05040058116458 390.0 L77.94557317961093 390.0 L76.84074577805725 390.0 L75.7359183765036 390.0 L74.63109097494993 390.0 L73.52626357339628 390.0 L72.4214361718426 390.0 L71.31660877028895 390.0 L70.21178136873527 390.0 L69.10695396718162 390.0 L68.00212656562795 390.0 L66.8972991640743 390.0 L65.79247176252062 390.0 L64.68764436096697 390.0 L63.58281695941329 390.0 L62.477989557859644 390.0 L61.373162156305966 390.0 L60.26833475475232 390.0 L59.16350735319864 390.0 L58.05867995164499 390.0 L56.95385255009131 390.0 L55.84902514853766 390.0 L54.744197746984014 390.0 L53.639370345430336 390.0 L52.53454294387669 390.0 L51.42971554232301 390.0 L50.32488814076936 390.0 L49.22006073921568 390.0 L48.11523333766203 390.0 L47.010405936108356 390.0 L45.90557853455471 390.0 L44.80075113300103 390.0 L43.69592373144738 390.0 L42.5910963298937 390.0 L41.48626892834005 390.0 L40.381441526786375 390.0 L39.276614125232726 390.0 L38.17178672367905 390.0 L37.0669593221254 390.0 L35.96213192057172 390.0 L34.85730451901807 390.0 L33.752477117464394 390.0 L32.647649715910745 390.0 L31.542822314357068 390.0 L30.43799491280342 390.0 L29.33316751124974 390.0 L28.22834010969609 390.0 Z" fill="rgb(187,187,187)" stroke-width="1.0" fill-opacity="0.10196078431372549">
          </path>
        </g>
        <g>
          <path d="M28.22834010969609 386.2471424565671 L28.22834010969609 386.2471424565671 L29.33316751124974 386.10233317467623 L30.43799491280342 385.95444657224164 L31.542822314357068 385.80302356456934 L32.647649715910745 385.64752854529587 L33.752477117464394 385.48734837472125 L34.85730451901807 385.3217922051915 L35.96213192057172 385.15009216645393 L37.0669593221254 384.9714049221539 L38.17178672367905 384.7848140971176 L39.276614125232726 384.58933356406027 L40.381441526786375 384.3839115681293 L41.48626892834005 384.1674356584693 L42.5910963298937 383.93873838796833 L43.69592373144738 383.69660373564074 L44.80075113300103 383.4397742008119 L45.90557853455471 383.1669585144071 L47.010405936108356 382.8768399101783 L48.11523333766203 382.5680848975223 L49.22006073921568 382.2393524775051 L50.32488814076936 381.88930374459613 L51.42971554232301 381.51661181818423 L52.53454294387669 381.11997204992207 L53.639370345430336 380.69811245500347 L54.744197746984014 380.24980431733167 L55.84902514853766 379.7738729198551 L56.95385255009131 379.2692083518635 L58.05867995164499 378.7347763444844 L59.16350735319864 378.1696290838023 L60.26833475475232 377.5729159477882 L61.373162156305966 376.94389410850414 L62.477989557859644 376.2819389348409 L63.58281695941329 375.5865541234382 L64.68764436096697 374.8573814766108 L65.79247176252062 374.09421023631427 L66.8972991640743 373.2969858727783 L68.00212656562795 372.4658182158348 L69.10695396718162 371.6009888066528 L70.21178136873527 370.7029573380996 L71.31660877028895 369.7723670438446 L72.4214361718426 368.8100488901939 L73.52626357339628 367.81702442106416 L74.63109097494993 366.7945071060239 L75.7359183765036 365.74390204444603 L76.84074577805725 364.66680388595245 L77.94557317961093 363.5649928388163 L79.05040058116458 362.44042865403816 L80.15522798271823 361.29524249351255 L81.26005538427191 360.13172661599 L82.36488278582559 358.952321844206 L83.46971018737923 357.759602810216 L84.57453758893288 356.55626101312515 L85.67936499048656 355.34508576333803 L86.78419239204024 354.12894312937163 L87.88901979359389 352.9107530462155 L88.99384719514751 351.69346478714806 L90.09867459670122 350.48003104270015 L91.2035019982549 349.27338088993275 L92.30832939980854 348.07639197117965 L93.41315680136216 346.89186223275334 L94.51798420291587 345.72248159972554 L95.62281160446955 344.5708039817815 L96.7276390060232 343.4392200164564 L97.83246640757682 342.32993095909654 L98.93729380913052 341.24492412317505 L100.0421212106842 340.18595025982717 L101.14694861223785 339.1545032416845 L102.25177601379147 338.1518023834295 L103.35660341534515 337.17877769052666 L104.46143081689883 336.23605827896364 L105.5662582184525 335.3239641536016 L106.67108562000612 334.442501472018 L107.7759130215598 333.591361355958 L108.88074042311348 332.76992224519444 L109.98556782466716 331.9772557204161 L111.09039522622078 331.2121356544154 L112.19522262777446 330.47305048609934 L113.30005002932813 329.7582183513992 L114.40487743088181 329.06560475064066 L115.50970483243543 328.39294238487 L116.61453223398911 327.7377527553097 L117.71935963554279 327.097369091676 L118.82418703709646 326.46896015733745 L119.92901443865009 325.84955447281993 L121.03384184020376 325.2360645041996 L122.13866924175744 324.62531037941653 L123.24349664331112 324.0140427231049 L124.34832404486474 323.3989642384626 L125.45315144641842 322.7767497119967 L126.5579788479721 322.14406417241355 L127.66280624952577 321.49757899696965 L128.7676336510794 320.83398582560227 L129.87246105263307 320.15000821324156 L130.97728845418675 319.44241102199106 L132.08211585574043 318.70800762532986 L133.18694325729405 317.9436650642437 L134.29177065884772 317.14630735830633 L135.3965980604014 316.31291723148246 L136.50142546195502 315.4405365612249 L137.6062528635087 314.52626589891076 L138.71108026506238 313.56726343872276 L139.81590766661606 312.5607438299027 L140.92073506816968 311.50397723334504 L142.02556246972335 310.3942890176154 L143.13038987127703 309.2290604717498 L144.2352172728307 308.0057308830993 L145.34004467438433 306.72180128876334 L146.444872075938 305.37484015983887 L147.54969947749169 303.9624912201107 L148.65452687904536 302.48248353635887 L149.75935428059898 300.9326439479131 L150.86418168215266 299.3109118301568 L151.96900908370634 297.61535611231096 L153.07383648526002 295.8441943958484 L154.17866388681364 293.99581394823326 L155.28349128836732 292.0687942790843 L156.388318689921 290.061930944059 L157.49314609147467 287.9742601672155 L158.5979734930283 285.80508382670143 L159.70280089458197 283.55399431238914 L160.80762829613565 281.2208987384198 L161.91245569768932 278.8060419790757 L163.01728309924295 276.3100279933296 L164.12211050079662 273.73383891181766 L165.2269379023503 271.0788513796887 L166.33176530390398 268.34684967927234 L167.4365927054576 265.5400351971627 L168.54142010701122 262.661031850174 L169.64624750856495 259.7128871427069 L170.75107491011863 256.6990685931101 L171.85590231167225 253.6234553373896 L172.96072971322587 250.4903247937236 L174.0655571147796 247.3043343492865 L175.17038451633329 244.07049811049808 L176.2752119178869 240.79415883758725 L177.38003931944053 237.4809552630459 L178.48486672099426 234.136785069783 L179.58969412254794 230.76776387757204 L180.69452152410156 227.38018065448472 L181.79934892565518 223.98045003261075 L182.90417632720892 220.57506206352744 L184.0090037287626 217.1705299979983 L185.1138311303162 213.77333671561345 L186.21865853186983 210.38988046295262 L187.32348593342357 207.02642058296092 L188.42831333497725 203.6890239331183 L189.53314073653087 200.38351269548284 L190.6379681380845 197.11541427748384 L191.74279553963817 193.8899139883844 L192.8476229411919 190.7118111525237 L193.95245034274552 187.58547928686667 L195.05727774429914 184.514830927162 L196.16210514585282 181.5032876343602 L197.26693254740655 178.55375565128335 L198.37175994896018 175.6686076092919 L199.4765873505138 172.8496706065763 L200.58141475206747 170.09822089441275 L201.6862421536212 167.414985316291 L202.79106955517483 164.8001495482857 L203.89589695672845 162.2533730887204 L205.00072435828213 159.7738108424888 L206.10555175983586 157.36014104188243 L207.21037916138948 155.01059914317472 L208.3152065629431 152.7230172383001 L209.42003396449678 150.4948684255896 L210.52486136605052 148.3233154946063 L211.62968876760414 146.2052631995168 L212.73451616915776 144.13741332496616 L213.83934357071143 142.11632168982356 L214.9441709722651 140.13845618897818 L216.0489983738188 138.20025494293998 L217.1538257753724 136.29818361050513 L218.2586531769261 134.42879092191373 L219.36348057847977 132.5887615093539 L220.46830798003344 130.77496514846098 L221.57313538158706 128.98450157835975 L222.67796278314074 127.21474013833364 L223.78279018469442 125.46335354522137 L224.8876175862481 123.72834523597413 L225.99244498780172 122.0080698125791 L227.0972723893554 120.30124624987451 L228.20209979090907 118.60696365831683 L229.30692719246275 116.92467953084389 L230.41175459401637 115.25421054314165 L231.51658199557005 113.59571611672652 L232.62140939712373 111.94967509167594 L233.7262367986774 110.31685598746117 L234.83106420023103 108.6982814535823 L235.9358916017847 107.0951876236918 L237.04071900333838 105.50897918541915 L238.14554640489206 103.9411810607877 L239.25037380644568 102.39338765735863 L240.35520120799936 100.86721069634893 L241.46002860955304 99.36422665015544 L242.5648560111067 97.88592482721037 L243.66968341266033 96.43365712690957 L244.774510814214 95.00859045177441 L245.8793382157677 93.61166270884559 L246.9841656173213 92.2435432589395 L248.088993018875 90.90459858233925 L249.19382042042866 89.59486382494902 L250.29864782198234 88.31402077227278 L251.40347522353596 87.06138267236344 L252.50830262508964 85.83588619607133 L253.61313002664332 84.63609068647094 L254.717957428197 83.46018471217127 L255.82278482975062 82.30599980450455 L256.9276122313043 81.17103112896888 L258.032439632858 80.05246471972424 L259.13726703441165 78.94721079458327 L260.24209443596527 77.85194256908414 L261.346921837519 76.76313990355845 L262.4517492390726 75.6771370478404 L263.55657664062625 74.59017369548968 L264.6614040421799 73.49844852326652 L265.7662314437336 72.39817437231784 L266.8710588452873 71.28563422447053 L267.9758862468409 70.15723713938024 L269.0807136483946 69.00957334481012 L270.18554104994826 67.83946771140745 L271.29036845150193 66.64403089334456 L272.39519585305555 65.42070747502146 L273.50002325460923 64.16732052972202 L274.6048506561629 62.882112066656475 L275.7096780577166 61.563778916136414 L276.8145054592702 60.21150367697885 L277.9193328608239 58.82498042387044 L279.02416026237756 57.40443494408595 L280.12898766393124 55.95063934132668 L281.23381506548486 54.464920908949125 L282.33864246703854 52.949165234827205 L283.4434698685922 51.405813555409566 L284.5482972701459 49.83785442728043 L285.6531246716995 48.24880983108136 L286.7579520732532 46.64271586538973 L287.86277947480687 45.02409822790645 L288.96760687636055 43.397942718674415 L290.07243427791417 41.769661035768195 L291.17726167946785 40.14505216868139 L292.2820890810215 38.53025972894841 L293.3869164825752 36.93172559176327 L294.4917438841288 35.356140256657966 L295.5965712856825 33.8103903695316 L296.7013986872362 32.30150388218971 L297.8062260887898 30.83659335841753 L298.9110534903435 29.42279796670266 L300.01588089189715 28.067224728027952 L301.12070829345083 26.776889611508693 L302.22553569500445 25.558659089911373 L303.33036309655813 24.419192779961293 L304.4351904981118 23.364887797718495 L305.5400178996655 22.401825456114125 L306.6448453012191 21.53572091914441 L307.7496727027728 20.771876404645184 L308.85450010432646 20.115138494670134 L309.95932750588014 19.569860069364893 L311.0641549074338 19.13986732711504 L312.1689823089875 18.828432291466584 L313.2738097105411 18.638251134804705 L314.37863711209474 18.571428571428555 L315.48346451364836 18.62946848985382 L316.58829191520203 18.813270907955598 L317.69311931675577 19.12313524639302 L318.7979467183095 19.558769827907838 L319.9027741198631 20.119307424187923 L321.00760152141675 20.803326589919266 L322.1124289229704 21.608878447063717 L323.21725632452404 22.53351851266649 L324.32208372607766 23.574343101803436 L325.42691112763134 24.72802978451989 L326.5317385291851 25.990881332420088 L327.6365659307388 27.358872557122993 L328.74139333229243 28.82769941931531 L329.84622073384605 30.392829773139567 L330.95104813539973 32.04955510594118 L332.05587553695335 33.79304263715659 L333.160702938507 35.618387151656634 L334.26553034006065 37.52066196140356 L335.3703577416144 39.49496841387031 L336.4751851431681 41.53648339558464 L337.58001254472174 43.64050431349585 L338.68483994627536 45.8024910750824 L339.78966734782904 48.01810462947509 L340.89449474938266 50.283241676062346 L341.9993221509363 52.59406519353939 L343.1041495524899 54.94703049110956 L344.2089769540437 57.338906534200305 L345.3138043555974 59.76679234965661 L346.41863175715105 62.22812836972429 L347.52345915870467 64.72070263026762 L348.62828656025835 67.24265179631539 L349.73311396181197 69.79245704714805 L350.8379413633656 72.36893491328533 L351.9427687649192 74.9712232185903 L353.04759616647294 77.59876234166433 L354.15242356802673 80.2512720711095 L355.25725096958035 82.92872438823957 L356.362078371134 85.63131256753053 L357.46690577268765 88.35941703843844 L358.5717331742413 91.1135685011829 L359.6765605757949 93.89440883249847 L360.7813879773485 96.70265035419345 L361.88621537890225 99.53903406656514 L362.991042780456 102.40428746943587 L364.0958701820096 105.29908260496171 L365.20069758356334 108.2239949579689 L366.30552498511696 111.17946384090988 L367.4103523866706 114.16575487161504 L368.5151797882242 117.18292512284006 L369.6200071897778 120.23079148372676 L370.72483459133156 123.30890272521185 L371.8296619928853 126.41651570508685 L372.9344893944389 129.5525760849199 L374.03931679599253 132.71570386163114 L375.14414419754627 135.90418394256585 L376.2489715990999 139.11596191599133 L377.3537990006535 142.34864509047256 L378.45862640220713 145.599508798214 L379.56345380376086 148.86550788055737 L380.6682812053146 152.14329319987593 L381.7731086068682 155.42923295226086 L382.87793600842184 158.7194384908132 L383.9827634099756 162.00979431085355 L385.0875908115292 165.29599179669106 L386.1924182130828 168.5735662851476 L387.29724561463644 171.83793696413207 L388.4020730161902 175.0844490952328 L389.5069004177439 178.30841802742106 L390.6117278192975 181.50517445428605 L391.71655522085115 184.6701103593542 L392.8213826224049 187.7987250924869 L393.9262100239585 190.88667102462864 L395.0310374255121 193.92979823769815 L396.13586482706575 196.9241977207086 L397.2406922286195 199.86624256177026 L398.3455196301732 202.75262664810649 L399.45034703172684 205.58040041225328 L400.55517443328046 208.3470031920353 L401.6600018348342 211.05029180457052 L402.7648292363878 213.68856497043842 L403.86965663794143 216.2605832632476 L404.97448403949505 218.7655843022828 L406.0793114410488 221.20329295174187 L407.1841388426025 223.57392633939332 L408.28896624415614 225.87819356032668 L409.39379364570976 228.117289987735 L410.4986210472634 230.2928861722378 L411.6034484488171 232.40711137377298 L412.70827585037074 234.46253183511197 L413.81310325192436 236.46212397290805 L414.9179306534781 238.40924273008983 L416.02275805503183 240.3075854013354 L417.12758545658545 242.16115131018623 L418.23241285813907 243.97419778080348 L419.3372402596927 245.7511929080703 L420.4420676612464 247.4967656852951 L421.54689506280005 249.21565409774064 L422.65172246435367 250.91265183123824 L423.7565498659074 252.5925542769652 L424.86137726746114 254.26010453494877 L425.96620466901476 255.91994012910578 L427.0710320705684 257.576541144942 L428.175859472122 259.23418048703775 L429.28068687367573 260.8968769270358 L430.38551427522935 262.56835157425917 L431.490341676783 264.25198835085615 L432.5951690783367 265.9507989923795 L433.69999647989044 267.667393024099 L434.80482388144407 269.4039530845563 L435.9096512829977 271.16221588253245 L437.0144786845513 272.9434589835374 L438.1193060861049 274.74849352908365 L439.22413348765866 276.5776628983681 L440.3289608892123 278.4308472295561 L441.433788290766 280.30747362856744 L442.53861569231975 282.2065318089359 L443.6434430938734 284.12659482858123 L444.748270495427 286.06584451964443 L445.8530978969806 288.022101147056 L446.95792529853424 289.99285678116735 L448.06275270008797 291.9753118301569 L449.1675801016416 293.9664141493748 L450.2724075031953 295.9629001273242 L451.37723490474906 297.9613371413531 L452.4820623063027 299.9581667798592 L453.5868897078563 301.9497482411732 L454.6917171094099 303.9324013413973 L455.79654451096354 305.90244859331534 L456.9013719125173 307.85625585492494 L458.0061993140709 309.79027108801506 L459.11102671562463 311.70106081333364 L460.21585411717837 313.5853438981242 L461.320681518732 315.44002236306216 L462.4255089202856 317.2622089479014 L463.53033632183923 319.0492512275714 L464.63516372339285 320.79875212227563 L465.7399911249466 322.5085866957178 L466.8448185265002 324.17691518441194 L467.94964592805394 325.80219224774726 L469.0544733296077 327.3831724728016 L470.1593007311613 328.91891220966147 L471.2641281327149 330.40876785209167 L472.36895553426854 331.85239071475957 L473.47378293582216 333.24971869182366 L474.5786103373758 334.6009649125182 L475.6834377389295 335.90660363738095 L476.78826514048325 337.1673536639069 L477.893092542037 338.3841595325827 L478.9979199435906 339.55817084331585 L480.1027473451442 340.6907200080382 L481.20757474669784 341.7832987775153 L482.31240214825146 342.837533888876 L483.4172295498051 343.8551621848306 L484.5220569513588 344.8380055556966 L485.62688435291255 345.78794605097085 L486.7317117544663 346.7069014980651 L487.8365391560199 347.5968019518459 L488.94136655757353 348.4595672797246 L490.04619395912715 349.2970861633173 L491.1510213606808 350.11119676930764 L492.2558487622344 350.90366930941593 L493.3606761637881 351.67619067277474 L494.46550356534186 352.4303512741055 L495.5703309668956 353.1676342186265 L496.6751583684492 353.8894068404247 L497.77998577000284 354.59691462602916 L498.88481317155646 355.29127749015277 L499.9896405731101 355.97348832705507 L501.0944679746637 356.6444137197929 L502.1992953762173 357.3047966517957 L503.30412277777117 357.9552610316932 L504.4089501793249 358.59631781400594 L505.5137775808785 359.2283724759135 L506.61860498243215 359.8517335944065 L507.72343238398577 360.46662225908943 L508.8282597855394 361.07318205389583 L509.933087187093 361.67148934595485 L511.03791458864663 362.2615636315397 L512.1427419902004 362.84337770693674 L513.2475693917543 363.4168674555141 L514.3523967933079 363.9819410703611 L515.4572241948615 364.5384875635967 L516.5620515964151 365.08638444767024 L517.6668789979688 365.6255045094933 L518.7717063995224 366.1557216338109 L519.876533801076 366.67691566663734 L520.9813612026298 367.18897634168343 L522.0861886041835 367.69180632146634 L523.1910160057371 368.1853234293122 L524.2958434072907 368.66946216803444 L525.4006708088443 369.1441746352007 L526.505498210398 369.6094309532971 L527.6103256119516 370.0652193357371 L528.7151530135052 370.5115459067166 L529.819980415059 370.9484343848063 L530.9248078166127 371.37592572750276 L532.0296352181665 371.7940778175166 L533.1344626197201 372.20296525226576 L534.2392900212737 372.6026792768915 L535.3441174228274 372.99332787916865 L536.448944824381 373.375036043017 L537.5537722259346 373.74794613695343 L538.6585996274885 374.11221839569424 L539.7634270290421 374.4680314380374 L540.8682544305957 374.8155827527829 L541.9730818321493 375.15508907725354 L543.0779092337029 375.48678659024546 L544.1827366352566 375.8109308430207 L545.2875640368102 376.1277963581221 L546.3923914383638 376.4376758360093 L547.4972188399177 376.74087892326344 L548.6020462414713 377.0377305127309 L549.7068736430251 377.3285685646871 L550.8117010445787 377.6137414580298 L551.9165284461324 377.893604900756 L553.021355847686 378.16851844861935 L554.1261832492396 378.438841699037 L555.2310106507932 378.7049302432126 L556.3358380523471 378.9671314723766 L557.4406654539007 379.2257803434632 L558.5454928554543 379.48119521503736 L559.6503202570079 379.73367386564007 L560.7551476585616 379.9834898038713 L561.8599750601152 380.2308889726127 L562.9648024616688 380.4760869390877 L564.0696298632224 380.71926664841385 L565.1744572647763 380.9605768014852 L566.2792846663299 381.20013089910225 L567.3841120678835 381.43800697399354 L568.4889394694374 381.67424801151543 L569.593766870991 381.9088630391767 L570.6985942725446 382.14182884546506 L571.8034216740982 382.3730922704601 L572.9082490756518 382.6025729950286 L574.0130764772057 382.8301667425231 L575.1179038787593 383.0557487972398 L576.2227312803129 383.27917773769803 L577.3275586818665 383.500299280189 L578.4323860834202 383.7189501289967 L579.5372134849738 383.93496173405026 L580.6420408865274 384.1481638642493 L581.746868288081 384.35838791492733 L582.8516956896349 384.5654698804003 L583.9565230911885 384.76925293675356 L585.0613504927421 384.9695895953683 L586.166177894296 385.16634340356944 L587.2710052958496 385.35939018461414 L588.3758326974032 385.5486188244539 L589.4806600989568 385.73393162679366 L590.5854875005105 385.91524427048796 L591.6903149020643 386.0924854138939 L592.7951423036179 386.26559599917175 " fill="none" stroke-width="1.6500000000000001" stroke="rgb(187,187,187)" stroke-opacity="1.0">
          </path>
        </g>
      </g>
    </g>
    <g transform="translate(73.97651758668601 15.2 ) ">
      <text class="plot-title" y="0.0">
      `densityPlot()` layer
      </text>
    </g>
    <g transform="translate(14.5 229.0 ) rotate(-90.0 ) ">
      <text class="axis-title-y" y="0.0" text-anchor="middle">
      density
      </text>
    </g>
    <g transform="translate(384.488258793343 461.5 ) ">
      <text class="axis-title-x" y="0.0" text-anchor="middle">
      x
      </text>
    </g>
    <path fill="rgb(0,0,0)" fill-opacity="0.0" stroke="rgb(187,187,187)" stroke-opacity="1.0" stroke-width="0.0" d="M0.0 0.0 L0.0 470.0 L705.0 470.0 L705.0 0.0 Z">
    </path>
  </g>
  <g id="xXxprefixXx2">
  </g>
</svg>