<svg xmlns="http://www.w3.org/2000/svg" xmlns:xlink="http://www.w3.org/1999/xlink" class="plt-container" width="705.0" height="470.0">
  <style type="text/css">
  .plt-container {
   font-family: Lucida Grande, sans-serif;
   user-select: none;
   -webkit-user-select: none;
   -moz-user-select: none;
   -ms-user-select: none;
}
text {
   text-rendering: optimizeLegibility;
}
#xXxprefixXx0 .plot-title {
   fill: #bbbbbb;
   font-family: Lucida Grande, sans-serif;
   font-size: 16.0px;
   font-weight: normal;
   font-style: normal;   
}
#xXxprefixXx0 .plot-subtitle {
   fill: #bbbbbb;
   font-family: Lucida Grande, sans-serif;
   font-size: 15.0px;
   font-weight: normal;
   font-style: normal;   
}
#xXxprefixXx0 .plot-caption {
   fill: #bbbbbb;
   font-family: Lucida Grande, sans-serif;
   font-size: 13.0px;
   font-weight: normal;
   font-style: normal;   
}
#xXxprefixXx0 .legend-title {
   fill: #bbbbbb;
   font-family: Lucida Grande, sans-serif;
   font-size: 15.0px;
   font-weight: normal;
   font-style: normal;   
}
#xXxprefixXx0 .legend-item {
   fill: #bbbbbb;
   font-family: Lucida Grande, sans-serif;
   font-size: 13.0px;
   font-weight: normal;
   font-style: normal;   
}
#xXxprefixXx0 .axis-title-x {
   fill: #bbbbbb;
   font-family: Lucida Grande, sans-serif;
   font-size: 15.0px;
   font-weight: normal;
   font-style: normal;   
}
#xXxprefixXx0 .axis-text-x {
   fill: #bbbbbb;
   font-family: Lucida Grande, sans-serif;
   font-size: 13.0px;
   font-weight: normal;
   font-style: normal;   
}
#xXxprefixXx2 .axis-tooltip-text-x {
   fill: #303030;
   font-family: Lucida Grande, sans-serif;
   font-size: 13.0px;
   font-weight: normal;
   font-style: normal;   
}
#xXxprefixXx0 .axis-title-y {
   fill: #bbbbbb;
   font-family: Lucida Grande, sans-serif;
   font-size: 15.0px;
   font-weight: normal;
   font-style: normal;   
}
#xXxprefixXx0 .axis-text-y {
   fill: #bbbbbb;
   font-family: Lucida Grande, sans-serif;
   font-size: 13.0px;
   font-weight: normal;
   font-style: normal;   
}
#xXxprefixXx2 .axis-tooltip-text-y {
   fill: #303030;
   font-family: Lucida Grande, sans-serif;
   font-size: 13.0px;
   font-weight: normal;
   font-style: normal;   
}
#xXxprefixXx0 .facet-strip-text-x {
   fill: #bbbbbb;
   font-family: Lucida Grande, sans-serif;
   font-size: 13.0px;
   font-weight: normal;
   font-style: normal;   
}
#xXxprefixXx0 .facet-strip-text-y {
   fill: #bbbbbb;
   font-family: Lucida Grande, sans-serif;
   font-size: 13.0px;
   font-weight: normal;
   font-style: normal;   
}
#xXxprefixXx2 .tooltip-text {
   fill: #bbbbbb;
   font-family: Lucida Grande, sans-serif;
   font-size: 13.0px;
   font-weight: normal;
   font-style: normal;   
}
#xXxprefixXx2 .tooltip-title {
   fill: #bbbbbb;
   font-family: Lucida Grande, sans-serif;
   font-size: 13.0px;
   font-weight: bold;
   font-style: normal;   
}
#xXxprefixXx2 .tooltip-label {
   fill: #bbbbbb;
   font-family: Lucida Grande, sans-serif;
   font-size: 13.0px;
   font-weight: bold;
   font-style: normal;   
}

  </style>
  <g id="xXxprefixXx0">
    <path fill-rule="evenodd" fill="rgb(25,25,28)" fill-opacity="1.0" d="M0.0 0.0 L0.0 470.0 L705.0 470.0 L705.0 0.0 Z">
    </path>
    <g transform="translate(23.0 10.0 ) ">
      <g transform="translate(21.961210910936405 414.0 ) ">
        <line x1="76.32252611856762" y1="-0.0" x2="76.32252611856762" y2="-414.0" stroke="rgb(71,71,71)" stroke-opacity="1.0" stroke-width="1.0">
        </line>
        <line x1="178.80325940969564" y1="-0.0" x2="178.80325940969564" y2="-414.0" stroke="rgb(71,71,71)" stroke-opacity="1.0" stroke-width="1.0">
        </line>
        <line x1="281.28399270082366" y1="-0.0" x2="281.28399270082366" y2="-414.0" stroke="rgb(71,71,71)" stroke-opacity="1.0" stroke-width="1.0">
        </line>
        <line x1="383.76472599195165" y1="-0.0" x2="383.76472599195165" y2="-414.0" stroke="rgb(71,71,71)" stroke-opacity="1.0" stroke-width="1.0">
        </line>
        <line x1="486.2454592830797" y1="-0.0" x2="486.2454592830797" y2="-414.0" stroke="rgb(71,71,71)" stroke-opacity="1.0" stroke-width="1.0">
        </line>
        <g transform="translate(76.32252611856762 0.0 ) ">
          <line stroke-width="1.0" stroke="rgb(187,187,187)" stroke-opacity="1.0" x2="0.0" y2="4.0">
          </line>
          <g transform="translate(0.0 7.0 ) ">
            <text class="axis-text-x" text-anchor="middle" dy="0.7em">
            -4
            </text>
          </g>
        </g>
        <g transform="translate(178.80325940969564 0.0 ) ">
          <line stroke-width="1.0" stroke="rgb(187,187,187)" stroke-opacity="1.0" x2="0.0" y2="4.0">
          </line>
          <g transform="translate(0.0 7.0 ) ">
            <text class="axis-text-x" text-anchor="middle" dy="0.7em">
            -2
            </text>
          </g>
        </g>
        <g transform="translate(281.28399270082366 0.0 ) ">
          <line stroke-width="1.0" stroke="rgb(187,187,187)" stroke-opacity="1.0" x2="0.0" y2="4.0">
          </line>
          <g transform="translate(0.0 7.0 ) ">
            <text class="axis-text-x" text-anchor="middle" dy="0.7em">
            0
            </text>
          </g>
        </g>
        <g transform="translate(383.76472599195165 0.0 ) ">
          <line stroke-width="1.0" stroke="rgb(187,187,187)" stroke-opacity="1.0" x2="0.0" y2="4.0">
          </line>
          <g transform="translate(0.0 7.0 ) ">
            <text class="axis-text-x" text-anchor="middle" dy="0.7em">
            2
            </text>
          </g>
        </g>
        <g transform="translate(486.2454592830797 0.0 ) ">
          <line stroke-width="1.0" stroke="rgb(187,187,187)" stroke-opacity="1.0" x2="0.0" y2="4.0">
          </line>
          <g transform="translate(0.0 7.0 ) ">
            <text class="axis-text-x" text-anchor="middle" dy="0.7em">
            4
            </text>
          </g>
        </g>
        <line x1="0.0" y1="0.0" x2="563.0803890681029" y2="0.0" stroke-width="1.0" stroke="rgb(187,187,187)" stroke-opacity="1.0">
        </line>
      </g>
      <g transform="translate(21.961210910936405 0.0 ) ">
        <line x1="0.0" y1="400.1820232482022" x2="563.0803890681029" y2="400.1820232482022" stroke="rgb(71,71,71)" stroke-opacity="1.0" stroke-width="1.0">
        </line>
        <line x1="0.0" y1="320.49640104856854" x2="563.0803890681029" y2="320.49640104856854" stroke="rgb(71,71,71)" stroke-opacity="1.0" stroke-width="1.0">
        </line>
        <line x1="0.0" y1="240.8107788489349" x2="563.0803890681029" y2="240.8107788489349" stroke="rgb(71,71,71)" stroke-opacity="1.0" stroke-width="1.0">
        </line>
        <line x1="0.0" y1="161.1251566493012" x2="563.0803890681029" y2="161.1251566493012" stroke="rgb(71,71,71)" stroke-opacity="1.0" stroke-width="1.0">
        </line>
        <line x1="0.0" y1="81.43953444966752" x2="563.0803890681029" y2="81.43953444966752" stroke="rgb(71,71,71)" stroke-opacity="1.0" stroke-width="1.0">
        </line>
        <g transform="translate(0.0 400.1820232482022 ) ">
          <g transform="translate(-3.0 0.0 ) ">
            <text class="axis-text-y" text-anchor="end" dy="0.35em">
            -5
            </text>
          </g>
        </g>
        <g transform="translate(0.0 320.49640104856854 ) ">
          <g transform="translate(-3.0 0.0 ) ">
            <text class="axis-text-y" text-anchor="end" dy="0.35em">
            0
            </text>
          </g>
        </g>
        <g transform="translate(0.0 240.8107788489349 ) ">
          <g transform="translate(-3.0 0.0 ) ">
            <text class="axis-text-y" text-anchor="end" dy="0.35em">
            5
            </text>
          </g>
        </g>
        <g transform="translate(0.0 161.1251566493012 ) ">
          <g transform="translate(-3.0 0.0 ) ">
            <text class="axis-text-y" text-anchor="end" dy="0.35em">
            10
            </text>
          </g>
        </g>
        <g transform="translate(0.0 81.43953444966752 ) ">
          <g transform="translate(-3.0 0.0 ) ">
            <text class="axis-text-y" text-anchor="end" dy="0.35em">
            15
            </text>
          </g>
        </g>
        <g transform="translate(0.0 1.7539122500338635 ) ">
          <g transform="translate(-3.0 0.0 ) ">
            <text class="axis-text-y" text-anchor="end" dy="0.35em">
            20
            </text>
          </g>
        </g>
      </g>
      <g transform="translate(21.961210910936405 0.0 ) " clip-path="url(#xXxprefixXx1)" clip-bounds-jfx="[rect (0.0, 0.0), (563.0803890681029, 414.0)]">
        <defs>
          <clipPath id="xXxprefixXx1">
            <rect x="0.0" y="0.0" width="563.0803890681029" height="414.0">
            </rect>
          </clipPath>
        </defs>
        <g>
          <path d="M25.59456313945924 395.18181818181813 L25.59456313945924 395.18181818181813 L30.765181955511594 392.00734517947797 L35.935800771564004 388.8482778524049 L41.10641958761636 385.70560323158855 L46.27703840366871 382.5801489653524 L51.447657219721094 379.4724891068487 L56.61827603577345 376.38300772207833 L61.7888948518258 373.311905308249 L66.95951366787821 370.2591346491583 L72.13013248393057 367.224442929507 L77.30075129998292 364.20738037118855 L82.47137011603527 361.2073728151189 L87.64198893208766 358.22376750476604 L92.81260774814001 355.2558610869671 L97.98322656419239 352.30293994992985 L103.15384538024477 349.3643322877768 L108.32446419629713 346.4394038944539 L113.49508301234951 343.527545224253 L118.66570182840186 340.62805972723606 L123.83632064445422 337.74013263190477 L129.0069394605066 334.8627385534641 L134.17755827655898 331.9945410396238 L139.34817709261134 329.13411279552105 L144.51879590866372 326.28127574099625 L149.68941472471607 323.4414013428448 L154.86003354076843 320.884517079025 L160.0306523568208 318.8757821713438 L165.2012711728732 316.8347692077164 L170.37188998892555 314.80786421959806 L175.5425088049779 313.01949761042926 L180.7131276210303 311.07695790967966 L185.88374643708266 309.14119605684516 L191.05436525313502 307.29152762238584 L196.2249840691874 305.61859230999505 L201.39560288523975 303.9751175308112 L206.56622170129214 302.37864398903173 L211.7368405173445 301.42068259333445 L216.90745933339684 299.8886309100295 L222.07807814944923 298.3728960170677 L227.2486969655016 297.33170670978404 L232.41931578155396 296.13999263593996 L237.58993459760632 295.1968216807451 L242.76055341365873 294.19908592558744 L247.93117222971108 293.25754671177737 L253.10179104576343 292.370107883834 L258.27240986181585 291.745998436867 L263.44302867786814 291.1836575351666 L268.61364749392055 290.7255012728808 L273.7842663099729 290.26114493967077 L278.95488512602526 289.9700602069602 L284.1255039420776 289.7950473701044 L289.29612275813 289.7508296215308 L294.4667415741824 289.77150798429113 L299.63736039023473 289.62840835056767 L304.80797920628714 289.6428914235874 L309.9785980223395 289.79032633707226 L315.14921683839185 290.16410877801434 L320.31983565444426 290.3134438532526 L325.4904544704966 290.6302424830568 L330.6610732865489 290.9020036604284 L335.8316921026013 291.12853556452694 L341.0023109186537 291.3338635389782 L346.17292973470603 291.4349742589313 L351.34354855075844 292.0272002674797 L356.5141673668108 292.5749530051783 L361.68478618286315 293.1941670905652 L366.85540499891556 293.7976967863988 L372.0260238149679 294.34376412279136 L377.19664263102027 294.95191338970915 L382.3672614470727 295.5709404057623 L387.537880263125 296.1826864041871 L392.7084990791774 296.8684642821191 L397.8791178952298 297.5767889392221 L403.0497367112821 298.1995127439838 L408.22035552733445 298.8908497714801 L413.39097434338686 299.66706334000503 L418.5615931594392 300.3870077670744 L423.73221197549157 301.1702127206694 L428.902830791544 301.95119517780734 L434.07344960759633 302.73958733810866 L439.2440684236487 303.5484150417241 L444.41468723970104 304.3586428468696 L449.5853060557534 305.1703120826229 L454.75592487180575 305.9834486649526 L459.92654368785816 306.79807038333354 L465.09716250391045 307.6141809644585 L470.26778131996286 308.4317708947977 L475.4384001360153 309.25081948498934 L480.6090189520676 310.0712968954996 L485.77963776812 310.8931715258308 L490.9502565841724 311.71639876857057 L496.1208754002247 312.5409266416537 L501.2914942162771 313.36669883541526 L506.4621130323295 314.1936450903187 L511.6327318483818 315.021673003792 L516.8033506644342 315.85068448200155 L521.9739694804866 316.6805838455028 L527.1445882965389 317.5112791200867 L532.3152071125913 318.3426717840964 L537.4858259286436 319.17465579301563 " fill="none" stroke-width="1.6500000000000001" stroke="rgb(228,26,28)" stroke-opacity="1.0">
          </path>
        </g>
        <g>
          <path d="M25.59456313945924 18.818181818181813 L25.59456313945924 18.818181818181813 L30.765181955511594 28.38771571475519 L35.935800771564004 37.908121405837164 L41.10641958761636 47.37610111233073 L46.27703840366871 56.788208201711825 L51.447657219721094 66.14128126120903 L56.61827603577345 75.43254811612357 L61.7888948518258 84.65988125264147 L66.95951366787821 93.8222443838269 L72.13013248393057 102.91961703962062 L77.30075129998292 111.95307896345571 L82.47137011603527 120.92441922899707 L87.64198893208766 129.83577559868655 L92.81260774814001 138.68959183763556 L97.98322656419239 147.4885227672944 L103.15384538024477 156.23522750664713 L108.32446419629713 164.93225548842383 L113.49508301234951 173.58208478073942 L118.66570182840186 182.18749420046214 L123.83632064445422 190.75164455393204 L129.0069394605066 199.27843421902358 L134.17755827655898 207.77315300910027 L139.34817709261134 216.24284964619864 L144.51879590866372 224.6952402633997 L149.68941472471607 233.1325227411363 L154.86003354076843 240.71451412242533 L160.0306523568208 246.55131723102534 L165.2012711728732 252.5069211451686 L170.37188998892555 258.4346279863844 L175.5425088049779 263.58631369161054 L180.7131276210303 269.26064295877705 L185.88374643708266 274.9404931343911 L191.05436525313502 280.351093554612 L196.2249840691874 285.18113054166076 L201.39560288523975 289.92060184025365 L206.56622170129214 294.51023262325856 L211.7368405173445 296.95351214398227 L216.90745933339684 301.33995588122144 L222.07807814944923 305.64609094774016 L227.2486969655016 308.39690162219745 L232.41931578155396 311.66939902322724 L237.58993459760632 314.1120766192621 L242.76055341365873 316.71041358137876 L247.93117222971108 319.1135539644825 L253.10179104576343 321.3342403563324 L258.27240986181585 322.78258090841433 L263.44302867786814 324.0575021281729 L268.61364749392055 325.04431825399536 L273.7842663099729 326.0365510258685 L278.95488512602526 326.5844002234237 L284.1255039420776 326.8568305462103 L289.29612275813 326.8392857679339 L294.4667415741824 326.69214407640874 L299.63736039023473 326.87263003604005 L304.80797920628714 326.71890735913365 L309.9785980223395 326.3094643875528 L315.14921683839185 325.5329766189234 L320.31983565444426 325.13321956926404 L325.4904544704966 324.47861512324056 L330.6610732865489 323.90065904016456 L335.8316921026013 323.383743995002 L341.0023109186537 322.86921531341824 L346.17292973470603 322.4217536897788 L351.34354855075844 321.461182852379 L356.5141673668108 320.58586448659486 L361.68478618286315 319.6682226660978 L366.85540499891556 318.81431946155107 L372.0260238149679 317.9952101207749 L377.19664263102027 317.16004120847964 L382.3672614470727 316.3548709750792 L387.537880263125 315.5691071145441 L392.7084990791774 314.8381995679839 L397.8791178952298 314.1369909956492 L403.0497367112821 313.4985445631665 L408.22035552733445 312.8555359501036 L413.39097434338686 312.38776860154206 L418.5615931594392 311.81879244848886 L423.73221197549157 311.50559847095013 L428.902830791544 311.2665818021339 L434.07344960759633 311.12559951442114 L439.2440684236487 311.05246140936356 L444.41468723970104 311.003499927016 L449.5853060557534 310.97329359002487 L454.75592487180575 310.95841515228716 L459.92654368785816 310.95685508726916 L465.09716250391045 310.9675726452339 L470.26778131996286 310.9901601595033 L475.4384001360153 311.02470856275573 L480.6090189520676 311.07170621982897 L485.77963776812 311.13190626202487 L490.9502565841724 311.20631333672304 L496.1208754002247 311.2960418671732 L501.2914942162771 311.402216111099 L506.4621130323295 311.52591985326677 L511.6327318483818 311.6681431700563 L516.8033506644342 311.829753008228 L521.9739694804866 312.0114284912724 L527.1445882965389 312.2136685806068 L532.3152071125913 312.4367049834897 L537.4858259286436 312.68031239068273 " fill="none" stroke-width="1.6500000000000001" stroke="rgb(55,126,184)" stroke-opacity="1.0">
          </path>
        </g>
      </g>
    </g>
    <g transform="translate(14.5 217.0 ) rotate(-90.0 ) ">
      <text class="axis-title-y" y="0.0" text-anchor="middle">
      value
      </text>
    </g>
    <g transform="translate(326.5014054449879 461.5 ) ">
      <text class="axis-title-x" y="0.0" text-anchor="middle">
      time
      </text>
    </g>
    <g transform="translate(618.0415999790393 172.75 ) ">
      <rect x="5.0" y="5.0" height="78.5" width="76.95840002096065" stroke="rgb(187,187,187)" stroke-opacity="1.0" stroke-width="0.0" fill="rgb(25,25,28)" fill-opacity="1.0">
      </rect>
      <g transform="translate(10.0 10.0 ) ">
        <g transform="translate(0.0 10.5 ) ">
          <text class="legend-title" y="0.0">
          category
          </text>
        </g>
        <g transform="translate(0.0 22.5 ) ">
          <g transform="">
            <g>
              <rect x="0.0" y="0.0" height="23.0" width="23.0" stroke-width="0.0" fill="rgb(25,25,28)" fill-opacity="1.0">
              </rect>
              <g transform="translate(1.0 1.0 ) ">
                <g>
                  <line x1="0.0" y1="10.5" x2="21.0" y2="10.5" stroke="rgb(228,26,28)" stroke-opacity="1.0" fill="rgb(48,48,48)" fill-opacity="1.0" stroke-width="1.6500000000000001">
                  </line>
                </g>
              </g>
              <rect x="0.0" y="0.0" height="23.0" width="23.0" stroke="rgb(25,25,28)" stroke-opacity="1.0" stroke-width="1.0" fill-opacity="0.0">
              </rect>
            </g>
            <g transform="translate(26.9903027277341 16.05 ) ">
              <text class="legend-item" y="0.0">
              A
              </text>
            </g>
          </g>
          <g transform="translate(0.0 23.0 ) ">
            <g>
              <rect x="0.0" y="0.0" height="23.0" width="23.0" stroke-width="0.0" fill="rgb(25,25,28)" fill-opacity="1.0">
              </rect>
              <g transform="translate(1.0 1.0 ) ">
                <g>
                  <line x1="0.0" y1="10.5" x2="21.0" y2="10.5" stroke="rgb(55,126,184)" stroke-opacity="1.0" fill="rgb(48,48,48)" fill-opacity="1.0" stroke-width="1.6500000000000001">
                  </line>
                </g>
              </g>
              <rect x="0.0" y="0.0" height="23.0" width="23.0" stroke="rgb(25,25,28)" stroke-opacity="1.0" stroke-width="1.0" fill-opacity="0.0">
              </rect>
            </g>
            <g transform="translate(26.9903027277341 16.05 ) ">
              <text class="legend-item" y="0.0">
              B
              </text>
            </g>
          </g>
        </g>
      </g>
    </g>
    <path fill="rgb(0,0,0)" fill-opacity="0.0" stroke="rgb(187,187,187)" stroke-opacity="1.0" stroke-width="0.0" d="M0.0 0.0 L0.0 470.0 L705.0 470.0 L705.0 0.0 Z">
    </path>
  </g>
  <g id="xXxprefixXx2">
  </g>
</svg>