<svg xmlns="http://www.w3.org/2000/svg" xmlns:xlink="http://www.w3.org/1999/xlink" class="plt-container" width="705.0" height="470.0">
  <style type="text/css">
  .plt-container {
   font-family: Lucida Grande, sans-serif;
   user-select: none;
   -webkit-user-select: none;
   -moz-user-select: none;
   -ms-user-select: none;
}
text {
   text-rendering: optimizeLegibility;
}
#xXxprefixXx0 .plot-title {
   fill: #bbbbbb;
   font-family: Lucida Grande, sans-serif;
   font-size: 16.0px;
   font-weight: normal;
   font-style: normal;   
}
#xXxprefixXx0 .plot-subtitle {
   fill: #bbbbbb;
   font-family: Lucida Grande, sans-serif;
   font-size: 15.0px;
   font-weight: normal;
   font-style: normal;   
}
#xXxprefixXx0 .plot-caption {
   fill: #bbbbbb;
   font-family: Lucida Grande, sans-serif;
   font-size: 13.0px;
   font-weight: normal;
   font-style: normal;   
}
#xXxprefixXx0 .legend-title {
   fill: #bbbbbb;
   font-family: Lucida Grande, sans-serif;
   font-size: 15.0px;
   font-weight: normal;
   font-style: normal;   
}
#xXxprefixXx0 .legend-item {
   fill: #bbbbbb;
   font-family: Lucida Grande, sans-serif;
   font-size: 13.0px;
   font-weight: normal;
   font-style: normal;   
}
#xXxprefixXx0 .axis-title-x {
   fill: #bbbbbb;
   font-family: Lucida Grande, sans-serif;
   font-size: 15.0px;
   font-weight: normal;
   font-style: normal;   
}
#xXxprefixXx0 .axis-text-x {
   fill: #bbbbbb;
   font-family: Lucida Grande, sans-serif;
   font-size: 13.0px;
   font-weight: normal;
   font-style: normal;   
}
#xXxprefixXx2 .axis-tooltip-text-x {
   fill: #303030;
   font-family: Lucida Grande, sans-serif;
   font-size: 13.0px;
   font-weight: normal;
   font-style: normal;   
}
#xXxprefixXx0 .axis-title-y {
   fill: #bbbbbb;
   font-family: Lucida Grande, sans-serif;
   font-size: 15.0px;
   font-weight: normal;
   font-style: normal;   
}
#xXxprefixXx0 .axis-text-y {
   fill: #bbbbbb;
   font-family: Lucida Grande, sans-serif;
   font-size: 13.0px;
   font-weight: normal;
   font-style: normal;   
}
#xXxprefixXx2 .axis-tooltip-text-y {
   fill: #303030;
   font-family: Lucida Grande, sans-serif;
   font-size: 13.0px;
   font-weight: normal;
   font-style: normal;   
}
#xXxprefixXx0 .facet-strip-text-x {
   fill: #bbbbbb;
   font-family: Lucida Grande, sans-serif;
   font-size: 13.0px;
   font-weight: normal;
   font-style: normal;   
}
#xXxprefixXx0 .facet-strip-text-y {
   fill: #bbbbbb;
   font-family: Lucida Grande, sans-serif;
   font-size: 13.0px;
   font-weight: normal;
   font-style: normal;   
}
#xXxprefixXx2 .tooltip-text {
   fill: #bbbbbb;
   font-family: Lucida Grande, sans-serif;
   font-size: 13.0px;
   font-weight: normal;
   font-style: normal;   
}
#xXxprefixXx2 .tooltip-title {
   fill: #bbbbbb;
   font-family: Lucida Grande, sans-serif;
   font-size: 13.0px;
   font-weight: bold;
   font-style: normal;   
}
#xXxprefixXx2 .tooltip-label {
   fill: #bbbbbb;
   font-family: Lucida Grande, sans-serif;
   font-size: 13.0px;
   font-weight: bold;
   font-style: normal;   
}

  </style>
  <g id="xXxprefixXx0">
    <path fill-rule="evenodd" fill="rgb(25,25,28)" fill-opacity="1.0" d="M0.0 0.0 L0.0 470.0 L705.0 470.0 L705.0 0.0 Z">
    </path>
    <g transform="translate(23.0 10.0 ) ">
      <g transform="translate(21.961210910936405 414.0 ) ">
        <line x1="76.32252611856762" y1="-0.0" x2="76.32252611856762" y2="-414.0" stroke="rgb(71,71,71)" stroke-opacity="1.0" stroke-width="1.0">
        </line>
        <line x1="178.80325940969564" y1="-0.0" x2="178.80325940969564" y2="-414.0" stroke="rgb(71,71,71)" stroke-opacity="1.0" stroke-width="1.0">
        </line>
        <line x1="281.28399270082366" y1="-0.0" x2="281.28399270082366" y2="-414.0" stroke="rgb(71,71,71)" stroke-opacity="1.0" stroke-width="1.0">
        </line>
        <line x1="383.76472599195165" y1="-0.0" x2="383.76472599195165" y2="-414.0" stroke="rgb(71,71,71)" stroke-opacity="1.0" stroke-width="1.0">
        </line>
        <line x1="486.2454592830797" y1="-0.0" x2="486.2454592830797" y2="-414.0" stroke="rgb(71,71,71)" stroke-opacity="1.0" stroke-width="1.0">
        </line>
        <g transform="translate(76.32252611856762 0.0 ) ">
          <line stroke-width="1.0" stroke="rgb(187,187,187)" stroke-opacity="1.0" x2="0.0" y2="4.0">
          </line>
          <g transform="translate(0.0 7.0 ) ">
            <text class="axis-text-x" text-anchor="middle" dy="0.7em">
            -4
            </text>
          </g>
        </g>
        <g transform="translate(178.80325940969564 0.0 ) ">
          <line stroke-width="1.0" stroke="rgb(187,187,187)" stroke-opacity="1.0" x2="0.0" y2="4.0">
          </line>
          <g transform="translate(0.0 7.0 ) ">
            <text class="axis-text-x" text-anchor="middle" dy="0.7em">
            -2
            </text>
          </g>
        </g>
        <g transform="translate(281.28399270082366 0.0 ) ">
          <line stroke-width="1.0" stroke="rgb(187,187,187)" stroke-opacity="1.0" x2="0.0" y2="4.0">
          </line>
          <g transform="translate(0.0 7.0 ) ">
            <text class="axis-text-x" text-anchor="middle" dy="0.7em">
            0
            </text>
          </g>
        </g>
        <g transform="translate(383.76472599195165 0.0 ) ">
          <line stroke-width="1.0" stroke="rgb(187,187,187)" stroke-opacity="1.0" x2="0.0" y2="4.0">
          </line>
          <g transform="translate(0.0 7.0 ) ">
            <text class="axis-text-x" text-anchor="middle" dy="0.7em">
            2
            </text>
          </g>
        </g>
        <g transform="translate(486.2454592830797 0.0 ) ">
          <line stroke-width="1.0" stroke="rgb(187,187,187)" stroke-opacity="1.0" x2="0.0" y2="4.0">
          </line>
          <g transform="translate(0.0 7.0 ) ">
            <text class="axis-text-x" text-anchor="middle" dy="0.7em">
            4
            </text>
          </g>
        </g>
        <line x1="0.0" y1="0.0" x2="563.0803890681029" y2="0.0" stroke-width="1.0" stroke="rgb(187,187,187)" stroke-opacity="1.0">
        </line>
      </g>
      <g transform="translate(21.961210910936405 0.0 ) ">
        <line x1="0.0" y1="384.1649093184196" x2="563.0803890681029" y2="384.1649093184196" stroke="rgb(71,71,71)" stroke-opacity="1.0" stroke-width="1.0">
        </line>
        <line x1="0.0" y1="321.3016200324818" x2="563.0803890681029" y2="321.3016200324818" stroke="rgb(71,71,71)" stroke-opacity="1.0" stroke-width="1.0">
        </line>
        <line x1="0.0" y1="258.43833074654407" x2="563.0803890681029" y2="258.43833074654407" stroke="rgb(71,71,71)" stroke-opacity="1.0" stroke-width="1.0">
        </line>
        <line x1="0.0" y1="195.5750414606063" x2="563.0803890681029" y2="195.5750414606063" stroke="rgb(71,71,71)" stroke-opacity="1.0" stroke-width="1.0">
        </line>
        <line x1="0.0" y1="132.7117521746685" x2="563.0803890681029" y2="132.7117521746685" stroke="rgb(71,71,71)" stroke-opacity="1.0" stroke-width="1.0">
        </line>
        <line x1="0.0" y1="69.84846288873075" x2="563.0803890681029" y2="69.84846288873075" stroke="rgb(71,71,71)" stroke-opacity="1.0" stroke-width="1.0">
        </line>
        <line x1="0.0" y1="6.9851736027929405" x2="563.0803890681029" y2="6.9851736027929405" stroke="rgb(71,71,71)" stroke-opacity="1.0" stroke-width="1.0">
        </line>
        <g transform="translate(0.0 384.1649093184196 ) ">
          <g transform="translate(-3.0 0.0 ) ">
            <text class="axis-text-y" text-anchor="end" dy="0.35em">
            -5
            </text>
          </g>
        </g>
        <g transform="translate(0.0 321.3016200324818 ) ">
          <g transform="translate(-3.0 0.0 ) ">
            <text class="axis-text-y" text-anchor="end" dy="0.35em">
            0
            </text>
          </g>
        </g>
        <g transform="translate(0.0 258.43833074654407 ) ">
          <g transform="translate(-3.0 0.0 ) ">
            <text class="axis-text-y" text-anchor="end" dy="0.35em">
            5
            </text>
          </g>
        </g>
        <g transform="translate(0.0 195.5750414606063 ) ">
          <g transform="translate(-3.0 0.0 ) ">
            <text class="axis-text-y" text-anchor="end" dy="0.35em">
            10
            </text>
          </g>
        </g>
        <g transform="translate(0.0 132.7117521746685 ) ">
          <g transform="translate(-3.0 0.0 ) ">
            <text class="axis-text-y" text-anchor="end" dy="0.35em">
            15
            </text>
          </g>
        </g>
        <g transform="translate(0.0 69.84846288873075 ) ">
          <g transform="translate(-3.0 0.0 ) ">
            <text class="axis-text-y" text-anchor="end" dy="0.35em">
            20
            </text>
          </g>
        </g>
        <g transform="translate(0.0 6.9851736027929405 ) ">
          <g transform="translate(-3.0 0.0 ) ">
            <text class="axis-text-y" text-anchor="end" dy="0.35em">
            25
            </text>
          </g>
        </g>
      </g>
      <g transform="translate(21.961210910936405 0.0 ) " clip-path="url(#xXxprefixXx1)" clip-bounds-jfx="[rect (0.0, 0.0), (563.0803890681029, 414.0)]">
        <defs>
          <clipPath id="xXxprefixXx1">
            <rect x="0.0" y="0.0" width="563.0803890681029" height="414.0">
            </rect>
          </clipPath>
        </defs>
        <g>
          <path d="M25.59456313945924 395.1818181818182 L25.59456313945924 395.1818181818182 L30.765181955511594 390.6756547080533 L35.935800771564004 386.29648044637617 L41.10641958761636 382.0427333242245 L46.27703840366871 377.91285126903585 L51.447657219721094 373.90527220824754 L56.61827603577345 370.01843406929737 L61.7888948518258 366.2507747796227 L66.95951366787821 362.6007322666611 L72.13013248393057 359.0667444578502 L77.30075129998292 355.6472492806274 L82.47137011603527 352.3406846624303 L87.64198893208766 349.14548853069647 L92.81260774814001 346.0600988128634 L97.98322656419239 343.0829534363686 L103.15384538024477 340.2124903286497 L108.32446419629713 337.4471474171442 L113.49508301234951 334.7853626292896 L118.66570182840186 332.2255738925234 L123.83632064445422 329.7662191342833 L129.0069394605066 327.40573628200667 L134.17755827655898 325.14256326313114 L139.34817709261134 322.9751380050942 L144.51879590866372 320.9018984353334 L149.68941472471607 318.9212824812863 L154.86003354076843 317.0317280703904 L160.0306523568208 315.23167313008327 L165.2012711728732 313.5195555878024 L170.37188998892555 311.8938133709854 L175.5425088049779 310.3528844070697 L180.7131276210303 308.895206623493 L185.88374643708266 307.51921794769265 L191.05436525313502 306.22335630710637 L196.2249840691874 305.00605962917155 L201.39560288523975 303.86576584132575 L206.56622170129214 302.8009128710066 L211.7368405173445 301.8099386456515 L216.90745933339684 300.8912810926981 L222.07807814944923 300.0433781395839 L227.2486969655016 299.2646677137464 L232.41931578155396 298.5535877426232 L237.58993459760632 297.90857615365184 L242.76055341365873 297.32807087426977 L247.93117222971108 296.81050983191466 L253.10179104576343 296.3543309540239 L258.27240986181585 295.9579721680351 L263.44302867786814 295.6198714013858 L268.61364749392055 295.33846658151356 L273.7842663099729 295.11219563585587 L278.95488512602526 294.93949649185026 L284.1255039420776 294.8188070769343 L289.29612275813 294.7485653185455 L294.4667415741824 294.72720914412145 L299.63736039023473 294.7531764810997 L304.80797920628714 294.82490525691765 L309.9785980223395 294.94083339901294 L315.14921683839185 295.0993988348231 L320.31983565444426 295.29903949178566 L325.4904544704966 295.5381932973382 L330.6610732865489 295.8152981789181 L335.8316921026013 296.1287920639631 L341.0023109186537 296.47711287991064 L346.17292973470603 296.85869855419827 L351.34354855075844 297.27198701426346 L356.5141673668108 297.71541618754384 L361.68478618286315 298.1874240014769 L366.85540499891556 298.68644838350025 L372.0260238149679 299.2109272610513 L377.19664263102027 299.75929856156773 L382.3672614470727 300.33000021248694 L387.537880263125 300.9214701412466 L392.7084990791774 301.53214627528405 L397.8791178952298 302.16046654203706 L403.0497367112821 302.804868868943 L408.22035552733445 303.4637911834395 L413.39097434338686 304.13567141296403 L418.5615931594392 304.8189474849542 L423.73221197549157 305.51205732684747 L428.902830791544 306.21343886608145 L434.07344960759633 306.92153003009366 L439.2440684236487 307.6347687463215 L444.41468723970104 308.3515929422028 L449.5853060557534 309.0704405451748 L454.75592487180575 309.7897494826752 L459.92654368785816 310.50795768214147 L465.09716250391045 311.2235030710112 L470.26778131996286 311.93482357672184 L475.4384001360153 312.640357126711 L480.6090189520676 313.33854164841625 L485.77963776812 314.02781506927505 L490.9502565841724 314.706615316725 L496.1208754002247 315.3733803182036 L501.2914942162771 316.02654800114834 L506.4621130323295 316.66455629299685 L511.6327318483818 317.2858431211866 L516.8033506644342 317.8888464131552 L521.9739694804866 318.4720040963401 L527.1445882965389 319.03375409817886 L532.3152071125913 319.572534346109 L537.4858259286436 320.0867827675682 " fill="none" stroke-width="1.6500000000000001" stroke="rgb(228,26,28)" stroke-opacity="1.0">
          </path>
        </g>
        <g>
          <path d="M25.59456313945924 18.818181818181813 L25.59456313945924 18.818181818181813 L30.765181955511594 34.36145364978876 L35.935800771564004 49.40170506649417 L41.10641958761636 63.9466741974756 L46.27703840366871 78.00409917191092 L51.447657219721094 91.58171811897802 L56.61827603577345 104.68726916785457 L61.7888948518258 117.32849044771837 L66.95951366787821 129.51312008774738 L72.13013248393057 141.2488962171192 L77.30075129998292 152.5435569650117 L82.47137011603527 163.4048404606027 L87.64198893208766 173.84048483306998 L92.81260774814001 183.8582282115913 L97.98322656419239 193.46580872534446 L103.15384538024477 202.67096450350732 L108.32446419629713 211.4814336752575 L113.49508301234951 219.90495436977307 L118.66570182840186 227.9492647162316 L123.83632064445422 235.62210284381092 L129.0069394605066 242.93120688168887 L134.17755827655898 249.88431495904328 L139.34817709261134 256.48916520505185 L144.51879590866372 262.7534957488924 L149.68941472471607 268.6850447197428 L154.86003354076843 274.29155024678073 L160.0306523568208 279.58075045918406 L165.2012711728732 284.56038348613055 L170.37188998892555 289.238187456798 L175.5425088049779 293.62190050036423 L180.7131276210303 297.719260746007 L185.88374643708266 301.53800632290415 L191.05436525313502 305.08587536023344 L196.2249840691874 308.3706059871726 L201.39560288523975 311.39993633289953 L206.56622170129214 314.181604526592 L211.7368405173445 316.72334869742775 L216.90745933339684 319.03290697458465 L222.07807814944923 321.1180174872404 L227.2486969655016 322.9864183645729 L232.41931578155396 324.64584773575984 L237.58993459760632 326.10404372997914 L242.76055341365873 327.36874447640844 L247.93117222971108 328.4476881042257 L253.10179104576343 329.3486127426085 L258.27240986181585 330.0792565207349 L263.44302867786814 330.6473575677824 L268.61364749392055 331.06065401292904 L273.7842663099729 331.32688398535254 L278.95488512602526 331.45378561423064 L284.1255039420776 331.44909702874116 L289.29612275813 331.3205563580619 L294.4667415741824 331.07590173137066 L299.63736039023473 330.72287127784523 L304.80797920628714 330.2692031266634 L309.9785980223395 329.722635407003 L315.14921683839185 329.09090624804173 L320.31983565444426 328.3817537789575 L325.4904544704966 327.60291612892803 L330.6610732865489 326.7621314271311 L335.8316921026013 325.8671378027446 L341.0023109186537 324.9256733849462 L346.17292973470603 323.9454763029138 L351.34354855075844 322.9342846858251 L356.5141673668108 321.899836662858 L361.68478618286315 320.8498703631902 L366.85540499891556 319.79212391599947 L372.0260238149679 318.73433545046373 L377.19664263102027 317.6842430957607 L382.3672614470727 316.64958498106813 L387.537880263125 315.6380992355639 L392.7084990791774 314.6575239884258 L397.8791178952298 313.71559736883154 L403.0497367112821 312.82005750595897 L408.22035552733445 311.9786425289859 L413.39097434338686 311.1990905670901 L418.5615931594392 310.48913974944935 L423.73221197549157 309.8565282052415 L428.902830791544 309.3089940636442 L434.07344960759633 308.85427545383544 L439.2440684236487 308.5001105049929 L444.41468723970104 308.25423734629436 L449.5853060557534 308.1243941069177 L454.75592487180575 308.1183189160406 L459.92654368785816 308.243749902841 L465.09716250391045 308.5084251964965 L470.26778131996286 308.9200829261851 L475.4384001360153 309.4864612210844 L480.6090189520676 310.21529821037234 L485.77963776812 311.11433202322667 L490.9502565841724 312.19130078882523 L496.1208754002247 313.4539426363457 L501.2914942162771 314.9099956949659 L506.4621130323295 316.56719809386374 L511.6327318483818 318.43328796221687 L516.8033506644342 320.5160034292031 L521.9739694804866 322.8230826240004 L527.1445882965389 325.3622636757863 L532.3152071125913 328.14128471373886 L537.4858259286436 331.1678838670357 " fill="none" stroke-width="1.6500000000000001" stroke="rgb(55,126,184)" stroke-opacity="1.0">
          </path>
        </g>
      </g>
    </g>
    <g transform="translate(14.5 217.0 ) rotate(-90.0 ) ">
      <text class="axis-title-y" y="0.0" text-anchor="middle">
      y
      </text>
    </g>
    <g transform="translate(326.5014054449879 461.5 ) ">
      <text class="axis-title-x" y="0.0" text-anchor="middle">
      x
      </text>
    </g>
    <g transform="translate(618.0415999790393 172.75 ) ">
      <rect x="5.0" y="5.0" height="78.5" width="76.95840002096065" stroke="rgb(187,187,187)" stroke-opacity="1.0" stroke-width="0.0" fill="rgb(25,25,28)" fill-opacity="1.0">
      </rect>
      <g transform="translate(10.0 10.0 ) ">
        <g transform="translate(0.0 10.5 ) ">
          <text class="legend-title" y="0.0">
          category
          </text>
        </g>
        <g transform="translate(0.0 22.5 ) ">
          <g transform="">
            <g>
              <rect x="0.0" y="0.0" height="23.0" width="23.0" stroke-width="0.0" fill="rgb(25,25,28)" fill-opacity="1.0">
              </rect>
              <g transform="translate(1.0 1.0 ) ">
                <g>
                  <line x1="0.0" y1="10.5" x2="21.0" y2="10.5" stroke="rgb(228,26,28)" stroke-opacity="1.0" fill="rgb(48,48,48)" fill-opacity="1.0" stroke-width="1.6500000000000001">
                  </line>
                </g>
              </g>
              <rect x="0.0" y="0.0" height="23.0" width="23.0" stroke="rgb(25,25,28)" stroke-opacity="1.0" stroke-width="1.0" fill-opacity="0.0">
              </rect>
            </g>
            <g transform="translate(26.9903027277341 16.05 ) ">
              <text class="legend-item" y="0.0">
              A
              </text>
            </g>
          </g>
          <g transform="translate(0.0 23.0 ) ">
            <g>
              <rect x="0.0" y="0.0" height="23.0" width="23.0" stroke-width="0.0" fill="rgb(25,25,28)" fill-opacity="1.0">
              </rect>
              <g transform="translate(1.0 1.0 ) ">
                <g>
                  <line x1="0.0" y1="10.5" x2="21.0" y2="10.5" stroke="rgb(55,126,184)" stroke-opacity="1.0" fill="rgb(48,48,48)" fill-opacity="1.0" stroke-width="1.6500000000000001">
                  </line>
                </g>
              </g>
              <rect x="0.0" y="0.0" height="23.0" width="23.0" stroke="rgb(25,25,28)" stroke-opacity="1.0" stroke-width="1.0" fill-opacity="0.0">
              </rect>
            </g>
            <g transform="translate(26.9903027277341 16.05 ) ">
              <text class="legend-item" y="0.0">
              B
              </text>
            </g>
          </g>
        </g>
      </g>
    </g>
    <path fill="rgb(0,0,0)" fill-opacity="0.0" stroke="rgb(187,187,187)" stroke-opacity="1.0" stroke-width="0.0" d="M0.0 0.0 L0.0 470.0 L705.0 470.0 L705.0 0.0 Z">
    </path>
  </g>
  <g id="xXxprefixXx2">
  </g>
</svg>