<svg xmlns="http://www.w3.org/2000/svg" xmlns:xlink="http://www.w3.org/1999/xlink" class="plt-container" width="705.0" height="470.0">
  <style type="text/css">
  .plt-container {
   font-family: Lucida Grande, sans-serif;
   user-select: none;
   -webkit-user-select: none;
   -moz-user-select: none;
   -ms-user-select: none;
}
text {
   text-rendering: optimizeLegibility;
}
#xXxprefixXx0 .plot-title {
   fill: #bbbbbb;
   font-family: Lucida Grande, sans-serif;
   font-size: 16.0px;
   font-weight: normal;
   font-style: normal;   
}
#xXxprefixXx0 .plot-subtitle {
   fill: #bbbbbb;
   font-family: Lucida Grande, sans-serif;
   font-size: 15.0px;
   font-weight: normal;
   font-style: normal;   
}
#xXxprefixXx0 .plot-caption {
   fill: #bbbbbb;
   font-family: Lucida Grande, sans-serif;
   font-size: 13.0px;
   font-weight: normal;
   font-style: normal;   
}
#xXxprefixXx0 .legend-title {
   fill: #bbbbbb;
   font-family: Lucida Grande, sans-serif;
   font-size: 15.0px;
   font-weight: normal;
   font-style: normal;   
}
#xXxprefixXx0 .legend-item {
   fill: #bbbbbb;
   font-family: Lucida Grande, sans-serif;
   font-size: 13.0px;
   font-weight: normal;
   font-style: normal;   
}
#xXxprefixXx0 .axis-title-x {
   fill: #bbbbbb;
   font-family: Lucida Grande, sans-serif;
   font-size: 15.0px;
   font-weight: normal;
   font-style: normal;   
}
#xXxprefixXx0 .axis-text-x {
   fill: #bbbbbb;
   font-family: Lucida Grande, sans-serif;
   font-size: 13.0px;
   font-weight: normal;
   font-style: normal;   
}
#xXxprefixXx2 .axis-tooltip-text-x {
   fill: #303030;
   font-family: Lucida Grande, sans-serif;
   font-size: 13.0px;
   font-weight: normal;
   font-style: normal;   
}
#xXxprefixXx0 .axis-title-y {
   fill: #bbbbbb;
   font-family: Lucida Grande, sans-serif;
   font-size: 15.0px;
   font-weight: normal;
   font-style: normal;   
}
#xXxprefixXx0 .axis-text-y {
   fill: #bbbbbb;
   font-family: Lucida Grande, sans-serif;
   font-size: 13.0px;
   font-weight: normal;
   font-style: normal;   
}
#xXxprefixXx2 .axis-tooltip-text-y {
   fill: #303030;
   font-family: Lucida Grande, sans-serif;
   font-size: 13.0px;
   font-weight: normal;
   font-style: normal;   
}
#xXxprefixXx0 .facet-strip-text-x {
   fill: #bbbbbb;
   font-family: Lucida Grande, sans-serif;
   font-size: 13.0px;
   font-weight: normal;
   font-style: normal;   
}
#xXxprefixXx0 .facet-strip-text-y {
   fill: #bbbbbb;
   font-family: Lucida Grande, sans-serif;
   font-size: 13.0px;
   font-weight: normal;
   font-style: normal;   
}
#xXxprefixXx2 .tooltip-text {
   fill: #bbbbbb;
   font-family: Lucida Grande, sans-serif;
   font-size: 13.0px;
   font-weight: normal;
   font-style: normal;   
}
#xXxprefixXx2 .tooltip-title {
   fill: #bbbbbb;
   font-family: Lucida Grande, sans-serif;
   font-size: 13.0px;
   font-weight: bold;
   font-style: normal;   
}
#xXxprefixXx2 .tooltip-label {
   fill: #bbbbbb;
   font-family: Lucida Grande, sans-serif;
   font-size: 13.0px;
   font-weight: bold;
   font-style: normal;   
}

  </style>
  <g id="xXxprefixXx0">
    <path fill-rule="evenodd" fill="rgb(25,25,28)" fill-opacity="1.0" d="M0.0 0.0 L0.0 470.0 L705.0 470.0 L705.0 0.0 Z">
    </path>
    <g transform="translate(23.0 10.0 ) ">
      <g transform="translate(50.97651758668602 414.0 ) ">
        <line x1="25.30240232947024" y1="-0.0" x2="25.30240232947024" y2="-414.0" stroke="rgb(71,71,71)" stroke-opacity="1.0" stroke-width="1.0">
        </line>
        <line x1="97.85532651034357" y1="-0.0" x2="97.85532651034357" y2="-414.0" stroke="rgb(71,71,71)" stroke-opacity="1.0" stroke-width="1.0">
        </line>
        <line x1="170.4082506912169" y1="-0.0" x2="170.4082506912169" y2="-414.0" stroke="rgb(71,71,71)" stroke-opacity="1.0" stroke-width="1.0">
        </line>
        <line x1="242.96117487209023" y1="-0.0" x2="242.96117487209023" y2="-414.0" stroke="rgb(71,71,71)" stroke-opacity="1.0" stroke-width="1.0">
        </line>
        <line x1="315.51409905296356" y1="-0.0" x2="315.51409905296356" y2="-414.0" stroke="rgb(71,71,71)" stroke-opacity="1.0" stroke-width="1.0">
        </line>
        <line x1="388.0670232338369" y1="-0.0" x2="388.0670232338369" y2="-414.0" stroke="rgb(71,71,71)" stroke-opacity="1.0" stroke-width="1.0">
        </line>
        <line x1="460.6199474147102" y1="-0.0" x2="460.6199474147102" y2="-414.0" stroke="rgb(71,71,71)" stroke-opacity="1.0" stroke-width="1.0">
        </line>
        <line x1="533.1728715955836" y1="-0.0" x2="533.1728715955836" y2="-414.0" stroke="rgb(71,71,71)" stroke-opacity="1.0" stroke-width="1.0">
        </line>
        <line x1="605.725795776457" y1="-0.0" x2="605.725795776457" y2="-414.0" stroke="rgb(71,71,71)" stroke-opacity="1.0" stroke-width="1.0">
        </line>
        <g transform="translate(25.30240232947024 0.0 ) ">
          <line stroke-width="1.0" stroke="rgb(187,187,187)" stroke-opacity="1.0" x2="0.0" y2="4.0">
          </line>
          <g transform="translate(0.0 7.0 ) ">
            <text class="axis-text-x" text-anchor="middle" dy="0.7em">
            100
            </text>
          </g>
        </g>
        <g transform="translate(97.85532651034357 0.0 ) ">
          <line stroke-width="1.0" stroke="rgb(187,187,187)" stroke-opacity="1.0" x2="0.0" y2="4.0">
          </line>
          <g transform="translate(0.0 7.0 ) ">
            <text class="axis-text-x" text-anchor="middle" dy="0.7em">
            200
            </text>
          </g>
        </g>
        <g transform="translate(170.4082506912169 0.0 ) ">
          <line stroke-width="1.0" stroke="rgb(187,187,187)" stroke-opacity="1.0" x2="0.0" y2="4.0">
          </line>
          <g transform="translate(0.0 7.0 ) ">
            <text class="axis-text-x" text-anchor="middle" dy="0.7em">
            300
            </text>
          </g>
        </g>
        <g transform="translate(242.96117487209023 0.0 ) ">
          <line stroke-width="1.0" stroke="rgb(187,187,187)" stroke-opacity="1.0" x2="0.0" y2="4.0">
          </line>
          <g transform="translate(0.0 7.0 ) ">
            <text class="axis-text-x" text-anchor="middle" dy="0.7em">
            400
            </text>
          </g>
        </g>
        <g transform="translate(315.51409905296356 0.0 ) ">
          <line stroke-width="1.0" stroke="rgb(187,187,187)" stroke-opacity="1.0" x2="0.0" y2="4.0">
          </line>
          <g transform="translate(0.0 7.0 ) ">
            <text class="axis-text-x" text-anchor="middle" dy="0.7em">
            500
            </text>
          </g>
        </g>
        <g transform="translate(388.0670232338369 0.0 ) ">
          <line stroke-width="1.0" stroke="rgb(187,187,187)" stroke-opacity="1.0" x2="0.0" y2="4.0">
          </line>
          <g transform="translate(0.0 7.0 ) ">
            <text class="axis-text-x" text-anchor="middle" dy="0.7em">
            600
            </text>
          </g>
        </g>
        <g transform="translate(460.6199474147102 0.0 ) ">
          <line stroke-width="1.0" stroke="rgb(187,187,187)" stroke-opacity="1.0" x2="0.0" y2="4.0">
          </line>
          <g transform="translate(0.0 7.0 ) ">
            <text class="axis-text-x" text-anchor="middle" dy="0.7em">
            700
            </text>
          </g>
        </g>
        <g transform="translate(533.1728715955836 0.0 ) ">
          <line stroke-width="1.0" stroke="rgb(187,187,187)" stroke-opacity="1.0" x2="0.0" y2="4.0">
          </line>
          <g transform="translate(0.0 7.0 ) ">
            <text class="axis-text-x" text-anchor="middle" dy="0.7em">
            800
            </text>
          </g>
        </g>
        <g transform="translate(605.725795776457 0.0 ) ">
          <line stroke-width="1.0" stroke="rgb(187,187,187)" stroke-opacity="1.0" x2="0.0" y2="4.0">
          </line>
          <g transform="translate(0.0 7.0 ) ">
            <text class="axis-text-x" text-anchor="middle" dy="0.7em">
            900
            </text>
          </g>
        </g>
        <line x1="0.0" y1="0.0" x2="621.023482413314" y2="0.0" stroke-width="1.0" stroke="rgb(187,187,187)" stroke-opacity="1.0">
        </line>
      </g>
      <g transform="translate(50.97651758668602 0.0 ) ">
        <line x1="0.0" y1="395.85972728630355" x2="621.023482413314" y2="395.85972728630355" stroke="rgb(71,71,71)" stroke-opacity="1.0" stroke-width="1.0">
        </line>
        <line x1="0.0" y1="359.92492668584157" x2="621.023482413314" y2="359.92492668584157" stroke="rgb(71,71,71)" stroke-opacity="1.0" stroke-width="1.0">
        </line>
        <line x1="0.0" y1="323.99012608537964" x2="621.023482413314" y2="323.99012608537964" stroke="rgb(71,71,71)" stroke-opacity="1.0" stroke-width="1.0">
        </line>
        <line x1="0.0" y1="288.05532548491766" x2="621.023482413314" y2="288.05532548491766" stroke="rgb(71,71,71)" stroke-opacity="1.0" stroke-width="1.0">
        </line>
        <line x1="0.0" y1="252.1205248844557" x2="621.023482413314" y2="252.1205248844557" stroke="rgb(71,71,71)" stroke-opacity="1.0" stroke-width="1.0">
        </line>
        <line x1="0.0" y1="216.18572428399375" x2="621.023482413314" y2="216.18572428399375" stroke="rgb(71,71,71)" stroke-opacity="1.0" stroke-width="1.0">
        </line>
        <line x1="0.0" y1="180.2509236835318" x2="621.023482413314" y2="180.2509236835318" stroke="rgb(71,71,71)" stroke-opacity="1.0" stroke-width="1.0">
        </line>
        <line x1="0.0" y1="144.31612308306984" x2="621.023482413314" y2="144.31612308306984" stroke="rgb(71,71,71)" stroke-opacity="1.0" stroke-width="1.0">
        </line>
        <line x1="0.0" y1="108.38132248260786" x2="621.023482413314" y2="108.38132248260786" stroke="rgb(71,71,71)" stroke-opacity="1.0" stroke-width="1.0">
        </line>
        <line x1="0.0" y1="72.44652188214587" x2="621.023482413314" y2="72.44652188214587" stroke="rgb(71,71,71)" stroke-opacity="1.0" stroke-width="1.0">
        </line>
        <line x1="0.0" y1="36.51172128168389" x2="621.023482413314" y2="36.51172128168389" stroke="rgb(71,71,71)" stroke-opacity="1.0" stroke-width="1.0">
        </line>
        <g transform="translate(0.0 395.85972728630355 ) ">
          <g transform="translate(-3.0 0.0 ) ">
            <text class="axis-text-y" text-anchor="end" dy="0.35em">
            0.0000
            </text>
          </g>
        </g>
        <g transform="translate(0.0 359.92492668584157 ) ">
          <g transform="translate(-3.0 0.0 ) ">
            <text class="axis-text-y" text-anchor="end" dy="0.35em">
            0.0005
            </text>
          </g>
        </g>
        <g transform="translate(0.0 323.99012608537964 ) ">
          <g transform="translate(-3.0 0.0 ) ">
            <text class="axis-text-y" text-anchor="end" dy="0.35em">
            0.0010
            </text>
          </g>
        </g>
        <g transform="translate(0.0 288.05532548491766 ) ">
          <g transform="translate(-3.0 0.0 ) ">
            <text class="axis-text-y" text-anchor="end" dy="0.35em">
            0.0015
            </text>
          </g>
        </g>
        <g transform="translate(0.0 252.1205248844557 ) ">
          <g transform="translate(-3.0 0.0 ) ">
            <text class="axis-text-y" text-anchor="end" dy="0.35em">
            0.0020
            </text>
          </g>
        </g>
        <g transform="translate(0.0 216.18572428399375 ) ">
          <g transform="translate(-3.0 0.0 ) ">
            <text class="axis-text-y" text-anchor="end" dy="0.35em">
            0.0025
            </text>
          </g>
        </g>
        <g transform="translate(0.0 180.2509236835318 ) ">
          <g transform="translate(-3.0 0.0 ) ">
            <text class="axis-text-y" text-anchor="end" dy="0.35em">
            0.0030
            </text>
          </g>
        </g>
        <g transform="translate(0.0 144.31612308306984 ) ">
          <g transform="translate(-3.0 0.0 ) ">
            <text class="axis-text-y" text-anchor="end" dy="0.35em">
            0.0035
            </text>
          </g>
        </g>
        <g transform="translate(0.0 108.38132248260786 ) ">
          <g transform="translate(-3.0 0.0 ) ">
            <text class="axis-text-y" text-anchor="end" dy="0.35em">
            0.0040
            </text>
          </g>
        </g>
        <g transform="translate(0.0 72.44652188214587 ) ">
          <g transform="translate(-3.0 0.0 ) ">
            <text class="axis-text-y" text-anchor="end" dy="0.35em">
            0.0045
            </text>
          </g>
        </g>
        <g transform="translate(0.0 36.51172128168389 ) ">
          <g transform="translate(-3.0 0.0 ) ">
            <text class="axis-text-y" text-anchor="end" dy="0.35em">
            0.0050
            </text>
          </g>
        </g>
        <g transform="translate(0.0 0.5769206812219068 ) ">
          <g transform="translate(-3.0 0.0 ) ">
            <text class="axis-text-y" text-anchor="end" dy="0.35em">
            0.0055
            </text>
          </g>
        </g>
      </g>
      <g transform="translate(50.97651758668602 0.0 ) " clip-path="url(#xXxprefixXx1)" clip-bounds-jfx="[rect (0.0, 0.0), (621.023482413314, 414.0)]">
        <defs>
          <clipPath id="xXxprefixXx1">
            <rect x="0.0" y="0.0" width="621.023482413314" height="414.0">
            </rect>
          </clipPath>
        </defs>
        <g>
          <path d="M67.36216030100728 394.91178282636673 L67.36216030100728 394.91178282636673 L68.39040488418264 394.86975707798916 L69.41864946735801 394.8279453216086 L70.44689405053336 394.785908415317 L71.47513863370875 394.7430927054258 L72.5033832168841 394.6988380224202 L73.53162780005947 394.652389699778 L74.55987238323483 394.6029142881925 L75.58811696641018 394.54951848879625 L76.61636154958555 394.49127070110274 L77.64460613276093 394.42722447891134 L78.67285071593629 394.35644311316065 L79.70109529911164 394.27802451608915 L80.72933988228701 394.1911255663822 L81.75758446546236 394.0949850897151 L82.78582904863772 393.98894469217316 L83.81407363181309 393.8724667339666 L84.84231821498848 393.74514882591143 L85.87056279816382 393.6067343491669 L86.89880738133918 393.45711863703883 L87.92705196451455 393.29635061279754 L88.95529654768991 393.1246298449084 L89.98354113086528 392.942299155064 L91.01178571404064 392.74983308790155 L92.040030297216 392.5478227160694 L93.06827488039137 392.3369574013867 L94.09651946356674 392.11800425302926 L95.1247640467421 391.89178610836984 L96.15300862991747 391.65915890417983 L97.1812532130928 391.4209893006044 L98.2094977962682 391.178133366082 L99.23774237944356 390.9314170303109 L100.26598696261892 390.6816188705509 L101.29423154579426 390.42945562379424 L102.32247612896963 390.1755706265829 L103.35072071214502 389.92052519050463 L104.37896529532038 389.6647927404362 L105.40720987849572 389.40875538936893 L106.43545446167109 389.15270251075515 L107.46369904484645 388.89683080559615 L108.49194362802182 388.6412453509845 L109.52018821119718 388.3859611581625 L110.54843279437254 388.13090485463533 L111.57667737754791 387.8759162249869 L112.60492196072327 387.62074948373083 L113.63316654389864 387.3650742937745 L114.661411127074 387.1084766688471 L115.68965571024937 386.85045999245517 L116.71790029342473 386.59044643821954 L117.7461448766001 386.327779080637 L118.77438945977546 386.0617249411876 L119.80263404295083 385.7914791282478 L120.83087862612616 385.51617011201733 L121.85912320930153 385.23486604351615 L122.8873677924769 384.94658189810576 L123.91561237565226 384.650287117767 L124.94385695882765 384.3449133594566 L125.97210154200299 384.02936194218324 L127.00034612517835 383.70251063008584 L128.0285907083537 383.36321949290675 L129.05683529152913 383.0103357415494 L130.08507987470443 382.6426976305937 L131.1133244578798 382.25913773152746 L132.14156904105516 381.8584860858437 L133.16981362423053 381.4395739202237 L134.1980582074059 381.0012387219617 L135.22630279058126 380.5423315105354 L136.25454737375662 380.0617270859004 L137.282791956932 379.55833787897393 L138.31103654010735 379.03113177758394 L139.33928112328272 378.47915396441647 L140.36752570645808 377.9015524040663 L141.39577028963345 377.29760618392646 L142.4240148728088 376.66675548375906 L143.45225945598418 376.0086315596065 L144.48050403915954 375.3230848170151 L145.5087486223349 374.61020885035373 L146.53699320551027 373.87035826638737 L147.56523778868564 373.10415820869156 L148.593482371861 372.3125037609412 L149.62172695503637 371.49654782509276 L150.64997153821173 370.6576766260988 L151.6782161213871 369.79747265786233 L152.70646070456246 368.9176656162417 L153.73470528773782 368.02007261826816 L154.7629498709132 367.10652973353143 L155.79119445408855 366.1788175056918 L156.81943903726392 365.23858367507967 L157.84768362043928 364.28726669028936 L158.87592820361465 363.32602379001617 L159.90417278679 362.3556674297733 L160.93241736996532 361.37661361708166 L161.9606619531407 360.388845310457 L162.98890653631605 359.3918934500592 L164.01715111949142 358.38483744842915 L165.04539570266678 357.3663261128687 L166.07364028584215 356.33461903643473 L167.1018848690175 355.2876475250985 L168.13012945219288 354.22309316841984 L169.15837403536824 353.13848125379906 L170.1866186185436 352.0312854118658 L171.21486320171897 350.89903920177 L172.24310778489433 349.7394498349908 L173.2713523680697 348.550508924636 L174.29959695124506 347.3305950577609 L175.32784153442043 346.0785631371369 L176.35608611759585 344.7938158334178 L177.38433070077122 343.476353125566 L178.41257528394658 342.12679677173503 L179.4408198671219 340.74638761674083 L180.46906445029725 339.336954864757 L181.49730903347262 337.90085777306973 L182.52555361664798 336.44090158952434 L183.55379819982335 334.9602308889232 L184.5820427829987 333.4622046836481 L185.61028736617408 331.9502587128835 L186.63853194934944 330.4277610804929 L187.6667765325248 328.8978678532401 L188.69502111570017 327.3633853054342 L189.72326569887554 325.82664518279535 L190.7515102820509 324.2893986630073 L191.7797548652262 322.75273364686427 L192.80799944840157 321.2170186834656 L193.83624403157694 319.68187530165136 L194.8644886147523 318.146178893177 L195.89273319792773 316.608086688407 L196.9209777811031 315.06508990232925 L197.94922236427846 313.5140859201098 L198.97746694745382 311.9514655318172 L200.00571153062918 310.3732097831544 L201.0339561138045 308.77499101622516 L202.06220069697986 307.15227312563366 L203.09044528015528 305.500406904107 L204.11868986333064 303.8147175140723 L205.146934446506 302.0905824812001 L206.17517902968137 300.3235000251426 L207.20342361285674 298.5091488744556 L208.2316681960321 296.6434418146637 L209.2599127792074 294.7225759674441 L210.28815736238278 292.7430831040416 L211.31640194555814 290.7018831092798 L212.3446465287335 288.5963430355011 L213.37289111190887 286.4243430717597 L214.40113569508424 284.1843493043614 L215.4293802782596 281.8754915026466 L216.45762486143497 279.4976424986209 L217.48586944461033 277.05149422229294 L218.51411402778564 274.538624282385 L219.542358610961 271.96154629633224 L220.57060319413637 269.3237370870045 L221.59884777731173 266.62963443668446 L222.62709236048715 263.88460032227147 L223.65533694366252 261.09484638822346 L224.68358152683788 258.2673207260773 L225.71182611001325 255.40955765366203 L226.7400706931886 252.52949492063524 L227.76831527636392 249.63526539000526 L228.79655985953934 246.73497253969887 L229.8248044427147 243.83646089626998 L230.85304902589007 240.94709359421725 L231.88129360906544 238.07354953930894 L232.9095381922408 235.22165209281044 L233.93778277541617 232.3962397987873 L234.96602735859153 229.60108752399768 L235.9942719417669 226.83888360015393 L237.0225165249422 224.11126532770916 L238.05076110811757 221.4189117269877 L239.07900569129293 218.76168893164245 L240.1072502744683 216.13884033742693 L241.13549485764366 213.54921075908504 L242.16373944081903 210.99149159546735 L243.1919840239944 208.4644725053473 L244.22022860716976 205.9672844547578 L245.24847319034512 203.49961925962322 L246.2767177735205 201.0619119092767 L247.30496235669585 198.655473957124 L248.33320693987122 196.2825689935573 L249.36145152304658 193.94642451781365 L250.38969610622195 191.65117820778937 L251.4179406893973 189.40176043219816 L252.44618527257268 187.2037186260323 L253.47442985574804 185.06299262665843 L254.5026744389234 182.98565302618024 L255.53091902209877 180.97761684686424 L256.55916360527414 179.04435624261782 L257.5874081884495 177.19061637605694 L258.61565277162487 175.42015808389442 L259.64389735480023 173.73553945528096 L260.6721419379756 172.13794810567828 L261.70038652115096 170.6270928903964 L262.7286311043263 169.20116027461637 L263.7568756875017 167.85683680281076 L264.78512027067706 166.58939535018305 L265.8133648538524 165.39283934743437 L266.8416094370278 164.2600961807828 L267.8698540202031 163.18324867058462 L268.89809860337846 162.15379205477805 L269.9263431865538 161.1629033097394 L270.9545877697292 160.20170991901986 L271.9828323529046 159.26154626830004 L273.01107693608 158.33418755907056 L274.03932151925534 157.4120533051636 L275.0675661024307 156.48837488952225 L276.09581068560607 155.5573240935261 L277.1240552687814 154.61410176538917 L278.15229985195674 153.6549877019683 L279.1805444351321 152.67735426723038 L280.20878901830747 151.67964720886593 L281.23703360148284 150.66133757453701 L282.2652781846582 149.62284864140264 L283.29352276783357 148.56546147412104 L284.32176735100893 147.4912022639258 L285.35001193418435 146.40271413068783 L286.37825651735966 145.30311573505708 L287.406501100535 144.1958489622587 L288.4347456837104 143.08451816942159 L289.46299026688575 141.9727240455021 L290.4912348500611 140.8638959696314 L291.5194794332365 139.76112776870497 L292.54772401641185 138.66702282540194 L293.5759685995872 137.5835554050106 L294.6042131827626 136.51195568048263 L295.63245776593794 135.4526260837534 L296.6607023491133 134.40509617827428 L297.6889469322887 133.36802216721696 L298.71719151546404 132.33923542252523 L299.7454360986394 131.31584210912547 L300.77368068181477 130.2943732185094 L301.80192526499013 129.2709813036306 L302.8301698481655 128.24167714853098 L303.85841443134086 127.20259675460966 L304.8866590145162 126.15028661988833 L305.9149035976916 125.08199353902063 L306.94314818086696 123.99594422346934 L307.97139276404226 122.89160003342016 L308.99963734721763 121.76987305151573 L310.027881930393 120.63329156408668 L311.0561265135684 119.48610562478399 L312.0843710967438 118.33432657452903 L313.11261567991914 117.18569794921513 L314.1408602630945 116.04959886625983 L315.1691048462699 114.93688448171292 L316.1973494294452 113.85967120860454 L317.22559401262055 112.8310768794068 L318.2538385957959 111.86492777079775 L319.2820831789713 110.97544530249394 L320.31032776214664 110.17692526039889 L321.338572345322 109.48342163377254 L322.36681692849737 108.9084457157 L323.39506151167274 108.46468916438556 L324.4233060948481 108.16377746149345 L325.45155067802347 108.0160578479489 L326.47979526119883 108.03042357563407 L327.5080398443742 108.21417436744531 L328.5362844275495 108.5729114687067 L329.56452901072487 109.11046468617383 L330.59277359390023 109.82884837351128 L331.6210181770756 110.72824340038898 L332.64926276025096 111.80700264850316 L333.6775073434263 113.06167838080785 L334.7057519266017 114.48707077187589 L335.73399650977706 116.07629779931432 L336.7622410929524 117.82088741976594 L337.79048567612784 119.71089335573782 L338.8187302593032 121.73503580993253 L339.8469748424786 123.88086796120734 L340.87521942565394 126.13496819527182 L341.9034640088293 128.48315675184932 L342.93170859200467 130.91073394272036 L343.95995317518003 133.40273546009945 L344.9881977583554 135.94419871925953 L346.01644234153076 138.5204328305714 L347.04468692470607 141.11728382504845 L348.07293150788144 143.7213862821991 L349.1011760910568 146.32039260289832 L350.12942067423216 148.9031718541243 L351.15766525740764 151.45997135303864 L352.185909840583 153.98253587046807 L353.2141544237583 156.46418139061956 L354.2423990069337 158.8998226070316 L355.27064359010905 161.28595559156156 L356.2988881732844 163.6205991719527 L357.3271327564598 165.90320034012822 L358.35537733963514 168.13451036435896 L359.3836219228105 170.31643911205495 L360.41186650598587 172.4518953715775 L361.44011108916123 174.54462070562974 L362.4683556723366 176.59902363531532 L363.49660025551196 178.62001984094402 L364.52484483868733 180.61288269834301 L365.55308942186264 182.58310698758822 L366.581334005038 184.53628715521108 L367.60957858821337 186.47801020909483 L368.63782317138873 188.41376228187414 L369.6660677545641 190.34884718542722 L370.69431233773946 192.28831493033968 L371.7225569209148 194.2368981950432 L372.7508015040902 196.19895505813557 L373.77904608726556 198.1784168814534 L374.8072906704409 200.17874095572108 L375.8355352536163 202.20286828770398 L376.86377983679165 204.25318760967113 L377.89202441996696 206.33150723080936 L378.9202690031423 208.43903664831151 L379.9485135863177 210.57637984355557 L380.97675816949305 212.74354188950824 L382.0050027526684 214.9399499073464 L383.0332473358438 217.16448858490605 L384.06149191901915 219.415549486532 L385.0897365021945 221.69109234370777 L386.1179810853699 223.98871552945565 L387.14622566854524 226.3057320973483 L388.1744702517206 228.63924720670522 L389.20271483489597 230.98623253514796 L390.2309594180714 233.34359344323238 L391.25920400124676 235.70822521153323 L392.2874485844221 238.07705558741108 L393.3156931675975 240.4470720882504 L394.34393775077285 242.81533390958936 L395.3721823339482 245.17896975610455 L396.4004269171235 247.53516431471223 L397.4286715002989 249.88113728673477 L398.45691608347425 252.21411976883812 L399.4851606666496 254.5313332252944 L400.513405249825 256.8299762680765 L401.54164983300035 259.1072239402379 L402.5698944161757 261.3602432110073 L403.59813899935114 263.5862270105408 L404.6263835825265 265.7824474682617 L405.65462816570187 267.9463272087905 L406.68287274887723 270.075525756721 L407.7111173320526 272.1680364606716 L408.73936191522796 274.22228801057787 L409.7676064984033 276.23724370783543 L410.7958510815787 278.21249123838504 L411.82409566475405 280.1483158351413 L412.8523402479294 282.0457503947882 L413.8805848311047 283.9065972877911 L414.9088294142801 285.7334181839538 L415.93707399745546 287.52949009277796 L416.9653185806308 289.2987278517659 L417.9935631638062 291.04557534117475 L419.02180774698155 292.7748696177188 L420.0500523301569 294.49168381263024 L421.0782969133323 296.2011559238482 L422.10654149650765 297.908311469246 L423.134786079683 299.6178883121193 L424.1630306628584 301.33417181049145 L425.19127524603374 303.0608478006104 L426.21951982920905 304.8008798552041 L427.2477644123844 306.5564158371891 L428.2760089955598 308.3287270977012 L429.30425357873514 310.1181818543978 L430.3324981619105 311.92425244818503 L431.3607427450859 313.7455544283717 L432.38898732826124 315.5799138634034 L433.4172319114366 317.42445800749516 L434.44547649461197 319.27572354285525 L435.47372107778733 321.12977610829273 L436.5019656609627 322.98233473587754 L437.53021024413806 324.82889513732744 L438.5584548273134 326.66484647237485 L439.58669941048873 328.48557722856816 L440.6149439936641 330.2865670609822 L441.64318857683946 332.06346278164125 L442.67143316001483 333.81213804535935 L443.6996777431902 335.528737545494 L444.72792232636556 337.20970761358444 L445.7561669095409 338.8518159320495 L446.7844114927163 340.45216356389085 L447.81265607589165 342.0081926507838 L448.840900659067 343.5176929344995 L449.8691452422425 344.9788097494335 L450.89738982541786 346.39005537560746 L451.9256344085932 347.7503247119572 L452.9538789917686 349.05891522206855 L453.98212357494396 350.3155501161418 L455.0103681581193 351.520402856527 L456.0386127412947 352.674120389433 L457.06685732447005 353.7778420723947 L458.0951019076454 354.8332111213773 L459.1233464908208 355.84237555197916 L460.15159107399614 356.8079760188762 L461.1798356571715 357.73311862595233 L462.2080802403469 358.6213316276278 L463.2363248235222 359.47650589885257 L464.26456940669755 360.3028200411255 L465.29281398987297 361.104651940679 L466.32105857304833 361.88647943656116 L467.3493031562237 362.652773437522 L468.37754773939906 363.4078873100706 L469.4057923225743 364.155946625781 L470.4340369057497 364.9007434006821 L471.46228148892504 365.64563879506585 L472.4905260721004 366.39347789192954 L473.5187706552758 367.14651966848373 L474.54701523845114 367.9063846542889 L475.5752598216265 368.6740220693953 L476.60350440480187 369.44969749251067 L477.63174898797723 370.2330013552965 L478.6599935711526 371.02287782230695 L479.68823815432796 371.81767291981373 L480.7164827375033 372.61520013921864 L481.7447273206787 373.41282117659966 L482.77297190385406 374.2075389910418 L483.8012164870294 374.9960999807665 L484.8294610702048 375.7751017964653 L485.85770565338015 376.5411031434822 L486.8859502365555 377.29073187528206 L487.9141948197309 378.0207877550615 L488.94243940290625 378.7283364629624 L489.9706839860816 379.41079175222904 L490.998928569257 380.06598310340496 L492.02717315243234 380.69220678058537 L493.0554177356077 381.28825884132726 L494.08366231878296 381.85344936966004 L495.1119069019583 382.38759796189936 L496.1401514851337 382.89101126527083 L497.16839606830905 383.36444411425674 L498.1966406514844 383.8090464924126 L499.2248852346598 384.2262991323992 L500.25312981783514 384.6179410215937 L501.2813744010105 384.98589237783807 L502.3096189841861 385.3321767802019 L503.33786356736147 385.65884607295675 L504.36610815053683 385.9679114076811 L505.3943527337121 386.2612833600186 L506.42259731688745 386.54072347646013 L507.4508419000628 386.80780890488023 L508.4790864832382 387.06391098088113 L509.50733106641354 387.3101878264927 L510.5355756495889 387.5475902175035 L511.5638202327643 387.77687923928505 L512.5920648159397 387.9986536232977 L513.6203093991151 388.2133841754551 L514.6485539822904 388.4214524014454 L515.6767985654658 388.62319031945526 L516.7050431486412 388.8189185310563 L517.7332877318165 389.0089798865699 L518.7615323149919 389.1937665098269 L519.7897768981672 389.3737385058746 L520.8180214813426 389.54943332257267 L521.846266064518 389.7214654267394 L522.8745106476933 389.89051663947726 L523.9027552308687 390.05731810735205 L524.9309998140441 390.2226254252896 L525.9592443972194 390.3871888405258 L526.9874889803948 390.55172073204596 L528.0157335635702 390.7168626654838 L529.0439781467455 390.88315427000606 L530.0722227299208 391.05100598305995 L531.1004673130961 391.22067738252116 L532.1287118962715 391.39226240290196 L533.1569564794469 391.56568224705944 L534.1852010626222 391.74068629372385 L535.2134456457976 391.9168608000258 L536.241690228973 392.0936447397846 L537.2699348121483 392.27035173009745 L538.2981793953237 392.4461967013436 L539.3264239784991 392.6203257718804 L540.3546685616744 392.7918477031504 L541.3829131448498 392.9598653305737 L542.4111577280252 393.12350548053166 L543.4394023112005 393.2819460784417 L544.4676468943759 393.434439407922 L545.4958914775513 393.5803307746227 L546.5241360607266 393.7190721382619 L547.552380643902 393.8502305816136 L548.5806252270773 393.9734917669939 L549.6088698102527 394.0886587739971 L550.6371143934281 394.19564690588 L551.6653589766034 394.294475189602 L552.6936035597788 394.38525537412113 L553.7218481429542 394.46817925524675 L554.7500927261297 394.5435051288003 L555.778337309305 394.6115441053597 L556.8065818924804 394.6726469195633 L557.8348264756557 394.7271917457225 L558.8630710588311 394.7755734001544 L559.8913156420065 394.8181941790616 L560.9195602251818 394.85545645730895 L561.9478048083572 394.88775706440333 L562.9760493915326 394.9154833635073 L564.0042939747079 394.9390108893452 L565.0325385578833 394.95870235131247 L566.0607831410587 394.97490777728456 L567.0890277242339 394.98796555867983 L568.1172723074093 394.99820415479684 L569.1455168905846 395.00594422074585 L570.17376147376 395.0115009352244 L571.2020060569354 395.01518631945385 L572.2302506401107 395.01731135522215 L573.2584952232861 395.01818772756894 L574.2867398064615 395.018129036478 L575.3149843896368 395.0174513429301 L576.3432289728122 395.01647293909684 L577.3714735559876 395.0155132615667 L578.3997181391629 395.0148909011876 L579.4279627223383 395.01492070362707 L580.4562073055137 395.01591000047085 L581.484451888689 395.0181540600614 L582.5126964718644 395.0219308978778 L583.5409410550398 395.0274956349422 L584.5691856382151 395.0350746359147 L585.5974302213905 395.0448596925567 L586.6256748045658 395.05700253972776 L587.6539193877412 395.0716099973348 L588.6821639709166 395.088740020948 L589.7104085540919 395.10839891562097 L590.7386531372673 395.13053992260706 L591.7668977204426 395.1550633292674 L592.7951423036179 395.1818181818182 " fill="none" stroke-width="1.6500000000000001" stroke="rgb(187,187,187)" stroke-opacity="1.0">
          </path>
        </g>
        <g>
          <path d="M28.22834010969609 395.1136377506538 L28.22834010969609 395.1136377506538 L29.895399703811478 395.0700171558527 L31.56245929792688 395.04162997412476 L33.229518892042265 395.02832326105255 L34.89657848615764 395.02800294856337 L36.56363808027304 395.0365956862165 L38.23069767438842 395.0482385891341 L39.89775726850381 395.0557032063807 L41.564816862619196 395.05103017698394 L43.23187645673458 395.0263169662813 L44.89893605084998 394.97456723019945 L46.565995644965355 394.89048375401956 L48.23305523908074 394.7710758476864 L49.90011483319614 394.6159637472262 L51.56717442731153 394.42730027252253 L53.2342340214269 394.2092909063022 L54.9012936155423 393.96736796997584 L56.56835320965767 393.70714769633565 L58.23541280377307 393.43335377937063 L59.90247239788846 393.1489129077325 L61.56953199200386 392.8544088589716 L63.23659158611923 392.5480228355886 L64.90365118023462 392.22599865950906 L66.57071077434999 391.8835687561376 L68.23777036846539 391.5161803594627 L69.90482996258078 391.1207903014281 L71.57188955669618 390.69696632451974 L73.23894915081155 390.2475513939345 L74.90600874492695 389.77871430333266 L76.57306833904232 389.29931436979683 L78.24012793315771 388.81963073732595 L79.90718752727311 388.3496230829125 L81.5742471213885 387.89697647052395 L83.24130671550388 387.4652223779675 L84.90836630961927 387.0522165287073 L86.57542590373465 386.6492009311667 L88.24248549785004 386.24059955816966 L89.90954509196543 385.80461187280474 L91.57660468608081 385.31458639021434 L93.2436642801962 384.741078148567 L94.91072387431159 384.0544133621376 L96.57778346842697 383.22749778076434 L98.24484306254236 382.2385198774778 L99.91190265665774 381.0731390912628 L101.57896225077316 379.72574727946784 L103.24602184488852 378.19948046868444 L104.9130814390039 376.5048505026454 L106.58014103311929 374.65714110339076 L108.24720062723468 372.6730120262071 L109.08073042429238 371.6344997093617 L109.91426022135006 370.56699489442457 L110.74779001840777 369.47151504505683 L111.58131981546548 368.3486609649162 L112.41484961252316 367.19861037602874 L113.24837940958086 366.02114055310324 L114.08190920663854 364.81567874127245 L114.91543900369625 363.5813772111914 L115.74896880075393 362.31720810396786 L116.58249859781161 361.0220718248157 L117.41602839486931 359.6949117746599 L118.249558191927 358.3348277486912 L119.0830879889847 356.9411804266091 L119.91661778604241 355.51368003322875 L120.75014758310009 354.05245341677977 L121.5836773801578 352.5580853889878 L122.41720717721547 351.0316320726949 L123.25073697427315 349.4746060595511 L124.08426677133086 347.8889352282569 L124.91779656838857 346.276898948808 L125.75132636544625 344.6410469498774 L126.58485616250395 342.9841072312345 L127.41838595956163 341.30888997459755 L128.25191575661933 339.6181944026649 L129.085445553677 337.914724963312 L129.91897535073474 336.2010221271835 L130.75250514779242 334.479411577616 L131.5860349448501 332.7519737715537 L132.41956474190778 331.0205339115951 L133.2530945389655 329.28667045581597 L134.0866243360232 327.5517385642074 L134.92015413308087 325.81690348371717 L135.7536839301386 324.0831779266419 L136.58721372719629 322.3514570824495 L137.42074352425396 320.62254506212105 L138.25427332131164 318.8971673028977 L139.08780311836932 317.17596471128013 L139.92133291542706 315.45946700313675 L140.75486271248474 313.7480446864002 L141.58839250954242 312.04184127207 L142.4219223066001 310.34068942483015 L143.25545210365783 308.6440167030781 L144.0889819007155 306.9507481251802 L144.9225116977732 305.25921389052496 L145.75604149483092 303.56707106841884 L146.5895712918886 301.8712478749425 L147.42310108894628 300.1679182661858 L148.25663088600396 298.45251301768474 L149.0901606830617 296.7197713196923 L149.92369048011938 294.9638343312967 L150.75722027717705 293.1783792804464 L151.59075007423473 291.356789779059 L152.42427987129247 289.4923552651445 L153.2578096683501 287.578490107746 L154.09133946540783 285.6089611155661 L154.92486926246556 283.5781111383229 L155.75839905952324 281.48106624934366 L156.59192885658092 279.31391469141533 L157.4254586536386 277.07384732607477 L158.25898845069628 274.7592516473986 L159.09251824775396 272.36975433655266 L159.9260480448117 269.90621062045005 L160.75957784186943 267.3706420985253 L161.5931076389271 264.7661279437483 L162.4266374359848 262.09665720609223 L163.26016723304247 259.3669521220179 L164.09369703010015 256.5822736919397 L164.92722682715782 253.7482212322309 L165.76075662421556 250.87053712587684 L166.59428642127324 247.95492665890077 L167.42781621833092 245.0069007902589 L168.2613460153886 242.03164717826223 L169.09487581244633 239.03393203790236 L169.928405609504 236.01803270936034 L170.7619354065617 232.98769844625633 L171.59546520361943 229.9461351116599 L172.4289950006771 226.89600836566063 L173.26252479773478 223.83945962424443 L174.09605459479246 220.77812955732375 L174.9295843918502 217.71318507485373 L175.76311418890788 214.64534744288432 L176.59664398596556 211.5749211328549 L177.4301737830233 208.5018249581581 L178.26370358008091 205.4256287085265 L179.0972333771386 202.34559960002434 L179.93076317419633 199.26076322096227 L180.76429297125406 196.16998316085844 L181.59782276831174 193.07206215086893 L182.43135256536942 189.96586541727353 L183.2648823624271 186.85046425268814 L184.09841215948478 183.72529482406404 L184.93194195654246 180.59032429886685 L185.7654717536002 177.44621383753116 L186.59900155065793 174.29446620878457 L187.4325313477156 171.13754501379177 L188.2660611447733 167.97895294237978 L189.09959094183097 164.8232581992159 L189.93312073888865 161.67606116730252 L190.76665053594633 158.54389732697805 L191.60018033300406 155.43407710899967 L192.43371013006174 152.3544683285014 L193.26723992711942 149.3132316677169 L194.1007697241771 146.31852388647545 L194.93429952123483 143.37818661593104 L195.7678293182925 140.49944039124955 L196.6013591153502 137.68860378072486 L197.43488891240793 134.9508559951883 L198.2684187094656 132.29005829199895 L199.10194850652329 129.7086450542226 L199.93547830358096 127.20758999251223 L200.7690081006387 124.78644694953397 L201.60253789769638 122.44345880659648 L202.43606769475406 120.17572252996854 L203.2695974918118 117.9793939401207 L204.10312728886947 115.84991274375881 L204.9366570859271 113.78222701609883 L205.77018688298483 111.77099679055414 L206.60371668004257 109.81075867674696 L207.43724647710025 107.89603730216453 L208.27077627415792 106.02139453640297 L209.1043060712156 104.18141348153057 L209.93783586827328 102.37062059902371 L210.77136566533096 100.58335556910566 L211.6048954623887 98.81360403508734 L212.43842525944638 97.05481282417827 L213.27195505650405 95.29971019905588 L214.10548485356173 93.54015493884748 L214.93901465061947 91.76703746058342 L215.77254444767715 89.97025379321764 L216.60607424473483 88.13876915148018 L217.43960404179256 86.26078238487469 L218.27313383885024 84.32399604598555 L219.10666363590792 82.31598964601574 L219.9401934329656 80.22468629613752 L220.77372323002334 78.03889583399058 L221.60725302708101 75.74891115370855 L222.4407828241387 73.34712920492734 L223.27431262119637 70.82866435165903 L224.10784241825405 68.19191975838999 L224.9413722153118 65.43908237954025 L225.77490201236947 62.57650904698164 L226.60843180942715 59.61497504604489 L227.44196160648488 56.56976229707374 L228.27549140354256 53.46057155958715 L229.10902120060024 50.3112515885702 L229.94255099765792 47.149347448397464 L230.77608079471565 44.00547971231151 L231.60961059177333 40.91257548885682 L232.443140388831 37.90498055821547 L233.27667018588875 35.01748883949534 L234.11019998294643 32.284330480218046 L234.9437297800041 29.73816270155453 L235.77725957706178 27.409107921250097 L236.61078937411946 25.323881541431945 L237.4443191711772 23.505047229172646 L238.27784896823488 21.97043079918643 L239.11137876529256 20.732715347092835 L240.77843835940797 19.171939369806637 L242.44549795352333 18.818181818181756 L244.11255754763874 19.590605458258324 L245.7796171417541 21.349310339462477 L246.61314693881184 22.544124888213844 L247.44667673586952 23.917714038414147 L248.2802065329272 25.446065452704204 L249.11373632998493 27.105603534950262 L249.94726612704255 28.87368933719557 L250.7807959241003 30.729018997747744 L251.61432572115797 32.65191898273582 L252.44785551821565 34.624542705836404 L253.28138531527338 36.63097831313496 L254.11491511233106 38.65728127341754 L254.94844490938874 40.69144777320645 L255.78197470644642 42.723345778217436 L256.61550450350416 44.74462010711653 L257.44903430056183 46.74858618745253 L258.2825640976195 48.730124614028966 L259.11609389467725 50.6855855287825 L259.9496236917349 52.61270851314384 L260.7831534887926 54.510560423727156 L261.6166832858503 56.37949065372368 L262.45021308290796 58.22110084093089 L263.2837428799657 60.038224170186254 L264.1172726770234 61.83490816460204 L264.95080247408106 63.616394197532316 L265.78433227113874 65.38908681489079 L266.6178620681965 67.1605062409933 L267.45139186525415 68.93921805307019 L268.28492166231183 70.73473486555662 L269.11845145936957 72.55738590541512 L269.95198125642725 74.41815155320137 L270.7855110534849 76.32846126816474 L271.6190408505426 78.29995482434208 L272.4525706476003 80.34420847934291 L273.286100444658 82.47242958954166 L274.1196302417157 84.69512526106047 L274.95316003877343 87.02175283526594 L275.7866898358311 89.46036225677915 L276.6202196328888 92.01724252416977 L277.45374942994647 94.69658630522667 L278.28727922700415 97.50018821421122 L279.1208090240619 100.42719299944412 L279.95433882111956 103.4739097966991 L280.78786861817724 106.63370753125025 L281.6213984152349 109.89700442529795 L282.4549282122926 113.25136139388599 L283.28845800935034 116.68168498366992 L284.121987806408 120.17054060495599 L284.95551760346575 123.69857138688343 L285.78904740052343 127.24501236846936 L286.6225771975811 130.7882842829194 L287.4561069946388 134.30664626784642 L288.28963679169647 137.7788827887395 L289.1231665887542 141.18499719811578 L289.9566963858119 144.50688289515352 L290.7902261828696 147.72894313490045 L291.62375597992724 150.83863219219197 L292.4572857769849 153.8268937363228 L293.29081557404265 156.68847673981327 L294.12434537110033 159.42211476291095 L294.95787516815807 162.03056069303196 L295.79140496521575 164.52047560313252 L296.6249347622734 166.90217694074556 L297.4584645593311 169.18925740223915 L298.2919943563888 171.39809125881442 L299.1255241534465 173.54724931956153 L299.9590539505042 175.65684695826104 L300.79258374756193 177.74785159656642 L301.6261135446196 179.841376714241 L302.4596433416773 181.95798891353945 L303.29317313873497 184.1170529308639 L304.12670293579265 186.33613694311472 L304.9602327328504 188.6304972647945 L305.79376252990807 191.01265778826925 L306.62729232696574 193.49209548694014 L307.4608221240234 196.0750391583477 L308.2943519210811 198.7643844780128 L309.12788171813884 201.55972447593933 L309.9614115151965 204.45749081443392 L310.79494131225425 207.4511977905756 L311.62847110931193 210.53177784639385 L312.4620009063696 213.68799457704662 L313.2955307034273 216.90691682050863 L314.12906050048497 220.17443544298985 L314.9625902975427 223.47580297017333 L315.7961200946004 226.79617533725184 L316.6296498916581 230.12113482934703 L317.4631796887158 233.43717384258943 L318.2967094857734 236.73212048027546 L319.13023928283116 239.99548923950547 L319.96376907988883 243.21874312486256 L320.79729887694657 246.39545737215926 L321.63082867400425 249.5213794388058 L322.4643584710619 252.59438481839237 L323.2978882681196 255.61433331344438 L324.1314180651773 258.5828353629697 L324.9649478622351 261.5029425656346 L325.7984776592927 264.37878036933813 L326.63200745635044 267.2151437523037 L327.4655372534081 270.0170783966277 L328.2990670504658 272.78947022767915 L329.1325968475235 275.536665227805 L329.9661266445812 278.2621391927294 L330.79965644163883 280.9682337382865 L331.63318623869657 283.65597061866265 L332.4667160357543 286.3249515811346 L333.3002458328119 288.97334588888634 L334.1337756298696 291.59796263446333 L334.96730542692734 294.19440036482507 L335.80083522398496 296.7572626241847 L336.63436502104275 299.2804250082331 L337.46789481810043 301.7573373505248 L338.30142461515806 304.1813437822097 L339.13495441221585 306.5460035907064 L339.96848420927347 308.8453969480801 L340.8020140063312 311.0744015228531 L341.63554380338894 313.22892852564456 L342.46907360044656 315.3061096448381 L343.3026033975043 317.30442937853627 L344.136133194562 319.2238002569477 L344.9696629916196 321.0655812016174 L345.80319278867734 322.83254165430407 L346.6367225857351 324.52877604664593 L347.4702523827927 326.1595746376838 L348.30378217985043 327.7312577284399 L349.1373119769081 329.2509808143633 L349.9708417739658 330.7265184248232 L350.8043715710236 332.16603430363386 L351.6379013680812 333.5778452868696 L352.47143116513894 334.9701858068313 L353.3049609621966 336.35097945154314 L354.1384907592543 337.72762347602395 L354.972020556312 339.1067916129489 L355.8055503533697 340.49425996624376 L356.63908015042733 341.89476017780464 L357.47260994748507 343.31186341314987 L358.3061397445428 344.74789799332046 L359.1396695416004 346.20390268976513 L359.9731993386581 347.6796167886857 L360.80672913571584 349.17350702788053 L361.64025893277346 350.6828304346217 L362.4737887298313 352.2037309845329 L363.30731852688893 353.7313669079677 L364.14084832394656 355.2600644487881 L364.97437812100435 356.7834929894837 L365.80790791806197 358.29485575106406 L366.6414377151197 359.7870898011382 L367.47496751217744 361.2530688896813 L368.30849730923507 362.6858026922003 L369.1420271062928 364.07862636832635 L369.9755569033505 365.42537491600837 L370.80908670040816 366.72053757730964 L371.64261649746584 367.9593884793094 L372.4761462945236 369.13809071392234 L373.3096760915812 370.25377211323183 L374.14320588863893 371.3045720055191 L375.8102654827543 373.2092222385687 L377.4773250768697 374.8573917957776 L379.1443846709851 376.26906581353836 L380.8114442651005 377.4760763621974 L382.47850385921583 378.51839738860804 L384.1455634533313 379.4399449512993 L385.81262304744666 380.2842989360698 L387.47968264156196 381.0907368120159 L389.14674223567744 381.8909296236998 L390.81380182979285 382.70659209626325 L392.4808614239082 383.54829656496895 L394.14792101802357 384.415551435618 L395.814980612139 385.2981127280817 L397.48204020625434 386.1783535638722 L399.1490998003697 387.03437978320295 L400.81615939448517 387.8434730524283 L402.48321898860047 388.58538886111165 L404.15027858271594 389.24505348987765 L405.8173381768313 389.8142979147949 L407.4843977709467 390.29242818577245 L409.1514573650621 390.68563411381456 L410.81851695917743 391.00544067256175 L412.48557655329284 391.266564772047 L414.1526361474082 391.484617703743 L415.8196957415237 391.67407396797745 L417.486755335639 391.8468193642865 L419.15381492975445 392.0114275172871 L420.8208745238698 392.1731401149406 L422.48793411798516 392.33438663333766 L424.1549937121006 392.4956041390577 L425.82205330621593 392.6561144442808 L427.48911290033135 392.81487022509185 L429.1561724944467 392.9709657622147 L430.82323208856207 393.12389169692165 L432.4902916826775 393.2735747696118 L434.15735127679284 393.4202743880157 L435.8244108709083 393.564411712005 L437.49147046502367 393.70639404909883 L439.1585300591391 393.84647818503953 L440.82558965325444 393.98469719370195 L442.4926492473698 394.1208580099955 L444.1597088414852 394.2546010615659 L445.82676843560057 394.38549877188785 L447.493828029716 394.5131593344908 L449.16088762383134 394.63729983222225 L450.8279472179467 394.7577613929036 L452.4950068120622 394.8744577701033 L454.1620664061775 394.98727214951066 " fill="none" stroke-width="1.6500000000000001" stroke="rgb(187,187,187)" stroke-opacity="1.0">
          </path>
        </g>
      </g>
    </g>
    <g transform="translate(14.5 217.0 ) rotate(-90.0 ) ">
      <text class="axis-title-y" y="0.0" text-anchor="middle">
      density
      </text>
    </g>
    <g transform="translate(384.488258793343 461.5 ) ">
      <text class="axis-title-x" y="0.0" text-anchor="middle">
      x
      </text>
    </g>
    <path fill="rgb(0,0,0)" fill-opacity="0.0" stroke="rgb(187,187,187)" stroke-opacity="1.0" stroke-width="0.0" d="M0.0 0.0 L0.0 470.0 L705.0 470.0 L705.0 0.0 Z">
    </path>
  </g>
  <g id="xXxprefixXx2">
  </g>
</svg>