<svg xmlns="http://www.w3.org/2000/svg" xmlns:xlink="http://www.w3.org/1999/xlink" class="plt-container" width="705.0" height="470.0">
  <style type="text/css">
  .plt-container {
   font-family: Lucida Grande, sans-serif;
   user-select: none;
   -webkit-user-select: none;
   -moz-user-select: none;
   -ms-user-select: none;
}
text {
   text-rendering: optimizeLegibility;
}
#xXxprefixXx0 .plot-title {
   fill: #bbbbbb;
   font-family: Lucida Grande, sans-serif;
   font-size: 16.0px;
   font-weight: normal;
   font-style: normal;   
}
#xXxprefixXx0 .plot-subtitle {
   fill: #bbbbbb;
   font-family: Lucida Grande, sans-serif;
   font-size: 15.0px;
   font-weight: normal;
   font-style: normal;   
}
#xXxprefixXx0 .plot-caption {
   fill: #bbbbbb;
   font-family: Lucida Grande, sans-serif;
   font-size: 13.0px;
   font-weight: normal;
   font-style: normal;   
}
#xXxprefixXx0 .legend-title {
   fill: #bbbbbb;
   font-family: Lucida Grande, sans-serif;
   font-size: 15.0px;
   font-weight: normal;
   font-style: normal;   
}
#xXxprefixXx0 .legend-item {
   fill: #bbbbbb;
   font-family: Lucida Grande, sans-serif;
   font-size: 13.0px;
   font-weight: normal;
   font-style: normal;   
}
#xXxprefixXx0 .axis-title-x {
   fill: #bbbbbb;
   font-family: Lucida Grande, sans-serif;
   font-size: 15.0px;
   font-weight: normal;
   font-style: normal;   
}
#xXxprefixXx0 .axis-text-x {
   fill: #bbbbbb;
   font-family: Lucida Grande, sans-serif;
   font-size: 13.0px;
   font-weight: normal;
   font-style: normal;   
}
#xXxprefixXx2 .axis-tooltip-text-x {
   fill: #303030;
   font-family: Lucida Grande, sans-serif;
   font-size: 13.0px;
   font-weight: normal;
   font-style: normal;   
}
#xXxprefixXx0 .axis-title-y {
   fill: #bbbbbb;
   font-family: Lucida Grande, sans-serif;
   font-size: 15.0px;
   font-weight: normal;
   font-style: normal;   
}
#xXxprefixXx0 .axis-text-y {
   fill: #bbbbbb;
   font-family: Lucida Grande, sans-serif;
   font-size: 13.0px;
   font-weight: normal;
   font-style: normal;   
}
#xXxprefixXx2 .axis-tooltip-text-y {
   fill: #303030;
   font-family: Lucida Grande, sans-serif;
   font-size: 13.0px;
   font-weight: normal;
   font-style: normal;   
}
#xXxprefixXx0 .facet-strip-text-x {
   fill: #bbbbbb;
   font-family: Lucida Grande, sans-serif;
   font-size: 13.0px;
   font-weight: normal;
   font-style: normal;   
}
#xXxprefixXx0 .facet-strip-text-y {
   fill: #bbbbbb;
   font-family: Lucida Grande, sans-serif;
   font-size: 13.0px;
   font-weight: normal;
   font-style: normal;   
}
#xXxprefixXx2 .tooltip-text {
   fill: #bbbbbb;
   font-family: Lucida Grande, sans-serif;
   font-size: 13.0px;
   font-weight: normal;
   font-style: normal;   
}
#xXxprefixXx2 .tooltip-title {
   fill: #bbbbbb;
   font-family: Lucida Grande, sans-serif;
   font-size: 13.0px;
   font-weight: bold;
   font-style: normal;   
}
#xXxprefixXx2 .tooltip-label {
   fill: #bbbbbb;
   font-family: Lucida Grande, sans-serif;
   font-size: 13.0px;
   font-weight: bold;
   font-style: normal;   
}

  </style>
  <g id="xXxprefixXx0">
    <path fill-rule="evenodd" fill="rgb(25,25,28)" fill-opacity="1.0" d="M0.0 0.0 L0.0 470.0 L705.0 470.0 L705.0 0.0 Z">
    </path>
    <g transform="translate(23.0 10.0 ) ">
      <g transform="translate(27.034701220281416 414.0 ) ">
        <line x1="41.14744726697779" y1="-0.0" x2="41.14744726697779" y2="-414.0" stroke="rgb(71,71,71)" stroke-opacity="1.0" stroke-width="1.0">
        </line>
        <line x1="131.19427170889944" y1="-0.0" x2="131.19427170889944" y2="-414.0" stroke="rgb(71,71,71)" stroke-opacity="1.0" stroke-width="1.0">
        </line>
        <line x1="221.24109615082116" y1="-0.0" x2="221.24109615082116" y2="-414.0" stroke="rgb(71,71,71)" stroke-opacity="1.0" stroke-width="1.0">
        </line>
        <line x1="311.2879205927428" y1="-0.0" x2="311.2879205927428" y2="-414.0" stroke="rgb(71,71,71)" stroke-opacity="1.0" stroke-width="1.0">
        </line>
        <line x1="401.3347450346645" y1="-0.0" x2="401.3347450346645" y2="-414.0" stroke="rgb(71,71,71)" stroke-opacity="1.0" stroke-width="1.0">
        </line>
        <line x1="491.38156947658626" y1="-0.0" x2="491.38156947658626" y2="-414.0" stroke="rgb(71,71,71)" stroke-opacity="1.0" stroke-width="1.0">
        </line>
        <line x1="581.4283939185079" y1="-0.0" x2="581.4283939185079" y2="-414.0" stroke="rgb(71,71,71)" stroke-opacity="1.0" stroke-width="1.0">
        </line>
        <g transform="translate(41.14744726697779 0.0 ) ">
          <line stroke-width="1.0" stroke="rgb(187,187,187)" stroke-opacity="1.0" x2="0.0" y2="4.0">
          </line>
          <g transform="translate(0.0 7.0 ) ">
            <text class="axis-text-x" text-anchor="middle" dy="0.7em">
            200
            </text>
          </g>
        </g>
        <g transform="translate(131.19427170889944 0.0 ) ">
          <line stroke-width="1.0" stroke="rgb(187,187,187)" stroke-opacity="1.0" x2="0.0" y2="4.0">
          </line>
          <g transform="translate(0.0 7.0 ) ">
            <text class="axis-text-x" text-anchor="middle" dy="0.7em">
            300
            </text>
          </g>
        </g>
        <g transform="translate(221.24109615082116 0.0 ) ">
          <line stroke-width="1.0" stroke="rgb(187,187,187)" stroke-opacity="1.0" x2="0.0" y2="4.0">
          </line>
          <g transform="translate(0.0 7.0 ) ">
            <text class="axis-text-x" text-anchor="middle" dy="0.7em">
            400
            </text>
          </g>
        </g>
        <g transform="translate(311.2879205927428 0.0 ) ">
          <line stroke-width="1.0" stroke="rgb(187,187,187)" stroke-opacity="1.0" x2="0.0" y2="4.0">
          </line>
          <g transform="translate(0.0 7.0 ) ">
            <text class="axis-text-x" text-anchor="middle" dy="0.7em">
            500
            </text>
          </g>
        </g>
        <g transform="translate(401.3347450346645 0.0 ) ">
          <line stroke-width="1.0" stroke="rgb(187,187,187)" stroke-opacity="1.0" x2="0.0" y2="4.0">
          </line>
          <g transform="translate(0.0 7.0 ) ">
            <text class="axis-text-x" text-anchor="middle" dy="0.7em">
            600
            </text>
          </g>
        </g>
        <g transform="translate(491.38156947658626 0.0 ) ">
          <line stroke-width="1.0" stroke="rgb(187,187,187)" stroke-opacity="1.0" x2="0.0" y2="4.0">
          </line>
          <g transform="translate(0.0 7.0 ) ">
            <text class="axis-text-x" text-anchor="middle" dy="0.7em">
            700
            </text>
          </g>
        </g>
        <g transform="translate(581.4283939185079 0.0 ) ">
          <line stroke-width="1.0" stroke="rgb(187,187,187)" stroke-opacity="1.0" x2="0.0" y2="4.0">
          </line>
          <g transform="translate(0.0 7.0 ) ">
            <text class="axis-text-x" text-anchor="middle" dy="0.7em">
            800
            </text>
          </g>
        </g>
        <line x1="0.0" y1="0.0" x2="644.9652987797186" y2="0.0" stroke-width="1.0" stroke="rgb(187,187,187)" stroke-opacity="1.0">
        </line>
      </g>
      <g transform="translate(27.034701220281416 0.0 ) ">
        <line x1="0.0" y1="374.57142857142856" x2="644.9652987797186" y2="374.57142857142856" stroke="rgb(71,71,71)" stroke-opacity="1.0" stroke-width="1.0">
        </line>
        <line x1="0.0" y1="335.1428571428571" x2="644.9652987797186" y2="335.1428571428571" stroke="rgb(71,71,71)" stroke-opacity="1.0" stroke-width="1.0">
        </line>
        <line x1="0.0" y1="295.71428571428567" x2="644.9652987797186" y2="295.71428571428567" stroke="rgb(71,71,71)" stroke-opacity="1.0" stroke-width="1.0">
        </line>
        <line x1="0.0" y1="256.2857142857143" x2="644.9652987797186" y2="256.2857142857143" stroke="rgb(71,71,71)" stroke-opacity="1.0" stroke-width="1.0">
        </line>
        <line x1="0.0" y1="216.85714285714286" x2="644.9652987797186" y2="216.85714285714286" stroke="rgb(71,71,71)" stroke-opacity="1.0" stroke-width="1.0">
        </line>
        <line x1="0.0" y1="177.42857142857144" x2="644.9652987797186" y2="177.42857142857144" stroke="rgb(71,71,71)" stroke-opacity="1.0" stroke-width="1.0">
        </line>
        <line x1="0.0" y1="138.0" x2="644.9652987797186" y2="138.0" stroke="rgb(71,71,71)" stroke-opacity="1.0" stroke-width="1.0">
        </line>
        <line x1="0.0" y1="98.57142857142861" x2="644.9652987797186" y2="98.57142857142861" stroke="rgb(71,71,71)" stroke-opacity="1.0" stroke-width="1.0">
        </line>
        <line x1="0.0" y1="59.14285714285717" x2="644.9652987797186" y2="59.14285714285717" stroke="rgb(71,71,71)" stroke-opacity="1.0" stroke-width="1.0">
        </line>
        <line x1="0.0" y1="19.71428571428578" x2="644.9652987797186" y2="19.71428571428578" stroke="rgb(71,71,71)" stroke-opacity="1.0" stroke-width="1.0">
        </line>
        <g transform="translate(0.0 414.0 ) ">
          <g transform="translate(-3.0 0.0 ) ">
            <text class="axis-text-y" text-anchor="end" dy="0.35em">
            0.0
            </text>
          </g>
        </g>
        <g transform="translate(0.0 374.57142857142856 ) ">
          <g transform="translate(-3.0 0.0 ) ">
            <text class="axis-text-y" text-anchor="end" dy="0.35em">
            0.1
            </text>
          </g>
        </g>
        <g transform="translate(0.0 335.1428571428571 ) ">
          <g transform="translate(-3.0 0.0 ) ">
            <text class="axis-text-y" text-anchor="end" dy="0.35em">
            0.2
            </text>
          </g>
        </g>
        <g transform="translate(0.0 295.71428571428567 ) ">
          <g transform="translate(-3.0 0.0 ) ">
            <text class="axis-text-y" text-anchor="end" dy="0.35em">
            0.3
            </text>
          </g>
        </g>
        <g transform="translate(0.0 256.2857142857143 ) ">
          <g transform="translate(-3.0 0.0 ) ">
            <text class="axis-text-y" text-anchor="end" dy="0.35em">
            0.4
            </text>
          </g>
        </g>
        <g transform="translate(0.0 216.85714285714286 ) ">
          <g transform="translate(-3.0 0.0 ) ">
            <text class="axis-text-y" text-anchor="end" dy="0.35em">
            0.5
            </text>
          </g>
        </g>
        <g transform="translate(0.0 177.42857142857144 ) ">
          <g transform="translate(-3.0 0.0 ) ">
            <text class="axis-text-y" text-anchor="end" dy="0.35em">
            0.6
            </text>
          </g>
        </g>
        <g transform="translate(0.0 138.0 ) ">
          <g transform="translate(-3.0 0.0 ) ">
            <text class="axis-text-y" text-anchor="end" dy="0.35em">
            0.7
            </text>
          </g>
        </g>
        <g transform="translate(0.0 98.57142857142861 ) ">
          <g transform="translate(-3.0 0.0 ) ">
            <text class="axis-text-y" text-anchor="end" dy="0.35em">
            0.8
            </text>
          </g>
        </g>
        <g transform="translate(0.0 59.14285714285717 ) ">
          <g transform="translate(-3.0 0.0 ) ">
            <text class="axis-text-y" text-anchor="end" dy="0.35em">
            0.9
            </text>
          </g>
        </g>
        <g transform="translate(0.0 19.71428571428578 ) ">
          <g transform="translate(-3.0 0.0 ) ">
            <text class="axis-text-y" text-anchor="end" dy="0.35em">
            1.0
            </text>
          </g>
        </g>
      </g>
      <g transform="translate(27.034701220281416 0.0 ) " clip-path="url(#xXxprefixXx1)" clip-bounds-jfx="[rect (0.0, 0.0), (644.9652987797186, 414.0)]">
        <defs>
          <clipPath id="xXxprefixXx1">
            <rect x="0.0" y="0.0" width="644.9652987797186" height="414.0">
            </rect>
          </clipPath>
        </defs>
        <g>
          <path d="M29.316604489987242 408.07241697585346 L29.316604489987242 408.07241697585346 L30.464025409360517 407.9434093063429 L31.61144632873379 407.822383977343 L32.758867248107066 407.7092422079057 L33.90628816748034 407.6037582803464 L35.053709086853615 407.5055804374154 L36.20113000622689 407.4142336915927 L37.34855092560019 407.32912447406954 L38.49597184497344 407.24954700800333 L39.643392764346714 407.1746912506389 L40.79081368371999 407.1036522130565 L41.93823460309329 407.0354404357112 L43.08565552246657 406.96899337348657 L44.23307644183984 406.90318742641693 L45.380497361213116 406.83685034206127 L46.52791828058636 406.7687737130088 L47.675339199959666 406.69772529822063 L48.82276011933294 406.62246090966266 L49.970181038706215 406.5417356255406 L51.11760195807949 406.45431411777594 L52.265022877452765 406.3589799133236 L53.41244379682604 406.25454344554504 L54.559864716199314 406.1398487919877 L55.70728563557259 406.0137790373734 L56.85470655494589 405.87526024410056 L58.00212747431917 405.72326405583664 L59.14954839369244 405.5568090015763 L60.29696931306569 405.374960606664 L61.44439023243896 405.1768304526481 L62.591811151812266 404.9615743584623 L63.73923207118554 404.72838988049836 L64.88665299055882 404.47651334797786 L66.03407390993209 404.20521666215745 L67.18149482930534 403.9138040929992 L68.32891574867864 403.601609304881 L69.47633666805191 403.267992833751 L70.62375758742519 402.9123402220653 L71.77117850679849 402.53406099525336 L72.91859942617174 402.1325886348627 L74.06602034554501 401.70738166957085 L75.21344126491829 401.2579259666985 L76.36086218429156 400.78373826456044 L77.50828310366487 400.2843709409061 L78.65570402303814 399.75941796583714 L79.80312494241142 399.2085219400229 L80.95054586178466 398.6313820718771 L82.09796678115794 398.0277629017558 L83.24538770053124 397.39750353834097 L84.39280861990451 396.7405271333542 L85.54022953927779 396.0568502867227 L86.68765045865106 395.3465920464217 L87.83507137802434 394.60998214646713 L88.98249229739761 393.8473681139092 L90.12991321677089 393.0592208720268 L91.27733413614416 392.24613847296087 L92.42475505551747 391.40884760930345 L93.57217597489071 390.5482025810066 L94.71959689426399 389.66518143152575 L95.86701781363723 388.7608790151944 L97.01443873301054 387.8364968160199 L98.16185965238384 386.89332940565043 L99.30928057175714 385.9327475041374 L100.45670149113039 384.95617768993407 L101.60412241050366 383.9650788936518 L102.75154332987691 382.96091590148654 L103.89896424925021 381.94513018669625 L105.04638516862352 380.9191084786643 L106.19380608799676 379.8841495663403 L107.34122700737007 378.84142991358596 L108.48864792674331 377.7919687355409 L109.63606884611659 376.7365932450161 L110.78348976548989 375.67590482377824 L111.93091068486314 374.61024690331675 L113.07833160423644 373.5396753515555 L114.22575252360969 372.4639321547136 L115.37317344298299 371.3824231563151 L116.52059436235626 370.2942005679954 L117.66801528172951 369.197950899582 L118.81543620110281 368.09198886990885 L119.96285712047606 366.97425775650015 L121.11027803984936 365.842336523753 L122.25769895922267 364.6934539381643 L123.40511987859591 363.524509738567 L124.55254079796921 362.332102782662 L125.69996171734246 361.11256594199676 L126.84738263671571 359.8620073697407 L127.99480355608901 358.5763576229057 L129.14222447546226 357.25142198671523 L130.28964539483556 355.8829372270658 L131.4370663142088 354.46663189051895 L132.5844872335821 352.9982891826286 L133.7319081529554 351.47381138677895 L134.87932907232872 349.889284738593 L136.02674999170196 348.24104364629284 L137.17417091107527 346.52573314546635 L138.3215918304485 344.7403684971679 L139.46901274982181 342.88239088031315 L140.61643366919506 340.9497181914703 L141.7638545885683 338.9407900455758 L142.9112755079416 336.85460616758706 L144.05869642731486 334.69075747514 L145.20611734668816 332.4494492732506 L146.35353826606146 330.1315161112511 L147.5009591854347 327.7384279867528 L148.648380104808 325.2722877188508 L149.79580102418126 322.7358194505488 L150.94322194355456 320.1323483762145 L152.09064286292787 317.46577192177534 L153.2380637823011 314.74052273153393 L154.38548470167436 311.9615239344654 L155.5329056210476 309.1341372733856 L156.6803265404209 306.26410478145635 L157.8277474597942 303.3574847812739 L158.9751683791675 300.4205830616478 L160.12258929854076 297.4598801555274 L161.270010217914 294.4819556989367 L162.4174311372873 291.4934108947889 L163.5648520566606 288.50079013667914 L164.71227297603392 285.51050286577424 L165.85969389540716 282.52874673837323 L167.0071148147804 279.5614331721796 L168.1545357341537 276.61411631548793 L169.30195665352696 273.69192644507086 L170.44937757290026 270.7995087453834 L171.5967984922735 267.9409683538018 L172.74421941164675 265.1198224742034 L173.89164033102006 262.33896026472155 L175.03906125039336 259.60061109584217 L176.18648216976666 256.9063216531593 L177.3339030891399 254.25694222673582 L178.48132400851316 251.65262238782512 L179.62874492788646 249.092816106129 L180.77616584725976 246.57629620918914 L181.92358676663306 244.10117793301026 L183.07100768600625 241.66495116252182 L184.21842860537956 239.26452081539801 L185.3658495247528 236.8962546862849 L186.5132704441261 234.556037943963 L187.6606913634994 232.23933336444347 L188.80811228287266 229.9412462913429 L189.95553320224596 227.65659324347257 L191.1029541216192 225.37997304049543 L192.2503750409925 223.10583929199944 L193.3977959603658 220.82857309432686 L194.54521687973912 218.54255480293213 L195.69263779911236 216.2422337954041 L196.8400587184856 213.92219521018134 L197.98747963785885 211.57722273646678 L199.13490055723216 209.2023566392643 L200.28232147660546 206.79294632672742 L201.4297423959787 204.34469690150172 L202.57716331535195 201.8537092796159 L203.72458423472526 199.31651360568273 L204.87200515409856 196.73009583760927 L206.01942607347186 194.09191751371847 L207.1668469928451 191.39992884649104 L208.31426791221836 188.6525754065964 L209.46168883159166 185.84879876586197 L210.6091097509649 182.98803155587805 L211.7565306703382 180.0701874686977 L212.90395158971145 177.09564677658338 L214.0513725090847 174.06523797889898 L215.198793428458 170.98021619666943 L216.3462143478313 167.84223893018697 L217.4936352672046 164.65333977428713 L218.64105618657786 161.41590065175927 L219.78847710595116 158.13262308058154 L220.9358980253244 154.80649893820453 L222.0833189446977 151.44078112889042 L223.230739864071 148.03895450133587 L224.37816078344426 144.60470730605982 L225.5255817028175 141.1419034279727 L226.67300262219075 137.65455558119658 L227.82042354156405 134.146799612111 L228.96784446093736 130.6228700238276 L230.11526538031066 127.08707681117039 L231.2626862996839 123.54378367960811 L232.41010721905715 119.9973877136174 L233.55752813843046 116.45230055836885 L234.70494905780376 112.91293118167675 L235.85236997717706 109.38367028874478 L236.9997908965503 105.86887646817144 L238.14721181592355 102.37286415154915 L239.2946327352968 98.8998934685664 L240.4420536546701 95.45416207286235 L241.5894745740434 92.03979899917073 L242.73689549341665 88.66086058840602 L243.8843164127899 85.32132848363989 L245.0317373321632 82.02510965634195 L246.1791582515365 78.77603836941472 L247.3265791709098 75.57787992286393 L248.47400009028306 72.4343359612127 L249.62142100965636 69.34905105163784 L250.7688419290296 66.32562017110871 L251.9162628484029 63.36759667309968 L253.06368376777615 60.478500243053986 L254.2111046871494 57.66182430044836 L255.3585256065227 54.92104226748205 L256.505946525896 52.25961210326648 L257.6533674452693 49.68097850058632 L258.8007883646426 47.18857216211711 L259.9482092840158 44.78580561556146 L261.0956302033891 42.47606509321298 L262.2430511227624 40.262698090453455 L263.3904720421357 38.148996328349085 L264.537892961509 36.138173975489394 L265.6853138808822 34.23334113030904 L266.8327348002555 32.437472723353096 L267.9801557196288 30.753373164517313 L269.127576639002 29.183637227928443 L270.2749975583753 27.730607831263853 L271.4224184777486 26.396331521031357 L272.5698393971219 25.182512614949246 L273.7172603164952 24.090467071513785 L274.8646812358684 23.12107725021764 L276.0121021552417 22.27474878916445 L277.159523074615 21.551370856739425 L278.3069439939883 20.950281027900303 L279.4543649133616 20.470235992344385 L280.6017858327348 20.109389221097786 L281.7492067521081 19.865276601094763 L282.8966276714814 19.73481089649249 L284.0440485908546 19.714285714285722 L285.1914695102279 19.799389444862527 L286.3388904296012 19.985229421210875 L287.4863113489745 20.266366299676008 L288.6337322683478 20.636858417587405 L289.781153187721 21.090315635883996 L290.9285741070943 21.619961935453034 L292.0759950264676 22.21870581143827 L293.2234159458409 22.87921730711537 L294.3708368652142 23.594010354218824 L295.5182577845874 24.35552894518861 L296.6656787039607 25.156235558993842 L297.813099623334 25.988700199102595 L298.9605205427072 26.845688381758123 L300.1079414620805 27.72024643530341 L301.2553623814538 28.605782536273523 L302.4027833008271 29.49614201291672 L303.5502042202004 30.385675588522417 L304.6976251395736 31.26929941054601 L305.8450460589469 32.14254591189581 L306.9924669783202 33.00160477111359 L308.1398878976935 33.84335347205558 L309.2873088170667 34.665377203633966 L310.43472973644 35.46597807907233 L311.5821506558133 36.24417388485148 L312.72957157518647 36.99968678550238 L313.8769924945598 37.73292260560902 L315.0244134139331 38.44494147973751 L316.1718343333064 39.137420800473876 L317.3192552526797 39.81261150122975 L318.466676172053 40.4732887825196 L319.6140970914262 41.12269842729262 L320.7615180107995 41.764499853703626 L321.9089389301728 42.402707024238225 L323.0563598495461 43.041628271524075 L324.2037807689193 43.685806017522566 L325.35120168829246 44.339957258781965 L326.4986226076659 45.008915571341106 L327.64604352703907 45.69757526041212 L328.7934644464124 46.410838147652385 L329.9408853657857 47.153563358283805 L331.08830628515886 47.930520346564094 L332.2357272045323 48.74634528575223 L333.38314812390547 49.605500851382715 L334.5305690432788 50.51223934735049 L335.6779899626521 51.470569064770814 L336.82541088202527 52.48422372467587 L337.9728318013987 53.55663483718877 L339.1202527207719 54.69090681057122 L340.2676736401452 55.88979466152239 L341.4150945595185 57.15568421040132 L342.56251547889167 58.49057468823696 L343.7099363982651 59.896063732732785 L344.8573573176383 61.373334803775435 L346.0047782370116 62.92314710143762 L347.1521991563849 64.54582811704262 L348.29962007575807 66.24126898735591 L349.4470409951315 68.00892285031193 L350.5944619145047 69.8478064157909 L351.741882833878 71.75650496537469 L352.88930375325117 73.73318097997958 L354.0367246726245 75.77558656423128 L355.1841455919978 77.88107979206814 L356.33156651137097 80.04664504128937 L357.47898743074427 82.26891731767665 L358.6264083501176 84.54421049481255 L359.7738292694909 86.86854931670615 L360.9212501888642 89.23770493014752 L362.06867110823737 91.64723363546369 L363.21609202761067 94.09251847107959 L364.363512946984 96.5688131817326 L365.5109338663573 99.07128806457303 L366.6583547857306 101.59507714355777 L367.80577570510377 104.1353260915593 L368.9531966244772 106.68724030218584 L370.1006175438504 109.24613250929269 L371.2480384632237 111.8074693610858 L372.395459382597 114.36691637641775 L373.5428803019702 116.92038074192635 L374.6903012213436 119.46405144833943 L375.8377221407168 121.99443631051435 L376.9851430600901 124.50839546673728 L378.1325639794634 127.0031710063887 L379.2799848988366 129.47641242966478 L380.42740581821 131.92619769692658 L381.5748267375832 134.35104967735953 L382.7222476569565 136.74994785605463 L383.8696685763298 139.12233520486558 L385.017089495703 141.46812016544118 L386.1645104150763 143.7876737328362 L387.31193133444947 146.08182166566593 L388.4593522538228 148.35183188463031 L389.6067731731961 150.59939715626223 L390.75419409256926 152.82661319395254 L391.9016150119427 155.03595234452996 L393.04903593131587 157.23023306671035 L394.1964568506892 159.41258544817066 L395.3438777700625 161.58641305106903 L396.49129868943567 163.75535142156593 L397.6387196088091 165.92322364682744 L398.7861405281823 168.09399339240582 L399.9335614475556 170.27171590266514 L401.0809823669289 172.46048749562414 L402.22840328630207 174.66439412957263 L403.3758242056755 176.8874596601828 L404.5232451250487 179.13359444164695 L405.670666044422 181.40654495165487 L406.8180869637953 183.70984513586563 L407.96550788316847 186.04677017130808 L409.1129288025419 188.42029333838312 L410.2603497219151 190.8330466668467 L411.4077706412884 193.28728598173433 L412.5551915606617 195.78486092043454 L413.7026124800349 198.32719042258967 L414.8500333994082 200.9152441109368 L415.99745431878137 203.54952988520654 L417.14487523815467 206.2300879445995 L418.29229615752797 208.95649133954205 L419.4397170769013 211.72785303312295 L420.5871379962746 214.54283932975966 L421.73455891564777 217.39968940644707 L422.88197983502107 220.29624056357386 L424.0294007543944 223.22995870093496 L425.1768216737677 226.1979734232663 L426.324242593141 229.1971170910944 L427.47166351251417 232.2239670593802 L428.6190844318875 235.27489029030062 L429.7665053512608 238.346089489063 L430.9139262706341 241.43364989381988 L432.0613471900074 244.53358585294978 L433.20876810938057 247.64188634498706 L434.3561890287539 250.75455863762113 L435.5036099481272 253.8676693411117 L436.6510308675005 256.977382186526 L437.7984517868738 260.0799919481321 L438.945872706247 263.1719540296907 L440.0932936256204 266.2499093434211 L441.2407145449936 269.31070422520844 L442.3881354643669 272.3514052471438 L443.5355563837401 275.36930890569334 L444.68297730311326 278.3619462778489 L445.8303982224867 281.3270828456714 L446.97781914185987 284.2627137892503 L448.12524006123317 287.16705513703994 L449.2726609806065 290.03853123886364 L450.42008189997966 292.8757590892104 L451.5675028193531 295.6775300755809 L452.71492373872627 298.44278975798915 L453.8623446580996 301.1706163010267 L455.0097655774729 303.86019817928434 L456.15718649684607 306.5108117610562 L457.3046074162195 309.121799344991 L458.4520283355927 311.69254818106054 L459.599449254966 314.22247095245507 L460.7468701743393 316.71098813063713 L461.89429109371247 319.1575125438733 L463.0417120130859 321.56143642229694 L464.1891329324591 323.922121102239 L465.3365538518324 326.2388894915596 L466.4839747712057 328.5110213182432 L467.63139569057887 330.73775110887914 L468.7788166099523 332.91826877380214 L469.9262375293255 335.0517226134963 L471.07365844869867 337.1372245079342 L472.22107936807197 339.1738570080544 L473.36850028744516 341.1606820175475 L474.5159212068186 343.09675073397426 L475.66334212619176 344.9811145111797 L476.81076304556507 346.8128363096866 L477.95818396493837 348.59100241758637 L479.10560488431156 350.3147341503903 L480.253025803685 351.9831992729397 L481.40044672305817 353.5956229281635 L482.54786764243147 355.1512979043149 L483.6952885618048 356.64959412221816 L484.84270948117796 358.0899672749087 L485.9901304005514 359.4719666016424 L487.13755131992457 360.79524182452224 L488.2849722392979 362.0595493170052 L489.4323931586712 363.26475760757774 L490.57981407804436 364.41085234755514 L491.7272349974178 365.49794088816907 L492.87465591679097 366.52625661823254 L494.0220768361644 367.4961632094609 L495.1694977555376 368.40815890218033 L496.31691867491077 369.26288094031605 L497.4643395942842 370.0611102322346 L498.6117605136574 370.80377627463474 L499.7591814330307 371.49196233194016 L500.90660235240387 372.1269108154884 L502.05402327177706 372.7100287573666 L503.2014441911505 373.2428932251851 L504.34886511052366 373.72725647861216 L505.4962860298971 374.1650506282016 L506.64370694927027 374.5583915238416 L507.79112786864346 374.9095815757207 L508.9385487880169 375.2211111963758 L510.08596970739006 375.49565854916244 L511.2333906267635 375.73608729694115 L512.3808115461367 375.9454420650618 L513.5282324655099 376.12694136459584 L514.6756533848833 376.2839677645148 L515.8230743042565 376.42005515407976 L516.9704952236299 376.53887299767575 L518.1179161430031 376.64420755197443 L519.2653370623763 376.73994008771206 L520.4127579817497 376.83002223341174 L521.5601789011229 376.9184486338773 L522.7075998204963 377.0092271900279 L523.8550207398695 377.10634721648495 L525.0024416592427 377.2137459172375 L526.1498625786161 377.33527363586046 L527.2972834979893 377.474658383545 L528.4447044173626 377.63547018429097 L529.5921253367358 377.8210858010092 L530.7395462561092 378.0346544182989 L531.8869671754824 378.2790648569684 L533.0343880948556 378.556914881965 L534.181809014229 378.8704831395913 L535.3292299336022 379.221704222365 L536.4766508529756 379.6121473115412 L537.6240717723488 380.04299878932494 L538.771492691722 380.5150491465547 L539.9189136110954 381.028684438653 L541.0663345304686 381.58388246461175 L542.213755449842 382.18021376245 L543.3611763692152 382.81684743172514 L544.5085972885884 383.49256171109994 L545.6560182079618 384.2057591583803 L546.803439127335 384.95448620350936 L547.9508600467084 385.7364567732676 L549.0982809660816 386.5490796212729 L550.2457018854548 387.3894889395321 L551.3931228048282 388.25457777927886 L552.5405437242014 389.141033769974 L553.6879646435747 390.0453765967373 L554.835385562948 390.96399667847186 L555.9828064823212 391.8931944816994 L557.1302274016945 392.8292199085025 L558.2776483210677 393.7683112106765 L559.4250692404411 394.7067329056614 L560.5724901598143 395.6408122023113 L561.7199110791875 396.5669734851502 L562.8673319985609 397.4817704533516 L564.0147529179341 398.38191556407475 L565.1621738373075 399.2643064876623 L566.3095947566807 400.1260493431705 L567.4570156760539 400.96447854537223 L568.6044365954273 401.7771731573029 L569.7518575148005 402.561969704275 L570.8992784341739 403.31697146474727 L572.0466993535471 404.0405543093177 L573.1941202729203 404.7313692103662 L574.3415411922937 405.3883415905885 L575.4889621116669 406.0106677181384 L576.6363830310403 406.5978083887942 L577.7838039504135 407.1494801611608 L578.9312248697867 407.66564442931025 L580.0786457891601 408.146494628503 L581.2260667085333 408.5924418740144 L582.3734876279066 409.0040993310415 L583.5209085472799 409.3822656057754 L584.6683294666531 409.7279074347304 L585.8157503860264 410.0421419321103 L586.9631713053996 410.32621863426914 L588.110592224773 410.5815015570908 L589.2580131441462 410.80945145727935 L590.4054340635194 411.0116084630189 L591.5528549828928 411.18957521403973 L592.700275902266 411.3450006265687 L593.8476968216394 411.4795643755856 L594.9951177410126 411.5949621657651 L596.1425386603858 411.69289184385576 L597.2899595797592 411.77504038927293 L598.4373804991324 411.8430718064895 L599.5848014185058 411.8986159323763 L600.732222337879 411.94325816384116 L601.8796432572524 411.97853010570884 L603.0270641766256 412.0059011354434 L604.1744850959988 412.02677087965606 L605.3219060153722 412.0424625969292 L606.4693269347454 412.05421746187113 L607.6167478541188 412.0631897460459 L608.764168773492 412.07044289207425 L609.9115896928652 412.07694647739316 L611.0590106122385 412.0835740635709 L612.2064315316117 412.0911019254571 L613.3538524509851 412.1002086516301 L614.5012733703583 412.11147560351384 L615.6486942897315 412.1253882151749 L615.6486942897315 414.0 L614.5012733703583 414.0 L613.3538524509851 414.0 L612.2064315316117 414.0 L611.0590106122385 414.0 L609.9115896928652 414.0 L608.764168773492 414.0 L607.6167478541188 414.0 L606.4693269347454 414.0 L605.3219060153722 414.0 L604.1744850959988 414.0 L603.0270641766256 414.0 L601.8796432572524 414.0 L600.732222337879 414.0 L599.5848014185058 414.0 L598.4373804991324 414.0 L597.2899595797592 414.0 L596.1425386603858 414.0 L594.9951177410126 414.0 L593.8476968216394 414.0 L592.700275902266 414.0 L591.5528549828928 414.0 L590.4054340635194 414.0 L589.2580131441462 414.0 L588.110592224773 414.0 L586.9631713053996 414.0 L585.8157503860264 414.0 L584.6683294666531 414.0 L583.5209085472799 414.0 L582.3734876279066 414.0 L581.2260667085333 414.0 L580.0786457891601 414.0 L578.9312248697867 414.0 L577.7838039504135 414.0 L576.6363830310403 414.0 L575.4889621116669 414.0 L574.3415411922937 414.0 L573.1941202729203 414.0 L572.0466993535471 414.0 L570.8992784341739 414.0 L569.7518575148005 414.0 L568.6044365954273 414.0 L567.4570156760539 414.0 L566.3095947566807 414.0 L565.1621738373075 414.0 L564.0147529179341 414.0 L562.8673319985609 414.0 L561.7199110791875 414.0 L560.5724901598143 414.0 L559.4250692404411 414.0 L558.2776483210677 414.0 L557.1302274016945 414.0 L555.9828064823212 414.0 L554.835385562948 414.0 L553.6879646435747 414.0 L552.5405437242014 414.0 L551.3931228048282 414.0 L550.2457018854548 414.0 L549.0982809660816 414.0 L547.9508600467084 414.0 L546.803439127335 414.0 L545.6560182079618 414.0 L544.5085972885884 414.0 L543.3611763692152 414.0 L542.213755449842 414.0 L541.0663345304686 414.0 L539.9189136110954 414.0 L538.771492691722 414.0 L537.6240717723488 414.0 L536.4766508529756 414.0 L535.3292299336022 414.0 L534.181809014229 414.0 L533.0343880948556 414.0 L531.8869671754824 414.0 L530.7395462561092 414.0 L529.5921253367358 414.0 L528.4447044173626 414.0 L527.2972834979893 414.0 L526.1498625786161 414.0 L525.0024416592427 414.0 L523.8550207398695 414.0 L522.7075998204963 414.0 L521.5601789011229 414.0 L520.4127579817497 414.0 L519.2653370623763 414.0 L518.1179161430031 414.0 L516.9704952236299 414.0 L515.8230743042565 414.0 L514.6756533848833 414.0 L513.5282324655099 414.0 L512.3808115461367 414.0 L511.2333906267635 414.0 L510.08596970739006 414.0 L508.9385487880169 414.0 L507.79112786864346 414.0 L506.64370694927027 414.0 L505.4962860298971 414.0 L504.34886511052366 414.0 L503.2014441911505 414.0 L502.05402327177706 414.0 L500.90660235240387 414.0 L499.7591814330307 414.0 L498.6117605136574 414.0 L497.4643395942842 414.0 L496.31691867491077 414.0 L495.1694977555376 414.0 L494.0220768361644 414.0 L492.87465591679097 414.0 L491.7272349974178 414.0 L490.57981407804436 414.0 L489.4323931586712 414.0 L488.2849722392979 414.0 L487.13755131992457 414.0 L485.9901304005514 414.0 L484.84270948117796 414.0 L483.6952885618048 414.0 L482.54786764243147 414.0 L481.40044672305817 414.0 L480.253025803685 414.0 L479.10560488431156 414.0 L477.95818396493837 414.0 L476.81076304556507 414.0 L475.66334212619176 414.0 L474.5159212068186 414.0 L473.36850028744516 414.0 L472.22107936807197 414.0 L471.07365844869867 414.0 L469.9262375293255 414.0 L468.7788166099523 414.0 L467.63139569057887 414.0 L466.4839747712057 414.0 L465.3365538518324 414.0 L464.1891329324591 414.0 L463.0417120130859 414.0 L461.89429109371247 414.0 L460.7468701743393 414.0 L459.599449254966 414.0 L458.4520283355927 414.0 L457.3046074162195 414.0 L456.15718649684607 414.0 L455.0097655774729 414.0 L453.8623446580996 414.0 L452.71492373872627 414.0 L451.5675028193531 414.0 L450.42008189997966 414.0 L449.2726609806065 414.0 L448.12524006123317 414.0 L446.97781914185987 414.0 L445.8303982224867 414.0 L444.68297730311326 414.0 L443.5355563837401 414.0 L442.3881354643669 414.0 L441.2407145449936 414.0 L440.0932936256204 414.0 L438.945872706247 414.0 L437.7984517868738 414.0 L436.6510308675005 414.0 L435.5036099481272 414.0 L434.3561890287539 414.0 L433.20876810938057 414.0 L432.0613471900074 414.0 L430.9139262706341 414.0 L429.7665053512608 414.0 L428.6190844318875 414.0 L427.47166351251417 414.0 L426.324242593141 414.0 L425.1768216737677 414.0 L424.0294007543944 414.0 L422.88197983502107 414.0 L421.73455891564777 414.0 L420.5871379962746 414.0 L419.4397170769013 414.0 L418.29229615752797 414.0 L417.14487523815467 414.0 L415.99745431878137 414.0 L414.8500333994082 414.0 L413.7026124800349 414.0 L412.5551915606617 414.0 L411.4077706412884 414.0 L410.2603497219151 414.0 L409.1129288025419 414.0 L407.96550788316847 414.0 L406.8180869637953 414.0 L405.670666044422 414.0 L404.5232451250487 414.0 L403.3758242056755 414.0 L402.22840328630207 414.0 L401.0809823669289 414.0 L399.9335614475556 414.0 L398.7861405281823 414.0 L397.6387196088091 414.0 L396.49129868943567 414.0 L395.3438777700625 414.0 L394.1964568506892 414.0 L393.04903593131587 414.0 L391.9016150119427 414.0 L390.75419409256926 414.0 L389.6067731731961 414.0 L388.4593522538228 414.0 L387.31193133444947 414.0 L386.1645104150763 414.0 L385.017089495703 414.0 L383.8696685763298 414.0 L382.7222476569565 414.0 L381.5748267375832 414.0 L380.42740581821 414.0 L379.2799848988366 414.0 L378.1325639794634 414.0 L376.9851430600901 414.0 L375.8377221407168 414.0 L374.6903012213436 414.0 L373.5428803019702 414.0 L372.395459382597 414.0 L371.2480384632237 414.0 L370.1006175438504 414.0 L368.9531966244772 414.0 L367.80577570510377 414.0 L366.6583547857306 414.0 L365.5109338663573 414.0 L364.363512946984 414.0 L363.21609202761067 414.0 L362.06867110823737 414.0 L360.9212501888642 414.0 L359.7738292694909 414.0 L358.6264083501176 414.0 L357.47898743074427 414.0 L356.33156651137097 414.0 L355.1841455919978 414.0 L354.0367246726245 414.0 L352.88930375325117 414.0 L351.741882833878 414.0 L350.5944619145047 414.0 L349.4470409951315 414.0 L348.29962007575807 414.0 L347.1521991563849 414.0 L346.0047782370116 414.0 L344.8573573176383 414.0 L343.7099363982651 414.0 L342.56251547889167 414.0 L341.4150945595185 414.0 L340.2676736401452 414.0 L339.1202527207719 414.0 L337.9728318013987 414.0 L336.82541088202527 414.0 L335.6779899626521 414.0 L334.5305690432788 414.0 L333.38314812390547 414.0 L332.2357272045323 414.0 L331.08830628515886 414.0 L329.9408853657857 414.0 L328.7934644464124 414.0 L327.64604352703907 414.0 L326.4986226076659 414.0 L325.35120168829246 414.0 L324.2037807689193 414.0 L323.0563598495461 414.0 L321.9089389301728 414.0 L320.7615180107995 414.0 L319.6140970914262 414.0 L318.466676172053 414.0 L317.3192552526797 414.0 L316.1718343333064 414.0 L315.0244134139331 414.0 L313.8769924945598 414.0 L312.72957157518647 414.0 L311.5821506558133 414.0 L310.43472973644 414.0 L309.2873088170667 414.0 L308.1398878976935 414.0 L306.9924669783202 414.0 L305.8450460589469 414.0 L304.6976251395736 414.0 L303.5502042202004 414.0 L302.4027833008271 414.0 L301.2553623814538 414.0 L300.1079414620805 414.0 L298.9605205427072 414.0 L297.813099623334 414.0 L296.6656787039607 414.0 L295.5182577845874 414.0 L294.3708368652142 414.0 L293.2234159458409 414.0 L292.0759950264676 414.0 L290.9285741070943 414.0 L289.781153187721 414.0 L288.6337322683478 414.0 L287.4863113489745 414.0 L286.3388904296012 414.0 L285.1914695102279 414.0 L284.0440485908546 414.0 L282.8966276714814 414.0 L281.7492067521081 414.0 L280.6017858327348 414.0 L279.4543649133616 414.0 L278.3069439939883 414.0 L277.159523074615 414.0 L276.0121021552417 414.0 L274.8646812358684 414.0 L273.7172603164952 414.0 L272.5698393971219 414.0 L271.4224184777486 414.0 L270.2749975583753 414.0 L269.127576639002 414.0 L267.9801557196288 414.0 L266.8327348002555 414.0 L265.6853138808822 414.0 L264.537892961509 414.0 L263.3904720421357 414.0 L262.2430511227624 414.0 L261.0956302033891 414.0 L259.9482092840158 414.0 L258.8007883646426 414.0 L257.6533674452693 414.0 L256.505946525896 414.0 L255.3585256065227 414.0 L254.2111046871494 414.0 L253.06368376777615 414.0 L251.9162628484029 414.0 L250.7688419290296 414.0 L249.62142100965636 414.0 L248.47400009028306 414.0 L247.3265791709098 414.0 L246.1791582515365 414.0 L245.0317373321632 414.0 L243.8843164127899 414.0 L242.73689549341665 414.0 L241.5894745740434 414.0 L240.4420536546701 414.0 L239.2946327352968 414.0 L238.14721181592355 414.0 L236.9997908965503 414.0 L235.85236997717706 414.0 L234.70494905780376 414.0 L233.55752813843046 414.0 L232.41010721905715 414.0 L231.2626862996839 414.0 L230.11526538031066 414.0 L228.96784446093736 414.0 L227.82042354156405 414.0 L226.67300262219075 414.0 L225.5255817028175 414.0 L224.37816078344426 414.0 L223.230739864071 414.0 L222.0833189446977 414.0 L220.9358980253244 414.0 L219.78847710595116 414.0 L218.64105618657786 414.0 L217.4936352672046 414.0 L216.3462143478313 414.0 L215.198793428458 414.0 L214.0513725090847 414.0 L212.90395158971145 414.0 L211.7565306703382 414.0 L210.6091097509649 414.0 L209.46168883159166 414.0 L208.31426791221836 414.0 L207.1668469928451 414.0 L206.01942607347186 414.0 L204.87200515409856 414.0 L203.72458423472526 414.0 L202.57716331535195 414.0 L201.4297423959787 414.0 L200.28232147660546 414.0 L199.13490055723216 414.0 L197.98747963785885 414.0 L196.8400587184856 414.0 L195.69263779911236 414.0 L194.54521687973912 414.0 L193.3977959603658 414.0 L192.2503750409925 414.0 L191.1029541216192 414.0 L189.95553320224596 414.0 L188.80811228287266 414.0 L187.6606913634994 414.0 L186.5132704441261 414.0 L185.3658495247528 414.0 L184.21842860537956 414.0 L183.07100768600625 414.0 L181.92358676663306 414.0 L180.77616584725976 414.0 L179.62874492788646 414.0 L178.48132400851316 414.0 L177.3339030891399 414.0 L176.18648216976666 414.0 L175.03906125039336 414.0 L173.89164033102006 414.0 L172.74421941164675 414.0 L171.5967984922735 414.0 L170.44937757290026 414.0 L169.30195665352696 414.0 L168.1545357341537 414.0 L167.0071148147804 414.0 L165.85969389540716 414.0 L164.71227297603392 414.0 L163.5648520566606 414.0 L162.4174311372873 414.0 L161.270010217914 414.0 L160.12258929854076 414.0 L158.9751683791675 414.0 L157.8277474597942 414.0 L156.6803265404209 414.0 L155.5329056210476 414.0 L154.38548470167436 414.0 L153.2380637823011 414.0 L152.09064286292787 414.0 L150.94322194355456 414.0 L149.79580102418126 414.0 L148.648380104808 414.0 L147.5009591854347 414.0 L146.35353826606146 414.0 L145.20611734668816 414.0 L144.05869642731486 414.0 L142.9112755079416 414.0 L141.7638545885683 414.0 L140.61643366919506 414.0 L139.46901274982181 414.0 L138.3215918304485 414.0 L137.17417091107527 414.0 L136.02674999170196 414.0 L134.87932907232872 414.0 L133.7319081529554 414.0 L132.5844872335821 414.0 L131.4370663142088 414.0 L130.28964539483556 414.0 L129.14222447546226 414.0 L127.99480355608901 414.0 L126.84738263671571 414.0 L125.69996171734246 414.0 L124.55254079796921 414.0 L123.40511987859591 414.0 L122.25769895922267 414.0 L121.11027803984936 414.0 L119.96285712047606 414.0 L118.81543620110281 414.0 L117.66801528172951 414.0 L116.52059436235626 414.0 L115.37317344298299 414.0 L114.22575252360969 414.0 L113.07833160423644 414.0 L111.93091068486314 414.0 L110.78348976548989 414.0 L109.63606884611659 414.0 L108.48864792674331 414.0 L107.34122700737007 414.0 L106.19380608799676 414.0 L105.04638516862352 414.0 L103.89896424925021 414.0 L102.75154332987691 414.0 L101.60412241050366 414.0 L100.45670149113039 414.0 L99.30928057175714 414.0 L98.16185965238384 414.0 L97.01443873301054 414.0 L95.86701781363723 414.0 L94.71959689426399 414.0 L93.57217597489071 414.0 L92.42475505551747 414.0 L91.27733413614416 414.0 L90.12991321677089 414.0 L88.98249229739761 414.0 L87.83507137802434 414.0 L86.68765045865106 414.0 L85.54022953927779 414.0 L84.39280861990451 414.0 L83.24538770053124 414.0 L82.09796678115794 414.0 L80.95054586178466 414.0 L79.80312494241142 414.0 L78.65570402303814 414.0 L77.50828310366487 414.0 L76.36086218429156 414.0 L75.21344126491829 414.0 L74.06602034554501 414.0 L72.91859942617174 414.0 L71.77117850679849 414.0 L70.62375758742519 414.0 L69.47633666805191 414.0 L68.32891574867864 414.0 L67.18149482930534 414.0 L66.03407390993209 414.0 L64.88665299055882 414.0 L63.73923207118554 414.0 L62.591811151812266 414.0 L61.44439023243896 414.0 L60.29696931306569 414.0 L59.14954839369244 414.0 L58.00212747431917 414.0 L56.85470655494589 414.0 L55.70728563557259 414.0 L54.559864716199314 414.0 L53.41244379682604 414.0 L52.265022877452765 414.0 L51.11760195807949 414.0 L49.970181038706215 414.0 L48.82276011933294 414.0 L47.675339199959666 414.0 L46.52791828058636 414.0 L45.380497361213116 414.0 L44.23307644183984 414.0 L43.08565552246657 414.0 L41.93823460309329 414.0 L40.79081368371999 414.0 L39.643392764346714 414.0 L38.49597184497344 414.0 L37.34855092560019 414.0 L36.20113000622689 414.0 L35.053709086853615 414.0 L33.90628816748034 414.0 L32.758867248107066 414.0 L31.61144632873379 414.0 L30.464025409360517 414.0 L29.316604489987242 414.0 Z" fill="rgb(238,102,102)" stroke-width="1.0" fill-opacity="0.6980392156862745">
          </path>
        </g>
        <g>
          <path d="M29.316604489987242 408.07241697585346 L29.316604489987242 408.07241697585346 L30.464025409360517 407.9434093063429 L31.61144632873379 407.822383977343 L32.758867248107066 407.7092422079057 L33.90628816748034 407.6037582803464 L35.053709086853615 407.5055804374154 L36.20113000622689 407.4142336915927 L37.34855092560019 407.32912447406954 L38.49597184497344 407.24954700800333 L39.643392764346714 407.1746912506389 L40.79081368371999 407.1036522130565 L41.93823460309329 407.0354404357112 L43.08565552246657 406.96899337348657 L44.23307644183984 406.90318742641693 L45.380497361213116 406.83685034206127 L46.52791828058636 406.7687737130088 L47.675339199959666 406.69772529822063 L48.82276011933294 406.62246090966266 L49.970181038706215 406.5417356255406 L51.11760195807949 406.45431411777594 L52.265022877452765 406.3589799133236 L53.41244379682604 406.25454344554504 L54.559864716199314 406.1398487919877 L55.70728563557259 406.0137790373734 L56.85470655494589 405.87526024410056 L58.00212747431917 405.72326405583664 L59.14954839369244 405.5568090015763 L60.29696931306569 405.374960606664 L61.44439023243896 405.1768304526481 L62.591811151812266 404.9615743584623 L63.73923207118554 404.72838988049836 L64.88665299055882 404.47651334797786 L66.03407390993209 404.20521666215745 L67.18149482930534 403.9138040929992 L68.32891574867864 403.601609304881 L69.47633666805191 403.267992833751 L70.62375758742519 402.9123402220653 L71.77117850679849 402.53406099525336 L72.91859942617174 402.1325886348627 L74.06602034554501 401.70738166957085 L75.21344126491829 401.2579259666985 L76.36086218429156 400.78373826456044 L77.50828310366487 400.2843709409061 L78.65570402303814 399.75941796583714 L79.80312494241142 399.2085219400229 L80.95054586178466 398.6313820718771 L82.09796678115794 398.0277629017558 L83.24538770053124 397.39750353834097 L84.39280861990451 396.7405271333542 L85.54022953927779 396.0568502867227 L86.68765045865106 395.3465920464217 L87.83507137802434 394.60998214646713 L88.98249229739761 393.8473681139092 L90.12991321677089 393.0592208720268 L91.27733413614416 392.24613847296087 L92.42475505551747 391.40884760930345 L93.57217597489071 390.5482025810066 L94.71959689426399 389.66518143152575 L95.86701781363723 388.7608790151944 L97.01443873301054 387.8364968160199 L98.16185965238384 386.89332940565043 L99.30928057175714 385.9327475041374 L100.45670149113039 384.95617768993407 L101.60412241050366 383.9650788936518 L102.75154332987691 382.96091590148654 L103.89896424925021 381.94513018669625 L105.04638516862352 380.9191084786643 L106.19380608799676 379.8841495663403 L107.34122700737007 378.84142991358596 L108.48864792674331 377.7919687355409 L109.63606884611659 376.7365932450161 L110.78348976548989 375.67590482377824 L111.93091068486314 374.61024690331675 L113.07833160423644 373.5396753515555 L114.22575252360969 372.4639321547136 L115.37317344298299 371.3824231563151 L116.52059436235626 370.2942005679954 L117.66801528172951 369.197950899582 L118.81543620110281 368.09198886990885 L119.96285712047606 366.97425775650015 L121.11027803984936 365.842336523753 L122.25769895922267 364.6934539381643 L123.40511987859591 363.524509738567 L124.55254079796921 362.332102782662 L125.69996171734246 361.11256594199676 L126.84738263671571 359.8620073697407 L127.99480355608901 358.5763576229057 L129.14222447546226 357.25142198671523 L130.28964539483556 355.8829372270658 L131.4370663142088 354.46663189051895 L132.5844872335821 352.9982891826286 L133.7319081529554 351.47381138677895 L134.87932907232872 349.889284738593 L136.02674999170196 348.24104364629284 L137.17417091107527 346.52573314546635 L138.3215918304485 344.7403684971679 L139.46901274982181 342.88239088031315 L140.61643366919506 340.9497181914703 L141.7638545885683 338.9407900455758 L142.9112755079416 336.85460616758706 L144.05869642731486 334.69075747514 L145.20611734668816 332.4494492732506 L146.35353826606146 330.1315161112511 L147.5009591854347 327.7384279867528 L148.648380104808 325.2722877188508 L149.79580102418126 322.7358194505488 L150.94322194355456 320.1323483762145 L152.09064286292787 317.46577192177534 L153.2380637823011 314.74052273153393 L154.38548470167436 311.9615239344654 L155.5329056210476 309.1341372733856 L156.6803265404209 306.26410478145635 L157.8277474597942 303.3574847812739 L158.9751683791675 300.4205830616478 L160.12258929854076 297.4598801555274 L161.270010217914 294.4819556989367 L162.4174311372873 291.4934108947889 L163.5648520566606 288.50079013667914 L164.71227297603392 285.51050286577424 L165.85969389540716 282.52874673837323 L167.0071148147804 279.5614331721796 L168.1545357341537 276.61411631548793 L169.30195665352696 273.69192644507086 L170.44937757290026 270.7995087453834 L171.5967984922735 267.9409683538018 L172.74421941164675 265.1198224742034 L173.89164033102006 262.33896026472155 L175.03906125039336 259.60061109584217 L176.18648216976666 256.9063216531593 L177.3339030891399 254.25694222673582 L178.48132400851316 251.65262238782512 L179.62874492788646 249.092816106129 L180.77616584725976 246.57629620918914 L181.92358676663306 244.10117793301026 L183.07100768600625 241.66495116252182 L184.21842860537956 239.26452081539801 L185.3658495247528 236.8962546862849 L186.5132704441261 234.556037943963 L187.6606913634994 232.23933336444347 L188.80811228287266 229.9412462913429 L189.95553320224596 227.65659324347257 L191.1029541216192 225.37997304049543 L192.2503750409925 223.10583929199944 L193.3977959603658 220.82857309432686 L194.54521687973912 218.54255480293213 L195.69263779911236 216.2422337954041 L196.8400587184856 213.92219521018134 L197.98747963785885 211.57722273646678 L199.13490055723216 209.2023566392643 L200.28232147660546 206.79294632672742 L201.4297423959787 204.34469690150172 L202.57716331535195 201.8537092796159 L203.72458423472526 199.31651360568273 L204.87200515409856 196.73009583760927 L206.01942607347186 194.09191751371847 L207.1668469928451 191.39992884649104 L208.31426791221836 188.6525754065964 L209.46168883159166 185.84879876586197 L210.6091097509649 182.98803155587805 L211.7565306703382 180.0701874686977 L212.90395158971145 177.09564677658338 L214.0513725090847 174.06523797889898 L215.198793428458 170.98021619666943 L216.3462143478313 167.84223893018697 L217.4936352672046 164.65333977428713 L218.64105618657786 161.41590065175927 L219.78847710595116 158.13262308058154 L220.9358980253244 154.80649893820453 L222.0833189446977 151.44078112889042 L223.230739864071 148.03895450133587 L224.37816078344426 144.60470730605982 L225.5255817028175 141.1419034279727 L226.67300262219075 137.65455558119658 L227.82042354156405 134.146799612111 L228.96784446093736 130.6228700238276 L230.11526538031066 127.08707681117039 L231.2626862996839 123.54378367960811 L232.41010721905715 119.9973877136174 L233.55752813843046 116.45230055836885 L234.70494905780376 112.91293118167675 L235.85236997717706 109.38367028874478 L236.9997908965503 105.86887646817144 L238.14721181592355 102.37286415154915 L239.2946327352968 98.8998934685664 L240.4420536546701 95.45416207286235 L241.5894745740434 92.03979899917073 L242.73689549341665 88.66086058840602 L243.8843164127899 85.32132848363989 L245.0317373321632 82.02510965634195 L246.1791582515365 78.77603836941472 L247.3265791709098 75.57787992286393 L248.47400009028306 72.4343359612127 L249.62142100965636 69.34905105163784 L250.7688419290296 66.32562017110871 L251.9162628484029 63.36759667309968 L253.06368376777615 60.478500243053986 L254.2111046871494 57.66182430044836 L255.3585256065227 54.92104226748205 L256.505946525896 52.25961210326648 L257.6533674452693 49.68097850058632 L258.8007883646426 47.18857216211711 L259.9482092840158 44.78580561556146 L261.0956302033891 42.47606509321298 L262.2430511227624 40.262698090453455 L263.3904720421357 38.148996328349085 L264.537892961509 36.138173975489394 L265.6853138808822 34.23334113030904 L266.8327348002555 32.437472723353096 L267.9801557196288 30.753373164517313 L269.127576639002 29.183637227928443 L270.2749975583753 27.730607831263853 L271.4224184777486 26.396331521031357 L272.5698393971219 25.182512614949246 L273.7172603164952 24.090467071513785 L274.8646812358684 23.12107725021764 L276.0121021552417 22.27474878916445 L277.159523074615 21.551370856739425 L278.3069439939883 20.950281027900303 L279.4543649133616 20.470235992344385 L280.6017858327348 20.109389221097786 L281.7492067521081 19.865276601094763 L282.8966276714814 19.73481089649249 L284.0440485908546 19.714285714285722 L285.1914695102279 19.799389444862527 L286.3388904296012 19.985229421210875 L287.4863113489745 20.266366299676008 L288.6337322683478 20.636858417587405 L289.781153187721 21.090315635883996 L290.9285741070943 21.619961935453034 L292.0759950264676 22.21870581143827 L293.2234159458409 22.87921730711537 L294.3708368652142 23.594010354218824 L295.5182577845874 24.35552894518861 L296.6656787039607 25.156235558993842 L297.813099623334 25.988700199102595 L298.9605205427072 26.845688381758123 L300.1079414620805 27.72024643530341 L301.2553623814538 28.605782536273523 L302.4027833008271 29.49614201291672 L303.5502042202004 30.385675588522417 L304.6976251395736 31.26929941054601 L305.8450460589469 32.14254591189581 L306.9924669783202 33.00160477111359 L308.1398878976935 33.84335347205558 L309.2873088170667 34.665377203633966 L310.43472973644 35.46597807907233 L311.5821506558133 36.24417388485148 L312.72957157518647 36.99968678550238 L313.8769924945598 37.73292260560902 L315.0244134139331 38.44494147973751 L316.1718343333064 39.137420800473876 L317.3192552526797 39.81261150122975 L318.466676172053 40.4732887825196 L319.6140970914262 41.12269842729262 L320.7615180107995 41.764499853703626 L321.9089389301728 42.402707024238225 L323.0563598495461 43.041628271524075 L324.2037807689193 43.685806017522566 L325.35120168829246 44.339957258781965 L326.4986226076659 45.008915571341106 L327.64604352703907 45.69757526041212 L328.7934644464124 46.410838147652385 L329.9408853657857 47.153563358283805 L331.08830628515886 47.930520346564094 L332.2357272045323 48.74634528575223 L333.38314812390547 49.605500851382715 L334.5305690432788 50.51223934735049 L335.6779899626521 51.470569064770814 L336.82541088202527 52.48422372467587 L337.9728318013987 53.55663483718877 L339.1202527207719 54.69090681057122 L340.2676736401452 55.88979466152239 L341.4150945595185 57.15568421040132 L342.56251547889167 58.49057468823696 L343.7099363982651 59.896063732732785 L344.8573573176383 61.373334803775435 L346.0047782370116 62.92314710143762 L347.1521991563849 64.54582811704262 L348.29962007575807 66.24126898735591 L349.4470409951315 68.00892285031193 L350.5944619145047 69.8478064157909 L351.741882833878 71.75650496537469 L352.88930375325117 73.73318097997958 L354.0367246726245 75.77558656423128 L355.1841455919978 77.88107979206814 L356.33156651137097 80.04664504128937 L357.47898743074427 82.26891731767665 L358.6264083501176 84.54421049481255 L359.7738292694909 86.86854931670615 L360.9212501888642 89.23770493014752 L362.06867110823737 91.64723363546369 L363.21609202761067 94.09251847107959 L364.363512946984 96.5688131817326 L365.5109338663573 99.07128806457303 L366.6583547857306 101.59507714355777 L367.80577570510377 104.1353260915593 L368.9531966244772 106.68724030218584 L370.1006175438504 109.24613250929269 L371.2480384632237 111.8074693610858 L372.395459382597 114.36691637641775 L373.5428803019702 116.92038074192635 L374.6903012213436 119.46405144833943 L375.8377221407168 121.99443631051435 L376.9851430600901 124.50839546673728 L378.1325639794634 127.0031710063887 L379.2799848988366 129.47641242966478 L380.42740581821 131.92619769692658 L381.5748267375832 134.35104967735953 L382.7222476569565 136.74994785605463 L383.8696685763298 139.12233520486558 L385.017089495703 141.46812016544118 L386.1645104150763 143.7876737328362 L387.31193133444947 146.08182166566593 L388.4593522538228 148.35183188463031 L389.6067731731961 150.59939715626223 L390.75419409256926 152.82661319395254 L391.9016150119427 155.03595234452996 L393.04903593131587 157.23023306671035 L394.1964568506892 159.41258544817066 L395.3438777700625 161.58641305106903 L396.49129868943567 163.75535142156593 L397.6387196088091 165.92322364682744 L398.7861405281823 168.09399339240582 L399.9335614475556 170.27171590266514 L401.0809823669289 172.46048749562414 L402.22840328630207 174.66439412957263 L403.3758242056755 176.8874596601828 L404.5232451250487 179.13359444164695 L405.670666044422 181.40654495165487 L406.8180869637953 183.70984513586563 L407.96550788316847 186.04677017130808 L409.1129288025419 188.42029333838312 L410.2603497219151 190.8330466668467 L411.4077706412884 193.28728598173433 L412.5551915606617 195.78486092043454 L413.7026124800349 198.32719042258967 L414.8500333994082 200.9152441109368 L415.99745431878137 203.54952988520654 L417.14487523815467 206.2300879445995 L418.29229615752797 208.95649133954205 L419.4397170769013 211.72785303312295 L420.5871379962746 214.54283932975966 L421.73455891564777 217.39968940644707 L422.88197983502107 220.29624056357386 L424.0294007543944 223.22995870093496 L425.1768216737677 226.1979734232663 L426.324242593141 229.1971170910944 L427.47166351251417 232.2239670593802 L428.6190844318875 235.27489029030062 L429.7665053512608 238.346089489063 L430.9139262706341 241.43364989381988 L432.0613471900074 244.53358585294978 L433.20876810938057 247.64188634498706 L434.3561890287539 250.75455863762113 L435.5036099481272 253.8676693411117 L436.6510308675005 256.977382186526 L437.7984517868738 260.0799919481321 L438.945872706247 263.1719540296907 L440.0932936256204 266.2499093434211 L441.2407145449936 269.31070422520844 L442.3881354643669 272.3514052471438 L443.5355563837401 275.36930890569334 L444.68297730311326 278.3619462778489 L445.8303982224867 281.3270828456714 L446.97781914185987 284.2627137892503 L448.12524006123317 287.16705513703994 L449.2726609806065 290.03853123886364 L450.42008189997966 292.8757590892104 L451.5675028193531 295.6775300755809 L452.71492373872627 298.44278975798915 L453.8623446580996 301.1706163010267 L455.0097655774729 303.86019817928434 L456.15718649684607 306.5108117610562 L457.3046074162195 309.121799344991 L458.4520283355927 311.69254818106054 L459.599449254966 314.22247095245507 L460.7468701743393 316.71098813063713 L461.89429109371247 319.1575125438733 L463.0417120130859 321.56143642229694 L464.1891329324591 323.922121102239 L465.3365538518324 326.2388894915596 L466.4839747712057 328.5110213182432 L467.63139569057887 330.73775110887914 L468.7788166099523 332.91826877380214 L469.9262375293255 335.0517226134963 L471.07365844869867 337.1372245079342 L472.22107936807197 339.1738570080544 L473.36850028744516 341.1606820175475 L474.5159212068186 343.09675073397426 L475.66334212619176 344.9811145111797 L476.81076304556507 346.8128363096866 L477.95818396493837 348.59100241758637 L479.10560488431156 350.3147341503903 L480.253025803685 351.9831992729397 L481.40044672305817 353.5956229281635 L482.54786764243147 355.1512979043149 L483.6952885618048 356.64959412221816 L484.84270948117796 358.0899672749087 L485.9901304005514 359.4719666016424 L487.13755131992457 360.79524182452224 L488.2849722392979 362.0595493170052 L489.4323931586712 363.26475760757774 L490.57981407804436 364.41085234755514 L491.7272349974178 365.49794088816907 L492.87465591679097 366.52625661823254 L494.0220768361644 367.4961632094609 L495.1694977555376 368.40815890218033 L496.31691867491077 369.26288094031605 L497.4643395942842 370.0611102322346 L498.6117605136574 370.80377627463474 L499.7591814330307 371.49196233194016 L500.90660235240387 372.1269108154884 L502.05402327177706 372.7100287573666 L503.2014441911505 373.2428932251851 L504.34886511052366 373.72725647861216 L505.4962860298971 374.1650506282016 L506.64370694927027 374.5583915238416 L507.79112786864346 374.9095815757207 L508.9385487880169 375.2211111963758 L510.08596970739006 375.49565854916244 L511.2333906267635 375.73608729694115 L512.3808115461367 375.9454420650618 L513.5282324655099 376.12694136459584 L514.6756533848833 376.2839677645148 L515.8230743042565 376.42005515407976 L516.9704952236299 376.53887299767575 L518.1179161430031 376.64420755197443 L519.2653370623763 376.73994008771206 L520.4127579817497 376.83002223341174 L521.5601789011229 376.9184486338773 L522.7075998204963 377.0092271900279 L523.8550207398695 377.10634721648495 L525.0024416592427 377.2137459172375 L526.1498625786161 377.33527363586046 L527.2972834979893 377.474658383545 L528.4447044173626 377.63547018429097 L529.5921253367358 377.8210858010092 L530.7395462561092 378.0346544182989 L531.8869671754824 378.2790648569684 L533.0343880948556 378.556914881965 L534.181809014229 378.8704831395913 L535.3292299336022 379.221704222365 L536.4766508529756 379.6121473115412 L537.6240717723488 380.04299878932494 L538.771492691722 380.5150491465547 L539.9189136110954 381.028684438653 L541.0663345304686 381.58388246461175 L542.213755449842 382.18021376245 L543.3611763692152 382.81684743172514 L544.5085972885884 383.49256171109994 L545.6560182079618 384.2057591583803 L546.803439127335 384.95448620350936 L547.9508600467084 385.7364567732676 L549.0982809660816 386.5490796212729 L550.2457018854548 387.3894889395321 L551.3931228048282 388.25457777927886 L552.5405437242014 389.141033769974 L553.6879646435747 390.0453765967373 L554.835385562948 390.96399667847186 L555.9828064823212 391.8931944816994 L557.1302274016945 392.8292199085025 L558.2776483210677 393.7683112106765 L559.4250692404411 394.7067329056614 L560.5724901598143 395.6408122023113 L561.7199110791875 396.5669734851502 L562.8673319985609 397.4817704533516 L564.0147529179341 398.38191556407475 L565.1621738373075 399.2643064876623 L566.3095947566807 400.1260493431705 L567.4570156760539 400.96447854537223 L568.6044365954273 401.7771731573029 L569.7518575148005 402.561969704275 L570.8992784341739 403.31697146474727 L572.0466993535471 404.0405543093177 L573.1941202729203 404.7313692103662 L574.3415411922937 405.3883415905885 L575.4889621116669 406.0106677181384 L576.6363830310403 406.5978083887942 L577.7838039504135 407.1494801611608 L578.9312248697867 407.66564442931025 L580.0786457891601 408.146494628503 L581.2260667085333 408.5924418740144 L582.3734876279066 409.0040993310415 L583.5209085472799 409.3822656057754 L584.6683294666531 409.7279074347304 L585.8157503860264 410.0421419321103 L586.9631713053996 410.32621863426914 L588.110592224773 410.5815015570908 L589.2580131441462 410.80945145727935 L590.4054340635194 411.0116084630189 L591.5528549828928 411.18957521403973 L592.700275902266 411.3450006265687 L593.8476968216394 411.4795643755856 L594.9951177410126 411.5949621657651 L596.1425386603858 411.69289184385576 L597.2899595797592 411.77504038927293 L598.4373804991324 411.8430718064895 L599.5848014185058 411.8986159323763 L600.732222337879 411.94325816384116 L601.8796432572524 411.97853010570884 L603.0270641766256 412.0059011354434 L604.1744850959988 412.02677087965606 L605.3219060153722 412.0424625969292 L606.4693269347454 412.05421746187113 L607.6167478541188 412.0631897460459 L608.764168773492 412.07044289207425 L609.9115896928652 412.07694647739316 L611.0590106122385 412.0835740635709 L612.2064315316117 412.0911019254571 L613.3538524509851 412.1002086516301 L614.5012733703583 412.11147560351384 L615.6486942897315 412.1253882151749 " fill="none" stroke-width="1.6500000000000001" stroke="rgb(0,0,0)" stroke-opacity="1.0">
          </path>
        </g>
      </g>
    </g>
    <g transform="translate(14.5 217.0 ) rotate(-90.0 ) ">
      <text class="axis-title-y" y="0.0" text-anchor="middle">
      scaled
      </text>
    </g>
    <g transform="translate(372.51735061014074 461.5 ) ">
      <text class="axis-title-x" y="0.0" text-anchor="middle">
      depth
      </text>
    </g>
    <path fill="rgb(0,0,0)" fill-opacity="0.0" stroke="rgb(187,187,187)" stroke-opacity="1.0" stroke-width="0.0" d="M0.0 0.0 L0.0 470.0 L705.0 470.0 L705.0 0.0 Z">
    </path>
  </g>
  <g id="xXxprefixXx2">
  </g>
</svg>