<svg xmlns="http://www.w3.org/2000/svg" xmlns:xlink="http://www.w3.org/1999/xlink" class="plt-container" width="705.0" height="470.0">
  <style type="text/css">
  .plt-container {
   font-family: Lucida Grande, sans-serif;
   user-select: none;
   -webkit-user-select: none;
   -moz-user-select: none;
   -ms-user-select: none;
}
text {
   text-rendering: optimizeLegibility;
}
#xXxprefixXx0 .plot-title {
   fill: #bbbbbb;
   font-family: Lucida Grande, sans-serif;
   font-size: 16.0px;
   font-weight: normal;
   font-style: normal;   
}
#xXxprefixXx0 .plot-subtitle {
   fill: #bbbbbb;
   font-family: Lucida Grande, sans-serif;
   font-size: 15.0px;
   font-weight: normal;
   font-style: normal;   
}
#xXxprefixXx0 .plot-caption {
   fill: #bbbbbb;
   font-family: Lucida Grande, sans-serif;
   font-size: 13.0px;
   font-weight: normal;
   font-style: normal;   
}
#xXxprefixXx0 .legend-title {
   fill: #bbbbbb;
   font-family: Lucida Grande, sans-serif;
   font-size: 15.0px;
   font-weight: normal;
   font-style: normal;   
}
#xXxprefixXx0 .legend-item {
   fill: #bbbbbb;
   font-family: Lucida Grande, sans-serif;
   font-size: 13.0px;
   font-weight: normal;
   font-style: normal;   
}
#xXxprefixXx0 .axis-title-x {
   fill: #bbbbbb;
   font-family: Lucida Grande, sans-serif;
   font-size: 15.0px;
   font-weight: normal;
   font-style: normal;   
}
#xXxprefixXx0 .axis-text-x {
   fill: #bbbbbb;
   font-family: Lucida Grande, sans-serif;
   font-size: 13.0px;
   font-weight: normal;
   font-style: normal;   
}
#xXxprefixXx2 .axis-tooltip-text-x {
   fill: #303030;
   font-family: Lucida Grande, sans-serif;
   font-size: 13.0px;
   font-weight: normal;
   font-style: normal;   
}
#xXxprefixXx0 .axis-title-y {
   fill: #bbbbbb;
   font-family: Lucida Grande, sans-serif;
   font-size: 15.0px;
   font-weight: normal;
   font-style: normal;   
}
#xXxprefixXx0 .axis-text-y {
   fill: #bbbbbb;
   font-family: Lucida Grande, sans-serif;
   font-size: 13.0px;
   font-weight: normal;
   font-style: normal;   
}
#xXxprefixXx2 .axis-tooltip-text-y {
   fill: #303030;
   font-family: Lucida Grande, sans-serif;
   font-size: 13.0px;
   font-weight: normal;
   font-style: normal;   
}
#xXxprefixXx0 .facet-strip-text-x {
   fill: #bbbbbb;
   font-family: Lucida Grande, sans-serif;
   font-size: 13.0px;
   font-weight: normal;
   font-style: normal;   
}
#xXxprefixXx0 .facet-strip-text-y {
   fill: #bbbbbb;
   font-family: Lucida Grande, sans-serif;
   font-size: 13.0px;
   font-weight: normal;
   font-style: normal;   
}
#xXxprefixXx2 .tooltip-text {
   fill: #bbbbbb;
   font-family: Lucida Grande, sans-serif;
   font-size: 13.0px;
   font-weight: normal;
   font-style: normal;   
}
#xXxprefixXx2 .tooltip-title {
   fill: #bbbbbb;
   font-family: Lucida Grande, sans-serif;
   font-size: 13.0px;
   font-weight: bold;
   font-style: normal;   
}
#xXxprefixXx2 .tooltip-label {
   fill: #bbbbbb;
   font-family: Lucida Grande, sans-serif;
   font-size: 13.0px;
   font-weight: bold;
   font-style: normal;   
}

  </style>
  <g id="xXxprefixXx0">
    <path fill-rule="evenodd" fill="rgb(25,25,28)" fill-opacity="1.0" d="M0.0 0.0 L0.0 470.0 L705.0 470.0 L705.0 0.0 Z">
    </path>
    <g transform="translate(23.0 10.0 ) ">
      <g transform="translate(50.97651758668602 414.0 ) ">
        <line x1="30.905784938963734" y1="-0.0" x2="30.905784938963734" y2="-414.0" stroke="rgb(71,71,71)" stroke-opacity="1.0" stroke-width="1.0">
        </line>
        <line x1="125.42807929603885" y1="-0.0" x2="125.42807929603885" y2="-414.0" stroke="rgb(71,71,71)" stroke-opacity="1.0" stroke-width="1.0">
        </line>
        <line x1="219.95037365311396" y1="-0.0" x2="219.95037365311396" y2="-414.0" stroke="rgb(71,71,71)" stroke-opacity="1.0" stroke-width="1.0">
        </line>
        <line x1="314.47266801018907" y1="-0.0" x2="314.47266801018907" y2="-414.0" stroke="rgb(71,71,71)" stroke-opacity="1.0" stroke-width="1.0">
        </line>
        <line x1="408.9949623672642" y1="-0.0" x2="408.9949623672642" y2="-414.0" stroke="rgb(71,71,71)" stroke-opacity="1.0" stroke-width="1.0">
        </line>
        <line x1="503.5172567243393" y1="-0.0" x2="503.5172567243393" y2="-414.0" stroke="rgb(71,71,71)" stroke-opacity="1.0" stroke-width="1.0">
        </line>
        <line x1="598.0395510814144" y1="-0.0" x2="598.0395510814144" y2="-414.0" stroke="rgb(71,71,71)" stroke-opacity="1.0" stroke-width="1.0">
        </line>
        <g transform="translate(30.905784938963734 0.0 ) ">
          <line stroke-width="1.0" stroke="rgb(187,187,187)" stroke-opacity="1.0" x2="0.0" y2="4.0">
          </line>
          <g transform="translate(0.0 7.0 ) ">
            <text class="axis-text-x" text-anchor="middle" dy="0.7em">
            200
            </text>
          </g>
        </g>
        <g transform="translate(125.42807929603885 0.0 ) ">
          <line stroke-width="1.0" stroke="rgb(187,187,187)" stroke-opacity="1.0" x2="0.0" y2="4.0">
          </line>
          <g transform="translate(0.0 7.0 ) ">
            <text class="axis-text-x" text-anchor="middle" dy="0.7em">
            300
            </text>
          </g>
        </g>
        <g transform="translate(219.95037365311396 0.0 ) ">
          <line stroke-width="1.0" stroke="rgb(187,187,187)" stroke-opacity="1.0" x2="0.0" y2="4.0">
          </line>
          <g transform="translate(0.0 7.0 ) ">
            <text class="axis-text-x" text-anchor="middle" dy="0.7em">
            400
            </text>
          </g>
        </g>
        <g transform="translate(314.47266801018907 0.0 ) ">
          <line stroke-width="1.0" stroke="rgb(187,187,187)" stroke-opacity="1.0" x2="0.0" y2="4.0">
          </line>
          <g transform="translate(0.0 7.0 ) ">
            <text class="axis-text-x" text-anchor="middle" dy="0.7em">
            500
            </text>
          </g>
        </g>
        <g transform="translate(408.9949623672642 0.0 ) ">
          <line stroke-width="1.0" stroke="rgb(187,187,187)" stroke-opacity="1.0" x2="0.0" y2="4.0">
          </line>
          <g transform="translate(0.0 7.0 ) ">
            <text class="axis-text-x" text-anchor="middle" dy="0.7em">
            600
            </text>
          </g>
        </g>
        <g transform="translate(503.5172567243393 0.0 ) ">
          <line stroke-width="1.0" stroke="rgb(187,187,187)" stroke-opacity="1.0" x2="0.0" y2="4.0">
          </line>
          <g transform="translate(0.0 7.0 ) ">
            <text class="axis-text-x" text-anchor="middle" dy="0.7em">
            700
            </text>
          </g>
        </g>
        <g transform="translate(598.0395510814144 0.0 ) ">
          <line stroke-width="1.0" stroke="rgb(187,187,187)" stroke-opacity="1.0" x2="0.0" y2="4.0">
          </line>
          <g transform="translate(0.0 7.0 ) ">
            <text class="axis-text-x" text-anchor="middle" dy="0.7em">
            800
            </text>
          </g>
        </g>
        <line x1="0.0" y1="0.0" x2="621.023482413314" y2="0.0" stroke-width="1.0" stroke="rgb(187,187,187)" stroke-opacity="1.0">
        </line>
      </g>
      <g transform="translate(50.97651758668602 0.0 ) ">
        <line x1="0.0" y1="362.02562935015663" x2="621.023482413314" y2="362.02562935015663" stroke="rgb(71,71,71)" stroke-opacity="1.0" stroke-width="1.0">
        </line>
        <line x1="0.0" y1="310.0512587003133" x2="621.023482413314" y2="310.0512587003133" stroke="rgb(71,71,71)" stroke-opacity="1.0" stroke-width="1.0">
        </line>
        <line x1="0.0" y1="258.07688805046996" x2="621.023482413314" y2="258.07688805046996" stroke="rgb(71,71,71)" stroke-opacity="1.0" stroke-width="1.0">
        </line>
        <line x1="0.0" y1="206.10251740062662" x2="621.023482413314" y2="206.10251740062662" stroke="rgb(71,71,71)" stroke-opacity="1.0" stroke-width="1.0">
        </line>
        <line x1="0.0" y1="154.1281467507833" x2="621.023482413314" y2="154.1281467507833" stroke="rgb(71,71,71)" stroke-opacity="1.0" stroke-width="1.0">
        </line>
        <line x1="0.0" y1="102.15377610093992" x2="621.023482413314" y2="102.15377610093992" stroke="rgb(71,71,71)" stroke-opacity="1.0" stroke-width="1.0">
        </line>
        <line x1="0.0" y1="50.17940545109656" x2="621.023482413314" y2="50.17940545109656" stroke="rgb(71,71,71)" stroke-opacity="1.0" stroke-width="1.0">
        </line>
        <g transform="translate(0.0 414.0 ) ">
          <g transform="translate(-3.0 0.0 ) ">
            <text class="axis-text-y" text-anchor="end" dy="0.35em">
            0.0000
            </text>
          </g>
        </g>
        <g transform="translate(0.0 362.02562935015663 ) ">
          <g transform="translate(-3.0 0.0 ) ">
            <text class="axis-text-y" text-anchor="end" dy="0.35em">
            0.0005
            </text>
          </g>
        </g>
        <g transform="translate(0.0 310.0512587003133 ) ">
          <g transform="translate(-3.0 0.0 ) ">
            <text class="axis-text-y" text-anchor="end" dy="0.35em">
            0.0010
            </text>
          </g>
        </g>
        <g transform="translate(0.0 258.07688805046996 ) ">
          <g transform="translate(-3.0 0.0 ) ">
            <text class="axis-text-y" text-anchor="end" dy="0.35em">
            0.0015
            </text>
          </g>
        </g>
        <g transform="translate(0.0 206.10251740062662 ) ">
          <g transform="translate(-3.0 0.0 ) ">
            <text class="axis-text-y" text-anchor="end" dy="0.35em">
            0.0020
            </text>
          </g>
        </g>
        <g transform="translate(0.0 154.1281467507833 ) ">
          <g transform="translate(-3.0 0.0 ) ">
            <text class="axis-text-y" text-anchor="end" dy="0.35em">
            0.0025
            </text>
          </g>
        </g>
        <g transform="translate(0.0 102.15377610093992 ) ">
          <g transform="translate(-3.0 0.0 ) ">
            <text class="axis-text-y" text-anchor="end" dy="0.35em">
            0.0030
            </text>
          </g>
        </g>
        <g transform="translate(0.0 50.17940545109656 ) ">
          <g transform="translate(-3.0 0.0 ) ">
            <text class="axis-text-y" text-anchor="end" dy="0.35em">
            0.0035
            </text>
          </g>
        </g>
      </g>
      <g transform="translate(50.97651758668602 0.0 ) " clip-path="url(#xXxprefixXx1)" clip-bounds-jfx="[rect (0.0, 0.0), (621.023482413314, 414.0)]">
        <defs>
          <clipPath id="xXxprefixXx1">
            <rect x="0.0" y="0.0" width="621.023482413314" height="414.0">
            </rect>
          </clipPath>
        </defs>
        <g>
          <path d="M28.22834010969609 409.8814305202603 L28.22834010969609 409.8814305202603 L29.33316751124974 409.84739035060306 L30.43799491280342 409.83992965660656 L31.542822314357068 409.8549961219454 L32.647649715910745 409.88729912137956 L33.752477117464394 409.9305142207439 L34.85730451901807 409.97754668184984 L35.96213192057175 410.0208389896047 L37.0669593221254 410.05270407675846 L38.17178672367908 410.06566372435714 L39.276614125232726 410.0527707084856 L40.3814415267864 410.00789370839715 L41.48626892834005 409.92594577261355 L42.5910963298937 409.8030401754296 L43.69592373144738 409.636561646702 L44.80075113300103 409.42514603450013 L45.90557853455468 409.16856723187067 L47.010405936108356 408.86753639387393 L48.11523333766203 408.5234247779505 L49.22006073921571 408.1379276105107 L50.32488814076936 407.7126918340386 L51.42971554232304 407.2489350201336 L52.53454294387669 406.74708574266015 L53.639370345430336 406.2064769178855 L54.744197746984014 405.62512272608785 L55.84902514853766 404.99960652745256 L56.95385255009131 404.3251016149461 L58.05867995164499 403.59553882828294 L59.16350735319867 402.8039253079601 L60.26833475475232 401.94280752619096 L61.373162156305995 401.00485991456776 L62.47798955785967 399.98356879320596 L63.58281695941332 398.87397086389433 L64.68764436096697 397.6733972458617 L65.79247176252065 396.3821688142934 L66.8972991640743 395.0041871800676 L68.00212656562795 393.54736848822205 L69.10695396718162 392.02387443409134 L70.2117813687353 390.4501062322434 L71.31660877028895 388.84644205685197 L72.4214361718426 387.23671566723743 L73.52626357339628 385.6474522095485 L74.63109097494996 384.10689503512987 L75.7359183765036 382.64387325021187 L76.84074577805728 381.28657218135413 L77.94557317961093 380.06127685061665 L79.05040058116461 378.99116115256686 L80.15522798271826 378.09519245800203 L81.26005538427194 377.38721311933926 L82.36488278582559 376.87524761823147 L83.46971018737923 376.56106810956516 L84.57453758893291 376.44003341083385 L85.67936499048656 376.50119872577443 L86.78419239204024 376.7276771841475 L87.88901979359392 377.0972209986531 L88.9938471951476 377.5829806735791 L90.09867459670127 378.15439575039113 L91.2035019982549 378.7781700194045 L92.30832939980857 379.4192874389109 L93.41315680136219 380.0420312434853 L94.51798420291587 380.6109766718482 L95.62281160446955 381.09193606936304 L96.72763900602322 381.4528425539074 L97.83246640757685 381.6645639402609 L98.93729380913055 381.7016415260506 L100.04212121068423 381.54294843149495 L101.14694861223785 381.1722597149471 L102.25177601379153 380.57872216220505 L103.3566034153452 379.7572065308531 L104.46143081689888 378.70852039898614 L105.5662582184525 377.43945694220287 L106.67108562000618 375.9626551234673 L107.7759130215598 374.2962507866064 L108.88074042311348 372.463306385348 L109.98556782466716 370.4910193756913 L111.09039522622083 368.4097248651939 L112.19522262777451 366.2517255990263 L113.30005002932813 364.0499999716157 L114.40487743088181 361.8368544234074 L115.50970483243543 359.64259822702365 L116.61453223398911 357.4943244341048 L117.71935963554279 355.4148792845307 L118.82418703709646 353.42209302509013 L119.92901443865014 351.5283280530619 L121.03384184020382 349.74037670552275 L122.1386692417575 348.05971281582106 L123.24349664331112 346.48307098457394 L124.3483240448648 345.00329839665613 L125.45315144641847 343.61039905773487 L126.55797884797215 342.2926723276756 L127.66280624952577 341.0378387570421 L128.76763365107945 339.83404773022687 L129.87246105263313 338.67067343042294 L130.97728845418675 337.53882716762786 L132.08211585574043 336.4315430940689 L133.1869432572941 335.3436278751139 L134.29177065884778 334.27119957102144 L135.3965980604014 333.2109732603836 L136.50142546195508 332.1593775018234 L137.6062528635087 331.11160390703316 L138.71108026506238 330.0607001078517 L139.81590766661606 328.99681353977445 L140.92073506816973 327.9066801521436 L142.0255624697234 326.77342985048074 L143.13038987127703 325.5767514891578 L144.2352172728307 324.2934274523784 L145.3400446743844 322.898214440409 L146.44487207593806 321.3650161079532 L147.54969947749174 319.6682674198163 L148.65452687904542 317.78443214137627 L149.7593542805991 315.69350516034274 L150.86418168215272 313.3804109014861 L151.9690090837064 310.8361976749937 L153.07383648526002 308.05894435818294 L154.1786638868137 305.0543186815964 L155.28349128836737 301.8357534386249 L156.38831868992105 298.42423575094705 L157.49314609147473 294.84773261344515 L158.59797349302835 291.1403009499271 L159.70280089458197 287.3409502857923 L160.80762829613565 283.4923393150037 L161.91245569768932 279.63939314746403 L163.017283099243 275.82792561216917 L164.12211050079668 272.1033411426755 L165.2269379023503 268.50947467784476 L166.33176530390398 265.0876074840296 L167.4365927054576 261.87567411390796 L168.54142010701128 258.90765337051323 L169.64624750856495 256.21311663209997 L170.75107491011863 253.81689241167857 L171.8559023116723 251.73879822274782 L172.960729713226 249.99339059161863 L174.06555711477966 248.5896914028738 L175.17038451633329 247.53086278097527 L176.27521191788696 246.81382166146446 L177.38003931944064 246.4288067145624 L178.48486672099432 246.35893161606143 L179.589694122548 246.57977704914123 L180.69452152410162 247.0590868123688 L181.79934892565524 247.75663916936077 L182.90417632720892 248.62436211940562 L184.0090037287626 249.60675057988686 L185.11383113031627 250.6416254975007 L186.21865853186995 251.66125142386804 L187.32348593342357 252.5938024749705 L188.42831333497725 253.36513950434014 L189.53314073653087 253.90083637765946 L190.63796813808455 254.1283727141803 L191.74279553963822 253.97939604312316 L192.8476229411919 253.39194896384296 L193.95245034274558 252.31255678415496 L195.0572777442992 250.6980777346922 L196.16210514585288 248.51723017289783 L197.26693254740655 245.7517278201525 L198.37175994896023 242.3969735262548 L199.4765873505139 238.4622829092156 L200.5814147520676 233.97063026845342 L201.68624215362127 228.9579294855571 L202.7910695551749 223.47188154879277 L203.89589695672856 217.57043741420458 L205.00072435828218 211.31993981180813 L206.10555175983586 204.79302000521307 L207.21037916138954 198.0663350540504 L208.31520656294322 191.21823737614886 L209.4200339644969 184.3264708836005 L210.52486136605052 177.46598623179514 L211.62968876760414 170.7069614736722 L212.7345161691578 164.1131036089622 L213.8393435707115 157.7402914631154 L214.94417097226517 151.63560171998523 L216.04899837381885 145.8367388450274 L217.15382577537247 140.37186745827427 L218.25865317692615 135.259824016361 L219.36348057847977 130.51066502912778 L220.46830798003344 126.1264929098644 L221.57313538158712 122.10248908129466 L222.6779627831408 118.42807786171329 L223.78279018469448 115.088144193755 L224.88761758624815 112.06423322925292 L225.99244498780183 109.33566948966842 L227.09727238935545 106.88054677218202 L228.20209979090913 104.67655590806703 L229.3069271924628 102.7016345081226 L230.4117545940165 100.93443952808104 L231.51658199557016 99.35465850461696 L232.62140939712378 97.94318745771596 L233.72623679867746 96.68221177072587 L234.83106420023108 95.55523019260141 L235.93589160178476 94.54706117008084 L237.04071900333844 93.64386513597037 L238.14554640489212 92.83320671780308 L239.2503738064458 92.10416808623108 L240.35520120799941 91.44751021294718 L241.46002860955304 90.85586431144611 L242.5648560111067 90.32392297331614 L243.6696834126604 89.8485912032591 L244.77451081421407 89.42905313199424 L245.87933821576775 89.06671159852465 L246.98416561732137 88.76496534792784 L248.08899301887504 88.52880185917246 L249.19382042042872 88.36420163864261 L250.2986478219824 88.27737039835517 L251.40347522353608 88.27383665642157 L252.50830262508975 88.35747154825918 L253.61313002664343 88.52950273356521 L254.71795742819705 88.78760333567078 L255.82278482975073 89.12513859217933 L256.92761223130435 89.53064683709658 L258.03243963285803 89.98761790217839 L259.1372670344117 90.47461210866732 L260.2420944359654 90.96573842984611 L261.34692183751906 91.43148326512932 L262.4517492390727 91.83985388810754 L263.55657664062636 92.15777528238311 L264.66140404218 92.35265779333628 L265.76623144373366 92.39403745221733 L266.87105884528734 92.25518214886927 L267.975886246841 91.9145557006633 L269.0807136483947 91.35703842380121 L270.1855410499483 90.57481668856184 L271.290368451502 89.56787428757923 L272.3951958530556 88.34404398781953 L273.5000232546093 86.91860671430788 L274.60485065616297 85.31345646020918 L275.70967805771664 83.55587905904918 L276.8145054592703 81.6770201427235 L277.919332860824 79.71013979198773 L279.0241602623777 77.68876670230202 L280.1289876639313 75.64487176261491 L281.233815065485 73.60717906558506 L282.33864246703865 71.59972160482573 L283.4434698685923 69.6407301614239 L284.54829727014595 67.74191879631849 L285.65312467169963 65.90820121250931 L286.7579520732533 64.13784165963642 L287.8627794748069 62.42301471514992 L288.9676068763606 60.750722634907675 L290.0724342779143 59.10399893889968 L291.1772616794679 57.46331367539619 L292.2820890810216 55.80808975969529 L293.38691648257526 54.11824049108992 L294.4917438841289 52.37564474305918 L295.59657128568256 50.565486903438796 L296.70139868723624 48.677401766663195 L297.8062260887899 46.70637871265569 L298.91105349034353 44.65339343191903 L300.0158808918972 42.525748404282695 L301.1207082934509 40.337115006180795 L302.22553569500457 38.10728059109272 L303.33036309655824 35.8616134762276 L304.4351904981119 33.63026783590283 L305.54001789966554 31.447159273031673 L306.6448453012192 29.348750275670795 L307.7496727027729 27.37269251587503 L308.8545001043266 25.55637939802267 L309.9593275058802 23.93546666072052 L311.0641549074339 22.542420472487493 L312.16898230898755 21.405150867283567 L313.2738097105412 20.54578347091274 L314.37863711209485 19.979614686159437 L315.4834645136485 19.714285714285722 L316.5882919152022 19.749200219411478 L317.6931193167558 20.075200451156718 L318.7979467183095 20.674508460725747 L319.9027741198632 21.520933514412263 L321.0076015214168 22.580344160782772 L322.1124289229705 23.811403167869855 L323.21725632452416 25.166564554299953 L324.3220837260778 26.593332516963187 L325.42691112763146 28.035780304139337 L326.53173852918513 29.43632123471707 L327.6365659307388 30.737712885770975 L328.74139333229243 31.885258586436294 L329.8462207338462 32.82914846812696 L330.9510481353998 33.526857263892 L332.05587553695347 33.94549065808701 L333.16070293850714 34.06394978671551 L334.2655303400608 33.87476824344594 L335.3703577416145 33.38547113018217 L336.47518514316806 32.619313955045186 L337.58001254472185 31.615281897791476 L338.6848399462754 30.427266921338514 L339.7896673478291 29.12238950090091 L340.8944947493828 27.778489873955436 L341.99932215093645 26.480875916670016 L343.1041495524901 25.31847546871529 L344.2089769540437 24.37959440523008 L345.3138043555975 23.74752266689717 L346.41863175715105 23.49625449083129 L347.5234591587047 23.686593398658943 L348.6282865602584 24.36289603949467 L349.7331139618121 25.55067259544012 L350.83794136336576 27.255207786058293 L351.9427687649194 29.461299749152317 L353.0475961664731 32.13413955344083 L354.15242356802673 35.22127776540566 L355.25725096958035 38.65555237680661 L356.3620783711341 42.358790072793624 L357.4669057726877 46.24604492462208 L358.57173317424144 50.23010846307494 L359.67656057579495 54.22601451898885 L360.7813879773488 58.15527134880159 L361.8862153789023 61.949580939146415 L362.99104278045604 65.55384813516736 L364.09587018200966 68.92833638139166 L365.2006975835633 72.04988770198031 L366.305524985117 74.91218710142601 L367.41035238667064 77.52511103333944 L368.5151797882245 79.91325174946263 L369.620007189778 82.11375092176013 L370.7248345913317 84.1736048141658 L371.82966199288535 86.14661863135944 L372.93448939443897 88.09018990478489 L374.0393167959927 90.06209140312455 L375.1441441975463 92.11740542781246 L376.24897159909995 94.30573633869619 L377.3537990006537 96.66879977237738 L378.4586264022073 99.23845810577546 L379.56345380376104 102.03524465162002 L380.66828120531454 105.06739555502435 L381.7731086068684 108.33038932847143 L382.8779360084219 111.80697959420957 L383.98276340997563 115.46769641578118 L385.08759081152925 119.27178462372285 L386.192418213083 123.16854253088906 L387.2972456146366 127.0990201001461 L388.40207301619023 130.99803084452395 L389.50690041774396 134.79642571173696 L390.6117278192976 138.42356957945958 L391.7165552208512 141.80995190399688 L392.82138262240494 144.88985313681326 L393.9262100239587 147.60397876586768 L395.0310374255123 149.90196454813156 L396.1358648270659 151.74465110237617 L397.24069222861965 153.10602491462726 L398.34551963017327 153.9747271513462 L399.4503470317269 154.35504229108034 L400.5551744332806 154.26729579369862 L401.66000183483425 153.74761356484333 L402.764829236388 152.8470249584837 L403.8696566379415 151.62992400835083 L404.97448403949534 150.1719384848513 L406.07931144104884 148.55729085130366 L407.1841388426026 146.8757666622633 L408.2889662441562 145.21943185826552 L409.39379364570993 143.67925848578875 L410.49862104726355 142.34182682891952 L411.6034484488172 141.2862696962162 L412.7082758503709 140.58161141408675 L413.81310325192453 140.2846305863037 L414.91793065347815 140.4383434125947 L416.0227580550319 141.07116560535047 L417.1275854565855 142.19676856287987 L418.23241285813924 143.81460263309708 L419.33724025969286 145.91102025359186 L420.4420676612466 148.46089745360712 L421.5468950628002 151.42962611187966 L422.65172246435384 154.7753332286734 L423.7565498659076 158.4511781929344 L424.8613772674611 162.40758461826374 L425.9662046690149 166.59427894378646 L427.07103207056844 170.96203206614862 L428.1758594721223 175.46403062995745 L429.2806868736758 180.05683872273542 L430.3855142752295 184.70094589672402 L431.49034167678315 189.3609310056403 L432.59516907833677 194.0053008412067 L433.6999964798905 198.6060858784513 L434.8048238814441 203.13829095727175 L435.90965128299774 207.57930536349784 L437.0144786845515 211.9083740660327 L438.1193060861051 216.10622001457824 L439.22413348765883 220.154887273282 L440.32896088921234 224.03784788500798 L441.4337882907662 227.74038385763504 L442.5386156923197 231.25022216669905 L443.64344309387343 234.55836814613423 L444.74827049542716 237.66005417934585 L445.8530978969808 240.55569914700612 L446.9579252985345 243.25176213014726 L448.062752700088 245.761373159842 L449.1675801016419 248.10463510198392 L450.2724075031954 250.3085136473015 L451.3772349047491 252.4062651885167 L452.48206230630274 254.43639229989054 L453.58688970785647 256.4411598527551 L454.6917171094101 258.46474719783754 L455.7965445109637 260.55114890155045 L456.90137191251745 262.74196420696774 L458.00619931407107 265.0742305403145 L459.1110267156247 267.57845711289224 L460.2158541171784 270.27700062388146 L461.32068151873204 273.18289751660086 L462.4255089202858 276.2992289478706 L463.5303363218393 279.6190495668885 L464.63516372339313 283.12586408325024 L465.73999112494664 286.7945913473917 L466.8448185265004 290.5929188062487 L467.949645928054 294.4829243615368 L469.05447332960773 298.42283015910897 L470.15930073116135 302.36875442316216 L471.264128132715 306.27634225414965 L472.3689555342688 310.1021820058595 L473.4737829358223 313.8049469770816 L474.57861033737606 317.3462385410455 L475.6834377389297 320.6911421682844 L476.7882651404833 323.80853810504175 L477.89309254203704 326.67123058457764 L478.99791994359066 329.2559713471144 L480.1027473451444 331.54345421691824 L481.207574746698 333.51834814795245 L482.31240214825164 335.1694182900937 L483.41722954980537 336.48976092007365 L484.5220569513589 337.4771517147269 L485.6268843529127 338.13448111834674 L486.73171175446623 338.4702284947056 L487.83653915601997 338.49891078471023 L488.9413665575736 338.2414331211984 L490.0461939591273 337.725268966317 L491.15102136068094 336.98440560072845 L492.25584876223456 336.0590061654948 L493.3606761637883 334.9947602675778 L494.4655035653419 333.84191933438944 L495.57033096689554 332.6540381943232 L496.6751583684493 331.4864685615698 L497.779985770003 330.39467122448764 L498.88481317155663 329.43243013490445 L499.98964057311025 328.65006206055045 L501.094467974664 328.09271926020176 L502.1992953762176 327.7988795258556 L503.3041227777712 327.79910814249376 L504.40895017932496 328.11516053087985 L505.5137775808786 328.7594736612284 L506.6186049824323 329.7350702076467 L507.7234323839858 331.0358735803252 L508.8282597855397 332.64740631768245 L509.9330871870932 334.5478207733837 L511.0379145886469 336.7091914064554 L512.1427419902005 339.0989838111167 L513.2475693917543 341.6816080079871 L514.3523967933079 344.41996300196683 L515.4572241948616 347.2768860995018 L516.5620515964151 350.21643322522937 L517.6668789979689 353.20493415414984 L518.7717063995225 356.2117873963238 L519.8765338010762 359.20998139241976 L520.9813612026298 362.1763496247103 L522.0861886041836 365.09158534766317 L523.1910160057372 367.94005543589583 L524.2958434072908 370.7094614420713 L525.4006708088446 373.390399103828 L526.5054982103982 375.9758656219668 L527.6103256119519 378.46075797890757 L528.7151530135055 380.8413966862643 L529.8199804150593 383.1150991332903 L530.9248078166128 385.2798166113311 L532.0296352181665 387.33384034530366 L533.1344626197201 389.27557533184097 L534.2392900212739 391.1033768724878 L535.3441174228275 392.81544334441566 L536.4489448243812 394.4097595126072 L537.5537722259348 395.8840868077647 L538.6585996274885 397.23599957980707 L539.7634270290421 398.4629685034797 L540.8682544305958 399.56249332522066 L541.9730818321494 400.5322865196284 L543.0779092337032 401.37050700709784 L544.1827366352568 402.07603903708815 L545.2875640368105 402.64880612242865 L546.392391438364 403.09010419706726 L547.4972188399178 403.40293276242943 L548.6020462414715 403.59229849927385 L549.7068736430251 403.66546337467264 L550.8117010445789 403.63210920905937 L551.9165284461325 403.50439328159706 L553.0213558476861 403.2968748558464 L554.1261832492397 403.02630022483004 L555.2310106507935 402.7112434615823 L556.3358380523471 402.3716107570717 L557.4406654539008 402.028027123406 L558.5454928554544 401.7011343650866 L559.6503202570082 401.4108376328202 L560.7551476585617 401.17554375207743 L561.8599750601154 401.01143724501554 L562.964802461669 400.93183919167956 L564.0696298632228 400.9466897673374 L565.1744572647764 401.06218773248844 L566.2792846663301 401.28060992734527 L567.3841120678837 401.60032176991416 L568.4889394694374 402.01597688324443 L569.593766870991 402.51889136248366 L570.6985942725447 403.09756688148565 L571.8034216740983 403.7383277404512 L572.9082490756521 404.426030754923 L574.0130764772057 405.1448039813269 L575.1179038787594 405.8787707493785 L576.222731280313 406.61271910254277 L577.3275586818667 407.33268304003843 L578.4323860834204 408.0264102092515 L579.537213484974 408.6837000968393 L580.6420408865278 409.2966064603491 L581.7468682880814 409.8595069344549 L582.851695689635 410.36905076725344 L583.9565230911886 410.8240019988154 L585.0613504927423 411.2249997946202 L586.166177894296 411.5742600022308 L587.2710052958497 411.8752424057659 L588.3758326974033 412.1323068523974 L589.4806600989571 412.35037876395825 L590.5854875005106 412.5346409254064 L591.6903149020643 412.6902642711082 L592.7951423036179 412.8221860532935 L592.7951423036179 414.0 L591.6903149020643 414.0 L590.5854875005106 414.0 L589.4806600989571 414.0 L588.3758326974033 414.0 L587.2710052958497 414.0 L586.166177894296 414.0 L585.0613504927423 414.0 L583.9565230911886 414.0 L582.851695689635 414.0 L581.7468682880814 414.0 L580.6420408865278 414.0 L579.537213484974 414.0 L578.4323860834204 414.0 L577.3275586818667 414.0 L576.222731280313 414.0 L575.1179038787594 414.0 L574.0130764772057 414.0 L572.9082490756521 414.0 L571.8034216740983 414.0 L570.6985942725447 414.0 L569.593766870991 414.0 L568.4889394694374 414.0 L567.3841120678837 414.0 L566.2792846663301 414.0 L565.1744572647764 414.0 L564.0696298632228 414.0 L562.964802461669 414.0 L561.8599750601154 414.0 L560.7551476585617 414.0 L559.6503202570082 414.0 L558.5454928554544 414.0 L557.4406654539008 414.0 L556.3358380523471 414.0 L555.2310106507935 414.0 L554.1261832492397 414.0 L553.0213558476861 414.0 L551.9165284461325 414.0 L550.8117010445789 414.0 L549.7068736430251 414.0 L548.6020462414715 414.0 L547.4972188399178 414.0 L546.392391438364 414.0 L545.2875640368105 414.0 L544.1827366352568 414.0 L543.0779092337032 414.0 L541.9730818321494 414.0 L540.8682544305958 414.0 L539.7634270290421 414.0 L538.6585996274885 414.0 L537.5537722259348 414.0 L536.4489448243812 414.0 L535.3441174228275 414.0 L534.2392900212739 414.0 L533.1344626197201 414.0 L532.0296352181665 414.0 L530.9248078166128 414.0 L529.8199804150593 414.0 L528.7151530135055 414.0 L527.6103256119519 414.0 L526.5054982103982 414.0 L525.4006708088446 414.0 L524.2958434072908 414.0 L523.1910160057372 414.0 L522.0861886041836 414.0 L520.9813612026298 414.0 L519.8765338010762 414.0 L518.7717063995225 414.0 L517.6668789979689 414.0 L516.5620515964151 414.0 L515.4572241948616 414.0 L514.3523967933079 414.0 L513.2475693917543 414.0 L512.1427419902005 414.0 L511.0379145886469 414.0 L509.9330871870932 414.0 L508.8282597855397 414.0 L507.7234323839858 414.0 L506.6186049824323 414.0 L505.5137775808786 414.0 L504.40895017932496 414.0 L503.3041227777712 414.0 L502.1992953762176 414.0 L501.094467974664 414.0 L499.98964057311025 414.0 L498.88481317155663 414.0 L497.779985770003 414.0 L496.6751583684493 414.0 L495.57033096689554 414.0 L494.4655035653419 414.0 L493.3606761637883 414.0 L492.25584876223456 414.0 L491.15102136068094 414.0 L490.0461939591273 414.0 L488.9413665575736 414.0 L487.83653915601997 414.0 L486.73171175446623 414.0 L485.6268843529127 414.0 L484.5220569513589 414.0 L483.41722954980537 414.0 L482.31240214825164 414.0 L481.207574746698 414.0 L480.1027473451444 414.0 L478.99791994359066 414.0 L477.89309254203704 414.0 L476.7882651404833 414.0 L475.6834377389297 414.0 L474.57861033737606 414.0 L473.4737829358223 414.0 L472.3689555342688 414.0 L471.264128132715 414.0 L470.15930073116135 414.0 L469.05447332960773 414.0 L467.949645928054 414.0 L466.8448185265004 414.0 L465.73999112494664 414.0 L464.63516372339313 414.0 L463.5303363218393 414.0 L462.4255089202858 414.0 L461.32068151873204 414.0 L460.2158541171784 414.0 L459.1110267156247 414.0 L458.00619931407107 414.0 L456.90137191251745 414.0 L455.7965445109637 414.0 L454.6917171094101 414.0 L453.58688970785647 414.0 L452.48206230630274 414.0 L451.3772349047491 414.0 L450.2724075031954 414.0 L449.1675801016419 414.0 L448.062752700088 414.0 L446.9579252985345 414.0 L445.8530978969808 414.0 L444.74827049542716 414.0 L443.64344309387343 414.0 L442.5386156923197 414.0 L441.4337882907662 414.0 L440.32896088921234 414.0 L439.22413348765883 414.0 L438.1193060861051 414.0 L437.0144786845515 414.0 L435.90965128299774 414.0 L434.8048238814441 414.0 L433.6999964798905 414.0 L432.59516907833677 414.0 L431.49034167678315 414.0 L430.3855142752295 414.0 L429.2806868736758 414.0 L428.1758594721223 414.0 L427.07103207056844 414.0 L425.9662046690149 414.0 L424.8613772674611 414.0 L423.7565498659076 414.0 L422.65172246435384 414.0 L421.5468950628002 414.0 L420.4420676612466 414.0 L419.33724025969286 414.0 L418.23241285813924 414.0 L417.1275854565855 414.0 L416.0227580550319 414.0 L414.91793065347815 414.0 L413.81310325192453 414.0 L412.7082758503709 414.0 L411.6034484488172 414.0 L410.49862104726355 414.0 L409.39379364570993 414.0 L408.2889662441562 414.0 L407.1841388426026 414.0 L406.07931144104884 414.0 L404.97448403949534 414.0 L403.8696566379415 414.0 L402.764829236388 414.0 L401.66000183483425 414.0 L400.5551744332806 414.0 L399.4503470317269 414.0 L398.34551963017327 414.0 L397.24069222861965 414.0 L396.1358648270659 414.0 L395.0310374255123 414.0 L393.9262100239587 414.0 L392.82138262240494 414.0 L391.7165552208512 414.0 L390.6117278192976 414.0 L389.50690041774396 414.0 L388.40207301619023 414.0 L387.2972456146366 414.0 L386.192418213083 414.0 L385.08759081152925 414.0 L383.98276340997563 414.0 L382.8779360084219 414.0 L381.7731086068684 414.0 L380.66828120531454 414.0 L379.56345380376104 414.0 L378.4586264022073 414.0 L377.3537990006537 414.0 L376.24897159909995 414.0 L375.1441441975463 414.0 L374.0393167959927 414.0 L372.93448939443897 414.0 L371.82966199288535 414.0 L370.7248345913317 414.0 L369.620007189778 414.0 L368.5151797882245 414.0 L367.41035238667064 414.0 L366.305524985117 414.0 L365.2006975835633 414.0 L364.09587018200966 414.0 L362.99104278045604 414.0 L361.8862153789023 414.0 L360.7813879773488 414.0 L359.67656057579495 414.0 L358.57173317424144 414.0 L357.4669057726877 414.0 L356.3620783711341 414.0 L355.25725096958035 414.0 L354.15242356802673 414.0 L353.0475961664731 414.0 L351.9427687649194 414.0 L350.83794136336576 414.0 L349.7331139618121 414.0 L348.6282865602584 414.0 L347.5234591587047 414.0 L346.41863175715105 414.0 L345.3138043555975 414.0 L344.2089769540437 414.0 L343.1041495524901 414.0 L341.99932215093645 414.0 L340.8944947493828 414.0 L339.7896673478291 414.0 L338.6848399462754 414.0 L337.58001254472185 414.0 L336.47518514316806 414.0 L335.3703577416145 414.0 L334.2655303400608 414.0 L333.16070293850714 414.0 L332.05587553695347 414.0 L330.9510481353998 414.0 L329.8462207338462 414.0 L328.74139333229243 414.0 L327.6365659307388 414.0 L326.53173852918513 414.0 L325.42691112763146 414.0 L324.3220837260778 414.0 L323.21725632452416 414.0 L322.1124289229705 414.0 L321.0076015214168 414.0 L319.9027741198632 414.0 L318.7979467183095 414.0 L317.6931193167558 414.0 L316.5882919152022 414.0 L315.4834645136485 414.0 L314.37863711209485 414.0 L313.2738097105412 414.0 L312.16898230898755 414.0 L311.0641549074339 414.0 L309.9593275058802 414.0 L308.8545001043266 414.0 L307.7496727027729 414.0 L306.6448453012192 414.0 L305.54001789966554 414.0 L304.4351904981119 414.0 L303.33036309655824 414.0 L302.22553569500457 414.0 L301.1207082934509 414.0 L300.0158808918972 414.0 L298.91105349034353 414.0 L297.8062260887899 414.0 L296.70139868723624 414.0 L295.59657128568256 414.0 L294.4917438841289 414.0 L293.38691648257526 414.0 L292.2820890810216 414.0 L291.1772616794679 414.0 L290.0724342779143 414.0 L288.9676068763606 414.0 L287.8627794748069 414.0 L286.7579520732533 414.0 L285.65312467169963 414.0 L284.54829727014595 414.0 L283.4434698685923 414.0 L282.33864246703865 414.0 L281.233815065485 414.0 L280.1289876639313 414.0 L279.0241602623777 414.0 L277.919332860824 414.0 L276.8145054592703 414.0 L275.70967805771664 414.0 L274.60485065616297 414.0 L273.5000232546093 414.0 L272.3951958530556 414.0 L271.290368451502 414.0 L270.1855410499483 414.0 L269.0807136483947 414.0 L267.975886246841 414.0 L266.87105884528734 414.0 L265.76623144373366 414.0 L264.66140404218 414.0 L263.55657664062636 414.0 L262.4517492390727 414.0 L261.34692183751906 414.0 L260.2420944359654 414.0 L259.1372670344117 414.0 L258.03243963285803 414.0 L256.92761223130435 414.0 L255.82278482975073 414.0 L254.71795742819705 414.0 L253.61313002664343 414.0 L252.50830262508975 414.0 L251.40347522353608 414.0 L250.2986478219824 414.0 L249.19382042042872 414.0 L248.08899301887504 414.0 L246.98416561732137 414.0 L245.87933821576775 414.0 L244.77451081421407 414.0 L243.6696834126604 414.0 L242.5648560111067 414.0 L241.46002860955304 414.0 L240.35520120799941 414.0 L239.2503738064458 414.0 L238.14554640489212 414.0 L237.04071900333844 414.0 L235.93589160178476 414.0 L234.83106420023108 414.0 L233.72623679867746 414.0 L232.62140939712378 414.0 L231.51658199557016 414.0 L230.4117545940165 414.0 L229.3069271924628 414.0 L228.20209979090913 414.0 L227.09727238935545 414.0 L225.99244498780183 414.0 L224.88761758624815 414.0 L223.78279018469448 414.0 L222.6779627831408 414.0 L221.57313538158712 414.0 L220.46830798003344 414.0 L219.36348057847977 414.0 L218.25865317692615 414.0 L217.15382577537247 414.0 L216.04899837381885 414.0 L214.94417097226517 414.0 L213.8393435707115 414.0 L212.7345161691578 414.0 L211.62968876760414 414.0 L210.52486136605052 414.0 L209.4200339644969 414.0 L208.31520656294322 414.0 L207.21037916138954 414.0 L206.10555175983586 414.0 L205.00072435828218 414.0 L203.89589695672856 414.0 L202.7910695551749 414.0 L201.68624215362127 414.0 L200.5814147520676 414.0 L199.4765873505139 414.0 L198.37175994896023 414.0 L197.26693254740655 414.0 L196.16210514585288 414.0 L195.0572777442992 414.0 L193.95245034274558 414.0 L192.8476229411919 414.0 L191.74279553963822 414.0 L190.63796813808455 414.0 L189.53314073653087 414.0 L188.42831333497725 414.0 L187.32348593342357 414.0 L186.21865853186995 414.0 L185.11383113031627 414.0 L184.0090037287626 414.0 L182.90417632720892 414.0 L181.79934892565524 414.0 L180.69452152410162 414.0 L179.589694122548 414.0 L178.48486672099432 414.0 L177.38003931944064 414.0 L176.27521191788696 414.0 L175.17038451633329 414.0 L174.06555711477966 414.0 L172.960729713226 414.0 L171.8559023116723 414.0 L170.75107491011863 414.0 L169.64624750856495 414.0 L168.54142010701128 414.0 L167.4365927054576 414.0 L166.33176530390398 414.0 L165.2269379023503 414.0 L164.12211050079668 414.0 L163.017283099243 414.0 L161.91245569768932 414.0 L160.80762829613565 414.0 L159.70280089458197 414.0 L158.59797349302835 414.0 L157.49314609147473 414.0 L156.38831868992105 414.0 L155.28349128836737 414.0 L154.1786638868137 414.0 L153.07383648526002 414.0 L151.9690090837064 414.0 L150.86418168215272 414.0 L149.7593542805991 414.0 L148.65452687904542 414.0 L147.54969947749174 414.0 L146.44487207593806 414.0 L145.3400446743844 414.0 L144.2352172728307 414.0 L143.13038987127703 414.0 L142.0255624697234 414.0 L140.92073506816973 414.0 L139.81590766661606 414.0 L138.71108026506238 414.0 L137.6062528635087 414.0 L136.50142546195508 414.0 L135.3965980604014 414.0 L134.29177065884778 414.0 L133.1869432572941 414.0 L132.08211585574043 414.0 L130.97728845418675 414.0 L129.87246105263313 414.0 L128.76763365107945 414.0 L127.66280624952577 414.0 L126.55797884797215 414.0 L125.45315144641847 414.0 L124.3483240448648 414.0 L123.24349664331112 414.0 L122.1386692417575 414.0 L121.03384184020382 414.0 L119.92901443865014 414.0 L118.82418703709646 414.0 L117.71935963554279 414.0 L116.61453223398911 414.0 L115.50970483243543 414.0 L114.40487743088181 414.0 L113.30005002932813 414.0 L112.19522262777451 414.0 L111.09039522622083 414.0 L109.98556782466716 414.0 L108.88074042311348 414.0 L107.7759130215598 414.0 L106.67108562000618 414.0 L105.5662582184525 414.0 L104.46143081689888 414.0 L103.3566034153452 414.0 L102.25177601379153 414.0 L101.14694861223785 414.0 L100.04212121068423 414.0 L98.93729380913055 414.0 L97.83246640757685 414.0 L96.72763900602322 414.0 L95.62281160446955 414.0 L94.51798420291587 414.0 L93.41315680136219 414.0 L92.30832939980857 414.0 L91.2035019982549 414.0 L90.09867459670127 414.0 L88.9938471951476 414.0 L87.88901979359392 414.0 L86.78419239204024 414.0 L85.67936499048656 414.0 L84.57453758893291 414.0 L83.46971018737923 414.0 L82.36488278582559 414.0 L81.26005538427194 414.0 L80.15522798271826 414.0 L79.05040058116461 414.0 L77.94557317961093 414.0 L76.84074577805728 414.0 L75.7359183765036 414.0 L74.63109097494996 414.0 L73.52626357339628 414.0 L72.4214361718426 414.0 L71.31660877028895 414.0 L70.2117813687353 414.0 L69.10695396718162 414.0 L68.00212656562795 414.0 L66.8972991640743 414.0 L65.79247176252065 414.0 L64.68764436096697 414.0 L63.58281695941332 414.0 L62.47798955785967 414.0 L61.373162156305995 414.0 L60.26833475475232 414.0 L59.16350735319867 414.0 L58.05867995164499 414.0 L56.95385255009131 414.0 L55.84902514853766 414.0 L54.744197746984014 414.0 L53.639370345430336 414.0 L52.53454294387669 414.0 L51.42971554232304 414.0 L50.32488814076936 414.0 L49.22006073921571 414.0 L48.11523333766203 414.0 L47.010405936108356 414.0 L45.90557853455468 414.0 L44.80075113300103 414.0 L43.69592373144738 414.0 L42.5910963298937 414.0 L41.48626892834005 414.0 L40.3814415267864 414.0 L39.276614125232726 414.0 L38.17178672367908 414.0 L37.0669593221254 414.0 L35.96213192057175 414.0 L34.85730451901807 414.0 L33.752477117464394 414.0 L32.647649715910745 414.0 L31.542822314357068 414.0 L30.43799491280342 414.0 L29.33316751124974 414.0 L28.22834010969609 414.0 Z" fill="rgb(187,187,187)" stroke-width="1.0" fill-opacity="0.10196078431372549">
          </path>
        </g>
        <g>
          <path d="M28.22834010969609 409.8814305202603 L28.22834010969609 409.8814305202603 L29.33316751124974 409.84739035060306 L30.43799491280342 409.83992965660656 L31.542822314357068 409.8549961219454 L32.647649715910745 409.88729912137956 L33.752477117464394 409.9305142207439 L34.85730451901807 409.97754668184984 L35.96213192057175 410.0208389896047 L37.0669593221254 410.05270407675846 L38.17178672367908 410.06566372435714 L39.276614125232726 410.0527707084856 L40.3814415267864 410.00789370839715 L41.48626892834005 409.92594577261355 L42.5910963298937 409.8030401754296 L43.69592373144738 409.636561646702 L44.80075113300103 409.42514603450013 L45.90557853455468 409.16856723187067 L47.010405936108356 408.86753639387393 L48.11523333766203 408.5234247779505 L49.22006073921571 408.1379276105107 L50.32488814076936 407.7126918340386 L51.42971554232304 407.2489350201336 L52.53454294387669 406.74708574266015 L53.639370345430336 406.2064769178855 L54.744197746984014 405.62512272608785 L55.84902514853766 404.99960652745256 L56.95385255009131 404.3251016149461 L58.05867995164499 403.59553882828294 L59.16350735319867 402.8039253079601 L60.26833475475232 401.94280752619096 L61.373162156305995 401.00485991456776 L62.47798955785967 399.98356879320596 L63.58281695941332 398.87397086389433 L64.68764436096697 397.6733972458617 L65.79247176252065 396.3821688142934 L66.8972991640743 395.0041871800676 L68.00212656562795 393.54736848822205 L69.10695396718162 392.02387443409134 L70.2117813687353 390.4501062322434 L71.31660877028895 388.84644205685197 L72.4214361718426 387.23671566723743 L73.52626357339628 385.6474522095485 L74.63109097494996 384.10689503512987 L75.7359183765036 382.64387325021187 L76.84074577805728 381.28657218135413 L77.94557317961093 380.06127685061665 L79.05040058116461 378.99116115256686 L80.15522798271826 378.09519245800203 L81.26005538427194 377.38721311933926 L82.36488278582559 376.87524761823147 L83.46971018737923 376.56106810956516 L84.57453758893291 376.44003341083385 L85.67936499048656 376.50119872577443 L86.78419239204024 376.7276771841475 L87.88901979359392 377.0972209986531 L88.9938471951476 377.5829806735791 L90.09867459670127 378.15439575039113 L91.2035019982549 378.7781700194045 L92.30832939980857 379.4192874389109 L93.41315680136219 380.0420312434853 L94.51798420291587 380.6109766718482 L95.62281160446955 381.09193606936304 L96.72763900602322 381.4528425539074 L97.83246640757685 381.6645639402609 L98.93729380913055 381.7016415260506 L100.04212121068423 381.54294843149495 L101.14694861223785 381.1722597149471 L102.25177601379153 380.57872216220505 L103.3566034153452 379.7572065308531 L104.46143081689888 378.70852039898614 L105.5662582184525 377.43945694220287 L106.67108562000618 375.9626551234673 L107.7759130215598 374.2962507866064 L108.88074042311348 372.463306385348 L109.98556782466716 370.4910193756913 L111.09039522622083 368.4097248651939 L112.19522262777451 366.2517255990263 L113.30005002932813 364.0499999716157 L114.40487743088181 361.8368544234074 L115.50970483243543 359.64259822702365 L116.61453223398911 357.4943244341048 L117.71935963554279 355.4148792845307 L118.82418703709646 353.42209302509013 L119.92901443865014 351.5283280530619 L121.03384184020382 349.74037670552275 L122.1386692417575 348.05971281582106 L123.24349664331112 346.48307098457394 L124.3483240448648 345.00329839665613 L125.45315144641847 343.61039905773487 L126.55797884797215 342.2926723276756 L127.66280624952577 341.0378387570421 L128.76763365107945 339.83404773022687 L129.87246105263313 338.67067343042294 L130.97728845418675 337.53882716762786 L132.08211585574043 336.4315430940689 L133.1869432572941 335.3436278751139 L134.29177065884778 334.27119957102144 L135.3965980604014 333.2109732603836 L136.50142546195508 332.1593775018234 L137.6062528635087 331.11160390703316 L138.71108026506238 330.0607001078517 L139.81590766661606 328.99681353977445 L140.92073506816973 327.9066801521436 L142.0255624697234 326.77342985048074 L143.13038987127703 325.5767514891578 L144.2352172728307 324.2934274523784 L145.3400446743844 322.898214440409 L146.44487207593806 321.3650161079532 L147.54969947749174 319.6682674198163 L148.65452687904542 317.78443214137627 L149.7593542805991 315.69350516034274 L150.86418168215272 313.3804109014861 L151.9690090837064 310.8361976749937 L153.07383648526002 308.05894435818294 L154.1786638868137 305.0543186815964 L155.28349128836737 301.8357534386249 L156.38831868992105 298.42423575094705 L157.49314609147473 294.84773261344515 L158.59797349302835 291.1403009499271 L159.70280089458197 287.3409502857923 L160.80762829613565 283.4923393150037 L161.91245569768932 279.63939314746403 L163.017283099243 275.82792561216917 L164.12211050079668 272.1033411426755 L165.2269379023503 268.50947467784476 L166.33176530390398 265.0876074840296 L167.4365927054576 261.87567411390796 L168.54142010701128 258.90765337051323 L169.64624750856495 256.21311663209997 L170.75107491011863 253.81689241167857 L171.8559023116723 251.73879822274782 L172.960729713226 249.99339059161863 L174.06555711477966 248.5896914028738 L175.17038451633329 247.53086278097527 L176.27521191788696 246.81382166146446 L177.38003931944064 246.4288067145624 L178.48486672099432 246.35893161606143 L179.589694122548 246.57977704914123 L180.69452152410162 247.0590868123688 L181.79934892565524 247.75663916936077 L182.90417632720892 248.62436211940562 L184.0090037287626 249.60675057988686 L185.11383113031627 250.6416254975007 L186.21865853186995 251.66125142386804 L187.32348593342357 252.5938024749705 L188.42831333497725 253.36513950434014 L189.53314073653087 253.90083637765946 L190.63796813808455 254.1283727141803 L191.74279553963822 253.97939604312316 L192.8476229411919 253.39194896384296 L193.95245034274558 252.31255678415496 L195.0572777442992 250.6980777346922 L196.16210514585288 248.51723017289783 L197.26693254740655 245.7517278201525 L198.37175994896023 242.3969735262548 L199.4765873505139 238.4622829092156 L200.5814147520676 233.97063026845342 L201.68624215362127 228.9579294855571 L202.7910695551749 223.47188154879277 L203.89589695672856 217.57043741420458 L205.00072435828218 211.31993981180813 L206.10555175983586 204.79302000521307 L207.21037916138954 198.0663350540504 L208.31520656294322 191.21823737614886 L209.4200339644969 184.3264708836005 L210.52486136605052 177.46598623179514 L211.62968876760414 170.7069614736722 L212.7345161691578 164.1131036089622 L213.8393435707115 157.7402914631154 L214.94417097226517 151.63560171998523 L216.04899837381885 145.8367388450274 L217.15382577537247 140.37186745827427 L218.25865317692615 135.259824016361 L219.36348057847977 130.51066502912778 L220.46830798003344 126.1264929098644 L221.57313538158712 122.10248908129466 L222.6779627831408 118.42807786171329 L223.78279018469448 115.088144193755 L224.88761758624815 112.06423322925292 L225.99244498780183 109.33566948966842 L227.09727238935545 106.88054677218202 L228.20209979090913 104.67655590806703 L229.3069271924628 102.7016345081226 L230.4117545940165 100.93443952808104 L231.51658199557016 99.35465850461696 L232.62140939712378 97.94318745771596 L233.72623679867746 96.68221177072587 L234.83106420023108 95.55523019260141 L235.93589160178476 94.54706117008084 L237.04071900333844 93.64386513597037 L238.14554640489212 92.83320671780308 L239.2503738064458 92.10416808623108 L240.35520120799941 91.44751021294718 L241.46002860955304 90.85586431144611 L242.5648560111067 90.32392297331614 L243.6696834126604 89.8485912032591 L244.77451081421407 89.42905313199424 L245.87933821576775 89.06671159852465 L246.98416561732137 88.76496534792784 L248.08899301887504 88.52880185917246 L249.19382042042872 88.36420163864261 L250.2986478219824 88.27737039835517 L251.40347522353608 88.27383665642157 L252.50830262508975 88.35747154825918 L253.61313002664343 88.52950273356521 L254.71795742819705 88.78760333567078 L255.82278482975073 89.12513859217933 L256.92761223130435 89.53064683709658 L258.03243963285803 89.98761790217839 L259.1372670344117 90.47461210866732 L260.2420944359654 90.96573842984611 L261.34692183751906 91.43148326512932 L262.4517492390727 91.83985388810754 L263.55657664062636 92.15777528238311 L264.66140404218 92.35265779333628 L265.76623144373366 92.39403745221733 L266.87105884528734 92.25518214886927 L267.975886246841 91.9145557006633 L269.0807136483947 91.35703842380121 L270.1855410499483 90.57481668856184 L271.290368451502 89.56787428757923 L272.3951958530556 88.34404398781953 L273.5000232546093 86.91860671430788 L274.60485065616297 85.31345646020918 L275.70967805771664 83.55587905904918 L276.8145054592703 81.6770201427235 L277.919332860824 79.71013979198773 L279.0241602623777 77.68876670230202 L280.1289876639313 75.64487176261491 L281.233815065485 73.60717906558506 L282.33864246703865 71.59972160482573 L283.4434698685923 69.6407301614239 L284.54829727014595 67.74191879631849 L285.65312467169963 65.90820121250931 L286.7579520732533 64.13784165963642 L287.8627794748069 62.42301471514992 L288.9676068763606 60.750722634907675 L290.0724342779143 59.10399893889968 L291.1772616794679 57.46331367539619 L292.2820890810216 55.80808975969529 L293.38691648257526 54.11824049108992 L294.4917438841289 52.37564474305918 L295.59657128568256 50.565486903438796 L296.70139868723624 48.677401766663195 L297.8062260887899 46.70637871265569 L298.91105349034353 44.65339343191903 L300.0158808918972 42.525748404282695 L301.1207082934509 40.337115006180795 L302.22553569500457 38.10728059109272 L303.33036309655824 35.8616134762276 L304.4351904981119 33.63026783590283 L305.54001789966554 31.447159273031673 L306.6448453012192 29.348750275670795 L307.7496727027729 27.37269251587503 L308.8545001043266 25.55637939802267 L309.9593275058802 23.93546666072052 L311.0641549074339 22.542420472487493 L312.16898230898755 21.405150867283567 L313.2738097105412 20.54578347091274 L314.37863711209485 19.979614686159437 L315.4834645136485 19.714285714285722 L316.5882919152022 19.749200219411478 L317.6931193167558 20.075200451156718 L318.7979467183095 20.674508460725747 L319.9027741198632 21.520933514412263 L321.0076015214168 22.580344160782772 L322.1124289229705 23.811403167869855 L323.21725632452416 25.166564554299953 L324.3220837260778 26.593332516963187 L325.42691112763146 28.035780304139337 L326.53173852918513 29.43632123471707 L327.6365659307388 30.737712885770975 L328.74139333229243 31.885258586436294 L329.8462207338462 32.82914846812696 L330.9510481353998 33.526857263892 L332.05587553695347 33.94549065808701 L333.16070293850714 34.06394978671551 L334.2655303400608 33.87476824344594 L335.3703577416145 33.38547113018217 L336.47518514316806 32.619313955045186 L337.58001254472185 31.615281897791476 L338.6848399462754 30.427266921338514 L339.7896673478291 29.12238950090091 L340.8944947493828 27.778489873955436 L341.99932215093645 26.480875916670016 L343.1041495524901 25.31847546871529 L344.2089769540437 24.37959440523008 L345.3138043555975 23.74752266689717 L346.41863175715105 23.49625449083129 L347.5234591587047 23.686593398658943 L348.6282865602584 24.36289603949467 L349.7331139618121 25.55067259544012 L350.83794136336576 27.255207786058293 L351.9427687649194 29.461299749152317 L353.0475961664731 32.13413955344083 L354.15242356802673 35.22127776540566 L355.25725096958035 38.65555237680661 L356.3620783711341 42.358790072793624 L357.4669057726877 46.24604492462208 L358.57173317424144 50.23010846307494 L359.67656057579495 54.22601451898885 L360.7813879773488 58.15527134880159 L361.8862153789023 61.949580939146415 L362.99104278045604 65.55384813516736 L364.09587018200966 68.92833638139166 L365.2006975835633 72.04988770198031 L366.305524985117 74.91218710142601 L367.41035238667064 77.52511103333944 L368.5151797882245 79.91325174946263 L369.620007189778 82.11375092176013 L370.7248345913317 84.1736048141658 L371.82966199288535 86.14661863135944 L372.93448939443897 88.09018990478489 L374.0393167959927 90.06209140312455 L375.1441441975463 92.11740542781246 L376.24897159909995 94.30573633869619 L377.3537990006537 96.66879977237738 L378.4586264022073 99.23845810577546 L379.56345380376104 102.03524465162002 L380.66828120531454 105.06739555502435 L381.7731086068684 108.33038932847143 L382.8779360084219 111.80697959420957 L383.98276340997563 115.46769641578118 L385.08759081152925 119.27178462372285 L386.192418213083 123.16854253088906 L387.2972456146366 127.0990201001461 L388.40207301619023 130.99803084452395 L389.50690041774396 134.79642571173696 L390.6117278192976 138.42356957945958 L391.7165552208512 141.80995190399688 L392.82138262240494 144.88985313681326 L393.9262100239587 147.60397876586768 L395.0310374255123 149.90196454813156 L396.1358648270659 151.74465110237617 L397.24069222861965 153.10602491462726 L398.34551963017327 153.9747271513462 L399.4503470317269 154.35504229108034 L400.5551744332806 154.26729579369862 L401.66000183483425 153.74761356484333 L402.764829236388 152.8470249584837 L403.8696566379415 151.62992400835083 L404.97448403949534 150.1719384848513 L406.07931144104884 148.55729085130366 L407.1841388426026 146.8757666622633 L408.2889662441562 145.21943185826552 L409.39379364570993 143.67925848578875 L410.49862104726355 142.34182682891952 L411.6034484488172 141.2862696962162 L412.7082758503709 140.58161141408675 L413.81310325192453 140.2846305863037 L414.91793065347815 140.4383434125947 L416.0227580550319 141.07116560535047 L417.1275854565855 142.19676856287987 L418.23241285813924 143.81460263309708 L419.33724025969286 145.91102025359186 L420.4420676612466 148.46089745360712 L421.5468950628002 151.42962611187966 L422.65172246435384 154.7753332286734 L423.7565498659076 158.4511781929344 L424.8613772674611 162.40758461826374 L425.9662046690149 166.59427894378646 L427.07103207056844 170.96203206614862 L428.1758594721223 175.46403062995745 L429.2806868736758 180.05683872273542 L430.3855142752295 184.70094589672402 L431.49034167678315 189.3609310056403 L432.59516907833677 194.0053008412067 L433.6999964798905 198.6060858784513 L434.8048238814441 203.13829095727175 L435.90965128299774 207.57930536349784 L437.0144786845515 211.9083740660327 L438.1193060861051 216.10622001457824 L439.22413348765883 220.154887273282 L440.32896088921234 224.03784788500798 L441.4337882907662 227.74038385763504 L442.5386156923197 231.25022216669905 L443.64344309387343 234.55836814613423 L444.74827049542716 237.66005417934585 L445.8530978969808 240.55569914700612 L446.9579252985345 243.25176213014726 L448.062752700088 245.761373159842 L449.1675801016419 248.10463510198392 L450.2724075031954 250.3085136473015 L451.3772349047491 252.4062651885167 L452.48206230630274 254.43639229989054 L453.58688970785647 256.4411598527551 L454.6917171094101 258.46474719783754 L455.7965445109637 260.55114890155045 L456.90137191251745 262.74196420696774 L458.00619931407107 265.0742305403145 L459.1110267156247 267.57845711289224 L460.2158541171784 270.27700062388146 L461.32068151873204 273.18289751660086 L462.4255089202858 276.2992289478706 L463.5303363218393 279.6190495668885 L464.63516372339313 283.12586408325024 L465.73999112494664 286.7945913473917 L466.8448185265004 290.5929188062487 L467.949645928054 294.4829243615368 L469.05447332960773 298.42283015910897 L470.15930073116135 302.36875442316216 L471.264128132715 306.27634225414965 L472.3689555342688 310.1021820058595 L473.4737829358223 313.8049469770816 L474.57861033737606 317.3462385410455 L475.6834377389297 320.6911421682844 L476.7882651404833 323.80853810504175 L477.89309254203704 326.67123058457764 L478.99791994359066 329.2559713471144 L480.1027473451444 331.54345421691824 L481.207574746698 333.51834814795245 L482.31240214825164 335.1694182900937 L483.41722954980537 336.48976092007365 L484.5220569513589 337.4771517147269 L485.6268843529127 338.13448111834674 L486.73171175446623 338.4702284947056 L487.83653915601997 338.49891078471023 L488.9413665575736 338.2414331211984 L490.0461939591273 337.725268966317 L491.15102136068094 336.98440560072845 L492.25584876223456 336.0590061654948 L493.3606761637883 334.9947602675778 L494.4655035653419 333.84191933438944 L495.57033096689554 332.6540381943232 L496.6751583684493 331.4864685615698 L497.779985770003 330.39467122448764 L498.88481317155663 329.43243013490445 L499.98964057311025 328.65006206055045 L501.094467974664 328.09271926020176 L502.1992953762176 327.7988795258556 L503.3041227777712 327.79910814249376 L504.40895017932496 328.11516053087985 L505.5137775808786 328.7594736612284 L506.6186049824323 329.7350702076467 L507.7234323839858 331.0358735803252 L508.8282597855397 332.64740631768245 L509.9330871870932 334.5478207733837 L511.0379145886469 336.7091914064554 L512.1427419902005 339.0989838111167 L513.2475693917543 341.6816080079871 L514.3523967933079 344.41996300196683 L515.4572241948616 347.2768860995018 L516.5620515964151 350.21643322522937 L517.6668789979689 353.20493415414984 L518.7717063995225 356.2117873963238 L519.8765338010762 359.20998139241976 L520.9813612026298 362.1763496247103 L522.0861886041836 365.09158534766317 L523.1910160057372 367.94005543589583 L524.2958434072908 370.7094614420713 L525.4006708088446 373.390399103828 L526.5054982103982 375.9758656219668 L527.6103256119519 378.46075797890757 L528.7151530135055 380.8413966862643 L529.8199804150593 383.1150991332903 L530.9248078166128 385.2798166113311 L532.0296352181665 387.33384034530366 L533.1344626197201 389.27557533184097 L534.2392900212739 391.1033768724878 L535.3441174228275 392.81544334441566 L536.4489448243812 394.4097595126072 L537.5537722259348 395.8840868077647 L538.6585996274885 397.23599957980707 L539.7634270290421 398.4629685034797 L540.8682544305958 399.56249332522066 L541.9730818321494 400.5322865196284 L543.0779092337032 401.37050700709784 L544.1827366352568 402.07603903708815 L545.2875640368105 402.64880612242865 L546.392391438364 403.09010419706726 L547.4972188399178 403.40293276242943 L548.6020462414715 403.59229849927385 L549.7068736430251 403.66546337467264 L550.8117010445789 403.63210920905937 L551.9165284461325 403.50439328159706 L553.0213558476861 403.2968748558464 L554.1261832492397 403.02630022483004 L555.2310106507935 402.7112434615823 L556.3358380523471 402.3716107570717 L557.4406654539008 402.028027123406 L558.5454928554544 401.7011343650866 L559.6503202570082 401.4108376328202 L560.7551476585617 401.17554375207743 L561.8599750601154 401.01143724501554 L562.964802461669 400.93183919167956 L564.0696298632228 400.9466897673374 L565.1744572647764 401.06218773248844 L566.2792846663301 401.28060992734527 L567.3841120678837 401.60032176991416 L568.4889394694374 402.01597688324443 L569.593766870991 402.51889136248366 L570.6985942725447 403.09756688148565 L571.8034216740983 403.7383277404512 L572.9082490756521 404.426030754923 L574.0130764772057 405.1448039813269 L575.1179038787594 405.8787707493785 L576.222731280313 406.61271910254277 L577.3275586818667 407.33268304003843 L578.4323860834204 408.0264102092515 L579.537213484974 408.6837000968393 L580.6420408865278 409.2966064603491 L581.7468682880814 409.8595069344549 L582.851695689635 410.36905076725344 L583.9565230911886 410.8240019988154 L585.0613504927423 411.2249997946202 L586.166177894296 411.5742600022308 L587.2710052958497 411.8752424057659 L588.3758326974033 412.1323068523974 L589.4806600989571 412.35037876395825 L590.5854875005106 412.5346409254064 L591.6903149020643 412.6902642711082 L592.7951423036179 412.8221860532935 " fill="none" stroke-width="1.6500000000000001" stroke="rgb(187,187,187)" stroke-opacity="1.0">
          </path>
        </g>
      </g>
    </g>
    <g transform="translate(14.5 217.0 ) rotate(-90.0 ) ">
      <text class="axis-title-y" y="0.0" text-anchor="middle">
      densityWeighted
      </text>
    </g>
    <g transform="translate(384.488258793343 461.5 ) ">
      <text class="axis-title-x" y="0.0" text-anchor="middle">
      depth
      </text>
    </g>
    <path fill="rgb(0,0,0)" fill-opacity="0.0" stroke="rgb(187,187,187)" stroke-opacity="1.0" stroke-width="0.0" d="M0.0 0.0 L0.0 470.0 L705.0 470.0 L705.0 0.0 Z">
    </path>
  </g>
  <g id="xXxprefixXx2">
  </g>
</svg>