<svg xmlns="http://www.w3.org/2000/svg" xmlns:xlink="http://www.w3.org/1999/xlink" class="plt-container" width="705.0" height="470.0">
  <style type="text/css">
  .plt-container {
   font-family: Lucida Grande, sans-serif;
   user-select: none;
   -webkit-user-select: none;
   -moz-user-select: none;
   -ms-user-select: none;
}
text {
   text-rendering: optimizeLegibility;
}
#xXxprefixXx0 .plot-title {
   fill: #bbbbbb;
   font-family: Lucida Grande, sans-serif;
   font-size: 16.0px;
   font-weight: normal;
   font-style: normal;   
}
#xXxprefixXx0 .plot-subtitle {
   fill: #bbbbbb;
   font-family: Lucida Grande, sans-serif;
   font-size: 15.0px;
   font-weight: normal;
   font-style: normal;   
}
#xXxprefixXx0 .plot-caption {
   fill: #bbbbbb;
   font-family: Lucida Grande, sans-serif;
   font-size: 13.0px;
   font-weight: normal;
   font-style: normal;   
}
#xXxprefixXx0 .legend-title {
   fill: #bbbbbb;
   font-family: Lucida Grande, sans-serif;
   font-size: 15.0px;
   font-weight: normal;
   font-style: normal;   
}
#xXxprefixXx0 .legend-item {
   fill: #bbbbbb;
   font-family: Lucida Grande, sans-serif;
   font-size: 13.0px;
   font-weight: normal;
   font-style: normal;   
}
#xXxprefixXx0 .axis-title-x {
   fill: #bbbbbb;
   font-family: Lucida Grande, sans-serif;
   font-size: 15.0px;
   font-weight: normal;
   font-style: normal;   
}
#xXxprefixXx0 .axis-text-x {
   fill: #bbbbbb;
   font-family: Lucida Grande, sans-serif;
   font-size: 13.0px;
   font-weight: normal;
   font-style: normal;   
}
#xXxprefixXx2 .axis-tooltip-text-x {
   fill: #303030;
   font-family: Lucida Grande, sans-serif;
   font-size: 13.0px;
   font-weight: normal;
   font-style: normal;   
}
#xXxprefixXx0 .axis-title-y {
   fill: #bbbbbb;
   font-family: Lucida Grande, sans-serif;
   font-size: 15.0px;
   font-weight: normal;
   font-style: normal;   
}
#xXxprefixXx0 .axis-text-y {
   fill: #bbbbbb;
   font-family: Lucida Grande, sans-serif;
   font-size: 13.0px;
   font-weight: normal;
   font-style: normal;   
}
#xXxprefixXx2 .axis-tooltip-text-y {
   fill: #303030;
   font-family: Lucida Grande, sans-serif;
   font-size: 13.0px;
   font-weight: normal;
   font-style: normal;   
}
#xXxprefixXx0 .facet-strip-text-x {
   fill: #bbbbbb;
   font-family: Lucida Grande, sans-serif;
   font-size: 13.0px;
   font-weight: normal;
   font-style: normal;   
}
#xXxprefixXx0 .facet-strip-text-y {
   fill: #bbbbbb;
   font-family: Lucida Grande, sans-serif;
   font-size: 13.0px;
   font-weight: normal;
   font-style: normal;   
}
#xXxprefixXx2 .tooltip-text {
   fill: #bbbbbb;
   font-family: Lucida Grande, sans-serif;
   font-size: 13.0px;
   font-weight: normal;
   font-style: normal;   
}
#xXxprefixXx2 .tooltip-title {
   fill: #bbbbbb;
   font-family: Lucida Grande, sans-serif;
   font-size: 13.0px;
   font-weight: bold;
   font-style: normal;   
}
#xXxprefixXx2 .tooltip-label {
   fill: #bbbbbb;
   font-family: Lucida Grande, sans-serif;
   font-size: 13.0px;
   font-weight: bold;
   font-style: normal;   
}

  </style>
  <g id="xXxprefixXx0">
    <path fill-rule="evenodd" fill="rgb(25,25,28)" fill-opacity="1.0" d="M0.0 0.0 L0.0 470.0 L705.0 470.0 L705.0 0.0 Z">
    </path>
    <g transform="translate(23.0 34.0 ) ">
      <g transform="translate(50.97651758668602 390.0 ) ">
        <line x1="76.952412654102" y1="-0.0" x2="76.952412654102" y2="-390.0" stroke="rgb(71,71,71)" stroke-opacity="1.0" stroke-width="1.0">
        </line>
        <line x1="159.38205157871644" y1="-0.0" x2="159.38205157871644" y2="-390.0" stroke="rgb(71,71,71)" stroke-opacity="1.0" stroke-width="1.0">
        </line>
        <line x1="241.81169050333088" y1="-0.0" x2="241.81169050333088" y2="-390.0" stroke="rgb(71,71,71)" stroke-opacity="1.0" stroke-width="1.0">
        </line>
        <line x1="324.2413294279453" y1="-0.0" x2="324.2413294279453" y2="-390.0" stroke="rgb(71,71,71)" stroke-opacity="1.0" stroke-width="1.0">
        </line>
        <line x1="406.6709683525597" y1="-0.0" x2="406.6709683525597" y2="-390.0" stroke="rgb(71,71,71)" stroke-opacity="1.0" stroke-width="1.0">
        </line>
        <line x1="489.10060727717416" y1="-0.0" x2="489.10060727717416" y2="-390.0" stroke="rgb(71,71,71)" stroke-opacity="1.0" stroke-width="1.0">
        </line>
        <line x1="571.5302462017886" y1="-0.0" x2="571.5302462017886" y2="-390.0" stroke="rgb(71,71,71)" stroke-opacity="1.0" stroke-width="1.0">
        </line>
        <g transform="translate(76.952412654102 0.0 ) ">
          <line stroke-width="1.0" stroke="rgb(187,187,187)" stroke-opacity="1.0" x2="0.0" y2="4.0">
          </line>
          <g transform="translate(0.0 7.0 ) ">
            <text class="axis-text-x" text-anchor="middle" dy="0.7em">
            200
            </text>
          </g>
        </g>
        <g transform="translate(159.38205157871644 0.0 ) ">
          <line stroke-width="1.0" stroke="rgb(187,187,187)" stroke-opacity="1.0" x2="0.0" y2="4.0">
          </line>
          <g transform="translate(0.0 7.0 ) ">
            <text class="axis-text-x" text-anchor="middle" dy="0.7em">
            300
            </text>
          </g>
        </g>
        <g transform="translate(241.81169050333088 0.0 ) ">
          <line stroke-width="1.0" stroke="rgb(187,187,187)" stroke-opacity="1.0" x2="0.0" y2="4.0">
          </line>
          <g transform="translate(0.0 7.0 ) ">
            <text class="axis-text-x" text-anchor="middle" dy="0.7em">
            400
            </text>
          </g>
        </g>
        <g transform="translate(324.2413294279453 0.0 ) ">
          <line stroke-width="1.0" stroke="rgb(187,187,187)" stroke-opacity="1.0" x2="0.0" y2="4.0">
          </line>
          <g transform="translate(0.0 7.0 ) ">
            <text class="axis-text-x" text-anchor="middle" dy="0.7em">
            500
            </text>
          </g>
        </g>
        <g transform="translate(406.6709683525597 0.0 ) ">
          <line stroke-width="1.0" stroke="rgb(187,187,187)" stroke-opacity="1.0" x2="0.0" y2="4.0">
          </line>
          <g transform="translate(0.0 7.0 ) ">
            <text class="axis-text-x" text-anchor="middle" dy="0.7em">
            600
            </text>
          </g>
        </g>
        <g transform="translate(489.10060727717416 0.0 ) ">
          <line stroke-width="1.0" stroke="rgb(187,187,187)" stroke-opacity="1.0" x2="0.0" y2="4.0">
          </line>
          <g transform="translate(0.0 7.0 ) ">
            <text class="axis-text-x" text-anchor="middle" dy="0.7em">
            700
            </text>
          </g>
        </g>
        <g transform="translate(571.5302462017886 0.0 ) ">
          <line stroke-width="1.0" stroke="rgb(187,187,187)" stroke-opacity="1.0" x2="0.0" y2="4.0">
          </line>
          <g transform="translate(0.0 7.0 ) ">
            <text class="axis-text-x" text-anchor="middle" dy="0.7em">
            800
            </text>
          </g>
        </g>
        <line x1="0.0" y1="0.0" x2="621.023482413314" y2="0.0" stroke-width="1.0" stroke="rgb(187,187,187)" stroke-opacity="1.0">
        </line>
      </g>
      <g transform="translate(50.97651758668602 0.0 ) ">
        <line x1="0.0" y1="340.4463647419375" x2="621.023482413314" y2="340.4463647419375" stroke="rgb(71,71,71)" stroke-opacity="1.0" stroke-width="1.0">
        </line>
        <line x1="0.0" y1="290.892729483875" x2="621.023482413314" y2="290.892729483875" stroke="rgb(71,71,71)" stroke-opacity="1.0" stroke-width="1.0">
        </line>
        <line x1="0.0" y1="241.3390942258125" x2="621.023482413314" y2="241.3390942258125" stroke="rgb(71,71,71)" stroke-opacity="1.0" stroke-width="1.0">
        </line>
        <line x1="0.0" y1="191.78545896774997" x2="621.023482413314" y2="191.78545896774997" stroke="rgb(71,71,71)" stroke-opacity="1.0" stroke-width="1.0">
        </line>
        <line x1="0.0" y1="142.2318237096875" x2="621.023482413314" y2="142.2318237096875" stroke="rgb(71,71,71)" stroke-opacity="1.0" stroke-width="1.0">
        </line>
        <line x1="0.0" y1="92.67818845162498" x2="621.023482413314" y2="92.67818845162498" stroke="rgb(71,71,71)" stroke-opacity="1.0" stroke-width="1.0">
        </line>
        <line x1="0.0" y1="43.12455319356246" x2="621.023482413314" y2="43.12455319356246" stroke="rgb(71,71,71)" stroke-opacity="1.0" stroke-width="1.0">
        </line>
        <g transform="translate(0.0 390.0 ) ">
          <g transform="translate(-3.0 0.0 ) ">
            <text class="axis-text-y" text-anchor="end" dy="0.35em">
            0.0000
            </text>
          </g>
        </g>
        <g transform="translate(0.0 340.4463647419375 ) ">
          <g transform="translate(-3.0 0.0 ) ">
            <text class="axis-text-y" text-anchor="end" dy="0.35em">
            0.0005
            </text>
          </g>
        </g>
        <g transform="translate(0.0 290.892729483875 ) ">
          <g transform="translate(-3.0 0.0 ) ">
            <text class="axis-text-y" text-anchor="end" dy="0.35em">
            0.0010
            </text>
          </g>
        </g>
        <g transform="translate(0.0 241.3390942258125 ) ">
          <g transform="translate(-3.0 0.0 ) ">
            <text class="axis-text-y" text-anchor="end" dy="0.35em">
            0.0015
            </text>
          </g>
        </g>
        <g transform="translate(0.0 191.78545896774997 ) ">
          <g transform="translate(-3.0 0.0 ) ">
            <text class="axis-text-y" text-anchor="end" dy="0.35em">
            0.0020
            </text>
          </g>
        </g>
        <g transform="translate(0.0 142.2318237096875 ) ">
          <g transform="translate(-3.0 0.0 ) ">
            <text class="axis-text-y" text-anchor="end" dy="0.35em">
            0.0025
            </text>
          </g>
        </g>
        <g transform="translate(0.0 92.67818845162498 ) ">
          <g transform="translate(-3.0 0.0 ) ">
            <text class="axis-text-y" text-anchor="end" dy="0.35em">
            0.0030
            </text>
          </g>
        </g>
        <g transform="translate(0.0 43.12455319356246 ) ">
          <g transform="translate(-3.0 0.0 ) ">
            <text class="axis-text-y" text-anchor="end" dy="0.35em">
            0.0035
            </text>
          </g>
        </g>
      </g>
      <g transform="translate(50.97651758668602 0.0 ) " clip-path="url(#xXxprefixXx1)" clip-bounds-jfx="[rect (0.0, 0.0), (621.023482413314, 390.0)]">
        <defs>
          <clipPath id="xXxprefixXx1">
            <rect x="0.0" y="0.0" width="621.023482413314" height="390.0">
            </rect>
          </clipPath>
        </defs>
        <g>
          <path d="M28.22834010969609 387.36036100751573 L28.22834010969609 387.36036100751573 L29.333167511249755 387.2574300185251 L30.43799491280342 387.1517694412835 L31.542822314357082 387.04311191497385 L32.647649715910745 386.9311954575441 L33.752477117464394 386.81577300415614 L34.85730451901806 386.69662236901536 L35.96213192057172 386.5735563775939 L37.066959322125385 386.4464328943517 L38.17178672367906 386.3151644559335 L39.276614125232726 386.1797272122895 L40.381441526786375 386.04016887883023 L41.486268928340024 385.8966154119508 L42.5910963298937 385.74927613816953 L43.69592373144735 385.59844709355866 L44.80075113300103 385.44451236469945 L45.90557853455471 385.28794326438134 L47.010405936108356 385.12929522376766 L48.11523333766203 384.96920233662104 L49.22006073921568 384.8083695490835 L50.32488814076936 384.6475625489484 L51.42971554232301 384.4875954697449 L52.53454294387666 384.3293165856211 L53.639370345430336 384.1735922312722 L54.744197746983986 384.02128923539533 L55.84902514853766 383.8732562047831 L56.95385255009134 383.73030403779177 L58.05867995164496 383.5931860792631 L59.16350735319864 383.4625783530126 L60.26833475475232 383.3390603218918 L61.373162156305966 383.22309662865194 L62.477989557859644 383.1150202630827 L63.58281695941329 383.01501758218194 L64.68764436096697 382.9231155806862 L65.79247176252062 382.83917176970874 L66.8972991640743 382.7628669722623 L68.00212656562798 382.69370128711944 L69.10695396718162 382.6309934079836 L70.21178136873527 382.57388341471125 L71.31660877028895 382.5213390788518 L72.4214361718426 382.4721656486929 L73.52626357339628 382.42501900100063 L74.63109097494993 382.3784219694506 L75.73591837650358 382.33078358507623 L76.84074577805725 382.28042089358445 L77.9455731796109 382.22558294971674 L79.05040058116458 382.16447653146236 L80.15522798271823 382.09529306823214 L81.26005538427191 382.01623623828954 L82.36488278582559 381.9255496628388 L83.46971018737923 381.821544108027 L84.57453758893291 381.7026236023263 L85.67936499048656 381.56730988570746 L86.78419239204024 381.4142646288098 L87.88901979359389 381.2423088948213 L88.99384719514754 381.05043936359743 L90.09867459670122 380.83784089599214 L91.20350199825486 380.6038950855017 L92.30832939980854 380.34818452293257 L93.41315680136219 380.0704925864396 L94.51798420291584 379.770798662266 L95.62281160446952 379.44926879897446 L96.7276390060232 379.10624189784255 L97.83246640757685 378.74221164223405 L98.93729380913052 378.35780446691075 L100.04212121068417 377.9537539621283 L101.14694861223785 377.53087219473065 L102.25177601379153 377.09001850715646 L103.35660341534518 376.63206642329123 L104.46143081689885 376.15786934563954 L105.56625821845248 375.6682257698097 L106.67108562000615 375.16384476857695 L107.77591302155983 374.645312507937 L108.88074042311348 374.1130605510995 L109.98556782466716 373.5673366832051 L111.0903952262208 373.00817895001825 L112.19522262777446 372.4353935486724 L113.30005002932813 371.8485371388583 L114.40487743088178 371.24690406011126 L115.50970483243546 370.62951884686646 L116.61453223398911 369.9951343297486 L117.71935963554279 369.34223550138574 L118.82418703709646 368.6690492102494 L119.92901443865011 367.9735596290628 L121.03384184020379 367.2535293276052 L122.13866924175744 366.506525665635 L123.24349664331106 365.7299521123969 L124.3483240448648 364.92108399684054 L125.45315144641842 364.07710809912925 L126.55797884797212 363.1951654108956 L127.66280624952574 362.27239632042784 L128.7676336510794 361.3059874206901 L129.87246105263307 360.29321909375136 L130.97728845418672 359.231512995524 L132.0821158557404 358.11847855022376 L133.18694325729408 356.9519575650043 L134.29177065884772 355.7300660919734 L135.3965980604014 354.45123269730755 L136.50142546195505 353.11423234534766 L137.60625286350873 351.7182151691306 L138.7110802650624 350.2627294773996 L139.815907666616 348.7477384411419 L140.92073506816973 347.1736300093409 L142.02556246972335 345.5412197228491 L143.13038987127706 343.8517462257342 L144.23521727283068 342.1068594134624 L145.3400446743844 340.30860130478715 L146.444872075938 338.45937987678764 L147.54969947749169 336.56193625728395 L148.65452687904533 334.6193058226228 L149.759354280599 332.63477389798396 L150.86418168215266 330.61182689802297 L151.96900908370634 328.5540998737692 L153.07383648526002 326.46532154307175 L154.17866388681367 324.3492579724184 L155.28349128836734 322.2096561437655 L156.388318689921 320.05018867760134 L157.49314609147467 317.87440098987304 L158.5979734930283 315.685662133461 L159.702800894582 313.48712051324543 L160.80762829613562 311.28166556725074 L161.91245569768932 309.07189637569195 L163.01728309924295 306.86009799710166 L164.12211050079665 304.64822613933325 L165.22693790235027 302.437900557622 L166.33176530390395 300.2304073375561 L167.4365927054576 298.026709974362 L168.5414201070113 295.8274689085127 L169.64624750856493 293.63306892921565 L170.7510749101186 291.4436536198291 L171.85590231167228 289.25916580068673 L172.96072971322596 287.07939273286615 L174.06555711477958 284.9040146880627 L175.1703845163332 282.7326553709749 L176.27521191788693 280.56493260629804 L177.38003931944056 278.4005076759149 L178.4848667209943 276.2391317149893 L179.5896941225479 274.0806876484424 L180.6945215241016 271.9252262701127 L181.7993489256552 269.77299523237645 L182.9041763272089 267.6244599191683 L184.00900372876256 265.4803154138534 L185.11383113031624 263.341489037604 L186.21865853186986 261.20913321540786 L187.32348593342354 259.08460871644036 L188.42831333497722 256.9694586039451 L189.5331407365309 254.8653735077443 L190.63796813808457 252.77414909123831 L191.7427955396382 250.69763681620606 L192.84762294119187 248.63768930592397 L193.9524503427455 246.59610176435564 L195.05727774429923 244.57455102222838 L196.16210514585285 242.57453384707642 L197.26693254740653 240.59730617279337 L198.37175994896015 238.64382487556264 L199.47658735051388 236.71469364939122 L200.5814147520675 234.81011441948684 L201.68624215362118 232.9298455801291 L202.7910695551748 231.0731681613553 L203.89589695672848 229.23886082216566 L205.00072435828216 227.4251843439564 L206.10555175983583 225.62987606370677 L207.2103791613895 223.85015444894256 L208.31520656294313 222.08273378239159 L209.4200339644968 220.32384869955624 L210.52486136605043 218.56928811243898 L211.62968876760416 216.8144378618516 L212.73451616915779 215.05433127256686 L213.83934357071146 213.28370664254925 L214.94417097226508 211.4970705811935 L216.04899837381882 209.68876602254176 L217.15382577537244 207.85304367775464 L218.25865317692612 205.98413565580077 L219.3634805784798 204.076329971181 L220.46830798003342 202.1240446707268 L221.5731353815871 200.12190034623373 L222.67796278314077 198.06478985387693 L223.78279018469445 195.94794413299599 L224.88761758624807 193.76699310402105 L225.99244498780175 191.51802072630952 L227.09727238935542 189.19761340985593 L228.2020997909091 186.80290109879934 L229.30692719246272 184.33159047809994 L230.4117545940164 181.7819898963145 L231.51658199557002 179.1530257458454 L232.62140939712376 176.44425019576698 L233.72623679867738 173.6558403297854 L234.8310642002311 170.78858890087844 L235.93589160178473 167.84388707245606 L237.04071900333835 164.8236996705689 L238.14554640489203 161.73053361967106 L239.2503738064457 158.5674003721197 L240.3552012079994 155.33777326526464 L241.46002860955306 152.0455408456251 L242.56485601110668 148.69495728347354 L243.66968341266036 145.29059105941047 L244.77451081421404 141.83727313398913 L245.87933821576772 138.3400458094872 L246.9841656173214 134.80411345774752 L248.08899301887502 131.2347962188053 L249.1938204204287 127.63748767215037 L250.2986478219823 124.01761734755667 L251.403475223536 120.38061877836918 L252.50830262508967 116.73190361115275 L253.6131300266433 113.07684207705438 L254.71795742819697 109.42074990863114 L255.82278482975065 105.76888155841908 L256.92761223130435 102.1264293501867 L258.032439632858 98.49852797858762 L259.1372670344116 94.89026357611476 L260.2420944359653 91.30668639526704 L261.34692183751895 87.752826015874 L262.4517492390727 84.23370788818363 L263.5565766406263 80.75436996619771 L264.6614040421799 77.31987817579983 L265.76623144373366 73.93533949932123 L266.8710588452873 70.60591154194424 L267.9758862468409 67.33680757283145 L269.08071364839464 64.13329620096056 L270.18554104994826 61.00069504610747 L271.2903684515019 57.94435799208526 L272.3951958530556 54.969655853381084 L273.50002325460923 52.08195053877006 L274.60485065616297 49.28656304645261 L275.7096780577166 46.588735865187914 L276.8145054592702 43.993590575655446 L277.91933286082394 41.506081637340856 L279.02416026237756 39.13094750149918 L280.1289876639313 36.87266030437013 L281.2338150654849 34.73537546270222 L282.33864246703854 32.72288251356855 L283.4434698685923 30.83855851216265 L284.5482972701459 29.085325226216696 L285.6531246716995 27.46561124751264 L286.75795207325325 25.98131998472246 L287.86277947480687 24.633804314001395 L288.9676068763605 23.42384845236313 L290.0724342779142 22.35165739220531 L291.17726167946785 21.41685400266391 L292.2820890810216 20.618483673818844 L293.3869164825752 19.955026162085005 L294.4917438841288 19.424414097447368 L295.59657128568256 19.024057443088225 L296.7013986872362 18.750873061023754 L297.8062260887899 18.60131843847836 L298.91105349034353 18.571428571428555 L300.01588089189715 18.656854985395853 L301.1207082934509 18.8529058982665 L302.2255356950045 19.15458659352754 L303.33036309655813 19.556639170590927 L304.43519049811175 20.053580966585628 L305.5400178996655 20.639741094630097 L306.6448453012191 21.309294709363428 L307.74967270277284 22.05629478391006 L308.85450010432646 22.874701354749334 L309.9593275058801 23.758408354476444 L311.0641549074338 24.701268299349863 L312.16898230898744 25.697115222251455 L313.2738097105412 26.73978633643071 L314.3786371120948 27.823142977077396 L315.4834645136484 28.941091393490694 L316.58829191520215 30.087603953422786 L317.69311931675577 31.25674127376186 L318.7979467183095 32.44267571037483 L319.9027741198631 33.63971652868639 L321.00760152141675 34.84233694083565 L322.11242892297037 36.04520304148309 L323.2172563245241 37.243204510202986 L324.3220837260777 38.43148678174151 L325.42691112763146 39.60548422461687 L326.5317385291851 40.76095372161785 L327.6365659307387 41.89400792020024 L328.74139333229243 43.001147323331 L329.84622073384605 44.07929032729487 L330.9510481353998 45.12580028647568 L332.0558755369534 46.13850869831805 L333.16070293850703 47.11573365529165 L334.26553034006076 48.0562928033026 L335.3703577416145 48.95951017467314 L336.4751851431681 49.82521642386746 L337.58001254472174 50.65374217937989 L338.68483994627536 51.445904428447534 L339.789667347829 52.2029860641951 L340.8944947493826 52.926708938968716 L341.99932215093634 53.61920097408699 L343.10414955249007 54.28295806668956 L344.2089769540437 54.920801700781226 L345.3138043555973 55.5358333054358 L346.41863175715105 56.13138650255462 L347.5234591587048 56.71097844588087 L348.6282865602584 57.27826146966032 L349.7331139618119 57.83697623892624 L350.83794136336564 58.39090752514471 L351.9427687649194 58.94384362372074 L353.047596166473 59.49954028824709 L354.1524235680266 60.06168988599234 L355.25725096958035 60.63389628700935 L356.362078371134 61.21965579280169 L357.4669057726876 61.82234419781503 L358.57173317424133 62.445209866048685 L359.67656057579495 63.09137250367763 L360.7813879773486 63.76382712368979 L361.8862153789022 64.4654525367265 L362.9910427804559 65.19902356843113 L364.09587018200966 65.96722610192319 L365.2006975835633 66.77267397680146 L366.3055249851169 67.61792674469535 L367.41035238667064 68.5055072855074 L368.5151797882244 69.43791832665829 L369.620007189778 70.41765697709644 L370.7248345913316 71.4472264849606 L371.82966199288524 72.52914454799583 L372.93448939443886 73.66594764413321 L374.0393167959925 74.86019100054585 L375.1441441975462 76.11444397753428 L376.24897159909995 77.43128080322958 L377.35379900065357 78.81326675121466 L378.4586264022072 80.26294000104372 L379.5634538037609 81.7827895570802 L380.66828120531466 83.37522972069718 L381.7731086068683 85.04257171192734 L382.8779360084219 86.7869931171719 L383.9827634099755 88.61050589843893 L385.08759081152925 90.51492373634102 L386.1924182130829 92.501829493961 L387.2972456146365 94.57254358264657 L388.40207301619023 96.72809398514596 L389.50690041774396 98.96918864811505 L390.6117278192976 101.29619089711923 L391.7165552208512 103.70909845515126 L392.82138262240494 106.20752656303199 L393.92621002395856 108.79069560940297 L395.0310374255122 111.45742358194002 L396.1358648270658 114.2061235524348 L397.24069222861954 117.03480630875083 L398.34551963017316 119.94108814856673 L399.4503470317268 122.92220375502558 L400.5551744332805 125.97502398459625 L401.66000183483425 129.0960783138769 L402.76482923638787 132.2815816157713 L403.8696566379415 135.52746486717322 L404.9744840394951 138.82940933049946 L406.07931144104884 142.18288370036305 L407.18413884260247 145.58318366445528 L408.2889662441561 149.02547329415333 L409.3937936457098 152.50482765538428 L410.49862104726344 156.01627601348486 L411.60344844881706 159.55484499700964 L412.7082758503708 163.11560108432522 L413.81310325192453 166.69369178325528 L414.91793065347815 170.28438488785338 L416.0227580550318 173.8831052175728 L417.1275854565854 177.48546827278366 L418.2324128581391 181.087310276923 L419.33724025969275 184.68471411977376 L420.44206766124637 188.27403076875405 L421.5468950628001 191.85189577584174 L422.65172246435384 195.41524057704441 L423.75654986590746 198.96129835910423 L424.8613772674611 202.4876043541684 L425.9662046690147 205.99199051693435 L427.0710320705683 209.4725746394294 L428.17585947212194 212.92774406484153 L429.2806868736757 216.35613427202554 L430.3855142752294 219.75660271440063 L431.49034167678303 223.12819840847234 L432.59516907833665 226.47012787533126 L433.6999964798904 229.7817181401549 L434.8048238814441 233.06237758669872 L435.90965128299774 236.3115555427144 L437.01447868455125 239.5287015349203 L438.119306086105 242.71322519557668 L439.2241334876587 245.86445782421092 L440.32896088921234 248.98161660545819 L441.43378829076596 252.06377245579284 L442.5386156923197 255.10982241738603 L443.6434430938733 258.1184674364798 L444.74827049542694 261.08819625749913 L445.85309789698067 264.01727603446017 L446.9579252985343 266.9037501108961 L448.0627527000879 269.7454432520362 L449.16758010164153 272.5399744327106 L450.27240750319527 275.28477709631034 L451.377234904749 277.9771266094836 L452.4820623063026 280.6141744496982 L453.58688970785624 283.19298848398745 L454.69171710941 285.7105985326297 L455.7965445109636 288.1640462662806 L456.90137191251733 290.55043836372346 L458.00619931407095 292.86700176370795 L459.1110267156246 295.11113978122245 L460.2158541171782 297.2804878278353 L461.32068151873193 299.3729674782978 L462.42550892028555 301.3868376610902 L463.5303363218393 303.3207418176654 L464.6351637233929 305.17374997137233 L465.73999112494664 306.94539476914554 L466.84481852650026 308.6357007028969 L467.949645928054 310.24520587848866 L469.0544733296076 311.7749758730522 L470.15930073116124 313.22660940095636 L471.26412813271486 314.60223568955524 L472.3689555342685 315.9045036428415 L473.4737829358222 317.13656303949887 L474.57861033737584 318.30203816735946 L475.68343773892957 319.404994435334 L476.7882651404832 320.4498986236674 L477.8930925420369 321.4415735318723 L478.99791994359055 322.38514785972023 L480.1027473451443 323.2860022098738 L481.2075747466979 324.14971213152694 L482.3124021482515 324.98198913389257 L483.41722954980514 325.7886205882096 L484.5220569513589 326.5754094092989 L485.6268843529125 327.3481143650449 L486.73171175446623 328.1123918072063 L487.83653915601985 328.8737395523963 L488.9413665575735 329.6374435706149 L490.0461939591272 330.4085280628726 L491.15102136068083 331.19170943150027 L492.25584876223445 331.9913545686468 L493.36067616378807 332.8114438118201 L494.4655035653418 333.6555388413776 L495.5703309668954 334.52675572445924 L496.67515836844916 335.42774324352706 L497.7799857700028 336.36066658563124 L498.8848131715565 337.32719641075073 L499.98964057311014 338.3285032638432 L501.09446797466387 339.36525724524677 L502.1992953762175 340.4376328074214 L503.3041227777711 341.54531850230677 L504.40895017932473 342.6875314624628 L505.51377758087835 343.86303636040725 L506.6186049824321 345.0701685540296 L507.7234323839857 346.3068610916448 L508.82825978553944 347.570675218292 L509.93308718709307 348.8588339955213 L511.0379145886468 350.1682586205345 L512.1427419902004 351.4956070075629 L513.2475693917542 352.8373141752871 L514.3523967933078 354.18963396940615 L515.4572241948614 355.5486816396397 L516.562051596415 356.9104767858844 L517.6668789979688 358.2709861893151 L518.7717063995224 359.62616605110463 L519.8765338010761 360.9720031742743 L520.9813612026297 362.3045546429186 L522.0861886041835 363.61998557753805 L523.1910160057371 364.91460457513995 L524.2958434072907 366.1848964777524 L525.4006708088444 367.4275521524911 L526.5054982103981 368.6394950097519 L527.6103256119517 369.817904032783 L528.7151530135053 370.96023314111324 L529.819980415059 372.0642267613348 L530.9248078166127 373.1279315307933 L532.0296352181664 374.14970411208554 L533.13446261972 375.12821514815306 L534.2392900212737 376.06244943849185 L535.3441174228274 376.9517024658701 L536.4489448243811 377.7955734493305 L537.5537722259347 378.5939551425222 L538.6585996274883 379.3470206360017 L539.763427029042 380.0552074575182 L540.8682544305957 380.71919929498483 L541.9730818321493 381.33990569237443 L543.0779092337029 381.91844008879264 L544.1827366352567 382.4560965851309 L545.2875640368103 382.9543258307281 L546.392391438364 383.4147104241819 L547.4972188399177 383.83894021775046 L548.6020462414713 384.22878790367145 L549.7068736430249 384.5860852433043 L550.8117010445786 384.91270027650626 L551.9165284461322 385.2105158194304 L553.021355847686 385.4814095244752 L554.1261832492396 385.72723573702973 L555.2310106507933 385.94980934068883 L556.335838052347 386.15089173661244 L557.4406654539007 386.3321790546309 L558.5454928554543 386.49529264458744 L559.6503202570079 386.6417718473631 L560.7551476585616 386.77306899716007 L561.8599750601152 386.89054656105907 L562.9648024616689 386.99547627969235 L564.0696298632225 387.08904013510414 L565.1744572647763 387.17233293941695 L566.2792846663299 387.24636631156153 L567.3841120678836 387.31207378967804 L568.4889394694372 387.37031681428505 L569.593766870991 387.4218913121709 L570.6985942725446 387.4675346132045 L571.8034216740982 387.50793244168756 L572.9082490756518 387.5437257400661 L574.0130764772056 387.5755171051761 L575.1179038787592 387.60387664491043 L576.2227312803128 387.629347095331 L577.3275586818665 387.65244807371704 L578.4323860834202 387.67367938068935 L579.5372134849739 387.6935233031654 L580.6420408865275 387.7124459082591 L581.7468682880813 387.73089735515805 L582.8516956896349 387.74931128637905 L583.9565230911885 387.7681033906053 L585.0613504927421 387.7876692556941 L586.1661778942959 387.8083816517122 L587.2710052958495 387.83058739949865 L588.3758326974032 387.8546039899799 L589.4806600989568 387.88071612316037 L590.5854875005106 387.909172333507 L591.6903149020642 387.9401818606356 L592.7951423036178 387.97391191127997 L592.7951423036178 390.0 L591.6903149020642 390.0 L590.5854875005106 390.0 L589.4806600989568 390.0 L588.3758326974032 390.0 L587.2710052958495 390.0 L586.1661778942959 390.0 L585.0613504927421 390.0 L583.9565230911885 390.0 L582.8516956896349 390.0 L581.7468682880813 390.0 L580.6420408865275 390.0 L579.5372134849739 390.0 L578.4323860834202 390.0 L577.3275586818665 390.0 L576.2227312803128 390.0 L575.1179038787592 390.0 L574.0130764772056 390.0 L572.9082490756518 390.0 L571.8034216740982 390.0 L570.6985942725446 390.0 L569.593766870991 390.0 L568.4889394694372 390.0 L567.3841120678836 390.0 L566.2792846663299 390.0 L565.1744572647763 390.0 L564.0696298632225 390.0 L562.9648024616689 390.0 L561.8599750601152 390.0 L560.7551476585616 390.0 L559.6503202570079 390.0 L558.5454928554543 390.0 L557.4406654539007 390.0 L556.335838052347 390.0 L555.2310106507933 390.0 L554.1261832492396 390.0 L553.021355847686 390.0 L551.9165284461322 390.0 L550.8117010445786 390.0 L549.7068736430249 390.0 L548.6020462414713 390.0 L547.4972188399177 390.0 L546.392391438364 390.0 L545.2875640368103 390.0 L544.1827366352567 390.0 L543.0779092337029 390.0 L541.9730818321493 390.0 L540.8682544305957 390.0 L539.763427029042 390.0 L538.6585996274883 390.0 L537.5537722259347 390.0 L536.4489448243811 390.0 L535.3441174228274 390.0 L534.2392900212737 390.0 L533.13446261972 390.0 L532.0296352181664 390.0 L530.9248078166127 390.0 L529.819980415059 390.0 L528.7151530135053 390.0 L527.6103256119517 390.0 L526.5054982103981 390.0 L525.4006708088444 390.0 L524.2958434072907 390.0 L523.1910160057371 390.0 L522.0861886041835 390.0 L520.9813612026297 390.0 L519.8765338010761 390.0 L518.7717063995224 390.0 L517.6668789979688 390.0 L516.562051596415 390.0 L515.4572241948614 390.0 L514.3523967933078 390.0 L513.2475693917542 390.0 L512.1427419902004 390.0 L511.0379145886468 390.0 L509.93308718709307 390.0 L508.82825978553944 390.0 L507.7234323839857 390.0 L506.6186049824321 390.0 L505.51377758087835 390.0 L504.40895017932473 390.0 L503.3041227777711 390.0 L502.1992953762175 390.0 L501.09446797466387 390.0 L499.98964057311014 390.0 L498.8848131715565 390.0 L497.7799857700028 390.0 L496.67515836844916 390.0 L495.5703309668954 390.0 L494.4655035653418 390.0 L493.36067616378807 390.0 L492.25584876223445 390.0 L491.15102136068083 390.0 L490.0461939591272 390.0 L488.9413665575735 390.0 L487.83653915601985 390.0 L486.73171175446623 390.0 L485.6268843529125 390.0 L484.5220569513589 390.0 L483.41722954980514 390.0 L482.3124021482515 390.0 L481.2075747466979 390.0 L480.1027473451443 390.0 L478.99791994359055 390.0 L477.8930925420369 390.0 L476.7882651404832 390.0 L475.68343773892957 390.0 L474.57861033737584 390.0 L473.4737829358222 390.0 L472.3689555342685 390.0 L471.26412813271486 390.0 L470.15930073116124 390.0 L469.0544733296076 390.0 L467.949645928054 390.0 L466.84481852650026 390.0 L465.73999112494664 390.0 L464.6351637233929 390.0 L463.5303363218393 390.0 L462.42550892028555 390.0 L461.32068151873193 390.0 L460.2158541171782 390.0 L459.1110267156246 390.0 L458.00619931407095 390.0 L456.90137191251733 390.0 L455.7965445109636 390.0 L454.69171710941 390.0 L453.58688970785624 390.0 L452.4820623063026 390.0 L451.377234904749 390.0 L450.27240750319527 390.0 L449.16758010164153 390.0 L448.0627527000879 390.0 L446.9579252985343 390.0 L445.85309789698067 390.0 L444.74827049542694 390.0 L443.6434430938733 390.0 L442.5386156923197 390.0 L441.43378829076596 390.0 L440.32896088921234 390.0 L439.2241334876587 390.0 L438.119306086105 390.0 L437.01447868455125 390.0 L435.90965128299774 390.0 L434.8048238814441 390.0 L433.6999964798904 390.0 L432.59516907833665 390.0 L431.49034167678303 390.0 L430.3855142752294 390.0 L429.2806868736757 390.0 L428.17585947212194 390.0 L427.0710320705683 390.0 L425.9662046690147 390.0 L424.8613772674611 390.0 L423.75654986590746 390.0 L422.65172246435384 390.0 L421.5468950628001 390.0 L420.44206766124637 390.0 L419.33724025969275 390.0 L418.2324128581391 390.0 L417.1275854565854 390.0 L416.0227580550318 390.0 L414.91793065347815 390.0 L413.81310325192453 390.0 L412.7082758503708 390.0 L411.60344844881706 390.0 L410.49862104726344 390.0 L409.3937936457098 390.0 L408.2889662441561 390.0 L407.18413884260247 390.0 L406.07931144104884 390.0 L404.9744840394951 390.0 L403.8696566379415 390.0 L402.76482923638787 390.0 L401.66000183483425 390.0 L400.5551744332805 390.0 L399.4503470317268 390.0 L398.34551963017316 390.0 L397.24069222861954 390.0 L396.1358648270658 390.0 L395.0310374255122 390.0 L393.92621002395856 390.0 L392.82138262240494 390.0 L391.7165552208512 390.0 L390.6117278192976 390.0 L389.50690041774396 390.0 L388.40207301619023 390.0 L387.2972456146365 390.0 L386.1924182130829 390.0 L385.08759081152925 390.0 L383.9827634099755 390.0 L382.8779360084219 390.0 L381.7731086068683 390.0 L380.66828120531466 390.0 L379.5634538037609 390.0 L378.4586264022072 390.0 L377.35379900065357 390.0 L376.24897159909995 390.0 L375.1441441975462 390.0 L374.0393167959925 390.0 L372.93448939443886 390.0 L371.82966199288524 390.0 L370.7248345913316 390.0 L369.620007189778 390.0 L368.5151797882244 390.0 L367.41035238667064 390.0 L366.3055249851169 390.0 L365.2006975835633 390.0 L364.09587018200966 390.0 L362.9910427804559 390.0 L361.8862153789022 390.0 L360.7813879773486 390.0 L359.67656057579495 390.0 L358.57173317424133 390.0 L357.4669057726876 390.0 L356.362078371134 390.0 L355.25725096958035 390.0 L354.1524235680266 390.0 L353.047596166473 390.0 L351.9427687649194 390.0 L350.83794136336564 390.0 L349.7331139618119 390.0 L348.6282865602584 390.0 L347.5234591587048 390.0 L346.41863175715105 390.0 L345.3138043555973 390.0 L344.2089769540437 390.0 L343.10414955249007 390.0 L341.99932215093634 390.0 L340.8944947493826 390.0 L339.789667347829 390.0 L338.68483994627536 390.0 L337.58001254472174 390.0 L336.4751851431681 390.0 L335.3703577416145 390.0 L334.26553034006076 390.0 L333.16070293850703 390.0 L332.0558755369534 390.0 L330.9510481353998 390.0 L329.84622073384605 390.0 L328.74139333229243 390.0 L327.6365659307387 390.0 L326.5317385291851 390.0 L325.42691112763146 390.0 L324.3220837260777 390.0 L323.2172563245241 390.0 L322.11242892297037 390.0 L321.00760152141675 390.0 L319.9027741198631 390.0 L318.7979467183095 390.0 L317.69311931675577 390.0 L316.58829191520215 390.0 L315.4834645136484 390.0 L314.3786371120948 390.0 L313.2738097105412 390.0 L312.16898230898744 390.0 L311.0641549074338 390.0 L309.9593275058801 390.0 L308.85450010432646 390.0 L307.74967270277284 390.0 L306.6448453012191 390.0 L305.5400178996655 390.0 L304.43519049811175 390.0 L303.33036309655813 390.0 L302.2255356950045 390.0 L301.1207082934509 390.0 L300.01588089189715 390.0 L298.91105349034353 390.0 L297.8062260887899 390.0 L296.7013986872362 390.0 L295.59657128568256 390.0 L294.4917438841288 390.0 L293.3869164825752 390.0 L292.2820890810216 390.0 L291.17726167946785 390.0 L290.0724342779142 390.0 L288.9676068763605 390.0 L287.86277947480687 390.0 L286.75795207325325 390.0 L285.6531246716995 390.0 L284.5482972701459 390.0 L283.4434698685923 390.0 L282.33864246703854 390.0 L281.2338150654849 390.0 L280.1289876639313 390.0 L279.02416026237756 390.0 L277.91933286082394 390.0 L276.8145054592702 390.0 L275.7096780577166 390.0 L274.60485065616297 390.0 L273.50002325460923 390.0 L272.3951958530556 390.0 L271.2903684515019 390.0 L270.18554104994826 390.0 L269.08071364839464 390.0 L267.9758862468409 390.0 L266.8710588452873 390.0 L265.76623144373366 390.0 L264.6614040421799 390.0 L263.5565766406263 390.0 L262.4517492390727 390.0 L261.34692183751895 390.0 L260.2420944359653 390.0 L259.1372670344116 390.0 L258.032439632858 390.0 L256.92761223130435 390.0 L255.82278482975065 390.0 L254.71795742819697 390.0 L253.6131300266433 390.0 L252.50830262508967 390.0 L251.403475223536 390.0 L250.2986478219823 390.0 L249.1938204204287 390.0 L248.08899301887502 390.0 L246.9841656173214 390.0 L245.87933821576772 390.0 L244.77451081421404 390.0 L243.66968341266036 390.0 L242.56485601110668 390.0 L241.46002860955306 390.0 L240.3552012079994 390.0 L239.2503738064457 390.0 L238.14554640489203 390.0 L237.04071900333835 390.0 L235.93589160178473 390.0 L234.8310642002311 390.0 L233.72623679867738 390.0 L232.62140939712376 390.0 L231.51658199557002 390.0 L230.4117545940164 390.0 L229.30692719246272 390.0 L228.2020997909091 390.0 L227.09727238935542 390.0 L225.99244498780175 390.0 L224.88761758624807 390.0 L223.78279018469445 390.0 L222.67796278314077 390.0 L221.5731353815871 390.0 L220.46830798003342 390.0 L219.3634805784798 390.0 L218.25865317692612 390.0 L217.15382577537244 390.0 L216.04899837381882 390.0 L214.94417097226508 390.0 L213.83934357071146 390.0 L212.73451616915779 390.0 L211.62968876760416 390.0 L210.52486136605043 390.0 L209.4200339644968 390.0 L208.31520656294313 390.0 L207.2103791613895 390.0 L206.10555175983583 390.0 L205.00072435828216 390.0 L203.89589695672848 390.0 L202.7910695551748 390.0 L201.68624215362118 390.0 L200.5814147520675 390.0 L199.47658735051388 390.0 L198.37175994896015 390.0 L197.26693254740653 390.0 L196.16210514585285 390.0 L195.05727774429923 390.0 L193.9524503427455 390.0 L192.84762294119187 390.0 L191.7427955396382 390.0 L190.63796813808457 390.0 L189.5331407365309 390.0 L188.42831333497722 390.0 L187.32348593342354 390.0 L186.21865853186986 390.0 L185.11383113031624 390.0 L184.00900372876256 390.0 L182.9041763272089 390.0 L181.7993489256552 390.0 L180.6945215241016 390.0 L179.5896941225479 390.0 L178.4848667209943 390.0 L177.38003931944056 390.0 L176.27521191788693 390.0 L175.1703845163332 390.0 L174.06555711477958 390.0 L172.96072971322596 390.0 L171.85590231167228 390.0 L170.7510749101186 390.0 L169.64624750856493 390.0 L168.5414201070113 390.0 L167.4365927054576 390.0 L166.33176530390395 390.0 L165.22693790235027 390.0 L164.12211050079665 390.0 L163.01728309924295 390.0 L161.91245569768932 390.0 L160.80762829613562 390.0 L159.702800894582 390.0 L158.5979734930283 390.0 L157.49314609147467 390.0 L156.388318689921 390.0 L155.28349128836734 390.0 L154.17866388681367 390.0 L153.07383648526002 390.0 L151.96900908370634 390.0 L150.86418168215266 390.0 L149.759354280599 390.0 L148.65452687904533 390.0 L147.54969947749169 390.0 L146.444872075938 390.0 L145.3400446743844 390.0 L144.23521727283068 390.0 L143.13038987127706 390.0 L142.02556246972335 390.0 L140.92073506816973 390.0 L139.815907666616 390.0 L138.7110802650624 390.0 L137.60625286350873 390.0 L136.50142546195505 390.0 L135.3965980604014 390.0 L134.29177065884772 390.0 L133.18694325729408 390.0 L132.0821158557404 390.0 L130.97728845418672 390.0 L129.87246105263307 390.0 L128.7676336510794 390.0 L127.66280624952574 390.0 L126.55797884797212 390.0 L125.45315144641842 390.0 L124.3483240448648 390.0 L123.24349664331106 390.0 L122.13866924175744 390.0 L121.03384184020379 390.0 L119.92901443865011 390.0 L118.82418703709646 390.0 L117.71935963554279 390.0 L116.61453223398911 390.0 L115.50970483243546 390.0 L114.40487743088178 390.0 L113.30005002932813 390.0 L112.19522262777446 390.0 L111.0903952262208 390.0 L109.98556782466716 390.0 L108.88074042311348 390.0 L107.77591302155983 390.0 L106.67108562000615 390.0 L105.56625821845248 390.0 L104.46143081689885 390.0 L103.35660341534518 390.0 L102.25177601379153 390.0 L101.14694861223785 390.0 L100.04212121068417 390.0 L98.93729380913052 390.0 L97.83246640757685 390.0 L96.7276390060232 390.0 L95.62281160446952 390.0 L94.51798420291584 390.0 L93.41315680136219 390.0 L92.30832939980854 390.0 L91.20350199825486 390.0 L90.09867459670122 390.0 L88.99384719514754 390.0 L87.88901979359389 390.0 L86.78419239204024 390.0 L85.67936499048656 390.0 L84.57453758893291 390.0 L83.46971018737923 390.0 L82.36488278582559 390.0 L81.26005538427191 390.0 L80.15522798271823 390.0 L79.05040058116458 390.0 L77.9455731796109 390.0 L76.84074577805725 390.0 L75.73591837650358 390.0 L74.63109097494993 390.0 L73.52626357339628 390.0 L72.4214361718426 390.0 L71.31660877028895 390.0 L70.21178136873527 390.0 L69.10695396718162 390.0 L68.00212656562798 390.0 L66.8972991640743 390.0 L65.79247176252062 390.0 L64.68764436096697 390.0 L63.58281695941329 390.0 L62.477989557859644 390.0 L61.373162156305966 390.0 L60.26833475475232 390.0 L59.16350735319864 390.0 L58.05867995164496 390.0 L56.95385255009134 390.0 L55.84902514853766 390.0 L54.744197746983986 390.0 L53.639370345430336 390.0 L52.53454294387666 390.0 L51.42971554232301 390.0 L50.32488814076936 390.0 L49.22006073921568 390.0 L48.11523333766203 390.0 L47.010405936108356 390.0 L45.90557853455471 390.0 L44.80075113300103 390.0 L43.69592373144735 390.0 L42.5910963298937 390.0 L41.486268928340024 390.0 L40.381441526786375 390.0 L39.276614125232726 390.0 L38.17178672367906 390.0 L37.066959322125385 390.0 L35.96213192057172 390.0 L34.85730451901806 390.0 L33.752477117464394 390.0 L32.647649715910745 390.0 L31.542822314357082 390.0 L30.43799491280342 390.0 L29.333167511249755 390.0 L28.22834010969609 390.0 Z" fill="rgb(187,187,187)" stroke-width="1.0" fill-opacity="0.10196078431372549">
          </path>
        </g>
        <g>
          <path d="M28.22834010969609 387.36036100751573 L28.22834010969609 387.36036100751573 L29.333167511249755 387.2574300185251 L30.43799491280342 387.1517694412835 L31.542822314357082 387.04311191497385 L32.647649715910745 386.9311954575441 L33.752477117464394 386.81577300415614 L34.85730451901806 386.69662236901536 L35.96213192057172 386.5735563775939 L37.066959322125385 386.4464328943517 L38.17178672367906 386.3151644559335 L39.276614125232726 386.1797272122895 L40.381441526786375 386.04016887883023 L41.486268928340024 385.8966154119508 L42.5910963298937 385.74927613816953 L43.69592373144735 385.59844709355866 L44.80075113300103 385.44451236469945 L45.90557853455471 385.28794326438134 L47.010405936108356 385.12929522376766 L48.11523333766203 384.96920233662104 L49.22006073921568 384.8083695490835 L50.32488814076936 384.6475625489484 L51.42971554232301 384.4875954697449 L52.53454294387666 384.3293165856211 L53.639370345430336 384.1735922312722 L54.744197746983986 384.02128923539533 L55.84902514853766 383.8732562047831 L56.95385255009134 383.73030403779177 L58.05867995164496 383.5931860792631 L59.16350735319864 383.4625783530126 L60.26833475475232 383.3390603218918 L61.373162156305966 383.22309662865194 L62.477989557859644 383.1150202630827 L63.58281695941329 383.01501758218194 L64.68764436096697 382.9231155806862 L65.79247176252062 382.83917176970874 L66.8972991640743 382.7628669722623 L68.00212656562798 382.69370128711944 L69.10695396718162 382.6309934079836 L70.21178136873527 382.57388341471125 L71.31660877028895 382.5213390788518 L72.4214361718426 382.4721656486929 L73.52626357339628 382.42501900100063 L74.63109097494993 382.3784219694506 L75.73591837650358 382.33078358507623 L76.84074577805725 382.28042089358445 L77.9455731796109 382.22558294971674 L79.05040058116458 382.16447653146236 L80.15522798271823 382.09529306823214 L81.26005538427191 382.01623623828954 L82.36488278582559 381.9255496628388 L83.46971018737923 381.821544108027 L84.57453758893291 381.7026236023263 L85.67936499048656 381.56730988570746 L86.78419239204024 381.4142646288098 L87.88901979359389 381.2423088948213 L88.99384719514754 381.05043936359743 L90.09867459670122 380.83784089599214 L91.20350199825486 380.6038950855017 L92.30832939980854 380.34818452293257 L93.41315680136219 380.0704925864396 L94.51798420291584 379.770798662266 L95.62281160446952 379.44926879897446 L96.7276390060232 379.10624189784255 L97.83246640757685 378.74221164223405 L98.93729380913052 378.35780446691075 L100.04212121068417 377.9537539621283 L101.14694861223785 377.53087219473065 L102.25177601379153 377.09001850715646 L103.35660341534518 376.63206642329123 L104.46143081689885 376.15786934563954 L105.56625821845248 375.6682257698097 L106.67108562000615 375.16384476857695 L107.77591302155983 374.645312507937 L108.88074042311348 374.1130605510995 L109.98556782466716 373.5673366832051 L111.0903952262208 373.00817895001825 L112.19522262777446 372.4353935486724 L113.30005002932813 371.8485371388583 L114.40487743088178 371.24690406011126 L115.50970483243546 370.62951884686646 L116.61453223398911 369.9951343297486 L117.71935963554279 369.34223550138574 L118.82418703709646 368.6690492102494 L119.92901443865011 367.9735596290628 L121.03384184020379 367.2535293276052 L122.13866924175744 366.506525665635 L123.24349664331106 365.7299521123969 L124.3483240448648 364.92108399684054 L125.45315144641842 364.07710809912925 L126.55797884797212 363.1951654108956 L127.66280624952574 362.27239632042784 L128.7676336510794 361.3059874206901 L129.87246105263307 360.29321909375136 L130.97728845418672 359.231512995524 L132.0821158557404 358.11847855022376 L133.18694325729408 356.9519575650043 L134.29177065884772 355.7300660919734 L135.3965980604014 354.45123269730755 L136.50142546195505 353.11423234534766 L137.60625286350873 351.7182151691306 L138.7110802650624 350.2627294773996 L139.815907666616 348.7477384411419 L140.92073506816973 347.1736300093409 L142.02556246972335 345.5412197228491 L143.13038987127706 343.8517462257342 L144.23521727283068 342.1068594134624 L145.3400446743844 340.30860130478715 L146.444872075938 338.45937987678764 L147.54969947749169 336.56193625728395 L148.65452687904533 334.6193058226228 L149.759354280599 332.63477389798396 L150.86418168215266 330.61182689802297 L151.96900908370634 328.5540998737692 L153.07383648526002 326.46532154307175 L154.17866388681367 324.3492579724184 L155.28349128836734 322.2096561437655 L156.388318689921 320.05018867760134 L157.49314609147467 317.87440098987304 L158.5979734930283 315.685662133461 L159.702800894582 313.48712051324543 L160.80762829613562 311.28166556725074 L161.91245569768932 309.07189637569195 L163.01728309924295 306.86009799710166 L164.12211050079665 304.64822613933325 L165.22693790235027 302.437900557622 L166.33176530390395 300.2304073375561 L167.4365927054576 298.026709974362 L168.5414201070113 295.8274689085127 L169.64624750856493 293.63306892921565 L170.7510749101186 291.4436536198291 L171.85590231167228 289.25916580068673 L172.96072971322596 287.07939273286615 L174.06555711477958 284.9040146880627 L175.1703845163332 282.7326553709749 L176.27521191788693 280.56493260629804 L177.38003931944056 278.4005076759149 L178.4848667209943 276.2391317149893 L179.5896941225479 274.0806876484424 L180.6945215241016 271.9252262701127 L181.7993489256552 269.77299523237645 L182.9041763272089 267.6244599191683 L184.00900372876256 265.4803154138534 L185.11383113031624 263.341489037604 L186.21865853186986 261.20913321540786 L187.32348593342354 259.08460871644036 L188.42831333497722 256.9694586039451 L189.5331407365309 254.8653735077443 L190.63796813808457 252.77414909123831 L191.7427955396382 250.69763681620606 L192.84762294119187 248.63768930592397 L193.9524503427455 246.59610176435564 L195.05727774429923 244.57455102222838 L196.16210514585285 242.57453384707642 L197.26693254740653 240.59730617279337 L198.37175994896015 238.64382487556264 L199.47658735051388 236.71469364939122 L200.5814147520675 234.81011441948684 L201.68624215362118 232.9298455801291 L202.7910695551748 231.0731681613553 L203.89589695672848 229.23886082216566 L205.00072435828216 227.4251843439564 L206.10555175983583 225.62987606370677 L207.2103791613895 223.85015444894256 L208.31520656294313 222.08273378239159 L209.4200339644968 220.32384869955624 L210.52486136605043 218.56928811243898 L211.62968876760416 216.8144378618516 L212.73451616915779 215.05433127256686 L213.83934357071146 213.28370664254925 L214.94417097226508 211.4970705811935 L216.04899837381882 209.68876602254176 L217.15382577537244 207.85304367775464 L218.25865317692612 205.98413565580077 L219.3634805784798 204.076329971181 L220.46830798003342 202.1240446707268 L221.5731353815871 200.12190034623373 L222.67796278314077 198.06478985387693 L223.78279018469445 195.94794413299599 L224.88761758624807 193.76699310402105 L225.99244498780175 191.51802072630952 L227.09727238935542 189.19761340985593 L228.2020997909091 186.80290109879934 L229.30692719246272 184.33159047809994 L230.4117545940164 181.7819898963145 L231.51658199557002 179.1530257458454 L232.62140939712376 176.44425019576698 L233.72623679867738 173.6558403297854 L234.8310642002311 170.78858890087844 L235.93589160178473 167.84388707245606 L237.04071900333835 164.8236996705689 L238.14554640489203 161.73053361967106 L239.2503738064457 158.5674003721197 L240.3552012079994 155.33777326526464 L241.46002860955306 152.0455408456251 L242.56485601110668 148.69495728347354 L243.66968341266036 145.29059105941047 L244.77451081421404 141.83727313398913 L245.87933821576772 138.3400458094872 L246.9841656173214 134.80411345774752 L248.08899301887502 131.2347962188053 L249.1938204204287 127.63748767215037 L250.2986478219823 124.01761734755667 L251.403475223536 120.38061877836918 L252.50830262508967 116.73190361115275 L253.6131300266433 113.07684207705438 L254.71795742819697 109.42074990863114 L255.82278482975065 105.76888155841908 L256.92761223130435 102.1264293501867 L258.032439632858 98.49852797858762 L259.1372670344116 94.89026357611476 L260.2420944359653 91.30668639526704 L261.34692183751895 87.752826015874 L262.4517492390727 84.23370788818363 L263.5565766406263 80.75436996619771 L264.6614040421799 77.31987817579983 L265.76623144373366 73.93533949932123 L266.8710588452873 70.60591154194424 L267.9758862468409 67.33680757283145 L269.08071364839464 64.13329620096056 L270.18554104994826 61.00069504610747 L271.2903684515019 57.94435799208526 L272.3951958530556 54.969655853381084 L273.50002325460923 52.08195053877006 L274.60485065616297 49.28656304645261 L275.7096780577166 46.588735865187914 L276.8145054592702 43.993590575655446 L277.91933286082394 41.506081637340856 L279.02416026237756 39.13094750149918 L280.1289876639313 36.87266030437013 L281.2338150654849 34.73537546270222 L282.33864246703854 32.72288251356855 L283.4434698685923 30.83855851216265 L284.5482972701459 29.085325226216696 L285.6531246716995 27.46561124751264 L286.75795207325325 25.98131998472246 L287.86277947480687 24.633804314001395 L288.9676068763605 23.42384845236313 L290.0724342779142 22.35165739220531 L291.17726167946785 21.41685400266391 L292.2820890810216 20.618483673818844 L293.3869164825752 19.955026162085005 L294.4917438841288 19.424414097447368 L295.59657128568256 19.024057443088225 L296.7013986872362 18.750873061023754 L297.8062260887899 18.60131843847836 L298.91105349034353 18.571428571428555 L300.01588089189715 18.656854985395853 L301.1207082934509 18.8529058982665 L302.2255356950045 19.15458659352754 L303.33036309655813 19.556639170590927 L304.43519049811175 20.053580966585628 L305.5400178996655 20.639741094630097 L306.6448453012191 21.309294709363428 L307.74967270277284 22.05629478391006 L308.85450010432646 22.874701354749334 L309.9593275058801 23.758408354476444 L311.0641549074338 24.701268299349863 L312.16898230898744 25.697115222251455 L313.2738097105412 26.73978633643071 L314.3786371120948 27.823142977077396 L315.4834645136484 28.941091393490694 L316.58829191520215 30.087603953422786 L317.69311931675577 31.25674127376186 L318.7979467183095 32.44267571037483 L319.9027741198631 33.63971652868639 L321.00760152141675 34.84233694083565 L322.11242892297037 36.04520304148309 L323.2172563245241 37.243204510202986 L324.3220837260777 38.43148678174151 L325.42691112763146 39.60548422461687 L326.5317385291851 40.76095372161785 L327.6365659307387 41.89400792020024 L328.74139333229243 43.001147323331 L329.84622073384605 44.07929032729487 L330.9510481353998 45.12580028647568 L332.0558755369534 46.13850869831805 L333.16070293850703 47.11573365529165 L334.26553034006076 48.0562928033026 L335.3703577416145 48.95951017467314 L336.4751851431681 49.82521642386746 L337.58001254472174 50.65374217937989 L338.68483994627536 51.445904428447534 L339.789667347829 52.2029860641951 L340.8944947493826 52.926708938968716 L341.99932215093634 53.61920097408699 L343.10414955249007 54.28295806668956 L344.2089769540437 54.920801700781226 L345.3138043555973 55.5358333054358 L346.41863175715105 56.13138650255462 L347.5234591587048 56.71097844588087 L348.6282865602584 57.27826146966032 L349.7331139618119 57.83697623892624 L350.83794136336564 58.39090752514471 L351.9427687649194 58.94384362372074 L353.047596166473 59.49954028824709 L354.1524235680266 60.06168988599234 L355.25725096958035 60.63389628700935 L356.362078371134 61.21965579280169 L357.4669057726876 61.82234419781503 L358.57173317424133 62.445209866048685 L359.67656057579495 63.09137250367763 L360.7813879773486 63.76382712368979 L361.8862153789022 64.4654525367265 L362.9910427804559 65.19902356843113 L364.09587018200966 65.96722610192319 L365.2006975835633 66.77267397680146 L366.3055249851169 67.61792674469535 L367.41035238667064 68.5055072855074 L368.5151797882244 69.43791832665829 L369.620007189778 70.41765697709644 L370.7248345913316 71.4472264849606 L371.82966199288524 72.52914454799583 L372.93448939443886 73.66594764413321 L374.0393167959925 74.86019100054585 L375.1441441975462 76.11444397753428 L376.24897159909995 77.43128080322958 L377.35379900065357 78.81326675121466 L378.4586264022072 80.26294000104372 L379.5634538037609 81.7827895570802 L380.66828120531466 83.37522972069718 L381.7731086068683 85.04257171192734 L382.8779360084219 86.7869931171719 L383.9827634099755 88.61050589843893 L385.08759081152925 90.51492373634102 L386.1924182130829 92.501829493961 L387.2972456146365 94.57254358264657 L388.40207301619023 96.72809398514596 L389.50690041774396 98.96918864811505 L390.6117278192976 101.29619089711923 L391.7165552208512 103.70909845515126 L392.82138262240494 106.20752656303199 L393.92621002395856 108.79069560940297 L395.0310374255122 111.45742358194002 L396.1358648270658 114.2061235524348 L397.24069222861954 117.03480630875083 L398.34551963017316 119.94108814856673 L399.4503470317268 122.92220375502558 L400.5551744332805 125.97502398459625 L401.66000183483425 129.0960783138769 L402.76482923638787 132.2815816157713 L403.8696566379415 135.52746486717322 L404.9744840394951 138.82940933049946 L406.07931144104884 142.18288370036305 L407.18413884260247 145.58318366445528 L408.2889662441561 149.02547329415333 L409.3937936457098 152.50482765538428 L410.49862104726344 156.01627601348486 L411.60344844881706 159.55484499700964 L412.7082758503708 163.11560108432522 L413.81310325192453 166.69369178325528 L414.91793065347815 170.28438488785338 L416.0227580550318 173.8831052175728 L417.1275854565854 177.48546827278366 L418.2324128581391 181.087310276923 L419.33724025969275 184.68471411977376 L420.44206766124637 188.27403076875405 L421.5468950628001 191.85189577584174 L422.65172246435384 195.41524057704441 L423.75654986590746 198.96129835910423 L424.8613772674611 202.4876043541684 L425.9662046690147 205.99199051693435 L427.0710320705683 209.4725746394294 L428.17585947212194 212.92774406484153 L429.2806868736757 216.35613427202554 L430.3855142752294 219.75660271440063 L431.49034167678303 223.12819840847234 L432.59516907833665 226.47012787533126 L433.6999964798904 229.7817181401549 L434.8048238814441 233.06237758669872 L435.90965128299774 236.3115555427144 L437.01447868455125 239.5287015349203 L438.119306086105 242.71322519557668 L439.2241334876587 245.86445782421092 L440.32896088921234 248.98161660545819 L441.43378829076596 252.06377245579284 L442.5386156923197 255.10982241738603 L443.6434430938733 258.1184674364798 L444.74827049542694 261.08819625749913 L445.85309789698067 264.01727603446017 L446.9579252985343 266.9037501108961 L448.0627527000879 269.7454432520362 L449.16758010164153 272.5399744327106 L450.27240750319527 275.28477709631034 L451.377234904749 277.9771266094836 L452.4820623063026 280.6141744496982 L453.58688970785624 283.19298848398745 L454.69171710941 285.7105985326297 L455.7965445109636 288.1640462662806 L456.90137191251733 290.55043836372346 L458.00619931407095 292.86700176370795 L459.1110267156246 295.11113978122245 L460.2158541171782 297.2804878278353 L461.32068151873193 299.3729674782978 L462.42550892028555 301.3868376610902 L463.5303363218393 303.3207418176654 L464.6351637233929 305.17374997137233 L465.73999112494664 306.94539476914554 L466.84481852650026 308.6357007028969 L467.949645928054 310.24520587848866 L469.0544733296076 311.7749758730522 L470.15930073116124 313.22660940095636 L471.26412813271486 314.60223568955524 L472.3689555342685 315.9045036428415 L473.4737829358222 317.13656303949887 L474.57861033737584 318.30203816735946 L475.68343773892957 319.404994435334 L476.7882651404832 320.4498986236674 L477.8930925420369 321.4415735318723 L478.99791994359055 322.38514785972023 L480.1027473451443 323.2860022098738 L481.2075747466979 324.14971213152694 L482.3124021482515 324.98198913389257 L483.41722954980514 325.7886205882096 L484.5220569513589 326.5754094092989 L485.6268843529125 327.3481143650449 L486.73171175446623 328.1123918072063 L487.83653915601985 328.8737395523963 L488.9413665575735 329.6374435706149 L490.0461939591272 330.4085280628726 L491.15102136068083 331.19170943150027 L492.25584876223445 331.9913545686468 L493.36067616378807 332.8114438118201 L494.4655035653418 333.6555388413776 L495.5703309668954 334.52675572445924 L496.67515836844916 335.42774324352706 L497.7799857700028 336.36066658563124 L498.8848131715565 337.32719641075073 L499.98964057311014 338.3285032638432 L501.09446797466387 339.36525724524677 L502.1992953762175 340.4376328074214 L503.3041227777711 341.54531850230677 L504.40895017932473 342.6875314624628 L505.51377758087835 343.86303636040725 L506.6186049824321 345.0701685540296 L507.7234323839857 346.3068610916448 L508.82825978553944 347.570675218292 L509.93308718709307 348.8588339955213 L511.0379145886468 350.1682586205345 L512.1427419902004 351.4956070075629 L513.2475693917542 352.8373141752871 L514.3523967933078 354.18963396940615 L515.4572241948614 355.5486816396397 L516.562051596415 356.9104767858844 L517.6668789979688 358.2709861893151 L518.7717063995224 359.62616605110463 L519.8765338010761 360.9720031742743 L520.9813612026297 362.3045546429186 L522.0861886041835 363.61998557753805 L523.1910160057371 364.91460457513995 L524.2958434072907 366.1848964777524 L525.4006708088444 367.4275521524911 L526.5054982103981 368.6394950097519 L527.6103256119517 369.817904032783 L528.7151530135053 370.96023314111324 L529.819980415059 372.0642267613348 L530.9248078166127 373.1279315307933 L532.0296352181664 374.14970411208554 L533.13446261972 375.12821514815306 L534.2392900212737 376.06244943849185 L535.3441174228274 376.9517024658701 L536.4489448243811 377.7955734493305 L537.5537722259347 378.5939551425222 L538.6585996274883 379.3470206360017 L539.763427029042 380.0552074575182 L540.8682544305957 380.71919929498483 L541.9730818321493 381.33990569237443 L543.0779092337029 381.91844008879264 L544.1827366352567 382.4560965851309 L545.2875640368103 382.9543258307281 L546.392391438364 383.4147104241819 L547.4972188399177 383.83894021775046 L548.6020462414713 384.22878790367145 L549.7068736430249 384.5860852433043 L550.8117010445786 384.91270027650626 L551.9165284461322 385.2105158194304 L553.021355847686 385.4814095244752 L554.1261832492396 385.72723573702973 L555.2310106507933 385.94980934068883 L556.335838052347 386.15089173661244 L557.4406654539007 386.3321790546309 L558.5454928554543 386.49529264458744 L559.6503202570079 386.6417718473631 L560.7551476585616 386.77306899716007 L561.8599750601152 386.89054656105907 L562.9648024616689 386.99547627969235 L564.0696298632225 387.08904013510414 L565.1744572647763 387.17233293941695 L566.2792846663299 387.24636631156153 L567.3841120678836 387.31207378967804 L568.4889394694372 387.37031681428505 L569.593766870991 387.4218913121709 L570.6985942725446 387.4675346132045 L571.8034216740982 387.50793244168756 L572.9082490756518 387.5437257400661 L574.0130764772056 387.5755171051761 L575.1179038787592 387.60387664491043 L576.2227312803128 387.629347095331 L577.3275586818665 387.65244807371704 L578.4323860834202 387.67367938068935 L579.5372134849739 387.6935233031654 L580.6420408865275 387.7124459082591 L581.7468682880813 387.73089735515805 L582.8516956896349 387.74931128637905 L583.9565230911885 387.7681033906053 L585.0613504927421 387.7876692556941 L586.1661778942959 387.8083816517122 L587.2710052958495 387.83058739949865 L588.3758326974032 387.8546039899799 L589.4806600989568 387.88071612316037 L590.5854875005106 387.909172333507 L591.6903149020642 387.9401818606356 L592.7951423036178 387.97391191127997 " fill="none" stroke-width="1.6500000000000001" stroke="rgb(187,187,187)" stroke-opacity="1.0">
          </path>
        </g>
      </g>
    </g>
    <g transform="translate(73.97651758668601 15.2 ) ">
      <text class="plot-title" y="0.0">
      `statDensity()` + `area()` layer
      </text>
    </g>
    <g transform="translate(14.5 229.0 ) rotate(-90.0 ) ">
      <text class="axis-title-y" y="0.0" text-anchor="middle">
      density
      </text>
    </g>
    <g transform="translate(384.488258793343 461.5 ) ">
      <text class="axis-title-x" y="0.0" text-anchor="middle">
      x
      </text>
    </g>
    <path fill="rgb(0,0,0)" fill-opacity="0.0" stroke="rgb(187,187,187)" stroke-opacity="1.0" stroke-width="0.0" d="M0.0 0.0 L0.0 470.0 L705.0 470.0 L705.0 0.0 Z">
    </path>
  </g>
  <g id="xXxprefixXx2">
  </g>
</svg>