<svg xmlns="http://www.w3.org/2000/svg" xmlns:xlink="http://www.w3.org/1999/xlink" class="plt-container" width="705.0" height="470.0">
  <style type="text/css">
  .plt-container {
   font-family: Lucida Grande, sans-serif;
   user-select: none;
   -webkit-user-select: none;
   -moz-user-select: none;
   -ms-user-select: none;
}
text {
   text-rendering: optimizeLegibility;
}
#xXxprefixXx0 .plot-title {
   fill: #474747;
   font-family: Lucida Grande, sans-serif;
   font-size: 16.0px;
   font-weight: normal;
   font-style: normal;   
}
#xXxprefixXx0 .plot-subtitle {
   fill: #474747;
   font-family: Lucida Grande, sans-serif;
   font-size: 15.0px;
   font-weight: normal;
   font-style: normal;   
}
#xXxprefixXx0 .plot-caption {
   fill: #474747;
   font-family: Lucida Grande, sans-serif;
   font-size: 13.0px;
   font-weight: normal;
   font-style: normal;   
}
#xXxprefixXx0 .legend-title {
   fill: #474747;
   font-family: Lucida Grande, sans-serif;
   font-size: 15.0px;
   font-weight: normal;
   font-style: normal;   
}
#xXxprefixXx0 .legend-item {
   fill: #474747;
   font-family: Lucida Grande, sans-serif;
   font-size: 13.0px;
   font-weight: normal;
   font-style: normal;   
}
#xXxprefixXx0 .axis-title-x {
   fill: #474747;
   font-family: Lucida Grande, sans-serif;
   font-size: 15.0px;
   font-weight: normal;
   font-style: normal;   
}
#xXxprefixXx0 .axis-text-x {
   fill: #474747;
   font-family: Lucida Grande, sans-serif;
   font-size: 13.0px;
   font-weight: normal;
   font-style: normal;   
}
#xXxprefixXx3 .axis-tooltip-text-x {
   fill: #ffffff;
   font-family: Lucida Grande, sans-serif;
   font-size: 13.0px;
   font-weight: normal;
   font-style: normal;   
}
#xXxprefixXx0 .axis-title-y {
   fill: #474747;
   font-family: Lucida Grande, sans-serif;
   font-size: 15.0px;
   font-weight: normal;
   font-style: normal;   
}
#xXxprefixXx0 .axis-text-y {
   fill: #474747;
   font-family: Lucida Grande, sans-serif;
   font-size: 13.0px;
   font-weight: normal;
   font-style: normal;   
}
#xXxprefixXx3 .axis-tooltip-text-y {
   fill: #ffffff;
   font-family: Lucida Grande, sans-serif;
   font-size: 13.0px;
   font-weight: normal;
   font-style: normal;   
}
#xXxprefixXx0 .facet-strip-text-x {
   fill: #474747;
   font-family: Lucida Grande, sans-serif;
   font-size: 13.0px;
   font-weight: normal;
   font-style: normal;   
}
#xXxprefixXx0 .facet-strip-text-y {
   fill: #474747;
   font-family: Lucida Grande, sans-serif;
   font-size: 13.0px;
   font-weight: normal;
   font-style: normal;   
}
#xXxprefixXx3 .tooltip-text {
   fill: #474747;
   font-family: Lucida Grande, sans-serif;
   font-size: 13.0px;
   font-weight: normal;
   font-style: normal;   
}
#xXxprefixXx3 .tooltip-title {
   fill: #474747;
   font-family: Lucida Grande, sans-serif;
   font-size: 13.0px;
   font-weight: bold;
   font-style: normal;   
}
#xXxprefixXx3 .tooltip-label {
   fill: #474747;
   font-family: Lucida Grande, sans-serif;
   font-size: 13.0px;
   font-weight: bold;
   font-style: normal;   
}

  </style>
  <g id="xXxprefixXx0">
    <path fill-rule="evenodd" fill="rgb(255,255,255)" fill-opacity="1.0" d="M0.0 0.0 L0.0 470.0 L705.0 470.0 L705.0 0.0 Z">
    </path>
    <g transform="translate(23.0 10.0 ) ">
      <g transform="translate(50.97651758668602 414.0 ) ">
        <line x1="67.09099043749056" y1="-0.0" x2="67.09099043749056" y2="-414.0" stroke="rgb(233,233,233)" stroke-opacity="1.0" stroke-width="1.0">
        </line>
        <line x1="156.97955608024063" y1="-0.0" x2="156.97955608024063" y2="-414.0" stroke="rgb(233,233,233)" stroke-opacity="1.0" stroke-width="1.0">
        </line>
        <line x1="246.86812172299062" y1="-0.0" x2="246.86812172299062" y2="-414.0" stroke="rgb(233,233,233)" stroke-opacity="1.0" stroke-width="1.0">
        </line>
        <line x1="336.7566873657407" y1="-0.0" x2="336.7566873657407" y2="-414.0" stroke="rgb(233,233,233)" stroke-opacity="1.0" stroke-width="1.0">
        </line>
        <line x1="426.6452530084907" y1="-0.0" x2="426.6452530084907" y2="-414.0" stroke="rgb(233,233,233)" stroke-opacity="1.0" stroke-width="1.0">
        </line>
        <line x1="516.5338186512407" y1="-0.0" x2="516.5338186512407" y2="-414.0" stroke="rgb(233,233,233)" stroke-opacity="1.0" stroke-width="1.0">
        </line>
        <line x1="606.4223842939907" y1="-0.0" x2="606.4223842939907" y2="-414.0" stroke="rgb(233,233,233)" stroke-opacity="1.0" stroke-width="1.0">
        </line>
        <g transform="translate(67.09099043749056 0.0 ) ">
          <line stroke-width="1.0" stroke="rgb(71,71,71)" stroke-opacity="1.0" x2="0.0" y2="4.0">
          </line>
          <g transform="translate(0.0 7.0 ) ">
            <text class="axis-text-x" text-anchor="middle" dy="0.7em">
            200
            </text>
          </g>
        </g>
        <g transform="translate(156.97955608024063 0.0 ) ">
          <line stroke-width="1.0" stroke="rgb(71,71,71)" stroke-opacity="1.0" x2="0.0" y2="4.0">
          </line>
          <g transform="translate(0.0 7.0 ) ">
            <text class="axis-text-x" text-anchor="middle" dy="0.7em">
            300
            </text>
          </g>
        </g>
        <g transform="translate(246.86812172299062 0.0 ) ">
          <line stroke-width="1.0" stroke="rgb(71,71,71)" stroke-opacity="1.0" x2="0.0" y2="4.0">
          </line>
          <g transform="translate(0.0 7.0 ) ">
            <text class="axis-text-x" text-anchor="middle" dy="0.7em">
            400
            </text>
          </g>
        </g>
        <g transform="translate(336.7566873657407 0.0 ) ">
          <line stroke-width="1.0" stroke="rgb(71,71,71)" stroke-opacity="1.0" x2="0.0" y2="4.0">
          </line>
          <g transform="translate(0.0 7.0 ) ">
            <text class="axis-text-x" text-anchor="middle" dy="0.7em">
            500
            </text>
          </g>
        </g>
        <g transform="translate(426.6452530084907 0.0 ) ">
          <line stroke-width="1.0" stroke="rgb(71,71,71)" stroke-opacity="1.0" x2="0.0" y2="4.0">
          </line>
          <g transform="translate(0.0 7.0 ) ">
            <text class="axis-text-x" text-anchor="middle" dy="0.7em">
            600
            </text>
          </g>
        </g>
        <g transform="translate(516.5338186512407 0.0 ) ">
          <line stroke-width="1.0" stroke="rgb(71,71,71)" stroke-opacity="1.0" x2="0.0" y2="4.0">
          </line>
          <g transform="translate(0.0 7.0 ) ">
            <text class="axis-text-x" text-anchor="middle" dy="0.7em">
            700
            </text>
          </g>
        </g>
        <g transform="translate(606.4223842939907 0.0 ) ">
          <line stroke-width="1.0" stroke="rgb(71,71,71)" stroke-opacity="1.0" x2="0.0" y2="4.0">
          </line>
          <g transform="translate(0.0 7.0 ) ">
            <text class="axis-text-x" text-anchor="middle" dy="0.7em">
            800
            </text>
          </g>
        </g>
        <line x1="0.0" y1="0.0" x2="621.023482413314" y2="0.0" stroke-width="1.0" stroke="rgb(71,71,71)" stroke-opacity="1.0">
        </line>
      </g>
      <g transform="translate(50.97651758668602 0.0 ) ">
        <line x1="0.0" y1="365.50587134524915" x2="621.023482413314" y2="365.50587134524915" stroke="rgb(233,233,233)" stroke-opacity="1.0" stroke-width="1.0">
        </line>
        <line x1="0.0" y1="317.0117426904983" x2="621.023482413314" y2="317.0117426904983" stroke="rgb(233,233,233)" stroke-opacity="1.0" stroke-width="1.0">
        </line>
        <line x1="0.0" y1="268.51761403574744" x2="621.023482413314" y2="268.51761403574744" stroke="rgb(233,233,233)" stroke-opacity="1.0" stroke-width="1.0">
        </line>
        <line x1="0.0" y1="220.02348538099662" x2="621.023482413314" y2="220.02348538099662" stroke="rgb(233,233,233)" stroke-opacity="1.0" stroke-width="1.0">
        </line>
        <line x1="0.0" y1="171.5293567262458" x2="621.023482413314" y2="171.5293567262458" stroke="rgb(233,233,233)" stroke-opacity="1.0" stroke-width="1.0">
        </line>
        <line x1="0.0" y1="123.03522807149494" x2="621.023482413314" y2="123.03522807149494" stroke="rgb(233,233,233)" stroke-opacity="1.0" stroke-width="1.0">
        </line>
        <line x1="0.0" y1="74.54109941674409" x2="621.023482413314" y2="74.54109941674409" stroke="rgb(233,233,233)" stroke-opacity="1.0" stroke-width="1.0">
        </line>
        <line x1="0.0" y1="26.046970761993236" x2="621.023482413314" y2="26.046970761993236" stroke="rgb(233,233,233)" stroke-opacity="1.0" stroke-width="1.0">
        </line>
        <g transform="translate(0.0 414.0 ) ">
          <g transform="translate(-3.0 0.0 ) ">
            <text class="axis-text-y" text-anchor="end" dy="0.35em">
            0.0000
            </text>
          </g>
        </g>
        <g transform="translate(0.0 365.50587134524915 ) ">
          <g transform="translate(-3.0 0.0 ) ">
            <text class="axis-text-y" text-anchor="end" dy="0.35em">
            0.0005
            </text>
          </g>
        </g>
        <g transform="translate(0.0 317.0117426904983 ) ">
          <g transform="translate(-3.0 0.0 ) ">
            <text class="axis-text-y" text-anchor="end" dy="0.35em">
            0.0010
            </text>
          </g>
        </g>
        <g transform="translate(0.0 268.51761403574744 ) ">
          <g transform="translate(-3.0 0.0 ) ">
            <text class="axis-text-y" text-anchor="end" dy="0.35em">
            0.0015
            </text>
          </g>
        </g>
        <g transform="translate(0.0 220.02348538099662 ) ">
          <g transform="translate(-3.0 0.0 ) ">
            <text class="axis-text-y" text-anchor="end" dy="0.35em">
            0.0020
            </text>
          </g>
        </g>
        <g transform="translate(0.0 171.5293567262458 ) ">
          <g transform="translate(-3.0 0.0 ) ">
            <text class="axis-text-y" text-anchor="end" dy="0.35em">
            0.0025
            </text>
          </g>
        </g>
        <g transform="translate(0.0 123.03522807149494 ) ">
          <g transform="translate(-3.0 0.0 ) ">
            <text class="axis-text-y" text-anchor="end" dy="0.35em">
            0.0030
            </text>
          </g>
        </g>
        <g transform="translate(0.0 74.54109941674409 ) ">
          <g transform="translate(-3.0 0.0 ) ">
            <text class="axis-text-y" text-anchor="end" dy="0.35em">
            0.0035
            </text>
          </g>
        </g>
        <g transform="translate(0.0 26.046970761993236 ) ">
          <g transform="translate(-3.0 0.0 ) ">
            <text class="axis-text-y" text-anchor="end" dy="0.35em">
            0.0040
            </text>
          </g>
        </g>
      </g>
      <g transform="translate(50.97651758668602 0.0 ) " clip-path="url(#xXxprefixXx1)" clip-bounds-jfx="[rect (0.0, 0.0), (621.023482413314, 414.0)]">
        <defs>
          <clipPath id="xXxprefixXx1">
            <rect x="0.0" y="0.0" width="621.023482413314" height="414.0">
            </rect>
          </clipPath>
        </defs>
        <g>
          <path d="M28.228340109696106 410.54451774681115 L28.228340109696106 410.54451774681115 L29.036017938299707 410.4929204148798 L29.84369576690331 410.4487907703374 L30.65137359550691 410.4115607298291 L31.459051424110513 410.3805039933254 L32.266729252714114 410.3547483349204 L33.074407081317744 410.3332913254916 L33.882084909921346 410.31501905626817 L34.68976273852495 410.29872733482847 L35.49744056712855 410.2831447455549 L36.30511839573215 410.26695690847447 L37.11279622433578 410.24883123630497 L37.92047405293938 410.2274414810861 L38.728151881542985 410.2014913797096 L39.535829710146615 410.1697367516367 L40.34350753875022 410.13100547072617 L41.15118536735382 410.0842148239854 L41.95886319595745 410.02838587985684 L42.76654102456105 409.9626546131391 L43.57421885316465 409.88627966791626 L44.381896681768254 409.79864677844995 L45.189574510371855 409.69927000509017 L45.99725233897546 409.5877900719477 L46.80493016757909 409.46397020954817 L47.61260799618269 409.32769000351885 L48.42028582478629 409.17893782472925 L49.22796365338989 409.0178024632537 L50.035641481993494 408.8444646051643 L50.843319310597124 408.65918877586233 L51.650997139200726 408.4623163261863 L52.45867496780433 408.254259959144 L53.26635279640793 408.0355001885587 L54.07403062501153 407.80658399040516 L54.88170845361513 407.56812575867923 L55.68938628221876 407.32081051696207 L56.497064110822365 407.0653991719532 L57.304741939425995 406.80273543421447 L58.112419768029596 406.5337538824368 L58.9200975966332 406.259488518695 L59.7277754252368 405.9810810607248 L60.53545325384043 405.6997881495212 L61.34313108244403 405.4169866213463 L62.15080891104763 405.13417600569466 L62.958486739651235 404.85297746603527 L63.76616456825484 404.5751284973408 L64.57384239685847 404.302472830504 L65.38152022546207 404.0369451637244 L66.18919805406567 403.78055053801023 L66.99687588266927 403.5353383897937 L67.80455371127287 403.3033715389179 L68.61223153987648 403.08669059491615 L69.4199093684801 402.8872744784521 L70.22758719708371 402.70699794828516 L71.03526502568731 402.5475871883466 L71.84294285429091 402.41057463694716 L72.65062068289451 402.2972543249996 L73.45829851149814 402.20863902861 L74.26597634010174 402.145420531792 L75.07365416870535 402.10793423787976 L75.88133199730895 402.0961292660468 L76.68900982591255 402.10954502665845 L77.49668765451615 402.14729509208286 L78.30436548311978 402.20805897538 L79.11204331172338 402.29008220612695 L79.91972114032698 402.39118485904606 L80.72739896893059 402.5087784555719 L81.53507679753419 402.63989092906996 L82.34275462613782 402.7811991284053 L83.15043245474145 402.92906813822106 L83.95811028334505 403.0795965227147 L84.76578811194865 403.22866645674577 L85.57346594055225 403.3719975963539 L86.38114376915586 403.50520346167906 L87.18882159775949 403.6238490592948 L87.99649942636309 403.7235084577466 L88.80417725496669 403.79982104865553 L89.61185508357029 403.8485452747361 L90.41953291217389 403.865608683842 L91.22721074077752 403.8471532729293 L92.03488856938112 403.7895752157458 L92.84256639798473 403.68955822114316 L93.65024422658833 403.5440999430151 L94.45792205519193 403.35053105551674 L95.26559988379553 403.10652681546827 L96.07327771239919 402.81011115407347 L96.88095554100279 402.459653567856 L97.68863336960639 402.0538593086286 L98.49631119821 401.5917535979608 L99.3039890268136 401.07266080558543 L100.1116668554172 400.49617972524584 L100.91934468402083 399.862156246753 L101.72702251262443 399.17065485040433 L102.53470034122803 398.4219304305028 L103.34237816983163 397.6164019803835 L104.15005599843523 396.7546296353134 L104.95773382703887 395.83729646706183 L105.76541165564247 394.865196252561 L106.57308948424607 393.83922819965153 L107.38076731284967 392.76039930962276 L108.18844514145327 391.62983469695234 L108.99612297005687 390.44879578283314 L109.8038007986605 389.2187058457415 L110.6114786272641 387.9411819675024 L111.41915645586771 386.6180719774977 L112.22683428447131 385.25149459285285 L113.03451211307491 383.84388060113 L113.84218994167854 382.39801265610987 L114.64986777028214 380.9170610766124 L115.45754559888574 379.4046129698174 L116.26522342748935 377.86469205671006 L117.07290125609295 376.301766765302 L117.88057908469655 374.7207444782201 L118.68825691330018 373.1269502695427 L119.49593474190378 371.5260890289451 L120.30361257050738 369.92419053019626 L121.11129039911098 368.327537730565 L121.91896822771459 366.7425793572947 L122.72664605631822 365.1758286125757 L123.53432388492182 363.6337505725538 L124.34200171352542 362.122641531431 L125.14967954212902 360.64850411244237 L125.95735737073262 359.216922400475 L126.76503519933628 357.83294161843236 L127.57271302793986 356.500956949994 L128.3803908565435 355.2246159921974 L129.18806868514707 354.00673899846896 L129.9957465137507 352.8492605523111 L130.80342434235428 351.7531956096426 L131.6111021709579 350.71863198899814 L132.41877999956148 349.7447504071734 L133.22645782816517 348.82987209419895 L134.03413565676868 347.9715329217785 L134.84181348537237 347.1665818925884 L135.64949131397594 346.41130081390736 L136.45716914257957 345.7015410659029 L137.2648469711832 345.03287261637564 L138.07252479978678 344.4007398671716 L138.8802026283904 343.80061857176247 L139.68788045699398 343.22816795759337 L140.4955582855976 342.6793723286157 L141.30323611420124 342.1506668093218 L142.1109139428048 341.63904250644134 L142.91859177140844 341.14212718234444 L143.72626960001207 340.65823851959226 L144.53394742861565 340.1864081655882 L145.34162525721928 339.72637593074217 L146.14930308582285 339.2785547203914 L146.95698091442648 338.84396795652947 L147.7646587430301 338.4241623385192 L148.57233657163368 338.0210997549648 L149.38001440023731 337.6370329507697 L150.1876922288409 337.2743701414464 L150.99537005744452 336.9355341280425 L151.8030478860481 336.6228215884027 L152.61072571465172 336.33826810276224 L153.41840354325535 336.0835241236777 L154.22608137185892 335.85974654206126 L155.03375920046255 335.6675097616576 L155.84143702906613 335.50673931021527 L156.64911485766976 335.3766700288643 L157.4567926862734 335.2758298373135 L158.26447051487696 335.20204901801276 L159.0721483434806 335.15249394304124 L159.87982617208417 335.12372322568683 L160.6875040006878 335.1117634520715 L161.49518182929143 335.11220096786707 L162.302859657895 335.120285684606 L163.11053748649869 335.1310425444468 L163.9182153151022 335.13938614787514 L164.7258931437059 335.14023410356947 L165.53357097230946 335.12861489327406 L166.3412488009131 335.09976643955 L167.14892662951667 335.0492220972196 L167.9566044581203 334.9728814319715 L168.76428228672387 334.86706387057245 L169.5719601153275 334.72854407338235 L170.37963794393107 334.55456865827006 L171.18731577253476 334.3428546637115 L171.99499360113828 334.09157084857105 L172.80267142974196 333.79930356119587 L173.61034925834548 333.46500944980386 L174.41802708694917 333.0879577135996 L175.22570491555274 332.6676648987214 L176.03338274415637 332.20382541956184 L176.84106057275994 331.6962410338863 L177.64873840136357 331.14475242398254 L178.45641622996715 330.5491758445639 L179.26409405857083 329.9092475036249 L180.07177188717435 329.22457796014436 L180.87944971577804 328.4946183697046 L181.68712754438155 327.7186399044103 L182.49480537298524 326.8957271361619 L183.3024832015888 326.02478562158944 L184.11016103019244 325.1045633812844 L184.91783885879607 324.13368544285333 L185.72551668739965 323.11070013257756 L186.53319451600328 322.03413536815185 L187.34087234460685 320.9025628370324 L188.14855017321048 319.71466765104435 L188.9562280018141 318.4693208555051 L189.76390583041768 317.16565204521294 L190.57158365902131 315.8031193029562 L191.3792614876249 314.3815737290291 L192.18693931622852 312.9013159707491 L192.99461714483215 311.36314238502086 L193.80229497343572 309.768378768439 L194.60997280203935 308.11889996007574 L195.41765063064292 306.4171340519507 L196.22532845924655 304.666050419561 L197.03300628785018 302.8691312965258 L197.84068411645376 301.03032714898774 L198.6483619450574 299.1539966414884 L199.45603977366096 297.24483251054255 L200.2637176022646 295.3077751588197 L201.07139543086817 293.34791623551257 L201.8790732594718 291.3703948616553 L202.68675108807543 289.38028947844157 L203.494428916679 287.3825085292277 L204.30210674528269 285.381683321231 L205.1097845738862 283.3820664429787 L205.9174624024899 281.3874390332959 L206.72514023109346 279.4010300055959 L207.5328180596971 277.42545002955114 L208.34049588830067 275.4626426669913 L209.1481737169043 273.5138545600394 L209.95585154550787 271.579625990855 L210.7635293741115 269.65980249115444 L211.57120720271507 267.7535674963722 L212.37888503131876 265.85949533669856 L213.18656285992228 263.97562315996845 L213.99424068852596 262.09953971484595 L214.80191851712954 260.2284883123709 L215.60959634573317 258.35948075377553 L216.41727417433674 256.4894185845848 L217.22495200294037 254.61521772793674 L218.03262983154394 252.7339323783813 L218.84030766014757 250.84287401051455 L219.64798548875115 248.93972147859563 L220.45566331735483 247.0226184515155 L221.26334114595835 245.0902548339586 L222.07101897456204 243.14192935498608 L222.87869680316555 241.17759113996965 L223.68637463176924 239.19785879640247 L224.4940524603728 237.20401631058974 L225.30173028897644 235.19798584023076 L226.10940811758007 233.18227826599357 L226.91708594618365 231.1599231026219 L227.72476377478728 229.13438003809523 L228.5324416033909 227.10943494264797 L229.34011943199448 225.08908364752477 L230.1477972605981 223.07740712152926 L230.95547508920168 221.0784418633949 L231.76315291780531 219.0960493784229 L232.5708307464089 217.13378852393322 L233.37850857501252 215.19479430152867 L234.18618640361615 213.2816663620163 L234.99386423221972 211.39637009241196 L235.80154206082335 209.5401526980203 L236.60921988942692 207.71347620157766 L237.41689771803055 205.91596878099546 L238.22457554663418 204.14639538039697 L239.03225337523776 202.40264807554365 L239.8399312038414 200.68175626932023 L240.64760903244496 198.9799164451039 L241.4552868610486 197.29254091905793 L242.26296468965222 195.6143248040653 L243.0706425182558 193.93933022018115 L243.87832034685943 192.26108664640728 L244.685998175463 190.57270619028216 L245.49367600406669 188.86701243739446 L246.30135383267026 187.13668141460508 L247.1090316612739 185.37439304236602 L247.91670948987746 183.57299125045526 L248.7243873184811 181.7256506800762 L249.53206514708467 179.82604759229162 L250.3397429756883 177.86853225379323 L251.14742080429187 175.84829968907275 L251.95509863289556 173.76155529312769 L252.76277646149907 171.60567141708222 L253.57045429010276 169.37933070157476 L254.37813211870628 167.08265167336117 L255.18580994730996 164.71729197419748 L255.99348777591354 162.28652459068684 L256.80116560451717 159.79528262851437 L257.60884343312074 157.25016854671202 L258.41652126172437 154.6594243509948 L259.224199090328 152.03286004307478 L260.0318769189316 149.38173862661552 L260.8395547475352 146.71861715962234 L261.64723257613883 144.0571446845396 L262.4549104047424 141.41181931746723 L263.26258823334604 138.79770828292737 L264.0702660619496 136.23013617998703 L264.87794389055324 133.7243481937581 L265.68562171915687 131.29515625702948 L266.49329954776044 128.95657725558493 L267.3009773763641 126.7214731987084 L268.10865520496765 124.60120379373171 L268.9163330335713 122.60530203163592 L269.7240108621749 120.74118318564524 L270.5316886907785 119.01389703767296 L271.3393665193821 117.42593218629071 L272.1470443479857 115.97707997909691 L272.9547221765893 114.6643639918646 L273.76240000519294 113.48203910096663 L274.5700778337965 112.42166213001968 L275.37775566240015 111.4722338710734 L276.1854334910037 110.62041006503176 L276.99311131960735 109.8507767571212 L277.800789148211 109.14618340117511 L278.60846697681455 108.48812524599384 L279.4161448054182 107.85716496443547 L280.22382263402176 107.2333822362686 L281.0315004626254 106.59683911127854 L281.83917829122896 105.92804848690372 L282.6468561198326 105.20843294692258 L283.4545339484362 104.42076152117284 L284.2622117770398 103.54955262318413 L285.0698896056434 102.58143247199854 L285.877567434247 101.50543966383793 L286.68524526285063 100.31326817711192 L287.49292309145426 98.99944291215309 L288.30060092005783 97.56142382238204 L289.10827874866146 95.99963672218502 L289.91595657726504 94.31743089507728 L290.72363440586867 92.52096561310526 L291.5313122344723 90.61902955896193 L292.33899006307587 88.6227988662202 L293.1466678916795 86.54554101784942 L293.9543457202831 84.4022731341376 L294.7620235488867 82.20938421184002 L295.56970137749033 79.98423162854391 L296.3773792060939 77.74472268954753 L297.1850570346976 75.5088921661009 L297.99273486330117 73.29448665760958 L298.8004126919048 71.11856621658745 L299.60809052050837 68.99713301956984 L300.415768349112 66.94479597066754 L301.22344617771563 64.9744790122075 L302.0311240063192 63.09717961840278 L302.83880183492283 61.32178249607887 L303.6464796635264 59.65493194753367 L304.45415749213004 58.10096470383235 L305.26183532073367 56.661903354052356 L306.06951314933724 55.33750882093943 L306.87719097794087 54.12538871134376 L307.68486880654444 53.02115684618582 L308.4925466351481 52.018637894513404 L309.30022446375165 51.110109842459735 L310.1079022923553 50.28657606000678 L310.9155801209589 49.538058020828544 L311.7232579495625 48.85389931056682 L312.5309357781661 48.2230714457794 L313.3386136067697 47.634472228384766 L314.1462914353733 47.07720787662987 L314.95396926397694 46.54085098902897 L315.7616470925805 46.01566748592802 L316.56932492118415 45.49280699564923 L317.3770027497877 44.964452659000926 L318.18468057839135 44.42392795829187 L318.992358406995 43.86575986866177 L319.80003623559855 43.285699310251346 L320.6077140642022 42.680701477822424 L321.41539189280576 42.04887007123722 L322.2230697214094 41.38937068256399 L323.030747550013 40.702319560266176 L323.8384253786166 39.98865462707181 L324.6461032072202 39.249995949748495 L325.4537810358238 38.488502837007616 L326.2614588644274 37.70673438424984 L327.069136693031 36.907519616340664 L327.8768145216346 36.09384244340271 L328.68449235023826 35.26874549498734 L329.49217017884183 34.43525560083691 L330.29984800744546 33.5963323147717 L331.10752583604904 32.75483950777107 L331.91520366465267 31.913538761414713 L332.7228814932563 31.075102141919785 L333.53055932185987 30.24214098675884 L334.3382371504635 29.417246635905826 L335.1459149790671 28.60303861816368 L335.9535928076707 27.80221567262646 L336.76127063627433 27.017605141557 L337.5689484648779 26.25220669209199 L338.3766262934816 25.509226973404623 L339.18430412208517 24.79210264379276 L339.9919819506888 24.104510149619273 L340.79965977929237 23.450361640992583 L341.607337607896 22.833787401661766 L342.41501543649963 22.259106090045464 L343.2226932651032 21.730784877961923 L344.03037109370683 21.25339218710417 L344.8380489223104 20.83154612622758 L345.64572675091404 20.469861904417883 L346.45340457951767 20.172901432690992 L347.26108240812124 19.945128037187033 L348.0687602367248 19.790868716052103 L348.87643806532844 19.714285714285722 L349.68411589393213 19.719358411401686 L350.4917937225357 19.809875667346716 L351.2994715511392 19.98943790762877 L352.1071493797429 20.261467403944494 L352.91482720834654 20.629224473582383 L353.7225050369501 21.095826725286713 L354.5301828655537 21.664268058478456 L355.3378606941573 22.337433903986494 L356.145538522761 23.118109193341297 L356.9532163513645 24.008975764111995 L357.7608941799681 25.012596342361974 L358.5685720085717 26.131382870824552 L359.3762498371754 27.367547743299383 L360.183927665779 28.723037424307506 L360.9916054943825 30.199448934038173 L361.7992833229862 31.79793071358131 L362.6069611515898 33.51907040412732 L363.4146389801934 35.36277302621818 L364.22231680879696 37.328133883909686 L365.0299946374006 39.41331120121379 L365.8376724660043 41.61540398816419 L366.6453502946078 43.93034090314649 L367.45302812321137 46.35278590768121 L368.26070595181505 48.87606629080108 L369.0683837804187 51.49212817389218 L369.87606160902226 54.191523905522104 L370.6837394376258 56.9634348415027 L371.49141726622946 59.79573190968085 L372.2990950948331 62.67507512169681 L373.10677292343667 65.58705186151968 L373.91445075204024 68.51635240450668 L374.72212858064387 71.44697975532978 L375.52980640924756 74.3624895933167 L376.3374842378511 77.24625493288448 L377.14516206645465 80.08174909408683 L377.95283989505833 82.85283977699925 L378.76051772366196 85.54408647877312 L379.56819555226554 88.14103320872425 L380.37587338086917 90.63048845893553 L381.18355120947285 93.00078467765917 L381.9912290380764 95.24201006032604 L382.79890686667994 97.34620629642683 L383.60658469528363 99.30752695719139 L384.41426252388726 101.122352436607 L385.22194035249083 102.78935871705534 L386.0296181810944 104.30953866542211 L386.83729600969804 105.68617601800509 L387.6449738383017 106.9247736247923 L388.45265166690524 108.03293884018854 L389.2603294955088 109.02023011774321 L390.06800732411244 109.89796984811 L390.87568515271613 110.67902923884287 L391.6833629813197 111.37759154926732 L392.4910408099232 112.00890025259542 L393.2987186385269 112.5889987018503 L394.10639646713054 113.13446763881302 L394.9140742957341 113.66216642947774 L395.7217521243377 114.18898326824723 L396.5294299529413 114.73159880631363 L397.337107781545 115.30626677265616 L398.1447856101485 115.9286142167648 L398.9524634387521 116.61346305872263 L399.7601412673557 117.37467373052294 L400.5678190959594 118.22501087382358 L401.375496924563 119.17603035863289 L402.18317475316655 120.23798633141104 L402.9908525817701 121.41975660749631 L403.7985304103738 122.7287844994205 L404.6062082389774 124.17103511774638 L405.41388606758096 125.75096428324929 L406.22156389618465 127.47149842907845 L407.0292417247882 129.33402422228136 L407.8369195533918 131.33838706394363 L408.64459738199537 133.48289810087812 L409.45227521059905 135.76434986265616 L410.25995303920274 138.17804108997706 L411.0676308678062 140.71781171059865 L411.8753086964098 143.37608921855764 L412.68298652501346 146.14394789809074 L413.49066435361715 149.0111823896279 L414.2983421822207 151.9663970129572 L415.1060200108242 154.9971120416804 L415.91369783942787 158.08988777070732 L416.72137566803156 161.2304667491259 L417.52905349663513 164.40393398512123 L418.3367313252387 167.59489429355517 L419.1444091538423 170.78766527977479 L419.95208698244596 173.96648376698533 L420.75976481104954 177.1157228112152 L421.5674426396532 180.22011583876062 L422.3751204682568 183.26498391485143 L423.18279829686037 186.23646173416694 L423.99047612546394 189.1217176341387 L424.79815395406763 191.90916278556256 L425.6058317826713 194.58864472082706 L426.4135096112748 197.1516205207853 L427.22118743987835 199.59130529362605 L428.02886526848204 201.90279203404523 L428.8365430970857 204.08313953439304 L429.6442209256893 206.131425712731 L430.45189875429287 208.04876450379237 L431.25957658289644 209.8382853031003 L432.06725441150013 211.5050748357746 L432.8749322401037 213.05608221309114 L433.6826100687073 214.49998881529066 L434.49028789731085 215.84704547327948 L435.29796572591454 217.1088801915636 L436.1056435545181 218.29828033938122 L436.9133213831217 219.42895381909693 L437.72099921172537 220.51527418641422 L438.52867704032894 221.5720150355719 L439.3363548689325 222.61407916781718 L440.1440326975361 223.65622813044672 L440.9517105261398 224.712817647516 L441.75938835474346 225.7975442664881 L442.5670661833469 226.92320822542897 L443.3747440119505 228.10149711358957 L444.1824218405542 229.34279436771328 L444.99009966915787 230.6560160326805 L445.79777749776144 232.04847853540716 L446.6054553263649 233.52579949374882 L447.4131331549686 235.0918328267897 L448.2208109835723 236.74863866883456 L449.02848881217585 238.49648783587105 L449.8361666407794 240.33389986867803 L450.643844469383 242.25771299826445 L451.4515222979867 244.26318376229588 L452.25920012659026 246.34411345880963 L453.06687795519383 248.49299816647246 L453.8745557837975 250.70119869674465 L454.6822336124011 252.9591265774156 L455.48991144100466 255.2564420008225 L456.29758926960824 257.5822596024053 L457.1052670982119 259.92535796194363 L457.9129449268155 262.27438883415175 L458.7206227554191 264.61808230831866 L459.52830058402265 266.9454443576891 L460.33597841262633 269.2459435563595 L461.14365624123 271.50968410203177 L461.9513340698336 273.72756267435057 L462.75901189843717 275.89140706846734 L463.56668972704085 277.99409496065437 L464.3743675556444 280.0296515771963 L465.182045384248 281.9933254410031 L465.9897232128516 283.8816417558469 L466.79740104145526 285.6924333510036 L467.60507887005883 287.4248494463627 L468.4127566986624 289.07934280830614 L469.2204345272661 290.65763614970757 L470.02811235586967 292.1626688840533 L470.83579018447324 293.5985255753718 L471.6434680130768 294.97034763393555 L472.4511458416805 296.28422999405325 L473.2588236702842 297.5471046756564 L474.06650149888765 298.76661327610566 L474.8741793274912 299.95097056214024 L475.6818571560949 301.10882143274944 L476.4895349846986 302.249093599708 L477.29721281330217 303.3808483806712 L478.1048906419056 304.51313201672247 L478.9125684705093 305.6548299086186 L479.720246299113 306.81452611040254 L480.5279241277166 308.0003703228038 L481.33560195632015 309.2199544900762 L482.1432797849237 310.48020092197606 L482.9509576135274 311.7872636382347 L483.758635442131 313.14644436854746 L484.56631327073455 314.5621243408567 L485.37399109933824 316.0377126603847 L486.1816689279418 317.57561172883555 L486.9893467565454 319.177199786247 L487.79702458514896 320.8428302870316 L488.60470241375276 322.57184745750027 L489.4123802423562 324.36261703564446 L490.2200580709598 326.2125708761535 L491.02773589956337 328.1182638249562 L491.83541372816717 330.0754410374788 L492.64309155677074 332.0791137412591 L493.4507693853742 334.1236413327836 L494.2584472139778 336.20281765441496 L495.0661250425816 338.30995932180207 L495.87380287118515 340.43799406428764 L496.6814806997887 342.57954719720476 L497.4891585283923 344.72702455961837 L498.296836356996 346.87269051585315 L499.10451418559956 349.0087399237478 L499.91219201420313 351.1273633051263 L500.7198698428067 353.22080480133656 L501.5275476714104 355.2814128451866 L502.33522550001396 357.30168381629187 L503.14290332861754 359.2742992564308 L503.9505811572211 361.19215749260417 L504.7582589858249 363.0484007374311 L505.56593681442837 364.83643890048734 L506.37361464303194 366.5499714439085 L507.1812924716355 368.1830086472852 L507.9889703002393 369.7298936096829 L508.7966481288429 371.1853262123075 L509.60432595744635 372.54439009846294 L510.4120037860499 373.8025835048891 L511.2196816146537 374.9558545094101 L512.0273594432573 376.00064095474653 L512.8350372718609 376.9339149793386 L513.6427151004643 377.75323174575306 L514.4503929290681 378.4567816186963 L515.2580707576717 379.04344472050934 L516.0657485862753 379.51284649439754 L516.8734264148788 379.8654126455896 L517.6811042434825 380.1024216179137 L518.4887820720861 380.22605260611084 L519.2964599006897 380.2394270091143 L520.1041377292933 380.14664120121313 L520.911815557897 379.9527885393656 L521.7194933865005 379.6639686369454 L522.5271712151041 379.2872821160719 L523.3348490437077 378.8308092997776 L524.1425268723115 378.30357161721173 L524.9502047009149 377.7154748637785 L525.7578825295185 377.0772338758012 L526.5655603581223 376.4002786366435 L527.3732381867259 375.69664231734333 L528.1809160153294 374.97883225748893 L528.988593843933 374.2596853978634 L529.7962716725367 373.55221017086956 L530.6039495011403 372.86941732289904 L531.4116273297439 372.2241425692728 L532.2193051583474 371.6288643520656 L533.0269829869511 371.09552026961813 L533.8346608155547 370.63532596078846 L534.6423386441583 370.2586003458109 L535.4500164727618 369.9746011403776 L536.2576943013656 369.79137446459094 L537.0653721299691 369.7156221616737 L537.8730499585727 369.75259012447617 L538.6807277871762 369.90598050666847 L539.48840561578 370.1778901798346 L540.2960834443836 370.5687772011448 L541.1037612729871 371.0774563959748 L541.9114391015906 371.70112445573636 L542.7191169301944 372.4354142254254 L543.526794758798 373.27447713134075 L544.3344725874016 374.211092000782 L545.142150416005 375.23679787524503 L545.9498282446089 376.3420478380019 L546.7575060732124 377.5163803846168 L547.565183901816 378.74860447620085 L548.3728617304196 380.0269941412462 L549.1805395590233 381.33948833953 L549.9882173876268 382.67389177292705 L550.7958952162304 384.0180724205542 L551.603573044834 385.3601517825861 L552.4112508734377 386.68868412756564 L553.2189287020412 387.99282143794863 L554.0266065306448 389.2624612213536 L554.8342843592484 390.4883748821164 L555.6419621878522 391.66231491009205 L556.4496400164556 392.7770997219059 L557.2573178450592 393.82667556558783 L558.0649956736628 394.8061554556661 L558.8726735022666 395.7118356273578 L559.6803513308702 396.54119047281955 L560.4880291594737 397.2928473396048 L561.2957069880772 397.9665429242962 L562.103384816681 398.5630632783417 L562.9110626452846 399.0841696565246 L563.7187404738881 399.53251258174646 L564.5264183024917 399.91153657537046 L565.3340961310954 400.2253780144627 L566.141773959699 400.47875853133445 L566.9494517883026 400.6768762732894 L567.7571296169064 400.8252971984782 L568.5648074455098 400.92984840469114 L569.3724852741134 400.9965152793094 L570.180163102717 401.03134402794996 L570.9878409313208 401.0403508938122 L571.7955187599243 401.0294391262758 L572.6031965885278 401.00432450238867 L573.4108744171314 400.97046995454645 L574.2185522457352 400.9330296173736 L575.0262300743387 400.8968023814815 L575.8339079029423 400.86619483567586 L576.6415857315458 400.8451932959034 L577.4492635601496 400.8373444616216 L578.2569413887531 400.84574411040467 L579.0646192173567 400.8730331406879 L579.8722970459603 400.92140020095167 L580.679974874564 400.9925901008334 L581.4876527031676 401.08791718423635 L582.2953305317711 401.20828285428354 L583.1030083603747 401.35419647200376 L583.9106861889784 401.5257989013945 L584.718364017582 401.7228880389726 L585.5260418461855 401.9449457417944 L586.3337196747891 402.19116564979413 L587.1413975033929 402.46048148184394 L587.9490753319964 402.75159546614475 L588.7567531605999 403.0630066408509 L589.5644309892035 403.3930388272489 L590.3721088178073 403.7398681331316 L591.1797866464109 404.1015498868015 L591.9874644750143 404.4760449318203 L592.7951423036179 404.861245229416 L592.7951423036179 414.0 L591.9874644750143 414.0 L591.1797866464109 414.0 L590.3721088178073 414.0 L589.5644309892035 414.0 L588.7567531605999 414.0 L587.9490753319964 414.0 L587.1413975033929 414.0 L586.3337196747891 414.0 L585.5260418461855 414.0 L584.718364017582 414.0 L583.9106861889784 414.0 L583.1030083603747 414.0 L582.2953305317711 414.0 L581.4876527031676 414.0 L580.679974874564 414.0 L579.8722970459603 414.0 L579.0646192173567 414.0 L578.2569413887531 414.0 L577.4492635601496 414.0 L576.6415857315458 414.0 L575.8339079029423 414.0 L575.0262300743387 414.0 L574.2185522457352 414.0 L573.4108744171314 414.0 L572.6031965885278 414.0 L571.7955187599243 414.0 L570.9878409313208 414.0 L570.180163102717 414.0 L569.3724852741134 414.0 L568.5648074455098 414.0 L567.7571296169064 414.0 L566.9494517883026 414.0 L566.141773959699 414.0 L565.3340961310954 414.0 L564.5264183024917 414.0 L563.7187404738881 414.0 L562.9110626452846 414.0 L562.103384816681 414.0 L561.2957069880772 414.0 L560.4880291594737 414.0 L559.6803513308702 414.0 L558.8726735022666 414.0 L558.0649956736628 414.0 L557.2573178450592 414.0 L556.4496400164556 414.0 L555.6419621878522 414.0 L554.8342843592484 414.0 L554.0266065306448 414.0 L553.2189287020412 414.0 L552.4112508734377 414.0 L551.603573044834 414.0 L550.7958952162304 414.0 L549.9882173876268 414.0 L549.1805395590233 414.0 L548.3728617304196 414.0 L547.565183901816 414.0 L546.7575060732124 414.0 L545.9498282446089 414.0 L545.142150416005 414.0 L544.3344725874016 414.0 L543.526794758798 414.0 L542.7191169301944 414.0 L541.9114391015906 414.0 L541.1037612729871 414.0 L540.2960834443836 414.0 L539.48840561578 414.0 L538.6807277871762 414.0 L537.8730499585727 414.0 L537.0653721299691 414.0 L536.2576943013656 414.0 L535.4500164727618 414.0 L534.6423386441583 414.0 L533.8346608155547 414.0 L533.0269829869511 414.0 L532.2193051583474 414.0 L531.4116273297439 414.0 L530.6039495011403 414.0 L529.7962716725367 414.0 L528.988593843933 414.0 L528.1809160153294 414.0 L527.3732381867259 414.0 L526.5655603581223 414.0 L525.7578825295185 414.0 L524.9502047009149 414.0 L524.1425268723115 414.0 L523.3348490437077 414.0 L522.5271712151041 414.0 L521.7194933865005 414.0 L520.911815557897 414.0 L520.1041377292933 414.0 L519.2964599006897 414.0 L518.4887820720861 414.0 L517.6811042434825 414.0 L516.8734264148788 414.0 L516.0657485862753 414.0 L515.2580707576717 414.0 L514.4503929290681 414.0 L513.6427151004643 414.0 L512.8350372718609 414.0 L512.0273594432573 414.0 L511.2196816146537 414.0 L510.4120037860499 414.0 L509.60432595744635 414.0 L508.7966481288429 414.0 L507.9889703002393 414.0 L507.1812924716355 414.0 L506.37361464303194 414.0 L505.56593681442837 414.0 L504.7582589858249 414.0 L503.9505811572211 414.0 L503.14290332861754 414.0 L502.33522550001396 414.0 L501.5275476714104 414.0 L500.7198698428067 414.0 L499.91219201420313 414.0 L499.10451418559956 414.0 L498.296836356996 414.0 L497.4891585283923 414.0 L496.6814806997887 414.0 L495.87380287118515 414.0 L495.0661250425816 414.0 L494.2584472139778 414.0 L493.4507693853742 414.0 L492.64309155677074 414.0 L491.83541372816717 414.0 L491.02773589956337 414.0 L490.2200580709598 414.0 L489.4123802423562 414.0 L488.60470241375276 414.0 L487.79702458514896 414.0 L486.9893467565454 414.0 L486.1816689279418 414.0 L485.37399109933824 414.0 L484.56631327073455 414.0 L483.758635442131 414.0 L482.9509576135274 414.0 L482.1432797849237 414.0 L481.33560195632015 414.0 L480.5279241277166 414.0 L479.720246299113 414.0 L478.9125684705093 414.0 L478.1048906419056 414.0 L477.29721281330217 414.0 L476.4895349846986 414.0 L475.6818571560949 414.0 L474.8741793274912 414.0 L474.06650149888765 414.0 L473.2588236702842 414.0 L472.4511458416805 414.0 L471.6434680130768 414.0 L470.83579018447324 414.0 L470.02811235586967 414.0 L469.2204345272661 414.0 L468.4127566986624 414.0 L467.60507887005883 414.0 L466.79740104145526 414.0 L465.9897232128516 414.0 L465.182045384248 414.0 L464.3743675556444 414.0 L463.56668972704085 414.0 L462.75901189843717 414.0 L461.9513340698336 414.0 L461.14365624123 414.0 L460.33597841262633 414.0 L459.52830058402265 414.0 L458.7206227554191 414.0 L457.9129449268155 414.0 L457.1052670982119 414.0 L456.29758926960824 414.0 L455.48991144100466 414.0 L454.6822336124011 414.0 L453.8745557837975 414.0 L453.06687795519383 414.0 L452.25920012659026 414.0 L451.4515222979867 414.0 L450.643844469383 414.0 L449.8361666407794 414.0 L449.02848881217585 414.0 L448.2208109835723 414.0 L447.4131331549686 414.0 L446.6054553263649 414.0 L445.79777749776144 414.0 L444.99009966915787 414.0 L444.1824218405542 414.0 L443.3747440119505 414.0 L442.5670661833469 414.0 L441.75938835474346 414.0 L440.9517105261398 414.0 L440.1440326975361 414.0 L439.3363548689325 414.0 L438.52867704032894 414.0 L437.72099921172537 414.0 L436.9133213831217 414.0 L436.1056435545181 414.0 L435.29796572591454 414.0 L434.49028789731085 414.0 L433.6826100687073 414.0 L432.8749322401037 414.0 L432.06725441150013 414.0 L431.25957658289644 414.0 L430.45189875429287 414.0 L429.6442209256893 414.0 L428.8365430970857 414.0 L428.02886526848204 414.0 L427.22118743987835 414.0 L426.4135096112748 414.0 L425.6058317826713 414.0 L424.79815395406763 414.0 L423.99047612546394 414.0 L423.18279829686037 414.0 L422.3751204682568 414.0 L421.5674426396532 414.0 L420.75976481104954 414.0 L419.95208698244596 414.0 L419.1444091538423 414.0 L418.3367313252387 414.0 L417.52905349663513 414.0 L416.72137566803156 414.0 L415.91369783942787 414.0 L415.1060200108242 414.0 L414.2983421822207 414.0 L413.49066435361715 414.0 L412.68298652501346 414.0 L411.8753086964098 414.0 L411.0676308678062 414.0 L410.25995303920274 414.0 L409.45227521059905 414.0 L408.64459738199537 414.0 L407.8369195533918 414.0 L407.0292417247882 414.0 L406.22156389618465 414.0 L405.41388606758096 414.0 L404.6062082389774 414.0 L403.7985304103738 414.0 L402.9908525817701 414.0 L402.18317475316655 414.0 L401.375496924563 414.0 L400.5678190959594 414.0 L399.7601412673557 414.0 L398.9524634387521 414.0 L398.1447856101485 414.0 L397.337107781545 414.0 L396.5294299529413 414.0 L395.7217521243377 414.0 L394.9140742957341 414.0 L394.10639646713054 414.0 L393.2987186385269 414.0 L392.4910408099232 414.0 L391.6833629813197 414.0 L390.87568515271613 414.0 L390.06800732411244 414.0 L389.2603294955088 414.0 L388.45265166690524 414.0 L387.6449738383017 414.0 L386.83729600969804 414.0 L386.0296181810944 414.0 L385.22194035249083 414.0 L384.41426252388726 414.0 L383.60658469528363 414.0 L382.79890686667994 414.0 L381.9912290380764 414.0 L381.18355120947285 414.0 L380.37587338086917 414.0 L379.56819555226554 414.0 L378.76051772366196 414.0 L377.95283989505833 414.0 L377.14516206645465 414.0 L376.3374842378511 414.0 L375.52980640924756 414.0 L374.72212858064387 414.0 L373.91445075204024 414.0 L373.10677292343667 414.0 L372.2990950948331 414.0 L371.49141726622946 414.0 L370.6837394376258 414.0 L369.87606160902226 414.0 L369.0683837804187 414.0 L368.26070595181505 414.0 L367.45302812321137 414.0 L366.6453502946078 414.0 L365.8376724660043 414.0 L365.0299946374006 414.0 L364.22231680879696 414.0 L363.4146389801934 414.0 L362.6069611515898 414.0 L361.7992833229862 414.0 L360.9916054943825 414.0 L360.183927665779 414.0 L359.3762498371754 414.0 L358.5685720085717 414.0 L357.7608941799681 414.0 L356.9532163513645 414.0 L356.145538522761 414.0 L355.3378606941573 414.0 L354.5301828655537 414.0 L353.7225050369501 414.0 L352.91482720834654 414.0 L352.1071493797429 414.0 L351.2994715511392 414.0 L350.4917937225357 414.0 L349.68411589393213 414.0 L348.87643806532844 414.0 L348.0687602367248 414.0 L347.26108240812124 414.0 L346.45340457951767 414.0 L345.64572675091404 414.0 L344.8380489223104 414.0 L344.03037109370683 414.0 L343.2226932651032 414.0 L342.41501543649963 414.0 L341.607337607896 414.0 L340.79965977929237 414.0 L339.9919819506888 414.0 L339.18430412208517 414.0 L338.3766262934816 414.0 L337.5689484648779 414.0 L336.76127063627433 414.0 L335.9535928076707 414.0 L335.1459149790671 414.0 L334.3382371504635 414.0 L333.53055932185987 414.0 L332.7228814932563 414.0 L331.91520366465267 414.0 L331.10752583604904 414.0 L330.29984800744546 414.0 L329.49217017884183 414.0 L328.68449235023826 414.0 L327.8768145216346 414.0 L327.069136693031 414.0 L326.2614588644274 414.0 L325.4537810358238 414.0 L324.6461032072202 414.0 L323.8384253786166 414.0 L323.030747550013 414.0 L322.2230697214094 414.0 L321.41539189280576 414.0 L320.6077140642022 414.0 L319.80003623559855 414.0 L318.992358406995 414.0 L318.18468057839135 414.0 L317.3770027497877 414.0 L316.56932492118415 414.0 L315.7616470925805 414.0 L314.95396926397694 414.0 L314.1462914353733 414.0 L313.3386136067697 414.0 L312.5309357781661 414.0 L311.7232579495625 414.0 L310.9155801209589 414.0 L310.1079022923553 414.0 L309.30022446375165 414.0 L308.4925466351481 414.0 L307.68486880654444 414.0 L306.87719097794087 414.0 L306.06951314933724 414.0 L305.26183532073367 414.0 L304.45415749213004 414.0 L303.6464796635264 414.0 L302.83880183492283 414.0 L302.0311240063192 414.0 L301.22344617771563 414.0 L300.415768349112 414.0 L299.60809052050837 414.0 L298.8004126919048 414.0 L297.99273486330117 414.0 L297.1850570346976 414.0 L296.3773792060939 414.0 L295.56970137749033 414.0 L294.7620235488867 414.0 L293.9543457202831 414.0 L293.1466678916795 414.0 L292.33899006307587 414.0 L291.5313122344723 414.0 L290.72363440586867 414.0 L289.91595657726504 414.0 L289.10827874866146 414.0 L288.30060092005783 414.0 L287.49292309145426 414.0 L286.68524526285063 414.0 L285.877567434247 414.0 L285.0698896056434 414.0 L284.2622117770398 414.0 L283.4545339484362 414.0 L282.6468561198326 414.0 L281.83917829122896 414.0 L281.0315004626254 414.0 L280.22382263402176 414.0 L279.4161448054182 414.0 L278.60846697681455 414.0 L277.800789148211 414.0 L276.99311131960735 414.0 L276.1854334910037 414.0 L275.37775566240015 414.0 L274.5700778337965 414.0 L273.76240000519294 414.0 L272.9547221765893 414.0 L272.1470443479857 414.0 L271.3393665193821 414.0 L270.5316886907785 414.0 L269.7240108621749 414.0 L268.9163330335713 414.0 L268.10865520496765 414.0 L267.3009773763641 414.0 L266.49329954776044 414.0 L265.68562171915687 414.0 L264.87794389055324 414.0 L264.0702660619496 414.0 L263.26258823334604 414.0 L262.4549104047424 414.0 L261.64723257613883 414.0 L260.8395547475352 414.0 L260.0318769189316 414.0 L259.224199090328 414.0 L258.41652126172437 414.0 L257.60884343312074 414.0 L256.80116560451717 414.0 L255.99348777591354 414.0 L255.18580994730996 414.0 L254.37813211870628 414.0 L253.57045429010276 414.0 L252.76277646149907 414.0 L251.95509863289556 414.0 L251.14742080429187 414.0 L250.3397429756883 414.0 L249.53206514708467 414.0 L248.7243873184811 414.0 L247.91670948987746 414.0 L247.1090316612739 414.0 L246.30135383267026 414.0 L245.49367600406669 414.0 L244.685998175463 414.0 L243.87832034685943 414.0 L243.0706425182558 414.0 L242.26296468965222 414.0 L241.4552868610486 414.0 L240.64760903244496 414.0 L239.8399312038414 414.0 L239.03225337523776 414.0 L238.22457554663418 414.0 L237.41689771803055 414.0 L236.60921988942692 414.0 L235.80154206082335 414.0 L234.99386423221972 414.0 L234.18618640361615 414.0 L233.37850857501252 414.0 L232.5708307464089 414.0 L231.76315291780531 414.0 L230.95547508920168 414.0 L230.1477972605981 414.0 L229.34011943199448 414.0 L228.5324416033909 414.0 L227.72476377478728 414.0 L226.91708594618365 414.0 L226.10940811758007 414.0 L225.30173028897644 414.0 L224.4940524603728 414.0 L223.68637463176924 414.0 L222.87869680316555 414.0 L222.07101897456204 414.0 L221.26334114595835 414.0 L220.45566331735483 414.0 L219.64798548875115 414.0 L218.84030766014757 414.0 L218.03262983154394 414.0 L217.22495200294037 414.0 L216.41727417433674 414.0 L215.60959634573317 414.0 L214.80191851712954 414.0 L213.99424068852596 414.0 L213.18656285992228 414.0 L212.37888503131876 414.0 L211.57120720271507 414.0 L210.7635293741115 414.0 L209.95585154550787 414.0 L209.1481737169043 414.0 L208.34049588830067 414.0 L207.5328180596971 414.0 L206.72514023109346 414.0 L205.9174624024899 414.0 L205.1097845738862 414.0 L204.30210674528269 414.0 L203.494428916679 414.0 L202.68675108807543 414.0 L201.8790732594718 414.0 L201.07139543086817 414.0 L200.2637176022646 414.0 L199.45603977366096 414.0 L198.6483619450574 414.0 L197.84068411645376 414.0 L197.03300628785018 414.0 L196.22532845924655 414.0 L195.41765063064292 414.0 L194.60997280203935 414.0 L193.80229497343572 414.0 L192.99461714483215 414.0 L192.18693931622852 414.0 L191.3792614876249 414.0 L190.57158365902131 414.0 L189.76390583041768 414.0 L188.9562280018141 414.0 L188.14855017321048 414.0 L187.34087234460685 414.0 L186.53319451600328 414.0 L185.72551668739965 414.0 L184.91783885879607 414.0 L184.11016103019244 414.0 L183.3024832015888 414.0 L182.49480537298524 414.0 L181.68712754438155 414.0 L180.87944971577804 414.0 L180.07177188717435 414.0 L179.26409405857083 414.0 L178.45641622996715 414.0 L177.64873840136357 414.0 L176.84106057275994 414.0 L176.03338274415637 414.0 L175.22570491555274 414.0 L174.41802708694917 414.0 L173.61034925834548 414.0 L172.80267142974196 414.0 L171.99499360113828 414.0 L171.18731577253476 414.0 L170.37963794393107 414.0 L169.5719601153275 414.0 L168.76428228672387 414.0 L167.9566044581203 414.0 L167.14892662951667 414.0 L166.3412488009131 414.0 L165.53357097230946 414.0 L164.7258931437059 414.0 L163.9182153151022 414.0 L163.11053748649869 414.0 L162.302859657895 414.0 L161.49518182929143 414.0 L160.6875040006878 414.0 L159.87982617208417 414.0 L159.0721483434806 414.0 L158.26447051487696 414.0 L157.4567926862734 414.0 L156.64911485766976 414.0 L155.84143702906613 414.0 L155.03375920046255 414.0 L154.22608137185892 414.0 L153.41840354325535 414.0 L152.61072571465172 414.0 L151.8030478860481 414.0 L150.99537005744452 414.0 L150.1876922288409 414.0 L149.38001440023731 414.0 L148.57233657163368 414.0 L147.7646587430301 414.0 L146.95698091442648 414.0 L146.14930308582285 414.0 L145.34162525721928 414.0 L144.53394742861565 414.0 L143.72626960001207 414.0 L142.91859177140844 414.0 L142.1109139428048 414.0 L141.30323611420124 414.0 L140.4955582855976 414.0 L139.68788045699398 414.0 L138.8802026283904 414.0 L138.07252479978678 414.0 L137.2648469711832 414.0 L136.45716914257957 414.0 L135.64949131397594 414.0 L134.84181348537237 414.0 L134.03413565676868 414.0 L133.22645782816517 414.0 L132.41877999956148 414.0 L131.6111021709579 414.0 L130.80342434235428 414.0 L129.9957465137507 414.0 L129.18806868514707 414.0 L128.3803908565435 414.0 L127.57271302793986 414.0 L126.76503519933628 414.0 L125.95735737073262 414.0 L125.14967954212902 414.0 L124.34200171352542 414.0 L123.53432388492182 414.0 L122.72664605631822 414.0 L121.91896822771459 414.0 L121.11129039911098 414.0 L120.30361257050738 414.0 L119.49593474190378 414.0 L118.68825691330018 414.0 L117.88057908469655 414.0 L117.07290125609295 414.0 L116.26522342748935 414.0 L115.45754559888574 414.0 L114.64986777028214 414.0 L113.84218994167854 414.0 L113.03451211307491 414.0 L112.22683428447131 414.0 L111.41915645586771 414.0 L110.6114786272641 414.0 L109.8038007986605 414.0 L108.99612297005687 414.0 L108.18844514145327 414.0 L107.38076731284967 414.0 L106.57308948424607 414.0 L105.76541165564247 414.0 L104.95773382703887 414.0 L104.15005599843523 414.0 L103.34237816983163 414.0 L102.53470034122803 414.0 L101.72702251262443 414.0 L100.91934468402083 414.0 L100.1116668554172 414.0 L99.3039890268136 414.0 L98.49631119821 414.0 L97.68863336960639 414.0 L96.88095554100279 414.0 L96.07327771239919 414.0 L95.26559988379553 414.0 L94.45792205519193 414.0 L93.65024422658833 414.0 L92.84256639798473 414.0 L92.03488856938112 414.0 L91.22721074077752 414.0 L90.41953291217389 414.0 L89.61185508357029 414.0 L88.80417725496669 414.0 L87.99649942636309 414.0 L87.18882159775949 414.0 L86.38114376915586 414.0 L85.57346594055225 414.0 L84.76578811194865 414.0 L83.95811028334505 414.0 L83.15043245474145 414.0 L82.34275462613782 414.0 L81.53507679753419 414.0 L80.72739896893059 414.0 L79.91972114032698 414.0 L79.11204331172338 414.0 L78.30436548311978 414.0 L77.49668765451615 414.0 L76.68900982591255 414.0 L75.88133199730895 414.0 L75.07365416870535 414.0 L74.26597634010174 414.0 L73.45829851149814 414.0 L72.65062068289451 414.0 L71.84294285429091 414.0 L71.03526502568731 414.0 L70.22758719708371 414.0 L69.4199093684801 414.0 L68.61223153987648 414.0 L67.80455371127287 414.0 L66.99687588266927 414.0 L66.18919805406567 414.0 L65.38152022546207 414.0 L64.57384239685847 414.0 L63.76616456825484 414.0 L62.958486739651235 414.0 L62.15080891104763 414.0 L61.34313108244403 414.0 L60.53545325384043 414.0 L59.7277754252368 414.0 L58.9200975966332 414.0 L58.112419768029596 414.0 L57.304741939425995 414.0 L56.497064110822365 414.0 L55.68938628221876 414.0 L54.88170845361513 414.0 L54.07403062501153 414.0 L53.26635279640793 414.0 L52.45867496780433 414.0 L51.650997139200726 414.0 L50.843319310597124 414.0 L50.035641481993494 414.0 L49.22796365338989 414.0 L48.42028582478629 414.0 L47.61260799618269 414.0 L46.80493016757909 414.0 L45.99725233897546 414.0 L45.189574510371855 414.0 L44.381896681768254 414.0 L43.57421885316465 414.0 L42.76654102456105 414.0 L41.95886319595745 414.0 L41.15118536735382 414.0 L40.34350753875022 414.0 L39.535829710146615 414.0 L38.728151881542985 414.0 L37.92047405293938 414.0 L37.11279622433578 414.0 L36.30511839573215 414.0 L35.49744056712855 414.0 L34.68976273852495 414.0 L33.882084909921346 414.0 L33.074407081317744 414.0 L32.266729252714114 414.0 L31.459051424110513 414.0 L30.65137359550691 414.0 L29.84369576690331 414.0 L29.036017938299707 414.0 L28.228340109696106 414.0 Z" fill="rgb(71,71,71)" stroke-width="1.0" fill-opacity="0.10196078431372549">
          </path>
        </g>
        <g>
          <path d="M28.228340109696106 410.54451774681115 L28.228340109696106 410.54451774681115 L29.84369576690331 410.4487907703374 L31.459051424110513 410.3805039933254 L33.074407081317744 410.3332913254916 L34.68976273852495 410.29872733482847 L36.30511839573215 410.26695690847447 L37.92047405293938 410.2274414810861 L39.535829710146615 410.1697367516367 L41.15118536735382 410.0842148239854 L42.76654102456105 409.9626546131391 L44.381896681768254 409.79864677844995 L45.99725233897546 409.5877900719477 L47.61260799618269 409.32769000351885 L49.22796365338989 409.0178024632537 L50.843319310597124 408.65918877586233 L52.45867496780433 408.254259959144 L54.07403062501153 407.80658399040516 L55.68938628221876 407.32081051696207 L57.304741939425995 406.80273543421447 L58.9200975966332 406.259488518695 L60.53545325384043 405.6997881495212 L62.15080891104763 405.13417600569466 L63.76616456825484 404.5751284973408 L65.38152022546207 404.0369451637244 L66.99687588266927 403.5353383897937 L68.61223153987648 403.08669059491615 L70.22758719708371 402.70699794828516 L71.84294285429091 402.41057463694716 L73.45829851149814 402.20863902861 L75.07365416870535 402.10793423787976 L76.68900982591255 402.10954502665845 L78.30436548311978 402.20805897538 L79.91972114032698 402.39118485904606 L81.53507679753419 402.63989092906996 L83.15043245474145 402.92906813822106 L84.76578811194865 403.22866645674577 L86.38114376915586 403.50520346167906 L87.99649942636309 403.7235084577466 L89.61185508357029 403.8485452747361 L91.22721074077752 403.8471532729293 L92.84256639798473 403.68955822114316 L94.45792205519193 403.35053105551674 L96.07327771239919 402.81011115407347 L97.68863336960639 402.0538593086286 L99.3039890268136 401.07266080558543 L100.91934468402083 399.862156246753 L102.53470034122803 398.4219304305028 L104.15005599843523 396.7546296353134 L105.76541165564247 394.865196252561 L106.57308948424607 393.83922819965153 L107.38076731284967 392.76039930962276 L108.18844514145327 391.62983469695234 L108.99612297005687 390.44879578283314 L109.8038007986605 389.2187058457415 L110.6114786272641 387.9411819675024 L111.41915645586771 386.6180719774977 L112.22683428447131 385.25149459285285 L113.03451211307491 383.84388060113 L113.84218994167854 382.39801265610987 L114.64986777028214 380.9170610766124 L115.45754559888574 379.4046129698174 L116.26522342748935 377.86469205671006 L117.07290125609295 376.301766765302 L117.88057908469655 374.7207444782201 L118.68825691330018 373.1269502695427 L119.49593474190378 371.5260890289451 L120.30361257050738 369.92419053019626 L121.11129039911098 368.327537730565 L121.91896822771459 366.7425793572947 L122.72664605631822 365.1758286125757 L123.53432388492182 363.6337505725538 L124.34200171352542 362.122641531431 L125.14967954212902 360.64850411244237 L125.95735737073262 359.216922400475 L126.76503519933628 357.83294161843236 L127.57271302793986 356.500956949994 L128.3803908565435 355.2246159921974 L129.18806868514707 354.00673899846896 L129.9957465137507 352.8492605523111 L130.80342434235428 351.7531956096426 L131.6111021709579 350.71863198899814 L133.22645782816517 348.82987209419895 L134.84181348537237 347.1665818925884 L136.45716914257957 345.7015410659029 L138.07252479978678 344.4007398671716 L139.68788045699398 343.22816795759337 L141.30323611420124 342.1506668093218 L142.91859177140844 341.14212718234444 L144.53394742861565 340.1864081655882 L146.14930308582285 339.2785547203914 L147.7646587430301 338.4241623385192 L149.38001440023731 337.6370329507697 L150.99537005744452 336.9355341280425 L152.61072571465172 336.33826810276224 L154.22608137185892 335.85974654206126 L155.84143702906613 335.50673931021527 L157.4567926862734 335.2758298373135 L159.0721483434806 335.15249394304124 L160.6875040006878 335.1117634520715 L162.302859657895 335.120285684606 L163.9182153151022 335.13938614787514 L165.53357097230946 335.12861489327406 L167.14892662951667 335.0492220972196 L168.76428228672387 334.86706387057245 L170.37963794393107 334.55456865827006 L171.99499360113828 334.09157084857105 L173.61034925834548 333.46500944980386 L175.22570491555274 332.6676648987214 L176.84106057275994 331.6962410338863 L178.45641622996715 330.5491758445639 L180.07177188717435 329.22457796014436 L181.68712754438155 327.7186399044103 L183.3024832015888 326.02478562158944 L184.91783885879607 324.13368544285333 L185.72551668739965 323.11070013257756 L186.53319451600328 322.03413536815185 L187.34087234460685 320.9025628370324 L188.14855017321048 319.71466765104435 L188.9562280018141 318.4693208555051 L189.76390583041768 317.16565204521294 L190.57158365902131 315.8031193029562 L191.3792614876249 314.3815737290291 L192.18693931622852 312.9013159707491 L192.99461714483215 311.36314238502086 L193.80229497343572 309.768378768439 L194.60997280203935 308.11889996007574 L195.41765063064292 306.4171340519507 L196.22532845924655 304.666050419561 L197.03300628785018 302.8691312965258 L197.84068411645376 301.03032714898774 L198.6483619450574 299.1539966414884 L199.45603977366096 297.24483251054255 L200.2637176022646 295.3077751588197 L201.07139543086817 293.34791623551257 L201.8790732594718 291.3703948616553 L202.68675108807543 289.38028947844157 L203.494428916679 287.3825085292277 L204.30210674528269 285.381683321231 L205.1097845738862 283.3820664429787 L205.9174624024899 281.3874390332959 L206.72514023109346 279.4010300055959 L207.5328180596971 277.42545002955114 L208.34049588830067 275.4626426669913 L209.1481737169043 273.5138545600394 L209.95585154550787 271.579625990855 L210.7635293741115 269.65980249115444 L211.57120720271507 267.7535674963722 L212.37888503131876 265.85949533669856 L213.18656285992228 263.97562315996845 L213.99424068852596 262.09953971484595 L214.80191851712954 260.2284883123709 L215.60959634573317 258.35948075377553 L216.41727417433674 256.4894185845848 L217.22495200294037 254.61521772793674 L218.03262983154394 252.7339323783813 L218.84030766014757 250.84287401051455 L219.64798548875115 248.93972147859563 L220.45566331735483 247.0226184515155 L221.26334114595835 245.0902548339586 L222.07101897456204 243.14192935498608 L222.87869680316555 241.17759113996965 L223.68637463176924 239.19785879640247 L224.4940524603728 237.20401631058974 L225.30173028897644 235.19798584023076 L226.10940811758007 233.18227826599357 L226.91708594618365 231.1599231026219 L227.72476377478728 229.13438003809523 L228.5324416033909 227.10943494264797 L229.34011943199448 225.08908364752477 L230.1477972605981 223.07740712152926 L230.95547508920168 221.0784418633949 L231.76315291780531 219.0960493784229 L232.5708307464089 217.13378852393322 L233.37850857501252 215.19479430152867 L234.18618640361615 213.2816663620163 L234.99386423221972 211.39637009241196 L235.80154206082335 209.5401526980203 L236.60921988942692 207.71347620157766 L237.41689771803055 205.91596878099546 L238.22457554663418 204.14639538039697 L239.03225337523776 202.40264807554365 L239.8399312038414 200.68175626932023 L240.64760903244496 198.9799164451039 L241.4552868610486 197.29254091905793 L242.26296468965222 195.6143248040653 L243.0706425182558 193.93933022018115 L243.87832034685943 192.26108664640728 L244.685998175463 190.57270619028216 L245.49367600406669 188.86701243739446 L246.30135383267026 187.13668141460508 L247.1090316612739 185.37439304236602 L247.91670948987746 183.57299125045526 L248.7243873184811 181.7256506800762 L249.53206514708467 179.82604759229162 L250.3397429756883 177.86853225379323 L251.14742080429187 175.84829968907275 L251.95509863289556 173.76155529312769 L252.76277646149907 171.60567141708222 L253.57045429010276 169.37933070157476 L254.37813211870628 167.08265167336117 L255.18580994730996 164.71729197419748 L255.99348777591354 162.28652459068684 L256.80116560451717 159.79528262851437 L257.60884343312074 157.25016854671202 L258.41652126172437 154.6594243509948 L259.224199090328 152.03286004307478 L260.0318769189316 149.38173862661552 L260.8395547475352 146.71861715962234 L261.64723257613883 144.0571446845396 L262.4549104047424 141.41181931746723 L263.26258823334604 138.79770828292737 L264.0702660619496 136.23013617998703 L264.87794389055324 133.7243481937581 L265.68562171915687 131.29515625702948 L266.49329954776044 128.95657725558493 L267.3009773763641 126.7214731987084 L268.10865520496765 124.60120379373171 L268.9163330335713 122.60530203163592 L269.7240108621749 120.74118318564524 L270.5316886907785 119.01389703767296 L271.3393665193821 117.42593218629071 L272.1470443479857 115.97707997909691 L272.9547221765893 114.6643639918646 L273.76240000519294 113.48203910096663 L274.5700778337965 112.42166213001968 L276.1854334910037 110.62041006503176 L277.800789148211 109.14618340117511 L279.4161448054182 107.85716496443547 L281.0315004626254 106.59683911127854 L282.6468561198326 105.20843294692258 L284.2622117770398 103.54955262318413 L285.877567434247 101.50543966383793 L286.68524526285063 100.31326817711192 L287.49292309145426 98.99944291215309 L288.30060092005783 97.56142382238204 L289.10827874866146 95.99963672218502 L289.91595657726504 94.31743089507728 L290.72363440586867 92.52096561310526 L291.5313122344723 90.61902955896193 L292.33899006307587 88.6227988662202 L293.1466678916795 86.54554101784942 L293.9543457202831 84.4022731341376 L294.7620235488867 82.20938421184002 L295.56970137749033 79.98423162854391 L296.3773792060939 77.74472268954753 L297.1850570346976 75.5088921661009 L297.99273486330117 73.29448665760958 L298.8004126919048 71.11856621658745 L299.60809052050837 68.99713301956984 L300.415768349112 66.94479597066754 L301.22344617771563 64.9744790122075 L302.0311240063192 63.09717961840278 L302.83880183492283 61.32178249607887 L303.6464796635264 59.65493194753367 L304.45415749213004 58.10096470383235 L305.26183532073367 56.661903354052356 L306.06951314933724 55.33750882093943 L306.87719097794087 54.12538871134376 L307.68486880654444 53.02115684618582 L308.4925466351481 52.018637894513404 L310.1079022923553 50.28657606000678 L311.7232579495625 48.85389931056682 L313.3386136067697 47.634472228384766 L314.95396926397694 46.54085098902897 L316.56932492118415 45.49280699564923 L318.18468057839135 44.42392795829187 L319.80003623559855 43.285699310251346 L321.41539189280576 42.04887007123722 L323.030747550013 40.702319560266176 L324.6461032072202 39.249995949748495 L326.2614588644274 37.70673438424984 L327.8768145216346 36.09384244340271 L329.49217017884183 34.43525560083691 L331.10752583604904 32.75483950777107 L332.7228814932563 31.075102141919785 L334.3382371504635 29.417246635905826 L335.9535928076707 27.80221567262646 L337.5689484648779 26.25220669209199 L339.18430412208517 24.79210264379276 L340.79965977929237 23.450361640992583 L342.41501543649963 22.259106090045464 L344.03037109370683 21.25339218710417 L345.64572675091404 20.469861904417883 L347.26108240812124 19.945128037187033 L348.87643806532844 19.714285714285722 L350.4917937225357 19.809875667346716 L352.1071493797429 20.261467403944494 L353.7225050369501 21.095826725286713 L355.3378606941573 22.337433903986494 L356.9532163513645 24.008975764111995 L357.7608941799681 25.012596342361974 L358.5685720085717 26.131382870824552 L359.3762498371754 27.367547743299383 L360.183927665779 28.723037424307506 L360.9916054943825 30.199448934038173 L361.7992833229862 31.79793071358131 L362.6069611515898 33.51907040412732 L363.4146389801934 35.36277302621818 L364.22231680879696 37.328133883909686 L365.0299946374006 39.41331120121379 L365.8376724660043 41.61540398816419 L366.6453502946078 43.93034090314649 L367.45302812321137 46.35278590768121 L368.26070595181505 48.87606629080108 L369.0683837804187 51.49212817389218 L369.87606160902226 54.191523905522104 L370.6837394376258 56.9634348415027 L371.49141726622946 59.79573190968085 L372.2990950948331 62.67507512169681 L373.10677292343667 65.58705186151968 L373.91445075204024 68.51635240450668 L374.72212858064387 71.44697975532978 L375.52980640924756 74.3624895933167 L376.3374842378511 77.24625493288448 L377.14516206645465 80.08174909408683 L377.95283989505833 82.85283977699925 L378.76051772366196 85.54408647877312 L379.56819555226554 88.14103320872425 L380.37587338086917 90.63048845893553 L381.18355120947285 93.00078467765917 L381.9912290380764 95.24201006032604 L382.79890686667994 97.34620629642683 L383.60658469528363 99.30752695719139 L384.41426252388726 101.122352436607 L385.22194035249083 102.78935871705534 L386.0296181810944 104.30953866542211 L386.83729600969804 105.68617601800509 L387.6449738383017 106.9247736247923 L388.45265166690524 108.03293884018854 L390.06800732411244 109.89796984811 L391.6833629813197 111.37759154926732 L393.2987186385269 112.5889987018503 L394.9140742957341 113.66216642947774 L396.5294299529413 114.73159880631363 L398.1447856101485 115.9286142167648 L399.7601412673557 117.37467373052294 L401.375496924563 119.17603035863289 L402.18317475316655 120.23798633141104 L402.9908525817701 121.41975660749631 L403.7985304103738 122.7287844994205 L404.6062082389774 124.17103511774638 L405.41388606758096 125.75096428324929 L406.22156389618465 127.47149842907845 L407.0292417247882 129.33402422228136 L407.8369195533918 131.33838706394363 L408.64459738199537 133.48289810087812 L409.45227521059905 135.76434986265616 L410.25995303920274 138.17804108997706 L411.0676308678062 140.71781171059865 L411.8753086964098 143.37608921855764 L412.68298652501346 146.14394789809074 L413.49066435361715 149.0111823896279 L414.2983421822207 151.9663970129572 L415.1060200108242 154.9971120416804 L415.91369783942787 158.08988777070732 L416.72137566803156 161.2304667491259 L417.52905349663513 164.40393398512123 L418.3367313252387 167.59489429355517 L419.1444091538423 170.78766527977479 L419.95208698244596 173.96648376698533 L420.75976481104954 177.1157228112152 L421.5674426396532 180.22011583876062 L422.3751204682568 183.26498391485143 L423.18279829686037 186.23646173416694 L423.99047612546394 189.1217176341387 L424.79815395406763 191.90916278556256 L425.6058317826713 194.58864472082706 L426.4135096112748 197.1516205207853 L427.22118743987835 199.59130529362605 L428.02886526848204 201.90279203404523 L428.8365430970857 204.08313953439304 L429.6442209256893 206.131425712731 L430.45189875429287 208.04876450379237 L431.25957658289644 209.8382853031003 L432.06725441150013 211.5050748357746 L432.8749322401037 213.05608221309114 L433.6826100687073 214.49998881529066 L434.49028789731085 215.84704547327948 L435.29796572591454 217.1088801915636 L436.1056435545181 218.29828033938122 L436.9133213831217 219.42895381909693 L437.72099921172537 220.51527418641422 L438.52867704032894 221.5720150355719 L439.3363548689325 222.61407916781718 L440.1440326975361 223.65622813044672 L440.9517105261398 224.712817647516 L441.75938835474346 225.7975442664881 L442.5670661833469 226.92320822542897 L443.3747440119505 228.10149711358957 L444.1824218405542 229.34279436771328 L444.99009966915787 230.6560160326805 L445.79777749776144 232.04847853540716 L446.6054553263649 233.52579949374882 L447.4131331549686 235.0918328267897 L448.2208109835723 236.74863866883456 L449.02848881217585 238.49648783587105 L449.8361666407794 240.33389986867803 L450.643844469383 242.25771299826445 L451.4515222979867 244.26318376229588 L452.25920012659026 246.34411345880963 L453.06687795519383 248.49299816647246 L453.8745557837975 250.70119869674465 L454.6822336124011 252.9591265774156 L455.48991144100466 255.2564420008225 L456.29758926960824 257.5822596024053 L457.1052670982119 259.92535796194363 L457.9129449268155 262.27438883415175 L458.7206227554191 264.61808230831866 L459.52830058402265 266.9454443576891 L460.33597841262633 269.2459435563595 L461.14365624123 271.50968410203177 L461.9513340698336 273.72756267435057 L462.75901189843717 275.89140706846734 L463.56668972704085 277.99409496065437 L464.3743675556444 280.0296515771963 L465.182045384248 281.9933254410031 L465.9897232128516 283.8816417558469 L466.79740104145526 285.6924333510036 L467.60507887005883 287.4248494463627 L468.4127566986624 289.07934280830614 L469.2204345272661 290.65763614970757 L470.02811235586967 292.1626688840533 L470.83579018447324 293.5985255753718 L471.6434680130768 294.97034763393555 L472.4511458416805 296.28422999405325 L473.2588236702842 297.5471046756564 L474.06650149888765 298.76661327610566 L474.8741793274912 299.95097056214024 L475.6818571560949 301.10882143274944 L476.4895349846986 302.249093599708 L477.29721281330217 303.3808483806712 L478.1048906419056 304.51313201672247 L478.9125684705093 305.6548299086186 L479.720246299113 306.81452611040254 L480.5279241277166 308.0003703228038 L481.33560195632015 309.2199544900762 L482.1432797849237 310.48020092197606 L482.9509576135274 311.7872636382347 L483.758635442131 313.14644436854746 L484.56631327073455 314.5621243408567 L485.37399109933824 316.0377126603847 L486.1816689279418 317.57561172883555 L486.9893467565454 319.177199786247 L487.79702458514896 320.8428302870316 L488.60470241375276 322.57184745750027 L489.4123802423562 324.36261703564446 L490.2200580709598 326.2125708761535 L491.02773589956337 328.1182638249562 L491.83541372816717 330.0754410374788 L492.64309155677074 332.0791137412591 L493.4507693853742 334.1236413327836 L494.2584472139778 336.20281765441496 L495.0661250425816 338.30995932180207 L495.87380287118515 340.43799406428764 L496.6814806997887 342.57954719720476 L497.4891585283923 344.72702455961837 L498.296836356996 346.87269051585315 L499.10451418559956 349.0087399237478 L499.91219201420313 351.1273633051263 L500.7198698428067 353.22080480133656 L501.5275476714104 355.2814128451866 L502.33522550001396 357.30168381629187 L503.14290332861754 359.2742992564308 L503.9505811572211 361.19215749260417 L504.7582589858249 363.0484007374311 L505.56593681442837 364.83643890048734 L506.37361464303194 366.5499714439085 L507.1812924716355 368.1830086472852 L507.9889703002393 369.7298936096829 L508.7966481288429 371.1853262123075 L509.60432595744635 372.54439009846294 L510.4120037860499 373.8025835048891 L511.2196816146537 374.9558545094101 L512.0273594432573 376.00064095474653 L513.6427151004643 377.75323174575306 L515.2580707576717 379.04344472050934 L516.8734264148788 379.8654126455896 L518.4887820720861 380.22605260611084 L520.1041377292933 380.14664120121313 L521.7194933865005 379.6639686369454 L523.3348490437077 378.8308092997776 L524.9502047009149 377.7154748637785 L526.5655603581223 376.4002786366435 L528.1809160153294 374.97883225748893 L529.7962716725367 373.55221017086956 L531.4116273297439 372.2241425692728 L533.0269829869511 371.09552026961813 L534.6423386441583 370.2586003458109 L536.2576943013656 369.79137446459094 L537.8730499585727 369.75259012447617 L539.48840561578 370.1778901798346 L541.1037612729871 371.0774563959748 L542.7191169301944 372.4354142254254 L544.3344725874016 374.211092000782 L545.142150416005 375.23679787524503 L545.9498282446089 376.3420478380019 L546.7575060732124 377.5163803846168 L547.565183901816 378.74860447620085 L548.3728617304196 380.0269941412462 L549.1805395590233 381.33948833953 L549.9882173876268 382.67389177292705 L550.7958952162304 384.0180724205542 L551.603573044834 385.3601517825861 L552.4112508734377 386.68868412756564 L553.2189287020412 387.99282143794863 L554.0266065306448 389.2624612213536 L554.8342843592484 390.4883748821164 L555.6419621878522 391.66231491009205 L556.4496400164556 392.7770997219059 L557.2573178450592 393.82667556558783 L558.8726735022666 395.7118356273578 L560.4880291594737 397.2928473396048 L562.103384816681 398.5630632783417 L563.7187404738881 399.53251258174646 L565.3340961310954 400.2253780144627 L566.9494517883026 400.6768762732894 L568.5648074455098 400.92984840469114 L570.180163102717 401.03134402794996 L571.7955187599243 401.0294391262758 L573.4108744171314 400.97046995454645 L575.0262300743387 400.8968023814815 L576.6415857315458 400.8451932959034 L578.2569413887531 400.84574411040467 L579.8722970459603 400.92140020095167 L581.4876527031676 401.08791718423635 L583.1030083603747 401.35419647200376 L584.718364017582 401.7228880389726 L586.3337196747891 402.19116564979413 L587.9490753319964 402.75159546614475 L589.5644309892035 403.3930388272489 L591.1797866464109 404.1015498868015 L592.7951423036179 404.861245229416 " fill="none" stroke-width="1.6500000000000001" stroke="rgb(71,71,71)" stroke-opacity="1.0">
          </path>
        </g>
      </g>
      <g transform="translate(50.97651758668602 0.0 ) " clip-path="url(#xXxprefixXx2)" clip-bounds-jfx="[rect (0.0, 0.0), (621.023482413314, 414.0)]">
        <defs>
          <clipPath id="xXxprefixXx2">
            <rect x="0.0" y="0.0" width="621.023482413314" height="414.0">
            </rect>
          </clipPath>
        </defs>
        <line x1="332.70019385862753" y1="414.0" x2="332.70019385862753" y2="0.0" stroke="rgb(238,102,102)" stroke-opacity="1.0" fill="rgb(17,142,216)" fill-opacity="1.0" stroke-width="4.4">
        </line>
      </g>
    </g>
    <g transform="translate(14.5 217.0 ) rotate(-90.0 ) ">
      <text class="axis-title-y" y="0.0" text-anchor="middle">
      densityWeighted
      </text>
    </g>
    <g transform="translate(384.488258793343 461.5 ) ">
      <text class="axis-title-x" y="0.0" text-anchor="middle">
      depth, m
      </text>
    </g>
    <path fill="rgb(0,0,0)" fill-opacity="0.0" stroke="rgb(71,71,71)" stroke-opacity="1.0" stroke-width="0.0" d="M0.0 0.0 L0.0 470.0 L705.0 470.0 L705.0 0.0 Z">
    </path>
  </g>
  <g id="xXxprefixXx3">
  </g>
</svg>