<svg xmlns="http://www.w3.org/2000/svg" xmlns:xlink="http://www.w3.org/1999/xlink" class="plt-container" width="705.0" height="470.0">
  <style type="text/css">
  .plt-container {
   font-family: Lucida Grande, sans-serif;
   user-select: none;
   -webkit-user-select: none;
   -moz-user-select: none;
   -ms-user-select: none;
}
text {
   text-rendering: optimizeLegibility;
}
#xXxprefixXx0 .plot-title {
   fill: #bbbbbb;
   font-family: Lucida Grande, sans-serif;
   font-size: 16.0px;
   font-weight: normal;
   font-style: normal;   
}
#xXxprefixXx0 .plot-subtitle {
   fill: #bbbbbb;
   font-family: Lucida Grande, sans-serif;
   font-size: 15.0px;
   font-weight: normal;
   font-style: normal;   
}
#xXxprefixXx0 .plot-caption {
   fill: #bbbbbb;
   font-family: Lucida Grande, sans-serif;
   font-size: 13.0px;
   font-weight: normal;
   font-style: normal;   
}
#xXxprefixXx0 .legend-title {
   fill: #bbbbbb;
   font-family: Lucida Grande, sans-serif;
   font-size: 15.0px;
   font-weight: normal;
   font-style: normal;   
}
#xXxprefixXx0 .legend-item {
   fill: #bbbbbb;
   font-family: Lucida Grande, sans-serif;
   font-size: 13.0px;
   font-weight: normal;
   font-style: normal;   
}
#xXxprefixXx0 .axis-title-x {
   fill: #bbbbbb;
   font-family: Lucida Grande, sans-serif;
   font-size: 15.0px;
   font-weight: normal;
   font-style: normal;   
}
#xXxprefixXx0 .axis-text-x {
   fill: #bbbbbb;
   font-family: Lucida Grande, sans-serif;
   font-size: 13.0px;
   font-weight: normal;
   font-style: normal;   
}
#xXxprefixXx2 .axis-tooltip-text-x {
   fill: #303030;
   font-family: Lucida Grande, sans-serif;
   font-size: 13.0px;
   font-weight: normal;
   font-style: normal;   
}
#xXxprefixXx0 .axis-title-y {
   fill: #bbbbbb;
   font-family: Lucida Grande, sans-serif;
   font-size: 15.0px;
   font-weight: normal;
   font-style: normal;   
}
#xXxprefixXx0 .axis-text-y {
   fill: #bbbbbb;
   font-family: Lucida Grande, sans-serif;
   font-size: 13.0px;
   font-weight: normal;
   font-style: normal;   
}
#xXxprefixXx2 .axis-tooltip-text-y {
   fill: #303030;
   font-family: Lucida Grande, sans-serif;
   font-size: 13.0px;
   font-weight: normal;
   font-style: normal;   
}
#xXxprefixXx0 .facet-strip-text-x {
   fill: #bbbbbb;
   font-family: Lucida Grande, sans-serif;
   font-size: 13.0px;
   font-weight: normal;
   font-style: normal;   
}
#xXxprefixXx0 .facet-strip-text-y {
   fill: #bbbbbb;
   font-family: Lucida Grande, sans-serif;
   font-size: 13.0px;
   font-weight: normal;
   font-style: normal;   
}
#xXxprefixXx2 .tooltip-text {
   fill: #bbbbbb;
   font-family: Lucida Grande, sans-serif;
   font-size: 13.0px;
   font-weight: normal;
   font-style: normal;   
}
#xXxprefixXx2 .tooltip-title {
   fill: #bbbbbb;
   font-family: Lucida Grande, sans-serif;
   font-size: 13.0px;
   font-weight: bold;
   font-style: normal;   
}
#xXxprefixXx2 .tooltip-label {
   fill: #bbbbbb;
   font-family: Lucida Grande, sans-serif;
   font-size: 13.0px;
   font-weight: bold;
   font-style: normal;   
}

  </style>
  <g id="xXxprefixXx0">
    <path fill-rule="evenodd" fill="rgb(25,25,28)" fill-opacity="1.0" d="M0.0 0.0 L0.0 470.0 L705.0 470.0 L705.0 0.0 Z">
    </path>
    <g transform="translate(23.0 10.0 ) ">
      <g transform="translate(50.97651758668602 414.0 ) ">
        <line x1="37.77116523913762" y1="-0.0" x2="37.77116523913762" y2="-414.0" stroke="rgb(71,71,71)" stroke-opacity="1.0" stroke-width="1.0">
        </line>
        <line x1="98.43254336467044" y1="-0.0" x2="98.43254336467044" y2="-414.0" stroke="rgb(71,71,71)" stroke-opacity="1.0" stroke-width="1.0">
        </line>
        <line x1="159.09392149020323" y1="-0.0" x2="159.09392149020323" y2="-414.0" stroke="rgb(71,71,71)" stroke-opacity="1.0" stroke-width="1.0">
        </line>
        <line x1="219.75529961573605" y1="-0.0" x2="219.75529961573605" y2="-414.0" stroke="rgb(71,71,71)" stroke-opacity="1.0" stroke-width="1.0">
        </line>
        <line x1="280.4166777412688" y1="-0.0" x2="280.4166777412688" y2="-414.0" stroke="rgb(71,71,71)" stroke-opacity="1.0" stroke-width="1.0">
        </line>
        <line x1="341.0780558668016" y1="-0.0" x2="341.0780558668016" y2="-414.0" stroke="rgb(71,71,71)" stroke-opacity="1.0" stroke-width="1.0">
        </line>
        <line x1="401.73943399233445" y1="-0.0" x2="401.73943399233445" y2="-414.0" stroke="rgb(71,71,71)" stroke-opacity="1.0" stroke-width="1.0">
        </line>
        <line x1="462.40081211786725" y1="-0.0" x2="462.40081211786725" y2="-414.0" stroke="rgb(71,71,71)" stroke-opacity="1.0" stroke-width="1.0">
        </line>
        <line x1="523.0621902434001" y1="-0.0" x2="523.0621902434001" y2="-414.0" stroke="rgb(71,71,71)" stroke-opacity="1.0" stroke-width="1.0">
        </line>
        <g transform="translate(37.77116523913762 0.0 ) ">
          <line stroke-width="1.0" stroke="rgb(187,187,187)" stroke-opacity="1.0" x2="0.0" y2="4.0">
          </line>
          <g transform="translate(0.0 7.0 ) ">
            <text class="axis-text-x" text-anchor="middle" dy="0.7em">
            100
            </text>
          </g>
        </g>
        <g transform="translate(98.43254336467044 0.0 ) ">
          <line stroke-width="1.0" stroke="rgb(187,187,187)" stroke-opacity="1.0" x2="0.0" y2="4.0">
          </line>
          <g transform="translate(0.0 7.0 ) ">
            <text class="axis-text-x" text-anchor="middle" dy="0.7em">
            200
            </text>
          </g>
        </g>
        <g transform="translate(159.09392149020323 0.0 ) ">
          <line stroke-width="1.0" stroke="rgb(187,187,187)" stroke-opacity="1.0" x2="0.0" y2="4.0">
          </line>
          <g transform="translate(0.0 7.0 ) ">
            <text class="axis-text-x" text-anchor="middle" dy="0.7em">
            300
            </text>
          </g>
        </g>
        <g transform="translate(219.75529961573605 0.0 ) ">
          <line stroke-width="1.0" stroke="rgb(187,187,187)" stroke-opacity="1.0" x2="0.0" y2="4.0">
          </line>
          <g transform="translate(0.0 7.0 ) ">
            <text class="axis-text-x" text-anchor="middle" dy="0.7em">
            400
            </text>
          </g>
        </g>
        <g transform="translate(280.4166777412688 0.0 ) ">
          <line stroke-width="1.0" stroke="rgb(187,187,187)" stroke-opacity="1.0" x2="0.0" y2="4.0">
          </line>
          <g transform="translate(0.0 7.0 ) ">
            <text class="axis-text-x" text-anchor="middle" dy="0.7em">
            500
            </text>
          </g>
        </g>
        <g transform="translate(341.0780558668016 0.0 ) ">
          <line stroke-width="1.0" stroke="rgb(187,187,187)" stroke-opacity="1.0" x2="0.0" y2="4.0">
          </line>
          <g transform="translate(0.0 7.0 ) ">
            <text class="axis-text-x" text-anchor="middle" dy="0.7em">
            600
            </text>
          </g>
        </g>
        <g transform="translate(401.73943399233445 0.0 ) ">
          <line stroke-width="1.0" stroke="rgb(187,187,187)" stroke-opacity="1.0" x2="0.0" y2="4.0">
          </line>
          <g transform="translate(0.0 7.0 ) ">
            <text class="axis-text-x" text-anchor="middle" dy="0.7em">
            700
            </text>
          </g>
        </g>
        <g transform="translate(462.40081211786725 0.0 ) ">
          <line stroke-width="1.0" stroke="rgb(187,187,187)" stroke-opacity="1.0" x2="0.0" y2="4.0">
          </line>
          <g transform="translate(0.0 7.0 ) ">
            <text class="axis-text-x" text-anchor="middle" dy="0.7em">
            800
            </text>
          </g>
        </g>
        <g transform="translate(523.0621902434001 0.0 ) ">
          <line stroke-width="1.0" stroke="rgb(187,187,187)" stroke-opacity="1.0" x2="0.0" y2="4.0">
          </line>
          <g transform="translate(0.0 7.0 ) ">
            <text class="axis-text-x" text-anchor="middle" dy="0.7em">
            900
            </text>
          </g>
        </g>
        <line x1="0.0" y1="0.0" x2="534.0650823923534" y2="0.0" stroke-width="1.0" stroke="rgb(187,187,187)" stroke-opacity="1.0">
        </line>
      </g>
      <g transform="translate(50.97651758668602 0.0 ) ">
        <line x1="0.0" y1="395.59209588159814" x2="534.0650823923534" y2="395.59209588159814" stroke="rgb(71,71,71)" stroke-opacity="1.0" stroke-width="1.0">
        </line>
        <line x1="0.0" y1="357.6224536446888" x2="534.0650823923534" y2="357.6224536446888" stroke="rgb(71,71,71)" stroke-opacity="1.0" stroke-width="1.0">
        </line>
        <line x1="0.0" y1="319.6528114077794" x2="534.0650823923534" y2="319.6528114077794" stroke="rgb(71,71,71)" stroke-opacity="1.0" stroke-width="1.0">
        </line>
        <line x1="0.0" y1="281.68316917087003" x2="534.0650823923534" y2="281.68316917087003" stroke="rgb(71,71,71)" stroke-opacity="1.0" stroke-width="1.0">
        </line>
        <line x1="0.0" y1="243.71352693396068" x2="534.0650823923534" y2="243.71352693396068" stroke="rgb(71,71,71)" stroke-opacity="1.0" stroke-width="1.0">
        </line>
        <line x1="0.0" y1="205.74388469705133" x2="534.0650823923534" y2="205.74388469705133" stroke="rgb(71,71,71)" stroke-opacity="1.0" stroke-width="1.0">
        </line>
        <line x1="0.0" y1="167.77424246014195" x2="534.0650823923534" y2="167.77424246014195" stroke="rgb(71,71,71)" stroke-opacity="1.0" stroke-width="1.0">
        </line>
        <line x1="0.0" y1="129.80460022323257" x2="534.0650823923534" y2="129.80460022323257" stroke="rgb(71,71,71)" stroke-opacity="1.0" stroke-width="1.0">
        </line>
        <line x1="0.0" y1="91.83495798632322" x2="534.0650823923534" y2="91.83495798632322" stroke="rgb(71,71,71)" stroke-opacity="1.0" stroke-width="1.0">
        </line>
        <line x1="0.0" y1="53.86531574941381" x2="534.0650823923534" y2="53.86531574941381" stroke="rgb(71,71,71)" stroke-opacity="1.0" stroke-width="1.0">
        </line>
        <line x1="0.0" y1="15.895673512504459" x2="534.0650823923534" y2="15.895673512504459" stroke="rgb(71,71,71)" stroke-opacity="1.0" stroke-width="1.0">
        </line>
        <g transform="translate(0.0 395.59209588159814 ) ">
          <g transform="translate(-3.0 0.0 ) ">
            <text class="axis-text-y" text-anchor="end" dy="0.35em">
            0.0000
            </text>
          </g>
        </g>
        <g transform="translate(0.0 357.6224536446888 ) ">
          <g transform="translate(-3.0 0.0 ) ">
            <text class="axis-text-y" text-anchor="end" dy="0.35em">
            0.0005
            </text>
          </g>
        </g>
        <g transform="translate(0.0 319.6528114077794 ) ">
          <g transform="translate(-3.0 0.0 ) ">
            <text class="axis-text-y" text-anchor="end" dy="0.35em">
            0.0010
            </text>
          </g>
        </g>
        <g transform="translate(0.0 281.68316917087003 ) ">
          <g transform="translate(-3.0 0.0 ) ">
            <text class="axis-text-y" text-anchor="end" dy="0.35em">
            0.0015
            </text>
          </g>
        </g>
        <g transform="translate(0.0 243.71352693396068 ) ">
          <g transform="translate(-3.0 0.0 ) ">
            <text class="axis-text-y" text-anchor="end" dy="0.35em">
            0.0020
            </text>
          </g>
        </g>
        <g transform="translate(0.0 205.74388469705133 ) ">
          <g transform="translate(-3.0 0.0 ) ">
            <text class="axis-text-y" text-anchor="end" dy="0.35em">
            0.0025
            </text>
          </g>
        </g>
        <g transform="translate(0.0 167.77424246014195 ) ">
          <g transform="translate(-3.0 0.0 ) ">
            <text class="axis-text-y" text-anchor="end" dy="0.35em">
            0.0030
            </text>
          </g>
        </g>
        <g transform="translate(0.0 129.80460022323257 ) ">
          <g transform="translate(-3.0 0.0 ) ">
            <text class="axis-text-y" text-anchor="end" dy="0.35em">
            0.0035
            </text>
          </g>
        </g>
        <g transform="translate(0.0 91.83495798632322 ) ">
          <g transform="translate(-3.0 0.0 ) ">
            <text class="axis-text-y" text-anchor="end" dy="0.35em">
            0.0040
            </text>
          </g>
        </g>
        <g transform="translate(0.0 53.86531574941381 ) ">
          <g transform="translate(-3.0 0.0 ) ">
            <text class="axis-text-y" text-anchor="end" dy="0.35em">
            0.0045
            </text>
          </g>
        </g>
        <g transform="translate(0.0 15.895673512504459 ) ">
          <g transform="translate(-3.0 0.0 ) ">
            <text class="axis-text-y" text-anchor="end" dy="0.35em">
            0.0050
            </text>
          </g>
        </g>
      </g>
      <g transform="translate(50.97651758668602 0.0 ) " clip-path="url(#xXxprefixXx1)" clip-bounds-jfx="[rect (0.0, 0.0), (534.0650823923534, 414.0)]">
        <defs>
          <clipPath id="xXxprefixXx1">
            <rect x="0.0" y="0.0" width="534.0650823923534" height="414.0">
            </rect>
          </clipPath>
        </defs>
        <g>
          <path d="M61.39082083645162 394.7524940972704 L61.39082083645162 394.7524940972704 L63.14580547830136 394.6570162705662 L64.90079012015113 394.56442634769587 L66.65577476200087 394.47581490874546 L68.41075940385065 394.39221369988695 L70.1657440457004 394.314797459825 L71.92072868755014 394.24500253771 L73.67571332939991 394.1844771848148 L75.43069797124966 394.1348221968728 L77.18568261309943 394.09714615933865 L78.94066725494918 394.0715270310088 L80.69565189679895 394.0565179176025 L82.4506365386487 394.04884118211487 L84.20562118049847 394.0433752273799 L85.96060582234821 394.0334617035531 L87.71559046419799 394.0114703602221 L89.47057510604773 393.9694833407171 L91.2255597478975 393.89992590339637 L92.98054438974725 393.79598952280026 L94.735529031597 393.65176232746444 L96.49051367344677 393.4620812279076 L98.24549831529652 393.2222202913695 L100.00048295714626 392.9276000500982 L101.75546759899603 392.57371894916804 L103.51045224084581 392.15646128182135 L105.26543688269555 391.67283274248416 L107.0204215245453 391.122038149653 L108.77540616639507 390.50668040755056 L110.53039080824482 389.833763519813 L112.28537545009459 389.1151573958214 L114.04036009194434 388.3672443580161 L115.79534473379411 387.6096103243758 L117.55032937564386 386.8628385044682 L119.30531401749363 386.145665253116 L121.06029865934337 385.4719185429639 L122.81528330119312 384.8477422960128 L124.5702679430429 384.26959820604094 L126.32525258489267 383.7234369844625 L128.0802372267424 383.18526613016815 L129.83522186859216 382.62314088203 L131.59020651044193 382.00039643220856 L133.34519115229165 381.2797452167279 L135.10017579414142 380.42770351557726 L136.8551604359912 379.41870979425835 L138.61014507784097 378.2382801205903 L140.36512971969074 376.8846378665356 L142.12011436154046 375.36846453023145 L143.8750990033902 373.71072610028455 L145.63008364523998 371.938881558972 L147.38506828708972 370.0820986401275 L149.1400529289395 368.1663055022605 L150.89503757078927 366.2099383815621 L152.65002221263902 364.2210927785824 L153.52751453356387 363.21389911868994 L154.40500685448876 362.19648851536874 L155.28249917541362 361.16681001243103 L156.1599914963385 360.122294293441 L157.0374838172634 359.0599572269939 L157.91497613818828 357.97651434567297 L158.79246845911317 356.86850081360313 L159.66996078003802 355.7323915426372 L160.5474531009629 354.56471645658434 L161.4249454218878 353.3621664372843 L162.30243774281269 352.1216861736792 L163.17993006373757 350.8405509340479 L164.05742238466243 349.5164251540359 L164.93491470558732 348.1474016448473 L165.8124070265122 346.73202114648365 L166.68989934743703 345.2692728521443 L167.56739166836192 343.7585773846187 L168.4448839892868 342.1997544856945 L169.3223763102117 340.5929783556803 L170.19986863113658 338.9387241210893 L171.07736095206147 337.2377092832403 L171.95485327298636 335.49083418038254 L172.83234559391124 333.6991254581663 L173.7098379148361 331.8636862747402 L174.587330235761 329.9856564675276 L175.46482255668585 328.06618519481447 L176.34231487761073 326.1064176699097 L177.21980719853562 324.10749657876465 L178.09729951946048 322.07057767782686 L178.97479184038534 319.99685798171043 L179.85228416131022 317.8876139483503 L180.7297764822351 315.7442462282112 L181.60726880316 313.5683269301478 L182.48476112408488 311.36164501971075 L183.36225344500977 309.12624543572855 L184.23974576593466 306.8644577934999 L185.11723808685954 304.57891111920094 L185.99473040778443 302.27253188870026 L186.87222272870926 299.94852366453347 L187.74971504963415 297.6103277637044 L188.62720737055903 295.2615655659889 L189.50469969148392 292.9059642075969 L190.38219201240878 290.54726842525156 L191.25968433333367 288.1891421600658 L192.13717665425855 285.83506415420493 L193.0146689751834 283.4882221493822 L193.8921612961083 281.1514104161662 L194.76965361703319 278.82693521499255 L195.64714593795807 276.5165324357875 L196.52463825888296 274.2213011159377 L197.40213057980785 271.9416558354231 L198.2796229007327 269.6773001761314 L199.1571152216576 267.42722255294007 L200.03460754258245 265.18971481852077 L200.91209986350734 262.9624131503988 L201.7895921844322 260.7423598820607 L202.66708450535708 258.52608417024567 L203.54457682628197 256.3096987243064 L204.42206914720686 254.08900928252794 L205.29956146813174 251.85963312195275 L206.17705378905663 249.61712264441465 L207.0545461099815 247.35708999780468 L207.93203843090637 245.07532876642344 L208.80953075183126 242.76792898807162 L209.68702307275615 240.431382110233 L210.564515393681 238.06267295822803 L211.4420077146059 235.65935632279 L212.31950003553078 233.21961634874123 L213.1969923564556 230.74230748550656 L214.0744846773805 228.2269763134803 L214.95197699830538 225.6738640650953 L215.82946931923027 223.0838901036145 L216.70696164015516 220.4586170072978 L217.58445396108004 217.80019824471455 L218.46194628200493 215.11130974297387 L219.33943860292982 212.39506697456503 L220.21693092385465 209.65492955157123 L221.09442324477953 206.8945957428006 L221.97191556570442 204.1178898314894 L222.8494078866293 201.32864580117092 L223.7269002075542 198.53059144491823 L224.60439252847908 195.7272375847587 L225.48188484940397 192.92177758924242 L226.3593771703288 190.1170026995646 L227.23686949125369 187.31523872507316 L228.11436181217857 184.5183093621303 L228.99185413310346 181.72753066085033 L229.86934645402835 178.9437399796453 L230.74683877495323 176.1673611372869 L231.6243310958781 173.3985054541277 L232.50182341680295 170.6371060742976 L233.37931573772786 167.88308052949873 L234.25680805865275 165.1365141256314 L235.13430037957764 162.3978546075173 L236.01179270050253 159.66810688546286 L236.88928502142736 156.94901557118502 L237.76677734235224 154.24322281107192 L238.64426966327713 151.55438950778725 L239.52176198420202 148.88726950541368 L240.3992543051269 146.247728624969 L241.2767466260518 143.64270345124714 L242.15423894697668 141.0800983005136 L243.0317312679015 138.56862260497104 L243.9092235888264 136.11757476703093 L244.78671590975128 133.73658208899906 L245.66420823067617 131.4353094100768 L246.54170055160105 129.2231513559492 L247.41919287252594 127.10892445266694 L248.29668519345083 125.10057566851475 L249.17417751437566 123.20492319096542 L250.05166983530054 121.42744346346666 L250.92916215622543 119.77211581211486 L251.80665447715032 118.24133256293953 L252.6841467980752 116.83587861233241 L253.5616391190001 115.55498022589677 L254.43913143992492 114.39641867853726 L255.3166237608498 113.35670048139309 L257.07160840269955 111.61476864506278 L258.8265930445493 110.28456510622323 L260.58157768639904 109.3166534726804 L262.3365623282488 108.6638149455099 L264.0915469700986 108.2854056972136 L265.84653161194836 108.14815631794676 L267.6015162537981 108.2235002475187 L269.35650089564786 108.48245682331844 L271.11148553749763 108.88976770253475 L272.86647017934735 109.39922415082737 L274.6214548211971 109.9518685611053 L276.3764394630469 110.47807306567461 L278.1314241048966 110.90356468747473 L279.8864087467464 111.15851417236985 L281.64139338859616 111.18806662539907 L283.3963780304459 110.96233549375876 L285.15136267229565 110.48397093789526 L286.9063473141454 109.79189572250777 L288.6613319559952 108.96052823488088 L290.41631659784497 108.09458937667728 L292.17130123969474 107.32023894199097 L293.9262858815445 106.773695435273 L295.6812705233942 106.5886418487126 L297.43625516524395 106.88367426986059 L299.1912398070937 107.75092093052689 L300.94622444894344 109.24684566021386 L302.7012090907932 111.38618898890309 L303.57870141171816 112.68974696805554 L304.456193732643 114.13994546910641 L305.33368605356793 115.72677435431712 L306.21117837449276 117.4381147916987 L307.08867069541765 119.26010484672526 L307.96616301634253 121.17757520099332 L308.8436553372674 123.17454348804631 L309.72114765819225 125.23475179414567 L310.59863997911714 127.34222825533737 L311.476132300042 129.4818507117314 L312.35362462096685 131.6398883603789 L313.2311169418918 133.80449653995197 L314.1086092628166 135.96614037146463 L314.9861015837416 138.11792506187572 L315.8635939046664 140.25581423416924 L316.74108622559135 142.37872254540937 L317.6185785465162 144.48847484940939 L318.49607086744106 146.5896309136917 L319.37356318836595 148.68918179949063 L320.25105550929084 150.7961310055327 L321.1285478302157 152.920979900674 L322.0060401511406 155.07514239557992 L322.8835324720655 157.27031785978892 L323.76102479299027 159.51785369893588 L324.6385171139152 161.82812960079767 L325.51600943484004 164.20999419591266 L326.393501755765 166.67028184289532 L327.2709940766898 169.2134326436909 L328.14848639761476 171.84123292564257 L329.0259787185396 174.552686679317 L329.9034710394645 177.34402124646118 L330.78096336038936 180.20882336052685 L331.65845568131425 183.1382948865819 L332.53594800223914 186.12161167646224 L333.413440323164 189.14636416687478 L334.2909326440889 192.19905493280336 L335.1684249650137 195.2656264973131 L336.0459172859387 198.33199232223924 L336.92340960686346 201.38454499728314 L337.8009019277884 204.4106180595711 L338.67839424871323 207.39888139704487 L339.5558865696382 210.33965455643644 L340.433378890563 213.22512720391774 L341.3108712114879 216.04948118271014 L342.1883635324128 218.80891379807954 L343.06585585333767 221.50156688375418 L343.94334817426255 224.12737064794433 L344.82084049518744 226.68781508637556 L345.6983328161123 229.18566475154137 L346.57582513703716 231.62463479143045 L347.4533174579621 234.0090473663938 L348.3308097788869 236.34348780487701 L349.2083020998119 238.63247918605938 L350.08579442073665 240.88019248909956 L350.9632867416616 243.09020710343626 L351.8407790625864 245.26533345958913 L352.7182713835113 247.40750595004292 L353.5957637044362 249.5177503265077 L354.4732560253611 251.59622556793798 L355.35074834628597 253.64233601640882 L356.22824066721086 255.6549055895527 L357.10573298813574 257.6324023137464 L357.98322530906063 259.5731984854534 L358.8607176299855 261.47584963810607 L359.73820995091035 263.3393743096763 L360.6157022718353 265.16351646199735 L361.49319459276006 266.94897332744563 L362.37068691368506 268.69757341617543 L363.24817923460984 270.412392305063 L364.1256715555347 272.0977974824663 L365.0031638764596 273.7594177215884 L365.8806561973845 275.4040369408672 L366.7581485183094 277.03941700138057 L367.63564083923427 278.67405810511536 L368.51313316015916 280.3169091283693 L369.39062548108404 281.9770431223044 L370.26811780200893 283.66331516167435 L371.14561012293376 285.38402061193415 L372.0231024438587 287.1465716754047 L372.90059476478353 288.95720880359585 L373.7780870857085 290.8207613294895 L374.6555794066333 292.74046864513036 L375.53307172755825 294.71786963819227 L376.410564048483 296.75276414894154 L377.288056369408 298.8432461722361 L378.1655486903328 300.9858046590209 L379.0430410112576 303.1754842981735 L379.9205333321826 305.40609577665924 L380.7980256531074 307.6704628714672 L381.67551797403235 309.96069241448464 L382.5530102949572 312.26845272828444 L383.4305026158821 314.5852465377781 L384.30799493680695 316.9026655493364 L385.1854872577319 319.2126157411213 L386.0629795786567 321.5075047777384 L386.94047189958167 323.7803856782628 L387.8179642205065 326.02505374778184 L388.69545654143144 328.23609664889653 L389.5729488623562 330.408900172983 L390.45044118328104 332.53961462502104 L391.327933504206 334.6250886424624 L392.2054258251308 336.6627786439514 L393.08291814605576 338.6506428999535 L393.9604104669806 340.58702942340955 L394.83790278790553 342.47056651810635 L395.71539510883036 344.30006395011566 L396.5928874297553 346.0744314039487 L397.47037975068014 347.7926192500589 L398.3478720716051 349.45358479716236 L399.2253643925299 351.0562852506543 L400.10285671345486 352.5996966659598 L400.9803490343797 354.08285638495414 L401.85784135530446 355.5049248746998 L402.7353336762294 356.8652616339571 L403.61282599715423 358.16350895726026 L404.4903183180792 359.3996768887195 L405.367810639004 360.57422267332163 L406.24530295992895 361.68811841232866 L407.1227952808538 362.7429014167567 L408.87777992270355 364.68425179661153 L410.6327645645533 366.42233792699017 L412.3877492064031 367.9894676009751 L414.1427338482529 369.4235848517067 L415.89771849010265 370.76461599783954 L417.65270313195236 372.05043169247574 L419.40768777380214 373.3131329125553 L421.1626724156519 374.5762487597498 L422.9176570575017 375.8531982442055 L424.67264169935135 377.14709319402573 L426.4276263412011 378.4517211294246 L428.18261098305084 379.7533969345446 L429.9375956249006 381.0333247863236 L431.6925802667504 382.2701465602347 L433.44756490860016 383.4424292016862 L435.20254955044993 384.5309200500555 L436.9575341922997 385.52044976173454 L438.7125188341495 386.40138311950705 L440.46750347599925 387.17052286835593 L442.222488117849 387.83138297720825 L443.9774727596988 388.3937834605735 L445.7324574015485 388.8727843595685 L447.4874420433982 389.2870618143544 L449.24242668524795 389.6569135950737 L450.9974113270977 390.0021417245813 L452.7523959689475 390.3400789898551 L454.5073806107972 390.6839993455201 L456.262365252647 391.04208734719157 L458.01734989449676 391.4170553325809 L459.77233453634653 391.80640768329124 L461.5273191781963 392.2032738805965 L463.2823038200461 392.59767414714224 L465.03728846189586 392.9780450007155 L466.79227310374563 393.33283554836635 L468.5472577455954 393.6519871567878 L470.3022423874452 393.9281288212875 L472.0572270292948 394.1573581673605 L473.81221167114455 394.3395319993985 L475.5671963129943 394.4780556658085 L477.3221809548441 394.5792284989405 L479.0771655966939 394.6512622953103 L480.83215023854365 394.7031309144831 L482.58713488039336 394.74342467114064 L484.34211952224314 394.7793714412089 L486.0971041640929 394.8161506778547 L487.8520888059427 394.8565741774293 L489.6070734477925 394.9011477949028 L491.3620580896422 394.94847080122787 L493.11704273149195 394.9958822726097 L494.8720273733416 395.0402327475203 L496.6270120151914 395.07864789439463 L498.38199665704116 395.10916009003483 L500.13698129889093 395.1311120080424 L501.8919659407407 395.14527929927993 L503.6469505825905 395.1537104488846 L505.40193522444025 395.15933226289064 L507.15691986629 395.16540989559934 L508.9119045081398 395.1749728349632 L509.78939682906463 395.1818181818182 " fill="none" stroke-width="1.6500000000000001" stroke="rgb(228,26,28)" stroke-opacity="1.0">
          </path>
        </g>
        <g>
          <path d="M24.27568556328879 394.6351563346209 L24.27568556328879 394.6351563346209 L25.785081289303903 394.4574420661991 L27.294477015319018 394.2566434383856 L28.803872741334125 394.0345208641641 L30.313268467349232 393.7964371593348 L31.822664193364353 393.55176855958075 L33.33205991937946 393.313484285623 L34.84145564539457 393.0968336492535 L36.350851371409675 392.91732850908005 L37.860247097424796 392.78842355600324 L39.369642823439904 392.7194015747689 L40.87903854945502 392.71392699704194 L42.388434275470125 392.76955407525855 L43.89783000148524 392.87822862898616 L45.40722572750034 393.0275881517001 L46.916621453515454 393.2027144162678 L48.42601717953057 393.3879569036515 L49.93541290554568 393.568510638829 L51.4448086315608 393.7315536050431 L52.95420435757591 393.86687599411283 L54.46360008359101 393.96703133639437 L55.972995809606125 394.0270984297579 L57.48239153562124 394.04417292202487 L58.99178726163634 394.01672375754885 L60.50118298765147 393.94396005506525 L62.01057871366657 393.82535320854885 L63.51997443968168 393.66043402477635 L65.02937016569678 393.4489249854198 L66.5387658917119 393.191175022904 L68.04816161772703 392.88875662185836 L69.5575573437421 392.5449934296064 L71.06695306975723 392.16514486397557 L72.57634879577236 391.75600766028225 L74.08574452178746 391.32480918770636 L75.59514024780259 390.8774460357317 L77.10453597381766 390.4163242801728 L78.61393169983279 389.93823256881154 L80.12332742584792 389.43277413475977 L81.63272315186302 388.8818626650163 L83.14211887787812 388.2606390048416 L84.65151460389322 387.5399098244437 L86.16091032990835 386.68989042768277 L87.67030605592345 385.6847140793123 L89.17970178193858 384.5069187746716 L90.68909750795368 383.1510048523922 L92.1984932339688 381.6252238861806 L93.7078889599839 379.95103292511567 L95.217284685999 378.160106377591 L96.72668041201413 376.2893626605261 L98.23607613802923 374.3750014771992 L99.74547186404436 372.4468967533384 L101.25486759005946 370.52470368898133 L102.76426331607456 368.61664792538306 L104.27365904208969 366.7212293735358 L105.78305476810479 364.83118845105525 L107.29245049411992 362.93833443799195 L108.80184622013502 361.03750528588034 L110.31124194615015 359.12817861169117 L111.82063767216525 357.21304804295045 L113.33003339818035 355.29397071974563 L114.83942912419545 353.3666993396598 L116.34882485021058 351.41635825868786 L117.8582205762257 349.41548190514527 L118.61291843923323 348.3843900668265 L119.3676163022408 347.3256264675727 L120.12231416524835 346.2334947812516 L120.8770120282559 345.10236334839715 L121.63170989126348 343.9269004941444 L122.386407754271 342.7022906381029 L123.14110561727858 341.42441461111616 L123.89580348028613 340.08998071045363 L124.65050134329368 338.69659735529075 L125.40519920630123 337.24278336035485 L126.15989706930881 335.7279173631993 L126.91459493231636 334.15213332139564 L127.66929279532391 332.51617375229307 L128.42399065833146 330.8212160864206 L129.178688521339 329.0686898058208 L129.9333863843466 327.26010272395706 L130.68808424735414 325.3968937613623 L131.4427821103617 323.4803269587858 L132.19747997336924 321.51143747024696 L132.9521778363768 319.4910352417082 L133.70687569938434 317.41976645318147 L134.4615735623919 315.29822708719024 L135.21627142539947 313.1271177022678 L135.97096928840702 310.90742412174853 L136.7256671514146 308.64060570388875 L137.48036501442215 306.32877143347014 L138.23506287742967 303.9748244189213 L138.98976074043725 301.5825574861046 L139.74445860344477 299.15668626406614 L140.49915646645235 296.70281114681234 L141.2538543294599 294.2273053566708 L142.00855219246748 291.7371325162679 L142.76325005547503 289.23960311004157 L143.51794791848258 286.7420844508403 L144.27264578149016 284.25168279539423 L145.02734364449768 281.77491871583163 L145.78204150750526 279.3174175162851 L146.5367393705128 276.88363532992435 L147.29143723352033 274.476638655806 L148.0461350965279 272.09795076691233 L148.80083295953546 269.7474730417746 L149.55553082254303 267.42348333651194 L150.31022868555058 265.12270756226195 L151.06492654855813 262.8404552007279 L151.8196244115657 260.5708050586288 L152.57432227457323 258.30682451138625 L153.3290201375808 256.04080406415187 L154.08371800058833 253.76448935471444 L154.83841586359588 251.46929466551657 L155.59311372660346 249.1464853743231 L156.347811589611 246.78732119783677 L157.1025094526186 244.38315711732324 L157.85720731562614 241.9255040168242 L158.61190517863372 239.40605580734575 L159.36660304164124 236.81669369470993 L160.1213009046488 234.14948090444537 L160.87599876765637 231.3966623565506 L161.6306966306639 228.55068338463 L162.38539449367144 225.6042396675291 L163.14009235667902 222.5503672829174 L163.89479021968657 219.38257751966765 L164.64948808269415 216.09503620858666 L165.4041859457017 212.68278230725636 L166.15888380870928 209.14197576698976 L166.9135816717168 205.4701607413455 L167.66827953472435 201.66652731158237 L168.4229773977319 197.7321533435708 L169.17767526073945 193.67020796837153 L169.932373123747 189.48609948327186 L170.68707098675458 185.18755307231328 L171.44176884976213 180.78460741862747 L172.1964667127697 176.2895237293462 L172.95116457577726 171.71660558419285 L173.70586243878478 167.0819330121836 L174.46056030179236 162.40301898036472 L175.2152581647999 157.69840077060107 L175.96995602780746 152.98718230730853 L176.724653890815 148.2885462236229 L177.47935175382258 143.6212562163275 L178.23404961683013 139.00317099196616 L178.98874747983768 134.4507908401418 L179.74344534284526 129.97885660906672 L180.49814320585278 125.60001865426472 L181.25284106886036 121.32459025932121 L182.0075389318679 117.1603961911847 L182.76223679487546 113.11272258762943 L183.516934657883 109.18436945591094 L184.27163252089056 105.37580190724532 L185.02633038389814 101.68539112175813 L185.7810282469057 98.10973122785606 L186.53572610991324 94.64401410380799 L187.2904239729208 91.28244087922553 L188.04512183592834 88.01864691071069 L188.79981969893592 84.84611644693774 L189.55451756194347 81.75856420875351 L190.30921542495105 78.75026369746683 L191.06391328795857 75.81630608460057 L191.81861115096612 72.95277876965764 L192.5733090139737 70.1568587372144 L193.32800687698125 67.42682222231713 L194.08270473998883 64.7619783704576 L194.83740260299635 62.16254001358698 L195.5921004660039 59.629448883270754 L196.34679832901148 57.16417515203045 L197.10149619201903 54.76851188625227 L197.85619405502655 52.444383739225486 L198.61089191803413 50.19368613605178 L199.36558978104168 48.018166616916346 L200.12028764404926 45.91935438905273 L200.8749855070568 43.898538084898064 L201.62968337006433 41.95678588618 L202.3843812330719 40.094997188696595 L203.13907909607946 38.313971404606946 L203.89377695908703 36.61447773241542 L204.64847482209458 34.99730997701647 L205.4031726851021 33.463312752993886 L206.15787054810968 32.013369406734455 L206.91256841111723 30.648347294666678 L207.6672662741248 29.369002049699304 L208.42196413713236 28.175848462558008 L209.17666200013988 27.069010899553007 L209.93135986314746 26.048070147367753 L211.4407555891626 24.258692914661026 L212.9501513151777 22.789258398749723 L214.4595470411928 21.608728867618026 L215.9689427672079 20.677386840326506 L217.47833849322302 19.954802396926254 L218.98773421923815 19.410121693668486 L220.49712994525325 19.032023564840017 L222.00652567126835 18.835649898063764 L223.51592139728345 18.864588270203 L225.02531712329858 19.187238690058734 L226.53471284931368 19.88819003510787 L228.0441085753288 21.056205917721854 L229.55350430134393 22.770907083049963 L230.30820216435146 23.852521394602377 L231.062900027359 25.090266997557876 L231.81759789036659 26.486387174952483 L232.57229575337414 28.0407529304058 L233.3269936163817 29.750792002374965 L234.0816914793892 31.611499824845396 L234.8363893423968 33.61553377640331 L235.59108720540436 35.75338958850466 L236.3457850684119 38.01365614955921 L237.10048293141946 40.38334217265657 L237.855180794427 42.84826535880154 L238.60987865743456 45.39349189175579 L239.3645765204421 48.0038114864297 L240.11927438344972 50.66423094653089 L240.8739722464572 53.36046744646944 L241.62867010946476 56.07942171124972 L242.38336797247237 58.809611079949434 L243.13806583547992 61.54154322085037 L243.89276369848747 64.26801308578786 L244.64746156149502 66.98430855111792 L245.40215942450257 69.68831402379755 L246.15685728751012 72.38050594903456 L246.91155515051767 75.06383942136614 L247.66625301352528 77.74353068950256 L248.42095087653277 80.42674592085206 L249.17564873954032 83.12221178965916 L249.93034660254793 85.83976790613042 L250.68504446555548 88.58988447317353 L251.43974232856303 91.3831705620155 L252.19444019157058 94.22989884375124 L252.94913805457813 97.13957141577163 L253.70383591758568 100.120548557105 L254.45853378059323 103.17975799733313 L255.21323164360078 106.32249686745422 L255.96792950660833 109.552332291256 L256.7226273696159 112.87110001094709 L257.47732523262346 116.27899398908284 L258.232023095631 119.77473404934983 L258.98672095863856 123.35579372432107 L259.7414188216461 127.01866690435071 L260.49611668465366 130.7591498620323 L261.2508145476612 134.57261488020367 L262.00551241066876 138.4542530386202 L262.7602102736763 142.39926660261264 L263.51490813668386 146.40299569449218 L264.26960599969146 150.46096922201156 L265.024303862699 154.56887603526607 L265.7790017257065 158.72245859365884 L266.5336995887141 162.9173376415898 L267.28839745172166 167.14878211337276 L268.0430953147292 171.41144333603202 L268.79779317773676 175.69907623697978 L269.5524910407443 180.0042724162522 L270.30718890375186 184.318230413012 L271.0618867667594 188.63058718211042 L271.816584629767 192.9293317085271 L272.57128249277457 197.20081695681958 L273.32598035578206 201.429880236449 L274.08067821878967 205.60007493859234 L274.8353760817972 209.69400894562062 L275.5900739448048 213.69377738415642 L276.3447718078123 217.58147037349556 L277.0994696708199 221.3397305849081 L277.8541675338274 224.95233127699169 L278.608865396835 228.40474339089494 L279.3635632598426 231.68466049531855 L280.1182611228501 234.7824528883398 L280.8729589858576 237.69152680764319 L281.62765684886523 240.40857109149604 L282.3823547118728 242.9336812218164 L283.13705257488033 245.27035880448332 L283.8917504378879 247.42539248654361 L284.64644830089543 249.40863338336828 L285.401146163903 251.23268369352016 L286.15584402691053 252.91252087386107 L286.91054188991814 254.46508129303334 L287.66523975292563 255.90882666326206 L288.41993761593324 257.2633139759955 L289.1746354789408 258.5487855380219 L289.9293333419484 259.7857905683845 L290.68403120495594 260.9948442997827 L291.43872906796344 262.19612526634734 L292.193426930971 263.40920702465485 L292.94812479397854 264.65281739394425 L293.7028226569861 265.9446166926217 L294.4575205199936 267.30098647602705 L295.2122183830012 268.73682183632155 L295.96691624600874 270.2653231284238 L296.7216141090163 271.8977866234176 L297.47631197202384 273.6433975708782 L298.23100983503144 275.5090329616474 L298.985707698039 277.49908444724 L299.74040556104654 279.6153140025337 L300.4951034240541 281.85675574971657 L301.2498012870617 284.2196767739006 L302.00449915006925 286.69760778418924 L302.7591970130768 289.2814512765115 L303.51389487608435 291.9596707182931 L304.2685927390919 294.71855956232577 L305.0232906020995 297.54258401202196 L305.777988465107 300.41478880918044 L306.53268632811455 303.31725127200593 L307.2873841911221 306.231565686263 L308.04208205412965 309.13933817300955 L308.79677991713714 312.02267145234623 L309.55147778014475 314.8646195234119 L310.3061756431523 317.64959411853096 L311.06087350615985 320.36370770919484 L311.8155713691674 322.99504161662105 L312.57026923217495 325.5338321300176 L313.32496709518256 327.9725721490772 L314.0796649581901 330.30603042121544 L314.83436282119766 332.53119462837003 L315.5890606842052 334.6471481161455 L316.3437585472128 336.6548927262493 L317.09845641022036 338.5571318377259 L317.8531542732279 340.35802827137564 L318.60785213623546 342.06295118105965 L319.362549999243 343.678224549279 L320.1172478622505 345.21088760654067 L320.8719457252581 346.6684746535381 L321.62664358826567 348.0588186739794 L322.3813414512732 349.3898800918003 L323.1360393142807 350.66959934337524 L323.89073717728826 351.9057698536697 L324.64543504029587 353.10592670617126 L325.4001329033034 354.27724587234843 L326.15483076631097 355.4264493111067 L326.9095286293185 356.559712458122 L327.6642264923261 357.6825724088653 L328.4189243553337 358.7998372033162 L329.1736222183412 359.91549875591335 L329.9283200813488 361.0326538514764 L330.6830179443563 362.1534389899442 L331.43771580736393 363.27898551599685 L332.1924136703715 364.40940130533073 L332.94711153337903 365.54378428595777 L333.7018093963866 366.6802713362004 L334.4565072593941 367.8161237929018 L335.21120512240174 368.9478481605883 L335.9659029854092 370.0713479084412 L336.7206008484167 371.18209975566316 L337.4752987114243 372.2753458298063 L338.2299965744318 373.3462917367201 L338.9846944374394 374.3903000320553 L339.739392300447 375.40306887662 L341.2487880264621 377.32025588174963 L342.75818375247724 379.0752091825618 L344.26757947849234 380.6569634151058 L345.7769752045075 382.06601975876566 L347.2863709305226 383.31221090765524 L348.7957666565377 384.4114706262867 L350.3051623825527 385.3824430595615 L351.81455810856784 386.2437013155712 L353.32395383458294 387.0120025849539 L354.8333495605981 387.70162248191986 L356.3427452866132 388.324507351479 L357.85214101262835 388.89083458036856 L359.36153673864345 389.40958830555616 L360.8709324646586 389.8888961205412 L362.3803281906737 390.33605544252026 L363.8897239166888 390.7573315090585 L365.3991196427038 391.1576859830246 L366.90851536871895 391.5405890181781 L368.41791109473405 391.90800493736424 L369.9273068207492 392.26056338204285 L371.4367025467643 392.5978682128511 L372.94609827277947 392.9188703220442 L374.45549399879457 393.2222330138755 L375.9648897248097 393.5066351657773 L377.4742854508248 393.7709756593559 L378.9836811768398 394.01445888426423 L380.49307690285497 394.2365587971199 L382.00247262887007 394.43688171200773 L383.51186835488517 394.61497381323596 L385.0212640809003 394.7701401346407 L386.5306598069154 394.9013474783543 L388.0400555329306 395.00726888611155 L389.5494512589457 395.086494242133 L391.05884698496084 395.13788968951246 L392.56824271097594 395.1610494668323 L394.0776384369909 395.1567567683611 L395.5870341630061 395.1273597273294 L397.0964298890212 395.0769748463647 L398.60582561503634 395.0114513357344 L400.11522134105144 394.9380635714882 L401.62461706706654 394.8649423041283 L403.1340127930817 394.8003033327495 L404.6434085190968 394.75157700908335 L406.15280424511195 394.7245727070747 L407.66219997112694 394.7228193425269 L409.17159569714204 394.7472005645726 L409.9262935601496 394.76873640384133 " fill="none" stroke-width="1.6500000000000001" stroke="rgb(55,126,184)" stroke-opacity="1.0">
          </path>
        </g>
      </g>
    </g>
    <g transform="translate(14.5 217.0 ) rotate(-90.0 ) ">
      <text class="axis-title-y" y="0.0" text-anchor="middle">
      density
      </text>
    </g>
    <g transform="translate(341.00905878286267 461.5 ) ">
      <text class="axis-title-x" y="0.0" text-anchor="middle">
      x
      </text>
    </g>
    <g transform="translate(619.0096160132883 172.75 ) ">
      <rect x="5.0" y="5.0" height="78.5" width="76.95840002096065" stroke="rgb(187,187,187)" stroke-opacity="1.0" stroke-width="0.0" fill="rgb(25,25,28)" fill-opacity="1.0">
      </rect>
      <g transform="translate(10.0 10.0 ) ">
        <g transform="translate(0.0 10.5 ) ">
          <text class="legend-title" y="0.0">
          category
          </text>
        </g>
        <g transform="translate(0.0 22.5 ) ">
          <g transform="">
            <g>
              <rect x="0.0" y="0.0" height="23.0" width="23.0" stroke-width="0.0" fill="rgb(25,25,28)" fill-opacity="1.0">
              </rect>
              <g transform="translate(1.0 1.0 ) ">
                <g>
                  <line x1="0.0" y1="10.5" x2="21.0" y2="10.5" stroke="rgb(228,26,28)" stroke-opacity="1.0" fill="rgb(48,48,48)" fill-opacity="1.0" stroke-width="1.6500000000000001">
                  </line>
                </g>
              </g>
              <rect x="0.0" y="0.0" height="23.0" width="23.0" stroke="rgb(25,25,28)" stroke-opacity="1.0" stroke-width="1.0" fill-opacity="0.0">
              </rect>
            </g>
            <g transform="translate(26.9903027277341 16.05 ) ">
              <text class="legend-item" y="0.0">
              A
              </text>
            </g>
          </g>
          <g transform="translate(0.0 23.0 ) ">
            <g>
              <rect x="0.0" y="0.0" height="23.0" width="23.0" stroke-width="0.0" fill="rgb(25,25,28)" fill-opacity="1.0">
              </rect>
              <g transform="translate(1.0 1.0 ) ">
                <g>
                  <line x1="0.0" y1="10.5" x2="21.0" y2="10.5" stroke="rgb(55,126,184)" stroke-opacity="1.0" fill="rgb(48,48,48)" fill-opacity="1.0" stroke-width="1.6500000000000001">
                  </line>
                </g>
              </g>
              <rect x="0.0" y="0.0" height="23.0" width="23.0" stroke="rgb(25,25,28)" stroke-opacity="1.0" stroke-width="1.0" fill-opacity="0.0">
              </rect>
            </g>
            <g transform="translate(26.9903027277341 16.05 ) ">
              <text class="legend-item" y="0.0">
              B
              </text>
            </g>
          </g>
        </g>
      </g>
    </g>
    <path fill="rgb(0,0,0)" fill-opacity="0.0" stroke="rgb(187,187,187)" stroke-opacity="1.0" stroke-width="0.0" d="M0.0 0.0 L0.0 470.0 L705.0 470.0 L705.0 0.0 Z">
    </path>
  </g>
  <g id="xXxprefixXx2">
  </g>
</svg>