<svg xmlns="http://www.w3.org/2000/svg" xmlns:xlink="http://www.w3.org/1999/xlink" class="plt-container" width="705.0" height="470.0">
  <style type="text/css">
  .plt-container {
   font-family: Lucida Grande, sans-serif;
   user-select: none;
   -webkit-user-select: none;
   -moz-user-select: none;
   -ms-user-select: none;
}
text {
   text-rendering: optimizeLegibility;
}
#xXxprefixXx0 .plot-title {
   fill: #bbbbbb;
   font-family: Lucida Grande, sans-serif;
   font-size: 16.0px;
   font-weight: normal;
   font-style: normal;   
}
#xXxprefixXx0 .plot-subtitle {
   fill: #bbbbbb;
   font-family: Lucida Grande, sans-serif;
   font-size: 15.0px;
   font-weight: normal;
   font-style: normal;   
}
#xXxprefixXx0 .plot-caption {
   fill: #bbbbbb;
   font-family: Lucida Grande, sans-serif;
   font-size: 13.0px;
   font-weight: normal;
   font-style: normal;   
}
#xXxprefixXx0 .legend-title {
   fill: #bbbbbb;
   font-family: Lucida Grande, sans-serif;
   font-size: 15.0px;
   font-weight: normal;
   font-style: normal;   
}
#xXxprefixXx0 .legend-item {
   fill: #bbbbbb;
   font-family: Lucida Grande, sans-serif;
   font-size: 13.0px;
   font-weight: normal;
   font-style: normal;   
}
#xXxprefixXx0 .axis-title-x {
   fill: #bbbbbb;
   font-family: Lucida Grande, sans-serif;
   font-size: 15.0px;
   font-weight: normal;
   font-style: normal;   
}
#xXxprefixXx0 .axis-text-x {
   fill: #bbbbbb;
   font-family: Lucida Grande, sans-serif;
   font-size: 13.0px;
   font-weight: normal;
   font-style: normal;   
}
#xXxprefixXx2 .axis-tooltip-text-x {
   fill: #303030;
   font-family: Lucida Grande, sans-serif;
   font-size: 13.0px;
   font-weight: normal;
   font-style: normal;   
}
#xXxprefixXx0 .axis-title-y {
   fill: #bbbbbb;
   font-family: Lucida Grande, sans-serif;
   font-size: 15.0px;
   font-weight: normal;
   font-style: normal;   
}
#xXxprefixXx0 .axis-text-y {
   fill: #bbbbbb;
   font-family: Lucida Grande, sans-serif;
   font-size: 13.0px;
   font-weight: normal;
   font-style: normal;   
}
#xXxprefixXx2 .axis-tooltip-text-y {
   fill: #303030;
   font-family: Lucida Grande, sans-serif;
   font-size: 13.0px;
   font-weight: normal;
   font-style: normal;   
}
#xXxprefixXx0 .facet-strip-text-x {
   fill: #bbbbbb;
   font-family: Lucida Grande, sans-serif;
   font-size: 13.0px;
   font-weight: normal;
   font-style: normal;   
}
#xXxprefixXx0 .facet-strip-text-y {
   fill: #bbbbbb;
   font-family: Lucida Grande, sans-serif;
   font-size: 13.0px;
   font-weight: normal;
   font-style: normal;   
}
#xXxprefixXx2 .tooltip-text {
   fill: #bbbbbb;
   font-family: Lucida Grande, sans-serif;
   font-size: 13.0px;
   font-weight: normal;
   font-style: normal;   
}
#xXxprefixXx2 .tooltip-title {
   fill: #bbbbbb;
   font-family: Lucida Grande, sans-serif;
   font-size: 13.0px;
   font-weight: bold;
   font-style: normal;   
}
#xXxprefixXx2 .tooltip-label {
   fill: #bbbbbb;
   font-family: Lucida Grande, sans-serif;
   font-size: 13.0px;
   font-weight: bold;
   font-style: normal;   
}

  </style>
  <g id="xXxprefixXx0">
    <path fill-rule="evenodd" fill="rgb(25,25,28)" fill-opacity="1.0" d="M0.0 0.0 L0.0 470.0 L705.0 470.0 L705.0 0.0 Z">
    </path>
    <g transform="translate(23.0 10.0 ) ">
      <g transform="translate(42.99591213121782 414.0 ) ">
        <line x1="19.20362712662598" y1="-0.0" x2="19.20362712662598" y2="-414.0" stroke="rgb(71,71,71)" stroke-opacity="1.0" stroke-width="1.0">
        </line>
        <line x1="100.1038274652617" y1="-0.0" x2="100.1038274652617" y2="-414.0" stroke="rgb(71,71,71)" stroke-opacity="1.0" stroke-width="1.0">
        </line>
        <line x1="181.0040278038974" y1="-0.0" x2="181.0040278038974" y2="-414.0" stroke="rgb(71,71,71)" stroke-opacity="1.0" stroke-width="1.0">
        </line>
        <line x1="261.9042281425331" y1="-0.0" x2="261.9042281425331" y2="-414.0" stroke="rgb(71,71,71)" stroke-opacity="1.0" stroke-width="1.0">
        </line>
        <line x1="342.80442848116877" y1="-0.0" x2="342.80442848116877" y2="-414.0" stroke="rgb(71,71,71)" stroke-opacity="1.0" stroke-width="1.0">
        </line>
        <line x1="423.7046288198045" y1="-0.0" x2="423.7046288198045" y2="-414.0" stroke="rgb(71,71,71)" stroke-opacity="1.0" stroke-width="1.0">
        </line>
        <line x1="504.6048291584402" y1="-0.0" x2="504.6048291584402" y2="-414.0" stroke="rgb(71,71,71)" stroke-opacity="1.0" stroke-width="1.0">
        </line>
        <line x1="585.505029497076" y1="-0.0" x2="585.505029497076" y2="-414.0" stroke="rgb(71,71,71)" stroke-opacity="1.0" stroke-width="1.0">
        </line>
        <g transform="translate(19.20362712662598 0.0 ) ">
          <line stroke-width="1.0" stroke="rgb(187,187,187)" stroke-opacity="1.0" x2="0.0" y2="4.0">
          </line>
          <g transform="translate(0.0 7.0 ) ">
            <text class="axis-text-x" text-anchor="middle" dy="0.7em">
            100
            </text>
          </g>
        </g>
        <g transform="translate(100.1038274652617 0.0 ) ">
          <line stroke-width="1.0" stroke="rgb(187,187,187)" stroke-opacity="1.0" x2="0.0" y2="4.0">
          </line>
          <g transform="translate(0.0 7.0 ) ">
            <text class="axis-text-x" text-anchor="middle" dy="0.7em">
            200
            </text>
          </g>
        </g>
        <g transform="translate(181.0040278038974 0.0 ) ">
          <line stroke-width="1.0" stroke="rgb(187,187,187)" stroke-opacity="1.0" x2="0.0" y2="4.0">
          </line>
          <g transform="translate(0.0 7.0 ) ">
            <text class="axis-text-x" text-anchor="middle" dy="0.7em">
            300
            </text>
          </g>
        </g>
        <g transform="translate(261.9042281425331 0.0 ) ">
          <line stroke-width="1.0" stroke="rgb(187,187,187)" stroke-opacity="1.0" x2="0.0" y2="4.0">
          </line>
          <g transform="translate(0.0 7.0 ) ">
            <text class="axis-text-x" text-anchor="middle" dy="0.7em">
            400
            </text>
          </g>
        </g>
        <g transform="translate(342.80442848116877 0.0 ) ">
          <line stroke-width="1.0" stroke="rgb(187,187,187)" stroke-opacity="1.0" x2="0.0" y2="4.0">
          </line>
          <g transform="translate(0.0 7.0 ) ">
            <text class="axis-text-x" text-anchor="middle" dy="0.7em">
            500
            </text>
          </g>
        </g>
        <g transform="translate(423.7046288198045 0.0 ) ">
          <line stroke-width="1.0" stroke="rgb(187,187,187)" stroke-opacity="1.0" x2="0.0" y2="4.0">
          </line>
          <g transform="translate(0.0 7.0 ) ">
            <text class="axis-text-x" text-anchor="middle" dy="0.7em">
            600
            </text>
          </g>
        </g>
        <g transform="translate(504.6048291584402 0.0 ) ">
          <line stroke-width="1.0" stroke="rgb(187,187,187)" stroke-opacity="1.0" x2="0.0" y2="4.0">
          </line>
          <g transform="translate(0.0 7.0 ) ">
            <text class="axis-text-x" text-anchor="middle" dy="0.7em">
            700
            </text>
          </g>
        </g>
        <g transform="translate(585.505029497076 0.0 ) ">
          <line stroke-width="1.0" stroke="rgb(187,187,187)" stroke-opacity="1.0" x2="0.0" y2="4.0">
          </line>
          <g transform="translate(0.0 7.0 ) ">
            <text class="axis-text-x" text-anchor="middle" dy="0.7em">
            800
            </text>
          </g>
        </g>
        <line x1="0.0" y1="0.0" x2="629.0040878687822" y2="0.0" stroke-width="1.0" stroke="rgb(187,187,187)" stroke-opacity="1.0">
        </line>
      </g>
      <g transform="translate(42.99591213121782 0.0 ) ">
        <line x1="0.0" y1="347.2176974286788" x2="629.0040878687822" y2="347.2176974286788" stroke="rgb(71,71,71)" stroke-opacity="1.0" stroke-width="1.0">
        </line>
        <line x1="0.0" y1="280.43539485735755" x2="629.0040878687822" y2="280.43539485735755" stroke="rgb(71,71,71)" stroke-opacity="1.0" stroke-width="1.0">
        </line>
        <line x1="0.0" y1="213.65309228603633" x2="629.0040878687822" y2="213.65309228603633" stroke="rgb(71,71,71)" stroke-opacity="1.0" stroke-width="1.0">
        </line>
        <line x1="0.0" y1="146.8707897147151" x2="629.0040878687822" y2="146.8707897147151" stroke="rgb(71,71,71)" stroke-opacity="1.0" stroke-width="1.0">
        </line>
        <line x1="0.0" y1="80.08848714339388" x2="629.0040878687822" y2="80.08848714339388" stroke="rgb(71,71,71)" stroke-opacity="1.0" stroke-width="1.0">
        </line>
        <line x1="0.0" y1="13.306184572072652" x2="629.0040878687822" y2="13.306184572072652" stroke="rgb(71,71,71)" stroke-opacity="1.0" stroke-width="1.0">
        </line>
        <g transform="translate(0.0 414.0 ) ">
          <g transform="translate(-3.0 0.0 ) ">
            <text class="axis-text-y" text-anchor="end" dy="0.35em">
            0.000
            </text>
          </g>
        </g>
        <g transform="translate(0.0 347.2176974286788 ) ">
          <g transform="translate(-3.0 0.0 ) ">
            <text class="axis-text-y" text-anchor="end" dy="0.35em">
            0.001
            </text>
          </g>
        </g>
        <g transform="translate(0.0 280.43539485735755 ) ">
          <g transform="translate(-3.0 0.0 ) ">
            <text class="axis-text-y" text-anchor="end" dy="0.35em">
            0.002
            </text>
          </g>
        </g>
        <g transform="translate(0.0 213.65309228603633 ) ">
          <g transform="translate(-3.0 0.0 ) ">
            <text class="axis-text-y" text-anchor="end" dy="0.35em">
            0.003
            </text>
          </g>
        </g>
        <g transform="translate(0.0 146.8707897147151 ) ">
          <g transform="translate(-3.0 0.0 ) ">
            <text class="axis-text-y" text-anchor="end" dy="0.35em">
            0.004
            </text>
          </g>
        </g>
        <g transform="translate(0.0 80.08848714339388 ) ">
          <g transform="translate(-3.0 0.0 ) ">
            <text class="axis-text-y" text-anchor="end" dy="0.35em">
            0.005
            </text>
          </g>
        </g>
        <g transform="translate(0.0 13.306184572072652 ) ">
          <g transform="translate(-3.0 0.0 ) ">
            <text class="axis-text-y" text-anchor="end" dy="0.35em">
            0.006
            </text>
          </g>
        </g>
      </g>
      <g transform="translate(42.99591213121782 0.0 ) " clip-path="url(#xXxprefixXx1)" clip-bounds-jfx="[rect (0.0, 0.0), (629.0040878687822, 414.0)]">
        <defs>
          <clipPath id="xXxprefixXx1">
            <rect x="0.0" y="0.0" width="629.0040878687822" height="414.0">
            </rect>
          </clipPath>
        </defs>
        <g>
          <path d="M28.591094903126468 412.67243867243866 L28.591094903126468 412.67243867243866 L58.68698427483853 411.78739778739777 L88.7828736465506 403.82202982202983 L118.87876301826267 372.84559884559883 L148.97465238997475 321.51322751322755 L179.0705417616868 229.9114959114959 L209.16643113339885 120.60894660894655 L239.26232050511092 20.156806156806113 L269.35820987682297 19.714285714285666 L299.45409924853504 76.79942279942276 L329.54998862024706 163.09090909090907 L359.6458779919592 285.6690716690716 L389.7417673636713 356.029822029822 L419.8376567353833 397.1842231842232 L449.9335461070954 408.6897546897547 L480.0294354788075 411.3448773448773 L510.1253248505195 413.55747955747955 L540.2212142222315 414.0 L570.3171035939437 414.0 L600.4129929656558 414.0 L600.4129929656558 414.0 L570.3171035939437 414.0 L540.2212142222315 414.0 L510.1253248505195 414.0 L480.0294354788075 414.0 L449.9335461070954 414.0 L419.8376567353833 414.0 L389.7417673636713 414.0 L359.6458779919592 414.0 L329.54998862024706 414.0 L299.45409924853504 414.0 L269.35820987682297 414.0 L239.26232050511092 414.0 L209.16643113339885 414.0 L179.0705417616868 414.0 L148.97465238997475 414.0 L118.87876301826267 414.0 L88.7828736465506 414.0 L58.68698427483853 414.0 L28.591094903126468 414.0 Z" fill="rgb(187,187,187)" stroke-width="1.0" fill-opacity="0.10196078431372549">
          </path>
        </g>
        <g>
          <path d="M28.591094903126468 412.67243867243866 L28.591094903126468 412.67243867243866 L58.68698427483853 411.78739778739777 L88.7828736465506 403.82202982202983 L118.87876301826267 372.84559884559883 L148.97465238997475 321.51322751322755 L179.0705417616868 229.9114959114959 L209.16643113339885 120.60894660894655 L239.26232050511092 20.156806156806113 L269.35820987682297 19.714285714285666 L299.45409924853504 76.79942279942276 L329.54998862024706 163.09090909090907 L359.6458779919592 285.6690716690716 L389.7417673636713 356.029822029822 L419.8376567353833 397.1842231842232 L449.9335461070954 408.6897546897547 L480.0294354788075 411.3448773448773 L510.1253248505195 413.55747955747955 L540.2212142222315 414.0 L570.3171035939437 414.0 L600.4129929656558 414.0 " fill="none" stroke-width="1.6500000000000001" stroke="rgb(187,187,187)" stroke-opacity="1.0">
          </path>
        </g>
        <g>
          <path d="M28.591094903126468 414.0 L28.591094903126468 414.0 L58.68698427483853 413.23380178504203 L88.7828736465506 412.850702677563 L118.87876301826267 406.7211169578991 L148.97465238997475 398.29293659336116 L179.0705417616868 375.69008925210045 L209.16643113339885 343.1266651163858 L239.26232050511092 289.87588917680546 L269.35820987682297 215.17156321840127 L299.45409924853504 161.92078727882094 L329.54998862024706 128.9742640356273 L359.6458779919592 141.23343547495517 L389.7417673636713 191.03631944722457 L419.8376567353833 226.66453644277118 L449.9335461070954 297.92097043386434 L480.0294354788075 354.2365392332767 L510.1253248505195 376.83938657453746 L540.2212142222315 397.9098374858822 L570.3171035939437 407.8704142803361 L600.4129929656558 410.935207140168 L600.4129929656558 414.0 L570.3171035939437 414.0 L540.2212142222315 414.0 L510.1253248505195 414.0 L480.0294354788075 414.0 L449.9335461070954 414.0 L419.8376567353833 414.0 L389.7417673636713 414.0 L359.6458779919592 414.0 L329.54998862024706 414.0 L299.45409924853504 414.0 L269.35820987682297 414.0 L239.26232050511092 414.0 L209.16643113339885 414.0 L179.0705417616868 414.0 L148.97465238997475 414.0 L118.87876301826267 414.0 L88.7828736465506 414.0 L58.68698427483853 414.0 L28.591094903126468 414.0 Z" fill="rgb(187,187,187)" stroke-width="1.0" fill-opacity="0.10196078431372549">
          </path>
        </g>
        <g>
          <path d="M28.591094903126468 414.0 L28.591094903126468 414.0 L58.68698427483853 413.23380178504203 L88.7828736465506 412.850702677563 L118.87876301826267 406.7211169578991 L148.97465238997475 398.29293659336116 L179.0705417616868 375.69008925210045 L209.16643113339885 343.1266651163858 L239.26232050511092 289.87588917680546 L269.35820987682297 215.17156321840127 L299.45409924853504 161.92078727882094 L329.54998862024706 128.9742640356273 L359.6458779919592 141.23343547495517 L389.7417673636713 191.03631944722457 L419.8376567353833 226.66453644277118 L449.9335461070954 297.92097043386434 L480.0294354788075 354.2365392332767 L510.1253248505195 376.83938657453746 L540.2212142222315 397.9098374858822 L570.3171035939437 407.8704142803361 L600.4129929656558 410.935207140168 " fill="none" stroke-width="1.6500000000000001" stroke="rgb(187,187,187)" stroke-opacity="1.0">
          </path>
        </g>
      </g>
    </g>
    <g transform="translate(14.5 217.0 ) rotate(-90.0 ) ">
      <text class="axis-title-y" y="0.0" text-anchor="middle">
      density
      </text>
    </g>
    <g transform="translate(380.49795606560895 461.5 ) ">
      <text class="axis-title-x" y="0.0" text-anchor="middle">
      x
      </text>
    </g>
    <path fill="rgb(0,0,0)" fill-opacity="0.0" stroke="rgb(187,187,187)" stroke-opacity="1.0" stroke-width="0.0" d="M0.0 0.0 L0.0 470.0 L705.0 470.0 L705.0 0.0 Z">
    </path>
  </g>
  <g id="xXxprefixXx2">
  </g>
</svg>