<svg xmlns="http://www.w3.org/2000/svg" xmlns:xlink="http://www.w3.org/1999/xlink" class="plt-container" width="705.0" height="470.0">
  <style type="text/css">
  .plt-container {
   font-family: Lucida Grande, sans-serif;
   user-select: none;
   -webkit-user-select: none;
   -moz-user-select: none;
   -ms-user-select: none;
}
text {
   text-rendering: optimizeLegibility;
}
#xXxprefixXx0 .plot-title {
   fill: #474747;
   font-family: Lucida Grande, sans-serif;
   font-size: 16.0px;
   font-weight: normal;
   font-style: normal;   
}
#xXxprefixXx0 .plot-subtitle {
   fill: #474747;
   font-family: Lucida Grande, sans-serif;
   font-size: 15.0px;
   font-weight: normal;
   font-style: normal;   
}
#xXxprefixXx0 .plot-caption {
   fill: #474747;
   font-family: Lucida Grande, sans-serif;
   font-size: 13.0px;
   font-weight: normal;
   font-style: normal;   
}
#xXxprefixXx0 .legend-title {
   fill: #474747;
   font-family: Lucida Grande, sans-serif;
   font-size: 15.0px;
   font-weight: normal;
   font-style: normal;   
}
#xXxprefixXx0 .legend-item {
   fill: #474747;
   font-family: Lucida Grande, sans-serif;
   font-size: 13.0px;
   font-weight: normal;
   font-style: normal;   
}
#xXxprefixXx0 .axis-title-x {
   fill: #474747;
   font-family: Lucida Grande, sans-serif;
   font-size: 15.0px;
   font-weight: normal;
   font-style: normal;   
}
#xXxprefixXx0 .axis-text-x {
   fill: #474747;
   font-family: Lucida Grande, sans-serif;
   font-size: 13.0px;
   font-weight: normal;
   font-style: normal;   
}
#xXxprefixXx2 .axis-tooltip-text-x {
   fill: #ffffff;
   font-family: Lucida Grande, sans-serif;
   font-size: 13.0px;
   font-weight: normal;
   font-style: normal;   
}
#xXxprefixXx0 .axis-title-y {
   fill: #474747;
   font-family: Lucida Grande, sans-serif;
   font-size: 15.0px;
   font-weight: normal;
   font-style: normal;   
}
#xXxprefixXx0 .axis-text-y {
   fill: #474747;
   font-family: Lucida Grande, sans-serif;
   font-size: 13.0px;
   font-weight: normal;
   font-style: normal;   
}
#xXxprefixXx2 .axis-tooltip-text-y {
   fill: #ffffff;
   font-family: Lucida Grande, sans-serif;
   font-size: 13.0px;
   font-weight: normal;
   font-style: normal;   
}
#xXxprefixXx0 .facet-strip-text-x {
   fill: #474747;
   font-family: Lucida Grande, sans-serif;
   font-size: 13.0px;
   font-weight: normal;
   font-style: normal;   
}
#xXxprefixXx0 .facet-strip-text-y {
   fill: #474747;
   font-family: Lucida Grande, sans-serif;
   font-size: 13.0px;
   font-weight: normal;
   font-style: normal;   
}
#xXxprefixXx2 .tooltip-text {
   fill: #474747;
   font-family: Lucida Grande, sans-serif;
   font-size: 13.0px;
   font-weight: normal;
   font-style: normal;   
}
#xXxprefixXx2 .tooltip-title {
   fill: #474747;
   font-family: Lucida Grande, sans-serif;
   font-size: 13.0px;
   font-weight: bold;
   font-style: normal;   
}
#xXxprefixXx2 .tooltip-label {
   fill: #474747;
   font-family: Lucida Grande, sans-serif;
   font-size: 13.0px;
   font-weight: bold;
   font-style: normal;   
}

  </style>
  <g id="xXxprefixXx0">
    <path fill-rule="evenodd" fill="rgb(255,255,255)" fill-opacity="1.0" d="M0.0 0.0 L0.0 470.0 L705.0 470.0 L705.0 0.0 Z">
    </path>
    <g transform="translate(23.0 10.0 ) ">
      <g transform="translate(21.961210910936405 414.0 ) ">
        <line x1="76.32252611856762" y1="-0.0" x2="76.32252611856762" y2="-414.0" stroke="rgb(233,233,233)" stroke-opacity="1.0" stroke-width="1.0">
        </line>
        <line x1="178.80325940969564" y1="-0.0" x2="178.80325940969564" y2="-414.0" stroke="rgb(233,233,233)" stroke-opacity="1.0" stroke-width="1.0">
        </line>
        <line x1="281.28399270082366" y1="-0.0" x2="281.28399270082366" y2="-414.0" stroke="rgb(233,233,233)" stroke-opacity="1.0" stroke-width="1.0">
        </line>
        <line x1="383.76472599195165" y1="-0.0" x2="383.76472599195165" y2="-414.0" stroke="rgb(233,233,233)" stroke-opacity="1.0" stroke-width="1.0">
        </line>
        <line x1="486.2454592830797" y1="-0.0" x2="486.2454592830797" y2="-414.0" stroke="rgb(233,233,233)" stroke-opacity="1.0" stroke-width="1.0">
        </line>
        <g transform="translate(76.32252611856762 0.0 ) ">
          <line stroke-width="1.0" stroke="rgb(71,71,71)" stroke-opacity="1.0" x2="0.0" y2="4.0">
          </line>
          <g transform="translate(0.0 7.0 ) ">
            <text class="axis-text-x" text-anchor="middle" dy="0.7em">
            -4
            </text>
          </g>
        </g>
        <g transform="translate(178.80325940969564 0.0 ) ">
          <line stroke-width="1.0" stroke="rgb(71,71,71)" stroke-opacity="1.0" x2="0.0" y2="4.0">
          </line>
          <g transform="translate(0.0 7.0 ) ">
            <text class="axis-text-x" text-anchor="middle" dy="0.7em">
            -2
            </text>
          </g>
        </g>
        <g transform="translate(281.28399270082366 0.0 ) ">
          <line stroke-width="1.0" stroke="rgb(71,71,71)" stroke-opacity="1.0" x2="0.0" y2="4.0">
          </line>
          <g transform="translate(0.0 7.0 ) ">
            <text class="axis-text-x" text-anchor="middle" dy="0.7em">
            0
            </text>
          </g>
        </g>
        <g transform="translate(383.76472599195165 0.0 ) ">
          <line stroke-width="1.0" stroke="rgb(71,71,71)" stroke-opacity="1.0" x2="0.0" y2="4.0">
          </line>
          <g transform="translate(0.0 7.0 ) ">
            <text class="axis-text-x" text-anchor="middle" dy="0.7em">
            2
            </text>
          </g>
        </g>
        <g transform="translate(486.2454592830797 0.0 ) ">
          <line stroke-width="1.0" stroke="rgb(71,71,71)" stroke-opacity="1.0" x2="0.0" y2="4.0">
          </line>
          <g transform="translate(0.0 7.0 ) ">
            <text class="axis-text-x" text-anchor="middle" dy="0.7em">
            4
            </text>
          </g>
        </g>
        <line x1="0.0" y1="0.0" x2="563.0803890681029" y2="0.0" stroke-width="1.0" stroke="rgb(71,71,71)" stroke-opacity="1.0">
        </line>
      </g>
      <g transform="translate(21.961210910936405 0.0 ) ">
        <line x1="0.0" y1="383.1456560133262" x2="563.0803890681029" y2="383.1456560133262" stroke="rgb(233,233,233)" stroke-opacity="1.0" stroke-width="1.0">
        </line>
        <line x1="0.0" y1="350.9323448039134" x2="563.0803890681029" y2="350.9323448039134" stroke="rgb(233,233,233)" stroke-opacity="1.0" stroke-width="1.0">
        </line>
        <line x1="0.0" y1="318.7190335945006" x2="563.0803890681029" y2="318.7190335945006" stroke="rgb(233,233,233)" stroke-opacity="1.0" stroke-width="1.0">
        </line>
        <line x1="0.0" y1="286.50572238508784" x2="563.0803890681029" y2="286.50572238508784" stroke="rgb(233,233,233)" stroke-opacity="1.0" stroke-width="1.0">
        </line>
        <line x1="0.0" y1="254.29241117567506" x2="563.0803890681029" y2="254.29241117567506" stroke="rgb(233,233,233)" stroke-opacity="1.0" stroke-width="1.0">
        </line>
        <line x1="0.0" y1="222.0790999662623" x2="563.0803890681029" y2="222.0790999662623" stroke="rgb(233,233,233)" stroke-opacity="1.0" stroke-width="1.0">
        </line>
        <line x1="0.0" y1="189.86578875684953" x2="563.0803890681029" y2="189.86578875684953" stroke="rgb(233,233,233)" stroke-opacity="1.0" stroke-width="1.0">
        </line>
        <line x1="0.0" y1="157.65247754743675" x2="563.0803890681029" y2="157.65247754743675" stroke="rgb(233,233,233)" stroke-opacity="1.0" stroke-width="1.0">
        </line>
        <line x1="0.0" y1="125.439166338024" x2="563.0803890681029" y2="125.439166338024" stroke="rgb(233,233,233)" stroke-opacity="1.0" stroke-width="1.0">
        </line>
        <line x1="0.0" y1="93.22585512861122" x2="563.0803890681029" y2="93.22585512861122" stroke="rgb(233,233,233)" stroke-opacity="1.0" stroke-width="1.0">
        </line>
        <line x1="0.0" y1="61.012543919198436" x2="563.0803890681029" y2="61.012543919198436" stroke="rgb(233,233,233)" stroke-opacity="1.0" stroke-width="1.0">
        </line>
        <line x1="0.0" y1="28.799232709785656" x2="563.0803890681029" y2="28.799232709785656" stroke="rgb(233,233,233)" stroke-opacity="1.0" stroke-width="1.0">
        </line>
        <g transform="translate(0.0 383.1456560133262 ) ">
          <g transform="translate(-3.0 0.0 ) ">
            <text class="axis-text-y" text-anchor="end" dy="0.35em">
            -4
            </text>
          </g>
        </g>
        <g transform="translate(0.0 350.9323448039134 ) ">
          <g transform="translate(-3.0 0.0 ) ">
            <text class="axis-text-y" text-anchor="end" dy="0.35em">
            -2
            </text>
          </g>
        </g>
        <g transform="translate(0.0 318.7190335945006 ) ">
          <g transform="translate(-3.0 0.0 ) ">
            <text class="axis-text-y" text-anchor="end" dy="0.35em">
            0
            </text>
          </g>
        </g>
        <g transform="translate(0.0 286.50572238508784 ) ">
          <g transform="translate(-3.0 0.0 ) ">
            <text class="axis-text-y" text-anchor="end" dy="0.35em">
            2
            </text>
          </g>
        </g>
        <g transform="translate(0.0 254.29241117567506 ) ">
          <g transform="translate(-3.0 0.0 ) ">
            <text class="axis-text-y" text-anchor="end" dy="0.35em">
            4
            </text>
          </g>
        </g>
        <g transform="translate(0.0 222.0790999662623 ) ">
          <g transform="translate(-3.0 0.0 ) ">
            <text class="axis-text-y" text-anchor="end" dy="0.35em">
            6
            </text>
          </g>
        </g>
        <g transform="translate(0.0 189.86578875684953 ) ">
          <g transform="translate(-3.0 0.0 ) ">
            <text class="axis-text-y" text-anchor="end" dy="0.35em">
            8
            </text>
          </g>
        </g>
        <g transform="translate(0.0 157.65247754743675 ) ">
          <g transform="translate(-3.0 0.0 ) ">
            <text class="axis-text-y" text-anchor="end" dy="0.35em">
            10
            </text>
          </g>
        </g>
        <g transform="translate(0.0 125.439166338024 ) ">
          <g transform="translate(-3.0 0.0 ) ">
            <text class="axis-text-y" text-anchor="end" dy="0.35em">
            12
            </text>
          </g>
        </g>
        <g transform="translate(0.0 93.22585512861122 ) ">
          <g transform="translate(-3.0 0.0 ) ">
            <text class="axis-text-y" text-anchor="end" dy="0.35em">
            14
            </text>
          </g>
        </g>
        <g transform="translate(0.0 61.012543919198436 ) ">
          <g transform="translate(-3.0 0.0 ) ">
            <text class="axis-text-y" text-anchor="end" dy="0.35em">
            16
            </text>
          </g>
        </g>
        <g transform="translate(0.0 28.799232709785656 ) ">
          <g transform="translate(-3.0 0.0 ) ">
            <text class="axis-text-y" text-anchor="end" dy="0.35em">
            18
            </text>
          </g>
        </g>
      </g>
      <g transform="translate(21.961210910936405 0.0 ) " clip-path="url(#xXxprefixXx1)" clip-bounds-jfx="[rect (0.0, 0.0), (563.0803890681029, 414.0)]">
        <defs>
          <clipPath id="xXxprefixXx1">
            <rect x="0.0" y="0.0" width="563.0803890681029" height="414.0">
            </rect>
          </clipPath>
        </defs>
        <g>
          <path d="M25.59456313945924 395.18181818181824 L25.59456313945924 395.18181818181824 L30.765181955511594 391.93341888454347 L35.935800771564004 388.7008573293558 L41.10641958761636 385.48508262687267 L46.27703840366871 382.28684436553414 L51.447657219721094 379.1066206125571 L56.61827603577345 375.9446967514713 L61.7888948518258 372.8011843538725 L66.95951366787821 369.6759847579739 L72.13013248393057 366.5688357618942 L77.30075129998292 363.4793032556349 L82.47137011603527 360.4068368730898 L87.64198893208766 357.3508043177674 L92.81260774814001 354.31052128684945 L97.98322656419239 351.28530794963 L103.15384538024477 348.2745414199871 L108.32446419629713 345.2776353434832 L113.49508301234951 342.2940105744834 L118.66570182840186 339.3229778711067 L123.83632064445422 336.3637037402768 L129.0069394605066 333.4151168956936 L134.17755827655898 330.475831291753 L139.34817709261134 327.5444789343252 L144.51879590866372 324.6214086179861 L149.68941472471607 321.71375760937934 L154.86003354076843 319.10132134235226 L160.0306523568208 317.04767548115217 L165.2012711728732 314.95575630388214 L170.37188998892555 312.8775946386871 L175.5425088049779 311.04013139264504 L180.7131276210303 309.05127183094476 L185.88374643708266 307.0704130532337 L191.05436525313502 305.1780396817055 L196.2249840691874 303.4653888740711 L201.39560288523975 301.78506380639084 L206.56622170129214 300.15249880957776 L211.7368405173445 299.1635131050095 L216.90745933339684 297.60047825288285 L222.07807814944923 296.0538899980552 L227.2486969655016 294.9876433296318 L232.41931578155396 293.7649074247097 L237.58993459760632 292.8024057622881 L242.76055341365873 291.78011742920444 L247.93117222971108 290.8138260015821 L253.10179104576343 289.9021437992884 L258.27240986181585 289.26349368214517 L263.44302867786814 288.68683670544186 L268.61364749392055 288.215917050214 L273.7842663099729 287.7380323174725 L278.95488512602526 287.4366641176846 L284.1255039420776 287.25284948995835 L289.29612275813 287.2013688819436 L294.4667415741824 287.21653840223934 L299.63736039023473 287.0660442117301 L304.80797920628714 287.07442016717334 L309.9785980223395 287.21772024060726 L315.14921683839185 287.5959886870371 L320.31983565444426 287.7417674099563 L325.4904544704966 288.06181266308636 L330.6610732865489 288.3357300290875 L335.8316921026013 288.56375893742734 L341.0023109186537 288.7676347098175 L346.17292973470603 288.8645733568702 L351.34354855075844 289.48329000541844 L356.5141673668108 290.05656309285985 L361.68478618286315 290.6942092797831 L366.85540499891556 291.334174261819 L372.0260238149679 291.9058683977927 L377.19664263102027 292.5462249331788 L382.3672614470727 293.1902820080464 L387.537880263125 293.8316824940632 L392.7084990791774 294.5429603446294 L397.8791178952298 295.27638728979883 L403.0497367112821 295.91641878354665 L408.22035552733445 296.6318350441377 L413.39097434338686 297.4331414855607 L418.5615931594392 298.1746943834013 L423.73221197549157 298.98474978777887 L428.902830791544 299.799086918978 L434.07344960759633 300.62048595785126 L439.2440684236487 301.4635635751904 L444.41468723970104 302.3088195401941 L449.5853060557534 303.15618211747625 L454.75592487180575 304.00557338226076 L459.92654368785816 304.85690328688264 L465.09716250391045 305.7100777043082 L470.26778131996286 306.5650087262289 L475.4384001360153 307.42161065053995 L480.6090189520676 308.2798041169212 L485.77963776812 309.13951072914614 L490.9502565841724 310.00065014022886 L496.1208754002247 310.8631362148536 L501.2914942162771 311.72688583706713 L506.4621130323295 312.5918117728324 L511.6327318483818 313.45782527906795 L516.8033506644342 314.32484145235577 L521.9739694804866 315.19277528585485 L527.1445882965389 316.061546120354 L532.3152071125913 316.9310742076756 L537.4858259286436 317.8012843836377 " fill="none" stroke-width="1.6500000000000001" stroke="rgb(59,162,114)" stroke-opacity="1.0">
          </path>
        </g>
        <g>
          <path d="M25.59456313945924 18.81818181818187 L25.59456313945924 18.81818181818187 L30.765181955511594 28.24559538844136 L35.935800771564004 37.62676297378789 L41.10641958761636 46.958583187909994 L46.27703840366871 56.237710124275736 L51.447657219721094 65.4607152270668 L56.61827603577345 74.62422680633051 L61.7888948518258 83.72533327899646 L66.95951366787821 92.7621340255694 L72.13013248393057 101.7337524755475 L77.30075129998292 110.64049216425263 L82.47137011603527 119.48347626260914 L87.64198893208766 128.26429282211268 L92.81260774814001 136.98489613276803 L97.98322656419239 145.64749284493388 L103.15384538024477 154.2544672428956 L108.32446419629713 162.80821652412885 L113.49508301234951 171.31114998538854 L118.66570182840186 179.76600995880264 L123.83632064445422 188.1759189382042 L129.0069394605066 196.544772787647 L134.17755827655898 204.87802842766393 L139.34817709261134 213.1834482619338 L144.51879590866372 221.47124851662736 L149.68941472471607 229.75115288669357 L154.86003354076843 237.21805386673026 L160.0306523568208 243.00542548181798 L165.2012711728732 248.9364953393155 L170.37188998892555 254.87216711896872 L175.5425088049779 260.0804082184806 L180.7131276210303 265.82823416636023 L185.88374643708266 271.60538066897004 L191.05436525313502 277.1539390598368 L196.2249840691874 282.13729831500376 L201.39560288523975 287.0523163943946 L206.56622170129214 291.8413571793826 L211.7368405173445 294.34123030000535 L216.90745933339684 298.955781821939 L222.07807814944923 303.49195685873025 L227.2486969655016 306.36930280584363 L232.41931578155396 309.78806955249274 L237.58993459760632 312.3269253762165 L242.76055341365873 315.0025365568704 L247.93117222971108 317.45111637756287 L253.10179104576343 319.68344610140406 L258.27240986181585 321.13039893462343 L263.44302867786814 322.401293615289 L268.61364749392055 323.3847041891723 L273.7842663099729 324.3682176779686 L278.95488512602526 324.9086276814767 L284.1255039420776 325.17313443522426 L289.29612275813 325.14519061746563 L294.4667415741824 324.98205704306883 L299.63736039023473 325.14761165254595 L304.80797920628714 324.9799780821012 L309.9785980223395 324.55191684931026 L315.14921683839185 323.7215280951547 L320.31983565444426 323.3044922465992 L325.4904544704966 322.60492373718785 L330.6610732865489 321.99852202834086 L335.8316921026013 321.46271056723475 L341.0023109186537 320.92522818172637 L346.17292973470603 320.4538482142258 L351.34354855075844 319.43121366074433 L356.5141673668108 318.5159759571141 L361.68478618286315 317.5852702841517 L366.85540499891556 316.7108801151009 L372.0260238149679 315.9003365205289 L377.19664263102027 315.0825045227362 L382.3672614470727 314.2953846190899 L387.537880263125 313.51268889881226 L392.7084990791774 312.82482828080566 L397.8791178952298 312.1929693754968 L403.0497367112821 311.5103041083755 L408.22035552733445 310.8825908310008 L413.39097434338686 310.4593154736436 L418.5615931594392 309.91200128765666 L423.73221197549157 309.6399814768243 L428.902830791544 309.4372558853895 L434.07344960759633 309.3258794832083 L439.2440684236487 309.2929951239446 L444.41468723970104 309.2845532212907 L449.5853060557534 309.29595190668095 L454.75592487180575 309.3242470039569 L459.92654368785816 309.3676834591633 L465.09716250391045 309.4253171097016 L470.26778131996286 309.496758871274 L475.4384001360153 309.5820635975453 L480.6090189520676 309.6816313591542 L485.77963776812 309.7960487963036 L490.9502565841724 309.92608617280393 L496.1208754002247 310.0726244418832 L501.2914942162771 310.2365564511833 L506.4621130323295 310.4187123167662 L511.6327318483818 310.61983911608974 L516.8033506644342 310.8405824874162 L521.9739694804866 311.08143652764164 L527.1445882965389 311.3427784407103 L532.3152071125913 311.6247767205461 L537.4858259286436 311.92714792428796 " fill="none" stroke-width="1.6500000000000001" stroke="rgb(59,162,114)" stroke-opacity="1.0" stroke-dasharray="7.095000000000001,7.095000000000001">
          </path>
        </g>
      </g>
    </g>
    <g transform="translate(14.5 217.0 ) rotate(-90.0 ) ">
      <text class="axis-title-y" y="0.0" text-anchor="middle">
      value
      </text>
    </g>
    <g transform="translate(326.5014054449879 461.5 ) ">
      <text class="axis-title-x" y="0.0" text-anchor="middle">
      time
      </text>
    </g>
    <g transform="translate(618.0415999790393 172.75 ) ">
      <rect x="5.0" y="5.0" height="78.5" width="76.95840002096065" stroke="rgb(71,71,71)" stroke-opacity="1.0" stroke-width="0.0" fill="rgb(255,255,255)" fill-opacity="1.0">
      </rect>
      <g transform="translate(10.0 10.0 ) ">
        <g transform="translate(0.0 10.5 ) ">
          <text class="legend-title" y="0.0">
          category
          </text>
        </g>
        <g transform="translate(0.0 22.5 ) ">
          <g transform="">
            <g>
              <rect x="0.0" y="0.0" height="23.0" width="23.0" stroke-width="0.0" fill="rgb(255,255,255)" fill-opacity="1.0">
              </rect>
              <g transform="translate(1.0 1.0 ) ">
                <g>
                  <line x1="0.0" y1="10.5" x2="21.0" y2="10.5" stroke="rgb(59,162,114)" stroke-opacity="1.0" fill="rgb(255,255,255)" fill-opacity="1.0" stroke-width="1.6500000000000001">
                  </line>
                </g>
              </g>
              <rect x="0.0" y="0.0" height="23.0" width="23.0" stroke="rgb(255,255,255)" stroke-opacity="1.0" stroke-width="1.0" fill-opacity="0.0">
              </rect>
            </g>
            <g transform="translate(26.9903027277341 16.05 ) ">
              <text class="legend-item" y="0.0">
              A
              </text>
            </g>
          </g>
          <g transform="translate(0.0 23.0 ) ">
            <g>
              <rect x="0.0" y="0.0" height="23.0" width="23.0" stroke-width="0.0" fill="rgb(255,255,255)" fill-opacity="1.0">
              </rect>
              <g transform="translate(1.0 1.0 ) ">
                <g>
                  <line x1="0.0" y1="10.5" x2="21.0" y2="10.5" stroke="rgb(59,162,114)" stroke-opacity="1.0" fill="rgb(255,255,255)" fill-opacity="1.0" stroke-width="1.6500000000000001" stroke-dasharray="7.095000000000001,7.095000000000001">
                  </line>
                </g>
              </g>
              <rect x="0.0" y="0.0" height="23.0" width="23.0" stroke="rgb(255,255,255)" stroke-opacity="1.0" stroke-width="1.0" fill-opacity="0.0">
              </rect>
            </g>
            <g transform="translate(26.9903027277341 16.05 ) ">
              <text class="legend-item" y="0.0">
              B
              </text>
            </g>
          </g>
        </g>
      </g>
    </g>
    <path fill="rgb(0,0,0)" fill-opacity="0.0" stroke="rgb(71,71,71)" stroke-opacity="1.0" stroke-width="0.0" d="M0.0 0.0 L0.0 470.0 L705.0 470.0 L705.0 0.0 Z">
    </path>
  </g>
  <g id="xXxprefixXx2">
  </g>
</svg>