<svg xmlns="http://www.w3.org/2000/svg" xmlns:xlink="http://www.w3.org/1999/xlink" class="plt-container" width="705.0" height="235.0">
  <g id="xXxprefixXx0">
  </g>
  <svg xmlns="http://www.w3.org/2000/svg" xmlns:xlink="http://www.w3.org/1999/xlink" class="plt-container" width="350.5" height="235.0" x="0.0" y="0.0">
    <style type="text/css">
    .plt-container {
   font-family: Lucida Grande, sans-serif;
   user-select: none;
   -webkit-user-select: none;
   -moz-user-select: none;
   -ms-user-select: none;
}
text {
   text-rendering: optimizeLegibility;
}
#xXxprefixXx1 .plot-title {
   fill: #bbbbbb;
   font-family: Lucida Grande, sans-serif;
   font-size: 16.0px;
   font-weight: normal;
   font-style: normal;   
}
#xXxprefixXx1 .plot-subtitle {
   fill: #bbbbbb;
   font-family: Lucida Grande, sans-serif;
   font-size: 15.0px;
   font-weight: normal;
   font-style: normal;   
}
#xXxprefixXx1 .plot-caption {
   fill: #bbbbbb;
   font-family: Lucida Grande, sans-serif;
   font-size: 13.0px;
   font-weight: normal;
   font-style: normal;   
}
#xXxprefixXx1 .legend-title {
   fill: #bbbbbb;
   font-family: Lucida Grande, sans-serif;
   font-size: 15.0px;
   font-weight: normal;
   font-style: normal;   
}
#xXxprefixXx1 .legend-item {
   fill: #bbbbbb;
   font-family: Lucida Grande, sans-serif;
   font-size: 13.0px;
   font-weight: normal;
   font-style: normal;   
}
#xXxprefixXx1 .axis-title-x {
   fill: #bbbbbb;
   font-family: Lucida Grande, sans-serif;
   font-size: 15.0px;
   font-weight: normal;
   font-style: normal;   
}
#xXxprefixXx1 .axis-text-x {
   fill: #bbbbbb;
   font-family: Lucida Grande, sans-serif;
   font-size: 13.0px;
   font-weight: normal;
   font-style: normal;   
}
#xXxprefixXx3 .axis-tooltip-text-x {
   fill: #303030;
   font-family: Lucida Grande, sans-serif;
   font-size: 13.0px;
   font-weight: normal;
   font-style: normal;   
}
#xXxprefixXx1 .axis-title-y {
   fill: #bbbbbb;
   font-family: Lucida Grande, sans-serif;
   font-size: 15.0px;
   font-weight: normal;
   font-style: normal;   
}
#xXxprefixXx1 .axis-text-y {
   fill: #bbbbbb;
   font-family: Lucida Grande, sans-serif;
   font-size: 13.0px;
   font-weight: normal;
   font-style: normal;   
}
#xXxprefixXx3 .axis-tooltip-text-y {
   fill: #303030;
   font-family: Lucida Grande, sans-serif;
   font-size: 13.0px;
   font-weight: normal;
   font-style: normal;   
}
#xXxprefixXx1 .facet-strip-text-x {
   fill: #bbbbbb;
   font-family: Lucida Grande, sans-serif;
   font-size: 13.0px;
   font-weight: normal;
   font-style: normal;   
}
#xXxprefixXx1 .facet-strip-text-y {
   fill: #bbbbbb;
   font-family: Lucida Grande, sans-serif;
   font-size: 13.0px;
   font-weight: normal;
   font-style: normal;   
}
#xXxprefixXx3 .tooltip-text {
   fill: #bbbbbb;
   font-family: Lucida Grande, sans-serif;
   font-size: 13.0px;
   font-weight: normal;
   font-style: normal;   
}
#xXxprefixXx3 .tooltip-title {
   fill: #bbbbbb;
   font-family: Lucida Grande, sans-serif;
   font-size: 13.0px;
   font-weight: bold;
   font-style: normal;   
}
#xXxprefixXx3 .tooltip-label {
   fill: #bbbbbb;
   font-family: Lucida Grande, sans-serif;
   font-size: 13.0px;
   font-weight: bold;
   font-style: normal;   
}

    </style>
    <g id="xXxprefixXx1">
      <path fill-rule="evenodd" fill="rgb(25,25,28)" fill-opacity="1.0" d="M0.0 0.0 L0.0 235.0 L350.5 235.0 L350.5 0.0 Z">
      </path>
      <g transform="translate(23.0 34.0 ) ">
        <g transform="translate(13.980605455468202 155.0 ) ">
          <line x1="12.402766811048366" y1="-0.0" x2="12.402766811048366" y2="-155.0" stroke="rgb(71,71,71)" stroke-opacity="1.0" stroke-width="1.0">
          </line>
          <line x1="82.08123204165713" y1="-0.0" x2="82.08123204165713" y2="-155.0" stroke="rgb(71,71,71)" stroke-opacity="1.0" stroke-width="1.0">
          </line>
          <line x1="151.7596972722659" y1="-0.0" x2="151.7596972722659" y2="-155.0" stroke="rgb(71,71,71)" stroke-opacity="1.0" stroke-width="1.0">
          </line>
          <line x1="221.43816250287466" y1="-0.0" x2="221.43816250287466" y2="-155.0" stroke="rgb(71,71,71)" stroke-opacity="1.0" stroke-width="1.0">
          </line>
          <line x1="291.1166277334834" y1="-0.0" x2="291.1166277334834" y2="-155.0" stroke="rgb(71,71,71)" stroke-opacity="1.0" stroke-width="1.0">
          </line>
          <g transform="translate(12.402766811048366 0.0 ) ">
            <line stroke-width="1.0" stroke="rgb(187,187,187)" stroke-opacity="1.0" x2="0.0" y2="4.0">
            </line>
            <g transform="translate(0.0 7.0 ) ">
              <text class="axis-text-x" text-anchor="middle" dy="0.7em">
              -2
              </text>
            </g>
          </g>
          <g transform="translate(82.08123204165713 0.0 ) ">
            <line stroke-width="1.0" stroke="rgb(187,187,187)" stroke-opacity="1.0" x2="0.0" y2="4.0">
            </line>
            <g transform="translate(0.0 7.0 ) ">
              <text class="axis-text-x" text-anchor="middle" dy="0.7em">
              -1
              </text>
            </g>
          </g>
          <g transform="translate(151.7596972722659 0.0 ) ">
            <line stroke-width="1.0" stroke="rgb(187,187,187)" stroke-opacity="1.0" x2="0.0" y2="4.0">
            </line>
            <g transform="translate(0.0 7.0 ) ">
              <text class="axis-text-x" text-anchor="middle" dy="0.7em">
              0
              </text>
            </g>
          </g>
          <g transform="translate(221.43816250287466 0.0 ) ">
            <line stroke-width="1.0" stroke="rgb(187,187,187)" stroke-opacity="1.0" x2="0.0" y2="4.0">
            </line>
            <g transform="translate(0.0 7.0 ) ">
              <text class="axis-text-x" text-anchor="middle" dy="0.7em">
              1
              </text>
            </g>
          </g>
          <g transform="translate(291.1166277334834 0.0 ) ">
            <line stroke-width="1.0" stroke="rgb(187,187,187)" stroke-opacity="1.0" x2="0.0" y2="4.0">
            </line>
            <g transform="translate(0.0 7.0 ) ">
              <text class="axis-text-x" text-anchor="middle" dy="0.7em">
              2
              </text>
            </g>
          </g>
          <line x1="0.0" y1="0.0" x2="303.5193945445318" y2="0.0" stroke-width="1.0" stroke="rgb(187,187,187)" stroke-opacity="1.0">
          </line>
        </g>
        <g transform="translate(13.980605455468202 0.0 ) ">
          <line x1="0.0" y1="107.63838793663419" x2="303.5193945445318" y2="107.63838793663419" stroke="rgb(71,71,71)" stroke-opacity="1.0" stroke-width="1.0">
          </line>
          <line x1="0.0" y1="55.491979445165114" x2="303.5193945445318" y2="55.491979445165114" stroke="rgb(71,71,71)" stroke-opacity="1.0" stroke-width="1.0">
          </line>
          <g transform="translate(0.0 107.63838793663419 ) ">
            <g transform="translate(-3.0 0.0 ) ">
              <text class="axis-text-y" text-anchor="end" dy="0.35em">
              1
              </text>
            </g>
          </g>
          <g transform="translate(0.0 55.491979445165114 ) ">
            <g transform="translate(-3.0 0.0 ) ">
              <text class="axis-text-y" text-anchor="end" dy="0.35em">
              2
              </text>
            </g>
          </g>
          <g transform="translate(0.0 3.34557095369604 ) ">
            <g transform="translate(-3.0 0.0 ) ">
              <text class="axis-text-y" text-anchor="end" dy="0.35em">
              3
              </text>
            </g>
          </g>
        </g>
        <g transform="translate(13.980605455468202 0.0 ) " clip-path="url(#xXxprefixXx2)" clip-bounds-jfx="[rect (0.0, 0.0), (303.5193945445318, 155.0)]">
          <defs>
            <clipPath id="xXxprefixXx2">
              <rect x="0.0" y="0.0" width="303.5193945445318" height="155.0">
              </rect>
            </clipPath>
          </defs>
          <g>
            <path d="M13.796336115660552 147.95454545454547 L13.796336115660552 147.95454545454547 L16.583474724884894 145.49935396194857 L19.370613334109237 143.0257213047907 L22.157751943333608 140.52869366841014 L24.944890552557936 138.0077185041704 L27.732029161782293 135.46127022367256 L30.51916777100665 132.8879060319513 L33.30630638023099 130.28622928228108 L36.09344498945535 127.65505029647865 L38.88058359867969 124.99326288808663 L41.66772220790405 122.29999462629632 L44.45486081712839 119.57460108683986 L47.24199942635275 116.816447340503 L50.029138035577105 114.02490013209447 L52.81627664480145 111.19957635570522 L55.603415254025805 108.340352256741 L58.39055386325016 105.4471153749376 L61.17769247247452 102.52005469177391 L63.96483108169885 99.5601978267274 L66.7519696909232 96.56818824674488 L69.53910830014756 93.54620312774068 L72.32624690937189 90.53883004971719 L75.11338551859625 87.62316963094248 L77.9005241278206 84.60912385879108 L80.68766273704496 81.2904116626721 L83.4748013462693 77.49789156833553 L86.26193995549366 73.76088505469103 L89.04907856471802 69.11540799421086 L91.83621717394237 63.99114619170285 L94.6233557831667 59.37451282409505 L97.41049439239106 54.70122771435494 L100.1976330016154 49.507907267122874 L102.98477161083977 43.51170483703093 L105.77191022006411 37.03863000298881 L108.55904882928847 30.566906399975608 L111.34618743851283 24.574757662970427 L114.13332604773717 19.5404074269523 L116.92046465696151 15.942079326900313 L119.70760326618586 14.257996997793526 L122.49474187541023 14.966384074611057 L125.28188048463457 16.7117157221615 L128.0690190938589 16.334622661446616 L130.85615770308326 14.600371139025413 L133.64329631230763 11.635531692720122 L136.43043492153197 10.446629806144216 L139.2175735307563 9.31368450425586 L142.00471213998068 8.838174706367738 L144.79185074920503 8.822532565398092 L147.57898935842937 8.641819681961636 L150.3661279676537 9.808194476945829 L153.15326657687808 13.833815371238245 L155.94040518610242 7.045454545454561 L158.72754379532677 8.15328485433264 L161.51468240455114 10.148114995743185 L164.30182101377548 11.508905583322871 L167.08895962299982 13.58291280964994 L169.8760982322242 16.740073586047004 L172.66323684144854 20.28181642585696 L175.45037545067288 23.463112955553925 L178.23751405989722 24.74859130241984 L181.02465266912156 21.689017669501055 L183.81179127834594 20.034863050788914 L186.59892988757028 24.73164228899239 L189.38606849679462 30.288513002667173 L192.173207106019 35.25622727100735 L194.96034571524334 39.95905284432074 L197.74748432446768 44.702535480704114 L200.53462293369205 49.50878373153418 L203.3217615429164 54.514041812609676 L206.10890015214073 59.31433888862975 L208.8960387613651 63.8418481163238 L211.68317737058942 68.32480502908257 L214.4703159798138 72.74066518875257 L217.25745458903813 76.97961962280972 L220.04459319826248 80.9361930469839 L222.83173180748685 84.60458500684376 L225.6188704167112 88.0998572770139 L228.40600902593553 91.34685572552185 L231.1931476351599 94.2067929032526 L233.98028624438425 96.93345765799842 L236.7674248536086 99.5879292319785 L239.55456346283296 102.19976670231193 L242.34170207205733 104.78666320378393 L245.12884068128164 107.35416183723602 L247.915979290506 109.90588550973352 L250.70311789973033 112.4445780643808 L253.4902565089547 114.9696787648098 L256.277395118179 117.48042899033072 L259.0645337274034 119.97574685532368 L261.85167233662776 122.45453218863639 L264.63881094585213 124.91573269925695 L267.42594955507644 127.35846084576843 L270.2130881643008 129.7818702741527 L273.0002267735251 132.1851146303916 L275.7873653827495 134.5673573886286 L278.57450399197387 136.92780133565373 L281.3616426011982 139.26565908641854 L284.14878121042256 141.5797553177791 L286.93591981964687 143.8660161560528 L289.72305842887124 146.1355412540005 " fill="none" stroke-width="1.6500000000000001" stroke="rgb(187,187,187)" stroke-opacity="1.0">
            </path>
          </g>
        </g>
      </g>
      <g transform="translate(36.9806054554682 15.2 ) ">
        <text class="plot-title" y="0.0">
        `smoothLine()` layer
        </text>
      </g>
      <g transform="translate(14.5 111.5 ) rotate(-90.0 ) ">
        <text class="axis-title-y" y="0.0" text-anchor="middle">
        y
        </text>
      </g>
      <g transform="translate(188.7403027277341 226.5 ) ">
        <text class="axis-title-x" y="0.0" text-anchor="middle">
        x
        </text>
      </g>
      <path fill="rgb(0,0,0)" fill-opacity="0.0" stroke="rgb(187,187,187)" stroke-opacity="1.0" stroke-width="0.0" d="M0.0 0.0 L0.0 235.0 L350.5 235.0 L350.5 0.0 Z">
      </path>
    </g>
    <g id="xXxprefixXx3">
    </g>
  </svg>
  <svg xmlns="http://www.w3.org/2000/svg" xmlns:xlink="http://www.w3.org/1999/xlink" class="plt-container" width="350.5" height="235.0" x="354.5" y="0.0">
    <style type="text/css">
    .plt-container {
   font-family: Lucida Grande, sans-serif;
   user-select: none;
   -webkit-user-select: none;
   -moz-user-select: none;
   -ms-user-select: none;
}
text {
   text-rendering: optimizeLegibility;
}
#xXxprefixXx4 .plot-title {
   fill: #bbbbbb;
   font-family: Lucida Grande, sans-serif;
   font-size: 16.0px;
   font-weight: normal;
   font-style: normal;   
}
#xXxprefixXx4 .plot-subtitle {
   fill: #bbbbbb;
   font-family: Lucida Grande, sans-serif;
   font-size: 15.0px;
   font-weight: normal;
   font-style: normal;   
}
#xXxprefixXx4 .plot-caption {
   fill: #bbbbbb;
   font-family: Lucida Grande, sans-serif;
   font-size: 13.0px;
   font-weight: normal;
   font-style: normal;   
}
#xXxprefixXx4 .legend-title {
   fill: #bbbbbb;
   font-family: Lucida Grande, sans-serif;
   font-size: 15.0px;
   font-weight: normal;
   font-style: normal;   
}
#xXxprefixXx4 .legend-item {
   fill: #bbbbbb;
   font-family: Lucida Grande, sans-serif;
   font-size: 13.0px;
   font-weight: normal;
   font-style: normal;   
}
#xXxprefixXx4 .axis-title-x {
   fill: #bbbbbb;
   font-family: Lucida Grande, sans-serif;
   font-size: 15.0px;
   font-weight: normal;
   font-style: normal;   
}
#xXxprefixXx4 .axis-text-x {
   fill: #bbbbbb;
   font-family: Lucida Grande, sans-serif;
   font-size: 13.0px;
   font-weight: normal;
   font-style: normal;   
}
#xXxprefixXx6 .axis-tooltip-text-x {
   fill: #303030;
   font-family: Lucida Grande, sans-serif;
   font-size: 13.0px;
   font-weight: normal;
   font-style: normal;   
}
#xXxprefixXx4 .axis-title-y {
   fill: #bbbbbb;
   font-family: Lucida Grande, sans-serif;
   font-size: 15.0px;
   font-weight: normal;
   font-style: normal;   
}
#xXxprefixXx4 .axis-text-y {
   fill: #bbbbbb;
   font-family: Lucida Grande, sans-serif;
   font-size: 13.0px;
   font-weight: normal;
   font-style: normal;   
}
#xXxprefixXx6 .axis-tooltip-text-y {
   fill: #303030;
   font-family: Lucida Grande, sans-serif;
   font-size: 13.0px;
   font-weight: normal;
   font-style: normal;   
}
#xXxprefixXx4 .facet-strip-text-x {
   fill: #bbbbbb;
   font-family: Lucida Grande, sans-serif;
   font-size: 13.0px;
   font-weight: normal;
   font-style: normal;   
}
#xXxprefixXx4 .facet-strip-text-y {
   fill: #bbbbbb;
   font-family: Lucida Grande, sans-serif;
   font-size: 13.0px;
   font-weight: normal;
   font-style: normal;   
}
#xXxprefixXx6 .tooltip-text {
   fill: #bbbbbb;
   font-family: Lucida Grande, sans-serif;
   font-size: 13.0px;
   font-weight: normal;
   font-style: normal;   
}
#xXxprefixXx6 .tooltip-title {
   fill: #bbbbbb;
   font-family: Lucida Grande, sans-serif;
   font-size: 13.0px;
   font-weight: bold;
   font-style: normal;   
}
#xXxprefixXx6 .tooltip-label {
   fill: #bbbbbb;
   font-family: Lucida Grande, sans-serif;
   font-size: 13.0px;
   font-weight: bold;
   font-style: normal;   
}

    </style>
    <g id="xXxprefixXx4">
      <path fill-rule="evenodd" fill="rgb(25,25,28)" fill-opacity="1.0" d="M0.0 0.0 L0.0 235.0 L350.5 235.0 L350.5 0.0 Z">
      </path>
      <g transform="translate(23.0 34.0 ) ">
        <g transform="translate(13.980605455468202 155.0 ) ">
          <line x1="12.402766811048366" y1="-0.0" x2="12.402766811048366" y2="-155.0" stroke="rgb(71,71,71)" stroke-opacity="1.0" stroke-width="1.0">
          </line>
          <line x1="82.08123204165713" y1="-0.0" x2="82.08123204165713" y2="-155.0" stroke="rgb(71,71,71)" stroke-opacity="1.0" stroke-width="1.0">
          </line>
          <line x1="151.7596972722659" y1="-0.0" x2="151.7596972722659" y2="-155.0" stroke="rgb(71,71,71)" stroke-opacity="1.0" stroke-width="1.0">
          </line>
          <line x1="221.43816250287466" y1="-0.0" x2="221.43816250287466" y2="-155.0" stroke="rgb(71,71,71)" stroke-opacity="1.0" stroke-width="1.0">
          </line>
          <line x1="291.1166277334834" y1="-0.0" x2="291.1166277334834" y2="-155.0" stroke="rgb(71,71,71)" stroke-opacity="1.0" stroke-width="1.0">
          </line>
          <g transform="translate(12.402766811048366 0.0 ) ">
            <line stroke-width="1.0" stroke="rgb(187,187,187)" stroke-opacity="1.0" x2="0.0" y2="4.0">
            </line>
            <g transform="translate(0.0 7.0 ) ">
              <text class="axis-text-x" text-anchor="middle" dy="0.7em">
              -2
              </text>
            </g>
          </g>
          <g transform="translate(82.08123204165713 0.0 ) ">
            <line stroke-width="1.0" stroke="rgb(187,187,187)" stroke-opacity="1.0" x2="0.0" y2="4.0">
            </line>
            <g transform="translate(0.0 7.0 ) ">
              <text class="axis-text-x" text-anchor="middle" dy="0.7em">
              -1
              </text>
            </g>
          </g>
          <g transform="translate(151.7596972722659 0.0 ) ">
            <line stroke-width="1.0" stroke="rgb(187,187,187)" stroke-opacity="1.0" x2="0.0" y2="4.0">
            </line>
            <g transform="translate(0.0 7.0 ) ">
              <text class="axis-text-x" text-anchor="middle" dy="0.7em">
              0
              </text>
            </g>
          </g>
          <g transform="translate(221.43816250287466 0.0 ) ">
            <line stroke-width="1.0" stroke="rgb(187,187,187)" stroke-opacity="1.0" x2="0.0" y2="4.0">
            </line>
            <g transform="translate(0.0 7.0 ) ">
              <text class="axis-text-x" text-anchor="middle" dy="0.7em">
              1
              </text>
            </g>
          </g>
          <g transform="translate(291.1166277334834 0.0 ) ">
            <line stroke-width="1.0" stroke="rgb(187,187,187)" stroke-opacity="1.0" x2="0.0" y2="4.0">
            </line>
            <g transform="translate(0.0 7.0 ) ">
              <text class="axis-text-x" text-anchor="middle" dy="0.7em">
              2
              </text>
            </g>
          </g>
          <line x1="0.0" y1="0.0" x2="303.5193945445318" y2="0.0" stroke-width="1.0" stroke="rgb(187,187,187)" stroke-opacity="1.0">
          </line>
        </g>
        <g transform="translate(13.980605455468202 0.0 ) ">
          <line x1="0.0" y1="107.63838793663419" x2="303.5193945445318" y2="107.63838793663419" stroke="rgb(71,71,71)" stroke-opacity="1.0" stroke-width="1.0">
          </line>
          <line x1="0.0" y1="55.491979445165114" x2="303.5193945445318" y2="55.491979445165114" stroke="rgb(71,71,71)" stroke-opacity="1.0" stroke-width="1.0">
          </line>
          <g transform="translate(0.0 107.63838793663419 ) ">
            <g transform="translate(-3.0 0.0 ) ">
              <text class="axis-text-y" text-anchor="end" dy="0.35em">
              1
              </text>
            </g>
          </g>
          <g transform="translate(0.0 55.491979445165114 ) ">
            <g transform="translate(-3.0 0.0 ) ">
              <text class="axis-text-y" text-anchor="end" dy="0.35em">
              2
              </text>
            </g>
          </g>
          <g transform="translate(0.0 3.34557095369604 ) ">
            <g transform="translate(-3.0 0.0 ) ">
              <text class="axis-text-y" text-anchor="end" dy="0.35em">
              3
              </text>
            </g>
          </g>
        </g>
        <g transform="translate(13.980605455468202 0.0 ) " clip-path="url(#xXxprefixXx5)" clip-bounds-jfx="[rect (0.0, 0.0), (303.5193945445318, 155.0)]">
          <defs>
            <clipPath id="xXxprefixXx5">
              <rect x="0.0" y="0.0" width="303.5193945445318" height="155.0">
              </rect>
            </clipPath>
          </defs>
          <g>
            <path d="M13.796336115660552 147.95454545454547 L13.796336115660552 147.95454545454547 L16.583474724884894 145.49935396194857 L19.370613334109237 143.0257213047907 L22.157751943333608 140.52869366841014 L24.944890552557936 138.0077185041704 L27.732029161782293 135.46127022367256 L30.51916777100665 132.8879060319513 L33.30630638023099 130.28622928228108 L36.09344498945535 127.65505029647865 L38.88058359867969 124.99326288808663 L41.66772220790405 122.29999462629632 L44.45486081712839 119.57460108683986 L47.24199942635275 116.816447340503 L50.029138035577105 114.02490013209447 L52.81627664480145 111.19957635570522 L55.603415254025805 108.340352256741 L58.39055386325016 105.4471153749376 L61.17769247247452 102.52005469177391 L63.96483108169885 99.5601978267274 L66.7519696909232 96.56818824674488 L69.53910830014756 93.54620312774068 L72.32624690937189 90.53883004971719 L75.11338551859625 87.62316963094248 L77.9005241278206 84.60912385879108 L80.68766273704496 81.2904116626721 L83.4748013462693 77.49789156833553 L86.26193995549366 73.76088505469103 L89.04907856471802 69.11540799421086 L91.83621717394237 63.99114619170285 L94.6233557831667 59.37451282409505 L97.41049439239106 54.70122771435494 L100.1976330016154 49.507907267122874 L102.98477161083977 43.51170483703093 L105.77191022006411 37.03863000298881 L108.55904882928847 30.566906399975608 L111.34618743851283 24.574757662970427 L114.13332604773717 19.5404074269523 L116.92046465696151 15.942079326900313 L119.70760326618586 14.257996997793526 L122.49474187541023 14.966384074611057 L125.28188048463457 16.7117157221615 L128.0690190938589 16.334622661446616 L130.85615770308326 14.600371139025413 L133.64329631230763 11.635531692720122 L136.43043492153197 10.446629806144216 L139.2175735307563 9.31368450425586 L142.00471213998068 8.838174706367738 L144.79185074920503 8.822532565398092 L147.57898935842937 8.641819681961636 L150.3661279676537 9.808194476945829 L153.15326657687808 13.833815371238245 L155.94040518610242 7.045454545454561 L158.72754379532677 8.15328485433264 L161.51468240455114 10.148114995743185 L164.30182101377548 11.508905583322871 L167.08895962299982 13.58291280964994 L169.8760982322242 16.740073586047004 L172.66323684144854 20.28181642585696 L175.45037545067288 23.463112955553925 L178.23751405989722 24.74859130241984 L181.02465266912156 21.689017669501055 L183.81179127834594 20.034863050788914 L186.59892988757028 24.73164228899239 L189.38606849679462 30.288513002667173 L192.173207106019 35.25622727100735 L194.96034571524334 39.95905284432074 L197.74748432446768 44.702535480704114 L200.53462293369205 49.50878373153418 L203.3217615429164 54.514041812609676 L206.10890015214073 59.31433888862975 L208.8960387613651 63.8418481163238 L211.68317737058942 68.32480502908257 L214.4703159798138 72.74066518875257 L217.25745458903813 76.97961962280972 L220.04459319826248 80.9361930469839 L222.83173180748685 84.60458500684376 L225.6188704167112 88.0998572770139 L228.40600902593553 91.34685572552185 L231.1931476351599 94.2067929032526 L233.98028624438425 96.93345765799842 L236.7674248536086 99.5879292319785 L239.55456346283296 102.19976670231193 L242.34170207205733 104.78666320378393 L245.12884068128164 107.35416183723602 L247.915979290506 109.90588550973352 L250.70311789973033 112.4445780643808 L253.4902565089547 114.9696787648098 L256.277395118179 117.48042899033072 L259.0645337274034 119.97574685532368 L261.85167233662776 122.45453218863639 L264.63881094585213 124.91573269925695 L267.42594955507644 127.35846084576843 L270.2130881643008 129.7818702741527 L273.0002267735251 132.1851146303916 L275.7873653827495 134.5673573886286 L278.57450399197387 136.92780133565373 L281.3616426011982 139.26565908641854 L284.14878121042256 141.5797553177791 L286.93591981964687 143.8660161560528 L289.72305842887124 146.1355412540005 " fill="none" stroke-width="1.6500000000000001" stroke="rgb(187,187,187)" stroke-opacity="1.0">
            </path>
          </g>
        </g>
      </g>
      <g transform="translate(36.9806054554682 15.2 ) ">
        <text class="plot-title" y="0.0">
        `statSmooth()` + non-statistical `line` layer
        </text>
      </g>
      <g transform="translate(14.5 111.5 ) rotate(-90.0 ) ">
        <text class="axis-title-y" y="0.0" text-anchor="middle">
        y
        </text>
      </g>
      <g transform="translate(188.7403027277341 226.5 ) ">
        <text class="axis-title-x" y="0.0" text-anchor="middle">
        x
        </text>
      </g>
      <path fill="rgb(0,0,0)" fill-opacity="0.0" stroke="rgb(187,187,187)" stroke-opacity="1.0" stroke-width="0.0" d="M0.0 0.0 L0.0 235.0 L350.5 235.0 L350.5 0.0 Z">
      </path>
    </g>
    <g id="xXxprefixXx6">
    </g>
  </svg>
</svg>