<svg xmlns="http://www.w3.org/2000/svg" xmlns:xlink="http://www.w3.org/1999/xlink" class="plt-container" width="705.0" height="470.0">
  <style type="text/css">
  .plt-container {
   font-family: Lucida Grande, sans-serif;
   user-select: none;
   -webkit-user-select: none;
   -moz-user-select: none;
   -ms-user-select: none;
}
text {
   text-rendering: optimizeLegibility;
}
#xXxprefixXx0 .plot-title {
   fill: #bbbbbb;
   font-family: Lucida Grande, sans-serif;
   font-size: 16.0px;
   font-weight: normal;
   font-style: normal;   
}
#xXxprefixXx0 .plot-subtitle {
   fill: #bbbbbb;
   font-family: Lucida Grande, sans-serif;
   font-size: 15.0px;
   font-weight: normal;
   font-style: normal;   
}
#xXxprefixXx0 .plot-caption {
   fill: #bbbbbb;
   font-family: Lucida Grande, sans-serif;
   font-size: 13.0px;
   font-weight: normal;
   font-style: normal;   
}
#xXxprefixXx0 .legend-title {
   fill: #bbbbbb;
   font-family: Lucida Grande, sans-serif;
   font-size: 15.0px;
   font-weight: normal;
   font-style: normal;   
}
#xXxprefixXx0 .legend-item {
   fill: #bbbbbb;
   font-family: Lucida Grande, sans-serif;
   font-size: 13.0px;
   font-weight: normal;
   font-style: normal;   
}
#xXxprefixXx0 .axis-title-x {
   fill: #bbbbbb;
   font-family: Lucida Grande, sans-serif;
   font-size: 15.0px;
   font-weight: normal;
   font-style: normal;   
}
#xXxprefixXx0 .axis-text-x {
   fill: #bbbbbb;
   font-family: Lucida Grande, sans-serif;
   font-size: 13.0px;
   font-weight: normal;
   font-style: normal;   
}
#xXxprefixXx2 .axis-tooltip-text-x {
   fill: #303030;
   font-family: Lucida Grande, sans-serif;
   font-size: 13.0px;
   font-weight: normal;
   font-style: normal;   
}
#xXxprefixXx0 .axis-title-y {
   fill: #bbbbbb;
   font-family: Lucida Grande, sans-serif;
   font-size: 15.0px;
   font-weight: normal;
   font-style: normal;   
}
#xXxprefixXx0 .axis-text-y {
   fill: #bbbbbb;
   font-family: Lucida Grande, sans-serif;
   font-size: 13.0px;
   font-weight: normal;
   font-style: normal;   
}
#xXxprefixXx2 .axis-tooltip-text-y {
   fill: #303030;
   font-family: Lucida Grande, sans-serif;
   font-size: 13.0px;
   font-weight: normal;
   font-style: normal;   
}
#xXxprefixXx0 .facet-strip-text-x {
   fill: #bbbbbb;
   font-family: Lucida Grande, sans-serif;
   font-size: 13.0px;
   font-weight: normal;
   font-style: normal;   
}
#xXxprefixXx0 .facet-strip-text-y {
   fill: #bbbbbb;
   font-family: Lucida Grande, sans-serif;
   font-size: 13.0px;
   font-weight: normal;
   font-style: normal;   
}
#xXxprefixXx2 .tooltip-text {
   fill: #bbbbbb;
   font-family: Lucida Grande, sans-serif;
   font-size: 13.0px;
   font-weight: normal;
   font-style: normal;   
}
#xXxprefixXx2 .tooltip-title {
   fill: #bbbbbb;
   font-family: Lucida Grande, sans-serif;
   font-size: 13.0px;
   font-weight: bold;
   font-style: normal;   
}
#xXxprefixXx2 .tooltip-label {
   fill: #bbbbbb;
   font-family: Lucida Grande, sans-serif;
   font-size: 13.0px;
   font-weight: bold;
   font-style: normal;   
}

  </style>
  <g id="xXxprefixXx0">
    <path fill-rule="evenodd" fill="rgb(25,25,28)" fill-opacity="1.0" d="M0.0 0.0 L0.0 470.0 L705.0 470.0 L705.0 0.0 Z">
    </path>
    <g transform="translate(23.0 10.0 ) ">
      <g transform="translate(50.97651758668602 414.0 ) ">
        <line x1="23.996462072733323" y1="-0.0" x2="23.996462072733323" y2="-414.0" stroke="rgb(71,71,71)" stroke-opacity="1.0" stroke-width="1.0">
        </line>
        <line x1="111.5930427703596" y1="-0.0" x2="111.5930427703596" y2="-414.0" stroke="rgb(71,71,71)" stroke-opacity="1.0" stroke-width="1.0">
        </line>
        <line x1="199.18962346798583" y1="-0.0" x2="199.18962346798583" y2="-414.0" stroke="rgb(71,71,71)" stroke-opacity="1.0" stroke-width="1.0">
        </line>
        <line x1="286.7862041656121" y1="-0.0" x2="286.7862041656121" y2="-414.0" stroke="rgb(71,71,71)" stroke-opacity="1.0" stroke-width="1.0">
        </line>
        <line x1="374.3827848632384" y1="-0.0" x2="374.3827848632384" y2="-414.0" stroke="rgb(71,71,71)" stroke-opacity="1.0" stroke-width="1.0">
        </line>
        <line x1="461.9793655608646" y1="-0.0" x2="461.9793655608646" y2="-414.0" stroke="rgb(71,71,71)" stroke-opacity="1.0" stroke-width="1.0">
        </line>
        <line x1="549.5759462584908" y1="-0.0" x2="549.5759462584908" y2="-414.0" stroke="rgb(71,71,71)" stroke-opacity="1.0" stroke-width="1.0">
        </line>
        <g transform="translate(23.996462072733323 0.0 ) ">
          <line stroke-width="1.0" stroke="rgb(187,187,187)" stroke-opacity="1.0" x2="0.0" y2="4.0">
          </line>
          <g transform="translate(0.0 7.0 ) ">
            <text class="axis-text-x" text-anchor="middle" dy="0.7em">
            200
            </text>
          </g>
        </g>
        <g transform="translate(111.5930427703596 0.0 ) ">
          <line stroke-width="1.0" stroke="rgb(187,187,187)" stroke-opacity="1.0" x2="0.0" y2="4.0">
          </line>
          <g transform="translate(0.0 7.0 ) ">
            <text class="axis-text-x" text-anchor="middle" dy="0.7em">
            300
            </text>
          </g>
        </g>
        <g transform="translate(199.18962346798583 0.0 ) ">
          <line stroke-width="1.0" stroke="rgb(187,187,187)" stroke-opacity="1.0" x2="0.0" y2="4.0">
          </line>
          <g transform="translate(0.0 7.0 ) ">
            <text class="axis-text-x" text-anchor="middle" dy="0.7em">
            400
            </text>
          </g>
        </g>
        <g transform="translate(286.7862041656121 0.0 ) ">
          <line stroke-width="1.0" stroke="rgb(187,187,187)" stroke-opacity="1.0" x2="0.0" y2="4.0">
          </line>
          <g transform="translate(0.0 7.0 ) ">
            <text class="axis-text-x" text-anchor="middle" dy="0.7em">
            500
            </text>
          </g>
        </g>
        <g transform="translate(374.3827848632384 0.0 ) ">
          <line stroke-width="1.0" stroke="rgb(187,187,187)" stroke-opacity="1.0" x2="0.0" y2="4.0">
          </line>
          <g transform="translate(0.0 7.0 ) ">
            <text class="axis-text-x" text-anchor="middle" dy="0.7em">
            600
            </text>
          </g>
        </g>
        <g transform="translate(461.9793655608646 0.0 ) ">
          <line stroke-width="1.0" stroke="rgb(187,187,187)" stroke-opacity="1.0" x2="0.0" y2="4.0">
          </line>
          <g transform="translate(0.0 7.0 ) ">
            <text class="axis-text-x" text-anchor="middle" dy="0.7em">
            700
            </text>
          </g>
        </g>
        <g transform="translate(549.5759462584908 0.0 ) ">
          <line stroke-width="1.0" stroke="rgb(187,187,187)" stroke-opacity="1.0" x2="0.0" y2="4.0">
          </line>
          <g transform="translate(0.0 7.0 ) ">
            <text class="axis-text-x" text-anchor="middle" dy="0.7em">
            800
            </text>
          </g>
        </g>
        <line x1="0.0" y1="0.0" x2="621.023482413314" y2="0.0" stroke-width="1.0" stroke="rgb(187,187,187)" stroke-opacity="1.0">
        </line>
      </g>
      <g transform="translate(50.97651758668602 0.0 ) ">
        <line x1="0.0" y1="367.47064809616006" x2="621.023482413314" y2="367.47064809616006" stroke="rgb(71,71,71)" stroke-opacity="1.0" stroke-width="1.0">
        </line>
        <line x1="0.0" y1="320.9412961923201" x2="621.023482413314" y2="320.9412961923201" stroke="rgb(71,71,71)" stroke-opacity="1.0" stroke-width="1.0">
        </line>
        <line x1="0.0" y1="274.4119442884802" x2="621.023482413314" y2="274.4119442884802" stroke="rgb(71,71,71)" stroke-opacity="1.0" stroke-width="1.0">
        </line>
        <line x1="0.0" y1="227.88259238464028" x2="621.023482413314" y2="227.88259238464028" stroke="rgb(71,71,71)" stroke-opacity="1.0" stroke-width="1.0">
        </line>
        <line x1="0.0" y1="181.35324048080034" x2="621.023482413314" y2="181.35324048080034" stroke="rgb(71,71,71)" stroke-opacity="1.0" stroke-width="1.0">
        </line>
        <line x1="0.0" y1="134.82388857696043" x2="621.023482413314" y2="134.82388857696043" stroke="rgb(71,71,71)" stroke-opacity="1.0" stroke-width="1.0">
        </line>
        <line x1="0.0" y1="88.29453667312049" x2="621.023482413314" y2="88.29453667312049" stroke="rgb(71,71,71)" stroke-opacity="1.0" stroke-width="1.0">
        </line>
        <line x1="0.0" y1="41.76518476928055" x2="621.023482413314" y2="41.76518476928055" stroke="rgb(71,71,71)" stroke-opacity="1.0" stroke-width="1.0">
        </line>
        <g transform="translate(0.0 414.0 ) ">
          <g transform="translate(-3.0 0.0 ) ">
            <text class="axis-text-y" text-anchor="end" dy="0.35em">
            0.0000
            </text>
          </g>
        </g>
        <g transform="translate(0.0 367.47064809616006 ) ">
          <g transform="translate(-3.0 0.0 ) ">
            <text class="axis-text-y" text-anchor="end" dy="0.35em">
            0.0005
            </text>
          </g>
        </g>
        <g transform="translate(0.0 320.9412961923201 ) ">
          <g transform="translate(-3.0 0.0 ) ">
            <text class="axis-text-y" text-anchor="end" dy="0.35em">
            0.0010
            </text>
          </g>
        </g>
        <g transform="translate(0.0 274.4119442884802 ) ">
          <g transform="translate(-3.0 0.0 ) ">
            <text class="axis-text-y" text-anchor="end" dy="0.35em">
            0.0015
            </text>
          </g>
        </g>
        <g transform="translate(0.0 227.88259238464028 ) ">
          <g transform="translate(-3.0 0.0 ) ">
            <text class="axis-text-y" text-anchor="end" dy="0.35em">
            0.0020
            </text>
          </g>
        </g>
        <g transform="translate(0.0 181.35324048080034 ) ">
          <g transform="translate(-3.0 0.0 ) ">
            <text class="axis-text-y" text-anchor="end" dy="0.35em">
            0.0025
            </text>
          </g>
        </g>
        <g transform="translate(0.0 134.82388857696043 ) ">
          <g transform="translate(-3.0 0.0 ) ">
            <text class="axis-text-y" text-anchor="end" dy="0.35em">
            0.0030
            </text>
          </g>
        </g>
        <g transform="translate(0.0 88.29453667312049 ) ">
          <g transform="translate(-3.0 0.0 ) ">
            <text class="axis-text-y" text-anchor="end" dy="0.35em">
            0.0035
            </text>
          </g>
        </g>
        <g transform="translate(0.0 41.76518476928055 ) ">
          <g transform="translate(-3.0 0.0 ) ">
            <text class="axis-text-y" text-anchor="end" dy="0.35em">
            0.0040
            </text>
          </g>
        </g>
      </g>
      <g transform="translate(50.97651758668602 0.0 ) " clip-path="url(#xXxprefixXx1)" clip-bounds-jfx="[rect (0.0, 0.0), (621.023482413314, 414.0)]">
        <defs>
          <clipPath id="xXxprefixXx1">
            <rect x="0.0" y="0.0" width="621.023482413314" height="414.0">
            </rect>
          </clipPath>
        </defs>
        <g>
          <path d="M28.22834010969612 409.81124883745065 L28.22834010969612 409.81124883745065 L29.33316751124977 409.8444721126105 L30.437994912803447 409.94308789026564 L31.542822314357096 410.10396746786114 L32.647649715910774 410.3220067499121 L33.75247711746442 410.5902881814889 L34.8573045190181 410.90030021585557 L35.96213192057175 411.24220735338844 L37.0669593221254 411.60256262155417 L38.17178672367908 411.90347837797384 L39.276614125232754 412.07328261722375 L40.3814415267864 412.1048746005584 L41.48626892834005 411.9972520348222 L42.59109632989373 411.7538293736087 L43.69592373144741 411.35644165321145 L44.80075113300106 410.73079951391423 L45.90557853455471 409.8766438873885 L47.010405936108384 408.8210738743526 L48.11523333766206 407.60253254197653 L49.22006073921571 406.3086146398562 L50.32488814076936 404.99292886293597 L51.42971554232304 403.69176603513785 L52.534542943876716 402.3972091212927 L53.639370345430336 401.13853176333765 L54.744197746984014 399.9556669938909 L55.84902514853769 398.8861426012473 L56.95385255009137 397.93799962900005 L58.05867995164502 397.10122310261505 L59.16350735319867 396.40190102199904 L60.268334754752345 395.86222020991414 L61.37316215630602 395.49930268046205 L62.477989557859644 395.32466242287103 L63.58281695941332 395.343840106526 L64.687644360967 395.55622729665845 L65.79247176252065 395.95508575766127 L66.89729916407433 396.5277612316085 L68.00212656562798 397.25165462121845 L69.10695396718165 398.055211506386 L70.2117813687353 398.8978133756439 L71.31660877028895 399.70791810115315 L72.42143617184263 400.41998188153184 L73.5262635733963 400.96657672250967 L74.63109097494996 401.3286534284144 L75.73591837650363 401.4948106531421 L76.84074577805731 401.50549400156325 L77.94557317961093 401.36589708501606 L79.05040058116458 400.97112170023547 L80.15522798271826 400.2604974522488 L81.26005538427194 399.2548631711709 L82.36488278582559 397.99897221837523 L83.46971018737926 396.56692751812506 L84.57453758893294 394.95855853380823 L85.67936499048662 393.22338981940675 L86.78419239204027 391.4164716611851 L87.88901979359395 389.5951306816446 L88.99384719514757 387.79836436927894 L90.09867459670124 385.9899690048911 L91.2035019982549 384.2481939147025 L92.30832939980857 382.6051894381212 L93.41315680136225 381.0761588433644 L94.5179842029159 379.6384704906694 L95.62281160446952 378.30903213349654 L96.7276390060232 377.17769233213045 L97.83246640757687 376.27722526186244 L98.93729380913052 375.5835024680099 L100.0421212106842 375.02855631923654 L101.14694861223788 374.4271529725396 L102.25177601379156 373.63460547402 L103.3566034153452 372.6194512463927 L104.46143081689888 371.2880829762559 L105.56625821845256 369.65063719394806 L106.67108562000624 367.75357845731895 L107.77591302155986 365.6486549775576 L108.88074042311348 363.41657153013807 L109.98556782466716 361.15512673705376 L111.09039522622083 358.8566829238869 L112.19522262777451 356.4858091846021 L113.30005002932819 353.98020090577603 L114.40487743088181 351.3097418913826 L115.50970483243549 348.50074153043863 L116.61453223398917 345.6309403365133 L117.71935963554279 342.82039442399457 L118.82418703709646 340.1884431815501 L119.92901443865014 337.7364524919633 L121.03384184020382 335.4123393721782 L122.1386692417575 333.12619295761857 L123.24349664331118 330.9385226591721 L124.34832404486485 328.90540212514486 L125.45315144641842 326.99057830591613 L126.5579788479721 325.1031842553241 L127.66280624952577 323.25269508925834 L128.76763365107945 321.4973749283464 L129.87246105263313 319.7925970889697 L130.9772884541868 318.08831843230325 L132.08211585574043 316.41317900898173 L133.1869432572941 314.80971404172135 L134.29177065884772 313.3055723895258 L135.3965980604014 311.88077329058535 L136.50142546195508 310.51450046075047 L137.60625286350876 309.2095903372667 L138.71108026506244 308.02830391790184 L139.8159076666161 307.12638447476354 L140.92073506816973 306.59437406593577 L142.0255624697234 306.3438591441973 L143.1303898712771 306.4279048275992 L144.23521727283077 306.7344623723477 L145.3400446743844 307.1219414190897 L146.44487207593806 307.46357374625745 L147.54969947749174 307.58037509684635 L148.65452687904542 307.29467532153484 L149.75935428059904 306.502426693177 L150.86418168215266 305.28481979731407 L151.96900908370634 303.67777796689114 L153.07383648526002 301.6578337395019 L154.1786638868137 299.2348487206872 L155.28349128836737 296.3944961312484 L156.38831868992105 293.05456435661324 L157.49314609147467 289.1825007552219 L158.59797349302835 284.9073293292279 L159.70280089458203 280.38884344048074 L160.8076282961357 275.8006479179176 L161.91245569768938 271.20845922074284 L163.017283099243 266.56100321919973 L164.12211050079668 261.91301411062045 L165.22693790235036 257.31415724766026 L166.33176530390398 252.83400089143834 L167.4365927054576 248.57718963618092 L168.54142010701128 244.7043612647887 L169.64624750856495 241.30688104164523 L170.75107491011863 238.3037418486914 L171.8559023116723 235.63214464919696 L172.960729713226 233.27582317861422 L174.0655571147796 231.16355861323478 L175.17038451633329 229.12659656389383 L176.27521191788696 227.13303223889176 L177.38003931944064 225.25384529820064 L178.48486672099432 223.40987466948724 L179.589694122548 221.46300826077416 L180.69452152410167 219.4657837275675 L181.7993489256553 217.28460610466277 L182.90417632720892 214.94585054702299 L184.0090037287626 212.38797570491118 L185.11383113031627 209.53839905142874 L186.2186585318699 206.50847918794983 L187.32348593342357 203.2703342075143 L188.42831333497725 199.85162570079606 L189.53314073653092 196.13744432216464 L190.63796813808455 192.228738416199 L191.74279553963822 188.2063037587054 L192.8476229411919 184.0084218920034 L193.95245034274558 179.64291166733025 L195.05727774429926 175.23752243408597 L196.16210514585293 170.88777462969261 L197.2669325474066 166.34525726563228 L198.37175994896023 161.55582419497003 L199.47658735051385 156.54239332183357 L200.58141475206753 151.32019729835343 L201.6862421536212 146.0501369409588 L202.7910695551749 140.96315402752543 L203.8958969567285 136.34026047791457 L205.00072435828218 132.49695896623928 L206.10555175983586 129.6067236040072 L207.21037916138948 127.7162212131243 L208.31520656294316 126.6058281806092 L209.42003396449684 126.30983223915052 L210.52486136605052 126.74204127695663 L211.6296887676042 127.62969355636972 L212.73451616915787 128.63916977134278 L213.83934357071155 129.79036152303098 L214.94417097226517 130.97424033737678 L216.04899837381885 131.86524374421543 L217.15382577537252 132.333745218228 L218.25865317692615 132.54205212975933 L219.36348057847982 132.6222787738971 L220.4683079800335 132.60222033311692 L221.57313538158718 132.36621043405205 L222.6779627831408 131.78934658405456 L223.78279018469442 130.7838657472309 L224.8876175862481 129.01403157381907 L225.99244498780178 126.48231870885559 L227.09727238935545 123.22589417235747 L228.20209979090913 119.30220058846578 L229.3069271924628 114.7170348432515 L230.4117545940165 109.66419430184447 L231.5165819955701 104.4131870195032 L232.62140939712378 99.12425829182007 L233.72623679867746 93.97602011310244 L234.83106420023114 89.15176968816661 L235.93589160178476 85.06308940832946 L237.04071900333844 81.84012178852043 L238.14554640489212 79.49810531779184 L239.2503738064458 78.06209370966957 L240.35520120799941 77.64426336369257 L241.46002860955304 78.2030889598737 L242.5648560111067 79.49611104570499 L243.6696834126604 81.08246330080726 L244.77451081421407 82.58047514538998 L245.87933821576775 83.81573161403008 L246.98416561732142 84.76905896841117 L248.08899301887504 85.27908421246747 L249.19382042042872 85.16116063229532 L250.2986478219824 84.40875395402043 L251.40347522353608 83.28973074970168 L252.5083026250897 81.92972465858861 L253.61313002664338 80.33217926023434 L254.71795742819705 78.65951207145292 L255.82278482975067 76.84082350243926 L256.92761223130435 74.90293327126778 L258.03243963285803 72.67233029626664 L259.1372670344117 69.92663988285523 L260.2420944359654 66.65189680562526 L261.346921837519 62.78642321580418 L262.4517492390727 58.322539408829925 L263.55657664062636 53.631270508964406 L264.66140404218 48.812268935066186 L265.76623144373366 43.93788294710714 L266.87105884528734 39.306300963509386 L267.975886246841 35.10997831292792 L269.0807136483947 31.360393859516023 L270.1855410499483 28.013479557139476 L271.290368451502 25.210974834664853 L272.3951958530556 22.90473295402313 L273.5000232546093 21.231824491195766 L274.60485065616297 20.1948720641696 L275.70967805771664 19.75313106700213 L276.8145054592703 19.714285714285666 L277.919332860824 20.249445872780825 L279.0241602623777 21.241347657900747 L280.1289876639313 22.361365466424786 L281.2338150654849 23.408429998828353 L282.3386424670386 24.323704223080995 L283.4434698685923 25.03184183192178 L284.54829727014595 25.37777321289809 L285.65312467169963 25.330399440830377 L286.7579520732533 25.0876170089399 L287.862779474807 24.943362870679323 L288.96760687636055 25.11082441146459 L290.0724342779142 25.518296984729943 L291.1772616794679 26.07096950617455 L292.2820890810216 26.829190113228094 L293.38691648257526 27.772750057113342 L294.49174388412894 28.79600237561334 L295.5965712856826 29.892232342502666 L296.70139868723624 31.165592434311122 L297.80622608878986 32.73074986361593 L298.91105349034353 34.59505961978374 L300.0158808918972 37.075345028745915 L301.1207082934509 40.46969682994683 L302.22553569500457 44.77573705997332 L303.33036309655824 49.92323442509701 L304.4351904981119 55.72639809112695 L305.54001789966554 61.937625430294645 L306.6448453012192 68.45941600394485 L307.7496727027729 75.30525907080266 L308.8545001043266 82.45395158306229 L309.95932750588025 89.59841642943337 L311.06415490743393 96.4197699729944 L312.16898230898755 102.6593433562573 L313.27380971054123 108.00229630122254 L314.3786371120949 112.29680500989917 L315.4834645136486 115.66297430468751 L316.58829191520215 117.99862107602036 L317.6931193167558 119.11547864985278 L318.7979467183095 119.18245687485677 L319.9027741198632 118.29789408697172 L321.00760152141686 116.61186050804758 L322.1124289229705 114.41821176455227 L323.21725632452416 112.08908172670664 L324.32208372607784 109.87996749853488 L325.4269111276314 107.98292287360857 L326.5317385291851 106.4381262137307 L327.63656593073875 105.23825319884321 L328.74139333229243 104.59152313389859 L329.8462207338461 104.68129784771111 L330.95104813539973 105.45859388790137 L332.0558755369534 106.82400739430807 L333.1607029385071 108.8677419847636 L334.26553034006076 111.6083548910047 L335.37035774161444 114.8890101091792 L336.4751851431681 118.71639402842311 L337.5800125447218 123.18430844851667 L338.6848399462754 128.0834554750831 L339.7896673478291 132.99571049139968 L340.8944947493828 137.5948123887256 L341.99932215093645 141.70386667598058 L343.1041495524901 145.3549063081091 L344.2089769540438 148.67871472446217 L345.3138043555974 151.59706019772307 L346.4186317571511 153.92502251108579 L347.5234591587048 155.52354304766897 L348.62828656025846 156.56396141275002 L349.73311396181214 157.4355321963123 L350.8379413633658 158.24539498748223 L351.9427687649195 159.0396993756032 L353.04759616647306 159.87169637047677 L354.1524235680267 160.75570022477186 L355.25725096958035 161.64085383864887 L356.36207837113403 162.75149531535695 L357.4669057726877 164.18606462404114 L358.5717331742414 166.0992441419616 L359.67656057579507 168.62236650866603 L360.78138797734874 171.6038728876015 L361.8862153789023 174.82472747448475 L362.9910427804559 178.03822922935083 L364.09587018200966 180.9879441898776 L365.2006975835633 183.4828941625933 L366.305524985117 185.57251789340913 L367.41035238667064 187.29211053534198 L368.51517978822426 188.49074073965846 L369.620007189778 189.1383180284329 L370.7248345913316 189.20038534842158 L371.82966199288535 188.69510315141397 L372.93448939443897 187.62768446690455 L374.0393167959927 186.1061923823802 L375.1441441975463 184.28290181678528 L376.24897159909995 182.30753381701714 L377.3537990006537 180.32129198335363 L378.4586264022073 178.5300553440343 L379.56345380376104 177.17118944931093 L380.66828120531466 176.40610478046233 L381.7731086068683 176.44102659627143 L382.877936008422 177.20613190742364 L383.98276340997563 178.66569982945623 L385.08759081152937 180.69821515464116 L386.192418213083 183.26636462200835 L387.2972456146367 186.14870145285255 L388.40207301619034 189.18685322267828 L389.50690041774396 192.33308705483938 L390.6117278192976 195.66589354608456 L391.7165552208512 199.27028185337065 L392.82138262240494 203.24457308541395 L393.92621002395856 207.70304474568644 L395.0310374255123 212.6006171445457 L396.1358648270659 217.82268062239606 L397.24069222861965 223.26227230597877 L398.34551963017316 228.79018125820306 L399.4503470317269 234.4525838408504 L400.5551744332805 240.1801431097934 L401.66000183483413 245.9135291166246 L402.76482923638787 251.6844938068554 L403.8696566379415 257.4098132119061 L404.9744840394952 262.9586170922526 L406.07931144104884 268.1466979772936 L407.1841388426026 272.96035341343384 L408.2889662441562 277.35054353826104 L409.3937936457098 281.41801464253774 L410.49862104726355 285.28947623526903 L411.6034484488172 289.0530018851841 L412.7082758503709 292.71402953928384 L413.81310325192453 296.0996627676084 L414.91793065347815 299.0519476373174 L416.0227580550319 301.60180931940073 L417.1275854565855 303.86944669791677 L418.23241285813924 305.9935569850897 L419.33724025969286 308.08390090819034 L420.4420676612466 310.08875423720343 L421.5468950628002 312.071955949799 L422.65172246435384 314.15666439462797 L423.7565498659076 316.45014080677527 L424.8613772674612 318.9771524155666 L425.9662046690148 321.9145843525474 L427.07103207056844 325.28534743680524 L428.17585947212217 329.0382914048483 L429.2806868736758 332.9749901809567 L430.3855142752295 336.9982338156375 L431.49034167678315 340.96414510410796 L432.59516907833677 344.70024006947085 L433.6999964798905 348.18274729547545 L434.804823881444 351.3644500224388 L435.90965128299774 354.18939223808746 L437.01447868455136 356.6700251466989 L438.1193060861051 358.78222586111235 L439.2241334876587 360.52491427422535 L440.32896088921245 361.91368730572395 L441.4337882907661 362.977111169531 L442.5386156923197 363.81790475753223 L443.64344309387343 364.51724251070465 L444.74827049542705 365.1592965771147 L445.8530978969808 365.80289006285494 L446.9579252985344 366.5333253013834 L448.062752700088 367.36114227675256 L449.16758010164176 368.27082688530453 L450.2724075031954 369.2124553224859 L451.3772349047491 370.1189153109063 L452.48206230630274 370.96126082196827 L453.58688970785647 371.7623293858326 L454.6917171094101 372.50806060876107 L455.7965445109637 373.16264592830765 L456.90137191251745 373.6827100113754 L458.00619931407107 374.08540482738323 L459.1110267156248 374.41745428197913 L460.2158541171784 374.65584189727474 L461.32068151873216 374.7335540148142 L462.42550892028567 374.6631553606082 L463.5303363218394 374.5084250771065 L464.635163723393 374.27765653188976 L465.73999112494664 373.93116625802156 L466.8448185265004 373.4039756812405 L467.949645928054 372.7638934620016 L469.05447332960773 372.10057050611334 L470.15930073116135 371.45696621987435 L471.264128132715 370.8986388654352 L472.3689555342686 370.4223547808938 L473.4737829358223 370.00506704222505 L474.57861033737595 369.7076293676223 L475.68343773892957 369.5529352487289 L476.7882651404833 369.54589254001326 L477.8930925420369 369.7294614977289 L478.99791994359066 370.20297778165934 L480.1027473451443 370.96379708967305 L481.2075747466979 371.9732750843171 L482.31240214825164 373.2481987030891 L483.41722954980526 374.7528767654304 L484.522056951359 376.43957157449324 L485.6268843529126 378.2568522324117 L486.73171175446635 380.1927182415602 L487.83653915601997 382.19278935504576 L488.9413665575736 384.1848645740793 L490.0461939591273 386.17885228788276 L491.15102136068094 388.1415349742345 L492.2558487622347 390.11017306101166 L493.3606761637883 392.0393856491811 L494.4655035653419 393.8726646425796 L495.57033096689554 395.6006225781465 L496.6751583684493 397.1954592206884 L497.7799857700029 398.6550146371777 L498.8848131715565 399.987059018189 L499.98964057311025 401.2353811846025 L501.09446797466387 402.4148776619617 L502.1992953762176 403.4968000391551 L503.3041227777712 404.4468230450514 L504.40895017932496 405.2606365125396 L505.5137775808786 406.00674248180144 L506.6186049824322 406.7207254386638 L507.72343238398594 407.3998658166594 L508.82825978553956 408.0227790591748 L509.9330871870933 408.60722544980575 L511.0379145886469 409.17546731925063 L512.1427419902005 409.75859395284067 L513.2475693917542 410.3433911251207 L514.3523967933078 410.91130545193073 L515.4572241948615 411.44431917741497 L516.5620515964151 411.92552180870473 L517.6668789979689 412.3396466213693 L518.7717063995225 412.6970594767187 L519.8765338010762 413.0226901662507 L520.9813612026298 413.2576921024694 L522.0861886041835 413.38335153685586 L523.1910160057372 413.39568177475763 L524.2958434072908 413.29429162474736 L525.4006708088446 413.08239780963487 L526.5054982103982 412.7711728198055 L527.6103256119519 412.419093122257 L528.7151530135055 412.05072302085165 L529.8199804150591 411.67774949413257 L530.9248078166128 411.31200556977274 L532.0296352181664 410.9650949077323 L533.1344626197201 410.64802366037856 L534.2392900212737 410.3708512892429 L535.3441174228275 410.1423714166683 L536.4489448243811 409.96983283770635 L537.5537722259348 409.858709543494 L538.6585996274885 409.8125270523893 L539.7634270290421 409.83275055871877 L540.8682544305958 409.9187384477485 L541.9730818321494 410.0677626516734 L543.0779092337032 410.2750952008047 L544.1827366352568 410.5341582240186 L545.2875640368105 410.83673263952187 L546.3923914383641 411.1732189149743 L547.4972188399178 411.5329416240419 L548.6020462414714 411.90448813696366 L549.706873643025 412.27607069977256 L550.8117010445787 412.63590041477596 L551.9165284461324 412.97256125732275 L553.0213558476861 413.2753722627307 L554.1261832492397 413.53472639256404 L555.2310106507933 413.73439729890396 L556.3358380523471 413.8182547754742 L557.4406654539007 413.7749852342963 L558.5454928554544 413.6071615148807 L559.650320257008 413.36352676558437 L560.7551476585618 413.073638334514 L561.8599750601154 412.7466932761016 L562.964802461669 412.3930643102499 L564.0696298632228 412.0239707354858 L565.1744572647764 411.65112248340307 L566.2792846663301 411.28634860718824 L567.3841120678836 410.94122199087326 L568.4889394694374 410.6266921858578 L569.593766870991 410.35273802339964 L570.6985942725447 410.128051024353 L571.8034216740983 409.9597596503566 L572.908249075652 409.85320314493043 L574.0130764772057 409.79920452539034 L575.1179038787593 409.7505418820002 L576.222731280313 409.7038052388014 L577.3275586818667 409.6604773712529 L578.4323860834204 409.62193290736184 L579.537213484974 409.58939471597864 L580.6420408865276 409.56389510983195 L581.7468682880814 409.54624309418233 L582.851695689635 409.53699870017067 L583.9565230911887 409.5364552171655 L585.0613504927422 409.5446298878101 L586.166177894296 409.56126336097884 L587.2710052958496 409.5858279199997 L588.3758326974032 409.6175442250915 L589.480660098957 409.6554060388434 L590.5854875005106 409.6982121502906 L591.6903149020643 409.7446044847575 L592.7951423036179 409.79311119038795 L592.7951423036179 414.0 L591.6903149020643 414.0 L590.5854875005106 414.0 L589.480660098957 414.0 L588.3758326974032 414.0 L587.2710052958496 414.0 L586.166177894296 414.0 L585.0613504927422 414.0 L583.9565230911887 414.0 L582.851695689635 414.0 L581.7468682880814 414.0 L580.6420408865276 414.0 L579.537213484974 414.0 L578.4323860834204 414.0 L577.3275586818667 414.0 L576.222731280313 414.0 L575.1179038787593 414.0 L574.0130764772057 414.0 L572.908249075652 414.0 L571.8034216740983 414.0 L570.6985942725447 414.0 L569.593766870991 414.0 L568.4889394694374 414.0 L567.3841120678836 414.0 L566.2792846663301 414.0 L565.1744572647764 414.0 L564.0696298632228 414.0 L562.964802461669 414.0 L561.8599750601154 414.0 L560.7551476585618 414.0 L559.650320257008 414.0 L558.5454928554544 414.0 L557.4406654539007 414.0 L556.3358380523471 414.0 L555.2310106507933 414.0 L554.1261832492397 414.0 L553.0213558476861 414.0 L551.9165284461324 414.0 L550.8117010445787 414.0 L549.706873643025 414.0 L548.6020462414714 414.0 L547.4972188399178 414.0 L546.3923914383641 414.0 L545.2875640368105 414.0 L544.1827366352568 414.0 L543.0779092337032 414.0 L541.9730818321494 414.0 L540.8682544305958 414.0 L539.7634270290421 414.0 L538.6585996274885 414.0 L537.5537722259348 414.0 L536.4489448243811 414.0 L535.3441174228275 414.0 L534.2392900212737 414.0 L533.1344626197201 414.0 L532.0296352181664 414.0 L530.9248078166128 414.0 L529.8199804150591 414.0 L528.7151530135055 414.0 L527.6103256119519 414.0 L526.5054982103982 414.0 L525.4006708088446 414.0 L524.2958434072908 414.0 L523.1910160057372 414.0 L522.0861886041835 414.0 L520.9813612026298 414.0 L519.8765338010762 414.0 L518.7717063995225 414.0 L517.6668789979689 414.0 L516.5620515964151 414.0 L515.4572241948615 414.0 L514.3523967933078 414.0 L513.2475693917542 414.0 L512.1427419902005 414.0 L511.0379145886469 414.0 L509.9330871870933 414.0 L508.82825978553956 414.0 L507.72343238398594 414.0 L506.6186049824322 414.0 L505.5137775808786 414.0 L504.40895017932496 414.0 L503.3041227777712 414.0 L502.1992953762176 414.0 L501.09446797466387 414.0 L499.98964057311025 414.0 L498.8848131715565 414.0 L497.7799857700029 414.0 L496.6751583684493 414.0 L495.57033096689554 414.0 L494.4655035653419 414.0 L493.3606761637883 414.0 L492.2558487622347 414.0 L491.15102136068094 414.0 L490.0461939591273 414.0 L488.9413665575736 414.0 L487.83653915601997 414.0 L486.73171175446635 414.0 L485.6268843529126 414.0 L484.522056951359 414.0 L483.41722954980526 414.0 L482.31240214825164 414.0 L481.2075747466979 414.0 L480.1027473451443 414.0 L478.99791994359066 414.0 L477.8930925420369 414.0 L476.7882651404833 414.0 L475.68343773892957 414.0 L474.57861033737595 414.0 L473.4737829358223 414.0 L472.3689555342686 414.0 L471.264128132715 414.0 L470.15930073116135 414.0 L469.05447332960773 414.0 L467.949645928054 414.0 L466.8448185265004 414.0 L465.73999112494664 414.0 L464.635163723393 414.0 L463.5303363218394 414.0 L462.42550892028567 414.0 L461.32068151873216 414.0 L460.2158541171784 414.0 L459.1110267156248 414.0 L458.00619931407107 414.0 L456.90137191251745 414.0 L455.7965445109637 414.0 L454.6917171094101 414.0 L453.58688970785647 414.0 L452.48206230630274 414.0 L451.3772349047491 414.0 L450.2724075031954 414.0 L449.16758010164176 414.0 L448.062752700088 414.0 L446.9579252985344 414.0 L445.8530978969808 414.0 L444.74827049542705 414.0 L443.64344309387343 414.0 L442.5386156923197 414.0 L441.4337882907661 414.0 L440.32896088921245 414.0 L439.2241334876587 414.0 L438.1193060861051 414.0 L437.01447868455136 414.0 L435.90965128299774 414.0 L434.804823881444 414.0 L433.6999964798905 414.0 L432.59516907833677 414.0 L431.49034167678315 414.0 L430.3855142752295 414.0 L429.2806868736758 414.0 L428.17585947212217 414.0 L427.07103207056844 414.0 L425.9662046690148 414.0 L424.8613772674612 414.0 L423.7565498659076 414.0 L422.65172246435384 414.0 L421.5468950628002 414.0 L420.4420676612466 414.0 L419.33724025969286 414.0 L418.23241285813924 414.0 L417.1275854565855 414.0 L416.0227580550319 414.0 L414.91793065347815 414.0 L413.81310325192453 414.0 L412.7082758503709 414.0 L411.6034484488172 414.0 L410.49862104726355 414.0 L409.3937936457098 414.0 L408.2889662441562 414.0 L407.1841388426026 414.0 L406.07931144104884 414.0 L404.9744840394952 414.0 L403.8696566379415 414.0 L402.76482923638787 414.0 L401.66000183483413 414.0 L400.5551744332805 414.0 L399.4503470317269 414.0 L398.34551963017316 414.0 L397.24069222861965 414.0 L396.1358648270659 414.0 L395.0310374255123 414.0 L393.92621002395856 414.0 L392.82138262240494 414.0 L391.7165552208512 414.0 L390.6117278192976 414.0 L389.50690041774396 414.0 L388.40207301619034 414.0 L387.2972456146367 414.0 L386.192418213083 414.0 L385.08759081152937 414.0 L383.98276340997563 414.0 L382.877936008422 414.0 L381.7731086068683 414.0 L380.66828120531466 414.0 L379.56345380376104 414.0 L378.4586264022073 414.0 L377.3537990006537 414.0 L376.24897159909995 414.0 L375.1441441975463 414.0 L374.0393167959927 414.0 L372.93448939443897 414.0 L371.82966199288535 414.0 L370.7248345913316 414.0 L369.620007189778 414.0 L368.51517978822426 414.0 L367.41035238667064 414.0 L366.305524985117 414.0 L365.2006975835633 414.0 L364.09587018200966 414.0 L362.9910427804559 414.0 L361.8862153789023 414.0 L360.78138797734874 414.0 L359.67656057579507 414.0 L358.5717331742414 414.0 L357.4669057726877 414.0 L356.36207837113403 414.0 L355.25725096958035 414.0 L354.1524235680267 414.0 L353.04759616647306 414.0 L351.9427687649195 414.0 L350.8379413633658 414.0 L349.73311396181214 414.0 L348.62828656025846 414.0 L347.5234591587048 414.0 L346.4186317571511 414.0 L345.3138043555974 414.0 L344.2089769540438 414.0 L343.1041495524901 414.0 L341.99932215093645 414.0 L340.8944947493828 414.0 L339.7896673478291 414.0 L338.6848399462754 414.0 L337.5800125447218 414.0 L336.4751851431681 414.0 L335.37035774161444 414.0 L334.26553034006076 414.0 L333.1607029385071 414.0 L332.0558755369534 414.0 L330.95104813539973 414.0 L329.8462207338461 414.0 L328.74139333229243 414.0 L327.63656593073875 414.0 L326.5317385291851 414.0 L325.4269111276314 414.0 L324.32208372607784 414.0 L323.21725632452416 414.0 L322.1124289229705 414.0 L321.00760152141686 414.0 L319.9027741198632 414.0 L318.7979467183095 414.0 L317.6931193167558 414.0 L316.58829191520215 414.0 L315.4834645136486 414.0 L314.3786371120949 414.0 L313.27380971054123 414.0 L312.16898230898755 414.0 L311.06415490743393 414.0 L309.95932750588025 414.0 L308.8545001043266 414.0 L307.7496727027729 414.0 L306.6448453012192 414.0 L305.54001789966554 414.0 L304.4351904981119 414.0 L303.33036309655824 414.0 L302.22553569500457 414.0 L301.1207082934509 414.0 L300.0158808918972 414.0 L298.91105349034353 414.0 L297.80622608878986 414.0 L296.70139868723624 414.0 L295.5965712856826 414.0 L294.49174388412894 414.0 L293.38691648257526 414.0 L292.2820890810216 414.0 L291.1772616794679 414.0 L290.0724342779142 414.0 L288.96760687636055 414.0 L287.862779474807 414.0 L286.7579520732533 414.0 L285.65312467169963 414.0 L284.54829727014595 414.0 L283.4434698685923 414.0 L282.3386424670386 414.0 L281.2338150654849 414.0 L280.1289876639313 414.0 L279.0241602623777 414.0 L277.919332860824 414.0 L276.8145054592703 414.0 L275.70967805771664 414.0 L274.60485065616297 414.0 L273.5000232546093 414.0 L272.3951958530556 414.0 L271.290368451502 414.0 L270.1855410499483 414.0 L269.0807136483947 414.0 L267.975886246841 414.0 L266.87105884528734 414.0 L265.76623144373366 414.0 L264.66140404218 414.0 L263.55657664062636 414.0 L262.4517492390727 414.0 L261.346921837519 414.0 L260.2420944359654 414.0 L259.1372670344117 414.0 L258.03243963285803 414.0 L256.92761223130435 414.0 L255.82278482975067 414.0 L254.71795742819705 414.0 L253.61313002664338 414.0 L252.5083026250897 414.0 L251.40347522353608 414.0 L250.2986478219824 414.0 L249.19382042042872 414.0 L248.08899301887504 414.0 L246.98416561732142 414.0 L245.87933821576775 414.0 L244.77451081421407 414.0 L243.6696834126604 414.0 L242.5648560111067 414.0 L241.46002860955304 414.0 L240.35520120799941 414.0 L239.2503738064458 414.0 L238.14554640489212 414.0 L237.04071900333844 414.0 L235.93589160178476 414.0 L234.83106420023114 414.0 L233.72623679867746 414.0 L232.62140939712378 414.0 L231.5165819955701 414.0 L230.4117545940165 414.0 L229.3069271924628 414.0 L228.20209979090913 414.0 L227.09727238935545 414.0 L225.99244498780178 414.0 L224.8876175862481 414.0 L223.78279018469442 414.0 L222.6779627831408 414.0 L221.57313538158718 414.0 L220.4683079800335 414.0 L219.36348057847982 414.0 L218.25865317692615 414.0 L217.15382577537252 414.0 L216.04899837381885 414.0 L214.94417097226517 414.0 L213.83934357071155 414.0 L212.73451616915787 414.0 L211.6296887676042 414.0 L210.52486136605052 414.0 L209.42003396449684 414.0 L208.31520656294316 414.0 L207.21037916138948 414.0 L206.10555175983586 414.0 L205.00072435828218 414.0 L203.8958969567285 414.0 L202.7910695551749 414.0 L201.6862421536212 414.0 L200.58141475206753 414.0 L199.47658735051385 414.0 L198.37175994896023 414.0 L197.2669325474066 414.0 L196.16210514585293 414.0 L195.05727774429926 414.0 L193.95245034274558 414.0 L192.8476229411919 414.0 L191.74279553963822 414.0 L190.63796813808455 414.0 L189.53314073653092 414.0 L188.42831333497725 414.0 L187.32348593342357 414.0 L186.2186585318699 414.0 L185.11383113031627 414.0 L184.0090037287626 414.0 L182.90417632720892 414.0 L181.7993489256553 414.0 L180.69452152410167 414.0 L179.589694122548 414.0 L178.48486672099432 414.0 L177.38003931944064 414.0 L176.27521191788696 414.0 L175.17038451633329 414.0 L174.0655571147796 414.0 L172.960729713226 414.0 L171.8559023116723 414.0 L170.75107491011863 414.0 L169.64624750856495 414.0 L168.54142010701128 414.0 L167.4365927054576 414.0 L166.33176530390398 414.0 L165.22693790235036 414.0 L164.12211050079668 414.0 L163.017283099243 414.0 L161.91245569768938 414.0 L160.8076282961357 414.0 L159.70280089458203 414.0 L158.59797349302835 414.0 L157.49314609147467 414.0 L156.38831868992105 414.0 L155.28349128836737 414.0 L154.1786638868137 414.0 L153.07383648526002 414.0 L151.96900908370634 414.0 L150.86418168215266 414.0 L149.75935428059904 414.0 L148.65452687904542 414.0 L147.54969947749174 414.0 L146.44487207593806 414.0 L145.3400446743844 414.0 L144.23521727283077 414.0 L143.1303898712771 414.0 L142.0255624697234 414.0 L140.92073506816973 414.0 L139.8159076666161 414.0 L138.71108026506244 414.0 L137.60625286350876 414.0 L136.50142546195508 414.0 L135.3965980604014 414.0 L134.29177065884772 414.0 L133.1869432572941 414.0 L132.08211585574043 414.0 L130.9772884541868 414.0 L129.87246105263313 414.0 L128.76763365107945 414.0 L127.66280624952577 414.0 L126.5579788479721 414.0 L125.45315144641842 414.0 L124.34832404486485 414.0 L123.24349664331118 414.0 L122.1386692417575 414.0 L121.03384184020382 414.0 L119.92901443865014 414.0 L118.82418703709646 414.0 L117.71935963554279 414.0 L116.61453223398917 414.0 L115.50970483243549 414.0 L114.40487743088181 414.0 L113.30005002932819 414.0 L112.19522262777451 414.0 L111.09039522622083 414.0 L109.98556782466716 414.0 L108.88074042311348 414.0 L107.77591302155986 414.0 L106.67108562000624 414.0 L105.56625821845256 414.0 L104.46143081689888 414.0 L103.3566034153452 414.0 L102.25177601379156 414.0 L101.14694861223788 414.0 L100.0421212106842 414.0 L98.93729380913052 414.0 L97.83246640757687 414.0 L96.7276390060232 414.0 L95.62281160446952 414.0 L94.5179842029159 414.0 L93.41315680136225 414.0 L92.30832939980857 414.0 L91.2035019982549 414.0 L90.09867459670124 414.0 L88.99384719514757 414.0 L87.88901979359395 414.0 L86.78419239204027 414.0 L85.67936499048662 414.0 L84.57453758893294 414.0 L83.46971018737926 414.0 L82.36488278582559 414.0 L81.26005538427194 414.0 L80.15522798271826 414.0 L79.05040058116458 414.0 L77.94557317961093 414.0 L76.84074577805731 414.0 L75.73591837650363 414.0 L74.63109097494996 414.0 L73.5262635733963 414.0 L72.42143617184263 414.0 L71.31660877028895 414.0 L70.2117813687353 414.0 L69.10695396718165 414.0 L68.00212656562798 414.0 L66.89729916407433 414.0 L65.79247176252065 414.0 L64.687644360967 414.0 L63.58281695941332 414.0 L62.477989557859644 414.0 L61.37316215630602 414.0 L60.268334754752345 414.0 L59.16350735319867 414.0 L58.05867995164502 414.0 L56.95385255009137 414.0 L55.84902514853769 414.0 L54.744197746984014 414.0 L53.639370345430336 414.0 L52.534542943876716 414.0 L51.42971554232304 414.0 L50.32488814076936 414.0 L49.22006073921571 414.0 L48.11523333766206 414.0 L47.010405936108384 414.0 L45.90557853455471 414.0 L44.80075113300106 414.0 L43.69592373144741 414.0 L42.59109632989373 414.0 L41.48626892834005 414.0 L40.3814415267864 414.0 L39.276614125232754 414.0 L38.17178672367908 414.0 L37.0669593221254 414.0 L35.96213192057175 414.0 L34.8573045190181 414.0 L33.75247711746442 414.0 L32.647649715910774 414.0 L31.542822314357096 414.0 L30.437994912803447 414.0 L29.33316751124977 414.0 L28.22834010969612 414.0 Z" fill="rgb(187,187,187)" stroke-width="1.0" fill-opacity="0.10196078431372549">
          </path>
        </g>
        <g>
          <path d="M28.22834010969612 409.81124883745065 L28.22834010969612 409.81124883745065 L29.33316751124977 409.8444721126105 L30.437994912803447 409.94308789026564 L31.542822314357096 410.10396746786114 L32.647649715910774 410.3220067499121 L33.75247711746442 410.5902881814889 L34.8573045190181 410.90030021585557 L35.96213192057175 411.24220735338844 L37.0669593221254 411.60256262155417 L38.17178672367908 411.90347837797384 L39.276614125232754 412.07328261722375 L40.3814415267864 412.1048746005584 L41.48626892834005 411.9972520348222 L42.59109632989373 411.7538293736087 L43.69592373144741 411.35644165321145 L44.80075113300106 410.73079951391423 L45.90557853455471 409.8766438873885 L47.010405936108384 408.8210738743526 L48.11523333766206 407.60253254197653 L49.22006073921571 406.3086146398562 L50.32488814076936 404.99292886293597 L51.42971554232304 403.69176603513785 L52.534542943876716 402.3972091212927 L53.639370345430336 401.13853176333765 L54.744197746984014 399.9556669938909 L55.84902514853769 398.8861426012473 L56.95385255009137 397.93799962900005 L58.05867995164502 397.10122310261505 L59.16350735319867 396.40190102199904 L60.268334754752345 395.86222020991414 L61.37316215630602 395.49930268046205 L62.477989557859644 395.32466242287103 L63.58281695941332 395.343840106526 L64.687644360967 395.55622729665845 L65.79247176252065 395.95508575766127 L66.89729916407433 396.5277612316085 L68.00212656562798 397.25165462121845 L69.10695396718165 398.055211506386 L70.2117813687353 398.8978133756439 L71.31660877028895 399.70791810115315 L72.42143617184263 400.41998188153184 L73.5262635733963 400.96657672250967 L74.63109097494996 401.3286534284144 L75.73591837650363 401.4948106531421 L76.84074577805731 401.50549400156325 L77.94557317961093 401.36589708501606 L79.05040058116458 400.97112170023547 L80.15522798271826 400.2604974522488 L81.26005538427194 399.2548631711709 L82.36488278582559 397.99897221837523 L83.46971018737926 396.56692751812506 L84.57453758893294 394.95855853380823 L85.67936499048662 393.22338981940675 L86.78419239204027 391.4164716611851 L87.88901979359395 389.5951306816446 L88.99384719514757 387.79836436927894 L90.09867459670124 385.9899690048911 L91.2035019982549 384.2481939147025 L92.30832939980857 382.6051894381212 L93.41315680136225 381.0761588433644 L94.5179842029159 379.6384704906694 L95.62281160446952 378.30903213349654 L96.7276390060232 377.17769233213045 L97.83246640757687 376.27722526186244 L98.93729380913052 375.5835024680099 L100.0421212106842 375.02855631923654 L101.14694861223788 374.4271529725396 L102.25177601379156 373.63460547402 L103.3566034153452 372.6194512463927 L104.46143081689888 371.2880829762559 L105.56625821845256 369.65063719394806 L106.67108562000624 367.75357845731895 L107.77591302155986 365.6486549775576 L108.88074042311348 363.41657153013807 L109.98556782466716 361.15512673705376 L111.09039522622083 358.8566829238869 L112.19522262777451 356.4858091846021 L113.30005002932819 353.98020090577603 L114.40487743088181 351.3097418913826 L115.50970483243549 348.50074153043863 L116.61453223398917 345.6309403365133 L117.71935963554279 342.82039442399457 L118.82418703709646 340.1884431815501 L119.92901443865014 337.7364524919633 L121.03384184020382 335.4123393721782 L122.1386692417575 333.12619295761857 L123.24349664331118 330.9385226591721 L124.34832404486485 328.90540212514486 L125.45315144641842 326.99057830591613 L126.5579788479721 325.1031842553241 L127.66280624952577 323.25269508925834 L128.76763365107945 321.4973749283464 L129.87246105263313 319.7925970889697 L130.9772884541868 318.08831843230325 L132.08211585574043 316.41317900898173 L133.1869432572941 314.80971404172135 L134.29177065884772 313.3055723895258 L135.3965980604014 311.88077329058535 L136.50142546195508 310.51450046075047 L137.60625286350876 309.2095903372667 L138.71108026506244 308.02830391790184 L139.8159076666161 307.12638447476354 L140.92073506816973 306.59437406593577 L142.0255624697234 306.3438591441973 L143.1303898712771 306.4279048275992 L144.23521727283077 306.7344623723477 L145.3400446743844 307.1219414190897 L146.44487207593806 307.46357374625745 L147.54969947749174 307.58037509684635 L148.65452687904542 307.29467532153484 L149.75935428059904 306.502426693177 L150.86418168215266 305.28481979731407 L151.96900908370634 303.67777796689114 L153.07383648526002 301.6578337395019 L154.1786638868137 299.2348487206872 L155.28349128836737 296.3944961312484 L156.38831868992105 293.05456435661324 L157.49314609147467 289.1825007552219 L158.59797349302835 284.9073293292279 L159.70280089458203 280.38884344048074 L160.8076282961357 275.8006479179176 L161.91245569768938 271.20845922074284 L163.017283099243 266.56100321919973 L164.12211050079668 261.91301411062045 L165.22693790235036 257.31415724766026 L166.33176530390398 252.83400089143834 L167.4365927054576 248.57718963618092 L168.54142010701128 244.7043612647887 L169.64624750856495 241.30688104164523 L170.75107491011863 238.3037418486914 L171.8559023116723 235.63214464919696 L172.960729713226 233.27582317861422 L174.0655571147796 231.16355861323478 L175.17038451633329 229.12659656389383 L176.27521191788696 227.13303223889176 L177.38003931944064 225.25384529820064 L178.48486672099432 223.40987466948724 L179.589694122548 221.46300826077416 L180.69452152410167 219.4657837275675 L181.7993489256553 217.28460610466277 L182.90417632720892 214.94585054702299 L184.0090037287626 212.38797570491118 L185.11383113031627 209.53839905142874 L186.2186585318699 206.50847918794983 L187.32348593342357 203.2703342075143 L188.42831333497725 199.85162570079606 L189.53314073653092 196.13744432216464 L190.63796813808455 192.228738416199 L191.74279553963822 188.2063037587054 L192.8476229411919 184.0084218920034 L193.95245034274558 179.64291166733025 L195.05727774429926 175.23752243408597 L196.16210514585293 170.88777462969261 L197.2669325474066 166.34525726563228 L198.37175994896023 161.55582419497003 L199.47658735051385 156.54239332183357 L200.58141475206753 151.32019729835343 L201.6862421536212 146.0501369409588 L202.7910695551749 140.96315402752543 L203.8958969567285 136.34026047791457 L205.00072435828218 132.49695896623928 L206.10555175983586 129.6067236040072 L207.21037916138948 127.7162212131243 L208.31520656294316 126.6058281806092 L209.42003396449684 126.30983223915052 L210.52486136605052 126.74204127695663 L211.6296887676042 127.62969355636972 L212.73451616915787 128.63916977134278 L213.83934357071155 129.79036152303098 L214.94417097226517 130.97424033737678 L216.04899837381885 131.86524374421543 L217.15382577537252 132.333745218228 L218.25865317692615 132.54205212975933 L219.36348057847982 132.6222787738971 L220.4683079800335 132.60222033311692 L221.57313538158718 132.36621043405205 L222.6779627831408 131.78934658405456 L223.78279018469442 130.7838657472309 L224.8876175862481 129.01403157381907 L225.99244498780178 126.48231870885559 L227.09727238935545 123.22589417235747 L228.20209979090913 119.30220058846578 L229.3069271924628 114.7170348432515 L230.4117545940165 109.66419430184447 L231.5165819955701 104.4131870195032 L232.62140939712378 99.12425829182007 L233.72623679867746 93.97602011310244 L234.83106420023114 89.15176968816661 L235.93589160178476 85.06308940832946 L237.04071900333844 81.84012178852043 L238.14554640489212 79.49810531779184 L239.2503738064458 78.06209370966957 L240.35520120799941 77.64426336369257 L241.46002860955304 78.2030889598737 L242.5648560111067 79.49611104570499 L243.6696834126604 81.08246330080726 L244.77451081421407 82.58047514538998 L245.87933821576775 83.81573161403008 L246.98416561732142 84.76905896841117 L248.08899301887504 85.27908421246747 L249.19382042042872 85.16116063229532 L250.2986478219824 84.40875395402043 L251.40347522353608 83.28973074970168 L252.5083026250897 81.92972465858861 L253.61313002664338 80.33217926023434 L254.71795742819705 78.65951207145292 L255.82278482975067 76.84082350243926 L256.92761223130435 74.90293327126778 L258.03243963285803 72.67233029626664 L259.1372670344117 69.92663988285523 L260.2420944359654 66.65189680562526 L261.346921837519 62.78642321580418 L262.4517492390727 58.322539408829925 L263.55657664062636 53.631270508964406 L264.66140404218 48.812268935066186 L265.76623144373366 43.93788294710714 L266.87105884528734 39.306300963509386 L267.975886246841 35.10997831292792 L269.0807136483947 31.360393859516023 L270.1855410499483 28.013479557139476 L271.290368451502 25.210974834664853 L272.3951958530556 22.90473295402313 L273.5000232546093 21.231824491195766 L274.60485065616297 20.1948720641696 L275.70967805771664 19.75313106700213 L276.8145054592703 19.714285714285666 L277.919332860824 20.249445872780825 L279.0241602623777 21.241347657900747 L280.1289876639313 22.361365466424786 L281.2338150654849 23.408429998828353 L282.3386424670386 24.323704223080995 L283.4434698685923 25.03184183192178 L284.54829727014595 25.37777321289809 L285.65312467169963 25.330399440830377 L286.7579520732533 25.0876170089399 L287.862779474807 24.943362870679323 L288.96760687636055 25.11082441146459 L290.0724342779142 25.518296984729943 L291.1772616794679 26.07096950617455 L292.2820890810216 26.829190113228094 L293.38691648257526 27.772750057113342 L294.49174388412894 28.79600237561334 L295.5965712856826 29.892232342502666 L296.70139868723624 31.165592434311122 L297.80622608878986 32.73074986361593 L298.91105349034353 34.59505961978374 L300.0158808918972 37.075345028745915 L301.1207082934509 40.46969682994683 L302.22553569500457 44.77573705997332 L303.33036309655824 49.92323442509701 L304.4351904981119 55.72639809112695 L305.54001789966554 61.937625430294645 L306.6448453012192 68.45941600394485 L307.7496727027729 75.30525907080266 L308.8545001043266 82.45395158306229 L309.95932750588025 89.59841642943337 L311.06415490743393 96.4197699729944 L312.16898230898755 102.6593433562573 L313.27380971054123 108.00229630122254 L314.3786371120949 112.29680500989917 L315.4834645136486 115.66297430468751 L316.58829191520215 117.99862107602036 L317.6931193167558 119.11547864985278 L318.7979467183095 119.18245687485677 L319.9027741198632 118.29789408697172 L321.00760152141686 116.61186050804758 L322.1124289229705 114.41821176455227 L323.21725632452416 112.08908172670664 L324.32208372607784 109.87996749853488 L325.4269111276314 107.98292287360857 L326.5317385291851 106.4381262137307 L327.63656593073875 105.23825319884321 L328.74139333229243 104.59152313389859 L329.8462207338461 104.68129784771111 L330.95104813539973 105.45859388790137 L332.0558755369534 106.82400739430807 L333.1607029385071 108.8677419847636 L334.26553034006076 111.6083548910047 L335.37035774161444 114.8890101091792 L336.4751851431681 118.71639402842311 L337.5800125447218 123.18430844851667 L338.6848399462754 128.0834554750831 L339.7896673478291 132.99571049139968 L340.8944947493828 137.5948123887256 L341.99932215093645 141.70386667598058 L343.1041495524901 145.3549063081091 L344.2089769540438 148.67871472446217 L345.3138043555974 151.59706019772307 L346.4186317571511 153.92502251108579 L347.5234591587048 155.52354304766897 L348.62828656025846 156.56396141275002 L349.73311396181214 157.4355321963123 L350.8379413633658 158.24539498748223 L351.9427687649195 159.0396993756032 L353.04759616647306 159.87169637047677 L354.1524235680267 160.75570022477186 L355.25725096958035 161.64085383864887 L356.36207837113403 162.75149531535695 L357.4669057726877 164.18606462404114 L358.5717331742414 166.0992441419616 L359.67656057579507 168.62236650866603 L360.78138797734874 171.6038728876015 L361.8862153789023 174.82472747448475 L362.9910427804559 178.03822922935083 L364.09587018200966 180.9879441898776 L365.2006975835633 183.4828941625933 L366.305524985117 185.57251789340913 L367.41035238667064 187.29211053534198 L368.51517978822426 188.49074073965846 L369.620007189778 189.1383180284329 L370.7248345913316 189.20038534842158 L371.82966199288535 188.69510315141397 L372.93448939443897 187.62768446690455 L374.0393167959927 186.1061923823802 L375.1441441975463 184.28290181678528 L376.24897159909995 182.30753381701714 L377.3537990006537 180.32129198335363 L378.4586264022073 178.5300553440343 L379.56345380376104 177.17118944931093 L380.66828120531466 176.40610478046233 L381.7731086068683 176.44102659627143 L382.877936008422 177.20613190742364 L383.98276340997563 178.66569982945623 L385.08759081152937 180.69821515464116 L386.192418213083 183.26636462200835 L387.2972456146367 186.14870145285255 L388.40207301619034 189.18685322267828 L389.50690041774396 192.33308705483938 L390.6117278192976 195.66589354608456 L391.7165552208512 199.27028185337065 L392.82138262240494 203.24457308541395 L393.92621002395856 207.70304474568644 L395.0310374255123 212.6006171445457 L396.1358648270659 217.82268062239606 L397.24069222861965 223.26227230597877 L398.34551963017316 228.79018125820306 L399.4503470317269 234.4525838408504 L400.5551744332805 240.1801431097934 L401.66000183483413 245.9135291166246 L402.76482923638787 251.6844938068554 L403.8696566379415 257.4098132119061 L404.9744840394952 262.9586170922526 L406.07931144104884 268.1466979772936 L407.1841388426026 272.96035341343384 L408.2889662441562 277.35054353826104 L409.3937936457098 281.41801464253774 L410.49862104726355 285.28947623526903 L411.6034484488172 289.0530018851841 L412.7082758503709 292.71402953928384 L413.81310325192453 296.0996627676084 L414.91793065347815 299.0519476373174 L416.0227580550319 301.60180931940073 L417.1275854565855 303.86944669791677 L418.23241285813924 305.9935569850897 L419.33724025969286 308.08390090819034 L420.4420676612466 310.08875423720343 L421.5468950628002 312.071955949799 L422.65172246435384 314.15666439462797 L423.7565498659076 316.45014080677527 L424.8613772674612 318.9771524155666 L425.9662046690148 321.9145843525474 L427.07103207056844 325.28534743680524 L428.17585947212217 329.0382914048483 L429.2806868736758 332.9749901809567 L430.3855142752295 336.9982338156375 L431.49034167678315 340.96414510410796 L432.59516907833677 344.70024006947085 L433.6999964798905 348.18274729547545 L434.804823881444 351.3644500224388 L435.90965128299774 354.18939223808746 L437.01447868455136 356.6700251466989 L438.1193060861051 358.78222586111235 L439.2241334876587 360.52491427422535 L440.32896088921245 361.91368730572395 L441.4337882907661 362.977111169531 L442.5386156923197 363.81790475753223 L443.64344309387343 364.51724251070465 L444.74827049542705 365.1592965771147 L445.8530978969808 365.80289006285494 L446.9579252985344 366.5333253013834 L448.062752700088 367.36114227675256 L449.16758010164176 368.27082688530453 L450.2724075031954 369.2124553224859 L451.3772349047491 370.1189153109063 L452.48206230630274 370.96126082196827 L453.58688970785647 371.7623293858326 L454.6917171094101 372.50806060876107 L455.7965445109637 373.16264592830765 L456.90137191251745 373.6827100113754 L458.00619931407107 374.08540482738323 L459.1110267156248 374.41745428197913 L460.2158541171784 374.65584189727474 L461.32068151873216 374.7335540148142 L462.42550892028567 374.6631553606082 L463.5303363218394 374.5084250771065 L464.635163723393 374.27765653188976 L465.73999112494664 373.93116625802156 L466.8448185265004 373.4039756812405 L467.949645928054 372.7638934620016 L469.05447332960773 372.10057050611334 L470.15930073116135 371.45696621987435 L471.264128132715 370.8986388654352 L472.3689555342686 370.4223547808938 L473.4737829358223 370.00506704222505 L474.57861033737595 369.7076293676223 L475.68343773892957 369.5529352487289 L476.7882651404833 369.54589254001326 L477.8930925420369 369.7294614977289 L478.99791994359066 370.20297778165934 L480.1027473451443 370.96379708967305 L481.2075747466979 371.9732750843171 L482.31240214825164 373.2481987030891 L483.41722954980526 374.7528767654304 L484.522056951359 376.43957157449324 L485.6268843529126 378.2568522324117 L486.73171175446635 380.1927182415602 L487.83653915601997 382.19278935504576 L488.9413665575736 384.1848645740793 L490.0461939591273 386.17885228788276 L491.15102136068094 388.1415349742345 L492.2558487622347 390.11017306101166 L493.3606761637883 392.0393856491811 L494.4655035653419 393.8726646425796 L495.57033096689554 395.6006225781465 L496.6751583684493 397.1954592206884 L497.7799857700029 398.6550146371777 L498.8848131715565 399.987059018189 L499.98964057311025 401.2353811846025 L501.09446797466387 402.4148776619617 L502.1992953762176 403.4968000391551 L503.3041227777712 404.4468230450514 L504.40895017932496 405.2606365125396 L505.5137775808786 406.00674248180144 L506.6186049824322 406.7207254386638 L507.72343238398594 407.3998658166594 L508.82825978553956 408.0227790591748 L509.9330871870933 408.60722544980575 L511.0379145886469 409.17546731925063 L512.1427419902005 409.75859395284067 L513.2475693917542 410.3433911251207 L514.3523967933078 410.91130545193073 L515.4572241948615 411.44431917741497 L516.5620515964151 411.92552180870473 L517.6668789979689 412.3396466213693 L518.7717063995225 412.6970594767187 L519.8765338010762 413.0226901662507 L520.9813612026298 413.2576921024694 L522.0861886041835 413.38335153685586 L523.1910160057372 413.39568177475763 L524.2958434072908 413.29429162474736 L525.4006708088446 413.08239780963487 L526.5054982103982 412.7711728198055 L527.6103256119519 412.419093122257 L528.7151530135055 412.05072302085165 L529.8199804150591 411.67774949413257 L530.9248078166128 411.31200556977274 L532.0296352181664 410.9650949077323 L533.1344626197201 410.64802366037856 L534.2392900212737 410.3708512892429 L535.3441174228275 410.1423714166683 L536.4489448243811 409.96983283770635 L537.5537722259348 409.858709543494 L538.6585996274885 409.8125270523893 L539.7634270290421 409.83275055871877 L540.8682544305958 409.9187384477485 L541.9730818321494 410.0677626516734 L543.0779092337032 410.2750952008047 L544.1827366352568 410.5341582240186 L545.2875640368105 410.83673263952187 L546.3923914383641 411.1732189149743 L547.4972188399178 411.5329416240419 L548.6020462414714 411.90448813696366 L549.706873643025 412.27607069977256 L550.8117010445787 412.63590041477596 L551.9165284461324 412.97256125732275 L553.0213558476861 413.2753722627307 L554.1261832492397 413.53472639256404 L555.2310106507933 413.73439729890396 L556.3358380523471 413.8182547754742 L557.4406654539007 413.7749852342963 L558.5454928554544 413.6071615148807 L559.650320257008 413.36352676558437 L560.7551476585618 413.073638334514 L561.8599750601154 412.7466932761016 L562.964802461669 412.3930643102499 L564.0696298632228 412.0239707354858 L565.1744572647764 411.65112248340307 L566.2792846663301 411.28634860718824 L567.3841120678836 410.94122199087326 L568.4889394694374 410.6266921858578 L569.593766870991 410.35273802339964 L570.6985942725447 410.128051024353 L571.8034216740983 409.9597596503566 L572.908249075652 409.85320314493043 L574.0130764772057 409.79920452539034 L575.1179038787593 409.7505418820002 L576.222731280313 409.7038052388014 L577.3275586818667 409.6604773712529 L578.4323860834204 409.62193290736184 L579.537213484974 409.58939471597864 L580.6420408865276 409.56389510983195 L581.7468682880814 409.54624309418233 L582.851695689635 409.53699870017067 L583.9565230911887 409.5364552171655 L585.0613504927422 409.5446298878101 L586.166177894296 409.56126336097884 L587.2710052958496 409.5858279199997 L588.3758326974032 409.6175442250915 L589.480660098957 409.6554060388434 L590.5854875005106 409.6982121502906 L591.6903149020643 409.7446044847575 L592.7951423036179 409.79311119038795 " fill="none" stroke-width="1.6500000000000001" stroke="rgb(187,187,187)" stroke-opacity="1.0">
          </path>
        </g>
      </g>
    </g>
    <g transform="translate(14.5 217.0 ) rotate(-90.0 ) ">
      <text class="axis-title-y" y="0.0" text-anchor="middle">
      density
      </text>
    </g>
    <g transform="translate(384.488258793343 461.5 ) ">
      <text class="axis-title-x" y="0.0" text-anchor="middle">
      x
      </text>
    </g>
    <path fill="rgb(0,0,0)" fill-opacity="0.0" stroke="rgb(187,187,187)" stroke-opacity="1.0" stroke-width="0.0" d="M0.0 0.0 L0.0 470.0 L705.0 470.0 L705.0 0.0 Z">
    </path>
  </g>
  <g id="xXxprefixXx2">
  </g>
</svg>