<svg xmlns="http://www.w3.org/2000/svg" xmlns:xlink="http://www.w3.org/1999/xlink" class="plt-container" width="705.0" height="470.0">
  <style type="text/css">
  .plt-container {
   font-family: Lucida Grande, sans-serif;
   user-select: none;
   -webkit-user-select: none;
   -moz-user-select: none;
   -ms-user-select: none;
}
text {
   text-rendering: optimizeLegibility;
}
#xXxprefixXx0 .plot-title {
   fill: #bbbbbb;
   font-family: Lucida Grande, sans-serif;
   font-size: 16.0px;
   font-weight: normal;
   font-style: normal;   
}
#xXxprefixXx0 .plot-subtitle {
   fill: #bbbbbb;
   font-family: Lucida Grande, sans-serif;
   font-size: 15.0px;
   font-weight: normal;
   font-style: normal;   
}
#xXxprefixXx0 .plot-caption {
   fill: #bbbbbb;
   font-family: Lucida Grande, sans-serif;
   font-size: 13.0px;
   font-weight: normal;
   font-style: normal;   
}
#xXxprefixXx0 .legend-title {
   fill: #bbbbbb;
   font-family: Lucida Grande, sans-serif;
   font-size: 15.0px;
   font-weight: normal;
   font-style: normal;   
}
#xXxprefixXx0 .legend-item {
   fill: #bbbbbb;
   font-family: Lucida Grande, sans-serif;
   font-size: 13.0px;
   font-weight: normal;
   font-style: normal;   
}
#xXxprefixXx0 .axis-title-x {
   fill: #bbbbbb;
   font-family: Lucida Grande, sans-serif;
   font-size: 15.0px;
   font-weight: normal;
   font-style: normal;   
}
#xXxprefixXx0 .axis-text-x {
   fill: #bbbbbb;
   font-family: Lucida Grande, sans-serif;
   font-size: 13.0px;
   font-weight: normal;
   font-style: normal;   
}
#xXxprefixXx2 .axis-tooltip-text-x {
   fill: #303030;
   font-family: Lucida Grande, sans-serif;
   font-size: 13.0px;
   font-weight: normal;
   font-style: normal;   
}
#xXxprefixXx0 .axis-title-y {
   fill: #bbbbbb;
   font-family: Lucida Grande, sans-serif;
   font-size: 15.0px;
   font-weight: normal;
   font-style: normal;   
}
#xXxprefixXx0 .axis-text-y {
   fill: #bbbbbb;
   font-family: Lucida Grande, sans-serif;
   font-size: 13.0px;
   font-weight: normal;
   font-style: normal;   
}
#xXxprefixXx2 .axis-tooltip-text-y {
   fill: #303030;
   font-family: Lucida Grande, sans-serif;
   font-size: 13.0px;
   font-weight: normal;
   font-style: normal;   
}
#xXxprefixXx0 .facet-strip-text-x {
   fill: #bbbbbb;
   font-family: Lucida Grande, sans-serif;
   font-size: 13.0px;
   font-weight: normal;
   font-style: normal;   
}
#xXxprefixXx0 .facet-strip-text-y {
   fill: #bbbbbb;
   font-family: Lucida Grande, sans-serif;
   font-size: 13.0px;
   font-weight: normal;
   font-style: normal;   
}
#xXxprefixXx2 .tooltip-text {
   fill: #bbbbbb;
   font-family: Lucida Grande, sans-serif;
   font-size: 13.0px;
   font-weight: normal;
   font-style: normal;   
}
#xXxprefixXx2 .tooltip-title {
   fill: #bbbbbb;
   font-family: Lucida Grande, sans-serif;
   font-size: 13.0px;
   font-weight: bold;
   font-style: normal;   
}
#xXxprefixXx2 .tooltip-label {
   fill: #bbbbbb;
   font-family: Lucida Grande, sans-serif;
   font-size: 13.0px;
   font-weight: bold;
   font-style: normal;   
}

  </style>
  <g id="xXxprefixXx0">
    <path fill-rule="evenodd" fill="rgb(25,25,28)" fill-opacity="1.0" d="M0.0 0.0 L0.0 470.0 L705.0 470.0 L705.0 0.0 Z">
    </path>
    <g transform="translate(23.0 10.0 ) ">
      <g transform="translate(21.961210910936405 414.0 ) ">
        <line x1="76.32252611856762" y1="-0.0" x2="76.32252611856762" y2="-414.0" stroke="rgb(71,71,71)" stroke-opacity="1.0" stroke-width="1.0">
        </line>
        <line x1="178.80325940969564" y1="-0.0" x2="178.80325940969564" y2="-414.0" stroke="rgb(71,71,71)" stroke-opacity="1.0" stroke-width="1.0">
        </line>
        <line x1="281.28399270082366" y1="-0.0" x2="281.28399270082366" y2="-414.0" stroke="rgb(71,71,71)" stroke-opacity="1.0" stroke-width="1.0">
        </line>
        <line x1="383.76472599195165" y1="-0.0" x2="383.76472599195165" y2="-414.0" stroke="rgb(71,71,71)" stroke-opacity="1.0" stroke-width="1.0">
        </line>
        <line x1="486.2454592830797" y1="-0.0" x2="486.2454592830797" y2="-414.0" stroke="rgb(71,71,71)" stroke-opacity="1.0" stroke-width="1.0">
        </line>
        <g transform="translate(76.32252611856762 0.0 ) ">
          <line stroke-width="1.0" stroke="rgb(187,187,187)" stroke-opacity="1.0" x2="0.0" y2="4.0">
          </line>
          <g transform="translate(0.0 7.0 ) ">
            <text class="axis-text-x" text-anchor="middle" dy="0.7em">
            -4
            </text>
          </g>
        </g>
        <g transform="translate(178.80325940969564 0.0 ) ">
          <line stroke-width="1.0" stroke="rgb(187,187,187)" stroke-opacity="1.0" x2="0.0" y2="4.0">
          </line>
          <g transform="translate(0.0 7.0 ) ">
            <text class="axis-text-x" text-anchor="middle" dy="0.7em">
            -2
            </text>
          </g>
        </g>
        <g transform="translate(281.28399270082366 0.0 ) ">
          <line stroke-width="1.0" stroke="rgb(187,187,187)" stroke-opacity="1.0" x2="0.0" y2="4.0">
          </line>
          <g transform="translate(0.0 7.0 ) ">
            <text class="axis-text-x" text-anchor="middle" dy="0.7em">
            0
            </text>
          </g>
        </g>
        <g transform="translate(383.76472599195165 0.0 ) ">
          <line stroke-width="1.0" stroke="rgb(187,187,187)" stroke-opacity="1.0" x2="0.0" y2="4.0">
          </line>
          <g transform="translate(0.0 7.0 ) ">
            <text class="axis-text-x" text-anchor="middle" dy="0.7em">
            2
            </text>
          </g>
        </g>
        <g transform="translate(486.2454592830797 0.0 ) ">
          <line stroke-width="1.0" stroke="rgb(187,187,187)" stroke-opacity="1.0" x2="0.0" y2="4.0">
          </line>
          <g transform="translate(0.0 7.0 ) ">
            <text class="axis-text-x" text-anchor="middle" dy="0.7em">
            4
            </text>
          </g>
        </g>
        <line x1="0.0" y1="0.0" x2="563.0803890681029" y2="0.0" stroke-width="1.0" stroke="rgb(187,187,187)" stroke-opacity="1.0">
        </line>
      </g>
      <g transform="translate(21.961210910936405 0.0 ) ">
        <line x1="0.0" y1="400.8074315310239" x2="563.0803890681029" y2="400.8074315310239" stroke="rgb(71,71,71)" stroke-opacity="1.0" stroke-width="1.0">
        </line>
        <line x1="0.0" y1="321.0823665085142" x2="563.0803890681029" y2="321.0823665085142" stroke="rgb(71,71,71)" stroke-opacity="1.0" stroke-width="1.0">
        </line>
        <line x1="0.0" y1="241.35730148600453" x2="563.0803890681029" y2="241.35730148600453" stroke="rgb(71,71,71)" stroke-opacity="1.0" stroke-width="1.0">
        </line>
        <line x1="0.0" y1="161.63223646349488" x2="563.0803890681029" y2="161.63223646349488" stroke="rgb(71,71,71)" stroke-opacity="1.0" stroke-width="1.0">
        </line>
        <line x1="0.0" y1="81.9071714409852" x2="563.0803890681029" y2="81.9071714409852" stroke="rgb(71,71,71)" stroke-opacity="1.0" stroke-width="1.0">
        </line>
        <g transform="translate(0.0 400.8074315310239 ) ">
          <g transform="translate(-3.0 0.0 ) ">
            <text class="axis-text-y" text-anchor="end" dy="0.35em">
            -5
            </text>
          </g>
        </g>
        <g transform="translate(0.0 321.0823665085142 ) ">
          <g transform="translate(-3.0 0.0 ) ">
            <text class="axis-text-y" text-anchor="end" dy="0.35em">
            0
            </text>
          </g>
        </g>
        <g transform="translate(0.0 241.35730148600453 ) ">
          <g transform="translate(-3.0 0.0 ) ">
            <text class="axis-text-y" text-anchor="end" dy="0.35em">
            5
            </text>
          </g>
        </g>
        <g transform="translate(0.0 161.63223646349488 ) ">
          <g transform="translate(-3.0 0.0 ) ">
            <text class="axis-text-y" text-anchor="end" dy="0.35em">
            10
            </text>
          </g>
        </g>
        <g transform="translate(0.0 81.9071714409852 ) ">
          <g transform="translate(-3.0 0.0 ) ">
            <text class="axis-text-y" text-anchor="end" dy="0.35em">
            15
            </text>
          </g>
        </g>
        <g transform="translate(0.0 2.1821064184755414 ) ">
          <g transform="translate(-3.0 0.0 ) ">
            <text class="axis-text-y" text-anchor="end" dy="0.35em">
            20
            </text>
          </g>
        </g>
      </g>
      <g transform="translate(21.961210910936405 0.0 ) " clip-path="url(#xXxprefixXx1)" clip-bounds-jfx="[rect (0.0, 0.0), (563.0803890681029, 414.0)]">
        <defs>
          <clipPath id="xXxprefixXx1">
            <rect x="0.0" y="0.0" width="563.0803890681029" height="414.0">
            </rect>
          </clipPath>
        </defs>
        <g>
          <path d="M25.59456313945924 395.1818181818182 L25.59456313945924 395.1818181818182 L30.765181955511594 392.03931958195983 L35.935800771564004 388.91156059019613 L41.10641958761636 385.7995092899845 L46.27703840366871 382.7040601414151 L51.447657219721094 379.62590864412306 L56.61827603577345 376.5655754858924 L61.7888948518258 373.5233995565148 L66.95951366787821 370.499461559758 L72.13013248393057 367.493617716037 L77.30075129998292 364.5055161201127 L82.47137011603527 361.5346662709769 L87.64198893208766 358.5804867618882 L92.81260774814001 355.64231368532387 L97.98322656419239 352.7194564527937 L103.15384538024477 349.811254406458 L108.32446419629713 346.917072704996 L113.49508301234951 344.0362759898192 L118.66570182840186 341.1681184714098 L123.83632064445422 338.3117003388074 L129.0069394605066 335.4658452204625 L134.17755827655898 332.6289156673954 L139.34817709261134 329.7988177116428 L144.51879590866372 326.97376342758486 L149.68941472471607 324.1553678816931 L154.86003354076843 321.6052126850311 L160.0306523568208 319.589787022635 L165.2012711728732 317.5366264841716 L170.37188998892555 315.49205726686546 L175.5425088049779 313.6831126719487 L180.7131276210303 311.7175712279954 L185.88374643708266 309.75444938915433 L191.05436525313502 307.874171963861 L196.2249840691874 306.17228760616956 L201.39560288523975 304.4990350425117 L206.56622170129214 302.8739648004643 L211.7368405173445 301.91106358902454 L216.90745933339684 300.35568218230054 L222.07807814944923 298.8207336344561 L227.2486969655016 297.7730718287956 L232.41931578155396 296.5744762218695 L237.58993459760632 295.63310336958176 L242.76055341365873 294.6402067112578 L247.93117222971108 293.70475728717537 L253.10179104576343 292.82215197750355 L258.27240986181585 292.2004094436757 L263.44302867786814 291.63899724268504 L268.61364749392055 291.17971124638217 L273.7842663099729 290.7137948144 L278.95488512602526 290.41738139947194 L284.1255039420776 290.23369551220406 L289.29612275813 290.17703500619166 L294.4667415741824 290.1846753750698 L299.63736039023473 290.03376377041633 L304.80797920628714 290.035587148342 L309.9785980223395 290.16851574121614 L315.14921683839185 290.5310733338732 L320.31983565444426 290.6701812664241 L325.4904544704966 290.98007941475265 L330.6610732865489 291.2476182855705 L335.8316921026013 291.4704819297319 L341.0023109186537 291.6721133837753 L346.17292973470603 291.76927399648474 L351.34354855075844 292.37170443043755 L356.5141673668108 292.92901844086936 L361.68478618286315 293.5559368998423 L366.85540499891556 294.17373347298627 L372.0260238149679 294.72836591383015 L377.19664263102027 295.3490282098632 L382.3672614470727 295.97370102886714 L387.537880263125 296.59606892077664 L392.7084990791774 297.2889458010409 L397.8791178952298 298.0009431914255 L403.0497367112821 298.6204538411894 L408.22035552733445 299.3126897421535 L413.39097434338686 300.08845471477747 L418.5615931594392 300.8059469021368 L423.73221197549157 301.5880369684119 L428.902830791544 302.3777853014091 L434.07344960759633 303.16931223620657 L439.2440684236487 303.9834712386383 L444.41468723970104 304.7995820870806 L449.5853060557534 305.61762953599634 L454.75592487180575 306.4375629521665 L459.92654368785816 307.25930736144636 L465.09716250391045 308.08278691733614 L470.26778131996286 308.9079274362831 L475.4384001360153 309.73465016796445 L480.6090189520676 310.56286332553424 L485.77963776812 311.39247010139644 L490.9502565841724 312.22336785897505 L496.1208754002247 313.0554519064382 L501.2914942162771 313.8886152118395 L506.4621130323295 314.7227436416742 L511.6327318483818 315.55771912773 L516.8033506644342 316.3934328357872 L521.9739694804866 317.22977731007836 L527.1445882965389 318.0666594803027 L532.3152071125913 318.90400153712574 L537.4858259286436 319.74173443392175 " fill="none" stroke-width="1.6500000000000001" stroke="rgb(228,26,28)" stroke-opacity="1.0">
          </path>
        </g>
        <g>
          <path d="M25.59456313945924 18.818181818181813 L25.59456313945924 18.818181818181813 L30.765181955511594 28.378038580319867 L35.935800771564004 37.890228501171805 L41.10641958761636 47.351544533791014 L46.27703840366871 56.75866920811802 L51.447657219721094 66.1084668464047 L56.61827603577345 75.3981708162409 L61.7888948518258 84.62569236771321 L66.95951366787821 93.79002175395192 L72.13013248393057 102.89110304895317 L77.30075129998292 111.9298645598999 L82.47137011603527 120.90785858555839 L87.64198893208766 129.82696166785564 L92.81260774814001 138.68928067533275 L97.98322656419239 147.49712408165348 L103.15384538024477 156.2528836361868 L108.32446419629713 164.95894009885762 L113.49508301234951 173.61768318832915 L118.66570182840186 182.23183116742914 L123.83632064445422 190.80448010737706 L129.0069394605066 199.3394793770089 L134.17755827655898 207.84215944737056 L139.34817709261134 216.31983155978088 L144.51879590866372 224.7809686059419 L149.68941472471607 233.22954021578462 L154.86003354076843 240.828095594994 L160.0306523568208 246.68315827842474 L165.2012711728732 252.66260692165883 L170.37188998892555 258.62372271942354 L175.5425088049779 263.81528719468014 L180.7131276210303 269.5349374757164 L185.88374643708266 275.2599287526759 L191.05436525313502 280.72605967173496 L196.2249840691874 285.6076463683919 L201.39560288523975 290.4026728734311 L206.56622170129214 295.04631630465246 L211.7368405173445 297.49767700604417 L216.90745933339684 301.93330764962775 L222.07807814944923 306.28361781834394 L227.2486969655016 309.0519437714828 L232.41931578155396 312.3090793549163 L237.58993459760632 314.7439564573025 L242.76055341365873 317.326841802207 L247.93117222971108 319.72674214755426 L253.10179104576343 321.9589029068986 L258.27240986181585 323.4170744609137 L263.44302867786814 324.70724915394106 L268.61364749392055 325.70911207436006 L273.7842663099729 326.72363902816073 L278.95488512602526 327.27423159016706 L284.1255039420776 327.53889933125873 L289.29612275813 327.50360524017526 L294.4667415741824 327.3341084795222 L299.63736039023473 327.50033309224517 L304.80797920628714 327.31858008501575 L309.9785980223395 326.8749254337781 L315.14921683839185 326.0595708530169 L320.31983565444426 325.6284692457843 L325.4904544704966 324.93968965005524 L330.6610732865489 324.33350860852295 L335.8316921026013 323.7841376468564 L341.0023109186537 323.2381877786467 L346.17292973470603 322.75774063918664 L351.34354855075844 321.76120021924874 L356.5141673668108 320.85079544726875 L361.68478618286315 319.9151836314481 L366.85540499891556 319.0142380055818 L372.0260238149679 318.17339001875814 L377.19664263102027 317.35262812556255 L382.3672614470727 316.5503170214942 L387.537880263125 315.7604737413816 L392.7084990791774 315.02697088322157 L397.8791178952298 314.3664486209511 L403.0497367112821 313.6672524262735 L408.22035552733445 313.0162927318647 L413.39097434338686 312.55858175723677 L418.5615931594392 311.9916909603465 L423.73221197549157 311.6851839687019 L428.902830791544 311.44982434850834 L434.07344960759633 311.3042218384347 L439.2440684236487 311.23398152731966 L444.41468723970104 311.18734708810445 L449.5853060557534 311.1593769947528 L454.75592487180575 311.14688815746035 L459.92654368785816 311.1480271845554 L465.09716250391045 311.1619104961562 L470.26778131996286 311.1882660783807 L475.4384001360153 311.2272521050958 L480.6090189520676 311.2793802282693 L485.77963776812 311.3453458246801 L490.9502565841724 311.42597972554614 L496.1208754002247 311.52221337533524 L501.2914942162771 311.63500517703994 L506.4621130323295 311.76527759472833 L511.6327318483818 311.91385939874806 L516.8033506644342 312.0814955555022 L521.9739694804866 312.2687836269124 L527.1445882965389 312.47616407714855 L532.3152071125913 312.7038625485721 L537.4858259286436 312.95163558447354 " fill="none" stroke-width="1.6500000000000001" stroke="rgb(55,126,184)" stroke-opacity="1.0">
          </path>
        </g>
      </g>
    </g>
    <g transform="translate(14.5 217.0 ) rotate(-90.0 ) ">
      <text class="axis-title-y" y="0.0" text-anchor="middle">
      value
      </text>
    </g>
    <g transform="translate(326.5014054449879 461.5 ) ">
      <text class="axis-title-x" y="0.0" text-anchor="middle">
      time
      </text>
    </g>
    <g transform="translate(618.0415999790393 172.75 ) ">
      <rect x="5.0" y="5.0" height="78.5" width="76.95840002096065" stroke="rgb(187,187,187)" stroke-opacity="1.0" stroke-width="0.0" fill="rgb(25,25,28)" fill-opacity="1.0">
      </rect>
      <g transform="translate(10.0 10.0 ) ">
        <g transform="translate(0.0 10.5 ) ">
          <text class="legend-title" y="0.0">
          category
          </text>
        </g>
        <g transform="translate(0.0 22.5 ) ">
          <g transform="">
            <g>
              <rect x="0.0" y="0.0" height="23.0" width="23.0" stroke-width="0.0" fill="rgb(25,25,28)" fill-opacity="1.0">
              </rect>
              <g transform="translate(1.0 1.0 ) ">
                <g>
                  <line x1="0.0" y1="10.5" x2="21.0" y2="10.5" stroke="rgb(228,26,28)" stroke-opacity="1.0" fill="rgb(48,48,48)" fill-opacity="1.0" stroke-width="1.6500000000000001">
                  </line>
                </g>
              </g>
              <rect x="0.0" y="0.0" height="23.0" width="23.0" stroke="rgb(25,25,28)" stroke-opacity="1.0" stroke-width="1.0" fill-opacity="0.0">
              </rect>
            </g>
            <g transform="translate(26.9903027277341 16.05 ) ">
              <text class="legend-item" y="0.0">
              A
              </text>
            </g>
          </g>
          <g transform="translate(0.0 23.0 ) ">
            <g>
              <rect x="0.0" y="0.0" height="23.0" width="23.0" stroke-width="0.0" fill="rgb(25,25,28)" fill-opacity="1.0">
              </rect>
              <g transform="translate(1.0 1.0 ) ">
                <g>
                  <line x1="0.0" y1="10.5" x2="21.0" y2="10.5" stroke="rgb(55,126,184)" stroke-opacity="1.0" fill="rgb(48,48,48)" fill-opacity="1.0" stroke-width="1.6500000000000001">
                  </line>
                </g>
              </g>
              <rect x="0.0" y="0.0" height="23.0" width="23.0" stroke="rgb(25,25,28)" stroke-opacity="1.0" stroke-width="1.0" fill-opacity="0.0">
              </rect>
            </g>
            <g transform="translate(26.9903027277341 16.05 ) ">
              <text class="legend-item" y="0.0">
              B
              </text>
            </g>
          </g>
        </g>
      </g>
    </g>
    <path fill="rgb(0,0,0)" fill-opacity="0.0" stroke="rgb(187,187,187)" stroke-opacity="1.0" stroke-width="0.0" d="M0.0 0.0 L0.0 470.0 L705.0 470.0 L705.0 0.0 Z">
    </path>
  </g>
  <g id="xXxprefixXx2">
  </g>
</svg>