<svg xmlns="http://www.w3.org/2000/svg" xmlns:xlink="http://www.w3.org/1999/xlink" class="plt-container" width="705.0" height="411.0">
  <style type="text/css">
  .plt-container {
   font-family: Lucida Grande, sans-serif;
   user-select: none;
   -webkit-user-select: none;
   -moz-user-select: none;
   -ms-user-select: none;
}
text {
   text-rendering: optimizeLegibility;
}
#xXxprefixXx0 .plot-title {
   fill: #474747;
   font-family: Lucida Grande, sans-serif;
   font-size: 16.0px;
   font-weight: normal;
   font-style: normal;   
}
#xXxprefixXx0 .plot-subtitle {
   fill: #474747;
   font-family: Lucida Grande, sans-serif;
   font-size: 15.0px;
   font-weight: normal;
   font-style: normal;   
}
#xXxprefixXx0 .plot-caption {
   fill: #474747;
   font-family: Lucida Grande, sans-serif;
   font-size: 13.0px;
   font-weight: normal;
   font-style: normal;   
}
#xXxprefixXx0 .legend-title {
   fill: #474747;
   font-family: Lucida Grande, sans-serif;
   font-size: 15.0px;
   font-weight: normal;
   font-style: normal;   
}
#xXxprefixXx0 .legend-item {
   fill: #474747;
   font-family: Lucida Grande, sans-serif;
   font-size: 13.0px;
   font-weight: normal;
   font-style: normal;   
}
#xXxprefixXx0 .axis-title-x {
   fill: #474747;
   font-family: Lucida Grande, sans-serif;
   font-size: 15.0px;
   font-weight: normal;
   font-style: normal;   
}
#xXxprefixXx0 .axis-text-x {
   fill: #474747;
   font-family: Lucida Grande, sans-serif;
   font-size: 13.0px;
   font-weight: normal;
   font-style: normal;   
}
#xXxprefixXx2 .axis-tooltip-text-x {
   fill: #ffffff;
   font-family: Lucida Grande, sans-serif;
   font-size: 13.0px;
   font-weight: normal;
   font-style: normal;   
}
#xXxprefixXx0 .axis-title-y {
   fill: #474747;
   font-family: Lucida Grande, sans-serif;
   font-size: 15.0px;
   font-weight: normal;
   font-style: normal;   
}
#xXxprefixXx0 .axis-text-y {
   fill: #474747;
   font-family: Lucida Grande, sans-serif;
   font-size: 13.0px;
   font-weight: normal;
   font-style: normal;   
}
#xXxprefixXx2 .axis-tooltip-text-y {
   fill: #ffffff;
   font-family: Lucida Grande, sans-serif;
   font-size: 13.0px;
   font-weight: normal;
   font-style: normal;   
}
#xXxprefixXx0 .facet-strip-text-x {
   fill: #474747;
   font-family: Lucida Grande, sans-serif;
   font-size: 13.0px;
   font-weight: normal;
   font-style: normal;   
}
#xXxprefixXx0 .facet-strip-text-y {
   fill: #474747;
   font-family: Lucida Grande, sans-serif;
   font-size: 13.0px;
   font-weight: normal;
   font-style: normal;   
}
#xXxprefixXx2 .tooltip-text {
   fill: #474747;
   font-family: Lucida Grande, sans-serif;
   font-size: 13.0px;
   font-weight: normal;
   font-style: normal;   
}
#xXxprefixXx2 .tooltip-title {
   fill: #474747;
   font-family: Lucida Grande, sans-serif;
   font-size: 13.0px;
   font-weight: bold;
   font-style: normal;   
}
#xXxprefixXx2 .tooltip-label {
   fill: #474747;
   font-family: Lucida Grande, sans-serif;
   font-size: 13.0px;
   font-weight: bold;
   font-style: normal;   
}

  </style>
  <g id="xXxprefixXx0">
    <path fill-rule="evenodd" fill="rgb(255,255,255)" fill-opacity="1.0" d="M0.0 0.0 L0.0 411.0 L705.0 411.0 L705.0 0.0 Z">
    </path>
    <g transform="translate(23.0 34.0 ) ">
      <g transform="translate(50.97651758668602 331.0 ) ">
        <line x1="35.930884980109425" y1="-0.0" x2="35.930884980109425" y2="-331.0" stroke="rgb(233,233,233)" stroke-opacity="1.0" stroke-width="1.0">
        </line>
        <line x1="115.33640834991255" y1="-0.0" x2="115.33640834991255" y2="-331.0" stroke="rgb(233,233,233)" stroke-opacity="1.0" stroke-width="1.0">
        </line>
        <line x1="194.74193171971564" y1="-0.0" x2="194.74193171971564" y2="-331.0" stroke="rgb(233,233,233)" stroke-opacity="1.0" stroke-width="1.0">
        </line>
        <line x1="274.14745508951876" y1="-0.0" x2="274.14745508951876" y2="-331.0" stroke="rgb(233,233,233)" stroke-opacity="1.0" stroke-width="1.0">
        </line>
        <line x1="353.5529784593219" y1="-0.0" x2="353.5529784593219" y2="-331.0" stroke="rgb(233,233,233)" stroke-opacity="1.0" stroke-width="1.0">
        </line>
        <line x1="432.958501829125" y1="-0.0" x2="432.958501829125" y2="-331.0" stroke="rgb(233,233,233)" stroke-opacity="1.0" stroke-width="1.0">
        </line>
        <line x1="512.3640251989281" y1="-0.0" x2="512.3640251989281" y2="-331.0" stroke="rgb(233,233,233)" stroke-opacity="1.0" stroke-width="1.0">
        </line>
        <g transform="translate(35.930884980109425 0.0 ) ">
          <line stroke-width="1.0" stroke="rgb(71,71,71)" stroke-opacity="1.0" x2="0.0" y2="4.0">
          </line>
          <g transform="translate(0.0 7.0 ) ">
            <text class="axis-text-x" text-anchor="middle" dy="0.7em">
            200
            </text>
          </g>
        </g>
        <g transform="translate(115.33640834991255 0.0 ) ">
          <line stroke-width="1.0" stroke="rgb(71,71,71)" stroke-opacity="1.0" x2="0.0" y2="4.0">
          </line>
          <g transform="translate(0.0 7.0 ) ">
            <text class="axis-text-x" text-anchor="middle" dy="0.7em">
            300
            </text>
          </g>
        </g>
        <g transform="translate(194.74193171971564 0.0 ) ">
          <line stroke-width="1.0" stroke="rgb(71,71,71)" stroke-opacity="1.0" x2="0.0" y2="4.0">
          </line>
          <g transform="translate(0.0 7.0 ) ">
            <text class="axis-text-x" text-anchor="middle" dy="0.7em">
            400
            </text>
          </g>
        </g>
        <g transform="translate(274.14745508951876 0.0 ) ">
          <line stroke-width="1.0" stroke="rgb(71,71,71)" stroke-opacity="1.0" x2="0.0" y2="4.0">
          </line>
          <g transform="translate(0.0 7.0 ) ">
            <text class="axis-text-x" text-anchor="middle" dy="0.7em">
            500
            </text>
          </g>
        </g>
        <g transform="translate(353.5529784593219 0.0 ) ">
          <line stroke-width="1.0" stroke="rgb(71,71,71)" stroke-opacity="1.0" x2="0.0" y2="4.0">
          </line>
          <g transform="translate(0.0 7.0 ) ">
            <text class="axis-text-x" text-anchor="middle" dy="0.7em">
            600
            </text>
          </g>
        </g>
        <g transform="translate(432.958501829125 0.0 ) ">
          <line stroke-width="1.0" stroke="rgb(71,71,71)" stroke-opacity="1.0" x2="0.0" y2="4.0">
          </line>
          <g transform="translate(0.0 7.0 ) ">
            <text class="axis-text-x" text-anchor="middle" dy="0.7em">
            700
            </text>
          </g>
        </g>
        <g transform="translate(512.3640251989281 0.0 ) ">
          <line stroke-width="1.0" stroke="rgb(71,71,71)" stroke-opacity="1.0" x2="0.0" y2="4.0">
          </line>
          <g transform="translate(0.0 7.0 ) ">
            <text class="axis-text-x" text-anchor="middle" dy="0.7em">
            800
            </text>
          </g>
        </g>
        <line x1="0.0" y1="0.0" x2="549.1275005825224" y2="0.0" stroke-width="1.0" stroke="rgb(71,71,71)" stroke-opacity="1.0">
        </line>
      </g>
      <g transform="translate(50.97651758668602 0.0 ) ">
        <line x1="0.0" y1="291.53173412005214" x2="549.1275005825224" y2="291.53173412005214" stroke="rgb(233,233,233)" stroke-opacity="1.0" stroke-width="1.0">
        </line>
        <line x1="0.0" y1="252.06346824010427" x2="549.1275005825224" y2="252.06346824010427" stroke="rgb(233,233,233)" stroke-opacity="1.0" stroke-width="1.0">
        </line>
        <line x1="0.0" y1="212.5952023601564" x2="549.1275005825224" y2="212.5952023601564" stroke="rgb(233,233,233)" stroke-opacity="1.0" stroke-width="1.0">
        </line>
        <line x1="0.0" y1="173.12693648020857" x2="549.1275005825224" y2="173.12693648020857" stroke="rgb(233,233,233)" stroke-opacity="1.0" stroke-width="1.0">
        </line>
        <line x1="0.0" y1="133.6586706002607" x2="549.1275005825224" y2="133.6586706002607" stroke="rgb(233,233,233)" stroke-opacity="1.0" stroke-width="1.0">
        </line>
        <line x1="0.0" y1="94.19040472031284" x2="549.1275005825224" y2="94.19040472031284" stroke="rgb(233,233,233)" stroke-opacity="1.0" stroke-width="1.0">
        </line>
        <line x1="0.0" y1="54.722138840365005" x2="549.1275005825224" y2="54.722138840365005" stroke="rgb(233,233,233)" stroke-opacity="1.0" stroke-width="1.0">
        </line>
        <line x1="0.0" y1="15.25387296041714" x2="549.1275005825224" y2="15.25387296041714" stroke="rgb(233,233,233)" stroke-opacity="1.0" stroke-width="1.0">
        </line>
        <g transform="translate(0.0 331.0 ) ">
          <g transform="translate(-3.0 0.0 ) ">
            <text class="axis-text-y" text-anchor="end" dy="0.35em">
            0.0000
            </text>
          </g>
        </g>
        <g transform="translate(0.0 291.53173412005214 ) ">
          <g transform="translate(-3.0 0.0 ) ">
            <text class="axis-text-y" text-anchor="end" dy="0.35em">
            0.0005
            </text>
          </g>
        </g>
        <g transform="translate(0.0 252.06346824010427 ) ">
          <g transform="translate(-3.0 0.0 ) ">
            <text class="axis-text-y" text-anchor="end" dy="0.35em">
            0.0010
            </text>
          </g>
        </g>
        <g transform="translate(0.0 212.5952023601564 ) ">
          <g transform="translate(-3.0 0.0 ) ">
            <text class="axis-text-y" text-anchor="end" dy="0.35em">
            0.0015
            </text>
          </g>
        </g>
        <g transform="translate(0.0 173.12693648020857 ) ">
          <g transform="translate(-3.0 0.0 ) ">
            <text class="axis-text-y" text-anchor="end" dy="0.35em">
            0.0020
            </text>
          </g>
        </g>
        <g transform="translate(0.0 133.6586706002607 ) ">
          <g transform="translate(-3.0 0.0 ) ">
            <text class="axis-text-y" text-anchor="end" dy="0.35em">
            0.0025
            </text>
          </g>
        </g>
        <g transform="translate(0.0 94.19040472031284 ) ">
          <g transform="translate(-3.0 0.0 ) ">
            <text class="axis-text-y" text-anchor="end" dy="0.35em">
            0.0030
            </text>
          </g>
        </g>
        <g transform="translate(0.0 54.722138840365005 ) ">
          <g transform="translate(-3.0 0.0 ) ">
            <text class="axis-text-y" text-anchor="end" dy="0.35em">
            0.0035
            </text>
          </g>
        </g>
        <g transform="translate(0.0 15.25387296041714 ) ">
          <g transform="translate(-3.0 0.0 ) ">
            <text class="axis-text-y" text-anchor="end" dy="0.35em">
            0.0040
            </text>
          </g>
        </g>
      </g>
      <g transform="translate(50.97651758668602 0.0 ) " clip-path="url(#xXxprefixXx1)" clip-bounds-jfx="[rect (0.0, 0.0), (549.1275005825224, 331.0)]">
        <defs>
          <clipPath id="xXxprefixXx1">
            <rect x="0.0" y="0.0" width="549.1275005825224" height="331.0">
            </rect>
          </clipPath>
        </defs>
        <g>
          <path d="M24.960340935569178 326.8213189267342 L24.960340935569178 326.8213189267342 L25.937262302910455 326.69964552287354 L26.914183670251703 326.5824458638305 L27.89110503759298 326.4699357412703 L28.868026404934227 326.36225924585045 L29.844947772275503 326.2594840593096 L30.82186913961675 326.1615975780868 L31.798790506958 326.06850393324237 L32.775711874299276 325.9800219572704 L33.752633241640524 325.8958841335098 L34.7295546089818 325.81573654863917 L35.70647597632305 325.73913985352647 L36.683397343664325 325.6655712228376 L37.66031871100557 325.5944272896003 L38.63724007834682 325.52502801765155 L39.6141614456881 325.4566214628075 L40.591082813029374 325.38838936286453 L41.56800418037062 325.3194534873227 L42.54492554771187 325.2488826700841 L43.521846915053146 325.17570044235936 L44.498768282394394 325.0988931785898 L45.47568964973564 325.0174186652928 L46.45261101707692 324.9302150012544 L47.429532384418195 324.8362097372784 L48.40645375175944 324.73432916459905 L49.38337511910069 324.6235076628781 L50.36029648644197 324.5026970212581 L51.337217853783244 324.3708756490419 L52.314139221124464 324.2270575960451 L53.29106058846574 324.07030130636053 L54.26798195580702 323.8997180330689 L55.244903323148264 323.71447984521234 L56.22182469048951 323.51382716207183 L57.19874605783079 323.29707575340814 L58.175667425172065 323.06362314785656 L59.15258879251331 322.812954395131 L60.12951015985456 322.54464713115743 L61.10643152719584 322.25837589880103 L62.083352894537086 321.95391568056175 L63.06027426187836 321.6311446035998 L64.03719562921958 321.29004578180167 L65.01411699656089 320.93070826440993 L65.99103836390213 320.55332706608226 L66.96795973124338 320.15820225917247 L67.94488109858463 319.7457371155699 L68.92180246592591 319.3164352925829 L69.89872383326718 318.8708970650854 L70.87564520060843 318.40981461439026 L71.85256656794968 317.93396639298874 L72.82948793529096 317.4442105932739 L73.8064093026322 316.9414777575266 L74.78333066997345 316.4267625756208 L75.76025203731473 315.9011149259561 L76.737173404656 315.3656302238829 L77.71409477199725 314.8214391502049 L78.6910161393385 314.26969684008253 L79.66793750667978 313.7115716196993 L80.64485887402103 313.14823338429943 L81.6217802413623 312.58084171657737 L82.59870160870355 312.01053384886296 L83.57562297604483 311.43841257606846 L84.55254434338605 310.8655342289595 L85.52946571072732 310.2928968189884 L86.5063870780686 309.7214284667306 L87.48330844540985 309.15197622592444 L88.46022981275112 308.58529541427384 L89.43715118009237 308.0220395605571 L90.41407254743365 307.4627510752201 L91.39099391477492 306.90785274849327 L92.36791528211614 306.3576401761506 L93.34483664945742 305.8122752082519 L94.32175801679867 305.2717805105033 L95.29867938413994 304.7360353211249 L96.27560075148122 304.20477247821395 L97.25252211882247 303.67757678339706 L98.22944348616375 303.1538847569596 L99.20636485350497 302.6329858275062 L100.18328622084624 302.114024985466 L101.16020758818752 301.5960069143758 L102.13712895552877 301.07780159686826 L103.11405032286999 300.5581513737683 L104.09097169021126 300.0356794148168 L105.06789305755257 299.5088995385753 L106.04481442489379 298.976227297364 L107.02173579223506 298.43599222108895 L107.99865715957631 297.8864510920581 L108.97557852691759 297.32580210193964 L109.95249989425886 296.7521997225533 L110.92942126160008 296.163770104836 L111.90634262894139 295.5586268057972 L112.88326399628261 294.9348866321807 L113.86018536362388 294.2906853824861 L114.83710673096516 293.6241932664406 L115.81402809830641 292.9336297833274 L116.79094946564769 292.2172778479855 L117.7678708329889 291.47349696583433 L118.74479220033018 290.70073527582304 L119.72171356767149 289.8975403024045 L120.6986349350127 289.0625682839953 L121.67555630235395 288.1945919751675 L122.65247766969523 287.2925068521922 L123.6293990370365 286.35533568550494 L124.60632040437773 285.38223147710085 L125.583241771719 284.3724787946483 L126.56016313906025 283.3254935660864 L127.53708450640153 282.24082142752667 L128.5140058737428 281.11813474242064 L129.49092724108408 279.9572284302904 L130.46784860842533 278.7580147581935 L131.44476997576655 277.52051725702705 L132.42169134310782 276.2448639275652 L133.39861271044913 274.93127989783073 L134.37553407779035 273.5800796843349 L135.35245544513162 272.191659195475 L136.32937681247284 270.7664875967714 L137.30629817981412 269.30509913568454 L138.2832195471554 267.8080849996604 L139.26014091449667 266.2760852561188 L140.2370622818379 264.7097808986527 L141.21398364917917 263.1098860011043 L142.19090501652045 261.47713996165913 L143.16782638386172 259.812299803811 L144.14474775120294 258.1161324908945 L145.12166911854422 256.3894072065901 L146.0985904858855 254.632887555779 L147.07551185322677 252.8473236484926 L148.05243322056805 251.03344404428492 L149.02935458790927 249.19194755465415 L150.0062759552505 247.3234949263828 L150.98319732259176 245.42870045780137 L151.96011868993304 243.5081236317557 L152.93704005727432 241.5622608820546 L153.9139614246156 239.59153764284025 L154.8908827919568 237.5963008611006 L155.8678041592981 235.57681217984356 L156.84472552663937 233.5332420218399 L157.82164689398058 231.46566481993307 L158.7985682613218 229.37405564860475 L159.77548962866314 227.25828851188095 L160.75241099600441 225.11813653410047 L161.7293323633457 222.95327428229587 L162.7062537306869 220.76328242187077 L163.68317509802813 218.54765487126977 L164.6600964653694 216.30580857697868 L165.63701783271068 214.0370959784026 L166.61393920005196 211.74082017403043 L167.59086056739324 209.41625273722445 L168.56778193473446 207.06265406343456 L169.54470330207573 204.67929606232354 L170.521624669417 202.26548693993493 L171.49854603675828 199.8205977493359 L172.4754674040995 197.3440903249693 L173.45238877144072 194.83554615783805 L174.429310138782 192.29469571727753 L175.40623150612333 189.72144768183503 L176.38315287346455 187.1159175080388 L177.36007424080583 184.47845474259654 L178.33699560814705 181.80966847179366 L179.31391697548833 179.1104503021653 L180.2908383428296 176.3819942793524 L181.26775971017082 173.62581317759364 L182.2446810775121 170.84375063048122 L183.22160244485337 168.03798862415644 L184.19852381219465 165.21104993643445 L185.17544517953593 162.36579517871564 L186.15236654687715 159.50541418090054 L187.12928791421837 156.63341155171332 L188.10620928155964 153.75358634638366 L189.08313064890092 150.87000587899848 L190.06005201624225 147.98697382616896 L191.03697338358347 145.10899288016293 L192.0138947509247 142.24072232117987 L192.99081611826597 139.3869309880017 L193.96773748560724 136.55244623158853 L194.94465885294852 133.74209953513883 L195.92158022028974 130.96066957456725 L196.89850158763102 128.21282357310002 L197.8754229549723 125.50305787075922 L198.85234432231357 122.83563868209151 L199.8292656896548 120.21454405180802 L200.80618705699607 117.64340803675529 L201.78310842433729 115.12546814251039 L202.76002979167856 112.66351702320955 L203.73695115901984 110.25985941336694 L204.71387252636111 107.91627520041513 L205.69079389370233 105.63398946679533 L206.6677152610436 103.41365023138744 L207.6446366283849 101.25531450313946 L208.62155799572616 99.15844312652263 L209.59847936306738 97.12190475106308 L210.57540073040866 95.14398909805581 L211.55232209774994 93.22242952966101 L212.5292434650912 91.35443475198625 L213.5061648324325 89.5367293080389 L214.4830861997737 87.76560234225713 L215.46000756711493 86.03696394949196 L216.4369289344562 84.34640826173026 L217.41385030179748 82.68928227931949 L218.39077166913876 81.06075932367884 L219.36769303648003 79.45591587888777 L220.34461440382125 77.86981050329533 L221.32153577116253 76.29756343193375 L222.2984571385038 74.73443545838614 L223.27537850584503 73.17590468220448 L224.2522998731863 71.61773973599924 L225.22922124052758 70.05606816500995 L226.20614260786886 68.48743872069025 L227.18306397521013 66.9088764473131 L228.15998534255135 65.31792958447068 L229.13690670989263 63.71270747588534 L230.11382807723385 62.0919088625069 L231.09074944457512 60.4548401411389 L232.0676708119164 58.80142338424213 L233.04459217925768 57.13219413681452 L234.02151354659895 55.44828922696473 L234.99843491394017 53.751425042435244 L235.97535628128145 52.04386693025094 L236.95227764862267 50.328390565567645 L237.92919901596395 48.608236303554406 L238.90612038330522 46.887057670196896 L239.8830417506465 45.16886526027639 L240.85996311798777 43.457967390353815 L241.836884485329 41.7589088988251 L242.81380585267027 40.07640949288225 L243.7907272200115 38.41530301290351 L244.76764858735277 36.78047891919698 L245.74456995469404 35.17682720581922 L246.72149132203532 33.60918781403143 L247.6984126893766 32.082305457629445 L248.67533405671782 30.60079058825687 L249.6522554240591 29.169087026288594 L250.6291767914003 27.791446567652088 L251.6060981587416 26.47191065545468 L252.58301952608286 25.214298983816434 L253.55994089342414 24.022204686625287 L254.53686226076542 22.89899556225015 L255.51378362810664 21.84782060271033 L256.4907049954479 20.87162093787481 L257.4676263627892 19.97314417681946 L258.4445477301304 19.154961033289567 L259.4214690974717 18.419483063482744 L260.3983904648129 17.768980323696837 L261.37531183215424 17.20559777371892 L262.35223319949546 16.73136930853417 L263.32915456683673 16.348228394465195 L264.306075934178 16.058014413432147 L265.28299730151923 15.862473976820866 L266.2599186688605 15.763256653761005 L267.2368400362017 15.76190476190476 L268.213761403543 15.859837085907543 L269.19068277088434 16.058326613212216 L270.16760413822556 16.35847260157061 L271.14452550556683 16.761167511264148 L272.12144687290805 17.267059540496803 L273.09836824024933 17.876511688785456 L274.07528960759055 18.589558434635478 L275.0522109749318 19.405861245567905 L276.0291323422731 20.324664236556202 L277.0060537096144 21.344751354238838 L277.98297507695565 22.46440648696432 L278.9598964442969 23.6813778840434 L279.93681781163815 24.992848211964315 L280.91373917897937 26.395411482201837 L281.89066054632065 27.88505795728389 L282.8675819136619 29.457167982449278 L283.84450328100326 31.106515503879905 L284.82142464834453 32.82728182626164 L285.7983460156857 34.613079937812074 L286.77526738302697 36.456989495915366 L287.75218875036825 38.35160232719875 L288.72911011770947 40.28907805836451 L289.70603148505074 42.26120926422078 L290.682952852392 44.25949530274869 L291.6598742197333 46.2752238087171 L292.6367955870746 48.29955864168721 L293.61371695441585 50.323632935079786 L294.5906383217571 52.33864577314358 L295.5675596890983 54.33596093429168 L296.54448105643957 56.30720608368671 L297.5214024237808 58.244370775514426 L298.49832379112206 60.13990163582315 L299.47524515846334 61.986793138979635 L300.4521665258046 63.77867246298217 L301.4290878931459 65.50987700879801 L302.40600926048717 67.17552329376372 L303.38293062782844 68.77156607569259 L304.35985199516966 70.2948467294122 L305.33677336251094 71.74313007727795 L306.3136947298522 73.11512906620158 L307.2906160971934 74.41051688223149 L308.26753746453466 75.62992629618094 L309.24445883187593 76.7749362367336 L310.2213801992172 77.8480457876864 L311.1983015665585 78.85263600042825 L312.17522293389976 79.7929200986425 L313.15214430124104 80.67388282702669 L314.12906566858226 81.50120985720002 L315.10598703592353 82.28120830998068 L316.0829084032647 83.0207195820006 L317.059829770606 83.72702577466038 L318.0367511379473 84.4077511134733 L319.0136725052886 85.07075981470317 L319.99059387262986 85.72405190318665 L320.96751523997114 86.37565850960146 L321.9444366073124 87.0335381769197 L322.9213579746537 87.70547568425059 L323.89827934199485 88.398984851823 L324.8752007093361 89.12121672405007 L325.85212207667735 89.87887443905399 L326.8290434440186 90.6781359838798 L327.8059648113599 91.52458590620353 L328.7828861787012 92.4231569074141 L329.75980754604245 93.3780820804661 L330.73672891338373 94.39285838141154 L331.713650280725 95.47022173846977 L332.6905716480662 96.6121340100731 L333.6674930154075 97.8197818065446 L334.6444143827488 99.09358699242748 L335.62133575008994 100.43322849148265 L336.5982571174312 101.83767482752864 L337.5751784847725 103.30522665532087 L338.55209985211377 104.83356836989103 L339.52902121945505 106.41982773364603 L340.5059425867963 108.0606423310077 L341.4828639541376 109.75223155328149 L342.4597853214788 111.49047273402252 L343.4367066888201 113.27097999930336 L344.41362805616126 115.08918436925612 L345.39054942350253 116.94041364781253 L346.3674707908438 118.81997066678431 L347.3443921581851 120.7232085078048 L348.3213135255264 122.64560141003011 L349.2982348928677 124.58281018113288 L350.275156260209 126.53074106162791 L351.25207762755014 128.48559714509105 L352.2289989948914 130.44392162603654 L353.2059203622327 132.4026323293055 L354.1828417295739 134.3590471658021 L355.1597630969152 136.3109003549909 L356.13668446425646 138.25634945038857 L357.11360583159774 140.1939733959865 L358.090527198939 142.12276202484531 L359.0674485662803 144.0420975819785 L360.04436993362157 145.95172900833828 L361.02129130096273 147.8517398578938 L361.998212668304 149.74251083259603 L362.9751340356452 151.62467800815952 L363.9520554029865 153.4990878853467 L364.9289767703278 155.36675043579456 L365.90589813766906 157.22879131798157 L366.88281950501033 159.08640441801867 L367.8597408723516 160.94080582252082 L368.8366622396929 162.7931902585023 L369.8135836070341 164.64469094024588 L370.7905049743754 166.49634364816112 L371.76742634171666 168.34905573299105 L372.7443477090578 170.2035805939372 L373.7212690763991 172.06049802519445 L374.6981904437404 173.92020066609837 L375.67511181108165 175.78288662968154 L376.6520331784229 177.64855822699053 L377.62895454576426 179.51702655397804 L378.60587591310554 181.38792156780582 L379.5827972804467 183.2607071533276 L380.559718647788 185.13470057123484 L381.5366400151292 187.0090955892341 L382.51356138247047 188.88298852848635 L383.49048274981175 190.75540641055846 L384.467404117153 192.62533636588964 L385.4443254844943 194.49175546313796 L386.4212468518356 196.353660139066 L387.39816821917685 198.21009444948513 L388.37508958651813 200.06017642140404 L389.35201095385935 201.9031218625253 L390.32893232120057 203.73826507393534 L391.3058536885418 205.56507601217953 L392.282775055883 207.38317355471332 L393.25969642322434 209.19233463465417 L394.23661779056556 210.99249912356584 L395.2135391579069 212.78377045151387 L396.1904605252482 214.5664120589106 L397.16738189258945 216.3408398720994 L398.14430325993067 218.10761108196584 L399.1212246272719 219.86740958028668 L400.0981459946132 221.6210284707355 L401.07506736195444 223.36935011959127 L402.05198872929566 225.11332424492744 L403.028910096637 226.85394456250776 L404.0058314639782 228.59222451239134 L404.98275283131954 230.32917258327592 L405.95967419866076 232.06576773321405 L406.9365955660021 233.80293537703346 L407.9135169333432 235.54152437431117 L408.89043830068454 237.28228540887898 L409.86735966802576 239.0258511033947 L410.844281035367 240.77271816226215 L411.8212024027083 242.52323178471352 L412.79812377004953 244.2775725386648 L413.77504513739086 246.03574583619388 L414.7519665047321 247.79757410416323 L415.7288878720734 249.56269169931124 L416.70580923941463 251.33054257650122 L417.68273060675585 253.10038068196064 L418.6596519740972 254.87127301022934 L419.6365733414383 256.64210523398447 L420.6134947087796 258.4115897895826 L421.59041607612085 260.17827627764177 L422.5673374434622 261.94056401684617 L423.5442588108034 263.6967165699391 L424.52118017814473 265.4448780432207 L425.49810154548607 267.18309094449825 L426.47502291282717 268.9093153691909 L427.4519442801685 270.6214492701616 L428.4288656475097 272.31734955394813 L429.40578701485094 273.99485373469315 L430.3827083821923 275.6518018675876 L431.3596297495335 277.286058476582 L432.33655111687483 278.8955341870092 L433.31347248421605 280.47820677321545 L434.29039385155727 282.032141334872 L435.2673152188985 283.55550932385313 L436.2442365862398 285.0466061568183 L437.22115795358104 286.5038671672026 L438.1980793209224 287.9258816742713 L439.1750006882636 289.31140497613967 L440.1519220556048 290.6593681078597 L441.12884342294615 291.96888524429284 L442.10576479028737 293.239258669779 L443.0826861576287 294.4699812816112 L444.0596075249699 295.66073664094745 L445.03652889231114 296.8113966317848 L446.0134502596525 297.92201683467454 L446.9903716269937 298.9928297656342 L447.967292994335 300.0242361708712 L448.94421436167613 301.0167946032495 L449.92113572901746 301.9712095357744 L450.8980570963587 302.88831828981193 L451.8749784637 303.7690770705839 L452.85189983104124 304.61454640921494 L453.82882119838246 305.4258763090802 L454.8057425657238 306.2042913844971 L455.782663933065 306.95107626233073 L456.75958530040634 307.66756149248624 L457.73650666774745 308.3551101824764 L458.7134280350888 309.01510553541436 L459.6903494024301 309.648939431199 L460.66727076977133 310.2580021487837 L461.64419213711267 310.84367328475145 L462.6211135044538 311.40731388148686 L463.5980348717951 311.95025973851375 L464.5749562391363 312.4738158444203 L465.55187760647766 312.9792518354448 L466.5287989738189 313.46779836124455 L467.5057203411601 313.9406442193912 L468.48264170850143 314.3989341082327 L469.45956307584265 314.84376684314236 L470.436484443184 315.2761938837741 L471.4134058105251 315.69721802940154 L472.3903271778664 316.10779215510996 L473.36724854520776 316.5088178826902 L474.344169912549 316.9011441054855 L475.3210912798903 317.2855653149644 L476.2980126472314 317.66281970712583 L477.27493401457275 318.03358707762607 L478.25185538191397 318.39848654439675 L479.2287767492553 318.7580741642198 L480.2056981165965 319.1128405340409 L481.18261948393774 319.46320848772984 L482.1595408512791 319.80953101369494 L483.1364622186203 320.1520895276224 L484.1133835859616 320.49109263727763 L485.09030495330285 320.8266755326574 L486.06722632064407 321.1589001249642 L487.0441476879853 321.4877560422584 L488.0210690553266 321.8131625688426 L488.99799042266795 322.13497159023103 L489.9749117900092 322.45297157692113 L490.9518331573504 322.7668926091751 L491.9287545246916 323.07641241280305 L492.90567589203295 323.38116334368067 L493.88259725937417 323.6807402276156 L494.8595186267154 323.97470893329563 L495.8364399940567 324.26261553043224 L496.81336136139794 324.5439958637331 L497.79028272873927 324.8183853567236 L498.7672040960805 325.08532884823046 L499.7441254634217 325.3443902588945 L500.72104683076293 325.5951618855337 L501.69796819810426 325.83727312748294 L502.6748895654455 326.07039846094517 L503.6518109327868 326.2942644944723 L504.62873230012804 326.50865596037266 L505.60565366746926 326.71342052239925 L506.5825750348106 326.9084723086822 L507.5594964021518 327.09379410964596 L508.53641776949314 327.26943821264547 L509.51333913683436 327.4355258773305 L510.4902605041756 327.5922454873703 L511.4671818715169 327.73984944426314 L512.4441032388581 327.8786498967192 L513.4210246061995 328.0090134238256 L514.3979459735406 328.13135481129694 L515.3748673408819 328.2461300771097 L516.3517887082231 328.35382891539126 L517.3287100755645 328.45496673539776 L518.3056314429057 328.55007647571153 L519.2825528102469 328.63970037251846 L520.2594741775882 328.72438185518604 L521.2363955449295 328.80465773268884 L522.2133169122708 328.88105082113924 L523.190238279612 328.9540631462828 L524.1671596469532 329.0241698358791 L524.1671596469532 331.0 L523.190238279612 331.0 L522.2133169122708 331.0 L521.2363955449295 331.0 L520.2594741775882 331.0 L519.2825528102469 331.0 L518.3056314429057 331.0 L517.3287100755645 331.0 L516.3517887082231 331.0 L515.3748673408819 331.0 L514.3979459735406 331.0 L513.4210246061995 331.0 L512.4441032388581 331.0 L511.4671818715169 331.0 L510.4902605041756 331.0 L509.51333913683436 331.0 L508.53641776949314 331.0 L507.5594964021518 331.0 L506.5825750348106 331.0 L505.60565366746926 331.0 L504.62873230012804 331.0 L503.6518109327868 331.0 L502.6748895654455 331.0 L501.69796819810426 331.0 L500.72104683076293 331.0 L499.7441254634217 331.0 L498.7672040960805 331.0 L497.79028272873927 331.0 L496.81336136139794 331.0 L495.8364399940567 331.0 L494.8595186267154 331.0 L493.88259725937417 331.0 L492.90567589203295 331.0 L491.9287545246916 331.0 L490.9518331573504 331.0 L489.9749117900092 331.0 L488.99799042266795 331.0 L488.0210690553266 331.0 L487.0441476879853 331.0 L486.06722632064407 331.0 L485.09030495330285 331.0 L484.1133835859616 331.0 L483.1364622186203 331.0 L482.1595408512791 331.0 L481.18261948393774 331.0 L480.2056981165965 331.0 L479.2287767492553 331.0 L478.25185538191397 331.0 L477.27493401457275 331.0 L476.2980126472314 331.0 L475.3210912798903 331.0 L474.344169912549 331.0 L473.36724854520776 331.0 L472.3903271778664 331.0 L471.4134058105251 331.0 L470.436484443184 331.0 L469.45956307584265 331.0 L468.48264170850143 331.0 L467.5057203411601 331.0 L466.5287989738189 331.0 L465.55187760647766 331.0 L464.5749562391363 331.0 L463.5980348717951 331.0 L462.6211135044538 331.0 L461.64419213711267 331.0 L460.66727076977133 331.0 L459.6903494024301 331.0 L458.7134280350888 331.0 L457.73650666774745 331.0 L456.75958530040634 331.0 L455.782663933065 331.0 L454.8057425657238 331.0 L453.82882119838246 331.0 L452.85189983104124 331.0 L451.8749784637 331.0 L450.8980570963587 331.0 L449.92113572901746 331.0 L448.94421436167613 331.0 L447.967292994335 331.0 L446.9903716269937 331.0 L446.0134502596525 331.0 L445.03652889231114 331.0 L444.0596075249699 331.0 L443.0826861576287 331.0 L442.10576479028737 331.0 L441.12884342294615 331.0 L440.1519220556048 331.0 L439.1750006882636 331.0 L438.1980793209224 331.0 L437.22115795358104 331.0 L436.2442365862398 331.0 L435.2673152188985 331.0 L434.29039385155727 331.0 L433.31347248421605 331.0 L432.33655111687483 331.0 L431.3596297495335 331.0 L430.3827083821923 331.0 L429.40578701485094 331.0 L428.4288656475097 331.0 L427.4519442801685 331.0 L426.47502291282717 331.0 L425.49810154548607 331.0 L424.52118017814473 331.0 L423.5442588108034 331.0 L422.5673374434622 331.0 L421.59041607612085 331.0 L420.6134947087796 331.0 L419.6365733414383 331.0 L418.6596519740972 331.0 L417.68273060675585 331.0 L416.70580923941463 331.0 L415.7288878720734 331.0 L414.7519665047321 331.0 L413.77504513739086 331.0 L412.79812377004953 331.0 L411.8212024027083 331.0 L410.844281035367 331.0 L409.86735966802576 331.0 L408.89043830068454 331.0 L407.9135169333432 331.0 L406.9365955660021 331.0 L405.95967419866076 331.0 L404.98275283131954 331.0 L404.0058314639782 331.0 L403.028910096637 331.0 L402.05198872929566 331.0 L401.07506736195444 331.0 L400.0981459946132 331.0 L399.1212246272719 331.0 L398.14430325993067 331.0 L397.16738189258945 331.0 L396.1904605252482 331.0 L395.2135391579069 331.0 L394.23661779056556 331.0 L393.25969642322434 331.0 L392.282775055883 331.0 L391.3058536885418 331.0 L390.32893232120057 331.0 L389.35201095385935 331.0 L388.37508958651813 331.0 L387.39816821917685 331.0 L386.4212468518356 331.0 L385.4443254844943 331.0 L384.467404117153 331.0 L383.49048274981175 331.0 L382.51356138247047 331.0 L381.5366400151292 331.0 L380.559718647788 331.0 L379.5827972804467 331.0 L378.60587591310554 331.0 L377.62895454576426 331.0 L376.6520331784229 331.0 L375.67511181108165 331.0 L374.6981904437404 331.0 L373.7212690763991 331.0 L372.7443477090578 331.0 L371.76742634171666 331.0 L370.7905049743754 331.0 L369.8135836070341 331.0 L368.8366622396929 331.0 L367.8597408723516 331.0 L366.88281950501033 331.0 L365.90589813766906 331.0 L364.9289767703278 331.0 L363.9520554029865 331.0 L362.9751340356452 331.0 L361.998212668304 331.0 L361.02129130096273 331.0 L360.04436993362157 331.0 L359.0674485662803 331.0 L358.090527198939 331.0 L357.11360583159774 331.0 L356.13668446425646 331.0 L355.1597630969152 331.0 L354.1828417295739 331.0 L353.2059203622327 331.0 L352.2289989948914 331.0 L351.25207762755014 331.0 L350.275156260209 331.0 L349.2982348928677 331.0 L348.3213135255264 331.0 L347.3443921581851 331.0 L346.3674707908438 331.0 L345.39054942350253 331.0 L344.41362805616126 331.0 L343.4367066888201 331.0 L342.4597853214788 331.0 L341.4828639541376 331.0 L340.5059425867963 331.0 L339.52902121945505 331.0 L338.55209985211377 331.0 L337.5751784847725 331.0 L336.5982571174312 331.0 L335.62133575008994 331.0 L334.6444143827488 331.0 L333.6674930154075 331.0 L332.6905716480662 331.0 L331.713650280725 331.0 L330.73672891338373 331.0 L329.75980754604245 331.0 L328.7828861787012 331.0 L327.8059648113599 331.0 L326.8290434440186 331.0 L325.85212207667735 331.0 L324.8752007093361 331.0 L323.89827934199485 331.0 L322.9213579746537 331.0 L321.9444366073124 331.0 L320.96751523997114 331.0 L319.99059387262986 331.0 L319.0136725052886 331.0 L318.0367511379473 331.0 L317.059829770606 331.0 L316.0829084032647 331.0 L315.10598703592353 331.0 L314.12906566858226 331.0 L313.15214430124104 331.0 L312.17522293389976 331.0 L311.1983015665585 331.0 L310.2213801992172 331.0 L309.24445883187593 331.0 L308.26753746453466 331.0 L307.2906160971934 331.0 L306.3136947298522 331.0 L305.33677336251094 331.0 L304.35985199516966 331.0 L303.38293062782844 331.0 L302.40600926048717 331.0 L301.4290878931459 331.0 L300.4521665258046 331.0 L299.47524515846334 331.0 L298.49832379112206 331.0 L297.5214024237808 331.0 L296.54448105643957 331.0 L295.5675596890983 331.0 L294.5906383217571 331.0 L293.61371695441585 331.0 L292.6367955870746 331.0 L291.6598742197333 331.0 L290.682952852392 331.0 L289.70603148505074 331.0 L288.72911011770947 331.0 L287.75218875036825 331.0 L286.77526738302697 331.0 L285.7983460156857 331.0 L284.82142464834453 331.0 L283.84450328100326 331.0 L282.8675819136619 331.0 L281.89066054632065 331.0 L280.91373917897937 331.0 L279.93681781163815 331.0 L278.9598964442969 331.0 L277.98297507695565 331.0 L277.0060537096144 331.0 L276.0291323422731 331.0 L275.0522109749318 331.0 L274.07528960759055 331.0 L273.09836824024933 331.0 L272.12144687290805 331.0 L271.14452550556683 331.0 L270.16760413822556 331.0 L269.19068277088434 331.0 L268.213761403543 331.0 L267.2368400362017 331.0 L266.2599186688605 331.0 L265.28299730151923 331.0 L264.306075934178 331.0 L263.32915456683673 331.0 L262.35223319949546 331.0 L261.37531183215424 331.0 L260.3983904648129 331.0 L259.4214690974717 331.0 L258.4445477301304 331.0 L257.4676263627892 331.0 L256.4907049954479 331.0 L255.51378362810664 331.0 L254.53686226076542 331.0 L253.55994089342414 331.0 L252.58301952608286 331.0 L251.6060981587416 331.0 L250.6291767914003 331.0 L249.6522554240591 331.0 L248.67533405671782 331.0 L247.6984126893766 331.0 L246.72149132203532 331.0 L245.74456995469404 331.0 L244.76764858735277 331.0 L243.7907272200115 331.0 L242.81380585267027 331.0 L241.836884485329 331.0 L240.85996311798777 331.0 L239.8830417506465 331.0 L238.90612038330522 331.0 L237.92919901596395 331.0 L236.95227764862267 331.0 L235.97535628128145 331.0 L234.99843491394017 331.0 L234.02151354659895 331.0 L233.04459217925768 331.0 L232.0676708119164 331.0 L231.09074944457512 331.0 L230.11382807723385 331.0 L229.13690670989263 331.0 L228.15998534255135 331.0 L227.18306397521013 331.0 L226.20614260786886 331.0 L225.22922124052758 331.0 L224.2522998731863 331.0 L223.27537850584503 331.0 L222.2984571385038 331.0 L221.32153577116253 331.0 L220.34461440382125 331.0 L219.36769303648003 331.0 L218.39077166913876 331.0 L217.41385030179748 331.0 L216.4369289344562 331.0 L215.46000756711493 331.0 L214.4830861997737 331.0 L213.5061648324325 331.0 L212.5292434650912 331.0 L211.55232209774994 331.0 L210.57540073040866 331.0 L209.59847936306738 331.0 L208.62155799572616 331.0 L207.6446366283849 331.0 L206.6677152610436 331.0 L205.69079389370233 331.0 L204.71387252636111 331.0 L203.73695115901984 331.0 L202.76002979167856 331.0 L201.78310842433729 331.0 L200.80618705699607 331.0 L199.8292656896548 331.0 L198.85234432231357 331.0 L197.8754229549723 331.0 L196.89850158763102 331.0 L195.92158022028974 331.0 L194.94465885294852 331.0 L193.96773748560724 331.0 L192.99081611826597 331.0 L192.0138947509247 331.0 L191.03697338358347 331.0 L190.06005201624225 331.0 L189.08313064890092 331.0 L188.10620928155964 331.0 L187.12928791421837 331.0 L186.15236654687715 331.0 L185.17544517953593 331.0 L184.19852381219465 331.0 L183.22160244485337 331.0 L182.2446810775121 331.0 L181.26775971017082 331.0 L180.2908383428296 331.0 L179.31391697548833 331.0 L178.33699560814705 331.0 L177.36007424080583 331.0 L176.38315287346455 331.0 L175.40623150612333 331.0 L174.429310138782 331.0 L173.45238877144072 331.0 L172.4754674040995 331.0 L171.49854603675828 331.0 L170.521624669417 331.0 L169.54470330207573 331.0 L168.56778193473446 331.0 L167.59086056739324 331.0 L166.61393920005196 331.0 L165.63701783271068 331.0 L164.6600964653694 331.0 L163.68317509802813 331.0 L162.7062537306869 331.0 L161.7293323633457 331.0 L160.75241099600441 331.0 L159.77548962866314 331.0 L158.7985682613218 331.0 L157.82164689398058 331.0 L156.84472552663937 331.0 L155.8678041592981 331.0 L154.8908827919568 331.0 L153.9139614246156 331.0 L152.93704005727432 331.0 L151.96011868993304 331.0 L150.98319732259176 331.0 L150.0062759552505 331.0 L149.02935458790927 331.0 L148.05243322056805 331.0 L147.07551185322677 331.0 L146.0985904858855 331.0 L145.12166911854422 331.0 L144.14474775120294 331.0 L143.16782638386172 331.0 L142.19090501652045 331.0 L141.21398364917917 331.0 L140.2370622818379 331.0 L139.26014091449667 331.0 L138.2832195471554 331.0 L137.30629817981412 331.0 L136.32937681247284 331.0 L135.35245544513162 331.0 L134.37553407779035 331.0 L133.39861271044913 331.0 L132.42169134310782 331.0 L131.44476997576655 331.0 L130.46784860842533 331.0 L129.49092724108408 331.0 L128.5140058737428 331.0 L127.53708450640153 331.0 L126.56016313906025 331.0 L125.583241771719 331.0 L124.60632040437773 331.0 L123.6293990370365 331.0 L122.65247766969523 331.0 L121.67555630235395 331.0 L120.6986349350127 331.0 L119.72171356767149 331.0 L118.74479220033018 331.0 L117.7678708329889 331.0 L116.79094946564769 331.0 L115.81402809830641 331.0 L114.83710673096516 331.0 L113.86018536362388 331.0 L112.88326399628261 331.0 L111.90634262894139 331.0 L110.92942126160008 331.0 L109.95249989425886 331.0 L108.97557852691759 331.0 L107.99865715957631 331.0 L107.02173579223506 331.0 L106.04481442489379 331.0 L105.06789305755257 331.0 L104.09097169021126 331.0 L103.11405032286999 331.0 L102.13712895552877 331.0 L101.16020758818752 331.0 L100.18328622084624 331.0 L99.20636485350497 331.0 L98.22944348616375 331.0 L97.25252211882247 331.0 L96.27560075148122 331.0 L95.29867938413994 331.0 L94.32175801679867 331.0 L93.34483664945742 331.0 L92.36791528211614 331.0 L91.39099391477492 331.0 L90.41407254743365 331.0 L89.43715118009237 331.0 L88.46022981275112 331.0 L87.48330844540985 331.0 L86.5063870780686 331.0 L85.52946571072732 331.0 L84.55254434338605 331.0 L83.57562297604483 331.0 L82.59870160870355 331.0 L81.6217802413623 331.0 L80.64485887402103 331.0 L79.66793750667978 331.0 L78.6910161393385 331.0 L77.71409477199725 331.0 L76.737173404656 331.0 L75.76025203731473 331.0 L74.78333066997345 331.0 L73.8064093026322 331.0 L72.82948793529096 331.0 L71.85256656794968 331.0 L70.87564520060843 331.0 L69.89872383326718 331.0 L68.92180246592591 331.0 L67.94488109858463 331.0 L66.96795973124338 331.0 L65.99103836390213 331.0 L65.01411699656089 331.0 L64.03719562921958 331.0 L63.06027426187836 331.0 L62.083352894537086 331.0 L61.10643152719584 331.0 L60.12951015985456 331.0 L59.15258879251331 331.0 L58.175667425172065 331.0 L57.19874605783079 331.0 L56.22182469048951 331.0 L55.244903323148264 331.0 L54.26798195580702 331.0 L53.29106058846574 331.0 L52.314139221124464 331.0 L51.337217853783244 331.0 L50.36029648644197 331.0 L49.38337511910069 331.0 L48.40645375175944 331.0 L47.429532384418195 331.0 L46.45261101707692 331.0 L45.47568964973564 331.0 L44.498768282394394 331.0 L43.521846915053146 331.0 L42.54492554771187 331.0 L41.56800418037062 331.0 L40.591082813029374 331.0 L39.6141614456881 331.0 L38.63724007834682 331.0 L37.66031871100557 331.0 L36.683397343664325 331.0 L35.70647597632305 331.0 L34.7295546089818 331.0 L33.752633241640524 331.0 L32.775711874299276 331.0 L31.798790506958 331.0 L30.82186913961675 331.0 L29.844947772275503 331.0 L28.868026404934227 331.0 L27.89110503759298 331.0 L26.914183670251703 331.0 L25.937262302910455 331.0 L24.960340935569178 331.0 Z" fill="rgb(19,43,68)" stroke-width="1.0" fill-opacity="0.6">
          </path>
        </g>
        <g>
          <path d="M24.960340935569178 326.8213189267342 L24.960340935569178 326.8213189267342 L26.914183670251703 326.5824458638305 L28.868026404934227 326.36225924585045 L30.82186913961675 326.1615975780868 L32.775711874299276 325.9800219572704 L34.7295546089818 325.81573654863917 L36.683397343664325 325.6655712228376 L38.63724007834682 325.52502801765155 L40.591082813029374 325.38838936286453 L42.54492554771187 325.2488826700841 L44.498768282394394 325.0988931785898 L46.45261101707692 324.9302150012544 L48.40645375175944 324.73432916459905 L50.36029648644197 324.5026970212581 L52.314139221124464 324.2270575960451 L54.26798195580702 323.8997180330689 L56.22182469048951 323.51382716207183 L58.175667425172065 323.06362314785656 L60.12951015985456 322.54464713115743 L62.083352894537086 321.95391568056175 L64.03719562921958 321.29004578180167 L65.99103836390213 320.55332706608226 L67.94488109858463 319.7457371155699 L69.89872383326718 318.8708970650854 L71.85256656794968 317.93396639298874 L73.8064093026322 316.9414777575266 L75.76025203731473 315.9011149259561 L77.71409477199725 314.8214391502049 L79.66793750667978 313.7115716196993 L81.6217802413623 312.58084171657737 L83.57562297604483 311.43841257606846 L85.52946571072732 310.2928968189884 L87.48330844540985 309.15197622592444 L89.43715118009237 308.0220395605571 L91.39099391477492 306.90785274849327 L93.34483664945742 305.8122752082519 L95.29867938413994 304.7360353211249 L97.25252211882247 303.67757678339706 L99.20636485350497 302.6329858275062 L101.16020758818752 301.5960069143758 L103.11405032286999 300.5581513737683 L105.06789305755257 299.5088995385753 L107.02173579223506 298.43599222108895 L108.97557852691759 297.32580210193964 L110.92942126160008 296.163770104836 L112.88326399628261 294.9348866321807 L114.83710673096516 293.6241932664406 L116.79094946564769 292.2172778479855 L118.74479220033018 290.70073527582304 L120.6986349350127 289.0625682839953 L122.65247766969523 287.2925068521922 L124.60632040437773 285.38223147710085 L125.583241771719 284.3724787946483 L126.56016313906025 283.3254935660864 L127.53708450640153 282.24082142752667 L128.5140058737428 281.11813474242064 L129.49092724108408 279.9572284302904 L130.46784860842533 278.7580147581935 L131.44476997576655 277.52051725702705 L132.42169134310782 276.2448639275652 L133.39861271044913 274.93127989783073 L134.37553407779035 273.5800796843349 L135.35245544513162 272.191659195475 L136.32937681247284 270.7664875967714 L137.30629817981412 269.30509913568454 L138.2832195471554 267.8080849996604 L139.26014091449667 266.2760852561188 L140.2370622818379 264.7097808986527 L141.21398364917917 263.1098860011043 L142.19090501652045 261.47713996165913 L143.16782638386172 259.812299803811 L144.14474775120294 258.1161324908945 L145.12166911854422 256.3894072065901 L146.0985904858855 254.632887555779 L147.07551185322677 252.8473236484926 L148.05243322056805 251.03344404428492 L149.02935458790927 249.19194755465415 L150.0062759552505 247.3234949263828 L150.98319732259176 245.42870045780137 L151.96011868993304 243.5081236317557 L152.93704005727432 241.5622608820546 L153.9139614246156 239.59153764284025 L154.8908827919568 237.5963008611006 L155.8678041592981 235.57681217984356 L156.84472552663937 233.5332420218399 L157.82164689398058 231.46566481993307 L158.7985682613218 229.37405564860475 L159.77548962866314 227.25828851188095 L160.75241099600441 225.11813653410047 L161.7293323633457 222.95327428229587 L162.7062537306869 220.76328242187077 L163.68317509802813 218.54765487126977 L164.6600964653694 216.30580857697868 L165.63701783271068 214.0370959784026 L166.61393920005196 211.74082017403043 L167.59086056739324 209.41625273722445 L168.56778193473446 207.06265406343456 L169.54470330207573 204.67929606232354 L170.521624669417 202.26548693993493 L171.49854603675828 199.8205977493359 L172.4754674040995 197.3440903249693 L173.45238877144072 194.83554615783805 L174.429310138782 192.29469571727753 L175.40623150612333 189.72144768183503 L176.38315287346455 187.1159175080388 L177.36007424080583 184.47845474259654 L178.33699560814705 181.80966847179366 L179.31391697548833 179.1104503021653 L180.2908383428296 176.3819942793524 L181.26775971017082 173.62581317759364 L182.2446810775121 170.84375063048122 L183.22160244485337 168.03798862415644 L184.19852381219465 165.21104993643445 L185.17544517953593 162.36579517871564 L186.15236654687715 159.50541418090054 L187.12928791421837 156.63341155171332 L188.10620928155964 153.75358634638366 L189.08313064890092 150.87000587899848 L190.06005201624225 147.98697382616896 L191.03697338358347 145.10899288016293 L192.0138947509247 142.24072232117987 L192.99081611826597 139.3869309880017 L193.96773748560724 136.55244623158853 L194.94465885294852 133.74209953513883 L195.92158022028974 130.96066957456725 L196.89850158763102 128.21282357310002 L197.8754229549723 125.50305787075922 L198.85234432231357 122.83563868209151 L199.8292656896548 120.21454405180802 L200.80618705699607 117.64340803675529 L201.78310842433729 115.12546814251039 L202.76002979167856 112.66351702320955 L203.73695115901984 110.25985941336694 L204.71387252636111 107.91627520041513 L205.69079389370233 105.63398946679533 L206.6677152610436 103.41365023138744 L207.6446366283849 101.25531450313946 L208.62155799572616 99.15844312652263 L209.59847936306738 97.12190475106308 L210.57540073040866 95.14398909805581 L211.55232209774994 93.22242952966101 L212.5292434650912 91.35443475198625 L213.5061648324325 89.5367293080389 L214.4830861997737 87.76560234225713 L215.46000756711493 86.03696394949196 L216.4369289344562 84.34640826173026 L217.41385030179748 82.68928227931949 L218.39077166913876 81.06075932367884 L219.36769303648003 79.45591587888777 L220.34461440382125 77.86981050329533 L221.32153577116253 76.29756343193375 L222.2984571385038 74.73443545838614 L223.27537850584503 73.17590468220448 L224.2522998731863 71.61773973599924 L225.22922124052758 70.05606816500995 L226.20614260786886 68.48743872069025 L227.18306397521013 66.9088764473131 L228.15998534255135 65.31792958447068 L229.13690670989263 63.71270747588534 L230.11382807723385 62.0919088625069 L231.09074944457512 60.4548401411389 L232.0676708119164 58.80142338424213 L233.04459217925768 57.13219413681452 L234.02151354659895 55.44828922696473 L234.99843491394017 53.751425042435244 L235.97535628128145 52.04386693025094 L236.95227764862267 50.328390565567645 L237.92919901596395 48.608236303554406 L238.90612038330522 46.887057670196896 L239.8830417506465 45.16886526027639 L240.85996311798777 43.457967390353815 L241.836884485329 41.7589088988251 L242.81380585267027 40.07640949288225 L243.7907272200115 38.41530301290351 L244.76764858735277 36.78047891919698 L245.74456995469404 35.17682720581922 L246.72149132203532 33.60918781403143 L247.6984126893766 32.082305457629445 L248.67533405671782 30.60079058825687 L249.6522554240591 29.169087026288594 L250.6291767914003 27.791446567652088 L251.6060981587416 26.47191065545468 L252.58301952608286 25.214298983816434 L253.55994089342414 24.022204686625287 L254.53686226076542 22.89899556225015 L255.51378362810664 21.84782060271033 L257.4676263627892 19.97314417681946 L259.4214690974717 18.419483063482744 L261.37531183215424 17.20559777371892 L263.32915456683673 16.348228394465195 L265.28299730151923 15.862473976820866 L267.2368400362017 15.76190476190476 L269.19068277088434 16.058326613212216 L271.14452550556683 16.761167511264148 L273.09836824024933 17.876511688785456 L275.0522109749318 19.405861245567905 L277.0060537096144 21.344751354238838 L277.98297507695565 22.46440648696432 L278.9598964442969 23.6813778840434 L279.93681781163815 24.992848211964315 L280.91373917897937 26.395411482201837 L281.89066054632065 27.88505795728389 L282.8675819136619 29.457167982449278 L283.84450328100326 31.106515503879905 L284.82142464834453 32.82728182626164 L285.7983460156857 34.613079937812074 L286.77526738302697 36.456989495915366 L287.75218875036825 38.35160232719875 L288.72911011770947 40.28907805836451 L289.70603148505074 42.26120926422078 L290.682952852392 44.25949530274869 L291.6598742197333 46.2752238087171 L292.6367955870746 48.29955864168721 L293.61371695441585 50.323632935079786 L294.5906383217571 52.33864577314358 L295.5675596890983 54.33596093429168 L296.54448105643957 56.30720608368671 L297.5214024237808 58.244370775514426 L298.49832379112206 60.13990163582315 L299.47524515846334 61.986793138979635 L300.4521665258046 63.77867246298217 L301.4290878931459 65.50987700879801 L302.40600926048717 67.17552329376372 L303.38293062782844 68.77156607569259 L304.35985199516966 70.2948467294122 L305.33677336251094 71.74313007727795 L306.3136947298522 73.11512906620158 L307.2906160971934 74.41051688223149 L308.26753746453466 75.62992629618094 L309.24445883187593 76.7749362367336 L310.2213801992172 77.8480457876864 L311.1983015665585 78.85263600042825 L313.15214430124104 80.67388282702669 L315.10598703592353 82.28120830998068 L317.059829770606 83.72702577466038 L319.0136725052886 85.07075981470317 L320.96751523997114 86.37565850960146 L322.9213579746537 87.70547568425059 L324.8752007093361 89.12121672405007 L326.8290434440186 90.6781359838798 L328.7828861787012 92.4231569074141 L330.73672891338373 94.39285838141154 L331.713650280725 95.47022173846977 L332.6905716480662 96.6121340100731 L333.6674930154075 97.8197818065446 L334.6444143827488 99.09358699242748 L335.62133575008994 100.43322849148265 L336.5982571174312 101.83767482752864 L337.5751784847725 103.30522665532087 L338.55209985211377 104.83356836989103 L339.52902121945505 106.41982773364603 L340.5059425867963 108.0606423310077 L341.4828639541376 109.75223155328149 L342.4597853214788 111.49047273402252 L343.4367066888201 113.27097999930336 L344.41362805616126 115.08918436925612 L345.39054942350253 116.94041364781253 L346.3674707908438 118.81997066678431 L347.3443921581851 120.7232085078048 L348.3213135255264 122.64560141003011 L349.2982348928677 124.58281018113288 L350.275156260209 126.53074106162791 L351.25207762755014 128.48559714509105 L352.2289989948914 130.44392162603654 L353.2059203622327 132.4026323293055 L354.1828417295739 134.3590471658021 L355.1597630969152 136.3109003549909 L356.13668446425646 138.25634945038857 L357.11360583159774 140.1939733959865 L358.090527198939 142.12276202484531 L359.0674485662803 144.0420975819785 L360.04436993362157 145.95172900833828 L361.02129130096273 147.8517398578938 L361.998212668304 149.74251083259603 L362.9751340356452 151.62467800815952 L363.9520554029865 153.4990878853467 L364.9289767703278 155.36675043579456 L365.90589813766906 157.22879131798157 L366.88281950501033 159.08640441801867 L367.8597408723516 160.94080582252082 L368.8366622396929 162.7931902585023 L369.8135836070341 164.64469094024588 L370.7905049743754 166.49634364816112 L371.76742634171666 168.34905573299105 L372.7443477090578 170.2035805939372 L373.7212690763991 172.06049802519445 L374.6981904437404 173.92020066609837 L375.67511181108165 175.78288662968154 L376.6520331784229 177.64855822699053 L377.62895454576426 179.51702655397804 L378.60587591310554 181.38792156780582 L379.5827972804467 183.2607071533276 L380.559718647788 185.13470057123484 L381.5366400151292 187.0090955892341 L382.51356138247047 188.88298852848635 L383.49048274981175 190.75540641055846 L384.467404117153 192.62533636588964 L385.4443254844943 194.49175546313796 L386.4212468518356 196.353660139066 L387.39816821917685 198.21009444948513 L388.37508958651813 200.06017642140404 L389.35201095385935 201.9031218625253 L390.32893232120057 203.73826507393534 L391.3058536885418 205.56507601217953 L392.282775055883 207.38317355471332 L393.25969642322434 209.19233463465417 L394.23661779056556 210.99249912356584 L395.2135391579069 212.78377045151387 L396.1904605252482 214.5664120589106 L397.16738189258945 216.3408398720994 L398.14430325993067 218.10761108196584 L399.1212246272719 219.86740958028668 L400.0981459946132 221.6210284707355 L401.07506736195444 223.36935011959127 L402.05198872929566 225.11332424492744 L403.028910096637 226.85394456250776 L404.0058314639782 228.59222451239134 L404.98275283131954 230.32917258327592 L405.95967419866076 232.06576773321405 L406.9365955660021 233.80293537703346 L407.9135169333432 235.54152437431117 L408.89043830068454 237.28228540887898 L409.86735966802576 239.0258511033947 L410.844281035367 240.77271816226215 L411.8212024027083 242.52323178471352 L412.79812377004953 244.2775725386648 L413.77504513739086 246.03574583619388 L414.7519665047321 247.79757410416323 L415.7288878720734 249.56269169931124 L416.70580923941463 251.33054257650122 L417.68273060675585 253.10038068196064 L418.6596519740972 254.87127301022934 L419.6365733414383 256.64210523398447 L420.6134947087796 258.4115897895826 L421.59041607612085 260.17827627764177 L422.5673374434622 261.94056401684617 L423.5442588108034 263.6967165699391 L424.52118017814473 265.4448780432207 L425.49810154548607 267.18309094449825 L426.47502291282717 268.9093153691909 L427.4519442801685 270.6214492701616 L428.4288656475097 272.31734955394813 L429.40578701485094 273.99485373469315 L430.3827083821923 275.6518018675876 L431.3596297495335 277.286058476582 L432.33655111687483 278.8955341870092 L433.31347248421605 280.47820677321545 L434.29039385155727 282.032141334872 L435.2673152188985 283.55550932385313 L436.2442365862398 285.0466061568183 L437.22115795358104 286.5038671672026 L438.1980793209224 287.9258816742713 L439.1750006882636 289.31140497613967 L440.1519220556048 290.6593681078597 L441.12884342294615 291.96888524429284 L442.10576479028737 293.239258669779 L443.0826861576287 294.4699812816112 L444.0596075249699 295.66073664094745 L445.03652889231114 296.8113966317848 L446.0134502596525 297.92201683467454 L446.9903716269937 298.9928297656342 L447.967292994335 300.0242361708712 L449.92113572901746 301.9712095357744 L451.8749784637 303.7690770705839 L453.82882119838246 305.4258763090802 L455.782663933065 306.95107626233073 L457.73650666774745 308.3551101824764 L459.6903494024301 309.648939431199 L461.64419213711267 310.84367328475145 L463.5980348717951 311.95025973851375 L465.55187760647766 312.9792518354448 L467.5057203411601 313.9406442193912 L469.45956307584265 314.84376684314236 L471.4134058105251 315.69721802940154 L473.36724854520776 316.5088178826902 L475.3210912798903 317.2855653149644 L477.27493401457275 318.03358707762607 L479.2287767492553 318.7580741642198 L481.18261948393774 319.46320848772984 L483.1364622186203 320.1520895276224 L485.09030495330285 320.8266755326574 L487.0441476879853 321.4877560422584 L488.99799042266795 322.13497159023103 L490.9518331573504 322.7668926091751 L492.90567589203295 323.38116334368067 L494.8595186267154 323.97470893329563 L496.81336136139794 324.5439958637331 L498.7672040960805 325.08532884823046 L500.72104683076293 325.5951618855337 L502.6748895654455 326.07039846094517 L504.62873230012804 326.50865596037266 L506.5825750348106 326.9084723086822 L508.53641776949314 327.26943821264547 L510.4902605041756 327.5922454873703 L512.4441032388581 327.8786498967192 L514.3979459735406 328.13135481129694 L516.3517887082231 328.35382891539126 L518.3056314429057 328.55007647571153 L520.2594741775882 328.72438185518604 L522.2133169122708 328.88105082113924 L524.1671596469532 329.0241698358791 " fill="none" stroke-width="1.6500000000000001" stroke="rgb(71,71,71)" stroke-opacity="1.0">
          </path>
        </g>
      </g>
    </g>
    <g transform="translate(73.97651758668601 15.2 ) ">
      <text class="plot-title" y="0.0">
      Configured `densityPlot` plot
      </text>
    </g>
    <g transform="translate(14.5 199.5 ) rotate(-90.0 ) ">
      <text class="axis-title-y" y="0.0" text-anchor="middle">
      density
      </text>
    </g>
    <g transform="translate(348.54026787794726 402.5 ) ">
      <text class="axis-title-x" y="0.0" text-anchor="middle">
      depth
      </text>
    </g>
    <g transform="translate(633.1040181692084 120.75 ) ">
      <rect x="5.0" y="5.0" height="147.5" width="61.89598183079156" stroke="rgb(71,71,71)" stroke-opacity="1.0" stroke-width="0.0" fill="rgb(255,255,255)" fill-opacity="1.0">
      </rect>
      <g transform="translate(10.0 10.0 ) ">
        <g transform="translate(0.0 10.5 ) ">
          <text class="legend-title" y="0.0">
          scaled
          </text>
        </g>
        <g transform="translate(0.0 22.5 ) ">
          <g>
            <rect x="0.0" y="0.0" height="115.0" width="23.0" stroke-width="0.0" fill="rgb(85,174,243)" fill-opacity="1.0">
            </rect>
            <rect x="0.0" y="7.55" height="107.45" width="23.0" stroke-width="0.0" fill="rgb(81,166,234)" fill-opacity="1.0">
            </rect>
            <rect x="0.0" y="13.1" height="101.9" width="23.0" stroke-width="0.0" fill="rgb(77,159,225)" fill-opacity="1.0">
            </rect>
            <rect x="0.0" y="18.65" height="96.35" width="23.0" stroke-width="0.0" fill="rgb(73,152,216)" fill-opacity="1.0">
            </rect>
            <rect x="0.0" y="24.2" height="90.8" width="23.0" stroke-width="0.0" fill="rgb(69,145,207)" fill-opacity="1.0">
            </rect>
            <rect x="0.0" y="29.75" height="85.25" width="23.0" stroke-width="0.0" fill="rgb(65,138,198)" fill-opacity="1.0">
            </rect>
            <rect x="0.0" y="35.3" height="79.7" width="23.0" stroke-width="0.0" fill="rgb(62,131,189)" fill-opacity="1.0">
            </rect>
            <rect x="0.0" y="40.849999999999994" height="74.15" width="23.0" stroke-width="0.0" fill="rgb(58,124,179)" fill-opacity="1.0">
            </rect>
            <rect x="0.0" y="46.39999999999999" height="68.60000000000001" width="23.0" stroke-width="0.0" fill="rgb(55,117,170)" fill-opacity="1.0">
            </rect>
            <rect x="0.0" y="51.94999999999999" height="63.05000000000001" width="23.0" stroke-width="0.0" fill="rgb(51,110,161)" fill-opacity="1.0">
            </rect>
            <rect x="0.0" y="57.499999999999986" height="57.500000000000014" width="23.0" stroke-width="0.0" fill="rgb(48,103,152)" fill-opacity="1.0">
            </rect>
            <rect x="0.0" y="63.04999999999998" height="51.95000000000002" width="23.0" stroke-width="0.0" fill="rgb(44,97,143)" fill-opacity="1.0">
            </rect>
            <rect x="0.0" y="68.59999999999998" height="46.40000000000002" width="23.0" stroke-width="0.0" fill="rgb(41,90,134)" fill-opacity="1.0">
            </rect>
            <rect x="0.0" y="74.14999999999998" height="40.85000000000002" width="23.0" stroke-width="0.0" fill="rgb(38,83,125)" fill-opacity="1.0">
            </rect>
            <rect x="0.0" y="79.69999999999997" height="35.300000000000026" width="23.0" stroke-width="0.0" fill="rgb(35,77,116)" fill-opacity="1.0">
            </rect>
            <rect x="0.0" y="85.24999999999997" height="29.75000000000003" width="23.0" stroke-width="0.0" fill="rgb(32,70,107)" fill-opacity="1.0">
            </rect>
            <rect x="0.0" y="90.79999999999997" height="24.20000000000003" width="23.0" stroke-width="0.0" fill="rgb(29,64,98)" fill-opacity="1.0">
            </rect>
            <rect x="0.0" y="96.34999999999997" height="18.650000000000034" width="23.0" stroke-width="0.0" fill="rgb(26,58,89)" fill-opacity="1.0">
            </rect>
            <rect x="0.0" y="101.89999999999996" height="13.100000000000037" width="23.0" stroke-width="0.0" fill="rgb(23,52,80)" fill-opacity="1.0">
            </rect>
            <rect x="0.0" y="107.44999999999996" height="7.55000000000004" width="23.0" stroke-width="0.0" fill="rgb(20,45,71)" fill-opacity="1.0">
            </rect>
            <line x1="0.0" y1="91.36008571135277" x2="4.6" y2="91.36008571135277" stroke-width="1.0" stroke="rgb(255,255,255)" stroke-opacity="1.0">
            </line>
            <line x1="18.4" y1="91.36008571135277" x2="23.0" y2="91.36008571135277" stroke-width="1.0" stroke="rgb(255,255,255)" stroke-opacity="1.0">
            </line>
            <g transform="translate(26.9903027277341 95.91008571135276 ) ">
              <text class="legend-item" y="0.0">
              0.2
              </text>
            </g>
            <line x1="0.0" y1="69.02006428351457" x2="4.6" y2="69.02006428351457" stroke-width="1.0" stroke="rgb(255,255,255)" stroke-opacity="1.0">
            </line>
            <line x1="18.4" y1="69.02006428351457" x2="23.0" y2="69.02006428351457" stroke-width="1.0" stroke="rgb(255,255,255)" stroke-opacity="1.0">
            </line>
            <g transform="translate(26.9903027277341 73.57006428351457 ) ">
              <text class="legend-item" y="0.0">
              0.4
              </text>
            </g>
            <line x1="0.0" y1="46.680042855676376" x2="4.6" y2="46.680042855676376" stroke-width="1.0" stroke="rgb(255,255,255)" stroke-opacity="1.0">
            </line>
            <line x1="18.4" y1="46.680042855676376" x2="23.0" y2="46.680042855676376" stroke-width="1.0" stroke="rgb(255,255,255)" stroke-opacity="1.0">
            </line>
            <g transform="translate(26.9903027277341 51.23004285567637 ) ">
              <text class="legend-item" y="0.0">
              0.6
              </text>
            </g>
            <line x1="0.0" y1="24.34002142783818" x2="4.6" y2="24.34002142783818" stroke-width="1.0" stroke="rgb(255,255,255)" stroke-opacity="1.0">
            </line>
            <line x1="18.4" y1="24.34002142783818" x2="23.0" y2="24.34002142783818" stroke-width="1.0" stroke="rgb(255,255,255)" stroke-opacity="1.0">
            </line>
            <g transform="translate(26.9903027277341 28.890021427838178 ) ">
              <text class="legend-item" y="0.0">
              0.8
              </text>
            </g>
            <line x1="0.0" y1="2.0" x2="4.6" y2="2.0" stroke-width="1.0" stroke="rgb(255,255,255)" stroke-opacity="1.0">
            </line>
            <line x1="18.4" y1="2.0" x2="23.0" y2="2.0" stroke-width="1.0" stroke="rgb(255,255,255)" stroke-opacity="1.0">
            </line>
            <g transform="translate(26.9903027277341 6.549999999999999 ) ">
              <text class="legend-item" y="0.0">
              1.0
              </text>
            </g>
          </g>
        </g>
      </g>
    </g>
    <path fill="rgb(0,0,0)" fill-opacity="0.0" stroke="rgb(71,71,71)" stroke-opacity="1.0" stroke-width="0.0" d="M0.0 0.0 L0.0 411.0 L705.0 411.0 L705.0 0.0 Z">
    </path>
  </g>
  <g id="xXxprefixXx2">
  </g>
</svg>