<svg xmlns="http://www.w3.org/2000/svg" xmlns:xlink="http://www.w3.org/1999/xlink" class="plt-container" width="705.0" height="470.0">
  <style type="text/css">
  .plt-container {
   font-family: Lucida Grande, sans-serif;
   user-select: none;
   -webkit-user-select: none;
   -moz-user-select: none;
   -ms-user-select: none;
}
text {
   text-rendering: optimizeLegibility;
}
#xXxprefixXx0 .plot-title {
   fill: #474747;
   font-family: Lucida Grande, sans-serif;
   font-size: 16.0px;
   font-weight: normal;
   font-style: normal;   
}
#xXxprefixXx0 .plot-subtitle {
   fill: #474747;
   font-family: Lucida Grande, sans-serif;
   font-size: 15.0px;
   font-weight: normal;
   font-style: normal;   
}
#xXxprefixXx0 .plot-caption {
   fill: #474747;
   font-family: Lucida Grande, sans-serif;
   font-size: 13.0px;
   font-weight: normal;
   font-style: normal;   
}
#xXxprefixXx0 .legend-title {
   fill: #474747;
   font-family: Lucida Grande, sans-serif;
   font-size: 15.0px;
   font-weight: normal;
   font-style: normal;   
}
#xXxprefixXx0 .legend-item {
   fill: #474747;
   font-family: Lucida Grande, sans-serif;
   font-size: 13.0px;
   font-weight: normal;
   font-style: normal;   
}
#xXxprefixXx0 .axis-title-x {
   fill: #474747;
   font-family: Lucida Grande, sans-serif;
   font-size: 15.0px;
   font-weight: normal;
   font-style: normal;   
}
#xXxprefixXx0 .axis-text-x {
   fill: #474747;
   font-family: Lucida Grande, sans-serif;
   font-size: 13.0px;
   font-weight: normal;
   font-style: normal;   
}
#xXxprefixXx2 .axis-tooltip-text-x {
   fill: #ffffff;
   font-family: Lucida Grande, sans-serif;
   font-size: 13.0px;
   font-weight: normal;
   font-style: normal;   
}
#xXxprefixXx0 .axis-title-y {
   fill: #474747;
   font-family: Lucida Grande, sans-serif;
   font-size: 15.0px;
   font-weight: normal;
   font-style: normal;   
}
#xXxprefixXx0 .axis-text-y {
   fill: #474747;
   font-family: Lucida Grande, sans-serif;
   font-size: 13.0px;
   font-weight: normal;
   font-style: normal;   
}
#xXxprefixXx2 .axis-tooltip-text-y {
   fill: #ffffff;
   font-family: Lucida Grande, sans-serif;
   font-size: 13.0px;
   font-weight: normal;
   font-style: normal;   
}
#xXxprefixXx0 .facet-strip-text-x {
   fill: #474747;
   font-family: Lucida Grande, sans-serif;
   font-size: 13.0px;
   font-weight: normal;
   font-style: normal;   
}
#xXxprefixXx0 .facet-strip-text-y {
   fill: #474747;
   font-family: Lucida Grande, sans-serif;
   font-size: 13.0px;
   font-weight: normal;
   font-style: normal;   
}
#xXxprefixXx2 .tooltip-text {
   fill: #474747;
   font-family: Lucida Grande, sans-serif;
   font-size: 13.0px;
   font-weight: normal;
   font-style: normal;   
}
#xXxprefixXx2 .tooltip-title {
   fill: #474747;
   font-family: Lucida Grande, sans-serif;
   font-size: 13.0px;
   font-weight: bold;
   font-style: normal;   
}
#xXxprefixXx2 .tooltip-label {
   fill: #474747;
   font-family: Lucida Grande, sans-serif;
   font-size: 13.0px;
   font-weight: bold;
   font-style: normal;   
}

  </style>
  <g id="xXxprefixXx0">
    <path fill-rule="evenodd" fill="rgb(255,255,255)" fill-opacity="1.0" d="M0.0 0.0 L0.0 470.0 L705.0 470.0 L705.0 0.0 Z">
    </path>
    <g transform="translate(23.0 10.0 ) ">
      <g transform="translate(21.961210910936405 414.0 ) ">
        <line x1="28.955681796259626" y1="-0.0" x2="28.955681796259626" y2="-414.0" stroke="rgb(233,233,233)" stroke-opacity="1.0" stroke-width="1.0">
        </line>
        <line x1="88.10927075695335" y1="-0.0" x2="88.10927075695335" y2="-414.0" stroke="rgb(233,233,233)" stroke-opacity="1.0" stroke-width="1.0">
        </line>
        <line x1="147.2628597176471" y1="-0.0" x2="147.2628597176471" y2="-414.0" stroke="rgb(233,233,233)" stroke-opacity="1.0" stroke-width="1.0">
        </line>
        <line x1="206.41644867834083" y1="-0.0" x2="206.41644867834083" y2="-414.0" stroke="rgb(233,233,233)" stroke-opacity="1.0" stroke-width="1.0">
        </line>
        <line x1="265.5700376390346" y1="-0.0" x2="265.5700376390346" y2="-414.0" stroke="rgb(233,233,233)" stroke-opacity="1.0" stroke-width="1.0">
        </line>
        <line x1="324.72362659972833" y1="-0.0" x2="324.72362659972833" y2="-414.0" stroke="rgb(233,233,233)" stroke-opacity="1.0" stroke-width="1.0">
        </line>
        <line x1="383.8772155604221" y1="-0.0" x2="383.8772155604221" y2="-414.0" stroke="rgb(233,233,233)" stroke-opacity="1.0" stroke-width="1.0">
        </line>
        <line x1="443.03080452111584" y1="-0.0" x2="443.03080452111584" y2="-414.0" stroke="rgb(233,233,233)" stroke-opacity="1.0" stroke-width="1.0">
        </line>
        <line x1="502.1843934818096" y1="-0.0" x2="502.1843934818096" y2="-414.0" stroke="rgb(233,233,233)" stroke-opacity="1.0" stroke-width="1.0">
        </line>
        <line x1="561.3379824425033" y1="-0.0" x2="561.3379824425033" y2="-414.0" stroke="rgb(233,233,233)" stroke-opacity="1.0" stroke-width="1.0">
        </line>
        <line x1="620.491571403197" y1="-0.0" x2="620.491571403197" y2="-414.0" stroke="rgb(233,233,233)" stroke-opacity="1.0" stroke-width="1.0">
        </line>
        <g transform="translate(28.955681796259626 0.0 ) ">
          <line stroke-width="1.0" stroke="rgb(71,71,71)" stroke-opacity="1.0" x2="0.0" y2="4.0">
          </line>
          <g transform="translate(0.0 7.0 ) ">
            <text class="axis-text-x" text-anchor="middle" dy="0.7em">
            -5
            </text>
          </g>
        </g>
        <g transform="translate(88.10927075695335 0.0 ) ">
          <line stroke-width="1.0" stroke="rgb(71,71,71)" stroke-opacity="1.0" x2="0.0" y2="4.0">
          </line>
          <g transform="translate(0.0 7.0 ) ">
            <text class="axis-text-x" text-anchor="middle" dy="0.7em">
            -4
            </text>
          </g>
        </g>
        <g transform="translate(147.2628597176471 0.0 ) ">
          <line stroke-width="1.0" stroke="rgb(71,71,71)" stroke-opacity="1.0" x2="0.0" y2="4.0">
          </line>
          <g transform="translate(0.0 7.0 ) ">
            <text class="axis-text-x" text-anchor="middle" dy="0.7em">
            -3
            </text>
          </g>
        </g>
        <g transform="translate(206.41644867834083 0.0 ) ">
          <line stroke-width="1.0" stroke="rgb(71,71,71)" stroke-opacity="1.0" x2="0.0" y2="4.0">
          </line>
          <g transform="translate(0.0 7.0 ) ">
            <text class="axis-text-x" text-anchor="middle" dy="0.7em">
            -2
            </text>
          </g>
        </g>
        <g transform="translate(265.5700376390346 0.0 ) ">
          <line stroke-width="1.0" stroke="rgb(71,71,71)" stroke-opacity="1.0" x2="0.0" y2="4.0">
          </line>
          <g transform="translate(0.0 7.0 ) ">
            <text class="axis-text-x" text-anchor="middle" dy="0.7em">
            -1
            </text>
          </g>
        </g>
        <g transform="translate(324.72362659972833 0.0 ) ">
          <line stroke-width="1.0" stroke="rgb(71,71,71)" stroke-opacity="1.0" x2="0.0" y2="4.0">
          </line>
          <g transform="translate(0.0 7.0 ) ">
            <text class="axis-text-x" text-anchor="middle" dy="0.7em">
            0
            </text>
          </g>
        </g>
        <g transform="translate(383.8772155604221 0.0 ) ">
          <line stroke-width="1.0" stroke="rgb(71,71,71)" stroke-opacity="1.0" x2="0.0" y2="4.0">
          </line>
          <g transform="translate(0.0 7.0 ) ">
            <text class="axis-text-x" text-anchor="middle" dy="0.7em">
            1
            </text>
          </g>
        </g>
        <g transform="translate(443.03080452111584 0.0 ) ">
          <line stroke-width="1.0" stroke="rgb(71,71,71)" stroke-opacity="1.0" x2="0.0" y2="4.0">
          </line>
          <g transform="translate(0.0 7.0 ) ">
            <text class="axis-text-x" text-anchor="middle" dy="0.7em">
            2
            </text>
          </g>
        </g>
        <g transform="translate(502.1843934818096 0.0 ) ">
          <line stroke-width="1.0" stroke="rgb(71,71,71)" stroke-opacity="1.0" x2="0.0" y2="4.0">
          </line>
          <g transform="translate(0.0 7.0 ) ">
            <text class="axis-text-x" text-anchor="middle" dy="0.7em">
            3
            </text>
          </g>
        </g>
        <g transform="translate(561.3379824425033 0.0 ) ">
          <line stroke-width="1.0" stroke="rgb(71,71,71)" stroke-opacity="1.0" x2="0.0" y2="4.0">
          </line>
          <g transform="translate(0.0 7.0 ) ">
            <text class="axis-text-x" text-anchor="middle" dy="0.7em">
            4
            </text>
          </g>
        </g>
        <g transform="translate(620.491571403197 0.0 ) ">
          <line stroke-width="1.0" stroke="rgb(71,71,71)" stroke-opacity="1.0" x2="0.0" y2="4.0">
          </line>
          <g transform="translate(0.0 7.0 ) ">
            <text class="axis-text-x" text-anchor="middle" dy="0.7em">
            5
            </text>
          </g>
        </g>
        <line x1="0.0" y1="0.0" x2="650.0387890890636" y2="0.0" stroke-width="1.0" stroke="rgb(71,71,71)" stroke-opacity="1.0">
        </line>
      </g>
      <g transform="translate(21.961210910936405 0.0 ) ">
        <line x1="0.0" y1="385.26782880758765" x2="650.0387890890636" y2="385.26782880758765" stroke="rgb(233,233,233)" stroke-opacity="1.0" stroke-width="1.0">
        </line>
        <line x1="0.0" y1="353.06976973348674" x2="650.0387890890636" y2="353.06976973348674" stroke="rgb(233,233,233)" stroke-opacity="1.0" stroke-width="1.0">
        </line>
        <line x1="0.0" y1="320.8717106593858" x2="650.0387890890636" y2="320.8717106593858" stroke="rgb(233,233,233)" stroke-opacity="1.0" stroke-width="1.0">
        </line>
        <line x1="0.0" y1="288.6736515852849" x2="650.0387890890636" y2="288.6736515852849" stroke="rgb(233,233,233)" stroke-opacity="1.0" stroke-width="1.0">
        </line>
        <line x1="0.0" y1="256.475592511184" x2="650.0387890890636" y2="256.475592511184" stroke="rgb(233,233,233)" stroke-opacity="1.0" stroke-width="1.0">
        </line>
        <line x1="0.0" y1="224.27753343708306" x2="650.0387890890636" y2="224.27753343708306" stroke="rgb(233,233,233)" stroke-opacity="1.0" stroke-width="1.0">
        </line>
        <line x1="0.0" y1="192.07947436298215" x2="650.0387890890636" y2="192.07947436298215" stroke="rgb(233,233,233)" stroke-opacity="1.0" stroke-width="1.0">
        </line>
        <line x1="0.0" y1="159.88141528888124" x2="650.0387890890636" y2="159.88141528888124" stroke="rgb(233,233,233)" stroke-opacity="1.0" stroke-width="1.0">
        </line>
        <line x1="0.0" y1="127.6833562147803" x2="650.0387890890636" y2="127.6833562147803" stroke="rgb(233,233,233)" stroke-opacity="1.0" stroke-width="1.0">
        </line>
        <line x1="0.0" y1="95.48529714067939" x2="650.0387890890636" y2="95.48529714067939" stroke="rgb(233,233,233)" stroke-opacity="1.0" stroke-width="1.0">
        </line>
        <line x1="0.0" y1="63.28723806657848" x2="650.0387890890636" y2="63.28723806657848" stroke="rgb(233,233,233)" stroke-opacity="1.0" stroke-width="1.0">
        </line>
        <line x1="0.0" y1="31.08917899247757" x2="650.0387890890636" y2="31.08917899247757" stroke="rgb(233,233,233)" stroke-opacity="1.0" stroke-width="1.0">
        </line>
        <g transform="translate(0.0 385.26782880758765 ) ">
          <g transform="translate(-3.0 0.0 ) ">
            <text class="axis-text-y" text-anchor="end" dy="0.35em">
            -4
            </text>
          </g>
        </g>
        <g transform="translate(0.0 353.06976973348674 ) ">
          <g transform="translate(-3.0 0.0 ) ">
            <text class="axis-text-y" text-anchor="end" dy="0.35em">
            -2
            </text>
          </g>
        </g>
        <g transform="translate(0.0 320.8717106593858 ) ">
          <g transform="translate(-3.0 0.0 ) ">
            <text class="axis-text-y" text-anchor="end" dy="0.35em">
            0
            </text>
          </g>
        </g>
        <g transform="translate(0.0 288.6736515852849 ) ">
          <g transform="translate(-3.0 0.0 ) ">
            <text class="axis-text-y" text-anchor="end" dy="0.35em">
            2
            </text>
          </g>
        </g>
        <g transform="translate(0.0 256.475592511184 ) ">
          <g transform="translate(-3.0 0.0 ) ">
            <text class="axis-text-y" text-anchor="end" dy="0.35em">
            4
            </text>
          </g>
        </g>
        <g transform="translate(0.0 224.27753343708306 ) ">
          <g transform="translate(-3.0 0.0 ) ">
            <text class="axis-text-y" text-anchor="end" dy="0.35em">
            6
            </text>
          </g>
        </g>
        <g transform="translate(0.0 192.07947436298215 ) ">
          <g transform="translate(-3.0 0.0 ) ">
            <text class="axis-text-y" text-anchor="end" dy="0.35em">
            8
            </text>
          </g>
        </g>
        <g transform="translate(0.0 159.88141528888124 ) ">
          <g transform="translate(-3.0 0.0 ) ">
            <text class="axis-text-y" text-anchor="end" dy="0.35em">
            10
            </text>
          </g>
        </g>
        <g transform="translate(0.0 127.6833562147803 ) ">
          <g transform="translate(-3.0 0.0 ) ">
            <text class="axis-text-y" text-anchor="end" dy="0.35em">
            12
            </text>
          </g>
        </g>
        <g transform="translate(0.0 95.48529714067939 ) ">
          <g transform="translate(-3.0 0.0 ) ">
            <text class="axis-text-y" text-anchor="end" dy="0.35em">
            14
            </text>
          </g>
        </g>
        <g transform="translate(0.0 63.28723806657848 ) ">
          <g transform="translate(-3.0 0.0 ) ">
            <text class="axis-text-y" text-anchor="end" dy="0.35em">
            16
            </text>
          </g>
        </g>
        <g transform="translate(0.0 31.08917899247757 ) ">
          <g transform="translate(-3.0 0.0 ) ">
            <text class="axis-text-y" text-anchor="end" dy="0.35em">
            18
            </text>
          </g>
        </g>
      </g>
      <g transform="translate(21.961210910936405 0.0 ) " clip-path="url(#xXxprefixXx1)" clip-bounds-jfx="[rect (0.0, 0.0), (650.0387890890636, 414.0)]">
        <defs>
          <clipPath id="xXxprefixXx1">
            <rect x="0.0" y="0.0" width="650.0387890890636" height="414.0">
            </rect>
          </clipPath>
        </defs>
        <g>
          <path d="M29.547217685866542 395.1818181818182 L29.547217685866542 395.1818181818182 L35.51635257190014 392.0225693777319 L41.48548745793386 388.8778840961951 L47.45462234396746 385.7487335661208 L53.42375723000106 382.6360425281343 L59.39289211603477 379.5405748571532 L65.36202700206837 376.46292918186737 L71.331161888102 373.4035211240299 L77.30029677413569 370.36250540735153 L83.26943166016932 367.3398264693244 L89.23856654620292 364.33521793363565 L95.20770143223658 361.34825780357045 L101.17683631827023 358.378429161772 L107.14597120430386 355.425142612811 L113.11510609033749 352.4877799319441 L119.08424097637115 349.56574166102916 L125.05337586240478 346.65846108319164 L131.02251074843844 343.76539976785244 L136.9916456344721 340.88593839909726 L142.9607805205057 338.01933995586273 L148.92991540653935 335.1646264637569 L154.899050292573 332.3203801869098 L160.86818517860664 329.4846768017105 L166.8373200646403 326.6556279947318 L172.80645495067392 323.8339377136008 L178.77558983670755 321.2835477993702 L184.7447247227412 319.2758515168966 L190.71385960877487 317.22747036608143 L196.68299449480847 315.18413913238436 L202.65212938084213 313.37724560605295 L208.62126426687578 311.40548756941024 L214.5903991529094 309.42992937184744 L220.55953403894307 307.53403942570077 L226.52866892497673 305.8160423967156 L232.49780381101033 304.123825027465 L238.466938697044 302.47514708513154 L244.43607358307764 301.50254045376266 L250.40520846911124 299.9151394956618 L256.3743433551449 298.3463794507983 L262.34347824117856 297.2752135174403 L268.31261312721216 296.0407124539749 L274.2817480132458 295.06958587327875 L280.2508828992795 294.0411441841277 L286.22001778531313 293.0738505245727 L292.18915267134673 292.16883479026205 L298.1582875573804 291.5385580701857 L304.12742244341405 290.97296621869384 L310.09655732944765 290.51424730927346 L316.06569221548136 290.05250929983424 L322.03482710151496 289.76312717634636 L328.00396198754856 289.58850711077747 L333.9730968735823 289.5420961812986 L339.9422317596159 289.5611190582803 L345.91136664564954 289.42629768442015 L351.8805015316832 289.4428069129325 L357.8496364177168 289.5887239242833 L363.81877130375045 289.96191852096973 L369.7879061897841 290.11444037818114 L375.7570410758177 290.4358281302307 L381.72617596185137 290.7133389308137 L387.695310847885 290.9446102027103 L393.6644457339187 291.1522936016277 L399.6335806199523 291.2476947329518 L405.60271550598594 291.85446226374376 L411.5718503920196 292.4136235082455 L417.5409852780532 293.0393296472796 L423.51012016408686 293.6609489834101 L429.4792550501205 294.2159163844841 L435.4483899361541 294.8386678314308 L441.41752482218783 295.46745272559997 L447.38665970822143 296.09365596042784 L453.35579459425503 296.7934285487107 L459.32492948028874 297.5133362516447 L465.29406436632235 298.1425311873899 L471.263199252356 298.84397962031716 L477.23233413838966 299.63100895914556 L483.2014690244233 300.3624420610651 L489.1706039104569 301.15653880254814 L495.1397387964906 301.9524262440688 L501.1088736825242 302.75852793245735 L507.07800856855783 303.5837193903356 L513.0471434545915 304.41074292020966 L519.0162783406251 305.23954293914153 L524.9854132266587 306.0700512062475 L530.9545481126925 306.90221100056704 L536.923682998726 307.73598038192483 L542.8928178847597 308.57132256876474 L548.8619527707933 309.40819783315254 L554.8310876568269 310.2465540397304 L560.8002225428606 311.08633078561445 L566.7693574288943 311.92746109694855 L572.7384923149278 312.7698605906213 L578.7076272009615 313.61343729149735 L584.6767620869953 314.4580938333921 L590.6458969730288 315.3037257556654 L596.6150318590625 316.1502334462238 L602.5841667450961 316.9975264078864 L608.5533016311297 317.84552499398677 L614.5224365171634 318.69415013634324 L620.491571403197 319.54332156745687 " fill="none" stroke-width="1.6500000000000001" stroke="rgb(71,71,71)" stroke-opacity="1.0">
          </path>
        </g>
        <g>
          <path d="M29.547217685866542 18.818181818181813 L29.547217685866542 18.818181818181813 L35.51635257190014 28.329390884372515 L41.48548745793386 37.79423827531218 L47.45462234396746 47.20961111204048 L53.42375723000106 56.57215406299065 L59.39289211603477 65.87846418186285 L65.36202700206837 75.12531782768986 L71.331161888102 84.31010592181866 L77.30029677413569 93.43136144246716 L83.26943166016932 102.48874429385651 L89.23856654620292 111.48321043213011 L95.20770143223658 120.41648219929823 L101.17683631827023 129.29068870490096 L107.14597120430386 138.1082459297018 L113.11510609033749 146.87173505643898 L119.08424097637115 155.58384078214556 L125.05337586240478 164.24725990998124 L131.02251074843844 172.86468919101446 L136.9916456344721 181.4391123725198 L142.9607805205057 189.973825541393 L148.92991540653935 198.47277489233514 L154.899050292573 206.94123071092622 L160.86818517860664 215.38634964268212 L166.8373200646403 223.81672518082382 L172.80645495067392 232.2381010934222 L178.77558983670755 239.851066558009 L184.7447247227412 245.7774056687664 L190.71385960877487 251.80346230739002 L196.68299449480847 257.7980688835153 L202.65212938084213 263.02958522906226 L208.62126426687578 268.7685884688934 L214.5903991529094 274.508026306272 L220.55953403894307 279.98373560212366 L226.52866892497673 284.87494531264525 L232.49780381101033 289.6714376643809 L238.466938697044 294.3148933735989 L244.43607358307764 296.7871087446904 L250.40520846911124 301.21805864008746 L256.3743433551449 305.5732440317019 L262.34347824117856 308.3519578666058 L268.31261312721216 311.61806807330714 L274.2817480132458 314.07287971962586 L280.2508828992795 316.6833848164801 L286.22001778531313 319.11341882023135 L292.18915267134673 321.373921739034 L298.1582875573804 322.8473549750106 L304.12742244341405 324.1509738684282 L310.09655732944765 325.1657388027996 L316.06569221548136 326.2050705031432 L322.03482710151496 326.7719846348718 L328.00396198754856 327.04618953488483 L333.9730968735823 327.01204382983394 L339.9422317596159 326.8421234491641 L345.91136664564954 327.01427317708084 L351.8805015316832 326.82582962680465 L357.8496364177168 326.3693531663572 L363.81877130375045 325.53764683385793 L369.7879061897841 325.0863956166625 L375.7570410758177 324.3749663785746 L381.72617596185137 323.74349633143794 L387.695310847885 323.1684626360542 L393.6644457339187 322.592039063589 L399.6335806199523 322.07469987218934 L405.60271550598594 321.07692011495504 L411.5718503920196 320.16895738821677 L417.5409852780532 319.22358702696454 L423.51012016408686 318.36266086807314 L429.4792550501205 317.5201588444437 L435.4483899361541 316.6597097720413 L441.41752482218783 315.8606981486726 L447.38665970822143 315.0716007252992 L453.35579459425503 314.3830479578555 L459.32492948028874 313.72574366932133 L465.29406436632235 313.0287483889645 L471.263199252356 312.39383587346146 L477.23233413838966 311.96531728884446 L483.2014690244233 311.4108193157396 L489.1706039104569 311.1263524316525 L495.1397387964906 310.9221013756788 L501.1088736825242 310.8132437229649 L507.07800856855783 310.7767581684983 L513.0471434545915 310.7640169207268 L519.0162783406251 310.7701403259175 L524.9854132266587 310.7920426795611 L530.9545481126925 310.82791208775643 L536.923682998726 310.8768073449856 L542.8928178847597 310.9383852105033 L548.8619527707933 311.01277697401736 L554.8310876568269 311.10048966424927 L560.8002225428606 311.202260046768 L566.7693574288943 311.31901264402035 L572.7384923149278 311.4517537406036 L578.7076272009615 311.60144753191054 L584.6767620869953 311.7689892252643 L590.6458969730288 311.9552293453477 L596.6150318590625 312.16092872306524 L602.5841667450961 312.38665704659803 L608.5533016311297 312.6328021456385 L614.5224365171634 312.8995077150642 L620.491571403197 313.18649375322076 " fill="none" stroke-width="1.6500000000000001" stroke="rgb(71,71,71)" stroke-opacity="1.0">
          </path>
        </g>
      </g>
    </g>
    <g transform="translate(14.5 217.0 ) rotate(-90.0 ) ">
      <text class="axis-title-y" y="0.0" text-anchor="middle">
      y
      </text>
    </g>
    <g transform="translate(369.9806054554682 461.5 ) ">
      <text class="axis-title-x" y="0.0" text-anchor="middle">
      x
      </text>
    </g>
    <path fill="rgb(0,0,0)" fill-opacity="0.0" stroke="rgb(71,71,71)" stroke-opacity="1.0" stroke-width="0.0" d="M0.0 0.0 L0.0 470.0 L705.0 470.0 L705.0 0.0 Z">
    </path>
  </g>
  <g id="xXxprefixXx2">
  </g>
</svg>