<svg xmlns="http://www.w3.org/2000/svg" xmlns:xlink="http://www.w3.org/1999/xlink" class="plt-container" width="705.0" height="470.0">
  <style type="text/css">
  .plt-container {
   font-family: Lucida Grande, sans-serif;
   user-select: none;
   -webkit-user-select: none;
   -moz-user-select: none;
   -ms-user-select: none;
}
text {
   text-rendering: optimizeLegibility;
}
#xXxprefixXx0 .plot-title {
   fill: #474747;
   font-family: Lucida Grande, sans-serif;
   font-size: 16.0px;
   font-weight: normal;
   font-style: normal;   
}
#xXxprefixXx0 .plot-subtitle {
   fill: #474747;
   font-family: Lucida Grande, sans-serif;
   font-size: 15.0px;
   font-weight: normal;
   font-style: normal;   
}
#xXxprefixXx0 .plot-caption {
   fill: #474747;
   font-family: Lucida Grande, sans-serif;
   font-size: 13.0px;
   font-weight: normal;
   font-style: normal;   
}
#xXxprefixXx0 .legend-title {
   fill: #474747;
   font-family: Lucida Grande, sans-serif;
   font-size: 15.0px;
   font-weight: normal;
   font-style: normal;   
}
#xXxprefixXx0 .legend-item {
   fill: #474747;
   font-family: Lucida Grande, sans-serif;
   font-size: 13.0px;
   font-weight: normal;
   font-style: normal;   
}
#xXxprefixXx0 .axis-title-x {
   fill: #474747;
   font-family: Lucida Grande, sans-serif;
   font-size: 15.0px;
   font-weight: normal;
   font-style: normal;   
}
#xXxprefixXx0 .axis-text-x {
   fill: #474747;
   font-family: Lucida Grande, sans-serif;
   font-size: 13.0px;
   font-weight: normal;
   font-style: normal;   
}
#xXxprefixXx2 .axis-tooltip-text-x {
   fill: #ffffff;
   font-family: Lucida Grande, sans-serif;
   font-size: 13.0px;
   font-weight: normal;
   font-style: normal;   
}
#xXxprefixXx0 .axis-title-y {
   fill: #474747;
   font-family: Lucida Grande, sans-serif;
   font-size: 15.0px;
   font-weight: normal;
   font-style: normal;   
}
#xXxprefixXx0 .axis-text-y {
   fill: #474747;
   font-family: Lucida Grande, sans-serif;
   font-size: 13.0px;
   font-weight: normal;
   font-style: normal;   
}
#xXxprefixXx2 .axis-tooltip-text-y {
   fill: #ffffff;
   font-family: Lucida Grande, sans-serif;
   font-size: 13.0px;
   font-weight: normal;
   font-style: normal;   
}
#xXxprefixXx0 .facet-strip-text-x {
   fill: #474747;
   font-family: Lucida Grande, sans-serif;
   font-size: 13.0px;
   font-weight: normal;
   font-style: normal;   
}
#xXxprefixXx0 .facet-strip-text-y {
   fill: #474747;
   font-family: Lucida Grande, sans-serif;
   font-size: 13.0px;
   font-weight: normal;
   font-style: normal;   
}
#xXxprefixXx2 .tooltip-text {
   fill: #474747;
   font-family: Lucida Grande, sans-serif;
   font-size: 13.0px;
   font-weight: normal;
   font-style: normal;   
}
#xXxprefixXx2 .tooltip-title {
   fill: #474747;
   font-family: Lucida Grande, sans-serif;
   font-size: 13.0px;
   font-weight: bold;
   font-style: normal;   
}
#xXxprefixXx2 .tooltip-label {
   fill: #474747;
   font-family: Lucida Grande, sans-serif;
   font-size: 13.0px;
   font-weight: bold;
   font-style: normal;   
}

  </style>
  <g id="xXxprefixXx0">
    <path fill-rule="evenodd" fill="rgb(255,255,255)" fill-opacity="1.0" d="M0.0 0.0 L0.0 470.0 L705.0 470.0 L705.0 0.0 Z">
    </path>
    <g transform="translate(23.0 10.0 ) ">
      <g transform="translate(42.99591213121782 414.0 ) ">
        <line x1="58.62107539390773" y1="-0.0" x2="58.62107539390773" y2="-414.0" stroke="rgb(233,233,233)" stroke-opacity="1.0" stroke-width="1.0">
        </line>
        <line x1="120.99899356961626" y1="-0.0" x2="120.99899356961626" y2="-414.0" stroke="rgb(233,233,233)" stroke-opacity="1.0" stroke-width="1.0">
        </line>
        <line x1="183.3769117453248" y1="-0.0" x2="183.3769117453248" y2="-414.0" stroke="rgb(233,233,233)" stroke-opacity="1.0" stroke-width="1.0">
        </line>
        <line x1="245.75482992103332" y1="-0.0" x2="245.75482992103332" y2="-414.0" stroke="rgb(233,233,233)" stroke-opacity="1.0" stroke-width="1.0">
        </line>
        <line x1="308.13274809674186" y1="-0.0" x2="308.13274809674186" y2="-414.0" stroke="rgb(233,233,233)" stroke-opacity="1.0" stroke-width="1.0">
        </line>
        <line x1="370.5106662724504" y1="-0.0" x2="370.5106662724504" y2="-414.0" stroke="rgb(233,233,233)" stroke-opacity="1.0" stroke-width="1.0">
        </line>
        <line x1="432.88858444815895" y1="-0.0" x2="432.88858444815895" y2="-414.0" stroke="rgb(233,233,233)" stroke-opacity="1.0" stroke-width="1.0">
        </line>
        <line x1="495.2665026238675" y1="-0.0" x2="495.2665026238675" y2="-414.0" stroke="rgb(233,233,233)" stroke-opacity="1.0" stroke-width="1.0">
        </line>
        <g transform="translate(58.62107539390773 0.0 ) ">
          <line stroke-width="1.0" stroke="rgb(71,71,71)" stroke-opacity="1.0" x2="0.0" y2="4.0">
          </line>
          <g transform="translate(0.0 7.0 ) ">
            <text class="axis-text-x" text-anchor="middle" dy="0.7em">
            200
            </text>
          </g>
        </g>
        <g transform="translate(120.99899356961626 0.0 ) ">
          <line stroke-width="1.0" stroke="rgb(71,71,71)" stroke-opacity="1.0" x2="0.0" y2="4.0">
          </line>
          <g transform="translate(0.0 7.0 ) ">
            <text class="axis-text-x" text-anchor="middle" dy="0.7em">
            300
            </text>
          </g>
        </g>
        <g transform="translate(183.3769117453248 0.0 ) ">
          <line stroke-width="1.0" stroke="rgb(71,71,71)" stroke-opacity="1.0" x2="0.0" y2="4.0">
          </line>
          <g transform="translate(0.0 7.0 ) ">
            <text class="axis-text-x" text-anchor="middle" dy="0.7em">
            400
            </text>
          </g>
        </g>
        <g transform="translate(245.75482992103332 0.0 ) ">
          <line stroke-width="1.0" stroke="rgb(71,71,71)" stroke-opacity="1.0" x2="0.0" y2="4.0">
          </line>
          <g transform="translate(0.0 7.0 ) ">
            <text class="axis-text-x" text-anchor="middle" dy="0.7em">
            500
            </text>
          </g>
        </g>
        <g transform="translate(308.13274809674186 0.0 ) ">
          <line stroke-width="1.0" stroke="rgb(71,71,71)" stroke-opacity="1.0" x2="0.0" y2="4.0">
          </line>
          <g transform="translate(0.0 7.0 ) ">
            <text class="axis-text-x" text-anchor="middle" dy="0.7em">
            600
            </text>
          </g>
        </g>
        <g transform="translate(370.5106662724504 0.0 ) ">
          <line stroke-width="1.0" stroke="rgb(71,71,71)" stroke-opacity="1.0" x2="0.0" y2="4.0">
          </line>
          <g transform="translate(0.0 7.0 ) ">
            <text class="axis-text-x" text-anchor="middle" dy="0.7em">
            700
            </text>
          </g>
        </g>
        <g transform="translate(432.88858444815895 0.0 ) ">
          <line stroke-width="1.0" stroke="rgb(71,71,71)" stroke-opacity="1.0" x2="0.0" y2="4.0">
          </line>
          <g transform="translate(0.0 7.0 ) ">
            <text class="axis-text-x" text-anchor="middle" dy="0.7em">
            800
            </text>
          </g>
        </g>
        <g transform="translate(495.2665026238675 0.0 ) ">
          <line stroke-width="1.0" stroke="rgb(71,71,71)" stroke-opacity="1.0" x2="0.0" y2="4.0">
          </line>
          <g transform="translate(0.0 7.0 ) ">
            <text class="axis-text-x" text-anchor="middle" dy="0.7em">
            900
            </text>
          </g>
        </g>
        <line x1="0.0" y1="0.0" x2="542.0456878478216" y2="0.0" stroke-width="1.0" stroke="rgb(71,71,71)" stroke-opacity="1.0">
        </line>
      </g>
      <g transform="translate(42.99591213121782 0.0 ) ">
        <line x1="0.0" y1="359.80363400125714" x2="542.0456878478216" y2="359.80363400125714" stroke="rgb(233,233,233)" stroke-opacity="1.0" stroke-width="1.0">
        </line>
        <line x1="0.0" y1="305.60726800251433" x2="542.0456878478216" y2="305.60726800251433" stroke="rgb(233,233,233)" stroke-opacity="1.0" stroke-width="1.0">
        </line>
        <line x1="0.0" y1="251.4109020037715" x2="542.0456878478216" y2="251.4109020037715" stroke="rgb(233,233,233)" stroke-opacity="1.0" stroke-width="1.0">
        </line>
        <line x1="0.0" y1="197.21453600502866" x2="542.0456878478216" y2="197.21453600502866" stroke="rgb(233,233,233)" stroke-opacity="1.0" stroke-width="1.0">
        </line>
        <line x1="0.0" y1="143.01817000628586" x2="542.0456878478216" y2="143.01817000628586" stroke="rgb(233,233,233)" stroke-opacity="1.0" stroke-width="1.0">
        </line>
        <line x1="0.0" y1="88.821804007543" x2="542.0456878478216" y2="88.821804007543" stroke="rgb(233,233,233)" stroke-opacity="1.0" stroke-width="1.0">
        </line>
        <line x1="0.0" y1="34.62543800880019" x2="542.0456878478216" y2="34.62543800880019" stroke="rgb(233,233,233)" stroke-opacity="1.0" stroke-width="1.0">
        </line>
        <g transform="translate(0.0 414.0 ) ">
          <g transform="translate(-3.0 0.0 ) ">
            <text class="axis-text-y" text-anchor="end" dy="0.35em">
            0.000
            </text>
          </g>
        </g>
        <g transform="translate(0.0 359.80363400125714 ) ">
          <g transform="translate(-3.0 0.0 ) ">
            <text class="axis-text-y" text-anchor="end" dy="0.35em">
            0.001
            </text>
          </g>
        </g>
        <g transform="translate(0.0 305.60726800251433 ) ">
          <g transform="translate(-3.0 0.0 ) ">
            <text class="axis-text-y" text-anchor="end" dy="0.35em">
            0.002
            </text>
          </g>
        </g>
        <g transform="translate(0.0 251.4109020037715 ) ">
          <g transform="translate(-3.0 0.0 ) ">
            <text class="axis-text-y" text-anchor="end" dy="0.35em">
            0.003
            </text>
          </g>
        </g>
        <g transform="translate(0.0 197.21453600502866 ) ">
          <g transform="translate(-3.0 0.0 ) ">
            <text class="axis-text-y" text-anchor="end" dy="0.35em">
            0.004
            </text>
          </g>
        </g>
        <g transform="translate(0.0 143.01817000628586 ) ">
          <g transform="translate(-3.0 0.0 ) ">
            <text class="axis-text-y" text-anchor="end" dy="0.35em">
            0.005
            </text>
          </g>
        </g>
        <g transform="translate(0.0 88.821804007543 ) ">
          <g transform="translate(-3.0 0.0 ) ">
            <text class="axis-text-y" text-anchor="end" dy="0.35em">
            0.006
            </text>
          </g>
        </g>
        <g transform="translate(0.0 34.62543800880019 ) ">
          <g transform="translate(-3.0 0.0 ) ">
            <text class="axis-text-y" text-anchor="end" dy="0.35em">
            0.007
            </text>
          </g>
        </g>
      </g>
      <g transform="translate(42.99591213121782 0.0 ) " clip-path="url(#xXxprefixXx1)" clip-bounds-jfx="[rect (0.0, 0.0), (542.0456878478216, 414.0)]">
        <defs>
          <clipPath id="xXxprefixXx1">
            <rect x="0.0" y="0.0" width="542.0456878478216" height="414.0">
            </rect>
          </clipPath>
        </defs>
        <g>
          <path d="M24.63844035671916 411.3255813953488 L24.63844035671916 411.3255813953488 L50.573640732213036 403.6843853820598 L76.50884110770687 372.3554817275747 L102.44404148320072 308.16943521594686 L128.3792418586946 208.4518272425249 L154.31444223418845 86.95681063122925 L180.24964260968233 19.714285714285722 L206.1848429851762 57.156146179402015 L232.12004336067002 148.8504983388704 L258.05524373616385 286.77408637873754 L283.9904441116578 365.4784053156146 L309.92564448715154 392.6046511627907 L335.8608448626455 411.3255813953488 L361.79604523813924 412.8538205980066 L387.7312456136332 414.0 L413.66644598912694 414.0 L439.6016463646209 414.0 L465.5368467401147 414.0 L491.4720471156086 414.0 L517.4072474911023 414.0 L517.4072474911023 414.0 L491.4720471156086 414.0 L465.5368467401147 414.0 L439.6016463646209 414.0 L413.66644598912694 414.0 L387.7312456136332 414.0 L361.79604523813924 414.0 L335.8608448626455 414.0 L309.92564448715154 414.0 L283.9904441116578 414.0 L258.05524373616385 414.0 L232.12004336067002 414.0 L206.1848429851762 414.0 L180.24964260968233 414.0 L154.31444223418845 414.0 L128.3792418586946 414.0 L102.44404148320072 414.0 L76.50884110770687 414.0 L50.573640732213036 414.0 L24.63844035671916 414.0 Z" fill="rgb(55,126,184)" stroke-width="1.0" fill-opacity="0.6">
          </path>
        </g>
        <g>
          <path d="M24.63844035671916 411.3255813953488 L24.63844035671916 411.3255813953488 L50.573640732213036 403.6843853820598 L76.50884110770687 372.3554817275747 L102.44404148320072 308.16943521594686 L128.3792418586946 208.4518272425249 L154.31444223418845 86.95681063122925 L180.24964260968233 19.714285714285722 L206.1848429851762 57.156146179402015 L232.12004336067002 148.8504983388704 L258.05524373616385 286.77408637873754 L283.9904441116578 365.4784053156146 L309.92564448715154 392.6046511627907 L335.8608448626455 411.3255813953488 L361.79604523813924 412.8538205980066 L387.7312456136332 414.0 L413.66644598912694 414.0 L439.6016463646209 414.0 L465.5368467401147 414.0 L491.4720471156086 414.0 L517.4072474911023 414.0 " fill="none" stroke-width="1.6500000000000001" stroke="rgb(71,71,71)" stroke-opacity="1.0">
          </path>
        </g>
        <g>
          <path d="M24.63844035671916 413.2178992794169 L24.63844035671916 413.2178992794169 L50.573640732213036 411.65369783825054 L76.50884110770687 406.17899279416855 L102.44404148320072 397.575884867754 L128.3792418586946 377.762666612981 L154.31444223418845 336.0506281818799 L180.24964260968233 293.81718927039003 L206.1848429851762 246.10904531481822 L232.12004336067002 200.48650328080146 L258.05524373616385 205.70050808468906 L283.9904441116578 216.6499181728531 L309.92564448715154 286.51758254494735 L335.8608448626455 346.4786377896552 L361.79604523813924 375.1556642110371 L387.7312456136332 399.9221870295034 L413.66644598912694 409.8287961568899 L439.6016463646209 412.4357985588337 L465.5368467401147 413.47859951961124 L491.4720471156086 413.7392997598056 L517.4072474911023 413.7392997598056 L517.4072474911023 414.0 L491.4720471156086 414.0 L465.5368467401147 414.0 L439.6016463646209 414.0 L413.66644598912694 414.0 L387.7312456136332 414.0 L361.79604523813924 414.0 L335.8608448626455 414.0 L309.92564448715154 414.0 L283.9904441116578 414.0 L258.05524373616385 414.0 L232.12004336067002 414.0 L206.1848429851762 414.0 L180.24964260968233 414.0 L154.31444223418845 414.0 L128.3792418586946 414.0 L102.44404148320072 414.0 L76.50884110770687 414.0 L50.573640732213036 414.0 L24.63844035671916 414.0 Z" fill="rgb(228,26,28)" stroke-width="1.0" fill-opacity="0.6">
          </path>
        </g>
        <g>
          <path d="M24.63844035671916 413.2178992794169 L24.63844035671916 413.2178992794169 L50.573640732213036 411.65369783825054 L76.50884110770687 406.17899279416855 L102.44404148320072 397.575884867754 L128.3792418586946 377.762666612981 L154.31444223418845 336.0506281818799 L180.24964260968233 293.81718927039003 L206.1848429851762 246.10904531481822 L232.12004336067002 200.48650328080146 L258.05524373616385 205.70050808468906 L283.9904441116578 216.6499181728531 L309.92564448715154 286.51758254494735 L335.8608448626455 346.4786377896552 L361.79604523813924 375.1556642110371 L387.7312456136332 399.9221870295034 L413.66644598912694 409.8287961568899 L439.6016463646209 412.4357985588337 L465.5368467401147 413.47859951961124 L491.4720471156086 413.7392997598056 L517.4072474911023 413.7392997598056 " fill="none" stroke-width="1.6500000000000001" stroke="rgb(71,71,71)" stroke-opacity="1.0">
          </path>
        </g>
      </g>
    </g>
    <g transform="translate(14.5 217.0 ) rotate(-90.0 ) ">
      <text class="axis-title-y" y="0.0" text-anchor="middle">
      density
      </text>
    </g>
    <g transform="translate(337.0187560551286 461.5 ) ">
      <text class="axis-title-x" y="0.0" text-anchor="middle">
      x
      </text>
    </g>
    <g transform="translate(618.0415999790393 172.75 ) ">
      <rect x="5.0" y="5.0" height="78.5" width="76.95840002096065" stroke="rgb(71,71,71)" stroke-opacity="1.0" stroke-width="0.0" fill="rgb(255,255,255)" fill-opacity="1.0">
      </rect>
      <g transform="translate(10.0 10.0 ) ">
        <g transform="translate(0.0 10.5 ) ">
          <text class="legend-title" y="0.0">
          category
          </text>
        </g>
        <g transform="translate(0.0 22.5 ) ">
          <g transform="">
            <g>
              <rect x="0.0" y="0.0" height="23.0" width="23.0" stroke-width="0.0" fill="rgb(255,255,255)" fill-opacity="1.0">
              </rect>
              <g transform="translate(1.0 1.0 ) ">
                <g>
                  <rect x="0.0" y="0.0" height="21.0" width="21.0" stroke="rgb(71,71,71)" stroke-opacity="1.0" fill="rgb(228,26,28)" fill-opacity="1.0" stroke-width="1.5">
                  </rect>
                </g>
              </g>
              <rect x="0.0" y="0.0" height="23.0" width="23.0" stroke="rgb(255,255,255)" stroke-opacity="1.0" stroke-width="1.0" fill-opacity="0.0">
              </rect>
            </g>
            <g transform="translate(26.9903027277341 16.05 ) ">
              <text class="legend-item" y="0.0">
              A
              </text>
            </g>
          </g>
          <g transform="translate(0.0 23.0 ) ">
            <g>
              <rect x="0.0" y="0.0" height="23.0" width="23.0" stroke-width="0.0" fill="rgb(255,255,255)" fill-opacity="1.0">
              </rect>
              <g transform="translate(1.0 1.0 ) ">
                <g>
                  <rect x="0.0" y="0.0" height="21.0" width="21.0" stroke="rgb(71,71,71)" stroke-opacity="1.0" fill="rgb(55,126,184)" fill-opacity="1.0" stroke-width="1.5">
                  </rect>
                </g>
              </g>
              <rect x="0.0" y="0.0" height="23.0" width="23.0" stroke="rgb(255,255,255)" stroke-opacity="1.0" stroke-width="1.0" fill-opacity="0.0">
              </rect>
            </g>
            <g transform="translate(26.9903027277341 16.05 ) ">
              <text class="legend-item" y="0.0">
              B
              </text>
            </g>
          </g>
        </g>
      </g>
    </g>
    <path fill="rgb(0,0,0)" fill-opacity="0.0" stroke="rgb(71,71,71)" stroke-opacity="1.0" stroke-width="0.0" d="M0.0 0.0 L0.0 470.0 L705.0 470.0 L705.0 0.0 Z">
    </path>
  </g>
  <g id="xXxprefixXx2">
  </g>
</svg>