<svg xmlns="http://www.w3.org/2000/svg" xmlns:xlink="http://www.w3.org/1999/xlink" class="plt-container" width="705.0" height="470.0">
  <style type="text/css">
  .plt-container {
   font-family: Lucida Grande, sans-serif;
   user-select: none;
   -webkit-user-select: none;
   -moz-user-select: none;
   -ms-user-select: none;
}
text {
   text-rendering: optimizeLegibility;
}
#xXxprefixXx0 .plot-title {
   fill: #bbbbbb;
   font-family: Lucida Grande, sans-serif;
   font-size: 16.0px;
   font-weight: normal;
   font-style: normal;   
}
#xXxprefixXx0 .plot-subtitle {
   fill: #bbbbbb;
   font-family: Lucida Grande, sans-serif;
   font-size: 15.0px;
   font-weight: normal;
   font-style: normal;   
}
#xXxprefixXx0 .plot-caption {
   fill: #bbbbbb;
   font-family: Lucida Grande, sans-serif;
   font-size: 13.0px;
   font-weight: normal;
   font-style: normal;   
}
#xXxprefixXx0 .legend-title {
   fill: #bbbbbb;
   font-family: Lucida Grande, sans-serif;
   font-size: 15.0px;
   font-weight: normal;
   font-style: normal;   
}
#xXxprefixXx0 .legend-item {
   fill: #bbbbbb;
   font-family: Lucida Grande, sans-serif;
   font-size: 13.0px;
   font-weight: normal;
   font-style: normal;   
}
#xXxprefixXx0 .axis-title-x {
   fill: #bbbbbb;
   font-family: Lucida Grande, sans-serif;
   font-size: 15.0px;
   font-weight: normal;
   font-style: normal;   
}
#xXxprefixXx0 .axis-text-x {
   fill: #bbbbbb;
   font-family: Lucida Grande, sans-serif;
   font-size: 13.0px;
   font-weight: normal;
   font-style: normal;   
}
#xXxprefixXx2 .axis-tooltip-text-x {
   fill: #303030;
   font-family: Lucida Grande, sans-serif;
   font-size: 13.0px;
   font-weight: normal;
   font-style: normal;   
}
#xXxprefixXx0 .axis-title-y {
   fill: #bbbbbb;
   font-family: Lucida Grande, sans-serif;
   font-size: 15.0px;
   font-weight: normal;
   font-style: normal;   
}
#xXxprefixXx0 .axis-text-y {
   fill: #bbbbbb;
   font-family: Lucida Grande, sans-serif;
   font-size: 13.0px;
   font-weight: normal;
   font-style: normal;   
}
#xXxprefixXx2 .axis-tooltip-text-y {
   fill: #303030;
   font-family: Lucida Grande, sans-serif;
   font-size: 13.0px;
   font-weight: normal;
   font-style: normal;   
}
#xXxprefixXx0 .facet-strip-text-x {
   fill: #bbbbbb;
   font-family: Lucida Grande, sans-serif;
   font-size: 13.0px;
   font-weight: normal;
   font-style: normal;   
}
#xXxprefixXx0 .facet-strip-text-y {
   fill: #bbbbbb;
   font-family: Lucida Grande, sans-serif;
   font-size: 13.0px;
   font-weight: normal;
   font-style: normal;   
}
#xXxprefixXx2 .tooltip-text {
   fill: #bbbbbb;
   font-family: Lucida Grande, sans-serif;
   font-size: 13.0px;
   font-weight: normal;
   font-style: normal;   
}
#xXxprefixXx2 .tooltip-title {
   fill: #bbbbbb;
   font-family: Lucida Grande, sans-serif;
   font-size: 13.0px;
   font-weight: bold;
   font-style: normal;   
}
#xXxprefixXx2 .tooltip-label {
   fill: #bbbbbb;
   font-family: Lucida Grande, sans-serif;
   font-size: 13.0px;
   font-weight: bold;
   font-style: normal;   
}

  </style>
  <g id="xXxprefixXx0">
    <path fill-rule="evenodd" fill="rgb(25,25,28)" fill-opacity="1.0" d="M0.0 0.0 L0.0 470.0 L705.0 470.0 L705.0 0.0 Z">
    </path>
    <g transform="translate(10.0 10.0 ) ">
      <g transform="translate(0.0 450.0 ) ">
      </g>
      <g transform="">
      </g>
      <g transform="" clip-path="url(#xXxprefixXx1)" clip-bounds-jfx="[rect (0.0, 0.0), (624.2608124881035, 450.0)]">
        <defs>
          <clipPath id="xXxprefixXx1">
            <rect x="0.0" y="0.0" width="624.2608124881035" height="450.0">
            </rect>
          </clipPath>
        </defs>
        <g>
          <path d="M265.58671881184154 206.73294878168025 L219.04303137963134 188.46589756336047 A100.0 100.0 0.0 0 1 312.13040624405176 125.0 L312.13040624405176 175.0 A50.0 50.0 0.0 0 0 265.58671881184154 206.73294878168025 " fill="rgb(228,26,28)" stroke-width="1.0" fill-opacity="1.0">
          </path>
        </g>
        <g>
          <path d="M312.13040624405176 175.0 L312.13040624405176 125.0 A100.0 100.0 0.0 0 1 355.5187801558076 315.0968867902419 L333.82459319992967 270.04844339512096 A50.0 50.0 0.0 0 0 312.13040624405176 175.0 " fill="rgb(55,126,184)" stroke-width="1.0" fill-opacity="1.0">
          </path>
        </g>
        <g>
          <path d="M333.82459319992967 270.04844339512096 L355.5187801558076 315.0968867902419 A100.0 100.0 0.0 0 1 327.0346328616692 323.88308262251286 L319.5825195528605 274.4415413112564 A50.0 50.0 0.0 0 0 333.82459319992967 270.04844339512096 " fill="rgb(77,175,74)" stroke-width="1.0" fill-opacity="1.0">
          </path>
        </g>
        <g>
          <path d="M319.5825195528605 274.4415413112564 L327.0346328616692 323.88308262251286 A100.0 100.0 0.0 0 1 214.6376150258694 247.25209339563145 L263.3840106349606 236.12604669781572 A50.0 50.0 0.0 0 0 319.5825195528605 274.4415413112564 " fill="rgb(152,78,163)" stroke-width="1.0" fill-opacity="1.0">
          </path>
        </g>
        <g>
          <path d="M263.3840106349606 236.12604669781572 L214.6376150258694 247.25209339563145 A100.0 100.0 0.0 0 1 219.04303137963132 188.46589756336056 L265.58671881184154 206.73294878168028 A50.0 50.0 0.0 0 0 263.3840106349606 236.12604669781572 " fill="rgb(55,126,184)" stroke-width="1.0" fill-opacity="1.0">
          </path>
        </g>
        <g>
          <path d="M219.04303137963134 188.46589756336047 A100.0 100.0 0.0 0 1 312.13040624405176 125.0 M312.13040624405176 175.0 A50.0 50.0 0.0 0 0 265.58671881184154 206.73294878168025 " fill="none" stroke-width="1.0" stroke="rgb(48,48,48)" stroke-opacity="1.0">
          </path>
        </g>
        <g>
          <path d="M312.13040624405176 125.0 A100.0 100.0 0.0 0 1 355.5187801558076 315.0968867902419 M333.82459319992967 270.04844339512096 A50.0 50.0 0.0 0 0 312.13040624405176 175.0 " fill="none" stroke-width="1.0" stroke="rgb(48,48,48)" stroke-opacity="1.0">
          </path>
        </g>
        <g>
          <path d="M355.5187801558076 315.0968867902419 A100.0 100.0 0.0 0 1 327.0346328616692 323.88308262251286 M319.5825195528605 274.4415413112564 A50.0 50.0 0.0 0 0 333.82459319992967 270.04844339512096 " fill="none" stroke-width="1.0" stroke="rgb(48,48,48)" stroke-opacity="1.0">
          </path>
        </g>
        <g>
          <path d="M327.0346328616692 323.88308262251286 A100.0 100.0 0.0 0 1 214.6376150258694 247.25209339563145 M263.3840106349606 236.12604669781572 A50.0 50.0 0.0 0 0 319.5825195528605 274.4415413112564 " fill="none" stroke-width="1.0" stroke="rgb(48,48,48)" stroke-opacity="1.0">
          </path>
        </g>
        <g>
          <path d="M214.6376150258694 247.25209339563145 A100.0 100.0 0.0 0 1 219.04303137963132 188.46589756336056 M265.58671881184154 206.73294878168028 A50.0 50.0 0.0 0 0 263.3840106349606 236.12604669781572 " fill="none" stroke-width="1.0" stroke="rgb(48,48,48)" stroke-opacity="1.0">
          </path>
        </g>
        <g>
          <path d="M266.05215568616364 206.91561929386344 L218.57759450530924 188.28322705117728 M312.13040624405176 175.5 L312.13040624405176 124.5 " fill="none" stroke-width="0.75" stroke="rgb(48,48,48)" stroke-opacity="1.0">
          </path>
        </g>
        <g>
          <path d="M312.13040624405176 175.5 L312.13040624405176 124.5 M333.6076513303709 269.59795896116975 L355.73572202536633 315.5473712241931 " fill="none" stroke-width="0.75" stroke="rgb(48,48,48)" stroke-opacity="1.0">
          </path>
        </g>
        <g>
          <path d="M333.6076513303709 269.59795896116975 L355.73572202536633 315.5473712241931 M319.5079984197724 273.94712589814384 L327.1091539947573 324.3774980356254 " fill="none" stroke-width="0.75" stroke="rgb(48,48,48)" stroke-opacity="1.0">
          </path>
        </g>
        <g>
          <path d="M319.5079984197724 273.94712589814384 L327.1091539947573 324.3774980356254 M263.8714745910515 236.01478623083756 L214.15015106977847 247.3633538626096 " fill="none" stroke-width="0.75" stroke="rgb(48,48,48)" stroke-opacity="1.0">
          </path>
        </g>
        <g>
          <path d="M263.8714745910515 236.01478623083756 L214.15015106977847 247.3633538626096 M266.05215568616364 206.91561929386347 L218.5775945053092 188.28322705117733 " fill="none" stroke-width="0.75" stroke="rgb(48,48,48)" stroke-opacity="1.0">
          </path>
        </g>
      </g>
    </g>
    <g transform="translate(644.2608124881035 167.75 ) ">
      <rect x="5.0" y="5.0" height="124.5" width="50.739187511896475" stroke="rgb(187,187,187)" stroke-opacity="1.0" stroke-width="0.0" fill="rgb(25,25,28)" fill-opacity="1.0">
      </rect>
      <g transform="translate(10.0 10.0 ) ">
        <g transform="translate(0.0 10.5 ) ">
          <text class="legend-title" y="0.0">
          name
          </text>
        </g>
        <g transform="translate(0.0 22.5 ) ">
          <g transform="">
            <g>
              <rect x="0.0" y="0.0" height="23.0" width="23.0" stroke-width="0.0" fill="rgb(25,25,28)" fill-opacity="1.0">
              </rect>
              <g transform="translate(1.0 1.0 ) ">
                <g>
                  <circle cx="10.5" cy="10.5" r="5.0" fill="rgb(228,26,28)" fill-opacity="1.0" stroke="rgb(187,187,187)" stroke-opacity="1.0" stroke-width="0.75">
                  </circle>
                </g>
              </g>
              <rect x="0.0" y="0.0" height="23.0" width="23.0" stroke="rgb(25,25,28)" stroke-opacity="1.0" stroke-width="1.0" fill-opacity="0.0">
              </rect>
            </g>
            <g transform="translate(26.9903027277341 16.05 ) ">
              <text class="legend-item" y="0.0">
              a
              </text>
            </g>
          </g>
          <g transform="translate(0.0 23.0 ) ">
            <g>
              <rect x="0.0" y="0.0" height="23.0" width="23.0" stroke-width="0.0" fill="rgb(25,25,28)" fill-opacity="1.0">
              </rect>
              <g transform="translate(1.0 1.0 ) ">
                <g>
                  <circle cx="10.5" cy="10.5" r="5.0" fill="rgb(55,126,184)" fill-opacity="1.0" stroke="rgb(187,187,187)" stroke-opacity="1.0" stroke-width="0.75">
                  </circle>
                </g>
              </g>
              <rect x="0.0" y="0.0" height="23.0" width="23.0" stroke="rgb(25,25,28)" stroke-opacity="1.0" stroke-width="1.0" fill-opacity="0.0">
              </rect>
            </g>
            <g transform="translate(26.9903027277341 16.05 ) ">
              <text class="legend-item" y="0.0">
              b
              </text>
            </g>
          </g>
          <g transform="translate(0.0 46.0 ) ">
            <g>
              <rect x="0.0" y="0.0" height="23.0" width="23.0" stroke-width="0.0" fill="rgb(25,25,28)" fill-opacity="1.0">
              </rect>
              <g transform="translate(1.0 1.0 ) ">
                <g>
                  <circle cx="10.5" cy="10.5" r="5.0" fill="rgb(77,175,74)" fill-opacity="1.0" stroke="rgb(187,187,187)" stroke-opacity="1.0" stroke-width="0.75">
                  </circle>
                </g>
              </g>
              <rect x="0.0" y="0.0" height="23.0" width="23.0" stroke="rgb(25,25,28)" stroke-opacity="1.0" stroke-width="1.0" fill-opacity="0.0">
              </rect>
            </g>
            <g transform="translate(26.9903027277341 16.05 ) ">
              <text class="legend-item" y="0.0">
              c
              </text>
            </g>
          </g>
          <g transform="translate(0.0 69.0 ) ">
            <g>
              <rect x="0.0" y="0.0" height="23.0" width="23.0" stroke-width="0.0" fill="rgb(25,25,28)" fill-opacity="1.0">
              </rect>
              <g transform="translate(1.0 1.0 ) ">
                <g>
                  <circle cx="10.5" cy="10.5" r="5.0" fill="rgb(152,78,163)" fill-opacity="1.0" stroke="rgb(187,187,187)" stroke-opacity="1.0" stroke-width="0.75">
                  </circle>
                </g>
              </g>
              <rect x="0.0" y="0.0" height="23.0" width="23.0" stroke="rgb(25,25,28)" stroke-opacity="1.0" stroke-width="1.0" fill-opacity="0.0">
              </rect>
            </g>
            <g transform="translate(26.9903027277341 16.05 ) ">
              <text class="legend-item" y="0.0">
              d
              </text>
            </g>
          </g>
        </g>
      </g>
    </g>
    <path fill="rgb(0,0,0)" fill-opacity="0.0" stroke="rgb(187,187,187)" stroke-opacity="1.0" stroke-width="0.0" d="M0.0 0.0 L0.0 470.0 L705.0 470.0 L705.0 0.0 Z">
    </path>
  </g>
  <g id="xXxprefixXx2">
  </g>
</svg>