<svg xmlns="http://www.w3.org/2000/svg" xmlns:xlink="http://www.w3.org/1999/xlink" display="block" class="plt-container" width="705.0" height="470.0">
  <style type="text/css">
  .plt-container {
   font-family: Lucida Grande, sans-serif;
   user-select: none;
   -webkit-user-select: none;
   -moz-user-select: none;
   -ms-user-select: none;
}
text {
   text-rendering: optimizeLegibility;
}
#xXxprefixXx0 .plot-title {
fill: #bbbbbb;
font-weight: normal;
   font-style: normal;font-family: Lucida Grande, sans-serif;
font-size: 16.0px;

}
#xXxprefixXx0 .plot-subtitle {
fill: #bbbbbb;
font-weight: normal;
   font-style: normal;font-family: Lucida Grande, sans-serif;
font-size: 15.0px;

}
#xXxprefixXx0 .plot-caption {
fill: #bbbbbb;
font-weight: normal;
   font-style: normal;font-family: Lucida Grande, sans-serif;
font-size: 13.0px;

}
#xXxprefixXx0 .hyperlink-element {
fill: #118ed8;
font-weight: normal;
   font-style: normal;
}
#xXxprefixXx0 .legend-title {
fill: #bbbbbb;
font-weight: normal;
   font-style: normal;font-family: Lucida Grande, sans-serif;
font-size: 15.0px;

}
#xXxprefixXx0 .legend-item {
fill: #bbbbbb;
font-weight: normal;
   font-style: normal;font-family: Lucida Grande, sans-serif;
font-size: 13.0px;

}
#xXxprefixXx0 .axis-title-x {
fill: #bbbbbb;
font-weight: normal;
   font-style: normal;font-family: Lucida Grande, sans-serif;
font-size: 15.0px;

}
#xXxprefixXx0 .axis-text-x {
fill: #bbbbbb;
font-weight: normal;
   font-style: normal;font-family: Lucida Grande, sans-serif;
font-size: 13.0px;

}
#xXxprefixXx2 .axis-tooltip-text-x {
fill: #303030;
font-weight: normal;
   font-style: normal;font-family: Lucida Grande, sans-serif;
font-size: 13.0px;

}
#xXxprefixXx0 .axis-title-y {
fill: #bbbbbb;
font-weight: normal;
   font-style: normal;font-family: Lucida Grande, sans-serif;
font-size: 15.0px;

}
#xXxprefixXx0 .axis-text-y {
fill: #bbbbbb;
font-weight: normal;
   font-style: normal;font-family: Lucida Grande, sans-serif;
font-size: 13.0px;

}
#xXxprefixXx2 .axis-tooltip-text-y {
fill: #303030;
font-weight: normal;
   font-style: normal;font-family: Lucida Grande, sans-serif;
font-size: 13.0px;

}
#xXxprefixXx0 .facet-strip-text-x {
fill: #bbbbbb;
font-weight: normal;
   font-style: normal;font-family: Lucida Grande, sans-serif;
font-size: 13.0px;

}
#xXxprefixXx0 .facet-strip-text-y {
fill: #bbbbbb;
font-weight: normal;
   font-style: normal;font-family: Lucida Grande, sans-serif;
font-size: 13.0px;

}
#xXxprefixXx2 .tooltip-text {
fill: #bbbbbb;
font-weight: normal;
   font-style: normal;font-family: Lucida Grande, sans-serif;
font-size: 13.0px;

}
#xXxprefixXx2 .tooltip-title {
fill: #bbbbbb;
font-weight: bold;
   font-style: normal;font-family: Lucida Grande, sans-serif;
font-size: 13.0px;

}
#xXxprefixXx2 .tooltip-label {
fill: #bbbbbb;
font-weight: bold;
   font-style: normal;font-family: Lucida Grande, sans-serif;
font-size: 13.0px;

}

  </style>
  <g id="xXxprefixXx0">
    <path fill-rule="evenodd" fill="rgb(25,25,28)" fill-opacity="1.0" d="M0.0 0.0 L0.0 470.0 L705.0 470.0 L705.0 0.0 Z">
    </path>
    <g transform="translate(6.5 6.5 ) ">
      <g>
        <g transform="">
          <g>
          </g>
        </g>
        <g transform="">
          <g>
          </g>
        </g>
        <g transform="translate(0.0 457.0 ) ">
        </g>
        <g transform="">
        </g>
      </g>
      <g clip-path="url(#xXxprefixXx1)" clip-bounds-jfx="[rect (0.0, 0.0), (569.7258838419363, 457.0)]">
        <g transform="">
          <g>
            <g>
              <g>
                <path d="M284.8629419209681 228.5 L224.38871168342118 308.1421212498522 A100.0 100.0 0.0 0 1 284.8629419209681 128.5 L284.8629419209681 228.5 A0.0 0.0 0.0 0 0 284.8629419209681 228.5 " fill="rgb(0,0,128)" stroke-width="1.0" fill-opacity="1.0">
                </path>
              </g>
              <g>
                <path d="M284.8629419209681 228.5 L284.8629419209681 128.5 A100.0 100.0 0.0 0 1 384.8606694608426 227.82584359304573 L284.8629419209681 228.5 A0.0 0.0 0.0 0 0 284.8629419209681 228.5 " fill="rgb(50,31,129)" stroke-width="1.0" fill-opacity="1.0">
                </path>
              </g>
              <g>
                <path d="M284.8629419209681 228.5 L384.8606694608426 227.82584359304573 A100.0 100.0 0.0 0 1 355.4941247245247 299.2900841627595 L284.8629419209681 228.5 A0.0 0.0 0.0 0 0 284.8629419209681 228.5 " fill="rgb(73,55,129)" stroke-width="1.0" fill-opacity="1.0">
                </path>
              </g>
              <g>
                <path d="M290.2469891470039 236.926863916536 L360.87817195056044 307.71694807929555 A100.0 100.0 0.0 0 1 324.8007097709691 330.7673689825306 L290.2469891470039 236.926863916536 A0.0 0.0 0.0 0 0 290.2469891470039 236.926863916536 " fill="rgb(91,79,129)" stroke-width="1.0" fill-opacity="1.0">
                </path>
              </g>
              <g>
                <path d="M286.4960537412051 238.3657460834243 L321.0497743651703 332.2062511494189 A100.0 100.0 0.0 0 1 284.0243799250332 338.335195559484 L286.4960537412051 238.3657460834243 A0.0 0.0 0.0 0 0 286.4960537412051 238.3657460834243 " fill="rgb(105,103,128)" stroke-width="1.0" fill-opacity="1.0">
                </path>
              </g>
              <g>
                <path d="M282.44191254637354 248.35292464014685 L279.97023873020163 348.32237411620656 A100.0 100.0 0.0 0 1 260.8162343429144 345.98657684183615 L282.44191254637354 248.35292464014685 A0.0 0.0 0.0 0 0 282.44191254637354 248.35292464014685 " fill="rgb(117,128,127)" stroke-width="1.0" fill-opacity="1.0">
                </path>
              </g>
              <g>
                <path d="M275.9650850915128 257.15009849620964 L254.33940688805367 354.783750697899 A100.0 100.0 0.0 0 1 238.4766464687338 349.8572555533977 L275.9650850915128 257.15009849620964 A0.0 0.0 0.0 0 0 275.9650850915128 257.15009849620964 " fill="rgb(128,153,125)" stroke-width="1.0" fill-opacity="1.0">
                </path>
              </g>
              <g>
                <path d="M267.20163244467363 264.3898056219667 L229.71319382189466 357.09696267915473 A100.0 100.0 0.0 0 1 216.61893210018997 350.6532997887356 L267.20163244467363 264.3898056219667 A0.0 0.0 0.0 0 0 267.20163244467363 264.3898056219667 " fill="rgb(137,178,121)" stroke-width="1.0" fill-opacity="1.0">
                </path>
              </g>
              <g>
                <path d="M251.48669891992597 278.3600682223298 L200.9039985754423 364.6235623890987 A100.0 100.0 0.0 0 1 191.01246868237905 358.002189472182 L251.48669891992597 278.3600682223298 A0.0 0.0 0.0 0 0 251.48669891992597 278.3600682223298 " fill="rgb(145,204,117)" stroke-width="1.0" fill-opacity="1.0">
                </path>
              </g>
              <g>
                <path d="M224.38871168342118 308.1421212498522 A100.0 100.0 0.0 0 1 284.8629419209681 128.5 M284.8629419209681 228.5 A0.0 0.0 0.0 0 0 284.8629419209681 228.5 " fill="none" stroke-width="1.0" stroke="rgb(0,0,0)" stroke-opacity="1.0">
                </path>
              </g>
              <g>
                <path d="M284.8629419209681 128.5 A100.0 100.0 0.0 0 1 384.8606694608426 227.82584359304573 M284.8629419209681 228.5 A0.0 0.0 0.0 0 0 284.8629419209681 228.5 " fill="none" stroke-width="1.0" stroke="rgb(0,0,0)" stroke-opacity="1.0">
                </path>
              </g>
              <g>
                <path d="M384.8606694608426 227.82584359304573 A100.0 100.0 0.0 0 1 355.4941247245247 299.2900841627595 M284.8629419209681 228.5 A0.0 0.0 0.0 0 0 284.8629419209681 228.5 " fill="none" stroke-width="1.0" stroke="rgb(0,0,0)" stroke-opacity="1.0">
                </path>
              </g>
              <g>
                <path d="M360.87817195056044 307.71694807929555 A100.0 100.0 0.0 0 1 324.8007097709691 330.7673689825306 M290.2469891470039 236.926863916536 A0.0 0.0 0.0 0 0 290.2469891470039 236.926863916536 " fill="none" stroke-width="1.0" stroke="rgb(0,0,0)" stroke-opacity="1.0">
                </path>
              </g>
              <g>
                <path d="M321.0497743651703 332.2062511494189 A100.0 100.0 0.0 0 1 284.0243799250332 338.335195559484 M286.4960537412051 238.3657460834243 A0.0 0.0 0.0 0 0 286.4960537412051 238.3657460834243 " fill="none" stroke-width="1.0" stroke="rgb(0,0,0)" stroke-opacity="1.0">
                </path>
              </g>
              <g>
                <path d="M279.97023873020163 348.32237411620656 A100.0 100.0 0.0 0 1 260.8162343429144 345.98657684183615 M282.44191254637354 248.35292464014685 A0.0 0.0 0.0 0 0 282.44191254637354 248.35292464014685 " fill="none" stroke-width="1.0" stroke="rgb(0,0,0)" stroke-opacity="1.0">
                </path>
              </g>
              <g>
                <path d="M254.33940688805367 354.783750697899 A100.0 100.0 0.0 0 1 238.4766464687338 349.8572555533977 M275.9650850915128 257.15009849620964 A0.0 0.0 0.0 0 0 275.9650850915128 257.15009849620964 " fill="none" stroke-width="1.0" stroke="rgb(0,0,0)" stroke-opacity="1.0">
                </path>
              </g>
              <g>
                <path d="M229.71319382189466 357.09696267915473 A100.0 100.0 0.0 0 1 216.61893210018997 350.6532997887356 M267.20163244467363 264.3898056219667 A0.0 0.0 0.0 0 0 267.20163244467363 264.3898056219667 " fill="none" stroke-width="1.0" stroke="rgb(0,0,0)" stroke-opacity="1.0">
                </path>
              </g>
              <g>
                <path d="M200.9039985754423 364.6235623890987 A100.0 100.0 0.0 0 1 191.01246868237905 358.002189472182 M251.48669891992597 278.3600682223298 A0.0 0.0 0.0 0 0 251.48669891992597 278.3600682223298 " fill="none" stroke-width="1.0" stroke="rgb(0,0,0)" stroke-opacity="1.0">
                </path>
              </g>
              <g>
                <path d="M284.8629419209681 228.5 L284.8629419209681 128.0 " fill="none" stroke-width="0.75" stroke="rgb(48,48,48)" stroke-opacity="1.0">
                </path>
              </g>
              <g>
                <path d="M284.8629419209681 228.5 L284.8629419209681 128.0 M284.8629419209681 228.5 L385.36065809854193 227.82247281101095 " fill="none" stroke-width="0.75" stroke="rgb(48,48,48)" stroke-opacity="1.0">
                </path>
              </g>
              <g>
                <path d="M284.8629419209681 228.5 L385.36065809854193 227.82247281101095 " fill="none" stroke-width="0.75" stroke="rgb(48,48,48)" stroke-opacity="1.0">
                </path>
              </g>
              <g>
                <path d="" fill="none" stroke-width="0.75" stroke="rgb(48,48,48)" stroke-opacity="1.0">
                </path>
              </g>
              <g>
                <path d="" fill="none" stroke-width="0.75" stroke="rgb(48,48,48)" stroke-opacity="1.0">
                </path>
              </g>
              <g>
                <path d="" fill="none" stroke-width="0.75" stroke="rgb(48,48,48)" stroke-opacity="1.0">
                </path>
              </g>
              <g>
                <path d="" fill="none" stroke-width="0.75" stroke="rgb(48,48,48)" stroke-opacity="1.0">
                </path>
              </g>
              <g>
                <path d="" fill="none" stroke-width="0.75" stroke="rgb(48,48,48)" stroke-opacity="1.0">
                </path>
              </g>
              <g>
                <path d="" fill="none" stroke-width="0.75" stroke="rgb(48,48,48)" stroke-opacity="1.0">
                </path>
              </g>
            </g>
          </g>
        </g>
        <defs>
          <clipPath id="xXxprefixXx1">
            <rect x="0.0" y="0.0" width="569.7258838419363" height="457.0">
            </rect>
          </clipPath>
        </defs>
      </g>
      <g>
      </g>
    </g>
    <g transform="translate(587.7258838419363 115.25 ) ">
      <rect x="0.0" y="0.0" height="239.5" width="117.27411615806373" stroke="rgb(187,187,187)" stroke-opacity="1.0" stroke-width="0.0" fill="rgb(25,25,28)" fill-opacity="1.0">
      </rect>
      <g transform="translate(5.0 5.0 ) ">
        <g transform="translate(0.0 12.0 ) ">
          <text class="legend-title" y="0.0">
            <tspan>name</tspan>
          </text>
        </g>
        <g transform="translate(0.0 22.5 ) ">
          <g transform="">
            <g>
              <g transform="translate(1.0 1.0 ) ">
                <g>
                  <circle cx="10.5" cy="10.5" r="5.0" fill="rgb(0,0,128)" fill-opacity="1.0" stroke="rgb(0,0,0)" stroke-opacity="1.0" stroke-width="0.75">
                  </circle>
                </g>
              </g>
            </g>
            <g transform="translate(26.9903027277341 16.05 ) ">
              <text class="legend-item" y="0.0">
                <tspan>20-50 km</tspan>
              </text>
            </g>
          </g>
          <g transform="translate(0.0 23.0 ) ">
            <g>
              <g transform="translate(1.0 1.0 ) ">
                <g>
                  <circle cx="10.5" cy="10.5" r="5.0" fill="rgb(50,31,129)" fill-opacity="1.0" stroke="rgb(0,0,0)" stroke-opacity="1.0" stroke-width="0.75">
                  </circle>
                </g>
              </g>
            </g>
            <g transform="translate(26.9903027277341 16.05 ) ">
              <text class="legend-item" y="0.0">
                <tspan>50-75 km</tspan>
              </text>
            </g>
          </g>
          <g transform="translate(0.0 46.0 ) ">
            <g>
              <g transform="translate(1.0 1.0 ) ">
                <g>
                  <circle cx="10.5" cy="10.5" r="5.0" fill="rgb(73,55,129)" fill-opacity="1.0" stroke="rgb(0,0,0)" stroke-opacity="1.0" stroke-width="0.75">
                  </circle>
                </g>
              </g>
            </g>
            <g transform="translate(26.9903027277341 16.05 ) ">
              <text class="legend-item" y="0.0">
                <tspan>10-20 km</tspan>
              </text>
            </g>
          </g>
          <g transform="translate(0.0 69.0 ) ">
            <g>
              <g transform="translate(1.0 1.0 ) ">
                <g>
                  <circle cx="10.5" cy="10.5" r="5.0" fill="rgb(91,79,129)" fill-opacity="1.0" stroke="rgb(0,0,0)" stroke-opacity="1.0" stroke-width="0.75">
                  </circle>
                </g>
              </g>
            </g>
            <g transform="translate(26.9903027277341 16.05 ) ">
              <text class="legend-item" y="0.0">
                <tspan>75-100 km</tspan>
              </text>
            </g>
          </g>
          <g transform="translate(0.0 92.0 ) ">
            <g>
              <g transform="translate(1.0 1.0 ) ">
                <g>
                  <circle cx="10.5" cy="10.5" r="5.0" fill="rgb(105,103,128)" fill-opacity="1.0" stroke="rgb(0,0,0)" stroke-opacity="1.0" stroke-width="0.75">
                  </circle>
                </g>
              </g>
            </g>
            <g transform="translate(26.9903027277341 16.05 ) ">
              <text class="legend-item" y="0.0">
                <tspan>3-5 km</tspan>
              </text>
            </g>
          </g>
          <g transform="translate(0.0 115.0 ) ">
            <g>
              <g transform="translate(1.0 1.0 ) ">
                <g>
                  <circle cx="10.5" cy="10.5" r="5.0" fill="rgb(117,128,127)" fill-opacity="1.0" stroke="rgb(0,0,0)" stroke-opacity="1.0" stroke-width="0.75">
                  </circle>
                </g>
              </g>
            </g>
            <g transform="translate(26.9903027277341 16.05 ) ">
              <text class="legend-item" y="0.0">
                <tspan>7-10 km</tspan>
              </text>
            </g>
          </g>
          <g transform="translate(0.0 138.0 ) ">
            <g>
              <g transform="translate(1.0 1.0 ) ">
                <g>
                  <circle cx="10.5" cy="10.5" r="5.0" fill="rgb(128,153,125)" fill-opacity="1.0" stroke="rgb(0,0,0)" stroke-opacity="1.0" stroke-width="0.75">
                  </circle>
                </g>
              </g>
            </g>
            <g transform="translate(26.9903027277341 16.05 ) ">
              <text class="legend-item" y="0.0">
                <tspan>5-7 km</tspan>
              </text>
            </g>
          </g>
          <g transform="translate(0.0 161.0 ) ">
            <g>
              <g transform="translate(1.0 1.0 ) ">
                <g>
                  <circle cx="10.5" cy="10.5" r="5.0" fill="rgb(137,178,121)" fill-opacity="1.0" stroke="rgb(0,0,0)" stroke-opacity="1.0" stroke-width="0.75">
                  </circle>
                </g>
              </g>
            </g>
            <g transform="translate(26.9903027277341 16.05 ) ">
              <text class="legend-item" y="0.0">
                <tspan>&gt;100 km</tspan>
              </text>
            </g>
          </g>
          <g transform="translate(0.0 184.0 ) ">
            <g>
              <g transform="translate(1.0 1.0 ) ">
                <g>
                  <circle cx="10.5" cy="10.5" r="5.0" fill="rgb(145,204,117)" fill-opacity="1.0" stroke="rgb(0,0,0)" stroke-opacity="1.0" stroke-width="0.75">
                  </circle>
                </g>
              </g>
            </g>
            <g transform="translate(26.9903027277341 16.05 ) ">
              <text class="legend-item" y="0.0">
                <tspan>2-3 km</tspan>
              </text>
            </g>
          </g>
        </g>
      </g>
    </g>
    <path fill="rgb(0,0,0)" fill-opacity="0.0" stroke="rgb(187,187,187)" stroke-opacity="1.0" stroke-width="0.0" d="M0.0 0.0 L0.0 470.0 L705.0 470.0 L705.0 0.0 Z" pointer-events="none">
    </path>
  </g>
  <g id="xXxprefixXx2">
  </g>
</svg>