<svg xmlns="http://www.w3.org/2000/svg" xmlns:xlink="http://www.w3.org/1999/xlink" display="block" class="plt-container" width="705.0" height="470.0">
  <style type="text/css">
  .plt-container {
   font-family: Lucida Grande, sans-serif;
   user-select: none;
   -webkit-user-select: none;
   -moz-user-select: none;
   -ms-user-select: none;
}
text {
   text-rendering: optimizeLegibility;
}
#xXxprefixXx0 .plot-title {
   fill: #474747;
   font-family: Lucida Grande, sans-serif;
   font-size: 16.0px;
   font-weight: normal;
   font-style: normal;   
}
#xXxprefixXx0 .plot-subtitle {
   fill: #474747;
   font-family: Lucida Grande, sans-serif;
   font-size: 15.0px;
   font-weight: normal;
   font-style: normal;   
}
#xXxprefixXx0 .plot-caption {
   fill: #474747;
   font-family: Lucida Grande, sans-serif;
   font-size: 13.0px;
   font-weight: normal;
   font-style: normal;   
}
#xXxprefixXx0 .legend-title {
   fill: #474747;
   font-family: Lucida Grande, sans-serif;
   font-size: 15.0px;
   font-weight: normal;
   font-style: normal;   
}
#xXxprefixXx0 .legend-item {
   fill: #474747;
   font-family: Lucida Grande, sans-serif;
   font-size: 13.0px;
   font-weight: normal;
   font-style: normal;   
}
#xXxprefixXx0 .axis-title-x {
   fill: #474747;
   font-family: Lucida Grande, sans-serif;
   font-size: 15.0px;
   font-weight: normal;
   font-style: normal;   
}
#xXxprefixXx0 .axis-text-x {
   fill: #474747;
   font-family: Lucida Grande, sans-serif;
   font-size: 13.0px;
   font-weight: normal;
   font-style: normal;   
}
#xXxprefixXx2 .axis-tooltip-text-x {
   fill: #ffffff;
   font-family: Lucida Grande, sans-serif;
   font-size: 13.0px;
   font-weight: normal;
   font-style: normal;   
}
#xXxprefixXx0 .axis-title-y {
   fill: #474747;
   font-family: Lucida Grande, sans-serif;
   font-size: 15.0px;
   font-weight: normal;
   font-style: normal;   
}
#xXxprefixXx0 .axis-text-y {
   fill: #474747;
   font-family: Lucida Grande, sans-serif;
   font-size: 13.0px;
   font-weight: normal;
   font-style: normal;   
}
#xXxprefixXx2 .axis-tooltip-text-y {
   fill: #ffffff;
   font-family: Lucida Grande, sans-serif;
   font-size: 13.0px;
   font-weight: normal;
   font-style: normal;   
}
#xXxprefixXx0 .facet-strip-text-x {
   fill: #474747;
   font-family: Lucida Grande, sans-serif;
   font-size: 13.0px;
   font-weight: normal;
   font-style: normal;   
}
#xXxprefixXx0 .facet-strip-text-y {
   fill: #474747;
   font-family: Lucida Grande, sans-serif;
   font-size: 13.0px;
   font-weight: normal;
   font-style: normal;   
}
#xXxprefixXx2 .tooltip-text {
   fill: #474747;
   font-family: Lucida Grande, sans-serif;
   font-size: 13.0px;
   font-weight: normal;
   font-style: normal;   
}
#xXxprefixXx2 .tooltip-title {
   fill: #474747;
   font-family: Lucida Grande, sans-serif;
   font-size: 13.0px;
   font-weight: bold;
   font-style: normal;   
}
#xXxprefixXx2 .tooltip-label {
   fill: #474747;
   font-family: Lucida Grande, sans-serif;
   font-size: 13.0px;
   font-weight: bold;
   font-style: normal;   
}

  </style>
  <g id="xXxprefixXx0">
    <path fill-rule="evenodd" fill="rgb(255,255,255)" fill-opacity="1.0" d="M0.0 0.0 L0.0 470.0 L705.0 470.0 L705.0 0.0 Z">
    </path>
    <g transform="translate(6.5 6.5 ) ">
      <g>
        <g transform="">
          <g>
          </g>
        </g>
        <g transform="">
          <g>
          </g>
        </g>
        <g transform="translate(0.0 457.0 ) ">
        </g>
        <g transform="">
        </g>
      </g>
      <g clip-path="url(#xXxprefixXx1)" clip-bounds-jfx="[rect (0.0, 0.0), (572.7064892974045, 457.0)]">
        <g transform="">
          <g>
            <g>
              <g>
                <path d="M286.35324464870223 228.5 L225.87901441115528 308.1421212498522 A100.0 100.0 0.0 0 1 286.35324464870223 128.5 L286.35324464870223 228.5 A0.0 0.0 0.0 0 0 286.35324464870223 228.5 " fill="rgb(0,0,128)" stroke-width="1.0" fill-opacity="1.0">
                </path>
              </g>
              <g>
                <path d="M286.35324464870223 228.5 L286.35324464870223 128.5 A100.0 100.0 0.0 0 1 386.35097218857663 227.82584359304573 L286.35324464870223 228.5 A0.0 0.0 0.0 0 0 286.35324464870223 228.5 " fill="rgb(50,31,129)" stroke-width="1.0" fill-opacity="1.0">
                </path>
              </g>
              <g>
                <path d="M286.35324464870223 228.5 L386.35097218857663 227.82584359304573 A100.0 100.0 0.0 0 1 356.9844274522588 299.2900841627595 L286.35324464870223 228.5 A0.0 0.0 0.0 0 0 286.35324464870223 228.5 " fill="rgb(73,55,129)" stroke-width="1.0" fill-opacity="1.0">
                </path>
              </g>
              <g>
                <path d="M291.737291874738 236.926863916536 L362.36847467829455 307.71694807929555 A100.0 100.0 0.0 0 1 326.2910124987032 330.7673689825306 L291.737291874738 236.926863916536 A0.0 0.0 0.0 0 0 291.737291874738 236.926863916536 " fill="rgb(91,79,129)" stroke-width="1.0" fill-opacity="1.0">
                </path>
              </g>
              <g>
                <path d="M287.9863564689392 238.3657460834243 L322.5400770929044 332.2062511494189 A100.0 100.0 0.0 0 1 285.5146826527673 338.335195559484 L287.9863564689392 238.3657460834243 A0.0 0.0 0.0 0 0 287.9863564689392 238.3657460834243 " fill="rgb(105,103,128)" stroke-width="1.0" fill-opacity="1.0">
                </path>
              </g>
              <g>
                <path d="M283.93221527410765 248.35292464014685 L281.46054145793573 348.32237411620656 A100.0 100.0 0.0 0 1 262.3065370706485 345.98657684183615 L283.93221527410765 248.35292464014685 A0.0 0.0 0.0 0 0 283.93221527410765 248.35292464014685 " fill="rgb(117,128,127)" stroke-width="1.0" fill-opacity="1.0">
                </path>
              </g>
              <g>
                <path d="M277.4553878192469 257.15009849620964 L255.82970961578778 354.783750697899 A100.0 100.0 0.0 0 1 239.9669491964679 349.8572555533977 L277.4553878192469 257.15009849620964 A0.0 0.0 0.0 0 0 277.4553878192469 257.15009849620964 " fill="rgb(128,153,125)" stroke-width="1.0" fill-opacity="1.0">
                </path>
              </g>
              <g>
                <path d="M268.69193517240774 264.3898056219667 L231.20349654962877 357.09696267915473 A100.0 100.0 0.0 0 1 218.10923482792407 350.6532997887356 L268.69193517240774 264.3898056219667 A0.0 0.0 0.0 0 0 268.69193517240774 264.3898056219667 " fill="rgb(137,178,121)" stroke-width="1.0" fill-opacity="1.0">
                </path>
              </g>
              <g>
                <path d="M252.97700164766007 278.3600682223298 L202.3943013031764 364.6235623890987 A100.0 100.0 0.0 0 1 192.50277141011316 358.002189472182 L252.97700164766007 278.3600682223298 A0.0 0.0 0.0 0 0 252.97700164766007 278.3600682223298 " fill="rgb(145,204,117)" stroke-width="1.0" fill-opacity="1.0">
                </path>
              </g>
              <g>
                <path d="M225.87901441115528 308.1421212498522 A100.0 100.0 0.0 0 1 286.35324464870223 128.5 M286.35324464870223 228.5 A0.0 0.0 0.0 0 0 286.35324464870223 228.5 " fill="none" stroke-width="1.0" stroke="rgb(0,0,0)" stroke-opacity="1.0">
                </path>
              </g>
              <g>
                <path d="M286.35324464870223 128.5 A100.0 100.0 0.0 0 1 386.35097218857663 227.82584359304573 M286.35324464870223 228.5 A0.0 0.0 0.0 0 0 286.35324464870223 228.5 " fill="none" stroke-width="1.0" stroke="rgb(0,0,0)" stroke-opacity="1.0">
                </path>
              </g>
              <g>
                <path d="M386.35097218857663 227.82584359304573 A100.0 100.0 0.0 0 1 356.9844274522588 299.2900841627595 M286.35324464870223 228.5 A0.0 0.0 0.0 0 0 286.35324464870223 228.5 " fill="none" stroke-width="1.0" stroke="rgb(0,0,0)" stroke-opacity="1.0">
                </path>
              </g>
              <g>
                <path d="M362.36847467829455 307.71694807929555 A100.0 100.0 0.0 0 1 326.2910124987032 330.7673689825306 M291.737291874738 236.926863916536 A0.0 0.0 0.0 0 0 291.737291874738 236.926863916536 " fill="none" stroke-width="1.0" stroke="rgb(0,0,0)" stroke-opacity="1.0">
                </path>
              </g>
              <g>
                <path d="M322.5400770929044 332.2062511494189 A100.0 100.0 0.0 0 1 285.5146826527673 338.335195559484 M287.9863564689392 238.3657460834243 A0.0 0.0 0.0 0 0 287.9863564689392 238.3657460834243 " fill="none" stroke-width="1.0" stroke="rgb(0,0,0)" stroke-opacity="1.0">
                </path>
              </g>
              <g>
                <path d="M281.46054145793573 348.32237411620656 A100.0 100.0 0.0 0 1 262.3065370706485 345.98657684183615 M283.93221527410765 248.35292464014685 A0.0 0.0 0.0 0 0 283.93221527410765 248.35292464014685 " fill="none" stroke-width="1.0" stroke="rgb(0,0,0)" stroke-opacity="1.0">
                </path>
              </g>
              <g>
                <path d="M255.82970961578778 354.783750697899 A100.0 100.0 0.0 0 1 239.9669491964679 349.8572555533977 M277.4553878192469 257.15009849620964 A0.0 0.0 0.0 0 0 277.4553878192469 257.15009849620964 " fill="none" stroke-width="1.0" stroke="rgb(0,0,0)" stroke-opacity="1.0">
                </path>
              </g>
              <g>
                <path d="M231.20349654962877 357.09696267915473 A100.0 100.0 0.0 0 1 218.10923482792407 350.6532997887356 M268.69193517240774 264.3898056219667 A0.0 0.0 0.0 0 0 268.69193517240774 264.3898056219667 " fill="none" stroke-width="1.0" stroke="rgb(0,0,0)" stroke-opacity="1.0">
                </path>
              </g>
              <g>
                <path d="M202.3943013031764 364.6235623890987 A100.0 100.0 0.0 0 1 192.50277141011316 358.002189472182 M252.97700164766007 278.3600682223298 A0.0 0.0 0.0 0 0 252.97700164766007 278.3600682223298 " fill="none" stroke-width="1.0" stroke="rgb(0,0,0)" stroke-opacity="1.0">
                </path>
              </g>
              <g>
                <path d="M286.35324464870223 228.5 L286.35324464870223 128.0 " fill="none" stroke-width="0.75" stroke="rgb(255,255,255)" stroke-opacity="1.0">
                </path>
              </g>
              <g>
                <path d="M286.35324464870223 228.5 L286.35324464870223 128.0 M286.35324464870223 228.5 L386.85096082627604 227.82247281101095 " fill="none" stroke-width="0.75" stroke="rgb(255,255,255)" stroke-opacity="1.0">
                </path>
              </g>
              <g>
                <path d="M286.35324464870223 228.5 L386.85096082627604 227.82247281101095 " fill="none" stroke-width="0.75" stroke="rgb(255,255,255)" stroke-opacity="1.0">
                </path>
              </g>
              <g>
                <path d="" fill="none" stroke-width="0.75" stroke="rgb(255,255,255)" stroke-opacity="1.0">
                </path>
              </g>
              <g>
                <path d="" fill="none" stroke-width="0.75" stroke="rgb(255,255,255)" stroke-opacity="1.0">
                </path>
              </g>
              <g>
                <path d="" fill="none" stroke-width="0.75" stroke="rgb(255,255,255)" stroke-opacity="1.0">
                </path>
              </g>
              <g>
                <path d="" fill="none" stroke-width="0.75" stroke="rgb(255,255,255)" stroke-opacity="1.0">
                </path>
              </g>
              <g>
                <path d="" fill="none" stroke-width="0.75" stroke="rgb(255,255,255)" stroke-opacity="1.0">
                </path>
              </g>
              <g>
                <path d="" fill="none" stroke-width="0.75" stroke="rgb(255,255,255)" stroke-opacity="1.0">
                </path>
              </g>
            </g>
          </g>
        </g>
        <defs>
          <clipPath id="xXxprefixXx1">
            <rect x="0.0" y="0.0" width="572.7064892974045" height="457.0">
            </rect>
          </clipPath>
        </defs>
      </g>
      <g>
      </g>
    </g>
    <g transform="translate(585.7064892974045 110.25 ) ">
      <rect x="5.0" y="5.0" height="239.5" width="109.29351070259553" stroke="rgb(71,71,71)" stroke-opacity="1.0" stroke-width="0.0" fill="rgb(255,255,255)" fill-opacity="1.0">
      </rect>
      <g transform="translate(10.0 10.0 ) ">
        <g transform="translate(0.0 12.0 ) ">
          <text class="legend-title" y="0.0">
            <tspan>name</tspan>
          </text>
        </g>
        <g transform="translate(0.0 22.5 ) ">
          <g transform="">
            <g>
              <rect x="0.0" y="0.0" height="23.0" width="23.0" stroke-width="0.0" fill="rgb(255,255,255)" fill-opacity="1.0">
              </rect>
              <g transform="translate(1.0 1.0 ) ">
                <g>
                  <circle cx="10.5" cy="10.5" r="5.0" fill="rgb(0,0,128)" fill-opacity="1.0" stroke="rgb(0,0,0)" stroke-opacity="1.0" stroke-width="0.75">
                  </circle>
                </g>
              </g>
              <rect x="0.0" y="0.0" height="23.0" width="23.0" stroke="rgb(255,255,255)" stroke-opacity="1.0" stroke-width="1.0" fill-opacity="0.0">
              </rect>
            </g>
            <g transform="translate(26.9903027277341 16.05 ) ">
              <text class="legend-item" y="0.0">
                <tspan>20-50 km</tspan>
              </text>
            </g>
          </g>
          <g transform="translate(0.0 23.0 ) ">
            <g>
              <rect x="0.0" y="0.0" height="23.0" width="23.0" stroke-width="0.0" fill="rgb(255,255,255)" fill-opacity="1.0">
              </rect>
              <g transform="translate(1.0 1.0 ) ">
                <g>
                  <circle cx="10.5" cy="10.5" r="5.0" fill="rgb(50,31,129)" fill-opacity="1.0" stroke="rgb(0,0,0)" stroke-opacity="1.0" stroke-width="0.75">
                  </circle>
                </g>
              </g>
              <rect x="0.0" y="0.0" height="23.0" width="23.0" stroke="rgb(255,255,255)" stroke-opacity="1.0" stroke-width="1.0" fill-opacity="0.0">
              </rect>
            </g>
            <g transform="translate(26.9903027277341 16.05 ) ">
              <text class="legend-item" y="0.0">
                <tspan>50-75 km</tspan>
              </text>
            </g>
          </g>
          <g transform="translate(0.0 46.0 ) ">
            <g>
              <rect x="0.0" y="0.0" height="23.0" width="23.0" stroke-width="0.0" fill="rgb(255,255,255)" fill-opacity="1.0">
              </rect>
              <g transform="translate(1.0 1.0 ) ">
                <g>
                  <circle cx="10.5" cy="10.5" r="5.0" fill="rgb(73,55,129)" fill-opacity="1.0" stroke="rgb(0,0,0)" stroke-opacity="1.0" stroke-width="0.75">
                  </circle>
                </g>
              </g>
              <rect x="0.0" y="0.0" height="23.0" width="23.0" stroke="rgb(255,255,255)" stroke-opacity="1.0" stroke-width="1.0" fill-opacity="0.0">
              </rect>
            </g>
            <g transform="translate(26.9903027277341 16.05 ) ">
              <text class="legend-item" y="0.0">
                <tspan>10-20 km</tspan>
              </text>
            </g>
          </g>
          <g transform="translate(0.0 69.0 ) ">
            <g>
              <rect x="0.0" y="0.0" height="23.0" width="23.0" stroke-width="0.0" fill="rgb(255,255,255)" fill-opacity="1.0">
              </rect>
              <g transform="translate(1.0 1.0 ) ">
                <g>
                  <circle cx="10.5" cy="10.5" r="5.0" fill="rgb(91,79,129)" fill-opacity="1.0" stroke="rgb(0,0,0)" stroke-opacity="1.0" stroke-width="0.75">
                  </circle>
                </g>
              </g>
              <rect x="0.0" y="0.0" height="23.0" width="23.0" stroke="rgb(255,255,255)" stroke-opacity="1.0" stroke-width="1.0" fill-opacity="0.0">
              </rect>
            </g>
            <g transform="translate(26.9903027277341 16.05 ) ">
              <text class="legend-item" y="0.0">
                <tspan>75-100 km</tspan>
              </text>
            </g>
          </g>
          <g transform="translate(0.0 92.0 ) ">
            <g>
              <rect x="0.0" y="0.0" height="23.0" width="23.0" stroke-width="0.0" fill="rgb(255,255,255)" fill-opacity="1.0">
              </rect>
              <g transform="translate(1.0 1.0 ) ">
                <g>
                  <circle cx="10.5" cy="10.5" r="5.0" fill="rgb(105,103,128)" fill-opacity="1.0" stroke="rgb(0,0,0)" stroke-opacity="1.0" stroke-width="0.75">
                  </circle>
                </g>
              </g>
              <rect x="0.0" y="0.0" height="23.0" width="23.0" stroke="rgb(255,255,255)" stroke-opacity="1.0" stroke-width="1.0" fill-opacity="0.0">
              </rect>
            </g>
            <g transform="translate(26.9903027277341 16.05 ) ">
              <text class="legend-item" y="0.0">
                <tspan>3-5 km</tspan>
              </text>
            </g>
          </g>
          <g transform="translate(0.0 115.0 ) ">
            <g>
              <rect x="0.0" y="0.0" height="23.0" width="23.0" stroke-width="0.0" fill="rgb(255,255,255)" fill-opacity="1.0">
              </rect>
              <g transform="translate(1.0 1.0 ) ">
                <g>
                  <circle cx="10.5" cy="10.5" r="5.0" fill="rgb(117,128,127)" fill-opacity="1.0" stroke="rgb(0,0,0)" stroke-opacity="1.0" stroke-width="0.75">
                  </circle>
                </g>
              </g>
              <rect x="0.0" y="0.0" height="23.0" width="23.0" stroke="rgb(255,255,255)" stroke-opacity="1.0" stroke-width="1.0" fill-opacity="0.0">
              </rect>
            </g>
            <g transform="translate(26.9903027277341 16.05 ) ">
              <text class="legend-item" y="0.0">
                <tspan>7-10 km</tspan>
              </text>
            </g>
          </g>
          <g transform="translate(0.0 138.0 ) ">
            <g>
              <rect x="0.0" y="0.0" height="23.0" width="23.0" stroke-width="0.0" fill="rgb(255,255,255)" fill-opacity="1.0">
              </rect>
              <g transform="translate(1.0 1.0 ) ">
                <g>
                  <circle cx="10.5" cy="10.5" r="5.0" fill="rgb(128,153,125)" fill-opacity="1.0" stroke="rgb(0,0,0)" stroke-opacity="1.0" stroke-width="0.75">
                  </circle>
                </g>
              </g>
              <rect x="0.0" y="0.0" height="23.0" width="23.0" stroke="rgb(255,255,255)" stroke-opacity="1.0" stroke-width="1.0" fill-opacity="0.0">
              </rect>
            </g>
            <g transform="translate(26.9903027277341 16.05 ) ">
              <text class="legend-item" y="0.0">
                <tspan>5-7 km</tspan>
              </text>
            </g>
          </g>
          <g transform="translate(0.0 161.0 ) ">
            <g>
              <rect x="0.0" y="0.0" height="23.0" width="23.0" stroke-width="0.0" fill="rgb(255,255,255)" fill-opacity="1.0">
              </rect>
              <g transform="translate(1.0 1.0 ) ">
                <g>
                  <circle cx="10.5" cy="10.5" r="5.0" fill="rgb(137,178,121)" fill-opacity="1.0" stroke="rgb(0,0,0)" stroke-opacity="1.0" stroke-width="0.75">
                  </circle>
                </g>
              </g>
              <rect x="0.0" y="0.0" height="23.0" width="23.0" stroke="rgb(255,255,255)" stroke-opacity="1.0" stroke-width="1.0" fill-opacity="0.0">
              </rect>
            </g>
            <g transform="translate(26.9903027277341 16.05 ) ">
              <text class="legend-item" y="0.0">
                <tspan>&gt;100 km</tspan>
              </text>
            </g>
          </g>
          <g transform="translate(0.0 184.0 ) ">
            <g>
              <rect x="0.0" y="0.0" height="23.0" width="23.0" stroke-width="0.0" fill="rgb(255,255,255)" fill-opacity="1.0">
              </rect>
              <g transform="translate(1.0 1.0 ) ">
                <g>
                  <circle cx="10.5" cy="10.5" r="5.0" fill="rgb(145,204,117)" fill-opacity="1.0" stroke="rgb(0,0,0)" stroke-opacity="1.0" stroke-width="0.75">
                  </circle>
                </g>
              </g>
              <rect x="0.0" y="0.0" height="23.0" width="23.0" stroke="rgb(255,255,255)" stroke-opacity="1.0" stroke-width="1.0" fill-opacity="0.0">
              </rect>
            </g>
            <g transform="translate(26.9903027277341 16.05 ) ">
              <text class="legend-item" y="0.0">
                <tspan>2-3 km</tspan>
              </text>
            </g>
          </g>
        </g>
      </g>
    </g>
    <path fill="rgb(0,0,0)" fill-opacity="0.0" stroke="rgb(71,71,71)" stroke-opacity="1.0" stroke-width="0.0" d="M0.0 0.0 L0.0 470.0 L705.0 470.0 L705.0 0.0 Z">
    </path>
  </g>
  <g id="xXxprefixXx2">
  </g>
</svg>