<svg xmlns="http://www.w3.org/2000/svg" xmlns:xlink="http://www.w3.org/1999/xlink" display="block" class="plt-container" width="705.0" height="470.0">
  <style type="text/css">
  .plt-container {
   font-family: Lucida Grande, sans-serif;
   user-select: none;
   -webkit-user-select: none;
   -moz-user-select: none;
   -ms-user-select: none;
}
text {
   text-rendering: optimizeLegibility;
}
#xXxprefixXx0 .plot-title {
   fill: #bbbbbb;
   font-family: Lucida Grande, sans-serif;
   font-size: 16.0px;
   font-weight: normal;
   font-style: normal;   
}
#xXxprefixXx0 .plot-subtitle {
   fill: #bbbbbb;
   font-family: Lucida Grande, sans-serif;
   font-size: 15.0px;
   font-weight: normal;
   font-style: normal;   
}
#xXxprefixXx0 .plot-caption {
   fill: #bbbbbb;
   font-family: Lucida Grande, sans-serif;
   font-size: 13.0px;
   font-weight: normal;
   font-style: normal;   
}
#xXxprefixXx0 .legend-title {
   fill: #bbbbbb;
   font-family: Lucida Grande, sans-serif;
   font-size: 15.0px;
   font-weight: normal;
   font-style: normal;   
}
#xXxprefixXx0 .legend-item {
   fill: #bbbbbb;
   font-family: Lucida Grande, sans-serif;
   font-size: 13.0px;
   font-weight: normal;
   font-style: normal;   
}
#xXxprefixXx0 .axis-title-x {
   fill: #bbbbbb;
   font-family: Lucida Grande, sans-serif;
   font-size: 15.0px;
   font-weight: normal;
   font-style: normal;   
}
#xXxprefixXx0 .axis-text-x {
   fill: #bbbbbb;
   font-family: Lucida Grande, sans-serif;
   font-size: 13.0px;
   font-weight: normal;
   font-style: normal;   
}
#xXxprefixXx2 .axis-tooltip-text-x {
   fill: #303030;
   font-family: Lucida Grande, sans-serif;
   font-size: 13.0px;
   font-weight: normal;
   font-style: normal;   
}
#xXxprefixXx0 .axis-title-y {
   fill: #bbbbbb;
   font-family: Lucida Grande, sans-serif;
   font-size: 15.0px;
   font-weight: normal;
   font-style: normal;   
}
#xXxprefixXx0 .axis-text-y {
   fill: #bbbbbb;
   font-family: Lucida Grande, sans-serif;
   font-size: 13.0px;
   font-weight: normal;
   font-style: normal;   
}
#xXxprefixXx2 .axis-tooltip-text-y {
   fill: #303030;
   font-family: Lucida Grande, sans-serif;
   font-size: 13.0px;
   font-weight: normal;
   font-style: normal;   
}
#xXxprefixXx0 .facet-strip-text-x {
   fill: #bbbbbb;
   font-family: Lucida Grande, sans-serif;
   font-size: 13.0px;
   font-weight: normal;
   font-style: normal;   
}
#xXxprefixXx0 .facet-strip-text-y {
   fill: #bbbbbb;
   font-family: Lucida Grande, sans-serif;
   font-size: 13.0px;
   font-weight: normal;
   font-style: normal;   
}
#xXxprefixXx2 .tooltip-text {
   fill: #bbbbbb;
   font-family: Lucida Grande, sans-serif;
   font-size: 13.0px;
   font-weight: normal;
   font-style: normal;   
}
#xXxprefixXx2 .tooltip-title {
   fill: #bbbbbb;
   font-family: Lucida Grande, sans-serif;
   font-size: 13.0px;
   font-weight: bold;
   font-style: normal;   
}
#xXxprefixXx2 .tooltip-label {
   fill: #bbbbbb;
   font-family: Lucida Grande, sans-serif;
   font-size: 13.0px;
   font-weight: bold;
   font-style: normal;   
}

  </style>
  <g id="xXxprefixXx0">
    <path fill-rule="evenodd" fill="rgb(25,25,28)" fill-opacity="1.0" d="M0.0 0.0 L0.0 470.0 L705.0 470.0 L705.0 0.0 Z">
    </path>
    <g transform="translate(6.5 6.5 ) ">
      <g>
        <g transform="">
          <g>
          </g>
        </g>
        <g transform="">
          <g>
          </g>
        </g>
        <g transform="translate(0.0 457.0 ) ">
        </g>
        <g transform="">
        </g>
      </g>
      <g clip-path="url(#xXxprefixXx1)" clip-bounds-jfx="[rect (0.0, 0.0), (631.2608124881035, 457.0)]">
        <g transform="">
          <g>
            <g>
              <g>
                <path d="M269.08671881184154 210.23294878168025 L222.54303137963134 191.96589756336047 A100.0 100.0 0.0 0 1 315.63040624405176 128.5 L315.63040624405176 178.5 A50.0 50.0 0.0 0 0 269.08671881184154 210.23294878168025 " fill="rgb(228,26,28)" stroke-width="1.0" fill-opacity="1.0">
                </path>
              </g>
              <g>
                <path d="M315.63040624405176 178.5 L315.63040624405176 128.5 A100.0 100.0 0.0 0 1 359.0187801558076 318.5968867902419 L337.32459319992967 273.54844339512096 A50.0 50.0 0.0 0 0 315.63040624405176 178.5 " fill="rgb(55,126,184)" stroke-width="1.0" fill-opacity="1.0">
                </path>
              </g>
              <g>
                <path d="M337.32459319992967 273.54844339512096 L359.0187801558076 318.5968867902419 A100.0 100.0 0.0 0 1 330.5346328616692 327.38308262251286 L323.0825195528605 277.9415413112564 A50.0 50.0 0.0 0 0 337.32459319992967 273.54844339512096 " fill="rgb(77,175,74)" stroke-width="1.0" fill-opacity="1.0">
                </path>
              </g>
              <g>
                <path d="M323.0825195528605 277.9415413112564 L330.5346328616692 327.38308262251286 A100.0 100.0 0.0 0 1 218.1376150258694 250.75209339563145 L266.8840106349606 239.62604669781572 A50.0 50.0 0.0 0 0 323.0825195528605 277.9415413112564 " fill="rgb(152,78,163)" stroke-width="1.0" fill-opacity="1.0">
                </path>
              </g>
              <g>
                <path d="M266.8840106349606 239.62604669781572 L218.1376150258694 250.75209339563145 A100.0 100.0 0.0 0 1 222.54303137963132 191.96589756336056 L269.08671881184154 210.23294878168028 A50.0 50.0 0.0 0 0 266.8840106349606 239.62604669781572 " fill="rgb(55,126,184)" stroke-width="1.0" fill-opacity="1.0">
                </path>
              </g>
              <g>
                <path d="M222.54303137963134 191.96589756336047 A100.0 100.0 0.0 0 1 315.63040624405176 128.5 M315.63040624405176 178.5 A50.0 50.0 0.0 0 0 269.08671881184154 210.23294878168025 " fill="none" stroke-width="1.0" stroke="rgb(255,255,255)" stroke-opacity="1.0">
                </path>
              </g>
              <g>
                <path d="M315.63040624405176 128.5 A100.0 100.0 0.0 0 1 359.0187801558076 318.5968867902419 M337.32459319992967 273.54844339512096 A50.0 50.0 0.0 0 0 315.63040624405176 178.5 " fill="none" stroke-width="1.0" stroke="rgb(255,255,255)" stroke-opacity="1.0">
                </path>
              </g>
              <g>
                <path d="M359.0187801558076 318.5968867902419 A100.0 100.0 0.0 0 1 330.5346328616692 327.38308262251286 M323.0825195528605 277.9415413112564 A50.0 50.0 0.0 0 0 337.32459319992967 273.54844339512096 " fill="none" stroke-width="1.0" stroke="rgb(255,255,255)" stroke-opacity="1.0">
                </path>
              </g>
              <g>
                <path d="M330.5346328616692 327.38308262251286 A100.0 100.0 0.0 0 1 218.1376150258694 250.75209339563145 M266.8840106349606 239.62604669781572 A50.0 50.0 0.0 0 0 323.0825195528605 277.9415413112564 " fill="none" stroke-width="1.0" stroke="rgb(255,255,255)" stroke-opacity="1.0">
                </path>
              </g>
              <g>
                <path d="M218.1376150258694 250.75209339563145 A100.0 100.0 0.0 0 1 222.54303137963132 191.96589756336056 M269.08671881184154 210.23294878168028 A50.0 50.0 0.0 0 0 266.8840106349606 239.62604669781572 " fill="none" stroke-width="1.0" stroke="rgb(255,255,255)" stroke-opacity="1.0">
                </path>
              </g>
              <g>
                <path d="M269.55215568616364 210.41561929386344 L222.07759450530924 191.78322705117728 M315.63040624405176 179.0 L315.63040624405176 128.0 " fill="none" stroke-width="0.75" stroke="rgb(48,48,48)" stroke-opacity="1.0">
                </path>
              </g>
              <g>
                <path d="M315.63040624405176 179.0 L315.63040624405176 128.0 M337.1076513303709 273.09795896116975 L359.23572202536633 319.0473712241931 " fill="none" stroke-width="0.75" stroke="rgb(48,48,48)" stroke-opacity="1.0">
                </path>
              </g>
              <g>
                <path d="M337.1076513303709 273.09795896116975 L359.23572202536633 319.0473712241931 M323.0079984197724 277.44712589814384 L330.6091539947573 327.8774980356254 " fill="none" stroke-width="0.75" stroke="rgb(48,48,48)" stroke-opacity="1.0">
                </path>
              </g>
              <g>
                <path d="M323.0079984197724 277.44712589814384 L330.6091539947573 327.8774980356254 M267.3714745910515 239.51478623083756 L217.65015106977847 250.8633538626096 " fill="none" stroke-width="0.75" stroke="rgb(48,48,48)" stroke-opacity="1.0">
                </path>
              </g>
              <g>
                <path d="M267.3714745910515 239.51478623083756 L217.65015106977847 250.8633538626096 M269.55215568616364 210.41561929386347 L222.0775945053092 191.78322705117733 " fill="none" stroke-width="0.75" stroke="rgb(48,48,48)" stroke-opacity="1.0">
                </path>
              </g>
            </g>
          </g>
        </g>
        <defs>
          <clipPath id="xXxprefixXx1">
            <rect x="0.0" y="0.0" width="631.2608124881035" height="457.0">
            </rect>
          </clipPath>
        </defs>
      </g>
      <g>
      </g>
    </g>
    <g transform="translate(644.2608124881035 167.75 ) ">
      <rect x="5.0" y="5.0" height="124.5" width="50.739187511896475" stroke="rgb(187,187,187)" stroke-opacity="1.0" stroke-width="0.0" fill="rgb(25,25,28)" fill-opacity="1.0">
      </rect>
      <g transform="translate(10.0 10.0 ) ">
        <g transform="translate(0.0 12.0 ) ">
          <text class="legend-title" y="0.0">
            <tspan>name</tspan>
          </text>
        </g>
        <g transform="translate(0.0 22.5 ) ">
          <g transform="">
            <g>
              <rect x="0.0" y="0.0" height="23.0" width="23.0" stroke-width="0.0" fill="rgb(25,25,28)" fill-opacity="1.0">
              </rect>
              <g transform="translate(1.0 1.0 ) ">
                <g>
                  <circle cx="10.5" cy="10.5" r="5.0" fill="rgb(228,26,28)" fill-opacity="1.0" stroke="rgb(255,255,255)" stroke-opacity="1.0" stroke-width="0.75">
                  </circle>
                </g>
              </g>
              <rect x="0.0" y="0.0" height="23.0" width="23.0" stroke="rgb(25,25,28)" stroke-opacity="1.0" stroke-width="1.0" fill-opacity="0.0">
              </rect>
            </g>
            <g transform="translate(26.9903027277341 16.05 ) ">
              <text class="legend-item" y="0.0">
                <tspan>a</tspan>
              </text>
            </g>
          </g>
          <g transform="translate(0.0 23.0 ) ">
            <g>
              <rect x="0.0" y="0.0" height="23.0" width="23.0" stroke-width="0.0" fill="rgb(25,25,28)" fill-opacity="1.0">
              </rect>
              <g transform="translate(1.0 1.0 ) ">
                <g>
                  <circle cx="10.5" cy="10.5" r="5.0" fill="rgb(55,126,184)" fill-opacity="1.0" stroke="rgb(255,255,255)" stroke-opacity="1.0" stroke-width="0.75">
                  </circle>
                </g>
              </g>
              <rect x="0.0" y="0.0" height="23.0" width="23.0" stroke="rgb(25,25,28)" stroke-opacity="1.0" stroke-width="1.0" fill-opacity="0.0">
              </rect>
            </g>
            <g transform="translate(26.9903027277341 16.05 ) ">
              <text class="legend-item" y="0.0">
                <tspan>b</tspan>
              </text>
            </g>
          </g>
          <g transform="translate(0.0 46.0 ) ">
            <g>
              <rect x="0.0" y="0.0" height="23.0" width="23.0" stroke-width="0.0" fill="rgb(25,25,28)" fill-opacity="1.0">
              </rect>
              <g transform="translate(1.0 1.0 ) ">
                <g>
                  <circle cx="10.5" cy="10.5" r="5.0" fill="rgb(77,175,74)" fill-opacity="1.0" stroke="rgb(255,255,255)" stroke-opacity="1.0" stroke-width="0.75">
                  </circle>
                </g>
              </g>
              <rect x="0.0" y="0.0" height="23.0" width="23.0" stroke="rgb(25,25,28)" stroke-opacity="1.0" stroke-width="1.0" fill-opacity="0.0">
              </rect>
            </g>
            <g transform="translate(26.9903027277341 16.05 ) ">
              <text class="legend-item" y="0.0">
                <tspan>c</tspan>
              </text>
            </g>
          </g>
          <g transform="translate(0.0 69.0 ) ">
            <g>
              <rect x="0.0" y="0.0" height="23.0" width="23.0" stroke-width="0.0" fill="rgb(25,25,28)" fill-opacity="1.0">
              </rect>
              <g transform="translate(1.0 1.0 ) ">
                <g>
                  <circle cx="10.5" cy="10.5" r="5.0" fill="rgb(152,78,163)" fill-opacity="1.0" stroke="rgb(255,255,255)" stroke-opacity="1.0" stroke-width="0.75">
                  </circle>
                </g>
              </g>
              <rect x="0.0" y="0.0" height="23.0" width="23.0" stroke="rgb(25,25,28)" stroke-opacity="1.0" stroke-width="1.0" fill-opacity="0.0">
              </rect>
            </g>
            <g transform="translate(26.9903027277341 16.05 ) ">
              <text class="legend-item" y="0.0">
                <tspan>d</tspan>
              </text>
            </g>
          </g>
        </g>
      </g>
    </g>
    <path fill="rgb(0,0,0)" fill-opacity="0.0" stroke="rgb(187,187,187)" stroke-opacity="1.0" stroke-width="0.0" d="M0.0 0.0 L0.0 470.0 L705.0 470.0 L705.0 0.0 Z">
    </path>
  </g>
  <g id="xXxprefixXx2">
  </g>
</svg>