<svg xmlns="http://www.w3.org/2000/svg" xmlns:xlink="http://www.w3.org/1999/xlink" class="plt-container" width="700.0" height="600.0">
<style type="text/css">

  .plt-container {
   font-family: Lucida Grande, sans-serif;
   user-select: none;
   -webkit-user-select: none;
   -moz-user-select: none;
   -ms-user-select: none;
}
text {
   text-rendering: optimizeLegibility;
}
#xXxprefixXx0 .plot-title {
fill: #bbbbbb;
font-weight: normal;
   font-style: normal;font-family: Lucida Grande, sans-serif;
font-size: 16.0px;

}
#xXxprefixXx0 .plot-subtitle {
fill: #bbbbbb;
font-weight: normal;
   font-style: normal;font-family: Lucida Grande, sans-serif;
font-size: 15.0px;

}
#xXxprefixXx0 .plot-caption {
fill: #bbbbbb;
font-weight: normal;
   font-style: normal;font-family: Lucida Grande, sans-serif;
font-size: 13.0px;

}
#xXxprefixXx0 .hyperlink-element {
fill: #118ed8;
font-weight: normal;
   font-style: normal;
}
#xXxprefixXx0 .legend-title {
fill: #bbbbbb;
font-weight: normal;
   font-style: normal;font-family: Lucida Grande, sans-serif;
font-size: 15.0px;

}
#xXxprefixXx0 .legend-item {
fill: #bbbbbb;
font-weight: normal;
   font-style: normal;font-family: Lucida Grande, sans-serif;
font-size: 13.0px;

}
#xXxprefixXx0 .axis-title-x {
fill: #bbbbbb;
font-weight: normal;
   font-style: normal;font-family: Lucida Grande, sans-serif;
font-size: 15.0px;

}
#xXxprefixXx0 .axis-text-x {
fill: #bbbbbb;
font-weight: normal;
   font-style: normal;font-family: Lucida Grande, sans-serif;
font-size: 13.0px;

}
#xXxprefixXx2 .axis-tooltip-text-x {
fill: #303030;
font-weight: normal;
   font-style: normal;font-family: Lucida Grande, sans-serif;
font-size: 13.0px;

}
#xXxprefixXx0 .axis-title-y {
fill: #bbbbbb;
font-weight: normal;
   font-style: normal;font-family: Lucida Grande, sans-serif;
font-size: 15.0px;

}
#xXxprefixXx0 .axis-text-y {
fill: #bbbbbb;
font-weight: normal;
   font-style: normal;font-family: Lucida Grande, sans-serif;
font-size: 13.0px;

}
#xXxprefixXx2 .axis-tooltip-text-y {
fill: #303030;
font-weight: normal;
   font-style: normal;font-family: Lucida Grande, sans-serif;
font-size: 13.0px;

}
#xXxprefixXx0 .facet-strip-text-x {
fill: #bbbbbb;
font-weight: normal;
   font-style: normal;font-family: Lucida Grande, sans-serif;
font-size: 13.0px;

}
#xXxprefixXx0 .facet-strip-text-y {
fill: #bbbbbb;
font-weight: normal;
   font-style: normal;font-family: Lucida Grande, sans-serif;
font-size: 13.0px;

}
#xXxprefixXx2 .tooltip-text {
fill: #bbbbbb;
font-weight: normal;
   font-style: normal;font-family: Lucida Grande, sans-serif;
font-size: 13.0px;

}
#xXxprefixXx2 .tooltip-title {
fill: #bbbbbb;
font-weight: bold;
   font-style: normal;font-family: Lucida Grande, sans-serif;
font-size: 13.0px;

}
#xXxprefixXx2 .tooltip-label {
fill: #bbbbbb;
font-weight: bold;
   font-style: normal;font-family: Lucida Grande, sans-serif;
font-size: 13.0px;

}

  

  .plt-container {
   font-family: Lucida Grande, sans-serif;
   user-select: none;
   -webkit-user-select: none;
   -moz-user-select: none;
   -ms-user-select: none;
}
text {
   text-rendering: optimizeLegibility;
}
#xXxprefixXx3 .plot-title {
fill: #bbbbbb;
font-weight: normal;
   font-style: normal;font-family: Lucida Grande, sans-serif;
font-size: 16.0px;

}
#xXxprefixXx3 .plot-subtitle {
fill: #bbbbbb;
font-weight: normal;
   font-style: normal;font-family: Lucida Grande, sans-serif;
font-size: 15.0px;

}
#xXxprefixXx3 .plot-caption {
fill: #bbbbbb;
font-weight: normal;
   font-style: normal;font-family: Lucida Grande, sans-serif;
font-size: 13.0px;

}
#xXxprefixXx3 .hyperlink-element {
fill: #118ed8;
font-weight: normal;
   font-style: normal;
}
#xXxprefixXx3 .legend-title {
fill: #bbbbbb;
font-weight: normal;
   font-style: normal;font-family: Lucida Grande, sans-serif;
font-size: 15.0px;

}
#xXxprefixXx3 .legend-item {
fill: #bbbbbb;
font-weight: normal;
   font-style: normal;font-family: Lucida Grande, sans-serif;
font-size: 13.0px;

}
#xXxprefixXx3 .axis-title-x {
fill: #bbbbbb;
font-weight: normal;
   font-style: normal;font-family: Lucida Grande, sans-serif;
font-size: 15.0px;

}
#xXxprefixXx3 .axis-text-x {
fill: #bbbbbb;
font-weight: normal;
   font-style: normal;font-family: Lucida Grande, sans-serif;
font-size: 13.0px;

}
#xXxprefixXx5 .axis-tooltip-text-x {
fill: #303030;
font-weight: normal;
   font-style: normal;font-family: Lucida Grande, sans-serif;
font-size: 13.0px;

}
#xXxprefixXx3 .axis-title-y {
fill: #bbbbbb;
font-weight: normal;
   font-style: normal;font-family: Lucida Grande, sans-serif;
font-size: 15.0px;

}
#xXxprefixXx3 .axis-text-y {
fill: #bbbbbb;
font-weight: normal;
   font-style: normal;font-family: Lucida Grande, sans-serif;
font-size: 13.0px;

}
#xXxprefixXx5 .axis-tooltip-text-y {
fill: #303030;
font-weight: normal;
   font-style: normal;font-family: Lucida Grande, sans-serif;
font-size: 13.0px;

}
#xXxprefixXx3 .facet-strip-text-x {
fill: #bbbbbb;
font-weight: normal;
   font-style: normal;font-family: Lucida Grande, sans-serif;
font-size: 13.0px;

}
#xXxprefixXx3 .facet-strip-text-y {
fill: #bbbbbb;
font-weight: normal;
   font-style: normal;font-family: Lucida Grande, sans-serif;
font-size: 13.0px;

}
#xXxprefixXx5 .tooltip-text {
fill: #bbbbbb;
font-weight: normal;
   font-style: normal;font-family: Lucida Grande, sans-serif;
font-size: 13.0px;

}
#xXxprefixXx5 .tooltip-title {
fill: #bbbbbb;
font-weight: bold;
   font-style: normal;font-family: Lucida Grande, sans-serif;
font-size: 13.0px;

}
#xXxprefixXx5 .tooltip-label {
fill: #bbbbbb;
font-weight: bold;
   font-style: normal;font-family: Lucida Grande, sans-serif;
font-size: 13.0px;

}

  

  .plt-container {
   font-family: Lucida Grande, sans-serif;
   user-select: none;
   -webkit-user-select: none;
   -moz-user-select: none;
   -ms-user-select: none;
}
text {
   text-rendering: optimizeLegibility;
}
#xXxprefixXx6 .plot-title {
fill: #bbbbbb;
font-weight: normal;
   font-style: normal;font-family: Lucida Grande, sans-serif;
font-size: 16.0px;

}
#xXxprefixXx6 .plot-subtitle {
fill: #bbbbbb;
font-weight: normal;
   font-style: normal;font-family: Lucida Grande, sans-serif;
font-size: 15.0px;

}
#xXxprefixXx6 .plot-caption {
fill: #bbbbbb;
font-weight: normal;
   font-style: normal;font-family: Lucida Grande, sans-serif;
font-size: 13.0px;

}
#xXxprefixXx6 .hyperlink-element {
fill: #118ed8;
font-weight: normal;
   font-style: normal;
}
#xXxprefixXx6 .legend-title {
fill: #bbbbbb;
font-weight: normal;
   font-style: normal;font-family: Lucida Grande, sans-serif;
font-size: 15.0px;

}
#xXxprefixXx6 .legend-item {
fill: #bbbbbb;
font-weight: normal;
   font-style: normal;font-family: Lucida Grande, sans-serif;
font-size: 13.0px;

}
#xXxprefixXx6 .axis-title-x {
fill: #bbbbbb;
font-weight: normal;
   font-style: normal;font-family: Lucida Grande, sans-serif;
font-size: 15.0px;

}
#xXxprefixXx6 .axis-text-x {
fill: #bbbbbb;
font-weight: normal;
   font-style: normal;font-family: Lucida Grande, sans-serif;
font-size: 13.0px;

}
#xXxprefixXx8 .axis-tooltip-text-x {
fill: #303030;
font-weight: normal;
   font-style: normal;font-family: Lucida Grande, sans-serif;
font-size: 13.0px;

}
#xXxprefixXx6 .axis-title-y {
fill: #bbbbbb;
font-weight: normal;
   font-style: normal;font-family: Lucida Grande, sans-serif;
font-size: 15.0px;

}
#xXxprefixXx6 .axis-text-y {
fill: #bbbbbb;
font-weight: normal;
   font-style: normal;font-family: Lucida Grande, sans-serif;
font-size: 13.0px;

}
#xXxprefixXx8 .axis-tooltip-text-y {
fill: #303030;
font-weight: normal;
   font-style: normal;font-family: Lucida Grande, sans-serif;
font-size: 13.0px;

}
#xXxprefixXx6 .facet-strip-text-x {
fill: #bbbbbb;
font-weight: normal;
   font-style: normal;font-family: Lucida Grande, sans-serif;
font-size: 13.0px;

}
#xXxprefixXx6 .facet-strip-text-y {
fill: #bbbbbb;
font-weight: normal;
   font-style: normal;font-family: Lucida Grande, sans-serif;
font-size: 13.0px;

}
#xXxprefixXx8 .tooltip-text {
fill: #bbbbbb;
font-weight: normal;
   font-style: normal;font-family: Lucida Grande, sans-serif;
font-size: 13.0px;

}
#xXxprefixXx8 .tooltip-title {
fill: #bbbbbb;
font-weight: bold;
   font-style: normal;font-family: Lucida Grande, sans-serif;
font-size: 13.0px;

}
#xXxprefixXx8 .tooltip-label {
fill: #bbbbbb;
font-weight: bold;
   font-style: normal;font-family: Lucida Grande, sans-serif;
font-size: 13.0px;

}

  
</style>
<g transform="translate(0.0 0.0)" id="xXxprefixXx0">
    <path fill-rule="evenodd" fill="rgb(25,25,28)" fill-opacity="1.0" d="M0.0 0.0 L0.0 300.0 L350.0 300.0 L350.0 0.0 Z">
    </path>
    <g transform="translate(29.5 26.5 ) ">
      <g>
        <g transform="translate(35.01530667574961 0.0 ) ">
          <g>
            <line x1="49.4291185313314" y1="0.0" x2="49.4291185313314" y2="221.0" stroke="rgb(71,71,71)" stroke-opacity="1.0" stroke-width="1.0" fill="none">
            </line>
            <line x1="121.7206026543612" y1="0.0" x2="121.7206026543612" y2="221.0" stroke="rgb(71,71,71)" stroke-opacity="1.0" stroke-width="1.0" fill="none">
            </line>
            <line x1="194.012086777391" y1="0.0" x2="194.012086777391" y2="221.0" stroke="rgb(71,71,71)" stroke-opacity="1.0" stroke-width="1.0" fill="none">
            </line>
            <line x1="266.3035709004208" y1="0.0" x2="266.3035709004208" y2="221.0" stroke="rgb(71,71,71)" stroke-opacity="1.0" stroke-width="1.0" fill="none">
            </line>
          </g>
        </g>
        <g transform="translate(35.01530667574961 0.0 ) ">
          <g>
            <line x1="0.0" y1="193.87134915129747" x2="278.9846933242504" y2="193.87134915129747" stroke="rgb(71,71,71)" stroke-opacity="1.0" stroke-width="1.0" fill="none">
            </line>
            <line x1="0.0" y1="160.5655791950254" x2="278.9846933242504" y2="160.5655791950254" stroke="rgb(71,71,71)" stroke-opacity="1.0" stroke-width="1.0" fill="none">
            </line>
            <line x1="0.0" y1="127.25980923875332" x2="278.9846933242504" y2="127.25980923875332" stroke="rgb(71,71,71)" stroke-opacity="1.0" stroke-width="1.0" fill="none">
            </line>
            <line x1="0.0" y1="93.95403928248125" x2="278.9846933242504" y2="93.95403928248125" stroke="rgb(71,71,71)" stroke-opacity="1.0" stroke-width="1.0" fill="none">
            </line>
            <line x1="0.0" y1="60.648269326209174" x2="278.9846933242504" y2="60.648269326209174" stroke="rgb(71,71,71)" stroke-opacity="1.0" stroke-width="1.0" fill="none">
            </line>
            <line x1="0.0" y1="27.3424993699371" x2="278.9846933242504" y2="27.3424993699371" stroke="rgb(71,71,71)" stroke-opacity="1.0" stroke-width="1.0" fill="none">
            </line>
          </g>
        </g>
        <g transform="translate(35.01530667574961 221.0 ) ">
          <g transform="translate(49.4291185313314 0.0 ) ">
            <line stroke-width="1.0" stroke="rgb(187,187,187)" stroke-opacity="1.0" x2="0.0" y2="4.0">
            </line>
            <g transform="translate(0.0 7.0 ) ">
              <text class="axis-text-x" text-anchor="middle" dy="0.7em">
                <tspan>-1</tspan>
              </text>
            </g>
          </g>
          <g transform="translate(121.7206026543612 0.0 ) ">
            <line stroke-width="1.0" stroke="rgb(187,187,187)" stroke-opacity="1.0" x2="0.0" y2="4.0">
            </line>
            <g transform="translate(0.0 7.0 ) ">
              <text class="axis-text-x" text-anchor="middle" dy="0.7em">
                <tspan>0</tspan>
              </text>
            </g>
          </g>
          <g transform="translate(194.012086777391 0.0 ) ">
            <line stroke-width="1.0" stroke="rgb(187,187,187)" stroke-opacity="1.0" x2="0.0" y2="4.0">
            </line>
            <g transform="translate(0.0 7.0 ) ">
              <text class="axis-text-x" text-anchor="middle" dy="0.7em">
                <tspan>1</tspan>
              </text>
            </g>
          </g>
          <g transform="translate(266.3035709004208 0.0 ) ">
            <line stroke-width="1.0" stroke="rgb(187,187,187)" stroke-opacity="1.0" x2="0.0" y2="4.0">
            </line>
            <g transform="translate(0.0 7.0 ) ">
              <text class="axis-text-x" text-anchor="middle" dy="0.7em">
                <tspan>2</tspan>
              </text>
            </g>
          </g>
          <line x1="0.0" y1="0.0" x2="278.9846933242504" y2="0.0" stroke-width="1.0" stroke="rgb(187,187,187)" stroke-opacity="1.0">
          </line>
        </g>
        <g transform="translate(35.01530667574961 0.0 ) ">
          <g transform="translate(0.0 193.87134915129747 ) ">
            <g transform="translate(-3.0 0.0 ) ">
              <text class="axis-text-y" text-anchor="end" dy="0.35em">
                <tspan>-1.5</tspan>
              </text>
            </g>
          </g>
          <g transform="translate(0.0 160.5655791950254 ) ">
            <g transform="translate(-3.0 0.0 ) ">
              <text class="axis-text-y" text-anchor="end" dy="0.35em">
                <tspan>-1.0</tspan>
              </text>
            </g>
          </g>
          <g transform="translate(0.0 127.25980923875332 ) ">
            <g transform="translate(-3.0 0.0 ) ">
              <text class="axis-text-y" text-anchor="end" dy="0.35em">
                <tspan>-0.5</tspan>
              </text>
            </g>
          </g>
          <g transform="translate(0.0 93.95403928248125 ) ">
            <g transform="translate(-3.0 0.0 ) ">
              <text class="axis-text-y" text-anchor="end" dy="0.35em">
                <tspan>0.0</tspan>
              </text>
            </g>
          </g>
          <g transform="translate(0.0 60.648269326209174 ) ">
            <g transform="translate(-3.0 0.0 ) ">
              <text class="axis-text-y" text-anchor="end" dy="0.35em">
                <tspan>0.5</tspan>
              </text>
            </g>
          </g>
          <g transform="translate(0.0 27.3424993699371 ) ">
            <g transform="translate(-3.0 0.0 ) ">
              <text class="axis-text-y" text-anchor="end" dy="0.35em">
                <tspan>1.0</tspan>
              </text>
            </g>
          </g>
        </g>
      </g>
      <g clip-path="url(#xXxprefixXx1)" clip-bounds-jfx="[rect (35.01530667574961, 0.0), (278.9846933242504, 221.0)]">
        <g transform="translate(35.01530667574961 0.0 ) ">
          <g>
            <g>
              <g>
                <path d="M12.681122423829564 105.10247352472167 L12.681122423829564 105.10247352472167 L12.860668329095603 98.70819425645551 L12.946352702104306 111.53629020076664 L13.47850314579567 92.37936252264086 L13.661033114982658 117.98324178792711 L14.526375148037957 86.14129111774616 L14.827982814352666 124.41654167895639 L15.994324126019904 80.01859426410576 L16.448132320341216 130.80913026906595 L17.87074414341781 74.03509049918947 L18.52049755920683 137.1337884623943 L20.14245274022612 68.21371007317356 L21.042161963911454 143.3632530969595 L22.794766213745532 62.57640721660684 L24.00826679571216 149.47033380038013 L25.811580587010923 57.14407761325261 L27.41200981028166 155.42803077795315 L29.17545785246523 51.93648138719355 L31.24465235619968 161.2096530260809 L32.867717059192415 46.97217188615212 L35.495534957312174 166.7889364576197 L36.86852979461008 42.268430514805125 L40.152101393590755 172.14016142152423 L41.1570195962352 37.84120784281849 L45.19993125788743 177.23826909719702 L45.71136481603678 33.705071182513805 L50.508904449021756 29.87315880064223 L50.62278092855139 182.05897624428377 L55.52624642908019 26.357140897837525 L56.40263286039469 186.57888779125432 L60.73937788879152 23.167187458065328 L62.519753059153885 190.77560675102558 L66.12377687584421 20.31194303894918 L68.95275656753098 194.62784095907057 L71.65452501698078 17.798508542350902 L75.67868075431139 198.11550613893917 L77.30642062091044 15.632429973174695 L82.67306616206477 201.2198248118308 L83.05409171443185 13.817694163180889 L83.89149854840744 103.54009291905099 L83.93642901384825 105.9385515298638 L84.02168141408721 101.18489055312821 L84.16182478183242 108.36912916693441 L84.32083065794114 98.88358445904943 L84.57219945923393 110.82024209960375 L84.782051283939 96.6462700689778 L85.1711887215967 113.27991381430454 L85.3977504702788 94.48245430256188 L85.96151480632322 115.73583154885903 L86.15969077477445 92.4010153243163 L86.9449552911413 118.17540537154426 L87.05904602478823 90.41016614587497 L88.08645957701862 88.51742222222192 L88.12231636350765 120.5858295295683 L88.87210851104714 12.356731405769821 L89.23210462291405 86.72957316973282 L89.4934107658134 122.95414577791202 L89.9100446337603 203.9234205808084 L90.48574620760547 85.05265871208263 L91.05704057941486 125.2673083871324 L91.83680462405877 83.49194893790235 L92.81098498772073 127.51225051775991 L93.27441983967122 82.05192893160773 L94.73509481857172 11.250424917379675 L94.75199313493127 129.6759516394184 L94.78751660978229 80.73628781618768 L96.3648699315472 79.54791222403912 L96.8757821726536 131.74550566480156 L97.36243440436598 206.2104073363456 L97.99517049232863 78.48888418928074 L99.17704056162478 133.70818946220498 L99.66708976918434 77.56048343247882 L100.61783790162924 10.49812701144593 L101.3693444401509 76.76319398648582 L101.64943667027575 135.55153140547685 L103.09075977381488 76.09671509023069 L104.2856326859868 137.26337961704346 L104.82033167109095 75.55997625591823 L105.00184181037147 208.0664729481299 L106.49539632638364 10.097681841939973 L106.54728704214571 75.15115639429166 L107.07730382873893 138.83196955811775 L108.26114221196814 74.86770686249162 L109.95175906013324 74.70637827969834 L110.01516283058017 140.24599062032115 L111.60939861377099 74.66325093726653 L112.34320532834872 10.045454545454561 L112.79876923827231 209.4789570283197 L113.0889896180274 141.49465137475661 L113.22477182756629 74.7337686125396 L114.78908730069914 74.91277557904641 L116.28766610833807 142.5677431380602 L116.29409569790575 75.19455659041367 L117.73213066020996 75.57287960114672 L118.13717925955807 10.336366583754995 L119.09614601024654 76.04104097450151 L119.59921600463773 143.4557015201272 L120.37974907737677 76.59191291605465 L120.72272890258466 210.43692237370948 L121.57722998887608 77.21799286132777 L121.7206026543612 93.95403928248125 L122.44570211760028 93.91179241535671 L122.68358679525032 77.91145453698348 L123.01084944930528 144.14966562503938 L123.16212443074771 93.785388630793 L123.69454632009989 78.66420040772286 L123.8538106886688 10.963937062785135 L123.86125010082492 93.57583636524373 L124.5345746272878 93.28480964358307 L124.60658064778775 79.46791521511076 L125.17376519541372 92.91463806269478 L125.4169191853655 80.31412031016012 L125.77071641090254 92.46829284312926 L126.12355625865267 81.19422847863794 L126.31760476375528 91.94936902301464 L126.50901236992374 144.64153458519246 L126.72525422593546 82.09959895672372 L126.8069415160119 91.36206388896771 L127.22154211633173 83.02159233485874 L127.23162371601538 90.71115175883955 L127.58498305148686 90.00195525064514 L127.61270982334484 83.95162504936661 L127.86083226479616 89.24031319087165 L127.89979790738266 84.88122316469108 L128.0535088663407 88.4325453334398 L128.08458308393563 85.80207515386466 L128.15791589584327 87.58541407781749 L128.16955949657526 86.70608339106687 L128.74236201501085 210.9312197184025 L129.47026574665324 11.92032977940913 L130.07944032761782 144.92402111870453 L133.70721665385054 144.99070181184177 L134.96447533146912 13.196405723789795 L136.825562879144 210.95454545454544 L137.37683463884727 144.8360638413792 L140.31522180741524 14.781780743345024 L141.0722635128779 144.45554786646977 L144.77701794076705 143.8455868356644 L144.9396074196566 210.50149200632558 L145.50222085864388 16.6648880537755 L148.47423073031698 143.00364047214126 L150.50619818140484 18.83304526379834 L152.1467284369312 141.92822521888948 L153.05128563144535 209.56859057167935 L155.30896072591545 21.272525563029248 L155.77710952970216 140.61893944547413 L159.34782476867318 139.0764837389926 L159.8934622261518 23.96863270699076 L161.1270374127698 208.15434597687891 L162.84125942897865 137.30267612383435 L164.24386278421804 26.905779419549233 L166.2398169951909 135.30046207776945 L168.3455823051256 30.067568821240982 L169.13309122716998 206.25926342123674 L169.5260039385202 133.07391923562307 L172.18534760767378 33.436878481983676 L172.68251518059316 130.62825669622978 L175.69231984042216 127.96980887339797 L175.75123306752138 36.995946688610324 L177.03560502195364 203.88586692246315 L178.53874685592973 125.10602385713139 L179.03269467933737 40.72646051153554 L181.20557006803062 122.04544627724337 L182.02059745597086 44.60964525067742 L183.67709235384467 118.79769468762971 L184.70723611374896 48.62635483852236 L184.8008088164213 201.03870930759086 L185.938228396123 115.37343351572794 L187.08634902414613 52.75716277792659 L187.97458567843705 111.78433964795425 L189.15312544303595 56.9824531938855 L189.77254330010274 108.04306374805475 L190.9042060593898 61.28251158205142 L191.31932821118608 104.16318643121261 L192.3376769354929 65.63761484220453 L192.39514836079408 197.7243736297064 L192.60308847624304 100.15916944229045 L193.4530569403717 70.02812019215247 L193.61296318566298 96.04630201164044 L194.25127880703369 74.43455256659499 L194.33914864557514 91.84064258636083 L194.73466397218806 78.83769011629305 L194.7729604911986 87.55895615859629 L194.90689138421828 83.2186474353617 L199.78542925714075 193.9514659268447 L206.93896092647546 189.73059927617132 L213.82369980171984 185.0743691338244 L220.40839112437524 179.99731998837706 L226.66270872361326 174.51590339362713 L232.55739216003607 168.64842748418386 L238.064380622616 162.41499811491724 L243.1569429762718 155.83745180261707 L247.80980336917037 148.93928068499395 L251.99926182310725 141.7455497483036 L255.70330924719906 134.28280661019653 L258.90173633453287 126.57898417876716 L261.5762358233242 118.66329654199893 L263.710497628432 110.56612847377436 L265.2902963756993 102.31891897313756 L266.3035709004208 93.95403928248132 " fill="none" stroke-width="1.6500000000000001" stroke="rgb(187,187,187)" stroke-opacity="1.0">
                </path>
              </g>
            </g>
          </g>
        </g>
        <defs>
          <clipPath id="xXxprefixXx1">
            <rect x="35.01530667574961" y="0.0" width="278.9846933242504" height="221.0">
            </rect>
          </clipPath>
        </defs>
      </g>
      <g>
      </g>
    </g>
    <g transform="translate(64.51530667574961 16.8 ) ">
      <text class="plot-title" y="0.0">
        <tspan>Line Plot</tspan>
      </text>
    </g>
    <g transform="translate(16.0 137.0 ) rotate(-90.0 ) ">
      <text class="axis-title-y" y="0.0" text-anchor="middle">
        <tspan>y</tspan>
      </text>
    </g>
    <g transform="translate(204.00765333787479 293.0 ) ">
      <text class="axis-title-x" y="0.0" text-anchor="middle">
        <tspan>x</tspan>
      </text>
    </g>
    <path fill="rgb(0,0,0)" fill-opacity="0.0" stroke="rgb(187,187,187)" stroke-opacity="1.0" stroke-width="0.0" d="M0.0 0.0 L0.0 300.0 L350.0 300.0 L350.0 0.0 Z" pointer-events="none">
    </path>
  </g>
  <g id="xXxprefixXx2">
  </g>

<g transform="translate(350.0 0.0)" id="xXxprefixXx3">
    <path fill-rule="evenodd" fill="rgb(25,25,28)" fill-opacity="1.0" d="M0.0 0.0 L0.0 300.0 L350.0 300.0 L350.0 0.0 Z">
    </path>
    <g transform="translate(29.5 26.5 ) ">
      <g>
        <g transform="translate(35.01530667574961 0.0 ) ">
          <g>
            <line x1="49.4291185313314" y1="0.0" x2="49.4291185313314" y2="221.0" stroke="rgb(71,71,71)" stroke-opacity="1.0" stroke-width="1.0" fill="none">
            </line>
            <line x1="121.7206026543612" y1="0.0" x2="121.7206026543612" y2="221.0" stroke="rgb(71,71,71)" stroke-opacity="1.0" stroke-width="1.0" fill="none">
            </line>
            <line x1="194.012086777391" y1="0.0" x2="194.012086777391" y2="221.0" stroke="rgb(71,71,71)" stroke-opacity="1.0" stroke-width="1.0" fill="none">
            </line>
            <line x1="266.3035709004208" y1="0.0" x2="266.3035709004208" y2="221.0" stroke="rgb(71,71,71)" stroke-opacity="1.0" stroke-width="1.0" fill="none">
            </line>
          </g>
        </g>
        <g transform="translate(35.01530667574961 0.0 ) ">
          <g>
            <line x1="0.0" y1="193.87134915129747" x2="278.9846933242504" y2="193.87134915129747" stroke="rgb(71,71,71)" stroke-opacity="1.0" stroke-width="1.0" fill="none">
            </line>
            <line x1="0.0" y1="160.5655791950254" x2="278.9846933242504" y2="160.5655791950254" stroke="rgb(71,71,71)" stroke-opacity="1.0" stroke-width="1.0" fill="none">
            </line>
            <line x1="0.0" y1="127.25980923875332" x2="278.9846933242504" y2="127.25980923875332" stroke="rgb(71,71,71)" stroke-opacity="1.0" stroke-width="1.0" fill="none">
            </line>
            <line x1="0.0" y1="93.95403928248125" x2="278.9846933242504" y2="93.95403928248125" stroke="rgb(71,71,71)" stroke-opacity="1.0" stroke-width="1.0" fill="none">
            </line>
            <line x1="0.0" y1="60.648269326209174" x2="278.9846933242504" y2="60.648269326209174" stroke="rgb(71,71,71)" stroke-opacity="1.0" stroke-width="1.0" fill="none">
            </line>
            <line x1="0.0" y1="27.3424993699371" x2="278.9846933242504" y2="27.3424993699371" stroke="rgb(71,71,71)" stroke-opacity="1.0" stroke-width="1.0" fill="none">
            </line>
          </g>
        </g>
        <g transform="translate(35.01530667574961 221.0 ) ">
          <g transform="translate(49.4291185313314 0.0 ) ">
            <line stroke-width="1.0" stroke="rgb(187,187,187)" stroke-opacity="1.0" x2="0.0" y2="4.0">
            </line>
            <g transform="translate(0.0 7.0 ) ">
              <text class="axis-text-x" text-anchor="middle" dy="0.7em">
                <tspan>-1</tspan>
              </text>
            </g>
          </g>
          <g transform="translate(121.7206026543612 0.0 ) ">
            <line stroke-width="1.0" stroke="rgb(187,187,187)" stroke-opacity="1.0" x2="0.0" y2="4.0">
            </line>
            <g transform="translate(0.0 7.0 ) ">
              <text class="axis-text-x" text-anchor="middle" dy="0.7em">
                <tspan>0</tspan>
              </text>
            </g>
          </g>
          <g transform="translate(194.012086777391 0.0 ) ">
            <line stroke-width="1.0" stroke="rgb(187,187,187)" stroke-opacity="1.0" x2="0.0" y2="4.0">
            </line>
            <g transform="translate(0.0 7.0 ) ">
              <text class="axis-text-x" text-anchor="middle" dy="0.7em">
                <tspan>1</tspan>
              </text>
            </g>
          </g>
          <g transform="translate(266.3035709004208 0.0 ) ">
            <line stroke-width="1.0" stroke="rgb(187,187,187)" stroke-opacity="1.0" x2="0.0" y2="4.0">
            </line>
            <g transform="translate(0.0 7.0 ) ">
              <text class="axis-text-x" text-anchor="middle" dy="0.7em">
                <tspan>2</tspan>
              </text>
            </g>
          </g>
          <line x1="0.0" y1="0.0" x2="278.9846933242504" y2="0.0" stroke-width="1.0" stroke="rgb(187,187,187)" stroke-opacity="1.0">
          </line>
        </g>
        <g transform="translate(35.01530667574961 0.0 ) ">
          <g transform="translate(0.0 193.87134915129747 ) ">
            <g transform="translate(-3.0 0.0 ) ">
              <text class="axis-text-y" text-anchor="end" dy="0.35em">
                <tspan>-1.5</tspan>
              </text>
            </g>
          </g>
          <g transform="translate(0.0 160.5655791950254 ) ">
            <g transform="translate(-3.0 0.0 ) ">
              <text class="axis-text-y" text-anchor="end" dy="0.35em">
                <tspan>-1.0</tspan>
              </text>
            </g>
          </g>
          <g transform="translate(0.0 127.25980923875332 ) ">
            <g transform="translate(-3.0 0.0 ) ">
              <text class="axis-text-y" text-anchor="end" dy="0.35em">
                <tspan>-0.5</tspan>
              </text>
            </g>
          </g>
          <g transform="translate(0.0 93.95403928248125 ) ">
            <g transform="translate(-3.0 0.0 ) ">
              <text class="axis-text-y" text-anchor="end" dy="0.35em">
                <tspan>0.0</tspan>
              </text>
            </g>
          </g>
          <g transform="translate(0.0 60.648269326209174 ) ">
            <g transform="translate(-3.0 0.0 ) ">
              <text class="axis-text-y" text-anchor="end" dy="0.35em">
                <tspan>0.5</tspan>
              </text>
            </g>
          </g>
          <g transform="translate(0.0 27.3424993699371 ) ">
            <g transform="translate(-3.0 0.0 ) ">
              <text class="axis-text-y" text-anchor="end" dy="0.35em">
                <tspan>1.0</tspan>
              </text>
            </g>
          </g>
        </g>
      </g>
      <g clip-path="url(#xXxprefixXx4)" clip-bounds-jfx="[rect (35.01530667574961, 0.0), (278.9846933242504, 221.0)]">
        <g transform="translate(35.01530667574961 0.0 ) ">
          <g>
            <g>
              <g>
                <path d="M121.7206026543612 93.95403928248125 L121.7206026543612 93.95403928248125 L122.44570211760028 93.91179241535671 L123.16212443074771 93.785388630793 L123.86125010082492 93.57583636524373 L124.5345746272878 93.28480964358307 L125.17376519541372 92.91463806269478 L125.77071641090254 92.46829284312926 L126.31760476375528 91.94936902301464 L126.8069415160119 91.36206388896771 L127.23162371601538 90.71115175883955 L127.58498305148686 90.00195525064514 L127.86083226479616 89.24031319087165 L128.0535088663407 88.4325453334398 L128.15791589584327 87.58541407781749 L128.16955949657526 86.70608339106687 L128.08458308393563 85.80207515386466 L127.89979790738266 84.88122316469108 L127.61270982334484 83.95162504936661 L127.22154211633173 83.02159233485874 L126.72525422593546 82.09959895672372 L126.12355625865267 81.19422847863794 L125.4169191853655 80.31412031016012 L124.60658064778775 79.46791521511076 L123.69454632009989 78.66420040772286 L122.68358679525032 77.91145453698348 L121.57722998887608 77.21799286132777 L120.37974907737677 76.59191291605465 L119.09614601024654 76.04104097450151 L117.73213066020996 75.57287960114672 L116.29409569790575 75.19455659041367 L114.78908730069914 74.91277557904641 L113.22477182756629 74.7337686125396 L111.60939861377099 74.66325093726653 L109.95175906013324 74.70637827969834 L108.26114221196814 74.86770686249162 L106.54728704214571 75.15115639429166 L104.82033167109095 75.55997625591823 L103.09075977381488 76.09671509023069 L101.3693444401509 76.76319398648582 L99.66708976918434 77.56048343247882 L97.99517049232863 78.48888418928074 L96.3648699315472 79.54791222403912 L94.78751660978229 80.73628781618768 L93.27441983967122 82.05192893160773 L91.83680462405877 83.49194893790235 L90.48574620760547 85.05265871208263 L89.23210462291405 86.72957316973282 L88.08645957701862 88.51742222222192 L87.05904602478823 90.41016614587497 L86.15969077477445 92.4010153243163 L85.3977504702788 94.48245430256188 L84.782051283939 96.6462700689778 L84.32083065794114 98.88358445904943 L84.02168141408721 101.18489055312821 L83.89149854840744 103.54009291905099 L83.93642901384825 105.9385515298638 L84.16182478183242 108.36912916693441 L84.57219945923393 110.82024209960375 L85.1711887215967 113.27991381430454 L85.96151480632322 115.73583154885903 L86.9449552911413 118.17540537154426 L88.12231636350765 120.5858295295683 L89.4934107658134 122.95414577791202 L91.05704057941486 125.2673083871324 L92.81098498772073 127.51225051775991 L94.75199313493127 129.6759516394184 L96.8757821726536 131.74550566480156 L99.17704056162478 133.70818946220498 L101.64943667027575 135.55153140547685 L104.2856326859868 137.26337961704346 L107.07730382873893 138.83196955811775 L110.01516283058017 140.24599062032115 L113.0889896180274 141.49465137475661 L116.28766610833807 142.5677431380602 L119.59921600463773 143.4557015201272 L123.01084944930528 144.14966562503938 L126.50901236992374 144.64153458519246 L130.07944032761782 144.92402111870453 L133.70721665385054 144.99070181184177 L137.37683463884727 144.8360638413792 L141.0722635128779 144.45554786646977 L144.77701794076705 143.8455868356644 L148.47423073031698 143.00364047214126 L152.1467284369312 141.92822521888948 L155.77710952970216 140.61893944547413 L159.34782476867318 139.0764837389926 L162.84125942897865 137.30267612383435 L166.2398169951909 135.30046207776945 L169.5260039385202 133.07391923562307 L172.68251518059316 130.62825669622978 L175.69231984042216 127.96980887339797 L178.53874685592973 125.10602385713139 L181.20557006803062 122.04544627724337 L183.67709235384467 118.79769468762971 L185.938228396123 115.37343351572794 L187.97458567843705 111.78433964795425 L189.77254330010274 108.04306374805475 L191.31932821118608 104.16318643121261 L192.60308847624304 100.15916944229045 L193.61296318566298 96.04630201164044 L194.33914864557514 91.84064258636083 L194.7729604911986 87.55895615859629 L194.90689138421828 83.2186474353617 L194.73466397218806 78.83769011629305 L194.25127880703369 74.43455256659499 L193.4530569403717 70.02812019215247 L192.3376769354929 65.63761484220453 L190.9042060593898 61.28251158205142 L189.15312544303595 56.9824531938855 L187.08634902414613 52.75716277792659 L184.70723611374896 48.62635483852236 L182.02059745597086 44.60964525067742 L179.03269467933737 40.72646051153554 L175.75123306752138 36.995946688610324 L172.18534760767378 33.436878481983676 L168.3455823051256 30.067568821240982 L164.24386278421804 26.905779419549233 L159.8934622261518 23.96863270699076 L155.30896072591545 21.272525563029248 L150.50619818140484 18.83304526379834 L145.50222085864388 16.6648880537755 L140.31522180741524 14.781780743345024 L134.96447533146912 13.196405723789795 L129.47026574665324 11.92032977940913 L123.8538106886688 10.963937062785135 L118.13717925955807 10.336366583754995 L112.34320532834872 10.045454545454561 L106.49539632638364 10.097681841939973 L100.61783790162924 10.49812701144593 L94.73509481857172 11.250424917379675 L88.87210851104714 12.356731405769821 L83.05409171443185 13.817694163180889 L77.30642062091044 15.632429973174695 L71.65452501698078 17.798508542350902 L66.12377687584421 20.31194303894918 L60.73937788879152 23.167187458065328 L55.52624642908019 26.357140897837525 L50.508904449021756 29.87315880064223 L45.71136481603678 33.705071182513805 L41.1570195962352 37.84120784281849 L36.86852979461008 42.268430514805125 L32.867717059192415 46.97217188615212 L29.17545785246523 51.93648138719355 L25.811580587010923 57.14407761325261 L22.794766213745532 62.57640721660684 L20.14245274022612 68.21371007317356 L17.87074414341781 74.03509049918947 L15.994324126019904 80.01859426410576 L14.526375148037957 86.14129111774616 L13.47850314579567 92.37936252264086 L12.860668329095603 98.70819425645551 L12.681122423829564 105.10247352472167 L12.946352702104306 111.53629020076664 L13.661033114982658 117.98324178792711 L14.827982814352666 124.41654167895639 L16.448132320341216 130.80913026906595 L18.52049755920683 137.1337884623943 L21.042161963911454 143.3632530969595 L24.00826679571216 149.47033380038013 L27.41200981028166 155.42803077795315 L31.24465235619968 161.2096530260809 L35.495534957312174 166.7889364576197 L40.152101393590755 172.14016142152423 L45.19993125788743 177.23826909719702 L50.62278092855139 182.05897624428377 L56.40263286039469 186.57888779125432 L62.519753059153885 190.77560675102558 L68.95275656753098 194.62784095907057 L75.67868075431139 198.11550613893917 L82.67306616206477 201.2198248118308 L89.9100446337603 203.9234205808084 L97.36243440436598 206.2104073363456 L105.00184181037147 208.0664729481299 L112.79876923827231 209.4789570283197 L120.72272890258466 210.43692237370948 L128.74236201501085 210.9312197184025 L136.825562879144 210.95454545454544 L144.9396074196566 210.50149200632558 L153.05128563144535 209.56859057167935 L161.1270374127698 208.15434597687891 L169.13309122716998 206.25926342123674 L177.03560502195364 203.88586692246315 L184.8008088164213 201.03870930759086 L192.39514836079408 197.7243736297064 L199.78542925714075 193.9514659268447 L206.93896092647546 189.73059927617132 L213.82369980171984 185.0743691338244 L220.40839112437524 179.99731998837706 L226.66270872361326 174.51590339362713 L232.55739216003607 168.64842748418386 L238.064380622616 162.41499811491724 L243.1569429762718 155.83745180261707 L247.80980336917037 148.93928068499395 L251.99926182310725 141.7455497483036 L255.70330924719906 134.28280661019653 L258.90173633453287 126.57898417876716 L261.5762358233242 118.66329654199893 L263.710497628432 110.56612847377436 L265.2902963756993 102.31891897313756 L266.3035709004208 93.95403928248132 " fill="none" stroke-width="1.6500000000000001" stroke="rgb(187,187,187)" stroke-opacity="1.0">
                </path>
              </g>
            </g>
          </g>
        </g>
        <defs>
          <clipPath id="xXxprefixXx4">
            <rect x="35.01530667574961" y="0.0" width="278.9846933242504" height="221.0">
            </rect>
          </clipPath>
        </defs>
      </g>
      <g>
      </g>
    </g>
    <g transform="translate(64.51530667574961 16.8 ) ">
      <text class="plot-title" y="0.0">
        <tspan>Path Plot</tspan>
      </text>
    </g>
    <g transform="translate(16.0 137.0 ) rotate(-90.0 ) ">
      <text class="axis-title-y" y="0.0" text-anchor="middle">
        <tspan>y</tspan>
      </text>
    </g>
    <g transform="translate(204.00765333787479 293.0 ) ">
      <text class="axis-title-x" y="0.0" text-anchor="middle">
        <tspan>x</tspan>
      </text>
    </g>
    <path fill="rgb(0,0,0)" fill-opacity="0.0" stroke="rgb(187,187,187)" stroke-opacity="1.0" stroke-width="0.0" d="M0.0 0.0 L0.0 300.0 L350.0 300.0 L350.0 0.0 Z" pointer-events="none">
    </path>
  </g>
  <g id="xXxprefixXx5">
  </g>

<g transform="translate(0.0 300.0)" id="xXxprefixXx6">
    <path fill-rule="evenodd" fill="rgb(25,25,28)" fill-opacity="1.0" d="M0.0 0.0 L0.0 300.0 L700.0 300.0 L700.0 0.0 Z">
    </path>
    <g transform="translate(29.5 6.5 ) ">
      <g>
        <g transform="translate(35.01530667574961 0.0 ) ">
          <g>
            <line x1="74.75249946788153" y1="0.0" x2="74.75249946788153" y2="241.0" stroke="rgb(71,71,71)" stroke-opacity="1.0" stroke-width="1.0" fill="none">
            </line>
            <line x1="149.8442109712313" y1="0.0" x2="149.8442109712313" y2="241.0" stroke="rgb(71,71,71)" stroke-opacity="1.0" stroke-width="1.0" fill="none">
            </line>
            <line x1="224.93592247458108" y1="0.0" x2="224.93592247458108" y2="241.0" stroke="rgb(71,71,71)" stroke-opacity="1.0" stroke-width="1.0" fill="none">
            </line>
            <line x1="300.02763397793086" y1="0.0" x2="300.02763397793086" y2="241.0" stroke="rgb(71,71,71)" stroke-opacity="1.0" stroke-width="1.0" fill="none">
            </line>
            <line x1="375.1193454812806" y1="0.0" x2="375.1193454812806" y2="241.0" stroke="rgb(71,71,71)" stroke-opacity="1.0" stroke-width="1.0" fill="none">
            </line>
            <line x1="450.21105698463043" y1="0.0" x2="450.21105698463043" y2="241.0" stroke="rgb(71,71,71)" stroke-opacity="1.0" stroke-width="1.0" fill="none">
            </line>
            <line x1="525.3027684879802" y1="0.0" x2="525.3027684879802" y2="241.0" stroke="rgb(71,71,71)" stroke-opacity="1.0" stroke-width="1.0" fill="none">
            </line>
            <line x1="600.39447999133" y1="0.0" x2="600.39447999133" y2="241.0" stroke="rgb(71,71,71)" stroke-opacity="1.0" stroke-width="1.0" fill="none">
            </line>
          </g>
        </g>
        <g transform="translate(35.01530667574961 0.0 ) ">
          <g>
            <line x1="0.0" y1="237.19511254794907" x2="628.9846933242504" y2="237.19511254794907" stroke="rgb(71,71,71)" stroke-opacity="1.0" stroke-width="1.0" fill="none">
            </line>
            <line x1="0.0" y1="195.66410009463095" x2="628.9846933242504" y2="195.66410009463095" stroke="rgb(71,71,71)" stroke-opacity="1.0" stroke-width="1.0" fill="none">
            </line>
            <line x1="0.0" y1="154.1330876413128" x2="628.9846933242504" y2="154.1330876413128" stroke="rgb(71,71,71)" stroke-opacity="1.0" stroke-width="1.0" fill="none">
            </line>
            <line x1="0.0" y1="112.60207518799467" x2="628.9846933242504" y2="112.60207518799467" stroke="rgb(71,71,71)" stroke-opacity="1.0" stroke-width="1.0" fill="none">
            </line>
            <line x1="0.0" y1="71.07106273467654" x2="628.9846933242504" y2="71.07106273467654" stroke="rgb(71,71,71)" stroke-opacity="1.0" stroke-width="1.0" fill="none">
            </line>
            <line x1="0.0" y1="29.54005028135841" x2="628.9846933242504" y2="29.54005028135841" stroke="rgb(71,71,71)" stroke-opacity="1.0" stroke-width="1.0" fill="none">
            </line>
          </g>
        </g>
        <g transform="translate(35.01530667574961 241.0 ) ">
          <g transform="translate(74.75249946788153 0.0 ) ">
            <line stroke-width="1.0" stroke="rgb(187,187,187)" stroke-opacity="1.0" x2="0.0" y2="4.0">
            </line>
            <g transform="translate(0.0 7.0 ) ">
              <text class="axis-text-x" text-anchor="middle" dy="0.7em">
                <tspan>-0.4</tspan>
              </text>
            </g>
          </g>
          <g transform="translate(149.8442109712313 0.0 ) ">
            <line stroke-width="1.0" stroke="rgb(187,187,187)" stroke-opacity="1.0" x2="0.0" y2="4.0">
            </line>
            <g transform="translate(0.0 7.0 ) ">
              <text class="axis-text-x" text-anchor="middle" dy="0.7em">
                <tspan>-0.2</tspan>
              </text>
            </g>
          </g>
          <g transform="translate(224.93592247458108 0.0 ) ">
            <line stroke-width="1.0" stroke="rgb(187,187,187)" stroke-opacity="1.0" x2="0.0" y2="4.0">
            </line>
            <g transform="translate(0.0 7.0 ) ">
              <text class="axis-text-x" text-anchor="middle" dy="0.7em">
                <tspan>0.0</tspan>
              </text>
            </g>
          </g>
          <g transform="translate(300.02763397793086 0.0 ) ">
            <line stroke-width="1.0" stroke="rgb(187,187,187)" stroke-opacity="1.0" x2="0.0" y2="4.0">
            </line>
            <g transform="translate(0.0 7.0 ) ">
              <text class="axis-text-x" text-anchor="middle" dy="0.7em">
                <tspan>0.2</tspan>
              </text>
            </g>
          </g>
          <g transform="translate(375.1193454812806 0.0 ) ">
            <line stroke-width="1.0" stroke="rgb(187,187,187)" stroke-opacity="1.0" x2="0.0" y2="4.0">
            </line>
            <g transform="translate(0.0 7.0 ) ">
              <text class="axis-text-x" text-anchor="middle" dy="0.7em">
                <tspan>0.4</tspan>
              </text>
            </g>
          </g>
          <g transform="translate(450.21105698463043 0.0 ) ">
            <line stroke-width="1.0" stroke="rgb(187,187,187)" stroke-opacity="1.0" x2="0.0" y2="4.0">
            </line>
            <g transform="translate(0.0 7.0 ) ">
              <text class="axis-text-x" text-anchor="middle" dy="0.7em">
                <tspan>0.6</tspan>
              </text>
            </g>
          </g>
          <g transform="translate(525.3027684879802 0.0 ) ">
            <line stroke-width="1.0" stroke="rgb(187,187,187)" stroke-opacity="1.0" x2="0.0" y2="4.0">
            </line>
            <g transform="translate(0.0 7.0 ) ">
              <text class="axis-text-x" text-anchor="middle" dy="0.7em">
                <tspan>0.8</tspan>
              </text>
            </g>
          </g>
          <g transform="translate(600.39447999133 0.0 ) ">
            <line stroke-width="1.0" stroke="rgb(187,187,187)" stroke-opacity="1.0" x2="0.0" y2="4.0">
            </line>
            <g transform="translate(0.0 7.0 ) ">
              <text class="axis-text-x" text-anchor="middle" dy="0.7em">
                <tspan>1.0</tspan>
              </text>
            </g>
          </g>
          <line x1="0.0" y1="0.0" x2="628.9846933242504" y2="0.0" stroke-width="1.0" stroke="rgb(187,187,187)" stroke-opacity="1.0">
          </line>
        </g>
        <g transform="translate(35.01530667574961 0.0 ) ">
          <g transform="translate(0.0 237.19511254794907 ) ">
            <g transform="translate(-3.0 0.0 ) ">
              <text class="axis-text-y" text-anchor="end" dy="0.35em">
                <tspan>-0.8</tspan>
              </text>
            </g>
          </g>
          <g transform="translate(0.0 195.66410009463095 ) ">
            <g transform="translate(-3.0 0.0 ) ">
              <text class="axis-text-y" text-anchor="end" dy="0.35em">
                <tspan>-0.6</tspan>
              </text>
            </g>
          </g>
          <g transform="translate(0.0 154.1330876413128 ) ">
            <g transform="translate(-3.0 0.0 ) ">
              <text class="axis-text-y" text-anchor="end" dy="0.35em">
                <tspan>-0.4</tspan>
              </text>
            </g>
          </g>
          <g transform="translate(0.0 112.60207518799467 ) ">
            <g transform="translate(-3.0 0.0 ) ">
              <text class="axis-text-y" text-anchor="end" dy="0.35em">
                <tspan>-0.2</tspan>
              </text>
            </g>
          </g>
          <g transform="translate(0.0 71.07106273467654 ) ">
            <g transform="translate(-3.0 0.0 ) ">
              <text class="axis-text-y" text-anchor="end" dy="0.35em">
                <tspan>0.0</tspan>
              </text>
            </g>
          </g>
          <g transform="translate(0.0 29.54005028135841 ) ">
            <g transform="translate(-3.0 0.0 ) ">
              <text class="axis-text-y" text-anchor="end" dy="0.35em">
                <tspan>0.2</tspan>
              </text>
            </g>
          </g>
        </g>
      </g>
      <g clip-path="url(#xXxprefixXx7)" clip-bounds-jfx="[rect (35.01530667574961, 0.0), (628.9846933242504, 241.0)]">
        <g transform="translate(35.01530667574961 0.0 ) ">
          <g>
            <g>
              <line x1="224.93592247458108" y1="71.07106273467653" x2="224.93592247458108" y2="71.07106273467653" stroke="rgb(187,187,187)" stroke-opacity="1.0" fill="none" stroke-width="1.6500000000000001">
              </line>
              <line x1="232.5354336572258" y1="70.52913742912406" x2="224.93592247458108" y2="71.07106273467653" stroke="rgb(187,187,187)" stroke-opacity="1.0" fill="none" stroke-width="1.6500000000000001">
              </line>
              <line x1="239.75956059580537" y1="68.92115830953634" x2="224.93592247458108" y2="71.07106273467653" stroke="rgb(187,187,187)" stroke-opacity="1.0" fill="none" stroke-width="1.6500000000000001">
              </line>
              <line x1="246.24319769812635" y1="66.30007743274857" x2="224.93592247458108" y2="71.07106273467653" stroke="rgb(187,187,187)" stroke-opacity="1.0" fill="none" stroke-width="1.6500000000000001">
              </line>
              <line x1="251.64156033478767" y1="62.75269670882456" x2="224.93592247458108" y2="71.07106273467653" stroke="rgb(187,187,187)" stroke-opacity="1.0" fill="none" stroke-width="1.6500000000000001">
              </line>
              <line x1="255.63975945833783" y1="58.3975240151401" x2="224.93592247458108" y2="71.07106273467653" stroke="rgb(187,187,187)" stroke-opacity="1.0" fill="none" stroke-width="1.6500000000000001">
              </line>
              <line x1="257.96168705998355" y1="53.38183783304214" x2="224.93592247458108" y2="71.07106273467653" stroke="rgb(187,187,187)" stroke-opacity="1.0" fill="none" stroke-width="1.6500000000000001">
              </line>
              <line x1="258.3780055649073" y1="47.878024852693734" x2="224.93592247458108" y2="71.07106273467653" stroke="rgb(187,187,187)" stroke-opacity="1.0" fill="none" stroke-width="1.6500000000000001">
              </line>
              <line x1="256.71305323789085" y1="42.07927111039906" x2="224.93592247458108" y2="71.07106273467653" stroke="rgb(187,187,187)" stroke-opacity="1.0" fill="none" stroke-width="1.6500000000000001">
              </line>
              <line x1="252.85050065906825" y1="36.19470168309805" x2="224.93592247458108" y2="71.07106273467653" stroke="rgb(187,187,187)" stroke-opacity="1.0" fill="none" stroke-width="1.6500000000000001">
              </line>
              <line x1="246.73761987258297" y1="30.444076466246628" x2="224.93592247458108" y2="71.07106273467653" stroke="rgb(187,187,187)" stroke-opacity="1.0" fill="none" stroke-width="1.6500000000000001">
              </line>
              <line x1="238.3880573737572" y1="25.0521598420829" x2="224.93592247458108" y2="71.07106273467653" stroke="rgb(187,187,187)" stroke-opacity="1.0" fill="none" stroke-width="1.6500000000000001">
              </line>
              <line x1="227.88303408630105" y1="20.2428898873901" x2="224.93592247458108" y2="71.07106273467653" stroke="rgb(187,187,187)" stroke-opacity="1.0" fill="none" stroke-width="1.6500000000000001">
              </line>
              <line x1="215.37092924307106" y1="16.233478003691147" x2="224.93592247458108" y2="71.07106273467653" stroke="rgb(187,187,187)" stroke-opacity="1.0" fill="none" stroke-width="1.6500000000000001">
              </line>
              <line x1="201.06523993729036" y1="13.228572360518307" x2="224.93592247458108" y2="71.07106273467653" stroke="rgb(187,187,187)" stroke-opacity="1.0" fill="none" stroke-width="1.6500000000000001">
              </line>
              <line x1="185.2409433471165" y1="11.414618260399365" x2="224.93592247458108" y2="71.07106273467653" stroke="rgb(187,187,187)" stroke-opacity="1.0" fill="none" stroke-width="1.6500000000000001">
              </line>
              <line x1="168.2293235357771" y1="10.95454545454546" x2="224.93592247458108" y2="71.07106273467653" stroke="rgb(187,187,187)" stroke-opacity="1.0" fill="none" stroke-width="1.6500000000000001">
              </line>
              <line x1="150.41135857676292" y1="11.982906608957443" x2="224.93592247458108" y2="71.07106273467653" stroke="rgb(187,187,187)" stroke-opacity="1.0" fill="none" stroke-width="1.6500000000000001">
              </line>
              <line x1="132.20979585120716" y1="14.601582645070202" x2="224.93592247458108" y2="71.07106273467653" stroke="rgb(187,187,187)" stroke-opacity="1.0" fill="none" stroke-width="1.6500000000000001">
              </line>
              <line x1="114.08007304665381" y1="18.87615971382737" x2="224.93592247458108" y2="71.07106273467653" stroke="rgb(187,187,187)" stroke-opacity="1.0" fill="none" stroke-width="1.6500000000000001">
              </line>
              <line x1="96.50026903187245" y1="24.833069314482707" x2="224.93592247458108" y2="71.07106273467653" stroke="rgb(187,187,187)" stroke-opacity="1.0" fill="none" stroke-width="1.6500000000000001">
              </line>
              <line x1="79.96029182737803" y1="32.45756779342608" x2="224.93592247458108" y2="71.07106273467653" stroke="rgb(187,187,187)" stroke-opacity="1.0" fill="none" stroke-width="1.6500000000000001">
              </line>
              <line x1="64.95052984063548" y1="41.69261444983962" x2="224.93592247458108" y2="71.07106273467653" stroke="rgb(187,187,187)" stroke-opacity="1.0" fill="none" stroke-width="1.6500000000000001">
              </line>
              <line x1="51.95020697196696" y1="52.438689066249374" x2="224.93592247458108" y2="71.07106273467653" stroke="rgb(187,187,187)" stroke-opacity="1.0" fill="none" stroke-width="1.6500000000000001">
              </line>
              <line x1="41.41569179252721" y1="64.55457023531531" x2="224.93592247458108" y2="71.07106273467653" stroke="rgb(187,187,187)" stroke-opacity="1.0" fill="none" stroke-width="1.6500000000000001">
              </line>
              <line x1="33.769015514108304" y1="77.85907575484445" x2="224.93592247458108" y2="71.07106273467653" stroke="rgb(187,187,187)" stroke-opacity="1.0" fill="none" stroke-width="1.6500000000000001">
              </line>
              <line x1="29.38685277597378" y1="92.13374601202895" x2="224.93592247458108" y2="71.07106273467653" stroke="rgb(187,187,187)" stroke-opacity="1.0" fill="none" stroke-width="1.6500000000000001">
              </line>
              <line x1="28.590213332920513" y1="107.12643108424903" x2="224.93592247458108" y2="71.07106273467653" stroke="rgb(187,187,187)" stroke-opacity="1.0" fill="none" stroke-width="1.6500000000000001">
              </line>
              <line x1="31.635081611643642" y1="122.55572265634378" x2="224.93592247458108" y2="71.07106273467653" stroke="rgb(187,187,187)" stroke-opacity="1.0" fill="none" stroke-width="1.6500000000000001">
              </line>
              <line x1="38.70422498265353" y1="138.11615319395753" x2="224.93592247458108" y2="71.07106273467653" stroke="rgb(187,187,187)" stroke-opacity="1.0" fill="none" stroke-width="1.6500000000000001">
              </line>
              <line x1="49.900370746274746" y1="153.48406750443831" x2="224.93592247458108" y2="71.07106273467653" stroke="rgb(187,187,187)" stroke-opacity="1.0" fill="none" stroke-width="1.6500000000000001">
              </line>
              <line x1="65.24092662321488" y1="168.32405622233182" x2="224.93592247458108" y2="71.07106273467653" stroke="rgb(187,187,187)" stroke-opacity="1.0" fill="none" stroke-width="1.6500000000000001">
              </line>
              <line x1="84.65439043162922" y1="182.2958272066183" x2="224.93592247458108" y2="71.07106273467653" stroke="rgb(187,187,187)" stroke-opacity="1.0" fill="none" stroke-width="1.6500000000000001">
              </line>
              <line x1="107.97856216329777" y1="195.06137962494682" x2="224.93592247458108" y2="71.07106273467653" stroke="rgb(187,187,187)" stroke-opacity="1.0" fill="none" stroke-width="1.6500000000000001">
              </line>
              <line x1="134.9606364523281" y1="206.29233687637148" x2="224.93592247458108" y2="71.07106273467653" stroke="rgb(187,187,187)" stroke-opacity="1.0" fill="none" stroke-width="1.6500000000000001">
              </line>
              <line x1="165.2592161313542" y1="215.6772886700721" x2="224.93592247458108" y2="71.07106273467653" stroke="rgb(187,187,187)" stroke-opacity="1.0" fill="none" stroke-width="1.6500000000000001">
              </line>
              <line x1="198.44824891039954" y1="222.92898968202067" x2="224.93592247458108" y2="71.07106273467653" stroke="rgb(187,187,187)" stroke-opacity="1.0" fill="none" stroke-width="1.6500000000000001">
              </line>
              <line x1="234.02284994405085" y1="227.79126234714303" x2="224.93592247458108" y2="71.07106273467653" stroke="rgb(187,187,187)" stroke-opacity="1.0" fill="none" stroke-width="1.6500000000000001">
              </line>
              <line x1="271.40693394446185" y1="230.04545454545453" x2="224.93592247458108" y2="71.07106273467653" stroke="rgb(187,187,187)" stroke-opacity="1.0" fill="none" stroke-width="1.6500000000000001">
              </line>
              <line x1="309.9625423267883" y1="229.5163091815532" x2="224.93592247458108" y2="71.07106273467653" stroke="rgb(187,187,187)" stroke-opacity="1.0" fill="none" stroke-width="1.6500000000000001">
              </line>
              <line x1="349.0007144056351" y1="226.07711185280309" x2="224.93592247458108" y2="71.07106273467653" stroke="rgb(187,187,187)" stroke-opacity="1.0" fill="none" stroke-width="1.6500000000000001">
              </line>
              <line x1="387.79371763654353" y1="219.6539948090986" x2="224.93592247458108" y2="71.07106273467653" stroke="rgb(187,187,187)" stroke-opacity="1.0" fill="none" stroke-width="1.6500000000000001">
              </line>
              <line x1="425.5884210165384" y1="210.22929002657335" x2="224.93592247458108" y2="71.07106273467653" stroke="rgb(187,187,187)" stroke-opacity="1.0" fill="none" stroke-width="1.6500000000000001">
              </line>
              <line x1="461.6205686699652" y1="197.84384119638977" x2="224.93592247458108" y2="71.07106273467653" stroke="rgb(187,187,187)" stroke-opacity="1.0" fill="none" stroke-width="1.6500000000000001">
              </line>
              <line x1="495.1296879316403" y1="182.59820346659728" x2="224.93592247458108" y2="71.07106273467653" stroke="rgb(187,187,187)" stroke-opacity="1.0" fill="none" stroke-width="1.6500000000000001">
              </line>
              <line x1="525.3743484019052" y1="164.65268052551122" x2="224.93592247458108" y2="71.07106273467653" stroke="rgb(187,187,187)" stroke-opacity="1.0" fill="none" stroke-width="1.6500000000000001">
              </line>
              <line x1="551.6474759022753" y1="144.22617069757206" x2="224.93592247458108" y2="71.07106273467653" stroke="rgb(187,187,187)" stroke-opacity="1.0" fill="none" stroke-width="1.6500000000000001">
              </line>
              <line x1="573.2914183233519" y1="121.59381672547126" x2="224.93592247458108" y2="71.07106273467653" stroke="rgb(187,187,187)" stroke-opacity="1.0" fill="none" stroke-width="1.6500000000000001">
              </line>
              <line x1="589.7124592415287" y1="97.08347740119515" x2="224.93592247458108" y2="71.07106273467653" stroke="rgb(187,187,187)" stroke-opacity="1.0" fill="none" stroke-width="1.6500000000000001">
              </line>
              <line x1="600.39447999133" y1="71.07106273467659" x2="224.93592247458108" y2="71.07106273467653" stroke="rgb(187,187,187)" stroke-opacity="1.0" fill="none" stroke-width="1.6500000000000001">
              </line>
            </g>
          </g>
        </g>
        <defs>
          <clipPath id="xXxprefixXx7">
            <rect x="35.01530667574961" y="0.0" width="628.9846933242504" height="241.0">
            </rect>
          </clipPath>
        </defs>
      </g>
      <g>
      </g>
    </g>
    <g transform="translate(16.0 127.0 ) rotate(-90.0 ) ">
      <text class="axis-title-y" y="0.0" text-anchor="middle">
        <tspan>y</tspan>
      </text>
    </g>
    <g transform="translate(379.00765333787484 293.0 ) ">
      <text class="axis-title-x" y="0.0" text-anchor="middle">
        <tspan>x</tspan>
      </text>
    </g>
    <path fill="rgb(0,0,0)" fill-opacity="0.0" stroke="rgb(187,187,187)" stroke-opacity="1.0" stroke-width="0.0" d="M0.0 0.0 L0.0 300.0 L700.0 300.0 L700.0 0.0 Z" pointer-events="none">
    </path>
  </g>
  <g id="xXxprefixXx8">
  </g>

</svg>