<svg xmlns="http://www.w3.org/2000/svg" xmlns:xlink="http://www.w3.org/1999/xlink" class="plt-container" width="705.0" height="470.0">
  <style type="text/css">
  .plt-container {
   font-family: Lucida Grande, sans-serif;
   user-select: none;
   -webkit-user-select: none;
   -moz-user-select: none;
   -ms-user-select: none;
}
text {
   text-rendering: optimizeLegibility;
}
#xXxprefixXx0 .plot-title {
   fill: #bbbbbb;
   font-family: Lucida Grande, sans-serif;
   font-size: 16.0px;
   font-weight: normal;
   font-style: normal;   
}
#xXxprefixXx0 .plot-subtitle {
   fill: #bbbbbb;
   font-family: Lucida Grande, sans-serif;
   font-size: 15.0px;
   font-weight: normal;
   font-style: normal;   
}
#xXxprefixXx0 .plot-caption {
   fill: #bbbbbb;
   font-family: Lucida Grande, sans-serif;
   font-size: 13.0px;
   font-weight: normal;
   font-style: normal;   
}
#xXxprefixXx0 .legend-title {
   fill: #bbbbbb;
   font-family: Lucida Grande, sans-serif;
   font-size: 15.0px;
   font-weight: normal;
   font-style: normal;   
}
#xXxprefixXx0 .legend-item {
   fill: #bbbbbb;
   font-family: Lucida Grande, sans-serif;
   font-size: 13.0px;
   font-weight: normal;
   font-style: normal;   
}
#xXxprefixXx0 .axis-title-x {
   fill: #bbbbbb;
   font-family: Lucida Grande, sans-serif;
   font-size: 15.0px;
   font-weight: normal;
   font-style: normal;   
}
#xXxprefixXx0 .axis-text-x {
   fill: #bbbbbb;
   font-family: Lucida Grande, sans-serif;
   font-size: 13.0px;
   font-weight: normal;
   font-style: normal;   
}
#xXxprefixXx2 .axis-tooltip-text-x {
   fill: #303030;
   font-family: Lucida Grande, sans-serif;
   font-size: 13.0px;
   font-weight: normal;
   font-style: normal;   
}
#xXxprefixXx0 .axis-title-y {
   fill: #bbbbbb;
   font-family: Lucida Grande, sans-serif;
   font-size: 15.0px;
   font-weight: normal;
   font-style: normal;   
}
#xXxprefixXx0 .axis-text-y {
   fill: #bbbbbb;
   font-family: Lucida Grande, sans-serif;
   font-size: 13.0px;
   font-weight: normal;
   font-style: normal;   
}
#xXxprefixXx2 .axis-tooltip-text-y {
   fill: #303030;
   font-family: Lucida Grande, sans-serif;
   font-size: 13.0px;
   font-weight: normal;
   font-style: normal;   
}
#xXxprefixXx0 .facet-strip-text-x {
   fill: #bbbbbb;
   font-family: Lucida Grande, sans-serif;
   font-size: 13.0px;
   font-weight: normal;
   font-style: normal;   
}
#xXxprefixXx0 .facet-strip-text-y {
   fill: #bbbbbb;
   font-family: Lucida Grande, sans-serif;
   font-size: 13.0px;
   font-weight: normal;
   font-style: normal;   
}
#xXxprefixXx2 .tooltip-text {
   fill: #bbbbbb;
   font-family: Lucida Grande, sans-serif;
   font-size: 13.0px;
   font-weight: normal;
   font-style: normal;   
}
#xXxprefixXx2 .tooltip-title {
   fill: #bbbbbb;
   font-family: Lucida Grande, sans-serif;
   font-size: 13.0px;
   font-weight: bold;
   font-style: normal;   
}
#xXxprefixXx2 .tooltip-label {
   fill: #bbbbbb;
   font-family: Lucida Grande, sans-serif;
   font-size: 13.0px;
   font-weight: bold;
   font-style: normal;   
}

  </style>
  <g id="xXxprefixXx0">
    <path fill-rule="evenodd" fill="rgb(25,25,28)" fill-opacity="1.0" d="M0.0 0.0 L0.0 470.0 L705.0 470.0 L705.0 0.0 Z">
    </path>
    <g transform="translate(23.0 10.0 ) ">
      <g transform="translate(21.961210910936405 414.0 ) ">
        <line x1="9.84907256195551" y1="-0.0" x2="9.84907256195551" y2="-414.0" stroke="rgb(71,71,71)" stroke-opacity="1.0" stroke-width="1.0">
        </line>
        <line x1="108.3397981815106" y1="-0.0" x2="108.3397981815106" y2="-414.0" stroke="rgb(71,71,71)" stroke-opacity="1.0" stroke-width="1.0">
        </line>
        <line x1="206.83052380106568" y1="-0.0" x2="206.83052380106568" y2="-414.0" stroke="rgb(71,71,71)" stroke-opacity="1.0" stroke-width="1.0">
        </line>
        <line x1="305.3212494206208" y1="-0.0" x2="305.3212494206208" y2="-414.0" stroke="rgb(71,71,71)" stroke-opacity="1.0" stroke-width="1.0">
        </line>
        <line x1="403.81197504017587" y1="-0.0" x2="403.81197504017587" y2="-414.0" stroke="rgb(71,71,71)" stroke-opacity="1.0" stroke-width="1.0">
        </line>
        <line x1="502.30270065973093" y1="-0.0" x2="502.30270065973093" y2="-414.0" stroke="rgb(71,71,71)" stroke-opacity="1.0" stroke-width="1.0">
        </line>
        <line x1="600.7934262792861" y1="-0.0" x2="600.7934262792861" y2="-414.0" stroke="rgb(71,71,71)" stroke-opacity="1.0" stroke-width="1.0">
        </line>
        <g transform="translate(9.84907256195551 0.0 ) ">
          <line stroke-width="1.0" stroke="rgb(187,187,187)" stroke-opacity="1.0" x2="0.0" y2="4.0">
          </line>
          <g transform="translate(0.0 7.0 ) ">
            <text class="axis-text-x" text-anchor="middle" dy="0.7em">
            0
            </text>
          </g>
        </g>
        <g transform="translate(108.3397981815106 0.0 ) ">
          <line stroke-width="1.0" stroke="rgb(187,187,187)" stroke-opacity="1.0" x2="0.0" y2="4.0">
          </line>
          <g transform="translate(0.0 7.0 ) ">
            <text class="axis-text-x" text-anchor="middle" dy="0.7em">
            5
            </text>
          </g>
        </g>
        <g transform="translate(206.83052380106568 0.0 ) ">
          <line stroke-width="1.0" stroke="rgb(187,187,187)" stroke-opacity="1.0" x2="0.0" y2="4.0">
          </line>
          <g transform="translate(0.0 7.0 ) ">
            <text class="axis-text-x" text-anchor="middle" dy="0.7em">
            10
            </text>
          </g>
        </g>
        <g transform="translate(305.3212494206208 0.0 ) ">
          <line stroke-width="1.0" stroke="rgb(187,187,187)" stroke-opacity="1.0" x2="0.0" y2="4.0">
          </line>
          <g transform="translate(0.0 7.0 ) ">
            <text class="axis-text-x" text-anchor="middle" dy="0.7em">
            15
            </text>
          </g>
        </g>
        <g transform="translate(403.81197504017587 0.0 ) ">
          <line stroke-width="1.0" stroke="rgb(187,187,187)" stroke-opacity="1.0" x2="0.0" y2="4.0">
          </line>
          <g transform="translate(0.0 7.0 ) ">
            <text class="axis-text-x" text-anchor="middle" dy="0.7em">
            20
            </text>
          </g>
        </g>
        <g transform="translate(502.30270065973093 0.0 ) ">
          <line stroke-width="1.0" stroke="rgb(187,187,187)" stroke-opacity="1.0" x2="0.0" y2="4.0">
          </line>
          <g transform="translate(0.0 7.0 ) ">
            <text class="axis-text-x" text-anchor="middle" dy="0.7em">
            25
            </text>
          </g>
        </g>
        <g transform="translate(600.7934262792861 0.0 ) ">
          <line stroke-width="1.0" stroke="rgb(187,187,187)" stroke-opacity="1.0" x2="0.0" y2="4.0">
          </line>
          <g transform="translate(0.0 7.0 ) ">
            <text class="axis-text-x" text-anchor="middle" dy="0.7em">
            30
            </text>
          </g>
        </g>
        <line x1="0.0" y1="0.0" x2="650.0387890890636" y2="0.0" stroke-width="1.0" stroke="rgb(187,187,187)" stroke-opacity="1.0">
        </line>
      </g>
      <g transform="translate(21.961210910936405 0.0 ) ">
        <line x1="0.0" y1="373.2366022352045" x2="650.0387890890636" y2="373.2366022352045" stroke="rgb(71,71,71)" stroke-opacity="1.0" stroke-width="1.0">
        </line>
        <line x1="0.0" y1="321.45544061727895" x2="650.0387890890636" y2="321.45544061727895" stroke="rgb(71,71,71)" stroke-opacity="1.0" stroke-width="1.0">
        </line>
        <line x1="0.0" y1="269.6742789993534" x2="650.0387890890636" y2="269.6742789993534" stroke="rgb(71,71,71)" stroke-opacity="1.0" stroke-width="1.0">
        </line>
        <line x1="0.0" y1="217.89311738142783" x2="650.0387890890636" y2="217.89311738142783" stroke="rgb(71,71,71)" stroke-opacity="1.0" stroke-width="1.0">
        </line>
        <line x1="0.0" y1="166.1119557635023" x2="650.0387890890636" y2="166.1119557635023" stroke="rgb(71,71,71)" stroke-opacity="1.0" stroke-width="1.0">
        </line>
        <line x1="0.0" y1="114.33079414557673" x2="650.0387890890636" y2="114.33079414557673" stroke="rgb(71,71,71)" stroke-opacity="1.0" stroke-width="1.0">
        </line>
        <line x1="0.0" y1="62.54963252765117" x2="650.0387890890636" y2="62.54963252765117" stroke="rgb(71,71,71)" stroke-opacity="1.0" stroke-width="1.0">
        </line>
        <line x1="0.0" y1="10.768470909725636" x2="650.0387890890636" y2="10.768470909725636" stroke="rgb(71,71,71)" stroke-opacity="1.0" stroke-width="1.0">
        </line>
        <g transform="translate(0.0 373.2366022352045 ) ">
          <g transform="translate(-3.0 0.0 ) ">
            <text class="axis-text-y" text-anchor="end" dy="0.35em">
            -1
            </text>
          </g>
        </g>
        <g transform="translate(0.0 321.45544061727895 ) ">
          <g transform="translate(-3.0 0.0 ) ">
            <text class="axis-text-y" text-anchor="end" dy="0.35em">
            0
            </text>
          </g>
        </g>
        <g transform="translate(0.0 269.6742789993534 ) ">
          <g transform="translate(-3.0 0.0 ) ">
            <text class="axis-text-y" text-anchor="end" dy="0.35em">
            1
            </text>
          </g>
        </g>
        <g transform="translate(0.0 217.89311738142783 ) ">
          <g transform="translate(-3.0 0.0 ) ">
            <text class="axis-text-y" text-anchor="end" dy="0.35em">
            2
            </text>
          </g>
        </g>
        <g transform="translate(0.0 166.1119557635023 ) ">
          <g transform="translate(-3.0 0.0 ) ">
            <text class="axis-text-y" text-anchor="end" dy="0.35em">
            3
            </text>
          </g>
        </g>
        <g transform="translate(0.0 114.33079414557673 ) ">
          <g transform="translate(-3.0 0.0 ) ">
            <text class="axis-text-y" text-anchor="end" dy="0.35em">
            4
            </text>
          </g>
        </g>
        <g transform="translate(0.0 62.54963252765117 ) ">
          <g transform="translate(-3.0 0.0 ) ">
            <text class="axis-text-y" text-anchor="end" dy="0.35em">
            5
            </text>
          </g>
        </g>
        <g transform="translate(0.0 10.768470909725636 ) ">
          <g transform="translate(-3.0 0.0 ) ">
            <text class="axis-text-y" text-anchor="end" dy="0.35em">
            6
            </text>
          </g>
        </g>
      </g>
      <g transform="translate(21.961210910936405 0.0 ) " clip-path="url(#xXxprefixXx1)" clip-bounds-jfx="[rect (0.0, 0.0), (650.0387890890636, 414.0)]">
        <defs>
          <clipPath id="xXxprefixXx1">
            <rect x="0.0" y="0.0" width="650.0387890890636" height="414.0">
            </rect>
          </clipPath>
        </defs>
        <g>
          <path d="M29.547217685866528 250.84012296207914 L29.547217685866528 250.84012296207914 L49.245362809777546 193.0266822872035 L68.94350793368857 222.3385094202837 L88.64165305759958 114.90621782471453 L108.3397981815106 141.2647888319454 L128.0379433054216 200.06864362469318 L147.73608842933265 122.14151262721717 L167.43423355324364 159.3099265595855 L187.1323786771547 146.1047351379555 L206.83052380106568 130.90519957326057 L226.52866892497673 45.76966672037315 L246.22681404888772 104.0260391102743 L265.9249591727987 96.20788129251679 L285.62310429670976 60.19036547572995 L305.3212494206208 113.13105447032723 L325.0193945445318 56.97427630836529 L344.7175396684428 18.818181818181813 L364.41568479235383 58.68520305882794 L384.1138299162649 67.79624455666195 L403.81197504017587 73.51922878887794 L423.51012016408686 37.316687612812984 L443.2082652879979 131.88330221430917 L462.90641041190895 146.62090271409375 L482.60455553581994 100.43381407085207 L502.30270065973093 110.17687205966834 L522.0008457836419 192.35715287178564 L541.698990907553 196.65568632324926 L561.397136031464 219.45537687718218 L581.095281155375 241.99322228178386 L600.7934262792861 180.20182888781278 L620.4915714031971 288.6814051992419 L620.4915714031971 395.1818181818182 L600.7934262792861 390.999072824544 L581.095281155375 278.8775922384932 L561.397136031464 263.73357099658557 L541.698990907553 290.74631808601146 L522.0008457836419 210.73265038893047 L502.30270065973093 203.23033538540818 L482.60455553581994 251.93451164164017 L462.90641041190895 184.37564639962687 L443.2082652879979 170.1783452075656 L423.51012016408686 217.6648703349889 L403.81197504017587 145.68224344833342 L384.1138299162649 184.93704895261504 L364.41568479235383 146.53001106270878 L344.7175396684428 140.64222256436233 L325.0193945445318 132.64877867267353 L305.3212494206208 177.88814337471825 L285.62310429670976 151.16500725174663 L265.9249591727987 195.65343074957187 L246.22681404888772 135.3517382854463 L226.52866892497673 178.8890399387222 L206.83052380106568 224.42859345115477 L187.1323786771547 169.32526806857098 L167.43423355324364 245.56606689865328 L147.73608842933265 231.2123406495316 L128.0379433054216 241.83675620541493 L108.3397981815106 240.26717473620616 L88.64165305759958 304.211810816984 L68.94350793368857 319.089615335756 L49.245362809777546 342.3673866711205 L29.547217685866528 380.58462431015744 Z" fill="rgb(187,187,187)" stroke-width="1.0" fill-opacity="0.10196078431372549">
          </path>
        </g>
        <g>
          <path d="M29.547217685866528 250.84012296207914 L29.547217685866528 250.84012296207914 L49.245362809777546 193.0266822872035 L68.94350793368857 222.3385094202837 L88.64165305759958 114.90621782471453 L108.3397981815106 141.2647888319454 L128.0379433054216 200.06864362469318 L147.73608842933265 122.14151262721717 L167.43423355324364 159.3099265595855 L187.1323786771547 146.1047351379555 L206.83052380106568 130.90519957326057 L226.52866892497673 45.76966672037315 L246.22681404888772 104.0260391102743 L265.9249591727987 96.20788129251679 L285.62310429670976 60.19036547572995 L305.3212494206208 113.13105447032723 L325.0193945445318 56.97427630836529 L344.7175396684428 18.818181818181813 L364.41568479235383 58.68520305882794 L384.1138299162649 67.79624455666195 L403.81197504017587 73.51922878887794 L423.51012016408686 37.316687612812984 L443.2082652879979 131.88330221430917 L462.90641041190895 146.62090271409375 L482.60455553581994 100.43381407085207 L502.30270065973093 110.17687205966834 L522.0008457836419 192.35715287178564 L541.698990907553 196.65568632324926 L561.397136031464 219.45537687718218 L581.095281155375 241.99322228178386 L600.7934262792861 180.20182888781278 L620.4915714031971 288.6814051992419 " fill="none" stroke-width="1.6500000000000001" stroke="rgb(187,187,187)" stroke-opacity="1.0">
          </path>
        </g>
        <g>
          <path d="M29.547217685866528 380.58462431015744 L29.547217685866528 380.58462431015744 L49.245362809777546 342.3673866711205 L68.94350793368857 319.089615335756 L88.64165305759958 304.211810816984 L108.3397981815106 240.26717473620616 L128.0379433054216 241.83675620541493 L147.73608842933265 231.2123406495316 L167.43423355324364 245.56606689865328 L187.1323786771547 169.32526806857098 L206.83052380106568 224.42859345115477 L226.52866892497673 178.8890399387222 L246.22681404888772 135.3517382854463 L265.9249591727987 195.65343074957187 L285.62310429670976 151.16500725174663 L305.3212494206208 177.88814337471825 L325.0193945445318 132.64877867267353 L344.7175396684428 140.64222256436233 L364.41568479235383 146.53001106270878 L384.1138299162649 184.93704895261504 L403.81197504017587 145.68224344833342 L423.51012016408686 217.6648703349889 L443.2082652879979 170.1783452075656 L462.90641041190895 184.37564639962687 L482.60455553581994 251.93451164164017 L502.30270065973093 203.23033538540818 L522.0008457836419 210.73265038893047 L541.698990907553 290.74631808601146 L561.397136031464 263.73357099658557 L581.095281155375 278.8775922384932 L600.7934262792861 390.999072824544 L620.4915714031971 395.1818181818182 " fill="none" stroke-width="1.6500000000000001" stroke="rgb(187,187,187)" stroke-opacity="1.0">
          </path>
        </g>
      </g>
    </g>
    <g transform="translate(14.5 217.0 ) rotate(-90.0 ) ">
      <text class="axis-title-y" y="0.0" text-anchor="middle">
      y
      </text>
    </g>
    <g transform="translate(369.9806054554682 461.5 ) ">
      <text class="axis-title-x" y="0.0" text-anchor="middle">
      time
      </text>
    </g>
    <path fill="rgb(0,0,0)" fill-opacity="0.0" stroke="rgb(187,187,187)" stroke-opacity="1.0" stroke-width="0.0" d="M0.0 0.0 L0.0 470.0 L705.0 470.0 L705.0 0.0 Z">
    </path>
  </g>
  <g id="xXxprefixXx2">
  </g>
</svg>