<svg xmlns="http://www.w3.org/2000/svg" xmlns:xlink="http://www.w3.org/1999/xlink" display="block" class="plt-container" width="705.0" height="470.0">
  <style type="text/css">
  .plt-container {
   font-family: Lucida Grande, sans-serif;
   user-select: none;
   -webkit-user-select: none;
   -moz-user-select: none;
   -ms-user-select: none;
}
text {
   text-rendering: optimizeLegibility;
}
#xXxprefixXx0 .plot-title {
fill: #474747;
font-weight: normal;
   font-style: normal;font-family: Lucida Grande, sans-serif;
font-size: 16.0px;

}
#xXxprefixXx0 .plot-subtitle {
fill: #474747;
font-weight: normal;
   font-style: normal;font-family: Lucida Grande, sans-serif;
font-size: 15.0px;

}
#xXxprefixXx0 .plot-caption {
fill: #474747;
font-weight: normal;
   font-style: normal;font-family: Lucida Grande, sans-serif;
font-size: 13.0px;

}
#xXxprefixXx0 .hyperlink-element {
fill: #118ed8;
font-weight: normal;
   font-style: normal;
}
#xXxprefixXx0 .legend-title {
fill: #474747;
font-weight: normal;
   font-style: normal;font-family: Lucida Grande, sans-serif;
font-size: 15.0px;

}
#xXxprefixXx0 .legend-item {
fill: #474747;
font-weight: normal;
   font-style: normal;font-family: Lucida Grande, sans-serif;
font-size: 13.0px;

}
#xXxprefixXx0 .axis-title-x {
fill: #474747;
font-weight: normal;
   font-style: normal;font-family: Lucida Grande, sans-serif;
font-size: 15.0px;

}
#xXxprefixXx0 .axis-text-x {
fill: #474747;
font-weight: normal;
   font-style: normal;font-family: Lucida Grande, sans-serif;
font-size: 13.0px;

}
#xXxprefixXx2 .axis-tooltip-text-x {
fill: #ffffff;
font-weight: normal;
   font-style: normal;font-family: Lucida Grande, sans-serif;
font-size: 13.0px;

}
#xXxprefixXx0 .axis-title-y {
fill: #474747;
font-weight: normal;
   font-style: normal;font-family: Lucida Grande, sans-serif;
font-size: 15.0px;

}
#xXxprefixXx0 .axis-text-y {
fill: #474747;
font-weight: normal;
   font-style: normal;font-family: Lucida Grande, sans-serif;
font-size: 13.0px;

}
#xXxprefixXx2 .axis-tooltip-text-y {
fill: #ffffff;
font-weight: normal;
   font-style: normal;font-family: Lucida Grande, sans-serif;
font-size: 13.0px;

}
#xXxprefixXx0 .facet-strip-text-x {
fill: #474747;
font-weight: normal;
   font-style: normal;font-family: Lucida Grande, sans-serif;
font-size: 13.0px;

}
#xXxprefixXx0 .facet-strip-text-y {
fill: #474747;
font-weight: normal;
   font-style: normal;font-family: Lucida Grande, sans-serif;
font-size: 13.0px;

}
#xXxprefixXx2 .tooltip-text {
fill: #474747;
font-weight: normal;
   font-style: normal;font-family: Lucida Grande, sans-serif;
font-size: 13.0px;

}
#xXxprefixXx2 .tooltip-title {
fill: #474747;
font-weight: bold;
   font-style: normal;font-family: Lucida Grande, sans-serif;
font-size: 13.0px;

}
#xXxprefixXx2 .tooltip-label {
fill: #474747;
font-weight: bold;
   font-style: normal;font-family: Lucida Grande, sans-serif;
font-size: 13.0px;

}

  </style>
  <g id="xXxprefixXx0">
    <path fill-rule="evenodd" fill="rgb(255,255,255)" fill-opacity="1.0" d="M0.0 0.0 L0.0 470.0 L705.0 470.0 L705.0 0.0 Z">
    </path>
    <g transform="translate(6.5 6.5 ) ">
      <g>
        <g transform="">
          <g>
          </g>
        </g>
        <g transform="">
          <g>
          </g>
        </g>
        <g transform="translate(0.0 457.0 ) ">
        </g>
        <g transform="">
        </g>
      </g>
      <g clip-path="url(#xXxprefixXx1)" clip-bounds-jfx="[rect (0.0, 0.0), (634.0484863613295, 457.0)]">
        <g transform="">
          <g>
            <g>
              <g>
                <path d="M270.48055574845455 210.23294878168025 L223.93686831624436 191.96589756336047 A100.0 100.0 0.0 0 1 317.02424318066477 128.5 L317.02424318066477 178.5 A50.0 50.0 0.0 0 0 270.48055574845455 210.23294878168025 " fill="rgb(228,26,28)" stroke-width="1.0" fill-opacity="1.0">
                </path>
              </g>
              <g>
                <path d="M317.02424318066477 178.5 L317.02424318066477 128.5 A100.0 100.0 0.0 0 1 360.4126170924206 318.5968867902419 L338.7184301365427 273.54844339512096 A50.0 50.0 0.0 0 0 317.02424318066477 178.5 " fill="rgb(55,126,184)" stroke-width="1.0" fill-opacity="1.0">
                </path>
              </g>
              <g>
                <path d="M338.7184301365427 273.54844339512096 L360.4126170924206 318.5968867902419 A100.0 100.0 0.0 0 1 331.9284697982822 327.38308262251286 L324.4763564894735 277.9415413112564 A50.0 50.0 0.0 0 0 338.7184301365427 273.54844339512096 " fill="rgb(77,175,74)" stroke-width="1.0" fill-opacity="1.0">
                </path>
              </g>
              <g>
                <path d="M324.4763564894735 277.9415413112564 L331.9284697982822 327.38308262251286 A100.0 100.0 0.0 0 1 219.5314519624824 250.75209339563145 L268.2778475715736 239.62604669781572 A50.0 50.0 0.0 0 0 324.4763564894735 277.9415413112564 " fill="rgb(152,78,163)" stroke-width="1.0" fill-opacity="1.0">
                </path>
              </g>
              <g>
                <path d="M268.2778475715736 239.62604669781572 L219.5314519624824 250.75209339563145 A100.0 100.0 0.0 0 1 223.93686831624433 191.96589756336056 L270.48055574845455 210.23294878168028 A50.0 50.0 0.0 0 0 268.2778475715736 239.62604669781572 " fill="rgb(55,126,184)" stroke-width="1.0" fill-opacity="1.0">
                </path>
              </g>
              <g>
                <path d="M223.93686831624436 191.96589756336047 A100.0 100.0 0.0 0 1 317.02424318066477 128.5 M317.02424318066477 178.5 A50.0 50.0 0.0 0 0 270.48055574845455 210.23294878168025 " fill="none" stroke-width="1.0" stroke="rgb(255,255,255)" stroke-opacity="1.0">
                </path>
              </g>
              <g>
                <path d="M317.02424318066477 128.5 A100.0 100.0 0.0 0 1 360.4126170924206 318.5968867902419 M338.7184301365427 273.54844339512096 A50.0 50.0 0.0 0 0 317.02424318066477 178.5 " fill="none" stroke-width="1.0" stroke="rgb(255,255,255)" stroke-opacity="1.0">
                </path>
              </g>
              <g>
                <path d="M360.4126170924206 318.5968867902419 A100.0 100.0 0.0 0 1 331.9284697982822 327.38308262251286 M324.4763564894735 277.9415413112564 A50.0 50.0 0.0 0 0 338.7184301365427 273.54844339512096 " fill="none" stroke-width="1.0" stroke="rgb(255,255,255)" stroke-opacity="1.0">
                </path>
              </g>
              <g>
                <path d="M331.9284697982822 327.38308262251286 A100.0 100.0 0.0 0 1 219.5314519624824 250.75209339563145 M268.2778475715736 239.62604669781572 A50.0 50.0 0.0 0 0 324.4763564894735 277.9415413112564 " fill="none" stroke-width="1.0" stroke="rgb(255,255,255)" stroke-opacity="1.0">
                </path>
              </g>
              <g>
                <path d="M219.5314519624824 250.75209339563145 A100.0 100.0 0.0 0 1 223.93686831624433 191.96589756336056 M270.48055574845455 210.23294878168028 A50.0 50.0 0.0 0 0 268.2778475715736 239.62604669781572 " fill="none" stroke-width="1.0" stroke="rgb(255,255,255)" stroke-opacity="1.0">
                </path>
              </g>
              <g>
                <path d="M270.94599262277666 210.41561929386344 L223.47143144192225 191.78322705117728 M317.02424318066477 179.0 L317.02424318066477 128.0 " fill="none" stroke-width="0.75" stroke="rgb(255,255,255)" stroke-opacity="1.0">
                </path>
              </g>
              <g>
                <path d="M317.02424318066477 179.0 L317.02424318066477 128.0 M338.50148826698387 273.09795896116975 L360.62955896197934 319.0473712241931 " fill="none" stroke-width="0.75" stroke="rgb(255,255,255)" stroke-opacity="1.0">
                </path>
              </g>
              <g>
                <path d="M338.50148826698387 273.09795896116975 L360.62955896197934 319.0473712241931 M324.4018353563854 277.44712589814384 L332.00299093137033 327.8774980356254 " fill="none" stroke-width="0.75" stroke="rgb(255,255,255)" stroke-opacity="1.0">
                </path>
              </g>
              <g>
                <path d="M324.4018353563854 277.44712589814384 L332.00299093137033 327.8774980356254 M268.7653115276645 239.51478623083756 L219.0439880063915 250.8633538626096 " fill="none" stroke-width="0.75" stroke="rgb(255,255,255)" stroke-opacity="1.0">
                </path>
              </g>
              <g>
                <path d="M268.7653115276645 239.51478623083756 L219.0439880063915 250.8633538626096 M270.94599262277666 210.41561929386347 L223.47143144192222 191.78322705117733 " fill="none" stroke-width="0.75" stroke="rgb(255,255,255)" stroke-opacity="1.0">
                </path>
              </g>
            </g>
          </g>
        </g>
        <defs>
          <clipPath id="xXxprefixXx1">
            <rect x="0.0" y="0.0" width="634.0484863613295" height="457.0">
            </rect>
          </clipPath>
        </defs>
      </g>
      <g>
      </g>
    </g>
    <g transform="translate(652.0484863613295 172.75 ) ">
      <rect x="0.0" y="0.0" height="124.5" width="52.951513638670505" stroke="rgb(71,71,71)" stroke-opacity="1.0" stroke-width="0.0" fill="rgb(255,255,255)" fill-opacity="1.0">
      </rect>
      <g transform="translate(5.0 5.0 ) ">
        <g transform="translate(0.0 12.0 ) ">
          <text class="legend-title" y="0.0">
            <tspan>name</tspan>
          </text>
        </g>
        <g transform="translate(0.0 22.5 ) ">
          <g transform="">
            <g>
              <g transform="translate(1.0 1.0 ) ">
                <g>
                  <circle cx="10.5" cy="10.5" r="5.0" fill="rgb(228,26,28)" fill-opacity="1.0" stroke="rgb(255,255,255)" stroke-opacity="1.0" stroke-width="0.75">
                  </circle>
                </g>
              </g>
            </g>
            <g transform="translate(26.9903027277341 16.05 ) ">
              <text class="legend-item" y="0.0">
                <tspan>a</tspan>
              </text>
            </g>
          </g>
          <g transform="translate(0.0 23.0 ) ">
            <g>
              <g transform="translate(1.0 1.0 ) ">
                <g>
                  <circle cx="10.5" cy="10.5" r="5.0" fill="rgb(55,126,184)" fill-opacity="1.0" stroke="rgb(255,255,255)" stroke-opacity="1.0" stroke-width="0.75">
                  </circle>
                </g>
              </g>
            </g>
            <g transform="translate(26.9903027277341 16.05 ) ">
              <text class="legend-item" y="0.0">
                <tspan>b</tspan>
              </text>
            </g>
          </g>
          <g transform="translate(0.0 46.0 ) ">
            <g>
              <g transform="translate(1.0 1.0 ) ">
                <g>
                  <circle cx="10.5" cy="10.5" r="5.0" fill="rgb(77,175,74)" fill-opacity="1.0" stroke="rgb(255,255,255)" stroke-opacity="1.0" stroke-width="0.75">
                  </circle>
                </g>
              </g>
            </g>
            <g transform="translate(26.9903027277341 16.05 ) ">
              <text class="legend-item" y="0.0">
                <tspan>c</tspan>
              </text>
            </g>
          </g>
          <g transform="translate(0.0 69.0 ) ">
            <g>
              <g transform="translate(1.0 1.0 ) ">
                <g>
                  <circle cx="10.5" cy="10.5" r="5.0" fill="rgb(152,78,163)" fill-opacity="1.0" stroke="rgb(255,255,255)" stroke-opacity="1.0" stroke-width="0.75">
                  </circle>
                </g>
              </g>
            </g>
            <g transform="translate(26.9903027277341 16.05 ) ">
              <text class="legend-item" y="0.0">
                <tspan>d</tspan>
              </text>
            </g>
          </g>
        </g>
      </g>
    </g>
    <path fill="rgb(0,0,0)" fill-opacity="0.0" stroke="rgb(71,71,71)" stroke-opacity="1.0" stroke-width="0.0" d="M0.0 0.0 L0.0 470.0 L705.0 470.0 L705.0 0.0 Z" pointer-events="none">
    </path>
  </g>
  <g id="xXxprefixXx2">
  </g>
</svg>