<svg xmlns="http://www.w3.org/2000/svg" xmlns:xlink="http://www.w3.org/1999/xlink" class="plt-container" width="705.0" height="470.0">
  <style type="text/css">
  .plt-container {
   font-family: Lucida Grande, sans-serif;
   user-select: none;
   -webkit-user-select: none;
   -moz-user-select: none;
   -ms-user-select: none;
}
text {
   text-rendering: optimizeLegibility;
}
#xXxprefixXx0 .plot-title {
   fill: #474747;
   font-family: Lucida Grande, sans-serif;
   font-size: 16.0px;
   font-weight: normal;
   font-style: normal;   
}
#xXxprefixXx0 .plot-subtitle {
   fill: #474747;
   font-family: Lucida Grande, sans-serif;
   font-size: 15.0px;
   font-weight: normal;
   font-style: normal;   
}
#xXxprefixXx0 .plot-caption {
   fill: #474747;
   font-family: Lucida Grande, sans-serif;
   font-size: 13.0px;
   font-weight: normal;
   font-style: normal;   
}
#xXxprefixXx0 .legend-title {
   fill: #474747;
   font-family: Lucida Grande, sans-serif;
   font-size: 15.0px;
   font-weight: normal;
   font-style: normal;   
}
#xXxprefixXx0 .legend-item {
   fill: #474747;
   font-family: Lucida Grande, sans-serif;
   font-size: 13.0px;
   font-weight: normal;
   font-style: normal;   
}
#xXxprefixXx0 .axis-title-x {
   fill: #474747;
   font-family: Lucida Grande, sans-serif;
   font-size: 15.0px;
   font-weight: normal;
   font-style: normal;   
}
#xXxprefixXx0 .axis-text-x {
   fill: #474747;
   font-family: Lucida Grande, sans-serif;
   font-size: 13.0px;
   font-weight: normal;
   font-style: normal;   
}
#xXxprefixXx2 .axis-tooltip-text-x {
   fill: #ffffff;
   font-family: Lucida Grande, sans-serif;
   font-size: 13.0px;
   font-weight: normal;
   font-style: normal;   
}
#xXxprefixXx0 .axis-title-y {
   fill: #474747;
   font-family: Lucida Grande, sans-serif;
   font-size: 15.0px;
   font-weight: normal;
   font-style: normal;   
}
#xXxprefixXx0 .axis-text-y {
   fill: #474747;
   font-family: Lucida Grande, sans-serif;
   font-size: 13.0px;
   font-weight: normal;
   font-style: normal;   
}
#xXxprefixXx2 .axis-tooltip-text-y {
   fill: #ffffff;
   font-family: Lucida Grande, sans-serif;
   font-size: 13.0px;
   font-weight: normal;
   font-style: normal;   
}
#xXxprefixXx0 .facet-strip-text-x {
   fill: #474747;
   font-family: Lucida Grande, sans-serif;
   font-size: 13.0px;
   font-weight: normal;
   font-style: normal;   
}
#xXxprefixXx0 .facet-strip-text-y {
   fill: #474747;
   font-family: Lucida Grande, sans-serif;
   font-size: 13.0px;
   font-weight: normal;
   font-style: normal;   
}
#xXxprefixXx2 .tooltip-text {
   fill: #474747;
   font-family: Lucida Grande, sans-serif;
   font-size: 13.0px;
   font-weight: normal;
   font-style: normal;   
}
#xXxprefixXx2 .tooltip-title {
   fill: #474747;
   font-family: Lucida Grande, sans-serif;
   font-size: 13.0px;
   font-weight: bold;
   font-style: normal;   
}
#xXxprefixXx2 .tooltip-label {
   fill: #474747;
   font-family: Lucida Grande, sans-serif;
   font-size: 13.0px;
   font-weight: bold;
   font-style: normal;   
}

  </style>
  <g id="xXxprefixXx0">
    <path fill-rule="evenodd" fill="rgb(255,255,255)" fill-opacity="1.0" d="M0.0 0.0 L0.0 470.0 L705.0 470.0 L705.0 0.0 Z">
    </path>
    <g transform="translate(10.0 10.0 ) ">
      <g transform="translate(0.0 450.0 ) ">
      </g>
      <g transform="">
      </g>
      <g transform="" clip-path="url(#xXxprefixXx1)" clip-bounds-jfx="[rect (0.0, 0.0), (565.7064892974045, 450.0)]">
        <defs>
          <clipPath id="xXxprefixXx1">
            <rect x="0.0" y="0.0" width="565.7064892974045" height="450.0">
            </rect>
          </clipPath>
        </defs>
        <g>
          <path d="M282.85324464870223 225.0 L222.37901441115528 304.6421212498522 A100.0 100.0 0.0 0 1 282.85324464870223 125.0 L282.85324464870223 225.0 A0.0 0.0 0.0 0 0 282.85324464870223 225.0 " fill="rgb(0,0,128)" stroke-width="1.0" fill-opacity="1.0">
          </path>
        </g>
        <g>
          <path d="M282.85324464870223 225.0 L282.85324464870223 125.0 A100.0 100.0 0.0 0 1 382.85097218857663 224.32584359304573 L282.85324464870223 225.0 A0.0 0.0 0.0 0 0 282.85324464870223 225.0 " fill="rgb(10,47,137)" stroke-width="1.0" fill-opacity="1.0">
          </path>
        </g>
        <g>
          <path d="M282.85324464870223 225.0 L382.85097218857663 224.32584359304573 A100.0 100.0 0.0 0 1 353.4844274522588 295.7900841627595 L282.85324464870223 225.0 A0.0 0.0 0.0 0 0 282.85324464870223 225.0 " fill="rgb(21,94,147)" stroke-width="1.0" fill-opacity="1.0">
          </path>
        </g>
        <g>
          <path d="M288.237291874738 233.426863916536 L358.86847467829455 304.21694807929555 A100.0 100.0 0.0 0 1 322.7910124987032 327.2673689825306 L288.237291874738 233.426863916536 A0.0 0.0 0.0 0 0 288.237291874738 233.426863916536 " fill="rgb(33,140,156)" stroke-width="1.0" fill-opacity="1.0">
          </path>
        </g>
        <g>
          <path d="M284.4863564689392 234.8657460834243 L319.0400770929044 328.7062511494189 A100.0 100.0 0.0 0 1 282.0146826527673 334.835195559484 L284.4863564689392 234.8657460834243 A0.0 0.0 0.0 0 0 284.4863564689392 234.8657460834243 " fill="rgb(47,166,147)" stroke-width="1.0" fill-opacity="1.0">
          </path>
        </g>
        <g>
          <path d="M280.43221527410765 244.85292464014685 L277.96054145793573 344.82237411620656 A100.0 100.0 0.0 0 1 258.8065370706485 342.48657684183615 L280.43221527410765 244.85292464014685 A0.0 0.0 0.0 0 0 280.43221527410765 244.85292464014685 " fill="rgb(62,175,124)" stroke-width="1.0" fill-opacity="1.0">
          </path>
        </g>
        <g>
          <path d="M273.9553878192469 253.65009849620964 L252.32970961578778 351.283750697899 A100.0 100.0 0.0 0 1 236.4669491964679 346.3572555533977 L273.9553878192469 253.65009849620964 A0.0 0.0 0.0 0 0 273.9553878192469 253.65009849620964 " fill="rgb(79,185,106)" stroke-width="1.0" fill-opacity="1.0">
          </path>
        </g>
        <g>
          <path d="M265.19193517240774 260.8898056219667 L227.70349654962877 353.59696267915473 A100.0 100.0 0.0 0 1 214.60923482792407 347.1532997887356 L265.19193517240774 260.8898056219667 A0.0 0.0 0.0 0 0 265.19193517240774 260.8898056219667 " fill="rgb(100,194,97)" stroke-width="1.0" fill-opacity="1.0">
          </path>
        </g>
        <g>
          <path d="M249.47700164766007 274.8600682223298 L198.8943013031764 361.1235623890987 A100.0 100.0 0.0 0 1 189.00277141011316 354.502189472182 L249.47700164766007 274.8600682223298 A0.0 0.0 0.0 0 0 249.47700164766007 274.8600682223298 " fill="rgb(145,204,116)" stroke-width="1.0" fill-opacity="1.0">
          </path>
        </g>
        <g>
          <path d="M222.37901441115528 304.6421212498522 A100.0 100.0 0.0 0 1 282.85324464870223 125.0 M282.85324464870223 225.0 A0.0 0.0 0.0 0 0 282.85324464870223 225.0 " fill="none" stroke-width="1.0" stroke="rgb(255,255,255)" stroke-opacity="1.0">
          </path>
        </g>
        <g>
          <path d="M282.85324464870223 125.0 A100.0 100.0 0.0 0 1 382.85097218857663 224.32584359304573 M282.85324464870223 225.0 A0.0 0.0 0.0 0 0 282.85324464870223 225.0 " fill="none" stroke-width="1.0" stroke="rgb(255,255,255)" stroke-opacity="1.0">
          </path>
        </g>
        <g>
          <path d="M382.85097218857663 224.32584359304573 A100.0 100.0 0.0 0 1 353.4844274522588 295.7900841627595 M282.85324464870223 225.0 A0.0 0.0 0.0 0 0 282.85324464870223 225.0 " fill="none" stroke-width="1.0" stroke="rgb(255,255,255)" stroke-opacity="1.0">
          </path>
        </g>
        <g>
          <path d="M358.86847467829455 304.21694807929555 A100.0 100.0 0.0 0 1 322.7910124987032 327.2673689825306 M288.237291874738 233.426863916536 A0.0 0.0 0.0 0 0 288.237291874738 233.426863916536 " fill="none" stroke-width="1.0" stroke="rgb(255,255,255)" stroke-opacity="1.0">
          </path>
        </g>
        <g>
          <path d="M319.0400770929044 328.7062511494189 A100.0 100.0 0.0 0 1 282.0146826527673 334.835195559484 M284.4863564689392 234.8657460834243 A0.0 0.0 0.0 0 0 284.4863564689392 234.8657460834243 " fill="none" stroke-width="1.0" stroke="rgb(255,255,255)" stroke-opacity="1.0">
          </path>
        </g>
        <g>
          <path d="M277.96054145793573 344.82237411620656 A100.0 100.0 0.0 0 1 258.8065370706485 342.48657684183615 M280.43221527410765 244.85292464014685 A0.0 0.0 0.0 0 0 280.43221527410765 244.85292464014685 " fill="none" stroke-width="1.0" stroke="rgb(255,255,255)" stroke-opacity="1.0">
          </path>
        </g>
        <g>
          <path d="M252.32970961578778 351.283750697899 A100.0 100.0 0.0 0 1 236.4669491964679 346.3572555533977 M273.9553878192469 253.65009849620964 A0.0 0.0 0.0 0 0 273.9553878192469 253.65009849620964 " fill="none" stroke-width="1.0" stroke="rgb(255,255,255)" stroke-opacity="1.0">
          </path>
        </g>
        <g>
          <path d="M227.70349654962877 353.59696267915473 A100.0 100.0 0.0 0 1 214.60923482792407 347.1532997887356 M265.19193517240774 260.8898056219667 A0.0 0.0 0.0 0 0 265.19193517240774 260.8898056219667 " fill="none" stroke-width="1.0" stroke="rgb(255,255,255)" stroke-opacity="1.0">
          </path>
        </g>
        <g>
          <path d="M198.8943013031764 361.1235623890987 A100.0 100.0 0.0 0 1 189.00277141011316 354.502189472182 M249.47700164766007 274.8600682223298 A0.0 0.0 0.0 0 0 249.47700164766007 274.8600682223298 " fill="none" stroke-width="1.0" stroke="rgb(255,255,255)" stroke-opacity="1.0">
          </path>
        </g>
        <g>
          <path d="M282.85324464870223 225.0 L282.85324464870223 125.0 " fill="none" stroke-width="0.75" stroke="rgb(255,255,255)" stroke-opacity="1.0">
          </path>
        </g>
        <g>
          <path d="M282.85324464870223 225.0 L282.85324464870223 125.0 M282.85324464870223 225.0 L382.85097218857663 224.32584359304573 " fill="none" stroke-width="0.75" stroke="rgb(255,255,255)" stroke-opacity="1.0">
          </path>
        </g>
        <g>
          <path d="M282.85324464870223 225.0 L382.85097218857663 224.32584359304573 " fill="none" stroke-width="0.75" stroke="rgb(255,255,255)" stroke-opacity="1.0">
          </path>
        </g>
        <g>
          <path d="" fill="none" stroke-width="0.75" stroke="rgb(255,255,255)" stroke-opacity="1.0">
          </path>
        </g>
        <g>
          <path d="" fill="none" stroke-width="0.75" stroke="rgb(255,255,255)" stroke-opacity="1.0">
          </path>
        </g>
        <g>
          <path d="" fill="none" stroke-width="0.75" stroke="rgb(255,255,255)" stroke-opacity="1.0">
          </path>
        </g>
        <g>
          <path d="" fill="none" stroke-width="0.75" stroke="rgb(255,255,255)" stroke-opacity="1.0">
          </path>
        </g>
        <g>
          <path d="" fill="none" stroke-width="0.75" stroke="rgb(255,255,255)" stroke-opacity="1.0">
          </path>
        </g>
        <g>
          <path d="" fill="none" stroke-width="0.75" stroke="rgb(255,255,255)" stroke-opacity="1.0">
          </path>
        </g>
      </g>
    </g>
    <g transform="translate(585.7064892974045 110.25 ) ">
      <rect x="5.0" y="5.0" height="239.5" width="109.29351070259553" stroke="rgb(71,71,71)" stroke-opacity="1.0" stroke-width="0.0" fill="rgb(255,255,255)" fill-opacity="1.0">
      </rect>
      <g transform="translate(10.0 10.0 ) ">
        <g transform="translate(0.0 10.5 ) ">
          <text class="legend-title" y="0.0">
          name
          </text>
        </g>
        <g transform="translate(0.0 22.5 ) ">
          <g transform="">
            <g>
              <rect x="0.0" y="0.0" height="23.0" width="23.0" stroke-width="0.0" fill="rgb(255,255,255)" fill-opacity="1.0">
              </rect>
              <g transform="translate(1.0 1.0 ) ">
                <g>
                  <circle cx="10.5" cy="10.5" r="5.0" fill="rgb(0,0,128)" fill-opacity="1.0" stroke="rgb(71,71,71)" stroke-opacity="1.0" stroke-width="0.75">
                  </circle>
                </g>
              </g>
              <rect x="0.0" y="0.0" height="23.0" width="23.0" stroke="rgb(255,255,255)" stroke-opacity="1.0" stroke-width="1.0" fill-opacity="0.0">
              </rect>
            </g>
            <g transform="translate(26.9903027277341 16.05 ) ">
              <text class="legend-item" y="0.0">
              20-50 km
              </text>
            </g>
          </g>
          <g transform="translate(0.0 23.0 ) ">
            <g>
              <rect x="0.0" y="0.0" height="23.0" width="23.0" stroke-width="0.0" fill="rgb(255,255,255)" fill-opacity="1.0">
              </rect>
              <g transform="translate(1.0 1.0 ) ">
                <g>
                  <circle cx="10.5" cy="10.5" r="5.0" fill="rgb(10,47,137)" fill-opacity="1.0" stroke="rgb(71,71,71)" stroke-opacity="1.0" stroke-width="0.75">
                  </circle>
                </g>
              </g>
              <rect x="0.0" y="0.0" height="23.0" width="23.0" stroke="rgb(255,255,255)" stroke-opacity="1.0" stroke-width="1.0" fill-opacity="0.0">
              </rect>
            </g>
            <g transform="translate(26.9903027277341 16.05 ) ">
              <text class="legend-item" y="0.0">
              50-75 km
              </text>
            </g>
          </g>
          <g transform="translate(0.0 46.0 ) ">
            <g>
              <rect x="0.0" y="0.0" height="23.0" width="23.0" stroke-width="0.0" fill="rgb(255,255,255)" fill-opacity="1.0">
              </rect>
              <g transform="translate(1.0 1.0 ) ">
                <g>
                  <circle cx="10.5" cy="10.5" r="5.0" fill="rgb(21,94,147)" fill-opacity="1.0" stroke="rgb(71,71,71)" stroke-opacity="1.0" stroke-width="0.75">
                  </circle>
                </g>
              </g>
              <rect x="0.0" y="0.0" height="23.0" width="23.0" stroke="rgb(255,255,255)" stroke-opacity="1.0" stroke-width="1.0" fill-opacity="0.0">
              </rect>
            </g>
            <g transform="translate(26.9903027277341 16.05 ) ">
              <text class="legend-item" y="0.0">
              10-20 km
              </text>
            </g>
          </g>
          <g transform="translate(0.0 69.0 ) ">
            <g>
              <rect x="0.0" y="0.0" height="23.0" width="23.0" stroke-width="0.0" fill="rgb(255,255,255)" fill-opacity="1.0">
              </rect>
              <g transform="translate(1.0 1.0 ) ">
                <g>
                  <circle cx="10.5" cy="10.5" r="5.0" fill="rgb(33,140,156)" fill-opacity="1.0" stroke="rgb(71,71,71)" stroke-opacity="1.0" stroke-width="0.75">
                  </circle>
                </g>
              </g>
              <rect x="0.0" y="0.0" height="23.0" width="23.0" stroke="rgb(255,255,255)" stroke-opacity="1.0" stroke-width="1.0" fill-opacity="0.0">
              </rect>
            </g>
            <g transform="translate(26.9903027277341 16.05 ) ">
              <text class="legend-item" y="0.0">
              75-100 km
              </text>
            </g>
          </g>
          <g transform="translate(0.0 92.0 ) ">
            <g>
              <rect x="0.0" y="0.0" height="23.0" width="23.0" stroke-width="0.0" fill="rgb(255,255,255)" fill-opacity="1.0">
              </rect>
              <g transform="translate(1.0 1.0 ) ">
                <g>
                  <circle cx="10.5" cy="10.5" r="5.0" fill="rgb(47,166,147)" fill-opacity="1.0" stroke="rgb(71,71,71)" stroke-opacity="1.0" stroke-width="0.75">
                  </circle>
                </g>
              </g>
              <rect x="0.0" y="0.0" height="23.0" width="23.0" stroke="rgb(255,255,255)" stroke-opacity="1.0" stroke-width="1.0" fill-opacity="0.0">
              </rect>
            </g>
            <g transform="translate(26.9903027277341 16.05 ) ">
              <text class="legend-item" y="0.0">
              3-5 km
              </text>
            </g>
          </g>
          <g transform="translate(0.0 115.0 ) ">
            <g>
              <rect x="0.0" y="0.0" height="23.0" width="23.0" stroke-width="0.0" fill="rgb(255,255,255)" fill-opacity="1.0">
              </rect>
              <g transform="translate(1.0 1.0 ) ">
                <g>
                  <circle cx="10.5" cy="10.5" r="5.0" fill="rgb(62,175,124)" fill-opacity="1.0" stroke="rgb(71,71,71)" stroke-opacity="1.0" stroke-width="0.75">
                  </circle>
                </g>
              </g>
              <rect x="0.0" y="0.0" height="23.0" width="23.0" stroke="rgb(255,255,255)" stroke-opacity="1.0" stroke-width="1.0" fill-opacity="0.0">
              </rect>
            </g>
            <g transform="translate(26.9903027277341 16.05 ) ">
              <text class="legend-item" y="0.0">
              7-10 km
              </text>
            </g>
          </g>
          <g transform="translate(0.0 138.0 ) ">
            <g>
              <rect x="0.0" y="0.0" height="23.0" width="23.0" stroke-width="0.0" fill="rgb(255,255,255)" fill-opacity="1.0">
              </rect>
              <g transform="translate(1.0 1.0 ) ">
                <g>
                  <circle cx="10.5" cy="10.5" r="5.0" fill="rgb(79,185,106)" fill-opacity="1.0" stroke="rgb(71,71,71)" stroke-opacity="1.0" stroke-width="0.75">
                  </circle>
                </g>
              </g>
              <rect x="0.0" y="0.0" height="23.0" width="23.0" stroke="rgb(255,255,255)" stroke-opacity="1.0" stroke-width="1.0" fill-opacity="0.0">
              </rect>
            </g>
            <g transform="translate(26.9903027277341 16.05 ) ">
              <text class="legend-item" y="0.0">
              5-7 km
              </text>
            </g>
          </g>
          <g transform="translate(0.0 161.0 ) ">
            <g>
              <rect x="0.0" y="0.0" height="23.0" width="23.0" stroke-width="0.0" fill="rgb(255,255,255)" fill-opacity="1.0">
              </rect>
              <g transform="translate(1.0 1.0 ) ">
                <g>
                  <circle cx="10.5" cy="10.5" r="5.0" fill="rgb(100,194,97)" fill-opacity="1.0" stroke="rgb(71,71,71)" stroke-opacity="1.0" stroke-width="0.75">
                  </circle>
                </g>
              </g>
              <rect x="0.0" y="0.0" height="23.0" width="23.0" stroke="rgb(255,255,255)" stroke-opacity="1.0" stroke-width="1.0" fill-opacity="0.0">
              </rect>
            </g>
            <g transform="translate(26.9903027277341 16.05 ) ">
              <text class="legend-item" y="0.0">
              &gt;100 km
              </text>
            </g>
          </g>
          <g transform="translate(0.0 184.0 ) ">
            <g>
              <rect x="0.0" y="0.0" height="23.0" width="23.0" stroke-width="0.0" fill="rgb(255,255,255)" fill-opacity="1.0">
              </rect>
              <g transform="translate(1.0 1.0 ) ">
                <g>
                  <circle cx="10.5" cy="10.5" r="5.0" fill="rgb(145,204,116)" fill-opacity="1.0" stroke="rgb(71,71,71)" stroke-opacity="1.0" stroke-width="0.75">
                  </circle>
                </g>
              </g>
              <rect x="0.0" y="0.0" height="23.0" width="23.0" stroke="rgb(255,255,255)" stroke-opacity="1.0" stroke-width="1.0" fill-opacity="0.0">
              </rect>
            </g>
            <g transform="translate(26.9903027277341 16.05 ) ">
              <text class="legend-item" y="0.0">
              2-3 km
              </text>
            </g>
          </g>
        </g>
      </g>
    </g>
    <path fill="rgb(0,0,0)" fill-opacity="0.0" stroke="rgb(71,71,71)" stroke-opacity="1.0" stroke-width="0.0" d="M0.0 0.0 L0.0 470.0 L705.0 470.0 L705.0 0.0 Z">
    </path>
  </g>
  <g id="xXxprefixXx2">
  </g>
</svg>