<svg xmlns="http://www.w3.org/2000/svg" xmlns:xlink="http://www.w3.org/1999/xlink" class="plt-container" width="705.0" height="470.0">
  <style type="text/css">
  .plt-container {
   font-family: Lucida Grande, sans-serif;
   user-select: none;
   -webkit-user-select: none;
   -moz-user-select: none;
   -ms-user-select: none;
}
text {
   text-rendering: optimizeLegibility;
}
#xXxprefixXx0 .plot-title {
   fill: #474747;
   font-family: Lucida Grande, sans-serif;
   font-size: 16.0px;
   font-weight: normal;
   font-style: normal;   
}
#xXxprefixXx0 .plot-subtitle {
   fill: #474747;
   font-family: Lucida Grande, sans-serif;
   font-size: 15.0px;
   font-weight: normal;
   font-style: normal;   
}
#xXxprefixXx0 .plot-caption {
   fill: #474747;
   font-family: Lucida Grande, sans-serif;
   font-size: 13.0px;
   font-weight: normal;
   font-style: normal;   
}
#xXxprefixXx0 .legend-title {
   fill: #474747;
   font-family: Lucida Grande, sans-serif;
   font-size: 15.0px;
   font-weight: normal;
   font-style: normal;   
}
#xXxprefixXx0 .legend-item {
   fill: #474747;
   font-family: Lucida Grande, sans-serif;
   font-size: 13.0px;
   font-weight: normal;
   font-style: normal;   
}
#xXxprefixXx0 .axis-title-x {
   fill: #474747;
   font-family: Lucida Grande, sans-serif;
   font-size: 15.0px;
   font-weight: normal;
   font-style: normal;   
}
#xXxprefixXx0 .axis-text-x {
   fill: #474747;
   font-family: Lucida Grande, sans-serif;
   font-size: 13.0px;
   font-weight: normal;
   font-style: normal;   
}
#xXxprefixXx2 .axis-tooltip-text-x {
   fill: #ffffff;
   font-family: Lucida Grande, sans-serif;
   font-size: 13.0px;
   font-weight: normal;
   font-style: normal;   
}
#xXxprefixXx0 .axis-title-y {
   fill: #474747;
   font-family: Lucida Grande, sans-serif;
   font-size: 15.0px;
   font-weight: normal;
   font-style: normal;   
}
#xXxprefixXx0 .axis-text-y {
   fill: #474747;
   font-family: Lucida Grande, sans-serif;
   font-size: 13.0px;
   font-weight: normal;
   font-style: normal;   
}
#xXxprefixXx2 .axis-tooltip-text-y {
   fill: #ffffff;
   font-family: Lucida Grande, sans-serif;
   font-size: 13.0px;
   font-weight: normal;
   font-style: normal;   
}
#xXxprefixXx0 .facet-strip-text-x {
   fill: #474747;
   font-family: Lucida Grande, sans-serif;
   font-size: 13.0px;
   font-weight: normal;
   font-style: normal;   
}
#xXxprefixXx0 .facet-strip-text-y {
   fill: #474747;
   font-family: Lucida Grande, sans-serif;
   font-size: 13.0px;
   font-weight: normal;
   font-style: normal;   
}
#xXxprefixXx2 .tooltip-text {
   fill: #474747;
   font-family: Lucida Grande, sans-serif;
   font-size: 13.0px;
   font-weight: normal;
   font-style: normal;   
}
#xXxprefixXx2 .tooltip-title {
   fill: #474747;
   font-family: Lucida Grande, sans-serif;
   font-size: 13.0px;
   font-weight: bold;
   font-style: normal;   
}
#xXxprefixXx2 .tooltip-label {
   fill: #474747;
   font-family: Lucida Grande, sans-serif;
   font-size: 13.0px;
   font-weight: bold;
   font-style: normal;   
}

  </style>
  <g id="xXxprefixXx0">
    <path fill-rule="evenodd" fill="rgb(255,255,255)" fill-opacity="1.0" d="M0.0 0.0 L0.0 470.0 L705.0 470.0 L705.0 0.0 Z">
    </path>
    <g transform="translate(23.0 10.0 ) ">
      <g transform="translate(35.01530667574961 414.0 ) ">
        <line x1="38.24373158540931" y1="-0.0" x2="38.24373158540931" y2="-414.0" stroke="rgb(233,233,233)" stroke-opacity="1.0" stroke-width="1.0">
        </line>
        <line x1="134.98748805362743" y1="-0.0" x2="134.98748805362743" y2="-414.0" stroke="rgb(233,233,233)" stroke-opacity="1.0" stroke-width="1.0">
        </line>
        <line x1="231.73124452184558" y1="-0.0" x2="231.73124452184558" y2="-414.0" stroke="rgb(233,233,233)" stroke-opacity="1.0" stroke-width="1.0">
        </line>
        <line x1="328.47500099006373" y1="-0.0" x2="328.47500099006373" y2="-414.0" stroke="rgb(233,233,233)" stroke-opacity="1.0" stroke-width="1.0">
        </line>
        <line x1="425.21875745828186" y1="-0.0" x2="425.21875745828186" y2="-414.0" stroke="rgb(233,233,233)" stroke-opacity="1.0" stroke-width="1.0">
        </line>
        <line x1="521.9625139265" y1="-0.0" x2="521.9625139265" y2="-414.0" stroke="rgb(233,233,233)" stroke-opacity="1.0" stroke-width="1.0">
        </line>
        <line x1="618.7062703947181" y1="-0.0" x2="618.7062703947181" y2="-414.0" stroke="rgb(233,233,233)" stroke-opacity="1.0" stroke-width="1.0">
        </line>
        <g transform="translate(38.24373158540931 0.0 ) ">
          <line stroke-width="1.0" stroke="rgb(71,71,71)" stroke-opacity="1.0" x2="0.0" y2="4.0">
          </line>
          <g transform="translate(0.0 7.0 ) ">
            <text class="axis-text-x" text-anchor="middle" dy="0.7em">
            -3
            </text>
          </g>
        </g>
        <g transform="translate(134.98748805362743 0.0 ) ">
          <line stroke-width="1.0" stroke="rgb(71,71,71)" stroke-opacity="1.0" x2="0.0" y2="4.0">
          </line>
          <g transform="translate(0.0 7.0 ) ">
            <text class="axis-text-x" text-anchor="middle" dy="0.7em">
            -2
            </text>
          </g>
        </g>
        <g transform="translate(231.73124452184558 0.0 ) ">
          <line stroke-width="1.0" stroke="rgb(71,71,71)" stroke-opacity="1.0" x2="0.0" y2="4.0">
          </line>
          <g transform="translate(0.0 7.0 ) ">
            <text class="axis-text-x" text-anchor="middle" dy="0.7em">
            -1
            </text>
          </g>
        </g>
        <g transform="translate(328.47500099006373 0.0 ) ">
          <line stroke-width="1.0" stroke="rgb(71,71,71)" stroke-opacity="1.0" x2="0.0" y2="4.0">
          </line>
          <g transform="translate(0.0 7.0 ) ">
            <text class="axis-text-x" text-anchor="middle" dy="0.7em">
            0
            </text>
          </g>
        </g>
        <g transform="translate(425.21875745828186 0.0 ) ">
          <line stroke-width="1.0" stroke="rgb(71,71,71)" stroke-opacity="1.0" x2="0.0" y2="4.0">
          </line>
          <g transform="translate(0.0 7.0 ) ">
            <text class="axis-text-x" text-anchor="middle" dy="0.7em">
            1
            </text>
          </g>
        </g>
        <g transform="translate(521.9625139265 0.0 ) ">
          <line stroke-width="1.0" stroke="rgb(71,71,71)" stroke-opacity="1.0" x2="0.0" y2="4.0">
          </line>
          <g transform="translate(0.0 7.0 ) ">
            <text class="axis-text-x" text-anchor="middle" dy="0.7em">
            2
            </text>
          </g>
        </g>
        <g transform="translate(618.7062703947181 0.0 ) ">
          <line stroke-width="1.0" stroke="rgb(71,71,71)" stroke-opacity="1.0" x2="0.0" y2="4.0">
          </line>
          <g transform="translate(0.0 7.0 ) ">
            <text class="axis-text-x" text-anchor="middle" dy="0.7em">
            3
            </text>
          </g>
        </g>
        <line x1="0.0" y1="0.0" x2="636.9846933242504" y2="0.0" stroke-width="1.0" stroke="rgb(71,71,71)" stroke-opacity="1.0">
        </line>
      </g>
      <g transform="translate(35.01530667574961 0.0 ) ">
        <line x1="0.0" y1="363.5832976602644" x2="636.9846933242504" y2="363.5832976602644" stroke="rgb(233,233,233)" stroke-opacity="1.0" stroke-width="1.0">
        </line>
        <line x1="0.0" y1="313.16659532052887" x2="636.9846933242504" y2="313.16659532052887" stroke="rgb(233,233,233)" stroke-opacity="1.0" stroke-width="1.0">
        </line>
        <line x1="0.0" y1="262.7498929807933" x2="636.9846933242504" y2="262.7498929807933" stroke="rgb(233,233,233)" stroke-opacity="1.0" stroke-width="1.0">
        </line>
        <line x1="0.0" y1="212.33319064105774" x2="636.9846933242504" y2="212.33319064105774" stroke="rgb(233,233,233)" stroke-opacity="1.0" stroke-width="1.0">
        </line>
        <line x1="0.0" y1="161.91648830132218" x2="636.9846933242504" y2="161.91648830132218" stroke="rgb(233,233,233)" stroke-opacity="1.0" stroke-width="1.0">
        </line>
        <line x1="0.0" y1="111.49978596158661" x2="636.9846933242504" y2="111.49978596158661" stroke="rgb(233,233,233)" stroke-opacity="1.0" stroke-width="1.0">
        </line>
        <line x1="0.0" y1="61.083083621851074" x2="636.9846933242504" y2="61.083083621851074" stroke="rgb(233,233,233)" stroke-opacity="1.0" stroke-width="1.0">
        </line>
        <line x1="0.0" y1="10.666381282115537" x2="636.9846933242504" y2="10.666381282115537" stroke="rgb(233,233,233)" stroke-opacity="1.0" stroke-width="1.0">
        </line>
        <g transform="translate(0.0 414.0 ) ">
          <g transform="translate(-3.0 0.0 ) ">
            <text class="axis-text-y" text-anchor="end" dy="0.35em">
            0.00
            </text>
          </g>
        </g>
        <g transform="translate(0.0 363.5832976602644 ) ">
          <g transform="translate(-3.0 0.0 ) ">
            <text class="axis-text-y" text-anchor="end" dy="0.35em">
            0.05
            </text>
          </g>
        </g>
        <g transform="translate(0.0 313.16659532052887 ) ">
          <g transform="translate(-3.0 0.0 ) ">
            <text class="axis-text-y" text-anchor="end" dy="0.35em">
            0.10
            </text>
          </g>
        </g>
        <g transform="translate(0.0 262.7498929807933 ) ">
          <g transform="translate(-3.0 0.0 ) ">
            <text class="axis-text-y" text-anchor="end" dy="0.35em">
            0.15
            </text>
          </g>
        </g>
        <g transform="translate(0.0 212.33319064105774 ) ">
          <g transform="translate(-3.0 0.0 ) ">
            <text class="axis-text-y" text-anchor="end" dy="0.35em">
            0.20
            </text>
          </g>
        </g>
        <g transform="translate(0.0 161.91648830132218 ) ">
          <g transform="translate(-3.0 0.0 ) ">
            <text class="axis-text-y" text-anchor="end" dy="0.35em">
            0.25
            </text>
          </g>
        </g>
        <g transform="translate(0.0 111.49978596158661 ) ">
          <g transform="translate(-3.0 0.0 ) ">
            <text class="axis-text-y" text-anchor="end" dy="0.35em">
            0.30
            </text>
          </g>
        </g>
        <g transform="translate(0.0 61.083083621851074 ) ">
          <g transform="translate(-3.0 0.0 ) ">
            <text class="axis-text-y" text-anchor="end" dy="0.35em">
            0.35
            </text>
          </g>
        </g>
        <g transform="translate(0.0 10.666381282115537 ) ">
          <g transform="translate(-3.0 0.0 ) ">
            <text class="axis-text-y" text-anchor="end" dy="0.35em">
            0.40
            </text>
          </g>
        </g>
      </g>
      <g transform="translate(35.01530667574961 0.0 ) " clip-path="url(#xXxprefixXx1)" clip-bounds-jfx="[rect (0.0, 0.0), (636.9846933242504, 414.0)]">
        <defs>
          <clipPath id="xXxprefixXx1">
            <rect x="0.0" y="0.0" width="636.9846933242504" height="414.0">
            </rect>
          </clipPath>
        </defs>
        <g>
          <path d="M28.9538496965568 409.2071160445731 L28.9538496965568 409.2071160445731 L30.087072776656896 409.0027843415819 L31.220295856756934 408.7954007953581 L32.35351893685703 408.5850764229629 L33.48674201695712 408.3719134602401 L34.61996509705716 408.1560051896843 L35.753188177157256 407.9374359935443 L36.88641125725735 407.71628161648624 L38.01963433735739 407.49260961392554 L39.15285741745748 407.2664799539357 L40.28608049755758 407.0379457326985 L41.419303577657615 406.80705395601814 L42.55252665775771 406.5738463327533 L43.685749737857805 406.338360020394 L44.81897281795784 406.1006282586944 L45.95219589805794 405.8606808245289 L47.085418978157975 405.61854424020737 L48.21864205825807 405.37424166856954 L49.351865138358164 405.12779243144934 L50.4850882184582 404.87921109367335 L51.6183112985583 404.62850606268324 L52.751534378658334 404.37567766414145 L53.88475745875843 404.12071566639696 L55.017980538858524 403.86359624128914 L56.15120361895856 403.60427836519443 L57.284426699058656 403.3426996821458 L58.417649779158694 403.0787718698678 L59.55087285925879 402.8123755691902 L60.684095939358826 402.5433549569996 L61.81731901945892 402.2715120620777 L62.950542099559016 401.99660094124397 L64.08376517965905 401.7183218495638 L65.21698825975915 401.4363155523735 L66.35021133985919 401.15015793795624 L67.48343441995928 400.859355097337 L68.61665750005932 400.5633390414148 L69.74988058015941 400.26146422515365 L70.88310366025951 399.9530050435695 L72.01632674035955 399.6371544546507 L73.14954982045964 399.3130238701594 L74.28277290055973 398.9796444366106 L75.41599598065977 398.63596980593263 L76.54921906075987 398.2808804687744 L77.6824421408599 397.9131896937192 L78.81566522096 397.5316510834396 L79.94888830106004 397.1349677248501 L81.08211138116013 396.7218028754134 L82.21533446126023 396.29079209280894 L83.34855754136026 395.8405566810789 L84.48178062146036 395.36971829401534 L85.6150037015604 394.87691450679864 L86.74822678166049 394.36081514052916 L87.88144986176053 393.82013910201704 L89.01467294186062 393.25367148359624 L90.14789602196072 392.6602806552792 L91.28111910206076 392.0389350745769 L92.41434218216085 391.38871953796075 L93.54756526226095 390.70885060224003 L94.68078834236098 389.9986909139465 L95.81401142246105 389.2577621998651 L96.94723450256112 388.4857566917242 L98.08045758266121 387.682546782214 L99.21368066276128 386.8481927373236 L100.34690374286134 385.98294832076135 L101.48012682296144 385.0872642191989 L102.6133499030615 384.16178919147524 L103.74657298316157 383.20736889992855 L104.87979606326164 382.2250424169349 L106.01301914336173 381.21603643379666 L107.14624222346177 380.18175723169867 L108.27946530356186 379.12378050495 L109.41268838366196 378.043839154667 L110.545911463762 376.94380919604805 L111.67913454386209 375.8256939441465 L112.81235762396213 374.69160666138 L113.94558070406222 373.5437518648416 L115.07880378416226 372.38440550279626 L116.21202686426236 371.21589421763804 L117.34524994436245 370.04057391722006 L118.47847302446249 368.86080787803843 L119.61169610456258 367.6789446025305 L120.74491918466268 366.4972956490145 L121.87814226476272 365.3181136468467 L123.01136534486281 364.1435707015304 L124.14458842496285 362.9757373850563 L125.27781150506294 361.8165624959971 L126.41103458516298 360.66785376206815 L127.54425766526307 359.531259645249 L128.67748074536317 358.40825239635586 L129.8107038254632 357.3001124923334 L130.94392690556327 356.2079145756545 L132.0771499856634 355.13251500121703 L133.21037306576343 354.0745410820948 L134.3435961458635 353.0343821115266 L135.47681922596357 352.01218222468754 L136.61004230606363 351.0078351501171 L137.7432653861637 350.02098088722755 L138.8764884662638 349.0510043331276 L140.00971154636386 348.09703586906437 L141.14293462646393 347.15795390416497 L142.27615770656402 346.23238936182685 L143.4093807866641 345.3187320820828 L144.54260386676415 344.4151391015398 L145.67582694686422 343.51954476104174 L146.80905002696431 342.6296725800184 L147.94227310706438 341.7430488255118 L149.07549618716445 340.8570176930815 L150.2087192672645 339.96875800613117 L151.3419423473646 339.07530132961796 L152.47516542746467 338.1735513835615 L153.60838850756474 337.2603046312195 L154.7416115876648 336.3322719062006 L155.87483466776487 335.38610093218045 L157.00805774786494 334.4183995782448 L158.14128082796503 333.4257596823162 L159.2745039080651 332.40478126470106 L160.40772698816517 331.3520969436882 L161.54095006826523 330.26439635552657 L162.6741731483653 329.1384503722743 L163.80739622846536 327.9711349032216 L164.94061930856546 326.759454059194 L166.07384238866553 325.5005624544044 L167.2070654687656 324.19178641803313 L168.34028854886566 322.8306438877669 L169.47351162896572 321.41486276050796 L170.6067347090658 319.9423974817281 L171.73995778916589 318.41144366479136 L172.87318086926595 316.8204505452599 L174.00640394936602 315.168131092877 L175.13962702946608 313.4534696256492 L176.27285010956615 311.6757267961765 L177.40607318966624 309.8344418499405 L178.5392962697663 307.92943208833157 L179.67251934986638 305.9607895053839 L180.80574242996644 303.92887460591555 L181.9389655100665 301.83430745341593 L183.0721885901666 299.6779560378016 L184.20541167026667 297.4609220952855 L185.33863475036674 295.18452455415894 L186.4718578304668 292.8502808204028 L187.6050809105669 290.4598861547987 L188.73830399066696 288.0151914277355 L189.87152707076703 285.5181795683877 L191.0047501508671 282.97094105066094 L192.1379732309672 280.37564877857324 L193.27119631106726 277.73453274814034 L194.40441939116732 275.0498548709245 L195.5376424712674 272.3238843459858 L196.67086555136746 269.5588739619841 L197.80408863146755 266.7570376996773 L198.93731171156762 263.9205299872598 L200.07053479166768 261.05142693725065 L201.20375787176775 258.1517098644165 L202.33698095186782 255.2232513500861 L203.47020403196788 252.26780407979595 L204.60342711206798 249.2869926392306 L205.73665019216804 246.28230840859285 L206.8698732722681 243.2551076486615 L208.00309635236817 240.2066128235549 L209.13631943246824 237.13791715646767 L210.26954251256834 234.04999236595057 L211.4027655926684 230.9436994825273 L212.53598867276847 227.81980259901627 L213.66921175286853 224.6789853636034 L214.8024348329686 221.52186998292947 L215.93565791306867 218.34903846370247 L217.06888099316876 215.16105578610225 L218.20210407326883 211.95849467082064 L219.3353271533689 208.7419615743672 L220.468550233469 205.51212352454044 L221.60177331356903 202.26973538993926 L222.73499639366912 199.01566716431483 L223.8682194737692 195.75093083860042 L225.00144255386925 192.47670643063427 L226.13466563396935 189.19436674514895 L227.26788871406941 185.9055004443409 L228.40111179416948 182.61193302241986 L229.53433487426958 179.31574529572438 L230.6675579543696 176.01928904319308 L231.8007810344697 172.7251994599778 L232.93400411456975 169.43640411945492 L234.06722719466984 166.1561281755459 L235.20045027476993 162.8878955776758 L236.33367335486997 159.6355261144079 L237.46689643497007 156.4031281483919 L238.6001195150701 153.19508695413708 L239.7333425951702 150.01604862080234 L240.8665656752703 146.87089953410816 L241.99978875537033 143.764741504053 L243.13301183547043 140.7028626578891 L244.26623491557046 137.6907042701364 L245.39945799567056 134.73382375293846 L246.5326810757706 131.83785408018684 L247.6659041558707 129.00845996721864 L248.7991272359708 126.25129117404572 L249.93235031607082 123.57193334367065 L251.06557339617092 120.97585682765856 L252.19879647627096 118.4683639884887 L253.33201955637105 116.05453550181676 L254.46524263647115 113.73917621149735 L255.59846571657118 111.52676111538807 L256.7316887966713 109.4213820804834 L257.8649118767713 107.42669590119618 L258.9981349568714 105.5458743242744 L260.1313580369715 103.78155666742867 L261.26458111707154 102.13580565587552 L262.39780419717164 100.61006709104527 L263.5310272772717 99.20513394845148 L264.66425035737177 97.92111547660556 L265.7974734374718 96.75741183557864 L266.9306965175719 95.71269477222842 L268.063919597672 94.78489477890042 L269.19714267777204 93.9711951237577 L270.33036575787213 93.26803307383074 L271.46358883797217 92.6711085568013 L272.59681191807226 92.17540042496933 L273.73003499817236 91.7751903955392 L274.8632580782724 91.46409464631267 L275.9964811583725 91.23510294608667 L277.1297042384725 91.0806250961997 L278.2629273185726 90.99254435493486 L279.3961503986727 90.96227741189716 L280.52937347877275 90.98084037667809 L281.66259655887285 91.03892014706997 L282.7958196389729 91.12695042887225 L283.929042719073 91.23519159373512 L285.062265799173 91.35381348558366 L286.1954888792731 91.4729802217297 L287.3287119593732 91.58293598353828 L288.46193503947325 91.67409075482357 L289.59515811957334 91.7371049455187 L290.72838119967344 91.76297183424089 L291.8616042797735 91.7430967772192 L292.99482735987357 91.66937216258532 L294.12805043997366 91.5342471386179 L295.2612735200737 91.33079121153571 L296.3944966001738 91.05275089219674 L297.5277196802739 90.69459867049989 L298.6609427603739 90.25157370984317 L299.794165840474 89.71971377990928 L300.9273889205741 89.09587808224626 L302.06061200067415 88.37776076711265 L303.19383508077425 87.56389508931443 L304.3270581608743 86.65364830248438 L305.4602812409744 85.647207542356 L306.5935043210744 84.54555709734115 L307.7267274011745 83.35044760570759 L308.8599504812746 82.06435785026775 L309.99317356137465 80.69044994056469 L311.12639664147474 79.23251877659061 L312.2596197215748 77.69493677443654 L313.3928428016749 76.08259490107855 L314.52606588177497 74.4008411106858 L315.659288961875 72.65541729730359 L316.7925120419751 70.85239587751948 L317.92573512207514 68.99811709143364 L319.05895820217523 67.09912806124117 L320.1921812822753 65.16212457460483 L321.32540436237537 63.19389646633357 L322.45862744247546 61.20127735841015 L323.5918505225755 59.191099387786494 L324.7250736026756 57.17015340646702 L325.8582966827757 55.14515498274926 L326.9915197628757 53.122716369810746 L328.1247428429758 51.10932444234146 L329.25796592307586 49.111324437802864 L330.39118900317595 47.13490918059125 L331.524412083276 45.18611331914843 L332.6576351633761 43.270811972105605 L333.7908582434762 41.39472306365326 L334.9240813235762 39.56341253397119 L336.0573044036763 37.7823015406168 L337.19052748377635 36.056674723475965 L338.32375056387644 34.39168859085294 L339.45697364397654 32.792379098146625 L340.5901967240766 31.263667533386638 L341.7234198041767 29.810363894632815 L342.8566428842767 28.437167041160365 L343.9898659643768 27.148661020957604 L345.12308904447684 25.9493071179063 L346.25631212457694 24.84343131925516 L347.38953520467703 23.835207073114134 L348.52275828477707 22.928633381740724 L349.65598136487716 22.12750845429207 L350.7892044449772 21.435399317117515 L351.9224275250773 20.855607945426243 L353.0556506051774 20.39113463234031 L354.18887368527743 20.04463944516391 L355.3220967653775 19.818402730335947 L356.45531984547756 19.714285714285722 L357.58854292557766 19.733692304757312 L358.72176600567775 19.877533224198885 L359.8549890857778 20.14619360246587 L360.9882121658779 20.53950512044719 L362.1214352459779 21.056723729884823 L363.254658326078 21.696513879542977 L364.38788140617805 22.456940056216638 L365.52110448627815 23.335466304267754 L366.65432756637824 24.328964223073967 L367.7875506464783 25.43372976233104 L368.9207737265784 26.64550894518112 L370.05399680667847 27.959532453452994 L371.1872198867785 29.370558812864033 L372.3204429668786 30.872925723607352 L373.4536660469787 32.46060889803459 L374.58688912707873 34.12728759638776 L375.7201122071788 35.86641589769624 L376.85333528727887 37.671298609331245 L377.98655836737896 39.53517060819763 L379.119781447479 41.45127832122017 L380.2530045275791 43.4129619942708 L381.3862276076792 45.413737367883186 L382.5194506877792 47.44737537507899 L383.6526737678793 49.50797850132619 L384.7858968479794 51.590052497798354 L385.91911992807945 53.68857221549888 L387.05234300817955 55.799040427390764 L388.18556608827964 57.917538626168096 L389.3187891683797 60.0407689241145 L390.4520122484798 62.166086335675345 L391.58523532857987 64.29152088980885 L392.7184584086799 66.41578919482572 L393.85168148877995 68.53829525975704 L394.98490456888004 70.6591205602349 L396.11812764898013 72.77900352004423 L397.2513507290802 74.89930875878684 L398.38457380918027 77.02198662843847 L399.51779688928036 79.14952372407424 L400.6510199693804 81.28488520401481 L401.7842430494805 83.43144988962251 L402.91746612958053 85.5929392327447 L404.0506892096806 87.77334133742232 L405.1839122897807 89.9768313003459 L406.31713536988076 92.20768919033247 L407.45035844998085 94.47021701991548 L408.5835815300809 96.76865607135989 L409.716804610181 99.10710592496815 L410.850027690281 101.48944649954694 L411.9832507703811 103.91926435412921 L413.1164738504812 106.3997844174475 L414.24969693058125 108.93380820881191 L415.38292001068135 111.52365949271388 L416.5161430907814 114.17113817201061 L417.6493661708814 116.87748307339376 L418.7825892509816 119.64334411697581 L419.9158123310816 122.46876419226646 L421.04903541118165 125.35317088889508 L422.1822584912818 128.29537805550723 L423.31548157138184 131.2935969877973 L424.4487046514819 134.3454568800198 L425.581927731582 137.44803401680218 L426.71515081168207 140.5978890367793 L427.8483738917821 143.79111146929273 L428.98159697188214 147.02337063260586 L430.1148200519823 150.28997188890895 L431.24804313208233 153.58591717941408 L432.38126621218237 156.90596871328177 L433.5144892922825 160.2447146575484 L434.64771237238256 163.5966356718445 L435.7809354524826 166.9561711510373 L436.91415853258263 170.31778408010422 L438.0473816126828 173.67602346722717 L439.1806046927828 177.02558340136545 L440.31382777288286 180.3613578773456 L441.447050852983 183.67849064217745 L442.58027393308305 186.9724194381955 L443.7134970131831 190.23891414871463 L444.84672009328324 193.47410848720153 L445.9799431733833 196.67452500839318 L447.1131662534833 199.83709335634896 L448.24638933358335 202.9591617971917 L449.3796124136835 206.0385022105745 L450.51283549378354 209.0733088312374 L451.6460585738836 212.06219113818224 L452.77928165398373 215.00416138216423 L453.91250473408377 217.8986173208638 L455.0457278141838 220.74532079412944 L456.17895089428384 223.5443728183263 L457.312173974384 226.29618590874915 L458.44539705448403 229.00145435223658 L459.57862013458407 231.66112314898712 L460.7118432146842 234.2763563237763 L461.84506629478426 236.84850527339248 L462.9782893748843 239.37907777040488 L464.11151245498434 241.86970818489024 L465.2447355350845 244.32212941725462 L466.3779586151845 246.73814695862058 L467.51118169528456 249.11961541250946 L468.6444047753847 251.46841772473388 L469.77762785548475 253.78644727973054 L470.9108509355848 256.0755929330681 L472.04407401568494 258.33772696362973 L473.177297095785 260.5746958469941 L474.310520175885 262.7883136756286 L475.4437432559851 264.98035798336764 L476.5769663360852 267.1525676727448 L477.71018941618524 269.3066426953572 L478.84341249628534 271.44424509853457 L479.97663557638543 273.5670010269161 L481.10985865648547 275.6765032555388 L482.24308173658557 277.77431383182187 L483.3763048166856 279.8619664172375 L484.5095278967857 281.94096794499035 L485.64275097688574 284.0127992468894 L486.77597405698583 286.0789143497286 L487.9091971370859 288.1407381975335 L489.04242021718596 290.199662619427 L490.17564329728606 292.25704043182816 L491.30886637738615 294.3141776362962 L492.4420894574862 296.3723237485393 L493.5753125375863 298.43266036781563 L494.7085356176863 300.4962881670714 L495.8417586977864 302.56421255065516 L496.9749817778865 304.63732828637797 L498.10820485798655 306.7164034703078 L499.24142793808664 308.80206322443917 L500.37465101818674 310.8947735580038 L501.5078740982868 312.9948258416981 L502.6410971783868 315.1023223498647 L503.77432025848697 317.2171633184041 L504.907543338587 319.3390359459849 L506.04076641868704 321.467405733431 L507.1739894987872 323.60151051179855 L508.30721257888723 325.74035745477426 L509.44043565898727 327.8827233070801 L510.5736587390874 330.0271579892704 L511.70688181918746 332.1719916626108 L512.8401048992876 334.31534525770263 L513.9733279793875 336.455144389362 L515.1065510594876 338.58913650020764 L516.2397741395878 340.7149109986243 L517.3729972196877 342.82992208536507 L518.5062202997879 344.9315138989459 L519.639443379888 347.01694755490803 L520.7726664599879 349.0834296094256 L521.9058895400881 351.1281414447618 L523.0391126201882 353.1482690535613 L524.1723357002882 355.1410326913526 L525.3055587803883 357.10371587202644 L526.4387818604885 359.0336931991752 L527.5720049405884 360.9284565564145 L528.7052280206885 362.78563922119656 L529.8384511007886 364.6030375179252 L530.9716741808886 366.37862968589195 L532.1048972609888 368.1105917039558 L533.2381203410888 369.79730988512847 L534.3713434211888 371.43739012833015 L535.504566501289 373.02966378956205 L536.637789581389 374.5731902086093 L537.7710126614891 376.06725599824006 L538.9042357415892 377.5113712689398 L540.0374588216893 378.9052630219033 L541.1706819017893 380.248865994933 L542.3039049818894 381.54231128893394 L543.4371280619895 382.7859131360022 L544.5703511420895 383.9801541931221 L545.7035742221897 385.12566975796426 L546.8367973022897 386.2232313052555 L547.9700203823897 387.27372973400907 L549.1032434624898 388.2781586981509 L550.2364665425899 389.23759836661657 L551.36968962269 390.15319992485973 L552.50291270279 391.02617108915194 L553.6361357828902 391.8577628594138 L554.7693588629902 392.6492576870584 L555.9025819430902 393.4019591829374 L557.0358050231904 394.1171834384555 L558.1690281032904 394.7962519817186 L559.3022511833905 395.4404863415698 L560.4354742634905 396.0512041468086 L561.5686973435907 396.6297166468916 L562.7019204236907 397.17732750490796 L563.8351435037907 397.69533268436476 L564.9683665838909 398.18502122883865 L566.1015896639909 398.64767671818134 L567.234812744091 399.08457917682586 L568.368035824191 399.4970072087318 L569.5012589042911 399.88624013935214 L570.6344819843912 400.25355995722475 L571.7677050644912 400.6002528657783 L572.9009281445914 400.9276102789154 L574.0341512246914 401.2369291210513 L575.1673743047915 401.52951132257385 L576.3005973848916 401.8066624341726 L577.4338204649916 402.06968931713493 L578.5670435450917 402.3198969005249 L579.7002666251917 402.5585840291754 L580.8334897052919 402.7870384577334 L581.9667127853919 403.0065310747795 L583.099935865492 403.2183094665836 L584.2331589455921 403.4235909517637 L585.3663820256921 403.6235552355183 L586.4996051057922 403.819336844885 L587.6328281858922 404.012017514449 L588.7660512659924 404.20261869504895 L589.8992743460924 404.3920943563899 L591.0324974261924 404.5813242482952 L592.1657205062926 404.7711077749444 L593.2989435863926 404.962158622283 L594.4321666664927 405.1551002613667 L595.5653897465927 405.35046243030024 L596.6986128266929 405.5486786752721 L597.8318359067929 405.7500850076212 L598.9650589868929 405.9549197095613 L600.0982820669931 406.16332429677084 L601.2315051470931 406.37534562215814 L602.3647282271932 406.590939082294 L603.4979513072933 406.8099728667857 L604.6311743873933 407.0322331716964 L605.7643974674934 407.2574302813562 L606.8976205475934 407.48520540885204 L608.0308436276936 407.7151381743346 L608.0308436276936 414.0 L606.8976205475934 414.0 L605.7643974674934 414.0 L604.6311743873933 414.0 L603.4979513072933 414.0 L602.3647282271932 414.0 L601.2315051470931 414.0 L600.0982820669931 414.0 L598.9650589868929 414.0 L597.8318359067929 414.0 L596.6986128266929 414.0 L595.5653897465927 414.0 L594.4321666664927 414.0 L593.2989435863926 414.0 L592.1657205062926 414.0 L591.0324974261924 414.0 L589.8992743460924 414.0 L588.7660512659924 414.0 L587.6328281858922 414.0 L586.4996051057922 414.0 L585.3663820256921 414.0 L584.2331589455921 414.0 L583.099935865492 414.0 L581.9667127853919 414.0 L580.8334897052919 414.0 L579.7002666251917 414.0 L578.5670435450917 414.0 L577.4338204649916 414.0 L576.3005973848916 414.0 L575.1673743047915 414.0 L574.0341512246914 414.0 L572.9009281445914 414.0 L571.7677050644912 414.0 L570.6344819843912 414.0 L569.5012589042911 414.0 L568.368035824191 414.0 L567.234812744091 414.0 L566.1015896639909 414.0 L564.9683665838909 414.0 L563.8351435037907 414.0 L562.7019204236907 414.0 L561.5686973435907 414.0 L560.4354742634905 414.0 L559.3022511833905 414.0 L558.1690281032904 414.0 L557.0358050231904 414.0 L555.9025819430902 414.0 L554.7693588629902 414.0 L553.6361357828902 414.0 L552.50291270279 414.0 L551.36968962269 414.0 L550.2364665425899 414.0 L549.1032434624898 414.0 L547.9700203823897 414.0 L546.8367973022897 414.0 L545.7035742221897 414.0 L544.5703511420895 414.0 L543.4371280619895 414.0 L542.3039049818894 414.0 L541.1706819017893 414.0 L540.0374588216893 414.0 L538.9042357415892 414.0 L537.7710126614891 414.0 L536.637789581389 414.0 L535.504566501289 414.0 L534.3713434211888 414.0 L533.2381203410888 414.0 L532.1048972609888 414.0 L530.9716741808886 414.0 L529.8384511007886 414.0 L528.7052280206885 414.0 L527.5720049405884 414.0 L526.4387818604885 414.0 L525.3055587803883 414.0 L524.1723357002882 414.0 L523.0391126201882 414.0 L521.9058895400881 414.0 L520.7726664599879 414.0 L519.639443379888 414.0 L518.5062202997879 414.0 L517.3729972196877 414.0 L516.2397741395878 414.0 L515.1065510594876 414.0 L513.9733279793875 414.0 L512.8401048992876 414.0 L511.70688181918746 414.0 L510.5736587390874 414.0 L509.44043565898727 414.0 L508.30721257888723 414.0 L507.1739894987872 414.0 L506.04076641868704 414.0 L504.907543338587 414.0 L503.77432025848697 414.0 L502.6410971783868 414.0 L501.5078740982868 414.0 L500.37465101818674 414.0 L499.24142793808664 414.0 L498.10820485798655 414.0 L496.9749817778865 414.0 L495.8417586977864 414.0 L494.7085356176863 414.0 L493.5753125375863 414.0 L492.4420894574862 414.0 L491.30886637738615 414.0 L490.17564329728606 414.0 L489.04242021718596 414.0 L487.9091971370859 414.0 L486.77597405698583 414.0 L485.64275097688574 414.0 L484.5095278967857 414.0 L483.3763048166856 414.0 L482.24308173658557 414.0 L481.10985865648547 414.0 L479.97663557638543 414.0 L478.84341249628534 414.0 L477.71018941618524 414.0 L476.5769663360852 414.0 L475.4437432559851 414.0 L474.310520175885 414.0 L473.177297095785 414.0 L472.04407401568494 414.0 L470.9108509355848 414.0 L469.77762785548475 414.0 L468.6444047753847 414.0 L467.51118169528456 414.0 L466.3779586151845 414.0 L465.2447355350845 414.0 L464.11151245498434 414.0 L462.9782893748843 414.0 L461.84506629478426 414.0 L460.7118432146842 414.0 L459.57862013458407 414.0 L458.44539705448403 414.0 L457.312173974384 414.0 L456.17895089428384 414.0 L455.0457278141838 414.0 L453.91250473408377 414.0 L452.77928165398373 414.0 L451.6460585738836 414.0 L450.51283549378354 414.0 L449.3796124136835 414.0 L448.24638933358335 414.0 L447.1131662534833 414.0 L445.9799431733833 414.0 L444.84672009328324 414.0 L443.7134970131831 414.0 L442.58027393308305 414.0 L441.447050852983 414.0 L440.31382777288286 414.0 L439.1806046927828 414.0 L438.0473816126828 414.0 L436.91415853258263 414.0 L435.7809354524826 414.0 L434.64771237238256 414.0 L433.5144892922825 414.0 L432.38126621218237 414.0 L431.24804313208233 414.0 L430.1148200519823 414.0 L428.98159697188214 414.0 L427.8483738917821 414.0 L426.71515081168207 414.0 L425.581927731582 414.0 L424.4487046514819 414.0 L423.31548157138184 414.0 L422.1822584912818 414.0 L421.04903541118165 414.0 L419.9158123310816 414.0 L418.7825892509816 414.0 L417.6493661708814 414.0 L416.5161430907814 414.0 L415.38292001068135 414.0 L414.24969693058125 414.0 L413.1164738504812 414.0 L411.9832507703811 414.0 L410.850027690281 414.0 L409.716804610181 414.0 L408.5835815300809 414.0 L407.45035844998085 414.0 L406.31713536988076 414.0 L405.1839122897807 414.0 L404.0506892096806 414.0 L402.91746612958053 414.0 L401.7842430494805 414.0 L400.6510199693804 414.0 L399.51779688928036 414.0 L398.38457380918027 414.0 L397.2513507290802 414.0 L396.11812764898013 414.0 L394.98490456888004 414.0 L393.85168148877995 414.0 L392.7184584086799 414.0 L391.58523532857987 414.0 L390.4520122484798 414.0 L389.3187891683797 414.0 L388.18556608827964 414.0 L387.05234300817955 414.0 L385.91911992807945 414.0 L384.7858968479794 414.0 L383.6526737678793 414.0 L382.5194506877792 414.0 L381.3862276076792 414.0 L380.2530045275791 414.0 L379.119781447479 414.0 L377.98655836737896 414.0 L376.85333528727887 414.0 L375.7201122071788 414.0 L374.58688912707873 414.0 L373.4536660469787 414.0 L372.3204429668786 414.0 L371.1872198867785 414.0 L370.05399680667847 414.0 L368.9207737265784 414.0 L367.7875506464783 414.0 L366.65432756637824 414.0 L365.52110448627815 414.0 L364.38788140617805 414.0 L363.254658326078 414.0 L362.1214352459779 414.0 L360.9882121658779 414.0 L359.8549890857778 414.0 L358.72176600567775 414.0 L357.58854292557766 414.0 L356.45531984547756 414.0 L355.3220967653775 414.0 L354.18887368527743 414.0 L353.0556506051774 414.0 L351.9224275250773 414.0 L350.7892044449772 414.0 L349.65598136487716 414.0 L348.52275828477707 414.0 L347.38953520467703 414.0 L346.25631212457694 414.0 L345.12308904447684 414.0 L343.9898659643768 414.0 L342.8566428842767 414.0 L341.7234198041767 414.0 L340.5901967240766 414.0 L339.45697364397654 414.0 L338.32375056387644 414.0 L337.19052748377635 414.0 L336.0573044036763 414.0 L334.9240813235762 414.0 L333.7908582434762 414.0 L332.6576351633761 414.0 L331.524412083276 414.0 L330.39118900317595 414.0 L329.25796592307586 414.0 L328.1247428429758 414.0 L326.9915197628757 414.0 L325.8582966827757 414.0 L324.7250736026756 414.0 L323.5918505225755 414.0 L322.45862744247546 414.0 L321.32540436237537 414.0 L320.1921812822753 414.0 L319.05895820217523 414.0 L317.92573512207514 414.0 L316.7925120419751 414.0 L315.659288961875 414.0 L314.52606588177497 414.0 L313.3928428016749 414.0 L312.2596197215748 414.0 L311.12639664147474 414.0 L309.99317356137465 414.0 L308.8599504812746 414.0 L307.7267274011745 414.0 L306.5935043210744 414.0 L305.4602812409744 414.0 L304.3270581608743 414.0 L303.19383508077425 414.0 L302.06061200067415 414.0 L300.9273889205741 414.0 L299.794165840474 414.0 L298.6609427603739 414.0 L297.5277196802739 414.0 L296.3944966001738 414.0 L295.2612735200737 414.0 L294.12805043997366 414.0 L292.99482735987357 414.0 L291.8616042797735 414.0 L290.72838119967344 414.0 L289.59515811957334 414.0 L288.46193503947325 414.0 L287.3287119593732 414.0 L286.1954888792731 414.0 L285.062265799173 414.0 L283.929042719073 414.0 L282.7958196389729 414.0 L281.66259655887285 414.0 L280.52937347877275 414.0 L279.3961503986727 414.0 L278.2629273185726 414.0 L277.1297042384725 414.0 L275.9964811583725 414.0 L274.8632580782724 414.0 L273.73003499817236 414.0 L272.59681191807226 414.0 L271.46358883797217 414.0 L270.33036575787213 414.0 L269.19714267777204 414.0 L268.063919597672 414.0 L266.9306965175719 414.0 L265.7974734374718 414.0 L264.66425035737177 414.0 L263.5310272772717 414.0 L262.39780419717164 414.0 L261.26458111707154 414.0 L260.1313580369715 414.0 L258.9981349568714 414.0 L257.8649118767713 414.0 L256.7316887966713 414.0 L255.59846571657118 414.0 L254.46524263647115 414.0 L253.33201955637105 414.0 L252.19879647627096 414.0 L251.06557339617092 414.0 L249.93235031607082 414.0 L248.7991272359708 414.0 L247.6659041558707 414.0 L246.5326810757706 414.0 L245.39945799567056 414.0 L244.26623491557046 414.0 L243.13301183547043 414.0 L241.99978875537033 414.0 L240.8665656752703 414.0 L239.7333425951702 414.0 L238.6001195150701 414.0 L237.46689643497007 414.0 L236.33367335486997 414.0 L235.20045027476993 414.0 L234.06722719466984 414.0 L232.93400411456975 414.0 L231.8007810344697 414.0 L230.6675579543696 414.0 L229.53433487426958 414.0 L228.40111179416948 414.0 L227.26788871406941 414.0 L226.13466563396935 414.0 L225.00144255386925 414.0 L223.8682194737692 414.0 L222.73499639366912 414.0 L221.60177331356903 414.0 L220.468550233469 414.0 L219.3353271533689 414.0 L218.20210407326883 414.0 L217.06888099316876 414.0 L215.93565791306867 414.0 L214.8024348329686 414.0 L213.66921175286853 414.0 L212.53598867276847 414.0 L211.4027655926684 414.0 L210.26954251256834 414.0 L209.13631943246824 414.0 L208.00309635236817 414.0 L206.8698732722681 414.0 L205.73665019216804 414.0 L204.60342711206798 414.0 L203.47020403196788 414.0 L202.33698095186782 414.0 L201.20375787176775 414.0 L200.07053479166768 414.0 L198.93731171156762 414.0 L197.80408863146755 414.0 L196.67086555136746 414.0 L195.5376424712674 414.0 L194.40441939116732 414.0 L193.27119631106726 414.0 L192.1379732309672 414.0 L191.0047501508671 414.0 L189.87152707076703 414.0 L188.73830399066696 414.0 L187.6050809105669 414.0 L186.4718578304668 414.0 L185.33863475036674 414.0 L184.20541167026667 414.0 L183.0721885901666 414.0 L181.9389655100665 414.0 L180.80574242996644 414.0 L179.67251934986638 414.0 L178.5392962697663 414.0 L177.40607318966624 414.0 L176.27285010956615 414.0 L175.13962702946608 414.0 L174.00640394936602 414.0 L172.87318086926595 414.0 L171.73995778916589 414.0 L170.6067347090658 414.0 L169.47351162896572 414.0 L168.34028854886566 414.0 L167.2070654687656 414.0 L166.07384238866553 414.0 L164.94061930856546 414.0 L163.80739622846536 414.0 L162.6741731483653 414.0 L161.54095006826523 414.0 L160.40772698816517 414.0 L159.2745039080651 414.0 L158.14128082796503 414.0 L157.00805774786494 414.0 L155.87483466776487 414.0 L154.7416115876648 414.0 L153.60838850756474 414.0 L152.47516542746467 414.0 L151.3419423473646 414.0 L150.2087192672645 414.0 L149.07549618716445 414.0 L147.94227310706438 414.0 L146.80905002696431 414.0 L145.67582694686422 414.0 L144.54260386676415 414.0 L143.4093807866641 414.0 L142.27615770656402 414.0 L141.14293462646393 414.0 L140.00971154636386 414.0 L138.8764884662638 414.0 L137.7432653861637 414.0 L136.61004230606363 414.0 L135.47681922596357 414.0 L134.3435961458635 414.0 L133.21037306576343 414.0 L132.0771499856634 414.0 L130.94392690556327 414.0 L129.8107038254632 414.0 L128.67748074536317 414.0 L127.54425766526307 414.0 L126.41103458516298 414.0 L125.27781150506294 414.0 L124.14458842496285 414.0 L123.01136534486281 414.0 L121.87814226476272 414.0 L120.74491918466268 414.0 L119.61169610456258 414.0 L118.47847302446249 414.0 L117.34524994436245 414.0 L116.21202686426236 414.0 L115.07880378416226 414.0 L113.94558070406222 414.0 L112.81235762396213 414.0 L111.67913454386209 414.0 L110.545911463762 414.0 L109.41268838366196 414.0 L108.27946530356186 414.0 L107.14624222346177 414.0 L106.01301914336173 414.0 L104.87979606326164 414.0 L103.74657298316157 414.0 L102.6133499030615 414.0 L101.48012682296144 414.0 L100.34690374286134 414.0 L99.21368066276128 414.0 L98.08045758266121 414.0 L96.94723450256112 414.0 L95.81401142246105 414.0 L94.68078834236098 414.0 L93.54756526226095 414.0 L92.41434218216085 414.0 L91.28111910206076 414.0 L90.14789602196072 414.0 L89.01467294186062 414.0 L87.88144986176053 414.0 L86.74822678166049 414.0 L85.6150037015604 414.0 L84.48178062146036 414.0 L83.34855754136026 414.0 L82.21533446126023 414.0 L81.08211138116013 414.0 L79.94888830106004 414.0 L78.81566522096 414.0 L77.6824421408599 414.0 L76.54921906075987 414.0 L75.41599598065977 414.0 L74.28277290055973 414.0 L73.14954982045964 414.0 L72.01632674035955 414.0 L70.88310366025951 414.0 L69.74988058015941 414.0 L68.61665750005932 414.0 L67.48343441995928 414.0 L66.35021133985919 414.0 L65.21698825975915 414.0 L64.08376517965905 414.0 L62.950542099559016 414.0 L61.81731901945892 414.0 L60.684095939358826 414.0 L59.55087285925879 414.0 L58.417649779158694 414.0 L57.284426699058656 414.0 L56.15120361895856 414.0 L55.017980538858524 414.0 L53.88475745875843 414.0 L52.751534378658334 414.0 L51.6183112985583 414.0 L50.4850882184582 414.0 L49.351865138358164 414.0 L48.21864205825807 414.0 L47.085418978157975 414.0 L45.95219589805794 414.0 L44.81897281795784 414.0 L43.685749737857805 414.0 L42.55252665775771 414.0 L41.419303577657615 414.0 L40.28608049755758 414.0 L39.15285741745748 414.0 L38.01963433735739 414.0 L36.88641125725735 414.0 L35.753188177157256 414.0 L34.61996509705716 414.0 L33.48674201695712 414.0 L32.35351893685703 414.0 L31.220295856756934 414.0 L30.087072776656896 414.0 L28.9538496965568 414.0 Z" fill="rgb(71,71,71)" stroke-width="1.0" fill-opacity="0.10196078431372549">
          </path>
        </g>
        <g>
          <path d="M28.9538496965568 409.2071160445731 L28.9538496965568 409.2071160445731 L30.087072776656896 409.0027843415819 L31.220295856756934 408.7954007953581 L32.35351893685703 408.5850764229629 L33.48674201695712 408.3719134602401 L34.61996509705716 408.1560051896843 L35.753188177157256 407.9374359935443 L36.88641125725735 407.71628161648624 L38.01963433735739 407.49260961392554 L39.15285741745748 407.2664799539357 L40.28608049755758 407.0379457326985 L41.419303577657615 406.80705395601814 L42.55252665775771 406.5738463327533 L43.685749737857805 406.338360020394 L44.81897281795784 406.1006282586944 L45.95219589805794 405.8606808245289 L47.085418978157975 405.61854424020737 L48.21864205825807 405.37424166856954 L49.351865138358164 405.12779243144934 L50.4850882184582 404.87921109367335 L51.6183112985583 404.62850606268324 L52.751534378658334 404.37567766414145 L53.88475745875843 404.12071566639696 L55.017980538858524 403.86359624128914 L56.15120361895856 403.60427836519443 L57.284426699058656 403.3426996821458 L58.417649779158694 403.0787718698678 L59.55087285925879 402.8123755691902 L60.684095939358826 402.5433549569996 L61.81731901945892 402.2715120620777 L62.950542099559016 401.99660094124397 L64.08376517965905 401.7183218495638 L65.21698825975915 401.4363155523735 L66.35021133985919 401.15015793795624 L67.48343441995928 400.859355097337 L68.61665750005932 400.5633390414148 L69.74988058015941 400.26146422515365 L70.88310366025951 399.9530050435695 L72.01632674035955 399.6371544546507 L73.14954982045964 399.3130238701594 L74.28277290055973 398.9796444366106 L75.41599598065977 398.63596980593263 L76.54921906075987 398.2808804687744 L77.6824421408599 397.9131896937192 L78.81566522096 397.5316510834396 L79.94888830106004 397.1349677248501 L81.08211138116013 396.7218028754134 L82.21533446126023 396.29079209280894 L83.34855754136026 395.8405566810789 L84.48178062146036 395.36971829401534 L85.6150037015604 394.87691450679864 L86.74822678166049 394.36081514052916 L87.88144986176053 393.82013910201704 L89.01467294186062 393.25367148359624 L90.14789602196072 392.6602806552792 L91.28111910206076 392.0389350745769 L92.41434218216085 391.38871953796075 L93.54756526226095 390.70885060224003 L94.68078834236098 389.9986909139465 L95.81401142246105 389.2577621998651 L96.94723450256112 388.4857566917242 L98.08045758266121 387.682546782214 L99.21368066276128 386.8481927373236 L100.34690374286134 385.98294832076135 L101.48012682296144 385.0872642191989 L102.6133499030615 384.16178919147524 L103.74657298316157 383.20736889992855 L104.87979606326164 382.2250424169349 L106.01301914336173 381.21603643379666 L107.14624222346177 380.18175723169867 L108.27946530356186 379.12378050495 L109.41268838366196 378.043839154667 L110.545911463762 376.94380919604805 L111.67913454386209 375.8256939441465 L112.81235762396213 374.69160666138 L113.94558070406222 373.5437518648416 L115.07880378416226 372.38440550279626 L116.21202686426236 371.21589421763804 L117.34524994436245 370.04057391722006 L118.47847302446249 368.86080787803843 L119.61169610456258 367.6789446025305 L120.74491918466268 366.4972956490145 L121.87814226476272 365.3181136468467 L123.01136534486281 364.1435707015304 L124.14458842496285 362.9757373850563 L125.27781150506294 361.8165624959971 L126.41103458516298 360.66785376206815 L127.54425766526307 359.531259645249 L128.67748074536317 358.40825239635586 L129.8107038254632 357.3001124923334 L130.94392690556327 356.2079145756545 L132.0771499856634 355.13251500121703 L133.21037306576343 354.0745410820948 L134.3435961458635 353.0343821115266 L135.47681922596357 352.01218222468754 L136.61004230606363 351.0078351501171 L137.7432653861637 350.02098088722755 L138.8764884662638 349.0510043331276 L140.00971154636386 348.09703586906437 L141.14293462646393 347.15795390416497 L142.27615770656402 346.23238936182685 L143.4093807866641 345.3187320820828 L144.54260386676415 344.4151391015398 L145.67582694686422 343.51954476104174 L146.80905002696431 342.6296725800184 L147.94227310706438 341.7430488255118 L149.07549618716445 340.8570176930815 L150.2087192672645 339.96875800613117 L151.3419423473646 339.07530132961796 L152.47516542746467 338.1735513835615 L153.60838850756474 337.2603046312195 L154.7416115876648 336.3322719062006 L155.87483466776487 335.38610093218045 L157.00805774786494 334.4183995782448 L158.14128082796503 333.4257596823162 L159.2745039080651 332.40478126470106 L160.40772698816517 331.3520969436882 L161.54095006826523 330.26439635552657 L162.6741731483653 329.1384503722743 L163.80739622846536 327.9711349032216 L164.94061930856546 326.759454059194 L166.07384238866553 325.5005624544044 L167.2070654687656 324.19178641803313 L168.34028854886566 322.8306438877669 L169.47351162896572 321.41486276050796 L170.6067347090658 319.9423974817281 L171.73995778916589 318.41144366479136 L172.87318086926595 316.8204505452599 L174.00640394936602 315.168131092877 L175.13962702946608 313.4534696256492 L176.27285010956615 311.6757267961765 L177.40607318966624 309.8344418499405 L178.5392962697663 307.92943208833157 L179.67251934986638 305.9607895053839 L180.80574242996644 303.92887460591555 L181.9389655100665 301.83430745341593 L183.0721885901666 299.6779560378016 L184.20541167026667 297.4609220952855 L185.33863475036674 295.18452455415894 L186.4718578304668 292.8502808204028 L187.6050809105669 290.4598861547987 L188.73830399066696 288.0151914277355 L189.87152707076703 285.5181795683877 L191.0047501508671 282.97094105066094 L192.1379732309672 280.37564877857324 L193.27119631106726 277.73453274814034 L194.40441939116732 275.0498548709245 L195.5376424712674 272.3238843459858 L196.67086555136746 269.5588739619841 L197.80408863146755 266.7570376996773 L198.93731171156762 263.9205299872598 L200.07053479166768 261.05142693725065 L201.20375787176775 258.1517098644165 L202.33698095186782 255.2232513500861 L203.47020403196788 252.26780407979595 L204.60342711206798 249.2869926392306 L205.73665019216804 246.28230840859285 L206.8698732722681 243.2551076486615 L208.00309635236817 240.2066128235549 L209.13631943246824 237.13791715646767 L210.26954251256834 234.04999236595057 L211.4027655926684 230.9436994825273 L212.53598867276847 227.81980259901627 L213.66921175286853 224.6789853636034 L214.8024348329686 221.52186998292947 L215.93565791306867 218.34903846370247 L217.06888099316876 215.16105578610225 L218.20210407326883 211.95849467082064 L219.3353271533689 208.7419615743672 L220.468550233469 205.51212352454044 L221.60177331356903 202.26973538993926 L222.73499639366912 199.01566716431483 L223.8682194737692 195.75093083860042 L225.00144255386925 192.47670643063427 L226.13466563396935 189.19436674514895 L227.26788871406941 185.9055004443409 L228.40111179416948 182.61193302241986 L229.53433487426958 179.31574529572438 L230.6675579543696 176.01928904319308 L231.8007810344697 172.7251994599778 L232.93400411456975 169.43640411945492 L234.06722719466984 166.1561281755459 L235.20045027476993 162.8878955776758 L236.33367335486997 159.6355261144079 L237.46689643497007 156.4031281483919 L238.6001195150701 153.19508695413708 L239.7333425951702 150.01604862080234 L240.8665656752703 146.87089953410816 L241.99978875537033 143.764741504053 L243.13301183547043 140.7028626578891 L244.26623491557046 137.6907042701364 L245.39945799567056 134.73382375293846 L246.5326810757706 131.83785408018684 L247.6659041558707 129.00845996721864 L248.7991272359708 126.25129117404572 L249.93235031607082 123.57193334367065 L251.06557339617092 120.97585682765856 L252.19879647627096 118.4683639884887 L253.33201955637105 116.05453550181676 L254.46524263647115 113.73917621149735 L255.59846571657118 111.52676111538807 L256.7316887966713 109.4213820804834 L257.8649118767713 107.42669590119618 L258.9981349568714 105.5458743242744 L260.1313580369715 103.78155666742867 L261.26458111707154 102.13580565587552 L262.39780419717164 100.61006709104527 L263.5310272772717 99.20513394845148 L264.66425035737177 97.92111547660556 L265.7974734374718 96.75741183557864 L266.9306965175719 95.71269477222842 L268.063919597672 94.78489477890042 L269.19714267777204 93.9711951237577 L270.33036575787213 93.26803307383074 L271.46358883797217 92.6711085568013 L272.59681191807226 92.17540042496933 L273.73003499817236 91.7751903955392 L274.8632580782724 91.46409464631267 L275.9964811583725 91.23510294608667 L277.1297042384725 91.0806250961997 L278.2629273185726 90.99254435493486 L279.3961503986727 90.96227741189716 L280.52937347877275 90.98084037667809 L281.66259655887285 91.03892014706997 L282.7958196389729 91.12695042887225 L283.929042719073 91.23519159373512 L285.062265799173 91.35381348558366 L286.1954888792731 91.4729802217297 L287.3287119593732 91.58293598353828 L288.46193503947325 91.67409075482357 L289.59515811957334 91.7371049455187 L290.72838119967344 91.76297183424089 L291.8616042797735 91.7430967772192 L292.99482735987357 91.66937216258532 L294.12805043997366 91.5342471386179 L295.2612735200737 91.33079121153571 L296.3944966001738 91.05275089219674 L297.5277196802739 90.69459867049989 L298.6609427603739 90.25157370984317 L299.794165840474 89.71971377990928 L300.9273889205741 89.09587808224626 L302.06061200067415 88.37776076711265 L303.19383508077425 87.56389508931443 L304.3270581608743 86.65364830248438 L305.4602812409744 85.647207542356 L306.5935043210744 84.54555709734115 L307.7267274011745 83.35044760570759 L308.8599504812746 82.06435785026775 L309.99317356137465 80.69044994056469 L311.12639664147474 79.23251877659061 L312.2596197215748 77.69493677443654 L313.3928428016749 76.08259490107855 L314.52606588177497 74.4008411106858 L315.659288961875 72.65541729730359 L316.7925120419751 70.85239587751948 L317.92573512207514 68.99811709143364 L319.05895820217523 67.09912806124117 L320.1921812822753 65.16212457460483 L321.32540436237537 63.19389646633357 L322.45862744247546 61.20127735841015 L323.5918505225755 59.191099387786494 L324.7250736026756 57.17015340646702 L325.8582966827757 55.14515498274926 L326.9915197628757 53.122716369810746 L328.1247428429758 51.10932444234146 L329.25796592307586 49.111324437802864 L330.39118900317595 47.13490918059125 L331.524412083276 45.18611331914843 L332.6576351633761 43.270811972105605 L333.7908582434762 41.39472306365326 L334.9240813235762 39.56341253397119 L336.0573044036763 37.7823015406168 L337.19052748377635 36.056674723475965 L338.32375056387644 34.39168859085294 L339.45697364397654 32.792379098146625 L340.5901967240766 31.263667533386638 L341.7234198041767 29.810363894632815 L342.8566428842767 28.437167041160365 L343.9898659643768 27.148661020957604 L345.12308904447684 25.9493071179063 L346.25631212457694 24.84343131925516 L347.38953520467703 23.835207073114134 L348.52275828477707 22.928633381740724 L349.65598136487716 22.12750845429207 L350.7892044449772 21.435399317117515 L351.9224275250773 20.855607945426243 L353.0556506051774 20.39113463234031 L354.18887368527743 20.04463944516391 L355.3220967653775 19.818402730335947 L356.45531984547756 19.714285714285722 L357.58854292557766 19.733692304757312 L358.72176600567775 19.877533224198885 L359.8549890857778 20.14619360246587 L360.9882121658779 20.53950512044719 L362.1214352459779 21.056723729884823 L363.254658326078 21.696513879542977 L364.38788140617805 22.456940056216638 L365.52110448627815 23.335466304267754 L366.65432756637824 24.328964223073967 L367.7875506464783 25.43372976233104 L368.9207737265784 26.64550894518112 L370.05399680667847 27.959532453452994 L371.1872198867785 29.370558812864033 L372.3204429668786 30.872925723607352 L373.4536660469787 32.46060889803459 L374.58688912707873 34.12728759638776 L375.7201122071788 35.86641589769624 L376.85333528727887 37.671298609331245 L377.98655836737896 39.53517060819763 L379.119781447479 41.45127832122017 L380.2530045275791 43.4129619942708 L381.3862276076792 45.413737367883186 L382.5194506877792 47.44737537507899 L383.6526737678793 49.50797850132619 L384.7858968479794 51.590052497798354 L385.91911992807945 53.68857221549888 L387.05234300817955 55.799040427390764 L388.18556608827964 57.917538626168096 L389.3187891683797 60.0407689241145 L390.4520122484798 62.166086335675345 L391.58523532857987 64.29152088980885 L392.7184584086799 66.41578919482572 L393.85168148877995 68.53829525975704 L394.98490456888004 70.6591205602349 L396.11812764898013 72.77900352004423 L397.2513507290802 74.89930875878684 L398.38457380918027 77.02198662843847 L399.51779688928036 79.14952372407424 L400.6510199693804 81.28488520401481 L401.7842430494805 83.43144988962251 L402.91746612958053 85.5929392327447 L404.0506892096806 87.77334133742232 L405.1839122897807 89.9768313003459 L406.31713536988076 92.20768919033247 L407.45035844998085 94.47021701991548 L408.5835815300809 96.76865607135989 L409.716804610181 99.10710592496815 L410.850027690281 101.48944649954694 L411.9832507703811 103.91926435412921 L413.1164738504812 106.3997844174475 L414.24969693058125 108.93380820881191 L415.38292001068135 111.52365949271388 L416.5161430907814 114.17113817201061 L417.6493661708814 116.87748307339376 L418.7825892509816 119.64334411697581 L419.9158123310816 122.46876419226646 L421.04903541118165 125.35317088889508 L422.1822584912818 128.29537805550723 L423.31548157138184 131.2935969877973 L424.4487046514819 134.3454568800198 L425.581927731582 137.44803401680218 L426.71515081168207 140.5978890367793 L427.8483738917821 143.79111146929273 L428.98159697188214 147.02337063260586 L430.1148200519823 150.28997188890895 L431.24804313208233 153.58591717941408 L432.38126621218237 156.90596871328177 L433.5144892922825 160.2447146575484 L434.64771237238256 163.5966356718445 L435.7809354524826 166.9561711510373 L436.91415853258263 170.31778408010422 L438.0473816126828 173.67602346722717 L439.1806046927828 177.02558340136545 L440.31382777288286 180.3613578773456 L441.447050852983 183.67849064217745 L442.58027393308305 186.9724194381955 L443.7134970131831 190.23891414871463 L444.84672009328324 193.47410848720153 L445.9799431733833 196.67452500839318 L447.1131662534833 199.83709335634896 L448.24638933358335 202.9591617971917 L449.3796124136835 206.0385022105745 L450.51283549378354 209.0733088312374 L451.6460585738836 212.06219113818224 L452.77928165398373 215.00416138216423 L453.91250473408377 217.8986173208638 L455.0457278141838 220.74532079412944 L456.17895089428384 223.5443728183263 L457.312173974384 226.29618590874915 L458.44539705448403 229.00145435223658 L459.57862013458407 231.66112314898712 L460.7118432146842 234.2763563237763 L461.84506629478426 236.84850527339248 L462.9782893748843 239.37907777040488 L464.11151245498434 241.86970818489024 L465.2447355350845 244.32212941725462 L466.3779586151845 246.73814695862058 L467.51118169528456 249.11961541250946 L468.6444047753847 251.46841772473388 L469.77762785548475 253.78644727973054 L470.9108509355848 256.0755929330681 L472.04407401568494 258.33772696362973 L473.177297095785 260.5746958469941 L474.310520175885 262.7883136756286 L475.4437432559851 264.98035798336764 L476.5769663360852 267.1525676727448 L477.71018941618524 269.3066426953572 L478.84341249628534 271.44424509853457 L479.97663557638543 273.5670010269161 L481.10985865648547 275.6765032555388 L482.24308173658557 277.77431383182187 L483.3763048166856 279.8619664172375 L484.5095278967857 281.94096794499035 L485.64275097688574 284.0127992468894 L486.77597405698583 286.0789143497286 L487.9091971370859 288.1407381975335 L489.04242021718596 290.199662619427 L490.17564329728606 292.25704043182816 L491.30886637738615 294.3141776362962 L492.4420894574862 296.3723237485393 L493.5753125375863 298.43266036781563 L494.7085356176863 300.4962881670714 L495.8417586977864 302.56421255065516 L496.9749817778865 304.63732828637797 L498.10820485798655 306.7164034703078 L499.24142793808664 308.80206322443917 L500.37465101818674 310.8947735580038 L501.5078740982868 312.9948258416981 L502.6410971783868 315.1023223498647 L503.77432025848697 317.2171633184041 L504.907543338587 319.3390359459849 L506.04076641868704 321.467405733431 L507.1739894987872 323.60151051179855 L508.30721257888723 325.74035745477426 L509.44043565898727 327.8827233070801 L510.5736587390874 330.0271579892704 L511.70688181918746 332.1719916626108 L512.8401048992876 334.31534525770263 L513.9733279793875 336.455144389362 L515.1065510594876 338.58913650020764 L516.2397741395878 340.7149109986243 L517.3729972196877 342.82992208536507 L518.5062202997879 344.9315138989459 L519.639443379888 347.01694755490803 L520.7726664599879 349.0834296094256 L521.9058895400881 351.1281414447618 L523.0391126201882 353.1482690535613 L524.1723357002882 355.1410326913526 L525.3055587803883 357.10371587202644 L526.4387818604885 359.0336931991752 L527.5720049405884 360.9284565564145 L528.7052280206885 362.78563922119656 L529.8384511007886 364.6030375179252 L530.9716741808886 366.37862968589195 L532.1048972609888 368.1105917039558 L533.2381203410888 369.79730988512847 L534.3713434211888 371.43739012833015 L535.504566501289 373.02966378956205 L536.637789581389 374.5731902086093 L537.7710126614891 376.06725599824006 L538.9042357415892 377.5113712689398 L540.0374588216893 378.9052630219033 L541.1706819017893 380.248865994933 L542.3039049818894 381.54231128893394 L543.4371280619895 382.7859131360022 L544.5703511420895 383.9801541931221 L545.7035742221897 385.12566975796426 L546.8367973022897 386.2232313052555 L547.9700203823897 387.27372973400907 L549.1032434624898 388.2781586981509 L550.2364665425899 389.23759836661657 L551.36968962269 390.15319992485973 L552.50291270279 391.02617108915194 L553.6361357828902 391.8577628594138 L554.7693588629902 392.6492576870584 L555.9025819430902 393.4019591829374 L557.0358050231904 394.1171834384555 L558.1690281032904 394.7962519817186 L559.3022511833905 395.4404863415698 L560.4354742634905 396.0512041468086 L561.5686973435907 396.6297166468916 L562.7019204236907 397.17732750490796 L563.8351435037907 397.69533268436476 L564.9683665838909 398.18502122883865 L566.1015896639909 398.64767671818134 L567.234812744091 399.08457917682586 L568.368035824191 399.4970072087318 L569.5012589042911 399.88624013935214 L570.6344819843912 400.25355995722475 L571.7677050644912 400.6002528657783 L572.9009281445914 400.9276102789154 L574.0341512246914 401.2369291210513 L575.1673743047915 401.52951132257385 L576.3005973848916 401.8066624341726 L577.4338204649916 402.06968931713493 L578.5670435450917 402.3198969005249 L579.7002666251917 402.5585840291754 L580.8334897052919 402.7870384577334 L581.9667127853919 403.0065310747795 L583.099935865492 403.2183094665836 L584.2331589455921 403.4235909517637 L585.3663820256921 403.6235552355183 L586.4996051057922 403.819336844885 L587.6328281858922 404.012017514449 L588.7660512659924 404.20261869504895 L589.8992743460924 404.3920943563899 L591.0324974261924 404.5813242482952 L592.1657205062926 404.7711077749444 L593.2989435863926 404.962158622283 L594.4321666664927 405.1551002613667 L595.5653897465927 405.35046243030024 L596.6986128266929 405.5486786752721 L597.8318359067929 405.7500850076212 L598.9650589868929 405.9549197095613 L600.0982820669931 406.16332429677084 L601.2315051470931 406.37534562215814 L602.3647282271932 406.590939082294 L603.4979513072933 406.8099728667857 L604.6311743873933 407.0322331716964 L605.7643974674934 407.2574302813562 L606.8976205475934 407.48520540885204 L608.0308436276936 407.7151381743346 " fill="none" stroke-width="1.6500000000000001" stroke="rgb(71,71,71)" stroke-opacity="1.0">
          </path>
        </g>
      </g>
    </g>
    <g transform="translate(14.5 217.0 ) rotate(-90.0 ) ">
      <text class="axis-title-y" y="0.0" text-anchor="middle">
      density
      </text>
    </g>
    <g transform="translate(376.50765333787484 461.5 ) ">
      <text class="axis-title-x" y="0.0" text-anchor="middle">
      x
      </text>
    </g>
    <path fill="rgb(0,0,0)" fill-opacity="0.0" stroke="rgb(71,71,71)" stroke-opacity="1.0" stroke-width="0.0" d="M0.0 0.0 L0.0 470.0 L705.0 470.0 L705.0 0.0 Z">
    </path>
  </g>
  <g id="xXxprefixXx2">
  </g>
</svg>