<svg xmlns="http://www.w3.org/2000/svg" xmlns:xlink="http://www.w3.org/1999/xlink" class="plt-container" width="705.0" height="470.0">
  <style type="text/css">
  .plt-container {
   font-family: Lucida Grande, sans-serif;
   user-select: none;
   -webkit-user-select: none;
   -moz-user-select: none;
   -ms-user-select: none;
}
text {
   text-rendering: optimizeLegibility;
}
#xXxprefixXx0 .plot-title {
   fill: #bbbbbb;
   font-family: Lucida Grande, sans-serif;
   font-size: 16.0px;
   font-weight: normal;
   font-style: normal;   
}
#xXxprefixXx0 .plot-subtitle {
   fill: #bbbbbb;
   font-family: Lucida Grande, sans-serif;
   font-size: 15.0px;
   font-weight: normal;
   font-style: normal;   
}
#xXxprefixXx0 .plot-caption {
   fill: #bbbbbb;
   font-family: Lucida Grande, sans-serif;
   font-size: 13.0px;
   font-weight: normal;
   font-style: normal;   
}
#xXxprefixXx0 .legend-title {
   fill: #bbbbbb;
   font-family: Lucida Grande, sans-serif;
   font-size: 15.0px;
   font-weight: normal;
   font-style: normal;   
}
#xXxprefixXx0 .legend-item {
   fill: #bbbbbb;
   font-family: Lucida Grande, sans-serif;
   font-size: 13.0px;
   font-weight: normal;
   font-style: normal;   
}
#xXxprefixXx0 .axis-title-x {
   fill: #bbbbbb;
   font-family: Lucida Grande, sans-serif;
   font-size: 15.0px;
   font-weight: normal;
   font-style: normal;   
}
#xXxprefixXx0 .axis-text-x {
   fill: #bbbbbb;
   font-family: Lucida Grande, sans-serif;
   font-size: 13.0px;
   font-weight: normal;
   font-style: normal;   
}
#xXxprefixXx2 .axis-tooltip-text-x {
   fill: #303030;
   font-family: Lucida Grande, sans-serif;
   font-size: 13.0px;
   font-weight: normal;
   font-style: normal;   
}
#xXxprefixXx0 .axis-title-y {
   fill: #bbbbbb;
   font-family: Lucida Grande, sans-serif;
   font-size: 15.0px;
   font-weight: normal;
   font-style: normal;   
}
#xXxprefixXx0 .axis-text-y {
   fill: #bbbbbb;
   font-family: Lucida Grande, sans-serif;
   font-size: 13.0px;
   font-weight: normal;
   font-style: normal;   
}
#xXxprefixXx2 .axis-tooltip-text-y {
   fill: #303030;
   font-family: Lucida Grande, sans-serif;
   font-size: 13.0px;
   font-weight: normal;
   font-style: normal;   
}
#xXxprefixXx0 .facet-strip-text-x {
   fill: #bbbbbb;
   font-family: Lucida Grande, sans-serif;
   font-size: 13.0px;
   font-weight: normal;
   font-style: normal;   
}
#xXxprefixXx0 .facet-strip-text-y {
   fill: #bbbbbb;
   font-family: Lucida Grande, sans-serif;
   font-size: 13.0px;
   font-weight: normal;
   font-style: normal;   
}
#xXxprefixXx2 .tooltip-text {
   fill: #bbbbbb;
   font-family: Lucida Grande, sans-serif;
   font-size: 13.0px;
   font-weight: normal;
   font-style: normal;   
}
#xXxprefixXx2 .tooltip-title {
   fill: #bbbbbb;
   font-family: Lucida Grande, sans-serif;
   font-size: 13.0px;
   font-weight: bold;
   font-style: normal;   
}
#xXxprefixXx2 .tooltip-label {
   fill: #bbbbbb;
   font-family: Lucida Grande, sans-serif;
   font-size: 13.0px;
   font-weight: bold;
   font-style: normal;   
}

  </style>
  <g id="xXxprefixXx0">
    <path fill-rule="evenodd" fill="rgb(25,25,28)" fill-opacity="1.0" d="M0.0 0.0 L0.0 470.0 L705.0 470.0 L705.0 0.0 Z">
    </path>
    <g transform="translate(23.0 10.0 ) ">
      <g transform="translate(35.01530667574961 414.0 ) ">
        <line x1="38.24373715234475" y1="-0.0" x2="38.24373715234475" y2="-414.0" stroke="rgb(71,71,71)" stroke-opacity="1.0" stroke-width="1.0">
        </line>
        <line x1="134.98749366144395" y1="-0.0" x2="134.98749366144395" y2="-414.0" stroke="rgb(71,71,71)" stroke-opacity="1.0" stroke-width="1.0">
        </line>
        <line x1="231.73125017054315" y1="-0.0" x2="231.73125017054315" y2="-414.0" stroke="rgb(71,71,71)" stroke-opacity="1.0" stroke-width="1.0">
        </line>
        <line x1="328.4750066796423" y1="-0.0" x2="328.4750066796423" y2="-414.0" stroke="rgb(71,71,71)" stroke-opacity="1.0" stroke-width="1.0">
        </line>
        <line x1="425.2187631887415" y1="-0.0" x2="425.2187631887415" y2="-414.0" stroke="rgb(71,71,71)" stroke-opacity="1.0" stroke-width="1.0">
        </line>
        <line x1="521.9625196978407" y1="-0.0" x2="521.9625196978407" y2="-414.0" stroke="rgb(71,71,71)" stroke-opacity="1.0" stroke-width="1.0">
        </line>
        <line x1="618.70627620694" y1="-0.0" x2="618.70627620694" y2="-414.0" stroke="rgb(71,71,71)" stroke-opacity="1.0" stroke-width="1.0">
        </line>
        <g transform="translate(38.24373715234475 0.0 ) ">
          <line stroke-width="1.0" stroke="rgb(187,187,187)" stroke-opacity="1.0" x2="0.0" y2="4.0">
          </line>
          <g transform="translate(0.0 7.0 ) ">
            <text class="axis-text-x" text-anchor="middle" dy="0.7em">
            -3
            </text>
          </g>
        </g>
        <g transform="translate(134.98749366144395 0.0 ) ">
          <line stroke-width="1.0" stroke="rgb(187,187,187)" stroke-opacity="1.0" x2="0.0" y2="4.0">
          </line>
          <g transform="translate(0.0 7.0 ) ">
            <text class="axis-text-x" text-anchor="middle" dy="0.7em">
            -2
            </text>
          </g>
        </g>
        <g transform="translate(231.73125017054315 0.0 ) ">
          <line stroke-width="1.0" stroke="rgb(187,187,187)" stroke-opacity="1.0" x2="0.0" y2="4.0">
          </line>
          <g transform="translate(0.0 7.0 ) ">
            <text class="axis-text-x" text-anchor="middle" dy="0.7em">
            -1
            </text>
          </g>
        </g>
        <g transform="translate(328.4750066796423 0.0 ) ">
          <line stroke-width="1.0" stroke="rgb(187,187,187)" stroke-opacity="1.0" x2="0.0" y2="4.0">
          </line>
          <g transform="translate(0.0 7.0 ) ">
            <text class="axis-text-x" text-anchor="middle" dy="0.7em">
            0
            </text>
          </g>
        </g>
        <g transform="translate(425.2187631887415 0.0 ) ">
          <line stroke-width="1.0" stroke="rgb(187,187,187)" stroke-opacity="1.0" x2="0.0" y2="4.0">
          </line>
          <g transform="translate(0.0 7.0 ) ">
            <text class="axis-text-x" text-anchor="middle" dy="0.7em">
            1
            </text>
          </g>
        </g>
        <g transform="translate(521.9625196978407 0.0 ) ">
          <line stroke-width="1.0" stroke="rgb(187,187,187)" stroke-opacity="1.0" x2="0.0" y2="4.0">
          </line>
          <g transform="translate(0.0 7.0 ) ">
            <text class="axis-text-x" text-anchor="middle" dy="0.7em">
            2
            </text>
          </g>
        </g>
        <g transform="translate(618.70627620694 0.0 ) ">
          <line stroke-width="1.0" stroke="rgb(187,187,187)" stroke-opacity="1.0" x2="0.0" y2="4.0">
          </line>
          <g transform="translate(0.0 7.0 ) ">
            <text class="axis-text-x" text-anchor="middle" dy="0.7em">
            3
            </text>
          </g>
        </g>
        <line x1="0.0" y1="0.0" x2="636.9846933242504" y2="0.0" stroke-width="1.0" stroke="rgb(187,187,187)" stroke-opacity="1.0">
        </line>
      </g>
      <g transform="translate(35.01530667574961 0.0 ) ">
        <line x1="0.0" y1="363.58329847652226" x2="636.9846933242504" y2="363.58329847652226" stroke="rgb(71,71,71)" stroke-opacity="1.0" stroke-width="1.0">
        </line>
        <line x1="0.0" y1="313.1665969530445" x2="636.9846933242504" y2="313.1665969530445" stroke="rgb(71,71,71)" stroke-opacity="1.0" stroke-width="1.0">
        </line>
        <line x1="0.0" y1="262.7498954295668" x2="636.9846933242504" y2="262.7498954295668" stroke="rgb(71,71,71)" stroke-opacity="1.0" stroke-width="1.0">
        </line>
        <line x1="0.0" y1="212.33319390608906" x2="636.9846933242504" y2="212.33319390608906" stroke="rgb(71,71,71)" stroke-opacity="1.0" stroke-width="1.0">
        </line>
        <line x1="0.0" y1="161.91649238261135" x2="636.9846933242504" y2="161.91649238261135" stroke="rgb(71,71,71)" stroke-opacity="1.0" stroke-width="1.0">
        </line>
        <line x1="0.0" y1="111.49979085913361" x2="636.9846933242504" y2="111.49979085913361" stroke="rgb(71,71,71)" stroke-opacity="1.0" stroke-width="1.0">
        </line>
        <line x1="0.0" y1="61.08308933565593" x2="636.9846933242504" y2="61.08308933565593" stroke="rgb(71,71,71)" stroke-opacity="1.0" stroke-width="1.0">
        </line>
        <line x1="0.0" y1="10.666387812178186" x2="636.9846933242504" y2="10.666387812178186" stroke="rgb(71,71,71)" stroke-opacity="1.0" stroke-width="1.0">
        </line>
        <g transform="translate(0.0 414.0 ) ">
          <g transform="translate(-3.0 0.0 ) ">
            <text class="axis-text-y" text-anchor="end" dy="0.35em">
            0.00
            </text>
          </g>
        </g>
        <g transform="translate(0.0 363.58329847652226 ) ">
          <g transform="translate(-3.0 0.0 ) ">
            <text class="axis-text-y" text-anchor="end" dy="0.35em">
            0.05
            </text>
          </g>
        </g>
        <g transform="translate(0.0 313.1665969530445 ) ">
          <g transform="translate(-3.0 0.0 ) ">
            <text class="axis-text-y" text-anchor="end" dy="0.35em">
            0.10
            </text>
          </g>
        </g>
        <g transform="translate(0.0 262.7498954295668 ) ">
          <g transform="translate(-3.0 0.0 ) ">
            <text class="axis-text-y" text-anchor="end" dy="0.35em">
            0.15
            </text>
          </g>
        </g>
        <g transform="translate(0.0 212.33319390608906 ) ">
          <g transform="translate(-3.0 0.0 ) ">
            <text class="axis-text-y" text-anchor="end" dy="0.35em">
            0.20
            </text>
          </g>
        </g>
        <g transform="translate(0.0 161.91649238261135 ) ">
          <g transform="translate(-3.0 0.0 ) ">
            <text class="axis-text-y" text-anchor="end" dy="0.35em">
            0.25
            </text>
          </g>
        </g>
        <g transform="translate(0.0 111.49979085913361 ) ">
          <g transform="translate(-3.0 0.0 ) ">
            <text class="axis-text-y" text-anchor="end" dy="0.35em">
            0.30
            </text>
          </g>
        </g>
        <g transform="translate(0.0 61.08308933565593 ) ">
          <g transform="translate(-3.0 0.0 ) ">
            <text class="axis-text-y" text-anchor="end" dy="0.35em">
            0.35
            </text>
          </g>
        </g>
        <g transform="translate(0.0 10.666387812178186 ) ">
          <g transform="translate(-3.0 0.0 ) ">
            <text class="axis-text-y" text-anchor="end" dy="0.35em">
            0.40
            </text>
          </g>
        </g>
      </g>
      <g transform="translate(35.01530667574961 0.0 ) " clip-path="url(#xXxprefixXx1)" clip-bounds-jfx="[rect (0.0, 0.0), (636.9846933242504, 414.0)]">
        <defs>
          <clipPath id="xXxprefixXx1">
            <rect x="0.0" y="0.0" width="636.9846933242504" height="414.0">
            </rect>
          </clipPath>
        </defs>
        <g>
          <path d="M28.9538496965568 409.20711591495194 L28.9538496965568 409.20711591495194 L30.08708121745957 409.0027843303477 L31.220312738362338 408.7954007219462 L32.35352119375614 408.5850763712304 L33.486752714658905 408.3719136383831 L34.619961170052704 408.15600549274455 L35.75319269095547 407.93743598235477 L36.88642421185824 407.71628164257976 L38.01963266725204 407.49260961794295 L39.15286418815481 407.2664800098362 L40.28609570905758 407.0379458765192 L41.419304164451376 406.8070541722043 L42.552535685354144 406.5738466861405 L43.68574414074794 406.3383600426132 L44.81897566165071 406.1006280486553 L45.95220718255348 405.86068075496274 L47.08541563794728 405.6185444558943 L48.21864715885005 405.3742416894719 L49.351878679752815 405.12779217646465 L50.485087135146614 404.87921094222054 L51.61831865604938 404.6285064384977 L52.751550176952094 404.3756777262119 L53.88475863234595 404.12071541452076 L55.01799015324866 403.8635960263181 L56.15119860864246 403.6042782418971 L57.28443012954523 403.3427000816976 L58.417661650448 403.0787723327163 L59.550870105841796 402.812375731254 L60.684101626744564 402.54335532841026 L61.81733314764733 402.2715120383251 L62.95054160304113 401.9966007600104 L64.0837731239439 401.71832192559197 L65.21700464484667 401.4363158658038 L66.35021310024047 401.1501581145671 L67.48344462114324 400.85935565265294 L68.61665307653703 400.5633393950087 L69.7498845974398 400.2614641907579 L70.88311611834257 399.95300506686306 L72.01632457373637 399.6371544108733 L73.14955609463914 399.31302384909236 L74.2827876155419 398.97964424657926 L75.4159960709357 398.63597040256883 L76.54922759183847 398.28088105047215 L77.68245911274124 397.91319012688746 L78.81566756813504 397.5316514670211 L79.94889908903781 397.13496725644603 L81.08210754443161 396.721803995534 L82.21533906533438 396.2907924994552 L83.34857058623714 395.84055607070604 L84.48177904163094 395.3697180117828 L85.61501056253371 394.8769147723614 L86.74824208343648 394.36081473098176 L87.88145053883028 393.8201388549019 L89.01468205973305 393.2536719691083 L90.14789051512685 392.66028153800113 L91.28112203602961 392.0389345689105 L92.41435355693238 391.38872015011844 L93.54756201232618 390.7088513290274 L94.68079353322895 389.998691406519 L95.81402505413172 389.2577633277966 L96.94723350952552 388.48575719505936 L98.08046503042829 387.68254717101826 L99.21369655133103 386.84819335706504 L100.34690500672485 385.98294930594597 L101.4801365276276 385.0872638999303 L102.61334498302142 384.16178886348433 L103.74657650392416 383.2073693724288 L104.87980802482693 382.22504405393903 L106.01301648022073 381.2160355957025 L107.1462480011235 380.18175825859265 L108.27947952202626 379.1237821914677 L109.41268797742006 378.04383906567597 L110.54591949832283 376.9438108060451 L111.6791510192256 375.82569578384926 L112.8123594746194 374.69160881680887 L113.94559099552217 373.5437511183949 L115.07879945091597 372.38440654149207 L116.21203097181873 371.2158965023549 L117.3452624927215 370.0405762242705 L118.4784709481153 368.8608084432003 L119.61170246901807 367.6789446260945 L120.74493398992084 366.4972949201966 L121.87814244531464 365.3181131276955 L123.0113739662174 364.1435704113663 L124.14460548712017 362.9757365128857 L125.27781394251397 361.81656472748404 L126.41104546341674 360.66785434057533 L127.54425391881054 359.53126189676834 L128.6774854397133 358.40825236748583 L129.81071696061608 357.3001141763123 L130.94392541600988 356.20791412295057 L132.07715693691264 355.13251616490624 L133.21038845781538 354.07454385411825 L134.3435969132092 353.03438409329567 L135.47682843411195 352.01218337958073 L136.61004842226023 351.00783653553805 L137.74326841040852 350.0209791964803 L138.8764883985568 349.0510028358167 L140.00971991945957 348.0970359833674 L141.14293990760785 347.15795173803804 L142.27615989575614 346.2323903058415 L143.4093914166589 345.3187364618757 L144.5426114048072 344.4151420883459 L145.67583139295547 343.51954871258624 L146.80905138110376 342.6296724817122 L147.94228290200653 341.74304923866396 L149.0755028901548 340.8570194968588 L150.2087228783031 339.9687584908867 L151.34194286645138 339.07530622720645 L152.47517438735414 338.1735524587975 L153.60839437550243 337.26030429922565 L154.7416143636507 336.3322711972954 L155.87484588455348 335.3861025004193 L157.00806587270176 334.41840247996635 L158.14128586085005 333.4257603819574 L159.27450584899833 332.40478047776145 L160.4077373699011 331.35209708944313 L161.54095735804938 330.26439712778495 L162.67417734619767 329.13845014298306 L163.80739733434595 327.9711383753429 L164.9406288552487 326.7594567552794 L166.07384884339697 325.5005654920347 L167.20706883154526 324.19179007367813 L168.34028881969354 322.830643805128 L169.4735203405963 321.4148653715216 L170.6067403287446 319.9423963001932 L171.73996031689288 318.4114485747396 L172.87319183779564 316.82045204630265 L174.00641182594393 315.1681295603088 L175.1396318140922 313.4534744184469 L176.2728518022405 311.6757278406468 L177.40608332314326 309.83444657914475 L178.53930331129155 307.92943530441767 L179.67252329943983 305.960791681227 L180.80574328758811 303.9288763179231 L181.93897480849088 301.8343127664447 L183.07219479663917 299.67795747162376 L184.20541478478745 297.4609223092065 L185.33863477293573 295.18452950981055 L186.4718662938385 292.85028160822833 L187.6050862819868 290.4598914941233 L188.73830627013507 288.01519225994247 L189.87153779103784 285.5181747642858 L191.00475777918612 282.97094255586285 L192.1379777673344 280.375644259427 L193.2711977554827 277.734533677167 L194.40442927638546 275.0498646112717 L195.53764926453374 272.32389086392976 L196.67086925268202 269.55888126267797 L197.8040892408303 266.75704453366143 L198.93732076173305 263.9205293016333 L200.07054074988133 261.0514240899553 L201.20376073802964 258.15171224455344 L202.3369922589324 255.2232569085706 L203.47021224708067 252.26780102236606 L204.60343223522898 249.28699737421158 L205.73665222337723 246.28231844820385 L206.86988374428 243.25511652565615 L208.0031037324283 240.2066086597504 L209.13632372057657 237.13792175158102 L210.26954370872485 234.0500023980673 L211.40277522962762 230.943707044041 L212.5359952177759 227.81980198224625 L213.6692152059242 224.6789934040356 L214.80243519407247 221.52186729797808 L215.93566671497524 218.34903970333866 L217.06888670312352 215.16105153264266 L218.2021066912718 211.95850379980706 L219.33533821217458 208.74196746805305 L220.46855820032286 205.51213370338516 L221.60177818847114 202.26973874785176 L222.7349981766194 199.01566909698042 L223.86822969752217 195.75093144908212 L225.00144968567048 192.476712806643 L226.13466967381873 189.1943654509763 L227.26788966196705 185.90549709431005 L228.40112118286982 182.61194082909108 L229.53434117101807 179.31575512798523 L230.66756115916638 176.0192989706167 L231.8007869136919 172.72520179287244 L232.93400690184018 169.4364085629458 L234.06723265636572 166.15613470529277 L235.20045841089123 162.8878961513279 L236.3336783990395 159.63552436477212 L237.46690415356503 156.403121265609 L238.6001241417133 153.19508928078068 L239.73334989623885 150.01605621744818 L240.8665698843871 146.87089028833918 L241.99979563891264 143.76476021314 L243.13301562706093 140.70286476223288 L244.26624138158644 137.69070321295834 L245.39946136973475 134.73383494404885 L246.53268712426026 131.8378493849325 L247.66590711240855 129.00845616782095 L248.7991328669341 126.2513048235341 L249.9323586214596 123.57192468010845 L251.06557860960788 120.97587511627631 L252.19880436413342 118.46835490241989 L253.33202435228168 116.05453275822543 L254.46525010680722 113.73918674433321 L255.59847009495547 111.52676436372906 L256.731695849481 109.42138256174451 L257.86491583762927 107.42670752327336 L258.9981415921548 105.54586452068406 L260.1313615803031 103.78155811660315 L261.26458733482866 102.1358017076526 L262.3978073229769 100.61006777792909 L263.53103307750246 99.20513764552476 L264.66425883202794 97.92113151322297 L265.79747882017625 96.75741831641085 L266.9307045747018 95.71270587516693 L268.06392456285005 94.78489064078155 L269.1971503173756 93.97120794923654 L270.33037030552384 93.26805171702983 L271.4635960600494 92.67112469465474 L272.5968160481977 92.17540841590426 L273.7300418027232 91.77519324856678 L274.8632617908715 91.46410844512201 L275.99648754539703 91.23512214274092 L277.1297075335453 91.08063151537334 L278.2629332880708 90.99255292583541 L279.3961532762191 90.96229187511392 L280.5293790307446 90.9808331544537 L281.6626019020815 91.03892114953277 L282.7958247734184 91.12696968837486 L283.9290476447553 91.23518224413266 L285.0622705160922 91.35382239135055 L286.1954933874291 91.47297340039796 L287.32871625876606 91.58292889651506 L288.46194201329155 91.67410270772558 L289.59516488462845 91.73711901692417 L290.7283877559654 91.7629626153556 L291.8616106273023 91.74309910539841 L292.9948334986392 91.66938474847706 L294.1280563699761 91.5342467692372 L295.261279241313 91.33080355832902 L296.3945021126499 91.05274446962403 L297.5277249839868 90.69460027647733 L298.6609478553237 90.25159291824866 L299.7941707266606 89.71972565239003 L300.9273935979975 89.09587320653281 L302.06061646933443 88.37775172779254 L303.19383934067133 87.56388873207243 L304.3270636536025 86.65365315475964 L305.4602865249394 85.64722530002928 L306.5935093962763 84.54556679014854 L307.72673370920756 83.35045061617268 L308.85995658054446 82.06437098585718 L309.99317945188136 80.6904531715706 L311.12640232321826 79.23251361168593 L312.25962519455516 77.69493970779729 L313.39284806589205 76.08259967263251 L314.52607093722895 74.40084253005301 L315.6592952501602 72.65540796296625 L316.7925174006999 70.85239626262984 L317.925740992834 68.99811807517239 L319.0589638641709 67.09912445228935 L320.1921867355078 65.16211669915538 L321.32541032764186 63.19391632372856 L322.45863319897876 61.20128473257523 L323.59185607031566 59.191103535045215 L324.72507930205114 57.17016418840069 L325.85830235358736 55.145167997816316 L326.9915254952232 53.12272611637928 L328.12474852423446 51.10932949439325 L329.25797159829557 49.11131882868267 L330.3911947399314 47.134914613288686 L331.5244176112683 45.18612698738127 L332.6576408430038 43.27081583665142 L333.79086407473926 41.394720844006486 L334.92408694607616 39.563431438874716 L336.05730981741306 37.78229664511747 L337.19053340954713 36.05669553729206 L338.323756280884 34.39170668299715 L339.4569791522209 32.792378599135645 L340.590202744355 31.263669650522957 L341.7234256156919 29.810357897799236 L342.8566484870288 28.437161300213063 L343.9898713583657 27.14867761422954 L345.12309422970264 25.949324292138726 L346.25631710103954 24.843428634143095 L347.38954141397073 23.835227788357543 L348.52276428530763 22.928628345242657 L349.6559871566445 22.127506844563186 L350.7892100279814 21.435409268429453 L351.9224328993184 20.855611142689156 L353.05565721224957 20.391147587623266 L354.18888008358647 20.044633013770692 L355.32210295492337 19.818411375407834 L356.45532582626026 19.714285714285722 L357.58854869759716 19.733698463805183 L358.72177156893406 19.877551144841732 L359.854994440271 20.14620436574552 L360.9882173116079 20.539507873037337 L362.1214401829448 21.056740450016832 L363.2546630542817 21.696519764674747 L364.3878859256186 22.45695262317264 L365.5211087969555 23.335484716363112 L366.65433455148104 24.328960721181886 L367.78755742281794 25.433744503431058 L368.92078029415484 26.64550876290815 L370.05400316549174 27.959535540364584 L371.18722603682863 29.37056596402664 L372.32044890816553 30.872920452378423 L373.45367177950243 32.46061891694575 L374.5868946508394 34.12729061020826 L375.7201175221763 35.86641453116641 L376.8533432767018 37.67131942534144 L377.9865632648501 39.5351837847752 L379.1197890193756 41.4512762535972 L380.2530090075239 43.41295562802446 L381.3862347620494 45.41373095775327 L382.51945475019767 47.44738174874254 L383.6526805047232 49.50798801390977 L384.7859004928715 51.590050475914325 L385.919126247397 53.6885807192449 L387.0523462355453 55.799041088828176 L388.1855719900708 57.917555044899416 L389.31879774459634 60.04078696021918 L390.45201773274465 62.1660923735526 L391.5852434872702 64.29151798966944 L392.71846347541845 66.41580167934399 L393.851689229944 68.53831237796328 L394.98490921809224 70.65914023761502 L396.1181349726178 72.7790064749995 L397.2513549607661 74.89932347282178 L398.3845807152916 77.02198442492033 L399.5178007034399 79.14954364044257 L400.6510264579654 81.28488598619009 L401.7842464461137 83.43146729218569 L402.91747220063917 85.59295374332322 L404.0506921887875 87.77334208215069 L405.183917943313 89.97683940608721 L406.31714369783856 92.20768286324773 L407.4503636859868 94.47022980453056 L408.58358944051236 96.76865727665898 L409.7168094286606 99.10711227566026 L410.85003518318615 101.48944129060334 L411.98325517133446 103.91928045568613 L413.11648092585995 106.39978509397292 L414.24970091400826 108.93381002156957 L415.38292666853374 111.52366914205646 L416.51614665668205 114.17113544648885 L417.64937241120754 116.87750111478829 L418.78259239935585 119.64333711017593 L419.9158181538814 122.46876363543521 L421.04904390840693 125.35317967664906 L422.1822638965552 128.29538320598357 L423.3154896510807 131.29360123238342 L424.448709639229 134.3454597508765 L425.5819296273773 137.44804384396525 L426.71516114828006 140.59789768162693 L427.8483811364283 143.79111467340095 L428.9816011245766 147.0233675190848 L430.1148211127249 150.2899683101258 L431.24805263362765 153.5859286310128 L432.3812726217759 156.90595955927608 L433.5144926099242 160.24471207105424 L434.64771259807253 163.59664181296284 L435.7809441189753 166.95617438092165 L436.91416410712355 170.31779547224207 L438.0473840952718 173.67602083493136 L439.1806156161746 177.02559159721574 L440.3138356043229 180.3613690901047 L441.4470555924712 183.67850012621838 L442.58027558061946 186.97241699978753 L443.7135071015222 190.23891261339307 L444.8467270896705 193.4741104272703 L445.9799470778188 196.6745245607005 L447.1131670659671 199.83708984270694 L448.2463985868698 202.9591618120548 L449.3796185750181 206.03850169190318 L450.5128385631664 209.07330644050109 L451.6460585513147 212.06219372583934 L452.77929007221746 215.00417187495492 L453.9125100603657 217.89862484858287 L455.04573004851403 220.74532726650435 L456.1789615694168 223.54436928080682 L457.31218155756505 226.2961866265802 L458.44540154571337 229.0014554444811 L459.5786215338616 231.6611223314288 L460.7118530547644 234.27635926456148 L461.84507304291265 236.8485034998445 L462.97829303106096 239.3790876227662 L464.11151301920927 241.86970432020672 L465.24474454011204 244.3221265832212 L466.3779645282603 246.73814242821274 L467.51118451640855 249.1196149983241 L468.6444160373113 251.4684224620459 L469.7776360254596 253.78644298786884 L470.91085601360794 256.07559982032734 L472.0440760017562 258.33772605186823 L473.17730752265896 260.5746998509823 L474.3105275108072 262.7883092340726 L475.44374749895553 264.98035724289 L476.57696748710384 267.15257179244617 L477.7101990080066 269.3066507470565 L478.84341899615487 271.44424689499283 L479.9766389843031 273.56699799917897 L481.10985897245143 275.6765117718429 L482.2430904933542 277.7743207984731 L483.3763104815025 279.8619726899059 L484.50953046965077 281.9409699809336 L485.6427619905535 284.012800181001 L486.7759819787018 286.07892074885683 L487.9092019668501 288.14073655453205 L489.04242195499836 290.1996674934056 L490.17565347590113 292.25704330876886 L491.3088734640494 294.31417871856536 L492.4420934521977 296.37232833934684 L493.575313440346 298.43266414825143 L494.7085449612488 300.49629050835165 L495.84176494939703 302.56421411795844 L496.9749849375453 304.6373289852735 L498.1082049256936 306.71640891571485 L499.24143644659637 308.8020624358735 L500.3746564347447 310.894777869557 L501.50787642289293 312.99482567302806 L502.6411079437957 315.1023260490701 L503.77432793194396 317.21716630757356 L504.90754792009227 319.33903842890606 L506.0407679082406 321.4674090132163 L507.17399942914335 323.60151176776 L508.3072194172916 325.740362532248 L509.44043940543986 327.88272171547663 L510.5736593935882 330.02716190939293 L511.70689091449094 332.1719927623552 L512.8401109026393 334.31534361854693 L513.9733308907876 336.45514849262827 L515.1065624116902 338.5891385570625 L516.2397823998385 340.7149097561816 L517.3730023879868 342.82992280618623 L518.5062223761352 344.9315182204936 L519.6394538970378 347.0169463604334 L520.7726738851861 349.0834275366394 L521.9058938733344 351.1281407400387 L523.0391253942372 353.14826871789523 L524.1723338496311 355.1410317808429 L525.3055653705337 357.10371785358114 L526.4387968914366 359.0336937438861 L527.5720053468303 360.9284577313282 L528.7052368677331 362.78563956727214 L529.8384683886359 364.603038038247 L530.9716768440296 366.3786322349568 L532.1049083649325 368.1105928212916 L533.2381168203262 369.79731208502346 L534.371348341229 371.4373926687952 L535.5045798621318 373.02966259546884 L536.6377883175255 374.5731902934728 L537.7710198384284 376.0672583024438 L538.904251359331 377.5113707859003 L540.0374598147249 378.9052648002535 L541.1706913356277 380.2488652187639 L542.3038997910214 381.5423110258997 L543.4371313119243 382.7859139976305 L544.570362832827 383.9801549450897 L545.7035712882208 385.1256705673958 L546.8368028091236 386.2232309136299 L547.9700343300264 387.27372999199355 L549.1032427854202 388.27815947544985 L550.2364743063229 389.2375993108809 L551.3697058272256 390.15320081557155 L552.5029142826195 391.02617165186115 L553.6361458035223 391.8577626799646 L554.769354258916 392.6492585671295 L555.9025857798188 393.4019590059513 L557.0358173007215 394.117184348879 L558.1690257561154 394.796253070193 L559.3022572770182 395.44048740051085 L560.4354887979209 396.05120393594433 L561.5686972533147 396.629717394437 L562.7019287742174 397.1773274685844 L563.8351602951202 397.69533385098197 L564.9683687505141 398.18502120887746 L566.1016002714168 398.6476770267711 L567.2348087268106 399.08457939832084 L568.3680402477133 399.4970073562688 L569.5012717686161 399.88623993335716 L570.63448022401 400.25355991866496 L571.7677117449127 400.6002529185241 L572.9009432658155 400.92761017377194 L574.0341517212092 401.23692949883554 L575.167383242112 401.5295115253946 L576.3005916975059 401.80666251963436 L577.4338232184086 402.0696896868244 L578.5670547393114 402.3198974149814 L579.7002631947051 402.5585844576168 L580.8334947156079 402.7870382992308 L581.9667262365107 403.0065313989758 L583.0999346919045 403.2183099216455 L584.2331662128072 403.42359092042176 L585.3663977337101 403.62355576328525 L586.4996061891038 403.8193369858357 L587.6328377100066 404.01201735220815 L588.7660461654004 404.2026185860614 L589.8992776863031 404.3920947969888 L591.032509207206 404.5813240287596 L592.1657176625997 404.7711082593194 L593.2989491835025 404.96215837544196 L594.4321807044053 405.15510074631885 L595.565389159799 405.3504621982117 L596.6986206807019 405.54867846621033 L597.8318522016045 405.75008480339034 L598.9650606569984 405.95491973715 L600.0982921779012 406.1633245996684 L601.2315006332949 406.3753458756155 L602.3647321541978 406.59093942803185 L603.4979636751004 406.8099728460388 L604.6311721304943 407.03223342705485 L605.7644036513971 407.25743052450605 L606.8976351722998 407.4852054082107 L608.0308436276937 407.71513830751104 L608.0308436276937 414.0 L606.8976351722998 414.0 L605.7644036513971 414.0 L604.6311721304943 414.0 L603.4979636751004 414.0 L602.3647321541978 414.0 L601.2315006332949 414.0 L600.0982921779012 414.0 L598.9650606569984 414.0 L597.8318522016045 414.0 L596.6986206807019 414.0 L595.565389159799 414.0 L594.4321807044053 414.0 L593.2989491835025 414.0 L592.1657176625997 414.0 L591.032509207206 414.0 L589.8992776863031 414.0 L588.7660461654004 414.0 L587.6328377100066 414.0 L586.4996061891038 414.0 L585.3663977337101 414.0 L584.2331662128072 414.0 L583.0999346919045 414.0 L581.9667262365107 414.0 L580.8334947156079 414.0 L579.7002631947051 414.0 L578.5670547393114 414.0 L577.4338232184086 414.0 L576.3005916975059 414.0 L575.167383242112 414.0 L574.0341517212092 414.0 L572.9009432658155 414.0 L571.7677117449127 414.0 L570.63448022401 414.0 L569.5012717686161 414.0 L568.3680402477133 414.0 L567.2348087268106 414.0 L566.1016002714168 414.0 L564.9683687505141 414.0 L563.8351602951202 414.0 L562.7019287742174 414.0 L561.5686972533147 414.0 L560.4354887979209 414.0 L559.3022572770182 414.0 L558.1690257561154 414.0 L557.0358173007215 414.0 L555.9025857798188 414.0 L554.769354258916 414.0 L553.6361458035223 414.0 L552.5029142826195 414.0 L551.3697058272256 414.0 L550.2364743063229 414.0 L549.1032427854202 414.0 L547.9700343300264 414.0 L546.8368028091236 414.0 L545.7035712882208 414.0 L544.570362832827 414.0 L543.4371313119243 414.0 L542.3038997910214 414.0 L541.1706913356277 414.0 L540.0374598147249 414.0 L538.904251359331 414.0 L537.7710198384284 414.0 L536.6377883175255 414.0 L535.5045798621318 414.0 L534.371348341229 414.0 L533.2381168203262 414.0 L532.1049083649325 414.0 L530.9716768440296 414.0 L529.8384683886359 414.0 L528.7052368677331 414.0 L527.5720053468303 414.0 L526.4387968914366 414.0 L525.3055653705337 414.0 L524.1723338496311 414.0 L523.0391253942372 414.0 L521.9058938733344 414.0 L520.7726738851861 414.0 L519.6394538970378 414.0 L518.5062223761352 414.0 L517.3730023879868 414.0 L516.2397823998385 414.0 L515.1065624116902 414.0 L513.9733308907876 414.0 L512.8401109026393 414.0 L511.70689091449094 414.0 L510.5736593935882 414.0 L509.44043940543986 414.0 L508.3072194172916 414.0 L507.17399942914335 414.0 L506.0407679082406 414.0 L504.90754792009227 414.0 L503.77432793194396 414.0 L502.6411079437957 414.0 L501.50787642289293 414.0 L500.3746564347447 414.0 L499.24143644659637 414.0 L498.1082049256936 414.0 L496.9749849375453 414.0 L495.84176494939703 414.0 L494.7085449612488 414.0 L493.575313440346 414.0 L492.4420934521977 414.0 L491.3088734640494 414.0 L490.17565347590113 414.0 L489.04242195499836 414.0 L487.9092019668501 414.0 L486.7759819787018 414.0 L485.6427619905535 414.0 L484.50953046965077 414.0 L483.3763104815025 414.0 L482.2430904933542 414.0 L481.10985897245143 414.0 L479.9766389843031 414.0 L478.84341899615487 414.0 L477.7101990080066 414.0 L476.57696748710384 414.0 L475.44374749895553 414.0 L474.3105275108072 414.0 L473.17730752265896 414.0 L472.0440760017562 414.0 L470.91085601360794 414.0 L469.7776360254596 414.0 L468.6444160373113 414.0 L467.51118451640855 414.0 L466.3779645282603 414.0 L465.24474454011204 414.0 L464.11151301920927 414.0 L462.97829303106096 414.0 L461.84507304291265 414.0 L460.7118530547644 414.0 L459.5786215338616 414.0 L458.44540154571337 414.0 L457.31218155756505 414.0 L456.1789615694168 414.0 L455.04573004851403 414.0 L453.9125100603657 414.0 L452.77929007221746 414.0 L451.6460585513147 414.0 L450.5128385631664 414.0 L449.3796185750181 414.0 L448.2463985868698 414.0 L447.1131670659671 414.0 L445.9799470778188 414.0 L444.8467270896705 414.0 L443.7135071015222 414.0 L442.58027558061946 414.0 L441.4470555924712 414.0 L440.3138356043229 414.0 L439.1806156161746 414.0 L438.0473840952718 414.0 L436.91416410712355 414.0 L435.7809441189753 414.0 L434.64771259807253 414.0 L433.5144926099242 414.0 L432.3812726217759 414.0 L431.24805263362765 414.0 L430.1148211127249 414.0 L428.9816011245766 414.0 L427.8483811364283 414.0 L426.71516114828006 414.0 L425.5819296273773 414.0 L424.448709639229 414.0 L423.3154896510807 414.0 L422.1822638965552 414.0 L421.04904390840693 414.0 L419.9158181538814 414.0 L418.78259239935585 414.0 L417.64937241120754 414.0 L416.51614665668205 414.0 L415.38292666853374 414.0 L414.24970091400826 414.0 L413.11648092585995 414.0 L411.98325517133446 414.0 L410.85003518318615 414.0 L409.7168094286606 414.0 L408.58358944051236 414.0 L407.4503636859868 414.0 L406.31714369783856 414.0 L405.183917943313 414.0 L404.0506921887875 414.0 L402.91747220063917 414.0 L401.7842464461137 414.0 L400.6510264579654 414.0 L399.5178007034399 414.0 L398.3845807152916 414.0 L397.2513549607661 414.0 L396.1181349726178 414.0 L394.98490921809224 414.0 L393.851689229944 414.0 L392.71846347541845 414.0 L391.5852434872702 414.0 L390.45201773274465 414.0 L389.31879774459634 414.0 L388.1855719900708 414.0 L387.0523462355453 414.0 L385.919126247397 414.0 L384.7859004928715 414.0 L383.6526805047232 414.0 L382.51945475019767 414.0 L381.3862347620494 414.0 L380.2530090075239 414.0 L379.1197890193756 414.0 L377.9865632648501 414.0 L376.8533432767018 414.0 L375.7201175221763 414.0 L374.5868946508394 414.0 L373.45367177950243 414.0 L372.32044890816553 414.0 L371.18722603682863 414.0 L370.05400316549174 414.0 L368.92078029415484 414.0 L367.78755742281794 414.0 L366.65433455148104 414.0 L365.5211087969555 414.0 L364.3878859256186 414.0 L363.2546630542817 414.0 L362.1214401829448 414.0 L360.9882173116079 414.0 L359.854994440271 414.0 L358.72177156893406 414.0 L357.58854869759716 414.0 L356.45532582626026 414.0 L355.32210295492337 414.0 L354.18888008358647 414.0 L353.05565721224957 414.0 L351.9224328993184 414.0 L350.7892100279814 414.0 L349.6559871566445 414.0 L348.52276428530763 414.0 L347.38954141397073 414.0 L346.25631710103954 414.0 L345.12309422970264 414.0 L343.9898713583657 414.0 L342.8566484870288 414.0 L341.7234256156919 414.0 L340.590202744355 414.0 L339.4569791522209 414.0 L338.323756280884 414.0 L337.19053340954713 414.0 L336.05730981741306 414.0 L334.92408694607616 414.0 L333.79086407473926 414.0 L332.6576408430038 414.0 L331.5244176112683 414.0 L330.3911947399314 414.0 L329.25797159829557 414.0 L328.12474852423446 414.0 L326.9915254952232 414.0 L325.85830235358736 414.0 L324.72507930205114 414.0 L323.59185607031566 414.0 L322.45863319897876 414.0 L321.32541032764186 414.0 L320.1921867355078 414.0 L319.0589638641709 414.0 L317.925740992834 414.0 L316.7925174006999 414.0 L315.6592952501602 414.0 L314.52607093722895 414.0 L313.39284806589205 414.0 L312.25962519455516 414.0 L311.12640232321826 414.0 L309.99317945188136 414.0 L308.85995658054446 414.0 L307.72673370920756 414.0 L306.5935093962763 414.0 L305.4602865249394 414.0 L304.3270636536025 414.0 L303.19383934067133 414.0 L302.06061646933443 414.0 L300.9273935979975 414.0 L299.7941707266606 414.0 L298.6609478553237 414.0 L297.5277249839868 414.0 L296.3945021126499 414.0 L295.261279241313 414.0 L294.1280563699761 414.0 L292.9948334986392 414.0 L291.8616106273023 414.0 L290.7283877559654 414.0 L289.59516488462845 414.0 L288.46194201329155 414.0 L287.32871625876606 414.0 L286.1954933874291 414.0 L285.0622705160922 414.0 L283.9290476447553 414.0 L282.7958247734184 414.0 L281.6626019020815 414.0 L280.5293790307446 414.0 L279.3961532762191 414.0 L278.2629332880708 414.0 L277.1297075335453 414.0 L275.99648754539703 414.0 L274.8632617908715 414.0 L273.7300418027232 414.0 L272.5968160481977 414.0 L271.4635960600494 414.0 L270.33037030552384 414.0 L269.1971503173756 414.0 L268.06392456285005 414.0 L266.9307045747018 414.0 L265.79747882017625 414.0 L264.66425883202794 414.0 L263.53103307750246 414.0 L262.3978073229769 414.0 L261.26458733482866 414.0 L260.1313615803031 414.0 L258.9981415921548 414.0 L257.86491583762927 414.0 L256.731695849481 414.0 L255.59847009495547 414.0 L254.46525010680722 414.0 L253.33202435228168 414.0 L252.19880436413342 414.0 L251.06557860960788 414.0 L249.9323586214596 414.0 L248.7991328669341 414.0 L247.66590711240855 414.0 L246.53268712426026 414.0 L245.39946136973475 414.0 L244.26624138158644 414.0 L243.13301562706093 414.0 L241.99979563891264 414.0 L240.8665698843871 414.0 L239.73334989623885 414.0 L238.6001241417133 414.0 L237.46690415356503 414.0 L236.3336783990395 414.0 L235.20045841089123 414.0 L234.06723265636572 414.0 L232.93400690184018 414.0 L231.8007869136919 414.0 L230.66756115916638 414.0 L229.53434117101807 414.0 L228.40112118286982 414.0 L227.26788966196705 414.0 L226.13466967381873 414.0 L225.00144968567048 414.0 L223.86822969752217 414.0 L222.7349981766194 414.0 L221.60177818847114 414.0 L220.46855820032286 414.0 L219.33533821217458 414.0 L218.2021066912718 414.0 L217.06888670312352 414.0 L215.93566671497524 414.0 L214.80243519407247 414.0 L213.6692152059242 414.0 L212.5359952177759 414.0 L211.40277522962762 414.0 L210.26954370872485 414.0 L209.13632372057657 414.0 L208.0031037324283 414.0 L206.86988374428 414.0 L205.73665222337723 414.0 L204.60343223522898 414.0 L203.47021224708067 414.0 L202.3369922589324 414.0 L201.20376073802964 414.0 L200.07054074988133 414.0 L198.93732076173305 414.0 L197.8040892408303 414.0 L196.67086925268202 414.0 L195.53764926453374 414.0 L194.40442927638546 414.0 L193.2711977554827 414.0 L192.1379777673344 414.0 L191.00475777918612 414.0 L189.87153779103784 414.0 L188.73830627013507 414.0 L187.6050862819868 414.0 L186.4718662938385 414.0 L185.33863477293573 414.0 L184.20541478478745 414.0 L183.07219479663917 414.0 L181.93897480849088 414.0 L180.80574328758811 414.0 L179.67252329943983 414.0 L178.53930331129155 414.0 L177.40608332314326 414.0 L176.2728518022405 414.0 L175.1396318140922 414.0 L174.00641182594393 414.0 L172.87319183779564 414.0 L171.73996031689288 414.0 L170.6067403287446 414.0 L169.4735203405963 414.0 L168.34028881969354 414.0 L167.20706883154526 414.0 L166.07384884339697 414.0 L164.9406288552487 414.0 L163.80739733434595 414.0 L162.67417734619767 414.0 L161.54095735804938 414.0 L160.4077373699011 414.0 L159.27450584899833 414.0 L158.14128586085005 414.0 L157.00806587270176 414.0 L155.87484588455348 414.0 L154.7416143636507 414.0 L153.60839437550243 414.0 L152.47517438735414 414.0 L151.34194286645138 414.0 L150.2087228783031 414.0 L149.0755028901548 414.0 L147.94228290200653 414.0 L146.80905138110376 414.0 L145.67583139295547 414.0 L144.5426114048072 414.0 L143.4093914166589 414.0 L142.27615989575614 414.0 L141.14293990760785 414.0 L140.00971991945957 414.0 L138.8764883985568 414.0 L137.74326841040852 414.0 L136.61004842226023 414.0 L135.47682843411195 414.0 L134.3435969132092 414.0 L133.21038845781538 414.0 L132.07715693691264 414.0 L130.94392541600988 414.0 L129.81071696061608 414.0 L128.6774854397133 414.0 L127.54425391881054 414.0 L126.41104546341674 414.0 L125.27781394251397 414.0 L124.14460548712017 414.0 L123.0113739662174 414.0 L121.87814244531464 414.0 L120.74493398992084 414.0 L119.61170246901807 414.0 L118.4784709481153 414.0 L117.3452624927215 414.0 L116.21203097181873 414.0 L115.07879945091597 414.0 L113.94559099552217 414.0 L112.8123594746194 414.0 L111.6791510192256 414.0 L110.54591949832283 414.0 L109.41268797742006 414.0 L108.27947952202626 414.0 L107.1462480011235 414.0 L106.01301648022073 414.0 L104.87980802482693 414.0 L103.74657650392416 414.0 L102.61334498302142 414.0 L101.4801365276276 414.0 L100.34690500672485 414.0 L99.21369655133103 414.0 L98.08046503042829 414.0 L96.94723350952552 414.0 L95.81402505413172 414.0 L94.68079353322895 414.0 L93.54756201232618 414.0 L92.41435355693238 414.0 L91.28112203602961 414.0 L90.14789051512685 414.0 L89.01468205973305 414.0 L87.88145053883028 414.0 L86.74824208343648 414.0 L85.61501056253371 414.0 L84.48177904163094 414.0 L83.34857058623714 414.0 L82.21533906533438 414.0 L81.08210754443161 414.0 L79.94889908903781 414.0 L78.81566756813504 414.0 L77.68245911274124 414.0 L76.54922759183847 414.0 L75.4159960709357 414.0 L74.2827876155419 414.0 L73.14955609463914 414.0 L72.01632457373637 414.0 L70.88311611834257 414.0 L69.7498845974398 414.0 L68.61665307653703 414.0 L67.48344462114324 414.0 L66.35021310024047 414.0 L65.21700464484667 414.0 L64.0837731239439 414.0 L62.95054160304113 414.0 L61.81733314764733 414.0 L60.684101626744564 414.0 L59.550870105841796 414.0 L58.417661650448 414.0 L57.28443012954523 414.0 L56.15119860864246 414.0 L55.01799015324866 414.0 L53.88475863234595 414.0 L52.751550176952094 414.0 L51.61831865604938 414.0 L50.485087135146614 414.0 L49.351878679752815 414.0 L48.21864715885005 414.0 L47.08541563794728 414.0 L45.95220718255348 414.0 L44.81897566165071 414.0 L43.68574414074794 414.0 L42.552535685354144 414.0 L41.419304164451376 414.0 L40.28609570905758 414.0 L39.15286418815481 414.0 L38.01963266725204 414.0 L36.88642421185824 414.0 L35.75319269095547 414.0 L34.619961170052704 414.0 L33.486752714658905 414.0 L32.35352119375614 414.0 L31.220312738362338 414.0 L30.08708121745957 414.0 L28.9538496965568 414.0 Z" fill="rgb(187,187,187)" stroke-width="1.0" fill-opacity="0.10196078431372549">
          </path>
        </g>
        <g>
          <path d="M28.9538496965568 409.20711591495194 L28.9538496965568 409.20711591495194 L30.08708121745957 409.0027843303477 L31.220312738362338 408.7954007219462 L32.35352119375614 408.5850763712304 L33.486752714658905 408.3719136383831 L34.619961170052704 408.15600549274455 L35.75319269095547 407.93743598235477 L36.88642421185824 407.71628164257976 L38.01963266725204 407.49260961794295 L39.15286418815481 407.2664800098362 L40.28609570905758 407.0379458765192 L41.419304164451376 406.8070541722043 L42.552535685354144 406.5738466861405 L43.68574414074794 406.3383600426132 L44.81897566165071 406.1006280486553 L45.95220718255348 405.86068075496274 L47.08541563794728 405.6185444558943 L48.21864715885005 405.3742416894719 L49.351878679752815 405.12779217646465 L50.485087135146614 404.87921094222054 L51.61831865604938 404.6285064384977 L52.751550176952094 404.3756777262119 L53.88475863234595 404.12071541452076 L55.01799015324866 403.8635960263181 L56.15119860864246 403.6042782418971 L57.28443012954523 403.3427000816976 L58.417661650448 403.0787723327163 L59.550870105841796 402.812375731254 L60.684101626744564 402.54335532841026 L61.81733314764733 402.2715120383251 L62.95054160304113 401.9966007600104 L64.0837731239439 401.71832192559197 L65.21700464484667 401.4363158658038 L66.35021310024047 401.1501581145671 L67.48344462114324 400.85935565265294 L68.61665307653703 400.5633393950087 L69.7498845974398 400.2614641907579 L70.88311611834257 399.95300506686306 L72.01632457373637 399.6371544108733 L73.14955609463914 399.31302384909236 L74.2827876155419 398.97964424657926 L75.4159960709357 398.63597040256883 L76.54922759183847 398.28088105047215 L77.68245911274124 397.91319012688746 L78.81566756813504 397.5316514670211 L79.94889908903781 397.13496725644603 L81.08210754443161 396.721803995534 L82.21533906533438 396.2907924994552 L83.34857058623714 395.84055607070604 L84.48177904163094 395.3697180117828 L85.61501056253371 394.8769147723614 L86.74824208343648 394.36081473098176 L87.88145053883028 393.8201388549019 L89.01468205973305 393.2536719691083 L90.14789051512685 392.66028153800113 L91.28112203602961 392.0389345689105 L92.41435355693238 391.38872015011844 L93.54756201232618 390.7088513290274 L94.68079353322895 389.998691406519 L95.81402505413172 389.2577633277966 L96.94723350952552 388.48575719505936 L98.08046503042829 387.68254717101826 L99.21369655133103 386.84819335706504 L100.34690500672485 385.98294930594597 L101.4801365276276 385.0872638999303 L102.61334498302142 384.16178886348433 L103.74657650392416 383.2073693724288 L104.87980802482693 382.22504405393903 L106.01301648022073 381.2160355957025 L107.1462480011235 380.18175825859265 L108.27947952202626 379.1237821914677 L109.41268797742006 378.04383906567597 L110.54591949832283 376.9438108060451 L111.6791510192256 375.82569578384926 L112.8123594746194 374.69160881680887 L113.94559099552217 373.5437511183949 L115.07879945091597 372.38440654149207 L116.21203097181873 371.2158965023549 L117.3452624927215 370.0405762242705 L118.4784709481153 368.8608084432003 L119.61170246901807 367.6789446260945 L120.74493398992084 366.4972949201966 L121.87814244531464 365.3181131276955 L123.0113739662174 364.1435704113663 L124.14460548712017 362.9757365128857 L125.27781394251397 361.81656472748404 L126.41104546341674 360.66785434057533 L127.54425391881054 359.53126189676834 L128.6774854397133 358.40825236748583 L129.81071696061608 357.3001141763123 L130.94392541600988 356.20791412295057 L132.07715693691264 355.13251616490624 L133.21038845781538 354.07454385411825 L134.3435969132092 353.03438409329567 L135.47682843411195 352.01218337958073 L136.61004842226023 351.00783653553805 L137.74326841040852 350.0209791964803 L138.8764883985568 349.0510028358167 L140.00971991945957 348.0970359833674 L141.14293990760785 347.15795173803804 L142.27615989575614 346.2323903058415 L143.4093914166589 345.3187364618757 L144.5426114048072 344.4151420883459 L145.67583139295547 343.51954871258624 L146.80905138110376 342.6296724817122 L147.94228290200653 341.74304923866396 L149.0755028901548 340.8570194968588 L150.2087228783031 339.9687584908867 L151.34194286645138 339.07530622720645 L152.47517438735414 338.1735524587975 L153.60839437550243 337.26030429922565 L154.7416143636507 336.3322711972954 L155.87484588455348 335.3861025004193 L157.00806587270176 334.41840247996635 L158.14128586085005 333.4257603819574 L159.27450584899833 332.40478047776145 L160.4077373699011 331.35209708944313 L161.54095735804938 330.26439712778495 L162.67417734619767 329.13845014298306 L163.80739733434595 327.9711383753429 L164.9406288552487 326.7594567552794 L166.07384884339697 325.5005654920347 L167.20706883154526 324.19179007367813 L168.34028881969354 322.830643805128 L169.4735203405963 321.4148653715216 L170.6067403287446 319.9423963001932 L171.73996031689288 318.4114485747396 L172.87319183779564 316.82045204630265 L174.00641182594393 315.1681295603088 L175.1396318140922 313.4534744184469 L176.2728518022405 311.6757278406468 L177.40608332314326 309.83444657914475 L178.53930331129155 307.92943530441767 L179.67252329943983 305.960791681227 L180.80574328758811 303.9288763179231 L181.93897480849088 301.8343127664447 L183.07219479663917 299.67795747162376 L184.20541478478745 297.4609223092065 L185.33863477293573 295.18452950981055 L186.4718662938385 292.85028160822833 L187.6050862819868 290.4598914941233 L188.73830627013507 288.01519225994247 L189.87153779103784 285.5181747642858 L191.00475777918612 282.97094255586285 L192.1379777673344 280.375644259427 L193.2711977554827 277.734533677167 L194.40442927638546 275.0498646112717 L195.53764926453374 272.32389086392976 L196.67086925268202 269.55888126267797 L197.8040892408303 266.75704453366143 L198.93732076173305 263.9205293016333 L200.07054074988133 261.0514240899553 L201.20376073802964 258.15171224455344 L202.3369922589324 255.2232569085706 L203.47021224708067 252.26780102236606 L204.60343223522898 249.28699737421158 L205.73665222337723 246.28231844820385 L206.86988374428 243.25511652565615 L208.0031037324283 240.2066086597504 L209.13632372057657 237.13792175158102 L210.26954370872485 234.0500023980673 L211.40277522962762 230.943707044041 L212.5359952177759 227.81980198224625 L213.6692152059242 224.6789934040356 L214.80243519407247 221.52186729797808 L215.93566671497524 218.34903970333866 L217.06888670312352 215.16105153264266 L218.2021066912718 211.95850379980706 L219.33533821217458 208.74196746805305 L220.46855820032286 205.51213370338516 L221.60177818847114 202.26973874785176 L222.7349981766194 199.01566909698042 L223.86822969752217 195.75093144908212 L225.00144968567048 192.476712806643 L226.13466967381873 189.1943654509763 L227.26788966196705 185.90549709431005 L228.40112118286982 182.61194082909108 L229.53434117101807 179.31575512798523 L230.66756115916638 176.0192989706167 L231.8007869136919 172.72520179287244 L232.93400690184018 169.4364085629458 L234.06723265636572 166.15613470529277 L235.20045841089123 162.8878961513279 L236.3336783990395 159.63552436477212 L237.46690415356503 156.403121265609 L238.6001241417133 153.19508928078068 L239.73334989623885 150.01605621744818 L240.8665698843871 146.87089028833918 L241.99979563891264 143.76476021314 L243.13301562706093 140.70286476223288 L244.26624138158644 137.69070321295834 L245.39946136973475 134.73383494404885 L246.53268712426026 131.8378493849325 L247.66590711240855 129.00845616782095 L248.7991328669341 126.2513048235341 L249.9323586214596 123.57192468010845 L251.06557860960788 120.97587511627631 L252.19880436413342 118.46835490241989 L253.33202435228168 116.05453275822543 L254.46525010680722 113.73918674433321 L255.59847009495547 111.52676436372906 L256.731695849481 109.42138256174451 L257.86491583762927 107.42670752327336 L258.9981415921548 105.54586452068406 L260.1313615803031 103.78155811660315 L261.26458733482866 102.1358017076526 L262.3978073229769 100.61006777792909 L263.53103307750246 99.20513764552476 L264.66425883202794 97.92113151322297 L265.79747882017625 96.75741831641085 L266.9307045747018 95.71270587516693 L268.06392456285005 94.78489064078155 L269.1971503173756 93.97120794923654 L270.33037030552384 93.26805171702983 L271.4635960600494 92.67112469465474 L272.5968160481977 92.17540841590426 L273.7300418027232 91.77519324856678 L274.8632617908715 91.46410844512201 L275.99648754539703 91.23512214274092 L277.1297075335453 91.08063151537334 L278.2629332880708 90.99255292583541 L279.3961532762191 90.96229187511392 L280.5293790307446 90.9808331544537 L281.6626019020815 91.03892114953277 L282.7958247734184 91.12696968837486 L283.9290476447553 91.23518224413266 L285.0622705160922 91.35382239135055 L286.1954933874291 91.47297340039796 L287.32871625876606 91.58292889651506 L288.46194201329155 91.67410270772558 L289.59516488462845 91.73711901692417 L290.7283877559654 91.7629626153556 L291.8616106273023 91.74309910539841 L292.9948334986392 91.66938474847706 L294.1280563699761 91.5342467692372 L295.261279241313 91.33080355832902 L296.3945021126499 91.05274446962403 L297.5277249839868 90.69460027647733 L298.6609478553237 90.25159291824866 L299.7941707266606 89.71972565239003 L300.9273935979975 89.09587320653281 L302.06061646933443 88.37775172779254 L303.19383934067133 87.56388873207243 L304.3270636536025 86.65365315475964 L305.4602865249394 85.64722530002928 L306.5935093962763 84.54556679014854 L307.72673370920756 83.35045061617268 L308.85995658054446 82.06437098585718 L309.99317945188136 80.6904531715706 L311.12640232321826 79.23251361168593 L312.25962519455516 77.69493970779729 L313.39284806589205 76.08259967263251 L314.52607093722895 74.40084253005301 L315.6592952501602 72.65540796296625 L316.7925174006999 70.85239626262984 L317.925740992834 68.99811807517239 L319.0589638641709 67.09912445228935 L320.1921867355078 65.16211669915538 L321.32541032764186 63.19391632372856 L322.45863319897876 61.20128473257523 L323.59185607031566 59.191103535045215 L324.72507930205114 57.17016418840069 L325.85830235358736 55.145167997816316 L326.9915254952232 53.12272611637928 L328.12474852423446 51.10932949439325 L329.25797159829557 49.11131882868267 L330.3911947399314 47.134914613288686 L331.5244176112683 45.18612698738127 L332.6576408430038 43.27081583665142 L333.79086407473926 41.394720844006486 L334.92408694607616 39.563431438874716 L336.05730981741306 37.78229664511747 L337.19053340954713 36.05669553729206 L338.323756280884 34.39170668299715 L339.4569791522209 32.792378599135645 L340.590202744355 31.263669650522957 L341.7234256156919 29.810357897799236 L342.8566484870288 28.437161300213063 L343.9898713583657 27.14867761422954 L345.12309422970264 25.949324292138726 L346.25631710103954 24.843428634143095 L347.38954141397073 23.835227788357543 L348.52276428530763 22.928628345242657 L349.6559871566445 22.127506844563186 L350.7892100279814 21.435409268429453 L351.9224328993184 20.855611142689156 L353.05565721224957 20.391147587623266 L354.18888008358647 20.044633013770692 L355.32210295492337 19.818411375407834 L356.45532582626026 19.714285714285722 L357.58854869759716 19.733698463805183 L358.72177156893406 19.877551144841732 L359.854994440271 20.14620436574552 L360.9882173116079 20.539507873037337 L362.1214401829448 21.056740450016832 L363.2546630542817 21.696519764674747 L364.3878859256186 22.45695262317264 L365.5211087969555 23.335484716363112 L366.65433455148104 24.328960721181886 L367.78755742281794 25.433744503431058 L368.92078029415484 26.64550876290815 L370.05400316549174 27.959535540364584 L371.18722603682863 29.37056596402664 L372.32044890816553 30.872920452378423 L373.45367177950243 32.46061891694575 L374.5868946508394 34.12729061020826 L375.7201175221763 35.86641453116641 L376.8533432767018 37.67131942534144 L377.9865632648501 39.5351837847752 L379.1197890193756 41.4512762535972 L380.2530090075239 43.41295562802446 L381.3862347620494 45.41373095775327 L382.51945475019767 47.44738174874254 L383.6526805047232 49.50798801390977 L384.7859004928715 51.590050475914325 L385.919126247397 53.6885807192449 L387.0523462355453 55.799041088828176 L388.1855719900708 57.917555044899416 L389.31879774459634 60.04078696021918 L390.45201773274465 62.1660923735526 L391.5852434872702 64.29151798966944 L392.71846347541845 66.41580167934399 L393.851689229944 68.53831237796328 L394.98490921809224 70.65914023761502 L396.1181349726178 72.7790064749995 L397.2513549607661 74.89932347282178 L398.3845807152916 77.02198442492033 L399.5178007034399 79.14954364044257 L400.6510264579654 81.28488598619009 L401.7842464461137 83.43146729218569 L402.91747220063917 85.59295374332322 L404.0506921887875 87.77334208215069 L405.183917943313 89.97683940608721 L406.31714369783856 92.20768286324773 L407.4503636859868 94.47022980453056 L408.58358944051236 96.76865727665898 L409.7168094286606 99.10711227566026 L410.85003518318615 101.48944129060334 L411.98325517133446 103.91928045568613 L413.11648092585995 106.39978509397292 L414.24970091400826 108.93381002156957 L415.38292666853374 111.52366914205646 L416.51614665668205 114.17113544648885 L417.64937241120754 116.87750111478829 L418.78259239935585 119.64333711017593 L419.9158181538814 122.46876363543521 L421.04904390840693 125.35317967664906 L422.1822638965552 128.29538320598357 L423.3154896510807 131.29360123238342 L424.448709639229 134.3454597508765 L425.5819296273773 137.44804384396525 L426.71516114828006 140.59789768162693 L427.8483811364283 143.79111467340095 L428.9816011245766 147.0233675190848 L430.1148211127249 150.2899683101258 L431.24805263362765 153.5859286310128 L432.3812726217759 156.90595955927608 L433.5144926099242 160.24471207105424 L434.64771259807253 163.59664181296284 L435.7809441189753 166.95617438092165 L436.91416410712355 170.31779547224207 L438.0473840952718 173.67602083493136 L439.1806156161746 177.02559159721574 L440.3138356043229 180.3613690901047 L441.4470555924712 183.67850012621838 L442.58027558061946 186.97241699978753 L443.7135071015222 190.23891261339307 L444.8467270896705 193.4741104272703 L445.9799470778188 196.6745245607005 L447.1131670659671 199.83708984270694 L448.2463985868698 202.9591618120548 L449.3796185750181 206.03850169190318 L450.5128385631664 209.07330644050109 L451.6460585513147 212.06219372583934 L452.77929007221746 215.00417187495492 L453.9125100603657 217.89862484858287 L455.04573004851403 220.74532726650435 L456.1789615694168 223.54436928080682 L457.31218155756505 226.2961866265802 L458.44540154571337 229.0014554444811 L459.5786215338616 231.6611223314288 L460.7118530547644 234.27635926456148 L461.84507304291265 236.8485034998445 L462.97829303106096 239.3790876227662 L464.11151301920927 241.86970432020672 L465.24474454011204 244.3221265832212 L466.3779645282603 246.73814242821274 L467.51118451640855 249.1196149983241 L468.6444160373113 251.4684224620459 L469.7776360254596 253.78644298786884 L470.91085601360794 256.07559982032734 L472.0440760017562 258.33772605186823 L473.17730752265896 260.5746998509823 L474.3105275108072 262.7883092340726 L475.44374749895553 264.98035724289 L476.57696748710384 267.15257179244617 L477.7101990080066 269.3066507470565 L478.84341899615487 271.44424689499283 L479.9766389843031 273.56699799917897 L481.10985897245143 275.6765117718429 L482.2430904933542 277.7743207984731 L483.3763104815025 279.8619726899059 L484.50953046965077 281.9409699809336 L485.6427619905535 284.012800181001 L486.7759819787018 286.07892074885683 L487.9092019668501 288.14073655453205 L489.04242195499836 290.1996674934056 L490.17565347590113 292.25704330876886 L491.3088734640494 294.31417871856536 L492.4420934521977 296.37232833934684 L493.575313440346 298.43266414825143 L494.7085449612488 300.49629050835165 L495.84176494939703 302.56421411795844 L496.9749849375453 304.6373289852735 L498.1082049256936 306.71640891571485 L499.24143644659637 308.8020624358735 L500.3746564347447 310.894777869557 L501.50787642289293 312.99482567302806 L502.6411079437957 315.1023260490701 L503.77432793194396 317.21716630757356 L504.90754792009227 319.33903842890606 L506.0407679082406 321.4674090132163 L507.17399942914335 323.60151176776 L508.3072194172916 325.740362532248 L509.44043940543986 327.88272171547663 L510.5736593935882 330.02716190939293 L511.70689091449094 332.1719927623552 L512.8401109026393 334.31534361854693 L513.9733308907876 336.45514849262827 L515.1065624116902 338.5891385570625 L516.2397823998385 340.7149097561816 L517.3730023879868 342.82992280618623 L518.5062223761352 344.9315182204936 L519.6394538970378 347.0169463604334 L520.7726738851861 349.0834275366394 L521.9058938733344 351.1281407400387 L523.0391253942372 353.14826871789523 L524.1723338496311 355.1410317808429 L525.3055653705337 357.10371785358114 L526.4387968914366 359.0336937438861 L527.5720053468303 360.9284577313282 L528.7052368677331 362.78563956727214 L529.8384683886359 364.603038038247 L530.9716768440296 366.3786322349568 L532.1049083649325 368.1105928212916 L533.2381168203262 369.79731208502346 L534.371348341229 371.4373926687952 L535.5045798621318 373.02966259546884 L536.6377883175255 374.5731902934728 L537.7710198384284 376.0672583024438 L538.904251359331 377.5113707859003 L540.0374598147249 378.9052648002535 L541.1706913356277 380.2488652187639 L542.3038997910214 381.5423110258997 L543.4371313119243 382.7859139976305 L544.570362832827 383.9801549450897 L545.7035712882208 385.1256705673958 L546.8368028091236 386.2232309136299 L547.9700343300264 387.27372999199355 L549.1032427854202 388.27815947544985 L550.2364743063229 389.2375993108809 L551.3697058272256 390.15320081557155 L552.5029142826195 391.02617165186115 L553.6361458035223 391.8577626799646 L554.769354258916 392.6492585671295 L555.9025857798188 393.4019590059513 L557.0358173007215 394.117184348879 L558.1690257561154 394.796253070193 L559.3022572770182 395.44048740051085 L560.4354887979209 396.05120393594433 L561.5686972533147 396.629717394437 L562.7019287742174 397.1773274685844 L563.8351602951202 397.69533385098197 L564.9683687505141 398.18502120887746 L566.1016002714168 398.6476770267711 L567.2348087268106 399.08457939832084 L568.3680402477133 399.4970073562688 L569.5012717686161 399.88623993335716 L570.63448022401 400.25355991866496 L571.7677117449127 400.6002529185241 L572.9009432658155 400.92761017377194 L574.0341517212092 401.23692949883554 L575.167383242112 401.5295115253946 L576.3005916975059 401.80666251963436 L577.4338232184086 402.0696896868244 L578.5670547393114 402.3198974149814 L579.7002631947051 402.5585844576168 L580.8334947156079 402.7870382992308 L581.9667262365107 403.0065313989758 L583.0999346919045 403.2183099216455 L584.2331662128072 403.42359092042176 L585.3663977337101 403.62355576328525 L586.4996061891038 403.8193369858357 L587.6328377100066 404.01201735220815 L588.7660461654004 404.2026185860614 L589.8992776863031 404.3920947969888 L591.032509207206 404.5813240287596 L592.1657176625997 404.7711082593194 L593.2989491835025 404.96215837544196 L594.4321807044053 405.15510074631885 L595.565389159799 405.3504621982117 L596.6986206807019 405.54867846621033 L597.8318522016045 405.75008480339034 L598.9650606569984 405.95491973715 L600.0982921779012 406.1633245996684 L601.2315006332949 406.3753458756155 L602.3647321541978 406.59093942803185 L603.4979636751004 406.8099728460388 L604.6311721304943 407.03223342705485 L605.7644036513971 407.25743052450605 L606.8976351722998 407.4852054082107 L608.0308436276937 407.71513830751104 " fill="none" stroke-width="1.6500000000000001" stroke="rgb(187,187,187)" stroke-opacity="1.0">
          </path>
        </g>
      </g>
    </g>
    <g transform="translate(14.5 217.0 ) rotate(-90.0 ) ">
      <text class="axis-title-y" y="0.0" text-anchor="middle">
      density*
      </text>
    </g>
    <g transform="translate(376.50765333787484 461.5 ) ">
      <text class="axis-title-x" y="0.0" text-anchor="middle">
      x
      </text>
    </g>
    <path fill="rgb(0,0,0)" fill-opacity="0.0" stroke="rgb(187,187,187)" stroke-opacity="1.0" stroke-width="0.0" d="M0.0 0.0 L0.0 470.0 L705.0 470.0 L705.0 0.0 Z">
    </path>
  </g>
  <g id="xXxprefixXx2">
  </g>
</svg>