<svg xmlns="http://www.w3.org/2000/svg" xmlns:xlink="http://www.w3.org/1999/xlink" class="plt-container" width="600.0" height="400.0">
  <style type="text/css">
  .plt-container {
   font-family: Lucida Grande, sans-serif;
   user-select: none;
   -webkit-user-select: none;
   -moz-user-select: none;
   -ms-user-select: none;
}
text {
   text-rendering: optimizeLegibility;
}
#xXxprefixXx0 .plot-title {
   fill: #bbbbbb;
   font-family: Lucida Grande, sans-serif;
   font-size: 16.0px;
   font-weight: normal;
   font-style: normal;   
}
#xXxprefixXx0 .plot-subtitle {
   fill: #bbbbbb;
   font-family: Lucida Grande, sans-serif;
   font-size: 15.0px;
   font-weight: normal;
   font-style: normal;   
}
#xXxprefixXx0 .plot-caption {
   fill: #bbbbbb;
   font-family: Lucida Grande, sans-serif;
   font-size: 13.0px;
   font-weight: normal;
   font-style: normal;   
}
#xXxprefixXx0 .legend-title {
   fill: #bbbbbb;
   font-family: Lucida Grande, sans-serif;
   font-size: 15.0px;
   font-weight: normal;
   font-style: normal;   
}
#xXxprefixXx0 .legend-item {
   fill: #bbbbbb;
   font-family: Lucida Grande, sans-serif;
   font-size: 13.0px;
   font-weight: normal;
   font-style: normal;   
}
#xXxprefixXx0 .axis-title-x {
   fill: #bbbbbb;
   font-family: Lucida Grande, sans-serif;
   font-size: 15.0px;
   font-weight: normal;
   font-style: normal;   
}
#xXxprefixXx0 .axis-text-x {
   fill: #bbbbbb;
   font-family: Lucida Grande, sans-serif;
   font-size: 13.0px;
   font-weight: normal;
   font-style: normal;   
}
#xXxprefixXx2 .axis-tooltip-text-x {
   fill: #303030;
   font-family: Lucida Grande, sans-serif;
   font-size: 13.0px;
   font-weight: normal;
   font-style: normal;   
}
#xXxprefixXx0 .axis-title-y {
   fill: #bbbbbb;
   font-family: Lucida Grande, sans-serif;
   font-size: 15.0px;
   font-weight: normal;
   font-style: normal;   
}
#xXxprefixXx0 .axis-text-y {
   fill: #bbbbbb;
   font-family: Lucida Grande, sans-serif;
   font-size: 13.0px;
   font-weight: normal;
   font-style: normal;   
}
#xXxprefixXx2 .axis-tooltip-text-y {
   fill: #303030;
   font-family: Lucida Grande, sans-serif;
   font-size: 13.0px;
   font-weight: normal;
   font-style: normal;   
}
#xXxprefixXx0 .facet-strip-text-x {
   fill: #bbbbbb;
   font-family: Lucida Grande, sans-serif;
   font-size: 13.0px;
   font-weight: normal;
   font-style: normal;   
}
#xXxprefixXx0 .facet-strip-text-y {
   fill: #bbbbbb;
   font-family: Lucida Grande, sans-serif;
   font-size: 13.0px;
   font-weight: normal;
   font-style: normal;   
}
#xXxprefixXx2 .tooltip-text {
   fill: #bbbbbb;
   font-family: Lucida Grande, sans-serif;
   font-size: 13.0px;
   font-weight: normal;
   font-style: normal;   
}
#xXxprefixXx2 .tooltip-title {
   fill: #bbbbbb;
   font-family: Lucida Grande, sans-serif;
   font-size: 13.0px;
   font-weight: bold;
   font-style: normal;   
}
#xXxprefixXx2 .tooltip-label {
   fill: #bbbbbb;
   font-family: Lucida Grande, sans-serif;
   font-size: 13.0px;
   font-weight: bold;
   font-style: normal;   
}

  </style>
  <g id="xXxprefixXx0">
    <path fill-rule="evenodd" fill="rgb(48,48,48)" fill-opacity="1.0" d="M0.0 0.0 L0.0 400.0 L600.0 400.0 L600.0 0.0 Z">
    </path>
    <g transform="translate(23.0 10.0 ) ">
      <g transform="translate(35.01530667574961 344.0 ) ">
        <line x1="31.939668303273436" y1="-0.0" x2="31.939668303273436" y2="-344.0" stroke="rgb(71,71,71)" stroke-opacity="1.0" stroke-width="1.0">
        </line>
        <line x1="112.73626852798665" y1="-0.0" x2="112.73626852798665" y2="-344.0" stroke="rgb(71,71,71)" stroke-opacity="1.0" stroke-width="1.0">
        </line>
        <line x1="193.53286875269987" y1="-0.0" x2="193.53286875269987" y2="-344.0" stroke="rgb(71,71,71)" stroke-opacity="1.0" stroke-width="1.0">
        </line>
        <line x1="274.32946897741306" y1="-0.0" x2="274.32946897741306" y2="-344.0" stroke="rgb(71,71,71)" stroke-opacity="1.0" stroke-width="1.0">
        </line>
        <line x1="355.12606920212625" y1="-0.0" x2="355.12606920212625" y2="-344.0" stroke="rgb(71,71,71)" stroke-opacity="1.0" stroke-width="1.0">
        </line>
        <line x1="435.92266942683943" y1="-0.0" x2="435.92266942683943" y2="-344.0" stroke="rgb(71,71,71)" stroke-opacity="1.0" stroke-width="1.0">
        </line>
        <line x1="516.7192696515526" y1="-0.0" x2="516.7192696515526" y2="-344.0" stroke="rgb(71,71,71)" stroke-opacity="1.0" stroke-width="1.0">
        </line>
        <g transform="translate(31.939668303273436 0.0 ) ">
          <line stroke-width="1.0" stroke="rgb(187,187,187)" stroke-opacity="1.0" x2="0.0" y2="4.0">
          </line>
          <g transform="translate(0.0 7.0 ) ">
            <text class="axis-text-x" text-anchor="middle" dy="0.7em">
            -3
            </text>
          </g>
        </g>
        <g transform="translate(112.73626852798665 0.0 ) ">
          <line stroke-width="1.0" stroke="rgb(187,187,187)" stroke-opacity="1.0" x2="0.0" y2="4.0">
          </line>
          <g transform="translate(0.0 7.0 ) ">
            <text class="axis-text-x" text-anchor="middle" dy="0.7em">
            -2
            </text>
          </g>
        </g>
        <g transform="translate(193.53286875269987 0.0 ) ">
          <line stroke-width="1.0" stroke="rgb(187,187,187)" stroke-opacity="1.0" x2="0.0" y2="4.0">
          </line>
          <g transform="translate(0.0 7.0 ) ">
            <text class="axis-text-x" text-anchor="middle" dy="0.7em">
            -1
            </text>
          </g>
        </g>
        <g transform="translate(274.32946897741306 0.0 ) ">
          <line stroke-width="1.0" stroke="rgb(187,187,187)" stroke-opacity="1.0" x2="0.0" y2="4.0">
          </line>
          <g transform="translate(0.0 7.0 ) ">
            <text class="axis-text-x" text-anchor="middle" dy="0.7em">
            0
            </text>
          </g>
        </g>
        <g transform="translate(355.12606920212625 0.0 ) ">
          <line stroke-width="1.0" stroke="rgb(187,187,187)" stroke-opacity="1.0" x2="0.0" y2="4.0">
          </line>
          <g transform="translate(0.0 7.0 ) ">
            <text class="axis-text-x" text-anchor="middle" dy="0.7em">
            1
            </text>
          </g>
        </g>
        <g transform="translate(435.92266942683943 0.0 ) ">
          <line stroke-width="1.0" stroke="rgb(187,187,187)" stroke-opacity="1.0" x2="0.0" y2="4.0">
          </line>
          <g transform="translate(0.0 7.0 ) ">
            <text class="axis-text-x" text-anchor="middle" dy="0.7em">
            2
            </text>
          </g>
        </g>
        <g transform="translate(516.7192696515526 0.0 ) ">
          <line stroke-width="1.0" stroke="rgb(187,187,187)" stroke-opacity="1.0" x2="0.0" y2="4.0">
          </line>
          <g transform="translate(0.0 7.0 ) ">
            <text class="axis-text-x" text-anchor="middle" dy="0.7em">
            3
            </text>
          </g>
        </g>
        <line x1="0.0" y1="0.0" x2="531.9846933242504" y2="0.0" stroke-width="1.0" stroke="rgb(187,187,187)" stroke-opacity="1.0">
        </line>
      </g>
      <g transform="translate(35.01530667574961 0.0 ) ">
        <line x1="0.0" y1="302.10786085780427" x2="531.9846933242504" y2="302.10786085780427" stroke="rgb(71,71,71)" stroke-opacity="1.0" stroke-width="1.0">
        </line>
        <line x1="0.0" y1="260.21572171560854" x2="531.9846933242504" y2="260.21572171560854" stroke="rgb(71,71,71)" stroke-opacity="1.0" stroke-width="1.0">
        </line>
        <line x1="0.0" y1="218.32358257341275" x2="531.9846933242504" y2="218.32358257341275" stroke="rgb(71,71,71)" stroke-opacity="1.0" stroke-width="1.0">
        </line>
        <line x1="0.0" y1="176.43144343121705" x2="531.9846933242504" y2="176.43144343121705" stroke="rgb(71,71,71)" stroke-opacity="1.0" stroke-width="1.0">
        </line>
        <line x1="0.0" y1="134.53930428902132" x2="531.9846933242504" y2="134.53930428902132" stroke="rgb(71,71,71)" stroke-opacity="1.0" stroke-width="1.0">
        </line>
        <line x1="0.0" y1="92.64716514682559" x2="531.9846933242504" y2="92.64716514682559" stroke="rgb(71,71,71)" stroke-opacity="1.0" stroke-width="1.0">
        </line>
        <line x1="0.0" y1="50.75502600462988" x2="531.9846933242504" y2="50.75502600462988" stroke="rgb(71,71,71)" stroke-opacity="1.0" stroke-width="1.0">
        </line>
        <line x1="0.0" y1="8.862886862434152" x2="531.9846933242504" y2="8.862886862434152" stroke="rgb(71,71,71)" stroke-opacity="1.0" stroke-width="1.0">
        </line>
        <g transform="translate(0.0 344.0 ) ">
          <g transform="translate(-3.0 0.0 ) ">
            <text class="axis-text-y" text-anchor="end" dy="0.35em">
            0.00
            </text>
          </g>
        </g>
        <g transform="translate(0.0 302.10786085780427 ) ">
          <g transform="translate(-3.0 0.0 ) ">
            <text class="axis-text-y" text-anchor="end" dy="0.35em">
            0.05
            </text>
          </g>
        </g>
        <g transform="translate(0.0 260.21572171560854 ) ">
          <g transform="translate(-3.0 0.0 ) ">
            <text class="axis-text-y" text-anchor="end" dy="0.35em">
            0.10
            </text>
          </g>
        </g>
        <g transform="translate(0.0 218.32358257341275 ) ">
          <g transform="translate(-3.0 0.0 ) ">
            <text class="axis-text-y" text-anchor="end" dy="0.35em">
            0.15
            </text>
          </g>
        </g>
        <g transform="translate(0.0 176.43144343121705 ) ">
          <g transform="translate(-3.0 0.0 ) ">
            <text class="axis-text-y" text-anchor="end" dy="0.35em">
            0.20
            </text>
          </g>
        </g>
        <g transform="translate(0.0 134.53930428902132 ) ">
          <g transform="translate(-3.0 0.0 ) ">
            <text class="axis-text-y" text-anchor="end" dy="0.35em">
            0.25
            </text>
          </g>
        </g>
        <g transform="translate(0.0 92.64716514682559 ) ">
          <g transform="translate(-3.0 0.0 ) ">
            <text class="axis-text-y" text-anchor="end" dy="0.35em">
            0.30
            </text>
          </g>
        </g>
        <g transform="translate(0.0 50.75502600462988 ) ">
          <g transform="translate(-3.0 0.0 ) ">
            <text class="axis-text-y" text-anchor="end" dy="0.35em">
            0.35
            </text>
          </g>
        </g>
        <g transform="translate(0.0 8.862886862434152 ) ">
          <g transform="translate(-3.0 0.0 ) ">
            <text class="axis-text-y" text-anchor="end" dy="0.35em">
            0.40
            </text>
          </g>
        </g>
      </g>
      <g transform="translate(35.01530667574961 0.0 ) " clip-path="url(#xXxprefixXx1)" clip-bounds-jfx="[rect (0.0, 0.0), (531.9846933242504, 344.0)]">
        <defs>
          <clipPath id="xXxprefixXx1">
            <rect x="0.0" y="0.0" width="531.9846933242504" height="344.0">
            </rect>
          </clipPath>
        </defs>
        <g>
          <path d="M24.181122423829578 340.0175070515294 L24.181122423829578 340.0175070515294 L25.127546002061678 339.84772418720814 L26.07396958029372 339.6754054917951 L27.02039315852582 339.50064321135085 L27.966816736757863 339.3235222954652 L28.913240314989963 339.1441202542304 L29.859663893222063 338.9625072023653 L30.806087471454106 338.77874607746685 L31.752511049686206 338.59289301253716 L32.69893462791825 338.40499783612046 L33.64535820615035 338.2151046667833 L34.59178178438242 338.0232525624885 L35.53820536261449 337.8294761798723 L36.48462894084659 337.63380639375737 L37.43105251907866 337.43627082364947 L38.37747609731073 337.23689421168586 L39.323899675542805 337.03569859572787 L40.270323253774876 336.83270322219306 L41.216746832006976 336.6279241459386 L42.16317041023905 336.4213734691392 L43.10959398847112 336.2130581776885 L44.05601756670319 336.00297854218513 L45.00244114493526 335.7911260609675 L45.94886472316736 335.57748093479097 L46.89528830139943 335.3620090763934 L47.841711879631504 335.14465867308735 L48.788135457863575 334.9253563363153 L49.734559036095675 334.7040028884092 L50.68098261432772 334.4804688531591 L51.62740619255982 334.2545897327409 L52.57382977079189 334.0261611685699 L53.52025334902396 333.7949340972221 L54.46667692725606 333.5606100241944 L55.4131005054881 333.32283654748056 L56.3595240837202 333.08120326928486 L57.305947661952246 332.8352382373108 L58.252371240184345 332.5844050566494 L59.198794818416445 332.3281008091495 L60.14521839664849 332.0656549091784 L61.09164197488059 331.7963290128861 L62.03806555311269 331.5193180825943 L62.98448913134473 331.2337526889875 L63.93091270957683 330.9387026117352 L64.87733628780887 330.6331817744913 L65.82375986604097 330.3161545234377 L66.77018344427302 329.98654323031025 L67.71660702250512 329.6432371718411 L68.66303060073722 329.2851026085176 L69.60945417896926 328.910993957225 L70.55587775720136 328.519765925462 L71.5023013354334 328.11028645009355 L72.4487249136655 327.6814502616957 L73.39514849189757 327.2321928770383 L74.34157207012964 326.76150480762584 L75.28799564836174 326.2684457618745 L76.23441922659379 325.7521586126919 L77.18084280482589 325.2118829011075 L78.12726638305799 324.6469676501705 L79.07368996129003 324.0568832714918 L80.0201135395221 323.44123235930823 L80.96653711775417 322.7997591834616 L81.91296069598627 322.13235771275754 L82.85938427421834 321.4390780232834 L83.80580785245041 320.7201309718404 L84.75223143068251 319.9758910420397 L85.69865500891459 319.2068972991968 L86.64507858714666 318.4138524192643 L87.59150216537873 317.5976197860522 L88.5379257436108 316.75921867929 L89.48434932184287 315.8998176031506 L90.43077290007497 315.02072583020004 L91.37719647830704 314.12338325895035 L92.32362005653911 313.20934870396263 L93.27004363477118 312.2802867555227 L94.21646721300326 311.3379533611467 L95.16289079123536 310.38418029349157 L96.1093143694674 309.42085867865194 L97.0557379476995 308.4499217653804 L98.0021615259316 307.47332711962247 L98.94858510416364 306.4930384300609 L99.89500868239574 305.511007109349 L100.84143226062781 304.52915387261106 L101.78785583885988 303.54935046984366 L102.73427941709198 302.5734017423344 L103.68070299532403 301.6030281653608 L104.62712657355613 300.6398490304904 L105.57355015178817 299.6853664109938 L106.51997373002027 298.7409500433953 L107.46639730825237 297.80782324721355 L108.41282088648441 296.8870499936297 L109.35924446471648 295.979523222283 L110.30566804294861 295.08595449376486 L111.25209162118065 294.2068650537213 L112.1985151994127 293.3425783728627 L113.1449387776448 292.4932142156824 L114.09136235587687 291.65868427932435 L115.03778593410894 290.8386894328654 L115.98420951234104 290.0327185763186 L116.93063309057311 289.24004912791827 L117.87705666880518 288.4597491377603 L118.82348024703725 287.69068101562425 L119.76990382526932 286.93150685081275 L120.71632740350142 286.1806952921007 L121.6627509817335 285.43652994637284 L122.60917455996557 284.69711924523267 L123.55559813819764 283.9604077197489 L124.50202171642971 283.22418861454116 L125.44844529466181 282.48611776354863 L126.39486887289388 281.7437286410352 L127.34129245112595 280.99444849262113 L128.28771602935802 280.235615442366 L129.23413960759012 279.4644964631232 L130.1805631858222 278.678306088575 L131.12698676405427 277.8742257365126 L132.07341034228634 277.0494235041468 L133.0198339205184 276.2010742875777 L133.9662574987505 275.3263800691516 L134.91268107698258 274.4225902084569 L135.85910465521465 273.48702156536797 L136.80552823344672 272.517078277073 L137.75195181167882 271.51027100570707 L138.6983753899109 270.46423546936023 L139.64479896814296 269.37675006715796 L140.59122254637504 268.24575240915897 L141.5376461246071 267.06935456428675 L142.48406970283918 265.84585684472097 L143.43049328107128 264.5737599533532 L144.37691685930335 263.2517753322933 L145.32334043753542 261.8788335650959 L146.2697640157675 260.45409070343794 L147.21618759399956 258.97693241034955 L148.16261117223166 257.4469758366655 L149.10903475046374 255.86406917484555 L150.0554583286958 254.22828886437696 L151.00188190692788 252.53993445515687 L151.94830548515995 250.7995211690219 L152.89472906339202 249.00777023430857 L153.84115264162412 247.16559710332905 L154.7875762198562 245.27409769717553 L155.73399979808826 243.3345328556004 L156.68042337632033 241.34831120108876 L157.6268469545524 239.31697065492997 L158.57327053278448 237.2421588684188 L159.51969411101658 235.1256128536893 L160.46611768924865 232.96913811552946 L161.41254126748072 230.77458759748856 L162.35896484571282 228.54384076231406 L163.30538842394486 226.27878312806547 L164.25181200217696 223.98128657710757 L165.19823558040903 221.65319074562558 L166.1446591586411 219.2962857865154 L167.0910827368732 216.91229677877828 L168.03750631510525 214.5028700322688 L168.98392989333735 212.0695615082841 L169.9303534715694 209.61382754456474 L170.8767770498015 207.1370180383945 L171.8232006280336 204.6403722042414 L172.76962420626563 202.12501698342885 L173.71604778449773 199.5919681432437 L174.66247136272978 197.04213406237892 L175.60889494096187 194.47632215914734 L176.55531851919397 191.89524787920143 L177.50174209742602 189.29954612092175 L178.44816567565812 186.68978493980572 L179.39458925389016 184.0664813384728 L180.34101283212226 181.43011891669963 L181.28743641035436 178.78116712661634 L182.2338599885864 176.12010185208285 L183.1802835668185 173.4474270086529 L184.12670714505057 170.76369684164712 L185.07313072328265 168.06953858487705 L186.01955430151472 165.3656751317012 L186.9659778797468 162.65294736347474 L187.91240145797886 159.93233577811156 L188.85882503621096 157.20498106360202 L189.80524861444303 154.4722032677615 L190.7516721926751 151.73551922635852 L191.69809577090717 148.99665792688208 L192.64451934913924 146.25757350448893 L193.59094292737134 143.52045558993322 L194.53736650560342 140.78773675626206 L195.4837900838355 138.0620968415164 L196.4302136620676 135.34646395826204 L197.37663724029963 132.64401203709255 L198.32306081853173 129.95815478996815 L199.2694843967638 127.2925360198627 L200.21590797499587 124.65101624530436 L201.16233155322797 122.03765565152946 L202.10875513146004 119.45669342365755 L203.05517870969211 116.91252356114455 L204.0016022879242 114.4096673162486 L204.94802586615626 111.95274244205513 L205.89444944438833 109.54642947725668 L206.84087302262043 107.19543533508019 L207.7872966008525 104.90445450210564 L208.73372017908457 102.67812818894373 L209.68014375731664 100.52100180848922 L210.6265673355487 98.43748118850266 L211.5729909137808 96.4317879532004 L212.51941449201288 94.50791453322486 L213.46583807024496 92.6695792842838 L214.41226164847703 90.92018221180263 L215.3586852267091 89.26276181162191 L216.3051088049412 87.69995354480767 L217.25153238317327 86.23395046762187 L218.19795596140534 84.86646653531687 L219.1443795396374 83.59870309014389 L220.09080311786948 82.43131902963114 L221.03722669610158 81.36440513031954 L221.98365027433363 80.39746297449045 L222.93007385256573 79.52938889286611 L223.87649743079783 78.75846329454527 L224.82292100902987 78.0823457066972 L225.76934458726197 77.4980757908159 L226.715768165494 77.00208053995084 L227.6621917437261 76.59018779272816 L228.6086153219582 76.25764612576205 L229.55503890019025 75.99915110708105 L230.50146247842235 75.80887781027491 L231.4478860566544 75.6805194036055 L232.3943096348865 75.60733154129855 L233.34073321311854 75.58218219732515 L234.28715679135064 75.5976064965634 L235.23358036958274 75.64586601592288 L236.18000394781478 75.71901195056051 L237.12642752604688 75.80895146919056 L238.07285110427893 75.90751651942213 L239.01927468251102 76.00653429051931 L239.96569826074312 76.09789849839899 L240.91212183897517 76.17364062719639 L241.85854541720727 76.22600024458558 L242.8049689954393 76.24749350477987 L243.7513925736714 76.23097896464589 L244.6978161519035 76.16971986456366 L245.64423973013555 76.05744206687092 L246.59066330836765 75.88838690040649 L247.5370868865997 75.6573582292649 L248.4835104648318 75.3597631465023 L249.42993404306387 74.99164578788901 L250.37635762129594 74.54971386543184 L251.32278119952804 74.03135763355726 L252.26920477776008 73.43466112049941 L253.21562835599218 72.75840558145933 L254.16205193422425 72.00206525617057 L255.10847551245632 71.16579563905907 L256.0548990906884 70.25041459295977 L257.00132266892047 69.25737675450097 L257.94774624715257 68.18874178862825 L258.8941698253846 67.04713714868177 L259.8405934036167 65.83571608489655 L260.78701698184875 64.5581117159569 L261.73344056008085 63.21838803374641 L262.67986413831295 61.82098874897565 L263.626287716545 60.370684904039706 L264.5727112947771 58.872522178422 L265.51913487300914 57.331768790949695 L266.46555845124124 55.75386486248061 L267.41198202947334 54.14437404266681 L268.3584056077054 52.50893812661536 L269.3048291859375 50.85323529297847 L270.2512527641695 49.182942486469926 L271.1976763424016 47.503702347402566 L272.1440999206337 45.82109496151145 L273.09052349886576 44.14061456815193 L274.03694707709786 42.46765122745279 L274.98337065532996 40.80747731063809 L275.929794233562 39.165238546191745 L276.8762178117941 37.54594923136972 L277.82264139002615 35.954491107256786 L278.76906496825825 34.39561529926743 L279.71548854649035 32.873946646584784 L280.6619121247224 31.39398968592309 L281.6083357029545 29.96013551902348 L282.55475928118653 28.576668780805335 L283.50118285941863 27.24777393662424 L284.44760643765073 25.97754017266908 L285.3940300158828 24.769964202303584 L286.3404535941149 23.62895039168876 L287.286877172347 22.558307708235304 L288.233300750579 21.561743112463205 L289.1797243288111 20.64285114450189 L290.12614790704316 19.805099596983723 L291.07257148527526 19.051811312364237 L292.01899506350736 18.386142290522855 L292.9654186417394 17.81105643741165 L293.9118422199715 17.32929742325274 L294.85826579820355 16.943358245229604 L295.80468937643565 16.655449200812484 L296.75111295466775 16.467465070617266 L297.6975365328998 16.380952380952408 L298.6439601111319 16.397077663856294 L299.590383689364 16.516597654889893 L300.53680726759603 16.73983236533394 L301.48323084582813 17.06664193583049 L302.4296544240602 17.496408123382537 L303.3760780022923 18.02802119459608 L304.3225015805243 18.659872896952947 L305.2689251587564 19.389856059584815 L306.2153487369885 20.215371238496232 L307.16177231522056 21.13334067208183 L308.10819589345266 22.14022965493308 L309.0546194716847 23.23207527533293 L310.0010430499168 24.404522298611653 L310.9474666281489 25.65286581864956 L311.89389020638095 26.972100147159153 L312.84031378461304 28.356973268496063 L313.7867373628451 29.80204605992151 L314.7331609410772 31.3017553662076 L315.67958451930923 32.85047992565217 L316.62600809754133 34.44260807367084 L317.57243167577343 36.07260610151968 L318.5188552540055 37.73508612210583 L319.4652788322376 39.42487229233615 L320.4117024104696 41.13706426197149 L321.3581259887017 42.86709676145563 L322.3045495669338 44.61079430466572 L323.25097314516586 46.36442006527153 L324.19739672339796 48.12471808551163 L325.14382030163 49.88894809153476 L326.0902438798621 51.65491231756596 L327.0366674580942 53.420973879454664 L327.98309103632624 55.186066384106425 L328.92951461455834 56.949694611972006 L329.8759381927904 58.71192626261063 L330.8223617710225 60.473374905544006 L331.76878534925453 62.235174427591005 L332.71520892748663 63.998945411069656 L333.6616325057187 65.76675401227425 L334.60805608395077 67.54106403425385 L335.55447966218287 69.32468300007281 L336.5009032404149 71.12070313058979 L337.447326818647 72.9324382127374 L338.3937503968791 74.7633574089831 L339.34017397511116 76.61701710501058 L340.28659755334326 78.49699191992977 L341.2330211315753 80.40680601098501 L342.1794447098074 82.34986579272714 L343.12586828803944 84.32939515904383 L344.07229186627154 86.34837424594309 L345.01871544450364 88.40948270435251 L345.9651390227357 90.51504836674226 L346.9115626009678 92.66700209056415 L347.8579861791999 94.86683944727451 L348.8044097574319 97.1155898001146 L349.750833335664 99.41379317932288 L350.69725691389607 101.76148522255954 L351.64368049212817 104.15819030381621 L352.59010407036027 106.60292282873064 L353.5365276485923 109.09419653092337 L354.4829512268244 111.63004146552368 L355.4293748050565 114.20802826516896 L356.37579838328855 116.82529910302432 L357.32222196152065 119.47860469912243 L358.2686455397527 122.16434661260001 L359.2150691179848 124.87862398498714 L360.1614926962169 127.61728383989961 L361.10791627444894 130.3759740033066 L362.05433985268104 133.15019768646533 L363.0007634309131 135.935368770808 L363.9471870091452 138.72686685013727 L364.8936105873772 141.52009111970014 L365.8400341656093 144.3105122529617 L366.7864577438414 147.09372147359832 L367.73288132207347 149.86547611064464 L368.67930490030557 152.6217410166885 L369.62572847853767 155.35872533028802 L370.5721520567697 158.0729141718788 L371.5185756350018 160.76109497487278 L372.4649992132339 163.4203782678436 L373.41142279146595 166.04821283715953 L374.357846369698 168.64239530974385 L375.3042699479301 171.20107430057396 L376.2506935261622 173.7227493670185 L377.19711710439424 176.20626510032534 L378.14354068262634 178.65080076199152 L379.08996426085844 181.05585593810903 L380.0363878390905 183.42123273715103 L380.9828114173225 185.7470150954209 L381.9292349955547 188.0335457792505 L382.8756585737867 190.281401683984 L383.82208215201877 192.49136802717769 L384.7685057302509 194.66441201782376 L385.71492930848297 196.8016565556691 L386.661352886715 198.90435447589198 L387.60777646494705 200.9738638058025 L388.5542000431792 203.0116244433227 L389.50062362141125 205.01913660329825 L390.4470471996433 206.99794130894506 L391.39347077787545 208.9496031335953 L392.3398943561075 210.87569532422054 L393.28631793433954 212.77778736467494 L394.2327415125717 214.65743496494838 L395.17916509080374 216.51617239460376 L396.1255886690358 218.35550701549815 L397.0720122472678 220.17691581226683 L398.0184358255 221.98184367010674 L398.964859403732 223.7717031091857 L399.91128298196406 225.54787515433787 L400.8577065601962 227.3117109982105 L401.80413013842826 229.06453410605158 L402.7505537166603 230.80764241098242 L403.69697729489235 232.54231025973357 L404.6434008731245 234.2697897900403 L405.58982445135655 235.99131145152165 L406.5362480295886 237.7080834210305 L407.48267160782075 239.42128971002785 L408.4290951860528 241.13208681420986 L409.37551876428483 242.84159881291998 L410.321942342517 244.55091088619784 L411.26836592074903 246.26106127897953 L412.2147894989811 247.97303180320912 L413.1612130772131 249.68773702771148 L414.1076366554453 251.40601236093084 L415.0540602336773 253.12860128143484 L416.00048381190936 254.85614201397556 L416.9469073901415 256.5891539835919 L417.89333096837356 258.3280244056843 L418.8397545466056 260.07299538537234 L419.78617812483765 261.8241519042354 L420.7326017030698 263.58141106650004 L421.67902528130185 265.3445129599488 L422.6254488595339 267.1130134596625 L423.57187243776605 268.88627926584223 L424.5182960159981 270.6634854213583 L425.46471959423013 272.44361550153513 L426.4111431724623 274.22546460944204 L427.35756675069433 276.00764524622736 L428.3039903289264 277.78859605954034 L429.2504139071584 279.5665934056534 L430.1968374853906 281.3397655943754 L431.1432610636226 283.1061096220453 L432.08968464185466 284.86351013856427 L433.0361082200868 286.60976034115316 L433.98253179831886 288.3425844417593 L434.9289553765509 290.0596613179768 L435.87537895478295 291.758648929947 L436.8218025330151 293.4372090686596 L437.76822611124715 295.0930319947471 L438.7146496894792 296.7238605313456 L439.66107326771134 298.32751318965285 L440.6074968459434 299.9019059309338 L441.55392042417543 301.4450722031198 L442.5003440024075 302.95518093276877 L443.44676758063963 304.4305522027701 L444.3931911588717 305.86967040135454 L445.3396147371037 307.2711946871599 L446.2860383153359 308.63396667668013 L447.2324618935679 309.9570153227279 L448.17888547179996 311.23955901391685 L449.1253090500321 312.48100498404483 L450.07173262826416 313.6809461751577 L451.0181562064962 314.8391557476684 L451.9645797847283 315.95557947405064 L452.9110033629604 317.0303262883896 L453.85742694119244 318.0636572917506 L454.8038505194245 319.0559735324493 L455.75027409765664 320.00780289067563 L456.6966976758887 320.91978639856984 L457.64312125412073 321.7926643200462 L458.58954483235283 322.62726229991284 L459.5359684105849 323.42447786984565 L460.48239198881697 324.18526757041485 L461.42881556704907 324.91063491465763 L462.37523914528117 325.60161938076897 L463.3216627235132 326.25928658055096 L464.2680863017453 326.88471970756154 L465.2145098799774 327.4790123256732 L466.16093345820946 328.04326251621063 L467.1073570364415 328.57856836111114 L468.0537806146736 329.086024701696 L469.0002041929057 329.5667210785766 L469.94662777113774 330.02174072871577 L470.89305134936984 330.4521604913562 L471.83947492760194 330.8590514558466 L472.785898505834 331.24348017162896 L473.7323220840661 331.60651023388425 L474.6787456622981 331.94920405749696 L475.6251692405302 332.27262465685294 L476.5715928187623 332.5778372591433 L477.51801639699437 332.8659105937868 L478.46443997522647 333.1379177196785 L479.4108635534585 333.39493627449673 L480.3572871316906 333.638048055472 L481.3037107099227 333.86833786800815 L482.25013428815475 334.0868916065083 L483.19655786638685 334.29479355985643 L484.1429814446189 334.4931229614404 L485.089405022851 334.68294982961424 L486.0358286010831 334.86533016841577 L486.98225217931514 335.0413006195767 L487.92867575754724 335.21187267489546 L488.87509933577934 335.378026572508 L489.8215229140114 335.5407050112088 L490.7679464922434 335.7008068236001 L491.7143700704755 335.8591807514416 L492.6607936487076 336.0166194652129 L493.60721722693967 336.17385396476703 L494.55364080517177 336.33154848932577 L495.50006438340387 336.490296053298 L496.4464879616359 336.6506147099279 L497.392911539868 336.81294462807557 L498.3393351181001 336.9776460490183 L499.28575869633215 337.1449981705838 L500.23218227456425 337.3151989857224 L501.17860585279635 337.488366082341 L502.1250294310284 337.66453839135846 L503.07145300926044 337.8436788509883 L504.01787658749254 338.02567793761904 L504.96430016572464 338.2103579977381 L505.9107237439567 338.39747830141675 L506.8571473221888 338.5867407261959 L507.8035709004209 338.7777959709447 L507.8035709004209 344.0 L506.8571473221888 344.0 L505.9107237439567 344.0 L504.96430016572464 344.0 L504.01787658749254 344.0 L503.07145300926044 344.0 L502.1250294310284 344.0 L501.17860585279635 344.0 L500.23218227456425 344.0 L499.28575869633215 344.0 L498.3393351181001 344.0 L497.392911539868 344.0 L496.4464879616359 344.0 L495.50006438340387 344.0 L494.55364080517177 344.0 L493.60721722693967 344.0 L492.6607936487076 344.0 L491.7143700704755 344.0 L490.7679464922434 344.0 L489.8215229140114 344.0 L488.87509933577934 344.0 L487.92867575754724 344.0 L486.98225217931514 344.0 L486.0358286010831 344.0 L485.089405022851 344.0 L484.1429814446189 344.0 L483.19655786638685 344.0 L482.25013428815475 344.0 L481.3037107099227 344.0 L480.3572871316906 344.0 L479.4108635534585 344.0 L478.46443997522647 344.0 L477.51801639699437 344.0 L476.5715928187623 344.0 L475.6251692405302 344.0 L474.6787456622981 344.0 L473.7323220840661 344.0 L472.785898505834 344.0 L471.83947492760194 344.0 L470.89305134936984 344.0 L469.94662777113774 344.0 L469.0002041929057 344.0 L468.0537806146736 344.0 L467.1073570364415 344.0 L466.16093345820946 344.0 L465.2145098799774 344.0 L464.2680863017453 344.0 L463.3216627235132 344.0 L462.37523914528117 344.0 L461.42881556704907 344.0 L460.48239198881697 344.0 L459.5359684105849 344.0 L458.58954483235283 344.0 L457.64312125412073 344.0 L456.6966976758887 344.0 L455.75027409765664 344.0 L454.8038505194245 344.0 L453.85742694119244 344.0 L452.9110033629604 344.0 L451.9645797847283 344.0 L451.0181562064962 344.0 L450.07173262826416 344.0 L449.1253090500321 344.0 L448.17888547179996 344.0 L447.2324618935679 344.0 L446.2860383153359 344.0 L445.3396147371037 344.0 L444.3931911588717 344.0 L443.44676758063963 344.0 L442.5003440024075 344.0 L441.55392042417543 344.0 L440.6074968459434 344.0 L439.66107326771134 344.0 L438.7146496894792 344.0 L437.76822611124715 344.0 L436.8218025330151 344.0 L435.87537895478295 344.0 L434.9289553765509 344.0 L433.98253179831886 344.0 L433.0361082200868 344.0 L432.08968464185466 344.0 L431.1432610636226 344.0 L430.1968374853906 344.0 L429.2504139071584 344.0 L428.3039903289264 344.0 L427.35756675069433 344.0 L426.4111431724623 344.0 L425.46471959423013 344.0 L424.5182960159981 344.0 L423.57187243776605 344.0 L422.6254488595339 344.0 L421.67902528130185 344.0 L420.7326017030698 344.0 L419.78617812483765 344.0 L418.8397545466056 344.0 L417.89333096837356 344.0 L416.9469073901415 344.0 L416.00048381190936 344.0 L415.0540602336773 344.0 L414.1076366554453 344.0 L413.1612130772131 344.0 L412.2147894989811 344.0 L411.26836592074903 344.0 L410.321942342517 344.0 L409.37551876428483 344.0 L408.4290951860528 344.0 L407.48267160782075 344.0 L406.5362480295886 344.0 L405.58982445135655 344.0 L404.6434008731245 344.0 L403.69697729489235 344.0 L402.7505537166603 344.0 L401.80413013842826 344.0 L400.8577065601962 344.0 L399.91128298196406 344.0 L398.964859403732 344.0 L398.0184358255 344.0 L397.0720122472678 344.0 L396.1255886690358 344.0 L395.17916509080374 344.0 L394.2327415125717 344.0 L393.28631793433954 344.0 L392.3398943561075 344.0 L391.39347077787545 344.0 L390.4470471996433 344.0 L389.50062362141125 344.0 L388.5542000431792 344.0 L387.60777646494705 344.0 L386.661352886715 344.0 L385.71492930848297 344.0 L384.7685057302509 344.0 L383.82208215201877 344.0 L382.8756585737867 344.0 L381.9292349955547 344.0 L380.9828114173225 344.0 L380.0363878390905 344.0 L379.08996426085844 344.0 L378.14354068262634 344.0 L377.19711710439424 344.0 L376.2506935261622 344.0 L375.3042699479301 344.0 L374.357846369698 344.0 L373.41142279146595 344.0 L372.4649992132339 344.0 L371.5185756350018 344.0 L370.5721520567697 344.0 L369.62572847853767 344.0 L368.67930490030557 344.0 L367.73288132207347 344.0 L366.7864577438414 344.0 L365.8400341656093 344.0 L364.8936105873772 344.0 L363.9471870091452 344.0 L363.0007634309131 344.0 L362.05433985268104 344.0 L361.10791627444894 344.0 L360.1614926962169 344.0 L359.2150691179848 344.0 L358.2686455397527 344.0 L357.32222196152065 344.0 L356.37579838328855 344.0 L355.4293748050565 344.0 L354.4829512268244 344.0 L353.5365276485923 344.0 L352.59010407036027 344.0 L351.64368049212817 344.0 L350.69725691389607 344.0 L349.750833335664 344.0 L348.8044097574319 344.0 L347.8579861791999 344.0 L346.9115626009678 344.0 L345.9651390227357 344.0 L345.01871544450364 344.0 L344.07229186627154 344.0 L343.12586828803944 344.0 L342.1794447098074 344.0 L341.2330211315753 344.0 L340.28659755334326 344.0 L339.34017397511116 344.0 L338.3937503968791 344.0 L337.447326818647 344.0 L336.5009032404149 344.0 L335.55447966218287 344.0 L334.60805608395077 344.0 L333.6616325057187 344.0 L332.71520892748663 344.0 L331.76878534925453 344.0 L330.8223617710225 344.0 L329.8759381927904 344.0 L328.92951461455834 344.0 L327.98309103632624 344.0 L327.0366674580942 344.0 L326.0902438798621 344.0 L325.14382030163 344.0 L324.19739672339796 344.0 L323.25097314516586 344.0 L322.3045495669338 344.0 L321.3581259887017 344.0 L320.4117024104696 344.0 L319.4652788322376 344.0 L318.5188552540055 344.0 L317.57243167577343 344.0 L316.62600809754133 344.0 L315.67958451930923 344.0 L314.7331609410772 344.0 L313.7867373628451 344.0 L312.84031378461304 344.0 L311.89389020638095 344.0 L310.9474666281489 344.0 L310.0010430499168 344.0 L309.0546194716847 344.0 L308.10819589345266 344.0 L307.16177231522056 344.0 L306.2153487369885 344.0 L305.2689251587564 344.0 L304.3225015805243 344.0 L303.3760780022923 344.0 L302.4296544240602 344.0 L301.48323084582813 344.0 L300.53680726759603 344.0 L299.590383689364 344.0 L298.6439601111319 344.0 L297.6975365328998 344.0 L296.75111295466775 344.0 L295.80468937643565 344.0 L294.85826579820355 344.0 L293.9118422199715 344.0 L292.9654186417394 344.0 L292.01899506350736 344.0 L291.07257148527526 344.0 L290.12614790704316 344.0 L289.1797243288111 344.0 L288.233300750579 344.0 L287.286877172347 344.0 L286.3404535941149 344.0 L285.3940300158828 344.0 L284.44760643765073 344.0 L283.50118285941863 344.0 L282.55475928118653 344.0 L281.6083357029545 344.0 L280.6619121247224 344.0 L279.71548854649035 344.0 L278.76906496825825 344.0 L277.82264139002615 344.0 L276.8762178117941 344.0 L275.929794233562 344.0 L274.98337065532996 344.0 L274.03694707709786 344.0 L273.09052349886576 344.0 L272.1440999206337 344.0 L271.1976763424016 344.0 L270.2512527641695 344.0 L269.3048291859375 344.0 L268.3584056077054 344.0 L267.41198202947334 344.0 L266.46555845124124 344.0 L265.51913487300914 344.0 L264.5727112947771 344.0 L263.626287716545 344.0 L262.67986413831295 344.0 L261.73344056008085 344.0 L260.78701698184875 344.0 L259.8405934036167 344.0 L258.8941698253846 344.0 L257.94774624715257 344.0 L257.00132266892047 344.0 L256.0548990906884 344.0 L255.10847551245632 344.0 L254.16205193422425 344.0 L253.21562835599218 344.0 L252.26920477776008 344.0 L251.32278119952804 344.0 L250.37635762129594 344.0 L249.42993404306387 344.0 L248.4835104648318 344.0 L247.5370868865997 344.0 L246.59066330836765 344.0 L245.64423973013555 344.0 L244.6978161519035 344.0 L243.7513925736714 344.0 L242.8049689954393 344.0 L241.85854541720727 344.0 L240.91212183897517 344.0 L239.96569826074312 344.0 L239.01927468251102 344.0 L238.07285110427893 344.0 L237.12642752604688 344.0 L236.18000394781478 344.0 L235.23358036958274 344.0 L234.28715679135064 344.0 L233.34073321311854 344.0 L232.3943096348865 344.0 L231.4478860566544 344.0 L230.50146247842235 344.0 L229.55503890019025 344.0 L228.6086153219582 344.0 L227.6621917437261 344.0 L226.715768165494 344.0 L225.76934458726197 344.0 L224.82292100902987 344.0 L223.87649743079783 344.0 L222.93007385256573 344.0 L221.98365027433363 344.0 L221.03722669610158 344.0 L220.09080311786948 344.0 L219.1443795396374 344.0 L218.19795596140534 344.0 L217.25153238317327 344.0 L216.3051088049412 344.0 L215.3586852267091 344.0 L214.41226164847703 344.0 L213.46583807024496 344.0 L212.51941449201288 344.0 L211.5729909137808 344.0 L210.6265673355487 344.0 L209.68014375731664 344.0 L208.73372017908457 344.0 L207.7872966008525 344.0 L206.84087302262043 344.0 L205.89444944438833 344.0 L204.94802586615626 344.0 L204.0016022879242 344.0 L203.05517870969211 344.0 L202.10875513146004 344.0 L201.16233155322797 344.0 L200.21590797499587 344.0 L199.2694843967638 344.0 L198.32306081853173 344.0 L197.37663724029963 344.0 L196.4302136620676 344.0 L195.4837900838355 344.0 L194.53736650560342 344.0 L193.59094292737134 344.0 L192.64451934913924 344.0 L191.69809577090717 344.0 L190.7516721926751 344.0 L189.80524861444303 344.0 L188.85882503621096 344.0 L187.91240145797886 344.0 L186.9659778797468 344.0 L186.01955430151472 344.0 L185.07313072328265 344.0 L184.12670714505057 344.0 L183.1802835668185 344.0 L182.2338599885864 344.0 L181.28743641035436 344.0 L180.34101283212226 344.0 L179.39458925389016 344.0 L178.44816567565812 344.0 L177.50174209742602 344.0 L176.55531851919397 344.0 L175.60889494096187 344.0 L174.66247136272978 344.0 L173.71604778449773 344.0 L172.76962420626563 344.0 L171.8232006280336 344.0 L170.8767770498015 344.0 L169.9303534715694 344.0 L168.98392989333735 344.0 L168.03750631510525 344.0 L167.0910827368732 344.0 L166.1446591586411 344.0 L165.19823558040903 344.0 L164.25181200217696 344.0 L163.30538842394486 344.0 L162.35896484571282 344.0 L161.41254126748072 344.0 L160.46611768924865 344.0 L159.51969411101658 344.0 L158.57327053278448 344.0 L157.6268469545524 344.0 L156.68042337632033 344.0 L155.73399979808826 344.0 L154.7875762198562 344.0 L153.84115264162412 344.0 L152.89472906339202 344.0 L151.94830548515995 344.0 L151.00188190692788 344.0 L150.0554583286958 344.0 L149.10903475046374 344.0 L148.16261117223166 344.0 L147.21618759399956 344.0 L146.2697640157675 344.0 L145.32334043753542 344.0 L144.37691685930335 344.0 L143.43049328107128 344.0 L142.48406970283918 344.0 L141.5376461246071 344.0 L140.59122254637504 344.0 L139.64479896814296 344.0 L138.6983753899109 344.0 L137.75195181167882 344.0 L136.80552823344672 344.0 L135.85910465521465 344.0 L134.91268107698258 344.0 L133.9662574987505 344.0 L133.0198339205184 344.0 L132.07341034228634 344.0 L131.12698676405427 344.0 L130.1805631858222 344.0 L129.23413960759012 344.0 L128.28771602935802 344.0 L127.34129245112595 344.0 L126.39486887289388 344.0 L125.44844529466181 344.0 L124.50202171642971 344.0 L123.55559813819764 344.0 L122.60917455996557 344.0 L121.6627509817335 344.0 L120.71632740350142 344.0 L119.76990382526932 344.0 L118.82348024703725 344.0 L117.87705666880518 344.0 L116.93063309057311 344.0 L115.98420951234104 344.0 L115.03778593410894 344.0 L114.09136235587687 344.0 L113.1449387776448 344.0 L112.1985151994127 344.0 L111.25209162118065 344.0 L110.30566804294861 344.0 L109.35924446471648 344.0 L108.41282088648441 344.0 L107.46639730825237 344.0 L106.51997373002027 344.0 L105.57355015178817 344.0 L104.62712657355613 344.0 L103.68070299532403 344.0 L102.73427941709198 344.0 L101.78785583885988 344.0 L100.84143226062781 344.0 L99.89500868239574 344.0 L98.94858510416364 344.0 L98.0021615259316 344.0 L97.0557379476995 344.0 L96.1093143694674 344.0 L95.16289079123536 344.0 L94.21646721300326 344.0 L93.27004363477118 344.0 L92.32362005653911 344.0 L91.37719647830704 344.0 L90.43077290007497 344.0 L89.48434932184287 344.0 L88.5379257436108 344.0 L87.59150216537873 344.0 L86.64507858714666 344.0 L85.69865500891459 344.0 L84.75223143068251 344.0 L83.80580785245041 344.0 L82.85938427421834 344.0 L81.91296069598627 344.0 L80.96653711775417 344.0 L80.0201135395221 344.0 L79.07368996129003 344.0 L78.12726638305799 344.0 L77.18084280482589 344.0 L76.23441922659379 344.0 L75.28799564836174 344.0 L74.34157207012964 344.0 L73.39514849189757 344.0 L72.4487249136655 344.0 L71.5023013354334 344.0 L70.55587775720136 344.0 L69.60945417896926 344.0 L68.66303060073722 344.0 L67.71660702250512 344.0 L66.77018344427302 344.0 L65.82375986604097 344.0 L64.87733628780887 344.0 L63.93091270957683 344.0 L62.98448913134473 344.0 L62.03806555311269 344.0 L61.09164197488059 344.0 L60.14521839664849 344.0 L59.198794818416445 344.0 L58.252371240184345 344.0 L57.305947661952246 344.0 L56.3595240837202 344.0 L55.4131005054881 344.0 L54.46667692725606 344.0 L53.52025334902396 344.0 L52.57382977079189 344.0 L51.62740619255982 344.0 L50.68098261432772 344.0 L49.734559036095675 344.0 L48.788135457863575 344.0 L47.841711879631504 344.0 L46.89528830139943 344.0 L45.94886472316736 344.0 L45.00244114493526 344.0 L44.05601756670319 344.0 L43.10959398847112 344.0 L42.16317041023905 344.0 L41.216746832006976 344.0 L40.270323253774876 344.0 L39.323899675542805 344.0 L38.37747609731073 344.0 L37.43105251907866 344.0 L36.48462894084659 344.0 L35.53820536261449 344.0 L34.59178178438242 344.0 L33.64535820615035 344.0 L32.69893462791825 344.0 L31.752511049686206 344.0 L30.806087471454106 344.0 L29.859663893222063 344.0 L28.913240314989963 344.0 L27.966816736757863 344.0 L27.02039315852582 344.0 L26.07396958029372 344.0 L25.127546002061678 344.0 L24.181122423829578 344.0 Z" fill="rgb(187,187,187)" stroke-width="1.0" fill-opacity="0.10196078431372549">
          </path>
        </g>
        <g>
          <path d="M24.181122423829578 340.0175070515294 L24.181122423829578 340.0175070515294 L26.07396958029372 339.6754054917951 L27.966816736757863 339.3235222954652 L29.859663893222063 338.9625072023653 L31.752511049686206 338.59289301253716 L33.64535820615035 338.2151046667833 L35.53820536261449 337.8294761798723 L37.43105251907866 337.43627082364947 L39.323899675542805 337.03569859572787 L41.216746832006976 336.6279241459386 L43.10959398847112 336.2130581776885 L45.00244114493526 335.7911260609675 L46.89528830139943 335.3620090763934 L48.788135457863575 334.9253563363153 L50.68098261432772 334.4804688531591 L52.57382977079189 334.0261611685699 L54.46667692725606 333.5606100241944 L56.3595240837202 333.08120326928486 L58.252371240184345 332.5844050566494 L60.14521839664849 332.0656549091784 L62.03806555311269 331.5193180825943 L63.93091270957683 330.9387026117352 L65.82375986604097 330.3161545234377 L67.71660702250512 329.6432371718411 L69.60945417896926 328.910993957225 L71.5023013354334 328.11028645009355 L73.39514849189757 327.2321928770383 L75.28799564836174 326.2684457618745 L77.18084280482589 325.2118829011075 L79.07368996129003 324.0568832714918 L80.96653711775417 322.7997591834616 L82.85938427421834 321.4390780232834 L84.75223143068251 319.9758910420397 L86.64507858714666 318.4138524192643 L88.5379257436108 316.75921867929 L90.43077290007497 315.02072583020004 L92.32362005653911 313.20934870396263 L94.21646721300326 311.3379533611467 L96.1093143694674 309.42085867865194 L98.0021615259316 307.47332711962247 L99.89500868239574 305.511007109349 L101.78785583885988 303.54935046984366 L103.68070299532403 301.6030281653608 L105.57355015178817 299.6853664109938 L107.46639730825237 297.80782324721355 L109.35924446471648 295.979523222283 L111.25209162118065 294.2068650537213 L113.1449387776448 292.4932142156824 L115.03778593410894 290.8386894328654 L116.93063309057311 289.24004912791827 L118.82348024703725 287.69068101562425 L120.71632740350142 286.1806952921007 L122.60917455996557 284.69711924523267 L124.50202171642971 283.22418861454116 L126.39486887289388 281.7437286410352 L128.28771602935802 280.235615442366 L130.1805631858222 278.678306088575 L132.07341034228634 277.0494235041468 L133.9662574987505 275.3263800691516 L135.85910465521465 273.48702156536797 L137.75195181167882 271.51027100570707 L138.6983753899109 270.46423546936023 L139.64479896814296 269.37675006715796 L140.59122254637504 268.24575240915897 L141.5376461246071 267.06935456428675 L142.48406970283918 265.84585684472097 L143.43049328107128 264.5737599533532 L144.37691685930335 263.2517753322933 L145.32334043753542 261.8788335650959 L146.2697640157675 260.45409070343794 L147.21618759399956 258.97693241034955 L148.16261117223166 257.4469758366655 L149.10903475046374 255.86406917484555 L150.0554583286958 254.22828886437696 L151.00188190692788 252.53993445515687 L151.94830548515995 250.7995211690219 L152.89472906339202 249.00777023430857 L153.84115264162412 247.16559710332905 L154.7875762198562 245.27409769717553 L155.73399979808826 243.3345328556004 L156.68042337632033 241.34831120108876 L157.6268469545524 239.31697065492997 L158.57327053278448 237.2421588684188 L159.51969411101658 235.1256128536893 L160.46611768924865 232.96913811552946 L161.41254126748072 230.77458759748856 L162.35896484571282 228.54384076231406 L163.30538842394486 226.27878312806547 L164.25181200217696 223.98128657710757 L165.19823558040903 221.65319074562558 L166.1446591586411 219.2962857865154 L167.0910827368732 216.91229677877828 L168.03750631510525 214.5028700322688 L168.98392989333735 212.0695615082841 L169.9303534715694 209.61382754456474 L170.8767770498015 207.1370180383945 L171.8232006280336 204.6403722042414 L172.76962420626563 202.12501698342885 L173.71604778449773 199.5919681432437 L174.66247136272978 197.04213406237892 L175.60889494096187 194.47632215914734 L176.55531851919397 191.89524787920143 L177.50174209742602 189.29954612092175 L178.44816567565812 186.68978493980572 L179.39458925389016 184.0664813384728 L180.34101283212226 181.43011891669963 L181.28743641035436 178.78116712661634 L182.2338599885864 176.12010185208285 L183.1802835668185 173.4474270086529 L184.12670714505057 170.76369684164712 L185.07313072328265 168.06953858487705 L186.01955430151472 165.3656751317012 L186.9659778797468 162.65294736347474 L187.91240145797886 159.93233577811156 L188.85882503621096 157.20498106360202 L189.80524861444303 154.4722032677615 L190.7516721926751 151.73551922635852 L191.69809577090717 148.99665792688208 L192.64451934913924 146.25757350448893 L193.59094292737134 143.52045558993322 L194.53736650560342 140.78773675626206 L195.4837900838355 138.0620968415164 L196.4302136620676 135.34646395826204 L197.37663724029963 132.64401203709255 L198.32306081853173 129.95815478996815 L199.2694843967638 127.2925360198627 L200.21590797499587 124.65101624530436 L201.16233155322797 122.03765565152946 L202.10875513146004 119.45669342365755 L203.05517870969211 116.91252356114455 L204.0016022879242 114.4096673162486 L204.94802586615626 111.95274244205513 L205.89444944438833 109.54642947725668 L206.84087302262043 107.19543533508019 L207.7872966008525 104.90445450210564 L208.73372017908457 102.67812818894373 L209.68014375731664 100.52100180848922 L210.6265673355487 98.43748118850266 L211.5729909137808 96.4317879532004 L212.51941449201288 94.50791453322486 L213.46583807024496 92.6695792842838 L214.41226164847703 90.92018221180263 L215.3586852267091 89.26276181162191 L216.3051088049412 87.69995354480767 L217.25153238317327 86.23395046762187 L218.19795596140534 84.86646653531687 L219.1443795396374 83.59870309014389 L220.09080311786948 82.43131902963114 L221.03722669610158 81.36440513031954 L222.93007385256573 79.52938889286611 L224.82292100902987 78.0823457066972 L226.715768165494 77.00208053995084 L228.6086153219582 76.25764612576205 L230.50146247842235 75.80887781027491 L232.3943096348865 75.60733154129855 L234.28715679135064 75.5976064965634 L236.18000394781478 75.71901195056051 L238.07285110427893 75.90751651942213 L239.96569826074312 76.09789849839899 L241.85854541720727 76.22600024458558 L243.7513925736714 76.23097896464589 L245.64423973013555 76.05744206687092 L247.5370868865997 75.6573582292649 L249.42993404306387 74.99164578788901 L251.32278119952804 74.03135763355726 L253.21562835599218 72.75840558145933 L255.10847551245632 71.16579563905907 L257.00132266892047 69.25737675450097 L257.94774624715257 68.18874178862825 L258.8941698253846 67.04713714868177 L259.8405934036167 65.83571608489655 L260.78701698184875 64.5581117159569 L261.73344056008085 63.21838803374641 L262.67986413831295 61.82098874897565 L263.626287716545 60.370684904039706 L264.5727112947771 58.872522178422 L265.51913487300914 57.331768790949695 L266.46555845124124 55.75386486248061 L267.41198202947334 54.14437404266681 L268.3584056077054 52.50893812661536 L269.3048291859375 50.85323529297847 L270.2512527641695 49.182942486469926 L271.1976763424016 47.503702347402566 L272.1440999206337 45.82109496151145 L273.09052349886576 44.14061456815193 L274.03694707709786 42.46765122745279 L274.98337065532996 40.80747731063809 L275.929794233562 39.165238546191745 L276.8762178117941 37.54594923136972 L277.82264139002615 35.954491107256786 L278.76906496825825 34.39561529926743 L279.71548854649035 32.873946646584784 L280.6619121247224 31.39398968592309 L281.6083357029545 29.96013551902348 L282.55475928118653 28.576668780805335 L283.50118285941863 27.24777393662424 L284.44760643765073 25.97754017266908 L285.3940300158828 24.769964202303584 L286.3404535941149 23.62895039168876 L287.286877172347 22.558307708235304 L289.1797243288111 20.64285114450189 L291.07257148527526 19.051811312364237 L292.9654186417394 17.81105643741165 L294.85826579820355 16.943358245229604 L296.75111295466775 16.467465070617266 L298.6439601111319 16.397077663856294 L300.53680726759603 16.73983236533394 L302.4296544240602 17.496408123382537 L304.3225015805243 18.659872896952947 L306.2153487369885 20.215371238496232 L308.10819589345266 22.14022965493308 L309.0546194716847 23.23207527533293 L310.0010430499168 24.404522298611653 L310.9474666281489 25.65286581864956 L311.89389020638095 26.972100147159153 L312.84031378461304 28.356973268496063 L313.7867373628451 29.80204605992151 L314.7331609410772 31.3017553662076 L315.67958451930923 32.85047992565217 L316.62600809754133 34.44260807367084 L317.57243167577343 36.07260610151968 L318.5188552540055 37.73508612210583 L319.4652788322376 39.42487229233615 L320.4117024104696 41.13706426197149 L321.3581259887017 42.86709676145563 L322.3045495669338 44.61079430466572 L323.25097314516586 46.36442006527153 L324.19739672339796 48.12471808551163 L325.14382030163 49.88894809153476 L326.0902438798621 51.65491231756596 L327.0366674580942 53.420973879454664 L327.98309103632624 55.186066384106425 L328.92951461455834 56.949694611972006 L329.8759381927904 58.71192626261063 L330.8223617710225 60.473374905544006 L331.76878534925453 62.235174427591005 L332.71520892748663 63.998945411069656 L333.6616325057187 65.76675401227425 L334.60805608395077 67.54106403425385 L335.55447966218287 69.32468300007281 L336.5009032404149 71.12070313058979 L337.447326818647 72.9324382127374 L338.3937503968791 74.7633574089831 L339.34017397511116 76.61701710501058 L340.28659755334326 78.49699191992977 L341.2330211315753 80.40680601098501 L342.1794447098074 82.34986579272714 L343.12586828803944 84.32939515904383 L344.07229186627154 86.34837424594309 L345.01871544450364 88.40948270435251 L345.9651390227357 90.51504836674226 L346.9115626009678 92.66700209056415 L347.8579861791999 94.86683944727451 L348.8044097574319 97.1155898001146 L349.750833335664 99.41379317932288 L350.69725691389607 101.76148522255954 L351.64368049212817 104.15819030381621 L352.59010407036027 106.60292282873064 L353.5365276485923 109.09419653092337 L354.4829512268244 111.63004146552368 L355.4293748050565 114.20802826516896 L356.37579838328855 116.82529910302432 L357.32222196152065 119.47860469912243 L358.2686455397527 122.16434661260001 L359.2150691179848 124.87862398498714 L360.1614926962169 127.61728383989961 L361.10791627444894 130.3759740033066 L362.05433985268104 133.15019768646533 L363.0007634309131 135.935368770808 L363.9471870091452 138.72686685013727 L364.8936105873772 141.52009111970014 L365.8400341656093 144.3105122529617 L366.7864577438414 147.09372147359832 L367.73288132207347 149.86547611064464 L368.67930490030557 152.6217410166885 L369.62572847853767 155.35872533028802 L370.5721520567697 158.0729141718788 L371.5185756350018 160.76109497487278 L372.4649992132339 163.4203782678436 L373.41142279146595 166.04821283715953 L374.357846369698 168.64239530974385 L375.3042699479301 171.20107430057396 L376.2506935261622 173.7227493670185 L377.19711710439424 176.20626510032534 L378.14354068262634 178.65080076199152 L379.08996426085844 181.05585593810903 L380.0363878390905 183.42123273715103 L380.9828114173225 185.7470150954209 L381.9292349955547 188.0335457792505 L382.8756585737867 190.281401683984 L383.82208215201877 192.49136802717769 L384.7685057302509 194.66441201782376 L385.71492930848297 196.8016565556691 L386.661352886715 198.90435447589198 L387.60777646494705 200.9738638058025 L388.5542000431792 203.0116244433227 L389.50062362141125 205.01913660329825 L390.4470471996433 206.99794130894506 L391.39347077787545 208.9496031335953 L392.3398943561075 210.87569532422054 L393.28631793433954 212.77778736467494 L394.2327415125717 214.65743496494838 L395.17916509080374 216.51617239460376 L396.1255886690358 218.35550701549815 L397.0720122472678 220.17691581226683 L398.0184358255 221.98184367010674 L398.964859403732 223.7717031091857 L399.91128298196406 225.54787515433787 L400.8577065601962 227.3117109982105 L401.80413013842826 229.06453410605158 L402.7505537166603 230.80764241098242 L403.69697729489235 232.54231025973357 L404.6434008731245 234.2697897900403 L405.58982445135655 235.99131145152165 L406.5362480295886 237.7080834210305 L407.48267160782075 239.42128971002785 L408.4290951860528 241.13208681420986 L409.37551876428483 242.84159881291998 L410.321942342517 244.55091088619784 L411.26836592074903 246.26106127897953 L412.2147894989811 247.97303180320912 L413.1612130772131 249.68773702771148 L414.1076366554453 251.40601236093084 L415.0540602336773 253.12860128143484 L416.00048381190936 254.85614201397556 L416.9469073901415 256.5891539835919 L417.89333096837356 258.3280244056843 L418.8397545466056 260.07299538537234 L419.78617812483765 261.8241519042354 L420.7326017030698 263.58141106650004 L421.67902528130185 265.3445129599488 L422.6254488595339 267.1130134596625 L423.57187243776605 268.88627926584223 L424.5182960159981 270.6634854213583 L425.46471959423013 272.44361550153513 L426.4111431724623 274.22546460944204 L427.35756675069433 276.00764524622736 L428.3039903289264 277.78859605954034 L429.2504139071584 279.5665934056534 L430.1968374853906 281.3397655943754 L431.1432610636226 283.1061096220453 L432.08968464185466 284.86351013856427 L433.0361082200868 286.60976034115316 L433.98253179831886 288.3425844417593 L434.9289553765509 290.0596613179768 L435.87537895478295 291.758648929947 L436.8218025330151 293.4372090686596 L437.76822611124715 295.0930319947471 L438.7146496894792 296.7238605313456 L439.66107326771134 298.32751318965285 L440.6074968459434 299.9019059309338 L441.55392042417543 301.4450722031198 L442.5003440024075 302.95518093276877 L443.44676758063963 304.4305522027701 L444.3931911588717 305.86967040135454 L445.3396147371037 307.2711946871599 L446.2860383153359 308.63396667668013 L447.2324618935679 309.9570153227279 L448.17888547179996 311.23955901391685 L449.1253090500321 312.48100498404483 L450.07173262826416 313.6809461751577 L451.0181562064962 314.8391557476684 L451.9645797847283 315.95557947405064 L452.9110033629604 317.0303262883896 L453.85742694119244 318.0636572917506 L455.75027409765664 320.00780289067563 L457.64312125412073 321.7926643200462 L459.5359684105849 323.42447786984565 L461.42881556704907 324.91063491465763 L463.3216627235132 326.25928658055096 L465.2145098799774 327.4790123256732 L467.1073570364415 328.57856836111114 L469.0002041929057 329.5667210785766 L470.89305134936984 330.4521604913562 L472.785898505834 331.24348017162896 L474.6787456622981 331.94920405749696 L476.5715928187623 332.5778372591433 L478.46443997522647 333.1379177196785 L480.3572871316906 333.638048055472 L482.25013428815475 334.0868916065083 L484.1429814446189 334.4931229614404 L486.0358286010831 334.86533016841577 L487.92867575754724 335.21187267489546 L489.8215229140114 335.5407050112088 L491.7143700704755 335.8591807514416 L493.60721722693967 336.17385396476703 L495.50006438340387 336.490296053298 L497.392911539868 336.81294462807557 L499.28575869633215 337.1449981705838 L501.17860585279635 337.488366082341 L503.07145300926044 337.8436788509883 L504.96430016572464 338.2103579977381 L506.8571473221888 338.5867407261959 L507.8035709004209 338.7777959709447 " fill="none" stroke-width="1.6500000000000001" stroke="rgb(187,187,187)" stroke-opacity="1.0">
          </path>
        </g>
      </g>
    </g>
    <g transform="translate(14.5 182.0 ) rotate(-90.0 ) ">
      <text class="axis-title-y" y="0.0" text-anchor="middle">
      density
      </text>
    </g>
    <g transform="translate(324.00765333787484 391.5 ) ">
      <text class="axis-title-x" y="0.0" text-anchor="middle">
      x
      </text>
    </g>
    <path fill="rgb(0,0,0)" fill-opacity="0.0" stroke="rgb(187,187,187)" stroke-opacity="1.0" stroke-width="0.0" d="M0.0 0.0 L0.0 400.0 L600.0 400.0 L600.0 0.0 Z">
    </path>
  </g>
  <g id="xXxprefixXx2">
  </g>
</svg>