<svg xmlns="http://www.w3.org/2000/svg" xmlns:xlink="http://www.w3.org/1999/xlink" class="plt-container" width="600.0" height="400.0">
  <style type="text/css">
  .plt-container {
   font-family: Lucida Grande, sans-serif;
   user-select: none;
   -webkit-user-select: none;
   -moz-user-select: none;
   -ms-user-select: none;
}
text {
   text-rendering: optimizeLegibility;
}
#xXxprefixXx0 .plot-title {
   fill: #474747;
   font-family: Lucida Grande, sans-serif;
   font-size: 16.0px;
   font-weight: normal;
   font-style: normal;   
}
#xXxprefixXx0 .plot-subtitle {
   fill: #474747;
   font-family: Lucida Grande, sans-serif;
   font-size: 15.0px;
   font-weight: normal;
   font-style: normal;   
}
#xXxprefixXx0 .plot-caption {
   fill: #474747;
   font-family: Lucida Grande, sans-serif;
   font-size: 13.0px;
   font-weight: normal;
   font-style: normal;   
}
#xXxprefixXx0 .legend-title {
   fill: #474747;
   font-family: Lucida Grande, sans-serif;
   font-size: 15.0px;
   font-weight: normal;
   font-style: normal;   
}
#xXxprefixXx0 .legend-item {
   fill: #474747;
   font-family: Lucida Grande, sans-serif;
   font-size: 13.0px;
   font-weight: normal;
   font-style: normal;   
}
#xXxprefixXx0 .axis-title-x {
   fill: #474747;
   font-family: Lucida Grande, sans-serif;
   font-size: 15.0px;
   font-weight: normal;
   font-style: normal;   
}
#xXxprefixXx0 .axis-text-x {
   fill: #474747;
   font-family: Lucida Grande, sans-serif;
   font-size: 13.0px;
   font-weight: normal;
   font-style: normal;   
}
#xXxprefixXx3 .axis-tooltip-text-x {
   fill: #ffffff;
   font-family: Lucida Grande, sans-serif;
   font-size: 13.0px;
   font-weight: normal;
   font-style: normal;   
}
#xXxprefixXx0 .axis-title-y {
   fill: #474747;
   font-family: Lucida Grande, sans-serif;
   font-size: 15.0px;
   font-weight: normal;
   font-style: normal;   
}
#xXxprefixXx0 .axis-text-y {
   fill: #474747;
   font-family: Lucida Grande, sans-serif;
   font-size: 13.0px;
   font-weight: normal;
   font-style: normal;   
}
#xXxprefixXx3 .axis-tooltip-text-y {
   fill: #ffffff;
   font-family: Lucida Grande, sans-serif;
   font-size: 13.0px;
   font-weight: normal;
   font-style: normal;   
}
#xXxprefixXx0 .facet-strip-text-x {
   fill: #474747;
   font-family: Lucida Grande, sans-serif;
   font-size: 13.0px;
   font-weight: normal;
   font-style: normal;   
}
#xXxprefixXx0 .facet-strip-text-y {
   fill: #474747;
   font-family: Lucida Grande, sans-serif;
   font-size: 13.0px;
   font-weight: normal;
   font-style: normal;   
}
#xXxprefixXx3 .tooltip-text {
   fill: #474747;
   font-family: Lucida Grande, sans-serif;
   font-size: 13.0px;
   font-weight: normal;
   font-style: normal;   
}
#xXxprefixXx3 .tooltip-title {
   fill: #474747;
   font-family: Lucida Grande, sans-serif;
   font-size: 13.0px;
   font-weight: bold;
   font-style: normal;   
}
#xXxprefixXx3 .tooltip-label {
   fill: #474747;
   font-family: Lucida Grande, sans-serif;
   font-size: 13.0px;
   font-weight: bold;
   font-style: normal;   
}

  </style>
  <g id="xXxprefixXx0">
    <path fill-rule="evenodd" fill="rgb(255,255,255)" fill-opacity="1.0" d="M0.0 0.0 L0.0 400.0 L600.0 400.0 L600.0 0.0 Z">
    </path>
    <g transform="translate(23.0 10.0 ) ">
      <g transform="translate(13.980605455468202 344.0 ) ">
        <line x1="25.137245206569617" y1="-0.0" x2="25.137245206569617" y2="-344.0" stroke="rgb(233,233,233)" stroke-opacity="1.0" stroke-width="1.0">
        </line>
        <line x1="108.92806256180171" y1="-0.0" x2="108.92806256180171" y2="-344.0" stroke="rgb(233,233,233)" stroke-opacity="1.0" stroke-width="1.0">
        </line>
        <line x1="192.7188799170338" y1="-0.0" x2="192.7188799170338" y2="-344.0" stroke="rgb(233,233,233)" stroke-opacity="1.0" stroke-width="1.0">
        </line>
        <line x1="276.5096972722659" y1="-0.0" x2="276.5096972722659" y2="-344.0" stroke="rgb(233,233,233)" stroke-opacity="1.0" stroke-width="1.0">
        </line>
        <line x1="360.300514627498" y1="-0.0" x2="360.300514627498" y2="-344.0" stroke="rgb(233,233,233)" stroke-opacity="1.0" stroke-width="1.0">
        </line>
        <line x1="444.0913319827301" y1="-0.0" x2="444.0913319827301" y2="-344.0" stroke="rgb(233,233,233)" stroke-opacity="1.0" stroke-width="1.0">
        </line>
        <line x1="527.8821493379621" y1="-0.0" x2="527.8821493379621" y2="-344.0" stroke="rgb(233,233,233)" stroke-opacity="1.0" stroke-width="1.0">
        </line>
        <g transform="translate(25.137245206569617 0.0 ) ">
          <line stroke-width="1.0" stroke="rgb(71,71,71)" stroke-opacity="1.0" x2="0.0" y2="4.0">
          </line>
          <g transform="translate(0.0 7.0 ) ">
            <text class="axis-text-x" text-anchor="middle" dy="0.7em">
            -3
            </text>
          </g>
        </g>
        <g transform="translate(108.92806256180171 0.0 ) ">
          <line stroke-width="1.0" stroke="rgb(71,71,71)" stroke-opacity="1.0" x2="0.0" y2="4.0">
          </line>
          <g transform="translate(0.0 7.0 ) ">
            <text class="axis-text-x" text-anchor="middle" dy="0.7em">
            -2
            </text>
          </g>
        </g>
        <g transform="translate(192.7188799170338 0.0 ) ">
          <line stroke-width="1.0" stroke="rgb(71,71,71)" stroke-opacity="1.0" x2="0.0" y2="4.0">
          </line>
          <g transform="translate(0.0 7.0 ) ">
            <text class="axis-text-x" text-anchor="middle" dy="0.7em">
            -1
            </text>
          </g>
        </g>
        <g transform="translate(276.5096972722659 0.0 ) ">
          <line stroke-width="1.0" stroke="rgb(71,71,71)" stroke-opacity="1.0" x2="0.0" y2="4.0">
          </line>
          <g transform="translate(0.0 7.0 ) ">
            <text class="axis-text-x" text-anchor="middle" dy="0.7em">
            0
            </text>
          </g>
        </g>
        <g transform="translate(360.300514627498 0.0 ) ">
          <line stroke-width="1.0" stroke="rgb(71,71,71)" stroke-opacity="1.0" x2="0.0" y2="4.0">
          </line>
          <g transform="translate(0.0 7.0 ) ">
            <text class="axis-text-x" text-anchor="middle" dy="0.7em">
            1
            </text>
          </g>
        </g>
        <g transform="translate(444.0913319827301 0.0 ) ">
          <line stroke-width="1.0" stroke="rgb(71,71,71)" stroke-opacity="1.0" x2="0.0" y2="4.0">
          </line>
          <g transform="translate(0.0 7.0 ) ">
            <text class="axis-text-x" text-anchor="middle" dy="0.7em">
            2
            </text>
          </g>
        </g>
        <g transform="translate(527.8821493379621 0.0 ) ">
          <line stroke-width="1.0" stroke="rgb(71,71,71)" stroke-opacity="1.0" x2="0.0" y2="4.0">
          </line>
          <g transform="translate(0.0 7.0 ) ">
            <text class="axis-text-x" text-anchor="middle" dy="0.7em">
            3
            </text>
          </g>
        </g>
        <line x1="0.0" y1="0.0" x2="553.0193945445318" y2="0.0" stroke-width="1.0" stroke="rgb(71,71,71)" stroke-opacity="1.0">
        </line>
      </g>
      <g transform="translate(13.980605455468202 0.0 ) ">
        <line x1="0.0" y1="295.1016346837243" x2="553.0193945445318" y2="295.1016346837243" stroke="rgb(233,233,233)" stroke-opacity="1.0" stroke-width="1.0">
        </line>
        <line x1="0.0" y1="246.20326936744857" x2="553.0193945445318" y2="246.20326936744857" stroke="rgb(233,233,233)" stroke-opacity="1.0" stroke-width="1.0">
        </line>
        <line x1="0.0" y1="197.30490405117285" x2="553.0193945445318" y2="197.30490405117285" stroke="rgb(233,233,233)" stroke-opacity="1.0" stroke-width="1.0">
        </line>
        <line x1="0.0" y1="148.40653873489714" x2="553.0193945445318" y2="148.40653873489714" stroke="rgb(233,233,233)" stroke-opacity="1.0" stroke-width="1.0">
        </line>
        <line x1="0.0" y1="99.50817341862142" x2="553.0193945445318" y2="99.50817341862142" stroke="rgb(233,233,233)" stroke-opacity="1.0" stroke-width="1.0">
        </line>
        <line x1="0.0" y1="50.60980810234571" x2="553.0193945445318" y2="50.60980810234571" stroke="rgb(233,233,233)" stroke-opacity="1.0" stroke-width="1.0">
        </line>
        <g transform="translate(0.0 344.0 ) ">
          <g transform="translate(-3.0 0.0 ) ">
            <text class="axis-text-y" text-anchor="end" dy="0.35em">
            0
            </text>
          </g>
        </g>
        <g transform="translate(0.0 295.1016346837243 ) ">
          <g transform="translate(-3.0 0.0 ) ">
            <text class="axis-text-y" text-anchor="end" dy="0.35em">
            1
            </text>
          </g>
        </g>
        <g transform="translate(0.0 246.20326936744857 ) ">
          <g transform="translate(-3.0 0.0 ) ">
            <text class="axis-text-y" text-anchor="end" dy="0.35em">
            2
            </text>
          </g>
        </g>
        <g transform="translate(0.0 197.30490405117285 ) ">
          <g transform="translate(-3.0 0.0 ) ">
            <text class="axis-text-y" text-anchor="end" dy="0.35em">
            3
            </text>
          </g>
        </g>
        <g transform="translate(0.0 148.40653873489714 ) ">
          <g transform="translate(-3.0 0.0 ) ">
            <text class="axis-text-y" text-anchor="end" dy="0.35em">
            4
            </text>
          </g>
        </g>
        <g transform="translate(0.0 99.50817341862142 ) ">
          <g transform="translate(-3.0 0.0 ) ">
            <text class="axis-text-y" text-anchor="end" dy="0.35em">
            5
            </text>
          </g>
        </g>
        <g transform="translate(0.0 50.60980810234571 ) ">
          <g transform="translate(-3.0 0.0 ) ">
            <text class="axis-text-y" text-anchor="end" dy="0.35em">
            6
            </text>
          </g>
        </g>
        <g transform="translate(0.0 1.7114427860699948 ) ">
          <g transform="translate(-3.0 0.0 ) ">
            <text class="axis-text-y" text-anchor="end" dy="0.35em">
            7
            </text>
          </g>
        </g>
      </g>
      <g transform="translate(13.980605455468202 0.0 ) " clip-path="url(#xXxprefixXx1)" clip-bounds-jfx="[rect (0.0, 0.0), (553.0193945445318, 344.0)]">
        <defs>
          <clipPath id="xXxprefixXx1">
            <rect x="0.0" y="0.0" width="553.0193945445318" height="344.0">
            </rect>
          </clipPath>
        </defs>
        <g>
          <path d="M25.137245206569617 79.94882729211173 L25.137245206569617 79.94882729211173 L30.215476561432155 117.1909290257424 L35.29370791629472 153.32823551776633 L40.37193927115726 187.2559515265768 L45.4501706260198 217.8692818105671 L50.52840198088239 244.06343112813062 L55.60663333574493 264.7336042376603 L60.68486469060747 278.7750058975496 L65.76309604547004 285.08284086619176 L70.84132740033257 282.78327577468 L75.91955875519511 273.01270096094083 L80.99779011005771 257.9425581183335 L86.07602146492025 239.75284308365127 L91.15425281978278 220.62355169368695 L96.23248417464535 202.7346797852334 L101.31071552950789 188.26622319508348 L106.38894688437043 179.3981777600302 L111.467178239233 178.22947747104587 L116.54540959409553 184.9946338652305 L121.6236409489581 198.06373602581172 L126.70187230382064 215.72581119019642 L131.78010365868317 236.26988659579183 L136.85833501354574 257.984989480005 L141.9365663684083 279.16014708024284 L147.01479772327085 298.08438663391246 L152.09302907813338 313.0528594450669 L157.17126043299595 323.101728881912 L162.24949178785852 328.7063139744385 L167.32772314272106 330.50728355207633 L172.4059544975836 329.1453064442553 L177.48418585244616 325.26105148040523 L182.56241720730873 319.49518748995604 L187.64064856217124 312.4883833023374 L192.7188799170338 304.8813077469794 L197.79711127189637 297.2207359133262 L202.87534262675888 289.6778679308806 L207.95357398162145 282.3300101891597 L213.031805336484 275.25446907768054 L218.11003669134658 268.5285509859605 L223.18826804620912 262.2295623035167 L228.26649940107166 256.4348094198662 L233.34473075593422 251.22159872452633 L238.42296211079676 246.66723660701416 L243.5011934656593 242.84902945684686 L248.5794248205219 239.8442836635416 L253.65765617538443 237.73030561661562 L258.735887530247 236.5844017055861 L263.8141188851095 236.4838783199701 L268.8923502399721 237.50604184928488 L273.97058159483464 239.72819868304754 L279.04881294969715 243.22149574417907 L284.1270443045597 247.91541222388662 L289.2052756594223 253.59775958166355 L294.28350701428485 260.0501898104071 L299.3617383691474 267.0543549030143 L304.4399697240099 274.3919068523824 L309.5182010788725 281.8444976514085 L314.596432433735 289.19377929298986 L319.67466378859757 296.22140377002347 L324.75289514346014 302.70902307540655 L329.8311264983227 308.43828920203634 L334.90935785318527 313.1908541428098 L339.9875892080478 316.7483698906243 L345.06582056291035 318.8924884383768 L350.1440519177729 319.40486177896463 L355.2222832726354 318.0671419052848 L360.300514627498 314.66098081023455 L365.37874598236056 309.06999171078786 L370.45697733722307 301.585632720226 L375.53520869208563 292.60132317590717 L380.6134400469482 282.5104824151895 L385.6916714018107 271.706529775431 L390.7699027566733 260.5828845939901 L395.8481341115359 249.53296620822462 L400.92636546639847 238.95019395549303 L406.004596821261 229.19364670199315 L411.08282817612354 220.3235140278985 L416.1610595309861 212.2460893278129 L421.2392908858486 204.8663941270378 L426.3175222407111 198.0894499508746 L431.39575359557375 191.82027832462487 L436.47398495043626 185.96390077358998 L441.55221630529877 180.42533882307143 L446.6304476601614 175.10804574745887 L451.7086790150239 169.87940505017008 L456.7869103698864 164.57073046365093 L461.86514172474904 159.01176746943554 L466.94337307961155 153.03226154905792 L472.02160443447417 146.46195818405212 L477.0998357893367 139.1306028559523 L482.17806714419925 130.86794104629254 L487.2562984990618 121.50454962917831 L492.3345298539243 110.97160397985533 L497.4127612087869 99.39565672785028 L502.49099256364946 86.92570810211765 L507.56922391851197 73.71075833161211 L512.6474552733746 59.89980764528826 L517.7256866282371 45.6418562721006 L522.8039179830996 31.085904441003777 L527.8821493379621 16.38095238095235 L527.8821493379621 344.0 L522.8039179830996 344.0 L517.7256866282371 344.0 L512.6474552733746 344.0 L507.56922391851197 344.0 L502.49099256364946 344.0 L497.4127612087869 344.0 L492.3345298539243 344.0 L487.2562984990618 344.0 L482.17806714419925 344.0 L477.0998357893367 344.0 L472.02160443447417 344.0 L466.94337307961155 344.0 L461.86514172474904 344.0 L456.7869103698864 344.0 L451.7086790150239 344.0 L446.6304476601614 344.0 L441.55221630529877 344.0 L436.47398495043626 344.0 L431.39575359557375 344.0 L426.3175222407111 344.0 L421.2392908858486 344.0 L416.1610595309861 344.0 L411.08282817612354 344.0 L406.004596821261 344.0 L400.92636546639847 344.0 L395.8481341115359 344.0 L390.7699027566733 344.0 L385.6916714018107 344.0 L380.6134400469482 344.0 L375.53520869208563 344.0 L370.45697733722307 344.0 L365.37874598236056 344.0 L360.300514627498 344.0 L355.2222832726354 344.0 L350.1440519177729 344.0 L345.06582056291035 344.0 L339.9875892080478 344.0 L334.90935785318527 344.0 L329.8311264983227 344.0 L324.75289514346014 344.0 L319.67466378859757 344.0 L314.596432433735 344.0 L309.5182010788725 344.0 L304.4399697240099 344.0 L299.3617383691474 344.0 L294.28350701428485 344.0 L289.2052756594223 344.0 L284.1270443045597 344.0 L279.04881294969715 344.0 L273.97058159483464 344.0 L268.8923502399721 344.0 L263.8141188851095 344.0 L258.735887530247 344.0 L253.65765617538443 344.0 L248.5794248205219 344.0 L243.5011934656593 344.0 L238.42296211079676 344.0 L233.34473075593422 344.0 L228.26649940107166 344.0 L223.18826804620912 344.0 L218.11003669134658 344.0 L213.031805336484 344.0 L207.95357398162145 344.0 L202.87534262675888 344.0 L197.79711127189637 344.0 L192.7188799170338 344.0 L187.64064856217124 344.0 L182.56241720730873 344.0 L177.48418585244616 344.0 L172.4059544975836 344.0 L167.32772314272106 344.0 L162.24949178785852 344.0 L157.17126043299595 344.0 L152.09302907813338 344.0 L147.01479772327085 344.0 L141.9365663684083 344.0 L136.85833501354574 344.0 L131.78010365868317 344.0 L126.70187230382064 344.0 L121.6236409489581 344.0 L116.54540959409553 344.0 L111.467178239233 344.0 L106.38894688437043 344.0 L101.31071552950789 344.0 L96.23248417464535 344.0 L91.15425281978278 344.0 L86.07602146492025 344.0 L80.99779011005771 344.0 L75.91955875519511 344.0 L70.84132740033257 344.0 L65.76309604547004 344.0 L60.68486469060747 344.0 L55.60663333574493 344.0 L50.52840198088239 344.0 L45.4501706260198 344.0 L40.37193927115726 344.0 L35.29370791629472 344.0 L30.215476561432155 344.0 L25.137245206569617 344.0 Z" fill="rgb(145,204,117)" stroke-width="1.0" fill-opacity="0.7490196078431373">
          </path>
        </g>
        <g>
          <path d="M25.137245206569617 79.94882729211173 L25.137245206569617 79.94882729211173 L30.215476561432155 117.1909290257424 L35.29370791629472 153.32823551776633 L40.37193927115726 187.2559515265768 L45.4501706260198 217.8692818105671 L50.52840198088239 244.06343112813062 L55.60663333574493 264.7336042376603 L60.68486469060747 278.7750058975496 L65.76309604547004 285.08284086619176 L70.84132740033257 282.78327577468 L75.91955875519511 273.01270096094083 L80.99779011005771 257.9425581183335 L86.07602146492025 239.75284308365127 L91.15425281978278 220.62355169368695 L96.23248417464535 202.7346797852334 L101.31071552950789 188.26622319508348 L106.38894688437043 179.3981777600302 L111.467178239233 178.22947747104587 L116.54540959409553 184.9946338652305 L121.6236409489581 198.06373602581172 L126.70187230382064 215.72581119019642 L131.78010365868317 236.26988659579183 L136.85833501354574 257.984989480005 L141.9365663684083 279.16014708024284 L147.01479772327085 298.08438663391246 L152.09302907813338 313.0528594450669 L157.17126043299595 323.101728881912 L162.24949178785852 328.7063139744385 L167.32772314272106 330.50728355207633 L172.4059544975836 329.1453064442553 L177.48418585244616 325.26105148040523 L182.56241720730873 319.49518748995604 L187.64064856217124 312.4883833023374 L192.7188799170338 304.8813077469794 L197.79711127189637 297.2207359133262 L202.87534262675888 289.6778679308806 L207.95357398162145 282.3300101891597 L213.031805336484 275.25446907768054 L218.11003669134658 268.5285509859605 L223.18826804620912 262.2295623035167 L228.26649940107166 256.4348094198662 L233.34473075593422 251.22159872452633 L238.42296211079676 246.66723660701416 L243.5011934656593 242.84902945684686 L248.5794248205219 239.8442836635416 L253.65765617538443 237.73030561661562 L258.735887530247 236.5844017055861 L263.8141188851095 236.4838783199701 L268.8923502399721 237.50604184928488 L273.97058159483464 239.72819868304754 L279.04881294969715 243.22149574417907 L284.1270443045597 247.91541222388662 L289.2052756594223 253.59775958166355 L294.28350701428485 260.0501898104071 L299.3617383691474 267.0543549030143 L304.4399697240099 274.3919068523824 L309.5182010788725 281.8444976514085 L314.596432433735 289.19377929298986 L319.67466378859757 296.22140377002347 L324.75289514346014 302.70902307540655 L329.8311264983227 308.43828920203634 L334.90935785318527 313.1908541428098 L339.9875892080478 316.7483698906243 L345.06582056291035 318.8924884383768 L350.1440519177729 319.40486177896463 L355.2222832726354 318.0671419052848 L360.300514627498 314.66098081023455 L365.37874598236056 309.06999171078786 L370.45697733722307 301.585632720226 L375.53520869208563 292.60132317590717 L380.6134400469482 282.5104824151895 L385.6916714018107 271.706529775431 L390.7699027566733 260.5828845939901 L395.8481341115359 249.53296620822462 L400.92636546639847 238.95019395549303 L406.004596821261 229.19364670199315 L411.08282817612354 220.3235140278985 L416.1610595309861 212.2460893278129 L421.2392908858486 204.8663941270378 L426.3175222407111 198.0894499508746 L431.39575359557375 191.82027832462487 L436.47398495043626 185.96390077358998 L441.55221630529877 180.42533882307143 L446.6304476601614 175.10804574745887 L451.7086790150239 169.87940505017008 L456.7869103698864 164.57073046365093 L461.86514172474904 159.01176746943554 L466.94337307961155 153.03226154905792 L472.02160443447417 146.46195818405212 L477.0998357893367 139.1306028559523 L482.17806714419925 130.86794104629254 L487.2562984990618 121.50454962917831 L492.3345298539243 110.97160397985533 L497.4127612087869 99.39565672785028 L502.49099256364946 86.92570810211765 L507.56922391851197 73.71075833161211 L512.6474552733746 59.89980764528826 L517.7256866282371 45.6418562721006 L522.8039179830996 31.085904441003777 L527.8821493379621 16.38095238095235 " fill="none" stroke-width="1.6500000000000001" stroke="rgb(234,124,204)" stroke-opacity="1.0">
          </path>
        </g>
      </g>
      <g transform="translate(13.980605455468202 0.0 ) " clip-path="url(#xXxprefixXx2)" clip-bounds-jfx="[rect (0.0, 0.0), (553.0193945445318, 344.0)]">
        <defs>
          <clipPath id="xXxprefixXx2">
            <rect x="0.0" y="0.0" width="553.0193945445318" height="344.0">
            </rect>
          </clipPath>
        </defs>
        <g>
          
          <g >
            <circle fill="#fc8452" stroke="#fc8452" stroke-opacity="0.0" stroke-width="0.0" cx="25.137245206569617" cy="79.9488272921111" r="4.4" />
            <circle fill="#fc8452" stroke="#fc8452" stroke-opacity="0.0" stroke-width="0.0" cx="67.03265388418566" cy="285.32196162046915" r="4.4" />
            <circle fill="#fc8452" stroke="#fc8452" stroke-opacity="0.0" stroke-width="0.0" cx="108.92806256180171" cy="177.74555792466256" r="4.4" />
            <circle fill="#fc8452" stroke="#fc8452" stroke-opacity="0.0" stroke-width="0.0" cx="150.82347123941776" cy="309.771144278607" r="4.4" />
            <circle fill="#fc8452" stroke="#fc8452" stroke-opacity="0.0" stroke-width="0.0" cx="192.7188799170338" cy="304.8813077469794" r="4.4" />
            <circle fill="#fc8452" stroke="#fc8452" stroke-opacity="0.0" stroke-width="0.0" cx="276.5096972722659" cy="241.313432835821" r="4.4" />
            <circle fill="#fc8452" stroke="#fc8452" stroke-opacity="0.0" stroke-width="0.0" cx="360.300514627498" cy="314.66098081023455" r="4.4" />
            <circle fill="#fc8452" stroke="#fc8452" stroke-opacity="0.0" stroke-width="0.0" cx="402.19592330511404" cy="236.42359630419344" r="4.4" />
            <circle fill="#fc8452" stroke="#fc8452" stroke-opacity="0.0" stroke-width="0.0" cx="444.0913319827301" cy="177.74555792466256" r="4.4" />
            <circle fill="#fc8452" stroke="#fc8452" stroke-opacity="0.0" stroke-width="0.0" cx="485.98674066034613" cy="123.95735607675928" r="4.4" />
            <circle fill="#fc8452" stroke="#fc8452" stroke-opacity="0.0" stroke-width="0.0" cx="527.8821493379621" cy="16.380952380952692" r="4.4" />
          </g>
        </g>
      </g>
    </g>
    <g transform="translate(14.5 182.0 ) rotate(-90.0 ) ">
      <text class="axis-title-y" y="0.0" text-anchor="middle">
      y
      </text>
    </g>
    <g transform="translate(313.4903027277341 391.5 ) ">
      <text class="axis-title-x" y="0.0" text-anchor="middle">
      x
      </text>
    </g>
    <path fill="rgb(0,0,0)" fill-opacity="0.0" stroke="rgb(71,71,71)" stroke-opacity="1.0" stroke-width="0.0" d="M0.0 0.0 L0.0 400.0 L600.0 400.0 L600.0 0.0 Z">
    </path>
  </g>
  <g id="xXxprefixXx3">
  </g>
</svg>