<svg xmlns="http://www.w3.org/2000/svg" xmlns:xlink="http://www.w3.org/1999/xlink" class="plt-container" width="705.0" height="470.0">
  <style type="text/css">
  .plt-container {
   font-family: Lucida Grande, sans-serif;
   user-select: none;
   -webkit-user-select: none;
   -moz-user-select: none;
   -ms-user-select: none;
}
text {
   text-rendering: optimizeLegibility;
}
#xXxprefixXx0 .plot-title {
   fill: #474747;
   font-family: Lucida Grande, sans-serif;
   font-size: 16.0px;
   font-weight: normal;
   font-style: normal;   
}
#xXxprefixXx0 .plot-subtitle {
   fill: #474747;
   font-family: Lucida Grande, sans-serif;
   font-size: 15.0px;
   font-weight: normal;
   font-style: normal;   
}
#xXxprefixXx0 .plot-caption {
   fill: #474747;
   font-family: Lucida Grande, sans-serif;
   font-size: 13.0px;
   font-weight: normal;
   font-style: normal;   
}
#xXxprefixXx0 .legend-title {
   fill: #474747;
   font-family: Lucida Grande, sans-serif;
   font-size: 15.0px;
   font-weight: normal;
   font-style: normal;   
}
#xXxprefixXx0 .legend-item {
   fill: #474747;
   font-family: Lucida Grande, sans-serif;
   font-size: 13.0px;
   font-weight: normal;
   font-style: normal;   
}
#xXxprefixXx0 .axis-title-x {
   fill: #474747;
   font-family: Lucida Grande, sans-serif;
   font-size: 15.0px;
   font-weight: normal;
   font-style: normal;   
}
#xXxprefixXx0 .axis-text-x {
   fill: #474747;
   font-family: Lucida Grande, sans-serif;
   font-size: 13.0px;
   font-weight: normal;
   font-style: normal;   
}
#xXxprefixXx3 .axis-tooltip-text-x {
   fill: #ffffff;
   font-family: Lucida Grande, sans-serif;
   font-size: 13.0px;
   font-weight: normal;
   font-style: normal;   
}
#xXxprefixXx0 .axis-title-y {
   fill: #474747;
   font-family: Lucida Grande, sans-serif;
   font-size: 15.0px;
   font-weight: normal;
   font-style: normal;   
}
#xXxprefixXx0 .axis-text-y {
   fill: #474747;
   font-family: Lucida Grande, sans-serif;
   font-size: 13.0px;
   font-weight: normal;
   font-style: normal;   
}
#xXxprefixXx3 .axis-tooltip-text-y {
   fill: #ffffff;
   font-family: Lucida Grande, sans-serif;
   font-size: 13.0px;
   font-weight: normal;
   font-style: normal;   
}
#xXxprefixXx0 .facet-strip-text-x {
   fill: #474747;
   font-family: Lucida Grande, sans-serif;
   font-size: 13.0px;
   font-weight: normal;
   font-style: normal;   
}
#xXxprefixXx0 .facet-strip-text-y {
   fill: #474747;
   font-family: Lucida Grande, sans-serif;
   font-size: 13.0px;
   font-weight: normal;
   font-style: normal;   
}
#xXxprefixXx3 .tooltip-text {
   fill: #474747;
   font-family: Lucida Grande, sans-serif;
   font-size: 13.0px;
   font-weight: normal;
   font-style: normal;   
}
#xXxprefixXx3 .tooltip-title {
   fill: #474747;
   font-family: Lucida Grande, sans-serif;
   font-size: 13.0px;
   font-weight: bold;
   font-style: normal;   
}
#xXxprefixXx3 .tooltip-label {
   fill: #474747;
   font-family: Lucida Grande, sans-serif;
   font-size: 13.0px;
   font-weight: bold;
   font-style: normal;   
}

  </style>
  <g id="xXxprefixXx0">
    <path fill-rule="evenodd" fill="rgb(255,255,255)" fill-opacity="1.0" d="M0.0 0.0 L0.0 470.0 L705.0 470.0 L705.0 0.0 Z">
    </path>
    <g transform="translate(23.0 10.0 ) ">
      <g transform="translate(13.980605455468202 414.0 ) ">
        <line x1="29.90997247929687" y1="-0.0" x2="29.90997247929687" y2="-414.0" stroke="rgb(233,233,233)" stroke-opacity="1.0" stroke-width="1.0">
        </line>
        <line x1="129.6098807436199" y1="-0.0" x2="129.6098807436199" y2="-414.0" stroke="rgb(233,233,233)" stroke-opacity="1.0" stroke-width="1.0">
        </line>
        <line x1="229.3097890079429" y1="-0.0" x2="229.3097890079429" y2="-414.0" stroke="rgb(233,233,233)" stroke-opacity="1.0" stroke-width="1.0">
        </line>
        <line x1="329.0096972722659" y1="-0.0" x2="329.0096972722659" y2="-414.0" stroke="rgb(233,233,233)" stroke-opacity="1.0" stroke-width="1.0">
        </line>
        <line x1="428.7096055365889" y1="-0.0" x2="428.7096055365889" y2="-414.0" stroke="rgb(233,233,233)" stroke-opacity="1.0" stroke-width="1.0">
        </line>
        <line x1="528.4095138009119" y1="-0.0" x2="528.4095138009119" y2="-414.0" stroke="rgb(233,233,233)" stroke-opacity="1.0" stroke-width="1.0">
        </line>
        <line x1="628.1094220652349" y1="-0.0" x2="628.1094220652349" y2="-414.0" stroke="rgb(233,233,233)" stroke-opacity="1.0" stroke-width="1.0">
        </line>
        <g transform="translate(29.90997247929687 0.0 ) ">
          <line stroke-width="1.0" stroke="rgb(71,71,71)" stroke-opacity="1.0" x2="0.0" y2="4.0">
          </line>
          <g transform="translate(0.0 7.0 ) ">
            <text class="axis-text-x" text-anchor="middle" dy="0.7em">
            -3
            </text>
          </g>
        </g>
        <g transform="translate(129.6098807436199 0.0 ) ">
          <line stroke-width="1.0" stroke="rgb(71,71,71)" stroke-opacity="1.0" x2="0.0" y2="4.0">
          </line>
          <g transform="translate(0.0 7.0 ) ">
            <text class="axis-text-x" text-anchor="middle" dy="0.7em">
            -2
            </text>
          </g>
        </g>
        <g transform="translate(229.3097890079429 0.0 ) ">
          <line stroke-width="1.0" stroke="rgb(71,71,71)" stroke-opacity="1.0" x2="0.0" y2="4.0">
          </line>
          <g transform="translate(0.0 7.0 ) ">
            <text class="axis-text-x" text-anchor="middle" dy="0.7em">
            -1
            </text>
          </g>
        </g>
        <g transform="translate(329.0096972722659 0.0 ) ">
          <line stroke-width="1.0" stroke="rgb(71,71,71)" stroke-opacity="1.0" x2="0.0" y2="4.0">
          </line>
          <g transform="translate(0.0 7.0 ) ">
            <text class="axis-text-x" text-anchor="middle" dy="0.7em">
            0
            </text>
          </g>
        </g>
        <g transform="translate(428.7096055365889 0.0 ) ">
          <line stroke-width="1.0" stroke="rgb(71,71,71)" stroke-opacity="1.0" x2="0.0" y2="4.0">
          </line>
          <g transform="translate(0.0 7.0 ) ">
            <text class="axis-text-x" text-anchor="middle" dy="0.7em">
            1
            </text>
          </g>
        </g>
        <g transform="translate(528.4095138009119 0.0 ) ">
          <line stroke-width="1.0" stroke="rgb(71,71,71)" stroke-opacity="1.0" x2="0.0" y2="4.0">
          </line>
          <g transform="translate(0.0 7.0 ) ">
            <text class="axis-text-x" text-anchor="middle" dy="0.7em">
            2
            </text>
          </g>
        </g>
        <g transform="translate(628.1094220652349 0.0 ) ">
          <line stroke-width="1.0" stroke="rgb(71,71,71)" stroke-opacity="1.0" x2="0.0" y2="4.0">
          </line>
          <g transform="translate(0.0 7.0 ) ">
            <text class="axis-text-x" text-anchor="middle" dy="0.7em">
            3
            </text>
          </g>
        </g>
        <line x1="0.0" y1="0.0" x2="658.0193945445318" y2="0.0" stroke-width="1.0" stroke="rgb(71,71,71)" stroke-opacity="1.0">
        </line>
      </g>
      <g transform="translate(13.980605455468202 0.0 ) ">
        <line x1="0.0" y1="355.1513859275054" x2="658.0193945445318" y2="355.1513859275054" stroke="rgb(233,233,233)" stroke-opacity="1.0" stroke-width="1.0">
        </line>
        <line x1="0.0" y1="296.3027718550108" x2="658.0193945445318" y2="296.3027718550108" stroke="rgb(233,233,233)" stroke-opacity="1.0" stroke-width="1.0">
        </line>
        <line x1="0.0" y1="237.45415778251618" x2="658.0193945445318" y2="237.45415778251618" stroke="rgb(233,233,233)" stroke-opacity="1.0" stroke-width="1.0">
        </line>
        <line x1="0.0" y1="178.60554371002158" x2="658.0193945445318" y2="178.60554371002158" stroke="rgb(233,233,233)" stroke-opacity="1.0" stroke-width="1.0">
        </line>
        <line x1="0.0" y1="119.75692963752698" x2="658.0193945445318" y2="119.75692963752698" stroke="rgb(233,233,233)" stroke-opacity="1.0" stroke-width="1.0">
        </line>
        <line x1="0.0" y1="60.90831556503235" x2="658.0193945445318" y2="60.90831556503235" stroke="rgb(233,233,233)" stroke-opacity="1.0" stroke-width="1.0">
        </line>
        <g transform="translate(0.0 414.0 ) ">
          <g transform="translate(-3.0 0.0 ) ">
            <text class="axis-text-y" text-anchor="end" dy="0.35em">
            0
            </text>
          </g>
        </g>
        <g transform="translate(0.0 355.1513859275054 ) ">
          <g transform="translate(-3.0 0.0 ) ">
            <text class="axis-text-y" text-anchor="end" dy="0.35em">
            1
            </text>
          </g>
        </g>
        <g transform="translate(0.0 296.3027718550108 ) ">
          <g transform="translate(-3.0 0.0 ) ">
            <text class="axis-text-y" text-anchor="end" dy="0.35em">
            2
            </text>
          </g>
        </g>
        <g transform="translate(0.0 237.45415778251618 ) ">
          <g transform="translate(-3.0 0.0 ) ">
            <text class="axis-text-y" text-anchor="end" dy="0.35em">
            3
            </text>
          </g>
        </g>
        <g transform="translate(0.0 178.60554371002158 ) ">
          <g transform="translate(-3.0 0.0 ) ">
            <text class="axis-text-y" text-anchor="end" dy="0.35em">
            4
            </text>
          </g>
        </g>
        <g transform="translate(0.0 119.75692963752698 ) ">
          <g transform="translate(-3.0 0.0 ) ">
            <text class="axis-text-y" text-anchor="end" dy="0.35em">
            5
            </text>
          </g>
        </g>
        <g transform="translate(0.0 60.90831556503235 ) ">
          <g transform="translate(-3.0 0.0 ) ">
            <text class="axis-text-y" text-anchor="end" dy="0.35em">
            6
            </text>
          </g>
        </g>
        <g transform="translate(0.0 2.0597014925377835 ) ">
          <g transform="translate(-3.0 0.0 ) ">
            <text class="axis-text-y" text-anchor="end" dy="0.35em">
            7
            </text>
          </g>
        </g>
      </g>
      <g transform="translate(13.980605455468202 0.0 ) " clip-path="url(#xXxprefixXx1)" clip-bounds-jfx="[rect (0.0, 0.0), (658.0193945445318, 414.0)]">
        <defs>
          <clipPath id="xXxprefixXx1">
            <rect x="0.0" y="0.0" width="658.0193945445318" height="414.0">
            </rect>
          </clipPath>
        </defs>
        <g>
          <path d="M29.90997247929687 96.21748400852982 L29.90997247929687 96.21748400852982 L35.952391161983144 141.03792039725977 L41.99480984466936 184.5287485591723 L48.03722852735558 225.36036026745 L54.079647210041855 262.2031472952755 L60.12206589272813 293.7275014158316 L66.16448457541435 318.6038144023005 L72.20690325810062 335.5024780278649 L78.24932194078684 343.09388406570747 L84.29174062347306 340.32638421720213 L90.33415930615931 328.56761104020205 L96.37657798884558 310.4308693633433 L102.41899667153183 288.53975882741753 L108.46141535421808 265.51787907321625 L114.5038340369043 243.98882974153088 L120.54625271959054 226.57621047315283 L126.58867140227679 215.90362090887356 L132.631090084963 214.4971037006192 L138.67350876764925 222.63889075641112 L144.7159274503355 238.36740324036643 L150.75834613302175 259.62350532773644 L156.800764815708 284.34806119377276 L162.84318349839424 310.48193501372697 L168.8856021810805 335.96599096285036 L174.92802086376673 358.7410932163947 L180.97043954645295 376.75547619260954 L187.0128582291392 388.84917371253357 L193.05527691182544 395.5942267017952 L199.0976955945117 397.7616726469756 L205.14011427719794 396.1225490346561 L211.18253295988418 391.4478933514179 L217.22495164257043 384.50874308384243 L223.26737032525665 376.0761357185107 L229.3097890079429 366.92110874200426 L235.35220769062914 357.70169961661935 L241.39462637331536 348.62394570751326 L247.4370450560016 339.78088435555844 L253.47946373868788 331.2655529016272 L259.52188242137413 323.170988686592 L265.56430110406035 315.5902290513253 L271.6067197867466 308.6163113366995 L277.64913846943284 302.34227288358693 L283.69155715211906 296.86115103286005 L289.73397583480534 292.2659831253913 L295.7763945174916 288.649806502053 L301.81881320017783 286.1056585037177 L307.86123188286405 284.72657647125766 L313.9036505655503 284.6055977455454 L319.94606924823654 285.8357596674533 L325.98848793092276 288.51009957785374 L332.03090661360903 292.7142419711923 L338.07332529629525 298.3633158740961 L344.11574397898147 305.2019548453742 L350.15816266166775 312.9673795974086 L356.200581344354 321.3968108425812 L362.24300002704024 330.2274692932742 L368.28541870972646 339.1965756618696 L374.32783739241273 348.0413506607494 L380.37025607509895 356.49901500229566 L386.41267475778517 364.30678939889043 L392.4550934404715 371.2018945629158 L398.4975121231577 376.9215512067537 L404.53993080584394 381.2029800427862 L410.5823494885302 383.7834017833954 L416.62476817121643 384.40003714096326 L422.66718685390265 382.79010682787185 L428.7096055365889 378.6908315565032 L434.75202421927514 371.96214118682025 L440.79444290196136 362.9548021691092 L446.83686158464764 352.1422901012371 L452.87928026733385 339.998080581071 L458.9216989500201 326.9956492064781 L464.96411763270635 313.6084715753253 L471.0065363153926 300.31002328547964 L477.0489549980789 287.5737799348085 L483.0913736807651 275.83188876344525 L489.13379236345133 265.15678723124995 L495.1762110461376 255.43570052823998 L501.2186297288238 246.55432316451646 L507.26104841151005 238.3983496501805 L513.3034670941963 230.85347449533342 L519.3458857768826 223.80539221007632 L525.3883044595688 217.1397973045104 L531.430723142255 210.74049691699992 L537.4731418249412 204.4478886359605 L543.5155605076275 198.05896049985898 L549.5579791903137 191.36881317542534 L555.600397873 184.17254732938952 L561.6428165556863 176.26526362848136 L567.6852352383726 167.442062739431 L573.7276539210587 157.49804532896837 L579.770072603745 146.22931263511578 L585.8124912864312 133.5530350222678 L591.8549099691174 119.62151710851754 L597.8973286518037 104.61407893685094 L603.93974733449 88.71004055025412 L609.9821660171763 72.08872199171321 L616.0245846998624 54.92944330421409 L622.0670033825486 37.41152453074295 L628.1094220652349 19.714285714285722 L628.1094220652349 414.0 L622.0670033825486 414.0 L616.0245846998624 414.0 L609.9821660171763 414.0 L603.93974733449 414.0 L597.8973286518037 414.0 L591.8549099691174 414.0 L585.8124912864312 414.0 L579.770072603745 414.0 L573.7276539210587 414.0 L567.6852352383726 414.0 L561.6428165556863 414.0 L555.600397873 414.0 L549.5579791903137 414.0 L543.5155605076275 414.0 L537.4731418249412 414.0 L531.430723142255 414.0 L525.3883044595688 414.0 L519.3458857768826 414.0 L513.3034670941963 414.0 L507.26104841151005 414.0 L501.2186297288238 414.0 L495.1762110461376 414.0 L489.13379236345133 414.0 L483.0913736807651 414.0 L477.0489549980789 414.0 L471.0065363153926 414.0 L464.96411763270635 414.0 L458.9216989500201 414.0 L452.87928026733385 414.0 L446.83686158464764 414.0 L440.79444290196136 414.0 L434.75202421927514 414.0 L428.7096055365889 414.0 L422.66718685390265 414.0 L416.62476817121643 414.0 L410.5823494885302 414.0 L404.53993080584394 414.0 L398.4975121231577 414.0 L392.4550934404715 414.0 L386.41267475778517 414.0 L380.37025607509895 414.0 L374.32783739241273 414.0 L368.28541870972646 414.0 L362.24300002704024 414.0 L356.200581344354 414.0 L350.15816266166775 414.0 L344.11574397898147 414.0 L338.07332529629525 414.0 L332.03090661360903 414.0 L325.98848793092276 414.0 L319.94606924823654 414.0 L313.9036505655503 414.0 L307.86123188286405 414.0 L301.81881320017783 414.0 L295.7763945174916 414.0 L289.73397583480534 414.0 L283.69155715211906 414.0 L277.64913846943284 414.0 L271.6067197867466 414.0 L265.56430110406035 414.0 L259.52188242137413 414.0 L253.47946373868788 414.0 L247.4370450560016 414.0 L241.39462637331536 414.0 L235.35220769062914 414.0 L229.3097890079429 414.0 L223.26737032525665 414.0 L217.22495164257043 414.0 L211.18253295988418 414.0 L205.14011427719794 414.0 L199.0976955945117 414.0 L193.05527691182544 414.0 L187.0128582291392 414.0 L180.97043954645295 414.0 L174.92802086376673 414.0 L168.8856021810805 414.0 L162.84318349839424 414.0 L156.800764815708 414.0 L150.75834613302175 414.0 L144.7159274503355 414.0 L138.67350876764925 414.0 L132.631090084963 414.0 L126.58867140227679 414.0 L120.54625271959054 414.0 L114.5038340369043 414.0 L108.46141535421808 414.0 L102.41899667153183 414.0 L96.37657798884558 414.0 L90.33415930615931 414.0 L84.29174062347306 414.0 L78.24932194078684 414.0 L72.20690325810062 414.0 L66.16448457541435 414.0 L60.12206589272813 414.0 L54.079647210041855 414.0 L48.03722852735558 414.0 L41.99480984466936 414.0 L35.952391161983144 414.0 L29.90997247929687 414.0 Z" fill="rgb(145,204,117)" stroke-width="1.0" fill-opacity="0.7490196078431373">
          </path>
        </g>
        <g>
          <path d="M29.90997247929687 96.21748400852982 L29.90997247929687 96.21748400852982 L35.952391161983144 141.03792039725977 L41.99480984466936 184.5287485591723 L48.03722852735558 225.36036026745 L54.079647210041855 262.2031472952755 L60.12206589272813 293.7275014158316 L66.16448457541435 318.6038144023005 L72.20690325810062 335.5024780278649 L78.24932194078684 343.09388406570747 L84.29174062347306 340.32638421720213 L90.33415930615931 328.56761104020205 L96.37657798884558 310.4308693633433 L102.41899667153183 288.53975882741753 L108.46141535421808 265.51787907321625 L114.5038340369043 243.98882974153088 L120.54625271959054 226.57621047315283 L126.58867140227679 215.90362090887356 L132.631090084963 214.4971037006192 L138.67350876764925 222.63889075641112 L144.7159274503355 238.36740324036643 L150.75834613302175 259.62350532773644 L156.800764815708 284.34806119377276 L162.84318349839424 310.48193501372697 L168.8856021810805 335.96599096285036 L174.92802086376673 358.7410932163947 L180.97043954645295 376.75547619260954 L187.0128582291392 388.84917371253357 L193.05527691182544 395.5942267017952 L199.0976955945117 397.7616726469756 L205.14011427719794 396.1225490346561 L211.18253295988418 391.4478933514179 L217.22495164257043 384.50874308384243 L223.26737032525665 376.0761357185107 L229.3097890079429 366.92110874200426 L235.35220769062914 357.70169961661935 L241.39462637331536 348.62394570751326 L247.4370450560016 339.78088435555844 L253.47946373868788 331.2655529016272 L259.52188242137413 323.170988686592 L265.56430110406035 315.5902290513253 L271.6067197867466 308.6163113366995 L277.64913846943284 302.34227288358693 L283.69155715211906 296.86115103286005 L289.73397583480534 292.2659831253913 L295.7763945174916 288.649806502053 L301.81881320017783 286.1056585037177 L307.86123188286405 284.72657647125766 L313.9036505655503 284.6055977455454 L319.94606924823654 285.8357596674533 L325.98848793092276 288.51009957785374 L332.03090661360903 292.7142419711923 L338.07332529629525 298.3633158740961 L344.11574397898147 305.2019548453742 L350.15816266166775 312.9673795974086 L356.200581344354 321.3968108425812 L362.24300002704024 330.2274692932742 L368.28541870972646 339.1965756618696 L374.32783739241273 348.0413506607494 L380.37025607509895 356.49901500229566 L386.41267475778517 364.30678939889043 L392.4550934404715 371.2018945629158 L398.4975121231577 376.9215512067537 L404.53993080584394 381.2029800427862 L410.5823494885302 383.7834017833954 L416.62476817121643 384.40003714096326 L422.66718685390265 382.79010682787185 L428.7096055365889 378.6908315565032 L434.75202421927514 371.96214118682025 L440.79444290196136 362.9548021691092 L446.83686158464764 352.1422901012371 L452.87928026733385 339.998080581071 L458.9216989500201 326.9956492064781 L464.96411763270635 313.6084715753253 L471.0065363153926 300.31002328547964 L477.0489549980789 287.5737799348085 L483.0913736807651 275.83188876344525 L489.13379236345133 265.15678723124995 L495.1762110461376 255.43570052823998 L501.2186297288238 246.55432316451646 L507.26104841151005 238.3983496501805 L513.3034670941963 230.85347449533342 L519.3458857768826 223.80539221007632 L525.3883044595688 217.1397973045104 L531.430723142255 210.74049691699992 L537.4731418249412 204.4478886359605 L543.5155605076275 198.05896049985898 L549.5579791903137 191.36881317542534 L555.600397873 184.17254732938952 L561.6428165556863 176.26526362848136 L567.6852352383726 167.442062739431 L573.7276539210587 157.49804532896837 L579.770072603745 146.22931263511578 L585.8124912864312 133.5530350222678 L591.8549099691174 119.62151710851754 L597.8973286518037 104.61407893685094 L603.93974733449 88.71004055025412 L609.9821660171763 72.08872199171321 L616.0245846998624 54.92944330421409 L622.0670033825486 37.41152453074295 L628.1094220652349 19.714285714285722 " fill="none" stroke-width="1.6500000000000001" stroke="rgb(234,124,204)" stroke-opacity="1.0">
          </path>
        </g>
      </g>
      <g transform="translate(13.980605455468202 0.0 ) " clip-path="url(#xXxprefixXx2)" clip-bounds-jfx="[rect (0.0, 0.0), (658.0193945445318, 414.0)]">
        <defs>
          <clipPath id="xXxprefixXx2">
            <rect x="0.0" y="0.0" width="658.0193945445318" height="414.0">
            </rect>
          </clipPath>
        </defs>
        <g>
          
          <g >
            <circle fill="#fc8452" stroke="#fc8452" stroke-opacity="0.0" stroke-width="0.0" cx="29.90997247929687" cy="96.21748400852908" r="4.4" />
            <circle fill="#fc8452" stroke="#fc8452" stroke-opacity="0.0" stroke-width="0.0" cx="79.75992661145841" cy="343.3816631130065" r="4.4" />
            <circle fill="#fc8452" stroke="#fc8452" stroke-opacity="0.0" stroke-width="0.0" cx="129.6098807436199" cy="213.91471215351834" r="4.4" />
            <circle fill="#fc8452" stroke="#fc8452" stroke-opacity="0.0" stroke-width="0.0" cx="179.45983487578138" cy="372.80597014925377" r="4.4" />
            <circle fill="#fc8452" stroke="#fc8452" stroke-opacity="0.0" stroke-width="0.0" cx="229.3097890079429" cy="366.9211087420043" r="4.4" />
            <circle fill="#fc8452" stroke="#fc8452" stroke-opacity="0.0" stroke-width="0.0" cx="329.0096972722659" cy="290.4179104477613" r="4.4" />
            <circle fill="#fc8452" stroke="#fc8452" stroke-opacity="0.0" stroke-width="0.0" cx="428.7096055365889" cy="378.6908315565032" r="4.4" />
            <circle fill="#fc8452" stroke="#fc8452" stroke-opacity="0.0" stroke-width="0.0" cx="478.5595596687504" cy="284.53304904051186" r="4.4" />
            <circle fill="#fc8452" stroke="#fc8452" stroke-opacity="0.0" stroke-width="0.0" cx="528.4095138009119" cy="213.91471215351834" r="4.4" />
            <circle fill="#fc8452" stroke="#fc8452" stroke-opacity="0.0" stroke-width="0.0" cx="578.2594679330734" cy="149.18123667377427" r="4.4" />
            <circle fill="#fc8452" stroke="#fc8452" stroke-opacity="0.0" stroke-width="0.0" cx="628.1094220652349" cy="19.71428571428612" r="4.4" />
          </g>
        </g>
      </g>
    </g>
    <g transform="translate(14.5 217.0 ) rotate(-90.0 ) ">
      <text class="axis-title-y" y="0.0" text-anchor="middle">
      y
      </text>
    </g>
    <g transform="translate(365.9903027277341 461.5 ) ">
      <text class="axis-title-x" y="0.0" text-anchor="middle">
      x
      </text>
    </g>
    <path fill="rgb(0,0,0)" fill-opacity="0.0" stroke="rgb(71,71,71)" stroke-opacity="1.0" stroke-width="0.0" d="M0.0 0.0 L0.0 470.0 L705.0 470.0 L705.0 0.0 Z">
    </path>
  </g>
  <g id="xXxprefixXx3">
  </g>
</svg>