<svg xmlns="http://www.w3.org/2000/svg" xmlns:xlink="http://www.w3.org/1999/xlink" display="block" class="plt-container" width="705.0" height="470.0">
  <style type="text/css">
  .plt-container {
   font-family: Lucida Grande, sans-serif;
   user-select: none;
   -webkit-user-select: none;
   -moz-user-select: none;
   -ms-user-select: none;
}
text {
   text-rendering: optimizeLegibility;
}
#xXxprefixXx0 .plot-title {
   fill: #474747;
   font-family: Lucida Grande, sans-serif;
   font-size: 16.0px;
   font-weight: normal;
   font-style: normal;   
}
#xXxprefixXx0 .plot-subtitle {
   fill: #474747;
   font-family: Lucida Grande, sans-serif;
   font-size: 15.0px;
   font-weight: normal;
   font-style: normal;   
}
#xXxprefixXx0 .plot-caption {
   fill: #474747;
   font-family: Lucida Grande, sans-serif;
   font-size: 13.0px;
   font-weight: normal;
   font-style: normal;   
}
#xXxprefixXx0 .legend-title {
   fill: #474747;
   font-family: Lucida Grande, sans-serif;
   font-size: 15.0px;
   font-weight: normal;
   font-style: normal;   
}
#xXxprefixXx0 .legend-item {
   fill: #474747;
   font-family: Lucida Grande, sans-serif;
   font-size: 13.0px;
   font-weight: normal;
   font-style: normal;   
}
#xXxprefixXx0 .axis-title-x {
   fill: #474747;
   font-family: Lucida Grande, sans-serif;
   font-size: 15.0px;
   font-weight: normal;
   font-style: normal;   
}
#xXxprefixXx0 .axis-text-x {
   fill: #474747;
   font-family: Lucida Grande, sans-serif;
   font-size: 13.0px;
   font-weight: normal;
   font-style: normal;   
}
#xXxprefixXx3 .axis-tooltip-text-x {
   fill: #ffffff;
   font-family: Lucida Grande, sans-serif;
   font-size: 13.0px;
   font-weight: normal;
   font-style: normal;   
}
#xXxprefixXx0 .axis-title-y {
   fill: #474747;
   font-family: Lucida Grande, sans-serif;
   font-size: 15.0px;
   font-weight: normal;
   font-style: normal;   
}
#xXxprefixXx0 .axis-text-y {
   fill: #474747;
   font-family: Lucida Grande, sans-serif;
   font-size: 13.0px;
   font-weight: normal;
   font-style: normal;   
}
#xXxprefixXx3 .axis-tooltip-text-y {
   fill: #ffffff;
   font-family: Lucida Grande, sans-serif;
   font-size: 13.0px;
   font-weight: normal;
   font-style: normal;   
}
#xXxprefixXx0 .facet-strip-text-x {
   fill: #474747;
   font-family: Lucida Grande, sans-serif;
   font-size: 13.0px;
   font-weight: normal;
   font-style: normal;   
}
#xXxprefixXx0 .facet-strip-text-y {
   fill: #474747;
   font-family: Lucida Grande, sans-serif;
   font-size: 13.0px;
   font-weight: normal;
   font-style: normal;   
}
#xXxprefixXx3 .tooltip-text {
   fill: #474747;
   font-family: Lucida Grande, sans-serif;
   font-size: 13.0px;
   font-weight: normal;
   font-style: normal;   
}
#xXxprefixXx3 .tooltip-title {
   fill: #474747;
   font-family: Lucida Grande, sans-serif;
   font-size: 13.0px;
   font-weight: bold;
   font-style: normal;   
}
#xXxprefixXx3 .tooltip-label {
   fill: #474747;
   font-family: Lucida Grande, sans-serif;
   font-size: 13.0px;
   font-weight: bold;
   font-style: normal;   
}

  </style>
  <g id="xXxprefixXx0">
    <path fill-rule="evenodd" fill="rgb(255,255,255)" fill-opacity="1.0" d="M0.0 0.0 L0.0 470.0 L705.0 470.0 L705.0 0.0 Z">
    </path>
    <g transform="translate(29.5 6.5 ) ">
      <g>
        <g transform="translate(13.980605455468202 0.0 ) ">
          <g>
            <line x1="29.773608842933243" y1="0.0" x2="29.773608842933243" y2="411.0" stroke="rgb(233,233,233)" stroke-opacity="1.0" stroke-width="1.0" fill="none">
            </line>
            <line x1="129.0189716527108" y1="0.0" x2="129.0189716527108" y2="411.0" stroke="rgb(233,233,233)" stroke-opacity="1.0" stroke-width="1.0" fill="none">
            </line>
            <line x1="228.26433446248836" y1="0.0" x2="228.26433446248836" y2="411.0" stroke="rgb(233,233,233)" stroke-opacity="1.0" stroke-width="1.0" fill="none">
            </line>
            <line x1="327.5096972722659" y1="0.0" x2="327.5096972722659" y2="411.0" stroke="rgb(233,233,233)" stroke-opacity="1.0" stroke-width="1.0" fill="none">
            </line>
            <line x1="426.7550600820434" y1="0.0" x2="426.7550600820434" y2="411.0" stroke="rgb(233,233,233)" stroke-opacity="1.0" stroke-width="1.0" fill="none">
            </line>
            <line x1="526.000422891821" y1="0.0" x2="526.000422891821" y2="411.0" stroke="rgb(233,233,233)" stroke-opacity="1.0" stroke-width="1.0" fill="none">
            </line>
            <line x1="625.2457857015986" y1="0.0" x2="625.2457857015986" y2="411.0" stroke="rgb(233,233,233)" stroke-opacity="1.0" stroke-width="1.0" fill="none">
            </line>
          </g>
        </g>
        <g transform="translate(13.980605455468202 0.0 ) ">
          <g>
            <line x1="0.0" y1="411.0" x2="655.0193945445318" y2="411.0" stroke="rgb(233,233,233)" stroke-opacity="1.0" stroke-width="1.0" fill="none">
            </line>
            <line x1="0.0" y1="352.57782515991477" x2="655.0193945445318" y2="352.57782515991477" stroke="rgb(233,233,233)" stroke-opacity="1.0" stroke-width="1.0" fill="none">
            </line>
            <line x1="0.0" y1="294.15565031982953" x2="655.0193945445318" y2="294.15565031982953" stroke="rgb(233,233,233)" stroke-opacity="1.0" stroke-width="1.0" fill="none">
            </line>
            <line x1="0.0" y1="235.73347547974433" x2="655.0193945445318" y2="235.73347547974433" stroke="rgb(233,233,233)" stroke-opacity="1.0" stroke-width="1.0" fill="none">
            </line>
            <line x1="0.0" y1="177.3113006396591" x2="655.0193945445318" y2="177.3113006396591" stroke="rgb(233,233,233)" stroke-opacity="1.0" stroke-width="1.0" fill="none">
            </line>
            <line x1="0.0" y1="118.88912579957389" x2="655.0193945445318" y2="118.88912579957389" stroke="rgb(233,233,233)" stroke-opacity="1.0" stroke-width="1.0" fill="none">
            </line>
            <line x1="0.0" y1="60.466950959488656" x2="655.0193945445318" y2="60.466950959488656" stroke="rgb(233,233,233)" stroke-opacity="1.0" stroke-width="1.0" fill="none">
            </line>
            <line x1="0.0" y1="2.044776119403423" x2="655.0193945445318" y2="2.044776119403423" stroke="rgb(233,233,233)" stroke-opacity="1.0" stroke-width="1.0" fill="none">
            </line>
          </g>
        </g>
      </g>
      <g clip-path="url(#xXxprefixXx2)" clip-bounds-jfx="[rect (13.980605455468202, 0.0), (655.0193945445318, 411.0)]">
        <g transform="translate(13.980605455468202 0.0 ) ">
          <g>
            <g>
              <g>
                <path d="M29.773608842933243 95.52025586354046 L29.773608842933243 95.52025586354046 L35.78847931625313 140.0159064813376 L41.80334978957296 183.1915837145406 L47.818220262892794 223.72731417855542 L53.833090736212625 260.30312448878806 L59.847961209532514 291.5990412606444 L65.8628316828524 316.2950911095302 L71.87770215617223 333.0713006508514 L77.89257262949207 340.60769650001396 L83.90744310281192 337.8602509982369 L89.92231357613176 326.1866863225194 L95.93718404945164 308.1813703099857 L101.9520545227715 286.44889100982755 L107.96692499609134 263.59383647123644 L113.9817954694112 242.22079474340384 L119.99666594273103 224.93435387552128 L126.01153641605089 214.33910191678027 L132.02640688937072 212.9427768622089 L138.04127736269058 221.02556546107482 L144.05614783601044 236.6401032168855 L150.0710183093303 257.7421755789847 L156.08588878265013 282.2875679967164 L162.10075925597 308.2320659194246 L168.11562972928985 333.5314547964529 L174.13050020260968 356.14152007714546 L180.14537067592954 374.02536404628626 L186.16024114924937 386.03142607693553 L192.17511162256926 392.7276018706228 L198.1899820958891 394.8793416857656 L204.20485256920892 393.2520957807818 L210.2197230425288 388.61131441408884 L216.23459351584864 381.7224478441044 L222.2494639891685 373.3509463292462 L228.26433446248836 364.26226012793177 L234.2792049358082 355.10965831504967 L240.29407540912803 346.0976852313719 L246.3089458824479 337.3187040341413 L252.32381635576778 328.8650778806009 L258.33868682908764 320.8291699279935 L264.35355730240747 313.3033433335621 L270.3684277757273 306.37996125454947 L276.38329824904713 300.1513868481986 L282.398168722367 294.7099832717524 L288.41303919568685 290.1481136824537 L294.42790966900674 286.5581412375453 L300.44278014232657 284.03242909427047 L306.45765061564646 282.66334040987175 L312.4725210889663 282.5432383415922 L318.4873915622861 283.7644860466746 L324.50226203560595 286.41944668236204 L330.51713250892584 290.59312427574883 L336.5320029822457 296.20126286051567 L342.5468734555655 302.9903464769294 L348.5617439288854 310.6995000351085 L354.5766144022052 319.0678484451712 L360.5914848755251 327.834516617236 L366.60635534884494 336.7386294614212 L372.6212258221648 345.51931188784545 L378.63609629548466 353.91568880662686 L384.6509667688045 361.666885127884 L390.6658372421244 368.51202576173523 L396.6807077154442 374.19023561829897 L402.69557818876405 378.4406396076935 L408.7104486620839 381.0023626400374 L414.72531913540377 381.614529625449 L420.7401896087236 380.0162654740467 L426.7550600820434 375.9466950959489 L432.7699305553633 369.2667633521332 L438.78480102868315 360.3246949070142 L444.799671502003 349.5905343758658 L450.8145419753228 337.5343263739618 L456.82941244864264 324.6261155165761 L462.84428292196253 311.3359464189824 L468.8591533952824 298.13386369645445 L474.8740238686023 285.4899119642664 L480.88889434192214 273.83310696081156 L486.90376481524197 263.2353612368206 L492.91863528856186 253.58471719107882 L498.9335057618817 244.7676976343388 L504.9483762352015 236.6708253773531 L510.9632467085214 229.1806232308745 L516.9781171818412 222.18361400565547 L522.9929876551611 215.56632051244873 L529.0078581284808 209.21339186687675 L535.0227286018007 202.9663821965695 L541.0375990751206 196.62375064116435 L547.0524695484405 189.98208264516862 L553.0673400217603 182.8379636530896 L559.0822104950803 174.98797910943438 L565.0970809684001 166.22871445871047 L571.11195144172 156.35675514542513 L577.1268219150397 145.16967993486128 L583.1416923883596 132.58525940616437 L589.1565628616795 118.75469452077465 L595.1714333349993 103.85600590107663 L601.1863038083192 88.06721416945521 L607.2011742816389 71.56633994829502 L613.2160447549588 54.53140385998063 L619.2309152282787 37.14042652689693 L625.2457857015986 19.571428571428555 L625.2457857015986 411.0 L619.2309152282787 411.0 L613.2160447549588 411.0 L607.2011742816389 411.0 L601.1863038083192 411.0 L595.1714333349993 411.0 L589.1565628616795 411.0 L583.1416923883596 411.0 L577.1268219150397 411.0 L571.11195144172 411.0 L565.0970809684001 411.0 L559.0822104950803 411.0 L553.0673400217603 411.0 L547.0524695484405 411.0 L541.0375990751206 411.0 L535.0227286018007 411.0 L529.0078581284808 411.0 L522.9929876551611 411.0 L516.9781171818412 411.0 L510.9632467085214 411.0 L504.9483762352015 411.0 L498.9335057618817 411.0 L492.91863528856186 411.0 L486.90376481524197 411.0 L480.88889434192214 411.0 L474.8740238686023 411.0 L468.8591533952824 411.0 L462.84428292196253 411.0 L456.82941244864264 411.0 L450.8145419753228 411.0 L444.799671502003 411.0 L438.78480102868315 411.0 L432.7699305553633 411.0 L426.7550600820434 411.0 L420.7401896087236 411.0 L414.72531913540377 411.0 L408.7104486620839 411.0 L402.69557818876405 411.0 L396.6807077154442 411.0 L390.6658372421244 411.0 L384.6509667688045 411.0 L378.63609629548466 411.0 L372.6212258221648 411.0 L366.60635534884494 411.0 L360.5914848755251 411.0 L354.5766144022052 411.0 L348.5617439288854 411.0 L342.5468734555655 411.0 L336.5320029822457 411.0 L330.51713250892584 411.0 L324.50226203560595 411.0 L318.4873915622861 411.0 L312.4725210889663 411.0 L306.45765061564646 411.0 L300.44278014232657 411.0 L294.42790966900674 411.0 L288.41303919568685 411.0 L282.398168722367 411.0 L276.38329824904713 411.0 L270.3684277757273 411.0 L264.35355730240747 411.0 L258.33868682908764 411.0 L252.32381635576778 411.0 L246.3089458824479 411.0 L240.29407540912803 411.0 L234.2792049358082 411.0 L228.26433446248836 411.0 L222.2494639891685 411.0 L216.23459351584864 411.0 L210.2197230425288 411.0 L204.20485256920892 411.0 L198.1899820958891 411.0 L192.17511162256926 411.0 L186.16024114924937 411.0 L180.14537067592954 411.0 L174.13050020260968 411.0 L168.11562972928985 411.0 L162.10075925597 411.0 L156.08588878265013 411.0 L150.0710183093303 411.0 L144.05614783601044 411.0 L138.04127736269058 411.0 L132.02640688937072 411.0 L126.01153641605089 411.0 L119.99666594273103 411.0 L113.9817954694112 411.0 L107.96692499609134 411.0 L101.9520545227715 411.0 L95.93718404945164 411.0 L89.92231357613176 411.0 L83.90744310281192 411.0 L77.89257262949207 411.0 L71.87770215617223 411.0 L65.8628316828524 411.0 L59.847961209532514 411.0 L53.833090736212625 411.0 L47.818220262892794 411.0 L41.80334978957296 411.0 L35.78847931625313 411.0 L29.773608842933243 411.0 Z" fill="rgb(145,204,117)" stroke-width="1.0" fill-opacity="0.7490196078431373">
                </path>
              </g>
              <g>
                <path d="M29.773608842933243 95.52025586354046 L29.773608842933243 95.52025586354046 L35.78847931625313 140.0159064813376 L41.80334978957296 183.1915837145406 L47.818220262892794 223.72731417855542 L53.833090736212625 260.30312448878806 L59.847961209532514 291.5990412606444 L65.8628316828524 316.2950911095302 L71.87770215617223 333.0713006508514 L77.89257262949207 340.60769650001396 L83.90744310281192 337.8602509982369 L89.92231357613176 326.1866863225194 L95.93718404945164 308.1813703099857 L101.9520545227715 286.44889100982755 L107.96692499609134 263.59383647123644 L113.9817954694112 242.22079474340384 L119.99666594273103 224.93435387552128 L126.01153641605089 214.33910191678027 L132.02640688937072 212.9427768622089 L138.04127736269058 221.02556546107482 L144.05614783601044 236.6401032168855 L150.0710183093303 257.7421755789847 L156.08588878265013 282.2875679967164 L162.10075925597 308.2320659194246 L168.11562972928985 333.5314547964529 L174.13050020260968 356.14152007714546 L180.14537067592954 374.02536404628626 L186.16024114924937 386.03142607693553 L192.17511162256926 392.7276018706228 L198.1899820958891 394.8793416857656 L204.20485256920892 393.2520957807818 L210.2197230425288 388.61131441408884 L216.23459351584864 381.7224478441044 L222.2494639891685 373.3509463292462 L228.26433446248836 364.26226012793177 L234.2792049358082 355.10965831504967 L240.29407540912803 346.0976852313719 L246.3089458824479 337.3187040341413 L252.32381635576778 328.8650778806009 L258.33868682908764 320.8291699279935 L264.35355730240747 313.3033433335621 L270.3684277757273 306.37996125454947 L276.38329824904713 300.1513868481986 L282.398168722367 294.7099832717524 L288.41303919568685 290.1481136824537 L294.42790966900674 286.5581412375453 L300.44278014232657 284.03242909427047 L306.45765061564646 282.66334040987175 L312.4725210889663 282.5432383415922 L318.4873915622861 283.7644860466746 L324.50226203560595 286.41944668236204 L330.51713250892584 290.59312427574883 L336.5320029822457 296.20126286051567 L342.5468734555655 302.9903464769294 L348.5617439288854 310.6995000351085 L354.5766144022052 319.0678484451712 L360.5914848755251 327.834516617236 L366.60635534884494 336.7386294614212 L372.6212258221648 345.51931188784545 L378.63609629548466 353.91568880662686 L384.6509667688045 361.666885127884 L390.6658372421244 368.51202576173523 L396.6807077154442 374.19023561829897 L402.69557818876405 378.4406396076935 L408.7104486620839 381.0023626400374 L414.72531913540377 381.614529625449 L420.7401896087236 380.0162654740467 L426.7550600820434 375.9466950959489 L432.7699305553633 369.2667633521332 L438.78480102868315 360.3246949070142 L444.799671502003 349.5905343758658 L450.8145419753228 337.5343263739618 L456.82941244864264 324.6261155165761 L462.84428292196253 311.3359464189824 L468.8591533952824 298.13386369645445 L474.8740238686023 285.4899119642664 L480.88889434192214 273.83310696081156 L486.90376481524197 263.2353612368206 L492.91863528856186 253.58471719107882 L498.9335057618817 244.7676976343388 L504.9483762352015 236.6708253773531 L510.9632467085214 229.1806232308745 L516.9781171818412 222.18361400565547 L522.9929876551611 215.56632051244873 L529.0078581284808 209.21339186687675 L535.0227286018007 202.9663821965695 L541.0375990751206 196.62375064116435 L547.0524695484405 189.98208264516862 L553.0673400217603 182.8379636530896 L559.0822104950803 174.98797910943438 L565.0970809684001 166.22871445871047 L571.11195144172 156.35675514542513 L577.1268219150397 145.16967993486128 L583.1416923883596 132.58525940616437 L589.1565628616795 118.75469452077465 L595.1714333349993 103.85600590107663 L601.1863038083192 88.06721416945521 L607.2011742816389 71.56633994829502 L613.2160447549588 54.53140385998063 L619.2309152282787 37.14042652689693 L625.2457857015986 19.571428571428555 " fill="none" stroke-width="1.6500000000000001" stroke="rgb(234,124,204)" stroke-opacity="1.0">
                </path>
              </g>
            </g>
            <g>
              <g>
                <g >
                  <circle fill="#fc8452" stroke="#fc8452" stroke-opacity="0.0" stroke-width="0.0" cx="29.773608842933243" cy="95.52025586353977" r="4.4" />
                  <circle fill="#fc8452" stroke="#fc8452" stroke-opacity="0.0" stroke-width="0.0" cx="79.39629024782204" cy="340.89339019189777" r="4.4" />
                  <circle fill="#fc8452" stroke="#fc8452" stroke-opacity="0.0" stroke-width="0.0" cx="129.0189716527108" cy="212.36460554371024" r="4.4" />
                  <circle fill="#fc8452" stroke="#fc8452" stroke-opacity="0.0" stroke-width="0.0" cx="178.64165305759957" cy="370.10447761194035" r="4.4" />
                  <circle fill="#fc8452" stroke="#fc8452" stroke-opacity="0.0" stroke-width="0.0" cx="228.26433446248836" cy="364.2622601279318" r="4.4" />
                  <circle fill="#fc8452" stroke="#fc8452" stroke-opacity="0.0" stroke-width="0.0" cx="327.5096972722659" cy="288.313432835821" r="4.4" />
                  <circle fill="#fc8452" stroke="#fc8452" stroke-opacity="0.0" stroke-width="0.0" cx="426.7550600820434" cy="375.9466950959489" r="4.4" />
                  <circle fill="#fc8452" stroke="#fc8452" stroke-opacity="0.0" stroke-width="0.0" cx="476.3777414869322" cy="282.4712153518125" r="4.4" />
                  <circle fill="#fc8452" stroke="#fc8452" stroke-opacity="0.0" stroke-width="0.0" cx="526.000422891821" cy="212.36460554371024" r="4.4" />
                  <circle fill="#fc8452" stroke="#fc8452" stroke-opacity="0.0" stroke-width="0.0" cx="575.6231042967097" cy="148.10021321961648" r="4.4" />
                  <circle fill="#fc8452" stroke="#fc8452" stroke-opacity="0.0" stroke-width="0.0" cx="625.2457857015986" cy="19.571428571428953" r="4.4" />
                </g>
              </g>
            </g>
          </g>
        </g>
        <defs>
          <clipPath id="xXxprefixXx1">
            <rect x="13.980605455468202" y="0.0" width="655.0193945445318" height="411.0">
            </rect>
          </clipPath>
        </defs>
        <defs>
          <clipPath id="xXxprefixXx2">
            <rect x="13.980605455468202" y="0.0" width="655.0193945445318" height="411.0">
            </rect>
          </clipPath>
        </defs>
      </g>
      <g>
        <g transform="translate(13.980605455468202 411.0 ) ">
          <g transform="translate(29.773608842933243 0.0 ) ">
            <line stroke-width="1.0" stroke="rgb(71,71,71)" stroke-opacity="1.0" x2="0.0" y2="4.0">
            </line>
            <g transform="translate(0.0 7.0 ) ">
              <text class="axis-text-x" text-anchor="middle" dy="0.7em">
                <tspan>-3</tspan>
              </text>
            </g>
          </g>
          <g transform="translate(129.0189716527108 0.0 ) ">
            <line stroke-width="1.0" stroke="rgb(71,71,71)" stroke-opacity="1.0" x2="0.0" y2="4.0">
            </line>
            <g transform="translate(0.0 7.0 ) ">
              <text class="axis-text-x" text-anchor="middle" dy="0.7em">
                <tspan>-2</tspan>
              </text>
            </g>
          </g>
          <g transform="translate(228.26433446248836 0.0 ) ">
            <line stroke-width="1.0" stroke="rgb(71,71,71)" stroke-opacity="1.0" x2="0.0" y2="4.0">
            </line>
            <g transform="translate(0.0 7.0 ) ">
              <text class="axis-text-x" text-anchor="middle" dy="0.7em">
                <tspan>-1</tspan>
              </text>
            </g>
          </g>
          <g transform="translate(327.5096972722659 0.0 ) ">
            <line stroke-width="1.0" stroke="rgb(71,71,71)" stroke-opacity="1.0" x2="0.0" y2="4.0">
            </line>
            <g transform="translate(0.0 7.0 ) ">
              <text class="axis-text-x" text-anchor="middle" dy="0.7em">
                <tspan>0</tspan>
              </text>
            </g>
          </g>
          <g transform="translate(426.7550600820434 0.0 ) ">
            <line stroke-width="1.0" stroke="rgb(71,71,71)" stroke-opacity="1.0" x2="0.0" y2="4.0">
            </line>
            <g transform="translate(0.0 7.0 ) ">
              <text class="axis-text-x" text-anchor="middle" dy="0.7em">
                <tspan>1</tspan>
              </text>
            </g>
          </g>
          <g transform="translate(526.000422891821 0.0 ) ">
            <line stroke-width="1.0" stroke="rgb(71,71,71)" stroke-opacity="1.0" x2="0.0" y2="4.0">
            </line>
            <g transform="translate(0.0 7.0 ) ">
              <text class="axis-text-x" text-anchor="middle" dy="0.7em">
                <tspan>2</tspan>
              </text>
            </g>
          </g>
          <g transform="translate(625.2457857015986 0.0 ) ">
            <line stroke-width="1.0" stroke="rgb(71,71,71)" stroke-opacity="1.0" x2="0.0" y2="4.0">
            </line>
            <g transform="translate(0.0 7.0 ) ">
              <text class="axis-text-x" text-anchor="middle" dy="0.7em">
                <tspan>3</tspan>
              </text>
            </g>
          </g>
          <line x1="0.0" y1="0.0" x2="655.0193945445318" y2="0.0" stroke-width="1.0" stroke="rgb(71,71,71)" stroke-opacity="1.0">
          </line>
        </g>
        <g transform="translate(13.980605455468202 0.0 ) ">
          <g transform="translate(0.0 411.0 ) ">
            <g transform="translate(-3.0 0.0 ) ">
              <text class="axis-text-y" text-anchor="end" dy="0.35em">
                <tspan>0</tspan>
              </text>
            </g>
          </g>
          <g transform="translate(0.0 352.57782515991477 ) ">
            <g transform="translate(-3.0 0.0 ) ">
              <text class="axis-text-y" text-anchor="end" dy="0.35em">
                <tspan>1</tspan>
              </text>
            </g>
          </g>
          <g transform="translate(0.0 294.15565031982953 ) ">
            <g transform="translate(-3.0 0.0 ) ">
              <text class="axis-text-y" text-anchor="end" dy="0.35em">
                <tspan>2</tspan>
              </text>
            </g>
          </g>
          <g transform="translate(0.0 235.73347547974433 ) ">
            <g transform="translate(-3.0 0.0 ) ">
              <text class="axis-text-y" text-anchor="end" dy="0.35em">
                <tspan>3</tspan>
              </text>
            </g>
          </g>
          <g transform="translate(0.0 177.3113006396591 ) ">
            <g transform="translate(-3.0 0.0 ) ">
              <text class="axis-text-y" text-anchor="end" dy="0.35em">
                <tspan>4</tspan>
              </text>
            </g>
          </g>
          <g transform="translate(0.0 118.88912579957389 ) ">
            <g transform="translate(-3.0 0.0 ) ">
              <text class="axis-text-y" text-anchor="end" dy="0.35em">
                <tspan>5</tspan>
              </text>
            </g>
          </g>
          <g transform="translate(0.0 60.466950959488656 ) ">
            <g transform="translate(-3.0 0.0 ) ">
              <text class="axis-text-y" text-anchor="end" dy="0.35em">
                <tspan>6</tspan>
              </text>
            </g>
          </g>
          <g transform="translate(0.0 2.044776119403423 ) ">
            <g transform="translate(-3.0 0.0 ) ">
              <text class="axis-text-y" text-anchor="end" dy="0.35em">
                <tspan>7</tspan>
              </text>
            </g>
          </g>
        </g>
      </g>
    </g>
    <g transform="translate(16.0 212.0 ) rotate(-90.0 ) ">
      <text class="axis-title-y" y="0.0" text-anchor="middle">
        <tspan>y</tspan>
      </text>
    </g>
    <g transform="translate(370.9903027277341 463.0 ) ">
      <text class="axis-title-x" y="0.0" text-anchor="middle">
        <tspan>x</tspan>
      </text>
    </g>
    <path fill="rgb(0,0,0)" fill-opacity="0.0" stroke="rgb(71,71,71)" stroke-opacity="1.0" stroke-width="0.0" d="M0.0 0.0 L0.0 470.0 L705.0 470.0 L705.0 0.0 Z">
    </path>
  </g>
  <g id="xXxprefixXx3">
  </g>
</svg>