<svg xmlns="http://www.w3.org/2000/svg" xmlns:xlink="http://www.w3.org/1999/xlink" class="plt-container" width="600.0" height="400.0">
  <style type="text/css">
  .plt-container {
   font-family: Lucida Grande, sans-serif;
   user-select: none;
   -webkit-user-select: none;
   -moz-user-select: none;
   -ms-user-select: none;
}
text {
   text-rendering: optimizeLegibility;
}
#xXxprefixXx0 .plot-title {
   fill: #474747;
   font-family: Lucida Grande, sans-serif;
   font-size: 16.0px;
   font-weight: normal;
   font-style: normal;   
}
#xXxprefixXx0 .plot-subtitle {
   fill: #474747;
   font-family: Lucida Grande, sans-serif;
   font-size: 15.0px;
   font-weight: normal;
   font-style: normal;   
}
#xXxprefixXx0 .plot-caption {
   fill: #474747;
   font-family: Lucida Grande, sans-serif;
   font-size: 13.0px;
   font-weight: normal;
   font-style: normal;   
}
#xXxprefixXx0 .legend-title {
   fill: #474747;
   font-family: Lucida Grande, sans-serif;
   font-size: 15.0px;
   font-weight: normal;
   font-style: normal;   
}
#xXxprefixXx0 .legend-item {
   fill: #474747;
   font-family: Lucida Grande, sans-serif;
   font-size: 13.0px;
   font-weight: normal;
   font-style: normal;   
}
#xXxprefixXx0 .axis-title-x {
   fill: #474747;
   font-family: Lucida Grande, sans-serif;
   font-size: 15.0px;
   font-weight: normal;
   font-style: normal;   
}
#xXxprefixXx0 .axis-text-x {
   fill: #474747;
   font-family: Lucida Grande, sans-serif;
   font-size: 13.0px;
   font-weight: normal;
   font-style: normal;   
}
#xXxprefixXx3 .axis-tooltip-text-x {
   fill: #ffffff;
   font-family: Lucida Grande, sans-serif;
   font-size: 13.0px;
   font-weight: normal;
   font-style: normal;   
}
#xXxprefixXx0 .axis-title-y {
   fill: #474747;
   font-family: Lucida Grande, sans-serif;
   font-size: 15.0px;
   font-weight: normal;
   font-style: normal;   
}
#xXxprefixXx0 .axis-text-y {
   fill: #474747;
   font-family: Lucida Grande, sans-serif;
   font-size: 13.0px;
   font-weight: normal;
   font-style: normal;   
}
#xXxprefixXx3 .axis-tooltip-text-y {
   fill: #ffffff;
   font-family: Lucida Grande, sans-serif;
   font-size: 13.0px;
   font-weight: normal;
   font-style: normal;   
}
#xXxprefixXx0 .facet-strip-text-x {
   fill: #474747;
   font-family: Lucida Grande, sans-serif;
   font-size: 13.0px;
   font-weight: normal;
   font-style: normal;   
}
#xXxprefixXx0 .facet-strip-text-y {
   fill: #474747;
   font-family: Lucida Grande, sans-serif;
   font-size: 13.0px;
   font-weight: normal;
   font-style: normal;   
}
#xXxprefixXx3 .tooltip-text {
   fill: #474747;
   font-family: Lucida Grande, sans-serif;
   font-size: 13.0px;
   font-weight: normal;
   font-style: normal;   
}
#xXxprefixXx3 .tooltip-title {
   fill: #474747;
   font-family: Lucida Grande, sans-serif;
   font-size: 13.0px;
   font-weight: bold;
   font-style: normal;   
}
#xXxprefixXx3 .tooltip-label {
   fill: #474747;
   font-family: Lucida Grande, sans-serif;
   font-size: 13.0px;
   font-weight: bold;
   font-style: normal;   
}

  </style>
  <g id="xXxprefixXx0">
    <path fill-rule="evenodd" fill="rgb(255,255,255)" fill-opacity="1.0" d="M0.0 0.0 L0.0 400.0 L600.0 400.0 L600.0 0.0 Z">
    </path>
    <g transform="translate(23.0 10.0 ) ">
      <g transform="translate(35.01530667574961 344.0 ) ">
        <line x1="24.181122423829578" y1="-0.0" x2="24.181122423829578" y2="-344.0" stroke="rgb(233,233,233)" stroke-opacity="1.0" stroke-width="1.0">
        </line>
        <line x1="84.63392848340348" y1="-0.0" x2="84.63392848340348" y2="-344.0" stroke="rgb(233,233,233)" stroke-opacity="1.0" stroke-width="1.0">
        </line>
        <line x1="145.0867345429774" y1="-0.0" x2="145.0867345429774" y2="-344.0" stroke="rgb(233,233,233)" stroke-opacity="1.0" stroke-width="1.0">
        </line>
        <line x1="205.5395406025513" y1="-0.0" x2="205.5395406025513" y2="-344.0" stroke="rgb(233,233,233)" stroke-opacity="1.0" stroke-width="1.0">
        </line>
        <line x1="265.9923466621252" y1="-0.0" x2="265.9923466621252" y2="-344.0" stroke="rgb(233,233,233)" stroke-opacity="1.0" stroke-width="1.0">
        </line>
        <line x1="326.4451527216991" y1="-0.0" x2="326.4451527216991" y2="-344.0" stroke="rgb(233,233,233)" stroke-opacity="1.0" stroke-width="1.0">
        </line>
        <line x1="386.897958781273" y1="-0.0" x2="386.897958781273" y2="-344.0" stroke="rgb(233,233,233)" stroke-opacity="1.0" stroke-width="1.0">
        </line>
        <line x1="447.350764840847" y1="-0.0" x2="447.350764840847" y2="-344.0" stroke="rgb(233,233,233)" stroke-opacity="1.0" stroke-width="1.0">
        </line>
        <line x1="507.8035709004208" y1="-0.0" x2="507.8035709004208" y2="-344.0" stroke="rgb(233,233,233)" stroke-opacity="1.0" stroke-width="1.0">
        </line>
        <g transform="translate(24.181122423829578 0.0 ) ">
          <line stroke-width="1.0" stroke="rgb(71,71,71)" stroke-opacity="1.0" x2="0.0" y2="4.0">
          </line>
          <g transform="translate(0.0 7.0 ) ">
            <text class="axis-text-x" text-anchor="middle" dy="0.7em">
            -4
            </text>
          </g>
        </g>
        <g transform="translate(84.63392848340348 0.0 ) ">
          <line stroke-width="1.0" stroke="rgb(71,71,71)" stroke-opacity="1.0" x2="0.0" y2="4.0">
          </line>
          <g transform="translate(0.0 7.0 ) ">
            <text class="axis-text-x" text-anchor="middle" dy="0.7em">
            -3
            </text>
          </g>
        </g>
        <g transform="translate(145.0867345429774 0.0 ) ">
          <line stroke-width="1.0" stroke="rgb(71,71,71)" stroke-opacity="1.0" x2="0.0" y2="4.0">
          </line>
          <g transform="translate(0.0 7.0 ) ">
            <text class="axis-text-x" text-anchor="middle" dy="0.7em">
            -2
            </text>
          </g>
        </g>
        <g transform="translate(205.5395406025513 0.0 ) ">
          <line stroke-width="1.0" stroke="rgb(71,71,71)" stroke-opacity="1.0" x2="0.0" y2="4.0">
          </line>
          <g transform="translate(0.0 7.0 ) ">
            <text class="axis-text-x" text-anchor="middle" dy="0.7em">
            -1
            </text>
          </g>
        </g>
        <g transform="translate(265.9923466621252 0.0 ) ">
          <line stroke-width="1.0" stroke="rgb(71,71,71)" stroke-opacity="1.0" x2="0.0" y2="4.0">
          </line>
          <g transform="translate(0.0 7.0 ) ">
            <text class="axis-text-x" text-anchor="middle" dy="0.7em">
            0
            </text>
          </g>
        </g>
        <g transform="translate(326.4451527216991 0.0 ) ">
          <line stroke-width="1.0" stroke="rgb(71,71,71)" stroke-opacity="1.0" x2="0.0" y2="4.0">
          </line>
          <g transform="translate(0.0 7.0 ) ">
            <text class="axis-text-x" text-anchor="middle" dy="0.7em">
            1
            </text>
          </g>
        </g>
        <g transform="translate(386.897958781273 0.0 ) ">
          <line stroke-width="1.0" stroke="rgb(71,71,71)" stroke-opacity="1.0" x2="0.0" y2="4.0">
          </line>
          <g transform="translate(0.0 7.0 ) ">
            <text class="axis-text-x" text-anchor="middle" dy="0.7em">
            2
            </text>
          </g>
        </g>
        <g transform="translate(447.350764840847 0.0 ) ">
          <line stroke-width="1.0" stroke="rgb(71,71,71)" stroke-opacity="1.0" x2="0.0" y2="4.0">
          </line>
          <g transform="translate(0.0 7.0 ) ">
            <text class="axis-text-x" text-anchor="middle" dy="0.7em">
            3
            </text>
          </g>
        </g>
        <g transform="translate(507.8035709004208 0.0 ) ">
          <line stroke-width="1.0" stroke="rgb(71,71,71)" stroke-opacity="1.0" x2="0.0" y2="4.0">
          </line>
          <g transform="translate(0.0 7.0 ) ">
            <text class="axis-text-x" text-anchor="middle" dy="0.7em">
            4
            </text>
          </g>
        </g>
        <line x1="0.0" y1="0.0" x2="531.9846933242504" y2="0.0" stroke-width="1.0" stroke="rgb(71,71,71)" stroke-opacity="1.0">
        </line>
      </g>
      <g transform="translate(35.01530667574961 0.0 ) ">
        <line x1="0.0" y1="328.3636363636364" x2="531.9846933242504" y2="328.3636363636364" stroke="rgb(233,233,233)" stroke-opacity="1.0" stroke-width="1.0">
        </line>
        <line x1="0.0" y1="250.1818181818182" x2="531.9846933242504" y2="250.1818181818182" stroke="rgb(233,233,233)" stroke-opacity="1.0" stroke-width="1.0">
        </line>
        <line x1="0.0" y1="172.0" x2="531.9846933242504" y2="172.0" stroke="rgb(233,233,233)" stroke-opacity="1.0" stroke-width="1.0">
        </line>
        <line x1="0.0" y1="93.81818181818183" x2="531.9846933242504" y2="93.81818181818183" stroke="rgb(233,233,233)" stroke-opacity="1.0" stroke-width="1.0">
        </line>
        <line x1="0.0" y1="15.636363636363654" x2="531.9846933242504" y2="15.636363636363654" stroke="rgb(233,233,233)" stroke-opacity="1.0" stroke-width="1.0">
        </line>
        <g transform="translate(0.0 328.3636363636364 ) ">
          <g transform="translate(-3.0 0.0 ) ">
            <text class="axis-text-y" text-anchor="end" dy="0.35em">
            -1.0
            </text>
          </g>
        </g>
        <g transform="translate(0.0 250.1818181818182 ) ">
          <g transform="translate(-3.0 0.0 ) ">
            <text class="axis-text-y" text-anchor="end" dy="0.35em">
            -0.5
            </text>
          </g>
        </g>
        <g transform="translate(0.0 172.0 ) ">
          <g transform="translate(-3.0 0.0 ) ">
            <text class="axis-text-y" text-anchor="end" dy="0.35em">
            0.0
            </text>
          </g>
        </g>
        <g transform="translate(0.0 93.81818181818183 ) ">
          <g transform="translate(-3.0 0.0 ) ">
            <text class="axis-text-y" text-anchor="end" dy="0.35em">
            0.5
            </text>
          </g>
        </g>
        <g transform="translate(0.0 15.636363636363654 ) ">
          <g transform="translate(-3.0 0.0 ) ">
            <text class="axis-text-y" text-anchor="end" dy="0.35em">
            1.0
            </text>
          </g>
        </g>
      </g>
      <g transform="translate(35.01530667574961 0.0 ) " clip-path="url(#xXxprefixXx1)" clip-bounds-jfx="[rect (0.0, 0.0), (531.9846933242504, 344.0)]">
        <defs>
          <clipPath id="xXxprefixXx1">
            <rect x="0.0" y="0.0" width="531.9846933242504" height="344.0">
            </rect>
          </clipPath>
        </defs>
        <line x1="0.0" y1="172.0" x2="531.9846933242504" y2="172.0" stroke="rgb(238,102,102)" stroke-opacity="1.0" fill="rgb(17,142,216)" fill-opacity="1.0" stroke-width="1.6500000000000001" stroke-dasharray="7.095000000000001,7.095000000000001">
        </line>
      </g>
      <g transform="translate(35.01530667574961 0.0 ) " clip-path="url(#xXxprefixXx2)" clip-bounds-jfx="[rect (0.0, 0.0), (531.9846933242504, 344.0)]">
        <defs>
          <clipPath id="xXxprefixXx2">
            <rect x="0.0" y="0.0" width="531.9846933242504" height="344.0">
            </rect>
          </clipPath>
        </defs>
        <g>
          <path d="M24.181122423829578 123.46566181130012 L24.181122423829578 123.46566181130012 L24.543839260187013 124.57880080786771 L24.906556096544477 125.73450712533023 L25.269272932901885 126.9313692008464 L25.63198976925935 128.16793216861603 L25.994706605616784 129.4426998378284 L26.357423441974248 130.75413671615686 L26.720140278331684 132.10067007610627 L27.08285711468912 133.48069206147164 L27.445573951046555 134.8925618311166 L27.80829078740402 136.3346077372426 L28.171007623761454 137.80512953527216 L28.53372446011889 139.30240062244127 L28.77553568435721 140.3145784445153 L29.0173469085955 141.33734299689982 L29.25915813283379 142.3701660711668 L29.50096935707208 143.41251575947192 L29.74278058131037 144.4638567609401 L29.98459180554869 145.52365068925855 L30.22640302978698 146.5913563813015 L30.46821425402527 147.66643020660615 L30.71002547826356 148.74832637752226 L30.95183670250185 149.83649725985669 L31.19364792674017 150.93039368383222 L31.43545915097846 152.02946525518436 L31.67727037521675 153.13316066621587 L31.91908159945504 154.24092800662945 L32.16089282369333 155.3522150739629 L32.40270404793165 156.46646968344683 L32.64451527216994 157.5831399771085 L32.88632649640823 158.70167473194567 L33.12813772064652 159.82152366699285 L33.36994894488481 160.9421377491068 L33.61176016912313 162.0629694972973 L33.85357139336142 163.18347328542717 L34.09538261759971 164.30310564311372 L34.337193841838 165.42132555465807 L34.57900506607629 166.53759475583405 L34.82081629031458 167.65137802836932 L35.0626275145529 168.76214349195013 L35.30443873879119 169.8693628935881 L35.54624996302948 170.97251189418407 L35.78806118726777 172.07107035212715 L36.02987241150606 173.164522603772 L36.27168363574438 174.25235774063478 L36.51349485998267 175.33406988315363 L36.75530608422096 176.40915845086118 L36.99711730845925 177.47712842881592 L37.23892853269754 178.53749063014678 L37.48073975693586 179.58976195456407 L37.72255098117415 180.63346564269116 L37.96436220541244 181.6681315260793 L38.20617342965073 182.69329627276508 L38.44798465388902 183.7085036282355 L38.68979587812734 184.71330465166886 L39.05251271448475 186.200030879984 L39.415229550842184 187.66089485099633 L39.77794638719965 189.09448088155656 L40.140663223557084 190.49941590689798 L40.50338005991455 191.87437102871326 L40.866096896271955 193.21806299919726 L41.22881373262942 194.52925563926755 L41.591530568986855 195.80676118925476 L41.95424740534432 197.04944159045579 L42.316964241701726 198.2562096960287 L42.67968107805919 199.4260304098102 L43.042397914416625 200.5579217517283 L43.40511475077409 201.65095584858616 L43.767831587131525 202.70425984909133 L44.13054842348896 203.71701676210648 L44.61417087196557 205.00298008656904 L45.09779332044215 206.21387092093465 L45.58141576891876 207.34822920883198 L46.06503821739534 208.40478048483047 L46.669566277991066 209.61441496421116 L47.27409433858682 210.69908120646517 L47.99952801130169 211.8339976722434 L48.84586729613574 212.9267295317618 L49.93401780520807 213.96527930854143 L51.02216831428038 214.5950142141636 L52.11031882335274 214.8239481864533 L53.19846933242505 214.66454540428606 L54.28661984149741 214.13348598652453 L55.37477035056972 213.2513821712176 L56.34201524752291 212.1920869798705 L57.188354532356925 211.06835402992021 L57.913788205071796 209.96998922675695 L58.51831626566755 208.9664874555179 L59.12284432626328 207.8888181024851 L59.72737238685903 206.74281624713274 L60.33190044745476 205.53447977140164 L60.815522895931366 204.52704831791493 L61.29914534440795 203.48684006891375 L61.782767792884556 202.41708484900792 L62.26639024136114 201.3210403242894 L62.75001268983772 200.2019831977634 L63.23363513831433 199.06320038984325 L63.71725758679091 197.90798022565568 L64.20088003526749 196.7396036508598 L64.6845024837441 195.56133549758783 L65.16812493222068 194.3764158219703 L65.65174738069729 193.1880513345111 L66.13536982917387 191.99940694433053 L66.61899227765045 190.81359743799808 L67.10261472612706 189.63367931333016 L67.58623717460364 188.46264278813368 L68.06985962308025 187.30340400343513 L68.55348207155683 186.15879744024767 L69.03710452003341 185.0315685683945 L69.52072696851002 183.92436674533178 L70.0043494169866 182.83973838229477 L70.48797186546318 181.7801203944308 L70.97159431393979 180.74783395088377 L71.45521676241637 179.74507854005796 L72.0597448230121 178.53630661345505 L72.66427288360785 177.38065970418276 L73.26880094420358 176.28155413504584 L73.87332900479933 175.24205446512192 L74.59876267751423 174.07711120525258 L75.3241963502291 173.0058240546032 L76.17053563506315 171.8785263745983 L77.13778053201631 170.75606139019584 L78.22593104108867 169.70809101534067 L79.31408155016098 168.88762667419994 L80.40223205923331 168.2906431730056 L81.49038256830565 167.90896928675218 L82.57853307737798 167.7304102607748 L83.66668358645029 167.7389242000247 L84.75483409552263 167.9148501802819 L85.84298460459496 168.235185278141 L86.9311351136673 168.67390711252776 L88.01928562273963 169.20233792696766 L89.10743613181194 169.78954572557097 L90.1955866408843 170.40277751290407 L91.28373714995661 171.00791928413392 L92.37188765902894 171.56997707192437 L93.46003816810128 172.05357308463002 L94.54818867717361 172.42345076968863 L95.63633918624595 172.64498250921503 L96.72448969531828 172.68467360325147 L97.81264020439059 172.51065622063757 L98.90079071346295 172.09316709783744 L99.98894122253526 171.4050029412223 L101.07709173160757 170.42194773628322 L102.04433662856076 169.28363248036328 L102.76977030127566 168.258740484494 L103.49520397399053 167.08238711331012 L104.09973203458628 165.98392610315608 L104.70426009518201 164.77641694711542 L105.18788254365862 163.73115859751198 L105.6715049921352 162.6150649038364 L106.15512744061178 161.42796898800424 L106.63874988908839 160.16988813907852 L107.12237233756497 158.8410256562738 L107.48508917392243 157.79815630631936 L107.84780601027987 156.7159225278416 L108.21052284663733 155.59461839072412 L108.57323968299474 154.4345977529131 L108.9359565193522 153.23627422863535 L109.29867335570964 152.00012107498452 L109.6613901920671 150.72667099680731 L110.02410702842454 149.4165158699325 L110.38682386478197 148.07030638289015 L110.74954070113941 146.6887515973819 L111.11225753749687 145.27261842786444 L111.47497437385431 143.82273104072354 L111.83769121021174 142.33997017361514 L112.07950243445006 141.3336601058491 L112.32131365868835 140.3134458217669 L112.56312488292664 139.27962916931097 L112.80493610716493 138.23252261222854 L113.04674733140322 137.1724490977487 L113.28855855564154 136.09974191764337 L113.53036977987983 135.01474456274164 L113.77218100411812 133.91781057097077 L114.01399222835641 132.80930336900127 L114.2558034525947 131.68959610757733 L114.49761467683302 130.5590714906179 L114.73942590107131 129.41812159817604 L114.98123712530958 128.26714770335005 L115.22304834954787 127.1065600832415 L115.46485957378616 125.93677782406118 L115.70667079802448 124.75822862048409 L115.94848202226277 123.57134856936167 L116.19029324650106 122.37658195790064 L116.43210447073935 121.17438104642201 L116.67391569497764 119.96520584581708 L116.91572691921596 118.74952388981984 L117.15753814345425 117.52781000221925 L117.39934936769254 116.30054605913747 L117.64116059193083 115.06822074650339 L117.88297181616912 113.83132931285294 L118.12478304040744 112.59037331759194 L118.36659426464573 111.34586037485869 L118.60840548888402 110.09830389312737 L118.85021671312231 108.8482228106947 L119.0920279373606 107.59614132719614 L119.33383916159889 106.34258863129953 L119.5756503858372 105.08809862472695 L119.8174616100755 103.83320964275735 L120.05927283431379 102.57846417136524 L120.30108405855208 101.32440856115281 L120.54289528279037 100.07159273823467 L120.78470650702869 98.82056991223615 L121.02651773126698 97.57189628156854 L121.26832895550527 96.32613073614634 L121.51014017974356 95.08383455771256 L121.75195140398185 93.84557111794047 L121.99376262822017 92.61190557448127 L122.23557385245846 91.38340456512903 L122.47738507669675 90.1606359002747 L122.71919630093504 88.9441682538229 L122.96100752517333 87.73457085274589 L123.20281874941165 86.53241316545085 L123.44462997364994 85.33826458913602 L123.68644119788823 84.15269413631366 L123.92825242212652 82.97627012067746 L124.17006364636481 81.80955984249293 L124.41187487060313 80.65312927369013 L124.65368609484142 79.5075427428374 L124.89549731907971 78.37336262017644 L125.137308543318 77.25114900289844 L125.37911976755629 76.14145940084109 L125.62093099179458 75.04484842278617 L125.8627422160329 73.96186746353806 L126.10455344027119 72.89306439196203 L126.34636466450948 71.83898324016208 L126.58817588874777 70.80016389397672 L126.82998711298606 69.77714178497116 L127.07179833722438 68.77044758410291 L127.43451517358181 67.29216941392845 L127.79723200993925 65.85356135099462 L128.15994884629671 64.4563449078594 L128.52266568265415 63.10220990356572 L128.8853825190116 61.792812247324505 L129.24809935536902 60.52977175607637 L129.61081619172649 59.31467000879266 L129.97353302808392 58.1490482403385 L130.33624986444136 57.03440527767013 L130.69896670079882 55.972195521093624 L131.06168353715623 54.96382697325612 L131.54530598563284 53.705431445848774 L132.02892843410942 52.548248388660596 L132.512550882586 51.49519494832272 L133.11707894318175 50.329473189555785 L133.84251261589665 49.15796824622413 L134.68885190073067 48.114316284344184 L135.77700240980303 47.299599767331316 L136.86515291887534 47.09388432263583 L137.95330342794767 47.50918680102919 L139.04145393701998 48.551776385286246 L139.7668876097349 49.59576366680743 L140.37141567033063 50.67800235615428 L140.85503811880722 51.68174499387905 L141.33866056728382 52.80706038612986 L141.82228301576043 54.05273183348443 L142.18499985211784 55.06510704715713 L142.5477166884753 56.14367799478825 L142.91043352483274 57.287677730668875 L143.27315036119018 58.49626812755362 L143.6358671975476 59.76854060646858 L143.99858403390508 61.10351695297929 L144.3613008702625 62.50015021906414 L144.72401770661997 63.95732570963402 L144.96582893085827 64.96182992190356 L145.20764015509656 65.9923518187909 L145.44945137933485 67.04851235151325 L145.69126260357314 68.12991985515089 L145.93307382781143 69.23617022335392 L146.17488505204972 70.36684708992136 L146.416696276288 71.52152201715843 L146.65850750052633 72.69975469091916 L146.90031872476462 73.90109312223211 L147.1421299490029 75.1250738554085 L147.38394117324123 76.37122218252371 L147.62575239747952 77.63905236416387 L147.8675636217178 78.92806785632085 L148.1093748459561 80.23776154332116 L148.3511860701944 81.56761597666457 L148.59299729443268 82.91710361965104 L148.83480851867097 84.28568709766536 L149.07661974290926 85.67281945399185 L149.31843096714758 87.07794441102135 L149.56024219138587 88.50049663671703 L149.8020534156242 89.9399020161953 L150.04386463986248 91.39557792828217 L150.28567586410077 92.8669335268955 L150.52748708833906 94.35337002710799 L150.76929831257735 95.85428099573593 L151.01110953681564 97.369052646303 L151.25292076105393 98.89706413821926 L151.49473198529222 100.43768788001952 L151.73654320953054 101.99028983649642 L151.97835443376883 103.55422983956805 L152.22016565800712 105.12886190271061 L152.46197688224544 106.71353453879193 L152.7037881064837 108.30759108113236 L152.94559933072202 109.9103700076246 L153.1874105549603 111.52120526773628 L153.4292217791986 113.13942661222154 L153.6710330034369 114.76435992536386 L153.91284422767518 116.39532755957276 L154.15465545191347 118.03164867215389 L154.39646667615176 119.67263956407129 L154.63827790039005 121.31761402051985 L154.88008912462837 122.9658836531249 L155.12190034886666 124.61675824358436 L155.36371157310495 126.26954608856767 L155.60552279734327 127.92355434568577 L155.84733402158156 129.57808938034606 L156.08914524581985 131.23245711330418 L156.33095647005814 132.88596336872513 L156.57276769429643 134.53791422256495 L156.81457891853472 136.18761635108592 L157.056390142773 137.83437737931573 L157.29820136701133 139.4775062292616 L157.54001259124962 141.11631346769136 L157.7818238154879 142.75011165329323 L158.02363503972623 144.3782156830259 L158.26544626396452 145.99994313747055 L158.5072574882028 147.61461462499778 L158.7490687124411 149.22155412456354 L158.9908799366794 150.8200893269469 L159.23269116091768 152.40955197424452 L159.47450238515597 153.9892781974374 L159.71631360939426 155.55860885184728 L159.95812483363258 157.11688985029969 L160.19993605787087 158.66347249381207 L160.4417472821092 160.1977137996278 L160.68355850634748 161.71897682641801 L160.92536973058577 163.22663099647372 L161.16718095482406 164.72005241471263 L161.40899217906235 166.1986241843276 L161.65080340330064 167.661736718905 L161.89261462753893 169.10878805084278 L162.13442585177722 170.53918413590014 L162.37623707601554 171.95233915371267 L162.61804830025383 173.34767580411068 L162.85985952449212 174.72462559907774 L163.10167074873044 176.0826291501911 L163.34348197296873 177.42113645138687 L163.58529319720702 178.73960715689668 L163.8271044214453 180.0375108542042 L164.0689156456836 181.31432733187194 L164.3107268699219 182.56954684209265 L164.55253809416018 183.80267035782356 L164.79434931839847 185.01320982436175 L165.0361605426368 186.20068840522387 L165.27797176687508 187.36464072219667 L165.5197829911134 188.50461308942732 L165.7615942153517 189.6201637414262 L166.00340543958998 190.71086305485753 L166.24521666382827 191.77629376399665 L166.48702788806656 192.81605116973805 L166.72883911230485 193.8297433420394 L167.0915559486623 195.30058389311534 L167.45427278501975 196.7107047574136 L167.81698962137716 198.05895056553965 L168.17970645773462 199.3442351909506 L168.54242329409206 200.5655429577182 L168.90514013044952 201.721929765168 L169.26785696680696 202.8125241280215 L169.6305738031644 203.83652813077228 L170.11419625164098 205.09704216014342 L170.59781870011759 206.2363892268923 L171.0814411485942 207.25330327867442 L171.68596920918992 208.3507389444441 L172.4114028819048 209.41104312690996 L173.49955339097713 210.47415563813516 L174.58770390004946 210.90546968800192 L175.6758544091218 210.71189702833388 L176.76400491819413 209.906555710931 L177.61034420302815 208.8692878743427 L178.33577787574305 207.70341806306865 L178.9403059363388 206.54305999748098 L179.42392838481538 205.49507925821644 L179.90755083329196 204.3439586440071 L180.39117328176854 203.0929120670674 L180.753890118126 202.09109121133827 L181.11660695448344 201.03647616755242 L181.4793237908409 199.93062617747523 L181.84204062719834 198.7751543790397 L182.20475746355578 197.57172583940206 L182.56747429991321 196.32205552845681 L182.93019113627065 195.0279062353286 L183.2929079726281 193.6910864304281 L183.65562480898555 192.31344807572555 L184.01834164534299 190.8968843859572 L184.38105848170045 189.44332754354016 L184.74377531805789 187.954746370027 L184.98558654229618 186.94388880242252 L185.22739776653447 185.91895594883053 L185.46920899077276 184.88055525921843 L185.71102021501105 183.82929983365707 L185.95283143924934 182.76580809594446 L186.19464266348766 181.69070346471818 L186.43645388772595 180.60461402223774 L186.67826511196424 179.50817218101795 L186.92007633620256 178.4020143484965 L187.16188756044085 177.28678058991918 L187.40369878467914 176.16311428962786 L187.64551000891743 175.03166181093607 L187.88732123315572 173.8930721547789 L188.129132457394 172.74799661732362 L188.3709436816323 171.59708844672832 L188.6127549058706 170.44100249923613 L188.8545661301089 169.28039489479292 L189.0963773543472 168.11592267237606 L189.33818857858552 166.9482434452232 L189.5799998028238 165.77801505614784 L189.8218110270621 164.60589523313075 L190.0636222513004 163.4325412453738 L190.30543347553868 162.2586095600041 L190.54724469977697 161.08475549961472 L190.78905592401526 159.91163290082858 L191.03086714825355 158.7398937740707 L191.27267837249187 157.57018796473332 L191.51448959673016 156.40316281591828 L191.75630082096845 155.2394628329389 L191.99811204520677 154.07972934976328 L192.23992326944506 152.92460019757982 L192.48173449368335 151.77470937566358 L192.72354571792164 150.63068672472184 L192.96535694215993 149.49315760289508 L193.20716816639822 148.3627425645878 L193.4489793906365 147.24005704230274 L193.69079061487483 146.1257110316493 L193.93260183911312 145.02030877969594 L194.1744130633514 143.92444847683342 L194.41622428758973 142.83872195231498 L194.65803551182802 141.7637143736357 L194.8998467360663 140.700003949913 L195.1416579603046 139.6481616394256 L195.3834691845429 138.60875086146854 L195.62528040878118 137.5823272126763 L195.86709163301947 136.56943818796657 L196.22980846937693 135.07665903696932 L196.59252530573437 133.61732655624058 L196.95524214209183 132.19317776161506 L197.31795897844927 130.80590197274086 L197.6806758148067 129.45713893817646 L198.04339265116414 128.14847702496334 L198.40610948752158 126.88145147480617 L198.768826323879 125.65754272890788 L199.13154316023645 124.47817482341684 L199.4942599965939 123.34471385735301 L199.85697683295135 122.25846653478652 L200.2196936693088 121.22067878294607 L200.7033161177854 119.91438039273024 L201.18693856626197 118.69896022382878 L201.67056101473855 117.57684401524223 L202.15418346321516 116.5502483850671 L202.75871152381092 115.40436155799485 L203.4841451965258 114.23522219591254 L204.33048448135983 113.16125097959338 L205.41863499043217 112.24805472115915 L206.50678549950447 111.86742956029107 L207.59493600857684 112.02092233381683 L208.68308651764914 112.70433582714833 L209.65033141460233 113.74886023565672 L210.3757650873172 114.79576168841916 L210.98029314791296 115.83624816371018 L211.58482120850869 117.02548012746216 L212.0684436569853 118.08109845587066 L212.55206610546188 119.22677765309415 L213.03568855393848 120.45993621518465 L213.51931100241507 121.77782042155175 L213.8820278387725 122.82008482743393 L214.24474467512994 123.90707857734472 L214.6074615114874 125.03746332816826 L214.97017834784484 126.20985437270144 L215.33289518420227 127.4228225393307 L215.69561202055974 128.67489614144333 L216.05832885691717 129.96456297397077 L216.4210456932746 131.29027235440256 L216.78376252963204 132.65043720555965 L217.14647936598948 134.04343617736419 L217.50919620234694 135.4676158047995 L217.87191303870438 136.92129269921 L218.23462987506184 138.40275577005522 L218.47644109930013 139.4049780087657 L218.71825232353842 140.41825799057028 L218.9600635477767 141.44207108975613 L219.201874772015 142.47588870718613 L219.4436859962533 143.5191785754477 L219.68549722049158 144.57140506536916 L219.9273084447299 145.63202949372658 L220.1691196689682 146.700510431963 L220.41093089320648 147.77630401574123 L220.65274211744477 148.85886425515204 L220.8945533416831 149.94764334539855 L221.13636456592138 151.04209197777803 L221.37817579015967 152.14165965078203 L221.61998701439796 153.24579498113627 L221.86179823863625 154.35394601460166 L222.10360946287454 155.46556053635834 L222.34542068711286 156.5800863807948 L222.58723191135115 157.69697174052513 L222.82904313558944 158.81566547445772 L223.07085435982773 159.93561741473977 L223.31266558406605 161.05627867240227 L223.55447680830434 162.17710194153207 L223.79628803254263 163.29754180179754 L224.03809925678092 164.41705501915632 L224.27991048101921 165.53510084457463 L224.5217217052575 166.65114131058866 L224.7635329294958 167.76464152554104 L225.0053441537341 168.87506996532485 L225.2471553779724 169.98189876247207 L225.4889666022107 171.0846039924226 L225.73077782644899 172.18266595681325 L225.97258905068728 173.2755694636277 L226.2144002749256 174.36280410404962 L226.45621149916389 175.4438645258649 L226.69802272340218 176.51825070325958 L226.93983394764047 177.5854682028628 L227.18164517187876 178.64502844588705 L227.42345639611705 179.6964489662194 L227.66526762035537 180.73925366432096 L227.90707884459366 181.7729730567934 L228.14889006883195 182.7971445214751 L228.39070129307024 183.81131253793117 L228.63251251730856 184.81502892320538 L228.995229353666 186.30004497339624 L229.35794619002343 187.7591013380383 L229.72066302638086 189.19078517713035 L230.0833798627383 190.59372637614248 L230.44609669909576 191.9665990898038 L230.8088135354532 193.30812322173296 L231.17153037181066 194.61706583812605 L231.5342472081681 195.89224251380378 L231.89696404452553 197.13251860901403 L232.25968088088297 198.33681047547768 L232.6223977172404 199.50408659026294 L232.98511455359787 200.63336861616943 L233.3478313899553 201.72373238740332 L233.71054822631274 202.77430881942507 L234.0732650626702 203.784284741953 L234.55688751114678 205.06646367285398 L235.04050995962336 206.27349131574664 L235.52413240809997 207.40391701889632 L236.00775485657655 208.4564758130122 L236.6122829171723 209.6610500352729 L237.21681097776803 210.74059615256863 L237.9422446504829 211.86931593003618 L238.78858393531695 212.95478685866289 L239.87673444438929 213.98402986723784 L240.96488495346162 214.60458872228162 L242.05303546253396 214.8245802842871 L243.14118597160626 214.65656692462207 L244.2293364806786 214.11732106609443 L245.31748698975093 213.22754028321552 L246.28473188670412 212.1619115777379 L247.13107117153817 211.03305555577197 L247.85650484425304 209.93063373099432 L248.4610329048488 208.92399908413805 L249.06556096544452 207.84343103886664 L249.67008902604027 206.69477180596644 L250.274617086636 205.48402535346372 L250.75823953511258 204.47484745824823 L251.2418619835892 203.43305641412596 L251.72548443206577 202.3618836756047 L252.20910688054235 201.26458809106302 L252.69272932901896 200.1444470968953 L253.17635177749554 199.004747897828 L253.65997422597215 197.8487786551531 L254.14359667444873 196.67981970457805 L254.6272191229253 195.50113482529437 L255.11084157140192 194.31596258171857 L255.5944640198785 193.1275077591596 L256.0780864683551 191.93893291441725 L256.56170891683166 190.75335006201604 L257.0453313653083 189.5738125164317 L257.5289538137849 188.40330691026946 L258.01257626226146 187.24474540791022 L258.49619871073804 186.1009581336505 L258.9798211592146 184.97468583282705 L259.46344360769126 183.86857278383837 L259.94706605616784 182.7851599783539 L260.4306885046444 181.72687858634026 L260.914310953121 180.69604372183292 L261.3979334015976 179.69484852464157 L262.0024614621933 178.48816951494854 L262.6069895227891 177.3347613915172 L263.2115175833848 176.2380264004943 L263.81604564398054 175.20101450861273 L264.5414793166954 174.0391900712871 L265.26691298941034 172.97114208626593 L266.11325227424436 171.84773896256178 L267.0804971711975 170.7298229181296 L268.1686476802699 169.68701495282113 L269.2567981893422 168.87166837466876 L270.34494869841456 168.27966321069061 L271.43309920748686 167.9027356207598 L272.52124971655917 167.7286016378374 L273.60940022563153 167.74113475414163 L274.69755073470384 167.92059517275533 L275.7857012437762 168.24390790744042 L276.8738517528485 168.68498631018866 L277.9620022619209 169.21509704350038 L279.0501527709932 169.80326199926893 L280.1383032800655 170.41669220463 L281.22645378913785 171.02124835274805 L282.31460429821016 171.58192225809762 L283.4027548072825 172.06333326544714 L284.4909053163548 172.4302334427491 L285.5790558254272 172.64801526293707 L286.6672063344995 172.68321542979618 L287.7553568435718 172.50400852930542 L288.84350735264417 172.0806842899318 L289.9316578617165 171.38610241219064 L291.01980837078884 170.3961191773801 L291.987053267742 169.2512823921852 L292.71248694045687 168.22131346267804 L293.43792061317174 167.03975448266175 L294.0424486737675 165.9368779106156 L294.64697673436325 164.72490101769085 L295.13059918283983 163.6760427507212 L295.6142216313164 162.55633622656472 L296.09784407979305 161.36562389316305 L296.58146652826963 160.10393247011217 L297.0650889767462 158.77147476914092 L297.42780581310365 157.72592483930526 L297.7905226494611 156.64102855448448 L298.1532394858185 155.51708404298213 L298.51595632217595 154.35444922158632 L298.87867315853345 153.15354175825047 L299.2413899948909 151.9148389531334 L299.6041068312483 150.63887753793952 L299.96682366760575 149.32625339360757 L300.3295405039632 147.9776211865053 L300.6922573403206 146.59369392339437 L301.05497417667806 145.17524242553955 L301.41769101303555 143.72309472244248 L301.780407849393 142.23813536578734 L302.0222190736313 141.23039584531864 L302.26403029786957 140.2087823585215 L302.50584152210786 139.17359784027445 L302.74765274634615 138.1251558280901 L302.98946397058444 137.0637803291153 L303.23127519482273 135.98980568052215 L303.473086419061 134.90357640335964 L303.7148976432993 133.80544704993977 L303.9567088675376 132.69578204483585 L304.19852009177595 131.57495551957462 L304.44033131601424 130.44335114110746 L304.6821425402525 129.30136193414992 L304.9239537644908 128.14939009748187 L305.1657649887291 126.98784681430541 L305.4075762129674 125.81715205675967 L305.6493874372057 124.63773438469667 L305.891198661444 123.45003073882502 L306.13300988568227 122.25448622833139 L306.3748211099206 121.05155391309421 L306.6166323341589 119.84169458060609 L306.8584435583972 118.62537651772539 L307.1002547826355 117.40307527738025 L307.3420660068738 116.17527344035148 L307.58387723111207 114.94246037226392 L307.82568845535036 113.70513197591885 L308.06749967958865 112.46379043910193 L308.30931090382694 111.2189439780061 L308.55112212806523 109.97110657640859 L308.7929333523035 108.72079772074704 L309.0347445765418 107.46854213123916 L309.2765558007801 106.21486948919602 L309.51836702501845 104.96031416067791 L309.76017824925674 103.70541491664773 L310.00198947349503 102.45071464977578 L310.2438006977333 101.19676008805419 L310.4856119219716 99.94410150538022 L310.7274231462099 98.69329242926996 L310.9692343704482 97.44488934586536 L311.2110455946865 96.19945140240036 L311.4528568189248 94.95754010729182 L311.6946680431631 93.71971902802466 L311.9364792674014 92.48655348699963 L312.1782904916397 91.25861025551627 L312.420101715878 90.0364572460624 L312.6619129401163 88.8206632030841 L312.90372416435457 87.61179739241086 L313.14553538859286 86.41042928951174 L313.38734661283115 85.21712826675845 L313.62915783706944 84.03246327987364 L313.87096906130773 82.85700255374135 L314.112780285546 81.69131326775906 L314.3545915097843 80.53596124090986 L314.59640273402266 79.3915106167344 L314.83821395826095 78.2585235483823 L315.08002518249924 77.13755988392288 L315.32183640673753 76.02917685209495 L315.5636476309758 74.93392874867583 L315.8054588552141 73.8523666236495 L316.0472700794524 72.78503796935254 L316.2890813036907 71.73248640977829 L316.530892527929 70.6952513912166 L316.7727037521673 69.67386787440836 L317.0145149764056 68.6688660283918 L317.37723181276306 67.19322602154095 L317.7399486491205 65.75737395443396 L318.1026654854779 64.36302925869578 L318.46538232183536 63.011879520955034 L318.8280991581928 61.70557826873598 L319.19081599455023 60.44574279042415 L319.55353283090767 59.23395199216482 L319.91624966726516 58.0717442945126 L320.2789665036226 56.960615571602716 L320.64168333998003 55.90201713556627 L321.00440017633747 54.89735376885727 L321.48802262481405 53.644038682387446 L321.9716450732907 52.49208868069887 L322.45526752176727 51.44441225124187 L323.059795582363 50.28560041895092 L323.78522925507787 49.12263974462192 L324.6315685399119 48.08926191680929 L325.71971904898425 47.28815352810719 L326.80786955805655 47.0963803878775 L327.8960200671289 47.525831240939624 L328.9841705762012 48.58264337817424 L329.7096042489161 49.63608732185517 L330.3141323095119 50.72615726889039 L330.79775475798846 51.736115945802766 L331.28137720646504 52.86759102150053 L331.7649996549416 54.119354015633604 L332.1277164912991 55.136246134876316 L332.49043332765655 56.21928418513582 L332.853150164014 57.36769636679419 L333.2158670003714 58.580639745492874 L333.57858383672885 59.85720098783574 L333.9413006730863 61.1963971834966 L334.3040175094437 62.59717675287142 L334.66673434580116 64.05842043930654 L334.90854557003945 65.06559117059213 L335.15035679427774 66.09874156733828 L335.39216801851603 67.15749128818868 L335.6339792427543 68.24144739312433 L335.87579046699267 69.35020451887537 L336.11760169123096 70.48334506119335 L336.35941291546925 71.64043936389511 L336.60122413970754 72.82104591457917 L336.84303536394583 74.02471154691756 L337.0848465881841 75.2509716494167 L337.3266578124224 76.4993503805433 L337.5684690366607 77.76936089010113 L337.81028026089905 79.06050554674714 L338.05209148513734 80.37227617152655 L338.29390270937563 81.70415427730784 L338.5357139336139 83.05561131399057 L338.7775251578522 84.42610891936057 L339.0193363820905 85.81509917545844 L339.2611476063288 87.22202487032993 L339.5029588305671 88.64631976501761 L339.7447700548054 90.08740886565664 L339.98658127904366 91.54470870052764 L340.22839250328195 93.0176276019241 L340.47020372752024 94.5055659926817 L340.71201495175853 96.00791667722113 L340.9538261759969 97.52406513694697 L341.19563740023517 99.05338982984873 L341.43744862447346 100.59526249414185 L341.67925984871175 102.14904845579021 L341.92107107295004 103.7141069397427 L342.16288229718833 105.28979138472165 L342.4046935214266 106.87544976139114 L342.6465047456649 108.47042489373888 L342.88831596990326 110.07405478349618 L343.13012719414155 111.6856729374255 L343.37193841837984 113.30460869729703 L343.61374964261813 114.93018757238053 L343.8555608668564 116.56173157427042 L344.0973720910947 118.19855955386792 L344.339183315333 119.83998754033516 L344.5809945395713 121.48532908184292 L344.8228057638096 123.13389558792448 L345.0646169880479 124.78499667325487 L345.30642821228616 126.43794050266679 L345.54823943652445 128.0920341372203 L345.79005066076274 129.7465838811362 L346.0318618850011 131.4008956294091 L346.2736731092394 133.05427521590883 L346.5154843334777 134.70602876178583 L346.75729555771596 136.35546302398782 L346.99910678195425 138.00188574370347 L347.24091800619254 139.64460599454043 L347.48272923043083 141.2829345302527 L347.7245404546691 142.91618413182556 L347.9663516789075 144.54366995373326 L348.20816290314576 146.16470986917818 L348.44997412738405 147.7786248141279 L348.69178535162234 149.38473912995968 L348.93359657586063 150.98238090452992 L349.1754078000989 152.5708823114801 L349.4172190243372 154.1495799475979 L349.6590302485755 155.71781516804782 L349.9008414728138 157.27493441929028 L350.1426526970521 158.82028956950776 L350.3844639212904 160.3532382363589 L350.62627514552867 161.87314411188166 L350.86808636976696 163.37937728436899 L351.10989759400525 164.8713145570414 L351.35170881824354 166.3483397633441 L351.5935200424819 167.80984407869622 L351.8353312667202 169.25522632852253 L352.07714249095847 170.68389329239932 L352.31895371519676 172.09526000415036 L352.56076493943505 173.48875004772836 L352.80257616367334 174.8637958487204 L353.0443873879116 176.2198389613193 L353.2861986121499 177.5563303506044 L353.52800983638826 178.8727306699781 L353.76982106062655 180.1685105336062 L354.01163228486485 181.44315078371412 L354.25344350910314 182.6961427525937 L354.4952547333414 183.92698851917737 L354.7370659575797 185.13520116003968 L354.978877181818 186.3203049946893 L355.2206884060563 187.48183582501875 L355.4624996302946 188.61934116878084 L355.7043108545329 189.73238048696396 L355.94612207877117 190.8205254049431 L356.18793330300946 191.8833599272863 L356.42974452724775 192.92048064609912 L356.6715557514861 193.9314969427936 L357.03427258784353 195.39825311845306 L357.39698942420097 196.80420900299998 L357.7597062605584 198.1482138881241 L358.12242309691584 199.42918639296352 L358.48513993327333 200.64611566627036 L358.84785676963077 201.7980625053553 L359.2105736059882 202.88416039044574 L359.57329044234564 203.90361643319622 L360.0569128908222 205.15799522491136 L360.5405353392988 206.2911367549318 L361.0241577877754 207.30178728532604 L361.62868584837116 208.39133093743536 L362.35411952108603 209.44210513352806 L363.4422700301584 210.49088919527833 L364.5304205392307 210.90796178056763 L365.618571048303 210.70037635954526 L366.7067215573753 209.88138985431453 L367.5530608422094 208.83384954268607 L368.27849451492426 207.65946288760966 L368.88302257552 206.49223894236172 L369.3666450239966 205.4389318971465 L369.8502674724732 204.28264393117 L370.3338899209498 203.0265987828653 L370.6966067573072 202.02114546438656 L371.05932359366466 200.96300207195145 L371.4220404300221 199.85373156737944 L371.78475726637953 198.6949506770539 L372.14747410273696 197.4883279208574 L372.51019093909446 196.23558158173466 L372.8729077754519 194.93847761840587 L373.2356246118093 193.59882752382262 L373.59834144816676 192.21848613202377 L373.9610582845242 190.7993493761104 L374.3237751208817 189.34335200011967 L374.6864919572391 187.85246522763322 L374.9283031814774 186.8401466705339 L375.1701144057157 185.8138144203035 L375.411925629954 184.7740765171465 L375.6537368541923 183.7215466182539 L375.8955480784306 182.65684367116268 L376.13735930266887 181.58059158462297 L376.37917052690716 180.49341889715305 L376.62098175114545 179.3959584434643 L376.86279297538374 178.28884701893872 L377.10460419962203 177.1727250423431 L377.3464154238604 176.04823621696457 L377.58822664809867 174.916027190353 L377.83003787233696 173.7767472128564 L378.07184909657525 172.63104779513623 L378.31366032081354 171.4795823648499 L378.55547154505183 170.32300592268766 L378.7972827692901 169.1619746979524 L379.0390939935284 167.9971458038697 L379.28090521776676 166.82917689281672 L379.522716442005 165.65872581165738 L379.76452766624334 164.48645025737227 L380.00633889048163 163.3130074331697 L380.2481501147199 162.13905370526777 L380.4899613389582 160.965244260529 L380.7317725631965 159.79223276514077 L380.9735837874348 158.62067102451877 L381.2153950116731 157.45120864462677 L381.45720623591137 156.2844926948875 L381.69901746014966 155.12116737287604 L381.94082868438795 153.96187367096914 L382.18263990862624 152.80724904513863 L382.42445113286453 151.65792708606034 L382.6662623571028 150.514537192724 L382.90807358134117 149.3777042487123 L383.14988480557946 148.24804830133192 L383.39169602981775 147.12618424376103 L383.63350725405604 146.0127215003926 L383.87531847829433 144.90826371553456 L384.1171297025326 143.81340844564232 L384.3589409267709 142.72874685524005 L384.6007521510092 141.65486341670254 L384.84256337524755 140.59233561404972 L385.08437459948584 139.54173365092026 L385.32618582372413 138.50362016287244 L385.5679970479624 137.47854993417317 L385.8098082722007 136.4670696192183 L386.17252510855815 134.97650529438678 L386.5352419449156 133.51950703769265 L386.897958781273 132.09780868743022 L387.26067561763045 130.71309625642286 L387.6233924539879 129.36700606142762 L387.9861092903453 128.06112291716408 L388.3488261267028 126.7969783970911 L388.71154296306025 125.57604916297548 L389.0742597994177 124.39975536520123 L389.4369766357751 123.26945911568242 L389.7996934721326 122.18646303514413 L390.16241030849 121.15200887644454 L390.64603275696663 119.85027600404395 L391.1296552054432 118.63954985472876 L391.6132776539198 117.52224561953372 L392.0969001023964 116.50056916180415 L392.7014281629921 115.36096537103644 L393.42686183570703 114.19953359610193 L394.27320112054105 113.13473793877833 L395.3613516296134 112.23353466641191 L396.4495021386857 111.86500146233271 L397.537652647758 112.03055444419999 L398.62580315683033 112.72586741484716 L399.59304805378355 113.78073238448589 L400.3184817264985 114.83518911627584 L400.9230097870942 115.8818124675632 L401.5275378476899 117.0770158238966 L402.0111602961665 118.13727949461848 L402.4947827446431 119.28747685434365 L402.97840519311967 120.52501746816404 L403.46202764159625 121.84713902903867 L403.8247444779537 122.89248153173185 L404.1874613143112 123.98246402185124 L404.5501781506686 125.11574494951759 L404.91289498702605 126.29093652811011 L405.2756118233835 127.50660663739981 L405.638328659741 128.7612807762451 L406.0010454960984 130.0534440622378 L406.36376233245585 131.3815432756393 L406.7264791688133 132.74398894488894 L407.0891960051707 134.13915747092068 L407.45191284152816 135.56539328747607 L407.8146296778856 137.02101105456492 L408.177346514243 138.50429788217988 L408.4191577384813 139.50767007521415 L408.6609689627196 140.52204677575702 L408.9027801869579 141.54690293954337 L409.1445914111962 142.58170957989202 L409.3864026354345 143.62593407300076 L409.6282138596728 144.67904046459284 L409.8700250839111 145.7404897777349 L410.1118363081494 146.80974032164897 L410.3536475323877 147.88624800134102 L410.595458756626 148.96946662786476 L410.83726998086433 150.05884822904494 L411.0790812051026 151.1538433604799 L411.3208924293409 152.25390141664283 L411.5627036535792 153.3584709419061 L411.8045148778175 154.4669999413077 L412.0463261020558 155.57893619088287 L412.2881373262941 156.69372754738308 L412.52994855053237 157.81082225720405 L412.77175977477066 158.9296692643483 L413.01357099900895 160.04971851724582 L413.25538222324724 161.17042127425609 L413.49719344748553 162.2912304076809 L413.7390046717238 163.41160070611275 L413.9808158959621 164.53098917494748 L414.2226271202004 165.64885533489235 L414.46443834443875 166.76466151829743 L414.70624956867704 167.87787316314592 L414.9480607929153 168.98795910453617 L415.1898720171536 170.09439186348916 L415.4316832413919 171.1966479329222 L415.6734944656302 172.29420806062518 L415.91530568986855 173.3865575290818 L416.15711691410684 174.4731864319792 L416.3989281383451 175.5535899472488 L416.6407393625834 176.62726860648928 L416.8825505868217 177.69372856061943 L417.12436181106 178.75248184161157 L417.3661730352983 179.80304662016317 L417.6079842595366 180.84494745916115 L417.84979548377487 181.8777155627994 L418.09160670801316 182.9008890212126 L418.33341793225145 183.91401305048865 L418.57522915648974 184.91664022793142 L418.9379459928472 186.39993939777517 L419.3006628292046 187.85718164337482 L419.66337966556205 189.2869569752803 L420.02609650191954 190.6878982363151 L420.388813338277 192.0586826410652 L420.75153017463447 193.39803325108977 L421.11424701099185 194.70472038406834 L421.47696384734934 195.9775629551971 L421.8396806837068 197.21542974923435 L422.2023975200642 198.41724062169072 L422.56511435642165 199.58196762775373 L422.9278311927791 200.70863607763846 L423.2905480291365 201.79632551714778 L423.65326486549395 202.84417063233514 L424.0159817018514 203.85136207725586 L424.49960415032797 205.12975237679984 L424.98322659880455 206.33291306671993 L425.4668490472812 207.4594029051338 L425.95047149575777 208.5079664229318 L426.55499955635355 209.7074775820838 L427.1595276169493 210.78190153448185 L427.88496128966415 211.90442318683662 L428.73130057449816 212.98263289512244 L429.81945108357047 214.00257092754555 L430.9076015926429 214.61395789673566 L431.9957521017152 214.82501349212407 L433.0839026107875 214.6483981568471 L434.1720531198598 214.1009764715888 L435.2602036289321 213.20353117785731 L436.22744852588534 212.13158142414986 L437.0737878107194 210.9976141939822 L437.7992214834343 209.89114614396902 L438.40374954403 208.8813880084108 L439.00827760462573 207.7979309684537 L439.61280566522146 206.6466243240336 L440.21733372581724 205.4334780862646 L440.7009561742938 204.42256203554282 L441.1845786227704 203.3791965762962 L441.66820107124704 202.30661477018728 L442.1518235197236 201.2080766250459 L442.6354459682002 200.08686028778422 L443.1190684166768 198.94625322459123 L443.60269086515336 197.78954341015026 L444.08631331362994 196.620010547576 L444.5699357621065 195.44091734066657 L445.0535582105831 194.2555008399155 L445.53718065905974 193.0669638835259 L446.0208031075363 191.8784666544176 L446.50442555601296 190.69311837391547 L446.98804800448954 189.5139691524561 L447.47167045296607 188.34400201725157 L447.9552929014427 187.1861251364016 L448.4389153499193 186.04316425845508 L448.92253779839587 184.91785538588178 L449.40616024687245 183.8128377003374 L449.889782695349 182.730646756979 L450.3734051438256 181.67370796442611 L450.8570275923022 180.64433036625826 L451.34065004077877 179.64470073919998 L451.94517810137455 178.44012085622182 L452.5497061619703 177.2889571658604 L453.15423422256606 176.19459781543677 L453.7587622831618 175.1600781596066 L454.48419595587666 174.00137707245915 L455.20962962859153 172.9365718607384 L456.0559689134256 171.81706631401448 L457.02321381037876 170.70370106981275 L458.1113643194511 169.66605556078557 L459.19951482852343 168.85582463272593 L460.28766533759574 168.2687935684917 L461.3758158466681 167.89660597627088 L462.4639663557404 167.72688876769135 L463.5521168648128 167.743430939766 L464.6402673738851 167.92641396545088 L465.7284178829574 168.2526909615343 L466.81656839202975 168.6961112001807 L467.90471890110206 169.22788596891303 L468.9928694101744 169.81699126985436 L470.0810199192467 170.43060238880628 L471.16917042831903 171.0345549637548 L472.2573209373914 171.59382684547646 L473.34547144646376 172.07303477414825 L474.43362195553607 172.43693969850915 L475.5217724646084 172.65095444060722 L476.6099229736807 172.6816473610513 L477.698073482753 172.49723570763848 L478.7862239918254 172.0680624340193 L479.8743745008977 171.3670504535674 L480.96252500997 170.37012854483112 L481.9297699069232 169.21876237491597 L482.6552035796381 168.1837116839113 L483.380637252353 166.99694322617336 L483.98516531294877 165.8896486275985 L484.5896933735445 164.6732022435974 L485.0733158220211 163.62074317830297 L485.55693827049765 162.4974234146974 L486.04056071897423 161.30309473260894 L486.5241831674508 160.03779328688773 L487.0078056159274 158.70174140534326 L487.37052245228483 157.65351199433718 L487.7332392886423 156.56595457728864 L488.09595612499976 155.43937134112474 L488.45867296135725 154.27412426130357 L488.82138979771463 153.0706350589569 L489.1841066340721 151.82938507638374 L489.54682347042956 150.55091507084495 L489.909540306787 149.23582492671247 L490.27225714314443 147.8847732861401 L490.63497397950186 146.49847709852548 L490.9976908158593 145.0777110891469 L491.36040765221674 143.62330714745934 L491.7231244885742 142.13615363564827 L491.96493571281246 141.12698769295724 L492.20674693705075 140.10397814519797 L492.44855816128904 139.067429012875 L492.69036938552733 138.01765490588707 L492.9321806097657 136.95498088985073 L493.17399183400397 135.87974234582248 L493.41580305824226 134.7922848234886 L493.65761428248055 133.69296388789672 L493.89942550671884 132.5821449598086 L494.1412367309572 131.46020314975436 L494.3830479551955 130.32752308587547 L494.62485917943377 129.1844987356448 L494.86667040367206 128.03153322155708 L495.10848162791035 126.86903863088713 L495.35029285214864 125.69743581961579 L495.59210407638693 124.51715421062683 L495.8339153006252 123.32863158628325 L496.0757265248635 122.13231387549304 L496.3175377491018 120.92865493537832 L496.5593489733401 119.71811632766612 L496.8011601975784 118.50116708991952 L497.0429714218167 117.27828350173505 L497.28478264605496 116.04994884603201 L497.52659387029325 114.81665316556274 L497.76840509453154 113.57889301477809 L498.0102163187699 112.33717120718285 L498.2520275430082 111.0919965583192 L498.4938387672465 109.84388362452026 L498.73564999148476 108.59335243757565 L498.97746121572305 107.34092823545741 L499.2192724399614 106.08714118925371 L499.4610836641997 104.83252612646092 L499.702894888438 103.57762225078874 L499.9447061126763 102.32297285863302 L500.18651733691456 101.06912505237418 L500.42832856115285 99.81662945066101 L500.67013978539114 98.56603989584079 L500.91195100962943 97.31791315870032 L501.1537622338677 96.07280864068264 L501.395573458106 94.83128807374533 L501.6373846823443 93.59391521803022 L501.8791959065826 92.36125555751408 L502.1210071308209 91.13387599381043 L502.3628183550592 89.91234453829712 L502.60462957929747 88.69723000274051 L502.8464408035358 87.4891016885941 L503.0882520277741 86.28852907514545 L503.3300632520124 85.09608150668798 L503.5718744762507 83.91232787889604 L503.813685700489 82.73783632458081 L504.05549692472727 81.57317389900543 L504.2973081489656 80.41890626493904 L504.5391193732039 79.27559737762816 L504.7809305974422 78.1438091698665 L505.0227418216805 77.0241012373424 L505.2645530459188 75.91703052444306 L505.50636427015706 74.82315101069707 L505.74817549439535 73.74301339803351 L505.98998671863365 72.67716479903812 L506.23179794287194 71.62614842638511 L506.4736091671102 70.59050328362288 L506.7154203913485 69.57076385749285 L506.9572316155868 68.56745981195826 L507.31994845194424 67.09446603093076 L507.6826652883017 65.66137788570852 L507.8035709004208 65.19284748095197 " fill="none" stroke-width="1.6500000000000001" stroke="rgb(71,71,71)" stroke-opacity="1.0">
          </path>
        </g>
      </g>
    </g>
    <g transform="translate(14.5 182.0 ) rotate(-90.0 ) ">
      <text class="axis-title-y" y="0.0" text-anchor="middle">
      y
      </text>
    </g>
    <g transform="translate(324.00765333787484 391.5 ) ">
      <text class="axis-title-x" y="0.0" text-anchor="middle">
      x
      </text>
    </g>
    <path fill="rgb(0,0,0)" fill-opacity="0.0" stroke="rgb(71,71,71)" stroke-opacity="1.0" stroke-width="0.0" d="M0.0 0.0 L0.0 400.0 L600.0 400.0 L600.0 0.0 Z">
    </path>
  </g>
  <g id="xXxprefixXx3">
  </g>
</svg>