<svg xmlns="http://www.w3.org/2000/svg" xmlns:xlink="http://www.w3.org/1999/xlink" class="plt-container" width="705.0" height="470.0">
  <style type="text/css">
  .plt-container {
   font-family: Lucida Grande, sans-serif;
   user-select: none;
   -webkit-user-select: none;
   -moz-user-select: none;
   -ms-user-select: none;
}
text {
   text-rendering: optimizeLegibility;
}
#xXxprefixXx0 .plot-title {
   fill: #474747;
   font-family: Lucida Grande, sans-serif;
   font-size: 16.0px;
   font-weight: normal;
   font-style: normal;   
}
#xXxprefixXx0 .plot-subtitle {
   fill: #474747;
   font-family: Lucida Grande, sans-serif;
   font-size: 15.0px;
   font-weight: normal;
   font-style: normal;   
}
#xXxprefixXx0 .plot-caption {
   fill: #474747;
   font-family: Lucida Grande, sans-serif;
   font-size: 13.0px;
   font-weight: normal;
   font-style: normal;   
}
#xXxprefixXx0 .legend-title {
   fill: #474747;
   font-family: Lucida Grande, sans-serif;
   font-size: 15.0px;
   font-weight: normal;
   font-style: normal;   
}
#xXxprefixXx0 .legend-item {
   fill: #474747;
   font-family: Lucida Grande, sans-serif;
   font-size: 13.0px;
   font-weight: normal;
   font-style: normal;   
}
#xXxprefixXx0 .axis-title-x {
   fill: #474747;
   font-family: Lucida Grande, sans-serif;
   font-size: 15.0px;
   font-weight: normal;
   font-style: normal;   
}
#xXxprefixXx0 .axis-text-x {
   fill: #474747;
   font-family: Lucida Grande, sans-serif;
   font-size: 13.0px;
   font-weight: normal;
   font-style: normal;   
}
#xXxprefixXx3 .axis-tooltip-text-x {
   fill: #ffffff;
   font-family: Lucida Grande, sans-serif;
   font-size: 13.0px;
   font-weight: normal;
   font-style: normal;   
}
#xXxprefixXx0 .axis-title-y {
   fill: #474747;
   font-family: Lucida Grande, sans-serif;
   font-size: 15.0px;
   font-weight: normal;
   font-style: normal;   
}
#xXxprefixXx0 .axis-text-y {
   fill: #474747;
   font-family: Lucida Grande, sans-serif;
   font-size: 13.0px;
   font-weight: normal;
   font-style: normal;   
}
#xXxprefixXx3 .axis-tooltip-text-y {
   fill: #ffffff;
   font-family: Lucida Grande, sans-serif;
   font-size: 13.0px;
   font-weight: normal;
   font-style: normal;   
}
#xXxprefixXx0 .facet-strip-text-x {
   fill: #474747;
   font-family: Lucida Grande, sans-serif;
   font-size: 13.0px;
   font-weight: normal;
   font-style: normal;   
}
#xXxprefixXx0 .facet-strip-text-y {
   fill: #474747;
   font-family: Lucida Grande, sans-serif;
   font-size: 13.0px;
   font-weight: normal;
   font-style: normal;   
}
#xXxprefixXx3 .tooltip-text {
   fill: #474747;
   font-family: Lucida Grande, sans-serif;
   font-size: 13.0px;
   font-weight: normal;
   font-style: normal;   
}
#xXxprefixXx3 .tooltip-title {
   fill: #474747;
   font-family: Lucida Grande, sans-serif;
   font-size: 13.0px;
   font-weight: bold;
   font-style: normal;   
}
#xXxprefixXx3 .tooltip-label {
   fill: #474747;
   font-family: Lucida Grande, sans-serif;
   font-size: 13.0px;
   font-weight: bold;
   font-style: normal;   
}

  </style>
  <g id="xXxprefixXx0">
    <path fill-rule="evenodd" fill="rgb(255,255,255)" fill-opacity="1.0" d="M0.0 0.0 L0.0 470.0 L705.0 470.0 L705.0 0.0 Z">
    </path>
    <g transform="translate(23.0 10.0 ) ">
      <g transform="translate(35.01530667574961 414.0 ) ">
        <line x1="28.95384969655686" y1="-0.0" x2="28.95384969655686" y2="-414.0" stroke="rgb(233,233,233)" stroke-opacity="1.0" stroke-width="1.0">
        </line>
        <line x1="101.33847393794895" y1="-0.0" x2="101.33847393794895" y2="-414.0" stroke="rgb(233,233,233)" stroke-opacity="1.0" stroke-width="1.0">
        </line>
        <line x1="173.72309817934104" y1="-0.0" x2="173.72309817934104" y2="-414.0" stroke="rgb(233,233,233)" stroke-opacity="1.0" stroke-width="1.0">
        </line>
        <line x1="246.10772242073313" y1="-0.0" x2="246.10772242073313" y2="-414.0" stroke="rgb(233,233,233)" stroke-opacity="1.0" stroke-width="1.0">
        </line>
        <line x1="318.4923466621252" y1="-0.0" x2="318.4923466621252" y2="-414.0" stroke="rgb(233,233,233)" stroke-opacity="1.0" stroke-width="1.0">
        </line>
        <line x1="390.8769709035173" y1="-0.0" x2="390.8769709035173" y2="-414.0" stroke="rgb(233,233,233)" stroke-opacity="1.0" stroke-width="1.0">
        </line>
        <line x1="463.2615951449094" y1="-0.0" x2="463.2615951449094" y2="-414.0" stroke="rgb(233,233,233)" stroke-opacity="1.0" stroke-width="1.0">
        </line>
        <line x1="535.6462193863015" y1="-0.0" x2="535.6462193863015" y2="-414.0" stroke="rgb(233,233,233)" stroke-opacity="1.0" stroke-width="1.0">
        </line>
        <line x1="608.0308436276936" y1="-0.0" x2="608.0308436276936" y2="-414.0" stroke="rgb(233,233,233)" stroke-opacity="1.0" stroke-width="1.0">
        </line>
        <g transform="translate(28.95384969655686 0.0 ) ">
          <line stroke-width="1.0" stroke="rgb(71,71,71)" stroke-opacity="1.0" x2="0.0" y2="4.0">
          </line>
          <g transform="translate(0.0 7.0 ) ">
            <text class="axis-text-x" text-anchor="middle" dy="0.7em">
            -4
            </text>
          </g>
        </g>
        <g transform="translate(101.33847393794895 0.0 ) ">
          <line stroke-width="1.0" stroke="rgb(71,71,71)" stroke-opacity="1.0" x2="0.0" y2="4.0">
          </line>
          <g transform="translate(0.0 7.0 ) ">
            <text class="axis-text-x" text-anchor="middle" dy="0.7em">
            -3
            </text>
          </g>
        </g>
        <g transform="translate(173.72309817934104 0.0 ) ">
          <line stroke-width="1.0" stroke="rgb(71,71,71)" stroke-opacity="1.0" x2="0.0" y2="4.0">
          </line>
          <g transform="translate(0.0 7.0 ) ">
            <text class="axis-text-x" text-anchor="middle" dy="0.7em">
            -2
            </text>
          </g>
        </g>
        <g transform="translate(246.10772242073313 0.0 ) ">
          <line stroke-width="1.0" stroke="rgb(71,71,71)" stroke-opacity="1.0" x2="0.0" y2="4.0">
          </line>
          <g transform="translate(0.0 7.0 ) ">
            <text class="axis-text-x" text-anchor="middle" dy="0.7em">
            -1
            </text>
          </g>
        </g>
        <g transform="translate(318.4923466621252 0.0 ) ">
          <line stroke-width="1.0" stroke="rgb(71,71,71)" stroke-opacity="1.0" x2="0.0" y2="4.0">
          </line>
          <g transform="translate(0.0 7.0 ) ">
            <text class="axis-text-x" text-anchor="middle" dy="0.7em">
            0
            </text>
          </g>
        </g>
        <g transform="translate(390.8769709035173 0.0 ) ">
          <line stroke-width="1.0" stroke="rgb(71,71,71)" stroke-opacity="1.0" x2="0.0" y2="4.0">
          </line>
          <g transform="translate(0.0 7.0 ) ">
            <text class="axis-text-x" text-anchor="middle" dy="0.7em">
            1
            </text>
          </g>
        </g>
        <g transform="translate(463.2615951449094 0.0 ) ">
          <line stroke-width="1.0" stroke="rgb(71,71,71)" stroke-opacity="1.0" x2="0.0" y2="4.0">
          </line>
          <g transform="translate(0.0 7.0 ) ">
            <text class="axis-text-x" text-anchor="middle" dy="0.7em">
            2
            </text>
          </g>
        </g>
        <g transform="translate(535.6462193863015 0.0 ) ">
          <line stroke-width="1.0" stroke="rgb(71,71,71)" stroke-opacity="1.0" x2="0.0" y2="4.0">
          </line>
          <g transform="translate(0.0 7.0 ) ">
            <text class="axis-text-x" text-anchor="middle" dy="0.7em">
            3
            </text>
          </g>
        </g>
        <g transform="translate(608.0308436276936 0.0 ) ">
          <line stroke-width="1.0" stroke="rgb(71,71,71)" stroke-opacity="1.0" x2="0.0" y2="4.0">
          </line>
          <g transform="translate(0.0 7.0 ) ">
            <text class="axis-text-x" text-anchor="middle" dy="0.7em">
            4
            </text>
          </g>
        </g>
        <line x1="0.0" y1="0.0" x2="636.9846933242504" y2="0.0" stroke-width="1.0" stroke="rgb(71,71,71)" stroke-opacity="1.0">
        </line>
      </g>
      <g transform="translate(35.01530667574961 0.0 ) ">
        <line x1="0.0" y1="395.18181818181813" x2="636.9846933242504" y2="395.18181818181813" stroke="rgb(233,233,233)" stroke-opacity="1.0" stroke-width="1.0">
        </line>
        <line x1="0.0" y1="357.5454545454545" x2="636.9846933242504" y2="357.5454545454545" stroke="rgb(233,233,233)" stroke-opacity="1.0" stroke-width="1.0">
        </line>
        <line x1="0.0" y1="319.9090909090909" x2="636.9846933242504" y2="319.9090909090909" stroke="rgb(233,233,233)" stroke-opacity="1.0" stroke-width="1.0">
        </line>
        <line x1="0.0" y1="282.27272727272725" x2="636.9846933242504" y2="282.27272727272725" stroke="rgb(233,233,233)" stroke-opacity="1.0" stroke-width="1.0">
        </line>
        <line x1="0.0" y1="244.63636363636365" x2="636.9846933242504" y2="244.63636363636365" stroke="rgb(233,233,233)" stroke-opacity="1.0" stroke-width="1.0">
        </line>
        <line x1="0.0" y1="207.0" x2="636.9846933242504" y2="207.0" stroke="rgb(233,233,233)" stroke-opacity="1.0" stroke-width="1.0">
        </line>
        <line x1="0.0" y1="169.36363636363637" x2="636.9846933242504" y2="169.36363636363637" stroke="rgb(233,233,233)" stroke-opacity="1.0" stroke-width="1.0">
        </line>
        <line x1="0.0" y1="131.72727272727275" x2="636.9846933242504" y2="131.72727272727275" stroke="rgb(233,233,233)" stroke-opacity="1.0" stroke-width="1.0">
        </line>
        <line x1="0.0" y1="94.09090909090911" x2="636.9846933242504" y2="94.09090909090911" stroke="rgb(233,233,233)" stroke-opacity="1.0" stroke-width="1.0">
        </line>
        <line x1="0.0" y1="56.45454545454547" x2="636.9846933242504" y2="56.45454545454547" stroke="rgb(233,233,233)" stroke-opacity="1.0" stroke-width="1.0">
        </line>
        <line x1="0.0" y1="18.81818181818184" x2="636.9846933242504" y2="18.81818181818184" stroke="rgb(233,233,233)" stroke-opacity="1.0" stroke-width="1.0">
        </line>
        <g transform="translate(0.0 395.18181818181813 ) ">
          <g transform="translate(-3.0 0.0 ) ">
            <text class="axis-text-y" text-anchor="end" dy="0.35em">
            -1.0
            </text>
          </g>
        </g>
        <g transform="translate(0.0 357.5454545454545 ) ">
          <g transform="translate(-3.0 0.0 ) ">
            <text class="axis-text-y" text-anchor="end" dy="0.35em">
            -0.8
            </text>
          </g>
        </g>
        <g transform="translate(0.0 319.9090909090909 ) ">
          <g transform="translate(-3.0 0.0 ) ">
            <text class="axis-text-y" text-anchor="end" dy="0.35em">
            -0.6
            </text>
          </g>
        </g>
        <g transform="translate(0.0 282.27272727272725 ) ">
          <g transform="translate(-3.0 0.0 ) ">
            <text class="axis-text-y" text-anchor="end" dy="0.35em">
            -0.4
            </text>
          </g>
        </g>
        <g transform="translate(0.0 244.63636363636365 ) ">
          <g transform="translate(-3.0 0.0 ) ">
            <text class="axis-text-y" text-anchor="end" dy="0.35em">
            -0.2
            </text>
          </g>
        </g>
        <g transform="translate(0.0 207.0 ) ">
          <g transform="translate(-3.0 0.0 ) ">
            <text class="axis-text-y" text-anchor="end" dy="0.35em">
            0.0
            </text>
          </g>
        </g>
        <g transform="translate(0.0 169.36363636363637 ) ">
          <g transform="translate(-3.0 0.0 ) ">
            <text class="axis-text-y" text-anchor="end" dy="0.35em">
            0.2
            </text>
          </g>
        </g>
        <g transform="translate(0.0 131.72727272727275 ) ">
          <g transform="translate(-3.0 0.0 ) ">
            <text class="axis-text-y" text-anchor="end" dy="0.35em">
            0.4
            </text>
          </g>
        </g>
        <g transform="translate(0.0 94.09090909090911 ) ">
          <g transform="translate(-3.0 0.0 ) ">
            <text class="axis-text-y" text-anchor="end" dy="0.35em">
            0.6
            </text>
          </g>
        </g>
        <g transform="translate(0.0 56.45454545454547 ) ">
          <g transform="translate(-3.0 0.0 ) ">
            <text class="axis-text-y" text-anchor="end" dy="0.35em">
            0.8
            </text>
          </g>
        </g>
        <g transform="translate(0.0 18.81818181818184 ) ">
          <g transform="translate(-3.0 0.0 ) ">
            <text class="axis-text-y" text-anchor="end" dy="0.35em">
            1.0
            </text>
          </g>
        </g>
      </g>
      <g transform="translate(35.01530667574961 0.0 ) " clip-path="url(#xXxprefixXx1)" clip-bounds-jfx="[rect (0.0, 0.0), (636.9846933242504, 414.0)]">
        <defs>
          <clipPath id="xXxprefixXx1">
            <rect x="0.0" y="0.0" width="636.9846933242504" height="414.0">
            </rect>
          </clipPath>
        </defs>
        <line x1="0.0" y1="207.0" x2="636.9846933242504" y2="207.0" stroke="rgb(238,102,102)" stroke-opacity="1.0" fill="rgb(17,142,216)" fill-opacity="1.0" stroke-width="1.6500000000000001" stroke-dasharray="7.095000000000001,7.095000000000001">
        </line>
      </g>
      <g transform="translate(35.01530667574961 0.0 ) " clip-path="url(#xXxprefixXx2)" clip-bounds-jfx="[rect (0.0, 0.0), (636.9846933242504, 414.0)]">
        <defs>
          <clipPath id="xXxprefixXx2">
            <rect x="0.0" y="0.0" width="636.9846933242504" height="414.0">
            </rect>
          </clipPath>
        </defs>
        <g>
          <path d="M28.95384969655686 148.58948834266934 L28.95384969655686 148.58948834266934 L29.388157442005195 149.9291381815617 L29.822465187453588 151.3200172961823 L30.256772932901924 152.76042688706514 L30.69108067835026 154.24861604013674 L30.980619175315837 155.26639910792647 L31.270157672281414 156.3040729160106 L31.55969616924699 157.36108314095623 L31.849234666212567 158.43686677258944 L32.13877316317809 159.53085244890337 L32.42831166014366 160.64246079491065 L32.71785015710924 161.77110476523922 L33.007388654074816 162.9161899902732 L33.29692715104039 164.07711512563498 L33.58646564800597 165.2532722048019 L33.876004144971546 166.4440469946554 L34.165542641937066 167.648819353752 L34.45508113890264 168.86696359310852 L34.74461963586822 170.09784883929223 L35.034158132833795 171.34083939960192 L35.32369662979937 172.5952951291319 L35.61323512676495 173.86057179950348 L35.902773623730525 175.13602146904955 L36.1923121206961 176.42099285424075 L36.48185061766162 177.71483170213648 L36.7713891146272 179.01688116364596 L37.060927611592774 180.32648216738565 L37.35046610855835 181.64297379391436 L37.64000460552393 182.96569365013465 L37.929543102489504 184.29397824364352 L38.21908159945508 185.62716335681566 L38.5086200964206 186.96458442040884 L38.79815859338618 188.3055768864738 L39.08769709035175 189.6494766003573 L39.37723558731733 190.99562017158578 L39.666774084282906 192.3433453434158 L39.95631258124848 193.69199136084364 L40.24585107821406 195.04089933686362 L40.53538957517958 196.3894126167641 L40.824928072145156 197.73687714025894 L41.11446656911073 199.08264180124547 L41.40400506607631 200.42605880498633 L41.693543563041885 201.76648402251422 L41.98308206000746 203.10327734205626 L42.27262055697304 204.43580301728332 L42.56215905393856 205.76343001218663 L42.851697550904134 207.0855323423856 L43.14123604786971 208.4014894126791 L43.43077454483529 209.71068635064765 L43.720313041800864 211.01251433612092 L44.00985153876644 212.30637092632713 L44.29939003573202 213.5916603765401 L44.58892853269754 214.86779395604873 L44.87846702966311 216.1341902592719 L45.16800552662869 217.3902755118434 L45.45754402359427 218.6354838715024 L45.74708252055984 219.86925772361843 L46.03662101752542 221.0910479711904 L46.326159514490996 222.3003143191596 L46.615698011456516 223.49652555287906 L46.90523650842209 224.67915981058837 L47.19477500538767 225.84770484974558 L47.484313502353245 227.00165830706703 L47.773851999318765 228.14052795214005 L48.06339049628434 229.26383193446443 L48.35292899324992 230.37109902379456 L48.642467490215495 231.46186884365042 L48.93200598718107 232.5356920978711 L49.22154448414665 233.59213079009285 L49.511082981112224 234.63075843603235 L49.800621478077744 235.65116026846357 L50.09015997504332 236.6529334347813 L50.524467720491714 238.11981302909643 L50.95877546594005 239.54263506782837 L51.39308321138839 240.92019630422666 L51.82739095683672 242.2513582211359 L52.261698702285116 243.53504816275563 L52.69600644773345 244.77026037439512 L53.130314193181846 245.95605694907434 L53.56462193863018 247.09156867994494 L53.99892968407852 248.17599581763648 L54.433237429526855 249.20860873175224 L55.01231442345801 250.50369736809222 L55.59139141738916 251.70414356053533 L56.17046841132026 252.80880862987846 L56.74954540525141 253.81678116974507 L57.47339164766532 254.93975301252553 L58.34200713856205 256.0853649830373 L59.35539187794154 257.1430827092036 L60.36877661732103 257.9018552587831 L61.38216135670052 258.3650701195361 L62.39554609608001 258.53812368951066 L63.4089308354595 258.4283528705409 L64.42231557483899 258.04495277406977 L65.43570031421848 257.39888121834076 L66.44908505359794 256.5027507898932 L67.46246979297746 255.37070933042557 L68.33108528387416 254.22437641063578 L69.05493152628807 253.15299826359382 L69.77877776870201 251.98291604564758 L70.35785476263314 250.98027546491005 L70.93693175656426 249.92228592025833 L71.51600875049542 248.8125753671888 L72.09508574442654 247.65484949522767 L72.6741627383577 246.45288149870413 L73.25323973228882 245.21050171917943 L73.83231672621997 243.93158718523293 L74.4113937201511 242.62005107551758 L74.84570146559943 241.6173598211991 L75.2800092110478 240.60020183080064 L75.71431695649613 239.5702469807997 L76.1486247019445 238.52916484405864 L76.58293244739284 237.47862218201124 L77.01724019284123 236.4202804475872 L77.45154793828956 235.35579330232954 L77.88585568373793 234.28680415113223 L78.32016342918627 233.21494369800416 L78.75447117463463 232.1418275262288 L79.18877892008297 231.06905370625825 L79.62308666553133 229.99820043463518 L80.05739441097967 228.93082370719677 L80.49170215642803 227.86845502975987 L80.92600990187637 226.81259916943995 L81.36031764732473 225.7647319496925 L81.79462539277307 224.7262980921099 L82.22893313822146 223.69870910793588 L82.6632408836698 222.6833412421957 L83.09754862911817 221.68153347326066 L83.67662562304926 220.36912389729187 L84.25570261698039 219.0860935890712 L84.83477961091154 217.83527155813562 L85.41385660484266 216.61934212173492 L85.99293359877382 215.44083805840026 L86.57201059270494 214.30213417063484 L87.1510875866361 213.2054412723979 L87.73016458056722 212.15280061601447 L88.30924157449837 211.14607877207212 L89.03308781691229 209.95480277445913 L89.7569340593262 208.84078890536256 L90.48078030174014 207.8064692948282 L91.34939579263684 206.6732140385712 L92.21801128353354 205.66001053582846 L93.23139602291303 204.6316050124537 L94.24478076229252 203.76922992308903 L95.25816550167201 203.07166232116404 L96.2715502410515 202.5358321907684 L97.28493498043099 202.15685183250818 L98.29831971981048 201.9280599511779 L99.31170445918997 201.84108011794524 L100.32508919856949 201.88589317270112 L101.33847393794895 202.05092302830343 L102.35185867732841 202.32313523839187 L103.36524341670793 202.68814759499253 L104.37862815608742 203.13035193195896 L105.3920128954669 203.63304622605992 L106.4053976348464 204.17857600983575 L107.41878237422588 204.74848403976733 L108.43216711360537 205.3236671003487 L109.44555185298486 205.88453876978278 L110.45893659236435 206.4111969266335 L111.47232133174384 206.88359473920482 L112.48570607112333 207.2817138509575 L113.49909081050282 207.5857384561295 L114.51247554988231 207.77622895004365 L115.5258602892618 207.83429383844302 L116.53924502864129 207.74175859960437 L117.55262976802078 207.48133021188372 L118.56601450740027 207.0367560876196 L119.57939924677973 206.39297619176992 L120.59278398615925 205.53626717002575 L121.60616872553871 204.45437736611183 L122.47478421643544 203.33969532587807 L123.19863045884935 202.27426411859233 L123.92247670126326 201.08171007241393 L124.50155369519442 200.0345705843822 L125.08063068912554 198.90363405997542 L125.65970768305667 197.6881587066819 L126.23878467698782 196.38761653666108 L126.67309242243618 195.35618967029646 L127.10740016788452 194.27668360765628 L127.54170791333289 193.14911883572225 L127.97601565878122 191.97358668487394 L128.4103234042296 190.75024974423977 L128.84463114967792 189.47934218089154 L129.27893889512632 188.16116996219762 L129.71324664057465 186.79611098078237 L130.14755438602302 185.38461508166387 L130.58186213147135 183.92720399127464 L131.01616987691972 182.42447114819626 L131.3057083738853 181.39779590894835 L131.59524687085084 180.35148628005072 L131.88478536781642 179.2857708152966 L132.174323864782 178.20089198405967 L132.46386236174754 177.0971060952102 L132.75340085871312 175.97468321249855 L133.0429393556787 174.8339070614415 L133.33247785264427 173.6750749277505 L133.62201634960982 172.49849754734691 L133.9115548465754 171.30449898801356 L134.20109334354098 170.09341652273702 L134.49063184050652 168.86560049480087 L134.7801703374721 167.62141417469402 L135.06970883443768 166.36123360890295 L135.35924733140325 165.08544746066266 L135.6487858283688 163.7944568427452 L135.93832432533438 162.4886751423693 L136.22786282229995 161.16852783831948 L136.51740131926553 159.8344523103678 L136.80693981623108 158.48689764109596 L137.09647831319666 157.12632441022038 L137.38601681016223 155.7532044815258 L137.67555530712775 154.36802078252012 L137.96509380409333 152.97126707692436 L138.2546323010589 151.56344773012015 L138.54417079802445 150.1450774676756 L138.83370929499003 148.71668112708062 L139.1232477919556 147.2787934028223 L139.41278628892118 145.83195858493812 L139.70232478588673 144.37673029118685 L139.9918632828523 142.91367119298087 L140.28140177981788 141.44335273522898 L140.57094027678346 139.96635485024103 L140.860478773749 138.48326566585 L141.15001727071459 136.99468120791022 L141.43955576768016 135.5012050973345 L141.7290942646457 134.00344824183577 L142.0186327616113 132.50202852254282 L142.30817125857686 130.99757047566163 L142.59770975554244 129.49070496935815 L142.887248252508 127.98206887604073 L143.17678674947356 126.47230474022372 L143.46632524643914 124.96206044215565 L143.7558637434047 123.45198885739886 L144.04540224037027 121.94274751255018 L144.33494073733584 120.43499823729405 L144.62447923430142 118.92940681298188 L144.91401773126697 117.42664261793423 L145.20355622823254 115.92737826966449 L145.49309472519812 114.43228926422384 L145.78263322216367 112.94205361287021 L146.07217171912924 111.45735147626525 L146.36171021609482 109.97886479640528 L146.6512487130604 108.50727692649339 L146.94078721002595 107.04327225896128 L147.23032570699152 105.58753585185116 L147.5198642039571 104.14075305376934 L147.80940270092267 102.70360912762301 L148.09894119788822 101.27678887335422 L148.3884796948538 99.86097624988508 L148.67801819181938 98.45685399648859 L148.96755668878492 97.0651032538015 L149.2570951857505 95.68640318469384 L149.54663368271608 94.32143059521233 L149.83617217968165 92.97085955581383 L150.1257106766472 91.63536102310526 L150.41524917361278 90.31560246230663 L150.70478767057836 89.01224747065336 L150.9943261675439 87.7259554019543 L151.28386466450948 86.45738099252064 L151.57340316147506 85.20717398868129 L151.86294165844063 83.97597877609901 L152.15248015540618 82.76443401110059 L152.44201865237176 81.57317225423496 L152.73155714933733 80.4028196062695 L153.0210956463029 79.25399534683656 L153.31063414326846 78.12731157593859 L153.60017264023404 77.02337285852039 L153.8897111371996 75.94277587231457 L154.17924963416516 74.88610905916522 L154.46878813113074 73.85395228003307 L154.7583266280963 72.84687647388262 L155.19263437354468 71.38451565011675 L155.62694211899301 69.98170340552366 L156.06124986444135 68.64024356091696 L156.49555760988972 67.36188647015337 L156.92986535533805 66.1483266480466 L157.36417310078642 65.00120045887365 L157.79848084623475 63.922083868551255 L158.23278859168312 62.91249026347876 L158.81186558561427 61.67700666726208 L159.3909425795454 60.57093575719796 L160.1147888219593 59.37492733021534 L160.983404312856 58.220442947581404 L161.99678905223553 57.27091770253429 L163.010173791615 56.759702552643716 L164.0235585309945 56.69537029924399 L165.03694327037397 57.084015916842816 L166.05032800975349 57.92919316903169 L166.9189435006502 59.017795418856224 L167.6427897430641 60.18113237764095 L168.22186673699522 61.27859841972409 L168.80094373092638 62.52329089088988 L169.23525147637474 63.5526831391214 L169.66955922182308 64.66355758164113 L170.10386696727144 65.8551939206499 L170.53817471271978 67.12678455221044 L170.97248245816814 68.47743519853006 L171.40679020361648 69.9061656461729 L171.84109794906485 71.41191058948755 L172.13063644603042 72.4579621846583 L172.420174942996 73.53737214689951 L172.70971343996158 74.6497630695788 L172.99925193692712 75.79474143897767 L173.2887904338927 76.9718978017107 L173.57832893085828 78.18080694089556 L173.86786742782382 79.42102806098673 L174.1574059247894 80.69210498118164 L174.44694442175495 81.99356633730369 L174.73648291872053 83.32492579205967 L175.0260214156861 84.68568225356815 L175.31555991265165 86.07532010204532 L175.60509840961723 87.49330942453645 L175.8946369065828 88.93910625757003 L176.18417540354838 90.41215283761372 L176.47371390051393 91.91187785920005 L176.7632523974795 93.43769674059257 L177.05279089444508 94.98901189685125 L177.34232939141066 96.56521302015977 L177.6318678883762 98.16567736726492 L177.92140638534178 99.78977005388235 L178.21094488230736 101.43684435591122 L178.5004833792729 103.10624201730414 L178.79002187623848 104.79729356442687 L179.07956037320406 106.50931862674666 L179.36909887016964 108.24162626367692 L179.65863736713519 109.99351529740936 L179.94817586410076 111.76427465155446 L180.23771436106634 113.55318369541484 L180.5272528580319 115.35951259370546 L180.81679135499746 117.18252266153908 L181.10632985196304 119.02146672448482 L181.39586834892862 120.87558948351186 L181.68540684589416 122.7441278846207 L181.97494534285974 124.62631149296853 L182.26448383982532 126.52136287128545 L182.55402233679087 128.42849796238332 L182.84356083375644 130.3469264755488 L183.133099330722 132.27585227661797 L183.42263782768757 134.2144737815198 L183.71217632465314 136.16198435308058 L184.00171482161872 138.11757270087395 L184.29125331858427 140.08042328390445 L184.58079181554984 142.04971671590613 L184.87033031251542 144.0246301730393 L185.15986880948097 146.00433780376517 L185.44940730644655 147.9880111406794 L185.73894580341212 149.97481951408116 L186.0284843003777 151.9639304670553 L186.31802279734325 153.95451017184277 L186.60756129430882 155.94572384727692 L186.8970997912744 157.93673617705795 L187.18663828823995 159.92671172864013 L187.47617678520552 161.9148153725055 L187.7657152821711 163.90021270159758 L188.05525377913668 165.8820704506881 L188.34479227610223 167.85955691544856 L188.6343307730678 169.83184237100065 L188.92386927003338 171.79809948971916 L189.21340776699896 173.75750375806024 L189.5029462639645 175.7092338921884 L189.79248476093008 177.65247225217757 L190.08202325789566 179.58640525456195 L190.3715617548612 181.5102237830117 L190.66110025182678 183.42312359691056 L190.95063874879236 185.32430573761363 L191.24017724575793 187.21297693216505 L191.5297157427235 189.08834999425602 L191.81925423968906 190.94964422220406 L192.1087927366546 192.79608579373811 L192.39833123362018 194.62690815737517 L192.68786973058576 196.44135242017475 L192.97740822755134 198.23866773165994 L193.2669467245169 200.01811166369657 L193.5564852214825 201.778950586124 L193.84602371844804 203.52046003793288 L194.13556221541361 205.2419250937868 L194.42510071237916 206.9426407256891 L194.71463920934474 208.6219121595983 L195.00417770631032 210.27905522679706 L195.2937162032759 211.91339670982302 L195.58325470024147 213.52427468277372 L195.87279319720702 215.11103884580007 L196.1623316941726 216.67305085360624 L196.45187019113814 218.2096846377761 L196.74140868810372 219.72032672275105 L197.0309471850693 221.20437653528765 L197.32048568203487 222.66124670722604 L197.61002417900045 224.09036337140316 L197.899562675966 225.49116645055065 L198.18910117293157 226.86310993902006 L198.47863966989712 228.20566217718155 L198.7681781668627 229.518306118346 L199.05771666382827 230.80053958806573 L199.34725516079385 232.05187553567313 L199.63679365775943 233.27184227791952 L199.92633215472497 234.4599837345812 L200.21587065169055 235.61585965590518 L200.5054091486561 236.73904584177103 L200.79494764562168 237.82913435244893 L201.08448614258725 238.88573371083953 L201.3740246395528 239.9084690960859 L201.80833238500117 241.3782987921376 L202.2426401304495 242.7699968685452 L202.67694787589787 244.0825145029096 L203.11125562134623 245.31489141319688 L203.54556336679457 246.46625690170077 L203.9798711122429 247.53583079311824 L204.55894810617406 248.83352063514104 L205.1380251001052 249.98321138600048 L205.71710209403633 250.98381867290334 L206.44094833645028 252.02375539110676 L207.45433307582977 253.0847335295688 L208.46771781520926 253.68509119064043 L209.48110255458874 253.82755923687193 L210.49448729396823 253.51762543135544 L211.50787203334772 252.76349281956703 L212.5212567727272 251.57602068471567 L213.24510301514113 250.46986151728112 L213.82418000907225 249.43444318451196 L214.40325700300338 248.26870255782563 L214.98233399693453 246.97608819762388 L215.41664174238286 245.9255781355202 L215.85094948783126 244.80741729292387 L216.2852572332796 243.62332206982393 L216.71956497872793 242.37507895805243 L217.1538727241763 241.06454235257348 L217.58818046962466 239.69363228439246 L218.022488215073 238.26433207790492 L218.45679596052136 236.77868593559862 L218.7463344574869 235.75798786877405 L219.0358729544525 234.7138173878664 L219.32541145141806 233.64682206771656 L219.6149499483836 232.5576598233245 L219.9044884453492 231.44699855625112 L220.19402694231474 230.3155157960297 L220.4835654392803 229.16389833678522 L220.7731039362459 227.99284186926053 L221.06264243321147 226.8030506084526 L221.35218093017704 225.5952369170636 L221.6417194271426 224.37012092497383 L221.93125792410817 223.1284301449457 L222.22079642107371 221.87089908477003 L222.5103349180393 220.59826885606762 L222.79987341500487 219.31128677996094 L223.08941191197044 218.01070598983247 L223.37895040893602 216.69728503138768 L223.66848890590157 215.3717874602414 L223.95802740286715 214.0349814372492 L224.2475658998327 212.68763932180448 L224.53710439679827 211.3305372633248 L224.82664289376385 209.96445479115033 L225.11618139072942 208.59017440307963 L225.405719887695 207.20848115276712 L225.69525838466055 205.82016223620792 L225.98479688162612 204.42600657753636 L226.27433537859167 203.02680441436362 L226.56387387555725 201.6233468828816 L226.85341237252283 200.21642560295857 L227.1429508694884 198.80683226345332 L227.43248936645398 197.3953582079734 L227.72202786341956 195.98279402130316 L228.0115663603851 194.5699291167265 L228.30110485735065 193.157551324469 L228.59064335431623 191.7464464814825 L228.8801818512818 190.33739802279564 L229.16972034824738 188.9311865746514 L229.45925884521296 187.52858954965293 L229.74879734217853 186.1303807441365 L230.03833583914408 184.7373299379896 L230.32787433610966 183.35020249713142 L230.6174128330752 181.96975897886918 L230.90695133004078 180.59675474034503 L231.19648982700636 179.23193955028364 L231.48602832397194 177.8760572042501 L231.7755668209375 176.52984514362564 L232.06510531790306 175.19403407850572 L232.35464381486864 173.8693476147235 L232.6441823118342 172.55650188519851 L232.93372080879976 171.25620518580882 L233.22325930576534 169.9691576159811 L233.51279780273092 168.6960507241911 L233.8023362996965 167.43756715856432 L234.09187479666204 166.19438032276224 L234.38141329362762 164.96715403733882 L234.67095179059316 163.75654220674602 L234.96049028755874 162.56318849216657 L235.25002878452432 161.38772599034598 L235.5395672814899 160.23077691859527 L235.82910577845547 159.09295230612977 L236.11864427542102 157.97485169190725 L236.4081827723866 156.87706282912433 L236.69772126935214 155.8001613965263 L236.98725976631772 154.7447107166815 L237.2767982632833 153.71126148136798 L237.56633676024884 152.7003514842144 L238.0006445056972 151.22739154002286 L238.43495225114555 149.80803597934468 L238.8692599965939 148.44392888646553 L239.30356774204228 147.1366428645396 L239.7378754874906 145.88767737249907 L240.17218323293895 144.69845715524573 L240.60649097838734 143.57033076890673 L241.04079872383568 142.50456920281334 L241.47510646928401 141.5023645997392 L242.05418346321517 140.26686869598194 L242.63326045714632 139.14874207922117 L243.35710669956023 137.91938627604833 L244.08095294197415 136.88038248262484 L245.09433768135364 135.75109497923128 L246.10772242073313 135.00658542931882 L247.12110716011262 134.65027881294276 L248.1344918994921 134.68304978897604 L249.1478766388716 135.103237848989 L250.16126137825108 135.90667938855094 L251.17464611763057 137.08675639350525 L251.8984923600445 138.15536435757423 L252.6223386024584 139.40757773190703 L253.20141559638955 140.53847767738088 L253.7804925903207 141.7813448680966 L254.21480033576904 142.7852755736296 L254.64910808121738 143.84931948438842 L255.08341582666574 144.972132538042 L255.5177235721141 146.1523057313674 L255.95203131756244 147.38836711273433 L256.3863390630108 148.6787838471447 L256.8206468084592 150.02196435103235 L257.2549545539075 151.4162604939446 L257.68926229935585 152.85996986414452 L258.12357004480424 154.35133809509844 L258.41310854176976 155.37117186083452 L258.70264703873534 156.41084032332526 L258.9921855357009 157.4697882593115 L259.2817240326665 158.54745179271293 L259.57126252963207 159.6432587299468 L259.86080102659764 160.7566288991705 L260.15033952356316 161.8869744932483 L260.43987802052874 163.03370041624123 L260.7294165174943 164.19620463321752 L261.0189550144599 165.37387852317812 L261.30849351142547 166.56610723489206 L261.59803200839104 167.77227004543315 L261.8875705053566 168.9917407212096 L262.17710900232214 170.22388788127626 L262.4666474992877 171.4680753627182 L262.7561859962533 172.72366258789344 L263.04572449321887 173.99000493332218 L263.33526299018445 175.26645410000816 L263.62480148715 176.55235848497875 L263.9143399841156 177.84706355382812 L264.2038784810811 179.14991221404927 L264.4934169780467 180.46024518893896 L264.7829554750123 181.77740139186076 L265.07249397197785 183.10071830065044 L265.3620324689434 184.42953233194888 L265.651570965909 185.76317921524736 L265.9411094628746 187.10099436643128 L266.2306479598401 188.4423132606077 L266.5201864568057 189.78647180400407 L266.80972495377125 191.13280670472528 L267.0992634507368 192.48065584215774 L267.3888019477024 193.82935863480972 L267.678340444668 195.17825640637872 L267.96787894163356 196.52669274983774 L268.2574174385991 197.8740138893335 L268.54695593556465 199.21956903969155 L268.83649443253023 200.56271076332473 L269.1260329294958 201.902795324343 L269.4155714264614 203.23918303966423 L269.70510992342696 204.5712386269286 L269.99464842039254 205.89833154902018 L270.28418691735806 207.219836355002 L270.57372541432363 208.53513301727287 L270.8632639112892 209.84360726475737 L271.1528024082548 211.14465091194208 L271.44234090522036 212.43766218357405 L271.73187940218594 213.72204603484073 L272.0214178991515 214.99721446685245 L272.31095639611704 216.26258683725243 L272.6004948930826 217.51759016578163 L272.8900333900482 218.76165943462928 L273.17957188701376 219.9942378834032 L273.46911038397934 221.21477729855673 L273.7586488809449 222.42273829711345 L274.0481873779105 223.6175906045336 L274.337725874876 224.79881332656996 L274.6272643718416 225.9658952149647 L274.91680286880717 227.11833492684252 L275.20634136577274 228.25564127765895 L275.4958798627383 229.37733348756683 L275.7854183597039 230.482941421068 L276.0749568566695 231.5720058198211 L276.364495353635 232.64407852848095 L276.65403385060057 233.69872271344838 L276.94357234756615 234.73551307441488 L277.2331108445317 235.75403604858946 L277.5226493414973 236.7538900075003 L277.95695708694564 238.21781786022964 L278.391264832394 239.6376044439861 L278.82557257784237 241.01205086891417 L279.2598803232907 242.34002305447592 L279.69418806873904 243.62045285500318 L280.12849581418743 244.85233909316304 L280.56280355963577 246.03474850019535 L280.9971113050841 247.16681656190693 L281.43141905053244 248.24774826953228 L281.86572679598083 249.2768187746987 L282.44480378991193 250.56711945049489 L283.0238807838431 251.76271422379062 L283.60295777777424 252.86247596956235 L284.1820347717054 253.86550486899603 L284.9058810141193 254.98225812510168 L285.774496505016 256.12038033810927 L286.78788124439546 257.1693710908989 L287.80126598377495 257.9194863187942 L288.81465072315444 258.3741727943691 L289.82803546253393 258.5388844119036 L290.8414202019134 258.4210133681209 L291.8548049412929 258.02980747362943 L292.8681896806724 257.3762742769248 L293.8815744200519 256.473072776534 L294.8949591594314 255.33439358483574 L295.7635746503281 254.18274563304615 L296.487420892742 253.10721929066986 L297.21126713515594 251.93325663834776 L297.7903441290871 250.92771145810676 L298.36942112301824 249.8670000061453 L298.94849811694934 248.75475444090148 L299.5275751108805 247.59468413748996 L300.10665210481164 246.39056545132334 L300.68572909874274 245.1462313546913 L301.2648060926739 243.8655609720124 L301.84388308660505 242.55246903967858 L302.2781908320534 241.548742818104 L302.7124985775017 240.53066318853055 L303.1468063229501 239.4999000863395 L303.58111406839845 238.4581229727699 L304.0154218138468 237.4069983277241 L304.4497295592951 236.34818715354726 L304.8840373047435 235.28334249323217 L305.31834505019185 234.21410696647777 L305.7526527956402 233.14211032700226 L306.1869605410886 232.06896704448127 L306.6212682865369 230.996273914444 L307.05557603198525 229.92560769942085 L307.4898837774336 228.85852280459054 L307.924191522882 227.79654899112575 L308.3584992683303 226.74118913038245 L308.79280701377866 225.69391700202115 L309.22711475922705 224.65617513908543 L309.6614225046754 223.62937272299848 L310.0957302501237 222.61488353136744 L310.53003799557206 221.61404394141297 L311.1091149895032 220.30305976243324 L311.68819198343436 219.02160228367183 L312.2672689773655 217.77249331884119 L312.8463459712966 216.55840963113025 L313.42542296522777 215.3818761072099 L314.0044999591589 214.24525934118375 L314.58357695309 213.15076164410195 L315.16265394702117 212.10041549361813 L315.7417309409523 211.0960784372941 L316.46557718336624 209.9078962757056 L317.18942342578015 208.79708435079544 L317.91326966819406 207.76605588816932 L318.7818851590908 206.63684065335627 L319.65050064998746 205.6277442014352 L320.66388538936695 204.60416954107438 L321.67727012874644 203.74661599119418 L322.69065486812593 203.0538065855922 L323.7040396075054 202.52261793379628 L324.7174243468849 202.1481100382996 L325.7308090862644 201.9235708056242 L326.7441938256439 201.84057492075794 L327.7575785650234 201.88905664754606 L328.77096330440287 202.05739601379636 L329.78434804378236 202.3325177399296 L330.79773278316185 202.700002174692 L331.81111752254134 203.1442074114391 L332.8245022619208 203.64840167444524 L333.8378870013003 204.1949049872035 L334.8512717406798 204.7652390643196 L335.8646564800593 205.3402843058764 L336.8780412194388 205.90044271851846 L337.8914259588183 206.42580554137044 L338.90481069819776 206.89632431760148 L339.91819543757725 207.291984124258 L340.93158017695674 207.59297765411398 L341.94496491633623 207.77987883388357 L342.9583496557157 207.83381466327535 L343.9717343950952 207.73663396905545 L344.9851191344747 207.47107178746367 L345.9985038738542 207.02090811687026 L347.0118886132337 206.37111982027315 L348.02527335261317 205.50802450385902 L349.03865809199266 204.41941525306186 L349.9072735828894 203.29874498348326 L350.6311198253033 202.2281868195827 L351.3549660677172 201.03040219715686 L351.93404306164837 199.97901714116205 L352.5131200555795 198.84379217303538 L353.0921970495106 197.62399629373317 L353.67127404344177 196.3191125005689 L354.1055817888901 195.28442227428977 L354.5398895343385 194.20165201095787 L354.97419727978684 193.07082699209903 L355.4085050252352 191.89204337386207 L355.8428127706835 190.66546859586634 L356.2771205161319 189.3913416938411 L356.71142826158024 188.06997351538314 L357.1457360070286 186.70174683828677 L357.58004375247697 185.28711639102838 L358.0143514979253 183.826608775118 L358.44865924337364 182.32082228915894 L358.7381977403392 181.2921375020551 L359.0277362373048 180.24384096202053 L359.31727473427037 179.17616264319588 L359.60681323123595 178.08934642794534 L359.89635172820147 176.98365002990215 L360.18589022516704 175.8593449084853 L360.4754287221326 174.7167161749226 L360.7649672190982 173.55606248982005 L361.0545057160638 172.37769595232294 L361.34404421302935 171.1819419809185 L361.6335827099949 169.9691391859358 L361.92312120696045 168.739639233802 L362.212659703926 167.49380670312098 L362.5021982008916 166.2320189326433 L362.7917366978572 164.95466586120273 L363.08127519482275 163.66214985969816 L363.3708136917883 162.3548855552061 L363.6603521887539 161.03329964731125 L363.9498906857194 159.6978307167501 L364.239429182685 158.3489290264648 L364.5289676796506 156.98705631517004 L364.81850617661615 155.6126855835409 L365.10804467358173 154.22630087313226 L365.3975831705473 152.82839703814665 L365.6871216675129 151.41947951017005 L365.9766601644784 150.00006405600124 L366.266198661444 148.5706765287022 L366.55573715840956 147.13185261200348 L366.84527565537513 145.6841375582006 L367.1348141523407 144.2280859196829 L367.4243526493063 142.7642612742393 L367.71389114627186 141.29323594428902 L368.0034296432374 139.81559071019043 L368.29296814020296 138.33191451778276 L368.58250663716854 136.84280418032094 L368.8720451341341 135.3488640749657 L369.1615836310997 133.8507058339957 L369.45112212806526 132.34894803091032 L369.74066062503084 130.84421586159672 L370.03019912199636 129.3371408207355 L370.31973761896194 127.82836037362544 L370.6092761159275 126.31851762360655 L370.8988146128931 124.8082609752679 L371.18835310985867 123.2982437936255 L371.47789160682424 121.78912405946058 L371.7674301037898 120.28156402100993 L372.05696860075534 118.77622984220281 L372.3465070977209 117.27379124764029 L372.6360455946865 115.77492116451671 L372.92558409165207 114.2802953616826 L373.21512258861765 112.79059208605292 L373.5046610855832 111.3064916965635 L373.7941995825488 109.82867629588296 L374.0837380795143 108.35782936008673 L374.3732765764799 106.89463536650237 L374.6628150734455 105.43977941993633 L374.95235357041105 103.99394687749378 L375.2418920673766 102.55782297220348 L375.5314305643422 101.13209243566187 L375.8209690613078 99.71743911990966 L376.1105075582733 98.31454561875655 L376.4000460552389 96.92409288876942 L376.68958455220445 95.54675987013965 L376.97912304917 94.18322310764614 L377.2686615461356 92.83415637193043 L377.5582000431011 91.5002302813003 L377.8477385400667 90.18211192427846 L378.1372770370323 88.88046448311306 L378.42681553399785 87.59594685846498 L378.71635403096343 86.329213295489 L379.005892527929 85.08091301152231 L379.2954310248946 83.85168982559611 L379.58496952186016 82.64218178998317 L379.87450801882574 81.45302082399431 L380.16404651579126 80.28483235023508 L380.45358501275683 79.1382349335339 L380.7431235097224 78.01383992274998 L381.032662006688 76.91225109566949 L381.32220050365356 75.83406430719589 L381.61173900061914 74.77986714103938 L381.9012774975847 73.75023856510782 L382.19081599455023 72.74574859080116 L382.62512373999857 71.28737245568672 L383.05943148544696 69.8886690056053 L383.4937392308953 68.55143850768465 L383.9280469763437 67.27742759919894 L384.36235472179203 66.06832691949683 L384.79666246724037 64.92576880273486 L385.2309702126887 63.85132503448497 L385.6652779581371 62.846504675211435 L386.2443549520682 61.617533881542215 L386.82343194599935 60.51813538792348 L387.54727818841326 59.33067458376033 L388.41589367931 58.18672056819861 L389.4292784186895 57.249804911446375 L390.44266315806897 56.751483085762715 L391.45604789744846 56.70025684140518 L392.46943263682795 57.102148030257666 L393.48281737620744 57.960635692545 L394.3514328671041 59.0606410036132 L395.0752791095181 60.233439618106644 L395.6543561034492 61.33842811008654 L396.2334330973803 62.59058588990575 L396.66774084282866 63.62553105494541 L397.10204858827706 64.74191228622917 L397.5363563337254 65.93900334081258 L397.97066407917373 67.21599070917532 L398.40497182462207 68.57197425471492 L398.83927957007046 70.00596795912708 L399.2735873155188 71.51690077294629 L399.5631258124844 72.5663662613625 L399.85266430944995 73.6491524243244 L400.14220280641547 74.7648802075069 L400.43174130338105 75.91315446614573 L400.7212798003466 77.09356413335146 L401.0108182973122 78.30568239716612 L401.3003567942778 79.5490668862734 L401.58989529124335 80.8232598642736 L401.87943378820887 82.12778843242289 L402.16897228517445 83.46216474073955 L402.45851078214 84.82588620736641 L402.7480492791056 86.21843574608306 L403.0375877760712 87.6392820018482 L403.32712627303675 89.08787959425543 L403.61666477000233 90.56366936877475 L403.90620326696785 92.06607865565385 L404.1957417639334 93.59452153634264 L404.485280260899 95.14839911730616 L404.7748187578646 96.72709981108137 L405.06435725483016 98.32999962443444 L405.35389575179573 99.95646245346539 L405.6434342487613 101.60584038550952 L405.93297274572683 103.27747400767382 L406.2225112426924 104.97069272185055 L406.512049739658 106.68481506603864 L406.80158823662356 108.4191490418077 L407.09112673358914 110.17299244772803 L407.3806652305547 111.9456332185947 L407.6702037275203 113.73634977026227 L407.9597422244858 115.54441134991148 L408.2492807214514 117.36907839155828 L408.53881921841696 119.20960287662027 L408.82835771538254 121.06522869934514 L409.1178962123481 122.93519203691031 L409.4074347093137 124.81872172399267 L409.69697320627927 126.7150396316127 L409.9865117032448 128.6233610500463 L410.27605020021036 130.54289507560435 L410.56558869717594 132.4728450010681 L410.8551271941415 134.41240870957603 L411.1446656911071 136.360779071747 L411.43420418807267 138.31714434583006 L411.72374268503825 140.28068858066268 L412.01328118200377 142.25059202122478 L412.3028196789694 144.22603151656614 L412.5923581759349 146.20618092989235 L412.8818966729005 148.19021155058354 L413.1714351698661 150.17729250792883 L413.46097366683165 152.166591186349 L413.7505121637972 154.15727364188723 L414.04005066076274 156.1485050197395 L414.3295891577284 158.1394499726028 L414.6191276546939 160.1292730796112 L414.9086661516595 162.1171392656376 L415.19820464862505 164.10221422072954 L415.4877431455906 166.08366481945708 L415.7772816425562 168.06065953994107 L416.0668201395217 170.032368882339 L416.35635863648736 171.9979657865575 L416.6458971334529 173.95662604896967 L416.93543563041845 175.9075287379063 L417.22497412738403 177.84985660770047 L417.5145126243496 179.78279651105612 L417.8040511213152 181.70553980952147 L418.0935896182807 183.6172827818394 L418.3831281152463 185.51722702995795 L418.67266661221186 187.40457988247616 L418.96220510917743 189.27855479530865 L419.251743606143 191.1383717493495 L419.5412821031086 192.9832576449203 L419.83082060007416 194.8124466927878 L420.1203590970397 196.6251808015371 L420.40989759400526 198.42070996109052 L420.69943609097083 200.19829262216408 L420.9889745879364 201.95719607145418 L421.278513084902 203.69669680234978 L421.56805158186756 205.41608088096893 L421.85759007883314 207.11464430732048 L422.14712857579866 208.791693371394 L422.43666707276424 210.4465450039833 L422.7262055697298 212.0785271220529 L423.0157440666954 213.68697896845995 L423.30528256366097 215.27125144584573 L423.59482106062654 216.83070744451445 L423.8843595575921 218.36472216412105 L424.17389805455764 219.87268342899355 L424.4634365515232 221.35399199691696 L424.7529750484888 222.80806186121058 L425.04251354545437 224.23432054593422 L425.33205204241995 225.63220939406327 L425.6215905393855 227.00118384847462 L425.9111290363511 228.34071372559038 L426.2006675333166 229.65028348153038 L426.4902060302822 230.92939247062947 L426.7797445272478 232.17755519617745 L427.06928302421335 233.39430155324578 L427.3588215211789 234.57917706346834 L427.6483600181445 235.73174310164953 L427.9378985151101 236.85157711407555 L428.2274370120756 237.93827282841008 L428.5169755090412 238.99144045506017 L428.80651400600675 240.01070687990378 L429.2408217514551 241.47526710998815 L429.6751294969035 242.8616217360962 L430.1094372423518 244.1687279117574 L430.54374498780015 245.39563140506755 L430.97805273324855 246.54146763550128 L431.4123604786969 247.60546260475533 L431.99143747262804 248.89564740234528 L432.57051446655913 250.03777078463662 L433.29436070897304 251.25561263373834 L434.1629761998698 252.40749392629425 L435.17636093924926 253.32333757803843 L436.18974567862875 253.7791213148795 L437.20313041800824 253.77844732032133 L438.21651515738773 253.32766347593565 L439.2298998967672 252.43581622040296 L440.09851538766395 251.32910962404662 L440.8223616300778 250.1721883656926 L441.40143862400896 249.09720570470552 L441.9805156179401 247.89291249951032 L442.55959261187127 246.5628311506054 L442.9939003573196 245.4849763433171 L443.42820810276794 244.34015086077395 L443.86251584821633 243.13009948330244 L444.29682359366467 241.8566362144997 L444.731131339113 240.52164206074153 L445.1654390845614 239.12706273343113 L445.59974683000974 237.67490627684583 L445.8892853269753 236.67583349094906 L446.1788238239409 235.65271576424385 L446.4683623209064 234.60619108726752 L446.757900817872 233.53690810388974 L447.04743931483756 232.44552576236492 L447.33697781180314 231.33271296121467 L447.6265163087687 230.19914819014474 L447.91605480573423 229.0455191661847 L448.20559330269987 227.87252246526032 L448.4951317996654 226.6808631493917 L448.784670296631 225.47125438973234 L449.07420879359654 224.24441708564595 L449.3637472905621 223.0010794800411 L449.6532857875277 221.74197677116453 L449.9428242844932 220.46785072107664 L450.23236278145885 219.17944926101418 L450.52190127842437 217.87752609386652 L450.81143977539 216.56284029397378 L451.1009782723555 215.2361559044762 L451.3905167693211 213.8982415324254 L451.6800552662867 212.54986994188965 L451.9695937632522 211.1918176452655 L452.2591322602178 209.82486449302988 L452.54867075718334 208.44979326214707 L452.838209254149 207.06738924336537 L453.1277477511145 205.67843982761937 L453.4172862480801 204.28373409177343 L453.70682474504565 202.88406238392298 L453.99636324201117 201.48021590848936 L454.2859017389768 200.07298631132528 L454.5754402359423 198.66316526506557 L454.8649787329079 197.25154405494237 L455.1545172298735 195.83891316529437 L455.44405572683905 194.42606186699322 L455.73359422380463 193.01377780601206 L456.02313272077015 191.60284659335954 L456.3126712177358 190.1940513966021 L456.6022097147013 188.78817253319616 L456.8917482116669 187.3859870658505 L457.18128670863246 185.98826840013834 L457.47082520559803 184.59578588457686 L457.7603637025636 183.20930441339044 L458.04990219952913 181.8295840321724 L458.33944069649476 180.457379546658 L458.6289791934603 179.09344013482018 L458.91851769042586 177.73850896249672 L459.20805618739143 176.39332280275585 L459.497594684357 175.05861165920535 L459.7871331813226 173.73509839344732 L460.0766716782881 172.4234983568786 L460.36621017525374 171.1245190270344 L460.65574867221926 169.8388596486697 L460.94528716918484 168.5672108797707 L461.2348256661504 167.31025444268485 L461.524364163116 166.0686627805563 L461.81390266008157 164.8430987192492 L462.1034411570471 163.63421513493876 L462.3929796540127 162.44265462754686 L462.68251815097824 161.26904920019513 L462.9720566479438 160.1140199448449 L463.2615951449094 158.97817673429103 L463.55113364187497 157.86211792067033 L463.84067213884055 156.76643004064525 L464.13021063580607 155.6916875274158 L464.4197491327717 154.63845242971178 L464.7092876297372 153.60727413791136 L464.9988261267028 152.5986891174294 L465.43313387215113 151.12931498102282 L465.8674416175995 149.71365907323636 L466.30174936304786 148.35336067992012 L466.7360571084962 147.04998748996996 L467.17036485394453 145.80503393851177 L467.6046725993929 144.6199196434915 L468.03898034484126 143.49598793744715 L468.47328809028966 142.43450449611032 L469.05236508422075 141.11837463547533 L469.6314420781519 139.9179554624369 L470.210519072083 138.8355804174683 L470.934365314497 137.6517425637612 L471.80298080539364 136.4836830086188 L472.81636554477313 135.47500362378116 L473.8297502841526 134.85245569396216 L474.8431350235321 134.6186607308133 L475.8565197629116 134.7736928571946 L476.8699045022911 135.31509931246364 L477.8832892416706 136.23793779239233 L478.7519047325673 137.32700283863676 L479.4757509749812 138.44019965345507 L480.0548279689124 139.46241384177665 L480.63390496284353 140.59908001664124 L481.2129819567747 141.84757436176594 L481.647289702223 142.85562739217045 L482.08159744767136 143.9237044722505 L482.5159051931197 145.05045706924392 L482.95021293856803 146.23447184241672 L483.38452068401637 147.47427264056105 L483.8188284294647 148.7683225718595 L484.2531361749131 150.1150261433179 L484.68744392036143 151.51273146688072 L485.1217516658098 152.95973252926473 L485.55605941125816 154.45427152246663 L485.8455979082237 155.47615032098977 L486.1351364051893 156.51780767955364 L486.42467490215483 157.5786874785075 L486.7142133991204 158.6582249793427 L487.003751896086 159.75584716041868 L487.29329039305156 160.87097305659466 L487.58282889001714 162.00301410256492 L487.87236738698266 163.15137447969502 L488.1619058839483 164.31545146615963 L488.4514443809138 165.49463579017362 L488.7409828778794 166.68831198611184 L489.03052137484497 167.89585875331005 L489.32005987181054 169.11664931733546 L489.6095983687761 170.3500517935202 L489.89913686574164 171.59542955254446 L490.1886753627073 172.85214158785556 L490.4782138596728 174.11954288471347 L490.76775235663837 175.39698479064606 L491.05729085360394 176.6838153871008 L491.3468293505695 177.97937986207904 L491.6363678475351 179.2830208835349 L491.9259063445006 180.59407897332733 L492.21544484146625 181.91189288150778 L492.50498333843177 183.23579996072712 L492.79452183539735 184.56513654054976 L493.0840603323629 185.89923830145753 L493.3735988293285 187.23744064832997 L493.6631373262941 188.57907908318776 L493.9526758232596 189.92348957698394 L494.24221432022523 191.27000894023314 L494.53175281719075 192.61797519226675 L494.8212913141563 193.9667279289012 L495.1108298111219 195.31560868831366 L495.4003683080875 196.66396131491476 L495.68990680505306 198.01113232101235 L495.9794453020186 199.3564712460623 L496.2689837989842 200.69933101329983 L496.55852229594973 202.03906828355355 L496.84806079291536 203.37504380604062 L497.1375992898809 204.70662276594337 L497.42713778684646 206.03317512857495 L497.71667628381203 207.35407597993844 L498.00621478077755 208.66870586348801 L498.2957532777432 209.9764511129052 L498.5852917747087 211.2767041807006 L498.87483027167434 212.56886396246094 L499.16436876863986 213.85233611655946 L499.45390726560544 215.1265333791488 L499.743445762571 216.39087587426613 L500.03298425953653 217.64479141887415 L500.32252275650217 218.8877158226714 L500.6120612534677 220.11909318250585 L500.9015997504333 221.33837617122762 L501.19113824739884 222.54502632082443 L501.4806767443644 223.73851429968352 L501.77021524133 224.91832018382587 L502.0597537382955 226.08393372196852 L502.34929223526115 227.2348545942675 L502.63883073222667 228.3705926646018 L502.9283692291923 229.49066822626293 L503.2179077261578 230.59461224091433 L503.5074462231234 231.68196657069572 L503.796984720089 232.75228420334642 L504.08652321705455 233.80512947022575 L504.3760617140201 234.84007825711805 L504.66560021098564 235.85671820770813 L505.099907956434 237.34647650053202 L505.5342157018824 238.79284191098824 L505.9685234473307 240.1945773194478 L506.4028311927791 241.55050969808812 L506.83713893822744 242.85953129098598 L507.2714466836758 244.12060070286844 L507.7057544291241 245.33274389530212 L508.1400621745725 246.4950550892338 L508.57436992002084 247.60669757291376 L509.00867766546924 248.6669044143656 L509.4429854109176 249.67497907769007 L510.02206240484867 250.93691307876094 L510.6011393987798 252.10377813992324 L511.1802163927109 253.17451546542935 L511.9040626351249 254.37651270877956 L512.6279088775389 255.42590461264962 L513.4965243684355 256.4829735078318 L514.509909107815 257.4376273453724 L515.5232938471945 258.09427067801033 L516.536678586574 258.45698869849207 L517.5500633259535 258.5318535894229 L518.563448065333 258.326851270159 L519.5768328047125 257.85179447862777 L520.590217544092 257.11822290002027 L521.6036022834714 256.13929114627996 L522.4722177743681 255.11598460581897 L523.3408332652648 253.9331752218274 L524.0646795076788 252.83335268107845 L524.7885257500927 251.63668522674004 L525.3676027440238 250.614162470563 L525.9466797379549 249.5375576997801 L526.5257567318861 248.41052737684194 L527.1048337258172 247.23680211544635 L527.6839107197484 246.0201764032405 L528.2629877136795 244.7644982051937 L528.8420647076107 243.4736584734231 L529.4211417015417 242.15158058944476 L529.8554494469902 241.14189490904477 L530.2897571924385 240.11852573557184 L530.7240649378869 239.08314311589686 L531.1583726833352 238.03741561570408 L531.5926804287835 236.98300781628444 L532.0269881742319 235.9215778236889 L532.4612959196802 234.85477479368683 L532.8956036651286 233.78423647594482 L533.3299114105769 232.71158678081787 L533.7642191560253 231.6384333721059 L534.1985269014737 230.56636528909635 L534.632834646922 229.49695060116568 L535.0671423923703 228.43173409817138 L535.5014501378187 227.3722350198096 L535.9357578832671 226.31994482706446 L536.3700656287153 225.27632501880893 L536.8043733741638 224.24280499656035 L537.2386811196121 223.2207799803218 L537.6729888650605 222.21160897837007 L538.2520658589916 220.88831994014092 L538.8311428529228 219.59324508466534 L539.4102198468538 218.3292690390532 L539.9892968407851 217.0991345743276 L540.5683738347161 215.9054356006815 L541.1474508286473 214.75061056533673 L541.7265278225784 213.63693626907863 L542.3056048165096 212.56652211651738 L542.8846818104407 211.54130481406705 L543.6085280528546 210.32600397430522 L544.3323742952686 209.18709367730997 L545.0562205376824 208.1271533440282 L545.9248360285792 206.96240851248277 L546.7934515194759 205.9171516377908 L547.8068362588554 204.85099269146355 L548.8202209982348 203.95088269350538 L549.8336057376143 203.21602150566434 L550.8469904769938 202.6437573122515 L551.8603752163733 202.22961262661093 L552.8737599557528 201.9673250586674 L553.8871446951323 201.84890254095873 L554.9005294345118 201.8646926029142 L555.9139141738913 202.00346517843852 L556.9272989132708 202.25250833086417 L557.9406836526503 202.59773618276986 L558.9540683920297 203.0238082467291 L559.9674531314092 203.5142592674099 L560.9808378707887 204.0516386062192 L561.9942226101682 204.61765812744002 L563.0076073495477 205.19334748008242 L564.0209920889272 205.75921561291912 L565.0343768283067 206.29541731182914 L566.0477615676862 206.78192350897532 L567.0611463070657 207.19869408278973 L568.0745310464451 207.5258518464616 L569.0879157858246 207.7438564107773 L570.1013005252041 207.83367660484598 L571.1146852645836 207.77696014548206 L572.1280700039631 207.55619926276924 L573.1414547433426 207.15489101548474 L574.1548394827221 206.5576910654442 L575.1682242221016 205.7505597241942 L576.1816089614811 204.72089913851778 L577.0502244523777 203.65281285818375 L577.7740706947916 202.62731021089374 L578.4979169372057 201.47552269793258 L579.0769939311367 200.46149482236092 L579.6560709250679 199.36402389764422 L580.235147918999 198.1822840954922 L580.8142249129302 196.91566184830648 L581.2485326583785 195.90974367404266 L581.6828404038268 194.85576404403815 L582.1171481492752 193.7537060371176 L582.5514558947236 192.60362331619626 L582.9857636401719 191.4056405943608 L583.4200713856203 190.1599540052038 L583.8543791310685 188.86683137666657 L584.288686876517 187.5266124077639 L584.7229946219653 186.13970874769987 L585.1573023674136 184.70660397700527 L585.5916101128621 183.22785349046512 L585.8811486098275 182.21696779059067 L586.1706871067931 181.1862756957262 L586.4602256037588 180.13599462960454 L586.7497641007243 179.06635598600448 L587.0393025976898 177.97760505948256 L587.3288410946554 176.87000096754844 L587.6183795916211 175.7438165643152 L587.9079180885865 174.59933834565936 L588.1974565855521 173.43686634593175 L588.4869950825178 172.2567140262655 L588.7765335794833 171.05920815453018 L589.0660720764488 169.84468867698925 L589.3556105734144 168.61350858172082 L589.6451490703801 167.36603375386701 L589.9346875673456 166.10264282278268 L590.2242260643111 164.82372700115758 L590.5137645612767 163.52968991619332 L590.8033030582422 162.22094743291942 L591.0928415552078 160.89792746973617 L591.3823800521734 159.56106980628127 L591.671918549139 158.21082588371604 L591.9614570461046 156.84765859753617 L592.2509955430701 155.4720420830144 L592.5405340400357 154.08446149338556 L592.8300725370012 152.68541277089324 L593.1196110339667 151.2754024108167 L593.4091495309324 149.85494721860323 L593.698688027898 148.42457406023624 L593.9882265248635 146.98481960597127 L594.277765021829 145.5362300675774 L594.5673035187947 144.07936092922608 L594.8568420157602 142.6147766721706 L595.1463805127257 141.14305049336718 L595.4359190096914 139.66476401818971 L595.725457506657 138.18050700739235 L596.0149960036225 136.69087705848295 L596.304534500588 135.19647930166772 L596.5940729975537 133.6979260905353 L596.8836114945192 132.19583668764938 L597.1731499914847 130.69083694522186 L597.4626884884503 129.18355898104465 L597.752226985416 127.67464084985767 L598.0417654823815 126.16472621033378 L598.331303979347 124.65446398786784 L598.6208424763126 123.14450803335485 L598.9103809732782 121.63551677814799 L599.1999194702437 120.12815288538854 L599.4894579672093 118.62308289790141 L599.778996464175 117.12097688285446 L600.0685349611405 115.62250807337969 L600.358073458106 114.12835250735628 L600.6476119550716 112.63918866355964 L600.9371504520371 111.15569709538032 L601.2266889490027 109.67856006231838 L601.5162274459683 108.20846115946223 L601.8057659429339 106.74608494515864 L602.0953044398995 105.29211656708709 L602.384842936865 103.8472413869483 L602.6743814338306 102.41214460397913 L602.9639199307961 100.9875108775086 L603.2534584277616 99.57402394876877 L603.5429969247273 98.17236626217513 L603.8325354216929 96.7832185862929 L604.1220739186584 95.40725963470365 L604.411612415624 94.0451656869905 L604.7011509125896 92.69761021005743 L604.9906894095551 91.36526347999835 L605.2802279065206 90.04879220473427 L605.5697664034863 88.74885914763335 L605.8593049004519 87.46612275233076 L606.1488433974174 86.20123676896348 L606.4383818943829 84.95484988203452 L606.7279203913486 83.72760534012221 L607.0174588883141 82.52014058764743 L607.3069973852796 81.3330868989104 L607.5965358822452 80.16706901461016 L607.8860743792109 79.02270478105619 L608.0308436276936 78.45883388695964 " fill="none" stroke-width="1.6500000000000001" stroke="rgb(71,71,71)" stroke-opacity="1.0">
          </path>
        </g>
      </g>
    </g>
    <g transform="translate(14.5 217.0 ) rotate(-90.0 ) ">
      <text class="axis-title-y" y="0.0" text-anchor="middle">
      y
      </text>
    </g>
    <g transform="translate(376.50765333787484 461.5 ) ">
      <text class="axis-title-x" y="0.0" text-anchor="middle">
      x
      </text>
    </g>
    <path fill="rgb(0,0,0)" fill-opacity="0.0" stroke="rgb(71,71,71)" stroke-opacity="1.0" stroke-width="0.0" d="M0.0 0.0 L0.0 470.0 L705.0 470.0 L705.0 0.0 Z">
    </path>
  </g>
  <g id="xXxprefixXx3">
  </g>
</svg>