<svg xmlns="http://www.w3.org/2000/svg" xmlns:xlink="http://www.w3.org/1999/xlink" class="plt-container" width="900.0" height="400.0">
  <g id="xXxprefixXx0">
  </g>
  <svg xmlns="http://www.w3.org/2000/svg" xmlns:xlink="http://www.w3.org/1999/xlink" class="plt-container" width="448.0" height="400.0" x="0.0" y="0.0">
    <style type="text/css">
    .plt-container {
   font-family: Lucida Grande, sans-serif;
   user-select: none;
   -webkit-user-select: none;
   -moz-user-select: none;
   -ms-user-select: none;
}
text {
   text-rendering: optimizeLegibility;
}
#xXxprefixXx1 .plot-title {
   fill: #474747;
   font-family: Lucida Grande, sans-serif;
   font-size: 16.0px;
   font-weight: normal;
   font-style: normal;   
}
#xXxprefixXx1 .plot-subtitle {
   fill: #474747;
   font-family: Lucida Grande, sans-serif;
   font-size: 15.0px;
   font-weight: normal;
   font-style: normal;   
}
#xXxprefixXx1 .plot-caption {
   fill: #474747;
   font-family: Lucida Grande, sans-serif;
   font-size: 13.0px;
   font-weight: normal;
   font-style: normal;   
}
#xXxprefixXx1 .legend-title {
   fill: #474747;
   font-family: Lucida Grande, sans-serif;
   font-size: 15.0px;
   font-weight: normal;
   font-style: normal;   
}
#xXxprefixXx1 .legend-item {
   fill: #474747;
   font-family: Lucida Grande, sans-serif;
   font-size: 13.0px;
   font-weight: normal;
   font-style: normal;   
}
#xXxprefixXx1 .axis-title-x {
   fill: #474747;
   font-family: Lucida Grande, sans-serif;
   font-size: 15.0px;
   font-weight: normal;
   font-style: normal;   
}
#xXxprefixXx1 .axis-text-x {
   fill: #474747;
   font-family: Lucida Grande, sans-serif;
   font-size: 13.0px;
   font-weight: normal;
   font-style: normal;   
}
#xXxprefixXx3 .axis-tooltip-text-x {
   fill: #ffffff;
   font-family: Lucida Grande, sans-serif;
   font-size: 13.0px;
   font-weight: normal;
   font-style: normal;   
}
#xXxprefixXx1 .axis-title-y {
   fill: #474747;
   font-family: Lucida Grande, sans-serif;
   font-size: 15.0px;
   font-weight: normal;
   font-style: normal;   
}
#xXxprefixXx1 .axis-text-y {
   fill: #474747;
   font-family: Lucida Grande, sans-serif;
   font-size: 13.0px;
   font-weight: normal;
   font-style: normal;   
}
#xXxprefixXx3 .axis-tooltip-text-y {
   fill: #ffffff;
   font-family: Lucida Grande, sans-serif;
   font-size: 13.0px;
   font-weight: normal;
   font-style: normal;   
}
#xXxprefixXx1 .facet-strip-text-x {
   fill: #474747;
   font-family: Lucida Grande, sans-serif;
   font-size: 13.0px;
   font-weight: normal;
   font-style: normal;   
}
#xXxprefixXx1 .facet-strip-text-y {
   fill: #474747;
   font-family: Lucida Grande, sans-serif;
   font-size: 13.0px;
   font-weight: normal;
   font-style: normal;   
}
#xXxprefixXx3 .tooltip-text {
   fill: #474747;
   font-family: Lucida Grande, sans-serif;
   font-size: 13.0px;
   font-weight: normal;
   font-style: normal;   
}
#xXxprefixXx3 .tooltip-title {
   fill: #474747;
   font-family: Lucida Grande, sans-serif;
   font-size: 13.0px;
   font-weight: bold;
   font-style: normal;   
}
#xXxprefixXx3 .tooltip-label {
   fill: #474747;
   font-family: Lucida Grande, sans-serif;
   font-size: 13.0px;
   font-weight: bold;
   font-style: normal;   
}

    </style>
    <g id="xXxprefixXx1">
      <path fill-rule="evenodd" fill="rgb(255,255,255)" fill-opacity="1.0" d="M0.0 0.0 L0.0 400.0 L448.0 400.0 L448.0 0.0 Z">
      </path>
      <g transform="translate(23.0 34.0 ) ">
        <g transform="translate(35.01530667574961 320.0 ) ">
          <line x1="67.3237955194417" y1="-0.0" x2="67.3237955194417" y2="-320.0" stroke="rgb(233,233,233)" stroke-opacity="1.0" stroke-width="1.0">
          </line>
          <line x1="165.78675094946504" y1="-0.0" x2="165.78675094946504" y2="-320.0" stroke="rgb(233,233,233)" stroke-opacity="1.0" stroke-width="1.0">
          </line>
          <line x1="264.2497063794884" y1="-0.0" x2="264.2497063794884" y2="-320.0" stroke="rgb(233,233,233)" stroke-opacity="1.0" stroke-width="1.0">
          </line>
          <line x1="362.7126618095117" y1="-0.0" x2="362.7126618095117" y2="-320.0" stroke="rgb(233,233,233)" stroke-opacity="1.0" stroke-width="1.0">
          </line>
          <g transform="translate(67.3237955194417 0.0 ) ">
            <line stroke-width="1.0" stroke="rgb(71,71,71)" stroke-opacity="1.0" x2="0.0" y2="4.0">
            </line>
            <g transform="translate(0.0 7.0 ) ">
              <text class="axis-text-x" text-anchor="middle" dy="0.7em">
              -1
              </text>
            </g>
          </g>
          <g transform="translate(165.78675094946504 0.0 ) ">
            <line stroke-width="1.0" stroke="rgb(71,71,71)" stroke-opacity="1.0" x2="0.0" y2="4.0">
            </line>
            <g transform="translate(0.0 7.0 ) ">
              <text class="axis-text-x" text-anchor="middle" dy="0.7em">
              0
              </text>
            </g>
          </g>
          <g transform="translate(264.2497063794884 0.0 ) ">
            <line stroke-width="1.0" stroke="rgb(71,71,71)" stroke-opacity="1.0" x2="0.0" y2="4.0">
            </line>
            <g transform="translate(0.0 7.0 ) ">
              <text class="axis-text-x" text-anchor="middle" dy="0.7em">
              1
              </text>
            </g>
          </g>
          <g transform="translate(362.7126618095117 0.0 ) ">
            <line stroke-width="1.0" stroke="rgb(71,71,71)" stroke-opacity="1.0" x2="0.0" y2="4.0">
            </line>
            <g transform="translate(0.0 7.0 ) ">
              <text class="axis-text-x" text-anchor="middle" dy="0.7em">
              2
              </text>
            </g>
          </g>
          <line x1="0.0" y1="0.0" x2="379.9846933242504" y2="0.0" stroke-width="1.0" stroke="rgb(71,71,71)" stroke-opacity="1.0">
          </line>
        </g>
        <g transform="translate(35.01530667574961 0.0 ) ">
          <line x1="0.0" y1="280.7186956036886" x2="379.9846933242504" y2="280.7186956036886" stroke="rgb(233,233,233)" stroke-opacity="1.0" stroke-width="1.0">
          </line>
          <line x1="0.0" y1="232.49314634573813" x2="379.9846933242504" y2="232.49314634573813" stroke="rgb(233,233,233)" stroke-opacity="1.0" stroke-width="1.0">
          </line>
          <line x1="0.0" y1="184.26759708778764" x2="379.9846933242504" y2="184.26759708778764" stroke="rgb(233,233,233)" stroke-opacity="1.0" stroke-width="1.0">
          </line>
          <line x1="0.0" y1="136.04204782983712" x2="379.9846933242504" y2="136.04204782983712" stroke="rgb(233,233,233)" stroke-opacity="1.0" stroke-width="1.0">
          </line>
          <line x1="0.0" y1="87.8164985718866" x2="379.9846933242504" y2="87.8164985718866" stroke="rgb(233,233,233)" stroke-opacity="1.0" stroke-width="1.0">
          </line>
          <line x1="0.0" y1="39.59094931393609" x2="379.9846933242504" y2="39.59094931393609" stroke="rgb(233,233,233)" stroke-opacity="1.0" stroke-width="1.0">
          </line>
          <g transform="translate(0.0 280.7186956036886 ) ">
            <g transform="translate(-3.0 0.0 ) ">
              <text class="axis-text-y" text-anchor="end" dy="0.35em">
              -1.5
              </text>
            </g>
          </g>
          <g transform="translate(0.0 232.49314634573813 ) ">
            <g transform="translate(-3.0 0.0 ) ">
              <text class="axis-text-y" text-anchor="end" dy="0.35em">
              -1.0
              </text>
            </g>
          </g>
          <g transform="translate(0.0 184.26759708778764 ) ">
            <g transform="translate(-3.0 0.0 ) ">
              <text class="axis-text-y" text-anchor="end" dy="0.35em">
              -0.5
              </text>
            </g>
          </g>
          <g transform="translate(0.0 136.04204782983712 ) ">
            <g transform="translate(-3.0 0.0 ) ">
              <text class="axis-text-y" text-anchor="end" dy="0.35em">
              0.0
              </text>
            </g>
          </g>
          <g transform="translate(0.0 87.8164985718866 ) ">
            <g transform="translate(-3.0 0.0 ) ">
              <text class="axis-text-y" text-anchor="end" dy="0.35em">
              0.5
              </text>
            </g>
          </g>
          <g transform="translate(0.0 39.59094931393609 ) ">
            <g transform="translate(-3.0 0.0 ) ">
              <text class="axis-text-y" text-anchor="end" dy="0.35em">
              1.0
              </text>
            </g>
          </g>
        </g>
        <g transform="translate(35.01530667574961 0.0 ) " clip-path="url(#xXxprefixXx2)" clip-bounds-jfx="[rect (0.0, 0.0), (379.9846933242504, 320.0)]">
          <defs>
            <clipPath id="xXxprefixXx2">
              <rect x="0.0" y="0.0" width="379.9846933242504" height="320.0">
              </rect>
            </clipPath>
          </defs>
          <g>
            <path d="M17.27203151473867 152.18457704937077 L17.27203151473867 152.18457704937077 L17.51657789087568 142.92589213604418 L17.633282322980676 161.50051069794267 L18.358085611429942 133.7619728834619 L18.60669636328717 170.83546322233792 L19.785315602690872 124.72947130171393 L20.19611339673196 180.15064858491425 L21.784701789680753 115.86402789372782 L22.402800816880074 189.40688545747105 L24.340436573415758 107.20013103955037 L25.225418288695806 198.5647615745076 L27.434565087043552 98.77098291138255 L28.65999336903795 207.58480086437578 L31.047087730584025 90.6083724403357 L32.69990832440587 216.42763265213415 L35.15607045211672 82.7425558200943 L37.335898314159635 225.05416221242086 L39.73776221399578 75.2021449950314 L42.556061058857225 233.4257419382167 L44.76671905612341 68.01400454103477 L48.34587806384886 241.50434238207382 L50.21593414459612 61.203157306505176 L54.68824741805855 249.25272242030655 L56.05697317321673 54.79269913892273 L61.563528137163985 256.6345977877966 L62.26011446752314 48.80372297920553 L68.79449312618294 43.255252562015926 L68.9495959694082 263.61480723154216 L75.6282485228618 38.16418591542086 L76.82191053122699 270.15947553484784 L82.7286744830599 33.5452488080584 L85.1535935890195 276.2361726711683 L90.06237144489526 29.410958246442263 L93.91551825290577 281.8140683570253 L97.59539991044214 25.77159607942214 L103.07640879848665 286.86408128715175 L105.29343449495536 22.63519272133894 L112.60295078359763 291.35902235197216 L113.12191788512472 20.007520960261942 L114.26248862828737 149.92230648912363 L114.32368513669797 153.39518773554943 L114.43980121021426 146.5120587194617 L114.63068026518877 156.91457616931683 L114.8472505664121 143.17985080043357 L115.18962166832594 160.46369896775204 L115.47544552591448 139.94030055236604 L116.0054612344734 164.02521457274867 L116.31404446019151 136.80717365076836 L117.08190672455598 167.58129455038411 L117.35182775032585 133.79332535647612 L118.4213792474873 171.11370913526773 L118.57677391061162 130.91064781303166 L119.97613893996001 128.1700231271992 L120.02497685237478 174.60391606091338 L121.04621402436754 17.89209977306038 L121.53653845950308 125.58128241771269 L121.89244448929354 178.03315225761017 L122.45991107914081 295.2737311577316 L123.24403218405604 123.15317098582103 L124.02215056067092 181.38252798136818 L125.08421026666673 120.8933197290894 L126.41107025428036 184.63312292164332 L127.04228104938124 118.80822288739584 L129.03175985300442 16.290208025165157 L129.05477581665127 187.76608382178233 L129.10315974960557 116.90322217728534 L131.25155761005095 115.18249733797522 L131.9474338925063 190.7627231345543 L132.61026738641365 298.5852051928987 L133.47207104121213 113.64906307950154 L135.08181002179717 193.6046182258172 L135.74927028862942 112.30477239091958 L137.04421494394708 15.200907889876476 L138.0677871627979 111.15032613427812 L138.44928035118153 196.2737106323647 L140.41240137747715 110.18528881843358 L142.03985058152864 198.75240487535706 L142.76812505226977 109.40811041580922 L143.01534676822817 301.27272101086686 L145.04960839013847 14.621077780184592 L145.12028494762367 108.81615405508298 L145.84218213743205 201.0236663284963 L147.45460201479787 108.40572939365305 L149.7572678597379 108.17213144571707 L149.84362550890427 203.07111764028403 L152.01501773814832 108.10968461504656 L153.01448231835744 14.545454545454575 L153.63497267766442 303.31794682833623 L154.0302606796105 204.87913321231727 L154.21519971922498 108.21179165616596 L156.34583967741762 108.47098726377763 L158.38694452033124 206.43293124063018 L158.39570179511563 108.87899596801981 L160.3543442841701 109.42679399261065 L160.90603142503352 14.966684646161099 L162.21217006054997 110.10467471421035 L162.89736499100155 207.7186628345733 L163.96047213404995 110.90231734451353 L164.42761992680198 304.70504597098204 L165.59147350368013 111.80885844174158 L165.78675094946504 136.04204782983712 L167.0983613790257 112.81296584540596 L167.5441019598289 208.7234977376136 L167.75014257354897 135.7978477911935 L168.4753155783255 113.90291461751727 L168.6922379532667 15.875383982313338 L168.70237063371226 135.49442369628053 L169.71753098512158 115.06666456486629 L170.49005167010918 134.53703248896983 L170.82123397692848 116.2919389106391 L171.30311536132547 133.89074076833197 L171.78369277129858 117.56630367947577 L172.0479920804214 133.13935786137867 L172.30869441381185 209.43570618670404 L172.60322166676397 118.87724735815202 L172.71448196387323 132.28896128719308 L173.27917918825275 120.21226039436561 L173.29291059952968 131.34646408519754 L173.77419556582115 130.31957321360383 L173.81196017855234 121.5589140986304 L174.14990965061233 129.2167430818051 L174.2029819090649 122.90493851900972 L174.41234039000622 128.04712446470924 L174.45466431431333 124.23829886532442 L174.5545455863333 126.82050907195293 L174.57040448525933 125.54727006851314 L175.3505769983446 305.420770632981 L176.3420015562369 17.260206015434065 L177.17171380163137 209.84473646147262 L182.11284321753936 209.94128769135463 L183.82526352042993 19.107917790102903 L186.3601150659622 305.4545454545455 L187.11096210367296 209.7173775078794 L191.11312485250346 21.403483429277884 L192.1442361183447 209.16640415054445 L197.19021178944348 208.2832026579756 L197.4116630545198 304.7985404616479 L198.17795776598348 24.13015464800074 L202.2259155452721 207.06409480129054 L204.9935101381736 27.269567802784948 L207.22795669008826 205.5069324436409 L208.45998803939318 303.4477329544678 L211.53500254350774 30.801846969092153 L212.1726338684287 203.61113403869558 L217.0360445411127 201.37771401121103 L217.7792175068971 34.70571251690973 L219.459380254875 301.3999579755713 L221.79419697674345 198.8093047946923 L223.70458065925166 38.95859463464144 L226.42312424567083 195.91017133432683 L229.29123351709381 43.5367512343761 L230.36384195545486 298.65594703527495 L230.89899968882943 192.68621789773476 L234.52109764885137 48.41538965717095 L235.1982533217146 189.14498707146396 L239.29768862407286 185.29565085740882 L239.3779300318193 53.56879158531814 L241.1272793506078 295.2193548198562 L243.17459915873224 181.14899382028077 L243.84736944573 58.97044055968949 L246.80688445842208 176.71738827474155 L247.91697379116334 64.59315149419356 L250.17316461748294 172.01476153864937 L251.5762482634813 70.409201576141 L251.7036968138114 291.09677365805015 L253.25289302606248 167.05655531689115 L254.81666435537895 76.3904619408892 L256.02646668775213 161.85967731830482 L257.63166970332065 82.50852951150844 L258.4753335676443 156.44244524605213 L260.01668883488253 88.73485839935049 L260.5820964264706 150.8245233393124 L261.9691149151629 95.04089026925544 L262.0473925498881 286.2977355724256 L262.3306126077959 145.02685168114456 L263.4882926307707 101.39818308365969 L263.7060892591578 139.07156852364227 L264.575492389274 107.77853765298823 L264.69517348450825 132.98192591690255 L265.2338760502199 114.15412143535647 L265.28603694427545 126.78219896267338 L265.46845444074927 120.49758904667759 L272.11315489160387 280.83470179452627 L281.8564583867465 274.72303967590415 L291.2336588308108 267.98098698110323 L300.20218639789846 260.6296036030799 L308.72073602361854 252.69271079620216 L316.7494541985951 244.19681807664634 L324.2501213397186 235.1710379944503 L331.18632891846 225.6469890354636 L337.523650541411 215.65868696469713 L343.22980619764144 205.24242497491923 L348.2748189104578 194.43664305548822 L352.63116305758257 183.2817870461787 L356.2739036536163 171.82015788886724 L359.1808259217314 160.09575163623438 L361.33255451781145 148.15409082083266 L362.7126618095117 136.0420478298372 " fill="none" stroke-width="1.6500000000000001" stroke="rgb(71,71,71)" stroke-opacity="1.0">
            </path>
          </g>
        </g>
      </g>
      <g transform="translate(58.01530667574961 15.2 ) ">
        <text class="plot-title" y="0.0">
        `line` layer
        </text>
      </g>
      <g transform="translate(14.5 194.0 ) rotate(-90.0 ) ">
        <text class="axis-title-y" y="0.0" text-anchor="middle">
        y
        </text>
      </g>
      <g transform="translate(248.00765333787479 391.5 ) ">
        <text class="axis-title-x" y="0.0" text-anchor="middle">
        x
        </text>
      </g>
      <path fill="rgb(0,0,0)" fill-opacity="0.0" stroke="rgb(71,71,71)" stroke-opacity="1.0" stroke-width="0.0" d="M0.0 0.0 L0.0 400.0 L448.0 400.0 L448.0 0.0 Z">
      </path>
    </g>
    <g id="xXxprefixXx3">
    </g>
  </svg>
  <svg xmlns="http://www.w3.org/2000/svg" xmlns:xlink="http://www.w3.org/1999/xlink" class="plt-container" width="448.0" height="400.0" x="452.0" y="0.0">
    <style type="text/css">
    .plt-container {
   font-family: Lucida Grande, sans-serif;
   user-select: none;
   -webkit-user-select: none;
   -moz-user-select: none;
   -ms-user-select: none;
}
text {
   text-rendering: optimizeLegibility;
}
#xXxprefixXx4 .plot-title {
   fill: #474747;
   font-family: Lucida Grande, sans-serif;
   font-size: 16.0px;
   font-weight: normal;
   font-style: normal;   
}
#xXxprefixXx4 .plot-subtitle {
   fill: #474747;
   font-family: Lucida Grande, sans-serif;
   font-size: 15.0px;
   font-weight: normal;
   font-style: normal;   
}
#xXxprefixXx4 .plot-caption {
   fill: #474747;
   font-family: Lucida Grande, sans-serif;
   font-size: 13.0px;
   font-weight: normal;
   font-style: normal;   
}
#xXxprefixXx4 .legend-title {
   fill: #474747;
   font-family: Lucida Grande, sans-serif;
   font-size: 15.0px;
   font-weight: normal;
   font-style: normal;   
}
#xXxprefixXx4 .legend-item {
   fill: #474747;
   font-family: Lucida Grande, sans-serif;
   font-size: 13.0px;
   font-weight: normal;
   font-style: normal;   
}
#xXxprefixXx4 .axis-title-x {
   fill: #474747;
   font-family: Lucida Grande, sans-serif;
   font-size: 15.0px;
   font-weight: normal;
   font-style: normal;   
}
#xXxprefixXx4 .axis-text-x {
   fill: #474747;
   font-family: Lucida Grande, sans-serif;
   font-size: 13.0px;
   font-weight: normal;
   font-style: normal;   
}
#xXxprefixXx6 .axis-tooltip-text-x {
   fill: #ffffff;
   font-family: Lucida Grande, sans-serif;
   font-size: 13.0px;
   font-weight: normal;
   font-style: normal;   
}
#xXxprefixXx4 .axis-title-y {
   fill: #474747;
   font-family: Lucida Grande, sans-serif;
   font-size: 15.0px;
   font-weight: normal;
   font-style: normal;   
}
#xXxprefixXx4 .axis-text-y {
   fill: #474747;
   font-family: Lucida Grande, sans-serif;
   font-size: 13.0px;
   font-weight: normal;
   font-style: normal;   
}
#xXxprefixXx6 .axis-tooltip-text-y {
   fill: #ffffff;
   font-family: Lucida Grande, sans-serif;
   font-size: 13.0px;
   font-weight: normal;
   font-style: normal;   
}
#xXxprefixXx4 .facet-strip-text-x {
   fill: #474747;
   font-family: Lucida Grande, sans-serif;
   font-size: 13.0px;
   font-weight: normal;
   font-style: normal;   
}
#xXxprefixXx4 .facet-strip-text-y {
   fill: #474747;
   font-family: Lucida Grande, sans-serif;
   font-size: 13.0px;
   font-weight: normal;
   font-style: normal;   
}
#xXxprefixXx6 .tooltip-text {
   fill: #474747;
   font-family: Lucida Grande, sans-serif;
   font-size: 13.0px;
   font-weight: normal;
   font-style: normal;   
}
#xXxprefixXx6 .tooltip-title {
   fill: #474747;
   font-family: Lucida Grande, sans-serif;
   font-size: 13.0px;
   font-weight: bold;
   font-style: normal;   
}
#xXxprefixXx6 .tooltip-label {
   fill: #474747;
   font-family: Lucida Grande, sans-serif;
   font-size: 13.0px;
   font-weight: bold;
   font-style: normal;   
}

    </style>
    <g id="xXxprefixXx4">
      <path fill-rule="evenodd" fill="rgb(255,255,255)" fill-opacity="1.0" d="M0.0 0.0 L0.0 400.0 L448.0 400.0 L448.0 0.0 Z">
      </path>
      <g transform="translate(23.0 34.0 ) ">
        <g transform="translate(35.01530667574961 320.0 ) ">
          <line x1="67.3237955194417" y1="-0.0" x2="67.3237955194417" y2="-320.0" stroke="rgb(233,233,233)" stroke-opacity="1.0" stroke-width="1.0">
          </line>
          <line x1="165.78675094946504" y1="-0.0" x2="165.78675094946504" y2="-320.0" stroke="rgb(233,233,233)" stroke-opacity="1.0" stroke-width="1.0">
          </line>
          <line x1="264.2497063794884" y1="-0.0" x2="264.2497063794884" y2="-320.0" stroke="rgb(233,233,233)" stroke-opacity="1.0" stroke-width="1.0">
          </line>
          <line x1="362.7126618095117" y1="-0.0" x2="362.7126618095117" y2="-320.0" stroke="rgb(233,233,233)" stroke-opacity="1.0" stroke-width="1.0">
          </line>
          <g transform="translate(67.3237955194417 0.0 ) ">
            <line stroke-width="1.0" stroke="rgb(71,71,71)" stroke-opacity="1.0" x2="0.0" y2="4.0">
            </line>
            <g transform="translate(0.0 7.0 ) ">
              <text class="axis-text-x" text-anchor="middle" dy="0.7em">
              -1
              </text>
            </g>
          </g>
          <g transform="translate(165.78675094946504 0.0 ) ">
            <line stroke-width="1.0" stroke="rgb(71,71,71)" stroke-opacity="1.0" x2="0.0" y2="4.0">
            </line>
            <g transform="translate(0.0 7.0 ) ">
              <text class="axis-text-x" text-anchor="middle" dy="0.7em">
              0
              </text>
            </g>
          </g>
          <g transform="translate(264.2497063794884 0.0 ) ">
            <line stroke-width="1.0" stroke="rgb(71,71,71)" stroke-opacity="1.0" x2="0.0" y2="4.0">
            </line>
            <g transform="translate(0.0 7.0 ) ">
              <text class="axis-text-x" text-anchor="middle" dy="0.7em">
              1
              </text>
            </g>
          </g>
          <g transform="translate(362.7126618095117 0.0 ) ">
            <line stroke-width="1.0" stroke="rgb(71,71,71)" stroke-opacity="1.0" x2="0.0" y2="4.0">
            </line>
            <g transform="translate(0.0 7.0 ) ">
              <text class="axis-text-x" text-anchor="middle" dy="0.7em">
              2
              </text>
            </g>
          </g>
          <line x1="0.0" y1="0.0" x2="379.9846933242504" y2="0.0" stroke-width="1.0" stroke="rgb(71,71,71)" stroke-opacity="1.0">
          </line>
        </g>
        <g transform="translate(35.01530667574961 0.0 ) ">
          <line x1="0.0" y1="280.7186956036886" x2="379.9846933242504" y2="280.7186956036886" stroke="rgb(233,233,233)" stroke-opacity="1.0" stroke-width="1.0">
          </line>
          <line x1="0.0" y1="232.49314634573813" x2="379.9846933242504" y2="232.49314634573813" stroke="rgb(233,233,233)" stroke-opacity="1.0" stroke-width="1.0">
          </line>
          <line x1="0.0" y1="184.26759708778764" x2="379.9846933242504" y2="184.26759708778764" stroke="rgb(233,233,233)" stroke-opacity="1.0" stroke-width="1.0">
          </line>
          <line x1="0.0" y1="136.04204782983712" x2="379.9846933242504" y2="136.04204782983712" stroke="rgb(233,233,233)" stroke-opacity="1.0" stroke-width="1.0">
          </line>
          <line x1="0.0" y1="87.8164985718866" x2="379.9846933242504" y2="87.8164985718866" stroke="rgb(233,233,233)" stroke-opacity="1.0" stroke-width="1.0">
          </line>
          <line x1="0.0" y1="39.59094931393609" x2="379.9846933242504" y2="39.59094931393609" stroke="rgb(233,233,233)" stroke-opacity="1.0" stroke-width="1.0">
          </line>
          <g transform="translate(0.0 280.7186956036886 ) ">
            <g transform="translate(-3.0 0.0 ) ">
              <text class="axis-text-y" text-anchor="end" dy="0.35em">
              -1.5
              </text>
            </g>
          </g>
          <g transform="translate(0.0 232.49314634573813 ) ">
            <g transform="translate(-3.0 0.0 ) ">
              <text class="axis-text-y" text-anchor="end" dy="0.35em">
              -1.0
              </text>
            </g>
          </g>
          <g transform="translate(0.0 184.26759708778764 ) ">
            <g transform="translate(-3.0 0.0 ) ">
              <text class="axis-text-y" text-anchor="end" dy="0.35em">
              -0.5
              </text>
            </g>
          </g>
          <g transform="translate(0.0 136.04204782983712 ) ">
            <g transform="translate(-3.0 0.0 ) ">
              <text class="axis-text-y" text-anchor="end" dy="0.35em">
              0.0
              </text>
            </g>
          </g>
          <g transform="translate(0.0 87.8164985718866 ) ">
            <g transform="translate(-3.0 0.0 ) ">
              <text class="axis-text-y" text-anchor="end" dy="0.35em">
              0.5
              </text>
            </g>
          </g>
          <g transform="translate(0.0 39.59094931393609 ) ">
            <g transform="translate(-3.0 0.0 ) ">
              <text class="axis-text-y" text-anchor="end" dy="0.35em">
              1.0
              </text>
            </g>
          </g>
        </g>
        <g transform="translate(35.01530667574961 0.0 ) " clip-path="url(#xXxprefixXx5)" clip-bounds-jfx="[rect (0.0, 0.0), (379.9846933242504, 320.0)]">
          <defs>
            <clipPath id="xXxprefixXx5">
              <rect x="0.0" y="0.0" width="379.9846933242504" height="320.0">
              </rect>
            </clipPath>
          </defs>
          <g>
            <path d="M165.78675094946504 136.04204782983712 L165.78675094946504 136.04204782983712 L167.75014257354897 135.7978477911935 L169.61945683886233 135.07302753821986 L171.30311536132547 133.89074076833197 L172.71448196387323 132.28896128719308 L173.77419556582115 130.31957321360383 L174.14990965061233 129.2167430818051 L174.41234039000622 128.04712446470924 L174.5545455863333 126.82050907195293 L174.57040448525933 125.54727006851314 L174.45466431431333 124.23829886532442 L174.2029819090649 122.90493851900972 L173.81196017855234 121.5589140986304 L173.27917918825275 120.21226039436561 L172.60322166676397 118.87724735815202 L171.78369277129858 117.56630367947577 L170.82123397692848 116.2919389106391 L169.71753098512158 115.06666456486629 L168.4753155783255 113.90291461751727 L167.0983613790257 112.81296584540596 L165.59147350368013 111.80885844174158 L163.96047213404995 110.90231734451353 L162.21217006054997 110.10467471421035 L160.3543442841701 109.42679399261065 L158.39570179511563 108.87899596801981 L156.34583967741762 108.47098726377763 L154.21519971922498 108.21179165616596 L152.01501773814832 108.10968461504656 L149.7572678597379 108.17213144571707 L147.45460201479787 108.40572939365305 L145.12028494762367 108.81615405508298 L142.76812505226977 109.40811041580922 L140.41240137747715 110.18528881843358 L138.0677871627979 111.15032613427812 L135.74927028862942 112.30477239091958 L133.47207104121213 113.64906307950154 L131.25155761005095 115.18249733797522 L129.10315974960557 116.90322217728534 L127.04228104938124 118.80822288739584 L125.08421026666673 120.8933197290894 L123.24403218405604 123.15317098582103 L121.53653845950308 125.58128241771269 L119.97613893996001 128.1700231271992 L118.57677391061162 130.91064781303166 L117.35182775032585 133.79332535647612 L116.31404446019151 136.80717365076836 L115.47544552591448 139.94030055236604 L114.8472505664121 143.17985080043357 L114.43980121021426 146.5120587194617 L114.26248862828737 149.92230648912363 L114.32368513669797 153.39518773554943 L114.63068026518877 156.91457616931683 L115.18962166832594 160.46369896775204 L116.0054612344734 164.02521457274867 L117.08190672455598 167.58129455038411 L118.4213792474873 171.11370913526773 L120.02497685237478 174.60391606091338 L121.89244448929354 178.03315225761017 L124.02215056067092 181.38252798136818 L126.41107025428036 184.63312292164332 L129.05477581665127 187.76608382178233 L131.9474338925063 190.7627231345543 L135.08181002179717 193.6046182258172 L138.44928035118153 196.2737106323647 L142.03985058152864 198.75240487535706 L145.84218213743205 201.0236663284963 L149.84362550890427 203.07111764028403 L154.0302606796105 204.87913321231727 L158.38694452033124 206.43293124063018 L162.89736499100155 207.7186628345733 L167.5441019598289 208.7234977376136 L172.30869441381185 209.43570618670404 L177.17171380163137 209.84473646147262 L182.11284321753936 209.94128769135463 L187.11096210367296 209.7173775078794 L192.1442361183447 209.16640415054445 L197.19021178944348 208.2832026579756 L202.2259155452721 207.06409480129054 L207.22795669008826 205.5069324436409 L212.1726338684287 203.61113403869558 L217.0360445411127 201.37771401121103 L221.79419697674345 198.8093047946923 L226.42312424567083 195.91017133432683 L230.89899968882943 192.68621789773476 L235.1982533217146 189.14498707146396 L239.29768862407286 185.29565085740882 L243.17459915873224 181.14899382028077 L246.80688445842208 176.71738827474155 L250.17316461748294 172.01476153864937 L253.25289302606248 167.05655531689115 L256.02646668775213 161.85967731830482 L258.4753335676443 156.44244524605213 L260.5820964264706 150.8245233393124 L262.3306126077959 145.02685168114456 L263.7060892591578 139.07156852364227 L264.69517348450825 132.98192591690255 L265.28603694427545 126.78219896267338 L265.46845444074927 120.49758904667759 L265.2338760502199 114.15412143535647 L264.575492389274 107.77853765298823 L263.4882926307707 101.39818308365969 L261.9691149151629 95.04089026925544 L260.01668883488253 88.73485839935049 L257.63166970332065 82.50852951150844 L254.81666435537895 76.3904619408892 L251.5762482634813 70.409201576141 L247.91697379116334 64.59315149419356 L243.84736944573 58.97044055968949 L239.3779300318193 53.56879158531814 L234.52109764885137 48.41538965717095 L229.29123351709381 43.5367512343761 L223.70458065925166 38.95859463464144 L217.7792175068971 34.70571251690973 L211.53500254350774 30.801846969092153 L204.9935101381736 27.269567802784948 L198.17795776598348 24.13015464800074 L191.11312485250346 21.403483429277884 L183.82526352042993 19.107917790102903 L176.3420015562369 17.260206015434065 L168.6922379532667 15.875383982313338 L160.90603142503352 14.966684646161099 L153.01448231835744 14.545454545454575 L145.04960839013847 14.621077780184592 L137.04421494394708 15.200907889876476 L129.03175985300442 16.290208025165157 L121.04621402436754 17.89209977306038 L113.12191788512472 20.007520960261942 L105.29343449495536 22.63519272133894 L97.59539991044214 25.77159607942214 L90.06237144489526 29.410958246442263 L82.7286744830599 33.5452488080584 L75.6282485228618 38.16418591542086 L68.79449312618294 43.255252562015926 L62.26011446752314 48.80372297920553 L56.05697317321673 54.79269913892273 L50.21593414459612 61.203157306505176 L44.76671905612341 68.01400454103477 L39.73776221399578 75.2021449950314 L35.15607045211672 82.7425558200943 L31.047087730584025 90.6083724403357 L27.434565087043552 98.77098291138255 L24.340436573415758 107.20013103955037 L21.784701789680753 115.86402789372782 L19.785315602690872 124.72947130171393 L18.358085611429942 133.7619728834619 L17.51657789087568 142.92589213604418 L17.27203151473867 152.18457704937077 L17.633282322980676 161.50051069794267 L18.60669636328717 170.83546322233792 L20.19611339673196 180.15064858491425 L22.402800816880074 189.40688545747105 L25.225418288695806 198.5647615745076 L28.65999336903795 207.58480086437578 L32.69990832440587 216.42763265213415 L37.335898314159635 225.05416221242086 L42.556061058857225 233.4257419382167 L48.34587806384886 241.50434238207382 L54.68824741805855 249.25272242030655 L61.563528137163985 256.6345977877966 L68.9495959694082 263.61480723154216 L76.82191053122699 270.15947553484784 L85.1535935890195 276.2361726711683 L93.91551825290577 281.8140683570253 L103.07640879848665 286.86408128715175 L112.60295078359763 291.35902235197216 L122.45991107914081 295.2737311577316 L132.61026738641365 298.5852051928987 L143.01534676822817 301.27272101086686 L153.63497267766442 303.31794682833623 L164.42761992680198 304.70504597098204 L175.3505769983446 305.420770632981 L186.3601150659622 305.4545454545455 L197.4116630545198 304.7985404616479 L208.45998803939318 303.4477329544678 L219.459380254875 301.3999579755713 L230.36384195545486 298.65594703527495 L241.1272793506078 295.2193548198562 L251.7036968138114 291.09677365805015 L262.0473925498881 286.2977355724256 L272.11315489160387 280.83470179452627 L281.8564583867465 274.72303967590415 L291.2336588308108 267.98098698110323 L300.20218639789846 260.6296036030799 L308.72073602361854 252.69271079620216 L316.7494541985951 244.19681807664634 L324.2501213397186 235.1710379944503 L331.18632891846 225.6469890354636 L337.523650541411 215.65868696469713 L343.22980619764144 205.24242497491923 L348.2748189104578 194.43664305548822 L352.63116305758257 183.2817870461787 L356.2739036536163 171.82015788886724 L359.1808259217314 160.09575163623438 L361.33255451781145 148.15409082083266 L362.7126618095117 136.0420478298372 " fill="none" stroke-width="1.6500000000000001" stroke="rgb(71,71,71)" stroke-opacity="1.0">
            </path>
          </g>
        </g>
      </g>
      <g transform="translate(58.01530667574961 15.2 ) ">
        <text class="plot-title" y="0.0">
        `path` layer
        </text>
      </g>
      <g transform="translate(14.5 194.0 ) rotate(-90.0 ) ">
        <text class="axis-title-y" y="0.0" text-anchor="middle">
        y
        </text>
      </g>
      <g transform="translate(248.00765333787479 391.5 ) ">
        <text class="axis-title-x" y="0.0" text-anchor="middle">
        x
        </text>
      </g>
      <path fill="rgb(0,0,0)" fill-opacity="0.0" stroke="rgb(71,71,71)" stroke-opacity="1.0" stroke-width="0.0" d="M0.0 0.0 L0.0 400.0 L448.0 400.0 L448.0 0.0 Z">
      </path>
    </g>
    <g id="xXxprefixXx6">
    </g>
  </svg>
</svg>