<svg xmlns="http://www.w3.org/2000/svg" xmlns:xlink="http://www.w3.org/1999/xlink" class="plt-container" width="705.0" height="235.0">
  <g id="xXxprefixXx0">
  </g>
  <svg xmlns="http://www.w3.org/2000/svg" xmlns:xlink="http://www.w3.org/1999/xlink" class="plt-container" width="350.5" height="235.0" x="0.0" y="0.0">
    <style type="text/css">
    .plt-container {
   font-family: Lucida Grande, sans-serif;
   user-select: none;
   -webkit-user-select: none;
   -moz-user-select: none;
   -ms-user-select: none;
}
text {
   text-rendering: optimizeLegibility;
}
#xXxprefixXx1 .plot-title {
   fill: #bbbbbb;
   font-family: Lucida Grande, sans-serif;
   font-size: 16.0px;
   font-weight: normal;
   font-style: normal;   
}
#xXxprefixXx1 .plot-subtitle {
   fill: #bbbbbb;
   font-family: Lucida Grande, sans-serif;
   font-size: 15.0px;
   font-weight: normal;
   font-style: normal;   
}
#xXxprefixXx1 .plot-caption {
   fill: #bbbbbb;
   font-family: Lucida Grande, sans-serif;
   font-size: 13.0px;
   font-weight: normal;
   font-style: normal;   
}
#xXxprefixXx1 .legend-title {
   fill: #bbbbbb;
   font-family: Lucida Grande, sans-serif;
   font-size: 15.0px;
   font-weight: normal;
   font-style: normal;   
}
#xXxprefixXx1 .legend-item {
   fill: #bbbbbb;
   font-family: Lucida Grande, sans-serif;
   font-size: 13.0px;
   font-weight: normal;
   font-style: normal;   
}
#xXxprefixXx1 .axis-title-x {
   fill: #bbbbbb;
   font-family: Lucida Grande, sans-serif;
   font-size: 15.0px;
   font-weight: normal;
   font-style: normal;   
}
#xXxprefixXx1 .axis-text-x {
   fill: #bbbbbb;
   font-family: Lucida Grande, sans-serif;
   font-size: 13.0px;
   font-weight: normal;
   font-style: normal;   
}
#xXxprefixXx3 .axis-tooltip-text-x {
   fill: #303030;
   font-family: Lucida Grande, sans-serif;
   font-size: 13.0px;
   font-weight: normal;
   font-style: normal;   
}
#xXxprefixXx1 .axis-title-y {
   fill: #bbbbbb;
   font-family: Lucida Grande, sans-serif;
   font-size: 15.0px;
   font-weight: normal;
   font-style: normal;   
}
#xXxprefixXx1 .axis-text-y {
   fill: #bbbbbb;
   font-family: Lucida Grande, sans-serif;
   font-size: 13.0px;
   font-weight: normal;
   font-style: normal;   
}
#xXxprefixXx3 .axis-tooltip-text-y {
   fill: #303030;
   font-family: Lucida Grande, sans-serif;
   font-size: 13.0px;
   font-weight: normal;
   font-style: normal;   
}
#xXxprefixXx1 .facet-strip-text-x {
   fill: #bbbbbb;
   font-family: Lucida Grande, sans-serif;
   font-size: 13.0px;
   font-weight: normal;
   font-style: normal;   
}
#xXxprefixXx1 .facet-strip-text-y {
   fill: #bbbbbb;
   font-family: Lucida Grande, sans-serif;
   font-size: 13.0px;
   font-weight: normal;
   font-style: normal;   
}
#xXxprefixXx3 .tooltip-text {
   fill: #bbbbbb;
   font-family: Lucida Grande, sans-serif;
   font-size: 13.0px;
   font-weight: normal;
   font-style: normal;   
}
#xXxprefixXx3 .tooltip-title {
   fill: #bbbbbb;
   font-family: Lucida Grande, sans-serif;
   font-size: 13.0px;
   font-weight: bold;
   font-style: normal;   
}
#xXxprefixXx3 .tooltip-label {
   fill: #bbbbbb;
   font-family: Lucida Grande, sans-serif;
   font-size: 13.0px;
   font-weight: bold;
   font-style: normal;   
}

    </style>
    <g id="xXxprefixXx1">
      <path fill-rule="evenodd" fill="rgb(48,48,48)" fill-opacity="1.0" d="M0.0 0.0 L0.0 235.0 L350.5 235.0 L350.5 0.0 Z">
      </path>
      <g transform="translate(23.0 34.0 ) ">
        <g transform="translate(21.961210910936405 155.0 ) ">
          <line x1="52.36209077431732" y1="-0.0" x2="52.36209077431732" y2="-155.0" stroke="rgb(71,71,71)" stroke-opacity="1.0" stroke-width="1.0">
          </line>
          <line x1="128.9431297718227" y1="-0.0" x2="128.9431297718227" y2="-155.0" stroke="rgb(71,71,71)" stroke-opacity="1.0" stroke-width="1.0">
          </line>
          <line x1="205.52416876932807" y1="-0.0" x2="205.52416876932807" y2="-155.0" stroke="rgb(71,71,71)" stroke-opacity="1.0" stroke-width="1.0">
          </line>
          <line x1="282.1052077668335" y1="-0.0" x2="282.1052077668335" y2="-155.0" stroke="rgb(71,71,71)" stroke-opacity="1.0" stroke-width="1.0">
          </line>
          <g transform="translate(52.36209077431732 0.0 ) ">
            <line stroke-width="1.0" stroke="rgb(187,187,187)" stroke-opacity="1.0" x2="0.0" y2="4.0">
            </line>
            <g transform="translate(0.0 7.0 ) ">
              <text class="axis-text-x" text-anchor="middle" dy="0.7em">
              -1
              </text>
            </g>
          </g>
          <g transform="translate(128.9431297718227 0.0 ) ">
            <line stroke-width="1.0" stroke="rgb(187,187,187)" stroke-opacity="1.0" x2="0.0" y2="4.0">
            </line>
            <g transform="translate(0.0 7.0 ) ">
              <text class="axis-text-x" text-anchor="middle" dy="0.7em">
              0
              </text>
            </g>
          </g>
          <g transform="translate(205.52416876932807 0.0 ) ">
            <line stroke-width="1.0" stroke="rgb(187,187,187)" stroke-opacity="1.0" x2="0.0" y2="4.0">
            </line>
            <g transform="translate(0.0 7.0 ) ">
              <text class="axis-text-x" text-anchor="middle" dy="0.7em">
              1
              </text>
            </g>
          </g>
          <g transform="translate(282.1052077668335 0.0 ) ">
            <line stroke-width="1.0" stroke="rgb(187,187,187)" stroke-opacity="1.0" x2="0.0" y2="4.0">
            </line>
            <g transform="translate(0.0 7.0 ) ">
              <text class="axis-text-x" text-anchor="middle" dy="0.7em">
              2
              </text>
            </g>
          </g>
          <line x1="0.0" y1="0.0" x2="295.5387890890636" y2="0.0" stroke-width="1.0" stroke="rgb(187,187,187)" stroke-opacity="1.0">
          </line>
        </g>
        <g transform="translate(21.961210910936405 0.0 ) ">
          <line x1="0.0" y1="112.61386776121691" x2="295.5387890890636" y2="112.61386776121691" stroke="rgb(71,71,71)" stroke-opacity="1.0" stroke-width="1.0">
          </line>
          <line x1="0.0" y1="65.89536691757735" x2="295.5387890890636" y2="65.89536691757735" stroke="rgb(71,71,71)" stroke-opacity="1.0" stroke-width="1.0">
          </line>
          <line x1="0.0" y1="19.176866073937788" x2="295.5387890890636" y2="19.176866073937788" stroke="rgb(71,71,71)" stroke-opacity="1.0" stroke-width="1.0">
          </line>
          <g transform="translate(0.0 112.61386776121691 ) ">
            <g transform="translate(-3.0 0.0 ) ">
              <text class="axis-text-y" text-anchor="end" dy="0.35em">
              -1
              </text>
            </g>
          </g>
          <g transform="translate(0.0 65.89536691757735 ) ">
            <g transform="translate(-3.0 0.0 ) ">
              <text class="axis-text-y" text-anchor="end" dy="0.35em">
              0
              </text>
            </g>
          </g>
          <g transform="translate(0.0 19.176866073937788 ) ">
            <g transform="translate(-3.0 0.0 ) ">
              <text class="axis-text-y" text-anchor="end" dy="0.35em">
              1
              </text>
            </g>
          </g>
        </g>
        <g transform="translate(21.961210910936405 0.0 ) " clip-path="url(#xXxprefixXx2)" clip-bounds-jfx="[rect (0.0, 0.0), (295.5387890890636, 155.0)]">
          <defs>
            <clipPath id="xXxprefixXx2">
              <rect x="0.0" y="0.0" width="295.5387890890636" height="155.0">
              </rect>
            </clipPath>
          </defs>
          <g>
            <path d="M13.433581322230182 73.71440450828896 L13.433581322230182 73.71440450828896 L13.623780930660132 69.2297290033964 L13.714549551479834 78.22680986931599 L14.278276169839373 64.79095561542685 L14.471636907388117 82.74842749831993 L15.388325681778312 60.415837661767675 L15.707829821666834 87.26047040831784 L16.943378248383056 56.12163851102441 L17.424114028652326 91.74396014346254 L18.931139272675964 51.925063472282204 L19.61944706268646 96.17980638765212 L21.33764408791913 47.84219484770091 L22.290739296591326 100.54888791868203 L24.147337705545283 43.8884304007876 L25.43284368897379 104.83213456587748 L27.343160588003883 40.078425475358166 L29.038554371197762 109.01060982164137 L30.906640009870003 36.42603898196833 L33.09861416707825 113.06559375132372 L34.817986549914195 32.944283449563706 L37.60173109984996 116.978665841317 L39.05619523838587 29.64527932033844 L42.534603901911055 120.73178742233598 L43.59915086756813 26.54021364541569 L47.881956503395784 124.30738330346398 L48.42373695978556 23.63930331805267 L53.50594787553375 20.95176295972646 L53.62658143598074 127.68842225277822 L58.82100353526769 18.485777552781975 L59.7493920486251 130.85849596219194 L64.34346622168658 16.248479891403278 L66.22948339239059 133.80189613759714 L70.04735892506312 14.245932900620467 L73.04420159222312 136.50368936043412 L75.90628469232138 12.483116850970092 L80.16922148482215 138.9497893734641 L81.89354644112923 10.963921474398546 L87.57863226359612 141.12702645173653 L87.98226670323787 9.691142965126865 L88.86936268954136 72.61861720566925 L88.91695919095284 74.30079405940674 L89.00727020706393 70.96677844223925 L89.15572925228525 76.00549783201284 L89.3241700492454 69.35274023146 L89.5904543039966 77.7246041875049 L89.81275809214523 67.7835830800523 L90.22498575146314 79.44971330867513 L90.46499097921084 66.26597473709091 L91.06220736130288 81.17218954784231 L91.27214248370959 64.80614196954312 L92.10400218725233 82.88320286239531 L92.22486271499858 63.409845034437204 L93.31323983526931 62.082354952237104 L93.35122425345845 84.57377184200492 L94.14550676663836 8.666485827576118 L94.52686394329987 60.82843367107958 L94.80367519102037 86.23480812477993 L95.2450308344406 143.0232135295263 L95.85489277340054 59.65231719625706 L96.46008600047739 87.85716199097521 L97.28611885118079 58.55770174377767 L98.31810408879518 89.43166891517097 L98.80903774302234 57.54773296108235 L100.35638469375708 7.890569512189366 L100.37428570436464 90.94919685117581 L100.41191703322576 56.62499824212259 L102.08286566171634 55.79152214808175 L102.62409386770923 92.40069401829975 L103.13962254978142 144.6272087653103 L103.80990325594223 55.048764929133554 L105.06190186912217 93.7772369531302 L105.58102909316625 54.39762412685167 L106.58819170285423 7.362939759158905 L107.38429033371736 53.838439221290955 L107.68100237744281 95.07007858755165 L109.20784917190461 53.37099927142876 L110.47362217676329 96.27069611150108 L111.04004855916403 52.99455348265758 L111.23232895322853 145.92897423963865 L112.81450641193132 7.082084549776901 L112.86947616356376 52.70782462043081 L113.4309425201591 97.3708383778654 L114.68502624098201 52.50902517505069 L116.47595910603197 52.3958761690192 L116.54312506169173 98.36257260701257 L118.23195790507309 52.36562848541317 L119.00930645874328 7.045454545454554 L119.49190213339206 146.91963049497537 L119.79934330007318 99.23833014971618 L119.94318240934045 52.415086583455384 L121.60031956326179 52.54063445589229 L123.18781943964174 99.99095106968022 L123.19463054132811 52.73826367200959 L124.71799408634229 53.003603340170784 L125.14707702686917 7.24948787548427 L126.16294592239223 53.331951814695636 L126.69586654681018 100.61372731049644 L127.5227140573765 53.71830996374874 L127.88604525313535 147.59150664219442 L128.7912498122412 54.15741580771857 L128.9431297718227 65.89536691757735 L129.9632544371554 54.643780331368504 L130.30993585304606 101.10044421665658 L130.47018702776913 65.77708252385935 L131.03420119854218 55.17172426785993 L131.20291582611205 7.689639116433014 L131.21079667016107 65.63011147788588 L132.00035284507447 55.7354156486071 L132.60119238360997 65.16637511184476 L132.85877438531858 56.32890790984081 L133.23356485275386 64.8533275596608 L133.60734113454166 56.946178344746066 L133.81290388258788 64.48937646410529 L134.0156690288596 101.44542018418477 L134.24474201316772 57.581166689104876 L134.3312763764172 64.07746562348414 L134.77047810434752 58.22781362852084 L134.7811579152256 63.62094354126756 L135.1848565029754 58.8800990165241 L135.4477017688521 62.58935993024935 L135.48897951312145 59.532079595145326 L135.65181120879222 62.02282591259353 L135.68472927512218 60.17792601289151 L135.76241343110019 61.4286840817272 L136.38153878987333 147.93818577535018 L137.1526340957114 8.360412288725861 L137.79795522733656 101.64354422352581 L141.64099267059404 101.6903112254999 L142.97285322081876 9.255397679581087 L144.94437199367596 147.95454545454547 L145.52835452827452 101.58185473037909 L148.64109657632702 10.36731228605646 L149.4430588139553 101.31497701041997 L153.36764200324933 100.88717628745694 L153.53987904298464 147.6367930361107 L154.1358762373192 11.68804365762535 L157.28423605652318 100.29667091937509 L159.436774221995 13.208696904473953 L161.17464850966684 99.54242040238856 L162.13287935288304 146.98249564982035 L164.52451796081462 14.919644625654001 L165.02044527831737 98.62414304999317 L168.80303580446088 97.54233022418035 L169.38104971462707 16.81057950037814 L170.6878214681572 145.99060464441735 L172.50376015950096 96.29825700992907 L173.98958969459278 18.87056927615445 L176.10397770477132 94.89398924006454 L178.33469266761892 21.088113879150917 L179.1689299529862 144.6614743452113 L179.5851568991548 93.33238679421527 L182.4022978626551 23.451204365192176 L182.92896583402 91.61710311274035 L186.117363068153 89.75258088405741 L186.17977202539998 25.947383424138465 L187.5403546710998 142.99687499086784 L189.1326883298002 87.74404388169849 L189.65594550159565 28.563807146099585 L191.95775264937876 85.59748494557793 L192.82114126198027 31.287307755 L194.57592748489623 83.31965012028328 L195.66719681498785 34.10445701344329 L195.7663218347517 140.99999974061802 L196.9712324026607 80.91801898161916 L198.1874789862672 37.0016300026182 L199.12842087847542 78.40078120105389 L200.37689157689493 39.96506898213689 L201.0330637891994 75.7768094160565 L202.2318759446325 42.98094703718539 L202.67163017130372 73.05562849247944 L203.75040458457323 46.0354312241706 L203.81128618792695 138.67546566789366 L204.0315648318574 70.2473812830544 L204.93196781690767 49.114744931147655 L205.10136240819526 67.36279100363923 L205.77755372015832 52.205229175666176 L205.87063748533035 64.41312036599967 L206.28962147796648 55.293402570250784 L206.33019039491973 61.41012762254491 L206.47206833622545 58.36601969448445 L211.64008367896292 136.02930868172365 L219.2180839702129 133.06897234301607 L226.51134212763907 129.80329056897187 L233.4867488312644 126.24246424524182 L240.1121784483256 122.39803179191043 L246.35663431472324 118.28283375587557 L252.19039057699501 113.91097152856186 L257.5851299565162 109.29776031405268 L262.51407680995345 104.45967649852517 L266.9521248751081 99.41429959722652 L270.87595910916855 94.1802489800021 L274.26417104695275 88.7771156004928 L277.09736712992947 83.22538897742007 L279.3582694825452 77.54637969880102 L281.0318086405848 71.76213774134082 L282.1052077668335 65.89536691757739 " fill="none" stroke-width="1.6500000000000001" stroke="rgb(187,187,187)" stroke-opacity="1.0">
            </path>
          </g>
        </g>
      </g>
      <g transform="translate(44.9612109109364 15.2 ) ">
        <text class="plot-title" y="0.0">
        `line` layer
        </text>
      </g>
      <g transform="translate(14.5 111.5 ) rotate(-90.0 ) ">
        <text class="axis-title-y" y="0.0" text-anchor="middle">
        y
        </text>
      </g>
      <g transform="translate(192.7306054554682 226.5 ) ">
        <text class="axis-title-x" y="0.0" text-anchor="middle">
        x
        </text>
      </g>
      <path fill="rgb(0,0,0)" fill-opacity="0.0" stroke="rgb(187,187,187)" stroke-opacity="1.0" stroke-width="0.0" d="M0.0 0.0 L0.0 235.0 L350.5 235.0 L350.5 0.0 Z">
      </path>
    </g>
    <g id="xXxprefixXx3">
    </g>
  </svg>
  <svg xmlns="http://www.w3.org/2000/svg" xmlns:xlink="http://www.w3.org/1999/xlink" class="plt-container" width="350.5" height="235.0" x="354.5" y="0.0">
    <style type="text/css">
    .plt-container {
   font-family: Lucida Grande, sans-serif;
   user-select: none;
   -webkit-user-select: none;
   -moz-user-select: none;
   -ms-user-select: none;
}
text {
   text-rendering: optimizeLegibility;
}
#xXxprefixXx4 .plot-title {
   fill: #bbbbbb;
   font-family: Lucida Grande, sans-serif;
   font-size: 16.0px;
   font-weight: normal;
   font-style: normal;   
}
#xXxprefixXx4 .plot-subtitle {
   fill: #bbbbbb;
   font-family: Lucida Grande, sans-serif;
   font-size: 15.0px;
   font-weight: normal;
   font-style: normal;   
}
#xXxprefixXx4 .plot-caption {
   fill: #bbbbbb;
   font-family: Lucida Grande, sans-serif;
   font-size: 13.0px;
   font-weight: normal;
   font-style: normal;   
}
#xXxprefixXx4 .legend-title {
   fill: #bbbbbb;
   font-family: Lucida Grande, sans-serif;
   font-size: 15.0px;
   font-weight: normal;
   font-style: normal;   
}
#xXxprefixXx4 .legend-item {
   fill: #bbbbbb;
   font-family: Lucida Grande, sans-serif;
   font-size: 13.0px;
   font-weight: normal;
   font-style: normal;   
}
#xXxprefixXx4 .axis-title-x {
   fill: #bbbbbb;
   font-family: Lucida Grande, sans-serif;
   font-size: 15.0px;
   font-weight: normal;
   font-style: normal;   
}
#xXxprefixXx4 .axis-text-x {
   fill: #bbbbbb;
   font-family: Lucida Grande, sans-serif;
   font-size: 13.0px;
   font-weight: normal;
   font-style: normal;   
}
#xXxprefixXx6 .axis-tooltip-text-x {
   fill: #303030;
   font-family: Lucida Grande, sans-serif;
   font-size: 13.0px;
   font-weight: normal;
   font-style: normal;   
}
#xXxprefixXx4 .axis-title-y {
   fill: #bbbbbb;
   font-family: Lucida Grande, sans-serif;
   font-size: 15.0px;
   font-weight: normal;
   font-style: normal;   
}
#xXxprefixXx4 .axis-text-y {
   fill: #bbbbbb;
   font-family: Lucida Grande, sans-serif;
   font-size: 13.0px;
   font-weight: normal;
   font-style: normal;   
}
#xXxprefixXx6 .axis-tooltip-text-y {
   fill: #303030;
   font-family: Lucida Grande, sans-serif;
   font-size: 13.0px;
   font-weight: normal;
   font-style: normal;   
}
#xXxprefixXx4 .facet-strip-text-x {
   fill: #bbbbbb;
   font-family: Lucida Grande, sans-serif;
   font-size: 13.0px;
   font-weight: normal;
   font-style: normal;   
}
#xXxprefixXx4 .facet-strip-text-y {
   fill: #bbbbbb;
   font-family: Lucida Grande, sans-serif;
   font-size: 13.0px;
   font-weight: normal;
   font-style: normal;   
}
#xXxprefixXx6 .tooltip-text {
   fill: #bbbbbb;
   font-family: Lucida Grande, sans-serif;
   font-size: 13.0px;
   font-weight: normal;
   font-style: normal;   
}
#xXxprefixXx6 .tooltip-title {
   fill: #bbbbbb;
   font-family: Lucida Grande, sans-serif;
   font-size: 13.0px;
   font-weight: bold;
   font-style: normal;   
}
#xXxprefixXx6 .tooltip-label {
   fill: #bbbbbb;
   font-family: Lucida Grande, sans-serif;
   font-size: 13.0px;
   font-weight: bold;
   font-style: normal;   
}

    </style>
    <g id="xXxprefixXx4">
      <path fill-rule="evenodd" fill="rgb(48,48,48)" fill-opacity="1.0" d="M0.0 0.0 L0.0 235.0 L350.5 235.0 L350.5 0.0 Z">
      </path>
      <g transform="translate(23.0 34.0 ) ">
        <g transform="translate(21.961210910936405 155.0 ) ">
          <line x1="52.36209077431732" y1="-0.0" x2="52.36209077431732" y2="-155.0" stroke="rgb(71,71,71)" stroke-opacity="1.0" stroke-width="1.0">
          </line>
          <line x1="128.9431297718227" y1="-0.0" x2="128.9431297718227" y2="-155.0" stroke="rgb(71,71,71)" stroke-opacity="1.0" stroke-width="1.0">
          </line>
          <line x1="205.52416876932807" y1="-0.0" x2="205.52416876932807" y2="-155.0" stroke="rgb(71,71,71)" stroke-opacity="1.0" stroke-width="1.0">
          </line>
          <line x1="282.1052077668335" y1="-0.0" x2="282.1052077668335" y2="-155.0" stroke="rgb(71,71,71)" stroke-opacity="1.0" stroke-width="1.0">
          </line>
          <g transform="translate(52.36209077431732 0.0 ) ">
            <line stroke-width="1.0" stroke="rgb(187,187,187)" stroke-opacity="1.0" x2="0.0" y2="4.0">
            </line>
            <g transform="translate(0.0 7.0 ) ">
              <text class="axis-text-x" text-anchor="middle" dy="0.7em">
              -1
              </text>
            </g>
          </g>
          <g transform="translate(128.9431297718227 0.0 ) ">
            <line stroke-width="1.0" stroke="rgb(187,187,187)" stroke-opacity="1.0" x2="0.0" y2="4.0">
            </line>
            <g transform="translate(0.0 7.0 ) ">
              <text class="axis-text-x" text-anchor="middle" dy="0.7em">
              0
              </text>
            </g>
          </g>
          <g transform="translate(205.52416876932807 0.0 ) ">
            <line stroke-width="1.0" stroke="rgb(187,187,187)" stroke-opacity="1.0" x2="0.0" y2="4.0">
            </line>
            <g transform="translate(0.0 7.0 ) ">
              <text class="axis-text-x" text-anchor="middle" dy="0.7em">
              1
              </text>
            </g>
          </g>
          <g transform="translate(282.1052077668335 0.0 ) ">
            <line stroke-width="1.0" stroke="rgb(187,187,187)" stroke-opacity="1.0" x2="0.0" y2="4.0">
            </line>
            <g transform="translate(0.0 7.0 ) ">
              <text class="axis-text-x" text-anchor="middle" dy="0.7em">
              2
              </text>
            </g>
          </g>
          <line x1="0.0" y1="0.0" x2="295.5387890890636" y2="0.0" stroke-width="1.0" stroke="rgb(187,187,187)" stroke-opacity="1.0">
          </line>
        </g>
        <g transform="translate(21.961210910936405 0.0 ) ">
          <line x1="0.0" y1="112.61386776121691" x2="295.5387890890636" y2="112.61386776121691" stroke="rgb(71,71,71)" stroke-opacity="1.0" stroke-width="1.0">
          </line>
          <line x1="0.0" y1="65.89536691757735" x2="295.5387890890636" y2="65.89536691757735" stroke="rgb(71,71,71)" stroke-opacity="1.0" stroke-width="1.0">
          </line>
          <line x1="0.0" y1="19.176866073937788" x2="295.5387890890636" y2="19.176866073937788" stroke="rgb(71,71,71)" stroke-opacity="1.0" stroke-width="1.0">
          </line>
          <g transform="translate(0.0 112.61386776121691 ) ">
            <g transform="translate(-3.0 0.0 ) ">
              <text class="axis-text-y" text-anchor="end" dy="0.35em">
              -1
              </text>
            </g>
          </g>
          <g transform="translate(0.0 65.89536691757735 ) ">
            <g transform="translate(-3.0 0.0 ) ">
              <text class="axis-text-y" text-anchor="end" dy="0.35em">
              0
              </text>
            </g>
          </g>
          <g transform="translate(0.0 19.176866073937788 ) ">
            <g transform="translate(-3.0 0.0 ) ">
              <text class="axis-text-y" text-anchor="end" dy="0.35em">
              1
              </text>
            </g>
          </g>
        </g>
        <g transform="translate(21.961210910936405 0.0 ) " clip-path="url(#xXxprefixXx5)" clip-bounds-jfx="[rect (0.0, 0.0), (295.5387890890636, 155.0)]">
          <defs>
            <clipPath id="xXxprefixXx5">
              <rect x="0.0" y="0.0" width="295.5387890890636" height="155.0">
              </rect>
            </clipPath>
          </defs>
          <g>
            <path d="M128.9431297718227 65.89536691757735 L128.9431297718227 65.89536691757735 L130.47018702776913 65.77708252385935 L131.92407420823562 65.42599771382524 L133.23356485275386 64.8533275596608 L134.3312763764172 64.07746562348414 L135.4477017688521 62.58935993024935 L135.76241343110019 61.4286840817272 L135.68472927512218 60.17792601289151 L135.1848565029754 58.8800990165241 L134.24474201316772 57.581166689104876 L132.85877438531858 56.32890790984081 L131.03420119854218 55.17172426785993 L129.9632544371554 54.643780331368504 L128.7912498122412 54.15741580771857 L127.5227140573765 53.71830996374874 L126.16294592239223 53.331951814695636 L124.71799408634229 53.003603340170784 L123.19463054132811 52.73826367200959 L121.60031956326179 52.54063445589229 L119.94318240934045 52.415086583455384 L118.23195790507309 52.36562848541317 L116.47595910603197 52.3958761690192 L114.68502624098201 52.50902517505069 L112.86947616356376 52.70782462043081 L111.04004855916403 52.99455348265758 L109.20784917190461 53.37099927142876 L107.38429033371736 53.838439221290955 L105.58102909316625 54.39762412685167 L103.80990325594223 55.048764929133554 L102.08286566171634 55.79152214808175 L100.41191703322576 56.62499824212259 L98.80903774302234 57.54773296108235 L97.28611885118079 58.55770174377767 L95.85489277340054 59.65231719625706 L94.52686394329987 60.82843367107958 L93.31323983526931 62.082354952237104 L92.22486271499858 63.409845034437204 L91.27214248370959 64.80614196954312 L90.46499097921084 66.26597473709091 L89.81275809214523 67.7835830800523 L89.3241700492454 69.35274023146 L89.00727020706393 70.96677844223925 L88.86936268954136 72.61861720566925 L88.91695919095284 74.30079405940674 L89.15572925228525 76.00549783201284 L89.5904543039966 77.7246041875049 L90.22498575146314 79.44971330867513 L91.06220736130288 81.17218954784231 L92.10400218725233 82.88320286239531 L93.35122425345845 84.57377184200492 L94.80367519102037 86.23480812477993 L96.46008600047739 87.85716199097521 L98.31810408879518 89.43166891517097 L100.37428570436464 90.94919685117581 L102.62409386770923 92.40069401829975 L105.06190186912217 93.7772369531302 L107.68100237744281 95.07007858755165 L110.47362217676329 96.27069611150108 L113.4309425201591 97.3708383778654 L116.54312506169173 98.36257260701257 L119.79934330007318 99.23833014971618 L123.18781943964174 99.99095106968022 L126.69586654681018 100.61372731049644 L130.30993585304606 101.10044421665658 L134.0156690288596 101.44542018418477 L137.79795522733656 101.64354422352581 L141.64099267059404 101.6903112254999 L145.52835452827452 101.58185473037909 L149.4430588139553 101.31497701041997 L153.36764200324933 100.88717628745694 L157.28423605652318 100.29667091937509 L161.17464850966684 99.54242040238856 L165.02044527831737 98.62414304999317 L168.80303580446088 97.54233022418035 L172.50376015950096 96.29825700992907 L176.10397770477132 94.89398924006454 L179.5851568991548 93.33238679421527 L182.92896583402 91.61710311274035 L186.117363068153 89.75258088405741 L189.1326883298002 87.74404388169849 L191.95775264937876 85.59748494557793 L194.57592748489623 83.31965012028328 L196.9712324026607 80.91801898161916 L199.12842087847542 78.40078120105389 L201.0330637891994 75.7768094160565 L202.67163017130372 73.05562849247944 L204.0315648318574 70.2473812830544 L205.10136240819526 67.36279100363923 L205.87063748533035 64.41312036599967 L206.33019039491973 61.41012762254491 L206.47206833622545 58.36601969448445 L206.28962147796648 55.293402570250784 L205.77755372015832 52.205229175666176 L204.93196781690767 49.114744931147655 L203.75040458457323 46.0354312241706 L202.2318759446325 42.98094703718539 L200.37689157689493 39.96506898213689 L198.1874789862672 37.0016300026182 L195.66719681498785 34.10445701344329 L192.82114126198027 31.287307755 L189.65594550159565 28.563807146099585 L186.17977202539998 25.947383424138465 L182.4022978626551 23.451204365192176 L178.33469266761892 21.088113879150917 L173.98958969459278 18.87056927615445 L169.38104971462707 16.81057950037814 L164.52451796081462 14.919644625654001 L159.436774221995 13.208696904473953 L154.1358762373192 11.68804365762535 L148.64109657632702 10.36731228605646 L142.97285322081876 9.255397679581087 L137.1526340957114 8.360412288725861 L131.20291582611205 7.689639116433014 L125.14707702686917 7.24948787548427 L119.00930645874328 7.045454545454554 L112.81450641193132 7.082084549776901 L106.58819170285423 7.362939759158905 L100.35638469375708 7.890569512189366 L94.14550676663836 8.666485827576118 L87.98226670323787 9.691142965126865 L81.89354644112923 10.963921474398546 L75.90628469232138 12.483116850970092 L70.04735892506312 14.245932900620467 L64.34346622168658 16.248479891403278 L58.82100353526769 18.485777552781975 L53.50594787553375 20.95176295972646 L48.42373695978556 23.63930331805267 L43.59915086756813 26.54021364541569 L39.05619523838587 29.64527932033844 L34.817986549914195 32.944283449563706 L30.906640009870003 36.42603898196833 L27.343160588003883 40.078425475358166 L24.147337705545283 43.8884304007876 L21.33764408791913 47.84219484770091 L18.931139272675964 51.925063472282204 L16.943378248383056 56.12163851102441 L15.388325681778312 60.415837661767675 L14.278276169839373 64.79095561542685 L13.623780930660132 69.2297290033964 L13.433581322230182 73.71440450828896 L13.714549551479834 78.22680986931599 L14.471636907388117 82.74842749831993 L15.707829821666834 87.26047040831784 L17.424114028652326 91.74396014346254 L19.61944706268646 96.17980638765212 L22.290739296591326 100.54888791868203 L25.43284368897379 104.83213456587748 L29.038554371197762 109.01060982164137 L33.09861416707825 113.06559375132372 L37.60173109984996 116.978665841317 L42.534603901911055 120.73178742233598 L47.881956503395784 124.30738330346398 L53.62658143598074 127.68842225277822 L59.7493920486251 130.85849596219194 L66.22948339239059 133.80189613759714 L73.04420159222312 136.50368936043412 L80.16922148482215 138.9497893734641 L87.57863226359612 141.12702645173653 L95.2450308344406 143.0232135295263 L103.13962254978142 144.6272087653103 L111.23232895322853 145.92897423963865 L119.49190213339206 146.91963049497537 L127.88604525313535 147.59150664219442 L136.38153878987333 147.93818577535018 L144.94437199367596 147.95454545454547 L153.53987904298464 147.6367930361107 L162.13287935288304 146.98249564982035 L170.6878214681572 145.99060464441735 L179.1689299529862 144.6614743452113 L187.5403546710998 142.99687499086784 L195.7663218347517 140.99999974061802 L203.81128618792695 138.67546566789366 L211.64008367896292 136.02930868172365 L219.2180839702129 133.06897234301607 L226.51134212763907 129.80329056897187 L233.4867488312644 126.24246424524182 L240.1121784483256 122.39803179191043 L246.35663431472324 118.28283375587557 L252.19039057699501 113.91097152856186 L257.5851299565162 109.29776031405268 L262.51407680995345 104.45967649852517 L266.9521248751081 99.41429959722652 L270.87595910916855 94.1802489800021 L274.26417104695275 88.7771156004928 L277.09736712992947 83.22538897742007 L279.3582694825452 77.54637969880102 L281.0318086405848 71.76213774134082 L282.1052077668335 65.89536691757739 " fill="none" stroke-width="1.6500000000000001" stroke="rgb(187,187,187)" stroke-opacity="1.0">
            </path>
          </g>
        </g>
      </g>
      <g transform="translate(44.9612109109364 15.2 ) ">
        <text class="plot-title" y="0.0">
        `path` layer
        </text>
      </g>
      <g transform="translate(14.5 111.5 ) rotate(-90.0 ) ">
        <text class="axis-title-y" y="0.0" text-anchor="middle">
        y
        </text>
      </g>
      <g transform="translate(192.7306054554682 226.5 ) ">
        <text class="axis-title-x" y="0.0" text-anchor="middle">
        x
        </text>
      </g>
      <path fill="rgb(0,0,0)" fill-opacity="0.0" stroke="rgb(187,187,187)" stroke-opacity="1.0" stroke-width="0.0" d="M0.0 0.0 L0.0 235.0 L350.5 235.0 L350.5 0.0 Z">
      </path>
    </g>
    <g id="xXxprefixXx6">
    </g>
  </svg>
</svg>