<svg xmlns="http://www.w3.org/2000/svg" xmlns:xlink="http://www.w3.org/1999/xlink" class="plt-container" width="705.0" height="470.0">
  <style type="text/css">
  .plt-container {
   font-family: Lucida Grande, sans-serif;
   user-select: none;
   -webkit-user-select: none;
   -moz-user-select: none;
   -ms-user-select: none;
}
text {
   text-rendering: optimizeLegibility;
}
#xXxprefixXx0 .plot-title {
   fill: #bbbbbb;
   font-family: Lucida Grande, sans-serif;
   font-size: 16.0px;
   font-weight: normal;
   font-style: normal;   
}
#xXxprefixXx0 .plot-subtitle {
   fill: #bbbbbb;
   font-family: Lucida Grande, sans-serif;
   font-size: 15.0px;
   font-weight: normal;
   font-style: normal;   
}
#xXxprefixXx0 .plot-caption {
   fill: #bbbbbb;
   font-family: Lucida Grande, sans-serif;
   font-size: 13.0px;
   font-weight: normal;
   font-style: normal;   
}
#xXxprefixXx0 .legend-title {
   fill: #bbbbbb;
   font-family: Lucida Grande, sans-serif;
   font-size: 15.0px;
   font-weight: normal;
   font-style: normal;   
}
#xXxprefixXx0 .legend-item {
   fill: #bbbbbb;
   font-family: Lucida Grande, sans-serif;
   font-size: 13.0px;
   font-weight: normal;
   font-style: normal;   
}
#xXxprefixXx0 .axis-title-x {
   fill: #bbbbbb;
   font-family: Lucida Grande, sans-serif;
   font-size: 15.0px;
   font-weight: normal;
   font-style: normal;   
}
#xXxprefixXx0 .axis-text-x {
   fill: #bbbbbb;
   font-family: Lucida Grande, sans-serif;
   font-size: 13.0px;
   font-weight: normal;
   font-style: normal;   
}
#xXxprefixXx3 .axis-tooltip-text-x {
   fill: #303030;
   font-family: Lucida Grande, sans-serif;
   font-size: 13.0px;
   font-weight: normal;
   font-style: normal;   
}
#xXxprefixXx0 .axis-title-y {
   fill: #bbbbbb;
   font-family: Lucida Grande, sans-serif;
   font-size: 15.0px;
   font-weight: normal;
   font-style: normal;   
}
#xXxprefixXx0 .axis-text-y {
   fill: #bbbbbb;
   font-family: Lucida Grande, sans-serif;
   font-size: 13.0px;
   font-weight: normal;
   font-style: normal;   
}
#xXxprefixXx3 .axis-tooltip-text-y {
   fill: #303030;
   font-family: Lucida Grande, sans-serif;
   font-size: 13.0px;
   font-weight: normal;
   font-style: normal;   
}
#xXxprefixXx0 .facet-strip-text-x {
   fill: #bbbbbb;
   font-family: Lucida Grande, sans-serif;
   font-size: 13.0px;
   font-weight: normal;
   font-style: normal;   
}
#xXxprefixXx0 .facet-strip-text-y {
   fill: #bbbbbb;
   font-family: Lucida Grande, sans-serif;
   font-size: 13.0px;
   font-weight: normal;
   font-style: normal;   
}
#xXxprefixXx3 .tooltip-text {
   fill: #bbbbbb;
   font-family: Lucida Grande, sans-serif;
   font-size: 13.0px;
   font-weight: normal;
   font-style: normal;   
}
#xXxprefixXx3 .tooltip-title {
   fill: #bbbbbb;
   font-family: Lucida Grande, sans-serif;
   font-size: 13.0px;
   font-weight: bold;
   font-style: normal;   
}
#xXxprefixXx3 .tooltip-label {
   fill: #bbbbbb;
   font-family: Lucida Grande, sans-serif;
   font-size: 13.0px;
   font-weight: bold;
   font-style: normal;   
}

  </style>
  <g id="xXxprefixXx0">
    <path fill-rule="evenodd" fill="rgb(25,25,28)" fill-opacity="1.0" d="M0.0 0.0 L0.0 470.0 L705.0 470.0 L705.0 0.0 Z">
    </path>
    <g transform="translate(23.0 10.0 ) ">
      <g transform="translate(35.01530667574961 414.0 ) ">
        <line x1="28.95384969655686" y1="-0.0" x2="28.95384969655686" y2="-414.0" stroke="rgb(71,71,71)" stroke-opacity="1.0" stroke-width="1.0">
        </line>
        <line x1="101.33847393794895" y1="-0.0" x2="101.33847393794895" y2="-414.0" stroke="rgb(71,71,71)" stroke-opacity="1.0" stroke-width="1.0">
        </line>
        <line x1="173.72309817934104" y1="-0.0" x2="173.72309817934104" y2="-414.0" stroke="rgb(71,71,71)" stroke-opacity="1.0" stroke-width="1.0">
        </line>
        <line x1="246.10772242073313" y1="-0.0" x2="246.10772242073313" y2="-414.0" stroke="rgb(71,71,71)" stroke-opacity="1.0" stroke-width="1.0">
        </line>
        <line x1="318.4923466621252" y1="-0.0" x2="318.4923466621252" y2="-414.0" stroke="rgb(71,71,71)" stroke-opacity="1.0" stroke-width="1.0">
        </line>
        <line x1="390.8769709035173" y1="-0.0" x2="390.8769709035173" y2="-414.0" stroke="rgb(71,71,71)" stroke-opacity="1.0" stroke-width="1.0">
        </line>
        <line x1="463.2615951449094" y1="-0.0" x2="463.2615951449094" y2="-414.0" stroke="rgb(71,71,71)" stroke-opacity="1.0" stroke-width="1.0">
        </line>
        <line x1="535.6462193863015" y1="-0.0" x2="535.6462193863015" y2="-414.0" stroke="rgb(71,71,71)" stroke-opacity="1.0" stroke-width="1.0">
        </line>
        <line x1="608.0308436276936" y1="-0.0" x2="608.0308436276936" y2="-414.0" stroke="rgb(71,71,71)" stroke-opacity="1.0" stroke-width="1.0">
        </line>
        <g transform="translate(28.95384969655686 0.0 ) ">
          <line stroke-width="1.0" stroke="rgb(187,187,187)" stroke-opacity="1.0" x2="0.0" y2="4.0">
          </line>
          <g transform="translate(0.0 7.0 ) ">
            <text class="axis-text-x" text-anchor="middle" dy="0.7em">
            -4
            </text>
          </g>
        </g>
        <g transform="translate(101.33847393794895 0.0 ) ">
          <line stroke-width="1.0" stroke="rgb(187,187,187)" stroke-opacity="1.0" x2="0.0" y2="4.0">
          </line>
          <g transform="translate(0.0 7.0 ) ">
            <text class="axis-text-x" text-anchor="middle" dy="0.7em">
            -3
            </text>
          </g>
        </g>
        <g transform="translate(173.72309817934104 0.0 ) ">
          <line stroke-width="1.0" stroke="rgb(187,187,187)" stroke-opacity="1.0" x2="0.0" y2="4.0">
          </line>
          <g transform="translate(0.0 7.0 ) ">
            <text class="axis-text-x" text-anchor="middle" dy="0.7em">
            -2
            </text>
          </g>
        </g>
        <g transform="translate(246.10772242073313 0.0 ) ">
          <line stroke-width="1.0" stroke="rgb(187,187,187)" stroke-opacity="1.0" x2="0.0" y2="4.0">
          </line>
          <g transform="translate(0.0 7.0 ) ">
            <text class="axis-text-x" text-anchor="middle" dy="0.7em">
            -1
            </text>
          </g>
        </g>
        <g transform="translate(318.4923466621252 0.0 ) ">
          <line stroke-width="1.0" stroke="rgb(187,187,187)" stroke-opacity="1.0" x2="0.0" y2="4.0">
          </line>
          <g transform="translate(0.0 7.0 ) ">
            <text class="axis-text-x" text-anchor="middle" dy="0.7em">
            0
            </text>
          </g>
        </g>
        <g transform="translate(390.8769709035173 0.0 ) ">
          <line stroke-width="1.0" stroke="rgb(187,187,187)" stroke-opacity="1.0" x2="0.0" y2="4.0">
          </line>
          <g transform="translate(0.0 7.0 ) ">
            <text class="axis-text-x" text-anchor="middle" dy="0.7em">
            1
            </text>
          </g>
        </g>
        <g transform="translate(463.2615951449094 0.0 ) ">
          <line stroke-width="1.0" stroke="rgb(187,187,187)" stroke-opacity="1.0" x2="0.0" y2="4.0">
          </line>
          <g transform="translate(0.0 7.0 ) ">
            <text class="axis-text-x" text-anchor="middle" dy="0.7em">
            2
            </text>
          </g>
        </g>
        <g transform="translate(535.6462193863015 0.0 ) ">
          <line stroke-width="1.0" stroke="rgb(187,187,187)" stroke-opacity="1.0" x2="0.0" y2="4.0">
          </line>
          <g transform="translate(0.0 7.0 ) ">
            <text class="axis-text-x" text-anchor="middle" dy="0.7em">
            3
            </text>
          </g>
        </g>
        <g transform="translate(608.0308436276936 0.0 ) ">
          <line stroke-width="1.0" stroke="rgb(187,187,187)" stroke-opacity="1.0" x2="0.0" y2="4.0">
          </line>
          <g transform="translate(0.0 7.0 ) ">
            <text class="axis-text-x" text-anchor="middle" dy="0.7em">
            4
            </text>
          </g>
        </g>
        <line x1="0.0" y1="0.0" x2="636.9846933242504" y2="0.0" stroke-width="1.0" stroke="rgb(187,187,187)" stroke-opacity="1.0">
        </line>
      </g>
      <g transform="translate(35.01530667574961 0.0 ) ">
        <line x1="0.0" y1="395.18181818181813" x2="636.9846933242504" y2="395.18181818181813" stroke="rgb(71,71,71)" stroke-opacity="1.0" stroke-width="1.0">
        </line>
        <line x1="0.0" y1="357.5454545454545" x2="636.9846933242504" y2="357.5454545454545" stroke="rgb(71,71,71)" stroke-opacity="1.0" stroke-width="1.0">
        </line>
        <line x1="0.0" y1="319.9090909090909" x2="636.9846933242504" y2="319.9090909090909" stroke="rgb(71,71,71)" stroke-opacity="1.0" stroke-width="1.0">
        </line>
        <line x1="0.0" y1="282.27272727272725" x2="636.9846933242504" y2="282.27272727272725" stroke="rgb(71,71,71)" stroke-opacity="1.0" stroke-width="1.0">
        </line>
        <line x1="0.0" y1="244.63636363636365" x2="636.9846933242504" y2="244.63636363636365" stroke="rgb(71,71,71)" stroke-opacity="1.0" stroke-width="1.0">
        </line>
        <line x1="0.0" y1="207.0" x2="636.9846933242504" y2="207.0" stroke="rgb(71,71,71)" stroke-opacity="1.0" stroke-width="1.0">
        </line>
        <line x1="0.0" y1="169.36363636363637" x2="636.9846933242504" y2="169.36363636363637" stroke="rgb(71,71,71)" stroke-opacity="1.0" stroke-width="1.0">
        </line>
        <line x1="0.0" y1="131.72727272727275" x2="636.9846933242504" y2="131.72727272727275" stroke="rgb(71,71,71)" stroke-opacity="1.0" stroke-width="1.0">
        </line>
        <line x1="0.0" y1="94.09090909090911" x2="636.9846933242504" y2="94.09090909090911" stroke="rgb(71,71,71)" stroke-opacity="1.0" stroke-width="1.0">
        </line>
        <line x1="0.0" y1="56.45454545454547" x2="636.9846933242504" y2="56.45454545454547" stroke="rgb(71,71,71)" stroke-opacity="1.0" stroke-width="1.0">
        </line>
        <line x1="0.0" y1="18.81818181818184" x2="636.9846933242504" y2="18.81818181818184" stroke="rgb(71,71,71)" stroke-opacity="1.0" stroke-width="1.0">
        </line>
        <g transform="translate(0.0 395.18181818181813 ) ">
          <g transform="translate(-3.0 0.0 ) ">
            <text class="axis-text-y" text-anchor="end" dy="0.35em">
            -1.0
            </text>
          </g>
        </g>
        <g transform="translate(0.0 357.5454545454545 ) ">
          <g transform="translate(-3.0 0.0 ) ">
            <text class="axis-text-y" text-anchor="end" dy="0.35em">
            -0.8
            </text>
          </g>
        </g>
        <g transform="translate(0.0 319.9090909090909 ) ">
          <g transform="translate(-3.0 0.0 ) ">
            <text class="axis-text-y" text-anchor="end" dy="0.35em">
            -0.6
            </text>
          </g>
        </g>
        <g transform="translate(0.0 282.27272727272725 ) ">
          <g transform="translate(-3.0 0.0 ) ">
            <text class="axis-text-y" text-anchor="end" dy="0.35em">
            -0.4
            </text>
          </g>
        </g>
        <g transform="translate(0.0 244.63636363636365 ) ">
          <g transform="translate(-3.0 0.0 ) ">
            <text class="axis-text-y" text-anchor="end" dy="0.35em">
            -0.2
            </text>
          </g>
        </g>
        <g transform="translate(0.0 207.0 ) ">
          <g transform="translate(-3.0 0.0 ) ">
            <text class="axis-text-y" text-anchor="end" dy="0.35em">
            0.0
            </text>
          </g>
        </g>
        <g transform="translate(0.0 169.36363636363637 ) ">
          <g transform="translate(-3.0 0.0 ) ">
            <text class="axis-text-y" text-anchor="end" dy="0.35em">
            0.2
            </text>
          </g>
        </g>
        <g transform="translate(0.0 131.72727272727275 ) ">
          <g transform="translate(-3.0 0.0 ) ">
            <text class="axis-text-y" text-anchor="end" dy="0.35em">
            0.4
            </text>
          </g>
        </g>
        <g transform="translate(0.0 94.09090909090911 ) ">
          <g transform="translate(-3.0 0.0 ) ">
            <text class="axis-text-y" text-anchor="end" dy="0.35em">
            0.6
            </text>
          </g>
        </g>
        <g transform="translate(0.0 56.45454545454547 ) ">
          <g transform="translate(-3.0 0.0 ) ">
            <text class="axis-text-y" text-anchor="end" dy="0.35em">
            0.8
            </text>
          </g>
        </g>
        <g transform="translate(0.0 18.81818181818184 ) ">
          <g transform="translate(-3.0 0.0 ) ">
            <text class="axis-text-y" text-anchor="end" dy="0.35em">
            1.0
            </text>
          </g>
        </g>
      </g>
      <g transform="translate(35.01530667574961 0.0 ) " clip-path="url(#xXxprefixXx1)" clip-bounds-jfx="[rect (0.0, 0.0), (636.9846933242504, 414.0)]">
        <defs>
          <clipPath id="xXxprefixXx1">
            <rect x="0.0" y="0.0" width="636.9846933242504" height="414.0">
            </rect>
          </clipPath>
        </defs>
        <line x1="0.0" y1="207.0" x2="636.9846933242504" y2="207.0" stroke="rgb(238,102,102)" stroke-opacity="1.0" fill="rgb(17,142,216)" fill-opacity="1.0" stroke-width="1.6500000000000001" stroke-dasharray="7.095000000000001,7.095000000000001">
        </line>
      </g>
      <g transform="translate(35.01530667574961 0.0 ) " clip-path="url(#xXxprefixXx2)" clip-bounds-jfx="[rect (0.0, 0.0), (636.9846933242504, 414.0)]">
        <defs>
          <clipPath id="xXxprefixXx2">
            <rect x="0.0" y="0.0" width="636.9846933242504" height="414.0">
            </rect>
          </clipPath>
        </defs>
        <g>
          <path d="M28.95384969655686 148.58948917280543 L28.95384969655686 148.58948917280543 L29.388160479384908 149.92910505424845 L29.822471262212957 151.32003647089005 L30.256764787201803 152.7604270902547 L30.691075570029852 154.24857200275767 L30.980627597141392 155.26644789088857 L31.270162366413672 156.3041321364316 L31.55969713568595 157.36106391386554 L31.849231904958287 158.43685625358063 L32.13876667423057 159.53085298971698 L32.42831870134211 160.64246525547722 L32.717853470614386 161.77111820470202 L33.007388239886666 162.91621455821124 L33.296923009158945 164.07714862444186 L33.586457778431225 165.2532165673646 L33.87600980554282 166.4440959123048 L34.1655445748151 167.64877717332408 L34.45507934408738 168.86692946336487 L34.74461411335966 170.0978237092495 L35.0341661404712 171.34092432260513 L35.32370090974348 172.59528631242839 L35.61323567901576 173.86057318340647 L35.902770448288095 175.1360334293409 L36.192305217560374 176.42090993577784 L36.481857244671914 177.71486059914935 L36.771392013944194 179.01692079955882 L37.06092678321647 180.3265297114849 L37.35046155248875 181.64292741634628 L37.63999632176109 182.9656540372155 L37.92954834887263 184.29394825344735 L38.21908311814491 185.62714408473536 L38.50861788741719 186.96457414870912 L38.79815265668947 188.30557526918975 L39.08770468380101 189.6494856720621 L39.37723945307329 190.99563937701961 L39.66677422234562 192.3433718058196 L39.9563089916179 193.69192163781688 L40.24584376089018 195.04083881053057 L40.53539578800172 196.38946785913274 L40.824930557274 197.73694160716101 L41.11446532654628 199.0826094970107 L41.40400009581862 200.42603618787095 L41.69355212293016 201.76647087457505 L41.98308689220244 203.10327316448092 L42.272621661474716 204.43580809794366 L42.562156430746995 205.76344430810687 L42.851691200019275 207.08555583372734 L43.141243227130815 208.40152190557936 L43.43077799640315 209.710727724162 L43.72031276567543 211.01246089318937 L44.00984753494771 212.30632708221674 L44.29938230421999 213.59162560985848 L44.58893433133153 214.8678703104908 L44.87846910060381 216.1341736777262 L45.168003869876145 217.3902686184103 L45.457538639148424 218.6354856470769 L45.747090666259965 219.8692660413005 L46.036625435532244 221.09106650135735 L46.32616020480452 222.30034232545984 L46.6156949740768 223.49656213142654 L46.90522974334908 224.67910760912028 L47.19478177046068 225.8477572324601 L47.48431653973296 227.00162209299478 L47.77385130900524 228.14050169560042 L48.06338607827752 229.26381558586252 L48.3529208475498 230.37109407240695 L48.64247287466134 231.46186325766823 L48.932007643933616 232.535698316314 L49.22154241320595 233.5921477837996 L49.51107718247823 234.63069009239024 L49.80062920958977 235.65118503570557 L50.09016397886205 236.65297083963048 L50.5244747616901 238.11981559883463 L50.958768286678946 239.54261312159625 L51.393079069506996 240.92022773623466 L51.827389852335045 242.25135271928525 L52.261700635163095 243.5350066260858 L52.696011417991144 244.77027531103653 L53.13032220081925 245.9561240510507 L53.56461572580804 247.09152933955193 L53.99892650863609 248.17600886659187 L54.43323729146414 249.20858679576352 L55.012306830008754 250.50370117209172 L55.59139362639257 251.70414259217 L56.17046316493713 252.80883146686986 L56.74954996132101 253.8168087845499 L57.47339551342134 254.9397581382231 L58.341999821238176 256.08534521406347 L59.3553974004501 257.14309018850327 L60.36877772182271 257.9018590775403 L61.382158043195375 258.3650673085993 L62.39553836456804 258.5381212397055 L63.40893594377991 258.4283564686775 L64.42231626515255 258.04497053406453 L65.43569658652518 257.39889392527664 L66.44907690789782 256.50276764956385 L67.46247448710972 255.3707189018076 L68.33107879492658 254.22439153627914 L69.05492434702694 253.15300728516144 L69.7787698991273 251.98292054642332 L70.35785669551112 250.98026265881276 L70.9369262340557 249.92229615829206 L71.51601303043955 248.81255985390055 L72.09508256898411 247.65485894680023 L72.67416936536796 246.45286684415555 L73.25323890391255 245.21050932461566 L73.8323084424571 243.9316056099805 L74.41139523884095 242.6200450252403 L74.845706021669 241.6173534880985 L75.28001680449708 240.60018143599683 L75.71431032948587 239.57026181979612 L76.14862111231395 238.5291705592112 L76.582931895142 237.47862378033724 L77.01724267797005 236.42027591846207 L77.45155346079812 235.35577860474586 L77.88586424362617 234.28678066622126 L78.32015776861499 233.21495616706935 L78.75446855144304 232.14183335683563 L79.18877933427112 231.06905265016988 L79.62309011709917 229.9981913688508 L80.05740089992725 228.93080720576373 L80.49169442491603 227.86847467855972 L80.92600520774411 226.8126112737439 L81.36031599057216 225.7647354264151 L81.79462677340021 224.7262926643545 L82.22893755622829 223.69869766993955 L82.66324833905634 222.68332446569747 L83.09754186404516 221.68154987828296 L83.67662866042897 220.36911861192095 L84.25569819897356 219.0861026441509 L84.83478499535741 217.83526123653758 L85.41385453390197 216.61934593929485 L85.99294133028582 215.4408222816207 L86.57201086883038 214.3021326586604 L87.15108040737496 213.20545447550037 L87.73016720375881 212.15279653905466 L88.30923674230337 211.1460866870528 L89.03308229440373 209.95481160960415 L89.75692784650408 208.84079830958083 L90.48077339860444 207.80647901716557 L91.34939496426057 206.6732151401441 L92.21801652991667 205.66000450978225 L93.2313968512893 204.6316036791964 L94.24477717266197 203.76923173903063 L95.2581574940346 203.07166608964855 L96.2715550732465 202.53582885048607 L97.28493539461914 202.15685100447047 L98.29831571599178 201.92805942893028 L99.31169603736441 201.8410788957368 L100.32509361657631 201.8858934115957 L101.33847393794895 202.050923331556 L102.35185425932158 202.32313366843894 L103.36525183853348 202.68815221671355 L104.37863215990612 203.13035507838833 L105.39201248127875 203.63304752924225 L106.40539280265139 204.1785746066069 L107.41879038186329 204.74849075908688 L108.43217070323593 205.32367096011612 L109.44555102460859 205.8845395948738 L110.45893134598123 206.4111951563338 L111.47232892519312 206.8835979246492 L112.48570924656576 207.2817151902921 L113.4990895679384 207.58573879301548 L114.51246988931103 207.7762293153527 L115.52586746852293 207.83429377229714 L116.53924778989557 207.7417580870573 L117.5526281112682 207.48133082582024 L118.56600843264084 207.0367593361774 L119.57940601185274 206.3929675382308 L120.59278633322538 205.53626063686204 L121.60616665459801 204.45437492785805 L122.47478822025414 203.33968460627577 L123.1986337723545 202.2742587758059 L123.92247932445486 201.08171132545579 L124.50154886299941 200.0345736647194 L125.08063565938326 198.90362483601677 L125.65970519792785 197.68816450847822 L126.23879199431167 196.3875911967321 L126.67308551930049 195.356206423857 L127.10739630212854 194.27669440887192 L127.54170708495661 193.14912104877558 L127.97601786778466 191.97358028184283 L128.4103286506127 190.75023474747485 L128.8446394334408 189.47931718826294 L129.27893295842958 188.16117812015793 L129.71324374125766 186.79613020338795 L130.1475545240857 185.3846052736044 L130.58186530691378 183.92720341411504 L131.01617608974183 182.4244405843995 L131.3057108590141 181.39779058098793 L131.59524562828642 180.35150327194822 L131.8847803975587 179.28579177097842 L132.17433242467024 178.2008607793938 L132.46386719394255 177.0970972668041 L132.75340196321483 175.97467789324847 L133.0429367324871 174.83390830863607 L133.33247150175941 173.6751025752588 L133.62202352887095 172.49846259030429 L133.91155829814323 171.30447346784854 L134.20109306741554 170.0934184247797 L134.49062783668782 168.86562834815547 L134.7801626059601 167.62144534154373 L135.06971463307164 166.3612059002573 L135.35924940234395 165.0854484167966 L135.64878417161623 163.79446452043274 L135.9383189408885 162.4886916550723 L136.22787096800008 161.16850557381457 L136.51740573727236 159.83442784439433 L136.80694050654463 158.4868818900802 L137.09647527581694 157.12633600018242 L137.38601004508922 155.75324444337326 L137.67556207220076 154.36797175624156 L137.96509684147304 152.97124701196498 L138.25463161074535 151.56346278840846 L138.54416638001763 150.1450957872651 L138.8337011492899 148.71670122580096 L139.12325317640148 147.27878384698522 L139.41278794567376 145.83194373412567 L139.70232271494604 144.37673049623317 L139.99185748421834 142.91370495882902 L140.28140951132988 141.44331017407507 L140.57094428060216 139.96631447293544 L140.86047904987444 138.48326746442103 L141.15001381914675 136.99470754103228 L141.43954858841903 135.5012460025874 L141.72910061553057 134.00342124158686 L142.01863538480288 132.50202402201566 L142.30817015407516 130.99757591160864 L142.59770492334744 129.49071625146001 L142.88723969261974 127.98210681568493 L143.17679171973128 126.47228038852866 L143.46632648900356 124.96204455874184 L143.75586125827587 123.45199940963226 L144.04539602754815 121.94279549880463 L144.3349480546597 120.43494878573853 L144.62448282393197 118.92939024079931 L144.91401759320428 117.4266526482322 L145.20355236247656 115.92739778215235 L145.49308713174884 114.43232106620616 L145.7826391588604 112.94203940846704 L146.07217392813268 111.45733796466482 L146.36170869740496 109.97886729240419 L146.65124346667727 108.50730599056592 L146.9407954937888 107.04322610118173 L147.2303302630611 105.58750251206486 L147.51986503233337 104.14075213128872 L147.80939980160568 102.70363673296843 L148.09893457087796 101.27681809121914 L148.3884865979895 99.86094676364553 L148.6780213672618 98.45684155550872 L148.96755613653409 97.06509694186126 L149.25709090580636 95.68641956285998 L149.54662567507867 94.32145997610961 L149.8361777021902 92.97083508968355 L150.1257124714625 91.63534127582204 L150.4152472407348 90.31560665910895 L150.70478201000708 89.01227058063856 L150.99433403711862 87.72591629895298 L151.2838688063909 86.45736261931334 L151.5734035756632 85.20718158375135 L151.8629383449355 83.97599010034043 L152.15247311420777 82.7644499431957 L152.44202514131933 81.57315558736975 L152.7315599105916 80.402802456509 L153.0210946798639 79.25399624217641 L153.3106294491362 78.12733141942459 L153.60016421840848 77.02341367981651 L153.88971624552002 75.94274776632136 L154.1792510147923 74.88610761815852 L154.4687857840646 73.8539643287659 L154.7583205533369 72.84688994017515 L155.19263133616496 71.38452617688614 L155.62694211899301 69.98169965093788 L156.06125290182106 68.64022743701938 L156.49556368464914 67.36187052726748 L156.92985720963793 66.1483562642878 L157.364167992466 65.00121009349826 L157.79847877529406 63.922092058441876 L158.23278955812214 62.9124827384949 L158.8118590966667 61.67701776461169 L159.39094589305054 60.570924021981 L160.1147914451509 59.37490751526573 L160.98339575296777 58.22047061269936 L161.99679333217966 57.27090327306229 L163.0101736535523 56.7596883773804 L164.02355397492494 56.695361690087765 L165.03695155413683 57.0840137763457 L166.05033187550947 57.929189053448795 L166.91893618332634 59.01776260679421 L167.6427817354267 60.181127851659625 L168.22186853181051 61.278618530793636 L168.8009380703551 62.52324739369482 L169.23524885318315 63.55268750407481 L169.66955963601123 64.66354826363653 L170.10387041883928 65.85523519732737 L170.53818120166736 67.12677246874031 L170.97247472665615 68.4774197881872 L171.40678550948422 69.90614523670891 L171.84109629231227 71.41190567883581 L172.13063106158455 72.45797987417743 L172.42018308869612 73.53737832199445 L172.7097178579684 74.64977574348453 L172.99925262724068 75.79476834427228 L173.288787396513 76.97187381440943 L173.57832216578527 78.18074444207281 L173.86786556397718 79.42104373194957 L174.1574089621691 80.69212112643504 L174.4469437314414 81.99355039813304 L174.7364871296333 83.3249614021995 L175.02602189890558 84.68566993149845 L175.3155566681779 86.07531705769627 L175.6051000663698 87.4933195222508 L175.89463483564208 88.93911649964073 L176.18417823383402 90.41218081387608 L176.4737130031063 91.91186190735212 L176.7632564012982 93.43774476918308 L177.0527911705705 94.9890105941079 L177.3423259398428 96.56516585566783 L177.6318693380347 98.16569459438325 L177.92140410730698 99.78974435546182 L178.21094750549892 101.43683282895523 L178.5004822747712 103.10623094168578 L178.7900256729631 104.79731056906961 L179.07956044223542 106.50933142141864 L179.3690952115077 108.241586858576 L179.6586386096996 109.99354970455171 L179.94817337897192 111.76425533944911 L180.23771677716383 113.55318219553342 L180.5272515464361 115.35952268405396 L180.81679494462801 117.18254773183304 L181.10632971390032 119.02143292535436 L181.3958644831726 120.87556135654451 L181.6854078813645 122.74411982839759 L181.97494265063682 124.62630636041816 L182.26448604882873 126.5213806629181 L182.554020818101 128.42851832238114 L182.84356421629295 130.34696222435343 L183.13309898556523 132.27583187276667 L183.4226337548375 134.21446549350566 L183.71217715302942 136.16198819875717 L184.00171192230172 138.1175138841976 L184.29125532049363 140.08045929128474 L184.5807900897659 142.0496859442104 L184.87033348795785 144.02461619268766 L185.15986825723013 146.00433589111677 L185.4494030265024 147.9880150177262 L185.73894642469435 149.97484037551013 L186.02848119396663 151.9638922106136 L186.31802459215854 153.95455361496317 L186.60755936143084 155.94571415402675 L186.89710275962275 157.93674009496516 L187.18663752889503 159.9267285086892 L187.47618092708694 161.9148409610445 L187.76571569635925 163.90018013119698 L188.05525046563153 165.88204498724505 L188.34479386382344 167.85954662073743 L188.63432863309575 169.83184379339218 L188.92387203128766 171.79811769994822 L189.21340680055994 173.75753271037883 L189.50295019875188 175.7092784318057 L189.79248496802416 177.65245473926717 L190.08201973729643 179.58639985864812 L190.37156313548834 181.5102304897525 L190.66109790476065 183.4230745488947 L190.95064130295256 185.32434036514977 L191.24017607222487 187.21295115351677 L191.52971947041675 189.08833907815543 L191.81925423968906 190.94964467395437 L192.10878900896137 192.79609680582178 L192.39833240715325 194.6269341531125 L192.68786717642556 196.44131898270413 L192.97741057461747 198.2387171082876 L193.26694534388974 200.01810292019087 L193.55648874208168 201.7789548506791 L193.84602351135396 203.5204761769961 L194.13555828062624 205.24188489805567 L194.42510167881818 206.94261280011744 L194.71463644809046 208.6218961910768 L195.0041798462824 210.27905078164557 L195.29371461555468 211.91340430961415 L195.5832580137466 213.52429289777172 L195.8727927830189 215.11106879264116 L196.16232755229117 216.67302885922518 L196.45187095048308 218.20967256074601 L196.74140571975536 219.72032760761002 L197.03094911794727 221.20438550412655 L197.32048388721958 222.66120690920135 L197.6100272854115 224.09039363671434 L197.89956205468377 225.4911465102976 L198.1891054528757 226.86310099336234 L198.478640222148 228.20566541498357 L198.76817499142027 229.5183196094903 L199.0577183896122 230.80056304010478 L199.34725315888448 232.05185170607132 L199.6367965570764 233.27188276160848 L199.9263313263487 234.45998041196302 L200.2158747245406 235.61585863611916 L200.5054094938129 236.73906036127698 L200.7949442630852 237.8291060816158 L201.08448766127708 238.88570977611974 L201.3740224305494 239.9084620421583 L201.80833321337747 241.3783016096462 L202.24264399620552 242.77000976963475 L202.67694615011396 244.0824957164851 L203.111256932942 245.31488175825638 L203.54555908685046 246.46626776998693 L203.9798698696785 247.53580690513957 L204.55894803714273 248.83350949124855 L205.13802620460692 249.9832102222876 L205.7171043720711 250.9838267050006 L206.4409499241715 252.02374584024602 L207.4543302455441 253.08472116968846 L208.46771919583637 253.68509330261838 L209.48109951720903 253.82755980979312 L210.4944884675013 253.5176336060871 L211.5078687888739 252.76350274411115 L212.52125773916617 251.57600517706436 L213.24510329126656 250.46985815600914 L213.82418145873075 249.43444525382733 L214.40325962619494 248.268685283986 L214.98233779365916 246.976077797738 L215.4166399475676 245.92557027665052 L215.85095073039565 244.80741878531194 L216.2852615132237 243.623300192031 L216.71956366713215 242.37508484992114 L217.1538744499602 241.06453935937446 L217.58817660386865 239.69364623860878 L218.0224873866967 238.26433753154495 L218.45679816952477 236.7786798802289 L218.74633293879708 235.75799706036395 L219.03587633698896 234.71380723877385 L219.32541110626127 233.64682266387072 L219.61494587553355 232.55767706849358 L219.90448927372546 231.44699577309868 L220.19402404299777 230.31552327356556 L220.48356744118968 229.16389330273324 L220.77310221046196 227.99285035648128 L221.0626456086539 226.80303517796776 L221.35218037792617 225.5952385311777 L221.64171514719845 224.37014181911945 L221.9312585453904 223.12842924892902 L222.22079331466267 221.8709126155485 L222.51033671285458 220.59826070341197 L222.7998714821269 219.3112951219082 L223.0894148803188 218.01069236682218 L223.37894964959108 216.69728947024453 L223.668493047783 215.37176853621548 L223.95802781705527 214.03497921539977 L224.24756258632758 212.68765478716657 L224.53710598451948 211.33052958243272 L224.82664075379176 209.9644651694054 L225.1161841519837 208.59016117792237 L225.40571892125598 207.2084857702721 L225.69526231944792 205.82014333016494 L225.9847970887202 204.42600574412128 L226.27433185799248 203.02682107890195 L226.56387525618442 201.62334049018946 L226.8534100254567 200.2164367627014 L227.1429534236486 198.80681934072214 L227.4324881929209 197.39536381309682 L227.7220315911128 195.9827754179185 L228.0115663603851 194.5699290430004 L228.3011011296574 193.15756848319012 L228.5906445278493 191.74644173952666 L228.8801792971216 190.33740967918527 L229.1697226953135 188.9311747361313 L229.4592574645858 187.52859637547624 L229.74880086277773 186.1303644126112 L230.03833563205 184.73732990026474 L230.3278704013223 183.35022050955078 L230.61741379951422 181.9697540971366 L230.9069485687865 180.59676629304886 L231.19649196697844 179.23193008791316 L231.48602673625072 177.8760642869906 L231.77557013444263 176.52982786026868 L232.06510490371494 175.1940340047533 L232.35463967298722 173.86936692758042 L232.64418307117913 172.5564996193756 L232.9337178404514 171.25621723586863 L233.22326123864332 169.9691479016434 L233.51279600791563 168.69605714353648 L233.80233940610754 167.43755626136607 L234.09187417537981 166.19437993656504 L234.38141757357175 164.96713666482407 L234.67095234284403 163.7565386945551 L234.9604871121163 162.56320012970406 L235.25003051030825 161.38771824945104 L235.53956527958053 160.23078286918727 L235.82910867777244 159.09294359792364 L236.11864344704475 157.97484818913722 L236.40818684523666 156.87704905596647 L236.69772161450894 155.80015749822962 L236.98725638378124 154.7447287331928 L237.27679978197312 153.71125628731468 L237.56633455124543 152.70036267692393 L238.0006453340735 151.22738809477198 L238.43495611690156 149.80802282420072 L238.86925827081 148.44392690875316 L239.30356905363806 147.13663140210238 L239.7378712075465 145.88769539919767 L240.17218199037455 144.69845927303487 L240.6064927732026 143.57032508741727 L241.04079492711105 142.5045827410438 L241.4751057099391 141.5023651014675 L242.05418387740332 140.26686647805303 L242.63326204486754 139.1487374197353 L243.35710759696786 137.91938544403422 L244.08095314906822 136.88038325851613 L245.09433347044086 135.7510993805799 L246.10772242073313 135.00659228454936 L247.12110705656556 134.65028300610456 L248.13449169239803 134.68305204131389 L249.1478763282305 135.10323934663427 L250.16126096406293 135.90668359669775 L251.1746455998954 137.08676144209775 L251.89849115199576 138.15536960688505 L252.62233670409609 139.40758083083415 L253.2014148715603 140.53847988627174 L253.78049303902452 141.78135336529124 L254.21479950739274 142.78528152270752 L254.64910597576102 143.84930774298581 L255.08341675858907 144.97213091091677 L255.51772322695732 146.15229848840022 L255.95202969532556 147.38836915384638 L256.3863404781536 148.67878942056137 L256.8206469465219 150.0219665440646 L257.2549534148901 151.41625169732356 L257.68926419771816 152.85997362028468 L258.12357066608644 154.35134888779032 L258.41310974981855 155.37117084048012 L258.70264883355065 156.41084601662376 L258.99218360282293 157.4697799411687 L259.28172268655504 158.54745104638013 L259.57126177028715 159.6432704654607 L259.8608008540192 160.75662409446457 L260.1503399377513 161.88697914914653 L260.4398790214834 163.0337131131779 L260.72941810521553 164.1961978619749 L261.0189528744878 165.3738865906542 L261.3084919582199 166.56609509207988 L261.598031041952 167.77226534485817 L261.88757012568414 168.99174398725683 L262.17710920941624 170.22387485341594 L262.46664829314835 171.4680718806657 L262.75618737688046 172.72367049076342 L263.04572646061257 173.99002012610435 L263.33526122988485 175.2664506001906 L263.62480031361696 176.5523393966935 L263.91433939734907 177.84705558690158 L264.2038784810811 179.14991215955126 L264.4934175648132 180.46025575291026 L264.78295664854534 181.77742178873584 L265.07249573227745 183.10072045163676 L265.3620305015497 184.42951660671017 L265.65156958528183 185.76317231492564 L265.94110866901394 187.10099776089191 L266.23064775274605 188.4423269643025 L266.52018683647816 189.78646870770237 L266.80972592021027 191.13281028920954 L267.0992650039424 192.48066890375182 L267.3888040876745 193.82935473593798 L267.67833885694677 195.17826209420508 L267.9678779406789 196.52668153426865 L268.257417024411 197.87401227178898 L268.54695610814304 199.21957640891725 L268.83649519187514 200.56270165605977 L269.12603427560725 201.9027949402278 L269.41557335933936 203.2391916831786 L269.70510812861164 204.57123046131298 L269.99464721234375 205.89833266042513 L270.28418629607586 207.21983352701434 L270.57372537980797 208.53512631796977 L270.8632644635401 209.84360954791984 L271.1528035472722 211.1446621902287 L271.4423426310043 212.4376696151766 L271.7318774002766 213.72203647142106 L272.0214164840087 214.9972022839568 L272.3109555677408 216.2625823921778 L272.6004946514729 217.51759493960574 L272.89003373520495 218.76166087388992 L273.1795728189371 219.99423479221085 L273.46911190266917 221.21478461135519 L273.7586509864013 222.42275230992925 L274.04818575567356 223.61758968098596 L274.33772483940567 224.79880740425804 L274.6272639231378 225.96588811820203 L274.9168030068699 227.11833549223164 L275.206342090602 228.25565179369667 L275.4958811743341 229.37733648581937 L275.7854202580662 230.48294371231034 L276.0749550273385 231.57198976115745 L276.3644941110706 232.64407224004918 L276.6540331948027 233.69872706586665 L276.9435722785348 234.7355139905756 L277.2331113622669 235.75402921980077 L277.52265044599903 236.75389419631523 L277.95695691436725 238.21781425042585 L278.3912633827355 239.6375973360105 L278.8255741655636 241.01205730709162 L279.2598806339318 242.34003045071256 L279.6941871023001 243.6204483942552 L280.1284978851281 244.85234651782295 L280.56280435349635 246.03474898500875 L280.9971108218646 247.16681455753064 L281.43141729023284 248.24774686314842 L281.86572807306095 249.27682524106717 L282.44480408329525 250.56712493029508 L283.0238800935295 251.76271520961416 L283.6029582609937 252.8624744279818 L284.182034271228 253.86550246043637 L284.90588198055826 254.98226310448212 L285.7744970745247 256.120385592634 L286.78788171035717 257.1693704724312 L287.8012663461896 257.9194858236746 L288.81465098202204 258.37416950680995 L289.8280356178545 258.5388839624145 L290.841420253687 258.42100965434855 L291.8548048895194 258.0298058119687 L292.86818952535185 257.3762702237476 L293.8815741611843 256.47307193821126 L294.8949587970168 255.33439423279327 L295.7635738909832 254.18274463306773 L296.48742160031344 253.10722148960286 L297.21126715241377 251.93325383825734 L297.79034316264807 250.92771330746737 L298.3694213301123 249.86700156601992 L298.9484973403466 248.754752763293 L299.5275755078108 247.5946851724928 L300.1066515180451 246.39056473699483 L300.6857286068943 245.14623311161995 L301.2648056957436 243.8655599924651 L301.84388278459284 242.55246835405177 L302.27819033157607 241.54874209382317 L302.7124989571742 240.5306643085046 L303.1468065041574 239.49990064989436 L303.5811140511406 238.45812237804586 L304.0154215981238 237.40699794888496 L304.449729145107 236.34818740595472 L304.88403777070516 235.2833395762877 L305.31834531768834 234.21410609104416 L305.7526528646716 233.14211054010823 L306.18696041165475 232.06896810098127 L306.621267958638 230.99627432227135 L307.05557550562116 229.9256079278209 L307.4898841312193 228.85852240432394 L307.92419167820253 227.79654740338975 L308.3584992251857 226.74118874154308 L308.79280677216894 225.69391718371347 L309.2271143191521 224.6561768556183 L309.6614224054428 223.6293740272522 L310.0957304917335 222.61488412320614 L310.53003803871667 221.61404331028461 L311.10911512756593 220.30305897376755 L311.6881922164152 219.0216021009467 L312.26726876595694 217.77249294316226 L312.8463458548062 216.55841084434226 L313.42542294365546 215.38187531314114 L314.0045000325047 214.2452586415139 L314.58357685170023 213.1507613685998 L315.1626539405495 212.1004157858816 L315.74173102939875 211.09607787531885 L316.4655771208066 209.90789662691003 L317.1894234818681 208.7970844138075 L317.9132696406894 207.7660558527674 L318.78188517284315 206.63684065405025 L319.65050070499683 205.62774407321757 L320.6638853408293 204.60416932150045 L321.6772701114886 203.74661644988439 L322.6906547473211 203.05380625040695 L323.70403938315354 202.5226189558479 L324.7174245582935 202.14811018820512 L325.7308091941259 201.92357072166422 L326.74419382995836 201.84057485379955 L327.7575790050983 201.88905751908368 L328.77096364093074 202.0573970106515 L329.78434827676324 202.33251838250592 L330.7977329125957 202.70000281049445 L331.8111175484281 203.14420816979626 L332.82450218426055 203.64840152995154 L333.83788682009305 204.19490496949717 L334.8512714559255 204.7652394627644 L335.8646560917579 205.3402847151526 L336.8780418062053 205.90044311696494 L337.8914264420378 206.42580558126792 L338.90481107787025 206.89632445779122 L339.9181957137027 207.29198421228847 L340.9315803495351 207.59297751698813 L341.9449649853676 207.7798783616586 L342.95834962120006 207.83381496750835 L343.9717342570325 207.7366339820014 L344.985118892865 207.47107126775452 L345.9985035286974 207.02090986747962 L347.01188816452986 206.37112110582265 L348.02527280036236 205.5080249997025 L349.0386574361948 204.41941481744024 L349.9072725301612 203.2987436421893 L350.63112023949145 202.22818590768358 L351.3549657915918 201.03040280057624 L351.934043959056 199.97901268032464 L352.5131199692903 198.84379596940497 L353.0921959795246 197.62399765645915 L353.6712741469888 196.31911369954997 L354.10558277258696 195.28442075713116 L354.5398892409552 194.20165314999494 L354.97419786655337 193.0708270018751 L355.4085043349216 191.89204466342926 L355.84281080328986 190.66547298025 L356.2771215861179 189.39133628254586 L356.7114280544862 188.06996966356581 L357.1457345228544 186.7017530826005 L357.58004530568246 185.28711276704615 L358.01435177405074 183.82660814036024 L358.44865824241896 182.3208224610849 L358.73819732615107 181.29213946515864 L359.0277364098832 180.24384440075266 L359.3172754936153 179.17616440220314 L359.6068145773474 178.08933782035655 L359.8963536610795 176.98364226384598 L360.1858884303518 175.85935534130442 L360.4754275140839 174.71672381596133 L360.764966597816 173.55607296661898 L361.0545056815481 172.37769161842087 L361.34404476528016 171.18194150382823 L361.63358384901227 169.96913668513298 L361.9231229327444 168.73962487415835 L362.2126577020167 167.49382388591766 L362.50219678574877 166.23201974142683 L362.7917358694809 164.95466390523043 L363.081274953213 163.66215456344867 L363.3708140369451 162.35487868569115 L363.6603531206772 161.03329054063016 L363.9498922044093 159.69782757217234 L364.2394312881414 158.34892442009667 L364.5289660574137 156.98706619847906 L364.8185051411458 155.6126847429709 L365.1080442248779 154.2262960130518 L365.39758330861 152.82839353518054 L365.6871223923421 151.4194820523262 L365.9766614760742 150.000066307458 L366.2662005598063 148.57066226005554 L366.55573532907863 147.13185316866094 L366.8452744128107 145.68416060100904 L367.1348134965428 144.2281061248346 L367.4243525802749 142.76426178216934 L367.713891664007 141.2932276563211 L368.0034307477391 139.81558139757678 L368.2929698314712 138.3319062644785 L368.5825046007435 136.84280234033412 L368.8720436844756 135.3488809249618 L369.1615827682077 133.85070284388283 L369.45112185193983 132.348946695978 L369.74066093567194 130.84422378106552 L370.030200019404 129.33712857419795 L370.31973910313616 127.82836210727693 L370.6092781868682 126.31852446361023 L370.89881295614055 124.80826620080255 L371.1883520398726 123.29825470122425 L371.4778911236047 121.78911808945917 L371.7674302073368 120.2815405726433 L372.0569692910689 118.7762119661678 L372.34650837480103 117.27378843589264 L372.63604745853314 115.77490932291205 L372.9255822278054 114.28029809214853 L373.21512131153753 112.79061090946199 L373.50466039526964 111.30650954896754 L373.79419947900175 109.82868943431161 L374.08373856273386 108.35783477263018 L374.37327764646597 106.89462977105923 L374.6628167301981 105.43976985324514 L374.95235149947035 103.99395044283435 L375.24189058320246 102.55782209743154 L375.5314296669345 101.13210267370398 L375.8209687506666 99.71743151274596 L376.11050783439873 98.31453768773514 L376.40004691813084 96.92409418929708 L376.68958600186295 95.5467515750365 L376.97912508559506 94.18321648511021 L377.26865985486734 92.83416191014378 L377.55819893859945 91.5002384077419 L377.84773802233155 90.18211896853015 L378.13727710606366 88.88046536662364 L378.4268161897958 87.59592815962706 L378.7163552735279 86.32920277118684 L379.00589435726 85.0809061093764 L379.29542912653227 83.85169994831087 L379.5849682102644 82.6421787630428 L379.87450729399643 81.45302676070821 L380.16404637772854 80.28483841635966 L380.45358546146065 79.13824185458098 L380.74312454519276 78.01383155042475 L381.03266362892487 76.91224684498528 L381.32219839819714 75.83405978029427 L381.61173748192925 74.77986483140427 L381.90127656566136 73.75024525685745 L382.19081564939347 72.7457506656647 L382.62512211776175 71.28739119659772 L383.0594329005898 69.88868112997577 L383.493739368958 68.55142632397741 L383.9280458373263 67.27742142027077 L384.36235662015434 66.06831524588847 L384.79666308852256 64.92576784437355 L385.23096955689084 63.8513383106752 L385.66527602525906 62.846496007659226 L386.2443541927233 61.61753660982308 L386.8234323601875 60.518139123916654 L387.5472779122878 59.330680814656375 L388.41589516348415 58.18669769980693 L389.4292797993166 57.24980501695114 L390.442664435149 56.75150032476947 L391.4560490709815 56.70026330514389 L392.46942939235413 57.1021508737044 L393.4828183426464 57.960628932172625 L394.3514312793829 59.06064332615247 L395.0752768314833 60.23341922326523 L395.6543549989475 61.338424964384615 L396.23343316641166 62.590591322292 L396.6677439492397 63.625549955801546 L397.10204610314815 64.74190680547196 L397.53635688597626 65.93901131369853 L397.9706676688043 67.21599980917847 L398.4049698227127 68.57195253805682 L398.8392806055408 70.00596096298912 L399.27359138836886 71.51690343293279 L399.56312615764114 72.56637623093346 L399.8526609269134 73.64912841536784 L400.14220432510535 74.76485714045438 L400.43173909437763 75.91314739530739 L400.72128249256957 77.09355051950976 L401.01081726184185 78.3056963682175 L401.3003606600338 79.54908019846137 L401.589895429306 80.82327578284526 L401.87943019857835 82.12777837839995 L402.16897359677023 83.46216175772929 L402.45850836604257 84.82588752833281 L402.74805176423445 86.2184621637518 L403.0375865335068 87.63925753940237 L403.32712993169866 89.08791472695091 L403.61666470097094 90.56365978717805 L403.9061994702432 92.06607770919801 L404.19574286843516 93.59452915191652 L404.48527763770744 95.14840842377058 L404.7748210358994 96.7271210497076 L405.06435580517166 98.32998282259162 L405.35389920336354 99.95651143247433 L405.6434339726359 101.6058432080529 L405.93296874190816 103.27741732380608 L406.2225121401001 104.97070660374382 L406.5120469093724 106.68478007750079 L406.80159030756425 108.4191330021078 L407.09112507683653 110.17299143834549 L407.3806684750285 111.94563752954657 L407.67020324430075 113.73636463555424 L407.9597380135731 115.54436516761781 L408.24928141176497 117.36911755800249 L408.53881618103725 119.20957867123865 L408.8283595792292 121.06522133133629 L409.11789434850147 122.93519869175826 L409.4074377466934 124.81873681328514 L409.6969725159657 126.71500006589024 L409.9865159141576 128.62339958277616 L410.2760506834299 130.5428866202181 L410.5655854527022 132.47283866188744 L410.85512885089406 134.41242568601263 L411.1446636201664 136.36080084605652 L411.4342070183583 138.3171789862893 L411.7237417876306 140.2806683941321 L412.0132851858225 142.25065776976675 L412.3028199550948 144.22603107040578 L412.59235472436706 146.20612091367894 L412.881898122559 148.19024309245023 L413.1714328918313 150.17726473916662 L413.4609762900232 152.16657455400988 L413.7505110592955 154.15726399963552 L414.04005445748743 156.14851427078247 L414.3295892267597 158.13946730440313 L414.619123996032 160.12923419204625 L414.9086673942239 162.11718120087278 L415.1982021634962 164.10219509222293 L415.48774556168814 166.08366456627846 L415.77728033096037 168.0606670650569 L416.0668237291523 170.03239499980754 L416.3563584984246 171.99792861667547 L416.6458932676969 173.95660333741796 L416.9354366658888 175.9075190370733 L417.2249714351611 177.84985691038045 L417.514514833353 179.78281497684392 L417.8040496026253 181.7055660188198 L418.09359300081724 183.6173220764507 L418.3831277700895 185.51720545779574 L418.6726625393618 187.4045698114417 L418.96220593755373 189.2785598784685 L419.251740706826 191.13831759582865 L419.5412841050179 192.98328774625605 L419.83081887429023 194.81241878189823 L420.1203622724821 196.62516670199958 L420.40989704175445 198.42070709304377 L420.6994318110267 200.19830106740648 L420.9889752092186 201.9572170982984 L421.2785099784909 203.69666126709092 L421.5680533766828 205.4161253256554 L421.8575881459551 207.11463304325432 L422.14713154414704 208.791693829 L422.4366663134193 210.44655744731426 L422.72620971161126 212.0785506008701 L423.01574448088354 213.6869484226812 L423.3052792501558 215.2712335512042 L423.59482264834776 216.83069934628227 L423.88435741762004 218.36472749777815 L424.173900815812 219.87269829349083 L424.46343558508426 221.35401795939964 L424.75297898327614 222.80809692767534 L425.0425137525484 224.23430567167023 L425.33204852182075 225.6322067474777 L425.62159192001263 227.00119165940717 L425.91112668928497 228.3406743447889 L426.20067008747685 229.65030989592725 L426.49020485674913 230.92937064170837 L426.77974825494107 232.1775411177765 L427.06928302421335 233.3942997563969 L427.3588177934856 234.57918948476964 L427.64836119167757 235.73177005486053 L427.93789596094985 236.85154233195564 L428.2274393591417 237.9383072229949 L428.51697412841406 238.99143379926682 L428.80651752660594 240.0106949264353 L429.2408196805144 241.47528516704386 L429.67513046334244 242.86159818551755 L430.1094412461705 244.1687647022984 L430.54374340007894 245.395654653961 L430.97805418290704 246.54149690541354 L431.41235633681544 247.60545021837407 L431.99143450427965 248.89566297964615 L432.57051267174387 250.03774770010602 L433.2943582238442 251.25560555674812 L434.16297978950035 252.40749911557543 L435.17636011087296 253.32333560423416 L436.18974906116523 253.77915215492249 L437.2031293825379 253.77848196842453 L438.21651833283016 253.32765115662053 L439.22989865420277 252.43580678376284 L440.09851159093927 251.32915221561086 L440.82236577195926 250.1721831858158 L441.40143531050387 249.0972124554894 L441.98051347796803 247.89295181361112 L442.55959164543225 246.56283912062645 L442.9939024282603 245.48496331409973 L443.42820458216875 244.34019504352048 L443.8625153649968 243.13013826987958 L444.29682614782485 241.8566661504182 L444.7311283017333 240.5216490382498 L445.1654390845614 239.12706384333697 L445.59974986738945 237.6748958880251 L445.8892846366617 236.6758300878785 L446.1788280348536 235.65274132652715 L446.46836280412595 234.60615117170593 L446.7578975733982 233.5369597483765 L447.04744097159016 232.44552037661725 L447.3369757408624 231.3327247690071 L447.6265191390544 230.19917721504515 L447.9160539083266 229.04548340629447 L448.20559730651854 227.87250841612166 L448.4951320757908 226.6808621422811 L448.78466684506316 225.47126664763147 L449.07421024325504 224.24445100535047 L449.3637450125273 223.00104894827712 L449.65328841071926 221.74196480756456 L449.94282317999154 220.4678561511365 L450.2323665781835 219.17939176342705 L450.52190134745575 217.87756710973653 L450.81143611672803 216.56281542778015 L451.1009795149199 215.23615040968764 L451.39051428419225 213.89825205640358 L451.68005768238413 212.54981824518606 L451.96959245165647 211.1918651217764 L452.25913584984835 209.8248478311368 L452.5486706191207 208.44979382314804 L452.8382053883929 207.0674077498843 L453.12774878658485 205.67839345285162 L453.4172835558571 204.28378827852958 L453.70682695404906 202.88405137542975 L453.99636172332134 201.48022307489407 L454.2859051215133 200.07301124388522 L454.57543989078556 198.66312532668763 L454.86497466005784 197.2516053041274 L455.1545180582498 195.83890965106812 L455.44405282752206 194.42607589472425 L455.733596225714 193.01381067525256 L456.0231309949862 191.60281432352284 L456.3126743931782 190.1940360367298 L456.60220916245044 188.78817544471133 L456.8917439317228 187.3860064866868 L457.18128732991465 185.98830730806696 L457.470822099187 184.59575931186026 L457.76036549737887 183.2092962725596 L458.0499002666512 181.82959258285436 L458.3394436648431 180.4573254395615 L458.62897843411537 179.0934846997261 L458.9185218323073 177.73849098248917 L459.2080566015796 176.39332012425768 L459.49759137085186 175.05862829089165 L459.78713476904375 173.73505201935768 L460.0766695383161 172.4235475171696 L460.36621293650796 171.12450455806473 L460.6557477057803 169.8388653289188 L460.9452911039722 168.56723552129486 L461.2348258732445 167.31021241437304 L461.52436064251674 166.06871856613594 L461.8139040407087 164.84309327602386 L462.10343880998096 163.63422264836052 L462.3929822081729 162.44268713756043 L462.6825169774452 161.2690139196136 L462.9720603756371 160.11400217088786 L463.2615951449094 158.97817626324567 L463.5511299141817 157.86213347586718 L463.84066468345395 156.76646547967738 L464.1302167105655 155.6916714093902 L464.4197514798378 154.63844108039683 L464.7092862491101 153.60727362741125 L464.9988210183824 152.59870183467865 L465.43313180121044 151.12932214411822 L465.8674425840385 149.7136527137323 L466.3017533668666 148.35334797880867 L466.73606414969464 147.04995581778613 L467.17035767468343 145.80505215037954 L467.6046684575115 144.61993809179828 L468.0389792403396 143.4959820563143 L468.4732900231676 142.43449076739225 L469.0523595617122 141.11838469180196 L469.631446358096 139.91793766346845 L470.2105158966406 138.83559488166463 L470.93436144874096 137.6517426805063 L471.8029830143971 136.48367771777242 L472.8163633357697 135.47500497644597 L473.82974365714233 134.85245499827647 L474.84314123635426 134.61867487972432 L475.85652155772686 134.7737038785761 L476.86990187909953 135.31510240381414 L477.8832822004722 136.23794079910624 L478.7519037661283 137.32702470367605 L479.4757493182286 138.4401904561303 L480.0548361146125 139.4624127420512 L480.63390565315706 140.59909390861338 L481.2129751917016 141.84753638505936 L481.6472859745297 142.85564269260928 L482.0815967573578 143.92367881536484 L482.5159075401858 145.050483844497 L482.9502183230139 146.23446503552523 L483.3845291058419 147.4743268814954 L483.81882263083077 148.76826352422887 L484.2531334136588 150.115018714558 L484.68744419648687 151.51277537779376 L485.1217549793149 152.959738872268 L485.556065762143 154.45424915443766 L485.8456005314153 155.47613494504583 L486.1351353006876 156.51780105179006 L486.42467006995986 157.57869225740433 L486.71420483923214 158.6582365198569 L487.0037568663437 159.75586740537125 L487.293291635616 160.87100165540522 L487.5828264048883 162.00295786695048 L487.8723611741606 163.15132663737643 L488.1619132012721 164.31550507924774 L488.4514479705444 165.49469962445173 L488.7409827398167 166.68828775665978 L489.030517509089 167.8958460526033 L489.32005227836123 169.1166398308494 L489.6096043054728 170.35005218332464 L489.8991390747451 171.59543816067958 L490.1886738440174 172.85216122594747 L490.47820861328967 174.11957082152367 L490.7677606404012 175.39702199805868 L491.05729540967354 176.68385858969256 L491.34683017894577 177.9793318943544 L491.6363649482181 179.2829792309891 L491.9258997174904 180.59404909339818 L492.2154517446019 181.9119750478051 L492.5049865138742 183.235786866058 L492.79452128314654 184.5651326301423 L493.08405605241876 185.89924400909382 L493.3735908216911 187.23735126988456 L493.66314284880264 188.5791038965637 L493.9526776180749 189.92352324859664 L494.2422123873472 191.27005270665342 L494.53174715661953 192.61792393976992 L494.82129918373107 193.96679063818672 L495.1108339530033 195.31557461483914 L495.40036872227563 196.66393727131864 L495.6899034915479 198.01111728698015 L495.9794382608202 199.35646480525082 L496.26899028793173 200.69933487678117 L496.55852505720406 202.03908150067383 L496.8480598264763 203.37506568635052 L497.1375945957486 204.70654872144488 L497.4271293650209 206.03311042496088 L497.71668139213244 207.3541254326278 L498.0062161614047 208.6687642046335 L498.29575093067706 209.9764142581685 L498.5852856999493 211.27667701278222 L498.8748377270608 212.56884530254385 L499.16437249633316 213.8523267554966 L499.45390726560544 215.12653355639088 L499.7434420348777 216.39088525081223 L500.03297680415005 217.64480979672888 L500.3225288312616 218.88774286346 L500.6120636005338 220.11912923373959 L500.90159836980615 221.33831905099478 L501.19113313907843 222.54498142816803 L501.48068516618997 223.7385709624399 L501.77021993546225 224.9183880239725 L502.0597547047346 226.0839138491587 L502.3492894740068 227.2348441901532 L502.63882424327915 228.37059018015862 L502.9283762703907 229.49066950922662 L503.21791103966297 230.59462230042976 L503.50744580893524 231.68198447064918 L503.7969805782076 232.75231997804207 L504.0865153474798 233.80507640946996 L504.37606737459134 234.84011916680768 L504.6656021438637 235.85668272321874 L505.09991292669173 237.34649328751996 L505.5342237095198 238.79291278123856 L505.96851723450857 240.19453353231603 L506.4028280173367 241.55051991072568 L506.8371388001647 242.85950630632314 L507.2714495829928 244.1206290478056 L507.7057603658209 245.33274124698204 L508.14005389080967 246.49503251097417 L508.5743646736377 247.6067232923074 L509.00867545646577 248.66689944538203 L509.4429862392938 249.67494125799698 L510.02205577783843 250.9368996295062 L510.60114257422225 252.1037644256245 L511.1802121127668 253.17452896454117 L511.9040576648672 254.3765098506754 L512.6279032169675 255.42587609182704 L513.4965247826236 256.4829592921517 L514.5099051039963 257.4376077110117 L515.523285425369 258.094255880876 L516.5366830045808 258.45698661153966 L517.5500633259535 258.53185681863266 L518.563443647326 258.32685265757823 L519.576841226538 257.85179418325424 L520.5902215479107 257.1182287931442 L521.6036018692832 256.13930223746735 L522.4722234349395 255.1159863417799 L523.3408277427562 253.93318008021873 L524.0646732948567 252.83335917104375 L524.788518846957 251.63668930259618 L525.3676056433408 250.61416417089376 L525.9466751818854 249.537564242428 L526.5257619782692 248.41050684181127 L527.1048315168138 247.23680558258837 L527.6839183131976 246.02015910907224 L528.2629878517422 244.7645016122948 L528.8420573902868 243.4736719429493 L529.4211441866706 242.15157905491915 L529.8554549694986 241.14188280701637 L530.2897657523267 240.11850241639397 L530.7240592773155 239.08315681327474 L531.1583700601436 238.03742472150108 L531.5926808429717 236.98300544240257 L532.0269916257997 235.92156743190506 L532.4613024086278 234.85475951704112 L532.8955959336166 233.78425576199186 L533.3299067164446 232.7115984369408 L533.7642174992727 231.6384391730482 L534.1985282821008 230.56636230241168 L534.6328390649288 229.4969395385547 L535.0671498477569 228.43171595578843 L535.5014433727457 227.37225064906207 L535.9357541555737 226.31995409456167 L536.3700649384018 225.27632650055668 L536.8043757212299 224.24279937419024 L537.238686504058 223.22076776894656 L537.672997286886 222.21158888258717 L538.2520668254306 220.8883182609623 L538.8311363639751 219.59325856512243 L539.410223160359 218.32926229387522 L539.9892926989036 217.09914198720998 L540.5683794952874 215.9054241641001 L541.147449033832 214.75061501359397 L541.7265358302159 213.63692068308592 L542.3056053687604 212.5665206807581 L542.884674907305 211.54131760719147 L543.6085204594053 210.3260160633786 L544.3323660115057 209.18710614114323 L545.0562288214453 208.1271416997029 L545.9248331292622 206.96241220020403 L546.7934546949183 205.91714791851965 L547.806835016291 204.850993540646 L548.8202153376635 203.95088663053784 L549.8336129168755 203.21601732109082 L550.8469932382482 202.643755515868 L551.8603735596207 202.22961355915123 L552.8737538809934 201.96732597831976 L553.8871514602052 201.8489031127908 L554.9005317815779 201.86469350585884 L555.9139121029506 202.003465925428 L556.9272924243232 202.25250750847837 L557.9406900035351 202.59773592617023 L558.9540703249077 203.02380664172497 L559.9674506462804 203.51425521990114 L560.980830967653 204.05163227563554 L561.9942285468649 204.61766032993117 L563.0076088682375 205.1933472017673 L564.0209891896102 205.75921323006466 L565.0343695109829 206.29541316560724 L566.0477670901947 206.781925997337 L567.0611474115674 207.19869450151666 L568.0745277329399 207.52585095209494 L569.0879080543126 207.743855136362 L570.1013056335246 207.83367519927296 L571.1146859548971 207.77695812564343 L572.1280662762698 207.55619621331888 L573.1414465976425 207.1548916185063 L574.1548441768543 206.55768072321504 L575.168224498227 205.75055119225925 L576.1816048195997 204.72089446302164 L577.0502263852558 203.65282083505934 L577.7740719373561 202.62730895694006 L578.4979174894564 201.4755219549618 L579.076987028001 200.4615203196352 L579.6560738243849 199.3640212281184 L580.2351433629294 198.18228964846242 L580.8142301593133 196.91566520861605 L581.2485409421413 195.90972438861024 L581.6828344671301 194.85578461533242 L582.1171452499582 193.7537091875618 L582.5514560327863 192.60362849723208 L582.9857668156144 191.40562526610765 L583.4200775984424 190.15994345329025 L583.8543711234312 188.86687328598717 L584.2886819062593 187.5266278778965 L584.7229926890873 186.13969654928553 L585.1573034719154 184.70660086788914 L585.5916142547435 183.22785959731448 L585.8811490240157 182.2169575745409 L586.170683793288 181.18629206039688 L586.4602185625604 180.13602849841118 L586.7497705896719 179.06632391972977 L587.0393053589441 177.97759333523837 L587.3288401282164 176.87001620910385 L587.6183748974887 175.7438617375764 L587.907909666761 174.59936266324738 L588.1974616938726 173.43685828555715 L588.4869964631448 172.2566822956909 L588.7765312324171 171.05920764262027 L589.0660660016895 169.84471473910594 L589.355618028801 168.61349801854655 L589.6451527980732 167.36600614135915 L589.9346875673456 166.1026400977915 L590.2242223366179 164.82375601204959 L590.5137571058901 163.52969879182902 L590.8033091330017 162.22091990167445 L591.0928439022739 160.89792688868263 L591.3823786715462 159.56110391833568 L591.6719134408186 158.21083796024323 L591.9614654679301 156.84763375737452 L592.2510002372023 155.47199044444346 L592.5405350064747 154.0844408056953 L592.830069775747 152.68542789329183 L593.1196045450192 151.27545084194705 L593.4091565721308 149.85489662127063 L593.698691341403 148.4245559952476 L593.9882261106754 146.9848439747637 L594.2777608799477 145.53623165325686 L594.5672956492199 144.07938080484217 L594.8568476763314 142.61476813121277 L595.1463824456038 141.14306101473898 L595.4359172148761 139.6647529818795 L595.7254519841483 138.1805394562808 L596.0150040112599 136.69080740755254 L596.3045387805322 135.1964373317632 L596.5940735498045 133.69792275537145 L596.8836083190768 132.19586936994034 L597.173143088349 130.69089969179848 L597.4626951154605 129.18351846391505 L597.752229884733 127.67464544014499 L598.0417646540052 126.16471245613967 L598.3312994232774 124.65447101809762 L598.6208341925498 123.14454925060274 L598.9103862196613 121.63551358743149 L599.1999209889336 120.12812675129284 L599.4894557582058 118.62310659885408 L599.7789905274782 117.12103078040211 L600.0685425545897 115.6224432966926 L600.3580773238621 114.12834241715346 L600.6476120931343 112.63921045173299 L600.9371468624065 111.1557372158224 L601.2266816316788 109.6785788752816 L601.5162336587905 108.20845328677785 L601.8057684280627 106.74605587395756 L602.0953031973349 105.29210449348798 L602.3848379666073 103.84726091948424 L602.6743899937188 102.41211962699892 L602.9639247629912 100.98746577176182 L603.2534595322634 99.57401721044022 L603.5429943015357 98.17240206761795 L603.832529070808 96.78323725136845 L604.1220810979196 95.40722940184855 L604.4116158671918 94.04517489129849 L604.701150636464 92.69763454523955 L604.9906854057364 91.36525892127645 L605.2802201750087 90.04882195862858 L605.5697722021202 88.74881718375468 L605.8593069713925 87.46608583493668 L606.1488417406648 86.20125603675844 L606.4383765099371 84.95489983125168 L606.7279285370487 83.72754439440642 L607.0174633063209 82.52012069658801 L607.3069980755932 81.33309983123434 L607.5965328448656 80.16707627339798 L607.8860676141378 79.02271179719406 L608.0308436276936 78.45883538506249 " fill="none" stroke-width="1.6500000000000001" stroke="rgb(187,187,187)" stroke-opacity="1.0">
          </path>
        </g>
      </g>
    </g>
    <g transform="translate(14.5 217.0 ) rotate(-90.0 ) ">
      <text class="axis-title-y" y="0.0" text-anchor="middle">
      y
      </text>
    </g>
    <g transform="translate(376.50765333787484 461.5 ) ">
      <text class="axis-title-x" y="0.0" text-anchor="middle">
      x
      </text>
    </g>
    <path fill="rgb(0,0,0)" fill-opacity="0.0" stroke="rgb(187,187,187)" stroke-opacity="1.0" stroke-width="0.0" d="M0.0 0.0 L0.0 470.0 L705.0 470.0 L705.0 0.0 Z">
    </path>
  </g>
  <g id="xXxprefixXx3">
  </g>
</svg>