<svg xmlns="http://www.w3.org/2000/svg" xmlns:xlink="http://www.w3.org/1999/xlink" display="block" class="plt-container" width="705.0" height="235.0">
  <g id="xXxprefixXx0">
    <rect x="0.0" y="0.0" height="235.0" width="705.0" fill="rgb(255,255,255)" fill-opacity="1.0" stroke="rgb(71,71,71)" stroke-opacity="1.0" stroke-width="0.0">
    </rect>
  </g>
  <svg xmlns="http://www.w3.org/2000/svg" xmlns:xlink="http://www.w3.org/1999/xlink" display="block" class="plt-container" width="350.5" height="235.0" x="0.0" y="0.0">
    <style type="text/css">
    .plt-container {
   font-family: Lucida Grande, sans-serif;
   user-select: none;
   -webkit-user-select: none;
   -moz-user-select: none;
   -ms-user-select: none;
}
text {
   text-rendering: optimizeLegibility;
}
#xXxprefixXx1 .plot-title {
fill: #bbbbbb;
font-weight: normal;
   font-style: normal;font-family: Lucida Grande, sans-serif;
font-size: 16.0px;

}
#xXxprefixXx1 .plot-subtitle {
fill: #bbbbbb;
font-weight: normal;
   font-style: normal;font-family: Lucida Grande, sans-serif;
font-size: 15.0px;

}
#xXxprefixXx1 .plot-caption {
fill: #bbbbbb;
font-weight: normal;
   font-style: normal;font-family: Lucida Grande, sans-serif;
font-size: 13.0px;

}
#xXxprefixXx1 .hyperlink-element {
fill: #118ed8;
font-weight: normal;
   font-style: normal;
}
#xXxprefixXx1 .legend-title {
fill: #bbbbbb;
font-weight: normal;
   font-style: normal;font-family: Lucida Grande, sans-serif;
font-size: 15.0px;

}
#xXxprefixXx1 .legend-item {
fill: #bbbbbb;
font-weight: normal;
   font-style: normal;font-family: Lucida Grande, sans-serif;
font-size: 13.0px;

}
#xXxprefixXx1 .axis-title-x {
fill: #bbbbbb;
font-weight: normal;
   font-style: normal;font-family: Lucida Grande, sans-serif;
font-size: 15.0px;

}
#xXxprefixXx1 .axis-text-x {
fill: #bbbbbb;
font-weight: normal;
   font-style: normal;font-family: Lucida Grande, sans-serif;
font-size: 13.0px;

}
#xXxprefixXx3 .axis-tooltip-text-x {
fill: #303030;
font-weight: normal;
   font-style: normal;font-family: Lucida Grande, sans-serif;
font-size: 13.0px;

}
#xXxprefixXx1 .axis-title-y {
fill: #bbbbbb;
font-weight: normal;
   font-style: normal;font-family: Lucida Grande, sans-serif;
font-size: 15.0px;

}
#xXxprefixXx1 .axis-text-y {
fill: #bbbbbb;
font-weight: normal;
   font-style: normal;font-family: Lucida Grande, sans-serif;
font-size: 13.0px;

}
#xXxprefixXx3 .axis-tooltip-text-y {
fill: #303030;
font-weight: normal;
   font-style: normal;font-family: Lucida Grande, sans-serif;
font-size: 13.0px;

}
#xXxprefixXx1 .facet-strip-text-x {
fill: #bbbbbb;
font-weight: normal;
   font-style: normal;font-family: Lucida Grande, sans-serif;
font-size: 13.0px;

}
#xXxprefixXx1 .facet-strip-text-y {
fill: #bbbbbb;
font-weight: normal;
   font-style: normal;font-family: Lucida Grande, sans-serif;
font-size: 13.0px;

}
#xXxprefixXx3 .tooltip-text {
fill: #bbbbbb;
font-weight: normal;
   font-style: normal;font-family: Lucida Grande, sans-serif;
font-size: 13.0px;

}
#xXxprefixXx3 .tooltip-title {
fill: #bbbbbb;
font-weight: bold;
   font-style: normal;font-family: Lucida Grande, sans-serif;
font-size: 13.0px;

}
#xXxprefixXx3 .tooltip-label {
fill: #bbbbbb;
font-weight: bold;
   font-style: normal;font-family: Lucida Grande, sans-serif;
font-size: 13.0px;

}

    </style>
    <g id="xXxprefixXx1">
      <path fill-rule="evenodd" fill="rgb(25,25,28)" fill-opacity="1.0" d="M0.0 0.0 L0.0 235.0 L350.5 235.0 L350.5 0.0 Z">
      </path>
      <g transform="translate(29.5 26.5 ) ">
        <g>
          <g transform="translate(21.961210910936405 0.0 ) ">
            <g>
              <line x1="51.830567560144544" y1="0.0" x2="51.830567560144544" y2="156.0" stroke="rgb(71,71,71)" stroke-opacity="1.0" stroke-width="1.0" fill="none">
              </line>
              <line x1="127.63423550782873" y1="0.0" x2="127.63423550782873" y2="156.0" stroke="rgb(71,71,71)" stroke-opacity="1.0" stroke-width="1.0" fill="none">
              </line>
              <line x1="203.43790345551292" y1="0.0" x2="203.43790345551292" y2="156.0" stroke="rgb(71,71,71)" stroke-opacity="1.0" stroke-width="1.0" fill="none">
              </line>
              <line x1="279.2415714031971" y1="0.0" x2="279.2415714031971" y2="156.0" stroke="rgb(71,71,71)" stroke-opacity="1.0" stroke-width="1.0" fill="none">
              </line>
            </g>
          </g>
          <g transform="translate(21.961210910936405 0.0 ) ">
            <g>
              <line x1="0.0" y1="113.34041076166598" x2="292.5387890890636" y2="113.34041076166598" stroke="rgb(71,71,71)" stroke-opacity="1.0" stroke-width="1.0" fill="none">
              </line>
              <line x1="0.0" y1="66.32049902468444" x2="292.5387890890636" y2="66.32049902468444" stroke="rgb(71,71,71)" stroke-opacity="1.0" stroke-width="1.0" fill="none">
              </line>
              <line x1="0.0" y1="19.300587287702896" x2="292.5387890890636" y2="19.300587287702896" stroke="rgb(71,71,71)" stroke-opacity="1.0" stroke-width="1.0" fill="none">
              </line>
            </g>
          </g>
          <g transform="translate(21.961210910936405 156.0 ) ">
            <g transform="translate(51.830567560144544 0.0 ) ">
              <line stroke-width="1.0" stroke="rgb(187,187,187)" stroke-opacity="1.0" x2="0.0" y2="4.0">
              </line>
              <g transform="translate(0.0 7.0 ) ">
                <text class="axis-text-x" text-anchor="middle" dy="0.7em">
                  <tspan>-1</tspan>
                </text>
              </g>
            </g>
            <g transform="translate(127.63423550782873 0.0 ) ">
              <line stroke-width="1.0" stroke="rgb(187,187,187)" stroke-opacity="1.0" x2="0.0" y2="4.0">
              </line>
              <g transform="translate(0.0 7.0 ) ">
                <text class="axis-text-x" text-anchor="middle" dy="0.7em">
                  <tspan>0</tspan>
                </text>
              </g>
            </g>
            <g transform="translate(203.43790345551292 0.0 ) ">
              <line stroke-width="1.0" stroke="rgb(187,187,187)" stroke-opacity="1.0" x2="0.0" y2="4.0">
              </line>
              <g transform="translate(0.0 7.0 ) ">
                <text class="axis-text-x" text-anchor="middle" dy="0.7em">
                  <tspan>1</tspan>
                </text>
              </g>
            </g>
            <g transform="translate(279.2415714031971 0.0 ) ">
              <line stroke-width="1.0" stroke="rgb(187,187,187)" stroke-opacity="1.0" x2="0.0" y2="4.0">
              </line>
              <g transform="translate(0.0 7.0 ) ">
                <text class="axis-text-x" text-anchor="middle" dy="0.7em">
                  <tspan>2</tspan>
                </text>
              </g>
            </g>
            <line x1="0.0" y1="0.0" x2="292.5387890890636" y2="0.0" stroke-width="1.0" stroke="rgb(187,187,187)" stroke-opacity="1.0">
            </line>
          </g>
          <g transform="translate(21.961210910936405 0.0 ) ">
            <g transform="translate(0.0 113.34041076166598 ) ">
              <g transform="translate(-3.0 0.0 ) ">
                <text class="axis-text-y" text-anchor="end" dy="0.35em">
                  <tspan>-1</tspan>
                </text>
              </g>
            </g>
            <g transform="translate(0.0 66.32049902468444 ) ">
              <g transform="translate(-3.0 0.0 ) ">
                <text class="axis-text-y" text-anchor="end" dy="0.35em">
                  <tspan>0</tspan>
                </text>
              </g>
            </g>
            <g transform="translate(0.0 19.300587287702896 ) ">
              <g transform="translate(-3.0 0.0 ) ">
                <text class="axis-text-y" text-anchor="end" dy="0.35em">
                  <tspan>1</tspan>
                </text>
              </g>
            </g>
          </g>
        </g>
        <g clip-path="url(#xXxprefixXx2)" clip-bounds-jfx="[rect (21.961210910936405, 0.0), (292.5387890890636, 156.0)]">
          <g transform="translate(21.961210910936405 0.0 ) ">
            <g>
              <g>
                <g>
                  <path d="M13.297217685866542 74.18996061207963 L13.297217685866542 74.18996061207963 L13.485493192564434 69.67642319387865 L13.575352162499826 78.73154299922982 L14.133329014531242 65.20901525492111 L14.324749223716822 83.28233054295067 L15.232131438934275 60.805607256533975 L15.548381878478608 87.82341126378144 L16.77136390513948 56.48377188324844 L17.24726221494211 92.3358913991947 L18.738971720277434 52.260060270023466 L19.420305852939194 96.8003545008051 L21.121056745192803 48.15085539550984 L22.064494601001783 101.19761673645363 L23.902220781497604 44.171583499029886 L25.17469572633388 105.50849427398128 L27.065601717576854 40.33700029662702 L28.743806538834008 109.71392099064474 L30.59290063809277 36.66105015015766 L32.762654989579744 113.7950661825322 L34.46454448100992 33.15683523863474 L37.22006292633759 117.73337660364032 L38.659731220102316 29.83655249961209 L42.10285513006431 121.51071659613115 L43.15656541247441 26.711454392712575 L47.3959225704168 125.10937369554227 L47.932175673079286 23.79182928139211 L52.9627824484792 21.08695098604722 L53.082226924002725 128.5122183792797 L58.22388778337498 18.605059165779082 L59.14288642114391 131.70274890829995 L63.69027983885676 16.353322884526733 L65.55719391887905 134.66513056358215 L69.33627235969111 14.337857426697916 L72.30283377699746 137.3843974336976 L75.1357137108224 12.56366263985607 L79.35552491623358 139.84627304808117 L81.06219923515579 11.03467338161277 L86.68972114712571 142.03755153133 L87.08919776457681 9.753658625842831 L87.96725653274676 73.08712848437253 L88.01436833280289 74.78015702385756 L88.10376644116681 71.42462767166195 L88.25071802695615 76.49586424410677 L88.41744147781174 69.80018378442492 L88.6810317054395 78.2260539263986 L88.90107051456326 68.22090387896182 L89.30911825359358 79.9622916305749 L89.54668787543605 66.693499669086 L90.13784450148802 81.69588647810752 L90.3456433694636 65.22424969095441 L91.16906293191006 83.41793599378052 L91.28869491483766 63.81893992287124 L92.36601983453495 62.48289111068805 L92.40362749424217 85.1194171903571 L93.18986863079797 8.722395224202764 L93.56732781258461 61.2208766164407 L93.84133034895211 86.7911627464359 L94.27818193619935 143.9459350521052 L94.88187444882038 60.03717251491611 L95.48093349534787 88.42398712368222 L96.2985719560228 58.93549576117651 L97.32008066568906 90.00864733035603 L97.80603660155144 57.91900839446711 L99.33760611456827 7.941482934191768 L99.35538769020086 91.53596343333287 L99.39263614897737 56.99032384407765 L101.0466276647295 56.151468393521775 L101.5823747233135 92.99683537373468 L102.09262529319352 145.5602804523843 L102.75613492684104 55.403919716357684 L103.99543687503282 94.38225838125804 L104.50927945421988 54.74857744883418 L105.50624050782928 7.410439707726383 L106.2942369847823 54.185786311383055 L106.58794813070622 95.68343788098475 L108.09928717621071 53.71532840145494 L109.35221955720381 96.89180070380243 L109.91288815709018 53.336454022175836 L110.10317767403791 146.87044790678362 L111.66934795092065 7.127774558874009 L111.72374430066898 53.04787677778811 L112.27951737592115 97.9990399280866 L113.520863832555 52.84779459318903 L115.29361417928682 52.733914937376966 L115.3601058861609 98.99717373440865 L117.03179313078229 52.703471639082245 L117.80121394954209 7.090909090909101 L118.27902517373512 147.86750831533843 L118.58326779726103 99.87857903679745 L118.72564691334128 52.75324870891079 L120.36596111944107 52.87960696409291 L121.93734545763242 100.6360559426574 L121.94409007636588 53.078512054534684 L123.45198593244577 53.34556108756674 L123.87667551836941 7.296255969257011 L124.88227179623983 53.67602887092903 L125.4097796834758 101.26284737100458 L126.22823594752755 54.06487912319134 L126.58795435913325 148.54371527745155 L127.4838965400707 54.50681912455347 L127.63423550782873 66.32049902468444 L128.3945629234674 66.29067770767183 L128.64400551978392 54.99632143703507 L128.9871872750204 101.7527063149898 L129.14579157056218 66.20145149637287 L129.70408018189195 55.5276715487629 L129.87108277592364 7.739252552755595 L129.87888325336772 66.05353227438755 L130.58492063934486 65.84810162442048 L130.66042399724148 56.09499940327866 L131.2551652904431 65.58680401882619 L131.5101313070459 56.69231933666218 L131.88111837709445 65.27173694480506 L132.25110041875277 57.313573517910996 L132.4545770151518 64.90543741686616 L132.65530143209278 102.09990705231928 L132.88203064094162 57.95265857368922 L132.96768707294402 64.49086923373201 L133.40243033145805 58.60347743652248 L133.413001908535 64.0314017398465 L133.7835289641841 63.53079252804631 L133.81260221309904 59.25997087410578 L134.0727800318851 62.99316282918462 L134.11363913775278 59.91615812707792 L134.27481700065462 62.42297386515018 L134.30740149514534 60.56617124093446 L134.3842970390391 61.82499812216474 L134.39650648199506 61.20429430249959 L134.9972045239642 148.89262280130913 L135.7604014523838 8.414349683234668 L136.3991623678183 102.29930960517277 L140.20321600415974 102.34637935843949 L141.52149245634894 9.315101368880391 L143.47311131181982 148.9090909090909 L144.0511141805194 102.23722349358492 L147.1322381034672 10.434192810286625 L147.92607893770156 101.96862181730727 L151.81081893027468 101.53806039279914 L151.98123153282737 148.58929124218054 L152.57123600495066 11.763446005665187 L155.68765424324693 100.94374835537832 L157.81832346704755 13.293903828999994 L159.5385728702 100.18462912290838 L160.48712538580216 147.93076871847845 L162.8544153987981 15.015891687359996 L163.34535948343404 99.26042243487568 L167.08951636458042 98.17163556280991 L167.66164437780643 16.91902873131977 L168.95521955341493 146.9324751636636 L170.75267004716477 96.91954088944303 L172.2234374605024 18.992323143534158 L174.31636799532546 95.5062039347606 L176.524396448498 21.22415252050228 L177.35022875681864 145.5947693111935 L177.76220737395857 93.93452539507885 L180.55074067715623 23.602504896609304 L181.0720699977543 92.20817668312652 L184.22809973994356 90.33162515149114 L184.2898687452727 26.114785364372004 L185.6366689141354 143.91943361793489 L187.2128380798188 88.31011727698814 L187.73072901163368 28.74806550629593 L190.00919699323003 86.14972490364563 L190.86382411326616 31.489156262608923 L192.60079782138723 83.85719810593478 L193.6809850529034 34.324476208819746 L193.7792524873928 141.90964063290227 L194.9718040955845 81.44005487213411 L196.17570103128566 37.24036264488818 L197.1070887124759 78.90657690042184 L198.34286642512114 40.22289503110147 L198.9923785180979 76.265698895973 L200.1790157361224 43.25823130069067 L200.6143265998807 73.52694341038995 L201.6821428609784 46.33244110482504 L201.74254283634525 139.57009873272483 L201.960453549389 70.70057953921831 L202.85170560960495 49.43159689727898 L203.01938241135838 67.79740326776933 L203.6887115519084 52.54201495847376 L203.78085675669837 64.8286822948313 L204.1955779520136 55.65013488345664 L204.23573616424136 61.806317707953355 L204.37618146902173 58.74254900925484 L209.49174491234675 136.90691199138982 L216.9928091781169 133.92747928645747 L224.21204303818058 130.64072971789247 L231.11663495594937 127.0569376361251 L237.67489392100862 123.18764416910726 L243.85595124457114 119.04589264114401 L249.63048347958954 114.64582499775388 L254.9703690337026 110.00292563231578 L259.84928457832814 105.13363462656014 L264.2423526251081 100.05563081368771 L268.12634032893953 94.78781496273874 L271.4801564955516 89.34982492790434 L274.2845804864636 83.7622836790811 L276.52255138702964 78.04655197196777 L278.17905053192067 72.22517186032816 L279.2415714031971 66.32046613979453 " fill="none" stroke-width="1.6500000000000001" stroke="rgb(187,187,187)" stroke-opacity="1.0">
                  </path>
                </g>
              </g>
            </g>
          </g>
          <defs>
            <clipPath id="xXxprefixXx2">
              <rect x="21.961210910936405" y="0.0" width="292.5387890890636" height="156.0">
              </rect>
            </clipPath>
          </defs>
        </g>
        <g>
        </g>
      </g>
      <g transform="translate(51.4612109109364 16.8 ) ">
        <text class="plot-title" y="0.0">
          <tspan>`line` layer</tspan>
        </text>
      </g>
      <g transform="translate(16.0 104.5 ) rotate(-90.0 ) ">
        <text class="axis-title-y" y="0.0" text-anchor="middle">
          <tspan>y</tspan>
        </text>
      </g>
      <g transform="translate(197.7306054554682 228.0 ) ">
        <text class="axis-title-x" y="0.0" text-anchor="middle">
          <tspan>x</tspan>
        </text>
      </g>
      <path fill="rgb(0,0,0)" fill-opacity="0.0" stroke="rgb(187,187,187)" stroke-opacity="1.0" stroke-width="0.0" d="M0.0 0.0 L0.0 235.0 L350.5 235.0 L350.5 0.0 Z" pointer-events="none">
      </path>
    </g>
    <g id="xXxprefixXx3">
    </g>
  </svg>
  <svg xmlns="http://www.w3.org/2000/svg" xmlns:xlink="http://www.w3.org/1999/xlink" display="block" class="plt-container" width="350.5" height="235.0" x="354.5" y="0.0">
    <style type="text/css">
    .plt-container {
   font-family: Lucida Grande, sans-serif;
   user-select: none;
   -webkit-user-select: none;
   -moz-user-select: none;
   -ms-user-select: none;
}
text {
   text-rendering: optimizeLegibility;
}
#xXxprefixXx4 .plot-title {
fill: #bbbbbb;
font-weight: normal;
   font-style: normal;font-family: Lucida Grande, sans-serif;
font-size: 16.0px;

}
#xXxprefixXx4 .plot-subtitle {
fill: #bbbbbb;
font-weight: normal;
   font-style: normal;font-family: Lucida Grande, sans-serif;
font-size: 15.0px;

}
#xXxprefixXx4 .plot-caption {
fill: #bbbbbb;
font-weight: normal;
   font-style: normal;font-family: Lucida Grande, sans-serif;
font-size: 13.0px;

}
#xXxprefixXx4 .hyperlink-element {
fill: #118ed8;
font-weight: normal;
   font-style: normal;
}
#xXxprefixXx4 .legend-title {
fill: #bbbbbb;
font-weight: normal;
   font-style: normal;font-family: Lucida Grande, sans-serif;
font-size: 15.0px;

}
#xXxprefixXx4 .legend-item {
fill: #bbbbbb;
font-weight: normal;
   font-style: normal;font-family: Lucida Grande, sans-serif;
font-size: 13.0px;

}
#xXxprefixXx4 .axis-title-x {
fill: #bbbbbb;
font-weight: normal;
   font-style: normal;font-family: Lucida Grande, sans-serif;
font-size: 15.0px;

}
#xXxprefixXx4 .axis-text-x {
fill: #bbbbbb;
font-weight: normal;
   font-style: normal;font-family: Lucida Grande, sans-serif;
font-size: 13.0px;

}
#xXxprefixXx6 .axis-tooltip-text-x {
fill: #303030;
font-weight: normal;
   font-style: normal;font-family: Lucida Grande, sans-serif;
font-size: 13.0px;

}
#xXxprefixXx4 .axis-title-y {
fill: #bbbbbb;
font-weight: normal;
   font-style: normal;font-family: Lucida Grande, sans-serif;
font-size: 15.0px;

}
#xXxprefixXx4 .axis-text-y {
fill: #bbbbbb;
font-weight: normal;
   font-style: normal;font-family: Lucida Grande, sans-serif;
font-size: 13.0px;

}
#xXxprefixXx6 .axis-tooltip-text-y {
fill: #303030;
font-weight: normal;
   font-style: normal;font-family: Lucida Grande, sans-serif;
font-size: 13.0px;

}
#xXxprefixXx4 .facet-strip-text-x {
fill: #bbbbbb;
font-weight: normal;
   font-style: normal;font-family: Lucida Grande, sans-serif;
font-size: 13.0px;

}
#xXxprefixXx4 .facet-strip-text-y {
fill: #bbbbbb;
font-weight: normal;
   font-style: normal;font-family: Lucida Grande, sans-serif;
font-size: 13.0px;

}
#xXxprefixXx6 .tooltip-text {
fill: #bbbbbb;
font-weight: normal;
   font-style: normal;font-family: Lucida Grande, sans-serif;
font-size: 13.0px;

}
#xXxprefixXx6 .tooltip-title {
fill: #bbbbbb;
font-weight: bold;
   font-style: normal;font-family: Lucida Grande, sans-serif;
font-size: 13.0px;

}
#xXxprefixXx6 .tooltip-label {
fill: #bbbbbb;
font-weight: bold;
   font-style: normal;font-family: Lucida Grande, sans-serif;
font-size: 13.0px;

}

    </style>
    <g id="xXxprefixXx4">
      <path fill-rule="evenodd" fill="rgb(25,25,28)" fill-opacity="1.0" d="M0.0 0.0 L0.0 235.0 L350.5 235.0 L350.5 0.0 Z">
      </path>
      <g transform="translate(29.5 26.5 ) ">
        <g>
          <g transform="translate(21.961210910936405 0.0 ) ">
            <g>
              <line x1="51.830567560144544" y1="0.0" x2="51.830567560144544" y2="156.0" stroke="rgb(71,71,71)" stroke-opacity="1.0" stroke-width="1.0" fill="none">
              </line>
              <line x1="127.63423550782873" y1="0.0" x2="127.63423550782873" y2="156.0" stroke="rgb(71,71,71)" stroke-opacity="1.0" stroke-width="1.0" fill="none">
              </line>
              <line x1="203.43790345551292" y1="0.0" x2="203.43790345551292" y2="156.0" stroke="rgb(71,71,71)" stroke-opacity="1.0" stroke-width="1.0" fill="none">
              </line>
              <line x1="279.2415714031971" y1="0.0" x2="279.2415714031971" y2="156.0" stroke="rgb(71,71,71)" stroke-opacity="1.0" stroke-width="1.0" fill="none">
              </line>
            </g>
          </g>
          <g transform="translate(21.961210910936405 0.0 ) ">
            <g>
              <line x1="0.0" y1="113.34041076166598" x2="292.5387890890636" y2="113.34041076166598" stroke="rgb(71,71,71)" stroke-opacity="1.0" stroke-width="1.0" fill="none">
              </line>
              <line x1="0.0" y1="66.32049902468444" x2="292.5387890890636" y2="66.32049902468444" stroke="rgb(71,71,71)" stroke-opacity="1.0" stroke-width="1.0" fill="none">
              </line>
              <line x1="0.0" y1="19.300587287702896" x2="292.5387890890636" y2="19.300587287702896" stroke="rgb(71,71,71)" stroke-opacity="1.0" stroke-width="1.0" fill="none">
              </line>
            </g>
          </g>
          <g transform="translate(21.961210910936405 156.0 ) ">
            <g transform="translate(51.830567560144544 0.0 ) ">
              <line stroke-width="1.0" stroke="rgb(187,187,187)" stroke-opacity="1.0" x2="0.0" y2="4.0">
              </line>
              <g transform="translate(0.0 7.0 ) ">
                <text class="axis-text-x" text-anchor="middle" dy="0.7em">
                  <tspan>-1</tspan>
                </text>
              </g>
            </g>
            <g transform="translate(127.63423550782873 0.0 ) ">
              <line stroke-width="1.0" stroke="rgb(187,187,187)" stroke-opacity="1.0" x2="0.0" y2="4.0">
              </line>
              <g transform="translate(0.0 7.0 ) ">
                <text class="axis-text-x" text-anchor="middle" dy="0.7em">
                  <tspan>0</tspan>
                </text>
              </g>
            </g>
            <g transform="translate(203.43790345551292 0.0 ) ">
              <line stroke-width="1.0" stroke="rgb(187,187,187)" stroke-opacity="1.0" x2="0.0" y2="4.0">
              </line>
              <g transform="translate(0.0 7.0 ) ">
                <text class="axis-text-x" text-anchor="middle" dy="0.7em">
                  <tspan>1</tspan>
                </text>
              </g>
            </g>
            <g transform="translate(279.2415714031971 0.0 ) ">
              <line stroke-width="1.0" stroke="rgb(187,187,187)" stroke-opacity="1.0" x2="0.0" y2="4.0">
              </line>
              <g transform="translate(0.0 7.0 ) ">
                <text class="axis-text-x" text-anchor="middle" dy="0.7em">
                  <tspan>2</tspan>
                </text>
              </g>
            </g>
            <line x1="0.0" y1="0.0" x2="292.5387890890636" y2="0.0" stroke-width="1.0" stroke="rgb(187,187,187)" stroke-opacity="1.0">
            </line>
          </g>
          <g transform="translate(21.961210910936405 0.0 ) ">
            <g transform="translate(0.0 113.34041076166598 ) ">
              <g transform="translate(-3.0 0.0 ) ">
                <text class="axis-text-y" text-anchor="end" dy="0.35em">
                  <tspan>-1</tspan>
                </text>
              </g>
            </g>
            <g transform="translate(0.0 66.32049902468444 ) ">
              <g transform="translate(-3.0 0.0 ) ">
                <text class="axis-text-y" text-anchor="end" dy="0.35em">
                  <tspan>0</tspan>
                </text>
              </g>
            </g>
            <g transform="translate(0.0 19.300587287702896 ) ">
              <g transform="translate(-3.0 0.0 ) ">
                <text class="axis-text-y" text-anchor="end" dy="0.35em">
                  <tspan>1</tspan>
                </text>
              </g>
            </g>
          </g>
        </g>
        <g clip-path="url(#xXxprefixXx5)" clip-bounds-jfx="[rect (21.961210910936405, 0.0), (292.5387890890636, 156.0)]">
          <g transform="translate(21.961210910936405 0.0 ) ">
            <g>
              <g>
                <g>
                  <path d="M127.63423550782873 66.32049902468444 L127.63423550782873 66.32049902468444 L128.3945629234674 66.29067770767183 L129.14579157056218 66.20145149637287 L129.87888325336772 66.05353227438755 L130.58492063934486 65.84810162442048 L131.2551652904431 65.58680401882619 L131.88111837709445 65.27173694480506 L132.4545770151518 64.90543741686616 L132.96768707294402 64.49086923373201 L133.413001908535 64.0314017398465 L133.7835289641841 63.53079252804631 L134.0727800318851 62.99316282918462 L134.27481700065462 62.42297386515018 L134.3842970390391 61.82499812216474 L134.39650648199506 61.20429430249959 L134.30740149514534 60.56617124093446 L134.11363913775278 59.91615812707792 L133.81260221309904 59.25997087410578 L133.40243033145805 58.60347743652248 L132.88203064094162 57.95265857368922 L132.25110041875277 57.313573517910996 L131.5101313070459 56.69231933666218 L130.66042399724148 56.09499940327866 L129.70408018189195 55.5276715487629 L128.64400551978392 54.99632143703507 L127.4838965400707 54.50681912455347 L126.22823594752755 54.06487912319134 L124.88227179623983 53.67602887092903 L123.45198593244577 53.34556108756674 L121.94409007636588 53.078512054534684 L120.36596111944107 52.87960696409291 L118.72564691334128 52.75324870891079 L117.03179313078229 52.703471639082245 L115.29361417928682 52.733914937376966 L113.520863832555 52.84779459318903 L111.72374430066898 53.04787677778811 L109.91288815709018 53.336454022175836 L108.09928717621071 53.71532840145494 L106.2942369847823 54.185786311383055 L104.50927945421988 54.74857744883418 L102.75613492684104 55.403919716357684 L101.0466276647295 56.151468393521775 L99.39263614897737 56.99032384407765 L97.80603660155144 57.91900839446711 L96.2985719560228 58.93549576117651 L94.88187444882038 60.03717251491611 L93.56732781258461 61.2208766164407 L92.36601983453495 62.48289111068805 L91.28869491483766 63.81893992287124 L90.3456433694636 65.22424969095441 L89.54668787543605 66.693499669086 L88.90107051456326 68.22090387896182 L88.41744147781174 69.80018378442492 L88.10376644116681 71.42462767166195 L87.96725653274676 73.08712848437253 L88.01436833280289 74.78015702385756 L88.25071802695615 76.49586424410677 L88.6810317054395 78.2260539263986 L89.30911825359358 79.9622916305749 L90.13784450148802 81.69588647810752 L91.16906293191006 83.41793599378052 L92.40362749424217 85.1194171903571 L93.84133034895211 86.7911627464359 L95.48093349534787 88.42398712368222 L97.32008066568906 90.00864733035603 L99.35538769020086 91.53596343333287 L101.5823747233135 92.99683537373468 L103.99543687503282 94.38225838125804 L106.58794813070622 95.68343788098475 L109.35221955720381 96.89180070380243 L112.27951737592115 97.9990399280866 L115.3601058861609 98.99717373440865 L118.58326779726103 99.87857903679745 L121.93734545763242 100.6360559426574 L125.4097796834758 101.26284737100458 L128.9871872750204 101.7527063149898 L132.65530143209278 102.09990705231928 L136.3991623678183 102.29930960517277 L140.20321600415974 102.34637935843949 L144.0511141805194 102.23722349358492 L147.92607893770156 101.96862181730727 L151.81081893027468 101.53806039279914 L155.68765424324693 100.94374835537832 L159.5385728702 100.18462912290838 L163.34535948343404 99.26042243487568 L167.08951636458042 98.17163556280991 L170.75267004716477 96.91954088944303 L174.31636799532546 95.5062039347606 L177.76220737395857 93.93452539507885 L181.0720699977543 92.20817668312652 L184.22809973994356 90.33162515149114 L187.2128380798188 88.31011727698814 L190.00919699323003 86.14972490364563 L192.60079782138723 83.85719810593478 L194.9718040955845 81.44005487213411 L197.1070887124759 78.90657690042184 L198.9923785180979 76.265698895973 L200.6143265998807 73.52694341038995 L201.960453549389 70.70057953921831 L203.01938241135838 67.79740326776933 L203.78085675669837 64.8286822948313 L204.23573616424136 61.806317707953355 L204.37618146902173 58.74254900925484 L204.1955779520136 55.65013488345664 L203.6887115519084 52.54201495847376 L202.85170560960495 49.43159689727898 L201.6821428609784 46.33244110482504 L200.1790157361224 43.25823130069067 L198.34286642512114 40.22289503110147 L196.17570103128566 37.24036264488818 L193.6809850529034 34.324476208819746 L190.86382411326616 31.489156262608923 L187.73072901163368 28.74806550629593 L184.2898687452727 26.114785364372004 L180.55074067715623 23.602504896609304 L176.524396448498 21.22415252050228 L172.2234374605024 18.992323143534158 L167.66164437780643 16.91902873131977 L162.8544153987981 15.015891687359996 L157.81832346704755 13.293903828999994 L152.57123600495066 11.763446005665187 L147.1322381034672 10.434192810286625 L141.52149245634894 9.315101368880391 L135.7604014523838 8.414349683234668 L129.87108277592364 7.739252552755595 L123.87667551836941 7.296255969257011 L117.80121394954209 7.090909090909101 L111.66934795092065 7.127774558874009 L105.50624050782928 7.410439707726383 L99.33760611456827 7.941482934191768 L93.18986863079797 8.722395224202764 L87.08919776457681 9.753658625842831 L81.06219923515579 11.03467338161277 L75.1357137108224 12.56366263985607 L69.33627235969111 14.337857426697916 L63.69027983885676 16.353322884526733 L58.22388778337498 18.605059165779082 L52.9627824484792 21.08695098604722 L47.932175673079286 23.79182928139211 L43.15656541247441 26.711454392712575 L38.659731220102316 29.83655249961209 L34.46454448100992 33.15683523863474 L30.59290063809277 36.66105015015766 L27.065601717576854 40.33700029662702 L23.902220781497604 44.171583499029886 L21.121056745192803 48.15085539550984 L18.738971720277434 52.260060270023466 L16.77136390513948 56.48377188324844 L15.232131438934275 60.805607256533975 L14.133329014531242 65.20901525492111 L13.485493192564434 69.67642319387865 L13.297217685866542 74.18996061207963 L13.575352162499826 78.73154299922982 L14.324749223716822 83.28233054295067 L15.548381878478608 87.82341126378144 L17.24726221494211 92.3358913991947 L19.420305852939194 96.8003545008051 L22.064494601001783 101.19761673645363 L25.17469572633388 105.50849427398128 L28.743806538834008 109.71392099064474 L32.762654989579744 113.7950661825322 L37.22006292633759 117.73337660364032 L42.10285513006431 121.51071659613115 L47.3959225704168 125.10937369554227 L53.082226924002725 128.5122183792797 L59.14288642114391 131.70274890829995 L65.55719391887905 134.66513056358215 L72.30283377699746 137.3843974336976 L79.35552491623358 139.84627304808117 L86.68972114712571 142.03755153133 L94.27818193619935 143.9459350521052 L102.09262529319352 145.5602804523843 L110.10317767403791 146.87044790678362 L118.27902517373512 147.86750831533843 L126.58795435913325 148.54371527745155 L134.9972045239642 148.89262280130913 L143.47311131181982 148.9090909090909 L151.98123153282737 148.58929124218054 L160.48712538580216 147.93076871847845 L168.95521955341493 146.9324751636636 L177.35022875681864 145.5947693111935 L185.6366689141354 143.91943361793489 L193.7792524873928 141.90964063290227 L201.74254283634525 139.57009873272483 L209.49174491234675 136.90691199138982 L216.9928091781169 133.92747928645747 L224.21204303818058 130.64072971789247 L231.11663495594937 127.0569376361251 L237.67489392100862 123.18764416910726 L243.85595124457114 119.04589264114401 L249.63048347958954 114.64582499775388 L254.9703690337026 110.00292563231578 L259.84928457832814 105.13363462656014 L264.2423526251081 100.05563081368771 L268.12634032893953 94.78781496273874 L271.4801564955516 89.34982492790434 L274.2845804864636 83.7622836790811 L276.52255138702964 78.04655197196777 L278.17905053192067 72.22517186032816 L279.2415714031971 66.32046613979453 " fill="none" stroke-width="1.6500000000000001" stroke="rgb(187,187,187)" stroke-opacity="1.0">
                  </path>
                </g>
              </g>
            </g>
          </g>
          <defs>
            <clipPath id="xXxprefixXx5">
              <rect x="21.961210910936405" y="0.0" width="292.5387890890636" height="156.0">
              </rect>
            </clipPath>
          </defs>
        </g>
        <g>
        </g>
      </g>
      <g transform="translate(51.4612109109364 16.8 ) ">
        <text class="plot-title" y="0.0">
          <tspan>`path` layer</tspan>
        </text>
      </g>
      <g transform="translate(16.0 104.5 ) rotate(-90.0 ) ">
        <text class="axis-title-y" y="0.0" text-anchor="middle">
          <tspan>y</tspan>
        </text>
      </g>
      <g transform="translate(197.7306054554682 228.0 ) ">
        <text class="axis-title-x" y="0.0" text-anchor="middle">
          <tspan>x</tspan>
        </text>
      </g>
      <path fill="rgb(0,0,0)" fill-opacity="0.0" stroke="rgb(187,187,187)" stroke-opacity="1.0" stroke-width="0.0" d="M0.0 0.0 L0.0 235.0 L350.5 235.0 L350.5 0.0 Z" pointer-events="none">
      </path>
    </g>
    <g id="xXxprefixXx6">
    </g>
  </svg>
</svg>