<svg xmlns="http://www.w3.org/2000/svg" xmlns:xlink="http://www.w3.org/1999/xlink" class="plt-container" width="705.0" height="235.0">
  <g id="xXxprefixXx0">
  </g>
  <svg xmlns="http://www.w3.org/2000/svg" xmlns:xlink="http://www.w3.org/1999/xlink" class="plt-container" width="350.5" height="235.0" x="0.0" y="0.0">
    <style type="text/css">
    .plt-container {
   font-family: Lucida Grande, sans-serif;
   user-select: none;
   -webkit-user-select: none;
   -moz-user-select: none;
   -ms-user-select: none;
}
text {
   text-rendering: optimizeLegibility;
}
#xXxprefixXx1 .plot-title {
   fill: #bbbbbb;
   font-family: Lucida Grande, sans-serif;
   font-size: 16.0px;
   font-weight: normal;
   font-style: normal;   
}
#xXxprefixXx1 .plot-subtitle {
   fill: #bbbbbb;
   font-family: Lucida Grande, sans-serif;
   font-size: 15.0px;
   font-weight: normal;
   font-style: normal;   
}
#xXxprefixXx1 .plot-caption {
   fill: #bbbbbb;
   font-family: Lucida Grande, sans-serif;
   font-size: 13.0px;
   font-weight: normal;
   font-style: normal;   
}
#xXxprefixXx1 .legend-title {
   fill: #bbbbbb;
   font-family: Lucida Grande, sans-serif;
   font-size: 15.0px;
   font-weight: normal;
   font-style: normal;   
}
#xXxprefixXx1 .legend-item {
   fill: #bbbbbb;
   font-family: Lucida Grande, sans-serif;
   font-size: 13.0px;
   font-weight: normal;
   font-style: normal;   
}
#xXxprefixXx1 .axis-title-x {
   fill: #bbbbbb;
   font-family: Lucida Grande, sans-serif;
   font-size: 15.0px;
   font-weight: normal;
   font-style: normal;   
}
#xXxprefixXx1 .axis-text-x {
   fill: #bbbbbb;
   font-family: Lucida Grande, sans-serif;
   font-size: 13.0px;
   font-weight: normal;
   font-style: normal;   
}
#xXxprefixXx3 .axis-tooltip-text-x {
   fill: #303030;
   font-family: Lucida Grande, sans-serif;
   font-size: 13.0px;
   font-weight: normal;
   font-style: normal;   
}
#xXxprefixXx1 .axis-title-y {
   fill: #bbbbbb;
   font-family: Lucida Grande, sans-serif;
   font-size: 15.0px;
   font-weight: normal;
   font-style: normal;   
}
#xXxprefixXx1 .axis-text-y {
   fill: #bbbbbb;
   font-family: Lucida Grande, sans-serif;
   font-size: 13.0px;
   font-weight: normal;
   font-style: normal;   
}
#xXxprefixXx3 .axis-tooltip-text-y {
   fill: #303030;
   font-family: Lucida Grande, sans-serif;
   font-size: 13.0px;
   font-weight: normal;
   font-style: normal;   
}
#xXxprefixXx1 .facet-strip-text-x {
   fill: #bbbbbb;
   font-family: Lucida Grande, sans-serif;
   font-size: 13.0px;
   font-weight: normal;
   font-style: normal;   
}
#xXxprefixXx1 .facet-strip-text-y {
   fill: #bbbbbb;
   font-family: Lucida Grande, sans-serif;
   font-size: 13.0px;
   font-weight: normal;
   font-style: normal;   
}
#xXxprefixXx3 .tooltip-text {
   fill: #bbbbbb;
   font-family: Lucida Grande, sans-serif;
   font-size: 13.0px;
   font-weight: normal;
   font-style: normal;   
}
#xXxprefixXx3 .tooltip-title {
   fill: #bbbbbb;
   font-family: Lucida Grande, sans-serif;
   font-size: 13.0px;
   font-weight: bold;
   font-style: normal;   
}
#xXxprefixXx3 .tooltip-label {
   fill: #bbbbbb;
   font-family: Lucida Grande, sans-serif;
   font-size: 13.0px;
   font-weight: bold;
   font-style: normal;   
}

    </style>
    <g id="xXxprefixXx1">
      <path fill-rule="evenodd" fill="rgb(25,25,28)" fill-opacity="1.0" d="M0.0 0.0 L0.0 235.0 L350.5 235.0 L350.5 0.0 Z">
      </path>
      <g transform="translate(23.0 34.0 ) ">
        <g transform="translate(21.961210910936405 155.0 ) ">
          <line x1="52.362092638116664" y1="-0.0" x2="52.362092638116664" y2="-155.0" stroke="rgb(71,71,71)" stroke-opacity="1.0" stroke-width="1.0">
          </line>
          <line x1="128.9431310143556" y1="-0.0" x2="128.9431310143556" y2="-155.0" stroke="rgb(71,71,71)" stroke-opacity="1.0" stroke-width="1.0">
          </line>
          <line x1="205.52416939059452" y1="-0.0" x2="205.52416939059452" y2="-155.0" stroke="rgb(71,71,71)" stroke-opacity="1.0" stroke-width="1.0">
          </line>
          <line x1="282.1052077668335" y1="-0.0" x2="282.1052077668335" y2="-155.0" stroke="rgb(71,71,71)" stroke-opacity="1.0" stroke-width="1.0">
          </line>
          <g transform="translate(52.362092638116664 0.0 ) ">
            <line stroke-width="1.0" stroke="rgb(187,187,187)" stroke-opacity="1.0" x2="0.0" y2="4.0">
            </line>
            <g transform="translate(0.0 7.0 ) ">
              <text class="axis-text-x" text-anchor="middle" dy="0.7em">
              -1
              </text>
            </g>
          </g>
          <g transform="translate(128.9431310143556 0.0 ) ">
            <line stroke-width="1.0" stroke="rgb(187,187,187)" stroke-opacity="1.0" x2="0.0" y2="4.0">
            </line>
            <g transform="translate(0.0 7.0 ) ">
              <text class="axis-text-x" text-anchor="middle" dy="0.7em">
              0
              </text>
            </g>
          </g>
          <g transform="translate(205.52416939059452 0.0 ) ">
            <line stroke-width="1.0" stroke="rgb(187,187,187)" stroke-opacity="1.0" x2="0.0" y2="4.0">
            </line>
            <g transform="translate(0.0 7.0 ) ">
              <text class="axis-text-x" text-anchor="middle" dy="0.7em">
              1
              </text>
            </g>
          </g>
          <g transform="translate(282.1052077668335 0.0 ) ">
            <line stroke-width="1.0" stroke="rgb(187,187,187)" stroke-opacity="1.0" x2="0.0" y2="4.0">
            </line>
            <g transform="translate(0.0 7.0 ) ">
              <text class="axis-text-x" text-anchor="middle" dy="0.7em">
              2
              </text>
            </g>
          </g>
          <line x1="0.0" y1="0.0" x2="295.5387890890636" y2="0.0" stroke-width="1.0" stroke="rgb(187,187,187)" stroke-opacity="1.0">
          </line>
        </g>
        <g transform="translate(21.961210910936405 0.0 ) ">
          <line x1="0.0" y1="112.61386966703992" x2="295.5387890890636" y2="112.61386966703992" stroke="rgb(71,71,71)" stroke-opacity="1.0" stroke-width="1.0">
          </line>
          <line x1="0.0" y1="65.89536762068005" x2="295.5387890890636" y2="65.89536762068005" stroke="rgb(71,71,71)" stroke-opacity="1.0" stroke-width="1.0">
          </line>
          <line x1="0.0" y1="19.176865574320182" x2="295.5387890890636" y2="19.176865574320182" stroke="rgb(71,71,71)" stroke-opacity="1.0" stroke-width="1.0">
          </line>
          <g transform="translate(0.0 112.61386966703992 ) ">
            <g transform="translate(-3.0 0.0 ) ">
              <text class="axis-text-y" text-anchor="end" dy="0.35em">
              -1
              </text>
            </g>
          </g>
          <g transform="translate(0.0 65.89536762068005 ) ">
            <g transform="translate(-3.0 0.0 ) ">
              <text class="axis-text-y" text-anchor="end" dy="0.35em">
              0
              </text>
            </g>
          </g>
          <g transform="translate(0.0 19.176865574320182 ) ">
            <g transform="translate(-3.0 0.0 ) ">
              <text class="axis-text-y" text-anchor="end" dy="0.35em">
              1
              </text>
            </g>
          </g>
        </g>
        <g transform="translate(21.961210910936405 0.0 ) " clip-path="url(#xXxprefixXx2)" clip-bounds-jfx="[rect (0.0, 0.0), (295.5387890890636, 155.0)]">
          <defs>
            <clipPath id="xXxprefixXx2">
              <rect x="0.0" y="0.0" width="295.5387890890636" height="155.0">
              </rect>
            </clipPath>
          </defs>
          <g>
            <path d="M13.433581322230168 73.71438394148937 L13.433581322230168 73.71438394148937 L13.623787603721567 69.22977945545634 L13.714568081914535 78.22685362102962 L14.278267014635858 64.79100874687674 L14.471650247697156 82.74846944972663 L15.388337713182878 60.41582772283824 L15.707831316895593 87.26044067875719 L16.943355085769213 56.121696422458385 L17.42413375668174 91.74399465945626 L18.931140818043545 51.925059883677164 L19.619462066514288 96.17983940785122 L21.337654244734267 47.84219606605144 L22.29076710321978 100.54891406506611 L24.14733925815426 43.88843232275405 L25.4328634975692 104.83215777222499 L27.343160824885572 40.078429781905044 L29.038575721016713 109.0106266253201 L30.90663237329298 36.42604341842588 L33.09863766481675 113.06561063008007 L34.81798011860515 32.94429142300246 L37.60175654422228 116.97867547156571 L39.05618870877059 29.645292547691497 L42.53462202765593 120.73180174615595 L43.59913816202527 26.540227120964417 L47.88197014090825 124.30739053082725 L48.42372254611793 23.63931755522934 L53.50591844709395 20.951778223316147 L53.62658783172333 127.68842210761764 L58.82097668189006 18.48579596599844 L59.74939969692497 130.85850051786213 L64.34342686291996 16.2484938916772 L66.22948624075902 133.80189254714895 L70.04731932111045 14.24594808421908 L73.04430297500167 136.503728219379 L75.90623423507276 12.483126340882627 L80.16931981669795 138.94982257982426 L81.89349616662503 10.963938295833195 L87.57872859892794 141.12705440612916 L87.98230186918903 9.69113517311306 L88.8693651742025 72.61862125049835 L88.91696010813843 74.3007970429354 L89.00727499860133 70.9667774942795 L89.15573358029621 76.00550613997788 L89.32416678852833 69.35274670888373 L89.59046014720187 77.72460486276785 L89.81275546538356 67.78359039255821 L90.22498775450688 79.4497128380712 L90.46499366477367 66.2659772353098 L91.06221263176744 81.17219489811964 L91.27214248758867 64.80614552626879 L92.10400625907499 82.88320563484604 L92.22486507400632 63.40984415413488 L93.31323801495628 62.08235975741441 L93.3512313431059 84.57377990067532 L94.14553542207358 8.666482434304022 L94.52686546675974 60.82843509966864 L94.803677912923 86.23480913908696 L95.24500943517586 143.0232046992071 L95.85489284488615 59.652318844948695 L96.46009527207498 87.8571666934022 L97.28611865630026 58.557704121681795 L98.31810298917718 89.4316688218281 L98.8090424276107 57.547732699630785 L100.35631826303818 7.890575992305919 L100.37428218962347 90.94919443696534 L100.41191263321875 56.62500125533356 L102.08286591517873 55.791523083306885 L102.62410708680244 92.40070181364663 L103.13959030194773 144.6272017315357 L103.80990426027009 55.048766384842565 L105.06191531229098 93.7772439044551 L105.58102737297949 54.397625029290374 L106.58821231235166 7.362936889087109 L107.38428973282066 53.838441527335725 L107.6810129013229 95.0700825099528 L109.20785080477587 53.37099937324049 L110.47363207037222 96.27069941723958 L111.04005035495817 52.994553675879835 L111.23229130047584 145.92897067661193 L112.81452273234346 7.08208369631712 L112.86947691939518 52.7078262856228 L113.43094947549551 97.3708409541886 L114.6850260024954 52.50902667913012 L116.47595599322165 52.39587702111172 L116.54312957589497 98.3625764668804 L118.23196005731405 52.36562887216505 L119.0092713252805 7.045454545454554 L119.49198252761676 146.9196396722914 L119.79934517455364 99.2383317352795 L119.94318439563251 52.41508685821264 L121.60032010644154 52.54063512457949 L123.18781907007882 99.99095301994807 L123.19463285521671 52.73826518239022 L124.7179922591643 53.00360236264644 L125.14703705815812 7.2494850976592105 L126.16294577645057 53.33195176278205 L126.69586328360954 100.61372655452378 L127.52271285782642 53.718309385222156 L127.88612019984089 147.59151197439093 L128.79125031291952 54.15741643785762 L128.9431310143556 65.89536762068005 L129.96325626858584 54.64378091500279 L130.30995736998807 101.10044537707319 L130.47018816056013 65.77708321754997 L131.0342020496871 55.171724936270834 L131.20291726372264 7.689641959468695 L131.21079773545537 65.63011219570558 L132.00035321897755 55.735416073770466 L132.60119361406294 65.16637578793627 L132.85877431999359 56.32890703322204 L133.23356588111017 64.85332837464604 L133.60734210721984 56.946178815873104 L133.81290536635203 64.4893769206042 L134.01568822228737 101.44542046865055 L134.24474255057987 57.581167172575825 L134.3312773936019 64.07746622582347 L134.77047896610435 58.2278141196217 L134.78115895523607 63.62094403638594 L135.18485718102767 58.88009926593843 L135.44770313643517 62.58936050335651 L135.4889812544892 59.53208019036588 L135.65181200448407 62.02282659678383 L135.68473065460518 60.17792655349257 L135.76241476617025 61.42868403163804 L136.3816076481892 147.93818291155713 L137.15263119950686 8.360411544239568 L137.79794264026575 101.6435448000114 L141.64100703803328 101.69031282409053 L142.97280248156338 9.25538918061833 L144.94443528658482 147.95454545454544 L145.52836560378276 101.58185667631835 L148.64108660757452 10.367306958938627 L149.4430683195028 101.31497680565786 L153.36764651614456 100.88717539028119 L153.53980670851004 147.63679578549988 L154.13586170617862 11.688039300500662 L157.28423897029842 100.29667304540794 L159.43675831418503 13.208686496762809 L161.1746489615141 99.54241996186408 L162.1329289308863 146.98249456002665 L164.524495622066 14.919635971415374 L165.02047436298975 98.62413767567776 L168.80302776132422 97.54233020663806 L169.38102297611013 16.810573418939512 L170.68786383022547 145.99060032287088 L172.50374726922007 96.29826178117737 L173.98959747637707 18.870577482357653 L176.10399111913202 94.89398467876855 L178.33466301517976 21.088100260755468 L179.1689642753706 144.66146950791662 L179.5851677539563 93.33238100152064 L182.40229760647188 23.451206788297704 L182.92897318548125 91.61709862746545 L186.11736817145936 89.75257627231491 L186.17977062104583 25.947382894087568 L187.54038229339895 142.99687314602505 L189.1327151531749 87.74402678162284 L189.65591708255113 28.56378303510172 L191.95775086793054 85.59748307734021 L192.82114223207972 31.28730269682297 L194.57592869296627 83.31965196423008 L195.66719329888684 34.10444751517346 L195.76646847086084 140.999963449358 L196.9712497557929 80.91800323833837 L198.18749271513883 37.001642371523516 L199.12843182385862 78.40076551003453 L200.37688249912014 39.96505596038928 L201.03305537128796 75.7768162107424 L202.2318616136841 42.980934946199056 L202.67163661225112 73.05561685006694 L203.75040338282912 46.03543827723001 L203.81142276298218 138.67541861264328 L204.03156816135146 70.2473706960182 L204.93196005628465 49.11472768639898 L205.101356392076 67.36280452887337 L205.77754953663694 52.205207170278406 L205.87063969513792 64.41311381858237 L206.28961387717612 55.29340324958832 L206.33018391389066 61.4101233636716 L206.47206949233748 58.36599420791346 L211.64009329614245 136.02930358118863 L219.2180813533434 133.06896980385196 L226.51134881984822 129.80328914277777 L233.48674767511002 126.24247008717558 L240.1122619158079 122.39797978340786 L246.3567062931982 118.2827779447264 L252.19045664680863 113.9109158631529 L257.5851029959336 109.29777867313427 L262.51405206493195 104.45970107126169 L266.95217124555086 99.41424856488203 L270.87598943869205 94.18020076425964 L274.2641991588263 88.77706963990495 L277.0973826588581 83.22534596318954 L279.35830406360384 77.54625356189106 L281.0317906905657 71.76218998942862 L282.1052077668335 65.89533494659072 " fill="none" stroke-width="1.6500000000000001" stroke="rgb(187,187,187)" stroke-opacity="1.0">
            </path>
          </g>
        </g>
      </g>
      <g transform="translate(44.9612109109364 15.2 ) ">
        <text class="plot-title" y="0.0">
        `line` layer
        </text>
      </g>
      <g transform="translate(14.5 111.5 ) rotate(-90.0 ) ">
        <text class="axis-title-y" y="0.0" text-anchor="middle">
        y
        </text>
      </g>
      <g transform="translate(192.7306054554682 226.5 ) ">
        <text class="axis-title-x" y="0.0" text-anchor="middle">
        x
        </text>
      </g>
      <path fill="rgb(0,0,0)" fill-opacity="0.0" stroke="rgb(187,187,187)" stroke-opacity="1.0" stroke-width="0.0" d="M0.0 0.0 L0.0 235.0 L350.5 235.0 L350.5 0.0 Z">
      </path>
    </g>
    <g id="xXxprefixXx3">
    </g>
  </svg>
  <svg xmlns="http://www.w3.org/2000/svg" xmlns:xlink="http://www.w3.org/1999/xlink" class="plt-container" width="350.5" height="235.0" x="354.5" y="0.0">
    <style type="text/css">
    .plt-container {
   font-family: Lucida Grande, sans-serif;
   user-select: none;
   -webkit-user-select: none;
   -moz-user-select: none;
   -ms-user-select: none;
}
text {
   text-rendering: optimizeLegibility;
}
#xXxprefixXx4 .plot-title {
   fill: #bbbbbb;
   font-family: Lucida Grande, sans-serif;
   font-size: 16.0px;
   font-weight: normal;
   font-style: normal;   
}
#xXxprefixXx4 .plot-subtitle {
   fill: #bbbbbb;
   font-family: Lucida Grande, sans-serif;
   font-size: 15.0px;
   font-weight: normal;
   font-style: normal;   
}
#xXxprefixXx4 .plot-caption {
   fill: #bbbbbb;
   font-family: Lucida Grande, sans-serif;
   font-size: 13.0px;
   font-weight: normal;
   font-style: normal;   
}
#xXxprefixXx4 .legend-title {
   fill: #bbbbbb;
   font-family: Lucida Grande, sans-serif;
   font-size: 15.0px;
   font-weight: normal;
   font-style: normal;   
}
#xXxprefixXx4 .legend-item {
   fill: #bbbbbb;
   font-family: Lucida Grande, sans-serif;
   font-size: 13.0px;
   font-weight: normal;
   font-style: normal;   
}
#xXxprefixXx4 .axis-title-x {
   fill: #bbbbbb;
   font-family: Lucida Grande, sans-serif;
   font-size: 15.0px;
   font-weight: normal;
   font-style: normal;   
}
#xXxprefixXx4 .axis-text-x {
   fill: #bbbbbb;
   font-family: Lucida Grande, sans-serif;
   font-size: 13.0px;
   font-weight: normal;
   font-style: normal;   
}
#xXxprefixXx6 .axis-tooltip-text-x {
   fill: #303030;
   font-family: Lucida Grande, sans-serif;
   font-size: 13.0px;
   font-weight: normal;
   font-style: normal;   
}
#xXxprefixXx4 .axis-title-y {
   fill: #bbbbbb;
   font-family: Lucida Grande, sans-serif;
   font-size: 15.0px;
   font-weight: normal;
   font-style: normal;   
}
#xXxprefixXx4 .axis-text-y {
   fill: #bbbbbb;
   font-family: Lucida Grande, sans-serif;
   font-size: 13.0px;
   font-weight: normal;
   font-style: normal;   
}
#xXxprefixXx6 .axis-tooltip-text-y {
   fill: #303030;
   font-family: Lucida Grande, sans-serif;
   font-size: 13.0px;
   font-weight: normal;
   font-style: normal;   
}
#xXxprefixXx4 .facet-strip-text-x {
   fill: #bbbbbb;
   font-family: Lucida Grande, sans-serif;
   font-size: 13.0px;
   font-weight: normal;
   font-style: normal;   
}
#xXxprefixXx4 .facet-strip-text-y {
   fill: #bbbbbb;
   font-family: Lucida Grande, sans-serif;
   font-size: 13.0px;
   font-weight: normal;
   font-style: normal;   
}
#xXxprefixXx6 .tooltip-text {
   fill: #bbbbbb;
   font-family: Lucida Grande, sans-serif;
   font-size: 13.0px;
   font-weight: normal;
   font-style: normal;   
}
#xXxprefixXx6 .tooltip-title {
   fill: #bbbbbb;
   font-family: Lucida Grande, sans-serif;
   font-size: 13.0px;
   font-weight: bold;
   font-style: normal;   
}
#xXxprefixXx6 .tooltip-label {
   fill: #bbbbbb;
   font-family: Lucida Grande, sans-serif;
   font-size: 13.0px;
   font-weight: bold;
   font-style: normal;   
}

    </style>
    <g id="xXxprefixXx4">
      <path fill-rule="evenodd" fill="rgb(25,25,28)" fill-opacity="1.0" d="M0.0 0.0 L0.0 235.0 L350.5 235.0 L350.5 0.0 Z">
      </path>
      <g transform="translate(23.0 34.0 ) ">
        <g transform="translate(21.961210910936405 155.0 ) ">
          <line x1="52.362092638116664" y1="-0.0" x2="52.362092638116664" y2="-155.0" stroke="rgb(71,71,71)" stroke-opacity="1.0" stroke-width="1.0">
          </line>
          <line x1="128.9431310143556" y1="-0.0" x2="128.9431310143556" y2="-155.0" stroke="rgb(71,71,71)" stroke-opacity="1.0" stroke-width="1.0">
          </line>
          <line x1="205.52416939059452" y1="-0.0" x2="205.52416939059452" y2="-155.0" stroke="rgb(71,71,71)" stroke-opacity="1.0" stroke-width="1.0">
          </line>
          <line x1="282.1052077668335" y1="-0.0" x2="282.1052077668335" y2="-155.0" stroke="rgb(71,71,71)" stroke-opacity="1.0" stroke-width="1.0">
          </line>
          <g transform="translate(52.362092638116664 0.0 ) ">
            <line stroke-width="1.0" stroke="rgb(187,187,187)" stroke-opacity="1.0" x2="0.0" y2="4.0">
            </line>
            <g transform="translate(0.0 7.0 ) ">
              <text class="axis-text-x" text-anchor="middle" dy="0.7em">
              -1
              </text>
            </g>
          </g>
          <g transform="translate(128.9431310143556 0.0 ) ">
            <line stroke-width="1.0" stroke="rgb(187,187,187)" stroke-opacity="1.0" x2="0.0" y2="4.0">
            </line>
            <g transform="translate(0.0 7.0 ) ">
              <text class="axis-text-x" text-anchor="middle" dy="0.7em">
              0
              </text>
            </g>
          </g>
          <g transform="translate(205.52416939059452 0.0 ) ">
            <line stroke-width="1.0" stroke="rgb(187,187,187)" stroke-opacity="1.0" x2="0.0" y2="4.0">
            </line>
            <g transform="translate(0.0 7.0 ) ">
              <text class="axis-text-x" text-anchor="middle" dy="0.7em">
              1
              </text>
            </g>
          </g>
          <g transform="translate(282.1052077668335 0.0 ) ">
            <line stroke-width="1.0" stroke="rgb(187,187,187)" stroke-opacity="1.0" x2="0.0" y2="4.0">
            </line>
            <g transform="translate(0.0 7.0 ) ">
              <text class="axis-text-x" text-anchor="middle" dy="0.7em">
              2
              </text>
            </g>
          </g>
          <line x1="0.0" y1="0.0" x2="295.5387890890636" y2="0.0" stroke-width="1.0" stroke="rgb(187,187,187)" stroke-opacity="1.0">
          </line>
        </g>
        <g transform="translate(21.961210910936405 0.0 ) ">
          <line x1="0.0" y1="112.61386966703992" x2="295.5387890890636" y2="112.61386966703992" stroke="rgb(71,71,71)" stroke-opacity="1.0" stroke-width="1.0">
          </line>
          <line x1="0.0" y1="65.89536762068005" x2="295.5387890890636" y2="65.89536762068005" stroke="rgb(71,71,71)" stroke-opacity="1.0" stroke-width="1.0">
          </line>
          <line x1="0.0" y1="19.176865574320182" x2="295.5387890890636" y2="19.176865574320182" stroke="rgb(71,71,71)" stroke-opacity="1.0" stroke-width="1.0">
          </line>
          <g transform="translate(0.0 112.61386966703992 ) ">
            <g transform="translate(-3.0 0.0 ) ">
              <text class="axis-text-y" text-anchor="end" dy="0.35em">
              -1
              </text>
            </g>
          </g>
          <g transform="translate(0.0 65.89536762068005 ) ">
            <g transform="translate(-3.0 0.0 ) ">
              <text class="axis-text-y" text-anchor="end" dy="0.35em">
              0
              </text>
            </g>
          </g>
          <g transform="translate(0.0 19.176865574320182 ) ">
            <g transform="translate(-3.0 0.0 ) ">
              <text class="axis-text-y" text-anchor="end" dy="0.35em">
              1
              </text>
            </g>
          </g>
        </g>
        <g transform="translate(21.961210910936405 0.0 ) " clip-path="url(#xXxprefixXx5)" clip-bounds-jfx="[rect (0.0, 0.0), (295.5387890890636, 155.0)]">
          <defs>
            <clipPath id="xXxprefixXx5">
              <rect x="0.0" y="0.0" width="295.5387890890636" height="155.0">
              </rect>
            </clipPath>
          </defs>
          <g>
            <path d="M128.9431310143556 65.89536762068005 L128.9431310143556 65.89536762068005 L130.47018816056013 65.77708321754997 L131.92407557034707 65.42599840887932 L133.23356588111017 64.85332837464604 L134.3312773936019 64.07746622582347 L135.44770313643517 62.58936050335651 L135.76241476617025 61.42868403163804 L135.68473065460518 60.17792655349257 L135.18485718102767 58.88009926593843 L134.24474255057987 57.581167172575825 L132.85877431999359 56.32890703322204 L131.0342020496871 55.171724936270834 L129.96325626858584 54.64378091500279 L128.79125031291952 54.15741643785762 L127.52271285782642 53.718309385222156 L126.16294577645057 53.33195176278205 L124.7179922591643 53.00360236264644 L123.19463285521671 52.73826518239022 L121.60032010644154 52.54063512457949 L119.94318439563251 52.41508685821264 L118.23196005731405 52.36562887216505 L116.47595599322165 52.39587702111172 L114.6850260024954 52.50902667913012 L112.86947691939518 52.7078262856228 L111.04005035495817 52.994553675879835 L109.20785080477587 53.37099937324049 L107.38428973282066 53.838441527335725 L105.58102737297949 54.397625029290374 L103.80990426027009 55.048766384842565 L102.08286591517873 55.791523083306885 L100.41191263321875 56.62500125533356 L98.8090424276107 57.547732699630785 L97.28611865630026 58.557704121681795 L95.85489284488615 59.652318844948695 L94.52686546675974 60.82843509966864 L93.31323801495628 62.08235975741441 L92.22486507400632 63.40984415413488 L91.27214248758867 64.80614552626879 L90.46499366477367 66.2659772353098 L89.81275546538356 67.78359039255821 L89.32416678852833 69.35274670888373 L89.00727499860133 70.9667774942795 L88.8693651742025 72.61862125049835 L88.91696010813843 74.3007970429354 L89.15573358029621 76.00550613997788 L89.59046014720187 77.72460486276785 L90.22498775450688 79.4497128380712 L91.06221263176744 81.17219489811964 L92.10400625907499 82.88320563484604 L93.3512313431059 84.57377990067532 L94.803677912923 86.23480913908696 L96.46009527207498 87.8571666934022 L98.31810298917718 89.4316688218281 L100.37428218962347 90.94919443696534 L102.62410708680244 92.40070181364663 L105.06191531229098 93.7772439044551 L107.6810129013229 95.0700825099528 L110.47363207037222 96.27069941723958 L113.43094947549551 97.3708409541886 L116.54312957589497 98.3625764668804 L119.79934517455364 99.2383317352795 L123.18781907007882 99.99095301994807 L126.69586328360954 100.61372655452378 L130.30995736998807 101.10044537707319 L134.01568822228737 101.44542046865055 L137.79794264026575 101.6435448000114 L141.64100703803328 101.69031282409053 L145.52836560378276 101.58185667631835 L149.4430683195028 101.31497680565786 L153.36764651614456 100.88717539028119 L157.28423897029842 100.29667304540794 L161.1746489615141 99.54241996186408 L165.02047436298975 98.62413767567776 L168.80302776132422 97.54233020663806 L172.50374726922007 96.29826178117737 L176.10399111913202 94.89398467876855 L179.5851677539563 93.33238100152064 L182.92897318548125 91.61709862746545 L186.11736817145936 89.75257627231491 L189.1327151531749 87.74402678162284 L191.95775086793054 85.59748307734021 L194.57592869296627 83.31965196423008 L196.9712497557929 80.91800323833837 L199.12843182385862 78.40076551003453 L201.03305537128796 75.7768162107424 L202.67163661225112 73.05561685006694 L204.03156816135146 70.2473706960182 L205.101356392076 67.36280452887337 L205.87063969513792 64.41311381858237 L206.33018391389066 61.4101233636716 L206.47206949233748 58.36599420791346 L206.28961387717612 55.29340324958832 L205.77754953663694 52.205207170278406 L204.93196005628465 49.11472768639898 L203.75040338282912 46.03543827723001 L202.2318616136841 42.980934946199056 L200.37688249912014 39.96505596038928 L198.18749271513883 37.001642371523516 L195.66719329888684 34.10444751517346 L192.82114223207972 31.28730269682297 L189.65591708255113 28.56378303510172 L186.17977062104583 25.947382894087568 L182.40229760647188 23.451206788297704 L178.33466301517976 21.088100260755468 L173.98959747637707 18.870577482357653 L169.38102297611013 16.810573418939512 L164.524495622066 14.919635971415374 L159.43675831418503 13.208686496762809 L154.13586170617862 11.688039300500662 L148.64108660757452 10.367306958938627 L142.97280248156338 9.25538918061833 L137.15263119950686 8.360411544239568 L131.20291726372264 7.689641959468695 L125.14703705815812 7.2494850976592105 L119.0092713252805 7.045454545454554 L112.81452273234346 7.08208369631712 L106.58821231235166 7.362936889087109 L100.35631826303818 7.890575992305919 L94.14553542207358 8.666482434304022 L87.98230186918903 9.69113517311306 L81.89349616662503 10.963938295833195 L75.90623423507276 12.483126340882627 L70.04731932111045 14.24594808421908 L64.34342686291996 16.2484938916772 L58.82097668189006 18.48579596599844 L53.50591844709395 20.951778223316147 L48.42372254611793 23.63931755522934 L43.59913816202527 26.540227120964417 L39.05618870877059 29.645292547691497 L34.81798011860515 32.94429142300246 L30.90663237329298 36.42604341842588 L27.343160824885572 40.078429781905044 L24.14733925815426 43.88843232275405 L21.337654244734267 47.84219606605144 L18.931140818043545 51.925059883677164 L16.943355085769213 56.121696422458385 L15.388337713182878 60.41582772283824 L14.278267014635858 64.79100874687674 L13.623787603721567 69.22977945545634 L13.433581322230168 73.71438394148937 L13.714568081914535 78.22685362102962 L14.471650247697156 82.74846944972663 L15.707831316895593 87.26044067875719 L17.42413375668174 91.74399465945626 L19.619462066514288 96.17983940785122 L22.29076710321978 100.54891406506611 L25.4328634975692 104.83215777222499 L29.038575721016713 109.0106266253201 L33.09863766481675 113.06561063008007 L37.60175654422228 116.97867547156571 L42.53462202765593 120.73180174615595 L47.88197014090825 124.30739053082725 L53.62658783172333 127.68842210761764 L59.74939969692497 130.85850051786213 L66.22948624075902 133.80189254714895 L73.04430297500167 136.503728219379 L80.16931981669795 138.94982257982426 L87.57872859892794 141.12705440612916 L95.24500943517586 143.0232046992071 L103.13959030194773 144.6272017315357 L111.23229130047584 145.92897067661193 L119.49198252761676 146.9196396722914 L127.88612019984089 147.59151197439093 L136.3816076481892 147.93818291155713 L144.94443528658482 147.95454545454544 L153.53980670851004 147.63679578549988 L162.1329289308863 146.98249456002665 L170.68786383022547 145.99060032287088 L179.1689642753706 144.66146950791662 L187.54038229339895 142.99687314602505 L195.76646847086084 140.999963449358 L203.81142276298218 138.67541861264328 L211.64009329614245 136.02930358118863 L219.2180813533434 133.06896980385196 L226.51134881984822 129.80328914277777 L233.48674767511002 126.24247008717558 L240.1122619158079 122.39797978340786 L246.3567062931982 118.2827779447264 L252.19045664680863 113.9109158631529 L257.5851029959336 109.29777867313427 L262.51405206493195 104.45970107126169 L266.95217124555086 99.41424856488203 L270.87598943869205 94.18020076425964 L274.2641991588263 88.77706963990495 L277.0973826588581 83.22534596318954 L279.35830406360384 77.54625356189106 L281.0317906905657 71.76218998942862 L282.1052077668335 65.89533494659072 " fill="none" stroke-width="1.6500000000000001" stroke="rgb(187,187,187)" stroke-opacity="1.0">
            </path>
          </g>
        </g>
      </g>
      <g transform="translate(44.9612109109364 15.2 ) ">
        <text class="plot-title" y="0.0">
        `path` layer
        </text>
      </g>
      <g transform="translate(14.5 111.5 ) rotate(-90.0 ) ">
        <text class="axis-title-y" y="0.0" text-anchor="middle">
        y
        </text>
      </g>
      <g transform="translate(192.7306054554682 226.5 ) ">
        <text class="axis-title-x" y="0.0" text-anchor="middle">
        x
        </text>
      </g>
      <path fill="rgb(0,0,0)" fill-opacity="0.0" stroke="rgb(187,187,187)" stroke-opacity="1.0" stroke-width="0.0" d="M0.0 0.0 L0.0 235.0 L350.5 235.0 L350.5 0.0 Z">
      </path>
    </g>
    <g id="xXxprefixXx6">
    </g>
  </svg>
</svg>