<svg xmlns="http://www.w3.org/2000/svg" xmlns:xlink="http://www.w3.org/1999/xlink" display="block" class="plt-container" width="600.0" height="400.0">
  <g id="xXxprefixXx0">
    <rect x="0.0" y="0.0" height="400.0" width="600.0" fill="rgb(255,255,255)" fill-opacity="1.0" stroke="rgb(71,71,71)" stroke-opacity="1.0" stroke-width="0.0">
    </rect>
  </g>
  <svg xmlns="http://www.w3.org/2000/svg" xmlns:xlink="http://www.w3.org/1999/xlink" display="block" class="plt-container" width="298.0" height="400.0" x="0.0" y="0.0">
    <style type="text/css">
    .plt-container {
   font-family: Lucida Grande, sans-serif;
   user-select: none;
   -webkit-user-select: none;
   -moz-user-select: none;
   -ms-user-select: none;
}
text {
   text-rendering: optimizeLegibility;
}
#xXxprefixXx1 .plot-title {
   fill: #474747;
   font-family: Lucida Grande, sans-serif;
   font-size: 16.0px;
   font-weight: normal;
   font-style: normal;   
}
#xXxprefixXx1 .plot-subtitle {
   fill: #474747;
   font-family: Lucida Grande, sans-serif;
   font-size: 15.0px;
   font-weight: normal;
   font-style: normal;   
}
#xXxprefixXx1 .plot-caption {
   fill: #474747;
   font-family: Lucida Grande, sans-serif;
   font-size: 13.0px;
   font-weight: normal;
   font-style: normal;   
}
#xXxprefixXx1 .legend-title {
   fill: #474747;
   font-family: Lucida Grande, sans-serif;
   font-size: 15.0px;
   font-weight: normal;
   font-style: normal;   
}
#xXxprefixXx1 .legend-item {
   fill: #474747;
   font-family: Lucida Grande, sans-serif;
   font-size: 13.0px;
   font-weight: normal;
   font-style: normal;   
}
#xXxprefixXx1 .axis-title-x {
   fill: #474747;
   font-family: Lucida Grande, sans-serif;
   font-size: 15.0px;
   font-weight: normal;
   font-style: normal;   
}
#xXxprefixXx1 .axis-text-x {
   fill: #474747;
   font-family: Lucida Grande, sans-serif;
   font-size: 13.0px;
   font-weight: normal;
   font-style: normal;   
}
#xXxprefixXx3 .axis-tooltip-text-x {
   fill: #ffffff;
   font-family: Lucida Grande, sans-serif;
   font-size: 13.0px;
   font-weight: normal;
   font-style: normal;   
}
#xXxprefixXx1 .axis-title-y {
   fill: #474747;
   font-family: Lucida Grande, sans-serif;
   font-size: 15.0px;
   font-weight: normal;
   font-style: normal;   
}
#xXxprefixXx1 .axis-text-y {
   fill: #474747;
   font-family: Lucida Grande, sans-serif;
   font-size: 13.0px;
   font-weight: normal;
   font-style: normal;   
}
#xXxprefixXx3 .axis-tooltip-text-y {
   fill: #ffffff;
   font-family: Lucida Grande, sans-serif;
   font-size: 13.0px;
   font-weight: normal;
   font-style: normal;   
}
#xXxprefixXx1 .facet-strip-text-x {
   fill: #474747;
   font-family: Lucida Grande, sans-serif;
   font-size: 13.0px;
   font-weight: normal;
   font-style: normal;   
}
#xXxprefixXx1 .facet-strip-text-y {
   fill: #474747;
   font-family: Lucida Grande, sans-serif;
   font-size: 13.0px;
   font-weight: normal;
   font-style: normal;   
}
#xXxprefixXx3 .tooltip-text {
   fill: #474747;
   font-family: Lucida Grande, sans-serif;
   font-size: 13.0px;
   font-weight: normal;
   font-style: normal;   
}
#xXxprefixXx3 .tooltip-title {
   fill: #474747;
   font-family: Lucida Grande, sans-serif;
   font-size: 13.0px;
   font-weight: bold;
   font-style: normal;   
}
#xXxprefixXx3 .tooltip-label {
   fill: #474747;
   font-family: Lucida Grande, sans-serif;
   font-size: 13.0px;
   font-weight: bold;
   font-style: normal;   
}

    </style>
    <g id="xXxprefixXx1">
      <path fill-rule="evenodd" fill="rgb(255,255,255)" fill-opacity="1.0" d="M0.0 0.0 L0.0 400.0 L298.0 400.0 L298.0 0.0 Z">
      </path>
      <g transform="translate(29.5 26.5 ) ">
        <g>
          <g transform="translate(35.01530667574961 0.0 ) ">
            <g>
              <line x1="40.21601893921651" y1="0.0" x2="40.21601893921651" y2="321.0" stroke="rgb(233,233,233)" stroke-opacity="1.0" stroke-width="1.0" fill="none">
              </line>
              <line x1="99.0330817141634" y1="0.0" x2="99.0330817141634" y2="321.0" stroke="rgb(233,233,233)" stroke-opacity="1.0" stroke-width="1.0" fill="none">
              </line>
              <line x1="157.85014448911028" y1="0.0" x2="157.85014448911028" y2="321.0" stroke="rgb(233,233,233)" stroke-opacity="1.0" stroke-width="1.0" fill="none">
              </line>
              <line x1="216.6672072640572" y1="0.0" x2="216.6672072640572" y2="321.0" stroke="rgb(233,233,233)" stroke-opacity="1.0" stroke-width="1.0" fill="none">
              </line>
            </g>
          </g>
          <g transform="translate(35.01530667574961 0.0 ) ">
            <g>
              <line x1="0.0" y1="281.5959467197456" x2="226.98469332425037" y2="281.5959467197456" stroke="rgb(233,233,233)" stroke-opacity="1.0" stroke-width="1.0" fill="none">
              </line>
              <line x1="0.0" y1="233.21969137496654" x2="226.98469332425037" y2="233.21969137496654" stroke="rgb(233,233,233)" stroke-opacity="1.0" stroke-width="1.0" fill="none">
              </line>
              <line x1="0.0" y1="184.84343603018743" x2="226.98469332425037" y2="184.84343603018743" stroke="rgb(233,233,233)" stroke-opacity="1.0" stroke-width="1.0" fill="none">
              </line>
              <line x1="0.0" y1="136.46718068540835" x2="226.98469332425037" y2="136.46718068540835" stroke="rgb(233,233,233)" stroke-opacity="1.0" stroke-width="1.0" fill="none">
              </line>
              <line x1="0.0" y1="88.09092534062927" x2="226.98469332425037" y2="88.09092534062927" stroke="rgb(233,233,233)" stroke-opacity="1.0" stroke-width="1.0" fill="none">
              </line>
              <line x1="0.0" y1="39.71466999585017" x2="226.98469332425037" y2="39.71466999585017" stroke="rgb(233,233,233)" stroke-opacity="1.0" stroke-width="1.0" fill="none">
              </line>
            </g>
          </g>
        </g>
        <g clip-path="url(#xXxprefixXx2)" clip-bounds-jfx="[rect (35.01530667574961, 0.0), (226.98469332425037, 321.0)]">
          <g transform="translate(35.01530667574961 0.0 ) ">
            <g>
              <g>
                <g>
                  <path d="M10.31748606019319 152.66011125947153 L10.31748606019319 152.66011125947153 L10.463571501653334 143.37264003355796 L10.533294258067045 162.00529040226132 L10.966235834925158 134.1800890822415 L11.114761292398157 171.36941092491773 L11.81881108521489 125.1192303163295 L12.064193959934371 180.71355779278102 L13.013121796571355 116.22622291360734 L13.382377553185549 189.99885345603522 L14.539814574278566 107.53512401716367 L15.068470687319675 199.1853448381951 L16.388105669406087 99.07964475614524 L17.120131507887606 208.23355751539498 L18.546047417339167 90.89152758454225 L19.533377460017775 217.10401706376916 L21.000556283939844 83.00113522575174 L22.30269747306042 225.7574912692113 L23.7374339001677 75.43716088590133 L25.420974833644692 234.15523233713355 L26.74149326980472 68.22656481795993 L28.87953626646045 242.25906339595224 L29.996593827156588 61.39444456650948 L32.66815894579861 250.0316668420391 L33.48574661015668 54.96395423115855 L36.77511957633298 257.43659587351965 L37.191205410389564 48.956264098249136 L41.09451935964297 43.390456836674076 L41.187197898890396 264.4386032035178 L45.17668017225345 38.28348712958386 L45.88974330008323 271.0037333305403 L49.41812565087643 33.650106704699226 L50.866688835389965 277.0994032750633 L53.79892549230336 29.502898935705318 L56.10071950612158 282.6948177962623 L58.29878829900193 25.852151970473045 L61.572995303580996 287.76060031047473 L62.897226350312344 22.70596253524164 L67.2636946034338 292.26957718946744 L67.57365376401111 20.070028326253492 L68.25495110866186 150.3908220736127 L68.29150577384316 153.8745538760146 L68.36087094170325 146.96990693976593 L68.47489260952301 157.40495142537355 L68.60425552744668 143.6273012487205 L68.80877865126101 160.96514942547404 L68.97950965675916 140.37762913555602 L69.29611926327959 164.53779239368296 L69.48045265689548 137.2347012421577 L69.93913885672846 168.10499717610585 L70.10037273093516 134.21143686407925 L70.7392747973623 171.64844521797144 L70.83209882607026 131.31974176436964 L71.66800939803073 128.57056440083886 L71.69718967573635 175.14956998785016 L72.30724451262056 17.948005557494128 L72.60012005533764 125.97372688382988 L72.81272222642446 178.58950795901234 L73.15168111754552 296.19644328029335 L73.62009407661371 123.5380280595389 L74.08491186841007 181.94935811988455 L74.71932830195149 121.2711162778055 L75.51193034256859 185.21010123746336 L75.8889899434998 119.17949804246116 L77.07735486870996 16.341128345356125 L77.09115182707009 188.35284783397339 L77.12005339605011 117.26855098685206 L78.40340716302563 115.54244457897748 L78.81910035082727 191.35887278826175 L79.21501047776593 299.5182693924062 L79.72983632763064 114.00421941635138 L80.6914270059896 194.2096470537425 L81.09012422018435 112.65572667356264 L81.86367941166651 15.248404783206198 L82.47509624024755 111.49767567919204 L82.70299058065639 196.8870741012571 L83.87565842009411 110.52961805683996 L84.8478251305031 199.37351298667036 L85.28285526991822 109.75001116101565 L85.43050340841533 302.2141908851125 L86.64571552130732 14.666766880759951 L86.68792236438625 109.15620798506399 L87.11915400186179 201.6518706212551 L88.08233104120612 108.74450041290818 L89.45783134681132 108.51017112114104 L89.50942313653745 203.70572287657166 L90.80650725224055 108.44752818041923 L91.40351098336052 14.590909090909093 L91.77425099540494 304.2658344181002 L92.01031684777357 205.51938378725626 L92.12079067621829 108.54995407410487 L93.39353203877864 108.80996048380655 L94.61278981040462 207.0780381896989 L94.6180230487713 109.21924595836943 L95.78801927225672 109.76875069941616 L96.11754150662111 15.013449782894227 L96.89779688216016 110.44875171518088 L97.30709718856816 208.36778209033633 L97.94214816650374 111.24888588810524 L98.22125841234723 305.65726028244836 L98.91643173213025 112.15826242936964 L99.0330817141634 136.46718068540835 L99.62302975422388 136.40581759078626 L99.81657554486321 113.16550757236062 L100.08285478157364 209.375761071229 L100.20591794012284 136.22221750215186 L100.63910141512018 114.25886260995442 L100.7686809239049 15.925000445093218 L100.77473341692964 135.91784525691284 L101.32255710906463 135.49513218871138 L101.38114115732189 115.42624877213109 L101.84260874753448 134.95746211566157 L102.04044023260663 116.65534940428563 L102.32829397871821 134.30915102104115 L102.61536791008572 117.93369935416301 L102.77324807693853 133.55541930008997 L102.9289927915588 210.09019335765697 L103.10491496618205 119.24873975739897 L103.1713769181504 132.70236553864086 L103.50869992928294 120.58792472515202 L103.51690255495265 131.75692281083798 L103.80439936984251 130.72682308655683 L103.82695768598735 121.93878622171765 L104.0288330769084 129.6205465908222 L104.0605361944463 123.28901768456417 L104.18559621775243 128.44727314559748 L104.21087895551221 124.6265446688459 L104.27054321919184 127.21682305906974 L104.2800166865349 125.93960558398953 L104.74610619644717 306.37520461038605 L105.33828072920834 17.314142617425162 L105.83390372316715 210.5005024567978 L108.78551896271436 210.59735752601972 L109.80838699723559 19.167612432119242 L111.32267373088311 306.4090909090909 L111.77115375741514 210.37274834256897 L114.1618383258516 21.47035828270515 L114.77778986810024 209.8200487394592 L117.79201071246902 208.93408580825974 L117.92423609170663 305.7510415944869 L118.38202832015558 24.205552357811044 L120.80009821198936 207.71117450049 L122.45331248092708 27.35476364813458 L123.78807661402433 206.1491406952153 L124.5240709842969 304.39600486302294 L126.36088243512249 30.898084818221506 L126.741812406281 204.24740770253266 L129.6469529658331 202.00701933116656 L130.0908746147491 34.81415527406182 L131.09457660395088 302.34182389446164 L132.489242078433 199.430593753277 L133.63042985495758 39.08035723765681 L135.2543621788558 196.5223811734497 L136.9676004911331 43.67277537872583 L137.6083746388115 299.5892368518789 L137.928034265348 193.28835033218147 L140.0916939243687 48.566692768022975 L140.49620019967458 189.73605586720265 L142.94500517826816 185.8746902155683 L142.9929325617623 53.736192961303914 L144.03793252313588 296.1419114830584 L145.26090290533318 181.71504901226405 L145.66274128956746 59.15467325333968 L147.430634558225 177.26962624404004 L148.09375097896375 64.79499461729142 L149.4414917202099 172.55231148721194 L150.27962319754988 70.629210660456 L150.3558701921819 292.0063759177027 L151.28118666697023 167.5785744484298 L152.2153061305636 76.62920775005836 L152.93798208009926 162.36545631432955 L153.89683825775413 82.76634169861262 L154.40080323174547 156.93134195902135 L155.32153065342914 89.01212979180579 L155.65929407693469 151.295825863687 L156.48782675564934 95.33790765800535 L156.53469189079306 287.1923185461838 L156.70377167855838 145.48003866723766 L157.39530587199874 101.71501669247789 L157.52540850742056 139.50619518560225 L158.04474978921712 108.1153000107056 L158.11624646531834 133.39748087590286 L158.43803409432587 114.51085447172807 L158.46919337927181 127.17838451444247 L158.57816673809944 120.87409123058207 L162.54739968317176 281.7122996745906 L168.3675740855925 275.58154391636435 L173.96907257017025 268.8184246118172 L179.32643623419602 261.4440832127959 L184.41507560595392 253.48226780950915 L189.21103926389233 244.9598175500463 L193.69157475984528 235.9058322069166 L197.83486218050228 226.35217389726517 L201.62047690906599 216.33267125080647 L205.02911617518163 205.88370186662667 L208.0427533088232 195.04415771178932 L210.64502337500778 183.85444744780315 L212.8210128275878 172.3570068011861 L214.55748387853933 160.595789634626 L215.8427833479389 148.61718055875215 L216.6672072640572 136.46711301842336 " fill="none" stroke-width="1.6500000000000001" stroke="rgb(71,71,71)" stroke-opacity="1.0">
                  </path>
                </g>
              </g>
            </g>
          </g>
          <defs>
            <clipPath id="xXxprefixXx2">
              <rect x="35.01530667574961" y="0.0" width="226.98469332425037" height="321.0">
              </rect>
            </clipPath>
          </defs>
        </g>
        <g>
          <g transform="translate(35.01530667574961 321.0 ) ">
            <g transform="translate(40.21601893921651 0.0 ) ">
              <line stroke-width="1.0" stroke="rgb(71,71,71)" stroke-opacity="1.0" x2="0.0" y2="4.0">
              </line>
              <g transform="translate(0.0 7.0 ) ">
                <text class="axis-text-x" text-anchor="middle" dy="0.7em">
                  <tspan>-1</tspan>
                </text>
              </g>
            </g>
            <g transform="translate(99.0330817141634 0.0 ) ">
              <line stroke-width="1.0" stroke="rgb(71,71,71)" stroke-opacity="1.0" x2="0.0" y2="4.0">
              </line>
              <g transform="translate(0.0 7.0 ) ">
                <text class="axis-text-x" text-anchor="middle" dy="0.7em">
                  <tspan>0</tspan>
                </text>
              </g>
            </g>
            <g transform="translate(157.85014448911028 0.0 ) ">
              <line stroke-width="1.0" stroke="rgb(71,71,71)" stroke-opacity="1.0" x2="0.0" y2="4.0">
              </line>
              <g transform="translate(0.0 7.0 ) ">
                <text class="axis-text-x" text-anchor="middle" dy="0.7em">
                  <tspan>1</tspan>
                </text>
              </g>
            </g>
            <g transform="translate(216.6672072640572 0.0 ) ">
              <line stroke-width="1.0" stroke="rgb(71,71,71)" stroke-opacity="1.0" x2="0.0" y2="4.0">
              </line>
              <g transform="translate(0.0 7.0 ) ">
                <text class="axis-text-x" text-anchor="middle" dy="0.7em">
                  <tspan>2</tspan>
                </text>
              </g>
            </g>
            <line x1="0.0" y1="0.0" x2="226.98469332425037" y2="0.0" stroke-width="1.0" stroke="rgb(71,71,71)" stroke-opacity="1.0">
            </line>
          </g>
          <g transform="translate(35.01530667574961 0.0 ) ">
            <g transform="translate(0.0 281.5959467197456 ) ">
              <g transform="translate(-3.0 0.0 ) ">
                <text class="axis-text-y" text-anchor="end" dy="0.35em">
                  <tspan>-1.5</tspan>
                </text>
              </g>
            </g>
            <g transform="translate(0.0 233.21969137496654 ) ">
              <g transform="translate(-3.0 0.0 ) ">
                <text class="axis-text-y" text-anchor="end" dy="0.35em">
                  <tspan>-1.0</tspan>
                </text>
              </g>
            </g>
            <g transform="translate(0.0 184.84343603018743 ) ">
              <g transform="translate(-3.0 0.0 ) ">
                <text class="axis-text-y" text-anchor="end" dy="0.35em">
                  <tspan>-0.5</tspan>
                </text>
              </g>
            </g>
            <g transform="translate(0.0 136.46718068540835 ) ">
              <g transform="translate(-3.0 0.0 ) ">
                <text class="axis-text-y" text-anchor="end" dy="0.35em">
                  <tspan>0.0</tspan>
                </text>
              </g>
            </g>
            <g transform="translate(0.0 88.09092534062927 ) ">
              <g transform="translate(-3.0 0.0 ) ">
                <text class="axis-text-y" text-anchor="end" dy="0.35em">
                  <tspan>0.5</tspan>
                </text>
              </g>
            </g>
            <g transform="translate(0.0 39.71466999585017 ) ">
              <g transform="translate(-3.0 0.0 ) ">
                <text class="axis-text-y" text-anchor="end" dy="0.35em">
                  <tspan>1.0</tspan>
                </text>
              </g>
            </g>
          </g>
        </g>
      </g>
      <g transform="translate(64.51530667574961 16.8 ) ">
        <text class="plot-title" y="0.0">
          <tspan>`line` layer</tspan>
        </text>
      </g>
      <g transform="translate(16.0 187.0 ) rotate(-90.0 ) ">
        <text class="axis-title-y" y="0.0" text-anchor="middle">
          <tspan>y</tspan>
        </text>
      </g>
      <g transform="translate(178.00765333787479 393.0 ) ">
        <text class="axis-title-x" y="0.0" text-anchor="middle">
          <tspan>x</tspan>
        </text>
      </g>
      <path fill="rgb(0,0,0)" fill-opacity="0.0" stroke="rgb(71,71,71)" stroke-opacity="1.0" stroke-width="0.0" d="M0.0 0.0 L0.0 400.0 L298.0 400.0 L298.0 0.0 Z">
      </path>
    </g>
    <g id="xXxprefixXx3">
    </g>
  </svg>
  <svg xmlns="http://www.w3.org/2000/svg" xmlns:xlink="http://www.w3.org/1999/xlink" display="block" class="plt-container" width="298.0" height="400.0" x="302.0" y="0.0">
    <style type="text/css">
    .plt-container {
   font-family: Lucida Grande, sans-serif;
   user-select: none;
   -webkit-user-select: none;
   -moz-user-select: none;
   -ms-user-select: none;
}
text {
   text-rendering: optimizeLegibility;
}
#xXxprefixXx4 .plot-title {
   fill: #474747;
   font-family: Lucida Grande, sans-serif;
   font-size: 16.0px;
   font-weight: normal;
   font-style: normal;   
}
#xXxprefixXx4 .plot-subtitle {
   fill: #474747;
   font-family: Lucida Grande, sans-serif;
   font-size: 15.0px;
   font-weight: normal;
   font-style: normal;   
}
#xXxprefixXx4 .plot-caption {
   fill: #474747;
   font-family: Lucida Grande, sans-serif;
   font-size: 13.0px;
   font-weight: normal;
   font-style: normal;   
}
#xXxprefixXx4 .legend-title {
   fill: #474747;
   font-family: Lucida Grande, sans-serif;
   font-size: 15.0px;
   font-weight: normal;
   font-style: normal;   
}
#xXxprefixXx4 .legend-item {
   fill: #474747;
   font-family: Lucida Grande, sans-serif;
   font-size: 13.0px;
   font-weight: normal;
   font-style: normal;   
}
#xXxprefixXx4 .axis-title-x {
   fill: #474747;
   font-family: Lucida Grande, sans-serif;
   font-size: 15.0px;
   font-weight: normal;
   font-style: normal;   
}
#xXxprefixXx4 .axis-text-x {
   fill: #474747;
   font-family: Lucida Grande, sans-serif;
   font-size: 13.0px;
   font-weight: normal;
   font-style: normal;   
}
#xXxprefixXx6 .axis-tooltip-text-x {
   fill: #ffffff;
   font-family: Lucida Grande, sans-serif;
   font-size: 13.0px;
   font-weight: normal;
   font-style: normal;   
}
#xXxprefixXx4 .axis-title-y {
   fill: #474747;
   font-family: Lucida Grande, sans-serif;
   font-size: 15.0px;
   font-weight: normal;
   font-style: normal;   
}
#xXxprefixXx4 .axis-text-y {
   fill: #474747;
   font-family: Lucida Grande, sans-serif;
   font-size: 13.0px;
   font-weight: normal;
   font-style: normal;   
}
#xXxprefixXx6 .axis-tooltip-text-y {
   fill: #ffffff;
   font-family: Lucida Grande, sans-serif;
   font-size: 13.0px;
   font-weight: normal;
   font-style: normal;   
}
#xXxprefixXx4 .facet-strip-text-x {
   fill: #474747;
   font-family: Lucida Grande, sans-serif;
   font-size: 13.0px;
   font-weight: normal;
   font-style: normal;   
}
#xXxprefixXx4 .facet-strip-text-y {
   fill: #474747;
   font-family: Lucida Grande, sans-serif;
   font-size: 13.0px;
   font-weight: normal;
   font-style: normal;   
}
#xXxprefixXx6 .tooltip-text {
   fill: #474747;
   font-family: Lucida Grande, sans-serif;
   font-size: 13.0px;
   font-weight: normal;
   font-style: normal;   
}
#xXxprefixXx6 .tooltip-title {
   fill: #474747;
   font-family: Lucida Grande, sans-serif;
   font-size: 13.0px;
   font-weight: bold;
   font-style: normal;   
}
#xXxprefixXx6 .tooltip-label {
   fill: #474747;
   font-family: Lucida Grande, sans-serif;
   font-size: 13.0px;
   font-weight: bold;
   font-style: normal;   
}

    </style>
    <g id="xXxprefixXx4">
      <path fill-rule="evenodd" fill="rgb(255,255,255)" fill-opacity="1.0" d="M0.0 0.0 L0.0 400.0 L298.0 400.0 L298.0 0.0 Z">
      </path>
      <g transform="translate(29.5 26.5 ) ">
        <g>
          <g transform="translate(35.01530667574961 0.0 ) ">
            <g>
              <line x1="40.21601893921651" y1="0.0" x2="40.21601893921651" y2="321.0" stroke="rgb(233,233,233)" stroke-opacity="1.0" stroke-width="1.0" fill="none">
              </line>
              <line x1="99.0330817141634" y1="0.0" x2="99.0330817141634" y2="321.0" stroke="rgb(233,233,233)" stroke-opacity="1.0" stroke-width="1.0" fill="none">
              </line>
              <line x1="157.85014448911028" y1="0.0" x2="157.85014448911028" y2="321.0" stroke="rgb(233,233,233)" stroke-opacity="1.0" stroke-width="1.0" fill="none">
              </line>
              <line x1="216.6672072640572" y1="0.0" x2="216.6672072640572" y2="321.0" stroke="rgb(233,233,233)" stroke-opacity="1.0" stroke-width="1.0" fill="none">
              </line>
            </g>
          </g>
          <g transform="translate(35.01530667574961 0.0 ) ">
            <g>
              <line x1="0.0" y1="281.5959467197456" x2="226.98469332425037" y2="281.5959467197456" stroke="rgb(233,233,233)" stroke-opacity="1.0" stroke-width="1.0" fill="none">
              </line>
              <line x1="0.0" y1="233.21969137496654" x2="226.98469332425037" y2="233.21969137496654" stroke="rgb(233,233,233)" stroke-opacity="1.0" stroke-width="1.0" fill="none">
              </line>
              <line x1="0.0" y1="184.84343603018743" x2="226.98469332425037" y2="184.84343603018743" stroke="rgb(233,233,233)" stroke-opacity="1.0" stroke-width="1.0" fill="none">
              </line>
              <line x1="0.0" y1="136.46718068540835" x2="226.98469332425037" y2="136.46718068540835" stroke="rgb(233,233,233)" stroke-opacity="1.0" stroke-width="1.0" fill="none">
              </line>
              <line x1="0.0" y1="88.09092534062927" x2="226.98469332425037" y2="88.09092534062927" stroke="rgb(233,233,233)" stroke-opacity="1.0" stroke-width="1.0" fill="none">
              </line>
              <line x1="0.0" y1="39.71466999585017" x2="226.98469332425037" y2="39.71466999585017" stroke="rgb(233,233,233)" stroke-opacity="1.0" stroke-width="1.0" fill="none">
              </line>
            </g>
          </g>
        </g>
        <g clip-path="url(#xXxprefixXx5)" clip-bounds-jfx="[rect (35.01530667574961, 0.0), (226.98469332425037, 321.0)]">
          <g transform="translate(35.01530667574961 0.0 ) ">
            <g>
              <g>
                <g>
                  <path d="M99.0330817141634 136.46718068540835 L99.0330817141634 136.46718068540835 L99.62302975422388 136.40581759078626 L100.20591794012284 136.22221750215186 L100.77473341692964 135.91784525691284 L101.32255710906463 135.49513218871138 L101.84260874753448 134.95746211566157 L102.32829397871821 134.30915102104115 L102.77324807693853 133.55541930008997 L103.1713769181504 132.70236553864086 L103.51690255495265 131.75692281083798 L103.80439936984251 130.72682308655683 L104.0288330769084 129.6205465908222 L104.18559621775243 128.44727314559748 L104.27054321919184 127.21682305906974 L104.2800166865349 125.93960558398953 L104.21087895551221 124.6265446688459 L104.0605361944463 123.28901768456417 L103.82695768598735 121.93878622171765 L103.50869992928294 120.58792472515202 L103.10491496618205 119.24873975739897 L102.61536791008572 117.93369935416301 L102.04044023260663 116.65534940428563 L101.38114115732189 115.42624877213109 L100.63910141512018 114.25886260995442 L99.81657554486321 113.16550757236062 L98.91643173213025 112.15826242936964 L97.94214816650374 111.24888588810524 L96.89779688216016 110.44875171518088 L95.78801927225672 109.76875069941616 L94.6180230487713 109.21924595836943 L93.39353203877864 108.80996048380655 L92.12079067621829 108.54995407410487 L90.80650725224055 108.44752818041923 L89.45783134681132 108.51017112114104 L88.08233104120612 108.74450041290818 L86.68792236438625 109.15620798506399 L85.28285526991822 109.75001116101565 L83.87565842009411 110.52961805683996 L82.47509624024755 111.49767567919204 L81.09012422018435 112.65572667356264 L79.72983632763064 114.00421941635138 L78.40340716302563 115.54244457897748 L77.12005339605011 117.26855098685206 L75.8889899434998 119.17949804246116 L74.71932830195149 121.2711162778055 L73.62009407661371 123.5380280595389 L72.60012005533764 125.97372688382988 L71.66800939803073 128.57056440083886 L70.83209882607026 131.31974176436964 L70.10037273093516 134.21143686407925 L69.48045265689548 137.2347012421577 L68.97950965675916 140.37762913555602 L68.60425552744668 143.6273012487205 L68.36087094170325 146.96990693976593 L68.25495110866186 150.3908220736127 L68.29150577384316 153.8745538760146 L68.47489260952301 157.40495142537355 L68.80877865126101 160.96514942547404 L69.29611926327959 164.53779239368296 L69.93913885672846 168.10499717610585 L70.7392747973623 171.64844521797144 L71.69718967573635 175.14956998785016 L72.81272222642446 178.58950795901234 L74.08491186841007 181.94935811988455 L75.51193034256859 185.21010123746336 L77.09115182707009 188.35284783397339 L78.81910035082727 191.35887278826175 L80.6914270059896 194.2096470537425 L82.70299058065639 196.8870741012571 L84.8478251305031 199.37351298667036 L87.11915400186179 201.6518706212551 L89.50942313653745 203.70572287657166 L92.01031684777357 205.51938378725626 L94.61278981040462 207.0780381896989 L97.30709718856816 208.36778209033633 L100.08285478157364 209.375761071229 L102.9289927915588 210.09019335765697 L105.83390372316715 210.5005024567978 L108.78551896271436 210.59735752601972 L111.77115375741514 210.37274834256897 L114.77778986810024 209.8200487394592 L117.79201071246902 208.93408580825974 L120.80009821198936 207.71117450049 L123.78807661402433 206.1491406952153 L126.741812406281 204.24740770253266 L129.6469529658331 202.00701933116656 L132.489242078433 199.430593753277 L135.2543621788558 196.5223811734497 L137.928034265348 193.28835033218147 L140.49620019967458 189.73605586720265 L142.94500517826816 185.8746902155683 L145.26090290533318 181.71504901226405 L147.430634558225 177.26962624404004 L149.4414917202099 172.55231148721194 L151.28118666697023 167.5785744484298 L152.93798208009926 162.36545631432955 L154.40080323174547 156.93134195902135 L155.65929407693469 151.295825863687 L156.70377167855838 145.48003866723766 L157.52540850742056 139.50619518560225 L158.11624646531834 133.39748087590286 L158.46919337927181 127.17838451444247 L158.57816673809944 120.87409123058207 L158.43803409432587 114.51085447172807 L158.04474978921712 108.1153000107056 L157.39530587199874 101.71501669247789 L156.48782675564934 95.33790765800535 L155.32153065342914 89.01212979180579 L153.89683825775413 82.76634169861262 L152.2153061305636 76.62920775005836 L150.27962319754988 70.629210660456 L148.09375097896375 64.79499461729142 L145.66274128956746 59.15467325333968 L142.9929325617623 53.736192961303914 L140.0916939243687 48.566692768022975 L136.9676004911331 43.67277537872583 L133.63042985495758 39.08035723765681 L130.0908746147491 34.81415527406182 L126.36088243512249 30.898084818221506 L122.45331248092708 27.35476364813458 L118.38202832015558 24.205552357811044 L114.1618383258516 21.47035828270515 L109.80838699723559 19.167612432119242 L105.33828072920834 17.314142617425162 L100.7686809239049 15.925000445093218 L96.11754150662111 15.013449782894227 L91.40351098336052 14.590909090909093 L86.64571552130732 14.666766880759951 L81.86367941166651 15.248404783206198 L77.07735486870996 16.341128345356125 L72.30724451262056 17.948005557494128 L67.57365376401111 20.070028326253492 L62.897226350312344 22.70596253524164 L58.29878829900193 25.852151970473045 L53.79892549230336 29.502898935705318 L49.41812565087643 33.650106704699226 L45.17668017225345 38.28348712958386 L41.09451935964297 43.390456836674076 L37.191205410389564 48.956264098249136 L33.48574661015668 54.96395423115855 L29.996593827156588 61.39444456650948 L26.74149326980472 68.22656481795993 L23.7374339001677 75.43716088590133 L21.000556283939844 83.00113522575174 L18.546047417339167 90.89152758454225 L16.388105669406087 99.07964475614524 L14.539814574278566 107.53512401716367 L13.013121796571355 116.22622291360734 L11.81881108521489 125.1192303163295 L10.966235834925158 134.1800890822415 L10.463571501653334 143.37264003355796 L10.31748606019319 152.66011125947153 L10.533294258067045 162.00529040226132 L11.114761292398157 171.36941092491773 L12.064193959934371 180.71355779278102 L13.382377553185549 189.99885345603522 L15.068470687319675 199.1853448381951 L17.120131507887606 208.23355751539498 L19.533377460017775 217.10401706376916 L22.30269747306042 225.7574912692113 L25.420974833644692 234.15523233713355 L28.87953626646045 242.25906339595224 L32.66815894579861 250.0316668420391 L36.77511957633298 257.43659587351965 L41.187197898890396 264.4386032035178 L45.88974330008323 271.0037333305403 L50.866688835389965 277.0994032750633 L56.10071950612158 282.6948177962623 L61.572995303580996 287.76060031047473 L67.2636946034338 292.26957718946744 L73.15168111754552 296.19644328029335 L79.21501047776593 299.5182693924062 L85.43050340841533 302.2141908851125 L91.77425099540494 304.2658344181002 L98.22125841234723 305.65726028244836 L104.74610619644717 306.37520461038605 L111.32267373088311 306.4090909090909 L117.92423609170663 305.7510415944869 L124.5240709842969 304.39600486302294 L131.09457660395088 302.34182389446164 L137.6083746388115 299.5892368518789 L144.03793252313588 296.1419114830584 L150.3558701921819 292.0063759177027 L156.53469189079306 287.1923185461838 L162.54739968317176 281.7122996745906 L168.3675740855925 275.58154391636435 L173.96907257017025 268.8184246118172 L179.32643623419602 261.4440832127959 L184.41507560595392 253.48226780950915 L189.21103926389233 244.9598175500463 L193.69157475984528 235.9058322069166 L197.83486218050228 226.35217389726517 L201.62047690906599 216.33267125080647 L205.02911617518163 205.88370186662667 L208.0427533088232 195.04415771178932 L210.64502337500778 183.85444744780315 L212.8210128275878 172.3570068011861 L214.55748387853933 160.595789634626 L215.8427833479389 148.61718055875215 L216.6672072640572 136.46711301842336 " fill="none" stroke-width="1.6500000000000001" stroke="rgb(71,71,71)" stroke-opacity="1.0">
                  </path>
                </g>
              </g>
            </g>
          </g>
          <defs>
            <clipPath id="xXxprefixXx5">
              <rect x="35.01530667574961" y="0.0" width="226.98469332425037" height="321.0">
              </rect>
            </clipPath>
          </defs>
        </g>
        <g>
          <g transform="translate(35.01530667574961 321.0 ) ">
            <g transform="translate(40.21601893921651 0.0 ) ">
              <line stroke-width="1.0" stroke="rgb(71,71,71)" stroke-opacity="1.0" x2="0.0" y2="4.0">
              </line>
              <g transform="translate(0.0 7.0 ) ">
                <text class="axis-text-x" text-anchor="middle" dy="0.7em">
                  <tspan>-1</tspan>
                </text>
              </g>
            </g>
            <g transform="translate(99.0330817141634 0.0 ) ">
              <line stroke-width="1.0" stroke="rgb(71,71,71)" stroke-opacity="1.0" x2="0.0" y2="4.0">
              </line>
              <g transform="translate(0.0 7.0 ) ">
                <text class="axis-text-x" text-anchor="middle" dy="0.7em">
                  <tspan>0</tspan>
                </text>
              </g>
            </g>
            <g transform="translate(157.85014448911028 0.0 ) ">
              <line stroke-width="1.0" stroke="rgb(71,71,71)" stroke-opacity="1.0" x2="0.0" y2="4.0">
              </line>
              <g transform="translate(0.0 7.0 ) ">
                <text class="axis-text-x" text-anchor="middle" dy="0.7em">
                  <tspan>1</tspan>
                </text>
              </g>
            </g>
            <g transform="translate(216.6672072640572 0.0 ) ">
              <line stroke-width="1.0" stroke="rgb(71,71,71)" stroke-opacity="1.0" x2="0.0" y2="4.0">
              </line>
              <g transform="translate(0.0 7.0 ) ">
                <text class="axis-text-x" text-anchor="middle" dy="0.7em">
                  <tspan>2</tspan>
                </text>
              </g>
            </g>
            <line x1="0.0" y1="0.0" x2="226.98469332425037" y2="0.0" stroke-width="1.0" stroke="rgb(71,71,71)" stroke-opacity="1.0">
            </line>
          </g>
          <g transform="translate(35.01530667574961 0.0 ) ">
            <g transform="translate(0.0 281.5959467197456 ) ">
              <g transform="translate(-3.0 0.0 ) ">
                <text class="axis-text-y" text-anchor="end" dy="0.35em">
                  <tspan>-1.5</tspan>
                </text>
              </g>
            </g>
            <g transform="translate(0.0 233.21969137496654 ) ">
              <g transform="translate(-3.0 0.0 ) ">
                <text class="axis-text-y" text-anchor="end" dy="0.35em">
                  <tspan>-1.0</tspan>
                </text>
              </g>
            </g>
            <g transform="translate(0.0 184.84343603018743 ) ">
              <g transform="translate(-3.0 0.0 ) ">
                <text class="axis-text-y" text-anchor="end" dy="0.35em">
                  <tspan>-0.5</tspan>
                </text>
              </g>
            </g>
            <g transform="translate(0.0 136.46718068540835 ) ">
              <g transform="translate(-3.0 0.0 ) ">
                <text class="axis-text-y" text-anchor="end" dy="0.35em">
                  <tspan>0.0</tspan>
                </text>
              </g>
            </g>
            <g transform="translate(0.0 88.09092534062927 ) ">
              <g transform="translate(-3.0 0.0 ) ">
                <text class="axis-text-y" text-anchor="end" dy="0.35em">
                  <tspan>0.5</tspan>
                </text>
              </g>
            </g>
            <g transform="translate(0.0 39.71466999585017 ) ">
              <g transform="translate(-3.0 0.0 ) ">
                <text class="axis-text-y" text-anchor="end" dy="0.35em">
                  <tspan>1.0</tspan>
                </text>
              </g>
            </g>
          </g>
        </g>
      </g>
      <g transform="translate(64.51530667574961 16.8 ) ">
        <text class="plot-title" y="0.0">
          <tspan>`path` layer</tspan>
        </text>
      </g>
      <g transform="translate(16.0 187.0 ) rotate(-90.0 ) ">
        <text class="axis-title-y" y="0.0" text-anchor="middle">
          <tspan>y</tspan>
        </text>
      </g>
      <g transform="translate(178.00765333787479 393.0 ) ">
        <text class="axis-title-x" y="0.0" text-anchor="middle">
          <tspan>x</tspan>
        </text>
      </g>
      <path fill="rgb(0,0,0)" fill-opacity="0.0" stroke="rgb(71,71,71)" stroke-opacity="1.0" stroke-width="0.0" d="M0.0 0.0 L0.0 400.0 L298.0 400.0 L298.0 0.0 Z">
      </path>
    </g>
    <g id="xXxprefixXx6">
    </g>
  </svg>
</svg>