<svg xmlns="http://www.w3.org/2000/svg" xmlns:xlink="http://www.w3.org/1999/xlink" display="block" class="plt-container" width="600.0" height="400.0">
  <style type="text/css">
  .plt-container {
   font-family: sans-serif;
   user-select: none;
   -webkit-user-select: none;
   -moz-user-select: none;
   -ms-user-select: none;
}
text {
   text-rendering: optimizeLegibility;
}
#_sample_helper_static_id_prefix_0 .plot-title {
fill: #474747;
font-weight: normal;
font-style: normal;
font-family: sans-serif;
font-size: 16.0px;

}
#_sample_helper_static_id_prefix_0 .plot-subtitle {
fill: #474747;
font-weight: normal;
font-style: normal;
font-family: sans-serif;
font-size: 15.0px;

}
#_sample_helper_static_id_prefix_0 .plot-caption {
fill: #474747;
font-weight: normal;
font-style: normal;
font-family: sans-serif;
font-size: 13.0px;

}
#_sample_helper_static_id_prefix_0 .hyperlink-element {
fill: #118ed8;
font-weight: normal;
font-style: normal;

}
#_sample_helper_static_id_prefix_0 .legend-title {
fill: #474747;
font-weight: normal;
font-style: normal;
font-family: sans-serif;
font-size: 15.0px;

}
#_sample_helper_static_id_prefix_0 .legend-item {
fill: #474747;
font-weight: normal;
font-style: normal;
font-family: sans-serif;
font-size: 13.0px;

}
#_sample_helper_static_id_prefix_0 .axis-title-x {
fill: #474747;
font-weight: normal;
font-style: normal;
font-family: sans-serif;
font-size: 15.0px;

}
#_sample_helper_static_id_prefix_0 .axis-text-x {
fill: #474747;
font-weight: normal;
font-style: normal;
font-family: sans-serif;
font-size: 13.0px;

}
.axis-tooltip-text-x {
fill: #ffffff;
font-weight: normal;
font-style: normal;
font-family: sans-serif;
font-size: 13.0px;

}
#_sample_helper_static_id_prefix_0 .axis-title-y {
fill: #474747;
font-weight: normal;
font-style: normal;
font-family: sans-serif;
font-size: 15.0px;

}
#_sample_helper_static_id_prefix_0 .axis-text-y {
fill: #474747;
font-weight: normal;
font-style: normal;
font-family: sans-serif;
font-size: 13.0px;

}
.axis-tooltip-text-y {
fill: #ffffff;
font-weight: normal;
font-style: normal;
font-family: sans-serif;
font-size: 13.0px;

}
#_sample_helper_static_id_prefix_0 .facet-strip-text-x {
fill: #474747;
font-weight: normal;
font-style: normal;
font-family: sans-serif;
font-size: 13.0px;

}
#_sample_helper_static_id_prefix_0 .facet-strip-text-y {
fill: #474747;
font-weight: normal;
font-style: normal;
font-family: sans-serif;
font-size: 13.0px;

}
.tooltip-text {
fill: #474747;
font-weight: normal;
font-style: normal;
font-family: sans-serif;
font-size: 13.0px;

}
.tooltip-title {
fill: #474747;
font-weight: bold;
font-style: normal;
font-family: sans-serif;
font-size: 13.0px;

}
.tooltip-label {
fill: #474747;
font-weight: bold;
font-style: normal;
font-family: sans-serif;
font-size: 13.0px;

}

  </style>
  <g id="_sample_helper_static_id_prefix_0">
    <rect x="0.0" y="0.0" height="400.0" width="600.0" fill="rgb(255,255,255)" fill-opacity="1.0" stroke="rgb(71,71,71)" stroke-opacity="1.0" stroke-width="0.0">
    </rect>
  </g>
  <svg xmlns="http://www.w3.org/2000/svg" xmlns:xlink="http://www.w3.org/1999/xlink" display="block" class="plt-container" width="292.0" height="388.0" x="6.0" y="6.0">
    <style type="text/css">
    .plt-container {
   font-family: sans-serif;
   user-select: none;
   -webkit-user-select: none;
   -moz-user-select: none;
   -ms-user-select: none;
}
text {
   text-rendering: optimizeLegibility;
}
#_sample_helper_static_id_prefix_1 .plot-title {
fill: #bbbbbb;
font-weight: normal;
font-style: normal;
font-family: sans-serif;
font-size: 16.0px;

}
#_sample_helper_static_id_prefix_1 .plot-subtitle {
fill: #bbbbbb;
font-weight: normal;
font-style: normal;
font-family: sans-serif;
font-size: 15.0px;

}
#_sample_helper_static_id_prefix_1 .plot-caption {
fill: #bbbbbb;
font-weight: normal;
font-style: normal;
font-family: sans-serif;
font-size: 13.0px;

}
#_sample_helper_static_id_prefix_1 .hyperlink-element {
fill: #118ed8;
font-weight: normal;
font-style: normal;

}
#_sample_helper_static_id_prefix_1 .legend-title {
fill: #bbbbbb;
font-weight: normal;
font-style: normal;
font-family: sans-serif;
font-size: 15.0px;

}
#_sample_helper_static_id_prefix_1 .legend-item {
fill: #bbbbbb;
font-weight: normal;
font-style: normal;
font-family: sans-serif;
font-size: 13.0px;

}
#_sample_helper_static_id_prefix_1 .axis-title-x {
fill: #bbbbbb;
font-weight: normal;
font-style: normal;
font-family: sans-serif;
font-size: 15.0px;

}
#_sample_helper_static_id_prefix_1 .axis-text-x {
fill: #bbbbbb;
font-weight: normal;
font-style: normal;
font-family: sans-serif;
font-size: 13.0px;

}
#_sample_helper_static_id_prefix_3 .axis-tooltip-text-x {
fill: #303030;
font-weight: normal;
font-style: normal;
font-family: sans-serif;
font-size: 13.0px;

}
#_sample_helper_static_id_prefix_1 .axis-title-y {
fill: #bbbbbb;
font-weight: normal;
font-style: normal;
font-family: sans-serif;
font-size: 15.0px;

}
#_sample_helper_static_id_prefix_1 .axis-text-y {
fill: #bbbbbb;
font-weight: normal;
font-style: normal;
font-family: sans-serif;
font-size: 13.0px;

}
#_sample_helper_static_id_prefix_3 .axis-tooltip-text-y {
fill: #303030;
font-weight: normal;
font-style: normal;
font-family: sans-serif;
font-size: 13.0px;

}
#_sample_helper_static_id_prefix_1 .facet-strip-text-x {
fill: #bbbbbb;
font-weight: normal;
font-style: normal;
font-family: sans-serif;
font-size: 13.0px;

}
#_sample_helper_static_id_prefix_1 .facet-strip-text-y {
fill: #bbbbbb;
font-weight: normal;
font-style: normal;
font-family: sans-serif;
font-size: 13.0px;

}
#_sample_helper_static_id_prefix_3 .tooltip-text {
fill: #bbbbbb;
font-weight: normal;
font-style: normal;
font-family: sans-serif;
font-size: 13.0px;

}
#_sample_helper_static_id_prefix_3 .tooltip-title {
fill: #bbbbbb;
font-weight: bold;
font-style: normal;
font-family: sans-serif;
font-size: 13.0px;

}
#_sample_helper_static_id_prefix_3 .tooltip-label {
fill: #bbbbbb;
font-weight: bold;
font-style: normal;
font-family: sans-serif;
font-size: 13.0px;

}

    </style>
    <g id="_sample_helper_static_id_prefix_1">
      <path fill-rule="evenodd" fill="rgb(25,25,28)" fill-opacity="1.0" d="M0.0 0.0 L0.0 388.0 L292.0 388.0 L292.0 0.0 Z">
      </path>
      <g transform="translate(21.0 22.0 ) ">
        <g>
          <g transform="translate(31.015306675749617 0.0 ) ">
            <g>
              <line x1="41.45624412115146" y1="0.0" x2="41.45624412115146" y2="326.0" stroke="rgb(71,71,71)" stroke-opacity="1.0" stroke-width="1.0" fill="none">
              </line>
              <line x1="102.08717122939277" y1="0.0" x2="102.08717122939277" y2="326.0" stroke="rgb(71,71,71)" stroke-opacity="1.0" stroke-width="1.0" fill="none">
              </line>
              <line x1="162.71809833763407" y1="0.0" x2="162.71809833763407" y2="326.0" stroke="rgb(71,71,71)" stroke-opacity="1.0" stroke-width="1.0" fill="none">
              </line>
              <line x1="223.34902544587538" y1="0.0" x2="223.34902544587538" y2="326.0" stroke="rgb(71,71,71)" stroke-opacity="1.0" stroke-width="1.0" fill="none">
              </line>
            </g>
          </g>
          <g transform="translate(31.015306675749617 0.0 ) ">
            <g>
              <line x1="0.0" y1="285.9821764194301" x2="233.98469332425037" y2="285.9821764194301" stroke="rgb(71,71,71)" stroke-opacity="1.0" stroke-width="1.0" fill="none">
              </line>
              <line x1="0.0" y1="236.85239684809682" x2="233.98469332425037" y2="236.85239684809682" stroke="rgb(71,71,71)" stroke-opacity="1.0" stroke-width="1.0" fill="none">
              </line>
              <line x1="0.0" y1="187.72261727676354" x2="233.98469332425037" y2="187.72261727676354" stroke="rgb(71,71,71)" stroke-opacity="1.0" stroke-width="1.0" fill="none">
              </line>
              <line x1="0.0" y1="138.59283770543027" x2="233.98469332425037" y2="138.59283770543027" stroke="rgb(71,71,71)" stroke-opacity="1.0" stroke-width="1.0" fill="none">
              </line>
              <line x1="0.0" y1="89.463058134097" x2="233.98469332425037" y2="89.463058134097" stroke="rgb(71,71,71)" stroke-opacity="1.0" stroke-width="1.0" fill="none">
              </line>
              <line x1="0.0" y1="40.33327856276371" x2="233.98469332425037" y2="40.33327856276371" stroke="rgb(71,71,71)" stroke-opacity="1.0" stroke-width="1.0" fill="none">
              </line>
            </g>
          </g>
          <g transform="translate(31.015306675749617 326.0 ) ">
            <g transform="translate(41.45624412115146 0.0 ) ">
              <line stroke-width="1.0" stroke="rgb(187,187,187)" stroke-opacity="1.0" x2="0.0" y2="4.0">
              </line>
              <g transform="translate(0.0 6.0 ) ">
                <text style="font-size:13.0px;" y="0.0" class="axis-text-x" text-anchor="middle" dy="0.7em">
                  <tspan>-1</tspan>
                </text>
              </g>
            </g>
            <g transform="translate(102.08717122939277 0.0 ) ">
              <line stroke-width="1.0" stroke="rgb(187,187,187)" stroke-opacity="1.0" x2="0.0" y2="4.0">
              </line>
              <g transform="translate(0.0 6.0 ) ">
                <text style="font-size:13.0px;" y="0.0" class="axis-text-x" text-anchor="middle" dy="0.7em">
                  <tspan>0</tspan>
                </text>
              </g>
            </g>
            <g transform="translate(162.71809833763407 0.0 ) ">
              <line stroke-width="1.0" stroke="rgb(187,187,187)" stroke-opacity="1.0" x2="0.0" y2="4.0">
              </line>
              <g transform="translate(0.0 6.0 ) ">
                <text style="font-size:13.0px;" y="0.0" class="axis-text-x" text-anchor="middle" dy="0.7em">
                  <tspan>1</tspan>
                </text>
              </g>
            </g>
            <g transform="translate(223.34902544587538 0.0 ) ">
              <line stroke-width="1.0" stroke="rgb(187,187,187)" stroke-opacity="1.0" x2="0.0" y2="4.0">
              </line>
              <g transform="translate(0.0 6.0 ) ">
                <text style="font-size:13.0px;" y="0.0" class="axis-text-x" text-anchor="middle" dy="0.7em">
                  <tspan>2</tspan>
                </text>
              </g>
            </g>
            <line x1="0.0" y1="0.0" x2="233.98469332425037" y2="0.0" stroke-width="1.0" stroke="rgb(187,187,187)" stroke-opacity="1.0">
            </line>
          </g>
          <g transform="translate(31.015306675749617 0.0 ) ">
            <g transform="translate(0.0 285.9821764194301 ) ">
              <g transform="translate(-2.0 0.0 ) ">
                <text style="font-size:13.0px;" y="0.0" class="axis-text-y" text-anchor="end" dy="0.35em">
                  <tspan>-1.5</tspan>
                </text>
              </g>
            </g>
            <g transform="translate(0.0 236.85239684809682 ) ">
              <g transform="translate(-2.0 0.0 ) ">
                <text style="font-size:13.0px;" y="0.0" class="axis-text-y" text-anchor="end" dy="0.35em">
                  <tspan>-1</tspan>
                </text>
              </g>
            </g>
            <g transform="translate(0.0 187.72261727676354 ) ">
              <g transform="translate(-2.0 0.0 ) ">
                <text style="font-size:13.0px;" y="0.0" class="axis-text-y" text-anchor="end" dy="0.35em">
                  <tspan>-0.5</tspan>
                </text>
              </g>
            </g>
            <g transform="translate(0.0 138.59283770543027 ) ">
              <g transform="translate(-2.0 0.0 ) ">
                <text style="font-size:13.0px;" y="0.0" class="axis-text-y" text-anchor="end" dy="0.35em">
                  <tspan>0</tspan>
                </text>
              </g>
            </g>
            <g transform="translate(0.0 89.463058134097 ) ">
              <g transform="translate(-2.0 0.0 ) ">
                <text style="font-size:13.0px;" y="0.0" class="axis-text-y" text-anchor="end" dy="0.35em">
                  <tspan>0.5</tspan>
                </text>
              </g>
            </g>
            <g transform="translate(0.0 40.33327856276371 ) ">
              <g transform="translate(-2.0 0.0 ) ">
                <text style="font-size:13.0px;" y="0.0" class="axis-text-y" text-anchor="end" dy="0.35em">
                  <tspan>1</tspan>
                </text>
              </g>
            </g>
          </g>
        </g>
        <g clip-path="url(#_sample_helper_static_id_prefix_2)" clip-bounds-jfx="[rect (31.015306675749617, 0.0), (233.98469332425037, 326.0)]">
          <g transform="translate(31.015306675749617 0.0 ) ">
            <g>
              <g>
                <g>
                  <path d="M10.635667878375017 155.03799461242278 L10.635667878375017 155.03799461242278 L10.786258461019983 145.60585872566944 L10.85813140336802 164.52873729326228 L11.304424501835925 136.2701216224633 L11.457530348352279 174.03871639103792 L12.183292391794978 127.06812798480814 L12.436242649573998 183.5284107179022 L13.414434551374057 118.0366002175576 L13.795077817244675 192.95833715472736 L14.988209135732802 109.21012594889517 L15.533168518994856 202.2879203029645 L16.893499835002828 100.62294140343721 L17.648100679729595 211.47707087233258 L19.11799052953802 92.30728346592139 L20.13576892623351 220.4856995725506 L21.648194200993487 84.29398779936156 L22.99049223148674 229.27396309583452 L24.469474615634837 76.61219454456021 L26.20493440919772 237.8025100993942 L27.5661764241936 69.28928389612129 L29.7701547081914 246.0325690563253 L30.921661300715897 62.35074432611242 L33.67561504017905 253.92624109191507 L34.51841635910867 55.82009058989932 L37.90923057414638 261.4465116970947 L38.33814811414638 49.718822729062964 L42.36183668974406 44.066320650329416 L42.45737335023847 268.55758456182804 L46.56988760212198 38.87980312848701 L47.30494094357237 275.22497528272936 L50.94213537369054 34.17425166894685 L52.43537091977653 281.41559335722934 L55.458035068948504 29.96244564809946 L57.830814301464756 287.0981638678552 L60.09666952225274 26.254833465340212 L63.47185007133119 292.2428526517594 L64.83691919040726 23.05963796413947 L69.33804532430567 296.82206281547155 L69.65756334143961 20.382645589902282 L70.35987127205857 152.7333582429836 L70.3975532496261 156.2713537806254 L70.46905757571713 149.25915782667815 L70.58659556731648 159.85674194601796 L70.71994791911872 145.86448662642638 L70.93077834870654 163.47239474362783 L71.10677454200652 142.56419656757402 L71.43314809874396 167.10068635620135 L71.62316616534996 139.37231341103868 L72.09599782738044 170.72345507604518 L72.26220400656031 136.30195768750724 L72.92080922741383 174.3220970126439 L73.01649586413046 133.3652206080514 L73.87818515234719 130.57322116720707 L73.90826532308502 177.87775643625903 L74.53713369226362 18.22756950698779 L74.83904124841295 127.93593446769015 L75.0581998756899 181.37127599575706 L75.40761194849074 300.8100950447839 L75.8904703341005 125.46229640937594 L76.36962268077332 184.7834602712846 L77.02360393593224 123.16007447527909 L77.84064909737421 188.09499378010295 L78.22933687097142 121.03587651664279 L79.45434988180642 16.595663054785334 L79.46857232572289 191.28669281581097 L79.49836519261333 119.09516393057248 L80.82129641407386 117.34217113005188 L81.24980919896811 194.33954058870194 L81.6579288315258 304.1836629966492 L82.18863143896509 115.77998607392692 L83.1798766929253 197.23471943775715 L83.59086936395677 114.41048877128166 L84.38828028888541 15.485918876402536 L85.01855265233705 113.23439959942867 L85.25347504542866 199.95385095641683 L86.46230688674618 112.25126319791222 L87.46445432789608 202.47901941948453 L87.91290039827688 111.45951289249562 L88.06510187010385 306.9215770359709 L89.31779001129388 14.895221193544359 L89.36129847474741 110.85646044589052 L89.80582890086865 204.79286549074504 L90.79870943773375 110.43833998320268 L92.21662891265925 110.20036070246721 L92.26981174591697 206.8787092142129 L93.60689674748136 110.13674201500517 L94.22231152675015 14.818181818181799 L94.60448482112875 309.0051776333354 L94.84783072812299 208.7206202948459 L94.96171146823117 110.24076332759559 L96.27370300844643 110.5048196813736 L97.53056157277956 210.3035528032456 L97.53595619942327 110.92048031909167 L98.74203403460001 111.47854432401765 L99.08171843279479 15.247304140883216 L99.88603616931856 112.16913725591576 L100.30795892221356 211.61338617274032 L100.96259429053444 112.9817345779511 L101.25031204066507 310.4182767977513 L101.9669238687775 113.9052758628489 L102.08717122939277 138.59283770543027 L102.69531272655357 138.53051879936547 L102.89482729206767 114.92821018252198 L103.16931833649816 212.637065760812 L103.29617665011808 138.34405889626635 L103.7427191066422 116.03859567241476 L103.87629472876922 16.173053411527675 L103.88253387513411 138.03494565032267 L104.44725194806979 137.60564826641715 L104.50764267470609 117.22416541967205 L104.98334150264745 137.0596032701111 L105.18727392948453 118.47241092148631 L105.48400482142154 136.40119387183617 L105.77993184984219 119.77067286435245 L105.9426808964057 135.63572178139978 L106.10322863534616 213.36262627600053 L106.28457608867136 121.10619676296591 L106.3530876663522 134.76938057818353 L106.70081341012431 122.46624130965593 L106.70926899725518 133.80921132814072 L107.0056319505386 132.7630664368147 L107.02888594448753 123.83814426255437 L107.23698698752526 131.6395582199627 L107.2696678001646 125.20940736812435 L107.3985845600212 130.4480094874292 L107.42464699425183 126.56776810605531 L107.48615124916452 129.19839351170322 L107.49591686956174 127.90128168342859 L107.97638015297214 311.14740405914597 L108.5868168058288 17.583833312400614 L109.09772435887794 213.7793264826046 L112.14036470841931 213.87769019776457 L113.19477705606926 19.4661733734295 L114.75576300533477 311.18181818181813 L115.21807374502964 213.6495824289018 L117.68248483543537 21.804787539445087 L118.31743175896983 213.0882737977062 L121.42460841283207 212.18851082084944 L121.56091150163286 310.5135188778901 L122.03282162302082 24.582585883633627 L124.52546257510956 210.94655105034184 L126.22966045758122 27.780850309320456 L127.60558749375728 209.36018650043673 L128.36427925615993 309.13737565528186 L130.25773628941434 31.379363397944573 L130.65041379191103 207.42883149852224 L133.64514622490196 205.15354611202582 L134.10275801079115 35.35643183596308 L135.1374132498421 307.0511980984252 L136.57508892989534 202.5369892946053 L137.75146989199857 39.68908554353929 L139.4254828010711 199.58347745340996 L141.19155581339052 44.353036677459855 L141.85209084876607 304.2557358682633 L142.18160848534274 196.29907229997244 L144.41199342610528 49.32318330958094 L144.82897430437077 192.69144614550797 L147.35329818513839 188.7699346114494 L147.40270360523294 54.573205312726074 L148.47993040808416 300.75471384260754 L149.74061607649747 184.54550148909055 L150.15484678837487 60.07608560931068 L151.9772602658595 180.03083537556714 L152.6608265895287 65.80426244622119 L154.050130420561 175.24004219573547 L154.9141091048446 71.72935412868739 L154.99270748694073 296.55476183542396 L155.9465598741232 170.18883261740842 L156.90948672622102 77.82280911688167 L157.65444933999234 164.89451326626613 L158.64287576375185 84.05553705217355 L159.16238255585557 159.37575538517433 L160.1115043677397 90.3986115642638 L160.45968410579894 153.65245866530205 L161.3137679733011 96.8229217959805 L161.36207838627922 291.66571914659164 L161.53637243980415 147.74608288323822 L162.24923291425137 103.29936274687783 L162.38334779576172 141.67918888008202 L162.91870508691704 109.7993389516823 L162.99240665501068 135.47532325714744 L163.3241179197051 116.29451264106962 L163.35623812845355 129.15935623585122 L163.46857212583623 122.75686523728893 L167.5602125786951 286.10034172559665 L173.55987582778772 279.87409132939183 L179.33411939406147 273.00562748739065 L184.85669924557092 265.51642095754346 L190.10226759381896 257.4305897380062 L195.04613437735543 248.77539103213425 L199.66484548335652 239.58037787992154 L203.93590809237463 229.87790869317269 L207.83826771114153 219.70233902729876 L211.35202628954812 209.09061311065508 L214.45860123157905 198.08222870418479 L217.14112292264866 186.71822388780006 L219.38421789650843 175.0416953806438 L221.17424012387914 163.09728168500956 L222.499177051444 150.93208991324983 L223.34902544587538 138.5927689844424 " fill="none" stroke-width="1.6500000000000001" stroke="rgb(187,187,187)" stroke-opacity="1.0">
                  </path>
                </g>
              </g>
            </g>
          </g>
          <defs>
            <clipPath id="_sample_helper_static_id_prefix_2">
              <rect x="31.015306675749617" y="0.0" width="233.98469332425037" height="326.0">
              </rect>
            </clipPath>
          </defs>
        </g>
        <g>
        </g>
      </g>
      <g transform="translate(52.01530667574961 15.8 ) ">
        <text style="font-size:16.0px;" y="0.0" class="plot-title">
          <tspan>`line` layer</tspan>
        </text>
      </g>
      <g transform="translate(15.0 185.0 ) rotate(-90.0 ) ">
        <text style="font-size:15.0px;" y="0.0" class="axis-title-y" text-anchor="middle">
          <tspan>y</tspan>
        </text>
      </g>
      <g transform="translate(169.00765333787479 382.0 ) ">
        <text style="font-size:15.0px;" y="0.0" class="axis-title-x" text-anchor="middle">
          <tspan>x</tspan>
        </text>
      </g>
      <path fill="rgb(0,0,0)" fill-opacity="0.0" stroke="rgb(187,187,187)" stroke-opacity="1.0" stroke-width="0.0" d="M0.0 0.0 L0.0 388.0 L292.0 388.0 L292.0 0.0 Z" pointer-events="none">
      </path>
    </g>
    <g id="_sample_helper_static_id_prefix_3">
    </g>
  </svg>
  <svg xmlns="http://www.w3.org/2000/svg" xmlns:xlink="http://www.w3.org/1999/xlink" display="block" class="plt-container" width="292.0" height="388.0" x="302.0" y="6.0">
    <style type="text/css">
    .plt-container {
   font-family: sans-serif;
   user-select: none;
   -webkit-user-select: none;
   -moz-user-select: none;
   -ms-user-select: none;
}
text {
   text-rendering: optimizeLegibility;
}
#_sample_helper_static_id_prefix_4 .plot-title {
fill: #bbbbbb;
font-weight: normal;
font-style: normal;
font-family: sans-serif;
font-size: 16.0px;

}
#_sample_helper_static_id_prefix_4 .plot-subtitle {
fill: #bbbbbb;
font-weight: normal;
font-style: normal;
font-family: sans-serif;
font-size: 15.0px;

}
#_sample_helper_static_id_prefix_4 .plot-caption {
fill: #bbbbbb;
font-weight: normal;
font-style: normal;
font-family: sans-serif;
font-size: 13.0px;

}
#_sample_helper_static_id_prefix_4 .hyperlink-element {
fill: #118ed8;
font-weight: normal;
font-style: normal;

}
#_sample_helper_static_id_prefix_4 .legend-title {
fill: #bbbbbb;
font-weight: normal;
font-style: normal;
font-family: sans-serif;
font-size: 15.0px;

}
#_sample_helper_static_id_prefix_4 .legend-item {
fill: #bbbbbb;
font-weight: normal;
font-style: normal;
font-family: sans-serif;
font-size: 13.0px;

}
#_sample_helper_static_id_prefix_4 .axis-title-x {
fill: #bbbbbb;
font-weight: normal;
font-style: normal;
font-family: sans-serif;
font-size: 15.0px;

}
#_sample_helper_static_id_prefix_4 .axis-text-x {
fill: #bbbbbb;
font-weight: normal;
font-style: normal;
font-family: sans-serif;
font-size: 13.0px;

}
#_sample_helper_static_id_prefix_6 .axis-tooltip-text-x {
fill: #303030;
font-weight: normal;
font-style: normal;
font-family: sans-serif;
font-size: 13.0px;

}
#_sample_helper_static_id_prefix_4 .axis-title-y {
fill: #bbbbbb;
font-weight: normal;
font-style: normal;
font-family: sans-serif;
font-size: 15.0px;

}
#_sample_helper_static_id_prefix_4 .axis-text-y {
fill: #bbbbbb;
font-weight: normal;
font-style: normal;
font-family: sans-serif;
font-size: 13.0px;

}
#_sample_helper_static_id_prefix_6 .axis-tooltip-text-y {
fill: #303030;
font-weight: normal;
font-style: normal;
font-family: sans-serif;
font-size: 13.0px;

}
#_sample_helper_static_id_prefix_4 .facet-strip-text-x {
fill: #bbbbbb;
font-weight: normal;
font-style: normal;
font-family: sans-serif;
font-size: 13.0px;

}
#_sample_helper_static_id_prefix_4 .facet-strip-text-y {
fill: #bbbbbb;
font-weight: normal;
font-style: normal;
font-family: sans-serif;
font-size: 13.0px;

}
#_sample_helper_static_id_prefix_6 .tooltip-text {
fill: #bbbbbb;
font-weight: normal;
font-style: normal;
font-family: sans-serif;
font-size: 13.0px;

}
#_sample_helper_static_id_prefix_6 .tooltip-title {
fill: #bbbbbb;
font-weight: bold;
font-style: normal;
font-family: sans-serif;
font-size: 13.0px;

}
#_sample_helper_static_id_prefix_6 .tooltip-label {
fill: #bbbbbb;
font-weight: bold;
font-style: normal;
font-family: sans-serif;
font-size: 13.0px;

}

    </style>
    <g id="_sample_helper_static_id_prefix_4">
      <path fill-rule="evenodd" fill="rgb(25,25,28)" fill-opacity="1.0" d="M0.0 0.0 L0.0 388.0 L292.0 388.0 L292.0 0.0 Z">
      </path>
      <g transform="translate(21.0 22.0 ) ">
        <g>
          <g transform="translate(31.015306675749617 0.0 ) ">
            <g>
              <line x1="41.45624412115146" y1="0.0" x2="41.45624412115146" y2="326.0" stroke="rgb(71,71,71)" stroke-opacity="1.0" stroke-width="1.0" fill="none">
              </line>
              <line x1="102.08717122939277" y1="0.0" x2="102.08717122939277" y2="326.0" stroke="rgb(71,71,71)" stroke-opacity="1.0" stroke-width="1.0" fill="none">
              </line>
              <line x1="162.71809833763407" y1="0.0" x2="162.71809833763407" y2="326.0" stroke="rgb(71,71,71)" stroke-opacity="1.0" stroke-width="1.0" fill="none">
              </line>
              <line x1="223.34902544587538" y1="0.0" x2="223.34902544587538" y2="326.0" stroke="rgb(71,71,71)" stroke-opacity="1.0" stroke-width="1.0" fill="none">
              </line>
            </g>
          </g>
          <g transform="translate(31.015306675749617 0.0 ) ">
            <g>
              <line x1="0.0" y1="285.9821764194301" x2="233.98469332425037" y2="285.9821764194301" stroke="rgb(71,71,71)" stroke-opacity="1.0" stroke-width="1.0" fill="none">
              </line>
              <line x1="0.0" y1="236.85239684809682" x2="233.98469332425037" y2="236.85239684809682" stroke="rgb(71,71,71)" stroke-opacity="1.0" stroke-width="1.0" fill="none">
              </line>
              <line x1="0.0" y1="187.72261727676354" x2="233.98469332425037" y2="187.72261727676354" stroke="rgb(71,71,71)" stroke-opacity="1.0" stroke-width="1.0" fill="none">
              </line>
              <line x1="0.0" y1="138.59283770543027" x2="233.98469332425037" y2="138.59283770543027" stroke="rgb(71,71,71)" stroke-opacity="1.0" stroke-width="1.0" fill="none">
              </line>
              <line x1="0.0" y1="89.463058134097" x2="233.98469332425037" y2="89.463058134097" stroke="rgb(71,71,71)" stroke-opacity="1.0" stroke-width="1.0" fill="none">
              </line>
              <line x1="0.0" y1="40.33327856276371" x2="233.98469332425037" y2="40.33327856276371" stroke="rgb(71,71,71)" stroke-opacity="1.0" stroke-width="1.0" fill="none">
              </line>
            </g>
          </g>
          <g transform="translate(31.015306675749617 326.0 ) ">
            <g transform="translate(41.45624412115146 0.0 ) ">
              <line stroke-width="1.0" stroke="rgb(187,187,187)" stroke-opacity="1.0" x2="0.0" y2="4.0">
              </line>
              <g transform="translate(0.0 6.0 ) ">
                <text style="font-size:13.0px;" y="0.0" class="axis-text-x" text-anchor="middle" dy="0.7em">
                  <tspan>-1</tspan>
                </text>
              </g>
            </g>
            <g transform="translate(102.08717122939277 0.0 ) ">
              <line stroke-width="1.0" stroke="rgb(187,187,187)" stroke-opacity="1.0" x2="0.0" y2="4.0">
              </line>
              <g transform="translate(0.0 6.0 ) ">
                <text style="font-size:13.0px;" y="0.0" class="axis-text-x" text-anchor="middle" dy="0.7em">
                  <tspan>0</tspan>
                </text>
              </g>
            </g>
            <g transform="translate(162.71809833763407 0.0 ) ">
              <line stroke-width="1.0" stroke="rgb(187,187,187)" stroke-opacity="1.0" x2="0.0" y2="4.0">
              </line>
              <g transform="translate(0.0 6.0 ) ">
                <text style="font-size:13.0px;" y="0.0" class="axis-text-x" text-anchor="middle" dy="0.7em">
                  <tspan>1</tspan>
                </text>
              </g>
            </g>
            <g transform="translate(223.34902544587538 0.0 ) ">
              <line stroke-width="1.0" stroke="rgb(187,187,187)" stroke-opacity="1.0" x2="0.0" y2="4.0">
              </line>
              <g transform="translate(0.0 6.0 ) ">
                <text style="font-size:13.0px;" y="0.0" class="axis-text-x" text-anchor="middle" dy="0.7em">
                  <tspan>2</tspan>
                </text>
              </g>
            </g>
            <line x1="0.0" y1="0.0" x2="233.98469332425037" y2="0.0" stroke-width="1.0" stroke="rgb(187,187,187)" stroke-opacity="1.0">
            </line>
          </g>
          <g transform="translate(31.015306675749617 0.0 ) ">
            <g transform="translate(0.0 285.9821764194301 ) ">
              <g transform="translate(-2.0 0.0 ) ">
                <text style="font-size:13.0px;" y="0.0" class="axis-text-y" text-anchor="end" dy="0.35em">
                  <tspan>-1.5</tspan>
                </text>
              </g>
            </g>
            <g transform="translate(0.0 236.85239684809682 ) ">
              <g transform="translate(-2.0 0.0 ) ">
                <text style="font-size:13.0px;" y="0.0" class="axis-text-y" text-anchor="end" dy="0.35em">
                  <tspan>-1</tspan>
                </text>
              </g>
            </g>
            <g transform="translate(0.0 187.72261727676354 ) ">
              <g transform="translate(-2.0 0.0 ) ">
                <text style="font-size:13.0px;" y="0.0" class="axis-text-y" text-anchor="end" dy="0.35em">
                  <tspan>-0.5</tspan>
                </text>
              </g>
            </g>
            <g transform="translate(0.0 138.59283770543027 ) ">
              <g transform="translate(-2.0 0.0 ) ">
                <text style="font-size:13.0px;" y="0.0" class="axis-text-y" text-anchor="end" dy="0.35em">
                  <tspan>0</tspan>
                </text>
              </g>
            </g>
            <g transform="translate(0.0 89.463058134097 ) ">
              <g transform="translate(-2.0 0.0 ) ">
                <text style="font-size:13.0px;" y="0.0" class="axis-text-y" text-anchor="end" dy="0.35em">
                  <tspan>0.5</tspan>
                </text>
              </g>
            </g>
            <g transform="translate(0.0 40.33327856276371 ) ">
              <g transform="translate(-2.0 0.0 ) ">
                <text style="font-size:13.0px;" y="0.0" class="axis-text-y" text-anchor="end" dy="0.35em">
                  <tspan>1</tspan>
                </text>
              </g>
            </g>
          </g>
        </g>
        <g clip-path="url(#_sample_helper_static_id_prefix_5)" clip-bounds-jfx="[rect (31.015306675749617, 0.0), (233.98469332425037, 326.0)]">
          <g transform="translate(31.015306675749617 0.0 ) ">
            <g>
              <g>
                <g>
                  <path d="M102.08717122939277 138.59283770543027 L102.08717122939277 138.59283770543027 L102.69531272655357 138.53051879936547 L103.29617665011808 138.34405889626635 L103.88253387513411 138.03494565032267 L104.44725194806979 137.60564826641715 L104.98334150264745 137.0596032701111 L105.48400482142154 136.40119387183617 L105.9426808964057 135.63572178139978 L106.3530876663522 134.76938057818353 L106.70926899725518 133.80921132814072 L107.0056319505386 132.7630664368147 L107.23698698752526 131.6395582199627 L107.3985845600212 130.4480094874292 L107.48615124916452 129.19839351170322 L107.49591686956174 127.90128168342859 L107.42464699425183 126.56776810605531 L107.2696678001646 125.20940736812435 L107.02888594448753 123.83814426255437 L106.70081341012431 122.46624130965593 L106.28457608867136 121.10619676296591 L105.77993184984219 119.77067286435245 L105.18727392948453 118.47241092148631 L104.50764267470609 117.22416541967205 L103.7427191066422 116.03859567241476 L102.89482729206767 114.92821018252198 L101.9669238687775 113.9052758628489 L100.96259429053444 112.9817345779511 L99.88603616931856 112.16913725591576 L98.74203403460001 111.47854432401765 L97.53595619942327 110.92048031909167 L96.27370300844643 110.5048196813736 L94.96171146823117 110.24076332759559 L93.60689674748136 110.13674201500517 L92.21662891265925 110.20036070246721 L90.79870943773375 110.43833998320268 L89.36129847474741 110.85646044589052 L87.91290039827688 111.45951289249562 L86.46230688674618 112.25126319791222 L85.01855265233705 113.23439959942867 L83.59086936395677 114.41048877128166 L82.18863143896509 115.77998607392692 L80.82129641407386 117.34217113005188 L79.49836519261333 119.09516393057248 L78.22933687097142 121.03587651664279 L77.02360393593224 123.16007447527909 L75.8904703341005 125.46229640937594 L74.83904124841295 127.93593446769015 L73.87818515234719 130.57322116720707 L73.01649586413046 133.3652206080514 L72.26220400656031 136.30195768750724 L71.62316616534996 139.37231341103868 L71.10677454200652 142.56419656757402 L70.71994791911872 145.86448662642638 L70.46905757571713 149.25915782667815 L70.35987127205857 152.7333582429836 L70.3975532496261 156.2713537806254 L70.58659556731648 159.85674194601796 L70.93077834870654 163.47239474362783 L71.43314809874396 167.10068635620135 L72.09599782738044 170.72345507604518 L72.92080922741383 174.3220970126439 L73.90826532308502 177.87775643625903 L75.0581998756899 181.37127599575706 L76.36962268077332 184.7834602712846 L77.84064909737421 188.09499378010295 L79.46857232572289 191.28669281581097 L81.24980919896811 194.33954058870194 L83.1798766929253 197.23471943775715 L85.25347504542866 199.95385095641683 L87.46445432789608 202.47901941948453 L89.80582890086865 204.79286549074504 L92.26981174591697 206.8787092142129 L94.84783072812299 208.7206202948459 L97.53056157277956 210.3035528032456 L100.30795892221356 211.61338617274032 L103.16931833649816 212.637065760812 L106.10322863534616 213.36262627600053 L109.09772435887794 213.7793264826046 L112.14036470841931 213.87769019776457 L115.21807374502964 213.6495824289018 L118.31743175896983 213.0882737977062 L121.42460841283207 212.18851082084944 L124.52546257510956 210.94655105034184 L127.60558749375728 209.36018650043673 L130.65041379191103 207.42883149852224 L133.64514622490196 205.15354611202582 L136.57508892989534 202.5369892946053 L139.4254828010711 199.58347745340996 L142.18160848534274 196.29907229997244 L144.82897430437077 192.69144614550797 L147.35329818513839 188.7699346114494 L149.74061607649747 184.54550148909055 L151.9772602658595 180.03083537556714 L154.050130420561 175.24004219573547 L155.9465598741232 170.18883261740842 L157.65444933999234 164.89451326626613 L159.16238255585557 159.37575538517433 L160.45968410579894 153.65245866530205 L161.53637243980415 147.74608288323822 L162.38334779576172 141.67918888008202 L162.99240665501068 135.47532325714744 L163.35623812845355 129.15935623585122 L163.46857212583623 122.75686523728893 L163.3241179197051 116.29451264106962 L162.91870508691704 109.7993389516823 L162.24923291425137 103.29936274687783 L161.3137679733011 96.8229217959805 L160.1115043677397 90.3986115642638 L158.64287576375185 84.05553705217355 L156.90948672622102 77.82280911688167 L154.9141091048446 71.72935412868739 L152.6608265895287 65.80426244622119 L150.15484678837487 60.07608560931068 L147.40270360523294 54.573205312726074 L144.41199342610528 49.32318330958094 L141.19155581339052 44.353036677459855 L137.75146989199857 39.68908554353929 L134.10275801079115 35.35643183596308 L130.25773628941434 31.379363397944573 L126.22966045758122 27.780850309320456 L122.03282162302082 24.582585883633627 L117.68248483543537 21.804787539445087 L113.19477705606926 19.4661733734295 L108.5868168058288 17.583833312400614 L103.87629472876922 16.173053411527675 L99.08171843279479 15.247304140883216 L94.22231152675015 14.818181818181799 L89.31779001129388 14.895221193544359 L84.38828028888541 15.485918876402536 L79.45434988180642 16.595663054785334 L74.53713369226362 18.22756950698779 L69.65756334143961 20.382645589902282 L64.83691919040726 23.05963796413947 L60.09666952225274 26.254833465340212 L55.458035068948504 29.96244564809946 L50.94213537369054 34.17425166894685 L46.56988760212198 38.87980312848701 L42.36183668974406 44.066320650329416 L38.33814811414638 49.718822729062964 L34.51841635910867 55.82009058989932 L30.921661300715897 62.35074432611242 L27.5661764241936 69.28928389612129 L24.469474615634837 76.61219454456021 L21.648194200993487 84.29398779936156 L19.11799052953802 92.30728346592139 L16.893499835002828 100.62294140343721 L14.988209135732802 109.21012594889517 L13.414434551374057 118.0366002175576 L12.183292391794978 127.06812798480814 L11.304424501835925 136.2701216224633 L10.786258461019983 145.60585872566944 L10.635667878375017 155.03799461242278 L10.85813140336802 164.52873729326228 L11.457530348352279 174.03871639103792 L12.436242649573998 183.5284107179022 L13.795077817244675 192.95833715472736 L15.533168518994856 202.2879203029645 L17.648100679729595 211.47707087233258 L20.13576892623351 220.4856995725506 L22.99049223148674 229.27396309583452 L26.20493440919772 237.8025100993942 L29.7701547081914 246.0325690563253 L33.67561504017905 253.92624109191507 L37.90923057414638 261.4465116970947 L42.45737335023847 268.55758456182804 L47.30494094357237 275.22497528272936 L52.43537091977653 281.41559335722934 L57.830814301464756 287.0981638678552 L63.47185007133119 292.2428526517594 L69.33804532430567 296.82206281547155 L75.40761194849074 300.8100950447839 L81.6579288315258 304.1836629966492 L88.06510187010385 306.9215770359709 L94.60448482112875 309.0051776333354 L101.25031204066507 310.4182767977513 L107.97638015297214 311.14740405914597 L114.75576300533477 311.18181818181813 L121.56091150163286 310.5135188778901 L128.36427925615993 309.13737565528186 L135.1374132498421 307.0511980984252 L141.85209084876607 304.2557358682633 L148.47993040808416 300.75471384260754 L154.99270748694073 296.55476183542396 L161.36207838627922 291.66571914659164 L167.5602125786951 286.10034172559665 L173.55987582778772 279.87409132939183 L179.33411939406147 273.00562748739065 L184.85669924557092 265.51642095754346 L190.10226759381896 257.4305897380062 L195.04613437735543 248.77539103213425 L199.66484548335652 239.58037787992154 L203.93590809237463 229.87790869317269 L207.83826771114153 219.70233902729876 L211.35202628954812 209.09061311065508 L214.45860123157905 198.08222870418479 L217.14112292264866 186.71822388780006 L219.38421789650843 175.0416953806438 L221.17424012387914 163.09728168500956 L222.499177051444 150.93208991324983 L223.34902544587538 138.5927689844424 " fill="none" stroke-width="1.6500000000000001" stroke="rgb(187,187,187)" stroke-opacity="1.0">
                  </path>
                </g>
              </g>
            </g>
          </g>
          <defs>
            <clipPath id="_sample_helper_static_id_prefix_5">
              <rect x="31.015306675749617" y="0.0" width="233.98469332425037" height="326.0">
              </rect>
            </clipPath>
          </defs>
        </g>
        <g>
        </g>
      </g>
      <g transform="translate(52.01530667574961 15.8 ) ">
        <text style="font-size:16.0px;" y="0.0" class="plot-title">
          <tspan>`path` layer</tspan>
        </text>
      </g>
      <g transform="translate(15.0 185.0 ) rotate(-90.0 ) ">
        <text style="font-size:15.0px;" y="0.0" class="axis-title-y" text-anchor="middle">
          <tspan>y</tspan>
        </text>
      </g>
      <g transform="translate(169.00765333787479 382.0 ) ">
        <text style="font-size:15.0px;" y="0.0" class="axis-title-x" text-anchor="middle">
          <tspan>x</tspan>
        </text>
      </g>
      <path fill="rgb(0,0,0)" fill-opacity="0.0" stroke="rgb(187,187,187)" stroke-opacity="1.0" stroke-width="0.0" d="M0.0 0.0 L0.0 388.0 L292.0 388.0 L292.0 0.0 Z" pointer-events="none">
      </path>
    </g>
    <g id="_sample_helper_static_id_prefix_6">
    </g>
  </svg>
</svg>