<svg xmlns="http://www.w3.org/2000/svg" xmlns:xlink="http://www.w3.org/1999/xlink" class="plt-container" width="600.0" height="400.0">
  <g id="xXxprefixXx0">
  </g>
  <svg xmlns="http://www.w3.org/2000/svg" xmlns:xlink="http://www.w3.org/1999/xlink" class="plt-container" width="298.0" height="400.0" x="0.0" y="0.0">
    <style type="text/css">
    .plt-container {
   font-family: Lucida Grande, sans-serif;
   user-select: none;
   -webkit-user-select: none;
   -moz-user-select: none;
   -ms-user-select: none;
}
text {
   text-rendering: optimizeLegibility;
}
#xXxprefixXx1 .plot-title {
   fill: #474747;
   font-family: Lucida Grande, sans-serif;
   font-size: 16.0px;
   font-weight: normal;
   font-style: normal;   
}
#xXxprefixXx1 .plot-subtitle {
   fill: #474747;
   font-family: Lucida Grande, sans-serif;
   font-size: 15.0px;
   font-weight: normal;
   font-style: normal;   
}
#xXxprefixXx1 .plot-caption {
   fill: #474747;
   font-family: Lucida Grande, sans-serif;
   font-size: 13.0px;
   font-weight: normal;
   font-style: normal;   
}
#xXxprefixXx1 .legend-title {
   fill: #474747;
   font-family: Lucida Grande, sans-serif;
   font-size: 15.0px;
   font-weight: normal;
   font-style: normal;   
}
#xXxprefixXx1 .legend-item {
   fill: #474747;
   font-family: Lucida Grande, sans-serif;
   font-size: 13.0px;
   font-weight: normal;
   font-style: normal;   
}
#xXxprefixXx1 .axis-title-x {
   fill: #474747;
   font-family: Lucida Grande, sans-serif;
   font-size: 15.0px;
   font-weight: normal;
   font-style: normal;   
}
#xXxprefixXx1 .axis-text-x {
   fill: #474747;
   font-family: Lucida Grande, sans-serif;
   font-size: 13.0px;
   font-weight: normal;
   font-style: normal;   
}
#xXxprefixXx3 .axis-tooltip-text-x {
   fill: #ffffff;
   font-family: Lucida Grande, sans-serif;
   font-size: 13.0px;
   font-weight: normal;
   font-style: normal;   
}
#xXxprefixXx1 .axis-title-y {
   fill: #474747;
   font-family: Lucida Grande, sans-serif;
   font-size: 15.0px;
   font-weight: normal;
   font-style: normal;   
}
#xXxprefixXx1 .axis-text-y {
   fill: #474747;
   font-family: Lucida Grande, sans-serif;
   font-size: 13.0px;
   font-weight: normal;
   font-style: normal;   
}
#xXxprefixXx3 .axis-tooltip-text-y {
   fill: #ffffff;
   font-family: Lucida Grande, sans-serif;
   font-size: 13.0px;
   font-weight: normal;
   font-style: normal;   
}
#xXxprefixXx1 .facet-strip-text-x {
   fill: #474747;
   font-family: Lucida Grande, sans-serif;
   font-size: 13.0px;
   font-weight: normal;
   font-style: normal;   
}
#xXxprefixXx1 .facet-strip-text-y {
   fill: #474747;
   font-family: Lucida Grande, sans-serif;
   font-size: 13.0px;
   font-weight: normal;
   font-style: normal;   
}
#xXxprefixXx3 .tooltip-text {
   fill: #474747;
   font-family: Lucida Grande, sans-serif;
   font-size: 13.0px;
   font-weight: normal;
   font-style: normal;   
}
#xXxprefixXx3 .tooltip-title {
   fill: #474747;
   font-family: Lucida Grande, sans-serif;
   font-size: 13.0px;
   font-weight: bold;
   font-style: normal;   
}
#xXxprefixXx3 .tooltip-label {
   fill: #474747;
   font-family: Lucida Grande, sans-serif;
   font-size: 13.0px;
   font-weight: bold;
   font-style: normal;   
}

    </style>
    <g id="xXxprefixXx1">
      <path fill-rule="evenodd" fill="rgb(255,255,255)" fill-opacity="1.0" d="M0.0 0.0 L0.0 400.0 L298.0 400.0 L298.0 0.0 Z">
      </path>
      <g transform="translate(23.0 34.0 ) ">
        <g transform="translate(35.01530667574961 320.0 ) ">
          <line x1="40.74754401718864" y1="-0.0" x2="40.74754401718864" y2="-320.0" stroke="rgb(233,233,233)" stroke-opacity="1.0" stroke-width="1.0">
          </line>
          <line x1="100.34197722069028" y1="-0.0" x2="100.34197722069028" y2="-320.0" stroke="rgb(233,233,233)" stroke-opacity="1.0" stroke-width="1.0">
          </line>
          <line x1="159.93641042419193" y1="-0.0" x2="159.93641042419193" y2="-320.0" stroke="rgb(233,233,233)" stroke-opacity="1.0" stroke-width="1.0">
          </line>
          <line x1="219.53084362769357" y1="-0.0" x2="219.53084362769357" y2="-320.0" stroke="rgb(233,233,233)" stroke-opacity="1.0" stroke-width="1.0">
          </line>
          <g transform="translate(40.74754401718864 0.0 ) ">
            <line stroke-width="1.0" stroke="rgb(71,71,71)" stroke-opacity="1.0" x2="0.0" y2="4.0">
            </line>
            <g transform="translate(0.0 7.0 ) ">
              <text class="axis-text-x" text-anchor="middle" dy="0.7em">
              -1
              </text>
            </g>
          </g>
          <g transform="translate(100.34197722069028 0.0 ) ">
            <line stroke-width="1.0" stroke="rgb(71,71,71)" stroke-opacity="1.0" x2="0.0" y2="4.0">
            </line>
            <g transform="translate(0.0 7.0 ) ">
              <text class="axis-text-x" text-anchor="middle" dy="0.7em">
              0
              </text>
            </g>
          </g>
          <g transform="translate(159.93641042419193 0.0 ) ">
            <line stroke-width="1.0" stroke="rgb(71,71,71)" stroke-opacity="1.0" x2="0.0" y2="4.0">
            </line>
            <g transform="translate(0.0 7.0 ) ">
              <text class="axis-text-x" text-anchor="middle" dy="0.7em">
              1
              </text>
            </g>
          </g>
          <g transform="translate(219.53084362769357 0.0 ) ">
            <line stroke-width="1.0" stroke="rgb(71,71,71)" stroke-opacity="1.0" x2="0.0" y2="4.0">
            </line>
            <g transform="translate(0.0 7.0 ) ">
              <text class="axis-text-x" text-anchor="middle" dy="0.7em">
              2
              </text>
            </g>
          </g>
          <line x1="0.0" y1="0.0" x2="229.98469332425037" y2="0.0" stroke-width="1.0" stroke="rgb(71,71,71)" stroke-opacity="1.0">
          </line>
        </g>
        <g transform="translate(35.01530667574961 0.0 ) ">
          <line x1="0.0" y1="280.7187007798087" x2="229.98469332425037" y2="280.7187007798087" stroke="rgb(233,233,233)" stroke-opacity="1.0" stroke-width="1.0">
          </line>
          <line x1="0.0" y1="232.49315028034044" x2="229.98469332425037" y2="232.49315028034044" stroke="rgb(233,233,233)" stroke-opacity="1.0" stroke-width="1.0">
          </line>
          <line x1="0.0" y1="184.26759978087222" x2="229.98469332425037" y2="184.26759978087222" stroke="rgb(233,233,233)" stroke-opacity="1.0" stroke-width="1.0">
          </line>
          <line x1="0.0" y1="136.04204928140396" x2="229.98469332425037" y2="136.04204928140396" stroke="rgb(233,233,233)" stroke-opacity="1.0" stroke-width="1.0">
          </line>
          <line x1="0.0" y1="87.8164987819357" x2="229.98469332425037" y2="87.8164987819357" stroke="rgb(233,233,233)" stroke-opacity="1.0" stroke-width="1.0">
          </line>
          <line x1="0.0" y1="39.590948282467465" x2="229.98469332425037" y2="39.590948282467465" stroke="rgb(233,233,233)" stroke-opacity="1.0" stroke-width="1.0">
          </line>
          <g transform="translate(0.0 280.7187007798087 ) ">
            <g transform="translate(-3.0 0.0 ) ">
              <text class="axis-text-y" text-anchor="end" dy="0.35em">
              -1.5
              </text>
            </g>
          </g>
          <g transform="translate(0.0 232.49315028034044 ) ">
            <g transform="translate(-3.0 0.0 ) ">
              <text class="axis-text-y" text-anchor="end" dy="0.35em">
              -1.0
              </text>
            </g>
          </g>
          <g transform="translate(0.0 184.26759978087222 ) ">
            <g transform="translate(-3.0 0.0 ) ">
              <text class="axis-text-y" text-anchor="end" dy="0.35em">
              -0.5
              </text>
            </g>
          </g>
          <g transform="translate(0.0 136.04204928140396 ) ">
            <g transform="translate(-3.0 0.0 ) ">
              <text class="axis-text-y" text-anchor="end" dy="0.35em">
              0.0
              </text>
            </g>
          </g>
          <g transform="translate(0.0 87.8164987819357 ) ">
            <g transform="translate(-3.0 0.0 ) ">
              <text class="axis-text-y" text-anchor="end" dy="0.35em">
              0.5
              </text>
            </g>
          </g>
          <g transform="translate(0.0 39.590948282467465 ) ">
            <g transform="translate(-3.0 0.0 ) ">
              <text class="axis-text-y" text-anchor="end" dy="0.35em">
              1.0
              </text>
            </g>
          </g>
        </g>
        <g transform="translate(35.01530667574961 0.0 ) " clip-path="url(#xXxprefixXx2)" clip-bounds-jfx="[rect (0.0, 0.0), (229.98469332425037, 320.0)]">
          <defs>
            <clipPath id="xXxprefixXx2">
              <rect x="0.0" y="0.0" width="229.98469332425037" height="320.0">
              </rect>
            </clipPath>
          </defs>
          <g>
            <path d="M10.453849696556844 152.18453458888126 L10.453849696556844 152.18453458888126 L10.601865912810467 142.92599629513566 L10.672510177481755 161.50060102406115 L11.111173835029774 133.76208257419714 L11.261662316378505 170.8355498316937 L11.975017359463507 124.72945078263378 L12.223643398351356 180.1505872077568 L13.185112977201086 115.86414745281729 L13.559249094925178 189.4069567162968 L14.731983672044677 107.20012363081736 L15.267626900894754 198.5648297452412 L16.60470316894755 98.77098542668685 L17.346404010105616 207.58485484400745 L18.791165893995824 90.60837640826642 L19.791545231253096 216.42768056201288 L21.278115391248548 82.74256471102976 L22.59746665524314 225.05419690388663 L24.05116563536791 75.20215415416956 L25.756957508881698 233.42577678468143 L27.09492890739996 68.01402100232767 L29.26122988434514 241.5043622638776 L30.393051315824877 61.20318461458889 L33.09992584339024 249.25275199206388 L33.928319359707544 54.7927269594104 L37.26116714682445 256.63461270880464 L37.68275228342821 48.803752372086365 L41.63765535825773 43.255284073943 L41.731558806611005 263.61480693185575 L45.773769070768545 38.16422392980323 L46.4962565758643 270.1594849401025 L50.07127267493963 33.54527771184969 L51.53898115726993 276.2361652586301 L54.50997245372272 29.41098959322649 L56.8421887041258 281.81414858194375 L59.069308823252285 25.771615671499617 L62.386790204045376 286.8641498422178 L63.728523281781605 22.63522744946208 L68.15270205523603 291.3590800642666 L68.46675786862333 20.007504873523743 L69.1570597501176 149.9223148397385 L69.19409754917871 153.3951938950924 L69.26437949913779 146.51205676238348 L69.37990816286307 156.91459332124464 L69.51098083816328 143.1798641731793 L69.71820709302338 160.46370036184328 L69.89119460757946 139.94031564915244 L70.21198876419291 164.02521360117927 L70.39875844623312 136.80717880838154 L70.8635069870079 167.58130559611797 L71.02687184906023 133.79333269939363 L71.67421812452726 171.11371485903697 L71.76826898523893 130.9106459956333 L72.61522757845208 128.17003304756523 L72.64479352460008 174.6039326981684 L73.26291130389616 17.8920927675954 L73.55965770951279 125.58128536705783 L73.77506979039536 178.03315435166337 L74.11850861652205 295.27371292739525 L74.59311247267948 123.15317438957149 L75.06407364513719 181.38253768960453 L75.70687500222897 120.89332463831079 L76.50995266605672 184.63312272893543 L76.89199576955907 118.80822234762483 L78.09606701717988 16.290221403470284 L78.11004632649272 187.76607883760587 L78.1393298802915 116.90322839810798 L79.43964541347488 115.1824992687626 L79.86083271431622 190.7627392281737 L80.26197548652017 298.58519067155754 L80.78360566105971 113.64906608483626 L81.75790544324776 193.60463257693954 L82.16187213894396 112.30477425401882 L82.9456512161889 15.200901964566924 L83.56514898828591 111.15033089514472 L83.79605535127308 196.27371873022514 L84.98422204865929 110.1852890286255 L85.96923764367153 198.75241170010753 L86.41001746778622 109.40811081471965 L86.55961703485328 301.27271365494073 L87.79089030273015 14.62107601820307 L87.83365498311247 108.81615749289868 L88.27058610143617 201.0236716473571 L89.24649321114654 108.40573249884928 L90.64017316074616 108.17213320487582 L90.69244682627154 203.07112560904338 L92.00667417877234 108.10968541350202 L92.61156835909894 14.545454545454561 L92.98720834928659 303.31796577505315 L93.22639422506619 204.87913648573834 L93.33832815850954 108.21179222340672 L94.62789102577914 108.47098864429313 L95.86326342285103 206.43293526698955 L95.86856582762216 108.87899908622498 L97.05402559897529 109.42679197449587 L97.38790304640983 14.966678911296427 L98.17847086237092 110.1046746070339 L98.59318078870191 207.71866127385553 L99.23662507680262 110.90231615013607 L99.51942425305488 304.7050569793878 L100.22378550497908 111.80885974267377 L100.34197722069028 136.04204928140396 L101.13582629366513 112.81296705032834 L101.40562487654131 208.72350013331237 L101.53031453012082 135.79784922332897 L101.96922328291534 113.90291599746236 L102.1005154117039 15.875389851806332 L102.10664789901728 135.49442517823087 L102.72107037905799 115.06666544262289 L103.18863707115435 134.53703388477166 L103.3890832455543 116.29193710084547 L103.68074148273394 133.89074245088216 L103.97160959855279 117.56630465212511 L104.13157642813876 133.139358803828 L104.2893795817534 209.43570677398824 L104.46762687582033 118.87724835628556 L104.53496723880832 132.28896253073233 L104.87674856392925 120.21226140825124 L104.88505960165375 131.3464651073774 L105.17635619014085 130.31957441650525 L105.199212653916 121.55891461355031 L105.40375618145849 129.21674426499408 L105.43587831118272 122.90493974785214 L105.56259122158193 128.04712587723114 L105.58820811497206 124.238299981404 L105.648660946323 126.82050896854304 L105.65825962211785 125.5472703641017 L106.13050932067216 305.4207647206341 L106.7305104763314 17.26020447843007 L107.23268399561465 209.84473765163642 L110.22330999658793 209.94129099167074 L111.25969702245003 19.107900243857202 L112.79399770564812 305.45454545454544 L113.24840518067852 209.71738152530241 L115.67068682995894 21.40347243135716 L116.29477924990151 209.16640372780978 L119.3488382983389 208.28320080574179 L119.48281126738931 304.79854613780617 L119.94665402138355 24.130145652646533 L122.39668293904089 207.06409919051958 L124.07174732806459 27.2695463158974 L125.42415270533846 205.50693153417103 L126.16987452938108 303.44773070457114 L128.03096265839042 30.801829102276898 L128.41692728583672 203.61112294333472 L131.36046436257692 201.3777139749947 L131.81025321305285 34.705699961681574 L132.8272208807614 301.39994905366893 L134.2403193004883 198.80931464501134 L135.39658987083232 38.95861157648031 L137.04198530266237 195.91016191745763 L138.77786705781486 43.536723118979026 L139.42711015736347 298.655937048602 L139.75099464534577 192.6862059386233 L141.9432508536844 48.41539465971138 L142.35310338740155 189.1449778115416 L144.834273609784 185.29564133639207 L144.88283443753545 53.568790491019485 L145.94164590239944 295.2193510111485 L147.18077997868932 181.14895851689874 L147.58792936048494 58.970390782145486 L149.3791884329255 176.71738441773462 L150.05106909777732 64.59314105150547 L151.41662259178895 172.01476534550721 L152.26583144353333 70.40918196680973 L152.34308617565 291.0966987341585 L153.28063232717867 167.05652281463406 L154.2270978144168 76.39048747669369 L154.959325191482 161.85964492394223 L155.93085433175315 82.50850262790044 L156.4414800849355 156.44245927379075 L157.37437653099082 88.73483343731418 L157.7166040893051 150.82449930336398 L158.55608727750013 95.04090483041033 L158.60357181743 286.29763842610225 L158.77488629052087 145.02682982403755 L159.47556031867845 101.3981474815979 L159.60738248813823 139.0715964467063 L160.1335877739457 107.77849222251025 L160.20602940375795 132.98191239965394 L160.5320700194884 114.15412283785976 L160.56364112892115 126.78219017016072 L160.67405476141522 120.49753642924068 L164.6957480669675 280.83469126438933 L170.59284626081904 274.72303443375887 L176.26837835183795 267.98098403670247 L181.6965489533567 260.6296156638463 L186.85244360075325 252.69260342380974 L191.71179431251937 244.19670285362872 L196.2515479270644 235.17092307231565 L200.4495961427333 225.64702693808363 L204.2852443956698 215.65873769550797 L207.73893479562443 205.24231961782095 L210.79240241857573 194.43654351331023 L213.42906603828246 183.28169215980375 L215.63381499998235 171.82006908529453 L217.39323655511356 160.09549122454928 L218.69552350658398 148.1541986878526 L219.53084362769357 136.04198182521955 " fill="none" stroke-width="1.6500000000000001" stroke="rgb(71,71,71)" stroke-opacity="1.0">
            </path>
          </g>
        </g>
      </g>
      <g transform="translate(58.01530667574961 15.2 ) ">
        <text class="plot-title" y="0.0">
        `line` layer
        </text>
      </g>
      <g transform="translate(14.5 194.0 ) rotate(-90.0 ) ">
        <text class="axis-title-y" y="0.0" text-anchor="middle">
        y
        </text>
      </g>
      <g transform="translate(173.00765333787479 391.5 ) ">
        <text class="axis-title-x" y="0.0" text-anchor="middle">
        x
        </text>
      </g>
      <path fill="rgb(0,0,0)" fill-opacity="0.0" stroke="rgb(71,71,71)" stroke-opacity="1.0" stroke-width="0.0" d="M0.0 0.0 L0.0 400.0 L298.0 400.0 L298.0 0.0 Z">
      </path>
    </g>
    <g id="xXxprefixXx3">
    </g>
  </svg>
  <svg xmlns="http://www.w3.org/2000/svg" xmlns:xlink="http://www.w3.org/1999/xlink" class="plt-container" width="298.0" height="400.0" x="302.0" y="0.0">
    <style type="text/css">
    .plt-container {
   font-family: Lucida Grande, sans-serif;
   user-select: none;
   -webkit-user-select: none;
   -moz-user-select: none;
   -ms-user-select: none;
}
text {
   text-rendering: optimizeLegibility;
}
#xXxprefixXx4 .plot-title {
   fill: #474747;
   font-family: Lucida Grande, sans-serif;
   font-size: 16.0px;
   font-weight: normal;
   font-style: normal;   
}
#xXxprefixXx4 .plot-subtitle {
   fill: #474747;
   font-family: Lucida Grande, sans-serif;
   font-size: 15.0px;
   font-weight: normal;
   font-style: normal;   
}
#xXxprefixXx4 .plot-caption {
   fill: #474747;
   font-family: Lucida Grande, sans-serif;
   font-size: 13.0px;
   font-weight: normal;
   font-style: normal;   
}
#xXxprefixXx4 .legend-title {
   fill: #474747;
   font-family: Lucida Grande, sans-serif;
   font-size: 15.0px;
   font-weight: normal;
   font-style: normal;   
}
#xXxprefixXx4 .legend-item {
   fill: #474747;
   font-family: Lucida Grande, sans-serif;
   font-size: 13.0px;
   font-weight: normal;
   font-style: normal;   
}
#xXxprefixXx4 .axis-title-x {
   fill: #474747;
   font-family: Lucida Grande, sans-serif;
   font-size: 15.0px;
   font-weight: normal;
   font-style: normal;   
}
#xXxprefixXx4 .axis-text-x {
   fill: #474747;
   font-family: Lucida Grande, sans-serif;
   font-size: 13.0px;
   font-weight: normal;
   font-style: normal;   
}
#xXxprefixXx6 .axis-tooltip-text-x {
   fill: #ffffff;
   font-family: Lucida Grande, sans-serif;
   font-size: 13.0px;
   font-weight: normal;
   font-style: normal;   
}
#xXxprefixXx4 .axis-title-y {
   fill: #474747;
   font-family: Lucida Grande, sans-serif;
   font-size: 15.0px;
   font-weight: normal;
   font-style: normal;   
}
#xXxprefixXx4 .axis-text-y {
   fill: #474747;
   font-family: Lucida Grande, sans-serif;
   font-size: 13.0px;
   font-weight: normal;
   font-style: normal;   
}
#xXxprefixXx6 .axis-tooltip-text-y {
   fill: #ffffff;
   font-family: Lucida Grande, sans-serif;
   font-size: 13.0px;
   font-weight: normal;
   font-style: normal;   
}
#xXxprefixXx4 .facet-strip-text-x {
   fill: #474747;
   font-family: Lucida Grande, sans-serif;
   font-size: 13.0px;
   font-weight: normal;
   font-style: normal;   
}
#xXxprefixXx4 .facet-strip-text-y {
   fill: #474747;
   font-family: Lucida Grande, sans-serif;
   font-size: 13.0px;
   font-weight: normal;
   font-style: normal;   
}
#xXxprefixXx6 .tooltip-text {
   fill: #474747;
   font-family: Lucida Grande, sans-serif;
   font-size: 13.0px;
   font-weight: normal;
   font-style: normal;   
}
#xXxprefixXx6 .tooltip-title {
   fill: #474747;
   font-family: Lucida Grande, sans-serif;
   font-size: 13.0px;
   font-weight: bold;
   font-style: normal;   
}
#xXxprefixXx6 .tooltip-label {
   fill: #474747;
   font-family: Lucida Grande, sans-serif;
   font-size: 13.0px;
   font-weight: bold;
   font-style: normal;   
}

    </style>
    <g id="xXxprefixXx4">
      <path fill-rule="evenodd" fill="rgb(255,255,255)" fill-opacity="1.0" d="M0.0 0.0 L0.0 400.0 L298.0 400.0 L298.0 0.0 Z">
      </path>
      <g transform="translate(23.0 34.0 ) ">
        <g transform="translate(35.01530667574961 320.0 ) ">
          <line x1="40.74754401718864" y1="-0.0" x2="40.74754401718864" y2="-320.0" stroke="rgb(233,233,233)" stroke-opacity="1.0" stroke-width="1.0">
          </line>
          <line x1="100.34197722069028" y1="-0.0" x2="100.34197722069028" y2="-320.0" stroke="rgb(233,233,233)" stroke-opacity="1.0" stroke-width="1.0">
          </line>
          <line x1="159.93641042419193" y1="-0.0" x2="159.93641042419193" y2="-320.0" stroke="rgb(233,233,233)" stroke-opacity="1.0" stroke-width="1.0">
          </line>
          <line x1="219.53084362769357" y1="-0.0" x2="219.53084362769357" y2="-320.0" stroke="rgb(233,233,233)" stroke-opacity="1.0" stroke-width="1.0">
          </line>
          <g transform="translate(40.74754401718864 0.0 ) ">
            <line stroke-width="1.0" stroke="rgb(71,71,71)" stroke-opacity="1.0" x2="0.0" y2="4.0">
            </line>
            <g transform="translate(0.0 7.0 ) ">
              <text class="axis-text-x" text-anchor="middle" dy="0.7em">
              -1
              </text>
            </g>
          </g>
          <g transform="translate(100.34197722069028 0.0 ) ">
            <line stroke-width="1.0" stroke="rgb(71,71,71)" stroke-opacity="1.0" x2="0.0" y2="4.0">
            </line>
            <g transform="translate(0.0 7.0 ) ">
              <text class="axis-text-x" text-anchor="middle" dy="0.7em">
              0
              </text>
            </g>
          </g>
          <g transform="translate(159.93641042419193 0.0 ) ">
            <line stroke-width="1.0" stroke="rgb(71,71,71)" stroke-opacity="1.0" x2="0.0" y2="4.0">
            </line>
            <g transform="translate(0.0 7.0 ) ">
              <text class="axis-text-x" text-anchor="middle" dy="0.7em">
              1
              </text>
            </g>
          </g>
          <g transform="translate(219.53084362769357 0.0 ) ">
            <line stroke-width="1.0" stroke="rgb(71,71,71)" stroke-opacity="1.0" x2="0.0" y2="4.0">
            </line>
            <g transform="translate(0.0 7.0 ) ">
              <text class="axis-text-x" text-anchor="middle" dy="0.7em">
              2
              </text>
            </g>
          </g>
          <line x1="0.0" y1="0.0" x2="229.98469332425037" y2="0.0" stroke-width="1.0" stroke="rgb(71,71,71)" stroke-opacity="1.0">
          </line>
        </g>
        <g transform="translate(35.01530667574961 0.0 ) ">
          <line x1="0.0" y1="280.7187007798087" x2="229.98469332425037" y2="280.7187007798087" stroke="rgb(233,233,233)" stroke-opacity="1.0" stroke-width="1.0">
          </line>
          <line x1="0.0" y1="232.49315028034044" x2="229.98469332425037" y2="232.49315028034044" stroke="rgb(233,233,233)" stroke-opacity="1.0" stroke-width="1.0">
          </line>
          <line x1="0.0" y1="184.26759978087222" x2="229.98469332425037" y2="184.26759978087222" stroke="rgb(233,233,233)" stroke-opacity="1.0" stroke-width="1.0">
          </line>
          <line x1="0.0" y1="136.04204928140396" x2="229.98469332425037" y2="136.04204928140396" stroke="rgb(233,233,233)" stroke-opacity="1.0" stroke-width="1.0">
          </line>
          <line x1="0.0" y1="87.8164987819357" x2="229.98469332425037" y2="87.8164987819357" stroke="rgb(233,233,233)" stroke-opacity="1.0" stroke-width="1.0">
          </line>
          <line x1="0.0" y1="39.590948282467465" x2="229.98469332425037" y2="39.590948282467465" stroke="rgb(233,233,233)" stroke-opacity="1.0" stroke-width="1.0">
          </line>
          <g transform="translate(0.0 280.7187007798087 ) ">
            <g transform="translate(-3.0 0.0 ) ">
              <text class="axis-text-y" text-anchor="end" dy="0.35em">
              -1.5
              </text>
            </g>
          </g>
          <g transform="translate(0.0 232.49315028034044 ) ">
            <g transform="translate(-3.0 0.0 ) ">
              <text class="axis-text-y" text-anchor="end" dy="0.35em">
              -1.0
              </text>
            </g>
          </g>
          <g transform="translate(0.0 184.26759978087222 ) ">
            <g transform="translate(-3.0 0.0 ) ">
              <text class="axis-text-y" text-anchor="end" dy="0.35em">
              -0.5
              </text>
            </g>
          </g>
          <g transform="translate(0.0 136.04204928140396 ) ">
            <g transform="translate(-3.0 0.0 ) ">
              <text class="axis-text-y" text-anchor="end" dy="0.35em">
              0.0
              </text>
            </g>
          </g>
          <g transform="translate(0.0 87.8164987819357 ) ">
            <g transform="translate(-3.0 0.0 ) ">
              <text class="axis-text-y" text-anchor="end" dy="0.35em">
              0.5
              </text>
            </g>
          </g>
          <g transform="translate(0.0 39.590948282467465 ) ">
            <g transform="translate(-3.0 0.0 ) ">
              <text class="axis-text-y" text-anchor="end" dy="0.35em">
              1.0
              </text>
            </g>
          </g>
        </g>
        <g transform="translate(35.01530667574961 0.0 ) " clip-path="url(#xXxprefixXx5)" clip-bounds-jfx="[rect (0.0, 0.0), (229.98469332425037, 320.0)]">
          <defs>
            <clipPath id="xXxprefixXx5">
              <rect x="0.0" y="0.0" width="229.98469332425037" height="320.0">
              </rect>
            </clipPath>
          </defs>
          <g>
            <path d="M100.34197722069028 136.04204928140396 L100.34197722069028 136.04204928140396 L101.53031453012082 135.79784922332897 L102.66171204006686 135.0730289731702 L103.68074148273394 133.89074245088216 L104.53496723880832 132.28896253073233 L105.17635619014085 130.31957441650525 L105.40375618145849 129.21674426499408 L105.56259122158193 128.04712587723114 L105.648660946323 126.82050896854304 L105.65825962211785 125.5472703641017 L105.58820811497206 124.238299981404 L105.43587831118272 122.90493974785214 L105.199212653916 121.55891461355031 L104.87674856392925 120.21226140825124 L104.46762687582033 118.87724835628556 L103.97160959855279 117.56630465212511 L103.3890832455543 116.29193710084547 L102.72107037905799 115.06666544262289 L101.96922328291534 113.90291599746236 L101.13582629366513 112.81296705032834 L100.22378550497908 111.80885974267377 L98.17847086237092 110.1046746070339 L97.05402559897529 109.42679197449587 L95.86856582762216 108.87899908622498 L94.62789102577914 108.47098864429313 L93.33832815850954 108.21179222340672 L92.00667417877234 108.10968541350202 L90.64017316074616 108.17213320487582 L89.24649321114654 108.40573249884928 L87.83365498311247 108.81615749289868 L86.41001746778622 109.40811081471965 L84.98422204865929 110.1852890286255 L83.56514898828591 111.15033089514472 L82.16187213894396 112.30477425401882 L80.78360566105971 113.64906608483626 L79.43964541347488 115.1824992687626 L78.1393298802915 116.90322839810798 L76.89199576955907 118.80822234762483 L75.70687500222897 120.89332463831079 L74.59311247267948 123.15317438957149 L73.55965770951279 125.58128536705783 L72.61522757845208 128.17003304756523 L71.76826898523893 130.9106459956333 L71.02687184906023 133.79333269939363 L70.39875844623312 136.80717880838154 L69.89119460757946 139.94031564915244 L69.51098083816328 143.1798641731793 L69.26437949913779 146.51205676238348 L69.1570597501176 149.9223148397385 L69.19409754917871 153.3951938950924 L69.37990816286307 156.91459332124464 L69.71820709302338 160.46370036184328 L70.21198876419291 164.02521360117927 L70.8635069870079 167.58130559611797 L71.67421812452726 171.11371485903697 L72.64479352460008 174.6039326981684 L73.77506979039536 178.03315435166337 L75.06407364513719 181.38253768960453 L76.50995266605672 184.63312272893543 L78.11004632649272 187.76607883760587 L79.86083271431622 190.7627392281737 L81.75790544324776 193.60463257693954 L83.79605535127308 196.27371873022514 L85.96923764367153 198.75241170010753 L88.27058610143617 201.0236716473571 L90.69244682627154 203.07112560904338 L93.22639422506619 204.87913648573834 L95.86326342285103 206.43293526698955 L98.59318078870191 207.71866127385553 L101.40562487654131 208.72350013331237 L104.2893795817534 209.43570677398824 L107.23268399561465 209.84473765163642 L110.22330999658793 209.94129099167074 L113.24840518067852 209.71738152530241 L116.29477924990151 209.16640372780978 L119.3488382983389 208.28320080574179 L122.39668293904089 207.06409919051958 L125.42415270533846 205.50693153417103 L128.41692728583672 203.61112294333472 L131.36046436257692 201.3777139749947 L134.2403193004883 198.80931464501134 L137.04198530266237 195.91016191745763 L139.75099464534577 192.6862059386233 L142.35310338740155 189.1449778115416 L144.834273609784 185.29564133639207 L147.18077997868932 181.14895851689874 L149.3791884329255 176.71738441773462 L151.41662259178895 172.01476534550721 L153.28063232717867 167.05652281463406 L154.959325191482 161.85964492394223 L156.4414800849355 156.44245927379075 L157.7166040893051 150.82449930336398 L158.77488629052087 145.02682982403755 L159.60738248813823 139.0715964467063 L160.20602940375795 132.98191239965394 L160.56364112892115 126.78219017016072 L160.67405476141522 120.49753642924068 L160.5320700194884 114.15412283785976 L160.1335877739457 107.77849222251025 L159.47556031867845 101.3981474815979 L158.55608727750013 95.04090483041033 L157.37437653099082 88.73483343731418 L155.93085433175315 82.50850262790044 L154.2270978144168 76.39048747669369 L152.26583144353333 70.40918196680973 L150.05106909777732 64.59314105150547 L147.58792936048494 58.970390782145486 L144.88283443753545 53.568790491019485 L141.9432508536844 48.41539465971138 L138.77786705781486 43.536723118979026 L135.39658987083232 38.95861157648031 L131.81025321305285 34.705699961681574 L128.03096265839042 30.801829102276898 L124.07174732806459 27.2695463158974 L119.94665402138355 24.130145652646533 L115.67068682995894 21.40347243135716 L111.25969702245003 19.107900243857202 L106.7305104763314 17.26020447843007 L102.1005154117039 15.875389851806332 L97.38790304640983 14.966678911296427 L92.61156835909894 14.545454545454561 L87.79089030273015 14.62107601820307 L82.9456512161889 15.200901964566924 L78.09606701717988 16.290221403470284 L73.26291130389616 17.8920927675954 L68.46675786862333 20.007504873523743 L63.728523281781605 22.63522744946208 L59.069308823252285 25.771615671499617 L54.50997245372272 29.41098959322649 L50.07127267493963 33.54527771184969 L45.773769070768545 38.16422392980323 L41.63765535825773 43.255284073943 L37.68275228342821 48.803752372086365 L33.928319359707544 54.7927269594104 L30.393051315824877 61.20318461458889 L27.09492890739996 68.01402100232767 L24.05116563536791 75.20215415416956 L21.278115391248548 82.74256471102976 L18.791165893995824 90.60837640826642 L16.60470316894755 98.77098542668685 L14.731983672044677 107.20012363081736 L13.185112977201086 115.86414745281729 L11.975017359463507 124.72945078263378 L11.111173835029774 133.76208257419714 L10.601865912810467 142.92599629513566 L10.453849696556844 152.18453458888126 L10.672510177481755 161.50060102406115 L11.261662316378505 170.8355498316937 L12.223643398351356 180.1505872077568 L13.559249094925178 189.4069567162968 L15.267626900894754 198.5648297452412 L17.346404010105616 207.58485484400745 L19.791545231253096 216.42768056201288 L22.59746665524314 225.05419690388663 L25.756957508881698 233.42577678468143 L29.26122988434514 241.5043622638776 L33.09992584339024 249.25275199206388 L37.26116714682445 256.63461270880464 L41.731558806611005 263.61480693185575 L46.4962565758643 270.1594849401025 L51.53898115726993 276.2361652586301 L56.8421887041258 281.81414858194375 L62.386790204045376 286.8641498422178 L68.15270205523603 291.3590800642666 L74.11850861652205 295.27371292739525 L80.26197548652017 298.58519067155754 L86.55961703485328 301.27271365494073 L92.98720834928659 303.31796577505315 L99.51942425305488 304.7050569793878 L106.13050932067216 305.4207647206341 L112.79399770564812 305.45454545454544 L119.48281126738931 304.79854613780617 L126.16987452938108 303.44773070457114 L132.8272208807614 301.39994905366893 L139.42711015736347 298.655937048602 L145.94164590239944 295.2193510111485 L152.34308617565 291.0966987341585 L158.60357181743 286.29763842610225 L164.6957480669675 280.83469126438933 L170.59284626081904 274.72303443375887 L176.26837835183795 267.98098403670247 L181.6965489533567 260.6296156638463 L186.85244360075325 252.69260342380974 L191.71179431251937 244.19670285362872 L196.2515479270644 235.17092307231565 L200.4495961427333 225.64702693808363 L204.2852443956698 215.65873769550797 L207.73893479562443 205.24231961782095 L210.79240241857573 194.43654351331023 L213.42906603828246 183.28169215980375 L215.63381499998235 171.82006908529453 L217.39323655511356 160.09549122454928 L218.69552350658398 148.1541986878526 L219.53084362769357 136.04198182521955 " fill="none" stroke-width="1.6500000000000001" stroke="rgb(71,71,71)" stroke-opacity="1.0">
            </path>
          </g>
        </g>
      </g>
      <g transform="translate(58.01530667574961 15.2 ) ">
        <text class="plot-title" y="0.0">
        `path` layer
        </text>
      </g>
      <g transform="translate(14.5 194.0 ) rotate(-90.0 ) ">
        <text class="axis-title-y" y="0.0" text-anchor="middle">
        y
        </text>
      </g>
      <g transform="translate(173.00765333787479 391.5 ) ">
        <text class="axis-title-x" y="0.0" text-anchor="middle">
        x
        </text>
      </g>
      <path fill="rgb(0,0,0)" fill-opacity="0.0" stroke="rgb(71,71,71)" stroke-opacity="1.0" stroke-width="0.0" d="M0.0 0.0 L0.0 400.0 L298.0 400.0 L298.0 0.0 Z">
      </path>
    </g>
    <g id="xXxprefixXx6">
    </g>
  </svg>
</svg>