<svg xmlns="http://www.w3.org/2000/svg" xmlns:xlink="http://www.w3.org/1999/xlink" class="plt-container" width="600.0" height="400.0">
  <g id="xXxprefixXx0">
  </g>
  <svg xmlns="http://www.w3.org/2000/svg" xmlns:xlink="http://www.w3.org/1999/xlink" class="plt-container" width="298.0" height="400.0" x="0.0" y="0.0">
    <style type="text/css">
    .plt-container {
   font-family: Lucida Grande, sans-serif;
   user-select: none;
   -webkit-user-select: none;
   -moz-user-select: none;
   -ms-user-select: none;
}
text {
   text-rendering: optimizeLegibility;
}
#xXxprefixXx1 .plot-title {
   fill: #474747;
   font-family: Lucida Grande, sans-serif;
   font-size: 16.0px;
   font-weight: normal;
   font-style: normal;   
}
#xXxprefixXx1 .plot-subtitle {
   fill: #474747;
   font-family: Lucida Grande, sans-serif;
   font-size: 15.0px;
   font-weight: normal;
   font-style: normal;   
}
#xXxprefixXx1 .plot-caption {
   fill: #474747;
   font-family: Lucida Grande, sans-serif;
   font-size: 13.0px;
   font-weight: normal;
   font-style: normal;   
}
#xXxprefixXx1 .legend-title {
   fill: #474747;
   font-family: Lucida Grande, sans-serif;
   font-size: 15.0px;
   font-weight: normal;
   font-style: normal;   
}
#xXxprefixXx1 .legend-item {
   fill: #474747;
   font-family: Lucida Grande, sans-serif;
   font-size: 13.0px;
   font-weight: normal;
   font-style: normal;   
}
#xXxprefixXx1 .axis-title-x {
   fill: #474747;
   font-family: Lucida Grande, sans-serif;
   font-size: 15.0px;
   font-weight: normal;
   font-style: normal;   
}
#xXxprefixXx1 .axis-text-x {
   fill: #474747;
   font-family: Lucida Grande, sans-serif;
   font-size: 13.0px;
   font-weight: normal;
   font-style: normal;   
}
#xXxprefixXx3 .axis-tooltip-text-x {
   fill: #ffffff;
   font-family: Lucida Grande, sans-serif;
   font-size: 13.0px;
   font-weight: normal;
   font-style: normal;   
}
#xXxprefixXx1 .axis-title-y {
   fill: #474747;
   font-family: Lucida Grande, sans-serif;
   font-size: 15.0px;
   font-weight: normal;
   font-style: normal;   
}
#xXxprefixXx1 .axis-text-y {
   fill: #474747;
   font-family: Lucida Grande, sans-serif;
   font-size: 13.0px;
   font-weight: normal;
   font-style: normal;   
}
#xXxprefixXx3 .axis-tooltip-text-y {
   fill: #ffffff;
   font-family: Lucida Grande, sans-serif;
   font-size: 13.0px;
   font-weight: normal;
   font-style: normal;   
}
#xXxprefixXx1 .facet-strip-text-x {
   fill: #474747;
   font-family: Lucida Grande, sans-serif;
   font-size: 13.0px;
   font-weight: normal;
   font-style: normal;   
}
#xXxprefixXx1 .facet-strip-text-y {
   fill: #474747;
   font-family: Lucida Grande, sans-serif;
   font-size: 13.0px;
   font-weight: normal;
   font-style: normal;   
}
#xXxprefixXx3 .tooltip-text {
   fill: #474747;
   font-family: Lucida Grande, sans-serif;
   font-size: 13.0px;
   font-weight: normal;
   font-style: normal;   
}
#xXxprefixXx3 .tooltip-title {
   fill: #474747;
   font-family: Lucida Grande, sans-serif;
   font-size: 13.0px;
   font-weight: bold;
   font-style: normal;   
}
#xXxprefixXx3 .tooltip-label {
   fill: #474747;
   font-family: Lucida Grande, sans-serif;
   font-size: 13.0px;
   font-weight: bold;
   font-style: normal;   
}

    </style>
    <g id="xXxprefixXx1">
      <path fill-rule="evenodd" fill="rgb(255,255,255)" fill-opacity="1.0" d="M0.0 0.0 L0.0 400.0 L298.0 400.0 L298.0 0.0 Z">
      </path>
      <g transform="translate(23.0 34.0 ) ">
        <g transform="translate(35.01530667574961 320.0 ) ">
          <line x1="40.74754256680264" y1="-0.0" x2="40.74754256680264" y2="-320.0" stroke="rgb(233,233,233)" stroke-opacity="1.0" stroke-width="1.0">
          </line>
          <line x1="100.34197625376628" y1="-0.0" x2="100.34197625376628" y2="-320.0" stroke="rgb(233,233,233)" stroke-opacity="1.0" stroke-width="1.0">
          </line>
          <line x1="159.9364099407299" y1="-0.0" x2="159.9364099407299" y2="-320.0" stroke="rgb(233,233,233)" stroke-opacity="1.0" stroke-width="1.0">
          </line>
          <line x1="219.53084362769354" y1="-0.0" x2="219.53084362769354" y2="-320.0" stroke="rgb(233,233,233)" stroke-opacity="1.0" stroke-width="1.0">
          </line>
          <g transform="translate(40.74754256680264 0.0 ) ">
            <line stroke-width="1.0" stroke="rgb(71,71,71)" stroke-opacity="1.0" x2="0.0" y2="4.0">
            </line>
            <g transform="translate(0.0 7.0 ) ">
              <text class="axis-text-x" text-anchor="middle" dy="0.7em">
              -1
              </text>
            </g>
          </g>
          <g transform="translate(100.34197625376628 0.0 ) ">
            <line stroke-width="1.0" stroke="rgb(71,71,71)" stroke-opacity="1.0" x2="0.0" y2="4.0">
            </line>
            <g transform="translate(0.0 7.0 ) ">
              <text class="axis-text-x" text-anchor="middle" dy="0.7em">
              0
              </text>
            </g>
          </g>
          <g transform="translate(159.9364099407299 0.0 ) ">
            <line stroke-width="1.0" stroke="rgb(71,71,71)" stroke-opacity="1.0" x2="0.0" y2="4.0">
            </line>
            <g transform="translate(0.0 7.0 ) ">
              <text class="axis-text-x" text-anchor="middle" dy="0.7em">
              1
              </text>
            </g>
          </g>
          <g transform="translate(219.53084362769354 0.0 ) ">
            <line stroke-width="1.0" stroke="rgb(71,71,71)" stroke-opacity="1.0" x2="0.0" y2="4.0">
            </line>
            <g transform="translate(0.0 7.0 ) ">
              <text class="axis-text-x" text-anchor="middle" dy="0.7em">
              2
              </text>
            </g>
          </g>
          <line x1="0.0" y1="0.0" x2="229.98469332425037" y2="0.0" stroke-width="1.0" stroke="rgb(71,71,71)" stroke-opacity="1.0">
          </line>
        </g>
        <g transform="translate(35.01530667574961 0.0 ) ">
          <line x1="0.0" y1="280.7186956036886" x2="229.98469332425037" y2="280.7186956036886" stroke="rgb(233,233,233)" stroke-opacity="1.0" stroke-width="1.0">
          </line>
          <line x1="0.0" y1="232.49314634573813" x2="229.98469332425037" y2="232.49314634573813" stroke="rgb(233,233,233)" stroke-opacity="1.0" stroke-width="1.0">
          </line>
          <line x1="0.0" y1="184.26759708778764" x2="229.98469332425037" y2="184.26759708778764" stroke="rgb(233,233,233)" stroke-opacity="1.0" stroke-width="1.0">
          </line>
          <line x1="0.0" y1="136.04204782983712" x2="229.98469332425037" y2="136.04204782983712" stroke="rgb(233,233,233)" stroke-opacity="1.0" stroke-width="1.0">
          </line>
          <line x1="0.0" y1="87.8164985718866" x2="229.98469332425037" y2="87.8164985718866" stroke="rgb(233,233,233)" stroke-opacity="1.0" stroke-width="1.0">
          </line>
          <line x1="0.0" y1="39.59094931393609" x2="229.98469332425037" y2="39.59094931393609" stroke="rgb(233,233,233)" stroke-opacity="1.0" stroke-width="1.0">
          </line>
          <g transform="translate(0.0 280.7186956036886 ) ">
            <g transform="translate(-3.0 0.0 ) ">
              <text class="axis-text-y" text-anchor="end" dy="0.35em">
              -1.5
              </text>
            </g>
          </g>
          <g transform="translate(0.0 232.49314634573813 ) ">
            <g transform="translate(-3.0 0.0 ) ">
              <text class="axis-text-y" text-anchor="end" dy="0.35em">
              -1.0
              </text>
            </g>
          </g>
          <g transform="translate(0.0 184.26759708778764 ) ">
            <g transform="translate(-3.0 0.0 ) ">
              <text class="axis-text-y" text-anchor="end" dy="0.35em">
              -0.5
              </text>
            </g>
          </g>
          <g transform="translate(0.0 136.04204782983712 ) ">
            <g transform="translate(-3.0 0.0 ) ">
              <text class="axis-text-y" text-anchor="end" dy="0.35em">
              0.0
              </text>
            </g>
          </g>
          <g transform="translate(0.0 87.8164985718866 ) ">
            <g transform="translate(-3.0 0.0 ) ">
              <text class="axis-text-y" text-anchor="end" dy="0.35em">
              0.5
              </text>
            </g>
          </g>
          <g transform="translate(0.0 39.59094931393609 ) ">
            <g transform="translate(-3.0 0.0 ) ">
              <text class="axis-text-y" text-anchor="end" dy="0.35em">
              1.0
              </text>
            </g>
          </g>
        </g>
        <g transform="translate(35.01530667574961 0.0 ) " clip-path="url(#xXxprefixXx2)" clip-bounds-jfx="[rect (0.0, 0.0), (229.98469332425037, 320.0)]">
          <defs>
            <clipPath id="xXxprefixXx2">
              <rect x="0.0" y="0.0" width="229.98469332425037" height="320.0">
              </rect>
            </clipPath>
          </defs>
          <g>
            <path d="M10.453849696556844 152.18457704937077 L10.453849696556844 152.18457704937077 L10.60186071991518 142.92589213604418 L10.672495757322721 161.50051069794267 L11.111180959497872 133.7619728834619 L11.261651935112155 170.83546322233792 L11.975007996770714 124.72947130171393 L12.223642234782503 180.15064858491425 L13.185131002065631 115.86402789372782 L13.55923374281248 189.40688545747105 L14.731982469458416 107.20013103955037 L15.26761522509831 198.5647615745076 L16.604695265037478 98.77098291138255 L17.346382371325348 207.58480086437578 L18.79116468577439 90.6083724403357 L19.791529816444935 216.42763265213415 L21.2781152069101 82.7425558200943 L22.597450041073543 225.05416221242086 L24.05117157805934 75.2021449950314 L25.75693922322722 233.4257419382167 L27.094933912166482 68.01400454103477 L29.261210083843878 241.50434238207382 L30.39305639709211 61.203157306505176 L33.099911738155896 249.25272242030655 L33.928329247006545 54.79269913892273 L37.26115653427801 256.6345977877966 L37.68276349996915 48.80372297920553 L41.63767825911188 43.255252562015926 L41.731553829521864 263.61480723154216 L45.773789967740605 38.16418591542086 L46.496250624050305 270.15947553484784 L50.07130330345341 33.5452488080584 L51.53897894070424 276.2361726711683 L54.51000327303729 29.410958246442263 L56.842109809279854 281.8140683570253 L59.06934808846984 25.77159607942214 L62.38671368337487 286.86408128715175 L63.72856240478966 22.63519272133894 L68.15262708825179 291.35902235197216 L68.4667305029076 20.007520960261942 L69.15705781658451 149.92230648912363 L69.19409683543603 153.39518773554943 L69.26437577042162 146.5120587194617 L69.37990479485757 156.91457616931683 L69.51098337561366 143.17985080043357 L69.71820254591206 160.46369896775204 L69.89119665169348 139.94030055236604 L70.21198720544861 164.02521457274867 L70.39875635636076 136.80717365076836 L70.86350288559643 167.58129455038411 L71.02687184604159 133.79332535647612 L71.67421495588435 171.11370913526773 L71.76826714948778 130.91064781303166 L72.61522899499755 128.1700231271992 L72.64478800752262 174.60391606091338 L73.26288900458479 17.89209977306038 L73.55965652397484 125.58128241771269 L73.77506767224382 178.03315225761017 L74.11852526916975 295.2737311577316 L74.59311241705025 123.15317098582103 L75.06406643009262 181.38252798136818 L75.70687515388262 120.8933197290894 L76.50995352176608 184.63312292164332 L76.89199212406935 118.80822288739584 L78.09611871275786 16.290208025165157 L78.11004906162157 187.76608382178233 L78.13933330432349 116.90322217728534 L79.43964521623352 115.18249733797522 L79.86082242737855 190.7627231345543 L80.26200058139237 298.5852051928987 L80.78360487950397 113.64906307950154 L81.75789498193718 193.6046182258172 L82.16187347757239 112.30477239091958 L82.94563517812851 15.200907889876476 L83.56514945589642 111.15032613427812 L83.79604716171751 196.2737106323647 L84.98422077797872 110.18528881843358 L85.96922994458531 198.75240487535706 L86.41001607032103 109.40811041580922 L86.55964633576774 301.27272101086686 L87.79087760238379 14.621077780184592 L87.83365439493365 108.81615405508298 L88.27058068887793 201.0236663284963 L89.24649339673392 108.40572939365305 L90.64017558309732 108.17213144571707 L90.69244331337343 203.07111764028403 L92.00667250392458 108.10968461504656 L92.61159569953261 14.545454545454575 L92.98714578747814 303.31794682833623 L93.22639276636828 204.87913321231727 L93.3383266128012 108.21179165616596 L94.62789060308324 108.47098726377763 L95.8632637104404 206.43293124063018 L95.86856402698216 108.87899596801981 L97.05402702086296 109.42679399261065 L97.38793414957495 14.966684646161099 L98.17847097594093 110.10467471421035 L98.59318332808499 207.7186628345733 L99.2366260102779 110.90231734451353 L99.51936593043963 304.70504597098204 L100.22378511535729 111.80885844174158 L100.34197625376628 136.04204782983712 L101.13582486846822 112.81296584540596 L101.40560813231859 208.7234977376136 L101.5303136485966 135.7978477911935 L101.9692226205647 113.90291461751727 L102.1005142929728 15.875383982313338 L102.1066470700182 135.49442369628053 L102.72107008809115 115.06666456486629 L103.18863611363079 134.53703248896983 L103.38908329638942 116.2919389106391 L103.68074068247954 133.89074076833197 L103.97160884162645 117.56630367947577 L104.13157527349153 133.13935786137867 L104.2893646456612 209.43570618670404 L104.46762645761274 118.87724735815202 L104.53496644724753 132.28896128719308 L104.87674789332056 120.21226039436561 L104.88505879233023 131.34646408519754 L105.17635519799796 130.31957321360383 L105.19921212626397 121.5589140986304 L105.40375511722199 129.2167430818051 L105.4358769560715 122.90493851900972 L105.56259060238419 128.04712446470924 L105.58820704147517 124.23829886532442 L105.64865990738771 126.82050907195293 L105.65825846246122 125.54727006851314 L106.13045573596774 305.420770632981 L106.73051273012257 17.260206015434065 L107.23269379072015 209.84473646147262 L110.22329881602134 209.94128769135463 L111.2597365071218 19.107917790102903 L112.79394845187579 305.4545454545455 L113.24839656185263 209.7173775078794 L115.67069458752096 21.403483429277884 L116.29477185279997 209.16640415054445 L119.34883478645871 208.2832026579756 L119.4828675571982 304.7985404616479 L119.9466653293405 24.13015464800074 L122.39668067157639 207.06409480129054 L124.07175970732892 27.269567802784948 L125.42415235371641 205.5069324436409 L126.16983594838155 303.4477329544678 L128.03098004213305 30.801846969092153 L128.4169046524982 203.61113403869558 L131.3604706216481 201.37771401121103 L131.8102740206417 34.70571251690973 L132.8271879151148 301.3999579755713 L134.24032933154822 198.8093047946923 L135.39658381514235 38.95859463464144 L137.04197486376992 195.91017133432683 L138.77789013298258 43.5367512343761 L139.42708344810111 298.65594703527495 L139.75098619827116 192.68621789773476 L141.94325105304307 48.41538965717095 L142.35309766658372 189.14498707146396 L144.834269638453 185.29565085740882 L144.88283553038676 53.56879158531814 L145.941624407062 295.2193548198562 L147.18075910506514 181.14899382028077 L147.58795147583996 58.97044055968949 L149.37918981922687 176.71738827474155 L150.05106834285772 64.59315149419356 L151.41662165168353 172.01476153864937 L152.2658341797204 70.409201576141 L152.34297206521222 291.09677365805015 L153.2806188231821 167.05655531689115 L154.22708713077577 76.3904619408892 L154.95931667391784 161.85967731830482 L155.93086139596716 82.50852951150844 L156.4414866356519 156.44244524605213 L157.37438768316065 88.73485839935049 L157.71659907703815 150.8245233393124 L158.55608821268274 95.04089026925544 L158.60346553638212 286.2977355724256 L158.77488369954906 145.02685168114456 L159.47556635790096 101.39818308365969 L159.6073871698091 139.07156852364227 L160.13359102951114 107.77853765298823 L160.20602768411254 132.98192591690255 L160.53207593433106 114.15412143535647 L160.56364617237915 126.78219896267338 L160.6740538617429 120.49758904667759 L164.69574058299526 280.83470179452627 L170.59284829723504 274.72303967590415 L176.2683731440421 267.98098698110323 L181.69654985306198 260.6296036030799 L186.8523786473731 252.69271079620216 L191.7117382997451 244.19681807664634 L196.25149651233852 235.1710379944503 L200.449617123131 225.6469890354636 L204.28526365194475 215.65868696469713 L207.7388987107095 205.24242497491923 L210.7923788165092 194.43664305548822 L213.42904416196419 183.2817870461787 L215.63380291555882 171.82015788886724 L217.39320964455408 160.09575163623438 L218.6955374750707 148.15409082083266 L219.53084362769354 136.0420478298372 " fill="none" stroke-width="1.6500000000000001" stroke="rgb(71,71,71)" stroke-opacity="1.0">
            </path>
          </g>
        </g>
      </g>
      <g transform="translate(58.01530667574961 15.2 ) ">
        <text class="plot-title" y="0.0">
        `line` layer
        </text>
      </g>
      <g transform="translate(14.5 194.0 ) rotate(-90.0 ) ">
        <text class="axis-title-y" y="0.0" text-anchor="middle">
        y
        </text>
      </g>
      <g transform="translate(173.00765333787479 391.5 ) ">
        <text class="axis-title-x" y="0.0" text-anchor="middle">
        x
        </text>
      </g>
      <path fill="rgb(0,0,0)" fill-opacity="0.0" stroke="rgb(71,71,71)" stroke-opacity="1.0" stroke-width="0.0" d="M0.0 0.0 L0.0 400.0 L298.0 400.0 L298.0 0.0 Z">
      </path>
    </g>
    <g id="xXxprefixXx3">
    </g>
  </svg>
  <svg xmlns="http://www.w3.org/2000/svg" xmlns:xlink="http://www.w3.org/1999/xlink" class="plt-container" width="298.0" height="400.0" x="302.0" y="0.0">
    <style type="text/css">
    .plt-container {
   font-family: Lucida Grande, sans-serif;
   user-select: none;
   -webkit-user-select: none;
   -moz-user-select: none;
   -ms-user-select: none;
}
text {
   text-rendering: optimizeLegibility;
}
#xXxprefixXx4 .plot-title {
   fill: #474747;
   font-family: Lucida Grande, sans-serif;
   font-size: 16.0px;
   font-weight: normal;
   font-style: normal;   
}
#xXxprefixXx4 .plot-subtitle {
   fill: #474747;
   font-family: Lucida Grande, sans-serif;
   font-size: 15.0px;
   font-weight: normal;
   font-style: normal;   
}
#xXxprefixXx4 .plot-caption {
   fill: #474747;
   font-family: Lucida Grande, sans-serif;
   font-size: 13.0px;
   font-weight: normal;
   font-style: normal;   
}
#xXxprefixXx4 .legend-title {
   fill: #474747;
   font-family: Lucida Grande, sans-serif;
   font-size: 15.0px;
   font-weight: normal;
   font-style: normal;   
}
#xXxprefixXx4 .legend-item {
   fill: #474747;
   font-family: Lucida Grande, sans-serif;
   font-size: 13.0px;
   font-weight: normal;
   font-style: normal;   
}
#xXxprefixXx4 .axis-title-x {
   fill: #474747;
   font-family: Lucida Grande, sans-serif;
   font-size: 15.0px;
   font-weight: normal;
   font-style: normal;   
}
#xXxprefixXx4 .axis-text-x {
   fill: #474747;
   font-family: Lucida Grande, sans-serif;
   font-size: 13.0px;
   font-weight: normal;
   font-style: normal;   
}
#xXxprefixXx6 .axis-tooltip-text-x {
   fill: #ffffff;
   font-family: Lucida Grande, sans-serif;
   font-size: 13.0px;
   font-weight: normal;
   font-style: normal;   
}
#xXxprefixXx4 .axis-title-y {
   fill: #474747;
   font-family: Lucida Grande, sans-serif;
   font-size: 15.0px;
   font-weight: normal;
   font-style: normal;   
}
#xXxprefixXx4 .axis-text-y {
   fill: #474747;
   font-family: Lucida Grande, sans-serif;
   font-size: 13.0px;
   font-weight: normal;
   font-style: normal;   
}
#xXxprefixXx6 .axis-tooltip-text-y {
   fill: #ffffff;
   font-family: Lucida Grande, sans-serif;
   font-size: 13.0px;
   font-weight: normal;
   font-style: normal;   
}
#xXxprefixXx4 .facet-strip-text-x {
   fill: #474747;
   font-family: Lucida Grande, sans-serif;
   font-size: 13.0px;
   font-weight: normal;
   font-style: normal;   
}
#xXxprefixXx4 .facet-strip-text-y {
   fill: #474747;
   font-family: Lucida Grande, sans-serif;
   font-size: 13.0px;
   font-weight: normal;
   font-style: normal;   
}
#xXxprefixXx6 .tooltip-text {
   fill: #474747;
   font-family: Lucida Grande, sans-serif;
   font-size: 13.0px;
   font-weight: normal;
   font-style: normal;   
}
#xXxprefixXx6 .tooltip-title {
   fill: #474747;
   font-family: Lucida Grande, sans-serif;
   font-size: 13.0px;
   font-weight: bold;
   font-style: normal;   
}
#xXxprefixXx6 .tooltip-label {
   fill: #474747;
   font-family: Lucida Grande, sans-serif;
   font-size: 13.0px;
   font-weight: bold;
   font-style: normal;   
}

    </style>
    <g id="xXxprefixXx4">
      <path fill-rule="evenodd" fill="rgb(255,255,255)" fill-opacity="1.0" d="M0.0 0.0 L0.0 400.0 L298.0 400.0 L298.0 0.0 Z">
      </path>
      <g transform="translate(23.0 34.0 ) ">
        <g transform="translate(35.01530667574961 320.0 ) ">
          <line x1="40.74754256680264" y1="-0.0" x2="40.74754256680264" y2="-320.0" stroke="rgb(233,233,233)" stroke-opacity="1.0" stroke-width="1.0">
          </line>
          <line x1="100.34197625376628" y1="-0.0" x2="100.34197625376628" y2="-320.0" stroke="rgb(233,233,233)" stroke-opacity="1.0" stroke-width="1.0">
          </line>
          <line x1="159.9364099407299" y1="-0.0" x2="159.9364099407299" y2="-320.0" stroke="rgb(233,233,233)" stroke-opacity="1.0" stroke-width="1.0">
          </line>
          <line x1="219.53084362769354" y1="-0.0" x2="219.53084362769354" y2="-320.0" stroke="rgb(233,233,233)" stroke-opacity="1.0" stroke-width="1.0">
          </line>
          <g transform="translate(40.74754256680264 0.0 ) ">
            <line stroke-width="1.0" stroke="rgb(71,71,71)" stroke-opacity="1.0" x2="0.0" y2="4.0">
            </line>
            <g transform="translate(0.0 7.0 ) ">
              <text class="axis-text-x" text-anchor="middle" dy="0.7em">
              -1
              </text>
            </g>
          </g>
          <g transform="translate(100.34197625376628 0.0 ) ">
            <line stroke-width="1.0" stroke="rgb(71,71,71)" stroke-opacity="1.0" x2="0.0" y2="4.0">
            </line>
            <g transform="translate(0.0 7.0 ) ">
              <text class="axis-text-x" text-anchor="middle" dy="0.7em">
              0
              </text>
            </g>
          </g>
          <g transform="translate(159.9364099407299 0.0 ) ">
            <line stroke-width="1.0" stroke="rgb(71,71,71)" stroke-opacity="1.0" x2="0.0" y2="4.0">
            </line>
            <g transform="translate(0.0 7.0 ) ">
              <text class="axis-text-x" text-anchor="middle" dy="0.7em">
              1
              </text>
            </g>
          </g>
          <g transform="translate(219.53084362769354 0.0 ) ">
            <line stroke-width="1.0" stroke="rgb(71,71,71)" stroke-opacity="1.0" x2="0.0" y2="4.0">
            </line>
            <g transform="translate(0.0 7.0 ) ">
              <text class="axis-text-x" text-anchor="middle" dy="0.7em">
              2
              </text>
            </g>
          </g>
          <line x1="0.0" y1="0.0" x2="229.98469332425037" y2="0.0" stroke-width="1.0" stroke="rgb(71,71,71)" stroke-opacity="1.0">
          </line>
        </g>
        <g transform="translate(35.01530667574961 0.0 ) ">
          <line x1="0.0" y1="280.7186956036886" x2="229.98469332425037" y2="280.7186956036886" stroke="rgb(233,233,233)" stroke-opacity="1.0" stroke-width="1.0">
          </line>
          <line x1="0.0" y1="232.49314634573813" x2="229.98469332425037" y2="232.49314634573813" stroke="rgb(233,233,233)" stroke-opacity="1.0" stroke-width="1.0">
          </line>
          <line x1="0.0" y1="184.26759708778764" x2="229.98469332425037" y2="184.26759708778764" stroke="rgb(233,233,233)" stroke-opacity="1.0" stroke-width="1.0">
          </line>
          <line x1="0.0" y1="136.04204782983712" x2="229.98469332425037" y2="136.04204782983712" stroke="rgb(233,233,233)" stroke-opacity="1.0" stroke-width="1.0">
          </line>
          <line x1="0.0" y1="87.8164985718866" x2="229.98469332425037" y2="87.8164985718866" stroke="rgb(233,233,233)" stroke-opacity="1.0" stroke-width="1.0">
          </line>
          <line x1="0.0" y1="39.59094931393609" x2="229.98469332425037" y2="39.59094931393609" stroke="rgb(233,233,233)" stroke-opacity="1.0" stroke-width="1.0">
          </line>
          <g transform="translate(0.0 280.7186956036886 ) ">
            <g transform="translate(-3.0 0.0 ) ">
              <text class="axis-text-y" text-anchor="end" dy="0.35em">
              -1.5
              </text>
            </g>
          </g>
          <g transform="translate(0.0 232.49314634573813 ) ">
            <g transform="translate(-3.0 0.0 ) ">
              <text class="axis-text-y" text-anchor="end" dy="0.35em">
              -1.0
              </text>
            </g>
          </g>
          <g transform="translate(0.0 184.26759708778764 ) ">
            <g transform="translate(-3.0 0.0 ) ">
              <text class="axis-text-y" text-anchor="end" dy="0.35em">
              -0.5
              </text>
            </g>
          </g>
          <g transform="translate(0.0 136.04204782983712 ) ">
            <g transform="translate(-3.0 0.0 ) ">
              <text class="axis-text-y" text-anchor="end" dy="0.35em">
              0.0
              </text>
            </g>
          </g>
          <g transform="translate(0.0 87.8164985718866 ) ">
            <g transform="translate(-3.0 0.0 ) ">
              <text class="axis-text-y" text-anchor="end" dy="0.35em">
              0.5
              </text>
            </g>
          </g>
          <g transform="translate(0.0 39.59094931393609 ) ">
            <g transform="translate(-3.0 0.0 ) ">
              <text class="axis-text-y" text-anchor="end" dy="0.35em">
              1.0
              </text>
            </g>
          </g>
        </g>
        <g transform="translate(35.01530667574961 0.0 ) " clip-path="url(#xXxprefixXx5)" clip-bounds-jfx="[rect (0.0, 0.0), (229.98469332425037, 320.0)]">
          <defs>
            <clipPath id="xXxprefixXx5">
              <rect x="0.0" y="0.0" width="229.98469332425037" height="320.0">
              </rect>
            </clipPath>
          </defs>
          <g>
            <path d="M100.34197625376628 136.04204782983712 L100.34197625376628 136.04204782983712 L101.5303136485966 135.7978477911935 L102.66171098008829 135.07302753821986 L103.68074068247954 133.89074076833197 L104.53496644724753 132.28896128719308 L105.17635519799796 130.31957321360383 L105.40375511722199 129.2167430818051 L105.56259060238419 128.04712446470924 L105.64865990738771 126.82050907195293 L105.65825846246122 125.54727006851314 L105.58820704147517 124.23829886532442 L105.4358769560715 122.90493851900972 L105.19921212626397 121.5589140986304 L104.87674789332056 120.21226039436561 L104.46762645761274 118.87724735815202 L103.97160884162645 117.56630367947577 L103.38908329638942 116.2919389106391 L102.72107008809115 115.06666456486629 L101.9692226205647 113.90291461751727 L101.13582486846822 112.81296584540596 L100.22378511535729 111.80885844174158 L98.17847097594093 110.10467471421035 L97.05402702086296 109.42679399261065 L95.86856402698216 108.87899596801981 L94.62789060308324 108.47098726377763 L93.3383266128012 108.21179165616596 L92.00667250392458 108.10968461504656 L90.64017558309732 108.17213144571707 L89.24649339673392 108.40572939365305 L87.83365439493365 108.81615405508298 L86.41001607032103 109.40811041580922 L84.98422077797872 110.18528881843358 L83.56514945589642 111.15032613427812 L82.16187347757239 112.30477239091958 L80.78360487950397 113.64906307950154 L79.43964521623352 115.18249733797522 L78.13933330432349 116.90322217728534 L76.89199212406935 118.80822288739584 L75.70687515388262 120.8933197290894 L74.59311241705025 123.15317098582103 L73.55965652397484 125.58128241771269 L72.61522899499755 128.1700231271992 L71.76826714948778 130.91064781303166 L71.02687184604159 133.79332535647612 L70.39875635636076 136.80717365076836 L69.89119665169348 139.94030055236604 L69.51098337561366 143.17985080043357 L69.26437577042162 146.5120587194617 L69.15705781658451 149.92230648912363 L69.19409683543603 153.39518773554943 L69.37990479485757 156.91457616931683 L69.71820254591206 160.46369896775204 L70.21198720544861 164.02521457274867 L70.86350288559643 167.58129455038411 L71.67421495588435 171.11370913526773 L72.64478800752262 174.60391606091338 L73.77506767224382 178.03315225761017 L75.06406643009262 181.38252798136818 L76.50995352176608 184.63312292164332 L78.11004906162157 187.76608382178233 L79.86082242737855 190.7627231345543 L81.75789498193718 193.6046182258172 L83.79604716171751 196.2737106323647 L85.96922994458531 198.75240487535706 L88.27058068887793 201.0236663284963 L90.69244331337343 203.07111764028403 L93.22639276636828 204.87913321231727 L95.8632637104404 206.43293124063018 L98.59318332808499 207.7186628345733 L101.40560813231859 208.7234977376136 L104.2893646456612 209.43570618670404 L107.23269379072015 209.84473646147262 L110.22329881602134 209.94128769135463 L113.24839656185263 209.7173775078794 L116.29477185279997 209.16640415054445 L119.34883478645871 208.2832026579756 L122.39668067157639 207.06409480129054 L125.42415235371641 205.5069324436409 L128.4169046524982 203.61113403869558 L131.3604706216481 201.37771401121103 L134.24032933154822 198.8093047946923 L137.04197486376992 195.91017133432683 L139.75098619827116 192.68621789773476 L142.35309766658372 189.14498707146396 L144.834269638453 185.29565085740882 L147.18075910506514 181.14899382028077 L149.37918981922687 176.71738827474155 L151.41662165168353 172.01476153864937 L153.2806188231821 167.05655531689115 L154.95931667391784 161.85967731830482 L156.4414866356519 156.44244524605213 L157.71659907703815 150.8245233393124 L158.77488369954906 145.02685168114456 L159.6073871698091 139.07156852364227 L160.20602768411254 132.98192591690255 L160.56364617237915 126.78219896267338 L160.6740538617429 120.49758904667759 L160.53207593433106 114.15412143535647 L160.13359102951114 107.77853765298823 L159.47556635790096 101.39818308365969 L158.55608821268274 95.04089026925544 L157.37438768316065 88.73485839935049 L155.93086139596716 82.50852951150844 L154.22708713077577 76.3904619408892 L152.2658341797204 70.409201576141 L150.05106834285772 64.59315149419356 L147.58795147583996 58.97044055968949 L144.88283553038676 53.56879158531814 L141.94325105304307 48.41538965717095 L138.77789013298258 43.5367512343761 L135.39658381514235 38.95859463464144 L131.8102740206417 34.70571251690973 L128.03098004213305 30.801846969092153 L124.07175970732892 27.269567802784948 L119.9466653293405 24.13015464800074 L115.67069458752096 21.403483429277884 L111.2597365071218 19.107917790102903 L106.73051273012257 17.260206015434065 L102.1005142929728 15.875383982313338 L97.38793414957495 14.966684646161099 L92.61159569953261 14.545454545454575 L87.79087760238379 14.621077780184592 L82.94563517812851 15.200907889876476 L78.09611871275786 16.290208025165157 L73.26288900458479 17.89209977306038 L68.4667305029076 20.007520960261942 L63.72856240478966 22.63519272133894 L59.06934808846984 25.77159607942214 L54.51000327303729 29.410958246442263 L50.07130330345341 33.5452488080584 L45.773789967740605 38.16418591542086 L41.63767825911188 43.255252562015926 L37.68276349996915 48.80372297920553 L33.928329247006545 54.79269913892273 L30.39305639709211 61.203157306505176 L27.094933912166482 68.01400454103477 L24.05117157805934 75.2021449950314 L21.2781152069101 82.7425558200943 L18.79116468577439 90.6083724403357 L16.604695265037478 98.77098291138255 L14.731982469458416 107.20013103955037 L13.185131002065631 115.86402789372782 L11.975007996770714 124.72947130171393 L11.111180959497872 133.7619728834619 L10.60186071991518 142.92589213604418 L10.453849696556844 152.18457704937077 L10.672495757322721 161.50051069794267 L11.261651935112155 170.83546322233792 L12.223642234782503 180.15064858491425 L13.55923374281248 189.40688545747105 L15.26761522509831 198.5647615745076 L17.346382371325348 207.58480086437578 L19.791529816444935 216.42763265213415 L22.597450041073543 225.05416221242086 L25.75693922322722 233.4257419382167 L29.261210083843878 241.50434238207382 L33.099911738155896 249.25272242030655 L37.26115653427801 256.6345977877966 L41.731553829521864 263.61480723154216 L46.496250624050305 270.15947553484784 L51.53897894070424 276.2361726711683 L56.842109809279854 281.8140683570253 L62.38671368337487 286.86408128715175 L68.15262708825179 291.35902235197216 L74.11852526916975 295.2737311577316 L80.26200058139237 298.5852051928987 L86.55964633576774 301.27272101086686 L92.98714578747814 303.31794682833623 L99.51936593043963 304.70504597098204 L106.13045573596774 305.420770632981 L112.79394845187579 305.4545454545455 L119.4828675571982 304.7985404616479 L126.16983594838155 303.4477329544678 L132.8271879151148 301.3999579755713 L139.42708344810111 298.65594703527495 L145.941624407062 295.2193548198562 L152.34297206521222 291.09677365805015 L158.60346553638212 286.2977355724256 L164.69574058299526 280.83470179452627 L170.59284829723504 274.72303967590415 L176.2683731440421 267.98098698110323 L181.69654985306198 260.6296036030799 L186.8523786473731 252.69271079620216 L191.7117382997451 244.19681807664634 L196.25149651233852 235.1710379944503 L200.449617123131 225.6469890354636 L204.28526365194475 215.65868696469713 L207.7388987107095 205.24242497491923 L210.7923788165092 194.43664305548822 L213.42904416196419 183.2817870461787 L215.63380291555882 171.82015788886724 L217.39320964455408 160.09575163623438 L218.6955374750707 148.15409082083266 L219.53084362769354 136.0420478298372 " fill="none" stroke-width="1.6500000000000001" stroke="rgb(71,71,71)" stroke-opacity="1.0">
            </path>
          </g>
        </g>
      </g>
      <g transform="translate(58.01530667574961 15.2 ) ">
        <text class="plot-title" y="0.0">
        `path` layer
        </text>
      </g>
      <g transform="translate(14.5 194.0 ) rotate(-90.0 ) ">
        <text class="axis-title-y" y="0.0" text-anchor="middle">
        y
        </text>
      </g>
      <g transform="translate(173.00765333787479 391.5 ) ">
        <text class="axis-title-x" y="0.0" text-anchor="middle">
        x
        </text>
      </g>
      <path fill="rgb(0,0,0)" fill-opacity="0.0" stroke="rgb(71,71,71)" stroke-opacity="1.0" stroke-width="0.0" d="M0.0 0.0 L0.0 400.0 L298.0 400.0 L298.0 0.0 Z">
      </path>
    </g>
    <g id="xXxprefixXx6">
    </g>
  </svg>
</svg>