<svg xmlns="http://www.w3.org/2000/svg" xmlns:xlink="http://www.w3.org/1999/xlink" class="plt-container" width="700.0" height="470.0">
<style type="text/css">

  .plt-container {
   font-family: Lucida Grande, sans-serif;
   user-select: none;
   -webkit-user-select: none;
   -moz-user-select: none;
   -ms-user-select: none;
}
text {
   text-rendering: optimizeLegibility;
}
#pZVQRpj .plot-title {
   fill: #bbbbbb;
   font-family: Lucida Grande, sans-serif;
   font-size: 16.0px;
   font-weight: normal;
   font-style: normal;   
}
#pZVQRpj .plot-subtitle {
   fill: #bbbbbb;
   font-family: Lucida Grande, sans-serif;
   font-size: 15.0px;
   font-weight: normal;
   font-style: normal;   
}
#pZVQRpj .plot-caption {
   fill: #bbbbbb;
   font-family: Lucida Grande, sans-serif;
   font-size: 13.0px;
   font-weight: normal;
   font-style: normal;   
}
#pZVQRpj .legend-title {
   fill: #bbbbbb;
   font-family: Lucida Grande, sans-serif;
   font-size: 15.0px;
   font-weight: normal;
   font-style: normal;   
}
#pZVQRpj .legend-item {
   fill: #bbbbbb;
   font-family: Lucida Grande, sans-serif;
   font-size: 13.0px;
   font-weight: normal;
   font-style: normal;   
}
#pZVQRpj .axis-title-x {
   fill: #bbbbbb;
   font-family: Lucida Grande, sans-serif;
   font-size: 15.0px;
   font-weight: normal;
   font-style: normal;   
}
#pZVQRpj .axis-text-x {
   fill: #bbbbbb;
   font-family: Lucida Grande, sans-serif;
   font-size: 13.0px;
   font-weight: normal;
   font-style: normal;   
}
#dm26eSK .axis-tooltip-text-x {
   fill: #303030;
   font-family: Lucida Grande, sans-serif;
   font-size: 13.0px;
   font-weight: normal;
   font-style: normal;   
}
#pZVQRpj .axis-title-y {
   fill: #bbbbbb;
   font-family: Lucida Grande, sans-serif;
   font-size: 15.0px;
   font-weight: normal;
   font-style: normal;   
}
#pZVQRpj .axis-text-y {
   fill: #bbbbbb;
   font-family: Lucida Grande, sans-serif;
   font-size: 13.0px;
   font-weight: normal;
   font-style: normal;   
}
#dm26eSK .axis-tooltip-text-y {
   fill: #303030;
   font-family: Lucida Grande, sans-serif;
   font-size: 13.0px;
   font-weight: normal;
   font-style: normal;   
}
#pZVQRpj .facet-strip-text-x {
   fill: #bbbbbb;
   font-family: Lucida Grande, sans-serif;
   font-size: 13.0px;
   font-weight: normal;
   font-style: normal;   
}
#pZVQRpj .facet-strip-text-y {
   fill: #bbbbbb;
   font-family: Lucida Grande, sans-serif;
   font-size: 13.0px;
   font-weight: normal;
   font-style: normal;   
}
#dm26eSK .tooltip-text {
   fill: #bbbbbb;
   font-family: Lucida Grande, sans-serif;
   font-size: 13.0px;
   font-weight: normal;
   font-style: normal;   
}
#dm26eSK .tooltip-title {
   fill: #bbbbbb;
   font-family: Lucida Grande, sans-serif;
   font-size: 13.0px;
   font-weight: bold;
   font-style: normal;   
}
#dm26eSK .tooltip-label {
   fill: #bbbbbb;
   font-family: Lucida Grande, sans-serif;
   font-size: 13.0px;
   font-weight: bold;
   font-style: normal;   
}

  

  .plt-container {
   font-family: Lucida Grande, sans-serif;
   user-select: none;
   -webkit-user-select: none;
   -moz-user-select: none;
   -ms-user-select: none;
}
text {
   text-rendering: optimizeLegibility;
}
#p3TJbub .plot-title {
   fill: #bbbbbb;
   font-family: Lucida Grande, sans-serif;
   font-size: 16.0px;
   font-weight: normal;
   font-style: normal;   
}
#p3TJbub .plot-subtitle {
   fill: #bbbbbb;
   font-family: Lucida Grande, sans-serif;
   font-size: 15.0px;
   font-weight: normal;
   font-style: normal;   
}
#p3TJbub .plot-caption {
   fill: #bbbbbb;
   font-family: Lucida Grande, sans-serif;
   font-size: 13.0px;
   font-weight: normal;
   font-style: normal;   
}
#p3TJbub .legend-title {
   fill: #bbbbbb;
   font-family: Lucida Grande, sans-serif;
   font-size: 15.0px;
   font-weight: normal;
   font-style: normal;   
}
#p3TJbub .legend-item {
   fill: #bbbbbb;
   font-family: Lucida Grande, sans-serif;
   font-size: 13.0px;
   font-weight: normal;
   font-style: normal;   
}
#p3TJbub .axis-title-x {
   fill: #bbbbbb;
   font-family: Lucida Grande, sans-serif;
   font-size: 15.0px;
   font-weight: normal;
   font-style: normal;   
}
#p3TJbub .axis-text-x {
   fill: #bbbbbb;
   font-family: Lucida Grande, sans-serif;
   font-size: 13.0px;
   font-weight: normal;
   font-style: normal;   
}
#dECT85D .axis-tooltip-text-x {
   fill: #303030;
   font-family: Lucida Grande, sans-serif;
   font-size: 13.0px;
   font-weight: normal;
   font-style: normal;   
}
#p3TJbub .axis-title-y {
   fill: #bbbbbb;
   font-family: Lucida Grande, sans-serif;
   font-size: 15.0px;
   font-weight: normal;
   font-style: normal;   
}
#p3TJbub .axis-text-y {
   fill: #bbbbbb;
   font-family: Lucida Grande, sans-serif;
   font-size: 13.0px;
   font-weight: normal;
   font-style: normal;   
}
#dECT85D .axis-tooltip-text-y {
   fill: #303030;
   font-family: Lucida Grande, sans-serif;
   font-size: 13.0px;
   font-weight: normal;
   font-style: normal;   
}
#p3TJbub .facet-strip-text-x {
   fill: #bbbbbb;
   font-family: Lucida Grande, sans-serif;
   font-size: 13.0px;
   font-weight: normal;
   font-style: normal;   
}
#p3TJbub .facet-strip-text-y {
   fill: #bbbbbb;
   font-family: Lucida Grande, sans-serif;
   font-size: 13.0px;
   font-weight: normal;
   font-style: normal;   
}
#dECT85D .tooltip-text {
   fill: #bbbbbb;
   font-family: Lucida Grande, sans-serif;
   font-size: 13.0px;
   font-weight: normal;
   font-style: normal;   
}
#dECT85D .tooltip-title {
   fill: #bbbbbb;
   font-family: Lucida Grande, sans-serif;
   font-size: 13.0px;
   font-weight: bold;
   font-style: normal;   
}
#dECT85D .tooltip-label {
   fill: #bbbbbb;
   font-family: Lucida Grande, sans-serif;
   font-size: 13.0px;
   font-weight: bold;
   font-style: normal;   
}

  
</style>
<g transform="translate(0.0 0.0)" id="pZVQRpj">
    <path fill-rule="evenodd" fill="rgb(48,48,48)" fill-opacity="1.0" d="M0.0 0.0 L0.0 470.0 L350.0 470.0 L350.0 0.0 Z">
    </path>
    <g transform="translate(23.0 34.0 ) ">
      <g transform="translate(35.01530667574961 390.0 ) ">
        <line x1="49.96064359038418" y1="-0.0" x2="49.96064359038418" y2="-390.0" stroke="rgb(71,71,71)" stroke-opacity="1.0" stroke-width="1.0">
        </line>
        <line x1="123.02949814827518" y1="-0.0" x2="123.02949814827518" y2="-390.0" stroke="rgb(71,71,71)" stroke-opacity="1.0" stroke-width="1.0">
        </line>
        <line x1="196.09835270616617" y1="-0.0" x2="196.09835270616617" y2="-390.0" stroke="rgb(71,71,71)" stroke-opacity="1.0" stroke-width="1.0">
        </line>
        <line x1="269.1672072640572" y1="-0.0" x2="269.1672072640572" y2="-390.0" stroke="rgb(71,71,71)" stroke-opacity="1.0" stroke-width="1.0">
        </line>
        <g transform="translate(49.96064359038418 0.0 ) ">
          <line stroke-width="1.0" stroke="rgb(187,187,187)" stroke-opacity="1.0" x2="0.0" y2="4.0">
          </line>
          <g transform="translate(0.0 7.0 ) ">
            <text class="axis-text-x" text-anchor="middle" dy="0.7em">
            -1
            </text>
          </g>
        </g>
        <g transform="translate(123.02949814827518 0.0 ) ">
          <line stroke-width="1.0" stroke="rgb(187,187,187)" stroke-opacity="1.0" x2="0.0" y2="4.0">
          </line>
          <g transform="translate(0.0 7.0 ) ">
            <text class="axis-text-x" text-anchor="middle" dy="0.7em">
            0
            </text>
          </g>
        </g>
        <g transform="translate(196.09835270616617 0.0 ) ">
          <line stroke-width="1.0" stroke="rgb(187,187,187)" stroke-opacity="1.0" x2="0.0" y2="4.0">
          </line>
          <g transform="translate(0.0 7.0 ) ">
            <text class="axis-text-x" text-anchor="middle" dy="0.7em">
            1
            </text>
          </g>
        </g>
        <g transform="translate(269.1672072640572 0.0 ) ">
          <line stroke-width="1.0" stroke="rgb(187,187,187)" stroke-opacity="1.0" x2="0.0" y2="4.0">
          </line>
          <g transform="translate(0.0 7.0 ) ">
            <text class="axis-text-x" text-anchor="middle" dy="0.7em">
            2
            </text>
          </g>
        </g>
        <line x1="0.0" y1="0.0" x2="281.9846933242504" y2="0.0" stroke-width="1.0" stroke="rgb(187,187,187)" stroke-opacity="1.0">
        </line>
      </g>
      <g transform="translate(35.01530667574961 0.0 ) ">
        <line x1="0.0" y1="342.12591026699556" x2="281.9846933242504" y2="342.12591026699556" stroke="rgb(71,71,71)" stroke-opacity="1.0" stroke-width="1.0">
        </line>
        <line x1="0.0" y1="283.35102210886834" x2="281.9846933242504" y2="283.35102210886834" stroke="rgb(71,71,71)" stroke-opacity="1.0" stroke-width="1.0">
        </line>
        <line x1="0.0" y1="224.57613395074117" x2="281.9846933242504" y2="224.57613395074117" stroke="rgb(71,71,71)" stroke-opacity="1.0" stroke-width="1.0">
        </line>
        <line x1="0.0" y1="165.80124579261397" x2="281.9846933242504" y2="165.80124579261397" stroke="rgb(71,71,71)" stroke-opacity="1.0" stroke-width="1.0">
        </line>
        <line x1="0.0" y1="107.02635763448679" x2="281.9846933242504" y2="107.02635763448679" stroke="rgb(71,71,71)" stroke-opacity="1.0" stroke-width="1.0">
        </line>
        <line x1="0.0" y1="48.2514694763596" x2="281.9846933242504" y2="48.2514694763596" stroke="rgb(71,71,71)" stroke-opacity="1.0" stroke-width="1.0">
        </line>
        <g transform="translate(0.0 342.12591026699556 ) ">
          <g transform="translate(-3.0 0.0 ) ">
            <text class="axis-text-y" text-anchor="end" dy="0.35em">
            -1.5
            </text>
          </g>
        </g>
        <g transform="translate(0.0 283.35102210886834 ) ">
          <g transform="translate(-3.0 0.0 ) ">
            <text class="axis-text-y" text-anchor="end" dy="0.35em">
            -1.0
            </text>
          </g>
        </g>
        <g transform="translate(0.0 224.57613395074117 ) ">
          <g transform="translate(-3.0 0.0 ) ">
            <text class="axis-text-y" text-anchor="end" dy="0.35em">
            -0.5
            </text>
          </g>
        </g>
        <g transform="translate(0.0 165.80124579261397 ) ">
          <g transform="translate(-3.0 0.0 ) ">
            <text class="axis-text-y" text-anchor="end" dy="0.35em">
            0.0
            </text>
          </g>
        </g>
        <g transform="translate(0.0 107.02635763448679 ) ">
          <g transform="translate(-3.0 0.0 ) ">
            <text class="axis-text-y" text-anchor="end" dy="0.35em">
            0.5
            </text>
          </g>
        </g>
        <g transform="translate(0.0 48.2514694763596 ) ">
          <g transform="translate(-3.0 0.0 ) ">
            <text class="axis-text-y" text-anchor="end" dy="0.35em">
            1.0
            </text>
          </g>
        </g>
      </g>
      <g transform="translate(35.01530667574961 0.0 ) " clip-path="url(#c06rSdw)" clip-bounds-jfx="[rect (0.0, 0.0), (281.9846933242504, 390.0)]">
        <defs>
          <clipPath id="c06rSdw">
            <rect x="0.0" y="0.0" width="281.9846933242504" height="390.0">
            </rect>
          </clipPath>
        </defs>
        <g>
          <path d="M12.817486060193204 185.4749532789206 L12.817486060193204 185.4749532789206 L12.998962672514807 174.19093104080383 L13.085568433417478 196.8287474131176 L13.623441238834317 163.02240445171918 L13.807934003546151 208.20572080222433 L14.682581300156357 152.01404314896382 L14.987432237591648 219.55860296286423 L16.166315541772207 141.20928399548077 L16.625003661822575 230.83964165129282 L18.062913225496956 130.650159704452 L18.71965362047878 242.0008031689311 L20.35905013666624 120.37713542324747 L21.268434183865708 252.99397605345797 L23.039884674641726 110.42895391165914 L24.266434365871376 263.77117729478846 L26.08913969191505 100.84248990573991 L27.706778775743388 274.28476019638794 L29.489189665183957 91.65261421269452 L31.580634792912292 284.4876229872016 L33.221152762071554 82.8920680343861 L35.877228316912266 294.3334172781524 L37.26498734956016 74.59134796730316 L40.583868107188806 303.77675544974863 L41.599592474759405 66.77860207556206 L45.685978689945145 312.7734160538771 L46.202911835387866 59.479537380906734 L51.052040746363176 52.7173390599569 L51.16714177134912 321.28054631344196 L56.123335600182614 46.51260158441917 L57.00914605853822 329.2568608080958 L61.392525312383654 40.883271984821164 L63.192045352120196 336.6628354429863 L66.83482423928137 35.844605362851496 L69.6942247364035 343.46089581012455 L72.42504605342023 31.409132721795714 L76.49247465661362 349.61559906871616 L78.13771806271376 27.586641129131834 L83.56207263597167 355.09380849146606 L83.9471954620762 24.38416617031922 L84.7936071646415 182.7178110336194 L84.8390207798735 186.95038505270082 L84.92518992288308 178.56157156434392 L85.06684029123906 191.23963970635486 L85.22755600175711 174.50044316302842 L85.48162784168221 195.56513311694778 L85.69373626142342 170.55224129819612 L86.08705820217719 199.9057302605374 L86.31605623235541 166.73374288687393 L86.88588288310241 204.23970273328064 L87.08618989286013 163.06061527820526 L87.87989857697337 208.54483300860753 L87.99521616001071 159.54735202213232 L89.03367777591785 156.207215686274 L89.06992014040469 212.79852269923816 L89.82777501144281 21.805996598417323 L90.19164226162462 153.0521879465873 L90.45575830215438 216.97790431396237 L90.87687234995971 359.8648598484854 L91.45876460294559 150.09292713896937 L92.03620226202644 221.05995597729247 L92.82435132631446 147.3387334198277 L93.80900732237103 225.02161856075278 L94.27742561817746 144.79752164401367 L95.75380764137665 19.853691030670035 L95.77088767003187 228.83991465779718 L95.80679313868794 142.4758020285665 L97.40110817942356 140.3786686306573 L97.91751440195617 232.49206882023805 L98.40939974046641 363.90071882884524 L99.04893981556279 138.50979562814248 L100.24351886242198 235.95562846271469 L100.73883770540549 136.87144135143322 L101.69980949694562 18.52610649078693 L102.45939719428893 135.46445997615143 L102.74250133406504 239.20858483319446 L104.19932338580485 134.28832074746592 L105.40704509872566 242.2294934418414 L105.94749385072993 133.34113456926747 L106.13095581902068 367.17612873199397 L107.64057094213874 17.81943854459996 L107.69301965319951 132.61968775463237 L108.22873585771002 244.99759333785485 L109.42530438432942 132.11948269851464 L111.13410090566605 131.83478519946766 L111.19818647449078 247.49292462409613 L112.80956551845547 131.75867812458796 L113.55126306072522 17.727272727272748 L114.01172577607605 369.66874769703475 L114.30506697629224 249.69644360251164 L114.44230928969478 131.88312108095226 L116.02344628218583 132.19901572772898 L117.5381397245359 251.590134949518 L117.54463845326842 132.69627633602414 L118.99813700547611 133.36390517849424 L119.40754120506725 18.240646912508822 L120.37681999193873 134.19007230794386 L120.88529963789605 253.1571203296362 L121.67422599985221 135.16219926362587 L122.02089398251191 371.3592747771343 L122.88458375664254 136.26704622587255 L123.02949814827518 165.80124579261397 L124.00283752546149 137.4908021240885 L124.3336193258555 254.38176286771653 L124.48652100924676 165.50362699551707 L125.0246681792551 138.81917719009917 L125.18564516187469 19.348124228444362 L125.19316457209881 165.13382887984187 L125.94650986572837 140.23749743843078 L126.5197935065433 163.96700834593196 L126.76556219897628 141.7308005473414 L127.12316390447945 163.1793403114046 L127.47979793724612 143.28393260936107 L127.67593309989388 162.26359239355526 L127.86939896528675 255.24976691504554 L128.0879661301185 144.88164521774775 L128.17053182634442 161.22717156876655 L128.58959074223037 146.5086923556331 L128.59978075215938 160.0785031038345 L128.95693985884333 158.82697985407964 L128.9849647843906 148.14992655770578 L129.23575535546397 157.48290563094997 L129.27514000644254 149.79039382004308 L129.43050386209316 156.05743294136437 L129.4619122293924 151.41542674211414 L129.5360336094222 154.5624954314426 L129.54780241703122 153.01073539600037 L130.1267644402584 372.23156420894554 L130.86249552317554 21.03587608131025 L131.47822072783603 255.74827256241974 L135.14500754188091 255.86594437383843 L136.4157858717353 23.287774806687906 L138.29688621142574 372.27272727272725 L138.85408594968368 255.593053837728 L141.8240704127149 26.0854954294324 L142.5892527981888 254.92155505847603 L146.33384548082677 253.84515323940775 L146.49818332960302 371.4732211876334 L147.06684670737673 29.408625977250892 L150.0708154277909 252.3593655390728 L152.12463319002174 33.234785759644154 L153.78280452365865 250.46157391568732 L154.69708867326557 369.8269245382577 L156.97904117594294 37.53975099358104 L157.45222411402077 248.15106960966023 L161.06133624706248 245.4290889511634 L161.61284109587692 42.29758712998371 L162.859681259565 367.3311987827275 L164.59233678188258 242.2988402185312 L166.01002272110026 47.480787210969254 L168.0274399828289 238.7655213137108 L170.15584917280782 53.060415566895855 L170.95182639731706 363.9869354492413 L171.34896420833138 234.8363280628642 L174.03690453958995 59.00625614467708 L174.53941829369575 230.52045299334668 L177.58158822013456 225.82907448246698 L177.64113495755004 65.28696474460646 L178.93931812082457 359.7985886866997 L180.45862365700307 220.77533621846715 L180.95788303873516 71.87022443212155 L183.15412396081453 215.37431695984125 L183.977915564937 78.72290338354838 L185.65222321316065 209.64299062522892 L186.6934443954242 85.81121442092183 L186.7880233113933 354.77419289574857 L187.93767388018063 203.60017679246107 L189.0981405686382 93.10087549045869 L189.9959286787137 197.26648173168397 L191.18714160918304 100.55727034215089 L191.8132202387426 190.664230143626 L192.95705208242424 108.1456086742084 L193.37663815817473 183.81738781978697 L194.40593746954252 115.83108501565506 L194.4640269010642 348.92536522889367 L194.67420305440797 176.75147548639492 L195.53331146582912 123.57903563321025 L195.69493722744997 169.49347413818901 L196.34011683422895 131.3550927645794 L196.42893156158306 162.071722211225 L196.82869997450587 139.12533549934068 L196.86740830663655 154.51580498575817 L197.00277939579843 146.8564366506383 L201.93377754331294 342.26729281207884 L209.1642331282657 334.8187046050082 L216.12300551545525 326.6018278832195 L222.778503855272 317.6423293912536 L229.1000758711382 307.9692412828714 L235.0581464780131 297.6148720309127 L240.62435311916363 286.6147025557363 L245.77167721217836 275.00726788697125 L250.4745711069597 262.83402473822457 L254.70907997284593 250.1392054381828 L258.45295804907806 236.96965872387625 L261.6857787124452 223.37467796253026 L264.3890378380854 209.40581742705695 L266.5462499539755 195.11669730666063 L268.14303671655415 180.5627981878898 L269.1672072640572 165.80124579261408 " fill="none" stroke-width="1.6500000000000001" stroke="rgb(187,187,187)" stroke-opacity="1.0">
          </path>
        </g>
      </g>
    </g>
    <g transform="translate(58.01530667574961 15.2 ) ">
      <text class="plot-title" y="0.0">
      `line` layer
      </text>
    </g>
    <g transform="translate(14.5 229.0 ) rotate(-90.0 ) ">
      <text class="axis-title-y" y="0.0" text-anchor="middle">
      y
      </text>
    </g>
    <g transform="translate(199.00765333787479 461.5 ) ">
      <text class="axis-title-x" y="0.0" text-anchor="middle">
      x
      </text>
    </g>
    <path fill="rgb(0,0,0)" fill-opacity="0.0" stroke="rgb(187,187,187)" stroke-opacity="1.0" stroke-width="0.0" d="M0.0 0.0 L0.0 470.0 L350.0 470.0 L350.0 0.0 Z">
    </path>
  </g>
  <g id="dm26eSK">
  </g>

<g transform="translate(350.0 0.0)" id="p3TJbub">
    <path fill-rule="evenodd" fill="rgb(48,48,48)" fill-opacity="1.0" d="M0.0 0.0 L0.0 470.0 L350.0 470.0 L350.0 0.0 Z">
    </path>
    <g transform="translate(23.0 34.0 ) ">
      <g transform="translate(35.01530667574961 390.0 ) ">
        <line x1="49.96064359038418" y1="-0.0" x2="49.96064359038418" y2="-390.0" stroke="rgb(71,71,71)" stroke-opacity="1.0" stroke-width="1.0">
        </line>
        <line x1="123.02949814827518" y1="-0.0" x2="123.02949814827518" y2="-390.0" stroke="rgb(71,71,71)" stroke-opacity="1.0" stroke-width="1.0">
        </line>
        <line x1="196.09835270616617" y1="-0.0" x2="196.09835270616617" y2="-390.0" stroke="rgb(71,71,71)" stroke-opacity="1.0" stroke-width="1.0">
        </line>
        <line x1="269.1672072640572" y1="-0.0" x2="269.1672072640572" y2="-390.0" stroke="rgb(71,71,71)" stroke-opacity="1.0" stroke-width="1.0">
        </line>
        <g transform="translate(49.96064359038418 0.0 ) ">
          <line stroke-width="1.0" stroke="rgb(187,187,187)" stroke-opacity="1.0" x2="0.0" y2="4.0">
          </line>
          <g transform="translate(0.0 7.0 ) ">
            <text class="axis-text-x" text-anchor="middle" dy="0.7em">
            -1
            </text>
          </g>
        </g>
        <g transform="translate(123.02949814827518 0.0 ) ">
          <line stroke-width="1.0" stroke="rgb(187,187,187)" stroke-opacity="1.0" x2="0.0" y2="4.0">
          </line>
          <g transform="translate(0.0 7.0 ) ">
            <text class="axis-text-x" text-anchor="middle" dy="0.7em">
            0
            </text>
          </g>
        </g>
        <g transform="translate(196.09835270616617 0.0 ) ">
          <line stroke-width="1.0" stroke="rgb(187,187,187)" stroke-opacity="1.0" x2="0.0" y2="4.0">
          </line>
          <g transform="translate(0.0 7.0 ) ">
            <text class="axis-text-x" text-anchor="middle" dy="0.7em">
            1
            </text>
          </g>
        </g>
        <g transform="translate(269.1672072640572 0.0 ) ">
          <line stroke-width="1.0" stroke="rgb(187,187,187)" stroke-opacity="1.0" x2="0.0" y2="4.0">
          </line>
          <g transform="translate(0.0 7.0 ) ">
            <text class="axis-text-x" text-anchor="middle" dy="0.7em">
            2
            </text>
          </g>
        </g>
        <line x1="0.0" y1="0.0" x2="281.9846933242504" y2="0.0" stroke-width="1.0" stroke="rgb(187,187,187)" stroke-opacity="1.0">
        </line>
      </g>
      <g transform="translate(35.01530667574961 0.0 ) ">
        <line x1="0.0" y1="342.12591026699556" x2="281.9846933242504" y2="342.12591026699556" stroke="rgb(71,71,71)" stroke-opacity="1.0" stroke-width="1.0">
        </line>
        <line x1="0.0" y1="283.35102210886834" x2="281.9846933242504" y2="283.35102210886834" stroke="rgb(71,71,71)" stroke-opacity="1.0" stroke-width="1.0">
        </line>
        <line x1="0.0" y1="224.57613395074117" x2="281.9846933242504" y2="224.57613395074117" stroke="rgb(71,71,71)" stroke-opacity="1.0" stroke-width="1.0">
        </line>
        <line x1="0.0" y1="165.80124579261397" x2="281.9846933242504" y2="165.80124579261397" stroke="rgb(71,71,71)" stroke-opacity="1.0" stroke-width="1.0">
        </line>
        <line x1="0.0" y1="107.02635763448679" x2="281.9846933242504" y2="107.02635763448679" stroke="rgb(71,71,71)" stroke-opacity="1.0" stroke-width="1.0">
        </line>
        <line x1="0.0" y1="48.2514694763596" x2="281.9846933242504" y2="48.2514694763596" stroke="rgb(71,71,71)" stroke-opacity="1.0" stroke-width="1.0">
        </line>
        <g transform="translate(0.0 342.12591026699556 ) ">
          <g transform="translate(-3.0 0.0 ) ">
            <text class="axis-text-y" text-anchor="end" dy="0.35em">
            -1.5
            </text>
          </g>
        </g>
        <g transform="translate(0.0 283.35102210886834 ) ">
          <g transform="translate(-3.0 0.0 ) ">
            <text class="axis-text-y" text-anchor="end" dy="0.35em">
            -1.0
            </text>
          </g>
        </g>
        <g transform="translate(0.0 224.57613395074117 ) ">
          <g transform="translate(-3.0 0.0 ) ">
            <text class="axis-text-y" text-anchor="end" dy="0.35em">
            -0.5
            </text>
          </g>
        </g>
        <g transform="translate(0.0 165.80124579261397 ) ">
          <g transform="translate(-3.0 0.0 ) ">
            <text class="axis-text-y" text-anchor="end" dy="0.35em">
            0.0
            </text>
          </g>
        </g>
        <g transform="translate(0.0 107.02635763448679 ) ">
          <g transform="translate(-3.0 0.0 ) ">
            <text class="axis-text-y" text-anchor="end" dy="0.35em">
            0.5
            </text>
          </g>
        </g>
        <g transform="translate(0.0 48.2514694763596 ) ">
          <g transform="translate(-3.0 0.0 ) ">
            <text class="axis-text-y" text-anchor="end" dy="0.35em">
            1.0
            </text>
          </g>
        </g>
      </g>
      <g transform="translate(35.01530667574961 0.0 ) " clip-path="url(#cWzhi6l)" clip-bounds-jfx="[rect (0.0, 0.0), (281.9846933242504, 390.0)]">
        <defs>
          <clipPath id="cWzhi6l">
            <rect x="0.0" y="0.0" width="281.9846933242504" height="390.0">
            </rect>
          </clipPath>
        </defs>
        <g>
          <path d="M123.02949814827518 165.80124579261397 L123.02949814827518 165.80124579261397 L124.48652100924676 165.50362699551707 L125.87372954446329 164.62025231220542 L127.12316390447945 163.1793403114046 L128.17053182634442 161.22717156876655 L128.59978075215938 160.0785031038345 L128.95693985884333 158.82697985407964 L129.23575535546397 157.48290563094997 L129.43050386209316 156.05743294136437 L129.5360336094222 154.5624954314426 L129.54780241703122 153.01073539600037 L129.4619122293924 151.41542674211414 L129.27514000644254 149.79039382004308 L128.9849647843906 148.14992655770578 L128.58959074223037 146.5086923556331 L128.0879661301185 144.88164521774775 L127.47979793724612 143.28393260936107 L126.76556219897628 141.7308005473414 L125.94650986572837 140.23749743843078 L125.0246681792551 138.81917719009917 L124.00283752546149 137.4908021240885 L122.88458375664254 136.26704622587255 L121.67422599985221 135.16219926362587 L120.37681999193873 134.19007230794386 L118.99813700547611 133.36390517849424 L117.54463845326842 132.69627633602414 L116.02344628218583 132.19901572772898 L114.44230928969478 131.88312108095226 L112.80956551845547 131.75867812458796 L111.13410090566605 131.83478519946766 L109.42530438432942 132.11948269851464 L107.69301965319951 132.61968775463237 L105.94749385072993 133.34113456926747 L104.19932338580485 134.28832074746592 L102.45939719428893 135.46445997615143 L100.73883770540549 136.87144135143322 L99.04893981556279 138.50979562814248 L97.40110817942356 140.3786686306573 L95.80679313868794 142.4758020285665 L94.27742561817746 144.79752164401367 L92.82435132631446 147.3387334198277 L91.45876460294559 150.09292713896937 L90.19164226162462 153.0521879465873 L89.03367777591785 156.207215686274 L87.99521616001071 159.54735202213232 L87.08618989286013 163.06061527820526 L86.31605623235541 166.73374288687393 L85.69373626142342 170.55224129819612 L85.22755600175711 174.50044316302842 L84.92518992288308 178.56157156434392 L84.7936071646415 182.7178110336194 L84.8390207798735 186.95038505270082 L85.06684029123906 191.23963970635486 L85.48162784168221 195.56513311694778 L86.08705820217719 199.9057302605374 L86.88588288310241 204.23970273328064 L87.87989857697337 208.54483300860753 L89.06992014040469 212.79852269923816 L90.45575830215438 216.97790431396237 L92.03620226202644 221.05995597729247 L93.80900732237103 225.02161856075278 L95.77088767003187 228.83991465779718 L97.91751440195617 232.49206882023805 L100.24351886242198 235.95562846271469 L102.74250133406504 239.20858483319446 L105.40704509872566 242.2294934418414 L108.22873585771002 244.99759333785485 L111.19818647449078 247.49292462409613 L114.30506697629224 249.69644360251164 L117.5381397245359 251.590134949518 L120.88529963789605 253.1571203296362 L124.3336193258555 254.38176286771653 L127.86939896528675 255.24976691504554 L131.47822072783603 255.74827256241974 L135.14500754188091 255.86594437383843 L138.85408594968368 255.593053837728 L142.5892527981888 254.92155505847603 L146.33384548082677 253.84515323940775 L150.0708154277909 252.3593655390728 L153.78280452365865 250.46157391568732 L157.45222411402077 248.15106960966023 L161.06133624706248 245.4290889511634 L164.59233678188258 242.2988402185312 L168.0274399828289 238.7655213137108 L171.34896420833138 234.8363280628642 L174.53941829369575 230.52045299334668 L177.58158822013456 225.82907448246698 L180.45862365700307 220.77533621846715 L183.15412396081453 215.37431695984125 L185.65222321316065 209.64299062522892 L187.93767388018063 203.60017679246107 L189.9959286787137 197.26648173168397 L191.8132202387426 190.664230143626 L193.37663815817473 183.81738781978697 L194.67420305440797 176.75147548639492 L195.69493722744997 169.49347413818901 L196.42893156158306 162.071722211225 L196.86740830663655 154.51580498575817 L197.00277939579843 146.8564366506383 L196.82869997450587 139.12533549934068 L196.34011683422895 131.3550927645794 L195.53331146582912 123.57903563321025 L194.40593746954252 115.83108501565506 L192.95705208242424 108.1456086742084 L191.18714160918304 100.55727034215089 L189.0981405686382 93.10087549045869 L186.6934443954242 85.81121442092183 L183.977915564937 78.72290338354838 L180.95788303873516 71.87022443212155 L177.64113495755004 65.28696474460646 L174.03690453958995 59.00625614467708 L170.15584917280782 53.060415566895855 L166.01002272110026 47.480787210969254 L161.61284109587692 42.29758712998371 L156.97904117594294 37.53975099358104 L152.12463319002174 33.234785759644154 L147.06684670737673 29.408625977250892 L141.8240704127149 26.0854954294324 L136.4157858717353 23.287774806687906 L130.86249552317554 21.03587608131025 L125.18564516187469 19.348124228444362 L119.40754120506725 18.240646912508822 L113.55126306072522 17.727272727272748 L107.64057094213874 17.81943854459996 L101.69980949694562 18.52610649078693 L95.75380764137665 19.853691030670035 L89.82777501144281 21.805996598417323 L83.9471954620762 24.38416617031922 L78.13771806271376 27.586641129131834 L72.42504605342023 31.409132721795714 L66.83482423928137 35.844605362851496 L61.392525312383654 40.883271984821164 L56.123335600182614 46.51260158441917 L51.052040746363176 52.7173390599569 L46.202911835387866 59.479537380906734 L41.599592474759405 66.77860207556206 L37.26498734956016 74.59134796730316 L33.221152762071554 82.8920680343861 L29.489189665183957 91.65261421269452 L26.08913969191505 100.84248990573991 L23.039884674641726 110.42895391165914 L20.35905013666624 120.37713542324747 L18.062913225496956 130.650159704452 L16.166315541772207 141.20928399548077 L14.682581300156357 152.01404314896382 L13.623441238834317 163.02240445171918 L12.998962672514807 174.19093104080383 L12.817486060193204 185.4749532789206 L13.085568433417478 196.8287474131176 L13.807934003546151 208.20572080222433 L14.987432237591648 219.55860296286423 L16.625003661822575 230.83964165129282 L18.71965362047878 242.0008031689311 L21.268434183865708 252.99397605345797 L24.266434365871376 263.77117729478846 L27.706778775743388 274.28476019638794 L31.580634792912292 284.4876229872016 L35.877228316912266 294.3334172781524 L40.583868107188806 303.77675544974863 L45.685978689945145 312.7734160538771 L51.16714177134912 321.28054631344196 L57.00914605853822 329.2568608080958 L63.192045352120196 336.6628354429863 L69.6942247364035 343.46089581012455 L76.49247465661362 349.61559906871616 L83.56207263597167 355.09380849146606 L90.87687234995971 359.8648598484854 L98.40939974046641 363.90071882884524 L106.13095581902068 367.17612873199397 L114.01172577607605 369.66874769703475 L122.02089398251191 371.3592747771343 L130.1267644402584 372.23156420894554 L138.29688621142574 372.27272727272725 L146.49818332960302 371.4732211876334 L154.69708867326557 369.8269245382577 L162.859681259565 367.3311987827275 L170.95182639731706 363.9869354492413 L178.93931812082457 359.7985886866997 L186.7880233113933 354.77419289574857 L194.4640269010642 348.92536522889367 L201.93377754331294 342.26729281207884 L209.1642331282657 334.8187046050082 L216.12300551545525 326.6018278832195 L222.778503855272 317.6423293912536 L229.1000758711382 307.9692412828714 L235.0581464780131 297.6148720309127 L240.62435311916363 286.6147025557363 L245.77167721217836 275.00726788697125 L250.4745711069597 262.83402473822457 L254.70907997284593 250.1392054381828 L258.45295804907806 236.96965872387625 L261.6857787124452 223.37467796253026 L264.3890378380854 209.40581742705695 L266.5462499539755 195.11669730666063 L268.14303671655415 180.5627981878898 L269.1672072640572 165.80124579261408 " fill="none" stroke-width="1.6500000000000001" stroke="rgb(187,187,187)" stroke-opacity="1.0">
          </path>
        </g>
      </g>
    </g>
    <g transform="translate(58.01530667574961 15.2 ) ">
      <text class="plot-title" y="0.0">
      `path` layer
      </text>
    </g>
    <g transform="translate(14.5 229.0 ) rotate(-90.0 ) ">
      <text class="axis-title-y" y="0.0" text-anchor="middle">
      y
      </text>
    </g>
    <g transform="translate(199.00765333787479 461.5 ) ">
      <text class="axis-title-x" y="0.0" text-anchor="middle">
      x
      </text>
    </g>
    <path fill="rgb(0,0,0)" fill-opacity="0.0" stroke="rgb(187,187,187)" stroke-opacity="1.0" stroke-width="0.0" d="M0.0 0.0 L0.0 470.0 L350.0 470.0 L350.0 0.0 Z">
    </path>
  </g>
  <g id="dECT85D">
  </g>

</svg>