<svg xmlns="http://www.w3.org/2000/svg" xmlns:xlink="http://www.w3.org/1999/xlink" display="block" class="plt-container" width="705.0" height="470.0">
  <style type="text/css">
  .plt-container {
   font-family: Lucida Grande, sans-serif;
   user-select: none;
   -webkit-user-select: none;
   -moz-user-select: none;
   -ms-user-select: none;
}
text {
   text-rendering: optimizeLegibility;
}
#xXxprefixXx0 .plot-title {
   fill: #bbbbbb;
   font-family: Lucida Grande, sans-serif;
   font-size: 16.0px;
   font-weight: normal;
   font-style: normal;   
}
#xXxprefixXx0 .plot-subtitle {
   fill: #bbbbbb;
   font-family: Lucida Grande, sans-serif;
   font-size: 15.0px;
   font-weight: normal;
   font-style: normal;   
}
#xXxprefixXx0 .plot-caption {
   fill: #bbbbbb;
   font-family: Lucida Grande, sans-serif;
   font-size: 13.0px;
   font-weight: normal;
   font-style: normal;   
}
#xXxprefixXx0 .legend-title {
   fill: #bbbbbb;
   font-family: Lucida Grande, sans-serif;
   font-size: 15.0px;
   font-weight: normal;
   font-style: normal;   
}
#xXxprefixXx0 .legend-item {
   fill: #bbbbbb;
   font-family: Lucida Grande, sans-serif;
   font-size: 13.0px;
   font-weight: normal;
   font-style: normal;   
}
#xXxprefixXx0 .axis-title-x {
   fill: #bbbbbb;
   font-family: Lucida Grande, sans-serif;
   font-size: 15.0px;
   font-weight: normal;
   font-style: normal;   
}
#xXxprefixXx0 .axis-text-x {
   fill: #bbbbbb;
   font-family: Lucida Grande, sans-serif;
   font-size: 13.0px;
   font-weight: normal;
   font-style: normal;   
}
#xXxprefixXx2 .axis-tooltip-text-x {
   fill: #303030;
   font-family: Lucida Grande, sans-serif;
   font-size: 13.0px;
   font-weight: normal;
   font-style: normal;   
}
#xXxprefixXx0 .axis-title-y {
   fill: #bbbbbb;
   font-family: Lucida Grande, sans-serif;
   font-size: 15.0px;
   font-weight: normal;
   font-style: normal;   
}
#xXxprefixXx0 .axis-text-y {
   fill: #bbbbbb;
   font-family: Lucida Grande, sans-serif;
   font-size: 13.0px;
   font-weight: normal;
   font-style: normal;   
}
#xXxprefixXx2 .axis-tooltip-text-y {
   fill: #303030;
   font-family: Lucida Grande, sans-serif;
   font-size: 13.0px;
   font-weight: normal;
   font-style: normal;   
}
#xXxprefixXx0 .facet-strip-text-x {
   fill: #bbbbbb;
   font-family: Lucida Grande, sans-serif;
   font-size: 13.0px;
   font-weight: normal;
   font-style: normal;   
}
#xXxprefixXx0 .facet-strip-text-y {
   fill: #bbbbbb;
   font-family: Lucida Grande, sans-serif;
   font-size: 13.0px;
   font-weight: normal;
   font-style: normal;   
}
#xXxprefixXx2 .tooltip-text {
   fill: #bbbbbb;
   font-family: Lucida Grande, sans-serif;
   font-size: 13.0px;
   font-weight: normal;
   font-style: normal;   
}
#xXxprefixXx2 .tooltip-title {
   fill: #bbbbbb;
   font-family: Lucida Grande, sans-serif;
   font-size: 13.0px;
   font-weight: bold;
   font-style: normal;   
}
#xXxprefixXx2 .tooltip-label {
   fill: #bbbbbb;
   font-family: Lucida Grande, sans-serif;
   font-size: 13.0px;
   font-weight: bold;
   font-style: normal;   
}

  </style>
  <g id="xXxprefixXx0">
    <path fill-rule="evenodd" fill="rgb(25,25,28)" fill-opacity="1.0" d="M0.0 0.0 L0.0 470.0 L705.0 470.0 L705.0 0.0 Z">
    </path>
    <g transform="translate(29.5 6.5 ) ">
      <g>
        <g transform="translate(21.961210910936405 0.0 ) ">
          <g>
            <line x1="59.47097222889275" y1="0.0" x2="59.47097222889275" y2="411.0" stroke="rgb(71,71,71)" stroke-opacity="1.0" stroke-width="1.0" fill="none">
            </line>
            <line x1="148.23361734664314" y1="0.0" x2="148.23361734664314" y2="411.0" stroke="rgb(71,71,71)" stroke-opacity="1.0" stroke-width="1.0" fill="none">
            </line>
            <line x1="236.9962624643935" y1="0.0" x2="236.9962624643935" y2="411.0" stroke="rgb(71,71,71)" stroke-opacity="1.0" stroke-width="1.0" fill="none">
            </line>
            <line x1="325.7589075821439" y1="0.0" x2="325.7589075821439" y2="411.0" stroke="rgb(71,71,71)" stroke-opacity="1.0" stroke-width="1.0" fill="none">
            </line>
            <line x1="414.5215526998943" y1="0.0" x2="414.5215526998943" y2="411.0" stroke="rgb(71,71,71)" stroke-opacity="1.0" stroke-width="1.0" fill="none">
            </line>
            <line x1="503.28419781764467" y1="0.0" x2="503.28419781764467" y2="411.0" stroke="rgb(71,71,71)" stroke-opacity="1.0" stroke-width="1.0" fill="none">
            </line>
          </g>
        </g>
        <g transform="translate(21.961210910936405 0.0 ) ">
          <g>
            <line x1="0.0" y1="357.2897727272728" x2="527.2501119994372" y2="357.2897727272728" stroke="rgb(71,71,71)" stroke-opacity="1.0" stroke-width="1.0" fill="none">
            </line>
            <line x1="0.0" y1="298.909090909091" x2="527.2501119994372" y2="298.909090909091" stroke="rgb(71,71,71)" stroke-opacity="1.0" stroke-width="1.0" fill="none">
            </line>
            <line x1="0.0" y1="240.52840909090918" x2="527.2501119994372" y2="240.52840909090918" stroke="rgb(71,71,71)" stroke-opacity="1.0" stroke-width="1.0" fill="none">
            </line>
            <line x1="0.0" y1="182.14772727272737" x2="527.2501119994372" y2="182.14772727272737" stroke="rgb(71,71,71)" stroke-opacity="1.0" stroke-width="1.0" fill="none">
            </line>
            <line x1="0.0" y1="123.76704545454555" x2="527.2501119994372" y2="123.76704545454555" stroke="rgb(71,71,71)" stroke-opacity="1.0" stroke-width="1.0" fill="none">
            </line>
            <line x1="0.0" y1="65.38636363636374" x2="527.2501119994372" y2="65.38636363636374" stroke="rgb(71,71,71)" stroke-opacity="1.0" stroke-width="1.0" fill="none">
            </line>
            <line x1="0.0" y1="7.00568181818187" x2="527.2501119994372" y2="7.00568181818187" stroke="rgb(71,71,71)" stroke-opacity="1.0" stroke-width="1.0" fill="none">
            </line>
          </g>
        </g>
        <g transform="translate(21.961210910936405 411.0 ) ">
          <g transform="translate(59.47097222889275 0.0 ) ">
            <line stroke-width="1.0" stroke="rgb(187,187,187)" stroke-opacity="1.0" x2="0.0" y2="4.0">
            </line>
            <g transform="translate(0.0 7.0 ) ">
              <text class="axis-text-x" text-anchor="middle" dy="0.7em">
                <tspan>2</tspan>
              </text>
            </g>
          </g>
          <g transform="translate(148.23361734664314 0.0 ) ">
            <line stroke-width="1.0" stroke="rgb(187,187,187)" stroke-opacity="1.0" x2="0.0" y2="4.0">
            </line>
            <g transform="translate(0.0 7.0 ) ">
              <text class="axis-text-x" text-anchor="middle" dy="0.7em">
                <tspan>3</tspan>
              </text>
            </g>
          </g>
          <g transform="translate(236.9962624643935 0.0 ) ">
            <line stroke-width="1.0" stroke="rgb(187,187,187)" stroke-opacity="1.0" x2="0.0" y2="4.0">
            </line>
            <g transform="translate(0.0 7.0 ) ">
              <text class="axis-text-x" text-anchor="middle" dy="0.7em">
                <tspan>4</tspan>
              </text>
            </g>
          </g>
          <g transform="translate(325.7589075821439 0.0 ) ">
            <line stroke-width="1.0" stroke="rgb(187,187,187)" stroke-opacity="1.0" x2="0.0" y2="4.0">
            </line>
            <g transform="translate(0.0 7.0 ) ">
              <text class="axis-text-x" text-anchor="middle" dy="0.7em">
                <tspan>5</tspan>
              </text>
            </g>
          </g>
          <g transform="translate(414.5215526998943 0.0 ) ">
            <line stroke-width="1.0" stroke="rgb(187,187,187)" stroke-opacity="1.0" x2="0.0" y2="4.0">
            </line>
            <g transform="translate(0.0 7.0 ) ">
              <text class="axis-text-x" text-anchor="middle" dy="0.7em">
                <tspan>6</tspan>
              </text>
            </g>
          </g>
          <g transform="translate(503.28419781764467 0.0 ) ">
            <line stroke-width="1.0" stroke="rgb(187,187,187)" stroke-opacity="1.0" x2="0.0" y2="4.0">
            </line>
            <g transform="translate(0.0 7.0 ) ">
              <text class="axis-text-x" text-anchor="middle" dy="0.7em">
                <tspan>7</tspan>
              </text>
            </g>
          </g>
          <line x1="0.0" y1="0.0" x2="527.2501119994372" y2="0.0" stroke-width="1.0" stroke="rgb(187,187,187)" stroke-opacity="1.0">
          </line>
        </g>
        <g transform="translate(21.961210910936405 0.0 ) ">
          <g transform="translate(0.0 357.2897727272728 ) ">
            <g transform="translate(-3.0 0.0 ) ">
              <text class="axis-text-y" text-anchor="end" dy="0.35em">
                <tspan>15</tspan>
              </text>
            </g>
          </g>
          <g transform="translate(0.0 298.909090909091 ) ">
            <g transform="translate(-3.0 0.0 ) ">
              <text class="axis-text-y" text-anchor="end" dy="0.35em">
                <tspan>20</tspan>
              </text>
            </g>
          </g>
          <g transform="translate(0.0 240.52840909090918 ) ">
            <g transform="translate(-3.0 0.0 ) ">
              <text class="axis-text-y" text-anchor="end" dy="0.35em">
                <tspan>25</tspan>
              </text>
            </g>
          </g>
          <g transform="translate(0.0 182.14772727272737 ) ">
            <g transform="translate(-3.0 0.0 ) ">
              <text class="axis-text-y" text-anchor="end" dy="0.35em">
                <tspan>30</tspan>
              </text>
            </g>
          </g>
          <g transform="translate(0.0 123.76704545454555 ) ">
            <g transform="translate(-3.0 0.0 ) ">
              <text class="axis-text-y" text-anchor="end" dy="0.35em">
                <tspan>35</tspan>
              </text>
            </g>
          </g>
          <g transform="translate(0.0 65.38636363636374 ) ">
            <g transform="translate(-3.0 0.0 ) ">
              <text class="axis-text-y" text-anchor="end" dy="0.35em">
                <tspan>40</tspan>
              </text>
            </g>
          </g>
          <g transform="translate(0.0 7.00568181818187 ) ">
            <g transform="translate(-3.0 0.0 ) ">
              <text class="axis-text-y" text-anchor="end" dy="0.35em">
                <tspan>45</tspan>
              </text>
            </g>
          </g>
        </g>
      </g>
      <g clip-path="url(#xXxprefixXx1)" clip-bounds-jfx="[rect (21.961210910936405, 0.0), (527.2501119994372, 411.0)]">
        <g transform="translate(21.961210910936405 0.0 ) ">
          <g>
            <g>
              <g>
                <g >
                  <circle fill="#29567d" stroke="#29567d" stroke-opacity="0.0" stroke-width="0.0" cx="41.71844320534268" cy="193.82386363636368" r="4.4" />
                  <circle fill="#306591" stroke="#306591" stroke-opacity="0.0" stroke-width="0.0" cx="41.71844320534268" cy="193.82386363636368" r="4.4" />
                  <circle fill="#2e608a" stroke="#2e608a" stroke-opacity="0.0" stroke-width="0.0" cx="59.47097222889275" cy="170.471590909091" r="4.4" />
                  <circle fill="#306591" stroke="#306591" stroke-opacity="0.0" stroke-width="0.0" cx="59.47097222889275" cy="182.14772727272737" r="4.4" />
                  <circle fill="#244c6f" stroke="#244c6f" stroke-opacity="0.0" stroke-width="0.0" cx="130.48108832309305" cy="228.8522727272728" r="4.4" />
                  <circle fill="#29567d" stroke="#29567d" stroke-opacity="0.0" stroke-width="0.0" cx="130.48108832309305" cy="228.8522727272728" r="4.4" />
                  <circle fill="#29567d" stroke="#29567d" stroke-opacity="0.0" stroke-width="0.0" cx="157.1098818584182" cy="217.17613636363643" r="4.4" />
                  <path fill="#29567d" stroke="#29567d" stroke-opacity="0.0" stroke-width="0.0" d="M41.71844320534268 225.04176095062127 L41.71844320534268 225.04176095062127 L46.118443205342686 232.66278450392434 L37.31844320534268 232.66278450392434 Z" transform="rotate(0.0 41.71844320534268 228.8522727272728 ) " />
                  <path fill="#244c6f" stroke="#244c6f" stroke-opacity="0.0" stroke-width="0.0" d="M41.71844320534268 236.71789731425764 L41.71844320534268 236.71789731425764 L46.118443205342686 244.33892086756072 L37.31844320534268 244.33892086756072 Z" transform="rotate(0.0 41.71844320534268 240.52840909090918 ) " />
                  <path fill="#2e608a" stroke="#2e608a" stroke-opacity="0.0" stroke-width="0.0" d="M59.47097222889275 201.68948822334852 L59.47097222889275 201.68948822334852 L63.870972228892754 209.3105117766516 L55.07097222889275 209.3105117766516 Z" transform="rotate(0.0 59.47097222889275 205.50000000000006 ) " />
                  <path fill="#2b5b83" stroke="#2b5b83" stroke-opacity="0.0" stroke-width="0.0" d="M59.47097222889275 213.3656245869849 L59.47097222889275 213.3656245869849 L63.870972228892754 220.98664814028797 L55.07097222889275 220.98664814028797 Z" transform="rotate(0.0 59.47097222889275 217.17613636363643 ) " />
                  <path fill="#214769" stroke="#214769" stroke-opacity="0.0" stroke-width="0.0" d="M130.48108832309305 236.71789731425764 L130.48108832309305 236.71789731425764 L134.88108832309305 244.33892086756072 L126.08108832309304 244.33892086756072 Z" transform="rotate(0.0 130.48108832309305 240.52840909090918 ) " />
                  <path fill="#265176" stroke="#265176" stroke-opacity="0.0" stroke-width="0.0" d="M130.48108832309305 236.71789731425764 L130.48108832309305 236.71789731425764 L134.88108832309305 244.33892086756072 L126.08108832309304 244.33892086756072 Z" transform="rotate(0.0 130.48108832309305 240.52840909090918 ) " />
                  <path fill="#265176" stroke="#265176" stroke-opacity="0.0" stroke-width="0.0" d="M157.1098818584182 236.71789731425764 L157.1098818584182 236.71789731425764 L161.5098818584182 244.33892086756072 L152.70988185841819 244.33892086756072 Z" transform="rotate(0.0 157.1098818584182 240.52840909090918 ) " />
                  <path fill="#214769" stroke="#214769" stroke-opacity="0.0" stroke-width="0.0" d="M157.1098818584182 236.71789731425764 L157.1098818584182 236.71789731425764 L161.5098818584182 244.33892086756072 L152.70988185841819 244.33892086756072 Z" transform="rotate(0.0 157.1098818584182 240.52840909090918 ) " />
                  <path fill="#214769" stroke="#214769" stroke-opacity="0.0" stroke-width="0.0" d="M130.48108832309305 248.39403367789396 L130.48108832309305 248.39403367789396 L134.88108832309305 256.01505723119703 L126.08108832309304 256.01505723119703 Z" transform="rotate(0.0 130.48108832309305 252.2045454545455 ) " />
                  <path fill="#265176" stroke="#265176" stroke-opacity="0.0" stroke-width="0.0" d="M157.1098818584182 236.71789731425764 L157.1098818584182 236.71789731425764 L161.5098818584182 244.33892086756072 L152.70988185841819 244.33892086756072 Z" transform="rotate(0.0 157.1098818584182 240.52840909090918 ) " />
                  <path fill="#244c6f" stroke="#244c6f" stroke-opacity="0.0" stroke-width="0.0" d="M254.7487914879436 260.0701700415304 L254.7487914879436 260.0701700415304 L259.1487914879436 267.6911935948334 L250.3487914879436 267.6911935948334 Z" transform="rotate(0.0 254.7487914879436 263.88068181818187 ) " />
                  <rect fill="#1f4262" stroke="#1f4262" stroke-opacity="0.0" stroke-width="0.0" x="347.987701117469" y="294.509090909091" height="8.8" width="8.8" transform="rotate(0.0 352.38770111746896 298.909090909091 ) " />
                  <rect fill="#18344f" stroke="#18344f" stroke-opacity="0.0" stroke-width="0.0" x="347.987701117469" y="352.8897727272728" height="8.8" width="8.8" transform="rotate(0.0 352.38770111746896 357.2897727272728 ) " />
                  <rect fill="#1f4262" stroke="#1f4262" stroke-opacity="0.0" stroke-width="0.0" x="347.987701117469" y="294.509090909091" height="8.8" width="8.8" transform="rotate(0.0 352.38770111746896 298.909090909091 ) " />
                  <rect fill="#1c3d5c" stroke="#1c3d5c" stroke-opacity="0.0" stroke-width="0.0" x="383.4927591645692" y="329.5375000000001" height="8.8" width="8.8" transform="rotate(0.0 387.89275916456916 333.93750000000006 ) " />
                  <rect fill="#1a3955" stroke="#1a3955" stroke-opacity="0.0" stroke-width="0.0" x="410.1215526998943" y="329.5375000000001" height="8.8" width="8.8" transform="rotate(0.0 414.5215526998943 333.93750000000006 ) " />
                  <rect fill="#244c6f" stroke="#244c6f" stroke-opacity="0.0" stroke-width="0.0" x="383.4927591645692" y="224.4522727272728" height="8.8" width="8.8" transform="rotate(0.0 387.89275916456916 228.8522727272728 ) " />
                  <rect fill="#214769" stroke="#214769" stroke-opacity="0.0" stroke-width="0.0" x="383.4927591645692" y="259.4806818181819" height="8.8" width="8.8" transform="rotate(0.0 387.89275916456916 263.88068181818187 ) " />
                  <rect fill="#244c6f" stroke="#244c6f" stroke-opacity="0.0" stroke-width="0.0" x="427.8740817234444" y="224.4522727272728" height="8.8" width="8.8" transform="rotate(0.0 432.2740817234444 228.8522727272728 ) " />
                  <rect fill="#214769" stroke="#214769" stroke-opacity="0.0" stroke-width="0.0" x="427.8740817234444" y="236.12840909090917" height="8.8" width="8.8" transform="rotate(0.0 432.2740817234444 240.52840909090918 ) " />
                  <rect fill="#214769" stroke="#214769" stroke-opacity="0.0" stroke-width="0.0" x="498.8841978176447" y="247.8045454545455" height="8.8" width="8.8" transform="rotate(0.0 503.28419781764467 252.2045454545455 ) " />
                  <path fill="#1f4262" stroke="#1f4262" stroke-opacity="0.0" stroke-width="0.0" d="M352.38770111746896 306.7747154960759 L352.38770111746896 306.7747154960759 L356.787701117469 314.3957390493789 L347.987701117469 314.3957390493789 Z" transform="rotate(0.0 352.38770111746896 310.58522727272737 ) " />
                  <path fill="#18344f" stroke="#18344f" stroke-opacity="0.0" stroke-width="0.0" d="M352.38770111746896 365.15539731425764 L352.38770111746896 365.15539731425764 L356.787701117469 372.77642086756066 L347.987701117469 372.77642086756066 Z" transform="rotate(0.0 352.38770111746896 368.9659090909091 ) " />
                  <path fill="#18344f" stroke="#18344f" stroke-opacity="0.0" stroke-width="0.0" d="M387.89275916456916 353.4792609506213 L387.89275916456916 353.4792609506213 L392.2927591645692 361.10028450392434 L383.4927591645692 361.10028450392434 Z" transform="rotate(0.0 387.89275916456916 357.2897727272728 ) " />
                  <path fill="#1f4262" stroke="#1f4262" stroke-opacity="0.0" stroke-width="0.0" d="M458.9028752587694 330.1269882233486 L458.9028752587694 330.1269882233486 L463.30287525876946 337.7480117766516 L454.50287525876945 337.7480117766516 Z" transform="rotate(0.0 458.9028752587694 333.93750000000006 ) " />
                  <circle fill="#2b5b83" stroke="#2b5b83" stroke-opacity="0.0" stroke-width="0.0" cx="94.97603027599288" cy="217.17613636363643" r="4.4" />
                  <circle fill="#336a98" stroke="#336a98" stroke-opacity="0.0" stroke-width="0.0" cx="94.97603027599288" cy="182.14772727272737" r="4.4" />
                  <circle fill="#29567d" stroke="#29567d" stroke-opacity="0.0" stroke-width="0.0" cx="157.1098818584182" cy="228.8522727272728" r="4.4" />
                  <circle fill="#29567d" stroke="#29567d" stroke-opacity="0.0" stroke-width="0.0" cx="192.61493990551833" cy="193.82386363636368" r="4.4" />
                  <circle fill="#265176" stroke="#265176" stroke-opacity="0.0" stroke-width="0.0" cx="201.49120441729337" cy="228.8522727272728" r="4.4" />
                  <circle fill="#29567d" stroke="#29567d" stroke-opacity="0.0" stroke-width="0.0" cx="94.97603027599288" cy="252.2045454545455" r="4.4" />
                  <circle fill="#265176" stroke="#265176" stroke-opacity="0.0" stroke-width="0.0" cx="148.23361734664314" cy="252.2045454545455" r="4.4" />
                  <circle fill="#244c6f" stroke="#244c6f" stroke-opacity="0.0" stroke-width="0.0" cx="174.86241088196823" cy="275.55681818181824" r="4.4" />
                  <circle fill="#244c6f" stroke="#244c6f" stroke-opacity="0.0" stroke-width="0.0" cx="174.86241088196823" cy="275.55681818181824" r="4.4" />
                  <circle fill="#265176" stroke="#265176" stroke-opacity="0.0" stroke-width="0.0" cx="174.86241088196823" cy="252.2045454545455" r="4.4" />
                  <circle fill="#265176" stroke="#265176" stroke-opacity="0.0" stroke-width="0.0" cx="174.86241088196823" cy="252.2045454545455" r="4.4" />
                  <circle fill="#18344f" stroke="#18344f" stroke-opacity="0.0" stroke-width="0.0" cx="174.86241088196823" cy="333.93750000000006" r="4.4" />
                  <circle fill="#214769" stroke="#214769" stroke-opacity="0.0" stroke-width="0.0" cx="219.2437334408434" cy="275.55681818181824" r="4.4" />
                  <circle fill="#214769" stroke="#214769" stroke-opacity="0.0" stroke-width="0.0" cx="219.2437334408434" cy="287.2329545454546" r="4.4" />
                  <circle fill="#244c6f" stroke="#244c6f" stroke-opacity="0.0" stroke-width="0.0" cx="219.2437334408434" cy="263.88068181818187" r="4.4" />
                  <circle fill="#244c6f" stroke="#244c6f" stroke-opacity="0.0" stroke-width="0.0" cx="236.9962624643935" cy="263.88068181818187" r="4.4" />
                  <path fill="#214769" stroke="#214769" stroke-opacity="0.0" stroke-width="0.0" d="M210.36746892906842 306.7747154960759 L210.36746892906842 306.7747154960759 L214.76746892906843 314.3957390493789 L205.96746892906842 314.3957390493789 Z" transform="rotate(0.0 210.36746892906842 310.58522727272737 ) " />
                  <path fill="#1f4262" stroke="#1f4262" stroke-opacity="0.0" stroke-width="0.0" d="M210.36746892906842 318.45085185971226 L210.36746892906842 318.45085185971226 L214.76746892906843 326.0718754130153 L205.96746892906842 326.0718754130153 Z" transform="rotate(0.0 210.36746892906842 322.26136363636374 ) " />
                  <path fill="#1c3d5c" stroke="#1c3d5c" stroke-opacity="0.0" stroke-width="0.0" d="M228.11999795261846 330.1269882233486 L228.11999795261846 330.1269882233486 L232.51999795261847 337.7480117766516 L223.71999795261846 337.7480117766516 Z" transform="rotate(0.0 228.11999795261846 333.93750000000006 ) " />
                  <path fill="#1f4262" stroke="#1f4262" stroke-opacity="0.0" stroke-width="0.0" d="M228.11999795261846 330.1269882233486 L228.11999795261846 330.1269882233486 L232.51999795261847 337.7480117766516 L223.71999795261846 337.7480117766516 Z" transform="rotate(0.0 228.11999795261846 333.93750000000006 ) " />
                  <path fill="#1f4262" stroke="#1f4262" stroke-opacity="0.0" stroke-width="0.0" d="M299.1301140468188 306.7747154960759 L299.1301140468188 306.7747154960759 L303.5301140468188 314.3957390493789 L294.7301140468188 314.3957390493789 Z" transform="rotate(0.0 299.1301140468188 310.58522727272737 ) " />
                  <path fill="#1f4262" stroke="#1f4262" stroke-opacity="0.0" stroke-width="0.0" d="M299.1301140468188 306.7747154960759 L299.1301140468188 306.7747154960759 L303.5301140468188 314.3957390493789 L294.7301140468188 314.3957390493789 Z" transform="rotate(0.0 299.1301140468188 310.58522727272737 ) " />
                  <path fill="#132b43" stroke="#132b43" stroke-opacity="0.0" stroke-width="0.0" d="M299.1301140468188 388.5076700415304 L299.1301140468188 388.5076700415304 L303.5301140468188 396.1286935948334 L294.7301140468188 396.1286935948334 Z" transform="rotate(0.0 299.1301140468188 392.31818181818187 ) " />
                  <path fill="#18344f" stroke="#18344f" stroke-opacity="0.0" stroke-width="0.0" d="M343.511436605694 330.1269882233486 L343.511436605694 330.1269882233486 L347.911436605694 337.7480117766516 L339.111436605694 337.7480117766516 Z" transform="rotate(0.0 343.511436605694 333.93750000000006 ) " />
                  <path fill="#18344f" stroke="#18344f" stroke-opacity="0.0" stroke-width="0.0" d="M343.511436605694 353.4792609506213 L343.511436605694 353.4792609506213 L347.911436605694 361.10028450392434 L339.111436605694 361.10028450392434 Z" transform="rotate(0.0 343.511436605694 357.2897727272728 ) " />
                  <path fill="#1c3d5c" stroke="#1c3d5c" stroke-opacity="0.0" stroke-width="0.0" d="M228.11999795261846 330.1269882233486 L228.11999795261846 330.1269882233486 L232.51999795261847 337.7480117766516 L223.71999795261846 337.7480117766516 Z" transform="rotate(0.0 228.11999795261846 333.93750000000006 ) " />
                  <path fill="#1c3d5c" stroke="#1c3d5c" stroke-opacity="0.0" stroke-width="0.0" d="M299.1301140468188 330.1269882233486 L299.1301140468188 330.1269882233486 L303.5301140468188 337.7480117766516 L294.7301140468188 337.7480117766516 Z" transform="rotate(0.0 299.1301140468188 333.93750000000006 ) " />
                  <path fill="#132b43" stroke="#132b43" stroke-opacity="0.0" stroke-width="0.0" d="M299.1301140468188 388.5076700415304 L299.1301140468188 388.5076700415304 L303.5301140468188 396.1286935948334 L294.7301140468188 396.1286935948334 Z" transform="rotate(0.0 299.1301140468188 392.31818181818187 ) " />
                  <path fill="#1c3d5c" stroke="#1c3d5c" stroke-opacity="0.0" stroke-width="0.0" d="M299.1301140468188 330.1269882233486 L299.1301140468188 330.1269882233486 L303.5301140468188 337.7480117766516 L294.7301140468188 337.7480117766516 Z" transform="rotate(0.0 299.1301140468188 333.93750000000006 ) " />
                  <path fill="#18344f" stroke="#18344f" stroke-opacity="0.0" stroke-width="0.0" d="M343.511436605694 341.80312458698495 L343.511436605694 341.80312458698495 L347.911436605694 349.42414814028797 L339.111436605694 349.42414814028797 Z" transform="rotate(0.0 343.511436605694 345.61363636363643 ) " />
                  <path fill="#1c3d5c" stroke="#1c3d5c" stroke-opacity="0.0" stroke-width="0.0" d="M387.89275916456916 318.45085185971226 L387.89275916456916 318.45085185971226 L392.2927591645692 326.0718754130153 L383.4927591645692 326.0718754130153 Z" transform="rotate(0.0 387.89275916456916 322.26136363636374 ) " />
                  <path fill="#18344f" stroke="#18344f" stroke-opacity="0.0" stroke-width="0.0" d="M405.64528818811925 353.4792609506213 L405.64528818811925 353.4792609506213 L410.0452881881193 361.10028450392434 L401.2452881881193 361.10028450392434 Z" transform="rotate(0.0 405.64528818811925 357.2897727272728 ) " />
                  <path fill="#1a3955" stroke="#1a3955" stroke-opacity="0.0" stroke-width="0.0" d="M299.1301140468188 341.80312458698495 L299.1301140468188 341.80312458698495 L303.5301140468188 349.42414814028797 L294.7301140468188 349.42414814028797 Z" transform="rotate(0.0 299.1301140468188 345.61363636363643 ) " />
                  <path fill="#132b43" stroke="#132b43" stroke-opacity="0.0" stroke-width="0.0" d="M299.1301140468188 388.5076700415304 L299.1301140468188 388.5076700415304 L303.5301140468188 396.1286935948334 L294.7301140468188 396.1286935948334 Z" transform="rotate(0.0 299.1301140468188 392.31818181818187 ) " />
                  <path fill="#1c3d5c" stroke="#1c3d5c" stroke-opacity="0.0" stroke-width="0.0" d="M299.1301140468188 330.1269882233486 L299.1301140468188 330.1269882233486 L303.5301140468188 337.7480117766516 L294.7301140468188 337.7480117766516 Z" transform="rotate(0.0 299.1301140468188 333.93750000000006 ) " />
                  <path fill="#1c3d5c" stroke="#1c3d5c" stroke-opacity="0.0" stroke-width="0.0" d="M299.1301140468188 330.1269882233486 L299.1301140468188 330.1269882233486 L303.5301140468188 337.7480117766516 L294.7301140468188 337.7480117766516 Z" transform="rotate(0.0 299.1301140468188 333.93750000000006 ) " />
                  <path fill="#1a3955" stroke="#1a3955" stroke-opacity="0.0" stroke-width="0.0" d="M299.1301140468188 341.80312458698495 L299.1301140468188 341.80312458698495 L303.5301140468188 349.42414814028797 L294.7301140468188 349.42414814028797 Z" transform="rotate(0.0 299.1301140468188 345.61363636363643 ) " />
                  <path fill="#132b43" stroke="#132b43" stroke-opacity="0.0" stroke-width="0.0" d="M299.1301140468188 388.5076700415304 L299.1301140468188 388.5076700415304 L303.5301140468188 396.1286935948334 L294.7301140468188 396.1286935948334 Z" transform="rotate(0.0 299.1301140468188 392.31818181818187 ) " />
                  <path fill="#18344f" stroke="#18344f" stroke-opacity="0.0" stroke-width="0.0" d="M343.511436605694 353.4792609506213 L343.511436605694 353.4792609506213 L347.911436605694 361.10028450392434 L339.111436605694 361.10028450392434 Z" transform="rotate(0.0 343.511436605694 357.2897727272728 ) " />
                  <path fill="#18344f" stroke="#18344f" stroke-opacity="0.0" stroke-width="0.0" d="M343.511436605694 341.80312458698495 L343.511436605694 341.80312458698495 L347.911436605694 349.42414814028797 L339.111436605694 349.42414814028797 Z" transform="rotate(0.0 343.511436605694 345.61363636363643 ) " />
                  <path fill="#1c3d5c" stroke="#1c3d5c" stroke-opacity="0.0" stroke-width="0.0" d="M387.89275916456916 330.1269882233486 L387.89275916456916 330.1269882233486 L392.2927591645692 337.7480117766516 L383.4927591645692 337.7480117766516 Z" transform="rotate(0.0 387.89275916456916 333.93750000000006 ) " />
                  <path fill="#18344f" stroke="#18344f" stroke-opacity="0.0" stroke-width="0.0" d="M405.64528818811925 353.4792609506213 L405.64528818811925 353.4792609506213 L410.0452881881193 361.10028450392434 L401.2452881881193 361.10028450392434 Z" transform="rotate(0.0 405.64528818811925 357.2897727272728 ) " />
                  <rect fill="#18344f" stroke="#18344f" stroke-opacity="0.0" stroke-width="0.0" x="285.8538495350437" y="329.5375000000001" height="8.8" width="8.8" transform="rotate(0.0 290.2538495350437 333.93750000000006 ) " />
                  <rect fill="#18344f" stroke="#18344f" stroke-opacity="0.0" stroke-width="0.0" x="356.8639656292441" y="329.5375000000001" height="8.8" width="8.8" transform="rotate(0.0 361.26396562924407 333.93750000000006 ) " />
                  <rect fill="#1a3955" stroke="#1a3955" stroke-opacity="0.0" stroke-width="0.0" x="356.8639656292441" y="317.86136363636376" height="8.8" width="8.8" transform="rotate(0.0 361.26396562924407 322.26136363636374 ) " />
                  <path fill="#1f4262" stroke="#1f4262" stroke-opacity="0.0" stroke-width="0.0" d="M236.9962624643935 330.1269882233486 L236.9962624643935 330.1269882233486 L241.39626246439352 337.7480117766516 L232.5962624643935 337.7480117766516 Z" transform="rotate(0.0 236.9962624643935 333.93750000000006 ) " />
                  <path fill="#214769" stroke="#214769" stroke-opacity="0.0" stroke-width="0.0" d="M236.9962624643935 306.7747154960759 L236.9962624643935 306.7747154960759 L241.39626246439352 314.3957390493789 L232.5962624643935 314.3957390493789 Z" transform="rotate(0.0 236.9962624643935 310.58522727272737 ) " />
                  <path fill="#1f4262" stroke="#1f4262" stroke-opacity="0.0" stroke-width="0.0" d="M236.9962624643935 330.1269882233486 L236.9962624643935 330.1269882233486 L241.39626246439352 337.7480117766516 L232.5962624643935 337.7480117766516 Z" transform="rotate(0.0 236.9962624643935 333.93750000000006 ) " />
                  <path fill="#1c3d5c" stroke="#1c3d5c" stroke-opacity="0.0" stroke-width="0.0" d="M236.9962624643935 306.7747154960759 L236.9962624643935 306.7747154960759 L241.39626246439352 314.3957390493789 L232.5962624643935 314.3957390493789 Z" transform="rotate(0.0 236.9962624643935 310.58522727272737 ) " />
                  <path fill="#1c3d5c" stroke="#1c3d5c" stroke-opacity="0.0" stroke-width="0.0" d="M290.2538495350437 306.7747154960759 L290.2538495350437 306.7747154960759 L294.6538495350437 314.3957390493789 L285.8538495350437 314.3957390493789 Z" transform="rotate(0.0 290.2538495350437 310.58522727272737 ) " />
                  <path fill="#1c3d5c" stroke="#1c3d5c" stroke-opacity="0.0" stroke-width="0.0" d="M325.7589075821439 330.1269882233486 L325.7589075821439 330.1269882233486 L330.1589075821439 337.7480117766516 L321.3589075821439 337.7480117766516 Z" transform="rotate(0.0 325.7589075821439 333.93750000000006 ) " />
                  <path fill="#1f4262" stroke="#1f4262" stroke-opacity="0.0" stroke-width="0.0" d="M254.7487914879436 330.1269882233486 L254.7487914879436 330.1269882233486 L259.1487914879436 337.7480117766516 L250.3487914879436 337.7480117766516 Z" transform="rotate(0.0 254.7487914879436 333.93750000000006 ) " />
                  <path fill="#1f4262" stroke="#1f4262" stroke-opacity="0.0" stroke-width="0.0" d="M254.7487914879436 330.1269882233486 L254.7487914879436 330.1269882233486 L259.1487914879436 337.7480117766516 L250.3487914879436 337.7480117766516 Z" transform="rotate(0.0 254.7487914879436 333.93750000000006 ) " />
                  <path fill="#1c3d5c" stroke="#1c3d5c" stroke-opacity="0.0" stroke-width="0.0" d="M290.2538495350437 341.80312458698495 L290.2538495350437 341.80312458698495 L294.6538495350437 349.42414814028797 L285.8538495350437 349.42414814028797 Z" transform="rotate(0.0 290.2538495350437 345.61363636363643 ) " />
                  <path fill="#1c3d5c" stroke="#1c3d5c" stroke-opacity="0.0" stroke-width="0.0" d="M290.2538495350437 341.80312458698495 L290.2538495350437 341.80312458698495 L294.6538495350437 349.42414814028797 L285.8538495350437 349.42414814028797 Z" transform="rotate(0.0 290.2538495350437 345.61363636363643 ) " />
                  <path fill="#1c3d5c" stroke="#1c3d5c" stroke-opacity="0.0" stroke-width="0.0" d="M290.2538495350437 330.1269882233486 L290.2538495350437 330.1269882233486 L294.6538495350437 337.7480117766516 L285.8538495350437 337.7480117766516 Z" transform="rotate(0.0 290.2538495350437 333.93750000000006 ) " />
                  <path fill="#18344f" stroke="#18344f" stroke-opacity="0.0" stroke-width="0.0" d="M361.26396562924407 353.4792609506213 L361.26396562924407 353.4792609506213 L365.6639656292441 361.10028450392434 L356.8639656292441 361.10028450392434 Z" transform="rotate(0.0 361.26396562924407 357.2897727272728 ) " />
                  <path fill="#1c3d5c" stroke="#1c3d5c" stroke-opacity="0.0" stroke-width="0.0" d="M361.26396562924407 330.1269882233486 L361.26396562924407 330.1269882233486 L365.6639656292441 337.7480117766516 L356.8639656292441 337.7480117766516 Z" transform="rotate(0.0 361.26396562924407 333.93750000000006 ) " />
                  <rect fill="#29567d" stroke="#29567d" stroke-opacity="0.0" stroke-width="0.0" x="214.8437334408434" y="224.4522727272728" height="8.8" width="8.8" transform="rotate(0.0 219.2437334408434 228.8522727272728 ) " />
                  <rect fill="#29567d" stroke="#29567d" stroke-opacity="0.0" stroke-width="0.0" x="214.8437334408434" y="236.12840909090917" height="8.8" width="8.8" transform="rotate(0.0 219.2437334408434 240.52840909090918 ) " />
                  <rect fill="#265176" stroke="#265176" stroke-opacity="0.0" stroke-width="0.0" x="232.5962624643935" y="224.4522727272728" height="8.8" width="8.8" transform="rotate(0.0 236.9962624643935 228.8522727272728 ) " />
                  <rect fill="#244c6f" stroke="#244c6f" stroke-opacity="0.0" stroke-width="0.0" x="232.5962624643935" y="247.8045454545455" height="8.8" width="8.8" transform="rotate(0.0 236.9962624643935 252.2045454545455 ) " />
                  <rect fill="#214769" stroke="#214769" stroke-opacity="0.0" stroke-width="0.0" x="285.8538495350437" y="282.83295454545464" height="8.8" width="8.8" transform="rotate(0.0 290.2538495350437 287.2329545454546 ) " />
                  <rect fill="#214769" stroke="#214769" stroke-opacity="0.0" stroke-width="0.0" x="285.8538495350437" y="271.15681818181827" height="8.8" width="8.8" transform="rotate(0.0 290.2538495350437 275.55681818181824 ) " />
                  <rect fill="#214769" stroke="#214769" stroke-opacity="0.0" stroke-width="0.0" x="285.8538495350437" y="259.4806818181819" height="8.8" width="8.8" transform="rotate(0.0 290.2538495350437 263.88068181818187 ) " />
                  <rect fill="#214769" stroke="#214769" stroke-opacity="0.0" stroke-width="0.0" x="285.8538495350437" y="271.15681818181827" height="8.8" width="8.8" transform="rotate(0.0 290.2538495350437 275.55681818181824 ) " />
                  <rect fill="#1f4262" stroke="#1f4262" stroke-opacity="0.0" stroke-width="0.0" x="356.8639656292441" y="294.509090909091" height="8.8" width="8.8" transform="rotate(0.0 361.26396562924407 298.909090909091 ) " />
                  <circle fill="#438ac3" stroke="#438ac3" stroke-opacity="0.0" stroke-width="0.0" cx="23.965914181792613" cy="147.11931818181824" r="4.4" />
                  <circle fill="#3875a6" stroke="#3875a6" stroke-opacity="0.0" stroke-width="0.0" cx="23.965914181792613" cy="158.79545454545462" r="4.4" />
                  <circle fill="#3b7aad" stroke="#3b7aad" stroke-opacity="0.0" stroke-width="0.0" cx="23.965914181792613" cy="158.79545454545462" r="4.4" />
                  <circle fill="#356f9f" stroke="#356f9f" stroke-opacity="0.0" stroke-width="0.0" cx="23.965914181792613" cy="193.82386363636368" r="4.4" />
                  <circle fill="#3875a6" stroke="#3875a6" stroke-opacity="0.0" stroke-width="0.0" cx="23.965914181792613" cy="158.79545454545462" r="4.4" />
                  <circle fill="#3d7fb4" stroke="#3d7fb4" stroke-opacity="0.0" stroke-width="0.0" cx="41.71844320534268" cy="135.44318181818187" r="4.4" />
                  <circle fill="#3b7aad" stroke="#3b7aad" stroke-opacity="0.0" stroke-width="0.0" cx="41.71844320534268" cy="112.09090909090918" r="4.4" />
                  <circle fill="#3875a6" stroke="#3875a6" stroke-opacity="0.0" stroke-width="0.0" cx="41.71844320534268" cy="112.09090909090918" r="4.4" />
                  <circle fill="#306591" stroke="#306591" stroke-opacity="0.0" stroke-width="0.0" cx="59.47097222889275" cy="193.82386363636368" r="4.4" />
                  <circle fill="#29567d" stroke="#29567d" stroke-opacity="0.0" stroke-width="0.0" cx="94.97603027599288" cy="228.8522727272728" r="4.4" />
                  <circle fill="#29567d" stroke="#29567d" stroke-opacity="0.0" stroke-width="0.0" cx="94.97603027599288" cy="217.17613636363643" r="4.4" />
                  <circle fill="#306591" stroke="#306591" stroke-opacity="0.0" stroke-width="0.0" cx="94.97603027599288" cy="182.14772727272737" r="4.4" />
                  <circle fill="#306591" stroke="#306591" stroke-opacity="0.0" stroke-width="0.0" cx="94.97603027599288" cy="170.471590909091" r="4.4" />
                  <circle fill="#29567d" stroke="#29567d" stroke-opacity="0.0" stroke-width="0.0" cx="103.85229478776793" cy="228.8522727272728" r="4.4" />
                  <circle fill="#29567d" stroke="#29567d" stroke-opacity="0.0" stroke-width="0.0" cx="103.85229478776793" cy="228.8522727272728" r="4.4" />
                  <circle fill="#2b5b83" stroke="#2b5b83" stroke-opacity="0.0" stroke-width="0.0" cx="174.86241088196823" cy="205.50000000000006" r="4.4" />
                  <circle fill="#2b5b83" stroke="#2b5b83" stroke-opacity="0.0" stroke-width="0.0" cx="59.47097222889275" cy="228.8522727272728" r="4.4" />
                  <circle fill="#2b5b83" stroke="#2b5b83" stroke-opacity="0.0" stroke-width="0.0" cx="59.47097222889275" cy="193.82386363636368" r="4.4" />
                  <circle fill="#2e608a" stroke="#2e608a" stroke-opacity="0.0" stroke-width="0.0" cx="59.47097222889275" cy="205.50000000000006" r="4.4" />
                  <circle fill="#2e608a" stroke="#2e608a" stroke-opacity="0.0" stroke-width="0.0" cx="59.47097222889275" cy="217.17613636363643" r="4.4" />
                  <circle fill="#265176" stroke="#265176" stroke-opacity="0.0" stroke-width="0.0" cx="121.60482381131803" cy="252.2045454545455" r="4.4" />
                  <circle fill="#244c6f" stroke="#244c6f" stroke-opacity="0.0" stroke-width="0.0" cx="121.60482381131803" cy="252.2045454545455" r="4.4" />
                  <circle fill="#265176" stroke="#265176" stroke-opacity="0.0" stroke-width="0.0" cx="121.60482381131803" cy="252.2045454545455" r="4.4" />
                  <path fill="#265176" stroke="#265176" stroke-opacity="0.0" stroke-width="0.0" d="M148.23361734664314 271.74630640516676 L148.23361734664314 271.74630640516676 L152.63361734664315 279.3673299584698 L143.83361734664314 279.3673299584698 Z" transform="rotate(0.0 148.23361734664314 275.55681818181824 ) " />
                  <path fill="#214769" stroke="#214769" stroke-opacity="0.0" stroke-width="0.0" d="M210.36746892906842 306.7747154960759 L210.36746892906842 306.7747154960759 L214.76746892906843 314.3957390493789 L205.96746892906842 314.3957390493789 Z" transform="rotate(0.0 210.36746892906842 310.58522727272737 ) " />
                  <path fill="#214769" stroke="#214769" stroke-opacity="0.0" stroke-width="0.0" d="M236.9962624643935 295.0985791324395 L236.9962624643935 295.0985791324395 L241.39626246439352 302.71960268574253 L232.5962624643935 302.71960268574253 Z" transform="rotate(0.0 236.9962624643935 298.909090909091 ) " />
                  <path fill="#1f4262" stroke="#1f4262" stroke-opacity="0.0" stroke-width="0.0" d="M299.1301140468188 330.1269882233486 L299.1301140468188 330.1269882233486 L303.5301140468188 337.7480117766516 L294.7301140468188 337.7480117766516 Z" transform="rotate(0.0 299.1301140468188 333.93750000000006 ) " />
                  <path fill="#132b43" stroke="#132b43" stroke-opacity="0.0" stroke-width="0.0" d="M299.1301140468188 388.5076700415304 L299.1301140468188 388.5076700415304 L303.5301140468188 396.1286935948334 L294.7301140468188 396.1286935948334 Z" transform="rotate(0.0 299.1301140468188 392.31818181818187 ) " />
                  <path fill="#1f4262" stroke="#1f4262" stroke-opacity="0.0" stroke-width="0.0" d="M299.1301140468188 306.7747154960759 L299.1301140468188 306.7747154960759 L303.5301140468188 314.3957390493789 L294.7301140468188 314.3957390493789 Z" transform="rotate(0.0 299.1301140468188 310.58522727272737 ) " />
                  <path fill="#1c3d5c" stroke="#1c3d5c" stroke-opacity="0.0" stroke-width="0.0" d="M387.89275916456916 318.45085185971226 L387.89275916456916 318.45085185971226 L392.2927591645692 326.0718754130153 L383.4927591645692 326.0718754130153 Z" transform="rotate(0.0 387.89275916456916 322.26136363636374 ) " />
                  <path fill="#18344f" stroke="#18344f" stroke-opacity="0.0" stroke-width="0.0" d="M423.39781721166923 365.15539731425764 L423.39781721166923 365.15539731425764 L427.79781721166927 372.77642086756066 L418.99781721166926 372.77642086756066 Z" transform="rotate(0.0 423.39781721166923 368.9659090909091 ) " />
                  <path fill="#18344f" stroke="#18344f" stroke-opacity="0.0" stroke-width="0.0" d="M236.9962624643935 353.4792609506213 L236.9962624643935 353.4792609506213 L241.39626246439352 361.10028450392434 L232.5962624643935 361.10028450392434 Z" transform="rotate(0.0 236.9962624643935 357.2897727272728 ) " />
                  <path fill="#1a3955" stroke="#1a3955" stroke-opacity="0.0" stroke-width="0.0" d="M254.7487914879436 318.45085185971226 L254.7487914879436 318.45085185971226 L259.1487914879436 326.0718754130153 L250.3487914879436 326.0718754130153 Z" transform="rotate(0.0 254.7487914879436 322.26136363636374 ) " />
                  <path fill="#1a3955" stroke="#1a3955" stroke-opacity="0.0" stroke-width="0.0" d="M272.5013205114937 318.45085185971226 L272.5013205114937 318.45085185971226 L276.90132051149374 326.0718754130153 L268.1013205114937 326.0718754130153 Z" transform="rotate(0.0 272.5013205114937 322.26136363636374 ) " />
                  <path fill="#18344f" stroke="#18344f" stroke-opacity="0.0" stroke-width="0.0" d="M290.2538495350437 353.4792609506213 L290.2538495350437 353.4792609506213 L294.6538495350437 361.10028450392434 L285.8538495350437 361.10028450392434 Z" transform="rotate(0.0 290.2538495350437 357.2897727272728 ) " />
                  <rect fill="#18344f" stroke="#18344f" stroke-opacity="0.0" stroke-width="0.0" x="356.8639656292441" y="329.5375000000001" height="8.8" width="8.8" transform="rotate(0.0 361.26396562924407 333.93750000000006 ) " />
                  <rect fill="#18344f" stroke="#18344f" stroke-opacity="0.0" stroke-width="0.0" x="356.8639656292441" y="341.21363636363645" height="8.8" width="8.8" transform="rotate(0.0 361.26396562924407 345.61363636363643 ) " />
                  <rect fill="#1a3955" stroke="#1a3955" stroke-opacity="0.0" stroke-width="0.0" x="356.8639656292441" y="317.86136363636376" height="8.8" width="8.8" transform="rotate(0.0 361.26396562924407 322.26136363636374 ) " />
                  <path fill="#1f4262" stroke="#1f4262" stroke-opacity="0.0" stroke-width="0.0" d="M236.9962624643935 330.1269882233486 L236.9962624643935 330.1269882233486 L241.39626246439352 337.7480117766516 L232.5962624643935 337.7480117766516 Z" transform="rotate(0.0 236.9962624643935 333.93750000000006 ) " />
                  <path fill="#1c3d5c" stroke="#1c3d5c" stroke-opacity="0.0" stroke-width="0.0" d="M236.9962624643935 306.7747154960759 L236.9962624643935 306.7747154960759 L241.39626246439352 314.3957390493789 L232.5962624643935 314.3957390493789 Z" transform="rotate(0.0 236.9962624643935 310.58522727272737 ) " />
                  <path fill="#1c3d5c" stroke="#1c3d5c" stroke-opacity="0.0" stroke-width="0.0" d="M290.2538495350437 306.7747154960759 L290.2538495350437 306.7747154960759 L294.6538495350437 314.3957390493789 L285.8538495350437 314.3957390493789 Z" transform="rotate(0.0 290.2538495350437 310.58522727272737 ) " />
                  <path fill="#1c3d5c" stroke="#1c3d5c" stroke-opacity="0.0" stroke-width="0.0" d="M325.7589075821439 330.1269882233486 L325.7589075821439 330.1269882233486 L330.1589075821439 337.7480117766516 L321.3589075821439 337.7480117766516 Z" transform="rotate(0.0 325.7589075821439 333.93750000000006 ) " />
                  <circle fill="#306591" stroke="#306591" stroke-opacity="0.0" stroke-width="0.0" cx="94.97603027599288" cy="193.82386363636368" r="4.4" />
                  <circle fill="#2b5b83" stroke="#2b5b83" stroke-opacity="0.0" stroke-width="0.0" cx="94.97603027599288" cy="217.17613636363643" r="4.4" />
                  <circle fill="#356f9f" stroke="#356f9f" stroke-opacity="0.0" stroke-width="0.0" cx="103.85229478776793" cy="170.471590909091" r="4.4" />
                  <circle fill="#356f9f" stroke="#356f9f" stroke-opacity="0.0" stroke-width="0.0" cx="103.85229478776793" cy="158.79545454545462" r="4.4" />
                  <circle fill="#2b5b83" stroke="#2b5b83" stroke-opacity="0.0" stroke-width="0.0" cx="192.61493990551833" cy="217.17613636363643" r="4.4" />
                  <circle fill="#2b5b83" stroke="#2b5b83" stroke-opacity="0.0" stroke-width="0.0" cx="192.61493990551833" cy="228.8522727272728" r="4.4" />
                  <circle fill="#29567d" stroke="#29567d" stroke-opacity="0.0" stroke-width="0.0" cx="148.23361734664314" cy="228.8522727272728" r="4.4" />
                  <circle fill="#2b5b83" stroke="#2b5b83" stroke-opacity="0.0" stroke-width="0.0" cx="148.23361734664314" cy="240.52840909090918" r="4.4" />
                  <circle fill="#2b5b83" stroke="#2b5b83" stroke-opacity="0.0" stroke-width="0.0" cx="192.61493990551833" cy="240.52840909090918" r="4.4" />
                  <path fill="#1f4262" stroke="#1f4262" stroke-opacity="0.0" stroke-width="0.0" d="M174.86241088196823 330.1269882233486 L174.86241088196823 330.1269882233486 L179.26241088196824 337.7480117766516 L170.46241088196822 337.7480117766516 Z" transform="rotate(0.0 174.86241088196823 333.93750000000006 ) " />
                  <path fill="#214769" stroke="#214769" stroke-opacity="0.0" stroke-width="0.0" d="M174.86241088196823 330.1269882233486 L174.86241088196823 330.1269882233486 L179.26241088196824 337.7480117766516 L170.46241088196822 337.7480117766516 Z" transform="rotate(0.0 174.86241088196823 333.93750000000006 ) " />
                  <path fill="#1f4262" stroke="#1f4262" stroke-opacity="0.0" stroke-width="0.0" d="M236.9962624643935 295.0985791324395 L236.9962624643935 295.0985791324395 L241.39626246439352 302.71960268574253 L232.5962624643935 302.71960268574253 Z" transform="rotate(0.0 236.9962624643935 298.909090909091 ) " />
                  <path fill="#1a3955" stroke="#1a3955" stroke-opacity="0.0" stroke-width="0.0" d="M379.0164946527941 318.45085185971226 L379.0164946527941 318.45085185971226 L383.41649465279414 326.0718754130153 L374.61649465279413 326.0718754130153 Z" transform="rotate(0.0 379.0164946527941 322.26136363636374 ) " />
                  <circle fill="#29567d" stroke="#29567d" stroke-opacity="0.0" stroke-width="0.0" cx="157.1098818584182" cy="228.8522727272728" r="4.4" />
                  <circle fill="#244c6f" stroke="#244c6f" stroke-opacity="0.0" stroke-width="0.0" cx="219.2437334408434" cy="228.8522727272728" r="4.4" />
                  <circle fill="#265176" stroke="#265176" stroke-opacity="0.0" stroke-width="0.0" cx="219.2437334408434" cy="217.17613636363643" r="4.4" />
                  <circle fill="#29567d" stroke="#29567d" stroke-opacity="0.0" stroke-width="0.0" cx="219.2437334408434" cy="205.50000000000006" r="4.4" />
                  <circle fill="#244c6f" stroke="#244c6f" stroke-opacity="0.0" stroke-width="0.0" cx="352.38770111746896" cy="240.52840909090918" r="4.4" />
                  <path fill="#29567d" stroke="#29567d" stroke-opacity="0.0" stroke-width="0.0" d="M103.85229478776793 236.71789731425764 L103.85229478776793 236.71789731425764 L108.25229478776792 244.33892086756072 L99.45229478776793 244.33892086756072 Z" transform="rotate(0.0 103.85229478776793 240.52840909090918 ) " />
                  <path fill="#29567d" stroke="#29567d" stroke-opacity="0.0" stroke-width="0.0" d="M103.85229478776793 248.39403367789396 L103.85229478776793 248.39403367789396 L108.25229478776792 256.01505723119703 L99.45229478776793 256.01505723119703 Z" transform="rotate(0.0 103.85229478776793 252.2045454545455 ) " />
                  <path fill="#2e608a" stroke="#2e608a" stroke-opacity="0.0" stroke-width="0.0" d="M103.85229478776793 213.3656245869849 L103.85229478776793 213.3656245869849 L108.25229478776792 220.98664814028797 L99.45229478776793 220.98664814028797 Z" transform="rotate(0.0 103.85229478776793 217.17613636363643 ) " />
                  <path fill="#2b5b83" stroke="#2b5b83" stroke-opacity="0.0" stroke-width="0.0" d="M103.85229478776793 236.71789731425764 L103.85229478776793 236.71789731425764 L108.25229478776792 244.33892086756072 L99.45229478776793 244.33892086756072 Z" transform="rotate(0.0 103.85229478776793 240.52840909090918 ) " />
                  <path fill="#2e608a" stroke="#2e608a" stroke-opacity="0.0" stroke-width="0.0" d="M103.85229478776793 225.04176095062127 L103.85229478776793 225.04176095062127 L108.25229478776792 232.66278450392434 L99.45229478776793 232.66278450392434 Z" transform="rotate(0.0 103.85229478776793 228.8522727272728 ) " />
                  <path fill="#29567d" stroke="#29567d" stroke-opacity="0.0" stroke-width="0.0" d="M103.85229478776793 260.0701700415304 L103.85229478776793 260.0701700415304 L108.25229478776792 267.6911935948334 L99.45229478776793 267.6911935948334 Z" transform="rotate(0.0 103.85229478776793 263.88068181818187 ) " />
                  <path fill="#306591" stroke="#306591" stroke-opacity="0.0" stroke-width="0.0" d="M77.22350125244284 225.04176095062127 L77.22350125244284 225.04176095062127 L81.62350125244284 232.66278450392434 L72.82350125244284 232.66278450392434 Z" transform="rotate(0.0 77.22350125244284 228.8522727272728 ) " />
                  <path fill="#2b5b83" stroke="#2b5b83" stroke-opacity="0.0" stroke-width="0.0" d="M77.22350125244284 225.04176095062127 L77.22350125244284 225.04176095062127 L81.62350125244284 232.66278450392434 L72.82350125244284 232.66278450392434 Z" transform="rotate(0.0 77.22350125244284 228.8522727272728 ) " />
                  <path fill="#2b5b83" stroke="#2b5b83" stroke-opacity="0.0" stroke-width="0.0" d="M103.85229478776793 225.04176095062127 L103.85229478776793 225.04176095062127 L108.25229478776792 232.66278450392434 L99.45229478776793 232.66278450392434 Z" transform="rotate(0.0 103.85229478776793 228.8522727272728 ) " />
                  <path fill="#2b5b83" stroke="#2b5b83" stroke-opacity="0.0" stroke-width="0.0" d="M103.85229478776793 225.04176095062127 L103.85229478776793 225.04176095062127 L108.25229478776792 232.66278450392434 L99.45229478776793 232.66278450392434 Z" transform="rotate(0.0 103.85229478776793 228.8522727272728 ) " />
                  <path fill="#2e608a" stroke="#2e608a" stroke-opacity="0.0" stroke-width="0.0" d="M103.85229478776793 236.71789731425764 L103.85229478776793 236.71789731425764 L108.25229478776792 244.33892086756072 L99.45229478776793 244.33892086756072 Z" transform="rotate(0.0 103.85229478776793 240.52840909090918 ) " />
                  <path fill="#2e608a" stroke="#2e608a" stroke-opacity="0.0" stroke-width="0.0" d="M103.85229478776793 213.3656245869849 L103.85229478776793 213.3656245869849 L108.25229478776792 220.98664814028797 L99.45229478776793 220.98664814028797 Z" transform="rotate(0.0 103.85229478776793 217.17613636363643 ) " />
                  <path fill="#2b5b83" stroke="#2b5b83" stroke-opacity="0.0" stroke-width="0.0" d="M103.85229478776793 236.71789731425764 L103.85229478776793 236.71789731425764 L108.25229478776792 244.33892086756072 L99.45229478776793 244.33892086756072 Z" transform="rotate(0.0 103.85229478776793 240.52840909090918 ) " />
                  <path fill="#2e608a" stroke="#2e608a" stroke-opacity="0.0" stroke-width="0.0" d="M103.85229478776793 213.3656245869849 L103.85229478776793 213.3656245869849 L108.25229478776792 220.98664814028797 L99.45229478776793 220.98664814028797 Z" transform="rotate(0.0 103.85229478776793 217.17613636363643 ) " />
                  <path fill="#214769" stroke="#214769" stroke-opacity="0.0" stroke-width="0.0" d="M121.60482381131803 295.0985791324395 L121.60482381131803 295.0985791324395 L126.00482381131802 302.71960268574253 L117.20482381131802 302.71960268574253 Z" transform="rotate(0.0 121.60482381131803 298.909090909091 ) " />
                  <path fill="#244c6f" stroke="#244c6f" stroke-opacity="0.0" stroke-width="0.0" d="M121.60482381131803 295.0985791324395 L121.60482381131803 295.0985791324395 L126.00482381131802 302.71960268574253 L117.20482381131802 302.71960268574253 Z" transform="rotate(0.0 121.60482381131803 298.909090909091 ) " />
                  <path fill="#214769" stroke="#214769" stroke-opacity="0.0" stroke-width="0.0" d="M183.73867539374328 306.7747154960759 L183.73867539374328 306.7747154960759 L188.13867539374328 314.3957390493789 L179.33867539374327 314.3957390493789 Z" transform="rotate(0.0 183.73867539374328 310.58522727272737 ) " />
                  <path fill="#214769" stroke="#214769" stroke-opacity="0.0" stroke-width="0.0" d="M183.73867539374328 330.1269882233486 L183.73867539374328 330.1269882233486 L188.13867539374328 337.7480117766516 L179.33867539374327 337.7480117766516 Z" transform="rotate(0.0 183.73867539374328 333.93750000000006 ) " />
                  <path fill="#244c6f" stroke="#244c6f" stroke-opacity="0.0" stroke-width="0.0" d="M236.9962624643935 295.0985791324395 L236.9962624643935 295.0985791324395 L241.39626246439352 302.71960268574253 L232.5962624643935 302.71960268574253 Z" transform="rotate(0.0 236.9962624643935 298.909090909091 ) " />
                  <path fill="#1f4262" stroke="#1f4262" stroke-opacity="0.0" stroke-width="0.0" d="M299.1301140468188 330.1269882233486 L299.1301140468188 330.1269882233486 L303.5301140468188 337.7480117766516 L294.7301140468188 337.7480117766516 Z" transform="rotate(0.0 299.1301140468188 333.93750000000006 ) " />
                  <circle fill="#306591" stroke="#306591" stroke-opacity="0.0" stroke-width="0.0" cx="77.22350125244284" cy="193.82386363636368" r="4.4" />
                  <circle fill="#306591" stroke="#306591" stroke-opacity="0.0" stroke-width="0.0" cx="77.22350125244284" cy="217.17613636363643" r="4.4" />
                  <circle fill="#306591" stroke="#306591" stroke-opacity="0.0" stroke-width="0.0" cx="94.97603027599288" cy="170.471590909091" r="4.4" />
                  <circle fill="#306591" stroke="#306591" stroke-opacity="0.0" stroke-width="0.0" cx="94.97603027599288" cy="170.471590909091" r="4.4" />
                  <circle fill="#29567d" stroke="#29567d" stroke-opacity="0.0" stroke-width="0.0" cx="148.23361734664314" cy="228.8522727272728" r="4.4" />
                  <circle fill="#29567d" stroke="#29567d" stroke-opacity="0.0" stroke-width="0.0" cx="148.23361734664314" cy="228.8522727272728" r="4.4" />
                  <circle fill="#2b5b83" stroke="#2b5b83" stroke-opacity="0.0" stroke-width="0.0" cx="192.61493990551833" cy="205.50000000000006" r="4.4" />
                  <circle fill="#306591" stroke="#306591" stroke-opacity="0.0" stroke-width="0.0" cx="77.22350125244284" cy="217.17613636363643" r="4.4" />
                  <circle fill="#306591" stroke="#306591" stroke-opacity="0.0" stroke-width="0.0" cx="77.22350125244284" cy="193.82386363636368" r="4.4" />
                  <circle fill="#306591" stroke="#306591" stroke-opacity="0.0" stroke-width="0.0" cx="94.97603027599288" cy="170.471590909091" r="4.4" />
                  <circle fill="#336a98" stroke="#336a98" stroke-opacity="0.0" stroke-width="0.0" cx="94.97603027599288" cy="170.471590909091" r="4.4" />
                  <circle fill="#29567d" stroke="#29567d" stroke-opacity="0.0" stroke-width="0.0" cx="148.23361734664314" cy="228.8522727272728" r="4.4" />
                  <circle fill="#29567d" stroke="#29567d" stroke-opacity="0.0" stroke-width="0.0" cx="148.23361734664314" cy="228.8522727272728" r="4.4" />
                  <circle fill="#29567d" stroke="#29567d" stroke-opacity="0.0" stroke-width="0.0" cx="174.86241088196823" cy="217.17613636363643" r="4.4" />
                  <circle fill="#3875a6" stroke="#3875a6" stroke-opacity="0.0" stroke-width="0.0" cx="41.71844320534268" cy="182.14772727272737" r="4.4" />
                  <circle fill="#3875a6" stroke="#3875a6" stroke-opacity="0.0" stroke-width="0.0" cx="41.71844320534268" cy="147.11931818181824" r="4.4" />
                  <circle fill="#3d7fb4" stroke="#3d7fb4" stroke-opacity="0.0" stroke-width="0.0" cx="41.71844320534268" cy="123.76704545454555" r="4.4" />
                  <circle fill="#438ac3" stroke="#438ac3" stroke-opacity="0.0" stroke-width="0.0" cx="41.71844320534268" cy="100.4147727272728" r="4.4" />
                  <circle fill="#3d7fb4" stroke="#3d7fb4" stroke-opacity="0.0" stroke-width="0.0" cx="41.71844320534268" cy="123.76704545454555" r="4.4" />
                  <path fill="#18344f" stroke="#18344f" stroke-opacity="0.0" stroke-width="0.0" d="M299.1301140468188 353.4792609506213 L299.1301140468188 353.4792609506213 L303.5301140468188 361.10028450392434 L294.7301140468188 361.10028450392434 Z" transform="rotate(0.0 299.1301140468188 357.2897727272728 ) " />
                  <path fill="#1c3d5c" stroke="#1c3d5c" stroke-opacity="0.0" stroke-width="0.0" d="M387.89275916456916 318.45085185971226 L387.89275916456916 318.45085185971226 L392.2927591645692 326.0718754130153 L383.4927591645692 326.0718754130153 Z" transform="rotate(0.0 387.89275916456916 322.26136363636374 ) " />
                  <path fill="#214769" stroke="#214769" stroke-opacity="0.0" stroke-width="0.0" d="M121.60482381131803 295.0985791324395 L121.60482381131803 295.0985791324395 L126.00482381131802 302.71960268574253 L117.20482381131802 302.71960268574253 Z" transform="rotate(0.0 121.60482381131803 298.909090909091 ) " />
                  <path fill="#244c6f" stroke="#244c6f" stroke-opacity="0.0" stroke-width="0.0" d="M121.60482381131803 295.0985791324395 L121.60482381131803 295.0985791324395 L126.00482381131802 302.71960268574253 L117.20482381131802 302.71960268574253 Z" transform="rotate(0.0 121.60482381131803 298.909090909091 ) " />
                  <path fill="#265176" stroke="#265176" stroke-opacity="0.0" stroke-width="0.0" d="M121.60482381131803 271.74630640516676 L121.60482381131803 271.74630640516676 L126.00482381131802 279.3673299584698 L117.20482381131802 279.3673299584698 Z" transform="rotate(0.0 121.60482381131803 275.55681818181824 ) " />
                  <path fill="#214769" stroke="#214769" stroke-opacity="0.0" stroke-width="0.0" d="M183.73867539374328 330.1269882233486 L183.73867539374328 330.1269882233486 L188.13867539374328 337.7480117766516 L179.33867539374327 337.7480117766516 Z" transform="rotate(0.0 183.73867539374328 333.93750000000006 ) " />
                  <path fill="#214769" stroke="#214769" stroke-opacity="0.0" stroke-width="0.0" d="M183.73867539374328 306.7747154960759 L183.73867539374328 306.7747154960759 L188.13867539374328 314.3957390493789 L179.33867539374327 314.3957390493789 Z" transform="rotate(0.0 183.73867539374328 310.58522727272737 ) " />
                  <path fill="#214769" stroke="#214769" stroke-opacity="0.0" stroke-width="0.0" d="M236.9962624643935 318.45085185971226 L236.9962624643935 318.45085185971226 L241.39626246439352 326.0718754130153 L232.5962624643935 326.0718754130153 Z" transform="rotate(0.0 236.9962624643935 322.26136363636374 ) " />
                  <path fill="#244c6f" stroke="#244c6f" stroke-opacity="0.0" stroke-width="0.0" d="M236.9962624643935 295.0985791324395 L236.9962624643935 295.0985791324395 L241.39626246439352 302.71960268574253 L232.5962624643935 302.71960268574253 Z" transform="rotate(0.0 236.9962624643935 298.909090909091 ) " />
                  <circle fill="#306591" stroke="#306591" stroke-opacity="0.0" stroke-width="0.0" cx="59.47097222889275" cy="193.82386363636368" r="4.4" />
                  <circle fill="#2b5b83" stroke="#2b5b83" stroke-opacity="0.0" stroke-width="0.0" cx="59.47097222889275" cy="228.8522727272728" r="4.4" />
                  <circle fill="#306591" stroke="#306591" stroke-opacity="0.0" stroke-width="0.0" cx="59.47097222889275" cy="193.82386363636368" r="4.4" />
                  <circle fill="#336a98" stroke="#336a98" stroke-opacity="0.0" stroke-width="0.0" cx="59.47097222889275" cy="193.82386363636368" r="4.4" />
                  <circle fill="#265176" stroke="#265176" stroke-opacity="0.0" stroke-width="0.0" cx="130.48108832309305" cy="252.2045454545455" r="4.4" />
                  <circle fill="#50a6e8" stroke="#50a6e8" stroke-opacity="0.0" stroke-width="0.0" cx="50.5947077171177" cy="18.681818181818244" r="4.4" />
                  <circle fill="#306591" stroke="#306591" stroke-opacity="0.0" stroke-width="0.0" cx="59.47097222889275" cy="193.82386363636368" r="4.4" />
                  <circle fill="#2b5b83" stroke="#2b5b83" stroke-opacity="0.0" stroke-width="0.0" cx="59.47097222889275" cy="228.8522727272728" r="4.4" />
                  <circle fill="#336a98" stroke="#336a98" stroke-opacity="0.0" stroke-width="0.0" cx="59.47097222889275" cy="193.82386363636368" r="4.4" />
                  <circle fill="#306591" stroke="#306591" stroke-opacity="0.0" stroke-width="0.0" cx="59.47097222889275" cy="193.82386363636368" r="4.4" />
                  <circle fill="#306591" stroke="#306591" stroke-opacity="0.0" stroke-width="0.0" cx="103.85229478776793" cy="193.82386363636368" r="4.4" />
                  <circle fill="#306591" stroke="#306591" stroke-opacity="0.0" stroke-width="0.0" cx="103.85229478776793" cy="193.82386363636368" r="4.4" />
                  <circle fill="#244c6f" stroke="#244c6f" stroke-opacity="0.0" stroke-width="0.0" cx="130.48108832309305" cy="263.88068181818187" r="4.4" />
                  <circle fill="#265176" stroke="#265176" stroke-opacity="0.0" stroke-width="0.0" cx="130.48108832309305" cy="252.2045454545455" r="4.4" />
                  <circle fill="#56b1f7" stroke="#56b1f7" stroke-opacity="0.0" stroke-width="0.0" cx="50.5947077171177" cy="18.681818181818244" r="4.4" />
                  <circle fill="#458fca" stroke="#458fca" stroke-opacity="0.0" stroke-width="0.0" cx="50.5947077171177" cy="53.710227272727366" r="4.4" />
                  <circle fill="#306591" stroke="#306591" stroke-opacity="0.0" stroke-width="0.0" cx="59.47097222889275" cy="193.82386363636368" r="4.4" />
                  <circle fill="#2b5b83" stroke="#2b5b83" stroke-opacity="0.0" stroke-width="0.0" cx="59.47097222889275" cy="228.8522727272728" r="4.4" />
                  <circle fill="#2e608a" stroke="#2e608a" stroke-opacity="0.0" stroke-width="0.0" cx="103.85229478776793" cy="205.50000000000006" r="4.4" />
                  <circle fill="#2e608a" stroke="#2e608a" stroke-opacity="0.0" stroke-width="0.0" cx="103.85229478776793" cy="193.82386363636368" r="4.4" />
                  <circle fill="#306591" stroke="#306591" stroke-opacity="0.0" stroke-width="0.0" cx="41.71844320534268" cy="193.82386363636368" r="4.4" />
                  <circle fill="#29567d" stroke="#29567d" stroke-opacity="0.0" stroke-width="0.0" cx="41.71844320534268" cy="193.82386363636368" r="4.4" />
                  <circle fill="#2b5b83" stroke="#2b5b83" stroke-opacity="0.0" stroke-width="0.0" cx="59.47097222889275" cy="205.50000000000006" r="4.4" />
                  <circle fill="#306591" stroke="#306591" stroke-opacity="0.0" stroke-width="0.0" cx="59.47097222889275" cy="193.82386363636368" r="4.4" />
                  <circle fill="#244c6f" stroke="#244c6f" stroke-opacity="0.0" stroke-width="0.0" cx="130.48108832309305" cy="228.8522727272728" r="4.4" />
                  <circle fill="#29567d" stroke="#29567d" stroke-opacity="0.0" stroke-width="0.0" cx="130.48108832309305" cy="228.8522727272728" r="4.4" />
                  <circle fill="#265176" stroke="#265176" stroke-opacity="0.0" stroke-width="0.0" cx="201.49120441729337" cy="228.8522727272728" r="4.4" />
                </g>
              </g>
            </g>
          </g>
        </g>
        <defs>
          <clipPath id="xXxprefixXx1">
            <rect x="21.961210910936405" y="0.0" width="527.2501119994372" height="411.0">
            </rect>
          </clipPath>
        </defs>
      </g>
      <g>
      </g>
    </g>
    <g transform="translate(16.0 212.0 ) rotate(-90.0 ) ">
      <text class="axis-title-y" y="0.0" text-anchor="middle">
        <tspan>hwy</tspan>
      </text>
    </g>
    <g transform="translate(315.086266910655 463.0 ) ">
      <text class="axis-title-x" y="0.0" text-anchor="middle">
        <tspan>displ</tspan>
      </text>
    </g>
    <g transform="translate(585.2113229103737 77.5 ) ">
      <rect x="5.0" y="5.0" height="147.5" width="109.78867708962632" stroke="rgb(187,187,187)" stroke-opacity="1.0" stroke-width="0.0" fill="rgb(25,25,28)" fill-opacity="1.0">
      </rect>
      <g transform="translate(10.0 10.0 ) ">
        <g transform="translate(0.0 12.0 ) ">
          <text class="legend-title" y="0.0">
            <tspan>City mileage</tspan>
          </text>
        </g>
        <g transform="translate(0.0 22.5 ) ">
          <g>
            <rect x="0.0" y="0.0" height="115.0" width="23.0" stroke-width="0.0" fill="rgb(84,173,242)" fill-opacity="1.0">
            </rect>
            <rect x="0.0" y="7.55" height="107.45" width="23.0" stroke-width="0.0" fill="rgb(81,166,232)" fill-opacity="1.0">
            </rect>
            <rect x="0.0" y="13.1" height="101.9" width="23.0" stroke-width="0.0" fill="rgb(77,159,222)" fill-opacity="1.0">
            </rect>
            <rect x="0.0" y="18.65" height="96.35" width="23.0" stroke-width="0.0" fill="rgb(73,151,213)" fill-opacity="1.0">
            </rect>
            <rect x="0.0" y="24.2" height="90.8" width="23.0" stroke-width="0.0" fill="rgb(70,144,203)" fill-opacity="1.0">
            </rect>
            <rect x="0.0" y="29.75" height="85.25" width="23.0" stroke-width="0.0" fill="rgb(66,137,194)" fill-opacity="1.0">
            </rect>
            <rect x="0.0" y="35.3" height="79.7" width="23.0" stroke-width="0.0" fill="rgb(63,130,184)" fill-opacity="1.0">
            </rect>
            <rect x="0.0" y="40.849999999999994" height="74.15" width="23.0" stroke-width="0.0" fill="rgb(59,123,175)" fill-opacity="1.0">
            </rect>
            <rect x="0.0" y="46.39999999999999" height="68.60000000000001" width="23.0" stroke-width="0.0" fill="rgb(56,116,166)" fill-opacity="1.0">
            </rect>
            <rect x="0.0" y="51.94999999999999" height="63.05000000000001" width="23.0" stroke-width="0.0" fill="rgb(52,110,156)" fill-opacity="1.0">
            </rect>
            <rect x="0.0" y="57.499999999999986" height="57.500000000000014" width="23.0" stroke-width="0.0" fill="rgb(49,103,147)" fill-opacity="1.0">
            </rect>
            <rect x="0.0" y="63.04999999999998" height="51.95000000000002" width="23.0" stroke-width="0.0" fill="rgb(46,96,138)" fill-opacity="1.0">
            </rect>
            <rect x="0.0" y="68.59999999999998" height="46.40000000000002" width="23.0" stroke-width="0.0" fill="rgb(42,90,130)" fill-opacity="1.0">
            </rect>
            <rect x="0.0" y="74.14999999999998" height="40.85000000000002" width="23.0" stroke-width="0.0" fill="rgb(39,83,121)" fill-opacity="1.0">
            </rect>
            <rect x="0.0" y="79.69999999999997" height="35.300000000000026" width="23.0" stroke-width="0.0" fill="rgb(36,77,112)" fill-opacity="1.0">
            </rect>
            <rect x="0.0" y="85.24999999999997" height="29.75000000000003" width="23.0" stroke-width="0.0" fill="rgb(33,70,104)" fill-opacity="1.0">
            </rect>
            <rect x="0.0" y="90.79999999999997" height="24.20000000000003" width="23.0" stroke-width="0.0" fill="rgb(30,64,95)" fill-opacity="1.0">
            </rect>
            <rect x="0.0" y="96.34999999999997" height="18.650000000000034" width="23.0" stroke-width="0.0" fill="rgb(27,58,87)" fill-opacity="1.0">
            </rect>
            <rect x="0.0" y="101.89999999999996" height="13.100000000000037" width="23.0" stroke-width="0.0" fill="rgb(24,52,79)" fill-opacity="1.0">
            </rect>
            <rect x="0.0" y="107.44999999999996" height="7.55000000000004" width="23.0" stroke-width="0.0" fill="rgb(20,46,71)" fill-opacity="1.0">
            </rect>
            <line x1="0.0" y1="108.73076923076921" x2="4.6" y2="108.73076923076921" stroke-width="1.0" stroke="rgb(25,25,28)" stroke-opacity="1.0">
            </line>
            <line x1="18.4" y1="108.73076923076921" x2="23.0" y2="108.73076923076921" stroke-width="1.0" stroke="rgb(25,25,28)" stroke-opacity="1.0">
            </line>
            <g transform="translate(26.9903027277341 113.28076923076921 ) ">
              <text class="legend-item" y="0.0">
                <tspan>10</tspan>
              </text>
            </g>
            <line x1="0.0" y1="87.38461538461537" x2="4.6" y2="87.38461538461537" stroke-width="1.0" stroke="rgb(25,25,28)" stroke-opacity="1.0">
            </line>
            <line x1="18.4" y1="87.38461538461537" x2="23.0" y2="87.38461538461537" stroke-width="1.0" stroke="rgb(25,25,28)" stroke-opacity="1.0">
            </line>
            <g transform="translate(26.9903027277341 91.93461538461537 ) ">
              <text class="legend-item" y="0.0">
                <tspan>15</tspan>
              </text>
            </g>
            <line x1="0.0" y1="66.03846153846152" x2="4.6" y2="66.03846153846152" stroke-width="1.0" stroke="rgb(25,25,28)" stroke-opacity="1.0">
            </line>
            <line x1="18.4" y1="66.03846153846152" x2="23.0" y2="66.03846153846152" stroke-width="1.0" stroke="rgb(25,25,28)" stroke-opacity="1.0">
            </line>
            <g transform="translate(26.9903027277341 70.58846153846152 ) ">
              <text class="legend-item" y="0.0">
                <tspan>20</tspan>
              </text>
            </g>
            <line x1="0.0" y1="44.69230769230768" x2="4.6" y2="44.69230769230768" stroke-width="1.0" stroke="rgb(25,25,28)" stroke-opacity="1.0">
            </line>
            <line x1="18.4" y1="44.69230769230768" x2="23.0" y2="44.69230769230768" stroke-width="1.0" stroke="rgb(25,25,28)" stroke-opacity="1.0">
            </line>
            <g transform="translate(26.9903027277341 49.242307692307676 ) ">
              <text class="legend-item" y="0.0">
                <tspan>25</tspan>
              </text>
            </g>
            <line x1="0.0" y1="23.34615384615384" x2="4.6" y2="23.34615384615384" stroke-width="1.0" stroke="rgb(25,25,28)" stroke-opacity="1.0">
            </line>
            <line x1="18.4" y1="23.34615384615384" x2="23.0" y2="23.34615384615384" stroke-width="1.0" stroke="rgb(25,25,28)" stroke-opacity="1.0">
            </line>
            <g transform="translate(26.9903027277341 27.896153846153837 ) ">
              <text class="legend-item" y="0.0">
                <tspan>30</tspan>
              </text>
            </g>
            <line x1="0.0" y1="1.9999999999999716" x2="4.6" y2="1.9999999999999716" stroke-width="1.0" stroke="rgb(25,25,28)" stroke-opacity="1.0">
            </line>
            <line x1="18.4" y1="1.9999999999999716" x2="23.0" y2="1.9999999999999716" stroke-width="1.0" stroke="rgb(25,25,28)" stroke-opacity="1.0">
            </line>
            <g transform="translate(26.9903027277341 6.5499999999999705 ) ">
              <text class="legend-item" y="0.0">
                <tspan>35</tspan>
              </text>
            </g>
          </g>
        </g>
      </g>
    </g>
    <g transform="translate(585.2113229103737 235.0 ) ">
      <rect x="5.0" y="5.0" height="101.5" width="92.57207845226156" stroke="rgb(187,187,187)" stroke-opacity="1.0" stroke-width="0.0" fill="rgb(25,25,28)" fill-opacity="1.0">
      </rect>
      <g transform="translate(10.0 10.0 ) ">
        <g transform="translate(0.0 12.0 ) ">
          <text class="legend-title" y="0.0">
            <tspan>Drive type</tspan>
          </text>
        </g>
        <g transform="translate(0.0 22.5 ) ">
          <g transform="">
            <g>
              <rect x="0.0" y="0.0" height="23.0" width="23.0" stroke-width="0.0" fill="rgb(25,25,28)" fill-opacity="1.0">
              </rect>
              <g transform="translate(1.0 1.0 ) ">
                <g>
                  <g >
                    <circle fill="#bbbbbb" stroke="#bbbbbb" stroke-opacity="0.0" stroke-width="0.0" cx="10.5" cy="10.5" r="5.5" />
                  </g>
                </g>
              </g>
              <rect x="0.0" y="0.0" height="23.0" width="23.0" stroke="rgb(25,25,28)" stroke-opacity="1.0" stroke-width="1.0" fill-opacity="0.0">
              </rect>
            </g>
            <g transform="translate(26.9903027277341 16.05 ) ">
              <text class="legend-item" y="0.0">
                <tspan>f</tspan>
              </text>
            </g>
          </g>
          <g transform="translate(0.0 23.0 ) ">
            <g>
              <rect x="0.0" y="0.0" height="23.0" width="23.0" stroke-width="0.0" fill="rgb(25,25,28)" fill-opacity="1.0">
              </rect>
              <g transform="translate(1.0 1.0 ) ">
                <g>
                  <g >
                    <path fill="#bbbbbb" stroke="#bbbbbb" stroke-opacity="0.0" stroke-width="0.0" d="M10.5 5.736860279185588 L10.5 5.736860279185588 L16.0 15.263139720814412 L5.0 15.263139720814412 Z" transform="rotate(0.0 10.5 10.5 ) " />
                  </g>
                </g>
              </g>
              <rect x="0.0" y="0.0" height="23.0" width="23.0" stroke="rgb(25,25,28)" stroke-opacity="1.0" stroke-width="1.0" fill-opacity="0.0">
              </rect>
            </g>
            <g transform="translate(26.9903027277341 16.05 ) ">
              <text class="legend-item" y="0.0">
                <tspan>4</tspan>
              </text>
            </g>
          </g>
          <g transform="translate(0.0 46.0 ) ">
            <g>
              <rect x="0.0" y="0.0" height="23.0" width="23.0" stroke-width="0.0" fill="rgb(25,25,28)" fill-opacity="1.0">
              </rect>
              <g transform="translate(1.0 1.0 ) ">
                <g>
                  <g >
                    <rect fill="#bbbbbb" stroke="#bbbbbb" stroke-opacity="0.0" stroke-width="0.0" x="5.0" y="5.0" height="11.0" width="11.0" transform="rotate(0.0 10.5 10.5 ) " />
                  </g>
                </g>
              </g>
              <rect x="0.0" y="0.0" height="23.0" width="23.0" stroke="rgb(25,25,28)" stroke-opacity="1.0" stroke-width="1.0" fill-opacity="0.0">
              </rect>
            </g>
            <g transform="translate(26.9903027277341 16.05 ) ">
              <text class="legend-item" y="0.0">
                <tspan>r</tspan>
              </text>
            </g>
          </g>
        </g>
      </g>
    </g>
    <path fill="rgb(0,0,0)" fill-opacity="0.0" stroke="rgb(187,187,187)" stroke-opacity="1.0" stroke-width="0.0" d="M0.0 0.0 L0.0 470.0 L705.0 470.0 L705.0 0.0 Z">
    </path>
  </g>
  <g id="xXxprefixXx2">
  </g>
</svg>