<svg xmlns="http://www.w3.org/2000/svg" xmlns:xlink="http://www.w3.org/1999/xlink" display="block" class="plt-container" width="705.0" height="470.0">
  <style type="text/css">
  .plt-container {
   font-family: Lucida Grande, sans-serif;
   user-select: none;
   -webkit-user-select: none;
   -moz-user-select: none;
   -ms-user-select: none;
}
text {
   text-rendering: optimizeLegibility;
}
#xXxprefixXx0 .plot-title {
fill: #bbbbbb;
font-weight: normal;
   font-style: normal;font-family: Lucida Grande, sans-serif;
font-size: 16.0px;

}
#xXxprefixXx0 .plot-subtitle {
fill: #bbbbbb;
font-weight: normal;
   font-style: normal;font-family: Lucida Grande, sans-serif;
font-size: 15.0px;

}
#xXxprefixXx0 .plot-caption {
fill: #bbbbbb;
font-weight: normal;
   font-style: normal;font-family: Lucida Grande, sans-serif;
font-size: 13.0px;

}
#xXxprefixXx0 .hyperlink-element {
fill: #118ed8;
font-weight: normal;
   font-style: normal;
}
#xXxprefixXx0 .legend-title {
fill: #bbbbbb;
font-weight: normal;
   font-style: normal;font-family: Lucida Grande, sans-serif;
font-size: 15.0px;

}
#xXxprefixXx0 .legend-item {
fill: #bbbbbb;
font-weight: normal;
   font-style: normal;font-family: Lucida Grande, sans-serif;
font-size: 13.0px;

}
#xXxprefixXx0 .axis-title-x {
fill: #bbbbbb;
font-weight: normal;
   font-style: normal;font-family: Lucida Grande, sans-serif;
font-size: 15.0px;

}
#xXxprefixXx0 .axis-text-x {
fill: #bbbbbb;
font-weight: normal;
   font-style: normal;font-family: Lucida Grande, sans-serif;
font-size: 13.0px;

}
#xXxprefixXx2 .axis-tooltip-text-x {
fill: #303030;
font-weight: normal;
   font-style: normal;font-family: Lucida Grande, sans-serif;
font-size: 13.0px;

}
#xXxprefixXx0 .axis-title-y {
fill: #bbbbbb;
font-weight: normal;
   font-style: normal;font-family: Lucida Grande, sans-serif;
font-size: 15.0px;

}
#xXxprefixXx0 .axis-text-y {
fill: #bbbbbb;
font-weight: normal;
   font-style: normal;font-family: Lucida Grande, sans-serif;
font-size: 13.0px;

}
#xXxprefixXx2 .axis-tooltip-text-y {
fill: #303030;
font-weight: normal;
   font-style: normal;font-family: Lucida Grande, sans-serif;
font-size: 13.0px;

}
#xXxprefixXx0 .facet-strip-text-x {
fill: #bbbbbb;
font-weight: normal;
   font-style: normal;font-family: Lucida Grande, sans-serif;
font-size: 13.0px;

}
#xXxprefixXx0 .facet-strip-text-y {
fill: #bbbbbb;
font-weight: normal;
   font-style: normal;font-family: Lucida Grande, sans-serif;
font-size: 13.0px;

}
#xXxprefixXx2 .tooltip-text {
fill: #bbbbbb;
font-weight: normal;
   font-style: normal;font-family: Lucida Grande, sans-serif;
font-size: 13.0px;

}
#xXxprefixXx2 .tooltip-title {
fill: #bbbbbb;
font-weight: bold;
   font-style: normal;font-family: Lucida Grande, sans-serif;
font-size: 13.0px;

}
#xXxprefixXx2 .tooltip-label {
fill: #bbbbbb;
font-weight: bold;
   font-style: normal;font-family: Lucida Grande, sans-serif;
font-size: 13.0px;

}

  </style>
  <g id="xXxprefixXx0">
    <path fill-rule="evenodd" fill="rgb(25,25,28)" fill-opacity="1.0" d="M0.0 0.0 L0.0 470.0 L705.0 470.0 L705.0 0.0 Z">
    </path>
    <g transform="translate(29.5 6.5 ) ">
      <g>
        <g transform="translate(21.961210910936405 0.0 ) ">
          <g>
            <line x1="60.034945292865814" y1="0.0" x2="60.034945292865814" y2="411.0" stroke="rgb(71,71,71)" stroke-opacity="1.0" stroke-width="1.0" fill="none">
            </line>
            <line x1="149.63934125236702" y1="0.0" x2="149.63934125236702" y2="411.0" stroke="rgb(71,71,71)" stroke-opacity="1.0" stroke-width="1.0" fill="none">
            </line>
            <line x1="239.24373721186825" y1="0.0" x2="239.24373721186825" y2="411.0" stroke="rgb(71,71,71)" stroke-opacity="1.0" stroke-width="1.0" fill="none">
            </line>
            <line x1="328.84813317136945" y1="0.0" x2="328.84813317136945" y2="411.0" stroke="rgb(71,71,71)" stroke-opacity="1.0" stroke-width="1.0" fill="none">
            </line>
            <line x1="418.45252913087063" y1="0.0" x2="418.45252913087063" y2="411.0" stroke="rgb(71,71,71)" stroke-opacity="1.0" stroke-width="1.0" fill="none">
            </line>
            <line x1="508.0569250903719" y1="0.0" x2="508.0569250903719" y2="411.0" stroke="rgb(71,71,71)" stroke-opacity="1.0" stroke-width="1.0" fill="none">
            </line>
          </g>
        </g>
        <g transform="translate(21.961210910936405 0.0 ) ">
          <g>
            <line x1="0.0" y1="357.2897727272728" x2="532.2501119994372" y2="357.2897727272728" stroke="rgb(71,71,71)" stroke-opacity="1.0" stroke-width="1.0" fill="none">
            </line>
            <line x1="0.0" y1="298.909090909091" x2="532.2501119994372" y2="298.909090909091" stroke="rgb(71,71,71)" stroke-opacity="1.0" stroke-width="1.0" fill="none">
            </line>
            <line x1="0.0" y1="240.52840909090918" x2="532.2501119994372" y2="240.52840909090918" stroke="rgb(71,71,71)" stroke-opacity="1.0" stroke-width="1.0" fill="none">
            </line>
            <line x1="0.0" y1="182.14772727272737" x2="532.2501119994372" y2="182.14772727272737" stroke="rgb(71,71,71)" stroke-opacity="1.0" stroke-width="1.0" fill="none">
            </line>
            <line x1="0.0" y1="123.76704545454555" x2="532.2501119994372" y2="123.76704545454555" stroke="rgb(71,71,71)" stroke-opacity="1.0" stroke-width="1.0" fill="none">
            </line>
            <line x1="0.0" y1="65.38636363636374" x2="532.2501119994372" y2="65.38636363636374" stroke="rgb(71,71,71)" stroke-opacity="1.0" stroke-width="1.0" fill="none">
            </line>
            <line x1="0.0" y1="7.00568181818187" x2="532.2501119994372" y2="7.00568181818187" stroke="rgb(71,71,71)" stroke-opacity="1.0" stroke-width="1.0" fill="none">
            </line>
          </g>
        </g>
        <g transform="translate(21.961210910936405 411.0 ) ">
          <g transform="translate(60.034945292865814 0.0 ) ">
            <line stroke-width="1.0" stroke="rgb(187,187,187)" stroke-opacity="1.0" x2="0.0" y2="4.0">
            </line>
            <g transform="translate(0.0 7.0 ) ">
              <text class="axis-text-x" text-anchor="middle" dy="0.7em">
                <tspan>2</tspan>
              </text>
            </g>
          </g>
          <g transform="translate(149.63934125236702 0.0 ) ">
            <line stroke-width="1.0" stroke="rgb(187,187,187)" stroke-opacity="1.0" x2="0.0" y2="4.0">
            </line>
            <g transform="translate(0.0 7.0 ) ">
              <text class="axis-text-x" text-anchor="middle" dy="0.7em">
                <tspan>3</tspan>
              </text>
            </g>
          </g>
          <g transform="translate(239.24373721186825 0.0 ) ">
            <line stroke-width="1.0" stroke="rgb(187,187,187)" stroke-opacity="1.0" x2="0.0" y2="4.0">
            </line>
            <g transform="translate(0.0 7.0 ) ">
              <text class="axis-text-x" text-anchor="middle" dy="0.7em">
                <tspan>4</tspan>
              </text>
            </g>
          </g>
          <g transform="translate(328.84813317136945 0.0 ) ">
            <line stroke-width="1.0" stroke="rgb(187,187,187)" stroke-opacity="1.0" x2="0.0" y2="4.0">
            </line>
            <g transform="translate(0.0 7.0 ) ">
              <text class="axis-text-x" text-anchor="middle" dy="0.7em">
                <tspan>5</tspan>
              </text>
            </g>
          </g>
          <g transform="translate(418.45252913087063 0.0 ) ">
            <line stroke-width="1.0" stroke="rgb(187,187,187)" stroke-opacity="1.0" x2="0.0" y2="4.0">
            </line>
            <g transform="translate(0.0 7.0 ) ">
              <text class="axis-text-x" text-anchor="middle" dy="0.7em">
                <tspan>6</tspan>
              </text>
            </g>
          </g>
          <g transform="translate(508.0569250903719 0.0 ) ">
            <line stroke-width="1.0" stroke="rgb(187,187,187)" stroke-opacity="1.0" x2="0.0" y2="4.0">
            </line>
            <g transform="translate(0.0 7.0 ) ">
              <text class="axis-text-x" text-anchor="middle" dy="0.7em">
                <tspan>7</tspan>
              </text>
            </g>
          </g>
          <line x1="0.0" y1="0.0" x2="532.2501119994372" y2="0.0" stroke-width="1.0" stroke="rgb(187,187,187)" stroke-opacity="1.0">
          </line>
        </g>
        <g transform="translate(21.961210910936405 0.0 ) ">
          <g transform="translate(0.0 357.2897727272728 ) ">
            <g transform="translate(-3.0 0.0 ) ">
              <text class="axis-text-y" text-anchor="end" dy="0.35em">
                <tspan>15</tspan>
              </text>
            </g>
          </g>
          <g transform="translate(0.0 298.909090909091 ) ">
            <g transform="translate(-3.0 0.0 ) ">
              <text class="axis-text-y" text-anchor="end" dy="0.35em">
                <tspan>20</tspan>
              </text>
            </g>
          </g>
          <g transform="translate(0.0 240.52840909090918 ) ">
            <g transform="translate(-3.0 0.0 ) ">
              <text class="axis-text-y" text-anchor="end" dy="0.35em">
                <tspan>25</tspan>
              </text>
            </g>
          </g>
          <g transform="translate(0.0 182.14772727272737 ) ">
            <g transform="translate(-3.0 0.0 ) ">
              <text class="axis-text-y" text-anchor="end" dy="0.35em">
                <tspan>30</tspan>
              </text>
            </g>
          </g>
          <g transform="translate(0.0 123.76704545454555 ) ">
            <g transform="translate(-3.0 0.0 ) ">
              <text class="axis-text-y" text-anchor="end" dy="0.35em">
                <tspan>35</tspan>
              </text>
            </g>
          </g>
          <g transform="translate(0.0 65.38636363636374 ) ">
            <g transform="translate(-3.0 0.0 ) ">
              <text class="axis-text-y" text-anchor="end" dy="0.35em">
                <tspan>40</tspan>
              </text>
            </g>
          </g>
          <g transform="translate(0.0 7.00568181818187 ) ">
            <g transform="translate(-3.0 0.0 ) ">
              <text class="axis-text-y" text-anchor="end" dy="0.35em">
                <tspan>45</tspan>
              </text>
            </g>
          </g>
        </g>
      </g>
      <g clip-path="url(#xXxprefixXx1)" clip-bounds-jfx="[rect (21.961210910936405, 0.0), (532.2501119994372, 411.0)]">
        <g transform="translate(21.961210910936405 0.0 ) ">
          <g>
            <g>
              <g>
                <g >
                  <circle fill="#29567d" stroke="#29567d" stroke-opacity="0.0" stroke-width="0.0" cx="42.11406610096557" cy="193.82386363636368" r="4.4" />
                  <circle fill="#306591" stroke="#306591" stroke-opacity="0.0" stroke-width="0.0" cx="42.11406610096557" cy="193.82386363636368" r="4.4" />
                  <circle fill="#2e608a" stroke="#2e608a" stroke-opacity="0.0" stroke-width="0.0" cx="60.034945292865814" cy="170.471590909091" r="4.4" />
                  <circle fill="#306591" stroke="#306591" stroke-opacity="0.0" stroke-width="0.0" cx="60.034945292865814" cy="182.14772727272737" r="4.4" />
                  <circle fill="#244c6f" stroke="#244c6f" stroke-opacity="0.0" stroke-width="0.0" cx="131.71846206046678" cy="228.8522727272728" r="4.4" />
                  <circle fill="#29567d" stroke="#29567d" stroke-opacity="0.0" stroke-width="0.0" cx="131.71846206046678" cy="228.8522727272728" r="4.4" />
                  <circle fill="#29567d" stroke="#29567d" stroke-opacity="0.0" stroke-width="0.0" cx="158.59978084831718" cy="217.17613636363643" r="4.4" />
                  <path fill="#29567d" stroke="#29567d" stroke-opacity="0.0" stroke-width="0.0" d="M42.11406610096557 223.8171874311642 L42.11406610096557 223.8171874311642 L46.51406610096558 231.43821098446728 L37.714066100965574 231.43821098446728 Z" transform="rotate(0.0 42.11406610096557 228.8522727272728 ) " />
                  <path fill="#244c6f" stroke="#244c6f" stroke-opacity="0.0" stroke-width="0.0" d="M42.11406610096557 235.49332379480057 L42.11406610096557 235.49332379480057 L46.51406610096558 243.11434734810365 L37.714066100965574 243.11434734810365 Z" transform="rotate(0.0 42.11406610096557 240.52840909090918 ) " />
                  <path fill="#2e608a" stroke="#2e608a" stroke-opacity="0.0" stroke-width="0.0" d="M60.034945292865814 200.46491470389145 L60.034945292865814 200.46491470389145 L64.43494529286582 208.08593825719453 L55.634945292865815 208.08593825719453 Z" transform="rotate(0.0 60.034945292865814 205.50000000000006 ) " />
                  <path fill="#2b5b83" stroke="#2b5b83" stroke-opacity="0.0" stroke-width="0.0" d="M60.034945292865814 212.14105106752783 L60.034945292865814 212.14105106752783 L64.43494529286582 219.7620746208309 L55.634945292865815 219.7620746208309 Z" transform="rotate(0.0 60.034945292865814 217.17613636363643 ) " />
                  <path fill="#214769" stroke="#214769" stroke-opacity="0.0" stroke-width="0.0" d="M131.71846206046678 235.49332379480057 L131.71846206046678 235.49332379480057 L136.11846206046678 243.11434734810365 L127.31846206046677 243.11434734810365 Z" transform="rotate(0.0 131.71846206046678 240.52840909090918 ) " />
                  <path fill="#265176" stroke="#265176" stroke-opacity="0.0" stroke-width="0.0" d="M131.71846206046678 235.49332379480057 L131.71846206046678 235.49332379480057 L136.11846206046678 243.11434734810365 L127.31846206046677 243.11434734810365 Z" transform="rotate(0.0 131.71846206046678 240.52840909090918 ) " />
                  <path fill="#265176" stroke="#265176" stroke-opacity="0.0" stroke-width="0.0" d="M158.59978084831718 235.49332379480057 L158.59978084831718 235.49332379480057 L162.9997808483172 243.11434734810365 L154.19978084831718 243.11434734810365 Z" transform="rotate(0.0 158.59978084831718 240.52840909090918 ) " />
                  <path fill="#214769" stroke="#214769" stroke-opacity="0.0" stroke-width="0.0" d="M158.59978084831718 235.49332379480057 L158.59978084831718 235.49332379480057 L162.9997808483172 243.11434734810365 L154.19978084831718 243.11434734810365 Z" transform="rotate(0.0 158.59978084831718 240.52840909090918 ) " />
                  <path fill="#214769" stroke="#214769" stroke-opacity="0.0" stroke-width="0.0" d="M131.71846206046678 247.1694601584369 L131.71846206046678 247.1694601584369 L136.11846206046678 254.79048371173997 L127.31846206046677 254.79048371173997 Z" transform="rotate(0.0 131.71846206046678 252.2045454545455 ) " />
                  <path fill="#265176" stroke="#265176" stroke-opacity="0.0" stroke-width="0.0" d="M158.59978084831718 235.49332379480057 L158.59978084831718 235.49332379480057 L162.9997808483172 243.11434734810365 L154.19978084831718 243.11434734810365 Z" transform="rotate(0.0 158.59978084831718 240.52840909090918 ) " />
                  <path fill="#244c6f" stroke="#244c6f" stroke-opacity="0.0" stroke-width="0.0" d="M257.1646164037685 258.8455965220733 L257.1646164037685 258.8455965220733 L261.56461640376847 266.46662007537634 L252.76461640376849 266.46662007537634 Z" transform="rotate(0.0 257.1646164037685 263.88068181818187 ) " />
                  <rect fill="#1f4262" stroke="#1f4262" stroke-opacity="0.0" stroke-width="0.0" x="351.3294519592198" y="294.509090909091" height="8.8" width="8.8" transform="rotate(0.0 355.7294519592198 298.909090909091 ) " />
                  <rect fill="#18344f" stroke="#18344f" stroke-opacity="0.0" stroke-width="0.0" x="351.3294519592198" y="352.8897727272728" height="8.8" width="8.8" transform="rotate(0.0 355.7294519592198 357.2897727272728 ) " />
                  <rect fill="#1f4262" stroke="#1f4262" stroke-opacity="0.0" stroke-width="0.0" x="351.3294519592198" y="294.509090909091" height="8.8" width="8.8" transform="rotate(0.0 355.7294519592198 298.909090909091 ) " />
                  <rect fill="#1c3d5c" stroke="#1c3d5c" stroke-opacity="0.0" stroke-width="0.0" x="387.17121034302033" y="329.5375000000001" height="8.8" width="8.8" transform="rotate(0.0 391.5712103430203 333.93750000000006 ) " />
                  <rect fill="#1a3955" stroke="#1a3955" stroke-opacity="0.0" stroke-width="0.0" x="414.05252913087065" y="329.5375000000001" height="8.8" width="8.8" transform="rotate(0.0 418.45252913087063 333.93750000000006 ) " />
                  <rect fill="#244c6f" stroke="#244c6f" stroke-opacity="0.0" stroke-width="0.0" x="387.17121034302033" y="224.4522727272728" height="8.8" width="8.8" transform="rotate(0.0 391.5712103430203 228.8522727272728 ) " />
                  <rect fill="#214769" stroke="#214769" stroke-opacity="0.0" stroke-width="0.0" x="387.17121034302033" y="259.4806818181819" height="8.8" width="8.8" transform="rotate(0.0 391.5712103430203 263.88068181818187 ) " />
                  <rect fill="#244c6f" stroke="#244c6f" stroke-opacity="0.0" stroke-width="0.0" x="431.973408322771" y="224.4522727272728" height="8.8" width="8.8" transform="rotate(0.0 436.37340832277096 228.8522727272728 ) " />
                  <rect fill="#214769" stroke="#214769" stroke-opacity="0.0" stroke-width="0.0" x="431.973408322771" y="236.12840909090917" height="8.8" width="8.8" transform="rotate(0.0 436.37340832277096 240.52840909090918 ) " />
                  <rect fill="#214769" stroke="#214769" stroke-opacity="0.0" stroke-width="0.0" x="503.65692509037194" y="247.8045454545455" height="8.8" width="8.8" transform="rotate(0.0 508.0569250903719 252.2045454545455 ) " />
                  <path fill="#1f4262" stroke="#1f4262" stroke-opacity="0.0" stroke-width="0.0" d="M355.7294519592198 305.5501419766188 L355.7294519592198 305.5501419766188 L360.1294519592198 313.17116552992184 L351.3294519592198 313.17116552992184 Z" transform="rotate(0.0 355.7294519592198 310.58522727272737 ) " />
                  <path fill="#18344f" stroke="#18344f" stroke-opacity="0.0" stroke-width="0.0" d="M355.7294519592198 363.9308237948006 L355.7294519592198 363.9308237948006 L360.1294519592198 371.5518473481036 L351.3294519592198 371.5518473481036 Z" transform="rotate(0.0 355.7294519592198 368.9659090909091 ) " />
                  <path fill="#18344f" stroke="#18344f" stroke-opacity="0.0" stroke-width="0.0" d="M391.5712103430203 352.25468743116426 L391.5712103430203 352.25468743116426 L395.97121034302035 359.8757109844673 L387.17121034302033 359.8757109844673 Z" transform="rotate(0.0 391.5712103430203 357.2897727272728 ) " />
                  <path fill="#1f4262" stroke="#1f4262" stroke-opacity="0.0" stroke-width="0.0" d="M463.2547271106213 328.9024147038915 L463.2547271106213 328.9024147038915 L467.6547271106213 336.5234382571945 L458.8547271106213 336.5234382571945 Z" transform="rotate(0.0 463.2547271106213 333.93750000000006 ) " />
                  <circle fill="#2b5b83" stroke="#2b5b83" stroke-opacity="0.0" stroke-width="0.0" cx="95.8767036766663" cy="217.17613636363643" r="4.4" />
                  <circle fill="#336a98" stroke="#336a98" stroke-opacity="0.0" stroke-width="0.0" cx="95.8767036766663" cy="182.14772727272737" r="4.4" />
                  <circle fill="#29567d" stroke="#29567d" stroke-opacity="0.0" stroke-width="0.0" cx="158.59978084831718" cy="228.8522727272728" r="4.4" />
                  <circle fill="#29567d" stroke="#29567d" stroke-opacity="0.0" stroke-width="0.0" cx="194.44153923211766" cy="193.82386363636368" r="4.4" />
                  <circle fill="#265176" stroke="#265176" stroke-opacity="0.0" stroke-width="0.0" cx="203.40197882806777" cy="228.8522727272728" r="4.4" />
                  <circle fill="#29567d" stroke="#29567d" stroke-opacity="0.0" stroke-width="0.0" cx="95.8767036766663" cy="252.2045454545455" r="4.4" />
                  <circle fill="#265176" stroke="#265176" stroke-opacity="0.0" stroke-width="0.0" cx="149.63934125236702" cy="252.2045454545455" r="4.4" />
                  <circle fill="#244c6f" stroke="#244c6f" stroke-opacity="0.0" stroke-width="0.0" cx="176.5206600402174" cy="275.55681818181824" r="4.4" />
                  <circle fill="#244c6f" stroke="#244c6f" stroke-opacity="0.0" stroke-width="0.0" cx="176.5206600402174" cy="275.55681818181824" r="4.4" />
                  <circle fill="#265176" stroke="#265176" stroke-opacity="0.0" stroke-width="0.0" cx="176.5206600402174" cy="252.2045454545455" r="4.4" />
                  <circle fill="#265176" stroke="#265176" stroke-opacity="0.0" stroke-width="0.0" cx="176.5206600402174" cy="252.2045454545455" r="4.4" />
                  <circle fill="#18344f" stroke="#18344f" stroke-opacity="0.0" stroke-width="0.0" cx="176.5206600402174" cy="333.93750000000006" r="4.4" />
                  <circle fill="#214769" stroke="#214769" stroke-opacity="0.0" stroke-width="0.0" cx="221.32285801996798" cy="275.55681818181824" r="4.4" />
                  <circle fill="#214769" stroke="#214769" stroke-opacity="0.0" stroke-width="0.0" cx="221.32285801996798" cy="287.2329545454546" r="4.4" />
                  <circle fill="#244c6f" stroke="#244c6f" stroke-opacity="0.0" stroke-width="0.0" cx="221.32285801996798" cy="263.88068181818187" r="4.4" />
                  <circle fill="#244c6f" stroke="#244c6f" stroke-opacity="0.0" stroke-width="0.0" cx="239.24373721186825" cy="263.88068181818187" r="4.4" />
                  <path fill="#214769" stroke="#214769" stroke-opacity="0.0" stroke-width="0.0" d="M212.36241842401787 305.5501419766188 L212.36241842401787 305.5501419766188 L216.76241842401788 313.17116552992184 L207.96241842401787 313.17116552992184 Z" transform="rotate(0.0 212.36241842401787 310.58522727272737 ) " />
                  <path fill="#1f4262" stroke="#1f4262" stroke-opacity="0.0" stroke-width="0.0" d="M212.36241842401787 317.2262783402552 L212.36241842401787 317.2262783402552 L216.76241842401788 324.8473018935582 L207.96241842401787 324.8473018935582 Z" transform="rotate(0.0 212.36241842401787 322.26136363636374 ) " />
                  <path fill="#1c3d5c" stroke="#1c3d5c" stroke-opacity="0.0" stroke-width="0.0" d="M230.28329761591814 328.9024147038915 L230.28329761591814 328.9024147038915 L234.68329761591815 336.5234382571945 L225.88329761591814 336.5234382571945 Z" transform="rotate(0.0 230.28329761591814 333.93750000000006 ) " />
                  <path fill="#1f4262" stroke="#1f4262" stroke-opacity="0.0" stroke-width="0.0" d="M230.28329761591814 328.9024147038915 L230.28329761591814 328.9024147038915 L234.68329761591815 336.5234382571945 L225.88329761591814 336.5234382571945 Z" transform="rotate(0.0 230.28329761591814 333.93750000000006 ) " />
                  <path fill="#1f4262" stroke="#1f4262" stroke-opacity="0.0" stroke-width="0.0" d="M301.96681438351914 305.5501419766188 L301.96681438351914 305.5501419766188 L306.36681438351917 313.17116552992184 L297.56681438351916 313.17116552992184 Z" transform="rotate(0.0 301.96681438351914 310.58522727272737 ) " />
                  <path fill="#1f4262" stroke="#1f4262" stroke-opacity="0.0" stroke-width="0.0" d="M301.96681438351914 305.5501419766188 L301.96681438351914 305.5501419766188 L306.36681438351917 313.17116552992184 L297.56681438351916 313.17116552992184 Z" transform="rotate(0.0 301.96681438351914 310.58522727272737 ) " />
                  <path fill="#132b43" stroke="#132b43" stroke-opacity="0.0" stroke-width="0.0" d="M301.96681438351914 387.2830965220733 L301.96681438351914 387.2830965220733 L306.36681438351917 394.90412007537634 L297.56681438351916 394.90412007537634 Z" transform="rotate(0.0 301.96681438351914 392.31818181818187 ) " />
                  <path fill="#18344f" stroke="#18344f" stroke-opacity="0.0" stroke-width="0.0" d="M346.7690123632698 328.9024147038915 L346.7690123632698 328.9024147038915 L351.1690123632698 336.5234382571945 L342.3690123632698 336.5234382571945 Z" transform="rotate(0.0 346.7690123632698 333.93750000000006 ) " />
                  <path fill="#18344f" stroke="#18344f" stroke-opacity="0.0" stroke-width="0.0" d="M346.7690123632698 352.25468743116426 L346.7690123632698 352.25468743116426 L351.1690123632698 359.8757109844673 L342.3690123632698 359.8757109844673 Z" transform="rotate(0.0 346.7690123632698 357.2897727272728 ) " />
                  <path fill="#1c3d5c" stroke="#1c3d5c" stroke-opacity="0.0" stroke-width="0.0" d="M230.28329761591814 328.9024147038915 L230.28329761591814 328.9024147038915 L234.68329761591815 336.5234382571945 L225.88329761591814 336.5234382571945 Z" transform="rotate(0.0 230.28329761591814 333.93750000000006 ) " />
                  <path fill="#1c3d5c" stroke="#1c3d5c" stroke-opacity="0.0" stroke-width="0.0" d="M301.96681438351914 328.9024147038915 L301.96681438351914 328.9024147038915 L306.36681438351917 336.5234382571945 L297.56681438351916 336.5234382571945 Z" transform="rotate(0.0 301.96681438351914 333.93750000000006 ) " />
                  <path fill="#132b43" stroke="#132b43" stroke-opacity="0.0" stroke-width="0.0" d="M301.96681438351914 387.2830965220733 L301.96681438351914 387.2830965220733 L306.36681438351917 394.90412007537634 L297.56681438351916 394.90412007537634 Z" transform="rotate(0.0 301.96681438351914 392.31818181818187 ) " />
                  <path fill="#1c3d5c" stroke="#1c3d5c" stroke-opacity="0.0" stroke-width="0.0" d="M301.96681438351914 328.9024147038915 L301.96681438351914 328.9024147038915 L306.36681438351917 336.5234382571945 L297.56681438351916 336.5234382571945 Z" transform="rotate(0.0 301.96681438351914 333.93750000000006 ) " />
                  <path fill="#18344f" stroke="#18344f" stroke-opacity="0.0" stroke-width="0.0" d="M346.7690123632698 340.5785510675279 L346.7690123632698 340.5785510675279 L351.1690123632698 348.1995746208309 L342.3690123632698 348.1995746208309 Z" transform="rotate(0.0 346.7690123632698 345.61363636363643 ) " />
                  <path fill="#1c3d5c" stroke="#1c3d5c" stroke-opacity="0.0" stroke-width="0.0" d="M391.5712103430203 317.2262783402552 L391.5712103430203 317.2262783402552 L395.97121034302035 324.8473018935582 L387.17121034302033 324.8473018935582 Z" transform="rotate(0.0 391.5712103430203 322.26136363636374 ) " />
                  <path fill="#18344f" stroke="#18344f" stroke-opacity="0.0" stroke-width="0.0" d="M409.4920895349205 352.25468743116426 L409.4920895349205 352.25468743116426 L413.89208953492056 359.8757109844673 L405.09208953492055 359.8757109844673 Z" transform="rotate(0.0 409.4920895349205 357.2897727272728 ) " />
                  <path fill="#1a3955" stroke="#1a3955" stroke-opacity="0.0" stroke-width="0.0" d="M301.96681438351914 340.5785510675279 L301.96681438351914 340.5785510675279 L306.36681438351917 348.1995746208309 L297.56681438351916 348.1995746208309 Z" transform="rotate(0.0 301.96681438351914 345.61363636363643 ) " />
                  <path fill="#132b43" stroke="#132b43" stroke-opacity="0.0" stroke-width="0.0" d="M301.96681438351914 387.2830965220733 L301.96681438351914 387.2830965220733 L306.36681438351917 394.90412007537634 L297.56681438351916 394.90412007537634 Z" transform="rotate(0.0 301.96681438351914 392.31818181818187 ) " />
                  <path fill="#1c3d5c" stroke="#1c3d5c" stroke-opacity="0.0" stroke-width="0.0" d="M301.96681438351914 328.9024147038915 L301.96681438351914 328.9024147038915 L306.36681438351917 336.5234382571945 L297.56681438351916 336.5234382571945 Z" transform="rotate(0.0 301.96681438351914 333.93750000000006 ) " />
                  <path fill="#1c3d5c" stroke="#1c3d5c" stroke-opacity="0.0" stroke-width="0.0" d="M301.96681438351914 328.9024147038915 L301.96681438351914 328.9024147038915 L306.36681438351917 336.5234382571945 L297.56681438351916 336.5234382571945 Z" transform="rotate(0.0 301.96681438351914 333.93750000000006 ) " />
                  <path fill="#1a3955" stroke="#1a3955" stroke-opacity="0.0" stroke-width="0.0" d="M301.96681438351914 340.5785510675279 L301.96681438351914 340.5785510675279 L306.36681438351917 348.1995746208309 L297.56681438351916 348.1995746208309 Z" transform="rotate(0.0 301.96681438351914 345.61363636363643 ) " />
                  <path fill="#132b43" stroke="#132b43" stroke-opacity="0.0" stroke-width="0.0" d="M301.96681438351914 387.2830965220733 L301.96681438351914 387.2830965220733 L306.36681438351917 394.90412007537634 L297.56681438351916 394.90412007537634 Z" transform="rotate(0.0 301.96681438351914 392.31818181818187 ) " />
                  <path fill="#18344f" stroke="#18344f" stroke-opacity="0.0" stroke-width="0.0" d="M346.7690123632698 352.25468743116426 L346.7690123632698 352.25468743116426 L351.1690123632698 359.8757109844673 L342.3690123632698 359.8757109844673 Z" transform="rotate(0.0 346.7690123632698 357.2897727272728 ) " />
                  <path fill="#18344f" stroke="#18344f" stroke-opacity="0.0" stroke-width="0.0" d="M346.7690123632698 340.5785510675279 L346.7690123632698 340.5785510675279 L351.1690123632698 348.1995746208309 L342.3690123632698 348.1995746208309 Z" transform="rotate(0.0 346.7690123632698 345.61363636363643 ) " />
                  <path fill="#1c3d5c" stroke="#1c3d5c" stroke-opacity="0.0" stroke-width="0.0" d="M391.5712103430203 328.9024147038915 L391.5712103430203 328.9024147038915 L395.97121034302035 336.5234382571945 L387.17121034302033 336.5234382571945 Z" transform="rotate(0.0 391.5712103430203 333.93750000000006 ) " />
                  <path fill="#18344f" stroke="#18344f" stroke-opacity="0.0" stroke-width="0.0" d="M409.4920895349205 352.25468743116426 L409.4920895349205 352.25468743116426 L413.89208953492056 359.8757109844673 L405.09208953492055 359.8757109844673 Z" transform="rotate(0.0 409.4920895349205 357.2897727272728 ) " />
                  <rect fill="#18344f" stroke="#18344f" stroke-opacity="0.0" stroke-width="0.0" x="288.60637478756894" y="329.5375000000001" height="8.8" width="8.8" transform="rotate(0.0 293.0063747875689 333.93750000000006 ) " />
                  <rect fill="#18344f" stroke="#18344f" stroke-opacity="0.0" stroke-width="0.0" x="360.28989155517" y="329.5375000000001" height="8.8" width="8.8" transform="rotate(0.0 364.68989155517 333.93750000000006 ) " />
                  <rect fill="#1a3955" stroke="#1a3955" stroke-opacity="0.0" stroke-width="0.0" x="360.28989155517" y="317.86136363636376" height="8.8" width="8.8" transform="rotate(0.0 364.68989155517 322.26136363636374 ) " />
                  <path fill="#1f4262" stroke="#1f4262" stroke-opacity="0.0" stroke-width="0.0" d="M239.24373721186825 328.9024147038915 L239.24373721186825 328.9024147038915 L243.64373721186826 336.5234382571945 L234.84373721186824 336.5234382571945 Z" transform="rotate(0.0 239.24373721186825 333.93750000000006 ) " />
                  <path fill="#214769" stroke="#214769" stroke-opacity="0.0" stroke-width="0.0" d="M239.24373721186825 305.5501419766188 L239.24373721186825 305.5501419766188 L243.64373721186826 313.17116552992184 L234.84373721186824 313.17116552992184 Z" transform="rotate(0.0 239.24373721186825 310.58522727272737 ) " />
                  <path fill="#1f4262" stroke="#1f4262" stroke-opacity="0.0" stroke-width="0.0" d="M239.24373721186825 328.9024147038915 L239.24373721186825 328.9024147038915 L243.64373721186826 336.5234382571945 L234.84373721186824 336.5234382571945 Z" transform="rotate(0.0 239.24373721186825 333.93750000000006 ) " />
                  <path fill="#1c3d5c" stroke="#1c3d5c" stroke-opacity="0.0" stroke-width="0.0" d="M239.24373721186825 305.5501419766188 L239.24373721186825 305.5501419766188 L243.64373721186826 313.17116552992184 L234.84373721186824 313.17116552992184 Z" transform="rotate(0.0 239.24373721186825 310.58522727272737 ) " />
                  <path fill="#1c3d5c" stroke="#1c3d5c" stroke-opacity="0.0" stroke-width="0.0" d="M293.0063747875689 305.5501419766188 L293.0063747875689 305.5501419766188 L297.40637478756895 313.17116552992184 L288.60637478756894 313.17116552992184 Z" transform="rotate(0.0 293.0063747875689 310.58522727272737 ) " />
                  <path fill="#1c3d5c" stroke="#1c3d5c" stroke-opacity="0.0" stroke-width="0.0" d="M328.84813317136945 328.9024147038915 L328.84813317136945 328.9024147038915 L333.2481331713695 336.5234382571945 L324.4481331713695 336.5234382571945 Z" transform="rotate(0.0 328.84813317136945 333.93750000000006 ) " />
                  <path fill="#1f4262" stroke="#1f4262" stroke-opacity="0.0" stroke-width="0.0" d="M257.1646164037685 328.9024147038915 L257.1646164037685 328.9024147038915 L261.56461640376847 336.5234382571945 L252.76461640376849 336.5234382571945 Z" transform="rotate(0.0 257.1646164037685 333.93750000000006 ) " />
                  <path fill="#1f4262" stroke="#1f4262" stroke-opacity="0.0" stroke-width="0.0" d="M257.1646164037685 328.9024147038915 L257.1646164037685 328.9024147038915 L261.56461640376847 336.5234382571945 L252.76461640376849 336.5234382571945 Z" transform="rotate(0.0 257.1646164037685 333.93750000000006 ) " />
                  <path fill="#1c3d5c" stroke="#1c3d5c" stroke-opacity="0.0" stroke-width="0.0" d="M293.0063747875689 340.5785510675279 L293.0063747875689 340.5785510675279 L297.40637478756895 348.1995746208309 L288.60637478756894 348.1995746208309 Z" transform="rotate(0.0 293.0063747875689 345.61363636363643 ) " />
                  <path fill="#1c3d5c" stroke="#1c3d5c" stroke-opacity="0.0" stroke-width="0.0" d="M293.0063747875689 340.5785510675279 L293.0063747875689 340.5785510675279 L297.40637478756895 348.1995746208309 L288.60637478756894 348.1995746208309 Z" transform="rotate(0.0 293.0063747875689 345.61363636363643 ) " />
                  <path fill="#1c3d5c" stroke="#1c3d5c" stroke-opacity="0.0" stroke-width="0.0" d="M293.0063747875689 328.9024147038915 L293.0063747875689 328.9024147038915 L297.40637478756895 336.5234382571945 L288.60637478756894 336.5234382571945 Z" transform="rotate(0.0 293.0063747875689 333.93750000000006 ) " />
                  <path fill="#18344f" stroke="#18344f" stroke-opacity="0.0" stroke-width="0.0" d="M364.68989155517 352.25468743116426 L364.68989155517 352.25468743116426 L369.08989155517 359.8757109844673 L360.28989155517 359.8757109844673 Z" transform="rotate(0.0 364.68989155517 357.2897727272728 ) " />
                  <path fill="#1c3d5c" stroke="#1c3d5c" stroke-opacity="0.0" stroke-width="0.0" d="M364.68989155517 328.9024147038915 L364.68989155517 328.9024147038915 L369.08989155517 336.5234382571945 L360.28989155517 336.5234382571945 Z" transform="rotate(0.0 364.68989155517 333.93750000000006 ) " />
                  <rect fill="#29567d" stroke="#29567d" stroke-opacity="0.0" stroke-width="0.0" x="216.92285801996798" y="224.4522727272728" height="8.8" width="8.8" transform="rotate(0.0 221.32285801996798 228.8522727272728 ) " />
                  <rect fill="#29567d" stroke="#29567d" stroke-opacity="0.0" stroke-width="0.0" x="216.92285801996798" y="236.12840909090917" height="8.8" width="8.8" transform="rotate(0.0 221.32285801996798 240.52840909090918 ) " />
                  <rect fill="#265176" stroke="#265176" stroke-opacity="0.0" stroke-width="0.0" x="234.84373721186824" y="224.4522727272728" height="8.8" width="8.8" transform="rotate(0.0 239.24373721186825 228.8522727272728 ) " />
                  <rect fill="#244c6f" stroke="#244c6f" stroke-opacity="0.0" stroke-width="0.0" x="234.84373721186824" y="247.8045454545455" height="8.8" width="8.8" transform="rotate(0.0 239.24373721186825 252.2045454545455 ) " />
                  <rect fill="#214769" stroke="#214769" stroke-opacity="0.0" stroke-width="0.0" x="288.60637478756894" y="282.83295454545464" height="8.8" width="8.8" transform="rotate(0.0 293.0063747875689 287.2329545454546 ) " />
                  <rect fill="#214769" stroke="#214769" stroke-opacity="0.0" stroke-width="0.0" x="288.60637478756894" y="271.15681818181827" height="8.8" width="8.8" transform="rotate(0.0 293.0063747875689 275.55681818181824 ) " />
                  <rect fill="#214769" stroke="#214769" stroke-opacity="0.0" stroke-width="0.0" x="288.60637478756894" y="259.4806818181819" height="8.8" width="8.8" transform="rotate(0.0 293.0063747875689 263.88068181818187 ) " />
                  <rect fill="#214769" stroke="#214769" stroke-opacity="0.0" stroke-width="0.0" x="288.60637478756894" y="271.15681818181827" height="8.8" width="8.8" transform="rotate(0.0 293.0063747875689 275.55681818181824 ) " />
                  <rect fill="#1f4262" stroke="#1f4262" stroke-opacity="0.0" stroke-width="0.0" x="360.28989155517" y="294.509090909091" height="8.8" width="8.8" transform="rotate(0.0 364.68989155517 298.909090909091 ) " />
                  <circle fill="#438ac3" stroke="#438ac3" stroke-opacity="0.0" stroke-width="0.0" cx="24.193186909065332" cy="147.11931818181824" r="4.4" />
                  <circle fill="#3875a6" stroke="#3875a6" stroke-opacity="0.0" stroke-width="0.0" cx="24.193186909065332" cy="158.79545454545462" r="4.4" />
                  <circle fill="#3b7aad" stroke="#3b7aad" stroke-opacity="0.0" stroke-width="0.0" cx="24.193186909065332" cy="158.79545454545462" r="4.4" />
                  <circle fill="#356f9f" stroke="#356f9f" stroke-opacity="0.0" stroke-width="0.0" cx="24.193186909065332" cy="193.82386363636368" r="4.4" />
                  <circle fill="#3875a6" stroke="#3875a6" stroke-opacity="0.0" stroke-width="0.0" cx="24.193186909065332" cy="158.79545454545462" r="4.4" />
                  <circle fill="#3d7fb4" stroke="#3d7fb4" stroke-opacity="0.0" stroke-width="0.0" cx="42.11406610096557" cy="135.44318181818187" r="4.4" />
                  <circle fill="#3b7aad" stroke="#3b7aad" stroke-opacity="0.0" stroke-width="0.0" cx="42.11406610096557" cy="112.09090909090918" r="4.4" />
                  <circle fill="#3875a6" stroke="#3875a6" stroke-opacity="0.0" stroke-width="0.0" cx="42.11406610096557" cy="112.09090909090918" r="4.4" />
                  <circle fill="#306591" stroke="#306591" stroke-opacity="0.0" stroke-width="0.0" cx="60.034945292865814" cy="193.82386363636368" r="4.4" />
                  <circle fill="#29567d" stroke="#29567d" stroke-opacity="0.0" stroke-width="0.0" cx="95.8767036766663" cy="228.8522727272728" r="4.4" />
                  <circle fill="#29567d" stroke="#29567d" stroke-opacity="0.0" stroke-width="0.0" cx="95.8767036766663" cy="217.17613636363643" r="4.4" />
                  <circle fill="#306591" stroke="#306591" stroke-opacity="0.0" stroke-width="0.0" cx="95.8767036766663" cy="182.14772727272737" r="4.4" />
                  <circle fill="#306591" stroke="#306591" stroke-opacity="0.0" stroke-width="0.0" cx="95.8767036766663" cy="170.471590909091" r="4.4" />
                  <circle fill="#29567d" stroke="#29567d" stroke-opacity="0.0" stroke-width="0.0" cx="104.83714327261643" cy="228.8522727272728" r="4.4" />
                  <circle fill="#29567d" stroke="#29567d" stroke-opacity="0.0" stroke-width="0.0" cx="104.83714327261643" cy="228.8522727272728" r="4.4" />
                  <circle fill="#2b5b83" stroke="#2b5b83" stroke-opacity="0.0" stroke-width="0.0" cx="176.5206600402174" cy="205.50000000000006" r="4.4" />
                  <circle fill="#2b5b83" stroke="#2b5b83" stroke-opacity="0.0" stroke-width="0.0" cx="60.034945292865814" cy="228.8522727272728" r="4.4" />
                  <circle fill="#2b5b83" stroke="#2b5b83" stroke-opacity="0.0" stroke-width="0.0" cx="60.034945292865814" cy="193.82386363636368" r="4.4" />
                  <circle fill="#2e608a" stroke="#2e608a" stroke-opacity="0.0" stroke-width="0.0" cx="60.034945292865814" cy="205.50000000000006" r="4.4" />
                  <circle fill="#2e608a" stroke="#2e608a" stroke-opacity="0.0" stroke-width="0.0" cx="60.034945292865814" cy="217.17613636363643" r="4.4" />
                  <circle fill="#265176" stroke="#265176" stroke-opacity="0.0" stroke-width="0.0" cx="122.75802246451667" cy="252.2045454545455" r="4.4" />
                  <circle fill="#244c6f" stroke="#244c6f" stroke-opacity="0.0" stroke-width="0.0" cx="122.75802246451667" cy="252.2045454545455" r="4.4" />
                  <circle fill="#265176" stroke="#265176" stroke-opacity="0.0" stroke-width="0.0" cx="122.75802246451667" cy="252.2045454545455" r="4.4" />
                  <path fill="#265176" stroke="#265176" stroke-opacity="0.0" stroke-width="0.0" d="M149.63934125236702 270.5217328857097 L149.63934125236702 270.5217328857097 L154.03934125236702 278.1427564390127 L145.239341252367 278.1427564390127 Z" transform="rotate(0.0 149.63934125236702 275.55681818181824 ) " />
                  <path fill="#214769" stroke="#214769" stroke-opacity="0.0" stroke-width="0.0" d="M212.36241842401787 305.5501419766188 L212.36241842401787 305.5501419766188 L216.76241842401788 313.17116552992184 L207.96241842401787 313.17116552992184 Z" transform="rotate(0.0 212.36241842401787 310.58522727272737 ) " />
                  <path fill="#214769" stroke="#214769" stroke-opacity="0.0" stroke-width="0.0" d="M239.24373721186825 293.87400561298244 L239.24373721186825 293.87400561298244 L243.64373721186826 301.49502916628546 L234.84373721186824 301.49502916628546 Z" transform="rotate(0.0 239.24373721186825 298.909090909091 ) " />
                  <path fill="#1f4262" stroke="#1f4262" stroke-opacity="0.0" stroke-width="0.0" d="M301.96681438351914 328.9024147038915 L301.96681438351914 328.9024147038915 L306.36681438351917 336.5234382571945 L297.56681438351916 336.5234382571945 Z" transform="rotate(0.0 301.96681438351914 333.93750000000006 ) " />
                  <path fill="#132b43" stroke="#132b43" stroke-opacity="0.0" stroke-width="0.0" d="M301.96681438351914 387.2830965220733 L301.96681438351914 387.2830965220733 L306.36681438351917 394.90412007537634 L297.56681438351916 394.90412007537634 Z" transform="rotate(0.0 301.96681438351914 392.31818181818187 ) " />
                  <path fill="#1f4262" stroke="#1f4262" stroke-opacity="0.0" stroke-width="0.0" d="M301.96681438351914 305.5501419766188 L301.96681438351914 305.5501419766188 L306.36681438351917 313.17116552992184 L297.56681438351916 313.17116552992184 Z" transform="rotate(0.0 301.96681438351914 310.58522727272737 ) " />
                  <path fill="#1c3d5c" stroke="#1c3d5c" stroke-opacity="0.0" stroke-width="0.0" d="M391.5712103430203 317.2262783402552 L391.5712103430203 317.2262783402552 L395.97121034302035 324.8473018935582 L387.17121034302033 324.8473018935582 Z" transform="rotate(0.0 391.5712103430203 322.26136363636374 ) " />
                  <path fill="#18344f" stroke="#18344f" stroke-opacity="0.0" stroke-width="0.0" d="M427.41296872682074 363.9308237948006 L427.41296872682074 363.9308237948006 L431.81296872682077 371.5518473481036 L423.01296872682076 371.5518473481036 Z" transform="rotate(0.0 427.41296872682074 368.9659090909091 ) " />
                  <path fill="#18344f" stroke="#18344f" stroke-opacity="0.0" stroke-width="0.0" d="M239.24373721186825 352.25468743116426 L239.24373721186825 352.25468743116426 L243.64373721186826 359.8757109844673 L234.84373721186824 359.8757109844673 Z" transform="rotate(0.0 239.24373721186825 357.2897727272728 ) " />
                  <path fill="#1a3955" stroke="#1a3955" stroke-opacity="0.0" stroke-width="0.0" d="M257.1646164037685 317.2262783402552 L257.1646164037685 317.2262783402552 L261.56461640376847 324.8473018935582 L252.76461640376849 324.8473018935582 Z" transform="rotate(0.0 257.1646164037685 322.26136363636374 ) " />
                  <path fill="#1a3955" stroke="#1a3955" stroke-opacity="0.0" stroke-width="0.0" d="M275.0854955956688 317.2262783402552 L275.0854955956688 317.2262783402552 L279.48549559566885 324.8473018935582 L270.68549559566884 324.8473018935582 Z" transform="rotate(0.0 275.0854955956688 322.26136363636374 ) " />
                  <path fill="#18344f" stroke="#18344f" stroke-opacity="0.0" stroke-width="0.0" d="M293.0063747875689 352.25468743116426 L293.0063747875689 352.25468743116426 L297.40637478756895 359.8757109844673 L288.60637478756894 359.8757109844673 Z" transform="rotate(0.0 293.0063747875689 357.2897727272728 ) " />
                  <rect fill="#18344f" stroke="#18344f" stroke-opacity="0.0" stroke-width="0.0" x="360.28989155517" y="329.5375000000001" height="8.8" width="8.8" transform="rotate(0.0 364.68989155517 333.93750000000006 ) " />
                  <rect fill="#18344f" stroke="#18344f" stroke-opacity="0.0" stroke-width="0.0" x="360.28989155517" y="341.21363636363645" height="8.8" width="8.8" transform="rotate(0.0 364.68989155517 345.61363636363643 ) " />
                  <rect fill="#1a3955" stroke="#1a3955" stroke-opacity="0.0" stroke-width="0.0" x="360.28989155517" y="317.86136363636376" height="8.8" width="8.8" transform="rotate(0.0 364.68989155517 322.26136363636374 ) " />
                  <path fill="#1f4262" stroke="#1f4262" stroke-opacity="0.0" stroke-width="0.0" d="M239.24373721186825 328.9024147038915 L239.24373721186825 328.9024147038915 L243.64373721186826 336.5234382571945 L234.84373721186824 336.5234382571945 Z" transform="rotate(0.0 239.24373721186825 333.93750000000006 ) " />
                  <path fill="#1c3d5c" stroke="#1c3d5c" stroke-opacity="0.0" stroke-width="0.0" d="M239.24373721186825 305.5501419766188 L239.24373721186825 305.5501419766188 L243.64373721186826 313.17116552992184 L234.84373721186824 313.17116552992184 Z" transform="rotate(0.0 239.24373721186825 310.58522727272737 ) " />
                  <path fill="#1c3d5c" stroke="#1c3d5c" stroke-opacity="0.0" stroke-width="0.0" d="M293.0063747875689 305.5501419766188 L293.0063747875689 305.5501419766188 L297.40637478756895 313.17116552992184 L288.60637478756894 313.17116552992184 Z" transform="rotate(0.0 293.0063747875689 310.58522727272737 ) " />
                  <path fill="#1c3d5c" stroke="#1c3d5c" stroke-opacity="0.0" stroke-width="0.0" d="M328.84813317136945 328.9024147038915 L328.84813317136945 328.9024147038915 L333.2481331713695 336.5234382571945 L324.4481331713695 336.5234382571945 Z" transform="rotate(0.0 328.84813317136945 333.93750000000006 ) " />
                  <circle fill="#306591" stroke="#306591" stroke-opacity="0.0" stroke-width="0.0" cx="95.8767036766663" cy="193.82386363636368" r="4.4" />
                  <circle fill="#2b5b83" stroke="#2b5b83" stroke-opacity="0.0" stroke-width="0.0" cx="95.8767036766663" cy="217.17613636363643" r="4.4" />
                  <circle fill="#356f9f" stroke="#356f9f" stroke-opacity="0.0" stroke-width="0.0" cx="104.83714327261643" cy="170.471590909091" r="4.4" />
                  <circle fill="#356f9f" stroke="#356f9f" stroke-opacity="0.0" stroke-width="0.0" cx="104.83714327261643" cy="158.79545454545462" r="4.4" />
                  <circle fill="#2b5b83" stroke="#2b5b83" stroke-opacity="0.0" stroke-width="0.0" cx="194.44153923211766" cy="217.17613636363643" r="4.4" />
                  <circle fill="#2b5b83" stroke="#2b5b83" stroke-opacity="0.0" stroke-width="0.0" cx="194.44153923211766" cy="228.8522727272728" r="4.4" />
                  <circle fill="#29567d" stroke="#29567d" stroke-opacity="0.0" stroke-width="0.0" cx="149.63934125236702" cy="228.8522727272728" r="4.4" />
                  <circle fill="#2b5b83" stroke="#2b5b83" stroke-opacity="0.0" stroke-width="0.0" cx="149.63934125236702" cy="240.52840909090918" r="4.4" />
                  <circle fill="#2b5b83" stroke="#2b5b83" stroke-opacity="0.0" stroke-width="0.0" cx="194.44153923211766" cy="240.52840909090918" r="4.4" />
                  <path fill="#1f4262" stroke="#1f4262" stroke-opacity="0.0" stroke-width="0.0" d="M176.5206600402174 328.9024147038915 L176.5206600402174 328.9024147038915 L180.9206600402174 336.5234382571945 L172.1206600402174 336.5234382571945 Z" transform="rotate(0.0 176.5206600402174 333.93750000000006 ) " />
                  <path fill="#214769" stroke="#214769" stroke-opacity="0.0" stroke-width="0.0" d="M176.5206600402174 328.9024147038915 L176.5206600402174 328.9024147038915 L180.9206600402174 336.5234382571945 L172.1206600402174 336.5234382571945 Z" transform="rotate(0.0 176.5206600402174 333.93750000000006 ) " />
                  <path fill="#1f4262" stroke="#1f4262" stroke-opacity="0.0" stroke-width="0.0" d="M239.24373721186825 293.87400561298244 L239.24373721186825 293.87400561298244 L243.64373721186826 301.49502916628546 L234.84373721186824 301.49502916628546 Z" transform="rotate(0.0 239.24373721186825 298.909090909091 ) " />
                  <path fill="#1a3955" stroke="#1a3955" stroke-opacity="0.0" stroke-width="0.0" d="M382.6107707470702 317.2262783402552 L382.6107707470702 317.2262783402552 L387.01077074707024 324.8473018935582 L378.2107707470702 324.8473018935582 Z" transform="rotate(0.0 382.6107707470702 322.26136363636374 ) " />
                  <circle fill="#29567d" stroke="#29567d" stroke-opacity="0.0" stroke-width="0.0" cx="158.59978084831718" cy="228.8522727272728" r="4.4" />
                  <circle fill="#244c6f" stroke="#244c6f" stroke-opacity="0.0" stroke-width="0.0" cx="221.32285801996798" cy="228.8522727272728" r="4.4" />
                  <circle fill="#265176" stroke="#265176" stroke-opacity="0.0" stroke-width="0.0" cx="221.32285801996798" cy="217.17613636363643" r="4.4" />
                  <circle fill="#29567d" stroke="#29567d" stroke-opacity="0.0" stroke-width="0.0" cx="221.32285801996798" cy="205.50000000000006" r="4.4" />
                  <circle fill="#244c6f" stroke="#244c6f" stroke-opacity="0.0" stroke-width="0.0" cx="355.7294519592198" cy="240.52840909090918" r="4.4" />
                  <path fill="#29567d" stroke="#29567d" stroke-opacity="0.0" stroke-width="0.0" d="M104.83714327261643 235.49332379480057 L104.83714327261643 235.49332379480057 L109.23714327261642 243.11434734810365 L100.43714327261642 243.11434734810365 Z" transform="rotate(0.0 104.83714327261643 240.52840909090918 ) " />
                  <path fill="#29567d" stroke="#29567d" stroke-opacity="0.0" stroke-width="0.0" d="M104.83714327261643 247.1694601584369 L104.83714327261643 247.1694601584369 L109.23714327261642 254.79048371173997 L100.43714327261642 254.79048371173997 Z" transform="rotate(0.0 104.83714327261643 252.2045454545455 ) " />
                  <path fill="#2e608a" stroke="#2e608a" stroke-opacity="0.0" stroke-width="0.0" d="M104.83714327261643 212.14105106752783 L104.83714327261643 212.14105106752783 L109.23714327261642 219.7620746208309 L100.43714327261642 219.7620746208309 Z" transform="rotate(0.0 104.83714327261643 217.17613636363643 ) " />
                  <path fill="#2b5b83" stroke="#2b5b83" stroke-opacity="0.0" stroke-width="0.0" d="M104.83714327261643 235.49332379480057 L104.83714327261643 235.49332379480057 L109.23714327261642 243.11434734810365 L100.43714327261642 243.11434734810365 Z" transform="rotate(0.0 104.83714327261643 240.52840909090918 ) " />
                  <path fill="#2e608a" stroke="#2e608a" stroke-opacity="0.0" stroke-width="0.0" d="M104.83714327261643 223.8171874311642 L104.83714327261643 223.8171874311642 L109.23714327261642 231.43821098446728 L100.43714327261642 231.43821098446728 Z" transform="rotate(0.0 104.83714327261643 228.8522727272728 ) " />
                  <path fill="#29567d" stroke="#29567d" stroke-opacity="0.0" stroke-width="0.0" d="M104.83714327261643 258.8455965220733 L104.83714327261643 258.8455965220733 L109.23714327261642 266.46662007537634 L100.43714327261642 266.46662007537634 Z" transform="rotate(0.0 104.83714327261643 263.88068181818187 ) " />
                  <path fill="#306591" stroke="#306591" stroke-opacity="0.0" stroke-width="0.0" d="M77.95582448476608 223.8171874311642 L77.95582448476608 223.8171874311642 L82.35582448476607 231.43821098446728 L73.55582448476608 231.43821098446728 Z" transform="rotate(0.0 77.95582448476608 228.8522727272728 ) " />
                  <path fill="#2b5b83" stroke="#2b5b83" stroke-opacity="0.0" stroke-width="0.0" d="M77.95582448476608 223.8171874311642 L77.95582448476608 223.8171874311642 L82.35582448476607 231.43821098446728 L73.55582448476608 231.43821098446728 Z" transform="rotate(0.0 77.95582448476608 228.8522727272728 ) " />
                  <path fill="#2b5b83" stroke="#2b5b83" stroke-opacity="0.0" stroke-width="0.0" d="M104.83714327261643 223.8171874311642 L104.83714327261643 223.8171874311642 L109.23714327261642 231.43821098446728 L100.43714327261642 231.43821098446728 Z" transform="rotate(0.0 104.83714327261643 228.8522727272728 ) " />
                  <path fill="#2b5b83" stroke="#2b5b83" stroke-opacity="0.0" stroke-width="0.0" d="M104.83714327261643 223.8171874311642 L104.83714327261643 223.8171874311642 L109.23714327261642 231.43821098446728 L100.43714327261642 231.43821098446728 Z" transform="rotate(0.0 104.83714327261643 228.8522727272728 ) " />
                  <path fill="#2e608a" stroke="#2e608a" stroke-opacity="0.0" stroke-width="0.0" d="M104.83714327261643 235.49332379480057 L104.83714327261643 235.49332379480057 L109.23714327261642 243.11434734810365 L100.43714327261642 243.11434734810365 Z" transform="rotate(0.0 104.83714327261643 240.52840909090918 ) " />
                  <path fill="#2e608a" stroke="#2e608a" stroke-opacity="0.0" stroke-width="0.0" d="M104.83714327261643 212.14105106752783 L104.83714327261643 212.14105106752783 L109.23714327261642 219.7620746208309 L100.43714327261642 219.7620746208309 Z" transform="rotate(0.0 104.83714327261643 217.17613636363643 ) " />
                  <path fill="#2b5b83" stroke="#2b5b83" stroke-opacity="0.0" stroke-width="0.0" d="M104.83714327261643 235.49332379480057 L104.83714327261643 235.49332379480057 L109.23714327261642 243.11434734810365 L100.43714327261642 243.11434734810365 Z" transform="rotate(0.0 104.83714327261643 240.52840909090918 ) " />
                  <path fill="#2e608a" stroke="#2e608a" stroke-opacity="0.0" stroke-width="0.0" d="M104.83714327261643 212.14105106752783 L104.83714327261643 212.14105106752783 L109.23714327261642 219.7620746208309 L100.43714327261642 219.7620746208309 Z" transform="rotate(0.0 104.83714327261643 217.17613636363643 ) " />
                  <path fill="#214769" stroke="#214769" stroke-opacity="0.0" stroke-width="0.0" d="M122.75802246451667 293.87400561298244 L122.75802246451667 293.87400561298244 L127.15802246451666 301.49502916628546 L118.35802246451667 301.49502916628546 Z" transform="rotate(0.0 122.75802246451667 298.909090909091 ) " />
                  <path fill="#244c6f" stroke="#244c6f" stroke-opacity="0.0" stroke-width="0.0" d="M122.75802246451667 293.87400561298244 L122.75802246451667 293.87400561298244 L127.15802246451666 301.49502916628546 L118.35802246451667 301.49502916628546 Z" transform="rotate(0.0 122.75802246451667 298.909090909091 ) " />
                  <path fill="#214769" stroke="#214769" stroke-opacity="0.0" stroke-width="0.0" d="M185.4810996361675 305.5501419766188 L185.4810996361675 305.5501419766188 L189.8810996361675 313.17116552992184 L181.0810996361675 313.17116552992184 Z" transform="rotate(0.0 185.4810996361675 310.58522727272737 ) " />
                  <path fill="#214769" stroke="#214769" stroke-opacity="0.0" stroke-width="0.0" d="M185.4810996361675 328.9024147038915 L185.4810996361675 328.9024147038915 L189.8810996361675 336.5234382571945 L181.0810996361675 336.5234382571945 Z" transform="rotate(0.0 185.4810996361675 333.93750000000006 ) " />
                  <path fill="#244c6f" stroke="#244c6f" stroke-opacity="0.0" stroke-width="0.0" d="M239.24373721186825 293.87400561298244 L239.24373721186825 293.87400561298244 L243.64373721186826 301.49502916628546 L234.84373721186824 301.49502916628546 Z" transform="rotate(0.0 239.24373721186825 298.909090909091 ) " />
                  <path fill="#1f4262" stroke="#1f4262" stroke-opacity="0.0" stroke-width="0.0" d="M301.96681438351914 328.9024147038915 L301.96681438351914 328.9024147038915 L306.36681438351917 336.5234382571945 L297.56681438351916 336.5234382571945 Z" transform="rotate(0.0 301.96681438351914 333.93750000000006 ) " />
                  <circle fill="#306591" stroke="#306591" stroke-opacity="0.0" stroke-width="0.0" cx="77.95582448476608" cy="193.82386363636368" r="4.4" />
                  <circle fill="#306591" stroke="#306591" stroke-opacity="0.0" stroke-width="0.0" cx="77.95582448476608" cy="217.17613636363643" r="4.4" />
                  <circle fill="#306591" stroke="#306591" stroke-opacity="0.0" stroke-width="0.0" cx="95.8767036766663" cy="170.471590909091" r="4.4" />
                  <circle fill="#306591" stroke="#306591" stroke-opacity="0.0" stroke-width="0.0" cx="95.8767036766663" cy="170.471590909091" r="4.4" />
                  <circle fill="#29567d" stroke="#29567d" stroke-opacity="0.0" stroke-width="0.0" cx="149.63934125236702" cy="228.8522727272728" r="4.4" />
                  <circle fill="#29567d" stroke="#29567d" stroke-opacity="0.0" stroke-width="0.0" cx="149.63934125236702" cy="228.8522727272728" r="4.4" />
                  <circle fill="#2b5b83" stroke="#2b5b83" stroke-opacity="0.0" stroke-width="0.0" cx="194.44153923211766" cy="205.50000000000006" r="4.4" />
                  <circle fill="#306591" stroke="#306591" stroke-opacity="0.0" stroke-width="0.0" cx="77.95582448476608" cy="217.17613636363643" r="4.4" />
                  <circle fill="#306591" stroke="#306591" stroke-opacity="0.0" stroke-width="0.0" cx="77.95582448476608" cy="193.82386363636368" r="4.4" />
                  <circle fill="#306591" stroke="#306591" stroke-opacity="0.0" stroke-width="0.0" cx="95.8767036766663" cy="170.471590909091" r="4.4" />
                  <circle fill="#336a98" stroke="#336a98" stroke-opacity="0.0" stroke-width="0.0" cx="95.8767036766663" cy="170.471590909091" r="4.4" />
                  <circle fill="#29567d" stroke="#29567d" stroke-opacity="0.0" stroke-width="0.0" cx="149.63934125236702" cy="228.8522727272728" r="4.4" />
                  <circle fill="#29567d" stroke="#29567d" stroke-opacity="0.0" stroke-width="0.0" cx="149.63934125236702" cy="228.8522727272728" r="4.4" />
                  <circle fill="#29567d" stroke="#29567d" stroke-opacity="0.0" stroke-width="0.0" cx="176.5206600402174" cy="217.17613636363643" r="4.4" />
                  <circle fill="#3875a6" stroke="#3875a6" stroke-opacity="0.0" stroke-width="0.0" cx="42.11406610096557" cy="182.14772727272737" r="4.4" />
                  <circle fill="#3875a6" stroke="#3875a6" stroke-opacity="0.0" stroke-width="0.0" cx="42.11406610096557" cy="147.11931818181824" r="4.4" />
                  <circle fill="#3d7fb4" stroke="#3d7fb4" stroke-opacity="0.0" stroke-width="0.0" cx="42.11406610096557" cy="123.76704545454555" r="4.4" />
                  <circle fill="#438ac3" stroke="#438ac3" stroke-opacity="0.0" stroke-width="0.0" cx="42.11406610096557" cy="100.4147727272728" r="4.4" />
                  <circle fill="#3d7fb4" stroke="#3d7fb4" stroke-opacity="0.0" stroke-width="0.0" cx="42.11406610096557" cy="123.76704545454555" r="4.4" />
                  <path fill="#18344f" stroke="#18344f" stroke-opacity="0.0" stroke-width="0.0" d="M301.96681438351914 352.25468743116426 L301.96681438351914 352.25468743116426 L306.36681438351917 359.8757109844673 L297.56681438351916 359.8757109844673 Z" transform="rotate(0.0 301.96681438351914 357.2897727272728 ) " />
                  <path fill="#1c3d5c" stroke="#1c3d5c" stroke-opacity="0.0" stroke-width="0.0" d="M391.5712103430203 317.2262783402552 L391.5712103430203 317.2262783402552 L395.97121034302035 324.8473018935582 L387.17121034302033 324.8473018935582 Z" transform="rotate(0.0 391.5712103430203 322.26136363636374 ) " />
                  <path fill="#214769" stroke="#214769" stroke-opacity="0.0" stroke-width="0.0" d="M122.75802246451667 293.87400561298244 L122.75802246451667 293.87400561298244 L127.15802246451666 301.49502916628546 L118.35802246451667 301.49502916628546 Z" transform="rotate(0.0 122.75802246451667 298.909090909091 ) " />
                  <path fill="#244c6f" stroke="#244c6f" stroke-opacity="0.0" stroke-width="0.0" d="M122.75802246451667 293.87400561298244 L122.75802246451667 293.87400561298244 L127.15802246451666 301.49502916628546 L118.35802246451667 301.49502916628546 Z" transform="rotate(0.0 122.75802246451667 298.909090909091 ) " />
                  <path fill="#265176" stroke="#265176" stroke-opacity="0.0" stroke-width="0.0" d="M122.75802246451667 270.5217328857097 L122.75802246451667 270.5217328857097 L127.15802246451666 278.1427564390127 L118.35802246451667 278.1427564390127 Z" transform="rotate(0.0 122.75802246451667 275.55681818181824 ) " />
                  <path fill="#214769" stroke="#214769" stroke-opacity="0.0" stroke-width="0.0" d="M185.4810996361675 328.9024147038915 L185.4810996361675 328.9024147038915 L189.8810996361675 336.5234382571945 L181.0810996361675 336.5234382571945 Z" transform="rotate(0.0 185.4810996361675 333.93750000000006 ) " />
                  <path fill="#214769" stroke="#214769" stroke-opacity="0.0" stroke-width="0.0" d="M185.4810996361675 305.5501419766188 L185.4810996361675 305.5501419766188 L189.8810996361675 313.17116552992184 L181.0810996361675 313.17116552992184 Z" transform="rotate(0.0 185.4810996361675 310.58522727272737 ) " />
                  <path fill="#214769" stroke="#214769" stroke-opacity="0.0" stroke-width="0.0" d="M239.24373721186825 317.2262783402552 L239.24373721186825 317.2262783402552 L243.64373721186826 324.8473018935582 L234.84373721186824 324.8473018935582 Z" transform="rotate(0.0 239.24373721186825 322.26136363636374 ) " />
                  <path fill="#244c6f" stroke="#244c6f" stroke-opacity="0.0" stroke-width="0.0" d="M239.24373721186825 293.87400561298244 L239.24373721186825 293.87400561298244 L243.64373721186826 301.49502916628546 L234.84373721186824 301.49502916628546 Z" transform="rotate(0.0 239.24373721186825 298.909090909091 ) " />
                  <circle fill="#306591" stroke="#306591" stroke-opacity="0.0" stroke-width="0.0" cx="60.034945292865814" cy="193.82386363636368" r="4.4" />
                  <circle fill="#2b5b83" stroke="#2b5b83" stroke-opacity="0.0" stroke-width="0.0" cx="60.034945292865814" cy="228.8522727272728" r="4.4" />
                  <circle fill="#306591" stroke="#306591" stroke-opacity="0.0" stroke-width="0.0" cx="60.034945292865814" cy="193.82386363636368" r="4.4" />
                  <circle fill="#336a98" stroke="#336a98" stroke-opacity="0.0" stroke-width="0.0" cx="60.034945292865814" cy="193.82386363636368" r="4.4" />
                  <circle fill="#265176" stroke="#265176" stroke-opacity="0.0" stroke-width="0.0" cx="131.71846206046678" cy="252.2045454545455" r="4.4" />
                  <circle fill="#50a6e8" stroke="#50a6e8" stroke-opacity="0.0" stroke-width="0.0" cx="51.07450569691568" cy="18.681818181818244" r="4.4" />
                  <circle fill="#306591" stroke="#306591" stroke-opacity="0.0" stroke-width="0.0" cx="60.034945292865814" cy="193.82386363636368" r="4.4" />
                  <circle fill="#2b5b83" stroke="#2b5b83" stroke-opacity="0.0" stroke-width="0.0" cx="60.034945292865814" cy="228.8522727272728" r="4.4" />
                  <circle fill="#336a98" stroke="#336a98" stroke-opacity="0.0" stroke-width="0.0" cx="60.034945292865814" cy="193.82386363636368" r="4.4" />
                  <circle fill="#306591" stroke="#306591" stroke-opacity="0.0" stroke-width="0.0" cx="60.034945292865814" cy="193.82386363636368" r="4.4" />
                  <circle fill="#306591" stroke="#306591" stroke-opacity="0.0" stroke-width="0.0" cx="104.83714327261643" cy="193.82386363636368" r="4.4" />
                  <circle fill="#306591" stroke="#306591" stroke-opacity="0.0" stroke-width="0.0" cx="104.83714327261643" cy="193.82386363636368" r="4.4" />
                  <circle fill="#244c6f" stroke="#244c6f" stroke-opacity="0.0" stroke-width="0.0" cx="131.71846206046678" cy="263.88068181818187" r="4.4" />
                  <circle fill="#265176" stroke="#265176" stroke-opacity="0.0" stroke-width="0.0" cx="131.71846206046678" cy="252.2045454545455" r="4.4" />
                  <circle fill="#56b1f7" stroke="#56b1f7" stroke-opacity="0.0" stroke-width="0.0" cx="51.07450569691568" cy="18.681818181818244" r="4.4" />
                  <circle fill="#458fca" stroke="#458fca" stroke-opacity="0.0" stroke-width="0.0" cx="51.07450569691568" cy="53.710227272727366" r="4.4" />
                  <circle fill="#306591" stroke="#306591" stroke-opacity="0.0" stroke-width="0.0" cx="60.034945292865814" cy="193.82386363636368" r="4.4" />
                  <circle fill="#2b5b83" stroke="#2b5b83" stroke-opacity="0.0" stroke-width="0.0" cx="60.034945292865814" cy="228.8522727272728" r="4.4" />
                  <circle fill="#2e608a" stroke="#2e608a" stroke-opacity="0.0" stroke-width="0.0" cx="104.83714327261643" cy="205.50000000000006" r="4.4" />
                  <circle fill="#2e608a" stroke="#2e608a" stroke-opacity="0.0" stroke-width="0.0" cx="104.83714327261643" cy="193.82386363636368" r="4.4" />
                  <circle fill="#306591" stroke="#306591" stroke-opacity="0.0" stroke-width="0.0" cx="42.11406610096557" cy="193.82386363636368" r="4.4" />
                  <circle fill="#29567d" stroke="#29567d" stroke-opacity="0.0" stroke-width="0.0" cx="42.11406610096557" cy="193.82386363636368" r="4.4" />
                  <circle fill="#2b5b83" stroke="#2b5b83" stroke-opacity="0.0" stroke-width="0.0" cx="60.034945292865814" cy="205.50000000000006" r="4.4" />
                  <circle fill="#306591" stroke="#306591" stroke-opacity="0.0" stroke-width="0.0" cx="60.034945292865814" cy="193.82386363636368" r="4.4" />
                  <circle fill="#244c6f" stroke="#244c6f" stroke-opacity="0.0" stroke-width="0.0" cx="131.71846206046678" cy="228.8522727272728" r="4.4" />
                  <circle fill="#29567d" stroke="#29567d" stroke-opacity="0.0" stroke-width="0.0" cx="131.71846206046678" cy="228.8522727272728" r="4.4" />
                  <circle fill="#265176" stroke="#265176" stroke-opacity="0.0" stroke-width="0.0" cx="203.40197882806777" cy="228.8522727272728" r="4.4" />
                </g>
              </g>
            </g>
          </g>
        </g>
        <defs>
          <clipPath id="xXxprefixXx1">
            <rect x="21.961210910936405" y="0.0" width="532.2501119994372" height="411.0">
            </rect>
          </clipPath>
        </defs>
      </g>
      <g>
      </g>
    </g>
    <g transform="translate(16.0 212.0 ) rotate(-90.0 ) ">
      <text class="axis-title-y" y="0.0" text-anchor="middle">
        <tspan>hwy</tspan>
      </text>
    </g>
    <g transform="translate(317.586266910655 463.0 ) ">
      <text class="axis-title-x" y="0.0" text-anchor="middle">
        <tspan>displ</tspan>
      </text>
    </g>
    <g transform="translate(595.2113229103737 82.5 ) ">
      <rect x="0.0" y="0.0" height="147.5" width="109.78867708962632" stroke="rgb(187,187,187)" stroke-opacity="1.0" stroke-width="0.0" fill="rgb(25,25,28)" fill-opacity="1.0">
      </rect>
      <g transform="translate(5.0 5.0 ) ">
        <g transform="translate(0.0 12.0 ) ">
          <text class="legend-title" y="0.0">
            <tspan>City mileage</tspan>
          </text>
        </g>
        <g transform="translate(0.0 22.5 ) ">
          <g>
            <rect x="0.0" y="0.0" height="115.0" width="23.0" stroke-width="0.0" fill="rgb(84,173,242)" fill-opacity="1.0">
            </rect>
            <rect x="0.0" y="7.55" height="107.45" width="23.0" stroke-width="0.0" fill="rgb(81,166,232)" fill-opacity="1.0">
            </rect>
            <rect x="0.0" y="13.1" height="101.9" width="23.0" stroke-width="0.0" fill="rgb(77,159,222)" fill-opacity="1.0">
            </rect>
            <rect x="0.0" y="18.65" height="96.35" width="23.0" stroke-width="0.0" fill="rgb(73,151,213)" fill-opacity="1.0">
            </rect>
            <rect x="0.0" y="24.2" height="90.8" width="23.0" stroke-width="0.0" fill="rgb(70,144,203)" fill-opacity="1.0">
            </rect>
            <rect x="0.0" y="29.75" height="85.25" width="23.0" stroke-width="0.0" fill="rgb(66,137,194)" fill-opacity="1.0">
            </rect>
            <rect x="0.0" y="35.3" height="79.7" width="23.0" stroke-width="0.0" fill="rgb(63,130,184)" fill-opacity="1.0">
            </rect>
            <rect x="0.0" y="40.849999999999994" height="74.15" width="23.0" stroke-width="0.0" fill="rgb(59,123,175)" fill-opacity="1.0">
            </rect>
            <rect x="0.0" y="46.39999999999999" height="68.60000000000001" width="23.0" stroke-width="0.0" fill="rgb(56,116,166)" fill-opacity="1.0">
            </rect>
            <rect x="0.0" y="51.94999999999999" height="63.05000000000001" width="23.0" stroke-width="0.0" fill="rgb(52,110,156)" fill-opacity="1.0">
            </rect>
            <rect x="0.0" y="57.499999999999986" height="57.500000000000014" width="23.0" stroke-width="0.0" fill="rgb(49,103,147)" fill-opacity="1.0">
            </rect>
            <rect x="0.0" y="63.04999999999998" height="51.95000000000002" width="23.0" stroke-width="0.0" fill="rgb(46,96,138)" fill-opacity="1.0">
            </rect>
            <rect x="0.0" y="68.59999999999998" height="46.40000000000002" width="23.0" stroke-width="0.0" fill="rgb(42,90,130)" fill-opacity="1.0">
            </rect>
            <rect x="0.0" y="74.14999999999998" height="40.85000000000002" width="23.0" stroke-width="0.0" fill="rgb(39,83,121)" fill-opacity="1.0">
            </rect>
            <rect x="0.0" y="79.69999999999997" height="35.300000000000026" width="23.0" stroke-width="0.0" fill="rgb(36,77,112)" fill-opacity="1.0">
            </rect>
            <rect x="0.0" y="85.24999999999997" height="29.75000000000003" width="23.0" stroke-width="0.0" fill="rgb(33,70,104)" fill-opacity="1.0">
            </rect>
            <rect x="0.0" y="90.79999999999997" height="24.20000000000003" width="23.0" stroke-width="0.0" fill="rgb(30,64,95)" fill-opacity="1.0">
            </rect>
            <rect x="0.0" y="96.34999999999997" height="18.650000000000034" width="23.0" stroke-width="0.0" fill="rgb(27,58,87)" fill-opacity="1.0">
            </rect>
            <rect x="0.0" y="101.89999999999996" height="13.100000000000037" width="23.0" stroke-width="0.0" fill="rgb(24,52,79)" fill-opacity="1.0">
            </rect>
            <rect x="0.0" y="107.44999999999996" height="7.55000000000004" width="23.0" stroke-width="0.0" fill="rgb(20,46,71)" fill-opacity="1.0">
            </rect>
            <line x1="0.0" y1="108.73076923076921" x2="4.6" y2="108.73076923076921" stroke-width="1.0" stroke="rgb(25,25,28)" stroke-opacity="1.0">
            </line>
            <line x1="18.4" y1="108.73076923076921" x2="23.0" y2="108.73076923076921" stroke-width="1.0" stroke="rgb(25,25,28)" stroke-opacity="1.0">
            </line>
            <g transform="translate(26.9903027277341 113.28076923076921 ) ">
              <text class="legend-item" y="0.0">
                <tspan>10</tspan>
              </text>
            </g>
            <line x1="0.0" y1="87.38461538461537" x2="4.6" y2="87.38461538461537" stroke-width="1.0" stroke="rgb(25,25,28)" stroke-opacity="1.0">
            </line>
            <line x1="18.4" y1="87.38461538461537" x2="23.0" y2="87.38461538461537" stroke-width="1.0" stroke="rgb(25,25,28)" stroke-opacity="1.0">
            </line>
            <g transform="translate(26.9903027277341 91.93461538461537 ) ">
              <text class="legend-item" y="0.0">
                <tspan>15</tspan>
              </text>
            </g>
            <line x1="0.0" y1="66.03846153846152" x2="4.6" y2="66.03846153846152" stroke-width="1.0" stroke="rgb(25,25,28)" stroke-opacity="1.0">
            </line>
            <line x1="18.4" y1="66.03846153846152" x2="23.0" y2="66.03846153846152" stroke-width="1.0" stroke="rgb(25,25,28)" stroke-opacity="1.0">
            </line>
            <g transform="translate(26.9903027277341 70.58846153846152 ) ">
              <text class="legend-item" y="0.0">
                <tspan>20</tspan>
              </text>
            </g>
            <line x1="0.0" y1="44.69230769230768" x2="4.6" y2="44.69230769230768" stroke-width="1.0" stroke="rgb(25,25,28)" stroke-opacity="1.0">
            </line>
            <line x1="18.4" y1="44.69230769230768" x2="23.0" y2="44.69230769230768" stroke-width="1.0" stroke="rgb(25,25,28)" stroke-opacity="1.0">
            </line>
            <g transform="translate(26.9903027277341 49.242307692307676 ) ">
              <text class="legend-item" y="0.0">
                <tspan>25</tspan>
              </text>
            </g>
            <line x1="0.0" y1="23.34615384615384" x2="4.6" y2="23.34615384615384" stroke-width="1.0" stroke="rgb(25,25,28)" stroke-opacity="1.0">
            </line>
            <line x1="18.4" y1="23.34615384615384" x2="23.0" y2="23.34615384615384" stroke-width="1.0" stroke="rgb(25,25,28)" stroke-opacity="1.0">
            </line>
            <g transform="translate(26.9903027277341 27.896153846153837 ) ">
              <text class="legend-item" y="0.0">
                <tspan>30</tspan>
              </text>
            </g>
            <line x1="0.0" y1="1.9999999999999716" x2="4.6" y2="1.9999999999999716" stroke-width="1.0" stroke="rgb(25,25,28)" stroke-opacity="1.0">
            </line>
            <line x1="18.4" y1="1.9999999999999716" x2="23.0" y2="1.9999999999999716" stroke-width="1.0" stroke="rgb(25,25,28)" stroke-opacity="1.0">
            </line>
            <g transform="translate(26.9903027277341 6.5499999999999705 ) ">
              <text class="legend-item" y="0.0">
                <tspan>35</tspan>
              </text>
            </g>
          </g>
        </g>
      </g>
    </g>
    <g transform="translate(595.2113229103737 240.0 ) ">
      <rect x="0.0" y="0.0" height="101.5" width="92.57207845226156" stroke="rgb(187,187,187)" stroke-opacity="1.0" stroke-width="0.0" fill="rgb(25,25,28)" fill-opacity="1.0">
      </rect>
      <g transform="translate(5.0 5.0 ) ">
        <g transform="translate(0.0 12.0 ) ">
          <text class="legend-title" y="0.0">
            <tspan>Drive type</tspan>
          </text>
        </g>
        <g transform="translate(0.0 22.5 ) ">
          <g transform="">
            <g>
              <g transform="translate(1.0 1.0 ) ">
                <g>
                  <g >
                    <circle fill="#bbbbbb" stroke="#bbbbbb" stroke-opacity="0.0" stroke-width="0.0" cx="10.5" cy="10.5" r="5.5" />
                  </g>
                </g>
              </g>
            </g>
            <g transform="translate(26.9903027277341 16.05 ) ">
              <text class="legend-item" y="0.0">
                <tspan>f</tspan>
              </text>
            </g>
          </g>
          <g transform="translate(0.0 23.0 ) ">
            <g>
              <g transform="translate(1.0 1.0 ) ">
                <g>
                  <g >
                    <path fill="#bbbbbb" stroke="#bbbbbb" stroke-opacity="0.0" stroke-width="0.0" d="M10.5 5.736860279185588 L10.5 5.736860279185588 L16.0 15.263139720814412 L5.0 15.263139720814412 Z" transform="rotate(0.0 10.5 10.5 ) " />
                  </g>
                </g>
              </g>
            </g>
            <g transform="translate(26.9903027277341 16.05 ) ">
              <text class="legend-item" y="0.0">
                <tspan>4</tspan>
              </text>
            </g>
          </g>
          <g transform="translate(0.0 46.0 ) ">
            <g>
              <g transform="translate(1.0 1.0 ) ">
                <g>
                  <g >
                    <rect fill="#bbbbbb" stroke="#bbbbbb" stroke-opacity="0.0" stroke-width="0.0" x="5.0" y="5.0" height="11.0" width="11.0" transform="rotate(0.0 10.5 10.5 ) " />
                  </g>
                </g>
              </g>
            </g>
            <g transform="translate(26.9903027277341 16.05 ) ">
              <text class="legend-item" y="0.0">
                <tspan>r</tspan>
              </text>
            </g>
          </g>
        </g>
      </g>
    </g>
    <path fill="rgb(0,0,0)" fill-opacity="0.0" stroke="rgb(187,187,187)" stroke-opacity="1.0" stroke-width="0.0" d="M0.0 0.0 L0.0 470.0 L705.0 470.0 L705.0 0.0 Z" pointer-events="none">
    </path>
  </g>
  <g id="xXxprefixXx2">
  </g>
</svg>