<svg xmlns="http://www.w3.org/2000/svg" xmlns:xlink="http://www.w3.org/1999/xlink" display="block" class="plt-container" width="705.0" height="313.0">
  <style type="text/css">
  .plt-container {
   font-family: Lucida Grande, sans-serif;
   user-select: none;
   -webkit-user-select: none;
   -moz-user-select: none;
   -ms-user-select: none;
}
text {
   text-rendering: optimizeLegibility;
}
#xXxprefixXx0 .plot-title {
fill: #474747;
font-weight: normal;
   font-style: normal;font-family: Lucida Grande, sans-serif;
font-size: 16.0px;

}
#xXxprefixXx0 .plot-subtitle {
fill: #474747;
font-weight: normal;
   font-style: normal;font-family: Lucida Grande, sans-serif;
font-size: 15.0px;

}
#xXxprefixXx0 .plot-caption {
fill: #474747;
font-weight: normal;
   font-style: normal;font-family: Lucida Grande, sans-serif;
font-size: 13.0px;

}
#xXxprefixXx0 .hyperlink-element {
fill: #118ed8;
font-weight: normal;
   font-style: normal;
}
#xXxprefixXx0 .legend-title {
fill: #474747;
font-weight: normal;
   font-style: normal;font-family: Lucida Grande, sans-serif;
font-size: 15.0px;

}
#xXxprefixXx0 .legend-item {
fill: #474747;
font-weight: normal;
   font-style: normal;font-family: Lucida Grande, sans-serif;
font-size: 13.0px;

}
#xXxprefixXx0 .axis-title-x {
fill: #474747;
font-weight: normal;
   font-style: normal;font-family: Lucida Grande, sans-serif;
font-size: 15.0px;

}
#xXxprefixXx0 .axis-text-x {
fill: #474747;
font-weight: normal;
   font-style: normal;font-family: Lucida Grande, sans-serif;
font-size: 13.0px;

}
#xXxprefixXx2 .axis-tooltip-text-x {
fill: #ffffff;
font-weight: normal;
   font-style: normal;font-family: Lucida Grande, sans-serif;
font-size: 13.0px;

}
#xXxprefixXx0 .axis-title-y {
fill: #474747;
font-weight: normal;
   font-style: normal;font-family: Lucida Grande, sans-serif;
font-size: 15.0px;

}
#xXxprefixXx0 .axis-text-y {
fill: #474747;
font-weight: normal;
   font-style: normal;font-family: Lucida Grande, sans-serif;
font-size: 13.0px;

}
#xXxprefixXx2 .axis-tooltip-text-y {
fill: #ffffff;
font-weight: normal;
   font-style: normal;font-family: Lucida Grande, sans-serif;
font-size: 13.0px;

}
#xXxprefixXx0 .facet-strip-text-x {
fill: #474747;
font-weight: normal;
   font-style: normal;font-family: Lucida Grande, sans-serif;
font-size: 13.0px;

}
#xXxprefixXx0 .facet-strip-text-y {
fill: #474747;
font-weight: normal;
   font-style: normal;font-family: Lucida Grande, sans-serif;
font-size: 13.0px;

}
#xXxprefixXx2 .tooltip-text {
fill: #474747;
font-weight: normal;
   font-style: normal;font-family: Lucida Grande, sans-serif;
font-size: 13.0px;

}
#xXxprefixXx2 .tooltip-title {
fill: #474747;
font-weight: bold;
   font-style: normal;font-family: Lucida Grande, sans-serif;
font-size: 13.0px;

}
#xXxprefixXx2 .tooltip-label {
fill: #474747;
font-weight: bold;
   font-style: normal;font-family: Lucida Grande, sans-serif;
font-size: 13.0px;

}

  </style>
  <g id="xXxprefixXx0">
    <path fill-rule="evenodd" fill="rgb(255,255,255)" fill-opacity="1.0" d="M0.0 0.0 L0.0 313.0 L705.0 313.0 L705.0 0.0 Z">
    </path>
    <g transform="translate(29.5 6.5 ) ">
      <g>
        <g transform="translate(21.961210910936405 0.0 ) ">
          <g>
            <line x1="70.67536194136733" y1="0.0" x2="70.67536194136733" y2="254.0" stroke="rgb(233,233,233)" stroke-opacity="1.0" stroke-width="1.0" fill="none">
            </line>
            <line x1="153.2043777250965" y1="0.0" x2="153.2043777250965" y2="254.0" stroke="rgb(233,233,233)" stroke-opacity="1.0" stroke-width="1.0" fill="none">
            </line>
            <line x1="235.8464469551045" y1="0.0" x2="235.8464469551045" y2="254.0" stroke="rgb(233,233,233)" stroke-opacity="1.0" stroke-width="1.0" fill="none">
            </line>
            <line x1="318.3754627388337" y1="0.0" x2="318.3754627388337" y2="254.0" stroke="rgb(233,233,233)" stroke-opacity="1.0" stroke-width="1.0" fill="none">
            </line>
            <line x1="401.0175319688417" y1="0.0" x2="401.0175319688417" y2="254.0" stroke="rgb(233,233,233)" stroke-opacity="1.0" stroke-width="1.0" fill="none">
            </line>
            <line x1="483.54654775257086" y1="0.0" x2="483.54654775257086" y2="254.0" stroke="rgb(233,233,233)" stroke-opacity="1.0" stroke-width="1.0" fill="none">
            </line>
            <line x1="566.1886169825789" y1="0.0" x2="566.1886169825789" y2="254.0" stroke="rgb(233,233,233)" stroke-opacity="1.0" stroke-width="1.0" fill="none">
            </line>
          </g>
        </g>
        <g transform="translate(21.961210910936405 0.0 ) ">
          <g>
            <line x1="0.0" y1="251.97656982193064" x2="647.0387890890636" y2="251.97656982193064" stroke="rgb(233,233,233)" stroke-opacity="1.0" stroke-width="1.0" fill="none">
            </line>
            <line x1="0.0" y1="192.46391752577318" x2="647.0387890890636" y2="192.46391752577318" stroke="rgb(233,233,233)" stroke-opacity="1.0" stroke-width="1.0" fill="none">
            </line>
            <line x1="0.0" y1="132.9512652296157" x2="647.0387890890636" y2="132.9512652296157" stroke="rgb(233,233,233)" stroke-opacity="1.0" stroke-width="1.0" fill="none">
            </line>
            <line x1="0.0" y1="73.43861293345824" x2="647.0387890890636" y2="73.43861293345824" stroke="rgb(233,233,233)" stroke-opacity="1.0" stroke-width="1.0" fill="none">
            </line>
            <line x1="0.0" y1="13.925960637300761" x2="647.0387890890636" y2="13.925960637300761" stroke="rgb(233,233,233)" stroke-opacity="1.0" stroke-width="1.0" fill="none">
            </line>
          </g>
        </g>
      </g>
      <g clip-path="url(#xXxprefixXx1)" clip-bounds-jfx="[rect (21.961210910936405, 0.0), (647.0387890890636, 254.0)]">
        <g transform="translate(21.961210910936405 0.0 ) ">
          <g>
            <g>
              <g>
                <path d="M29.41085404950286 242.45454545454544 L29.41085404950286 242.45454545454544 L32.9155108841544 238.883786316776 L36.081007379968696 232.93252108716024 L39.58566421462024 241.26429240862228 L42.9772676029927 236.5032802249297 L46.48192443764401 240.07403936269912 L49.87352782601647 230.55201499531395 L53.37818466066801 229.3617619493908 L56.88284149531955 225.79100281162135 L60.27444488369201 224.6007497656982 L63.779101718343554 219.8397375820056 L67.17070510671579 213.88847235238987 L70.67536194136733 211.50796626054355 L74.18001877601887 212.69821930646668 L77.34551527183316 211.50796626054355 L80.8501721064847 205.5567010309278 L84.24177549485717 198.4151827553889 L87.7464323295087 180.56138706654167 L91.13803571788094 205.5567010309278 L94.64269255253248 204.36644798500467 L98.14734938718402 198.4151827553889 L101.53895277555648 197.22492970946575 L105.04360961020802 200.79568884723523 L108.43521299858048 197.22492970946575 L111.93986983323202 197.22492970946575 L115.44452666788334 198.4151827553889 L118.61002316369763 196.03467666354263 L122.11467999834917 190.08341143392687 L125.50628338672163 193.6541705716963 L129.01094022137318 174.61012183692594 L132.40254360974563 188.8931583880037 L135.90720044439718 191.27366447985003 L139.4118572790485 190.08341143392687 L142.80346066742095 187.70290534208056 L146.3081175020725 188.8931583880037 L149.69972089044495 187.70290534208056 L153.2043777250965 185.3223992502343 L156.70903455974803 190.08341143392687 L159.98758450184118 190.08341143392687 L163.49224133649273 198.4151827553889 L166.88384472486518 193.6541705716963 L170.38850155951673 180.56138706654167 L173.78010494788919 205.5567010309278 L177.28476178254073 201.98594189315838 L180.78941861719227 197.22492970946575 L184.1810220055645 198.4151827553889 L187.68567884021604 196.03467666354263 L191.0772822285885 198.4151827553889 L194.58193906324004 199.60543580131207 L198.08659589789158 201.98594189315838 L201.25209239370588 200.79568884723523 L204.75674922835742 204.36644798500467 L208.14835261672965 203.1761949390815 L211.6530094513812 204.36644798500467 L215.04461283975365 206.74695407685095 L218.5492696744052 201.98594189315838 L222.05392650905674 211.50796626054355 L225.4455298974292 209.12746016869727 L228.95018673208074 210.31771321462043 L232.34179012045297 207.9372071227741 L235.8464469551045 209.12746016869727 L239.35110378975605 203.1761949390815 L242.51660028557035 207.9372071227741 L246.0212571202219 211.50796626054355 L249.41286050859435 210.31771321462043 L252.9175173432459 224.6007497656982 L256.3091207316181 216.26897844423615 L259.81377756626966 211.50796626054355 L263.3184344009212 216.26897844423615 L266.71003778929366 217.4592314901593 L270.2146946239452 212.69821930646668 L273.60629801231767 222.22024367385188 L277.110954846969 212.69821930646668 L280.6156116816205 210.31771321462043 L283.7811081774348 203.1761949390815 L287.28576501208636 209.12746016869727 L290.6773684004588 213.88847235238987 L294.18202523511036 219.8397375820056 L297.5736286234828 207.9372071227741 L301.07828545813413 206.74695407685095 L304.5829422927857 207.9372071227741 L307.97454568115813 211.50796626054355 L311.4792025158097 209.12746016869727 L314.87080590418213 211.50796626054355 L318.3754627388337 204.36644798500467 L321.8801195734852 207.9372071227741 L325.15866951557837 207.9372071227741 L328.6633263502299 199.60543580131207 L332.05492973860237 217.4592314901593 L335.5595865732539 204.36644798500467 L338.95118996162637 196.03467666354263 L342.4558467962779 196.03467666354263 L345.96050363092945 190.08341143392687 L349.3521070193017 187.70290534208056 L352.8567638539532 194.84442361761944 L356.2483672423257 186.51265229615743 L359.7530240769772 184.13214620431114 L363.25768091162877 172.22961574507963 L366.42317740744306 165.08809746954074 L369.9278342420944 155.56607310215554 L373.31943763046684 142.4732895970009 L376.8240944651184 106.76569821930644 L380.21569785349084 121.04873477038421 L383.7203546881424 117.47797563261477 L387.2250115227939 99.62417994376753 L390.6166149111664 86.53139643861292 L394.1212717458177 75.81911902530453 L397.51287513419015 72.24835988753509 L401.0175319688417 73.43861293345824 L404.52218880349324 74.6288659793814 L407.68768529930753 68.67760074976567 L411.1923421339591 48.44329896907209 L414.58394552233153 46.06279287722583 L418.08860235698285 11.545454545454504 L421.4802057453553 46.06279287722583 L424.98486258000685 61.53608247422676 L428.4895194146584 69.8678537956888 L431.88112280303085 59.155576382380474 L435.3857796376824 61.53608247422676 L438.77738302605485 50.8238050609184 L442.28203986070616 55.584817244611 L445.7866966953577 60.345829428303574 L448.952193191172 55.584817244611 L452.45685002582354 62.72633552014992 L455.848453414196 54.39456419868782 L459.35311024884754 44.872539831302674 L462.74471363722 49.633552014995246 L466.2493704718713 44.872539831302674 L469.75402730652286 49.633552014995246 L473.1456306948953 66.29709465791933 L476.65028752954686 63.916588566073045 L480.0418909179193 67.48734770384249 L483.54654775257086 63.916588566073045 L487.0512045872222 77.00937207122769 L490.32975452931555 82.96063730084344 L493.8344113639671 84.15089034676657 L497.22601475233955 74.6288659793814 L500.7306715869911 68.67760074976567 L504.12227497536355 103.19493908153697 L507.6269318100151 92.48266166822864 L511.1315886446664 87.72164948453602 L514.5231920330389 74.6288659793814 L518.0278488676904 90.10215557638233 L521.4194522560629 100.81443298969069 L524.9241090907144 123.4292408622305 L528.428765925366 106.76569821930644 L531.5942624211802 102.00468603561382 L535.0989192558316 107.95595126522954 L538.490522644204 107.95595126522954 L541.9951794788556 109.14620431115273 L545.386782867228 118.66822867853793 L548.8914397018796 115.09746954076846 L552.3960965365311 115.09746954076846 L555.7876999249036 117.47797563261477 L559.2923567595549 107.95595126522954 L562.6839601479273 105.57544517338326 L566.1886169825789 128.1902530459231 L569.6932738172304 122.23898781630737 L572.8587703130447 123.4292408622305 L576.3634271476963 124.61949390815366 L579.7550305360685 137.7122774133083 L583.25968737072 147.2343017806935 L586.6512907590925 155.56607310215554 L590.155947593744 157.94657919400183 L593.6606044283956 151.9953139643861 L597.052207816768 149.6148078725398 L600.5568646514196 156.7563261480787 L603.9484680397918 157.94657919400183 L607.4531248744433 154.3758200562324 L610.9577817090949 157.94657919400183 L614.1232782049092 168.65885660731018 L617.6279350395607 174.61012183692594 " fill="none" stroke-width="1.6500000000000001" stroke="rgb(71,71,71)" stroke-opacity="1.0">
                </path>
              </g>
            </g>
          </g>
        </g>
        <defs>
          <clipPath id="xXxprefixXx1">
            <rect x="21.961210910936405" y="0.0" width="647.0387890890636" height="254.0">
            </rect>
          </clipPath>
        </defs>
      </g>
      <g>
        <g transform="translate(21.961210910936405 254.0 ) ">
          <g transform="translate(70.67536194136733 0.0 ) ">
            <line stroke-width="1.0" stroke="rgb(71,71,71)" stroke-opacity="1.0" x2="0.0" y2="4.0">
            </line>
            <g transform="translate(0.0 7.0 ) ">
              <text class="axis-text-x" text-anchor="middle" dy="0.7em">
                <tspan>2002</tspan>
              </text>
            </g>
          </g>
          <g transform="translate(153.2043777250965 0.0 ) ">
            <line stroke-width="1.0" stroke="rgb(71,71,71)" stroke-opacity="1.0" x2="0.0" y2="4.0">
            </line>
            <g transform="translate(0.0 7.0 ) ">
              <text class="axis-text-x" text-anchor="middle" dy="0.7em">
                <tspan>2004</tspan>
              </text>
            </g>
          </g>
          <g transform="translate(235.8464469551045 0.0 ) ">
            <line stroke-width="1.0" stroke="rgb(71,71,71)" stroke-opacity="1.0" x2="0.0" y2="4.0">
            </line>
            <g transform="translate(0.0 7.0 ) ">
              <text class="axis-text-x" text-anchor="middle" dy="0.7em">
                <tspan>2006</tspan>
              </text>
            </g>
          </g>
          <g transform="translate(318.3754627388337 0.0 ) ">
            <line stroke-width="1.0" stroke="rgb(71,71,71)" stroke-opacity="1.0" x2="0.0" y2="4.0">
            </line>
            <g transform="translate(0.0 7.0 ) ">
              <text class="axis-text-x" text-anchor="middle" dy="0.7em">
                <tspan>2008</tspan>
              </text>
            </g>
          </g>
          <g transform="translate(401.0175319688417 0.0 ) ">
            <line stroke-width="1.0" stroke="rgb(71,71,71)" stroke-opacity="1.0" x2="0.0" y2="4.0">
            </line>
            <g transform="translate(0.0 7.0 ) ">
              <text class="axis-text-x" text-anchor="middle" dy="0.7em">
                <tspan>2010</tspan>
              </text>
            </g>
          </g>
          <g transform="translate(483.54654775257086 0.0 ) ">
            <line stroke-width="1.0" stroke="rgb(71,71,71)" stroke-opacity="1.0" x2="0.0" y2="4.0">
            </line>
            <g transform="translate(0.0 7.0 ) ">
              <text class="axis-text-x" text-anchor="middle" dy="0.7em">
                <tspan>2012</tspan>
              </text>
            </g>
          </g>
          <g transform="translate(566.1886169825789 0.0 ) ">
            <line stroke-width="1.0" stroke="rgb(71,71,71)" stroke-opacity="1.0" x2="0.0" y2="4.0">
            </line>
            <g transform="translate(0.0 7.0 ) ">
              <text class="axis-text-x" text-anchor="middle" dy="0.7em">
                <tspan>2014</tspan>
              </text>
            </g>
          </g>
          <line x1="0.0" y1="0.0" x2="647.0387890890636" y2="0.0" stroke-width="1.0" stroke="rgb(71,71,71)" stroke-opacity="1.0">
          </line>
        </g>
        <g transform="translate(21.961210910936405 0.0 ) ">
          <g transform="translate(0.0 251.97656982193064 ) ">
            <g transform="translate(-3.0 0.0 ) ">
              <text class="axis-text-y" text-anchor="end" dy="0.35em">
                <tspan>5</tspan>
              </text>
            </g>
          </g>
          <g transform="translate(0.0 192.46391752577318 ) ">
            <g transform="translate(-3.0 0.0 ) ">
              <text class="axis-text-y" text-anchor="end" dy="0.35em">
                <tspan>10</tspan>
              </text>
            </g>
          </g>
          <g transform="translate(0.0 132.9512652296157 ) ">
            <g transform="translate(-3.0 0.0 ) ">
              <text class="axis-text-y" text-anchor="end" dy="0.35em">
                <tspan>15</tspan>
              </text>
            </g>
          </g>
          <g transform="translate(0.0 73.43861293345824 ) ">
            <g transform="translate(-3.0 0.0 ) ">
              <text class="axis-text-y" text-anchor="end" dy="0.35em">
                <tspan>20</tspan>
              </text>
            </g>
          </g>
          <g transform="translate(0.0 13.925960637300761 ) ">
            <g transform="translate(-3.0 0.0 ) ">
              <text class="axis-text-y" text-anchor="end" dy="0.35em">
                <tspan>25</tspan>
              </text>
            </g>
          </g>
        </g>
      </g>
    </g>
    <g transform="translate(16.0 133.5 ) rotate(-90.0 ) ">
      <text class="axis-title-y" y="0.0" text-anchor="middle">
        <tspan>unemployment rate</tspan>
      </text>
    </g>
    <g transform="translate(374.9806054554682 306.0 ) ">
      <text class="axis-title-x" y="0.0" text-anchor="middle">
        <tspan>date</tspan>
      </text>
    </g>
    <path fill="rgb(0,0,0)" fill-opacity="0.0" stroke="rgb(71,71,71)" stroke-opacity="1.0" stroke-width="0.0" d="M0.0 0.0 L0.0 313.0 L705.0 313.0 L705.0 0.0 Z" pointer-events="none">
    </path>
  </g>
  <g id="xXxprefixXx2">
  </g>
</svg>