<svg xmlns="http://www.w3.org/2000/svg" xmlns:xlink="http://www.w3.org/1999/xlink" display="block" class="plt-container" width="705.0" height="352.0">
  <style type="text/css">
  .plt-container {
   font-family: Lucida Grande, sans-serif;
   user-select: none;
   -webkit-user-select: none;
   -moz-user-select: none;
   -ms-user-select: none;
}
text {
   text-rendering: optimizeLegibility;
}
#xXxprefixXx0 .plot-title {
fill: #474747;
font-weight: normal;
   font-style: normal;font-family: Lucida Grande, sans-serif;
font-size: 16.0px;

}
#xXxprefixXx0 .plot-subtitle {
fill: #474747;
font-weight: normal;
   font-style: normal;font-family: Lucida Grande, sans-serif;
font-size: 15.0px;

}
#xXxprefixXx0 .plot-caption {
fill: #474747;
font-weight: normal;
   font-style: normal;font-family: Lucida Grande, sans-serif;
font-size: 13.0px;

}
#xXxprefixXx0 .hyperlink-element {
fill: #118ed8;
font-weight: normal;
   font-style: normal;
}
#xXxprefixXx0 .legend-title {
fill: #474747;
font-weight: normal;
   font-style: normal;font-family: Lucida Grande, sans-serif;
font-size: 15.0px;

}
#xXxprefixXx0 .legend-item {
fill: #474747;
font-weight: normal;
   font-style: normal;font-family: Lucida Grande, sans-serif;
font-size: 13.0px;

}
#xXxprefixXx0 .axis-title-x {
fill: #474747;
font-weight: normal;
   font-style: normal;font-family: Lucida Grande, sans-serif;
font-size: 15.0px;

}
#xXxprefixXx0 .axis-text-x {
fill: #474747;
font-weight: normal;
   font-style: normal;font-family: Lucida Grande, sans-serif;
font-size: 13.0px;

}
#xXxprefixXx2 .axis-tooltip-text-x {
fill: #ffffff;
font-weight: normal;
   font-style: normal;font-family: Lucida Grande, sans-serif;
font-size: 13.0px;

}
#xXxprefixXx0 .axis-title-y {
fill: #474747;
font-weight: normal;
   font-style: normal;font-family: Lucida Grande, sans-serif;
font-size: 15.0px;

}
#xXxprefixXx0 .axis-text-y {
fill: #474747;
font-weight: normal;
   font-style: normal;font-family: Lucida Grande, sans-serif;
font-size: 13.0px;

}
#xXxprefixXx2 .axis-tooltip-text-y {
fill: #ffffff;
font-weight: normal;
   font-style: normal;font-family: Lucida Grande, sans-serif;
font-size: 13.0px;

}
#xXxprefixXx0 .facet-strip-text-x {
fill: #474747;
font-weight: normal;
   font-style: normal;font-family: Lucida Grande, sans-serif;
font-size: 13.0px;

}
#xXxprefixXx0 .facet-strip-text-y {
fill: #474747;
font-weight: normal;
   font-style: normal;font-family: Lucida Grande, sans-serif;
font-size: 13.0px;

}
#xXxprefixXx2 .tooltip-text {
fill: #474747;
font-weight: normal;
   font-style: normal;font-family: Lucida Grande, sans-serif;
font-size: 13.0px;

}
#xXxprefixXx2 .tooltip-title {
fill: #474747;
font-weight: bold;
   font-style: normal;font-family: Lucida Grande, sans-serif;
font-size: 13.0px;

}
#xXxprefixXx2 .tooltip-label {
fill: #474747;
font-weight: bold;
   font-style: normal;font-family: Lucida Grande, sans-serif;
font-size: 13.0px;

}

  </style>
  <g id="xXxprefixXx0">
    <path fill-rule="evenodd" fill="rgb(255,255,255)" fill-opacity="1.0" d="M0.0 0.0 L0.0 352.0 L705.0 352.0 L705.0 0.0 Z">
    </path>
    <g transform="translate(29.5 6.5 ) ">
      <g>
        <g transform="translate(21.961210910936405 0.0 ) ">
          <g>
            <line x1="66.44587113666051" y1="0.0" x2="66.44587113666051" y2="293.0" stroke="rgb(233,233,233)" stroke-opacity="1.0" stroke-width="1.0" fill="none">
            </line>
            <line x1="165.61881313167623" y1="0.0" x2="165.61881313167623" y2="293.0" stroke="rgb(233,233,233)" stroke-opacity="1.0" stroke-width="1.0" fill="none">
            </line>
            <line x1="264.7917551266919" y1="0.0" x2="264.7917551266919" y2="293.0" stroke="rgb(233,233,233)" stroke-opacity="1.0" stroke-width="1.0" fill="none">
            </line>
            <line x1="363.96469712170756" y1="0.0" x2="363.96469712170756" y2="293.0" stroke="rgb(233,233,233)" stroke-opacity="1.0" stroke-width="1.0" fill="none">
            </line>
            <line x1="463.13763911672334" y1="0.0" x2="463.13763911672334" y2="293.0" stroke="rgb(233,233,233)" stroke-opacity="1.0" stroke-width="1.0" fill="none">
            </line>
            <line x1="562.310581111739" y1="0.0" x2="562.310581111739" y2="293.0" stroke="rgb(233,233,233)" stroke-opacity="1.0" stroke-width="1.0" fill="none">
            </line>
          </g>
        </g>
        <g transform="translate(21.961210910936405 0.0 ) ">
          <g>
            <line x1="0.0" y1="254.7102272727273" x2="589.0872754503931" y2="254.7102272727273" stroke="rgb(233,233,233)" stroke-opacity="1.0" stroke-width="1.0" fill="none">
            </line>
            <line x1="0.0" y1="213.09090909090912" x2="589.0872754503931" y2="213.09090909090912" stroke="rgb(233,233,233)" stroke-opacity="1.0" stroke-width="1.0" fill="none">
            </line>
            <line x1="0.0" y1="171.47159090909093" x2="589.0872754503931" y2="171.47159090909093" stroke="rgb(233,233,233)" stroke-opacity="1.0" stroke-width="1.0" fill="none">
            </line>
            <line x1="0.0" y1="129.85227272727278" x2="589.0872754503931" y2="129.85227272727278" stroke="rgb(233,233,233)" stroke-opacity="1.0" stroke-width="1.0" fill="none">
            </line>
            <line x1="0.0" y1="88.23295454545462" x2="589.0872754503931" y2="88.23295454545462" stroke="rgb(233,233,233)" stroke-opacity="1.0" stroke-width="1.0" fill="none">
            </line>
            <line x1="0.0" y1="46.61363636363643" x2="589.0872754503931" y2="46.61363636363643" stroke="rgb(233,233,233)" stroke-opacity="1.0" stroke-width="1.0" fill="none">
            </line>
            <line x1="0.0" y1="4.994318181818244" x2="589.0872754503931" y2="4.994318181818244" stroke="rgb(233,233,233)" stroke-opacity="1.0" stroke-width="1.0" fill="none">
            </line>
          </g>
        </g>
      </g>
      <g clip-path="url(#xXxprefixXx1)" clip-bounds-jfx="[rect (21.961210910936405, 0.0), (589.0872754503931, 293.0)]">
        <g transform="translate(21.961210910936405 0.0 ) ">
          <g>
            <g>
              <g>
                <g >
                  <circle fill="#29567d" stroke="#29567d" stroke-opacity="0.0" stroke-width="0.0" cx="46.611282737657376" cy="138.1761363636364" r="5.5" />
                  <circle fill="#306591" stroke="#306591" stroke-opacity="0.0" stroke-width="0.0" cx="46.611282737657376" cy="138.1761363636364" r="5.5" />
                  <circle fill="#2e608a" stroke="#2e608a" stroke-opacity="0.0" stroke-width="0.0" cx="66.44587113666051" cy="121.52840909090912" r="5.5" />
                  <circle fill="#306591" stroke="#306591" stroke-opacity="0.0" stroke-width="0.0" cx="66.44587113666051" cy="129.85227272727278" r="5.5" />
                  <circle fill="#244c6f" stroke="#244c6f" stroke-opacity="0.0" stroke-width="0.0" cx="145.78422473267307" cy="163.1477272727273" r="5.5" />
                  <circle fill="#29567d" stroke="#29567d" stroke-opacity="0.0" stroke-width="0.0" cx="145.78422473267307" cy="163.1477272727273" r="5.5" />
                  <circle fill="#29567d" stroke="#29567d" stroke-opacity="0.0" stroke-width="0.0" cx="175.5361073311778" cy="154.82386363636368" r="5.5" />
                  <path fill="#29567d" stroke="#29567d" stroke-opacity="0.0" stroke-width="0.0" d="M46.611282737657376 156.85387065259158 L46.611282737657376 156.85387065259158 L52.111282737657376 166.3801500942204 L41.111282737657376 166.3801500942204 Z" transform="rotate(0.0 46.611282737657376 163.1477272727273 ) " />
                  <path fill="#244c6f" stroke="#244c6f" stroke-opacity="0.0" stroke-width="0.0" d="M46.611282737657376 165.1777342889552 L46.611282737657376 165.1777342889552 L52.111282737657376 174.70401373058402 L41.111282737657376 174.70401373058402 Z" transform="rotate(0.0 46.611282737657376 171.47159090909093 ) " />
                  <path fill="#2e608a" stroke="#2e608a" stroke-opacity="0.0" stroke-width="0.0" d="M66.44587113666051 140.2061433798643 L66.44587113666051 140.2061433798643 L71.94587113666051 149.73242282149312 L60.945871136660514 149.73242282149312 Z" transform="rotate(0.0 66.44587113666051 146.50000000000003 ) " />
                  <path fill="#2b5b83" stroke="#2b5b83" stroke-opacity="0.0" stroke-width="0.0" d="M66.44587113666051 148.53000701622796 L66.44587113666051 148.53000701622796 L71.94587113666051 158.05628645785677 L60.945871136660514 158.05628645785677 Z" transform="rotate(0.0 66.44587113666051 154.82386363636368 ) " />
                  <path fill="#214769" stroke="#214769" stroke-opacity="0.0" stroke-width="0.0" d="M145.78422473267307 165.1777342889552 L145.78422473267307 165.1777342889552 L151.28422473267307 174.70401373058402 L140.28422473267307 174.70401373058402 Z" transform="rotate(0.0 145.78422473267307 171.47159090909093 ) " />
                  <path fill="#265176" stroke="#265176" stroke-opacity="0.0" stroke-width="0.0" d="M145.78422473267307 165.1777342889552 L145.78422473267307 165.1777342889552 L151.28422473267307 174.70401373058402 L140.28422473267307 174.70401373058402 Z" transform="rotate(0.0 145.78422473267307 171.47159090909093 ) " />
                  <path fill="#265176" stroke="#265176" stroke-opacity="0.0" stroke-width="0.0" d="M175.5361073311778 165.1777342889552 L175.5361073311778 165.1777342889552 L181.0361073311778 174.70401373058402 L170.0361073311778 174.70401373058402 Z" transform="rotate(0.0 175.5361073311778 171.47159090909093 ) " />
                  <path fill="#214769" stroke="#214769" stroke-opacity="0.0" stroke-width="0.0" d="M175.5361073311778 165.1777342889552 L175.5361073311778 165.1777342889552 L181.0361073311778 174.70401373058402 L170.0361073311778 174.70401373058402 Z" transform="rotate(0.0 175.5361073311778 171.47159090909093 ) " />
                  <path fill="#214769" stroke="#214769" stroke-opacity="0.0" stroke-width="0.0" d="M145.78422473267307 173.50159792531883 L145.78422473267307 173.50159792531883 L151.28422473267307 183.02787736694765 L140.28422473267307 183.02787736694765 Z" transform="rotate(0.0 145.78422473267307 179.79545454545456 ) " />
                  <path fill="#265176" stroke="#265176" stroke-opacity="0.0" stroke-width="0.0" d="M175.5361073311778 165.1777342889552 L175.5361073311778 165.1777342889552 L181.0361073311778 174.70401373058402 L170.0361073311778 174.70401373058402 Z" transform="rotate(0.0 175.5361073311778 171.47159090909093 ) " />
                  <path fill="#244c6f" stroke="#244c6f" stroke-opacity="0.0" stroke-width="0.0" d="M284.62634352569506 181.8254615616825 L284.62634352569506 181.8254615616825 L290.12634352569506 191.3517410033113 L279.12634352569506 191.3517410033113 Z" transform="rotate(0.0 284.62634352569506 188.11931818181822 ) " />
                  <rect fill="#1f4262" stroke="#1f4262" stroke-opacity="0.0" stroke-width="0.0" x="388.2165797202123" y="207.59090909090912" height="11.0" width="11.0" transform="rotate(0.0 393.7165797202123 213.09090909090912 ) " />
                  <rect fill="#18344f" stroke="#18344f" stroke-opacity="0.0" stroke-width="0.0" x="388.2165797202123" y="249.2102272727273" height="11.0" width="11.0" transform="rotate(0.0 393.7165797202123 254.7102272727273 ) " />
                  <rect fill="#1f4262" stroke="#1f4262" stroke-opacity="0.0" stroke-width="0.0" x="388.2165797202123" y="207.59090909090912" height="11.0" width="11.0" transform="rotate(0.0 393.7165797202123 213.09090909090912 ) " />
                  <rect fill="#1c3d5c" stroke="#1c3d5c" stroke-opacity="0.0" stroke-width="0.0" x="427.8857565182186" y="232.56250000000003" height="11.0" width="11.0" transform="rotate(0.0 433.3857565182186 238.06250000000003 ) " />
                  <rect fill="#1a3955" stroke="#1a3955" stroke-opacity="0.0" stroke-width="0.0" x="457.63763911672334" y="232.56250000000003" height="11.0" width="11.0" transform="rotate(0.0 463.13763911672334 238.06250000000003 ) " />
                  <rect fill="#244c6f" stroke="#244c6f" stroke-opacity="0.0" stroke-width="0.0" x="427.8857565182186" y="157.6477272727273" height="11.0" width="11.0" transform="rotate(0.0 433.3857565182186 163.1477272727273 ) " />
                  <rect fill="#214769" stroke="#214769" stroke-opacity="0.0" stroke-width="0.0" x="427.8857565182186" y="182.61931818181822" height="11.0" width="11.0" transform="rotate(0.0 433.3857565182186 188.11931818181822 ) " />
                  <rect fill="#244c6f" stroke="#244c6f" stroke-opacity="0.0" stroke-width="0.0" x="477.47222751572644" y="157.6477272727273" height="11.0" width="11.0" transform="rotate(0.0 482.97222751572644 163.1477272727273 ) " />
                  <rect fill="#214769" stroke="#214769" stroke-opacity="0.0" stroke-width="0.0" x="477.47222751572644" y="165.97159090909093" height="11.0" width="11.0" transform="rotate(0.0 482.97222751572644 171.47159090909093 ) " />
                  <rect fill="#214769" stroke="#214769" stroke-opacity="0.0" stroke-width="0.0" x="556.810581111739" y="174.29545454545456" height="11.0" width="11.0" transform="rotate(0.0 562.310581111739 179.79545454545456 ) " />
                  <path fill="#1f4262" stroke="#1f4262" stroke-opacity="0.0" stroke-width="0.0" d="M393.7165797202123 215.12091610713702 L393.7165797202123 215.12091610713702 L399.2165797202123 224.64719554876584 L388.2165797202123 224.64719554876584 Z" transform="rotate(0.0 393.7165797202123 221.41477272727275 ) " />
                  <path fill="#18344f" stroke="#18344f" stroke-opacity="0.0" stroke-width="0.0" d="M393.7165797202123 256.7402342889552 L393.7165797202123 256.7402342889552 L399.2165797202123 266.26651373058405 L388.2165797202123 266.26651373058405 Z" transform="rotate(0.0 393.7165797202123 263.03409090909093 ) " />
                  <path fill="#18344f" stroke="#18344f" stroke-opacity="0.0" stroke-width="0.0" d="M433.3857565182186 248.41637065259158 L433.3857565182186 248.41637065259158 L438.8857565182186 257.9426500942204 L427.8857565182186 257.9426500942204 Z" transform="rotate(0.0 433.3857565182186 254.7102272727273 ) " />
                  <path fill="#1f4262" stroke="#1f4262" stroke-opacity="0.0" stroke-width="0.0" d="M512.7241101142312 231.7686433798643 L512.7241101142312 231.7686433798643 L518.2241101142312 241.29492282149312 L507.22411011423117 241.29492282149312 Z" transform="rotate(0.0 512.7241101142312 238.06250000000003 ) " />
                  <circle fill="#2b5b83" stroke="#2b5b83" stroke-opacity="0.0" stroke-width="0.0" cx="106.11504793466679" cy="154.82386363636368" r="5.5" />
                  <circle fill="#336a98" stroke="#336a98" stroke-opacity="0.0" stroke-width="0.0" cx="106.11504793466679" cy="129.85227272727278" r="5.5" />
                  <circle fill="#29567d" stroke="#29567d" stroke-opacity="0.0" stroke-width="0.0" cx="175.5361073311778" cy="163.1477272727273" r="5.5" />
                  <circle fill="#29567d" stroke="#29567d" stroke-opacity="0.0" stroke-width="0.0" cx="215.20528412918407" cy="138.1761363636364" r="5.5" />
                  <circle fill="#265176" stroke="#265176" stroke-opacity="0.0" stroke-width="0.0" cx="225.12257832868562" cy="163.1477272727273" r="5.5" />
                  <circle fill="#29567d" stroke="#29567d" stroke-opacity="0.0" stroke-width="0.0" cx="106.11504793466679" cy="179.79545454545456" r="5.5" />
                  <circle fill="#265176" stroke="#265176" stroke-opacity="0.0" stroke-width="0.0" cx="165.61881313167623" cy="179.79545454545456" r="5.5" />
                  <circle fill="#244c6f" stroke="#244c6f" stroke-opacity="0.0" stroke-width="0.0" cx="195.3706957301809" cy="196.44318181818184" r="5.5" />
                  <circle fill="#244c6f" stroke="#244c6f" stroke-opacity="0.0" stroke-width="0.0" cx="195.3706957301809" cy="196.44318181818184" r="5.5" />
                  <circle fill="#265176" stroke="#265176" stroke-opacity="0.0" stroke-width="0.0" cx="195.3706957301809" cy="179.79545454545456" r="5.5" />
                  <circle fill="#265176" stroke="#265176" stroke-opacity="0.0" stroke-width="0.0" cx="195.3706957301809" cy="179.79545454545456" r="5.5" />
                  <circle fill="#18344f" stroke="#18344f" stroke-opacity="0.0" stroke-width="0.0" cx="195.3706957301809" cy="238.06250000000003" r="5.5" />
                  <circle fill="#214769" stroke="#214769" stroke-opacity="0.0" stroke-width="0.0" cx="244.95716672768873" cy="196.44318181818184" r="5.5" />
                  <circle fill="#214769" stroke="#214769" stroke-opacity="0.0" stroke-width="0.0" cx="244.95716672768873" cy="204.76704545454547" r="5.5" />
                  <circle fill="#244c6f" stroke="#244c6f" stroke-opacity="0.0" stroke-width="0.0" cx="244.95716672768873" cy="188.11931818181822" r="5.5" />
                  <circle fill="#244c6f" stroke="#244c6f" stroke-opacity="0.0" stroke-width="0.0" cx="264.7917551266919" cy="188.11931818181822" r="5.5" />
                  <path fill="#214769" stroke="#214769" stroke-opacity="0.0" stroke-width="0.0" d="M235.03987252818723 215.12091610713702 L235.03987252818723 215.12091610713702 L240.53987252818723 224.64719554876584 L229.53987252818723 224.64719554876584 Z" transform="rotate(0.0 235.03987252818723 221.41477272727275 ) " />
                  <path fill="#1f4262" stroke="#1f4262" stroke-opacity="0.0" stroke-width="0.0" d="M235.03987252818723 223.44477974350065 L235.03987252818723 223.44477974350065 L240.53987252818723 232.97105918512946 L229.53987252818723 232.97105918512946 Z" transform="rotate(0.0 235.03987252818723 229.73863636363637 ) " />
                  <path fill="#1c3d5c" stroke="#1c3d5c" stroke-opacity="0.0" stroke-width="0.0" d="M254.87446092719034 231.7686433798643 L254.87446092719034 231.7686433798643 L260.37446092719034 241.29492282149312 L249.37446092719034 241.29492282149312 Z" transform="rotate(0.0 254.87446092719034 238.06250000000003 ) " />
                  <path fill="#1f4262" stroke="#1f4262" stroke-opacity="0.0" stroke-width="0.0" d="M254.87446092719034 231.7686433798643 L254.87446092719034 231.7686433798643 L260.37446092719034 241.29492282149312 L249.37446092719034 241.29492282149312 Z" transform="rotate(0.0 254.87446092719034 238.06250000000003 ) " />
                  <path fill="#1f4262" stroke="#1f4262" stroke-opacity="0.0" stroke-width="0.0" d="M334.2128145232029 215.12091610713702 L334.2128145232029 215.12091610713702 L339.7128145232029 224.64719554876584 L328.7128145232029 224.64719554876584 Z" transform="rotate(0.0 334.2128145232029 221.41477272727275 ) " />
                  <path fill="#1f4262" stroke="#1f4262" stroke-opacity="0.0" stroke-width="0.0" d="M334.2128145232029 215.12091610713702 L334.2128145232029 215.12091610713702 L339.7128145232029 224.64719554876584 L328.7128145232029 224.64719554876584 Z" transform="rotate(0.0 334.2128145232029 221.41477272727275 ) " />
                  <path fill="#132b43" stroke="#132b43" stroke-opacity="0.0" stroke-width="0.0" d="M334.2128145232029 273.38796156168246 L334.2128145232029 273.38796156168246 L339.7128145232029 282.9142410033113 L328.7128145232029 282.9142410033113 Z" transform="rotate(0.0 334.2128145232029 279.6818181818182 ) " />
                  <path fill="#18344f" stroke="#18344f" stroke-opacity="0.0" stroke-width="0.0" d="M383.7992855207108 231.7686433798643 L383.7992855207108 231.7686433798643 L389.2992855207108 241.29492282149312 L378.2992855207108 241.29492282149312 Z" transform="rotate(0.0 383.7992855207108 238.06250000000003 ) " />
                  <path fill="#18344f" stroke="#18344f" stroke-opacity="0.0" stroke-width="0.0" d="M383.7992855207108 248.41637065259158 L383.7992855207108 248.41637065259158 L389.2992855207108 257.9426500942204 L378.2992855207108 257.9426500942204 Z" transform="rotate(0.0 383.7992855207108 254.7102272727273 ) " />
                  <path fill="#1c3d5c" stroke="#1c3d5c" stroke-opacity="0.0" stroke-width="0.0" d="M254.87446092719034 231.7686433798643 L254.87446092719034 231.7686433798643 L260.37446092719034 241.29492282149312 L249.37446092719034 241.29492282149312 Z" transform="rotate(0.0 254.87446092719034 238.06250000000003 ) " />
                  <path fill="#1c3d5c" stroke="#1c3d5c" stroke-opacity="0.0" stroke-width="0.0" d="M334.2128145232029 231.7686433798643 L334.2128145232029 231.7686433798643 L339.7128145232029 241.29492282149312 L328.7128145232029 241.29492282149312 Z" transform="rotate(0.0 334.2128145232029 238.06250000000003 ) " />
                  <path fill="#132b43" stroke="#132b43" stroke-opacity="0.0" stroke-width="0.0" d="M334.2128145232029 273.38796156168246 L334.2128145232029 273.38796156168246 L339.7128145232029 282.9142410033113 L328.7128145232029 282.9142410033113 Z" transform="rotate(0.0 334.2128145232029 279.6818181818182 ) " />
                  <path fill="#1c3d5c" stroke="#1c3d5c" stroke-opacity="0.0" stroke-width="0.0" d="M334.2128145232029 231.7686433798643 L334.2128145232029 231.7686433798643 L339.7128145232029 241.29492282149312 L328.7128145232029 241.29492282149312 Z" transform="rotate(0.0 334.2128145232029 238.06250000000003 ) " />
                  <path fill="#18344f" stroke="#18344f" stroke-opacity="0.0" stroke-width="0.0" d="M383.7992855207108 240.09250701622793 L383.7992855207108 240.09250701622793 L389.2992855207108 249.61878645785674 L378.2992855207108 249.61878645785674 Z" transform="rotate(0.0 383.7992855207108 246.38636363636365 ) " />
                  <path fill="#1c3d5c" stroke="#1c3d5c" stroke-opacity="0.0" stroke-width="0.0" d="M433.3857565182186 223.44477974350065 L433.3857565182186 223.44477974350065 L438.8857565182186 232.97105918512946 L427.8857565182186 232.97105918512946 Z" transform="rotate(0.0 433.3857565182186 229.73863636363637 ) " />
                  <path fill="#18344f" stroke="#18344f" stroke-opacity="0.0" stroke-width="0.0" d="M453.2203449172217 248.41637065259158 L453.2203449172217 248.41637065259158 L458.7203449172217 257.9426500942204 L447.7203449172217 257.9426500942204 Z" transform="rotate(0.0 453.2203449172217 254.7102272727273 ) " />
                  <path fill="#1a3955" stroke="#1a3955" stroke-opacity="0.0" stroke-width="0.0" d="M334.2128145232029 240.09250701622793 L334.2128145232029 240.09250701622793 L339.7128145232029 249.61878645785674 L328.7128145232029 249.61878645785674 Z" transform="rotate(0.0 334.2128145232029 246.38636363636365 ) " />
                  <path fill="#132b43" stroke="#132b43" stroke-opacity="0.0" stroke-width="0.0" d="M334.2128145232029 273.38796156168246 L334.2128145232029 273.38796156168246 L339.7128145232029 282.9142410033113 L328.7128145232029 282.9142410033113 Z" transform="rotate(0.0 334.2128145232029 279.6818181818182 ) " />
                  <path fill="#1c3d5c" stroke="#1c3d5c" stroke-opacity="0.0" stroke-width="0.0" d="M334.2128145232029 231.7686433798643 L334.2128145232029 231.7686433798643 L339.7128145232029 241.29492282149312 L328.7128145232029 241.29492282149312 Z" transform="rotate(0.0 334.2128145232029 238.06250000000003 ) " />
                  <path fill="#1c3d5c" stroke="#1c3d5c" stroke-opacity="0.0" stroke-width="0.0" d="M334.2128145232029 231.7686433798643 L334.2128145232029 231.7686433798643 L339.7128145232029 241.29492282149312 L328.7128145232029 241.29492282149312 Z" transform="rotate(0.0 334.2128145232029 238.06250000000003 ) " />
                  <path fill="#1a3955" stroke="#1a3955" stroke-opacity="0.0" stroke-width="0.0" d="M334.2128145232029 240.09250701622793 L334.2128145232029 240.09250701622793 L339.7128145232029 249.61878645785674 L328.7128145232029 249.61878645785674 Z" transform="rotate(0.0 334.2128145232029 246.38636363636365 ) " />
                  <path fill="#132b43" stroke="#132b43" stroke-opacity="0.0" stroke-width="0.0" d="M334.2128145232029 273.38796156168246 L334.2128145232029 273.38796156168246 L339.7128145232029 282.9142410033113 L328.7128145232029 282.9142410033113 Z" transform="rotate(0.0 334.2128145232029 279.6818181818182 ) " />
                  <path fill="#18344f" stroke="#18344f" stroke-opacity="0.0" stroke-width="0.0" d="M383.7992855207108 248.41637065259158 L383.7992855207108 248.41637065259158 L389.2992855207108 257.9426500942204 L378.2992855207108 257.9426500942204 Z" transform="rotate(0.0 383.7992855207108 254.7102272727273 ) " />
                  <path fill="#18344f" stroke="#18344f" stroke-opacity="0.0" stroke-width="0.0" d="M383.7992855207108 240.09250701622793 L383.7992855207108 240.09250701622793 L389.2992855207108 249.61878645785674 L378.2992855207108 249.61878645785674 Z" transform="rotate(0.0 383.7992855207108 246.38636363636365 ) " />
                  <path fill="#1c3d5c" stroke="#1c3d5c" stroke-opacity="0.0" stroke-width="0.0" d="M433.3857565182186 231.7686433798643 L433.3857565182186 231.7686433798643 L438.8857565182186 241.29492282149312 L427.8857565182186 241.29492282149312 Z" transform="rotate(0.0 433.3857565182186 238.06250000000003 ) " />
                  <path fill="#18344f" stroke="#18344f" stroke-opacity="0.0" stroke-width="0.0" d="M453.2203449172217 248.41637065259158 L453.2203449172217 248.41637065259158 L458.7203449172217 257.9426500942204 L447.7203449172217 257.9426500942204 Z" transform="rotate(0.0 453.2203449172217 254.7102272727273 ) " />
                  <rect fill="#18344f" stroke="#18344f" stroke-opacity="0.0" stroke-width="0.0" x="318.7955203237013" y="232.56250000000003" height="11.0" width="11.0" transform="rotate(0.0 324.2955203237013 238.06250000000003 ) " />
                  <rect fill="#18344f" stroke="#18344f" stroke-opacity="0.0" stroke-width="0.0" x="398.1338739197139" y="232.56250000000003" height="11.0" width="11.0" transform="rotate(0.0 403.6338739197139 238.06250000000003 ) " />
                  <rect fill="#1a3955" stroke="#1a3955" stroke-opacity="0.0" stroke-width="0.0" x="398.1338739197139" y="224.23863636363637" height="11.0" width="11.0" transform="rotate(0.0 403.6338739197139 229.73863636363637 ) " />
                  <path fill="#1f4262" stroke="#1f4262" stroke-opacity="0.0" stroke-width="0.0" d="M264.7917551266919 231.7686433798643 L264.7917551266919 231.7686433798643 L270.2917551266919 241.29492282149312 L259.2917551266919 241.29492282149312 Z" transform="rotate(0.0 264.7917551266919 238.06250000000003 ) " />
                  <path fill="#214769" stroke="#214769" stroke-opacity="0.0" stroke-width="0.0" d="M264.7917551266919 215.12091610713702 L264.7917551266919 215.12091610713702 L270.2917551266919 224.64719554876584 L259.2917551266919 224.64719554876584 Z" transform="rotate(0.0 264.7917551266919 221.41477272727275 ) " />
                  <path fill="#1f4262" stroke="#1f4262" stroke-opacity="0.0" stroke-width="0.0" d="M264.7917551266919 231.7686433798643 L264.7917551266919 231.7686433798643 L270.2917551266919 241.29492282149312 L259.2917551266919 241.29492282149312 Z" transform="rotate(0.0 264.7917551266919 238.06250000000003 ) " />
                  <path fill="#1c3d5c" stroke="#1c3d5c" stroke-opacity="0.0" stroke-width="0.0" d="M264.7917551266919 215.12091610713702 L264.7917551266919 215.12091610713702 L270.2917551266919 224.64719554876584 L259.2917551266919 224.64719554876584 Z" transform="rotate(0.0 264.7917551266919 221.41477272727275 ) " />
                  <path fill="#1c3d5c" stroke="#1c3d5c" stroke-opacity="0.0" stroke-width="0.0" d="M324.2955203237013 215.12091610713702 L324.2955203237013 215.12091610713702 L329.7955203237013 224.64719554876584 L318.7955203237013 224.64719554876584 Z" transform="rotate(0.0 324.2955203237013 221.41477272727275 ) " />
                  <path fill="#1c3d5c" stroke="#1c3d5c" stroke-opacity="0.0" stroke-width="0.0" d="M363.96469712170756 231.7686433798643 L363.96469712170756 231.7686433798643 L369.46469712170756 241.29492282149312 L358.46469712170756 241.29492282149312 Z" transform="rotate(0.0 363.96469712170756 238.06250000000003 ) " />
                  <path fill="#1f4262" stroke="#1f4262" stroke-opacity="0.0" stroke-width="0.0" d="M284.62634352569506 231.7686433798643 L284.62634352569506 231.7686433798643 L290.12634352569506 241.29492282149312 L279.12634352569506 241.29492282149312 Z" transform="rotate(0.0 284.62634352569506 238.06250000000003 ) " />
                  <path fill="#1f4262" stroke="#1f4262" stroke-opacity="0.0" stroke-width="0.0" d="M284.62634352569506 231.7686433798643 L284.62634352569506 231.7686433798643 L290.12634352569506 241.29492282149312 L279.12634352569506 241.29492282149312 Z" transform="rotate(0.0 284.62634352569506 238.06250000000003 ) " />
                  <path fill="#1c3d5c" stroke="#1c3d5c" stroke-opacity="0.0" stroke-width="0.0" d="M324.2955203237013 240.09250701622793 L324.2955203237013 240.09250701622793 L329.7955203237013 249.61878645785674 L318.7955203237013 249.61878645785674 Z" transform="rotate(0.0 324.2955203237013 246.38636363636365 ) " />
                  <path fill="#1c3d5c" stroke="#1c3d5c" stroke-opacity="0.0" stroke-width="0.0" d="M324.2955203237013 240.09250701622793 L324.2955203237013 240.09250701622793 L329.7955203237013 249.61878645785674 L318.7955203237013 249.61878645785674 Z" transform="rotate(0.0 324.2955203237013 246.38636363636365 ) " />
                  <path fill="#1c3d5c" stroke="#1c3d5c" stroke-opacity="0.0" stroke-width="0.0" d="M324.2955203237013 231.7686433798643 L324.2955203237013 231.7686433798643 L329.7955203237013 241.29492282149312 L318.7955203237013 241.29492282149312 Z" transform="rotate(0.0 324.2955203237013 238.06250000000003 ) " />
                  <path fill="#18344f" stroke="#18344f" stroke-opacity="0.0" stroke-width="0.0" d="M403.6338739197139 248.41637065259158 L403.6338739197139 248.41637065259158 L409.1338739197139 257.9426500942204 L398.1338739197139 257.9426500942204 Z" transform="rotate(0.0 403.6338739197139 254.7102272727273 ) " />
                  <path fill="#1c3d5c" stroke="#1c3d5c" stroke-opacity="0.0" stroke-width="0.0" d="M403.6338739197139 231.7686433798643 L403.6338739197139 231.7686433798643 L409.1338739197139 241.29492282149312 L398.1338739197139 241.29492282149312 Z" transform="rotate(0.0 403.6338739197139 238.06250000000003 ) " />
                  <rect fill="#29567d" stroke="#29567d" stroke-opacity="0.0" stroke-width="0.0" x="239.45716672768873" y="157.6477272727273" height="11.0" width="11.0" transform="rotate(0.0 244.95716672768873 163.1477272727273 ) " />
                  <rect fill="#29567d" stroke="#29567d" stroke-opacity="0.0" stroke-width="0.0" x="239.45716672768873" y="165.97159090909093" height="11.0" width="11.0" transform="rotate(0.0 244.95716672768873 171.47159090909093 ) " />
                  <rect fill="#265176" stroke="#265176" stroke-opacity="0.0" stroke-width="0.0" x="259.2917551266919" y="157.6477272727273" height="11.0" width="11.0" transform="rotate(0.0 264.7917551266919 163.1477272727273 ) " />
                  <rect fill="#244c6f" stroke="#244c6f" stroke-opacity="0.0" stroke-width="0.0" x="259.2917551266919" y="174.29545454545456" height="11.0" width="11.0" transform="rotate(0.0 264.7917551266919 179.79545454545456 ) " />
                  <rect fill="#214769" stroke="#214769" stroke-opacity="0.0" stroke-width="0.0" x="318.7955203237013" y="199.26704545454547" height="11.0" width="11.0" transform="rotate(0.0 324.2955203237013 204.76704545454547 ) " />
                  <rect fill="#214769" stroke="#214769" stroke-opacity="0.0" stroke-width="0.0" x="318.7955203237013" y="190.94318181818184" height="11.0" width="11.0" transform="rotate(0.0 324.2955203237013 196.44318181818184 ) " />
                  <rect fill="#214769" stroke="#214769" stroke-opacity="0.0" stroke-width="0.0" x="318.7955203237013" y="182.61931818181822" height="11.0" width="11.0" transform="rotate(0.0 324.2955203237013 188.11931818181822 ) " />
                  <rect fill="#214769" stroke="#214769" stroke-opacity="0.0" stroke-width="0.0" x="318.7955203237013" y="190.94318181818184" height="11.0" width="11.0" transform="rotate(0.0 324.2955203237013 196.44318181818184 ) " />
                  <rect fill="#1f4262" stroke="#1f4262" stroke-opacity="0.0" stroke-width="0.0" x="398.1338739197139" y="207.59090909090912" height="11.0" width="11.0" transform="rotate(0.0 403.6338739197139 213.09090909090912 ) " />
                  <circle fill="#438ac3" stroke="#438ac3" stroke-opacity="0.0" stroke-width="0.0" cx="26.776694338654238" cy="104.88068181818187" r="5.5" />
                  <circle fill="#3875a6" stroke="#3875a6" stroke-opacity="0.0" stroke-width="0.0" cx="26.776694338654238" cy="113.2045454545455" r="5.5" />
                  <circle fill="#3b7aad" stroke="#3b7aad" stroke-opacity="0.0" stroke-width="0.0" cx="26.776694338654238" cy="113.2045454545455" r="5.5" />
                  <circle fill="#356f9f" stroke="#356f9f" stroke-opacity="0.0" stroke-width="0.0" cx="26.776694338654238" cy="138.1761363636364" r="5.5" />
                  <circle fill="#3875a6" stroke="#3875a6" stroke-opacity="0.0" stroke-width="0.0" cx="26.776694338654238" cy="113.2045454545455" r="5.5" />
                  <circle fill="#3d7fb4" stroke="#3d7fb4" stroke-opacity="0.0" stroke-width="0.0" cx="46.611282737657376" cy="96.55681818181824" r="5.5" />
                  <circle fill="#3b7aad" stroke="#3b7aad" stroke-opacity="0.0" stroke-width="0.0" cx="46.611282737657376" cy="79.90909090909093" r="5.5" />
                  <circle fill="#3875a6" stroke="#3875a6" stroke-opacity="0.0" stroke-width="0.0" cx="46.611282737657376" cy="79.90909090909093" r="5.5" />
                  <circle fill="#306591" stroke="#306591" stroke-opacity="0.0" stroke-width="0.0" cx="66.44587113666051" cy="138.1761363636364" r="5.5" />
                  <circle fill="#29567d" stroke="#29567d" stroke-opacity="0.0" stroke-width="0.0" cx="106.11504793466679" cy="163.1477272727273" r="5.5" />
                  <circle fill="#29567d" stroke="#29567d" stroke-opacity="0.0" stroke-width="0.0" cx="106.11504793466679" cy="154.82386363636368" r="5.5" />
                  <circle fill="#306591" stroke="#306591" stroke-opacity="0.0" stroke-width="0.0" cx="106.11504793466679" cy="129.85227272727278" r="5.5" />
                  <circle fill="#306591" stroke="#306591" stroke-opacity="0.0" stroke-width="0.0" cx="106.11504793466679" cy="121.52840909090912" r="5.5" />
                  <circle fill="#29567d" stroke="#29567d" stroke-opacity="0.0" stroke-width="0.0" cx="116.03234213416835" cy="163.1477272727273" r="5.5" />
                  <circle fill="#29567d" stroke="#29567d" stroke-opacity="0.0" stroke-width="0.0" cx="116.03234213416835" cy="163.1477272727273" r="5.5" />
                  <circle fill="#2b5b83" stroke="#2b5b83" stroke-opacity="0.0" stroke-width="0.0" cx="195.3706957301809" cy="146.50000000000003" r="5.5" />
                  <circle fill="#2b5b83" stroke="#2b5b83" stroke-opacity="0.0" stroke-width="0.0" cx="66.44587113666051" cy="163.1477272727273" r="5.5" />
                  <circle fill="#2b5b83" stroke="#2b5b83" stroke-opacity="0.0" stroke-width="0.0" cx="66.44587113666051" cy="138.1761363636364" r="5.5" />
                  <circle fill="#2e608a" stroke="#2e608a" stroke-opacity="0.0" stroke-width="0.0" cx="66.44587113666051" cy="146.50000000000003" r="5.5" />
                  <circle fill="#2e608a" stroke="#2e608a" stroke-opacity="0.0" stroke-width="0.0" cx="66.44587113666051" cy="154.82386363636368" r="5.5" />
                  <circle fill="#265176" stroke="#265176" stroke-opacity="0.0" stroke-width="0.0" cx="135.8669305331715" cy="179.79545454545456" r="5.5" />
                  <circle fill="#244c6f" stroke="#244c6f" stroke-opacity="0.0" stroke-width="0.0" cx="135.8669305331715" cy="179.79545454545456" r="5.5" />
                  <circle fill="#265176" stroke="#265176" stroke-opacity="0.0" stroke-width="0.0" cx="135.8669305331715" cy="179.79545454545456" r="5.5" />
                  <path fill="#265176" stroke="#265176" stroke-opacity="0.0" stroke-width="0.0" d="M165.61881313167623 190.1493251980461 L165.61881313167623 190.1493251980461 L171.11881313167623 199.67560463967493 L160.11881313167623 199.67560463967493 Z" transform="rotate(0.0 165.61881313167623 196.44318181818184 ) " />
                  <path fill="#214769" stroke="#214769" stroke-opacity="0.0" stroke-width="0.0" d="M235.03987252818723 215.12091610713702 L235.03987252818723 215.12091610713702 L240.53987252818723 224.64719554876584 L229.53987252818723 224.64719554876584 Z" transform="rotate(0.0 235.03987252818723 221.41477272727275 ) " />
                  <path fill="#214769" stroke="#214769" stroke-opacity="0.0" stroke-width="0.0" d="M264.7917551266919 206.7970524707734 L264.7917551266919 206.7970524707734 L270.2917551266919 216.3233319124022 L259.2917551266919 216.3233319124022 Z" transform="rotate(0.0 264.7917551266919 213.09090909090912 ) " />
                  <path fill="#1f4262" stroke="#1f4262" stroke-opacity="0.0" stroke-width="0.0" d="M334.2128145232029 231.7686433798643 L334.2128145232029 231.7686433798643 L339.7128145232029 241.29492282149312 L328.7128145232029 241.29492282149312 Z" transform="rotate(0.0 334.2128145232029 238.06250000000003 ) " />
                  <path fill="#132b43" stroke="#132b43" stroke-opacity="0.0" stroke-width="0.0" d="M334.2128145232029 273.38796156168246 L334.2128145232029 273.38796156168246 L339.7128145232029 282.9142410033113 L328.7128145232029 282.9142410033113 Z" transform="rotate(0.0 334.2128145232029 279.6818181818182 ) " />
                  <path fill="#1f4262" stroke="#1f4262" stroke-opacity="0.0" stroke-width="0.0" d="M334.2128145232029 215.12091610713702 L334.2128145232029 215.12091610713702 L339.7128145232029 224.64719554876584 L328.7128145232029 224.64719554876584 Z" transform="rotate(0.0 334.2128145232029 221.41477272727275 ) " />
                  <path fill="#1c3d5c" stroke="#1c3d5c" stroke-opacity="0.0" stroke-width="0.0" d="M433.3857565182186 223.44477974350065 L433.3857565182186 223.44477974350065 L438.8857565182186 232.97105918512946 L427.8857565182186 232.97105918512946 Z" transform="rotate(0.0 433.3857565182186 229.73863636363637 ) " />
                  <path fill="#18344f" stroke="#18344f" stroke-opacity="0.0" stroke-width="0.0" d="M473.05493331622483 256.7402342889552 L473.05493331622483 256.7402342889552 L478.55493331622483 266.26651373058405 L467.55493331622483 266.26651373058405 Z" transform="rotate(0.0 473.05493331622483 263.03409090909093 ) " />
                  <path fill="#18344f" stroke="#18344f" stroke-opacity="0.0" stroke-width="0.0" d="M264.7917551266919 248.41637065259158 L264.7917551266919 248.41637065259158 L270.2917551266919 257.9426500942204 L259.2917551266919 257.9426500942204 Z" transform="rotate(0.0 264.7917551266919 254.7102272727273 ) " />
                  <path fill="#1a3955" stroke="#1a3955" stroke-opacity="0.0" stroke-width="0.0" d="M284.62634352569506 223.44477974350065 L284.62634352569506 223.44477974350065 L290.12634352569506 232.97105918512946 L279.12634352569506 232.97105918512946 Z" transform="rotate(0.0 284.62634352569506 229.73863636363637 ) " />
                  <path fill="#1a3955" stroke="#1a3955" stroke-opacity="0.0" stroke-width="0.0" d="M304.46093192469823 223.44477974350065 L304.46093192469823 223.44477974350065 L309.96093192469823 232.97105918512946 L298.96093192469823 232.97105918512946 Z" transform="rotate(0.0 304.46093192469823 229.73863636363637 ) " />
                  <path fill="#18344f" stroke="#18344f" stroke-opacity="0.0" stroke-width="0.0" d="M324.2955203237013 248.41637065259158 L324.2955203237013 248.41637065259158 L329.7955203237013 257.9426500942204 L318.7955203237013 257.9426500942204 Z" transform="rotate(0.0 324.2955203237013 254.7102272727273 ) " />
                  <rect fill="#18344f" stroke="#18344f" stroke-opacity="0.0" stroke-width="0.0" x="398.1338739197139" y="232.56250000000003" height="11.0" width="11.0" transform="rotate(0.0 403.6338739197139 238.06250000000003 ) " />
                  <rect fill="#18344f" stroke="#18344f" stroke-opacity="0.0" stroke-width="0.0" x="398.1338739197139" y="240.88636363636365" height="11.0" width="11.0" transform="rotate(0.0 403.6338739197139 246.38636363636365 ) " />
                  <rect fill="#1a3955" stroke="#1a3955" stroke-opacity="0.0" stroke-width="0.0" x="398.1338739197139" y="224.23863636363637" height="11.0" width="11.0" transform="rotate(0.0 403.6338739197139 229.73863636363637 ) " />
                  <path fill="#1f4262" stroke="#1f4262" stroke-opacity="0.0" stroke-width="0.0" d="M264.7917551266919 231.7686433798643 L264.7917551266919 231.7686433798643 L270.2917551266919 241.29492282149312 L259.2917551266919 241.29492282149312 Z" transform="rotate(0.0 264.7917551266919 238.06250000000003 ) " />
                  <path fill="#1c3d5c" stroke="#1c3d5c" stroke-opacity="0.0" stroke-width="0.0" d="M264.7917551266919 215.12091610713702 L264.7917551266919 215.12091610713702 L270.2917551266919 224.64719554876584 L259.2917551266919 224.64719554876584 Z" transform="rotate(0.0 264.7917551266919 221.41477272727275 ) " />
                  <path fill="#1c3d5c" stroke="#1c3d5c" stroke-opacity="0.0" stroke-width="0.0" d="M324.2955203237013 215.12091610713702 L324.2955203237013 215.12091610713702 L329.7955203237013 224.64719554876584 L318.7955203237013 224.64719554876584 Z" transform="rotate(0.0 324.2955203237013 221.41477272727275 ) " />
                  <path fill="#1c3d5c" stroke="#1c3d5c" stroke-opacity="0.0" stroke-width="0.0" d="M363.96469712170756 231.7686433798643 L363.96469712170756 231.7686433798643 L369.46469712170756 241.29492282149312 L358.46469712170756 241.29492282149312 Z" transform="rotate(0.0 363.96469712170756 238.06250000000003 ) " />
                  <circle fill="#306591" stroke="#306591" stroke-opacity="0.0" stroke-width="0.0" cx="106.11504793466679" cy="138.1761363636364" r="5.5" />
                  <circle fill="#2b5b83" stroke="#2b5b83" stroke-opacity="0.0" stroke-width="0.0" cx="106.11504793466679" cy="154.82386363636368" r="5.5" />
                  <circle fill="#356f9f" stroke="#356f9f" stroke-opacity="0.0" stroke-width="0.0" cx="116.03234213416835" cy="121.52840909090912" r="5.5" />
                  <circle fill="#356f9f" stroke="#356f9f" stroke-opacity="0.0" stroke-width="0.0" cx="116.03234213416835" cy="113.2045454545455" r="5.5" />
                  <circle fill="#2b5b83" stroke="#2b5b83" stroke-opacity="0.0" stroke-width="0.0" cx="215.20528412918407" cy="154.82386363636368" r="5.5" />
                  <circle fill="#2b5b83" stroke="#2b5b83" stroke-opacity="0.0" stroke-width="0.0" cx="215.20528412918407" cy="163.1477272727273" r="5.5" />
                  <circle fill="#29567d" stroke="#29567d" stroke-opacity="0.0" stroke-width="0.0" cx="165.61881313167623" cy="163.1477272727273" r="5.5" />
                  <circle fill="#2b5b83" stroke="#2b5b83" stroke-opacity="0.0" stroke-width="0.0" cx="165.61881313167623" cy="171.47159090909093" r="5.5" />
                  <circle fill="#2b5b83" stroke="#2b5b83" stroke-opacity="0.0" stroke-width="0.0" cx="215.20528412918407" cy="171.47159090909093" r="5.5" />
                  <path fill="#1f4262" stroke="#1f4262" stroke-opacity="0.0" stroke-width="0.0" d="M195.3706957301809 231.7686433798643 L195.3706957301809 231.7686433798643 L200.8706957301809 241.29492282149312 L189.8706957301809 241.29492282149312 Z" transform="rotate(0.0 195.3706957301809 238.06250000000003 ) " />
                  <path fill="#214769" stroke="#214769" stroke-opacity="0.0" stroke-width="0.0" d="M195.3706957301809 231.7686433798643 L195.3706957301809 231.7686433798643 L200.8706957301809 241.29492282149312 L189.8706957301809 241.29492282149312 Z" transform="rotate(0.0 195.3706957301809 238.06250000000003 ) " />
                  <path fill="#1f4262" stroke="#1f4262" stroke-opacity="0.0" stroke-width="0.0" d="M264.7917551266919 206.7970524707734 L264.7917551266919 206.7970524707734 L270.2917551266919 216.3233319124022 L259.2917551266919 216.3233319124022 Z" transform="rotate(0.0 264.7917551266919 213.09090909090912 ) " />
                  <path fill="#1a3955" stroke="#1a3955" stroke-opacity="0.0" stroke-width="0.0" d="M423.468462318717 223.44477974350065 L423.468462318717 223.44477974350065 L428.968462318717 232.97105918512946 L417.968462318717 232.97105918512946 Z" transform="rotate(0.0 423.468462318717 229.73863636363637 ) " />
                  <circle fill="#29567d" stroke="#29567d" stroke-opacity="0.0" stroke-width="0.0" cx="175.5361073311778" cy="163.1477272727273" r="5.5" />
                  <circle fill="#244c6f" stroke="#244c6f" stroke-opacity="0.0" stroke-width="0.0" cx="244.95716672768873" cy="163.1477272727273" r="5.5" />
                  <circle fill="#265176" stroke="#265176" stroke-opacity="0.0" stroke-width="0.0" cx="244.95716672768873" cy="154.82386363636368" r="5.5" />
                  <circle fill="#29567d" stroke="#29567d" stroke-opacity="0.0" stroke-width="0.0" cx="244.95716672768873" cy="146.50000000000003" r="5.5" />
                  <circle fill="#244c6f" stroke="#244c6f" stroke-opacity="0.0" stroke-width="0.0" cx="393.7165797202123" cy="171.47159090909093" r="5.5" />
                  <path fill="#29567d" stroke="#29567d" stroke-opacity="0.0" stroke-width="0.0" d="M116.03234213416835 165.1777342889552 L116.03234213416835 165.1777342889552 L121.53234213416835 174.70401373058402 L110.53234213416835 174.70401373058402 Z" transform="rotate(0.0 116.03234213416835 171.47159090909093 ) " />
                  <path fill="#29567d" stroke="#29567d" stroke-opacity="0.0" stroke-width="0.0" d="M116.03234213416835 173.50159792531883 L116.03234213416835 173.50159792531883 L121.53234213416835 183.02787736694765 L110.53234213416835 183.02787736694765 Z" transform="rotate(0.0 116.03234213416835 179.79545454545456 ) " />
                  <path fill="#2e608a" stroke="#2e608a" stroke-opacity="0.0" stroke-width="0.0" d="M116.03234213416835 148.53000701622796 L116.03234213416835 148.53000701622796 L121.53234213416835 158.05628645785677 L110.53234213416835 158.05628645785677 Z" transform="rotate(0.0 116.03234213416835 154.82386363636368 ) " />
                  <path fill="#2b5b83" stroke="#2b5b83" stroke-opacity="0.0" stroke-width="0.0" d="M116.03234213416835 165.1777342889552 L116.03234213416835 165.1777342889552 L121.53234213416835 174.70401373058402 L110.53234213416835 174.70401373058402 Z" transform="rotate(0.0 116.03234213416835 171.47159090909093 ) " />
                  <path fill="#2e608a" stroke="#2e608a" stroke-opacity="0.0" stroke-width="0.0" d="M116.03234213416835 156.85387065259158 L116.03234213416835 156.85387065259158 L121.53234213416835 166.3801500942204 L110.53234213416835 166.3801500942204 Z" transform="rotate(0.0 116.03234213416835 163.1477272727273 ) " />
                  <path fill="#29567d" stroke="#29567d" stroke-opacity="0.0" stroke-width="0.0" d="M116.03234213416835 181.8254615616825 L116.03234213416835 181.8254615616825 L121.53234213416835 191.3517410033113 L110.53234213416835 191.3517410033113 Z" transform="rotate(0.0 116.03234213416835 188.11931818181822 ) " />
                  <path fill="#306591" stroke="#306591" stroke-opacity="0.0" stroke-width="0.0" d="M86.28045953566368 156.85387065259158 L86.28045953566368 156.85387065259158 L91.78045953566368 166.3801500942204 L80.78045953566368 166.3801500942204 Z" transform="rotate(0.0 86.28045953566368 163.1477272727273 ) " />
                  <path fill="#2b5b83" stroke="#2b5b83" stroke-opacity="0.0" stroke-width="0.0" d="M86.28045953566368 156.85387065259158 L86.28045953566368 156.85387065259158 L91.78045953566368 166.3801500942204 L80.78045953566368 166.3801500942204 Z" transform="rotate(0.0 86.28045953566368 163.1477272727273 ) " />
                  <path fill="#2b5b83" stroke="#2b5b83" stroke-opacity="0.0" stroke-width="0.0" d="M116.03234213416835 156.85387065259158 L116.03234213416835 156.85387065259158 L121.53234213416835 166.3801500942204 L110.53234213416835 166.3801500942204 Z" transform="rotate(0.0 116.03234213416835 163.1477272727273 ) " />
                  <path fill="#2b5b83" stroke="#2b5b83" stroke-opacity="0.0" stroke-width="0.0" d="M116.03234213416835 156.85387065259158 L116.03234213416835 156.85387065259158 L121.53234213416835 166.3801500942204 L110.53234213416835 166.3801500942204 Z" transform="rotate(0.0 116.03234213416835 163.1477272727273 ) " />
                  <path fill="#2e608a" stroke="#2e608a" stroke-opacity="0.0" stroke-width="0.0" d="M116.03234213416835 165.1777342889552 L116.03234213416835 165.1777342889552 L121.53234213416835 174.70401373058402 L110.53234213416835 174.70401373058402 Z" transform="rotate(0.0 116.03234213416835 171.47159090909093 ) " />
                  <path fill="#2e608a" stroke="#2e608a" stroke-opacity="0.0" stroke-width="0.0" d="M116.03234213416835 148.53000701622796 L116.03234213416835 148.53000701622796 L121.53234213416835 158.05628645785677 L110.53234213416835 158.05628645785677 Z" transform="rotate(0.0 116.03234213416835 154.82386363636368 ) " />
                  <path fill="#2b5b83" stroke="#2b5b83" stroke-opacity="0.0" stroke-width="0.0" d="M116.03234213416835 165.1777342889552 L116.03234213416835 165.1777342889552 L121.53234213416835 174.70401373058402 L110.53234213416835 174.70401373058402 Z" transform="rotate(0.0 116.03234213416835 171.47159090909093 ) " />
                  <path fill="#2e608a" stroke="#2e608a" stroke-opacity="0.0" stroke-width="0.0" d="M116.03234213416835 148.53000701622796 L116.03234213416835 148.53000701622796 L121.53234213416835 158.05628645785677 L110.53234213416835 158.05628645785677 Z" transform="rotate(0.0 116.03234213416835 154.82386363636368 ) " />
                  <path fill="#214769" stroke="#214769" stroke-opacity="0.0" stroke-width="0.0" d="M135.8669305331715 206.7970524707734 L135.8669305331715 206.7970524707734 L141.3669305331715 216.3233319124022 L130.3669305331715 216.3233319124022 Z" transform="rotate(0.0 135.8669305331715 213.09090909090912 ) " />
                  <path fill="#244c6f" stroke="#244c6f" stroke-opacity="0.0" stroke-width="0.0" d="M135.8669305331715 206.7970524707734 L135.8669305331715 206.7970524707734 L141.3669305331715 216.3233319124022 L130.3669305331715 216.3233319124022 Z" transform="rotate(0.0 135.8669305331715 213.09090909090912 ) " />
                  <path fill="#214769" stroke="#214769" stroke-opacity="0.0" stroke-width="0.0" d="M205.28798992968245 215.12091610713702 L205.28798992968245 215.12091610713702 L210.78798992968245 224.64719554876584 L199.78798992968245 224.64719554876584 Z" transform="rotate(0.0 205.28798992968245 221.41477272727275 ) " />
                  <path fill="#214769" stroke="#214769" stroke-opacity="0.0" stroke-width="0.0" d="M205.28798992968245 231.7686433798643 L205.28798992968245 231.7686433798643 L210.78798992968245 241.29492282149312 L199.78798992968245 241.29492282149312 Z" transform="rotate(0.0 205.28798992968245 238.06250000000003 ) " />
                  <path fill="#244c6f" stroke="#244c6f" stroke-opacity="0.0" stroke-width="0.0" d="M264.7917551266919 206.7970524707734 L264.7917551266919 206.7970524707734 L270.2917551266919 216.3233319124022 L259.2917551266919 216.3233319124022 Z" transform="rotate(0.0 264.7917551266919 213.09090909090912 ) " />
                  <path fill="#1f4262" stroke="#1f4262" stroke-opacity="0.0" stroke-width="0.0" d="M334.2128145232029 231.7686433798643 L334.2128145232029 231.7686433798643 L339.7128145232029 241.29492282149312 L328.7128145232029 241.29492282149312 Z" transform="rotate(0.0 334.2128145232029 238.06250000000003 ) " />
                  <circle fill="#306591" stroke="#306591" stroke-opacity="0.0" stroke-width="0.0" cx="86.28045953566368" cy="138.1761363636364" r="5.5" />
                  <circle fill="#306591" stroke="#306591" stroke-opacity="0.0" stroke-width="0.0" cx="86.28045953566368" cy="154.82386363636368" r="5.5" />
                  <circle fill="#306591" stroke="#306591" stroke-opacity="0.0" stroke-width="0.0" cx="106.11504793466679" cy="121.52840909090912" r="5.5" />
                  <circle fill="#306591" stroke="#306591" stroke-opacity="0.0" stroke-width="0.0" cx="106.11504793466679" cy="121.52840909090912" r="5.5" />
                  <circle fill="#29567d" stroke="#29567d" stroke-opacity="0.0" stroke-width="0.0" cx="165.61881313167623" cy="163.1477272727273" r="5.5" />
                  <circle fill="#29567d" stroke="#29567d" stroke-opacity="0.0" stroke-width="0.0" cx="165.61881313167623" cy="163.1477272727273" r="5.5" />
                  <circle fill="#2b5b83" stroke="#2b5b83" stroke-opacity="0.0" stroke-width="0.0" cx="215.20528412918407" cy="146.50000000000003" r="5.5" />
                  <circle fill="#306591" stroke="#306591" stroke-opacity="0.0" stroke-width="0.0" cx="86.28045953566368" cy="154.82386363636368" r="5.5" />
                  <circle fill="#306591" stroke="#306591" stroke-opacity="0.0" stroke-width="0.0" cx="86.28045953566368" cy="138.1761363636364" r="5.5" />
                  <circle fill="#306591" stroke="#306591" stroke-opacity="0.0" stroke-width="0.0" cx="106.11504793466679" cy="121.52840909090912" r="5.5" />
                  <circle fill="#336a98" stroke="#336a98" stroke-opacity="0.0" stroke-width="0.0" cx="106.11504793466679" cy="121.52840909090912" r="5.5" />
                  <circle fill="#29567d" stroke="#29567d" stroke-opacity="0.0" stroke-width="0.0" cx="165.61881313167623" cy="163.1477272727273" r="5.5" />
                  <circle fill="#29567d" stroke="#29567d" stroke-opacity="0.0" stroke-width="0.0" cx="165.61881313167623" cy="163.1477272727273" r="5.5" />
                  <circle fill="#29567d" stroke="#29567d" stroke-opacity="0.0" stroke-width="0.0" cx="195.3706957301809" cy="154.82386363636368" r="5.5" />
                  <circle fill="#3875a6" stroke="#3875a6" stroke-opacity="0.0" stroke-width="0.0" cx="46.611282737657376" cy="129.85227272727278" r="5.5" />
                  <circle fill="#3875a6" stroke="#3875a6" stroke-opacity="0.0" stroke-width="0.0" cx="46.611282737657376" cy="104.88068181818187" r="5.5" />
                  <circle fill="#3d7fb4" stroke="#3d7fb4" stroke-opacity="0.0" stroke-width="0.0" cx="46.611282737657376" cy="88.23295454545462" r="5.5" />
                  <circle fill="#438ac3" stroke="#438ac3" stroke-opacity="0.0" stroke-width="0.0" cx="46.611282737657376" cy="71.58522727272731" r="5.5" />
                  <circle fill="#3d7fb4" stroke="#3d7fb4" stroke-opacity="0.0" stroke-width="0.0" cx="46.611282737657376" cy="88.23295454545462" r="5.5" />
                  <path fill="#18344f" stroke="#18344f" stroke-opacity="0.0" stroke-width="0.0" d="M334.2128145232029 248.41637065259158 L334.2128145232029 248.41637065259158 L339.7128145232029 257.9426500942204 L328.7128145232029 257.9426500942204 Z" transform="rotate(0.0 334.2128145232029 254.7102272727273 ) " />
                  <path fill="#1c3d5c" stroke="#1c3d5c" stroke-opacity="0.0" stroke-width="0.0" d="M433.3857565182186 223.44477974350065 L433.3857565182186 223.44477974350065 L438.8857565182186 232.97105918512946 L427.8857565182186 232.97105918512946 Z" transform="rotate(0.0 433.3857565182186 229.73863636363637 ) " />
                  <path fill="#214769" stroke="#214769" stroke-opacity="0.0" stroke-width="0.0" d="M135.8669305331715 206.7970524707734 L135.8669305331715 206.7970524707734 L141.3669305331715 216.3233319124022 L130.3669305331715 216.3233319124022 Z" transform="rotate(0.0 135.8669305331715 213.09090909090912 ) " />
                  <path fill="#244c6f" stroke="#244c6f" stroke-opacity="0.0" stroke-width="0.0" d="M135.8669305331715 206.7970524707734 L135.8669305331715 206.7970524707734 L141.3669305331715 216.3233319124022 L130.3669305331715 216.3233319124022 Z" transform="rotate(0.0 135.8669305331715 213.09090909090912 ) " />
                  <path fill="#265176" stroke="#265176" stroke-opacity="0.0" stroke-width="0.0" d="M135.8669305331715 190.1493251980461 L135.8669305331715 190.1493251980461 L141.3669305331715 199.67560463967493 L130.3669305331715 199.67560463967493 Z" transform="rotate(0.0 135.8669305331715 196.44318181818184 ) " />
                  <path fill="#214769" stroke="#214769" stroke-opacity="0.0" stroke-width="0.0" d="M205.28798992968245 231.7686433798643 L205.28798992968245 231.7686433798643 L210.78798992968245 241.29492282149312 L199.78798992968245 241.29492282149312 Z" transform="rotate(0.0 205.28798992968245 238.06250000000003 ) " />
                  <path fill="#214769" stroke="#214769" stroke-opacity="0.0" stroke-width="0.0" d="M205.28798992968245 215.12091610713702 L205.28798992968245 215.12091610713702 L210.78798992968245 224.64719554876584 L199.78798992968245 224.64719554876584 Z" transform="rotate(0.0 205.28798992968245 221.41477272727275 ) " />
                  <path fill="#214769" stroke="#214769" stroke-opacity="0.0" stroke-width="0.0" d="M264.7917551266919 223.44477974350065 L264.7917551266919 223.44477974350065 L270.2917551266919 232.97105918512946 L259.2917551266919 232.97105918512946 Z" transform="rotate(0.0 264.7917551266919 229.73863636363637 ) " />
                  <path fill="#244c6f" stroke="#244c6f" stroke-opacity="0.0" stroke-width="0.0" d="M264.7917551266919 206.7970524707734 L264.7917551266919 206.7970524707734 L270.2917551266919 216.3233319124022 L259.2917551266919 216.3233319124022 Z" transform="rotate(0.0 264.7917551266919 213.09090909090912 ) " />
                  <circle fill="#306591" stroke="#306591" stroke-opacity="0.0" stroke-width="0.0" cx="66.44587113666051" cy="138.1761363636364" r="5.5" />
                  <circle fill="#2b5b83" stroke="#2b5b83" stroke-opacity="0.0" stroke-width="0.0" cx="66.44587113666051" cy="163.1477272727273" r="5.5" />
                  <circle fill="#306591" stroke="#306591" stroke-opacity="0.0" stroke-width="0.0" cx="66.44587113666051" cy="138.1761363636364" r="5.5" />
                  <circle fill="#336a98" stroke="#336a98" stroke-opacity="0.0" stroke-width="0.0" cx="66.44587113666051" cy="138.1761363636364" r="5.5" />
                  <circle fill="#265176" stroke="#265176" stroke-opacity="0.0" stroke-width="0.0" cx="145.78422473267307" cy="179.79545454545456" r="5.5" />
                  <circle fill="#50a6e8" stroke="#50a6e8" stroke-opacity="0.0" stroke-width="0.0" cx="56.52857693715893" cy="13.31818181818187" r="5.5" />
                  <circle fill="#306591" stroke="#306591" stroke-opacity="0.0" stroke-width="0.0" cx="66.44587113666051" cy="138.1761363636364" r="5.5" />
                  <circle fill="#2b5b83" stroke="#2b5b83" stroke-opacity="0.0" stroke-width="0.0" cx="66.44587113666051" cy="163.1477272727273" r="5.5" />
                  <circle fill="#336a98" stroke="#336a98" stroke-opacity="0.0" stroke-width="0.0" cx="66.44587113666051" cy="138.1761363636364" r="5.5" />
                  <circle fill="#306591" stroke="#306591" stroke-opacity="0.0" stroke-width="0.0" cx="66.44587113666051" cy="138.1761363636364" r="5.5" />
                  <circle fill="#306591" stroke="#306591" stroke-opacity="0.0" stroke-width="0.0" cx="116.03234213416835" cy="138.1761363636364" r="5.5" />
                  <circle fill="#306591" stroke="#306591" stroke-opacity="0.0" stroke-width="0.0" cx="116.03234213416835" cy="138.1761363636364" r="5.5" />
                  <circle fill="#244c6f" stroke="#244c6f" stroke-opacity="0.0" stroke-width="0.0" cx="145.78422473267307" cy="188.11931818181822" r="5.5" />
                  <circle fill="#265176" stroke="#265176" stroke-opacity="0.0" stroke-width="0.0" cx="145.78422473267307" cy="179.79545454545456" r="5.5" />
                  <circle fill="#56b1f7" stroke="#56b1f7" stroke-opacity="0.0" stroke-width="0.0" cx="56.52857693715893" cy="13.31818181818187" r="5.5" />
                  <circle fill="#458fca" stroke="#458fca" stroke-opacity="0.0" stroke-width="0.0" cx="56.52857693715893" cy="38.289772727272805" r="5.5" />
                  <circle fill="#306591" stroke="#306591" stroke-opacity="0.0" stroke-width="0.0" cx="66.44587113666051" cy="138.1761363636364" r="5.5" />
                  <circle fill="#2b5b83" stroke="#2b5b83" stroke-opacity="0.0" stroke-width="0.0" cx="66.44587113666051" cy="163.1477272727273" r="5.5" />
                  <circle fill="#2e608a" stroke="#2e608a" stroke-opacity="0.0" stroke-width="0.0" cx="116.03234213416835" cy="146.50000000000003" r="5.5" />
                  <circle fill="#2e608a" stroke="#2e608a" stroke-opacity="0.0" stroke-width="0.0" cx="116.03234213416835" cy="138.1761363636364" r="5.5" />
                  <circle fill="#306591" stroke="#306591" stroke-opacity="0.0" stroke-width="0.0" cx="46.611282737657376" cy="138.1761363636364" r="5.5" />
                  <circle fill="#29567d" stroke="#29567d" stroke-opacity="0.0" stroke-width="0.0" cx="46.611282737657376" cy="138.1761363636364" r="5.5" />
                  <circle fill="#2b5b83" stroke="#2b5b83" stroke-opacity="0.0" stroke-width="0.0" cx="66.44587113666051" cy="146.50000000000003" r="5.5" />
                  <circle fill="#306591" stroke="#306591" stroke-opacity="0.0" stroke-width="0.0" cx="66.44587113666051" cy="138.1761363636364" r="5.5" />
                  <circle fill="#244c6f" stroke="#244c6f" stroke-opacity="0.0" stroke-width="0.0" cx="145.78422473267307" cy="163.1477272727273" r="5.5" />
                  <circle fill="#29567d" stroke="#29567d" stroke-opacity="0.0" stroke-width="0.0" cx="145.78422473267307" cy="163.1477272727273" r="5.5" />
                  <circle fill="#265176" stroke="#265176" stroke-opacity="0.0" stroke-width="0.0" cx="225.12257832868562" cy="163.1477272727273" r="5.5" />
                </g>
              </g>
            </g>
          </g>
        </g>
        <defs>
          <clipPath id="xXxprefixXx1">
            <rect x="21.961210910936405" y="0.0" width="589.0872754503931" height="293.0">
            </rect>
          </clipPath>
        </defs>
      </g>
      <g>
        <g transform="translate(21.961210910936405 293.0 ) ">
          <g transform="translate(66.44587113666051 0.0 ) ">
            <line stroke-width="1.0" stroke="rgb(71,71,71)" stroke-opacity="1.0" x2="0.0" y2="4.0">
            </line>
            <g transform="translate(0.0 7.0 ) ">
              <text class="axis-text-x" text-anchor="middle" dy="0.7em">
                <tspan>2</tspan>
              </text>
            </g>
          </g>
          <g transform="translate(165.61881313167623 0.0 ) ">
            <line stroke-width="1.0" stroke="rgb(71,71,71)" stroke-opacity="1.0" x2="0.0" y2="4.0">
            </line>
            <g transform="translate(0.0 7.0 ) ">
              <text class="axis-text-x" text-anchor="middle" dy="0.7em">
                <tspan>3</tspan>
              </text>
            </g>
          </g>
          <g transform="translate(264.7917551266919 0.0 ) ">
            <line stroke-width="1.0" stroke="rgb(71,71,71)" stroke-opacity="1.0" x2="0.0" y2="4.0">
            </line>
            <g transform="translate(0.0 7.0 ) ">
              <text class="axis-text-x" text-anchor="middle" dy="0.7em">
                <tspan>4</tspan>
              </text>
            </g>
          </g>
          <g transform="translate(363.96469712170756 0.0 ) ">
            <line stroke-width="1.0" stroke="rgb(71,71,71)" stroke-opacity="1.0" x2="0.0" y2="4.0">
            </line>
            <g transform="translate(0.0 7.0 ) ">
              <text class="axis-text-x" text-anchor="middle" dy="0.7em">
                <tspan>5</tspan>
              </text>
            </g>
          </g>
          <g transform="translate(463.13763911672334 0.0 ) ">
            <line stroke-width="1.0" stroke="rgb(71,71,71)" stroke-opacity="1.0" x2="0.0" y2="4.0">
            </line>
            <g transform="translate(0.0 7.0 ) ">
              <text class="axis-text-x" text-anchor="middle" dy="0.7em">
                <tspan>6</tspan>
              </text>
            </g>
          </g>
          <g transform="translate(562.310581111739 0.0 ) ">
            <line stroke-width="1.0" stroke="rgb(71,71,71)" stroke-opacity="1.0" x2="0.0" y2="4.0">
            </line>
            <g transform="translate(0.0 7.0 ) ">
              <text class="axis-text-x" text-anchor="middle" dy="0.7em">
                <tspan>7</tspan>
              </text>
            </g>
          </g>
          <line x1="0.0" y1="0.0" x2="589.0872754503931" y2="0.0" stroke-width="1.0" stroke="rgb(71,71,71)" stroke-opacity="1.0">
          </line>
        </g>
        <g transform="translate(21.961210910936405 0.0 ) ">
          <g transform="translate(0.0 254.7102272727273 ) ">
            <g transform="translate(-3.0 0.0 ) ">
              <text class="axis-text-y" text-anchor="end" dy="0.35em">
                <tspan>15</tspan>
              </text>
            </g>
          </g>
          <g transform="translate(0.0 213.09090909090912 ) ">
            <g transform="translate(-3.0 0.0 ) ">
              <text class="axis-text-y" text-anchor="end" dy="0.35em">
                <tspan>20</tspan>
              </text>
            </g>
          </g>
          <g transform="translate(0.0 171.47159090909093 ) ">
            <g transform="translate(-3.0 0.0 ) ">
              <text class="axis-text-y" text-anchor="end" dy="0.35em">
                <tspan>25</tspan>
              </text>
            </g>
          </g>
          <g transform="translate(0.0 129.85227272727278 ) ">
            <g transform="translate(-3.0 0.0 ) ">
              <text class="axis-text-y" text-anchor="end" dy="0.35em">
                <tspan>30</tspan>
              </text>
            </g>
          </g>
          <g transform="translate(0.0 88.23295454545462 ) ">
            <g transform="translate(-3.0 0.0 ) ">
              <text class="axis-text-y" text-anchor="end" dy="0.35em">
                <tspan>35</tspan>
              </text>
            </g>
          </g>
          <g transform="translate(0.0 46.61363636363643 ) ">
            <g transform="translate(-3.0 0.0 ) ">
              <text class="axis-text-y" text-anchor="end" dy="0.35em">
                <tspan>40</tspan>
              </text>
            </g>
          </g>
          <g transform="translate(0.0 4.994318181818244 ) ">
            <g transform="translate(-3.0 0.0 ) ">
              <text class="axis-text-y" text-anchor="end" dy="0.35em">
                <tspan>45</tspan>
              </text>
            </g>
          </g>
        </g>
      </g>
    </g>
    <g transform="translate(16.0 153.0 ) rotate(-90.0 ) ">
      <text class="axis-title-y" y="0.0" text-anchor="middle">
        <tspan>hwy</tspan>
      </text>
    </g>
    <g transform="translate(346.004848636133 345.0 ) ">
      <text class="axis-title-x" y="0.0" text-anchor="middle">
        <tspan>displ</tspan>
      </text>
    </g>
    <g transform="translate(652.0484863613295 23.5 ) ">
      <rect x="0.0" y="0.0" height="147.5" width="52.951513638670505" stroke="rgb(71,71,71)" stroke-opacity="1.0" stroke-width="0.0" fill="rgb(255,255,255)" fill-opacity="1.0">
      </rect>
      <g transform="translate(5.0 5.0 ) ">
        <g transform="translate(0.0 12.0 ) ">
          <text class="legend-title" y="0.0">
            <tspan>cty</tspan>
          </text>
        </g>
        <g transform="translate(0.0 22.5 ) ">
          <g>
            <rect x="0.0" y="0.0" height="115.0" width="23.0" stroke-width="0.0" fill="rgb(84,173,242)" fill-opacity="1.0">
            </rect>
            <rect x="0.0" y="7.55" height="107.45" width="23.0" stroke-width="0.0" fill="rgb(81,166,232)" fill-opacity="1.0">
            </rect>
            <rect x="0.0" y="13.1" height="101.9" width="23.0" stroke-width="0.0" fill="rgb(77,159,222)" fill-opacity="1.0">
            </rect>
            <rect x="0.0" y="18.65" height="96.35" width="23.0" stroke-width="0.0" fill="rgb(73,151,213)" fill-opacity="1.0">
            </rect>
            <rect x="0.0" y="24.2" height="90.8" width="23.0" stroke-width="0.0" fill="rgb(70,144,203)" fill-opacity="1.0">
            </rect>
            <rect x="0.0" y="29.75" height="85.25" width="23.0" stroke-width="0.0" fill="rgb(66,137,194)" fill-opacity="1.0">
            </rect>
            <rect x="0.0" y="35.3" height="79.7" width="23.0" stroke-width="0.0" fill="rgb(63,130,184)" fill-opacity="1.0">
            </rect>
            <rect x="0.0" y="40.849999999999994" height="74.15" width="23.0" stroke-width="0.0" fill="rgb(59,123,175)" fill-opacity="1.0">
            </rect>
            <rect x="0.0" y="46.39999999999999" height="68.60000000000001" width="23.0" stroke-width="0.0" fill="rgb(56,116,166)" fill-opacity="1.0">
            </rect>
            <rect x="0.0" y="51.94999999999999" height="63.05000000000001" width="23.0" stroke-width="0.0" fill="rgb(52,110,156)" fill-opacity="1.0">
            </rect>
            <rect x="0.0" y="57.499999999999986" height="57.500000000000014" width="23.0" stroke-width="0.0" fill="rgb(49,103,147)" fill-opacity="1.0">
            </rect>
            <rect x="0.0" y="63.04999999999998" height="51.95000000000002" width="23.0" stroke-width="0.0" fill="rgb(46,96,138)" fill-opacity="1.0">
            </rect>
            <rect x="0.0" y="68.59999999999998" height="46.40000000000002" width="23.0" stroke-width="0.0" fill="rgb(42,90,130)" fill-opacity="1.0">
            </rect>
            <rect x="0.0" y="74.14999999999998" height="40.85000000000002" width="23.0" stroke-width="0.0" fill="rgb(39,83,121)" fill-opacity="1.0">
            </rect>
            <rect x="0.0" y="79.69999999999997" height="35.300000000000026" width="23.0" stroke-width="0.0" fill="rgb(36,77,112)" fill-opacity="1.0">
            </rect>
            <rect x="0.0" y="85.24999999999997" height="29.75000000000003" width="23.0" stroke-width="0.0" fill="rgb(33,70,104)" fill-opacity="1.0">
            </rect>
            <rect x="0.0" y="90.79999999999997" height="24.20000000000003" width="23.0" stroke-width="0.0" fill="rgb(30,64,95)" fill-opacity="1.0">
            </rect>
            <rect x="0.0" y="96.34999999999997" height="18.650000000000034" width="23.0" stroke-width="0.0" fill="rgb(27,58,87)" fill-opacity="1.0">
            </rect>
            <rect x="0.0" y="101.89999999999996" height="13.100000000000037" width="23.0" stroke-width="0.0" fill="rgb(24,52,79)" fill-opacity="1.0">
            </rect>
            <rect x="0.0" y="107.44999999999996" height="7.55000000000004" width="23.0" stroke-width="0.0" fill="rgb(20,46,71)" fill-opacity="1.0">
            </rect>
            <line x1="0.0" y1="108.73076923076921" x2="4.6" y2="108.73076923076921" stroke-width="1.0" stroke="rgb(255,255,255)" stroke-opacity="1.0">
            </line>
            <line x1="18.4" y1="108.73076923076921" x2="23.0" y2="108.73076923076921" stroke-width="1.0" stroke="rgb(255,255,255)" stroke-opacity="1.0">
            </line>
            <g transform="translate(26.9903027277341 113.28076923076921 ) ">
              <text class="legend-item" y="0.0">
                <tspan>10</tspan>
              </text>
            </g>
            <line x1="0.0" y1="87.38461538461537" x2="4.6" y2="87.38461538461537" stroke-width="1.0" stroke="rgb(255,255,255)" stroke-opacity="1.0">
            </line>
            <line x1="18.4" y1="87.38461538461537" x2="23.0" y2="87.38461538461537" stroke-width="1.0" stroke="rgb(255,255,255)" stroke-opacity="1.0">
            </line>
            <g transform="translate(26.9903027277341 91.93461538461537 ) ">
              <text class="legend-item" y="0.0">
                <tspan>15</tspan>
              </text>
            </g>
            <line x1="0.0" y1="66.03846153846152" x2="4.6" y2="66.03846153846152" stroke-width="1.0" stroke="rgb(255,255,255)" stroke-opacity="1.0">
            </line>
            <line x1="18.4" y1="66.03846153846152" x2="23.0" y2="66.03846153846152" stroke-width="1.0" stroke="rgb(255,255,255)" stroke-opacity="1.0">
            </line>
            <g transform="translate(26.9903027277341 70.58846153846152 ) ">
              <text class="legend-item" y="0.0">
                <tspan>20</tspan>
              </text>
            </g>
            <line x1="0.0" y1="44.69230769230768" x2="4.6" y2="44.69230769230768" stroke-width="1.0" stroke="rgb(255,255,255)" stroke-opacity="1.0">
            </line>
            <line x1="18.4" y1="44.69230769230768" x2="23.0" y2="44.69230769230768" stroke-width="1.0" stroke="rgb(255,255,255)" stroke-opacity="1.0">
            </line>
            <g transform="translate(26.9903027277341 49.242307692307676 ) ">
              <text class="legend-item" y="0.0">
                <tspan>25</tspan>
              </text>
            </g>
            <line x1="0.0" y1="23.34615384615384" x2="4.6" y2="23.34615384615384" stroke-width="1.0" stroke="rgb(255,255,255)" stroke-opacity="1.0">
            </line>
            <line x1="18.4" y1="23.34615384615384" x2="23.0" y2="23.34615384615384" stroke-width="1.0" stroke="rgb(255,255,255)" stroke-opacity="1.0">
            </line>
            <g transform="translate(26.9903027277341 27.896153846153837 ) ">
              <text class="legend-item" y="0.0">
                <tspan>30</tspan>
              </text>
            </g>
            <line x1="0.0" y1="1.9999999999999716" x2="4.6" y2="1.9999999999999716" stroke-width="1.0" stroke="rgb(255,255,255)" stroke-opacity="1.0">
            </line>
            <line x1="18.4" y1="1.9999999999999716" x2="23.0" y2="1.9999999999999716" stroke-width="1.0" stroke="rgb(255,255,255)" stroke-opacity="1.0">
            </line>
            <g transform="translate(26.9903027277341 6.5499999999999705 ) ">
              <text class="legend-item" y="0.0">
                <tspan>35</tspan>
              </text>
            </g>
          </g>
        </g>
      </g>
    </g>
    <g transform="translate(652.0484863613295 181.0 ) ">
      <rect x="0.0" y="0.0" height="101.5" width="52.951513638670505" stroke="rgb(71,71,71)" stroke-opacity="1.0" stroke-width="0.0" fill="rgb(255,255,255)" fill-opacity="1.0">
      </rect>
      <g transform="translate(5.0 5.0 ) ">
        <g transform="translate(0.0 12.0 ) ">
          <text class="legend-title" y="0.0">
            <tspan>drv</tspan>
          </text>
        </g>
        <g transform="translate(0.0 22.5 ) ">
          <g transform="">
            <g>
              <g transform="translate(1.0 1.0 ) ">
                <g>
                  <g >
                    <circle fill="#474747" stroke="#474747" stroke-opacity="0.0" stroke-width="0.0" cx="10.5" cy="10.5" r="5.5" />
                  </g>
                </g>
              </g>
            </g>
            <g transform="translate(26.9903027277341 16.05 ) ">
              <text class="legend-item" y="0.0">
                <tspan>f</tspan>
              </text>
            </g>
          </g>
          <g transform="translate(0.0 23.0 ) ">
            <g>
              <g transform="translate(1.0 1.0 ) ">
                <g>
                  <g >
                    <path fill="#474747" stroke="#474747" stroke-opacity="0.0" stroke-width="0.0" d="M10.5 5.736860279185588 L10.5 5.736860279185588 L16.0 15.263139720814412 L5.0 15.263139720814412 Z" transform="rotate(0.0 10.5 10.5 ) " />
                  </g>
                </g>
              </g>
            </g>
            <g transform="translate(26.9903027277341 16.05 ) ">
              <text class="legend-item" y="0.0">
                <tspan>4</tspan>
              </text>
            </g>
          </g>
          <g transform="translate(0.0 46.0 ) ">
            <g>
              <g transform="translate(1.0 1.0 ) ">
                <g>
                  <g >
                    <rect fill="#474747" stroke="#474747" stroke-opacity="0.0" stroke-width="0.0" x="5.0" y="5.0" height="11.0" width="11.0" transform="rotate(0.0 10.5 10.5 ) " />
                  </g>
                </g>
              </g>
            </g>
            <g transform="translate(26.9903027277341 16.05 ) ">
              <text class="legend-item" y="0.0">
                <tspan>r</tspan>
              </text>
            </g>
          </g>
        </g>
      </g>
    </g>
    <path fill="rgb(0,0,0)" fill-opacity="0.0" stroke="rgb(71,71,71)" stroke-opacity="1.0" stroke-width="0.0" d="M0.0 0.0 L0.0 352.0 L705.0 352.0 L705.0 0.0 Z" pointer-events="none">
    </path>
  </g>
  <g id="xXxprefixXx2">
  </g>
</svg>