<svg xmlns="http://www.w3.org/2000/svg" xmlns:xlink="http://www.w3.org/1999/xlink" class="plt-container" width="705.0" height="313.0">
  <style type="text/css">
  .plt-container {
   font-family: Lucida Grande, sans-serif;
   user-select: none;
   -webkit-user-select: none;
   -moz-user-select: none;
   -ms-user-select: none;
}
text {
   text-rendering: optimizeLegibility;
}
#xXxprefixXx0 .plot-title {
   fill: #474747;
   font-family: Lucida Grande, sans-serif;
   font-size: 16.0px;
   font-weight: normal;
   font-style: normal;   
}
#xXxprefixXx0 .plot-subtitle {
   fill: #474747;
   font-family: Lucida Grande, sans-serif;
   font-size: 15.0px;
   font-weight: normal;
   font-style: normal;   
}
#xXxprefixXx0 .plot-caption {
   fill: #474747;
   font-family: Lucida Grande, sans-serif;
   font-size: 13.0px;
   font-weight: normal;
   font-style: normal;   
}
#xXxprefixXx0 .legend-title {
   fill: #474747;
   font-family: Lucida Grande, sans-serif;
   font-size: 15.0px;
   font-weight: normal;
   font-style: normal;   
}
#xXxprefixXx0 .legend-item {
   fill: #474747;
   font-family: Lucida Grande, sans-serif;
   font-size: 13.0px;
   font-weight: normal;
   font-style: normal;   
}
#xXxprefixXx0 .axis-title-x {
   fill: #474747;
   font-family: Lucida Grande, sans-serif;
   font-size: 15.0px;
   font-weight: normal;
   font-style: normal;   
}
#xXxprefixXx0 .axis-text-x {
   fill: #474747;
   font-family: Lucida Grande, sans-serif;
   font-size: 13.0px;
   font-weight: normal;
   font-style: normal;   
}
#xXxprefixXx4 .axis-tooltip-text-x {
   fill: #ffffff;
   font-family: Lucida Grande, sans-serif;
   font-size: 13.0px;
   font-weight: normal;
   font-style: normal;   
}
#xXxprefixXx0 .axis-title-y {
   fill: #474747;
   font-family: Lucida Grande, sans-serif;
   font-size: 15.0px;
   font-weight: normal;
   font-style: normal;   
}
#xXxprefixXx0 .axis-text-y {
   fill: #474747;
   font-family: Lucida Grande, sans-serif;
   font-size: 13.0px;
   font-weight: normal;
   font-style: normal;   
}
#xXxprefixXx4 .axis-tooltip-text-y {
   fill: #ffffff;
   font-family: Lucida Grande, sans-serif;
   font-size: 13.0px;
   font-weight: normal;
   font-style: normal;   
}
#xXxprefixXx0 .facet-strip-text-x {
   fill: #474747;
   font-family: Lucida Grande, sans-serif;
   font-size: 13.0px;
   font-weight: normal;
   font-style: normal;   
}
#xXxprefixXx0 .facet-strip-text-y {
   fill: #474747;
   font-family: Lucida Grande, sans-serif;
   font-size: 13.0px;
   font-weight: normal;
   font-style: normal;   
}
#xXxprefixXx4 .tooltip-text {
   fill: #474747;
   font-family: Lucida Grande, sans-serif;
   font-size: 13.0px;
   font-weight: normal;
   font-style: normal;   
}
#xXxprefixXx4 .tooltip-title {
   fill: #474747;
   font-family: Lucida Grande, sans-serif;
   font-size: 13.0px;
   font-weight: bold;
   font-style: normal;   
}
#xXxprefixXx4 .tooltip-label {
   fill: #474747;
   font-family: Lucida Grande, sans-serif;
   font-size: 13.0px;
   font-weight: bold;
   font-style: normal;   
}

  </style>
  <g id="xXxprefixXx0">
    <path fill-rule="evenodd" fill="rgb(255,255,255)" fill-opacity="1.0" d="M0.0 0.0 L0.0 313.0 L705.0 313.0 L705.0 0.0 Z">
    </path>
    <g transform="translate(23.0 34.0 ) ">
      <g transform="translate(21.961210910936405 0.0 ) ">
        <line x1="71.02197836863525" y1="233.0" x2="71.02197836863525" y2="0.0" stroke="rgb(233,233,233)" stroke-opacity="1.0" stroke-width="1.0" fill="none">
        </line>
        <line x1="153.93364052770698" y1="233.0" x2="153.93364052770698" y2="0.0" stroke="rgb(233,233,233)" stroke-opacity="1.0" stroke-width="1.0" fill="none">
        </line>
        <line x1="236.95888030617493" y1="233.0" x2="236.95888030617493" y2="0.0" stroke="rgb(233,233,233)" stroke-opacity="1.0" stroke-width="1.0" fill="none">
        </line>
        <line x1="319.8705424652469" y1="233.0" x2="319.8705424652469" y2="0.0" stroke="rgb(233,233,233)" stroke-opacity="1.0" stroke-width="1.0" fill="none">
        </line>
        <line x1="402.89578224371485" y1="233.0" x2="402.89578224371485" y2="0.0" stroke="rgb(233,233,233)" stroke-opacity="1.0" stroke-width="1.0" fill="none">
        </line>
        <line x1="485.8074444027868" y1="233.0" x2="485.8074444027868" y2="0.0" stroke="rgb(233,233,233)" stroke-opacity="1.0" stroke-width="1.0" fill="none">
        </line>
        <line x1="568.8326841812548" y1="233.0" x2="568.8326841812548" y2="0.0" stroke="rgb(233,233,233)" stroke-opacity="1.0" stroke-width="1.0" fill="none">
        </line>
      </g>
      <g transform="translate(21.961210910936405 233.0 ) ">
        <g transform="translate(71.02197836863525 0.0 ) ">
          <line stroke-width="1.0" stroke="rgb(71,71,71)" stroke-opacity="1.0" x2="0.0" y2="4.0">
          </line>
          <g transform="translate(0.0 7.0 ) ">
            <text class="axis-text-x" text-anchor="middle" dy="0.7em">
              <tspan>2002</tspan>
            </text>
          </g>
        </g>
        <g transform="translate(153.93364052770698 0.0 ) ">
          <line stroke-width="1.0" stroke="rgb(71,71,71)" stroke-opacity="1.0" x2="0.0" y2="4.0">
          </line>
          <g transform="translate(0.0 7.0 ) ">
            <text class="axis-text-x" text-anchor="middle" dy="0.7em">
              <tspan>2004</tspan>
            </text>
          </g>
        </g>
        <g transform="translate(236.95888030617493 0.0 ) ">
          <line stroke-width="1.0" stroke="rgb(71,71,71)" stroke-opacity="1.0" x2="0.0" y2="4.0">
          </line>
          <g transform="translate(0.0 7.0 ) ">
            <text class="axis-text-x" text-anchor="middle" dy="0.7em">
              <tspan>2006</tspan>
            </text>
          </g>
        </g>
        <g transform="translate(319.8705424652469 0.0 ) ">
          <line stroke-width="1.0" stroke="rgb(71,71,71)" stroke-opacity="1.0" x2="0.0" y2="4.0">
          </line>
          <g transform="translate(0.0 7.0 ) ">
            <text class="axis-text-x" text-anchor="middle" dy="0.7em">
              <tspan>2008</tspan>
            </text>
          </g>
        </g>
        <g transform="translate(402.89578224371485 0.0 ) ">
          <line stroke-width="1.0" stroke="rgb(71,71,71)" stroke-opacity="1.0" x2="0.0" y2="4.0">
          </line>
          <g transform="translate(0.0 7.0 ) ">
            <text class="axis-text-x" text-anchor="middle" dy="0.7em">
              <tspan>2010</tspan>
            </text>
          </g>
        </g>
        <g transform="translate(485.8074444027868 0.0 ) ">
          <line stroke-width="1.0" stroke="rgb(71,71,71)" stroke-opacity="1.0" x2="0.0" y2="4.0">
          </line>
          <g transform="translate(0.0 7.0 ) ">
            <text class="axis-text-x" text-anchor="middle" dy="0.7em">
              <tspan>2012</tspan>
            </text>
          </g>
        </g>
        <g transform="translate(568.8326841812548 0.0 ) ">
          <line stroke-width="1.0" stroke="rgb(71,71,71)" stroke-opacity="1.0" x2="0.0" y2="4.0">
          </line>
          <g transform="translate(0.0 7.0 ) ">
            <text class="axis-text-x" text-anchor="middle" dy="0.7em">
              <tspan>2014</tspan>
            </text>
          </g>
        </g>
        <line x1="0.0" y1="0.0" x2="650.0387890890636" y2="0.0" stroke-width="1.0" stroke="rgb(71,71,71)" stroke-opacity="1.0">
        </line>
      </g>
      <g transform="translate(21.961210910936405 0.0 ) ">
        <line x1="0.0" y1="176.5515463917526" x2="650.0387890890636" y2="176.5515463917526" stroke="rgb(233,233,233)" stroke-opacity="1.0" stroke-width="1.0" fill="none">
        </line>
        <line x1="0.0" y1="121.95923149015931" x2="650.0387890890636" y2="121.95923149015931" stroke="rgb(233,233,233)" stroke-opacity="1.0" stroke-width="1.0" fill="none">
        </line>
        <line x1="0.0" y1="67.36691658856606" x2="650.0387890890636" y2="67.36691658856606" stroke="rgb(233,233,233)" stroke-opacity="1.0" stroke-width="1.0" fill="none">
        </line>
        <line x1="0.0" y1="12.774601686972801" x2="650.0387890890636" y2="12.774601686972801" stroke="rgb(233,233,233)" stroke-opacity="1.0" stroke-width="1.0" fill="none">
        </line>
      </g>
      <g transform="translate(21.961210910936405 0.0 ) ">
        <g transform="translate(0.0 231.14386129334585 ) ">
          <g transform="translate(-3.0 0.0 ) ">
            <text class="axis-text-y" text-anchor="end" dy="0.35em">
              <tspan>5</tspan>
            </text>
          </g>
        </g>
        <g transform="translate(0.0 176.5515463917526 ) ">
          <g transform="translate(-3.0 0.0 ) ">
            <text class="axis-text-y" text-anchor="end" dy="0.35em">
              <tspan>10</tspan>
            </text>
          </g>
        </g>
        <g transform="translate(0.0 121.95923149015931 ) ">
          <g transform="translate(-3.0 0.0 ) ">
            <text class="axis-text-y" text-anchor="end" dy="0.35em">
              <tspan>15</tspan>
            </text>
          </g>
        </g>
        <g transform="translate(0.0 67.36691658856606 ) ">
          <g transform="translate(-3.0 0.0 ) ">
            <text class="axis-text-y" text-anchor="end" dy="0.35em">
              <tspan>20</tspan>
            </text>
          </g>
        </g>
        <g transform="translate(0.0 12.774601686972801 ) ">
          <g transform="translate(-3.0 0.0 ) ">
            <text class="axis-text-y" text-anchor="end" dy="0.35em">
              <tspan>25</tspan>
            </text>
          </g>
        </g>
      </g>
      <g transform="translate(21.961210910936405 0.0 ) " clip-path="url(#xXxprefixXx1)" clip-bounds-jfx="[rect (0.0, 0.0), (650.0387890890636, 233.0)]">
        <defs>
          <clipPath id="xXxprefixXx1">
            <rect x="0.0" y="0.0" width="650.0387890890636" height="233.0">
            </rect>
          </clipPath>
        </defs>
        <g>
          <path d="M29.5472176858666 222.40909090909093 L29.5472176858666 222.40909090909093 L33.068123887142065 219.13355201499533 L36.24829723022981 213.674320524836 L39.76447103069745 221.31724461105904 L43.17179961257693 216.9498594189316 L46.692705813852626 220.2253983130272 L50.10003439573234 211.49062792877226 L53.62094059700803 210.39878163074042 L57.14184679828372 207.12324273664478 L60.54917538016343 206.03139643861294 L64.07481398224718 201.66401124648547 L67.48214256412689 196.20477975632616 L71.00304876540258 194.02108716026243 L74.52395496667805 195.11293345829426 L77.70412830976579 194.02108716026243 L81.22030211023343 188.56185567010309 L84.62763069211292 182.0107778819119 L88.14853689338861 165.63308341143392 L91.55586547526832 188.56185567010309 L95.07677167654401 187.47000937207122 L98.5976778778197 182.0107778819119 L102.00500645969919 180.91893158388004 L105.53064506178316 184.19447047797564 L108.93797364366287 180.91893158388004 L112.45887984493856 180.91893158388004 L115.97978604621403 182.0107778819119 L119.15995938930178 179.82708528584817 L122.67613318976919 174.36785379568886 L126.0834617716489 177.64339268978443 L129.6043679729246 160.1738519212746 L133.0116965548043 173.27600749765696 L136.53260275608 175.4597000937207 L140.0535089573557 174.36785379568886 L143.46083753923517 172.18416119962512 L146.98647614131914 173.27600749765696 L150.39380472319885 172.18416119962512 L153.91471092447432 170.0004686035614 L157.43561712575 174.36785379568886 L160.72936808823374 174.36785379568886 L164.24554188870115 182.0107778819119 L167.65287047058087 177.64339268978443 L171.17377667185656 165.63308341143392 L174.58110525373627 188.56185567010309 L178.10201145501196 185.2863167760075 L181.62291765628765 180.91893158388004 L185.03024623816714 182.0107778819119 L188.5558848402511 179.82708528584817 L191.96321342213082 182.0107778819119 L195.4841196234063 183.10262417994375 L199.00502582468198 185.2863167760075 L202.18519916776972 184.19447047797564 L205.70137296823714 187.47000937207122 L209.10870155011685 186.37816307403938 L212.62960775139254 187.47000937207122 L216.03693633327225 189.65370196813495 L219.55784253454794 185.2863167760075 L223.07874873582364 194.02108716026243 L226.48607731770312 191.8373945641987 L230.0117159197871 192.92924086223056 L233.4190445016668 190.74554826616685 L236.93995070294227 191.8373945641987 L240.46085690421796 186.37816307403938 L243.6410302473057 190.74554826616685 L247.15720404777312 194.02108716026243 L250.56453262965283 192.92924086223056 L254.08543883092852 206.03139643861294 L257.49276741280823 198.3884723523899 L261.0136736140839 194.02108716026243 L264.5345798153594 198.3884723523899 L267.9419083972391 199.48031865042174 L271.4675469993231 195.11293345829426 L274.87487558120256 203.8477038425492 L278.39578178247825 195.11293345829426 L281.91668798375395 192.92924086223056 L285.0968613268417 186.37816307403938 L288.6130351273091 191.8373945641987 L292.0203637091888 196.20477975632616 L295.5412699104645 201.66401124648547 L298.9485984923442 190.74554826616685 L302.4695046936199 189.65370196813495 L305.9904108948954 190.74554826616685 L309.3977394767751 194.02108716026243 L312.92337807885906 191.8373945641987 L316.33070666073854 194.02108716026243 L319.85161286201424 187.47000937207122 L323.37251906328993 190.74554826616685 L326.66627002577366 190.74554826616685 L330.18244382624107 183.10262417994375 L333.5897724081208 199.48031865042174 L337.1106786093965 187.47000937207122 L340.5180071912762 179.82708528584817 L344.0389133925519 179.82708528584817 L347.55981959382734 174.36785379568886 L350.96714817570705 172.18416119962512 L354.492786777791 178.7352389878163 L357.9001153596705 171.09231490159326 L361.4210215609462 168.90862230552955 L364.9419277622219 157.99015932521087 L368.12210110530964 151.43908153701966 L371.63827490577705 142.70431115276475 L375.04560348765676 130.69400187441425 L378.56650968893246 97.93861293345827 L381.97383827081217 111.04076850984066 L385.49474447208786 107.76522961574506 L389.0156506733633 91.38753514526707 L392.42297925524304 79.37722586691658 L395.948617857327 69.55060918462976 L399.3559464392065 66.27507029053416 L402.8768526404822 67.36691658856606 L406.3977588417579 68.45876288659792 L409.5779321848456 62.99953139643861 L413.09410598531304 44.43814432989686 L416.50143456719275 42.25445173383315 L420.02234076846844 10.590909090909065 L423.42966935034815 42.25445173383315 L426.9505755516236 56.448453608247405 L430.4714817528993 64.09137769447045 L433.878810334779 54.26476101218367 L437.40444893686276 56.448453608247405 L440.8117775187425 46.62183692596062 L444.33268372001817 50.989222118088065 L447.85358992129386 55.35660731021551 L451.0337632643816 50.989222118088065 L454.549937064849 57.54029990627927 L457.95726564672873 49.8973758200562 L461.4781718480044 41.16260543580131 L464.88550042988413 45.529990627928754 L468.4064066311596 41.16260543580131 L471.9273128324353 45.529990627928754 L475.334641414315 60.81583880037485 L478.86028001639875 58.63214620431111 L482.26760859827846 61.907685098406716 L485.78851479955415 58.63214620431111 L489.30942100082984 70.64245548266166 L492.60317196331357 76.10168697282097 L496.12407816458926 77.19353327085281 L499.53140674646875 68.45876288659792 L503.05231294774444 62.99953139643861 L506.45964152962415 94.66307403936267 L509.98054773089984 84.83645735707591 L513.5014539321755 80.46907216494841 L516.9087825140552 68.45876288659792 L520.4296887153307 82.65276476101215 L523.8370172972104 92.47938144329896 L527.3579234984861 113.2244611059044 L530.8788296997618 97.93861293345827 L534.0590030428496 93.5712277413308 L537.5799092441252 99.03045923149011 L540.9872378260047 99.03045923149011 L544.5081440272804 100.12230552952201 L547.9154726091601 108.85707591377692 L551.4363788104358 105.58153701968132 L554.9572850117115 105.58153701968132 L558.3646135935912 107.76522961574506 L561.8855197948667 99.03045923149011 L565.2928483767464 96.8467666354264 L568.8137545780221 117.59184629803184 L572.3346607792978 112.13261480787253 L575.5148341223855 113.2244611059044 L579.035740323661 114.31630740393626 L582.4430689055407 126.32661668228678 L585.9639751068164 135.0613870665417 L589.3713036886961 142.70431115276475 L592.8922098899718 144.88800374882848 L596.4131160912475 139.42877225866914 L599.820444673127 137.24507966260543 L603.3413508744027 143.7961574507966 L606.7486794562824 144.88800374882848 L610.2695856575581 141.6124648547329 L613.7904918588338 144.88800374882848 L616.9706652019215 154.71462043111526 L620.491571403197 160.1738519212746 " fill="none" stroke-width="1.6500000000000001" stroke="rgb(71,71,71)" stroke-opacity="1.0">
          </path>
        </g>
      </g>
      <g transform="translate(21.961210910936405 0.0 ) " clip-path="url(#xXxprefixXx2)" clip-bounds-jfx="[rect (0.0, 0.0), (650.0387890890636, 233.0)]">
        <defs>
          <clipPath id="xXxprefixXx2">
            <rect x="0.0" y="0.0" width="650.0387890890636" height="233.0">
            </rect>
          </clipPath>
        </defs>
        <line x1="0.0" y1="145.67514875438636" x2="650.0387890890636" y2="145.67514875438636" stroke="rgb(238,102,102)" stroke-opacity="1.0" fill="rgb(17,142,216)" fill-opacity="1.0" stroke-width="1.6500000000000001" stroke-dasharray="7.095000000000001,7.095000000000001">
        </line>
      </g>
      <g transform="translate(21.961210910936405 0.0 ) " clip-path="url(#xXxprefixXx3)" clip-bounds-jfx="[rect (0.0, 0.0), (650.0387890890636, 233.0)]">
        <defs>
          <clipPath id="xXxprefixXx3">
            <rect x="0.0" y="0.0" width="650.0387890890636" height="233.0">
            </rect>
          </clipPath>
        </defs>
        <g transform="rotate(0.0 29.5472176858666 140.21591726422702 ) ">
          <g transform="translate(29.5472176858666 144.415917264227 ) ">
            <text style="fill:#474747;font-size:14.0px;font-family:sans-serif;" fill-opacity="0.999887" y="0.0" text-anchor="middle">
              <tspan>12,83 %</tspan>
            </text>
          </g>
        </g>
      </g>
    </g>
    <g transform="translate(44.9612109109364 15.2 ) ">
      <text class="plot-title" y="0.0">
        <tspan>The US Unemployment Rates 2000-2016.</tspan>
      </text>
    </g>
    <g transform="translate(14.5 150.5 ) rotate(-90.0 ) ">
      <text class="axis-title-y" y="0.0" text-anchor="middle">
        <tspan>unemployment rate</tspan>
      </text>
    </g>
    <g transform="translate(369.9806054554682 304.5 ) ">
      <text class="axis-title-x" y="0.0" text-anchor="middle">
        <tspan>date</tspan>
      </text>
    </g>
    <path fill="rgb(0,0,0)" fill-opacity="0.0" stroke="rgb(71,71,71)" stroke-opacity="1.0" stroke-width="0.0" d="M0.0 0.0 L0.0 313.0 L705.0 313.0 L705.0 0.0 Z">
    </path>
  </g>
  <g id="xXxprefixXx4">
  </g>
</svg>