<svg xmlns="http://www.w3.org/2000/svg" xmlns:xlink="http://www.w3.org/1999/xlink" display="block" class="plt-container" width="705.0" height="313.0">
  <style type="text/css">
  .plt-container {
   font-family: Lucida Grande, sans-serif;
   user-select: none;
   -webkit-user-select: none;
   -moz-user-select: none;
   -ms-user-select: none;
}
text {
   text-rendering: optimizeLegibility;
}
#xXxprefixXx0 .plot-title {
   fill: #474747;
   font-family: Lucida Grande, sans-serif;
   font-size: 16.0px;
   font-weight: normal;
   font-style: normal;   
}
#xXxprefixXx0 .plot-subtitle {
   fill: #474747;
   font-family: Lucida Grande, sans-serif;
   font-size: 15.0px;
   font-weight: normal;
   font-style: normal;   
}
#xXxprefixXx0 .plot-caption {
   fill: #474747;
   font-family: Lucida Grande, sans-serif;
   font-size: 13.0px;
   font-weight: normal;
   font-style: normal;   
}
#xXxprefixXx0 .legend-title {
   fill: #474747;
   font-family: Lucida Grande, sans-serif;
   font-size: 15.0px;
   font-weight: normal;
   font-style: normal;   
}
#xXxprefixXx0 .legend-item {
   fill: #474747;
   font-family: Lucida Grande, sans-serif;
   font-size: 13.0px;
   font-weight: normal;
   font-style: normal;   
}
#xXxprefixXx0 .axis-title-x {
   fill: #474747;
   font-family: Lucida Grande, sans-serif;
   font-size: 15.0px;
   font-weight: normal;
   font-style: normal;   
}
#xXxprefixXx0 .axis-text-x {
   fill: #474747;
   font-family: Lucida Grande, sans-serif;
   font-size: 13.0px;
   font-weight: normal;
   font-style: normal;   
}
#xXxprefixXx2 .axis-tooltip-text-x {
   fill: #ffffff;
   font-family: Lucida Grande, sans-serif;
   font-size: 13.0px;
   font-weight: normal;
   font-style: normal;   
}
#xXxprefixXx0 .axis-title-y {
   fill: #474747;
   font-family: Lucida Grande, sans-serif;
   font-size: 15.0px;
   font-weight: normal;
   font-style: normal;   
}
#xXxprefixXx0 .axis-text-y {
   fill: #474747;
   font-family: Lucida Grande, sans-serif;
   font-size: 13.0px;
   font-weight: normal;
   font-style: normal;   
}
#xXxprefixXx2 .axis-tooltip-text-y {
   fill: #ffffff;
   font-family: Lucida Grande, sans-serif;
   font-size: 13.0px;
   font-weight: normal;
   font-style: normal;   
}
#xXxprefixXx0 .facet-strip-text-x {
   fill: #474747;
   font-family: Lucida Grande, sans-serif;
   font-size: 13.0px;
   font-weight: normal;
   font-style: normal;   
}
#xXxprefixXx0 .facet-strip-text-y {
   fill: #474747;
   font-family: Lucida Grande, sans-serif;
   font-size: 13.0px;
   font-weight: normal;
   font-style: normal;   
}
#xXxprefixXx2 .tooltip-text {
   fill: #474747;
   font-family: Lucida Grande, sans-serif;
   font-size: 13.0px;
   font-weight: normal;
   font-style: normal;   
}
#xXxprefixXx2 .tooltip-title {
   fill: #474747;
   font-family: Lucida Grande, sans-serif;
   font-size: 13.0px;
   font-weight: bold;
   font-style: normal;   
}
#xXxprefixXx2 .tooltip-label {
   fill: #474747;
   font-family: Lucida Grande, sans-serif;
   font-size: 13.0px;
   font-weight: bold;
   font-style: normal;   
}

  </style>
  <g id="xXxprefixXx0">
    <path fill-rule="evenodd" fill="rgb(255,255,255)" fill-opacity="1.0" d="M0.0 0.0 L0.0 313.0 L705.0 313.0 L705.0 0.0 Z">
    </path>
    <g transform="translate(29.5 6.5 ) ">
      <g>
        <g transform="translate(53.92376780579295 0.0 ) ">
          <g>
            <line x1="67.18412568906206" y1="0.0" x2="67.18412568906206" y2="254.0" stroke="rgb(233,233,233)" stroke-opacity="1.0" stroke-width="1.0" fill="none">
            </line>
            <line x1="145.63635595862183" y1="0.0" x2="145.63635595862183" y2="254.0" stroke="rgb(233,233,233)" stroke-opacity="1.0" stroke-width="1.0" fill="none">
            </line>
            <line x1="224.19605503677008" y1="0.0" x2="224.19605503677008" y2="254.0" stroke="rgb(233,233,233)" stroke-opacity="1.0" stroke-width="1.0" fill="none">
            </line>
            <line x1="302.6482853063296" y1="0.0" x2="302.6482853063296" y2="254.0" stroke="rgb(233,233,233)" stroke-opacity="1.0" stroke-width="1.0" fill="none">
            </line>
            <line x1="381.20798438447787" y1="0.0" x2="381.20798438447787" y2="254.0" stroke="rgb(233,233,233)" stroke-opacity="1.0" stroke-width="1.0" fill="none">
            </line>
            <line x1="459.66021465403765" y1="0.0" x2="459.66021465403765" y2="254.0" stroke="rgb(233,233,233)" stroke-opacity="1.0" stroke-width="1.0" fill="none">
            </line>
            <line x1="538.2199137321857" y1="0.0" x2="538.2199137321857" y2="254.0" stroke="rgb(233,233,233)" stroke-opacity="1.0" stroke-width="1.0" fill="none">
            </line>
          </g>
        </g>
        <g transform="translate(53.92376780579295 0.0 ) ">
          <g>
            <line x1="0.0" y1="251.97656982193064" x2="615.076232194207" y2="251.97656982193064" stroke="rgb(233,233,233)" stroke-opacity="1.0" stroke-width="1.0" fill="none">
            </line>
            <line x1="0.0" y1="132.9512652296157" x2="615.076232194207" y2="132.9512652296157" stroke="rgb(233,233,233)" stroke-opacity="1.0" stroke-width="1.0" fill="none">
            </line>
            <line x1="0.0" y1="13.925960637300761" x2="615.076232194207" y2="13.925960637300761" stroke="rgb(233,233,233)" stroke-opacity="1.0" stroke-width="1.0" fill="none">
            </line>
          </g>
        </g>
      </g>
      <g clip-path="url(#xXxprefixXx1)" clip-bounds-jfx="[rect (53.92376780579295, 0.0), (615.076232194207, 254.0)]">
        <g transform="translate(53.92376780579295 0.0 ) ">
          <g>
            <g>
              <g>
                <path d="M27.958010554282282 242.45454545454544 L27.958010554282282 242.45454545454544 L31.289543620523773 238.883786316776 L34.2986702610001 232.93252108716024 L37.63020332724159 241.26429240862228 L40.85426758489484 236.5032802249297 L44.18580065113633 240.07403936269912 L47.40986490878959 230.55201499531395 L50.74139797503108 229.3617619493908 L54.07293104127257 225.79100281162135 L57.29699529892582 224.6007497656982 L60.62852836516731 219.8397375820056 L63.852592622820566 213.88847235238987 L67.18412568906206 211.50796626054355 L70.51565875530378 212.69821930646668 L73.52478539577987 211.50796626054355 L76.85631846202159 205.5567010309278 L80.08038271967462 198.4151827553889 L83.41191578591634 180.56138706654167 L86.63598004356936 205.5567010309278 L89.96751310981085 204.36644798500467 L93.29904617605257 198.4151827553889 L96.5231104337056 197.22492970946575 L99.85464349994731 200.79568884723523 L103.07870775760034 197.22492970946575 L106.41024082384206 197.22492970946575 L109.74177389008355 198.4151827553889 L112.75090053055987 196.03467666354263 L116.08243359680137 190.08341143392687 L119.30649785445462 193.6541705716963 L122.63803092069611 174.61012183692594 L125.86209517834914 188.8931583880037 L129.19362824459085 191.27366447985003 L132.52516131083235 190.08341143392687 L135.7492255684856 187.70290534208056 L139.0807586347271 188.8931583880037 L142.30482289238034 187.70290534208056 L145.63635595862183 185.3223992502343 L148.96788902486333 190.08341143392687 L152.08448447392811 190.08341143392687 L155.4160175401696 198.4151827553889 L158.64008179782286 193.6541705716963 L161.97161486406435 180.56138706654167 L165.1956791217176 205.5567010309278 L168.5272121879591 201.98594189315838 L171.85874525420058 197.22492970946575 L175.08280951185384 198.4151827553889 L178.41434257809533 196.03467666354263 L181.63840683574858 198.4151827553889 L184.96993990199007 199.60543580131207 L188.3014729682318 201.98594189315838 L191.3105996087079 200.79568884723523 L194.6421326749496 204.36644798500467 L197.86619693260263 203.1761949390815 L201.19772999884435 204.36644798500467 L204.42179425649738 206.74695407685095 L207.75332732273887 201.98594189315838 L211.0848603889806 211.50796626054355 L214.3089246466336 209.12746016869727 L217.64045771287533 210.31771321462043 L220.86452197052836 207.9372071227741 L224.19605503677008 209.12746016869727 L227.52758810301157 203.1761949390815 L230.5367147434879 207.9372071227741 L233.86824780972938 211.50796626054355 L237.09231206738264 210.31771321462043 L240.42384513362413 224.6007497656982 L243.64790939127715 216.26897844423615 L246.97944245751887 211.50796626054355 L250.31097552376036 216.26897844423615 L253.53503978141362 217.4592314901593 L256.8665728476551 212.69821930646668 L260.09063710530836 222.22024367385188 L263.42217017154985 212.69821930646668 L266.75370323779134 210.31771321462043 L269.76282987826767 203.1761949390815 L273.09436294450916 209.12746016869727 L276.3184272021624 213.88847235238987 L279.6499602684039 219.8397375820056 L282.87402452605716 207.9372071227741 L286.20555759229865 206.74695407685095 L289.53709065854036 207.9372071227741 L292.7611549161934 211.50796626054355 L296.0926879824349 209.12746016869727 L299.31675224008814 211.50796626054355 L302.6482853063296 204.36644798500467 L305.97981837257134 207.9372071227741 L309.0964138216359 207.9372071227741 L312.4279468878776 199.60543580131207 L315.65201114553065 217.4592314901593 L318.98354421177237 204.36644798500467 L322.2076084694254 196.03467666354263 L325.5391415356669 196.03467666354263 L328.8706746019086 190.08341143392687 L332.09473885956163 187.70290534208056 L335.42627192580335 194.84442361761944 L338.6503361834564 186.51265229615743 L341.9818692496981 184.13214620431114 L345.3134023159396 172.22961574507963 L348.3225289564159 165.08809746954074 L351.6540620226574 155.56607310215554 L354.87812628031065 142.4732895970009 L358.20965934655214 106.76569821930644 L361.43372360420517 121.04873477038421 L364.7652566704469 117.47797563261477 L368.0967897366884 99.62417994376753 L371.32085399434163 86.53139643861292 L374.6523870605831 75.81911902530453 L377.8764513182364 72.24835988753509 L381.20798438447787 73.43861293345824 L384.53951745071936 74.6288659793814 L387.5486440911957 68.67760074976567 L390.8801771574372 48.44329896907209 L394.1042414150904 46.06279287722583 L397.4357744813319 11.545454545454504 L400.6598387389852 46.06279287722583 L403.99137180522666 61.53608247422676 L407.3229048714684 69.8678537956888 L410.5469691291214 59.155576382380474 L413.8785021953629 61.53608247422676 L417.10256645301615 50.8238050609184 L420.43409951925764 55.584817244611 L423.76563258549936 60.345829428303574 L426.77475922597546 55.584817244611 L430.1062922922172 62.72633552014992 L433.3303565498702 54.39456419868782 L436.6618896161119 44.872539831302674 L439.88595387376495 49.633552014995246 L443.21748694000667 44.872539831302674 L446.54902000624816 49.633552014995246 L449.7730842639012 66.29709465791933 L453.1046173301429 63.916588566073045 L456.3286815877959 67.48734770384249 L459.66021465403765 63.916588566073045 L462.99174772027914 77.00937207122769 L466.1083431693439 82.96063730084344 L469.4398762355854 84.15089034676657 L472.66394049323867 74.6288659793814 L475.99547355948016 68.67760074976567 L479.2195378171332 103.19493908153697 L482.5510708833749 92.48266166822864 L485.8826039496164 87.72164948453602 L489.10666820726965 74.6288659793814 L492.43820127351114 90.10215557638233 L495.6622655311644 100.81443298969069 L498.9937985974059 123.4292408622305 L502.3253316636474 106.76569821930644 L505.3344583041237 102.00468603561382 L508.6659913703652 107.95595126522954 L511.89005562801844 107.95595126522954 L515.2215886942599 109.14620431115273 L518.4456529519132 118.66822867853793 L521.7771860181547 115.09746954076846 L525.1087190843964 115.09746954076846 L528.3327833420494 117.47797563261477 L531.6643164082909 107.95595126522954 L534.8883806659442 105.57544517338326 L538.2199137321857 128.1902530459231 L541.5514467984274 122.23898781630737 L544.5605734389035 123.4292408622305 L547.8921065051452 124.61949390815366 L551.1161707627982 137.7122774133083 L554.4477038290399 147.2343017806935 L557.671768086693 155.56607310215554 L561.0033011529347 157.94657919400183 L564.3348342191762 151.9953139643861 L567.5588984768292 149.6148078725398 L570.8904315430709 156.7563261480787 L574.114495800724 157.94657919400183 L577.4460288669657 154.3758200562324 L580.7775619332072 157.94657919400183 L583.7866885736835 168.65885660731018 L587.118221639925 174.61012183692594 " fill="none" stroke-width="1.6500000000000001" stroke="rgb(71,71,71)" stroke-opacity="1.0">
                </path>
              </g>
            </g>
          </g>
        </g>
        <defs>
          <clipPath id="xXxprefixXx1">
            <rect x="53.92376780579295" y="0.0" width="615.076232194207" height="254.0">
            </rect>
          </clipPath>
        </defs>
      </g>
      <g>
        <g transform="translate(53.92376780579295 254.0 ) ">
          <g transform="translate(67.18412568906206 0.0 ) ">
            <line stroke-width="1.0" stroke="rgb(71,71,71)" stroke-opacity="1.0" x2="0.0" y2="4.0">
            </line>
            <g transform="translate(0.0 7.0 ) ">
              <text class="axis-text-x" text-anchor="middle" dy="0.7em">
                <tspan>Jan 2002</tspan>
              </text>
            </g>
          </g>
          <g transform="translate(145.63635595862183 0.0 ) ">
            <line stroke-width="1.0" stroke="rgb(71,71,71)" stroke-opacity="1.0" x2="0.0" y2="4.0">
            </line>
            <g transform="translate(0.0 7.0 ) ">
              <text class="axis-text-x" text-anchor="middle" dy="0.7em">
                <tspan>Jan 2004</tspan>
              </text>
            </g>
          </g>
          <g transform="translate(224.19605503677008 0.0 ) ">
            <line stroke-width="1.0" stroke="rgb(71,71,71)" stroke-opacity="1.0" x2="0.0" y2="4.0">
            </line>
            <g transform="translate(0.0 7.0 ) ">
              <text class="axis-text-x" text-anchor="middle" dy="0.7em">
                <tspan>Jan 2006</tspan>
              </text>
            </g>
          </g>
          <g transform="translate(302.6482853063296 0.0 ) ">
            <line stroke-width="1.0" stroke="rgb(71,71,71)" stroke-opacity="1.0" x2="0.0" y2="4.0">
            </line>
            <g transform="translate(0.0 7.0 ) ">
              <text class="axis-text-x" text-anchor="middle" dy="0.7em">
                <tspan>Jan 2008</tspan>
              </text>
            </g>
          </g>
          <g transform="translate(381.20798438447787 0.0 ) ">
            <line stroke-width="1.0" stroke="rgb(71,71,71)" stroke-opacity="1.0" x2="0.0" y2="4.0">
            </line>
            <g transform="translate(0.0 7.0 ) ">
              <text class="axis-text-x" text-anchor="middle" dy="0.7em">
                <tspan>Jan 2010</tspan>
              </text>
            </g>
          </g>
          <g transform="translate(459.66021465403765 0.0 ) ">
            <line stroke-width="1.0" stroke="rgb(71,71,71)" stroke-opacity="1.0" x2="0.0" y2="4.0">
            </line>
            <g transform="translate(0.0 7.0 ) ">
              <text class="axis-text-x" text-anchor="middle" dy="0.7em">
                <tspan>Jan 2012</tspan>
              </text>
            </g>
          </g>
          <g transform="translate(538.2199137321857 0.0 ) ">
            <line stroke-width="1.0" stroke="rgb(71,71,71)" stroke-opacity="1.0" x2="0.0" y2="4.0">
            </line>
            <g transform="translate(0.0 7.0 ) ">
              <text class="axis-text-x" text-anchor="middle" dy="0.7em">
                <tspan>Jan 2014</tspan>
              </text>
            </g>
          </g>
          <line x1="0.0" y1="0.0" x2="615.076232194207" y2="0.0" stroke-width="1.0" stroke="rgb(71,71,71)" stroke-opacity="1.0">
          </line>
        </g>
        <g transform="translate(53.92376780579295 0.0 ) ">
          <g transform="translate(0.0 251.97656982193064 ) ">
            <g transform="translate(-3.0 0.0 ) ">
              <text class="axis-text-y" text-anchor="end" dy="0.35em">
                <tspan>5.0 %</tspan>
              </text>
            </g>
          </g>
          <g transform="translate(0.0 132.9512652296157 ) ">
            <g transform="translate(-3.0 0.0 ) ">
              <text class="axis-text-y" text-anchor="end" dy="0.35em">
                <tspan>15.0 %</tspan>
              </text>
            </g>
          </g>
          <g transform="translate(0.0 13.925960637300761 ) ">
            <g transform="translate(-3.0 0.0 ) ">
              <text class="axis-text-y" text-anchor="end" dy="0.35em">
                <tspan>25.0 %</tspan>
              </text>
            </g>
          </g>
        </g>
      </g>
    </g>
    <g transform="translate(16.0 133.5 ) rotate(-90.0 ) ">
      <text class="axis-title-y" y="0.0" text-anchor="middle">
        <tspan>unemployment rate</tspan>
      </text>
    </g>
    <g transform="translate(390.9618839028965 306.0 ) ">
      <text class="axis-title-x" y="0.0" text-anchor="middle">
        <tspan>date</tspan>
      </text>
    </g>
    <path fill="rgb(0,0,0)" fill-opacity="0.0" stroke="rgb(71,71,71)" stroke-opacity="1.0" stroke-width="0.0" d="M0.0 0.0 L0.0 313.0 L705.0 313.0 L705.0 0.0 Z">
    </path>
  </g>
  <g id="xXxprefixXx2">
  </g>
</svg>