<svg xmlns="http://www.w3.org/2000/svg" xmlns:xlink="http://www.w3.org/1999/xlink" class="plt-container" width="705.0" height="313.0">
  <style type="text/css">
  .plt-container {
   font-family: Lucida Grande, sans-serif;
   user-select: none;
   -webkit-user-select: none;
   -moz-user-select: none;
   -ms-user-select: none;
}
text {
   text-rendering: optimizeLegibility;
}
#xXxprefixXx0 .plot-title {
   fill: #bbbbbb;
   font-family: Lucida Grande, sans-serif;
   font-size: 16.0px;
   font-weight: normal;
   font-style: normal;   
}
#xXxprefixXx0 .plot-subtitle {
   fill: #bbbbbb;
   font-family: Lucida Grande, sans-serif;
   font-size: 15.0px;
   font-weight: normal;
   font-style: normal;   
}
#xXxprefixXx0 .plot-caption {
   fill: #bbbbbb;
   font-family: Lucida Grande, sans-serif;
   font-size: 13.0px;
   font-weight: normal;
   font-style: normal;   
}
#xXxprefixXx0 .legend-title {
   fill: #bbbbbb;
   font-family: Lucida Grande, sans-serif;
   font-size: 15.0px;
   font-weight: normal;
   font-style: normal;   
}
#xXxprefixXx0 .legend-item {
   fill: #bbbbbb;
   font-family: Lucida Grande, sans-serif;
   font-size: 13.0px;
   font-weight: normal;
   font-style: normal;   
}
#xXxprefixXx0 .axis-title-x {
   fill: #bbbbbb;
   font-family: Lucida Grande, sans-serif;
   font-size: 15.0px;
   font-weight: normal;
   font-style: normal;   
}
#xXxprefixXx0 .axis-text-x {
   fill: #bbbbbb;
   font-family: Lucida Grande, sans-serif;
   font-size: 13.0px;
   font-weight: normal;
   font-style: normal;   
}
#xXxprefixXx4 .axis-tooltip-text-x {
   fill: #303030;
   font-family: Lucida Grande, sans-serif;
   font-size: 13.0px;
   font-weight: normal;
   font-style: normal;   
}
#xXxprefixXx0 .axis-title-y {
   fill: #bbbbbb;
   font-family: Lucida Grande, sans-serif;
   font-size: 15.0px;
   font-weight: normal;
   font-style: normal;   
}
#xXxprefixXx0 .axis-text-y {
   fill: #bbbbbb;
   font-family: Lucida Grande, sans-serif;
   font-size: 13.0px;
   font-weight: normal;
   font-style: normal;   
}
#xXxprefixXx4 .axis-tooltip-text-y {
   fill: #303030;
   font-family: Lucida Grande, sans-serif;
   font-size: 13.0px;
   font-weight: normal;
   font-style: normal;   
}
#xXxprefixXx0 .facet-strip-text-x {
   fill: #bbbbbb;
   font-family: Lucida Grande, sans-serif;
   font-size: 13.0px;
   font-weight: normal;
   font-style: normal;   
}
#xXxprefixXx0 .facet-strip-text-y {
   fill: #bbbbbb;
   font-family: Lucida Grande, sans-serif;
   font-size: 13.0px;
   font-weight: normal;
   font-style: normal;   
}
#xXxprefixXx4 .tooltip-text {
   fill: #bbbbbb;
   font-family: Lucida Grande, sans-serif;
   font-size: 13.0px;
   font-weight: normal;
   font-style: normal;   
}
#xXxprefixXx4 .tooltip-title {
   fill: #bbbbbb;
   font-family: Lucida Grande, sans-serif;
   font-size: 13.0px;
   font-weight: bold;
   font-style: normal;   
}
#xXxprefixXx4 .tooltip-label {
   fill: #bbbbbb;
   font-family: Lucida Grande, sans-serif;
   font-size: 13.0px;
   font-weight: bold;
   font-style: normal;   
}

  </style>
  <g id="xXxprefixXx0">
    <path fill-rule="evenodd" fill="rgb(25,25,28)" fill-opacity="1.0" d="M0.0 0.0 L0.0 313.0 L705.0 313.0 L705.0 0.0 Z">
    </path>
    <g transform="translate(23.0 34.0 ) ">
      <g transform="translate(21.961210910936405 233.0 ) ">
        <line x1="71.00811319337072" y1="-0.0" x2="71.00811319337072" y2="-233.0" stroke="rgb(71,71,71)" stroke-opacity="1.0" stroke-width="1.0">
        </line>
        <line x1="153.92043933096556" y1="-0.0" x2="153.92043933096556" y2="-233.0" stroke="rgb(71,71,71)" stroke-opacity="1.0" stroke-width="1.0">
        </line>
        <line x1="236.94634399751635" y1="-0.0" x2="236.94634399751635" y2="-233.0" stroke="rgb(71,71,71)" stroke-opacity="1.0" stroke-width="1.0">
        </line>
        <line x1="319.8586701351114" y1="-0.0" x2="319.8586701351114" y2="-233.0" stroke="rgb(71,71,71)" stroke-opacity="1.0" stroke-width="1.0">
        </line>
        <line x1="402.884574801662" y1="-0.0" x2="402.884574801662" y2="-233.0" stroke="rgb(71,71,71)" stroke-opacity="1.0" stroke-width="1.0">
        </line>
        <line x1="485.79690093925706" y1="-0.0" x2="485.79690093925706" y2="-233.0" stroke="rgb(71,71,71)" stroke-opacity="1.0" stroke-width="1.0">
        </line>
        <line x1="568.8228056058078" y1="-0.0" x2="568.8228056058078" y2="-233.0" stroke="rgb(71,71,71)" stroke-opacity="1.0" stroke-width="1.0">
        </line>
        <g transform="translate(71.00811319337072 0.0 ) ">
          <line stroke-width="1.0" stroke="rgb(187,187,187)" stroke-opacity="1.0" x2="0.0" y2="4.0">
          </line>
          <g transform="translate(0.0 7.0 ) ">
            <text class="axis-text-x" text-anchor="middle" dy="0.7em">
            2002
            </text>
          </g>
        </g>
        <g transform="translate(153.92043933096556 0.0 ) ">
          <line stroke-width="1.0" stroke="rgb(187,187,187)" stroke-opacity="1.0" x2="0.0" y2="4.0">
          </line>
          <g transform="translate(0.0 7.0 ) ">
            <text class="axis-text-x" text-anchor="middle" dy="0.7em">
            2004
            </text>
          </g>
        </g>
        <g transform="translate(236.94634399751635 0.0 ) ">
          <line stroke-width="1.0" stroke="rgb(187,187,187)" stroke-opacity="1.0" x2="0.0" y2="4.0">
          </line>
          <g transform="translate(0.0 7.0 ) ">
            <text class="axis-text-x" text-anchor="middle" dy="0.7em">
            2006
            </text>
          </g>
        </g>
        <g transform="translate(319.8586701351114 0.0 ) ">
          <line stroke-width="1.0" stroke="rgb(187,187,187)" stroke-opacity="1.0" x2="0.0" y2="4.0">
          </line>
          <g transform="translate(0.0 7.0 ) ">
            <text class="axis-text-x" text-anchor="middle" dy="0.7em">
            2008
            </text>
          </g>
        </g>
        <g transform="translate(402.884574801662 0.0 ) ">
          <line stroke-width="1.0" stroke="rgb(187,187,187)" stroke-opacity="1.0" x2="0.0" y2="4.0">
          </line>
          <g transform="translate(0.0 7.0 ) ">
            <text class="axis-text-x" text-anchor="middle" dy="0.7em">
            2010
            </text>
          </g>
        </g>
        <g transform="translate(485.79690093925706 0.0 ) ">
          <line stroke-width="1.0" stroke="rgb(187,187,187)" stroke-opacity="1.0" x2="0.0" y2="4.0">
          </line>
          <g transform="translate(0.0 7.0 ) ">
            <text class="axis-text-x" text-anchor="middle" dy="0.7em">
            2012
            </text>
          </g>
        </g>
        <g transform="translate(568.8228056058078 0.0 ) ">
          <line stroke-width="1.0" stroke="rgb(187,187,187)" stroke-opacity="1.0" x2="0.0" y2="4.0">
          </line>
          <g transform="translate(0.0 7.0 ) ">
            <text class="axis-text-x" text-anchor="middle" dy="0.7em">
            2014
            </text>
          </g>
        </g>
        <line x1="0.0" y1="0.0" x2="650.0387890890636" y2="0.0" stroke-width="1.0" stroke="rgb(187,187,187)" stroke-opacity="1.0">
        </line>
      </g>
      <g transform="translate(21.961210910936405 0.0 ) ">
        <line x1="0.0" y1="176.5515463917526" x2="650.0387890890636" y2="176.5515463917526" stroke="rgb(71,71,71)" stroke-opacity="1.0" stroke-width="1.0">
        </line>
        <line x1="0.0" y1="121.95923149015931" x2="650.0387890890636" y2="121.95923149015931" stroke="rgb(71,71,71)" stroke-opacity="1.0" stroke-width="1.0">
        </line>
        <line x1="0.0" y1="67.36691658856606" x2="650.0387890890636" y2="67.36691658856606" stroke="rgb(71,71,71)" stroke-opacity="1.0" stroke-width="1.0">
        </line>
        <line x1="0.0" y1="12.774601686972801" x2="650.0387890890636" y2="12.774601686972801" stroke="rgb(71,71,71)" stroke-opacity="1.0" stroke-width="1.0">
        </line>
        <g transform="translate(0.0 231.14386129334585 ) ">
          <g transform="translate(-3.0 0.0 ) ">
            <text class="axis-text-y" text-anchor="end" dy="0.35em">
            5
            </text>
          </g>
        </g>
        <g transform="translate(0.0 176.5515463917526 ) ">
          <g transform="translate(-3.0 0.0 ) ">
            <text class="axis-text-y" text-anchor="end" dy="0.35em">
            10
            </text>
          </g>
        </g>
        <g transform="translate(0.0 121.95923149015931 ) ">
          <g transform="translate(-3.0 0.0 ) ">
            <text class="axis-text-y" text-anchor="end" dy="0.35em">
            15
            </text>
          </g>
        </g>
        <g transform="translate(0.0 67.36691658856606 ) ">
          <g transform="translate(-3.0 0.0 ) ">
            <text class="axis-text-y" text-anchor="end" dy="0.35em">
            20
            </text>
          </g>
        </g>
        <g transform="translate(0.0 12.774601686972801 ) ">
          <g transform="translate(-3.0 0.0 ) ">
            <text class="axis-text-y" text-anchor="end" dy="0.35em">
            25
            </text>
          </g>
        </g>
      </g>
      <g transform="translate(21.961210910936405 0.0 ) " clip-path="url(#xXxprefixXx1)" clip-bounds-jfx="[rect (0.0, 0.0), (650.0387890890636, 233.0)]">
        <defs>
          <clipPath id="xXxprefixXx1">
            <rect x="0.0" y="0.0" width="650.0387890890636" height="233.0">
            </rect>
          </clipPath>
        </defs>
        <g>
          <path d="M29.5472176858666 222.40909090909093 L29.5472176858666 222.40909090909093 L33.06815208349053 219.13355201499533 L36.24835089424755 213.674320524836 L39.764552853165014 221.31724461105904 L43.17190872183323 216.9498594189316 L46.692843119457166 220.2253983130272 L50.100198988125385 211.49062792877226 L53.62113338574932 210.39878163074042 L57.14206778337325 207.12324273664478 L60.54942365204147 206.03139643861294 L64.07509048837187 201.66401124648547 L67.48244635704032 196.20477975632616 L71.00338075466425 194.02108716026243 L74.52431515228795 195.11293345829426 L77.7045139630452 194.02108716026243 L81.22071592196244 188.56185567010309 L84.62807179063088 182.0107778819119 L88.14900618825482 165.63308341143392 L91.55636205692304 188.56185567010309 L95.07729645454697 187.47000937207122 L98.5982308521709 182.0107778819119 L102.00558672083912 180.91893158388004 L105.53125355716952 184.19447047797564 L108.93860942583774 180.91893158388004 L112.45954382346167 180.91893158388004 L115.9804782210856 182.0107778819119 L119.16067703184262 179.82708528584817 L122.67687899076009 174.36785379568886 L126.0842348594283 177.64339268978443 L129.60516925705224 160.1738519212746 L133.01252512572046 173.27600749765696 L136.5334595233444 175.4597000937207 L140.05439392096832 174.36785379568886 L143.46174978963654 172.18416119962512 L146.98741662596694 173.27600749765696 L150.3947724946354 172.18416119962512 L153.9157068922591 170.0004686035614 L157.43664128988303 174.36785379568886 L160.73041862959576 174.36785379568886 L164.24662058851322 182.0107778819119 L167.65397645718144 177.64339268978443 L171.17491085480538 165.63308341143392 L174.5822667234736 188.56185567010309 L178.10320112109753 185.2863167760075 L181.62413551872146 180.91893158388004 L185.03149138738968 182.0107778819119 L188.55715822372008 179.82708528584817 L191.96451409238853 182.0107778819119 L195.48544849001223 183.10262417994375 L199.00638288763616 185.2863167760075 L202.18658169839318 184.19447047797564 L205.70278365731065 187.47000937207122 L209.1101395259791 186.37816307403938 L212.6310739236028 187.47000937207122 L216.03842979227124 189.65370196813495 L219.55936418989518 185.2863167760075 L223.08029858751888 194.02108716026243 L226.48765445618733 191.8373945641987 L230.01332129251773 192.92924086223056 L233.42067716118595 190.74554826616685 L236.94161155880988 191.8373945641987 L240.46254595643381 186.37816307403938 L243.64274476719083 190.74554826616685 L247.1589467261083 194.02108716026243 L250.56630259477652 192.92924086223056 L254.08723699240045 206.03139643861294 L257.49459286106867 198.3884723523899 L261.0155272586926 194.02108716026243 L264.53646165631653 198.3884723523899 L267.94381752498475 199.48031865042174 L271.46948436131515 195.11293345829426 L274.8768402299834 203.8477038425492 L278.3977746276073 195.11293345829426 L281.91870902523124 192.92924086223056 L285.09890783598826 186.37816307403938 L288.6151097949057 191.8373945641987 L292.02246566357394 196.20477975632616 L295.5434000611979 201.66401124648547 L298.9507559298663 190.74554826616685 L302.47169032749 189.65370196813495 L305.99262472511396 190.74554826616685 L309.3999805937824 194.02108716026243 L312.9256474301128 191.8373945641987 L316.333003298781 194.02108716026243 L319.85393769640496 187.47000937207122 L323.3748720940289 190.74554826616685 L326.6686494337414 190.74554826616685 L330.18485139265886 183.10262417994375 L333.5922072613271 199.48031865042174 L337.113141658951 187.47000937207122 L340.52049752761945 179.82708528584817 L344.04143192524316 179.82708528584817 L347.5623663228671 174.36785379568886 L350.96972219153554 172.18416119962512 L354.49538902786594 178.7352389878163 L357.90274489653416 171.09231490159326 L361.4236792941581 168.90862230552955 L364.944613691782 157.99015932521087 L368.12481250253904 151.43908153701966 L371.6410144614565 142.70431115276475 L375.0483703301247 130.69400187441425 L378.56930472774866 97.93861293345827 L381.9766605964169 111.04076850984066 L385.4975949940408 107.76522961574506 L389.01852939166474 91.38753514526707 L392.42588526033296 79.37722586691658 L395.95155209666336 69.55060918462976 L399.3589079653316 66.27507029053416 L402.8798423629555 67.36691658856606 L406.40077676057945 68.45876288659792 L409.58097557133647 62.99953139643861 L413.09717753025393 44.43814432989686 L416.50453339892215 42.25445173383315 L420.0254677965461 10.590909090909065 L423.4328236652145 42.25445173383315 L426.95375806283823 56.448453608247405 L430.47469246046217 64.09137769447045 L433.8820483291306 54.26476101218367 L437.4077151654608 56.448453608247405 L440.81507103412923 46.62183692596062 L444.33600543175316 50.989222118088065 L447.85693982937687 55.35660731021551 L451.0371386401341 50.989222118088065 L454.55334059905135 57.54029990627927 L457.9606964677198 49.8973758200562 L461.48163086534373 41.16260543580131 L464.88898673401195 45.529990627928754 L468.4099211316359 41.16260543580131 L471.9308555292598 45.529990627928754 L475.33821139792803 60.81583880037485 L478.86387823425844 58.63214620431111 L482.27123410292666 61.907685098406716 L485.7921685005506 58.63214620431111 L489.3131028981745 70.64245548266166 L492.60688023788725 76.10168697282097 L496.1230821968045 77.19353327085281 L499.53043806547294 68.45876288659792 L503.05137246309687 62.99953139643861 L506.4587283317651 94.66307403936267 L509.979662729389 84.83645735707591 L513.500597127013 80.46907216494841 L516.9079529956812 68.45876288659792 L520.4336198320116 82.65276476101215 L523.8409757006798 92.47938144329896 L527.3619100983037 113.2244611059044 L530.8828444959277 97.93861293345827 L534.0630433066847 93.5712277413308 L537.5792452656021 99.03045923149011 L540.9866011342704 99.03045923149011 L544.5075355318943 100.12230552952201 L547.9148914005625 108.85707591377692 L551.4358257981864 105.58153701968132 L554.9567601958104 105.58153701968132 L558.3641160644786 107.76522961574506 L561.889782900809 99.03045923149011 L565.2971387694774 96.8467666354264 L568.8180731671011 117.59184629803184 L572.3390075647251 112.13261480787253 L575.5192063754823 113.2244611059044 L579.0354083343996 114.31630740393626 L582.442764203068 126.32661668228678 L585.9636986006919 135.0613870665417 L589.3710544693602 142.70431115276475 L592.8919888669841 144.88800374882848 L596.412923264608 139.42877225866914 L599.8202791332762 137.24507966260543 L603.3459459696066 143.7961574507966 L606.7533018382749 144.88800374882848 L610.2742362358988 141.6124648547329 L613.7951706335227 144.88800374882848 L616.9753694442797 154.71462043111526 L620.4915714031972 160.1738519212746 " fill="none" stroke-width="1.6500000000000001" stroke="rgb(187,187,187)" stroke-opacity="1.0">
          </path>
        </g>
      </g>
      <g transform="translate(21.961210910936405 0.0 ) " clip-path="url(#xXxprefixXx2)" clip-bounds-jfx="[rect (0.0, 0.0), (650.0387890890636, 233.0)]">
        <defs>
          <clipPath id="xXxprefixXx2">
            <rect x="0.0" y="0.0" width="650.0387890890636" height="233.0">
            </rect>
          </clipPath>
        </defs>
        <line x1="0.0" y1="145.67514875438636" x2="650.0387890890636" y2="145.67514875438636" stroke="rgb(238,102,102)" stroke-opacity="1.0" fill="rgb(17,142,216)" fill-opacity="1.0" stroke-width="1.6500000000000001" stroke-dasharray="7.095000000000001,7.095000000000001">
        </line>
      </g>
      <g transform="translate(21.961210910936405 0.0 ) " clip-path="url(#xXxprefixXx3)" clip-bounds-jfx="[rect (0.0, 0.0), (650.0387890890636, 233.0)]">
        <defs>
          <clipPath id="xXxprefixXx3">
            <rect x="0.0" y="0.0" width="650.0387890890636" height="233.0">
            </rect>
          </clipPath>
        </defs>
        <g transform="rotate(0.0 29.5472176858666 140.21591726422702 ) ">
          <g transform="translate(29.5472176858666 144.415917264227 ) ">
            <text style="fill:#bbbbbb;font-size:14.0px;font-family:sans-serif;" fill-opacity="0.999887" y="0.0" text-anchor="middle">
            12,83 %
            </text>
          </g>
        </g>
      </g>
    </g>
    <g transform="translate(44.9612109109364 15.2 ) ">
      <text class="plot-title" y="0.0">
      The US Unemployment Rates 2000-2016.
      </text>
    </g>
    <g transform="translate(14.5 150.5 ) rotate(-90.0 ) ">
      <text class="axis-title-y" y="0.0" text-anchor="middle">
      unemployment rate
      </text>
    </g>
    <g transform="translate(369.9806054554682 304.5 ) ">
      <text class="axis-title-x" y="0.0" text-anchor="middle">
      date
      </text>
    </g>
    <path fill="rgb(0,0,0)" fill-opacity="0.0" stroke="rgb(187,187,187)" stroke-opacity="1.0" stroke-width="0.0" d="M0.0 0.0 L0.0 313.0 L705.0 313.0 L705.0 0.0 Z">
    </path>
  </g>
  <g id="xXxprefixXx4">
  </g>
</svg>