<svg xmlns="http://www.w3.org/2000/svg" xmlns:xlink="http://www.w3.org/1999/xlink" display="block" class="plt-container" width="705.0" height="470.0">
  <style type="text/css">
  .plt-container {
   font-family: Lucida Grande, sans-serif;
   user-select: none;
   -webkit-user-select: none;
   -moz-user-select: none;
   -ms-user-select: none;
}
text {
   text-rendering: optimizeLegibility;
}
#xXxprefixXx0 .plot-title {
   fill: #bbbbbb;
   font-family: Lucida Grande, sans-serif;
   font-size: 16.0px;
   font-weight: normal;
   font-style: normal;   
}
#xXxprefixXx0 .plot-subtitle {
   fill: #bbbbbb;
   font-family: Lucida Grande, sans-serif;
   font-size: 15.0px;
   font-weight: normal;
   font-style: normal;   
}
#xXxprefixXx0 .plot-caption {
   fill: #bbbbbb;
   font-family: Lucida Grande, sans-serif;
   font-size: 13.0px;
   font-weight: normal;
   font-style: normal;   
}
#xXxprefixXx0 .legend-title {
   fill: #bbbbbb;
   font-family: Lucida Grande, sans-serif;
   font-size: 15.0px;
   font-weight: normal;
   font-style: normal;   
}
#xXxprefixXx0 .legend-item {
   fill: #bbbbbb;
   font-family: Lucida Grande, sans-serif;
   font-size: 13.0px;
   font-weight: normal;
   font-style: normal;   
}
#xXxprefixXx0 .axis-title-x {
   fill: #bbbbbb;
   font-family: Lucida Grande, sans-serif;
   font-size: 15.0px;
   font-weight: normal;
   font-style: normal;   
}
#xXxprefixXx0 .axis-text-x {
   fill: #bbbbbb;
   font-family: Lucida Grande, sans-serif;
   font-size: 13.0px;
   font-weight: normal;
   font-style: normal;   
}
#xXxprefixXx2 .axis-tooltip-text-x {
   fill: #303030;
   font-family: Lucida Grande, sans-serif;
   font-size: 13.0px;
   font-weight: normal;
   font-style: normal;   
}
#xXxprefixXx0 .axis-title-y {
   fill: #bbbbbb;
   font-family: Lucida Grande, sans-serif;
   font-size: 15.0px;
   font-weight: normal;
   font-style: normal;   
}
#xXxprefixXx0 .axis-text-y {
   fill: #bbbbbb;
   font-family: Lucida Grande, sans-serif;
   font-size: 13.0px;
   font-weight: normal;
   font-style: normal;   
}
#xXxprefixXx2 .axis-tooltip-text-y {
   fill: #303030;
   font-family: Lucida Grande, sans-serif;
   font-size: 13.0px;
   font-weight: normal;
   font-style: normal;   
}
#xXxprefixXx0 .facet-strip-text-x {
   fill: #bbbbbb;
   font-family: Lucida Grande, sans-serif;
   font-size: 13.0px;
   font-weight: normal;
   font-style: normal;   
}
#xXxprefixXx0 .facet-strip-text-y {
   fill: #bbbbbb;
   font-family: Lucida Grande, sans-serif;
   font-size: 13.0px;
   font-weight: normal;
   font-style: normal;   
}
#xXxprefixXx2 .tooltip-text {
   fill: #bbbbbb;
   font-family: Lucida Grande, sans-serif;
   font-size: 13.0px;
   font-weight: normal;
   font-style: normal;   
}
#xXxprefixXx2 .tooltip-title {
   fill: #bbbbbb;
   font-family: Lucida Grande, sans-serif;
   font-size: 13.0px;
   font-weight: bold;
   font-style: normal;   
}
#xXxprefixXx2 .tooltip-label {
   fill: #bbbbbb;
   font-family: Lucida Grande, sans-serif;
   font-size: 13.0px;
   font-weight: bold;
   font-style: normal;   
}

  </style>
  <g id="xXxprefixXx0">
    <path fill-rule="evenodd" fill="rgb(25,25,28)" fill-opacity="1.0" d="M0.0 0.0 L0.0 470.0 L705.0 470.0 L705.0 0.0 Z">
    </path>
    <g transform="translate(29.5 6.5 ) ">
      <g>
        <g transform="translate(21.961210910936405 0.0 ) ">
          <g>
            <line x1="18.517945142279586" y1="0.0" x2="18.517945142279586" y2="261.6666666666667" stroke="rgb(71,71,71)" stroke-opacity="1.0" stroke-width="1.0" fill="none">
            </line>
            <line x1="72.98248967839606" y1="0.0" x2="72.98248967839606" y2="261.6666666666667" stroke="rgb(71,71,71)" stroke-opacity="1.0" stroke-width="1.0" fill="none">
            </line>
            <line x1="127.44703421451251" y1="0.0" x2="127.44703421451251" y2="261.6666666666667" stroke="rgb(71,71,71)" stroke-opacity="1.0" stroke-width="1.0" fill="none">
            </line>
            <line x1="181.911578750629" y1="0.0" x2="181.911578750629" y2="261.6666666666667" stroke="rgb(71,71,71)" stroke-opacity="1.0" stroke-width="1.0" fill="none">
            </line>
            <line x1="236.37612328674547" y1="0.0" x2="236.37612328674547" y2="261.6666666666667" stroke="rgb(71,71,71)" stroke-opacity="1.0" stroke-width="1.0" fill="none">
            </line>
            <line x1="290.840667822862" y1="0.0" x2="290.840667822862" y2="261.6666666666667" stroke="rgb(71,71,71)" stroke-opacity="1.0" stroke-width="1.0" fill="none">
            </line>
            <line x1="345.30521235897845" y1="0.0" x2="345.30521235897845" y2="261.6666666666667" stroke="rgb(71,71,71)" stroke-opacity="1.0" stroke-width="1.0" fill="none">
            </line>
            <line x1="399.7697568950948" y1="0.0" x2="399.7697568950948" y2="261.6666666666667" stroke="rgb(71,71,71)" stroke-opacity="1.0" stroke-width="1.0" fill="none">
            </line>
            <line x1="454.2343014312113" y1="0.0" x2="454.2343014312113" y2="261.6666666666667" stroke="rgb(71,71,71)" stroke-opacity="1.0" stroke-width="1.0" fill="none">
            </line>
            <line x1="508.69884596732777" y1="0.0" x2="508.69884596732777" y2="261.6666666666667" stroke="rgb(71,71,71)" stroke-opacity="1.0" stroke-width="1.0" fill="none">
            </line>
            <line x1="563.1633905034442" y1="0.0" x2="563.1633905034442" y2="261.6666666666667" stroke="rgb(71,71,71)" stroke-opacity="1.0" stroke-width="1.0" fill="none">
            </line>
            <line x1="617.6279350395607" y1="0.0" x2="617.6279350395607" y2="261.6666666666667" stroke="rgb(71,71,71)" stroke-opacity="1.0" stroke-width="1.0" fill="none">
            </line>
          </g>
        </g>
        <g transform="translate(21.961210910936405 0.0 ) ">
          <g>
            <line x1="0.0" y1="227.47159090909093" x2="647.0387890890636" y2="227.47159090909093" stroke="rgb(71,71,71)" stroke-opacity="1.0" stroke-width="1.0" fill="none">
            </line>
            <line x1="0.0" y1="190.3030303030303" x2="647.0387890890636" y2="190.3030303030303" stroke="rgb(71,71,71)" stroke-opacity="1.0" stroke-width="1.0" fill="none">
            </line>
            <line x1="0.0" y1="153.13446969696972" x2="647.0387890890636" y2="153.13446969696972" stroke="rgb(71,71,71)" stroke-opacity="1.0" stroke-width="1.0" fill="none">
            </line>
            <line x1="0.0" y1="115.96590909090912" x2="647.0387890890636" y2="115.96590909090912" stroke="rgb(71,71,71)" stroke-opacity="1.0" stroke-width="1.0" fill="none">
            </line>
            <line x1="0.0" y1="78.7973484848485" x2="647.0387890890636" y2="78.7973484848485" stroke="rgb(71,71,71)" stroke-opacity="1.0" stroke-width="1.0" fill="none">
            </line>
            <line x1="0.0" y1="41.628787878787875" x2="647.0387890890636" y2="41.628787878787875" stroke="rgb(71,71,71)" stroke-opacity="1.0" stroke-width="1.0" fill="none">
            </line>
            <line x1="0.0" y1="4.460227272727309" x2="647.0387890890636" y2="4.460227272727309" stroke="rgb(71,71,71)" stroke-opacity="1.0" stroke-width="1.0" fill="none">
            </line>
          </g>
        </g>
        <g transform="translate(21.961210910936405 261.6666666666667 ) ">
          <g transform="translate(18.517945142279586 0.0 ) ">
            <line stroke-width="1.0" stroke="rgb(187,187,187)" stroke-opacity="1.0" x2="0.0" y2="4.0">
            </line>
            <g transform="translate(0.0 7.0 ) ">
              <text class="axis-text-x" text-anchor="middle" dy="0.7em">
                <tspan>1.5</tspan>
              </text>
            </g>
          </g>
          <g transform="translate(72.98248967839606 0.0 ) ">
            <line stroke-width="1.0" stroke="rgb(187,187,187)" stroke-opacity="1.0" x2="0.0" y2="4.0">
            </line>
            <g transform="translate(0.0 7.0 ) ">
              <text class="axis-text-x" text-anchor="middle" dy="0.7em">
                <tspan>2.0</tspan>
              </text>
            </g>
          </g>
          <g transform="translate(127.44703421451251 0.0 ) ">
            <line stroke-width="1.0" stroke="rgb(187,187,187)" stroke-opacity="1.0" x2="0.0" y2="4.0">
            </line>
            <g transform="translate(0.0 7.0 ) ">
              <text class="axis-text-x" text-anchor="middle" dy="0.7em">
                <tspan>2.5</tspan>
              </text>
            </g>
          </g>
          <g transform="translate(181.911578750629 0.0 ) ">
            <line stroke-width="1.0" stroke="rgb(187,187,187)" stroke-opacity="1.0" x2="0.0" y2="4.0">
            </line>
            <g transform="translate(0.0 7.0 ) ">
              <text class="axis-text-x" text-anchor="middle" dy="0.7em">
                <tspan>3.0</tspan>
              </text>
            </g>
          </g>
          <g transform="translate(236.37612328674547 0.0 ) ">
            <line stroke-width="1.0" stroke="rgb(187,187,187)" stroke-opacity="1.0" x2="0.0" y2="4.0">
            </line>
            <g transform="translate(0.0 7.0 ) ">
              <text class="axis-text-x" text-anchor="middle" dy="0.7em">
                <tspan>3.5</tspan>
              </text>
            </g>
          </g>
          <g transform="translate(290.840667822862 0.0 ) ">
            <line stroke-width="1.0" stroke="rgb(187,187,187)" stroke-opacity="1.0" x2="0.0" y2="4.0">
            </line>
            <g transform="translate(0.0 7.0 ) ">
              <text class="axis-text-x" text-anchor="middle" dy="0.7em">
                <tspan>4.0</tspan>
              </text>
            </g>
          </g>
          <g transform="translate(345.30521235897845 0.0 ) ">
            <line stroke-width="1.0" stroke="rgb(187,187,187)" stroke-opacity="1.0" x2="0.0" y2="4.0">
            </line>
            <g transform="translate(0.0 7.0 ) ">
              <text class="axis-text-x" text-anchor="middle" dy="0.7em">
                <tspan>4.5</tspan>
              </text>
            </g>
          </g>
          <g transform="translate(399.7697568950948 0.0 ) ">
            <line stroke-width="1.0" stroke="rgb(187,187,187)" stroke-opacity="1.0" x2="0.0" y2="4.0">
            </line>
            <g transform="translate(0.0 7.0 ) ">
              <text class="axis-text-x" text-anchor="middle" dy="0.7em">
                <tspan>5.0</tspan>
              </text>
            </g>
          </g>
          <g transform="translate(454.2343014312113 0.0 ) ">
            <line stroke-width="1.0" stroke="rgb(187,187,187)" stroke-opacity="1.0" x2="0.0" y2="4.0">
            </line>
            <g transform="translate(0.0 7.0 ) ">
              <text class="axis-text-x" text-anchor="middle" dy="0.7em">
                <tspan>5.5</tspan>
              </text>
            </g>
          </g>
          <g transform="translate(508.69884596732777 0.0 ) ">
            <line stroke-width="1.0" stroke="rgb(187,187,187)" stroke-opacity="1.0" x2="0.0" y2="4.0">
            </line>
            <g transform="translate(0.0 7.0 ) ">
              <text class="axis-text-x" text-anchor="middle" dy="0.7em">
                <tspan>6.0</tspan>
              </text>
            </g>
          </g>
          <g transform="translate(563.1633905034442 0.0 ) ">
            <line stroke-width="1.0" stroke="rgb(187,187,187)" stroke-opacity="1.0" x2="0.0" y2="4.0">
            </line>
            <g transform="translate(0.0 7.0 ) ">
              <text class="axis-text-x" text-anchor="middle" dy="0.7em">
                <tspan>6.5</tspan>
              </text>
            </g>
          </g>
          <g transform="translate(617.6279350395607 0.0 ) ">
            <line stroke-width="1.0" stroke="rgb(187,187,187)" stroke-opacity="1.0" x2="0.0" y2="4.0">
            </line>
            <g transform="translate(0.0 7.0 ) ">
              <text class="axis-text-x" text-anchor="middle" dy="0.7em">
                <tspan>7.0</tspan>
              </text>
            </g>
          </g>
          <line x1="0.0" y1="0.0" x2="647.0387890890636" y2="0.0" stroke-width="1.0" stroke="rgb(187,187,187)" stroke-opacity="1.0">
          </line>
        </g>
        <g transform="translate(21.961210910936405 0.0 ) ">
          <g transform="translate(0.0 227.47159090909093 ) ">
            <g transform="translate(-3.0 0.0 ) ">
              <text class="axis-text-y" text-anchor="end" dy="0.35em">
                <tspan>15</tspan>
              </text>
            </g>
          </g>
          <g transform="translate(0.0 190.3030303030303 ) ">
            <g transform="translate(-3.0 0.0 ) ">
              <text class="axis-text-y" text-anchor="end" dy="0.35em">
                <tspan>20</tspan>
              </text>
            </g>
          </g>
          <g transform="translate(0.0 153.13446969696972 ) ">
            <g transform="translate(-3.0 0.0 ) ">
              <text class="axis-text-y" text-anchor="end" dy="0.35em">
                <tspan>25</tspan>
              </text>
            </g>
          </g>
          <g transform="translate(0.0 115.96590909090912 ) ">
            <g transform="translate(-3.0 0.0 ) ">
              <text class="axis-text-y" text-anchor="end" dy="0.35em">
                <tspan>30</tspan>
              </text>
            </g>
          </g>
          <g transform="translate(0.0 78.7973484848485 ) ">
            <g transform="translate(-3.0 0.0 ) ">
              <text class="axis-text-y" text-anchor="end" dy="0.35em">
                <tspan>35</tspan>
              </text>
            </g>
          </g>
          <g transform="translate(0.0 41.628787878787875 ) ">
            <g transform="translate(-3.0 0.0 ) ">
              <text class="axis-text-y" text-anchor="end" dy="0.35em">
                <tspan>40</tspan>
              </text>
            </g>
          </g>
          <g transform="translate(0.0 4.460227272727309 ) ">
            <g transform="translate(-3.0 0.0 ) ">
              <text class="axis-text-y" text-anchor="end" dy="0.35em">
                <tspan>45</tspan>
              </text>
            </g>
          </g>
        </g>
      </g>
      <g clip-path="url(#xXxprefixXx1)" clip-bounds-jfx="[rect (21.961210910936405, 0.0), (647.0387890890636, 261.6666666666667)]">
        <g transform="translate(21.961210910936405 0.0 ) ">
          <g>
            <g>
              <g>
                <g >
                  <circle fill="#29567d" stroke="#29567d" stroke-opacity="0.0" stroke-width="0.0" cx="51.19667186394949" cy="123.39962121212125" r="4.4" />
                  <circle fill="#306591" stroke="#306591" stroke-opacity="0.0" stroke-width="0.0" cx="51.19667186394949" cy="123.39962121212125" r="4.4" />
                  <circle fill="#2e608a" stroke="#2e608a" stroke-opacity="0.0" stroke-width="0.0" cx="72.98248967839606" cy="108.532196969697" r="4.4" />
                  <circle fill="#306591" stroke="#306591" stroke-opacity="0.0" stroke-width="0.0" cx="72.98248967839606" cy="115.96590909090912" r="4.4" />
                  <circle fill="#244c6f" stroke="#244c6f" stroke-opacity="0.0" stroke-width="0.0" cx="160.1257609361824" cy="145.7007575757576" r="4.4" />
                  <circle fill="#29567d" stroke="#29567d" stroke-opacity="0.0" stroke-width="0.0" cx="160.1257609361824" cy="145.7007575757576" r="4.4" />
                  <circle fill="#29567d" stroke="#29567d" stroke-opacity="0.0" stroke-width="0.0" cx="192.80448765785232" cy="138.26704545454547" r="4.4" />
                  <path fill="#29567d" stroke="#29567d" stroke-opacity="0.0" stroke-width="0.0" d="M51.19667186394949 141.89024579910605 L51.19667186394949 141.89024579910605 L55.596671863949496 149.51126935240913 L46.79667186394949 149.51126935240913 Z" transform="rotate(0.0 51.19667186394949 145.7007575757576 ) " />
                  <path fill="#244c6f" stroke="#244c6f" stroke-opacity="0.0" stroke-width="0.0" d="M51.19667186394949 149.32395792031818 L51.19667186394949 149.32395792031818 L55.596671863949496 156.94498147362125 L46.79667186394949 156.94498147362125 Z" transform="rotate(0.0 51.19667186394949 153.13446969696972 ) " />
                  <path fill="#2e608a" stroke="#2e608a" stroke-opacity="0.0" stroke-width="0.0" d="M72.98248967839606 127.02282155668183 L72.98248967839606 127.02282155668183 L77.38248967839606 134.6438451099849 L68.58248967839606 134.6438451099849 Z" transform="rotate(0.0 72.98248967839606 130.83333333333337 ) " />
                  <path fill="#2b5b83" stroke="#2b5b83" stroke-opacity="0.0" stroke-width="0.0" d="M72.98248967839606 134.45653367789393 L72.98248967839606 134.45653367789393 L77.38248967839606 142.077557231197 L68.58248967839606 142.077557231197 Z" transform="rotate(0.0 72.98248967839606 138.26704545454547 ) " />
                  <path fill="#214769" stroke="#214769" stroke-opacity="0.0" stroke-width="0.0" d="M160.1257609361824 149.32395792031818 L160.1257609361824 149.32395792031818 L164.5257609361824 156.94498147362125 L155.72576093618238 156.94498147362125 Z" transform="rotate(0.0 160.1257609361824 153.13446969696972 ) " />
                  <path fill="#265176" stroke="#265176" stroke-opacity="0.0" stroke-width="0.0" d="M160.1257609361824 149.32395792031818 L160.1257609361824 149.32395792031818 L164.5257609361824 156.94498147362125 L155.72576093618238 156.94498147362125 Z" transform="rotate(0.0 160.1257609361824 153.13446969696972 ) " />
                  <path fill="#265176" stroke="#265176" stroke-opacity="0.0" stroke-width="0.0" d="M192.80448765785232 149.32395792031818 L192.80448765785232 149.32395792031818 L197.20448765785233 156.94498147362125 L188.40448765785231 156.94498147362125 Z" transform="rotate(0.0 192.80448765785232 153.13446969696972 ) " />
                  <path fill="#214769" stroke="#214769" stroke-opacity="0.0" stroke-width="0.0" d="M192.80448765785232 149.32395792031818 L192.80448765785232 149.32395792031818 L197.20448765785233 156.94498147362125 L188.40448765785231 156.94498147362125 Z" transform="rotate(0.0 192.80448765785232 153.13446969696972 ) " />
                  <path fill="#214769" stroke="#214769" stroke-opacity="0.0" stroke-width="0.0" d="M160.1257609361824 156.7576700415303 L160.1257609361824 156.7576700415303 L164.5257609361824 164.37869359483338 L155.72576093618238 164.37869359483338 Z" transform="rotate(0.0 160.1257609361824 160.56818181818184 ) " />
                  <path fill="#265176" stroke="#265176" stroke-opacity="0.0" stroke-width="0.0" d="M192.80448765785232 149.32395792031818 L192.80448765785232 149.32395792031818 L197.20448765785233 156.94498147362125 L188.40448765785231 156.94498147362125 Z" transform="rotate(0.0 192.80448765785232 153.13446969696972 ) " />
                  <path fill="#244c6f" stroke="#244c6f" stroke-opacity="0.0" stroke-width="0.0" d="M312.6264856373085 164.19138216274243 L312.6264856373085 164.19138216274243 L317.02648563730855 171.8124057160455 L308.22648563730854 171.8124057160455 Z" transform="rotate(0.0 312.6264856373085 168.00189393939397 ) " />
                  <rect fill="#1f4262" stroke="#1f4262" stroke-opacity="0.0" stroke-width="0.0" x="428.04848361676477" y="185.9030303030303" height="8.8" width="8.8" transform="rotate(0.0 432.44848361676475 190.3030303030303 ) " />
                  <rect fill="#18344f" stroke="#18344f" stroke-opacity="0.0" stroke-width="0.0" x="428.04848361676477" y="223.07159090909093" height="8.8" width="8.8" transform="rotate(0.0 432.44848361676475 227.47159090909093 ) " />
                  <rect fill="#1f4262" stroke="#1f4262" stroke-opacity="0.0" stroke-width="0.0" x="428.04848361676477" y="185.9030303030303" height="8.8" width="8.8" transform="rotate(0.0 432.44848361676475 190.3030303030303 ) " />
                  <rect fill="#1c3d5c" stroke="#1c3d5c" stroke-opacity="0.0" stroke-width="0.0" x="471.620119245658" y="208.20416666666668" height="8.8" width="8.8" transform="rotate(0.0 476.02011924565795 212.60416666666669 ) " />
                  <rect fill="#1a3955" stroke="#1a3955" stroke-opacity="0.0" stroke-width="0.0" x="504.2988459673278" y="208.20416666666668" height="8.8" width="8.8" transform="rotate(0.0 508.69884596732777 212.60416666666669 ) " />
                  <rect fill="#244c6f" stroke="#244c6f" stroke-opacity="0.0" stroke-width="0.0" x="471.620119245658" y="141.3007575757576" height="8.8" width="8.8" transform="rotate(0.0 476.02011924565795 145.7007575757576 ) " />
                  <rect fill="#214769" stroke="#214769" stroke-opacity="0.0" stroke-width="0.0" x="471.620119245658" y="163.60189393939396" height="8.8" width="8.8" transform="rotate(0.0 476.02011924565795 168.00189393939397 ) " />
                  <rect fill="#244c6f" stroke="#244c6f" stroke-opacity="0.0" stroke-width="0.0" x="526.0846637817745" y="141.3007575757576" height="8.8" width="8.8" transform="rotate(0.0 530.4846637817744 145.7007575757576 ) " />
                  <rect fill="#214769" stroke="#214769" stroke-opacity="0.0" stroke-width="0.0" x="526.0846637817745" y="148.7344696969697" height="8.8" width="8.8" transform="rotate(0.0 530.4846637817744 153.13446969696972 ) " />
                  <rect fill="#214769" stroke="#214769" stroke-opacity="0.0" stroke-width="0.0" x="613.2279350395607" y="156.16818181818184" height="8.8" width="8.8" transform="rotate(0.0 617.6279350395607 160.56818181818184 ) " />
                  <path fill="#1f4262" stroke="#1f4262" stroke-opacity="0.0" stroke-width="0.0" d="M432.44848361676475 193.9262306475909 L432.44848361676475 193.9262306475909 L436.8484836167648 201.54725420089397 L428.04848361676477 201.54725420089397 Z" transform="rotate(0.0 432.44848361676475 197.73674242424244 ) " />
                  <path fill="#18344f" stroke="#18344f" stroke-opacity="0.0" stroke-width="0.0" d="M432.44848361676475 231.09479125365152 L432.44848361676475 231.09479125365152 L436.8484836167648 238.7158148069546 L428.04848361676477 238.7158148069546 Z" transform="rotate(0.0 432.44848361676475 234.90530303030306 ) " />
                  <path fill="#18344f" stroke="#18344f" stroke-opacity="0.0" stroke-width="0.0" d="M476.02011924565795 223.6610791324394 L476.02011924565795 223.6610791324394 L480.420119245658 231.28210268574247 L471.620119245658 231.28210268574247 Z" transform="rotate(0.0 476.02011924565795 227.47159090909093 ) " />
                  <path fill="#1f4262" stroke="#1f4262" stroke-opacity="0.0" stroke-width="0.0" d="M563.1633905034442 208.79365489001515 L563.1633905034442 208.79365489001515 L567.5633905034442 216.41467844331822 L558.7633905034443 216.41467844331822 Z" transform="rotate(0.0 563.1633905034442 212.60416666666669 ) " />
                  <circle fill="#2b5b83" stroke="#2b5b83" stroke-opacity="0.0" stroke-width="0.0" cx="116.55412530728924" cy="138.26704545454547" r="4.4" />
                  <circle fill="#336a98" stroke="#336a98" stroke-opacity="0.0" stroke-width="0.0" cx="116.55412530728924" cy="115.96590909090912" r="4.4" />
                  <circle fill="#29567d" stroke="#29567d" stroke-opacity="0.0" stroke-width="0.0" cx="192.80448765785232" cy="145.7007575757576" r="4.4" />
                  <circle fill="#29567d" stroke="#29567d" stroke-opacity="0.0" stroke-width="0.0" cx="236.37612328674547" cy="123.39962121212125" r="4.4" />
                  <circle fill="#265176" stroke="#265176" stroke-opacity="0.0" stroke-width="0.0" cx="247.2690321939688" cy="145.7007575757576" r="4.4" />
                  <circle fill="#29567d" stroke="#29567d" stroke-opacity="0.0" stroke-width="0.0" cx="116.55412530728924" cy="160.56818181818184" r="4.4" />
                  <circle fill="#265176" stroke="#265176" stroke-opacity="0.0" stroke-width="0.0" cx="181.911578750629" cy="160.56818181818184" r="4.4" />
                  <circle fill="#244c6f" stroke="#244c6f" stroke-opacity="0.0" stroke-width="0.0" cx="214.59030547229887" cy="175.4356060606061" r="4.4" />
                  <circle fill="#244c6f" stroke="#244c6f" stroke-opacity="0.0" stroke-width="0.0" cx="214.59030547229887" cy="175.4356060606061" r="4.4" />
                  <circle fill="#265176" stroke="#265176" stroke-opacity="0.0" stroke-width="0.0" cx="214.59030547229887" cy="160.56818181818184" r="4.4" />
                  <circle fill="#265176" stroke="#265176" stroke-opacity="0.0" stroke-width="0.0" cx="214.59030547229887" cy="160.56818181818184" r="4.4" />
                  <circle fill="#18344f" stroke="#18344f" stroke-opacity="0.0" stroke-width="0.0" cx="214.59030547229887" cy="212.60416666666669" r="4.4" />
                  <circle fill="#214769" stroke="#214769" stroke-opacity="0.0" stroke-width="0.0" cx="269.0548500084153" cy="175.4356060606061" r="4.4" />
                  <circle fill="#214769" stroke="#214769" stroke-opacity="0.0" stroke-width="0.0" cx="269.0548500084153" cy="182.86931818181822" r="4.4" />
                  <circle fill="#244c6f" stroke="#244c6f" stroke-opacity="0.0" stroke-width="0.0" cx="269.0548500084153" cy="168.00189393939397" r="4.4" />
                  <circle fill="#244c6f" stroke="#244c6f" stroke-opacity="0.0" stroke-width="0.0" cx="290.840667822862" cy="168.00189393939397" r="4.4" />
                  <path fill="#214769" stroke="#214769" stroke-opacity="0.0" stroke-width="0.0" d="M258.16194110119204 193.9262306475909 L258.16194110119204 193.9262306475909 L262.561941101192 201.54725420089397 L253.76194110119204 201.54725420089397 Z" transform="rotate(0.0 258.16194110119204 197.73674242424244 ) " />
                  <path fill="#1f4262" stroke="#1f4262" stroke-opacity="0.0" stroke-width="0.0" d="M258.16194110119204 201.35994276880302 L258.16194110119204 201.35994276880302 L262.561941101192 208.9809663221061 L253.76194110119204 208.9809663221061 Z" transform="rotate(0.0 258.16194110119204 205.17045454545456 ) " />
                  <path fill="#1c3d5c" stroke="#1c3d5c" stroke-opacity="0.0" stroke-width="0.0" d="M279.9477589156386 208.79365489001515 L279.9477589156386 208.79365489001515 L284.3477589156386 216.41467844331822 L275.5477589156386 216.41467844331822 Z" transform="rotate(0.0 279.9477589156386 212.60416666666669 ) " />
                  <path fill="#1f4262" stroke="#1f4262" stroke-opacity="0.0" stroke-width="0.0" d="M279.9477589156386 208.79365489001515 L279.9477589156386 208.79365489001515 L284.3477589156386 216.41467844331822 L275.5477589156386 216.41467844331822 Z" transform="rotate(0.0 279.9477589156386 212.60416666666669 ) " />
                  <path fill="#1f4262" stroke="#1f4262" stroke-opacity="0.0" stroke-width="0.0" d="M367.091030173425 193.9262306475909 L367.091030173425 193.9262306475909 L371.49103017342503 201.54725420089397 L362.691030173425 201.54725420089397 Z" transform="rotate(0.0 367.091030173425 197.73674242424244 ) " />
                  <path fill="#1f4262" stroke="#1f4262" stroke-opacity="0.0" stroke-width="0.0" d="M367.091030173425 193.9262306475909 L367.091030173425 193.9262306475909 L371.49103017342503 201.54725420089397 L362.691030173425 201.54725420089397 Z" transform="rotate(0.0 367.091030173425 197.73674242424244 ) " />
                  <path fill="#132b43" stroke="#132b43" stroke-opacity="0.0" stroke-width="0.0" d="M367.091030173425 245.96221549607577 L367.091030173425 245.96221549607577 L371.49103017342503 253.58323904937885 L362.691030173425 253.58323904937885 Z" transform="rotate(0.0 367.091030173425 249.7727272727273 ) " />
                  <path fill="#18344f" stroke="#18344f" stroke-opacity="0.0" stroke-width="0.0" d="M421.5555747095415 208.79365489001515 L421.5555747095415 208.79365489001515 L425.9555747095415 216.41467844331822 L417.1555747095415 216.41467844331822 Z" transform="rotate(0.0 421.5555747095415 212.60416666666669 ) " />
                  <path fill="#18344f" stroke="#18344f" stroke-opacity="0.0" stroke-width="0.0" d="M421.5555747095415 223.6610791324394 L421.5555747095415 223.6610791324394 L425.9555747095415 231.28210268574247 L417.1555747095415 231.28210268574247 Z" transform="rotate(0.0 421.5555747095415 227.47159090909093 ) " />
                  <path fill="#1c3d5c" stroke="#1c3d5c" stroke-opacity="0.0" stroke-width="0.0" d="M279.9477589156386 208.79365489001515 L279.9477589156386 208.79365489001515 L284.3477589156386 216.41467844331822 L275.5477589156386 216.41467844331822 Z" transform="rotate(0.0 279.9477589156386 212.60416666666669 ) " />
                  <path fill="#1c3d5c" stroke="#1c3d5c" stroke-opacity="0.0" stroke-width="0.0" d="M367.091030173425 208.79365489001515 L367.091030173425 208.79365489001515 L371.49103017342503 216.41467844331822 L362.691030173425 216.41467844331822 Z" transform="rotate(0.0 367.091030173425 212.60416666666669 ) " />
                  <path fill="#132b43" stroke="#132b43" stroke-opacity="0.0" stroke-width="0.0" d="M367.091030173425 245.96221549607577 L367.091030173425 245.96221549607577 L371.49103017342503 253.58323904937885 L362.691030173425 253.58323904937885 Z" transform="rotate(0.0 367.091030173425 249.7727272727273 ) " />
                  <path fill="#1c3d5c" stroke="#1c3d5c" stroke-opacity="0.0" stroke-width="0.0" d="M367.091030173425 208.79365489001515 L367.091030173425 208.79365489001515 L371.49103017342503 216.41467844331822 L362.691030173425 216.41467844331822 Z" transform="rotate(0.0 367.091030173425 212.60416666666669 ) " />
                  <path fill="#18344f" stroke="#18344f" stroke-opacity="0.0" stroke-width="0.0" d="M421.5555747095415 216.22736701122727 L421.5555747095415 216.22736701122727 L425.9555747095415 223.84839056453035 L417.1555747095415 223.84839056453035 Z" transform="rotate(0.0 421.5555747095415 220.0378787878788 ) " />
                  <path fill="#1c3d5c" stroke="#1c3d5c" stroke-opacity="0.0" stroke-width="0.0" d="M476.02011924565795 201.35994276880302 L476.02011924565795 201.35994276880302 L480.420119245658 208.9809663221061 L471.620119245658 208.9809663221061 Z" transform="rotate(0.0 476.02011924565795 205.17045454545456 ) " />
                  <path fill="#18344f" stroke="#18344f" stroke-opacity="0.0" stroke-width="0.0" d="M497.8059370601045 223.6610791324394 L497.8059370601045 223.6610791324394 L502.20593706010453 231.28210268574247 L493.4059370601045 231.28210268574247 Z" transform="rotate(0.0 497.8059370601045 227.47159090909093 ) " />
                  <path fill="#1a3955" stroke="#1a3955" stroke-opacity="0.0" stroke-width="0.0" d="M367.091030173425 216.22736701122727 L367.091030173425 216.22736701122727 L371.49103017342503 223.84839056453035 L362.691030173425 223.84839056453035 Z" transform="rotate(0.0 367.091030173425 220.0378787878788 ) " />
                  <path fill="#132b43" stroke="#132b43" stroke-opacity="0.0" stroke-width="0.0" d="M367.091030173425 245.96221549607577 L367.091030173425 245.96221549607577 L371.49103017342503 253.58323904937885 L362.691030173425 253.58323904937885 Z" transform="rotate(0.0 367.091030173425 249.7727272727273 ) " />
                  <path fill="#1c3d5c" stroke="#1c3d5c" stroke-opacity="0.0" stroke-width="0.0" d="M367.091030173425 208.79365489001515 L367.091030173425 208.79365489001515 L371.49103017342503 216.41467844331822 L362.691030173425 216.41467844331822 Z" transform="rotate(0.0 367.091030173425 212.60416666666669 ) " />
                  <path fill="#1c3d5c" stroke="#1c3d5c" stroke-opacity="0.0" stroke-width="0.0" d="M367.091030173425 208.79365489001515 L367.091030173425 208.79365489001515 L371.49103017342503 216.41467844331822 L362.691030173425 216.41467844331822 Z" transform="rotate(0.0 367.091030173425 212.60416666666669 ) " />
                  <path fill="#1a3955" stroke="#1a3955" stroke-opacity="0.0" stroke-width="0.0" d="M367.091030173425 216.22736701122727 L367.091030173425 216.22736701122727 L371.49103017342503 223.84839056453035 L362.691030173425 223.84839056453035 Z" transform="rotate(0.0 367.091030173425 220.0378787878788 ) " />
                  <path fill="#132b43" stroke="#132b43" stroke-opacity="0.0" stroke-width="0.0" d="M367.091030173425 245.96221549607577 L367.091030173425 245.96221549607577 L371.49103017342503 253.58323904937885 L362.691030173425 253.58323904937885 Z" transform="rotate(0.0 367.091030173425 249.7727272727273 ) " />
                  <path fill="#18344f" stroke="#18344f" stroke-opacity="0.0" stroke-width="0.0" d="M421.5555747095415 223.6610791324394 L421.5555747095415 223.6610791324394 L425.9555747095415 231.28210268574247 L417.1555747095415 231.28210268574247 Z" transform="rotate(0.0 421.5555747095415 227.47159090909093 ) " />
                  <path fill="#18344f" stroke="#18344f" stroke-opacity="0.0" stroke-width="0.0" d="M421.5555747095415 216.22736701122727 L421.5555747095415 216.22736701122727 L425.9555747095415 223.84839056453035 L417.1555747095415 223.84839056453035 Z" transform="rotate(0.0 421.5555747095415 220.0378787878788 ) " />
                  <path fill="#1c3d5c" stroke="#1c3d5c" stroke-opacity="0.0" stroke-width="0.0" d="M476.02011924565795 208.79365489001515 L476.02011924565795 208.79365489001515 L480.420119245658 216.41467844331822 L471.620119245658 216.41467844331822 Z" transform="rotate(0.0 476.02011924565795 212.60416666666669 ) " />
                  <path fill="#18344f" stroke="#18344f" stroke-opacity="0.0" stroke-width="0.0" d="M497.8059370601045 223.6610791324394 L497.8059370601045 223.6610791324394 L502.20593706010453 231.28210268574247 L493.4059370601045 231.28210268574247 Z" transform="rotate(0.0 497.8059370601045 227.47159090909093 ) " />
                  <rect fill="#18344f" stroke="#18344f" stroke-opacity="0.0" stroke-width="0.0" x="351.79812126620175" y="208.20416666666668" height="8.8" width="8.8" transform="rotate(0.0 356.1981212662017 212.60416666666669 ) " />
                  <rect fill="#18344f" stroke="#18344f" stroke-opacity="0.0" stroke-width="0.0" x="438.94139252398804" y="208.20416666666668" height="8.8" width="8.8" transform="rotate(0.0 443.341392523988 212.60416666666669 ) " />
                  <rect fill="#1a3955" stroke="#1a3955" stroke-opacity="0.0" stroke-width="0.0" x="438.94139252398804" y="200.77045454545456" height="8.8" width="8.8" transform="rotate(0.0 443.341392523988 205.17045454545456 ) " />
                  <path fill="#1f4262" stroke="#1f4262" stroke-opacity="0.0" stroke-width="0.0" d="M290.840667822862 208.79365489001515 L290.840667822862 208.79365489001515 L295.240667822862 216.41467844331822 L286.440667822862 216.41467844331822 Z" transform="rotate(0.0 290.840667822862 212.60416666666669 ) " />
                  <path fill="#214769" stroke="#214769" stroke-opacity="0.0" stroke-width="0.0" d="M290.840667822862 193.9262306475909 L290.840667822862 193.9262306475909 L295.240667822862 201.54725420089397 L286.440667822862 201.54725420089397 Z" transform="rotate(0.0 290.840667822862 197.73674242424244 ) " />
                  <path fill="#1f4262" stroke="#1f4262" stroke-opacity="0.0" stroke-width="0.0" d="M290.840667822862 208.79365489001515 L290.840667822862 208.79365489001515 L295.240667822862 216.41467844331822 L286.440667822862 216.41467844331822 Z" transform="rotate(0.0 290.840667822862 212.60416666666669 ) " />
                  <path fill="#1c3d5c" stroke="#1c3d5c" stroke-opacity="0.0" stroke-width="0.0" d="M290.840667822862 193.9262306475909 L290.840667822862 193.9262306475909 L295.240667822862 201.54725420089397 L286.440667822862 201.54725420089397 Z" transform="rotate(0.0 290.840667822862 197.73674242424244 ) " />
                  <path fill="#1c3d5c" stroke="#1c3d5c" stroke-opacity="0.0" stroke-width="0.0" d="M356.1981212662017 193.9262306475909 L356.1981212662017 193.9262306475909 L360.59812126620176 201.54725420089397 L351.79812126620175 201.54725420089397 Z" transform="rotate(0.0 356.1981212662017 197.73674242424244 ) " />
                  <path fill="#1c3d5c" stroke="#1c3d5c" stroke-opacity="0.0" stroke-width="0.0" d="M399.7697568950948 208.79365489001515 L399.7697568950948 208.79365489001515 L404.16975689509485 216.41467844331822 L395.36975689509484 216.41467844331822 Z" transform="rotate(0.0 399.7697568950948 212.60416666666669 ) " />
                  <path fill="#1f4262" stroke="#1f4262" stroke-opacity="0.0" stroke-width="0.0" d="M312.6264856373085 208.79365489001515 L312.6264856373085 208.79365489001515 L317.02648563730855 216.41467844331822 L308.22648563730854 216.41467844331822 Z" transform="rotate(0.0 312.6264856373085 212.60416666666669 ) " />
                  <path fill="#1f4262" stroke="#1f4262" stroke-opacity="0.0" stroke-width="0.0" d="M312.6264856373085 208.79365489001515 L312.6264856373085 208.79365489001515 L317.02648563730855 216.41467844331822 L308.22648563730854 216.41467844331822 Z" transform="rotate(0.0 312.6264856373085 212.60416666666669 ) " />
                  <path fill="#1c3d5c" stroke="#1c3d5c" stroke-opacity="0.0" stroke-width="0.0" d="M356.1981212662017 216.22736701122727 L356.1981212662017 216.22736701122727 L360.59812126620176 223.84839056453035 L351.79812126620175 223.84839056453035 Z" transform="rotate(0.0 356.1981212662017 220.0378787878788 ) " />
                  <path fill="#1c3d5c" stroke="#1c3d5c" stroke-opacity="0.0" stroke-width="0.0" d="M356.1981212662017 216.22736701122727 L356.1981212662017 216.22736701122727 L360.59812126620176 223.84839056453035 L351.79812126620175 223.84839056453035 Z" transform="rotate(0.0 356.1981212662017 220.0378787878788 ) " />
                  <path fill="#1c3d5c" stroke="#1c3d5c" stroke-opacity="0.0" stroke-width="0.0" d="M356.1981212662017 208.79365489001515 L356.1981212662017 208.79365489001515 L360.59812126620176 216.41467844331822 L351.79812126620175 216.41467844331822 Z" transform="rotate(0.0 356.1981212662017 212.60416666666669 ) " />
                  <path fill="#18344f" stroke="#18344f" stroke-opacity="0.0" stroke-width="0.0" d="M443.341392523988 223.6610791324394 L443.341392523988 223.6610791324394 L447.74139252398805 231.28210268574247 L438.94139252398804 231.28210268574247 Z" transform="rotate(0.0 443.341392523988 227.47159090909093 ) " />
                  <path fill="#1c3d5c" stroke="#1c3d5c" stroke-opacity="0.0" stroke-width="0.0" d="M443.341392523988 208.79365489001515 L443.341392523988 208.79365489001515 L447.74139252398805 216.41467844331822 L438.94139252398804 216.41467844331822 Z" transform="rotate(0.0 443.341392523988 212.60416666666669 ) " />
                  <rect fill="#29567d" stroke="#29567d" stroke-opacity="0.0" stroke-width="0.0" x="264.65485000841534" y="141.3007575757576" height="8.8" width="8.8" transform="rotate(0.0 269.0548500084153 145.7007575757576 ) " />
                  <rect fill="#29567d" stroke="#29567d" stroke-opacity="0.0" stroke-width="0.0" x="264.65485000841534" y="148.7344696969697" height="8.8" width="8.8" transform="rotate(0.0 269.0548500084153 153.13446969696972 ) " />
                  <rect fill="#265176" stroke="#265176" stroke-opacity="0.0" stroke-width="0.0" x="286.440667822862" y="141.3007575757576" height="8.8" width="8.8" transform="rotate(0.0 290.840667822862 145.7007575757576 ) " />
                  <rect fill="#244c6f" stroke="#244c6f" stroke-opacity="0.0" stroke-width="0.0" x="286.440667822862" y="156.16818181818184" height="8.8" width="8.8" transform="rotate(0.0 290.840667822862 160.56818181818184 ) " />
                  <rect fill="#214769" stroke="#214769" stroke-opacity="0.0" stroke-width="0.0" x="351.79812126620175" y="178.4693181818182" height="8.8" width="8.8" transform="rotate(0.0 356.1981212662017 182.86931818181822 ) " />
                  <rect fill="#214769" stroke="#214769" stroke-opacity="0.0" stroke-width="0.0" x="351.79812126620175" y="171.03560606060609" height="8.8" width="8.8" transform="rotate(0.0 356.1981212662017 175.4356060606061 ) " />
                  <rect fill="#214769" stroke="#214769" stroke-opacity="0.0" stroke-width="0.0" x="351.79812126620175" y="163.60189393939396" height="8.8" width="8.8" transform="rotate(0.0 356.1981212662017 168.00189393939397 ) " />
                  <rect fill="#214769" stroke="#214769" stroke-opacity="0.0" stroke-width="0.0" x="351.79812126620175" y="171.03560606060609" height="8.8" width="8.8" transform="rotate(0.0 356.1981212662017 175.4356060606061 ) " />
                  <rect fill="#1f4262" stroke="#1f4262" stroke-opacity="0.0" stroke-width="0.0" x="438.94139252398804" y="185.9030303030303" height="8.8" width="8.8" transform="rotate(0.0 443.341392523988 190.3030303030303 ) " />
                  <circle fill="#438ac3" stroke="#438ac3" stroke-opacity="0.0" stroke-width="0.0" cx="29.410854049502888" cy="93.66477272727275" r="4.4" />
                  <circle fill="#3875a6" stroke="#3875a6" stroke-opacity="0.0" stroke-width="0.0" cx="29.410854049502888" cy="101.09848484848487" r="4.4" />
                  <circle fill="#3b7aad" stroke="#3b7aad" stroke-opacity="0.0" stroke-width="0.0" cx="29.410854049502888" cy="101.09848484848487" r="4.4" />
                  <circle fill="#356f9f" stroke="#356f9f" stroke-opacity="0.0" stroke-width="0.0" cx="29.410854049502888" cy="123.39962121212125" r="4.4" />
                  <circle fill="#3875a6" stroke="#3875a6" stroke-opacity="0.0" stroke-width="0.0" cx="29.410854049502888" cy="101.09848484848487" r="4.4" />
                  <circle fill="#3d7fb4" stroke="#3d7fb4" stroke-opacity="0.0" stroke-width="0.0" cx="51.19667186394949" cy="86.23106060606062" r="4.4" />
                  <circle fill="#3b7aad" stroke="#3b7aad" stroke-opacity="0.0" stroke-width="0.0" cx="51.19667186394949" cy="71.36363636363637" r="4.4" />
                  <circle fill="#3875a6" stroke="#3875a6" stroke-opacity="0.0" stroke-width="0.0" cx="51.19667186394949" cy="71.36363636363637" r="4.4" />
                  <circle fill="#306591" stroke="#306591" stroke-opacity="0.0" stroke-width="0.0" cx="72.98248967839606" cy="123.39962121212125" r="4.4" />
                  <circle fill="#29567d" stroke="#29567d" stroke-opacity="0.0" stroke-width="0.0" cx="116.55412530728924" cy="145.7007575757576" r="4.4" />
                  <circle fill="#29567d" stroke="#29567d" stroke-opacity="0.0" stroke-width="0.0" cx="116.55412530728924" cy="138.26704545454547" r="4.4" />
                  <circle fill="#306591" stroke="#306591" stroke-opacity="0.0" stroke-width="0.0" cx="116.55412530728924" cy="115.96590909090912" r="4.4" />
                  <circle fill="#306591" stroke="#306591" stroke-opacity="0.0" stroke-width="0.0" cx="116.55412530728924" cy="108.532196969697" r="4.4" />
                  <circle fill="#29567d" stroke="#29567d" stroke-opacity="0.0" stroke-width="0.0" cx="127.44703421451251" cy="145.7007575757576" r="4.4" />
                  <circle fill="#29567d" stroke="#29567d" stroke-opacity="0.0" stroke-width="0.0" cx="127.44703421451251" cy="145.7007575757576" r="4.4" />
                  <circle fill="#2b5b83" stroke="#2b5b83" stroke-opacity="0.0" stroke-width="0.0" cx="214.59030547229887" cy="130.83333333333337" r="4.4" />
                  <circle fill="#2b5b83" stroke="#2b5b83" stroke-opacity="0.0" stroke-width="0.0" cx="72.98248967839606" cy="145.7007575757576" r="4.4" />
                  <circle fill="#2b5b83" stroke="#2b5b83" stroke-opacity="0.0" stroke-width="0.0" cx="72.98248967839606" cy="123.39962121212125" r="4.4" />
                  <circle fill="#2e608a" stroke="#2e608a" stroke-opacity="0.0" stroke-width="0.0" cx="72.98248967839606" cy="130.83333333333337" r="4.4" />
                  <circle fill="#2e608a" stroke="#2e608a" stroke-opacity="0.0" stroke-width="0.0" cx="72.98248967839606" cy="138.26704545454547" r="4.4" />
                  <circle fill="#265176" stroke="#265176" stroke-opacity="0.0" stroke-width="0.0" cx="149.23285202895912" cy="160.56818181818184" r="4.4" />
                  <circle fill="#244c6f" stroke="#244c6f" stroke-opacity="0.0" stroke-width="0.0" cx="149.23285202895912" cy="160.56818181818184" r="4.4" />
                  <circle fill="#265176" stroke="#265176" stroke-opacity="0.0" stroke-width="0.0" cx="149.23285202895912" cy="160.56818181818184" r="4.4" />
                  <path fill="#265176" stroke="#265176" stroke-opacity="0.0" stroke-width="0.0" d="M181.911578750629 171.62509428395455 L181.911578750629 171.62509428395455 L186.311578750629 179.24611783725763 L177.51157875062898 179.24611783725763 Z" transform="rotate(0.0 181.911578750629 175.4356060606061 ) " />
                  <path fill="#214769" stroke="#214769" stroke-opacity="0.0" stroke-width="0.0" d="M258.16194110119204 193.9262306475909 L258.16194110119204 193.9262306475909 L262.561941101192 201.54725420089397 L253.76194110119204 201.54725420089397 Z" transform="rotate(0.0 258.16194110119204 197.73674242424244 ) " />
                  <path fill="#214769" stroke="#214769" stroke-opacity="0.0" stroke-width="0.0" d="M290.840667822862 186.49251852637877 L290.840667822862 186.49251852637877 L295.240667822862 194.11354207968185 L286.440667822862 194.11354207968185 Z" transform="rotate(0.0 290.840667822862 190.3030303030303 ) " />
                  <path fill="#1f4262" stroke="#1f4262" stroke-opacity="0.0" stroke-width="0.0" d="M367.091030173425 208.79365489001515 L367.091030173425 208.79365489001515 L371.49103017342503 216.41467844331822 L362.691030173425 216.41467844331822 Z" transform="rotate(0.0 367.091030173425 212.60416666666669 ) " />
                  <path fill="#132b43" stroke="#132b43" stroke-opacity="0.0" stroke-width="0.0" d="M367.091030173425 245.96221549607577 L367.091030173425 245.96221549607577 L371.49103017342503 253.58323904937885 L362.691030173425 253.58323904937885 Z" transform="rotate(0.0 367.091030173425 249.7727272727273 ) " />
                  <path fill="#1f4262" stroke="#1f4262" stroke-opacity="0.0" stroke-width="0.0" d="M367.091030173425 193.9262306475909 L367.091030173425 193.9262306475909 L371.49103017342503 201.54725420089397 L362.691030173425 201.54725420089397 Z" transform="rotate(0.0 367.091030173425 197.73674242424244 ) " />
                  <path fill="#1c3d5c" stroke="#1c3d5c" stroke-opacity="0.0" stroke-width="0.0" d="M476.02011924565795 201.35994276880302 L476.02011924565795 201.35994276880302 L480.420119245658 208.9809663221061 L471.620119245658 208.9809663221061 Z" transform="rotate(0.0 476.02011924565795 205.17045454545456 ) " />
                  <path fill="#18344f" stroke="#18344f" stroke-opacity="0.0" stroke-width="0.0" d="M519.591754874551 231.09479125365152 L519.591754874551 231.09479125365152 L523.991754874551 238.7158148069546 L515.1917548745511 238.7158148069546 Z" transform="rotate(0.0 519.591754874551 234.90530303030306 ) " />
                  <path fill="#18344f" stroke="#18344f" stroke-opacity="0.0" stroke-width="0.0" d="M290.840667822862 223.6610791324394 L290.840667822862 223.6610791324394 L295.240667822862 231.28210268574247 L286.440667822862 231.28210268574247 Z" transform="rotate(0.0 290.840667822862 227.47159090909093 ) " />
                  <path fill="#1a3955" stroke="#1a3955" stroke-opacity="0.0" stroke-width="0.0" d="M312.6264856373085 201.35994276880302 L312.6264856373085 201.35994276880302 L317.02648563730855 208.9809663221061 L308.22648563730854 208.9809663221061 Z" transform="rotate(0.0 312.6264856373085 205.17045454545456 ) " />
                  <path fill="#1a3955" stroke="#1a3955" stroke-opacity="0.0" stroke-width="0.0" d="M334.4123034517552 201.35994276880302 L334.4123034517552 201.35994276880302 L338.8123034517552 208.9809663221061 L330.0123034517552 208.9809663221061 Z" transform="rotate(0.0 334.4123034517552 205.17045454545456 ) " />
                  <path fill="#18344f" stroke="#18344f" stroke-opacity="0.0" stroke-width="0.0" d="M356.1981212662017 223.6610791324394 L356.1981212662017 223.6610791324394 L360.59812126620176 231.28210268574247 L351.79812126620175 231.28210268574247 Z" transform="rotate(0.0 356.1981212662017 227.47159090909093 ) " />
                  <rect fill="#18344f" stroke="#18344f" stroke-opacity="0.0" stroke-width="0.0" x="438.94139252398804" y="208.20416666666668" height="8.8" width="8.8" transform="rotate(0.0 443.341392523988 212.60416666666669 ) " />
                  <rect fill="#18344f" stroke="#18344f" stroke-opacity="0.0" stroke-width="0.0" x="438.94139252398804" y="215.6378787878788" height="8.8" width="8.8" transform="rotate(0.0 443.341392523988 220.0378787878788 ) " />
                  <rect fill="#1a3955" stroke="#1a3955" stroke-opacity="0.0" stroke-width="0.0" x="438.94139252398804" y="200.77045454545456" height="8.8" width="8.8" transform="rotate(0.0 443.341392523988 205.17045454545456 ) " />
                  <path fill="#1f4262" stroke="#1f4262" stroke-opacity="0.0" stroke-width="0.0" d="M290.840667822862 208.79365489001515 L290.840667822862 208.79365489001515 L295.240667822862 216.41467844331822 L286.440667822862 216.41467844331822 Z" transform="rotate(0.0 290.840667822862 212.60416666666669 ) " />
                  <path fill="#1c3d5c" stroke="#1c3d5c" stroke-opacity="0.0" stroke-width="0.0" d="M290.840667822862 193.9262306475909 L290.840667822862 193.9262306475909 L295.240667822862 201.54725420089397 L286.440667822862 201.54725420089397 Z" transform="rotate(0.0 290.840667822862 197.73674242424244 ) " />
                  <path fill="#1c3d5c" stroke="#1c3d5c" stroke-opacity="0.0" stroke-width="0.0" d="M356.1981212662017 193.9262306475909 L356.1981212662017 193.9262306475909 L360.59812126620176 201.54725420089397 L351.79812126620175 201.54725420089397 Z" transform="rotate(0.0 356.1981212662017 197.73674242424244 ) " />
                  <path fill="#1c3d5c" stroke="#1c3d5c" stroke-opacity="0.0" stroke-width="0.0" d="M399.7697568950948 208.79365489001515 L399.7697568950948 208.79365489001515 L404.16975689509485 216.41467844331822 L395.36975689509484 216.41467844331822 Z" transform="rotate(0.0 399.7697568950948 212.60416666666669 ) " />
                  <circle fill="#306591" stroke="#306591" stroke-opacity="0.0" stroke-width="0.0" cx="116.55412530728924" cy="123.39962121212125" r="4.4" />
                  <circle fill="#2b5b83" stroke="#2b5b83" stroke-opacity="0.0" stroke-width="0.0" cx="116.55412530728924" cy="138.26704545454547" r="4.4" />
                  <circle fill="#356f9f" stroke="#356f9f" stroke-opacity="0.0" stroke-width="0.0" cx="127.44703421451251" cy="108.532196969697" r="4.4" />
                  <circle fill="#356f9f" stroke="#356f9f" stroke-opacity="0.0" stroke-width="0.0" cx="127.44703421451251" cy="101.09848484848487" r="4.4" />
                  <circle fill="#2b5b83" stroke="#2b5b83" stroke-opacity="0.0" stroke-width="0.0" cx="236.37612328674547" cy="138.26704545454547" r="4.4" />
                  <circle fill="#2b5b83" stroke="#2b5b83" stroke-opacity="0.0" stroke-width="0.0" cx="236.37612328674547" cy="145.7007575757576" r="4.4" />
                  <circle fill="#29567d" stroke="#29567d" stroke-opacity="0.0" stroke-width="0.0" cx="181.911578750629" cy="145.7007575757576" r="4.4" />
                  <circle fill="#2b5b83" stroke="#2b5b83" stroke-opacity="0.0" stroke-width="0.0" cx="181.911578750629" cy="153.13446969696972" r="4.4" />
                  <circle fill="#2b5b83" stroke="#2b5b83" stroke-opacity="0.0" stroke-width="0.0" cx="236.37612328674547" cy="153.13446969696972" r="4.4" />
                  <path fill="#1f4262" stroke="#1f4262" stroke-opacity="0.0" stroke-width="0.0" d="M214.59030547229887 208.79365489001515 L214.59030547229887 208.79365489001515 L218.99030547229887 216.41467844331822 L210.19030547229886 216.41467844331822 Z" transform="rotate(0.0 214.59030547229887 212.60416666666669 ) " />
                  <path fill="#214769" stroke="#214769" stroke-opacity="0.0" stroke-width="0.0" d="M214.59030547229887 208.79365489001515 L214.59030547229887 208.79365489001515 L218.99030547229887 216.41467844331822 L210.19030547229886 216.41467844331822 Z" transform="rotate(0.0 214.59030547229887 212.60416666666669 ) " />
                  <path fill="#1f4262" stroke="#1f4262" stroke-opacity="0.0" stroke-width="0.0" d="M290.840667822862 186.49251852637877 L290.840667822862 186.49251852637877 L295.240667822862 194.11354207968185 L286.440667822862 194.11354207968185 Z" transform="rotate(0.0 290.840667822862 190.3030303030303 ) " />
                  <path fill="#1a3955" stroke="#1a3955" stroke-opacity="0.0" stroke-width="0.0" d="M465.12721033843457 201.35994276880302 L465.12721033843457 201.35994276880302 L469.5272103384346 208.9809663221061 L460.7272103384346 208.9809663221061 Z" transform="rotate(0.0 465.12721033843457 205.17045454545456 ) " />
                  <circle fill="#29567d" stroke="#29567d" stroke-opacity="0.0" stroke-width="0.0" cx="192.80448765785232" cy="145.7007575757576" r="4.4" />
                  <circle fill="#244c6f" stroke="#244c6f" stroke-opacity="0.0" stroke-width="0.0" cx="269.0548500084153" cy="145.7007575757576" r="4.4" />
                  <circle fill="#265176" stroke="#265176" stroke-opacity="0.0" stroke-width="0.0" cx="269.0548500084153" cy="138.26704545454547" r="4.4" />
                  <circle fill="#29567d" stroke="#29567d" stroke-opacity="0.0" stroke-width="0.0" cx="269.0548500084153" cy="130.83333333333337" r="4.4" />
                  <circle fill="#244c6f" stroke="#244c6f" stroke-opacity="0.0" stroke-width="0.0" cx="432.44848361676475" cy="153.13446969696972" r="4.4" />
                  <path fill="#29567d" stroke="#29567d" stroke-opacity="0.0" stroke-width="0.0" d="M127.44703421451251 149.32395792031818 L127.44703421451251 149.32395792031818 L131.84703421451252 156.94498147362125 L123.04703421451251 156.94498147362125 Z" transform="rotate(0.0 127.44703421451251 153.13446969696972 ) " />
                  <path fill="#29567d" stroke="#29567d" stroke-opacity="0.0" stroke-width="0.0" d="M127.44703421451251 156.7576700415303 L127.44703421451251 156.7576700415303 L131.84703421451252 164.37869359483338 L123.04703421451251 164.37869359483338 Z" transform="rotate(0.0 127.44703421451251 160.56818181818184 ) " />
                  <path fill="#2e608a" stroke="#2e608a" stroke-opacity="0.0" stroke-width="0.0" d="M127.44703421451251 134.45653367789393 L127.44703421451251 134.45653367789393 L131.84703421451252 142.077557231197 L123.04703421451251 142.077557231197 Z" transform="rotate(0.0 127.44703421451251 138.26704545454547 ) " />
                  <path fill="#2b5b83" stroke="#2b5b83" stroke-opacity="0.0" stroke-width="0.0" d="M127.44703421451251 149.32395792031818 L127.44703421451251 149.32395792031818 L131.84703421451252 156.94498147362125 L123.04703421451251 156.94498147362125 Z" transform="rotate(0.0 127.44703421451251 153.13446969696972 ) " />
                  <path fill="#2e608a" stroke="#2e608a" stroke-opacity="0.0" stroke-width="0.0" d="M127.44703421451251 141.89024579910605 L127.44703421451251 141.89024579910605 L131.84703421451252 149.51126935240913 L123.04703421451251 149.51126935240913 Z" transform="rotate(0.0 127.44703421451251 145.7007575757576 ) " />
                  <path fill="#29567d" stroke="#29567d" stroke-opacity="0.0" stroke-width="0.0" d="M127.44703421451251 164.19138216274243 L127.44703421451251 164.19138216274243 L131.84703421451252 171.8124057160455 L123.04703421451251 171.8124057160455 Z" transform="rotate(0.0 127.44703421451251 168.00189393939397 ) " />
                  <path fill="#306591" stroke="#306591" stroke-opacity="0.0" stroke-width="0.0" d="M94.76830749284267 141.89024579910605 L94.76830749284267 141.89024579910605 L99.16830749284266 149.51126935240913 L90.36830749284266 149.51126935240913 Z" transform="rotate(0.0 94.76830749284267 145.7007575757576 ) " />
                  <path fill="#2b5b83" stroke="#2b5b83" stroke-opacity="0.0" stroke-width="0.0" d="M94.76830749284267 141.89024579910605 L94.76830749284267 141.89024579910605 L99.16830749284266 149.51126935240913 L90.36830749284266 149.51126935240913 Z" transform="rotate(0.0 94.76830749284267 145.7007575757576 ) " />
                  <path fill="#2b5b83" stroke="#2b5b83" stroke-opacity="0.0" stroke-width="0.0" d="M127.44703421451251 141.89024579910605 L127.44703421451251 141.89024579910605 L131.84703421451252 149.51126935240913 L123.04703421451251 149.51126935240913 Z" transform="rotate(0.0 127.44703421451251 145.7007575757576 ) " />
                  <path fill="#2b5b83" stroke="#2b5b83" stroke-opacity="0.0" stroke-width="0.0" d="M127.44703421451251 141.89024579910605 L127.44703421451251 141.89024579910605 L131.84703421451252 149.51126935240913 L123.04703421451251 149.51126935240913 Z" transform="rotate(0.0 127.44703421451251 145.7007575757576 ) " />
                  <path fill="#2e608a" stroke="#2e608a" stroke-opacity="0.0" stroke-width="0.0" d="M127.44703421451251 149.32395792031818 L127.44703421451251 149.32395792031818 L131.84703421451252 156.94498147362125 L123.04703421451251 156.94498147362125 Z" transform="rotate(0.0 127.44703421451251 153.13446969696972 ) " />
                  <path fill="#2e608a" stroke="#2e608a" stroke-opacity="0.0" stroke-width="0.0" d="M127.44703421451251 134.45653367789393 L127.44703421451251 134.45653367789393 L131.84703421451252 142.077557231197 L123.04703421451251 142.077557231197 Z" transform="rotate(0.0 127.44703421451251 138.26704545454547 ) " />
                  <path fill="#2b5b83" stroke="#2b5b83" stroke-opacity="0.0" stroke-width="0.0" d="M127.44703421451251 149.32395792031818 L127.44703421451251 149.32395792031818 L131.84703421451252 156.94498147362125 L123.04703421451251 156.94498147362125 Z" transform="rotate(0.0 127.44703421451251 153.13446969696972 ) " />
                  <path fill="#2e608a" stroke="#2e608a" stroke-opacity="0.0" stroke-width="0.0" d="M127.44703421451251 134.45653367789393 L127.44703421451251 134.45653367789393 L131.84703421451252 142.077557231197 L123.04703421451251 142.077557231197 Z" transform="rotate(0.0 127.44703421451251 138.26704545454547 ) " />
                  <path fill="#214769" stroke="#214769" stroke-opacity="0.0" stroke-width="0.0" d="M149.23285202895912 186.49251852637877 L149.23285202895912 186.49251852637877 L153.63285202895912 194.11354207968185 L144.8328520289591 194.11354207968185 Z" transform="rotate(0.0 149.23285202895912 190.3030303030303 ) " />
                  <path fill="#244c6f" stroke="#244c6f" stroke-opacity="0.0" stroke-width="0.0" d="M149.23285202895912 186.49251852637877 L149.23285202895912 186.49251852637877 L153.63285202895912 194.11354207968185 L144.8328520289591 194.11354207968185 Z" transform="rotate(0.0 149.23285202895912 190.3030303030303 ) " />
                  <path fill="#214769" stroke="#214769" stroke-opacity="0.0" stroke-width="0.0" d="M225.4832143795222 193.9262306475909 L225.4832143795222 193.9262306475909 L229.8832143795222 201.54725420089397 L221.0832143795222 201.54725420089397 Z" transform="rotate(0.0 225.4832143795222 197.73674242424244 ) " />
                  <path fill="#214769" stroke="#214769" stroke-opacity="0.0" stroke-width="0.0" d="M225.4832143795222 208.79365489001515 L225.4832143795222 208.79365489001515 L229.8832143795222 216.41467844331822 L221.0832143795222 216.41467844331822 Z" transform="rotate(0.0 225.4832143795222 212.60416666666669 ) " />
                  <path fill="#244c6f" stroke="#244c6f" stroke-opacity="0.0" stroke-width="0.0" d="M290.840667822862 186.49251852637877 L290.840667822862 186.49251852637877 L295.240667822862 194.11354207968185 L286.440667822862 194.11354207968185 Z" transform="rotate(0.0 290.840667822862 190.3030303030303 ) " />
                  <path fill="#1f4262" stroke="#1f4262" stroke-opacity="0.0" stroke-width="0.0" d="M367.091030173425 208.79365489001515 L367.091030173425 208.79365489001515 L371.49103017342503 216.41467844331822 L362.691030173425 216.41467844331822 Z" transform="rotate(0.0 367.091030173425 212.60416666666669 ) " />
                  <circle fill="#306591" stroke="#306591" stroke-opacity="0.0" stroke-width="0.0" cx="94.76830749284267" cy="123.39962121212125" r="4.4" />
                  <circle fill="#306591" stroke="#306591" stroke-opacity="0.0" stroke-width="0.0" cx="94.76830749284267" cy="138.26704545454547" r="4.4" />
                  <circle fill="#306591" stroke="#306591" stroke-opacity="0.0" stroke-width="0.0" cx="116.55412530728924" cy="108.532196969697" r="4.4" />
                  <circle fill="#306591" stroke="#306591" stroke-opacity="0.0" stroke-width="0.0" cx="116.55412530728924" cy="108.532196969697" r="4.4" />
                  <circle fill="#29567d" stroke="#29567d" stroke-opacity="0.0" stroke-width="0.0" cx="181.911578750629" cy="145.7007575757576" r="4.4" />
                  <circle fill="#29567d" stroke="#29567d" stroke-opacity="0.0" stroke-width="0.0" cx="181.911578750629" cy="145.7007575757576" r="4.4" />
                  <circle fill="#2b5b83" stroke="#2b5b83" stroke-opacity="0.0" stroke-width="0.0" cx="236.37612328674547" cy="130.83333333333337" r="4.4" />
                  <circle fill="#306591" stroke="#306591" stroke-opacity="0.0" stroke-width="0.0" cx="94.76830749284267" cy="138.26704545454547" r="4.4" />
                  <circle fill="#306591" stroke="#306591" stroke-opacity="0.0" stroke-width="0.0" cx="94.76830749284267" cy="123.39962121212125" r="4.4" />
                  <circle fill="#306591" stroke="#306591" stroke-opacity="0.0" stroke-width="0.0" cx="116.55412530728924" cy="108.532196969697" r="4.4" />
                  <circle fill="#336a98" stroke="#336a98" stroke-opacity="0.0" stroke-width="0.0" cx="116.55412530728924" cy="108.532196969697" r="4.4" />
                  <circle fill="#29567d" stroke="#29567d" stroke-opacity="0.0" stroke-width="0.0" cx="181.911578750629" cy="145.7007575757576" r="4.4" />
                  <circle fill="#29567d" stroke="#29567d" stroke-opacity="0.0" stroke-width="0.0" cx="181.911578750629" cy="145.7007575757576" r="4.4" />
                  <circle fill="#29567d" stroke="#29567d" stroke-opacity="0.0" stroke-width="0.0" cx="214.59030547229887" cy="138.26704545454547" r="4.4" />
                  <circle fill="#3875a6" stroke="#3875a6" stroke-opacity="0.0" stroke-width="0.0" cx="51.19667186394949" cy="115.96590909090912" r="4.4" />
                  <circle fill="#3875a6" stroke="#3875a6" stroke-opacity="0.0" stroke-width="0.0" cx="51.19667186394949" cy="93.66477272727275" r="4.4" />
                  <circle fill="#3d7fb4" stroke="#3d7fb4" stroke-opacity="0.0" stroke-width="0.0" cx="51.19667186394949" cy="78.7973484848485" r="4.4" />
                  <circle fill="#438ac3" stroke="#438ac3" stroke-opacity="0.0" stroke-width="0.0" cx="51.19667186394949" cy="63.92992424242425" r="4.4" />
                  <circle fill="#3d7fb4" stroke="#3d7fb4" stroke-opacity="0.0" stroke-width="0.0" cx="51.19667186394949" cy="78.7973484848485" r="4.4" />
                  <path fill="#18344f" stroke="#18344f" stroke-opacity="0.0" stroke-width="0.0" d="M367.091030173425 223.6610791324394 L367.091030173425 223.6610791324394 L371.49103017342503 231.28210268574247 L362.691030173425 231.28210268574247 Z" transform="rotate(0.0 367.091030173425 227.47159090909093 ) " />
                  <path fill="#1c3d5c" stroke="#1c3d5c" stroke-opacity="0.0" stroke-width="0.0" d="M476.02011924565795 201.35994276880302 L476.02011924565795 201.35994276880302 L480.420119245658 208.9809663221061 L471.620119245658 208.9809663221061 Z" transform="rotate(0.0 476.02011924565795 205.17045454545456 ) " />
                  <path fill="#214769" stroke="#214769" stroke-opacity="0.0" stroke-width="0.0" d="M149.23285202895912 186.49251852637877 L149.23285202895912 186.49251852637877 L153.63285202895912 194.11354207968185 L144.8328520289591 194.11354207968185 Z" transform="rotate(0.0 149.23285202895912 190.3030303030303 ) " />
                  <path fill="#244c6f" stroke="#244c6f" stroke-opacity="0.0" stroke-width="0.0" d="M149.23285202895912 186.49251852637877 L149.23285202895912 186.49251852637877 L153.63285202895912 194.11354207968185 L144.8328520289591 194.11354207968185 Z" transform="rotate(0.0 149.23285202895912 190.3030303030303 ) " />
                  <path fill="#265176" stroke="#265176" stroke-opacity="0.0" stroke-width="0.0" d="M149.23285202895912 171.62509428395455 L149.23285202895912 171.62509428395455 L153.63285202895912 179.24611783725763 L144.8328520289591 179.24611783725763 Z" transform="rotate(0.0 149.23285202895912 175.4356060606061 ) " />
                  <path fill="#214769" stroke="#214769" stroke-opacity="0.0" stroke-width="0.0" d="M225.4832143795222 208.79365489001515 L225.4832143795222 208.79365489001515 L229.8832143795222 216.41467844331822 L221.0832143795222 216.41467844331822 Z" transform="rotate(0.0 225.4832143795222 212.60416666666669 ) " />
                  <path fill="#214769" stroke="#214769" stroke-opacity="0.0" stroke-width="0.0" d="M225.4832143795222 193.9262306475909 L225.4832143795222 193.9262306475909 L229.8832143795222 201.54725420089397 L221.0832143795222 201.54725420089397 Z" transform="rotate(0.0 225.4832143795222 197.73674242424244 ) " />
                  <path fill="#214769" stroke="#214769" stroke-opacity="0.0" stroke-width="0.0" d="M290.840667822862 201.35994276880302 L290.840667822862 201.35994276880302 L295.240667822862 208.9809663221061 L286.440667822862 208.9809663221061 Z" transform="rotate(0.0 290.840667822862 205.17045454545456 ) " />
                  <path fill="#244c6f" stroke="#244c6f" stroke-opacity="0.0" stroke-width="0.0" d="M290.840667822862 186.49251852637877 L290.840667822862 186.49251852637877 L295.240667822862 194.11354207968185 L286.440667822862 194.11354207968185 Z" transform="rotate(0.0 290.840667822862 190.3030303030303 ) " />
                  <circle fill="#306591" stroke="#306591" stroke-opacity="0.0" stroke-width="0.0" cx="72.98248967839606" cy="123.39962121212125" r="4.4" />
                  <circle fill="#2b5b83" stroke="#2b5b83" stroke-opacity="0.0" stroke-width="0.0" cx="72.98248967839606" cy="145.7007575757576" r="4.4" />
                  <circle fill="#306591" stroke="#306591" stroke-opacity="0.0" stroke-width="0.0" cx="72.98248967839606" cy="123.39962121212125" r="4.4" />
                  <circle fill="#336a98" stroke="#336a98" stroke-opacity="0.0" stroke-width="0.0" cx="72.98248967839606" cy="123.39962121212125" r="4.4" />
                  <circle fill="#265176" stroke="#265176" stroke-opacity="0.0" stroke-width="0.0" cx="160.1257609361824" cy="160.56818181818184" r="4.4" />
                  <circle fill="#50a6e8" stroke="#50a6e8" stroke-opacity="0.0" stroke-width="0.0" cx="62.08958077117276" cy="11.893939393939434" r="4.4" />
                  <circle fill="#306591" stroke="#306591" stroke-opacity="0.0" stroke-width="0.0" cx="72.98248967839606" cy="123.39962121212125" r="4.4" />
                  <circle fill="#2b5b83" stroke="#2b5b83" stroke-opacity="0.0" stroke-width="0.0" cx="72.98248967839606" cy="145.7007575757576" r="4.4" />
                  <circle fill="#336a98" stroke="#336a98" stroke-opacity="0.0" stroke-width="0.0" cx="72.98248967839606" cy="123.39962121212125" r="4.4" />
                  <circle fill="#306591" stroke="#306591" stroke-opacity="0.0" stroke-width="0.0" cx="72.98248967839606" cy="123.39962121212125" r="4.4" />
                  <circle fill="#306591" stroke="#306591" stroke-opacity="0.0" stroke-width="0.0" cx="127.44703421451251" cy="123.39962121212125" r="4.4" />
                  <circle fill="#306591" stroke="#306591" stroke-opacity="0.0" stroke-width="0.0" cx="127.44703421451251" cy="123.39962121212125" r="4.4" />
                  <circle fill="#244c6f" stroke="#244c6f" stroke-opacity="0.0" stroke-width="0.0" cx="160.1257609361824" cy="168.00189393939397" r="4.4" />
                  <circle fill="#265176" stroke="#265176" stroke-opacity="0.0" stroke-width="0.0" cx="160.1257609361824" cy="160.56818181818184" r="4.4" />
                  <circle fill="#56b1f7" stroke="#56b1f7" stroke-opacity="0.0" stroke-width="0.0" cx="62.08958077117276" cy="11.893939393939434" r="4.4" />
                  <circle fill="#458fca" stroke="#458fca" stroke-opacity="0.0" stroke-width="0.0" cx="62.08958077117276" cy="34.19507575757581" r="4.4" />
                  <circle fill="#306591" stroke="#306591" stroke-opacity="0.0" stroke-width="0.0" cx="72.98248967839606" cy="123.39962121212125" r="4.4" />
                  <circle fill="#2b5b83" stroke="#2b5b83" stroke-opacity="0.0" stroke-width="0.0" cx="72.98248967839606" cy="145.7007575757576" r="4.4" />
                  <circle fill="#2e608a" stroke="#2e608a" stroke-opacity="0.0" stroke-width="0.0" cx="127.44703421451251" cy="130.83333333333337" r="4.4" />
                  <circle fill="#2e608a" stroke="#2e608a" stroke-opacity="0.0" stroke-width="0.0" cx="127.44703421451251" cy="123.39962121212125" r="4.4" />
                  <circle fill="#306591" stroke="#306591" stroke-opacity="0.0" stroke-width="0.0" cx="51.19667186394949" cy="123.39962121212125" r="4.4" />
                  <circle fill="#29567d" stroke="#29567d" stroke-opacity="0.0" stroke-width="0.0" cx="51.19667186394949" cy="123.39962121212125" r="4.4" />
                  <circle fill="#2b5b83" stroke="#2b5b83" stroke-opacity="0.0" stroke-width="0.0" cx="72.98248967839606" cy="130.83333333333337" r="4.4" />
                  <circle fill="#306591" stroke="#306591" stroke-opacity="0.0" stroke-width="0.0" cx="72.98248967839606" cy="123.39962121212125" r="4.4" />
                  <circle fill="#244c6f" stroke="#244c6f" stroke-opacity="0.0" stroke-width="0.0" cx="160.1257609361824" cy="145.7007575757576" r="4.4" />
                  <circle fill="#29567d" stroke="#29567d" stroke-opacity="0.0" stroke-width="0.0" cx="160.1257609361824" cy="145.7007575757576" r="4.4" />
                  <circle fill="#265176" stroke="#265176" stroke-opacity="0.0" stroke-width="0.0" cx="247.2690321939688" cy="145.7007575757576" r="4.4" />
                </g>
              </g>
            </g>
          </g>
        </g>
        <defs>
          <clipPath id="xXxprefixXx1">
            <rect x="21.961210910936405" y="0.0" width="647.0387890890636" height="261.6666666666667">
            </rect>
          </clipPath>
        </defs>
      </g>
      <g>
      </g>
    </g>
    <g transform="translate(16.0 137.33333333333334 ) rotate(-90.0 ) ">
      <text class="axis-title-y" y="0.0" text-anchor="middle">
        <tspan>hwy</tspan>
      </text>
    </g>
    <g transform="translate(374.9806054554682 313.6666666666667 ) ">
      <text class="axis-title-x" y="0.0" text-anchor="middle">
        <tspan>displ</tspan>
      </text>
    </g>
    <g transform="translate(257.586266910655 320.6666666666667 ) ">
      <rect x="5.0" y="5.0" height="50.33333333333333" width="224.78867708962633" stroke="rgb(187,187,187)" stroke-opacity="1.0" stroke-width="0.0" fill="rgb(25,25,28)" fill-opacity="1.0">
      </rect>
      <g transform="translate(10.0 10.0 ) ">
        <g transform="translate(0.0 17.166666666666664 ) ">
          <text class="legend-title" y="0.0">
            <tspan>City mileage</tspan>
          </text>
          <text class="legend-title" y="15.0">
            <tspan>(mpg)</tspan>
          </text>
        </g>
        <g transform="translate(99.78867708962632 0.0 ) ">
          <g>
            <rect x="0.0" y="0.0" height="23.0" width="115.0" stroke-width="0.0" fill="rgb(20,46,71)" fill-opacity="1.0">
            </rect>
            <rect x="7.55" y="0.0" height="23.0" width="107.45" stroke-width="0.0" fill="rgb(24,52,79)" fill-opacity="1.0">
            </rect>
            <rect x="13.1" y="0.0" height="23.0" width="101.9" stroke-width="0.0" fill="rgb(27,58,87)" fill-opacity="1.0">
            </rect>
            <rect x="18.65" y="0.0" height="23.0" width="96.35" stroke-width="0.0" fill="rgb(30,64,95)" fill-opacity="1.0">
            </rect>
            <rect x="24.2" y="0.0" height="23.0" width="90.8" stroke-width="0.0" fill="rgb(33,70,104)" fill-opacity="1.0">
            </rect>
            <rect x="29.75" y="0.0" height="23.0" width="85.25" stroke-width="0.0" fill="rgb(36,77,112)" fill-opacity="1.0">
            </rect>
            <rect x="35.3" y="0.0" height="23.0" width="79.7" stroke-width="0.0" fill="rgb(39,83,121)" fill-opacity="1.0">
            </rect>
            <rect x="40.849999999999994" y="0.0" height="23.0" width="74.15" stroke-width="0.0" fill="rgb(42,90,130)" fill-opacity="1.0">
            </rect>
            <rect x="46.39999999999999" y="0.0" height="23.0" width="68.60000000000001" stroke-width="0.0" fill="rgb(46,96,138)" fill-opacity="1.0">
            </rect>
            <rect x="51.94999999999999" y="0.0" height="23.0" width="63.05000000000001" stroke-width="0.0" fill="rgb(49,103,147)" fill-opacity="1.0">
            </rect>
            <rect x="57.499999999999986" y="0.0" height="23.0" width="57.500000000000014" stroke-width="0.0" fill="rgb(52,110,156)" fill-opacity="1.0">
            </rect>
            <rect x="63.04999999999998" y="0.0" height="23.0" width="51.95000000000002" stroke-width="0.0" fill="rgb(56,116,166)" fill-opacity="1.0">
            </rect>
            <rect x="68.59999999999998" y="0.0" height="23.0" width="46.40000000000002" stroke-width="0.0" fill="rgb(59,123,175)" fill-opacity="1.0">
            </rect>
            <rect x="74.14999999999998" y="0.0" height="23.0" width="40.85000000000002" stroke-width="0.0" fill="rgb(63,130,184)" fill-opacity="1.0">
            </rect>
            <rect x="79.69999999999997" y="0.0" height="23.0" width="35.300000000000026" stroke-width="0.0" fill="rgb(66,137,194)" fill-opacity="1.0">
            </rect>
            <rect x="85.24999999999997" y="0.0" height="23.0" width="29.75000000000003" stroke-width="0.0" fill="rgb(70,144,203)" fill-opacity="1.0">
            </rect>
            <rect x="90.79999999999997" y="0.0" height="23.0" width="24.20000000000003" stroke-width="0.0" fill="rgb(73,151,213)" fill-opacity="1.0">
            </rect>
            <rect x="96.34999999999997" y="0.0" height="23.0" width="18.650000000000034" stroke-width="0.0" fill="rgb(77,159,222)" fill-opacity="1.0">
            </rect>
            <rect x="101.89999999999996" y="0.0" height="23.0" width="13.100000000000037" stroke-width="0.0" fill="rgb(81,166,232)" fill-opacity="1.0">
            </rect>
            <rect x="107.44999999999996" y="0.0" height="23.0" width="7.55000000000004" stroke-width="0.0" fill="rgb(84,173,242)" fill-opacity="1.0">
            </rect>
            <line x1="6.269230769230774" y1="0.0" x2="6.269230769230774" y2="4.6" stroke-width="1.0" stroke="rgb(25,25,28)" stroke-opacity="1.0">
            </line>
            <line x1="6.269230769230774" y1="18.4" x2="6.269230769230774" y2="23.0" stroke-width="1.0" stroke="rgb(25,25,28)" stroke-opacity="1.0">
            </line>
            <g transform="translate(6.269230769230774 36.43333333333333 ) ">
              <text class="legend-item" text-anchor="middle" y="0.0">
                <tspan>10</tspan>
              </text>
            </g>
            <line x1="27.615384615384613" y1="0.0" x2="27.615384615384613" y2="4.6" stroke-width="1.0" stroke="rgb(25,25,28)" stroke-opacity="1.0">
            </line>
            <line x1="27.615384615384613" y1="18.4" x2="27.615384615384613" y2="23.0" stroke-width="1.0" stroke="rgb(25,25,28)" stroke-opacity="1.0">
            </line>
            <g transform="translate(27.615384615384613 36.43333333333333 ) ">
              <text class="legend-item" text-anchor="middle" y="0.0">
                <tspan>15</tspan>
              </text>
            </g>
            <line x1="48.96153846153847" y1="0.0" x2="48.96153846153847" y2="4.6" stroke-width="1.0" stroke="rgb(25,25,28)" stroke-opacity="1.0">
            </line>
            <line x1="48.96153846153847" y1="18.4" x2="48.96153846153847" y2="23.0" stroke-width="1.0" stroke="rgb(25,25,28)" stroke-opacity="1.0">
            </line>
            <g transform="translate(48.96153846153847 36.43333333333333 ) ">
              <text class="legend-item" text-anchor="middle" y="0.0">
                <tspan>20</tspan>
              </text>
            </g>
            <line x1="70.3076923076923" y1="0.0" x2="70.3076923076923" y2="4.6" stroke-width="1.0" stroke="rgb(25,25,28)" stroke-opacity="1.0">
            </line>
            <line x1="70.3076923076923" y1="18.4" x2="70.3076923076923" y2="23.0" stroke-width="1.0" stroke="rgb(25,25,28)" stroke-opacity="1.0">
            </line>
            <g transform="translate(70.3076923076923 36.43333333333333 ) ">
              <text class="legend-item" text-anchor="middle" y="0.0">
                <tspan>25</tspan>
              </text>
            </g>
            <line x1="91.65384615384615" y1="0.0" x2="91.65384615384615" y2="4.6" stroke-width="1.0" stroke="rgb(25,25,28)" stroke-opacity="1.0">
            </line>
            <line x1="91.65384615384615" y1="18.4" x2="91.65384615384615" y2="23.0" stroke-width="1.0" stroke="rgb(25,25,28)" stroke-opacity="1.0">
            </line>
            <g transform="translate(91.65384615384615 36.43333333333333 ) ">
              <text class="legend-item" text-anchor="middle" y="0.0">
                <tspan>30</tspan>
              </text>
            </g>
            <line x1="113.00000000000001" y1="0.0" x2="113.00000000000001" y2="4.6" stroke-width="1.0" stroke="rgb(25,25,28)" stroke-opacity="1.0">
            </line>
            <line x1="113.00000000000001" y1="18.4" x2="113.00000000000001" y2="23.0" stroke-width="1.0" stroke="rgb(25,25,28)" stroke-opacity="1.0">
            </line>
            <g transform="translate(113.00000000000001 36.43333333333333 ) ">
              <text class="legend-item" text-anchor="middle" y="0.0">
                <tspan>35</tspan>
              </text>
            </g>
          </g>
        </g>
      </g>
    </g>
    <g transform="translate(257.586266910655 381.0 ) ">
      <rect x="5.0" y="5.0" height="79.0" width="202.85507758630933" stroke="rgb(187,187,187)" stroke-opacity="1.0" stroke-width="0.0" fill="rgb(25,25,28)" fill-opacity="1.0">
      </rect>
      <g transform="translate(10.0 10.0 ) ">
        <g transform="translate(0.0 31.5 ) ">
          <text class="legend-title" y="0.0">
            <tspan>Drive type</tspan>
          </text>
          <text class="legend-title" y="15.0">
            <tspan>(front/4/rear wheel)</tspan>
          </text>
        </g>
        <g transform="translate(157.88416940310702 0.0 ) ">
          <g transform="">
            <g>
              <rect x="0.0" y="0.0" height="23.0" width="23.0" stroke-width="0.0" fill="rgb(25,25,28)" fill-opacity="1.0">
              </rect>
              <g transform="translate(1.0 1.0 ) ">
                <g>
                  <g >
                    <circle fill="#bbbbbb" stroke="#bbbbbb" stroke-opacity="0.0" stroke-width="0.0" cx="10.5" cy="10.5" r="5.5" />
                  </g>
                </g>
              </g>
              <rect x="0.0" y="0.0" height="23.0" width="23.0" stroke="rgb(25,25,28)" stroke-opacity="1.0" stroke-width="1.0" fill-opacity="0.0">
              </rect>
            </g>
            <g transform="translate(26.9903027277341 16.05 ) ">
              <text class="legend-item" y="0.0">
                <tspan>f</tspan>
              </text>
            </g>
          </g>
          <g transform="translate(0.0 23.0 ) ">
            <g>
              <rect x="0.0" y="0.0" height="23.0" width="23.0" stroke-width="0.0" fill="rgb(25,25,28)" fill-opacity="1.0">
              </rect>
              <g transform="translate(1.0 1.0 ) ">
                <g>
                  <g >
                    <path fill="#bbbbbb" stroke="#bbbbbb" stroke-opacity="0.0" stroke-width="0.0" d="M10.5 5.736860279185588 L10.5 5.736860279185588 L16.0 15.263139720814412 L5.0 15.263139720814412 Z" transform="rotate(0.0 10.5 10.5 ) " />
                  </g>
                </g>
              </g>
              <rect x="0.0" y="0.0" height="23.0" width="23.0" stroke="rgb(25,25,28)" stroke-opacity="1.0" stroke-width="1.0" fill-opacity="0.0">
              </rect>
            </g>
            <g transform="translate(26.9903027277341 16.05 ) ">
              <text class="legend-item" y="0.0">
                <tspan>4</tspan>
              </text>
            </g>
          </g>
          <g transform="translate(0.0 46.0 ) ">
            <g>
              <rect x="0.0" y="0.0" height="23.0" width="23.0" stroke-width="0.0" fill="rgb(25,25,28)" fill-opacity="1.0">
              </rect>
              <g transform="translate(1.0 1.0 ) ">
                <g>
                  <g >
                    <rect fill="#bbbbbb" stroke="#bbbbbb" stroke-opacity="0.0" stroke-width="0.0" x="5.0" y="5.0" height="11.0" width="11.0" transform="rotate(0.0 10.5 10.5 ) " />
                  </g>
                </g>
              </g>
              <rect x="0.0" y="0.0" height="23.0" width="23.0" stroke="rgb(25,25,28)" stroke-opacity="1.0" stroke-width="1.0" fill-opacity="0.0">
              </rect>
            </g>
            <g transform="translate(26.9903027277341 16.05 ) ">
              <text class="legend-item" y="0.0">
                <tspan>r</tspan>
              </text>
            </g>
          </g>
        </g>
      </g>
    </g>
    <path fill="rgb(0,0,0)" fill-opacity="0.0" stroke="rgb(187,187,187)" stroke-opacity="1.0" stroke-width="0.0" d="M0.0 0.0 L0.0 470.0 L705.0 470.0 L705.0 0.0 Z">
    </path>
  </g>
  <g id="xXxprefixXx2">
  </g>
</svg>