<svg xmlns="http://www.w3.org/2000/svg" xmlns:xlink="http://www.w3.org/1999/xlink" class="plt-container" width="705.0" height="313.0">
  <style type="text/css">
  .plt-container {
   font-family: Lucida Grande, sans-serif;
   user-select: none;
   -webkit-user-select: none;
   -moz-user-select: none;
   -ms-user-select: none;
}
text {
   text-rendering: optimizeLegibility;
}
#xXxprefixXx0 .plot-title {
   fill: #bbbbbb;
   font-family: Lucida Grande, sans-serif;
   font-size: 16.0px;
   font-weight: normal;
   font-style: normal;   
}
#xXxprefixXx0 .plot-subtitle {
   fill: #bbbbbb;
   font-family: Lucida Grande, sans-serif;
   font-size: 15.0px;
   font-weight: normal;
   font-style: normal;   
}
#xXxprefixXx0 .plot-caption {
   fill: #bbbbbb;
   font-family: Lucida Grande, sans-serif;
   font-size: 13.0px;
   font-weight: normal;
   font-style: normal;   
}
#xXxprefixXx0 .legend-title {
   fill: #bbbbbb;
   font-family: Lucida Grande, sans-serif;
   font-size: 15.0px;
   font-weight: normal;
   font-style: normal;   
}
#xXxprefixXx0 .legend-item {
   fill: #bbbbbb;
   font-family: Lucida Grande, sans-serif;
   font-size: 13.0px;
   font-weight: normal;
   font-style: normal;   
}
#xXxprefixXx0 .axis-title-x {
   fill: #bbbbbb;
   font-family: Lucida Grande, sans-serif;
   font-size: 15.0px;
   font-weight: normal;
   font-style: normal;   
}
#xXxprefixXx0 .axis-text-x {
   fill: #bbbbbb;
   font-family: Lucida Grande, sans-serif;
   font-size: 13.0px;
   font-weight: normal;
   font-style: normal;   
}
#xXxprefixXx2 .axis-tooltip-text-x {
   fill: #303030;
   font-family: Lucida Grande, sans-serif;
   font-size: 13.0px;
   font-weight: normal;
   font-style: normal;   
}
#xXxprefixXx0 .axis-title-y {
   fill: #bbbbbb;
   font-family: Lucida Grande, sans-serif;
   font-size: 15.0px;
   font-weight: normal;
   font-style: normal;   
}
#xXxprefixXx0 .axis-text-y {
   fill: #bbbbbb;
   font-family: Lucida Grande, sans-serif;
   font-size: 13.0px;
   font-weight: normal;
   font-style: normal;   
}
#xXxprefixXx2 .axis-tooltip-text-y {
   fill: #303030;
   font-family: Lucida Grande, sans-serif;
   font-size: 13.0px;
   font-weight: normal;
   font-style: normal;   
}
#xXxprefixXx0 .facet-strip-text-x {
   fill: #bbbbbb;
   font-family: Lucida Grande, sans-serif;
   font-size: 13.0px;
   font-weight: normal;
   font-style: normal;   
}
#xXxprefixXx0 .facet-strip-text-y {
   fill: #bbbbbb;
   font-family: Lucida Grande, sans-serif;
   font-size: 13.0px;
   font-weight: normal;
   font-style: normal;   
}
#xXxprefixXx2 .tooltip-text {
   fill: #bbbbbb;
   font-family: Lucida Grande, sans-serif;
   font-size: 13.0px;
   font-weight: normal;
   font-style: normal;   
}
#xXxprefixXx2 .tooltip-title {
   fill: #bbbbbb;
   font-family: Lucida Grande, sans-serif;
   font-size: 13.0px;
   font-weight: bold;
   font-style: normal;   
}
#xXxprefixXx2 .tooltip-label {
   fill: #bbbbbb;
   font-family: Lucida Grande, sans-serif;
   font-size: 13.0px;
   font-weight: bold;
   font-style: normal;   
}

  </style>
  <g id="xXxprefixXx0">
    <path fill-rule="evenodd" fill="rgb(25,25,28)" fill-opacity="1.0" d="M0.0 0.0 L0.0 313.0 L705.0 313.0 L705.0 0.0 Z">
    </path>
    <g transform="translate(23.0 10.0 ) ">
      <g transform="translate(53.92376780579295 0.0 ) ">
        <line x1="67.51181251309708" y1="257.0" x2="67.51181251309708" y2="0.0" stroke="rgb(71,71,71)" stroke-opacity="1.0" stroke-width="1.0" fill="none">
        </line>
        <line x1="146.3466891579999" y1="257.0" x2="146.3466891579999" y2="0.0" stroke="rgb(71,71,71)" stroke-opacity="1.0" stroke-width="1.0" fill="none">
        </line>
        <line x1="225.28955878460783" y1="257.0" x2="225.28955878460783" y2="0.0" stroke="rgb(71,71,71)" stroke-opacity="1.0" stroke-width="1.0" fill="none">
        </line>
        <line x1="304.1244354295104" y1="257.0" x2="304.1244354295104" y2="0.0" stroke="rgb(71,71,71)" stroke-opacity="1.0" stroke-width="1.0" fill="none">
        </line>
        <line x1="383.06730505611836" y1="257.0" x2="383.06730505611836" y2="0.0" stroke="rgb(71,71,71)" stroke-opacity="1.0" stroke-width="1.0" fill="none">
        </line>
        <line x1="461.90218170102094" y1="257.0" x2="461.90218170102094" y2="0.0" stroke="rgb(71,71,71)" stroke-opacity="1.0" stroke-width="1.0" fill="none">
        </line>
        <line x1="540.8450513276289" y1="257.0" x2="540.8450513276289" y2="0.0" stroke="rgb(71,71,71)" stroke-opacity="1.0" stroke-width="1.0" fill="none">
        </line>
      </g>
      <g transform="translate(53.92376780579295 257.0 ) ">
        <g transform="translate(67.51181251309708 0.0 ) ">
          <line stroke-width="1.0" stroke="rgb(187,187,187)" stroke-opacity="1.0" x2="0.0" y2="4.0">
          </line>
          <g transform="translate(0.0 7.0 ) ">
            <text class="axis-text-x" text-anchor="middle" dy="0.7em">
              <tspan>Jan 2002</tspan>
            </text>
          </g>
        </g>
        <g transform="translate(146.3466891579999 0.0 ) ">
          <line stroke-width="1.0" stroke="rgb(187,187,187)" stroke-opacity="1.0" x2="0.0" y2="4.0">
          </line>
          <g transform="translate(0.0 7.0 ) ">
            <text class="axis-text-x" text-anchor="middle" dy="0.7em">
              <tspan>Jan 2004</tspan>
            </text>
          </g>
        </g>
        <g transform="translate(225.28955878460783 0.0 ) ">
          <line stroke-width="1.0" stroke="rgb(187,187,187)" stroke-opacity="1.0" x2="0.0" y2="4.0">
          </line>
          <g transform="translate(0.0 7.0 ) ">
            <text class="axis-text-x" text-anchor="middle" dy="0.7em">
              <tspan>Jan 2006</tspan>
            </text>
          </g>
        </g>
        <g transform="translate(304.1244354295104 0.0 ) ">
          <line stroke-width="1.0" stroke="rgb(187,187,187)" stroke-opacity="1.0" x2="0.0" y2="4.0">
          </line>
          <g transform="translate(0.0 7.0 ) ">
            <text class="axis-text-x" text-anchor="middle" dy="0.7em">
              <tspan>Jan 2008</tspan>
            </text>
          </g>
        </g>
        <g transform="translate(383.06730505611836 0.0 ) ">
          <line stroke-width="1.0" stroke="rgb(187,187,187)" stroke-opacity="1.0" x2="0.0" y2="4.0">
          </line>
          <g transform="translate(0.0 7.0 ) ">
            <text class="axis-text-x" text-anchor="middle" dy="0.7em">
              <tspan>Jan 2010</tspan>
            </text>
          </g>
        </g>
        <g transform="translate(461.90218170102094 0.0 ) ">
          <line stroke-width="1.0" stroke="rgb(187,187,187)" stroke-opacity="1.0" x2="0.0" y2="4.0">
          </line>
          <g transform="translate(0.0 7.0 ) ">
            <text class="axis-text-x" text-anchor="middle" dy="0.7em">
              <tspan>Jan 2012</tspan>
            </text>
          </g>
        </g>
        <g transform="translate(540.8450513276289 0.0 ) ">
          <line stroke-width="1.0" stroke="rgb(187,187,187)" stroke-opacity="1.0" x2="0.0" y2="4.0">
          </line>
          <g transform="translate(0.0 7.0 ) ">
            <text class="axis-text-x" text-anchor="middle" dy="0.7em">
              <tspan>Jan 2014</tspan>
            </text>
          </g>
        </g>
        <line x1="0.0" y1="0.0" x2="618.076232194207" y2="0.0" stroke-width="1.0" stroke="rgb(187,187,187)" stroke-opacity="1.0">
        </line>
      </g>
      <g transform="translate(53.92376780579295 0.0 ) ">
        <line x1="0.0" y1="134.52155576382378" x2="618.076232194207" y2="134.52155576382378" stroke="rgb(71,71,71)" stroke-opacity="1.0" stroke-width="1.0" fill="none">
        </line>
        <line x1="0.0" y1="14.090440487347621" x2="618.076232194207" y2="14.090440487347621" stroke="rgb(71,71,71)" stroke-opacity="1.0" stroke-width="1.0" fill="none">
        </line>
      </g>
      <g transform="translate(53.92376780579295 0.0 ) ">
        <g transform="translate(0.0 254.9526710402999 ) ">
          <g transform="translate(-3.0 0.0 ) ">
            <text class="axis-text-y" text-anchor="end" dy="0.35em">
              <tspan>5.0 %</tspan>
            </text>
          </g>
        </g>
        <g transform="translate(0.0 134.52155576382378 ) ">
          <g transform="translate(-3.0 0.0 ) ">
            <text class="axis-text-y" text-anchor="end" dy="0.35em">
              <tspan>15.0 %</tspan>
            </text>
          </g>
        </g>
        <g transform="translate(0.0 14.090440487347621 ) ">
          <g transform="translate(-3.0 0.0 ) ">
            <text class="axis-text-y" text-anchor="end" dy="0.35em">
              <tspan>25.0 %</tspan>
            </text>
          </g>
        </g>
      </g>
      <g transform="translate(53.92376780579295 0.0 ) " clip-path="url(#xXxprefixXx1)" clip-bounds-jfx="[rect (0.0, 0.0), (618.076232194207, 257.0)]">
        <defs>
          <clipPath id="xXxprefixXx1">
            <rect x="0.0" y="0.0" width="618.076232194207" height="257.0">
            </rect>
          </clipPath>
        </defs>
        <g>
          <path d="M28.094374190645794 245.3181818181818 L28.094374190645794 245.3181818181818 L31.442156623511664 241.70524835988752 L34.46596011126121 235.68369259606374 L37.81374254412708 244.11387066541704 L41.05353199528736 239.296626054358 L44.40131442815323 242.90955951265227 L47.641103879313505 233.2750702905342 L50.98888631217915 232.07075913776941 L54.33666874504502 228.45782567947515 L57.576458196205294 227.25351452671038 L60.924240629071164 222.43626991565134 L64.16403008023144 216.41471415182752 L67.51181251309708 214.006091846298 L70.85959494596295 215.21040299906275 L73.8833984337125 214.006091846298 L77.23118086657837 207.98453608247422 L80.47097031773865 200.75866916588564 L83.81875275060452 182.69400187441423 L87.0585422017648 207.98453608247422 L90.40632463463044 206.78022492970945 L93.7541070674963 200.75866916588564 L96.99389651865658 199.5543580131209 L100.34167895152245 203.16729147141515 L103.58146840268273 199.5543580131209 L106.9292508355486 199.5543580131209 L110.27703326841424 200.75866916588564 L113.30083675616402 198.35004686035614 L116.64861918902966 192.32849109653233 L119.88840864018994 195.9414245548266 L123.2361910730558 176.6724461105904 L126.47598052421608 191.12417994376756 L129.82376295708195 193.53280224929708 L133.1715453899476 192.32849109653233 L136.41133484110787 189.91986879100278 L139.75911727397374 191.12417994376756 L142.99890672513402 189.91986879100278 L146.3466891579999 187.51124648547327 L149.69447159086553 192.32849109653233 L152.82626806032067 192.32849109653233 L156.17405049318631 200.75866916588564 L159.4138399443466 195.9414245548266 L162.76162237721246 182.69400187441423 L166.00141182837274 207.98453608247422 L169.3491942612386 204.37160262417993 L172.69697669410425 199.5543580131209 L175.93676614526453 200.75866916588564 L179.2845485781304 198.35004686035614 L182.52433802929067 200.75866916588564 L185.87212046215654 201.9629803186504 L189.2199028950222 204.37160262417993 L192.24370638277196 203.16729147141515 L195.5914888156376 206.78022492970945 L198.83127826679788 205.57591377694467 L202.17906069966375 206.78022492970945 L205.41885015082403 209.18884723523894 L208.7666325836899 204.37160262417993 L212.11441501655554 214.006091846298 L215.35420446771582 211.5974695407685 L218.7019869005817 212.80178069353326 L221.94177635174196 210.39315838800374 L225.28955878460783 211.5974695407685 L228.63734121747348 205.57591377694467 L231.66114470522325 210.39315838800374 L235.0089271380889 214.006091846298 L238.24871658924917 212.80178069353326 L241.59649902211504 227.25351452671038 L244.83628847327532 218.82333645735707 L248.1840709061412 214.006091846298 L251.53185333900683 218.82333645735707 L254.7716427901671 220.02764761012182 L258.119425223033 215.21040299906275 L261.35921467419325 224.84489222118088 L264.7069971070591 215.21040299906275 L268.05477953992477 212.80178069353326 L271.07858302767454 205.57591377694467 L274.4263654605402 211.5974695407685 L277.6661549117007 216.41471415182752 L281.01393734456633 222.43626991565134 L284.2537267957266 210.39315838800374 L287.6015092285925 209.18884723523894 L290.9492916614581 210.39315838800374 L294.1890811126186 214.006091846298 L297.53686354548427 211.5974695407685 L300.77665299664454 214.006091846298 L304.1244354295104 206.78022492970945 L307.47221786237606 210.39315838800374 L310.6040143318312 210.39315838800374 L313.95179676469684 201.9629803186504 L317.19158621585734 220.02764761012182 L320.539368648723 206.78022492970945 L323.77915809988326 198.35004686035614 L327.12694053274913 198.35004686035614 L330.4747229656148 192.32849109653233 L333.7145124167753 189.91986879100278 L337.0622948496409 197.14573570759134 L340.3020843008012 188.715557638238 L343.64986673366707 186.30693533270852 L346.9976491665327 174.2638238050609 L350.0214526542825 167.0379568884723 L353.3692350871481 157.40346766635423 L356.60902453830863 144.15604498594186 L359.9568069711743 108.02671040299904 L363.19659642233455 122.47844423617616 L366.5443788552004 118.86551077788187 L369.89216128806606 100.80084348641046 L373.13195073922657 87.55342080599809 L376.4797331720922 76.71462043111524 L379.7195226232525 73.10168697282094 L383.06730505611836 74.30599812558572 L386.415087488984 75.51030927835049 L389.4388909767338 69.48875351452668 L392.7866734095994 49.01546391752572 L396.0264628607599 46.606841611996174 L399.37424529362556 11.68181818181813 L402.61403474478584 46.606841611996174 L405.9618171776517 62.26288659793809 L409.30959961051735 70.69306466729142 L412.54938906167786 59.85426429240857 L415.8971714945435 62.26288659793809 L419.136960945704 51.42408622305527 L422.48474337856965 56.24133083411431 L425.8325258114353 61.05857544517332 L428.85632929918506 56.24133083411431 L432.2041117320507 63.467197750702866 L435.4439011832112 55.037019681349534 L438.79168361607685 45.40253045923146 L442.03147306723736 50.219775070290495 L445.379255500103 45.40253045923146 L448.72703793296864 50.219775070290495 L451.96682738412915 67.08013120899713 L455.3146098169948 64.67150890346761 L458.5543992681553 68.2844423617619 L461.90218170102094 64.67150890346761 L465.2499641338866 77.91893158388001 L468.3817606033417 83.94048734770382 L471.72954303620736 85.14479850046854 L474.96933248736786 75.51030927835049 L478.3171149202335 69.48875351452668 L481.556904371394 104.41377694470475 L484.90468680425965 93.5749765698219 L488.2524692371253 88.75773195876283 L491.4922586882858 75.51030927835049 L494.84004112115144 91.16635426429235 L498.07983057231195 102.00515463917523 L501.4276130051776 124.88706654170568 L504.77539543804323 108.02671040299904 L507.799198925793 103.20946579193995 L511.14698135865865 109.23102155576376 L514.3867708098192 109.23102155576376 L517.7345532426848 110.43533270852853 L520.9743426938453 120.06982193064664 L524.322125126711 116.45688847235235 L527.6699075595766 116.45688847235235 L530.9096970107371 118.86551077788187 L534.2574794436027 109.23102155576376 L537.4972688947632 106.82239925023424 L540.8450513276289 129.70431115276472 L544.1928337604945 123.6827553889409 L547.2166372482443 124.88706654170568 L550.5644196811099 126.09137769447045 L553.8042091322704 139.33880037488282 L557.1519915651361 148.9732895970009 L560.3917810162966 157.40346766635423 L563.7395634491622 159.81208997188375 L567.0873458820279 153.79053420805994 L570.3271353331884 151.38191190253045 L573.674917766054 158.607778819119 L576.9147072172145 159.81208997188375 L580.2624896500802 156.1991565135895 L583.6102720829458 159.81208997188375 L586.6340755706956 170.6508903467666 L589.9818580035612 176.6724461105904 " fill="none" stroke-width="1.6500000000000001" stroke="rgb(187,187,187)" stroke-opacity="1.0">
          </path>
        </g>
      </g>
    </g>
    <g transform="translate(14.5 138.5 ) rotate(-90.0 ) ">
      <text class="axis-title-y" y="0.0" text-anchor="middle">
        <tspan>unemployment rate</tspan>
      </text>
    </g>
    <g transform="translate(385.9618839028965 304.5 ) ">
      <text class="axis-title-x" y="0.0" text-anchor="middle">
        <tspan>date</tspan>
      </text>
    </g>
    <path fill="rgb(0,0,0)" fill-opacity="0.0" stroke="rgb(187,187,187)" stroke-opacity="1.0" stroke-width="0.0" d="M0.0 0.0 L0.0 313.0 L705.0 313.0 L705.0 0.0 Z">
    </path>
  </g>
  <g id="xXxprefixXx2">
  </g>
</svg>