<svg xmlns="http://www.w3.org/2000/svg" xmlns:xlink="http://www.w3.org/1999/xlink" display="block" class="plt-container" width="705.0" height="470.0">
  <style type="text/css">
  .plt-container {
   font-family: Lucida Grande, sans-serif;
   user-select: none;
   -webkit-user-select: none;
   -moz-user-select: none;
   -ms-user-select: none;
}
text {
   text-rendering: optimizeLegibility;
}
#xXxprefixXx0 .plot-title {
   fill: #bbbbbb;
   font-family: Lucida Grande, sans-serif;
   font-size: 16.0px;
   font-weight: normal;
   font-style: normal;   
}
#xXxprefixXx0 .plot-subtitle {
   fill: #bbbbbb;
   font-family: Lucida Grande, sans-serif;
   font-size: 15.0px;
   font-weight: normal;
   font-style: normal;   
}
#xXxprefixXx0 .plot-caption {
   fill: #bbbbbb;
   font-family: Lucida Grande, sans-serif;
   font-size: 13.0px;
   font-weight: normal;
   font-style: normal;   
}
#xXxprefixXx0 .legend-title {
   fill: #bbbbbb;
   font-family: Lucida Grande, sans-serif;
   font-size: 15.0px;
   font-weight: normal;
   font-style: normal;   
}
#xXxprefixXx0 .legend-item {
   fill: #bbbbbb;
   font-family: Lucida Grande, sans-serif;
   font-size: 13.0px;
   font-weight: normal;
   font-style: normal;   
}
#xXxprefixXx0 .axis-title-x {
   fill: #bbbbbb;
   font-family: Lucida Grande, sans-serif;
   font-size: 15.0px;
   font-weight: normal;
   font-style: normal;   
}
#xXxprefixXx0 .axis-text-x {
   fill: #bbbbbb;
   font-family: Lucida Grande, sans-serif;
   font-size: 13.0px;
   font-weight: normal;
   font-style: normal;   
}
#xXxprefixXx2 .axis-tooltip-text-x {
   fill: #303030;
   font-family: Lucida Grande, sans-serif;
   font-size: 13.0px;
   font-weight: normal;
   font-style: normal;   
}
#xXxprefixXx0 .axis-title-y {
   fill: #bbbbbb;
   font-family: Lucida Grande, sans-serif;
   font-size: 15.0px;
   font-weight: normal;
   font-style: normal;   
}
#xXxprefixXx0 .axis-text-y {
   fill: #bbbbbb;
   font-family: Lucida Grande, sans-serif;
   font-size: 13.0px;
   font-weight: normal;
   font-style: normal;   
}
#xXxprefixXx2 .axis-tooltip-text-y {
   fill: #303030;
   font-family: Lucida Grande, sans-serif;
   font-size: 13.0px;
   font-weight: normal;
   font-style: normal;   
}
#xXxprefixXx0 .facet-strip-text-x {
   fill: #bbbbbb;
   font-family: Lucida Grande, sans-serif;
   font-size: 13.0px;
   font-weight: normal;
   font-style: normal;   
}
#xXxprefixXx0 .facet-strip-text-y {
   fill: #bbbbbb;
   font-family: Lucida Grande, sans-serif;
   font-size: 13.0px;
   font-weight: normal;
   font-style: normal;   
}
#xXxprefixXx2 .tooltip-text {
   fill: #bbbbbb;
   font-family: Lucida Grande, sans-serif;
   font-size: 13.0px;
   font-weight: normal;
   font-style: normal;   
}
#xXxprefixXx2 .tooltip-title {
   fill: #bbbbbb;
   font-family: Lucida Grande, sans-serif;
   font-size: 13.0px;
   font-weight: bold;
   font-style: normal;   
}
#xXxprefixXx2 .tooltip-label {
   fill: #bbbbbb;
   font-family: Lucida Grande, sans-serif;
   font-size: 13.0px;
   font-weight: bold;
   font-style: normal;   
}

  </style>
  <g id="xXxprefixXx0">
    <path fill-rule="evenodd" fill="rgb(25,25,28)" fill-opacity="1.0" d="M0.0 0.0 L0.0 470.0 L705.0 470.0 L705.0 0.0 Z">
    </path>
    <g transform="translate(29.5 6.5 ) ">
      <g>
        <g transform="translate(21.961210910936405 0.0 ) ">
          <g>
            <line x1="18.517945142279586" y1="0.0" x2="18.517945142279586" y2="300.6666666666667" stroke="rgb(71,71,71)" stroke-opacity="1.0" stroke-width="1.0" fill="none">
            </line>
            <line x1="72.98248967839606" y1="0.0" x2="72.98248967839606" y2="300.6666666666667" stroke="rgb(71,71,71)" stroke-opacity="1.0" stroke-width="1.0" fill="none">
            </line>
            <line x1="127.44703421451251" y1="0.0" x2="127.44703421451251" y2="300.6666666666667" stroke="rgb(71,71,71)" stroke-opacity="1.0" stroke-width="1.0" fill="none">
            </line>
            <line x1="181.911578750629" y1="0.0" x2="181.911578750629" y2="300.6666666666667" stroke="rgb(71,71,71)" stroke-opacity="1.0" stroke-width="1.0" fill="none">
            </line>
            <line x1="236.37612328674547" y1="0.0" x2="236.37612328674547" y2="300.6666666666667" stroke="rgb(71,71,71)" stroke-opacity="1.0" stroke-width="1.0" fill="none">
            </line>
            <line x1="290.840667822862" y1="0.0" x2="290.840667822862" y2="300.6666666666667" stroke="rgb(71,71,71)" stroke-opacity="1.0" stroke-width="1.0" fill="none">
            </line>
            <line x1="345.30521235897845" y1="0.0" x2="345.30521235897845" y2="300.6666666666667" stroke="rgb(71,71,71)" stroke-opacity="1.0" stroke-width="1.0" fill="none">
            </line>
            <line x1="399.7697568950948" y1="0.0" x2="399.7697568950948" y2="300.6666666666667" stroke="rgb(71,71,71)" stroke-opacity="1.0" stroke-width="1.0" fill="none">
            </line>
            <line x1="454.2343014312113" y1="0.0" x2="454.2343014312113" y2="300.6666666666667" stroke="rgb(71,71,71)" stroke-opacity="1.0" stroke-width="1.0" fill="none">
            </line>
            <line x1="508.69884596732777" y1="0.0" x2="508.69884596732777" y2="300.6666666666667" stroke="rgb(71,71,71)" stroke-opacity="1.0" stroke-width="1.0" fill="none">
            </line>
            <line x1="563.1633905034442" y1="0.0" x2="563.1633905034442" y2="300.6666666666667" stroke="rgb(71,71,71)" stroke-opacity="1.0" stroke-width="1.0" fill="none">
            </line>
            <line x1="617.6279350395607" y1="0.0" x2="617.6279350395607" y2="300.6666666666667" stroke="rgb(71,71,71)" stroke-opacity="1.0" stroke-width="1.0" fill="none">
            </line>
          </g>
        </g>
        <g transform="translate(21.961210910936405 0.0 ) ">
          <g>
            <line x1="0.0" y1="261.375" x2="647.0387890890636" y2="261.375" stroke="rgb(71,71,71)" stroke-opacity="1.0" stroke-width="1.0" fill="none">
            </line>
            <line x1="0.0" y1="218.66666666666669" x2="647.0387890890636" y2="218.66666666666669" stroke="rgb(71,71,71)" stroke-opacity="1.0" stroke-width="1.0" fill="none">
            </line>
            <line x1="0.0" y1="175.95833333333334" x2="647.0387890890636" y2="175.95833333333334" stroke="rgb(71,71,71)" stroke-opacity="1.0" stroke-width="1.0" fill="none">
            </line>
            <line x1="0.0" y1="133.25" x2="647.0387890890636" y2="133.25" stroke="rgb(71,71,71)" stroke-opacity="1.0" stroke-width="1.0" fill="none">
            </line>
            <line x1="0.0" y1="90.54166666666669" x2="647.0387890890636" y2="90.54166666666669" stroke="rgb(71,71,71)" stroke-opacity="1.0" stroke-width="1.0" fill="none">
            </line>
            <line x1="0.0" y1="47.83333333333337" x2="647.0387890890636" y2="47.83333333333337" stroke="rgb(71,71,71)" stroke-opacity="1.0" stroke-width="1.0" fill="none">
            </line>
            <line x1="0.0" y1="5.125" x2="647.0387890890636" y2="5.125" stroke="rgb(71,71,71)" stroke-opacity="1.0" stroke-width="1.0" fill="none">
            </line>
          </g>
        </g>
        <g transform="translate(21.961210910936405 300.6666666666667 ) ">
          <g transform="translate(18.517945142279586 0.0 ) ">
            <line stroke-width="1.0" stroke="rgb(187,187,187)" stroke-opacity="1.0" x2="0.0" y2="4.0">
            </line>
            <g transform="translate(0.0 7.0 ) ">
              <text class="axis-text-x" text-anchor="middle" dy="0.7em">
                <tspan>1.5</tspan>
              </text>
            </g>
          </g>
          <g transform="translate(72.98248967839606 0.0 ) ">
            <line stroke-width="1.0" stroke="rgb(187,187,187)" stroke-opacity="1.0" x2="0.0" y2="4.0">
            </line>
            <g transform="translate(0.0 7.0 ) ">
              <text class="axis-text-x" text-anchor="middle" dy="0.7em">
                <tspan>2.0</tspan>
              </text>
            </g>
          </g>
          <g transform="translate(127.44703421451251 0.0 ) ">
            <line stroke-width="1.0" stroke="rgb(187,187,187)" stroke-opacity="1.0" x2="0.0" y2="4.0">
            </line>
            <g transform="translate(0.0 7.0 ) ">
              <text class="axis-text-x" text-anchor="middle" dy="0.7em">
                <tspan>2.5</tspan>
              </text>
            </g>
          </g>
          <g transform="translate(181.911578750629 0.0 ) ">
            <line stroke-width="1.0" stroke="rgb(187,187,187)" stroke-opacity="1.0" x2="0.0" y2="4.0">
            </line>
            <g transform="translate(0.0 7.0 ) ">
              <text class="axis-text-x" text-anchor="middle" dy="0.7em">
                <tspan>3.0</tspan>
              </text>
            </g>
          </g>
          <g transform="translate(236.37612328674547 0.0 ) ">
            <line stroke-width="1.0" stroke="rgb(187,187,187)" stroke-opacity="1.0" x2="0.0" y2="4.0">
            </line>
            <g transform="translate(0.0 7.0 ) ">
              <text class="axis-text-x" text-anchor="middle" dy="0.7em">
                <tspan>3.5</tspan>
              </text>
            </g>
          </g>
          <g transform="translate(290.840667822862 0.0 ) ">
            <line stroke-width="1.0" stroke="rgb(187,187,187)" stroke-opacity="1.0" x2="0.0" y2="4.0">
            </line>
            <g transform="translate(0.0 7.0 ) ">
              <text class="axis-text-x" text-anchor="middle" dy="0.7em">
                <tspan>4.0</tspan>
              </text>
            </g>
          </g>
          <g transform="translate(345.30521235897845 0.0 ) ">
            <line stroke-width="1.0" stroke="rgb(187,187,187)" stroke-opacity="1.0" x2="0.0" y2="4.0">
            </line>
            <g transform="translate(0.0 7.0 ) ">
              <text class="axis-text-x" text-anchor="middle" dy="0.7em">
                <tspan>4.5</tspan>
              </text>
            </g>
          </g>
          <g transform="translate(399.7697568950948 0.0 ) ">
            <line stroke-width="1.0" stroke="rgb(187,187,187)" stroke-opacity="1.0" x2="0.0" y2="4.0">
            </line>
            <g transform="translate(0.0 7.0 ) ">
              <text class="axis-text-x" text-anchor="middle" dy="0.7em">
                <tspan>5.0</tspan>
              </text>
            </g>
          </g>
          <g transform="translate(454.2343014312113 0.0 ) ">
            <line stroke-width="1.0" stroke="rgb(187,187,187)" stroke-opacity="1.0" x2="0.0" y2="4.0">
            </line>
            <g transform="translate(0.0 7.0 ) ">
              <text class="axis-text-x" text-anchor="middle" dy="0.7em">
                <tspan>5.5</tspan>
              </text>
            </g>
          </g>
          <g transform="translate(508.69884596732777 0.0 ) ">
            <line stroke-width="1.0" stroke="rgb(187,187,187)" stroke-opacity="1.0" x2="0.0" y2="4.0">
            </line>
            <g transform="translate(0.0 7.0 ) ">
              <text class="axis-text-x" text-anchor="middle" dy="0.7em">
                <tspan>6.0</tspan>
              </text>
            </g>
          </g>
          <g transform="translate(563.1633905034442 0.0 ) ">
            <line stroke-width="1.0" stroke="rgb(187,187,187)" stroke-opacity="1.0" x2="0.0" y2="4.0">
            </line>
            <g transform="translate(0.0 7.0 ) ">
              <text class="axis-text-x" text-anchor="middle" dy="0.7em">
                <tspan>6.5</tspan>
              </text>
            </g>
          </g>
          <g transform="translate(617.6279350395607 0.0 ) ">
            <line stroke-width="1.0" stroke="rgb(187,187,187)" stroke-opacity="1.0" x2="0.0" y2="4.0">
            </line>
            <g transform="translate(0.0 7.0 ) ">
              <text class="axis-text-x" text-anchor="middle" dy="0.7em">
                <tspan>7.0</tspan>
              </text>
            </g>
          </g>
          <line x1="0.0" y1="0.0" x2="647.0387890890636" y2="0.0" stroke-width="1.0" stroke="rgb(187,187,187)" stroke-opacity="1.0">
          </line>
        </g>
        <g transform="translate(21.961210910936405 0.0 ) ">
          <g transform="translate(0.0 261.375 ) ">
            <g transform="translate(-3.0 0.0 ) ">
              <text class="axis-text-y" text-anchor="end" dy="0.35em">
                <tspan>15</tspan>
              </text>
            </g>
          </g>
          <g transform="translate(0.0 218.66666666666669 ) ">
            <g transform="translate(-3.0 0.0 ) ">
              <text class="axis-text-y" text-anchor="end" dy="0.35em">
                <tspan>20</tspan>
              </text>
            </g>
          </g>
          <g transform="translate(0.0 175.95833333333334 ) ">
            <g transform="translate(-3.0 0.0 ) ">
              <text class="axis-text-y" text-anchor="end" dy="0.35em">
                <tspan>25</tspan>
              </text>
            </g>
          </g>
          <g transform="translate(0.0 133.25 ) ">
            <g transform="translate(-3.0 0.0 ) ">
              <text class="axis-text-y" text-anchor="end" dy="0.35em">
                <tspan>30</tspan>
              </text>
            </g>
          </g>
          <g transform="translate(0.0 90.54166666666669 ) ">
            <g transform="translate(-3.0 0.0 ) ">
              <text class="axis-text-y" text-anchor="end" dy="0.35em">
                <tspan>35</tspan>
              </text>
            </g>
          </g>
          <g transform="translate(0.0 47.83333333333337 ) ">
            <g transform="translate(-3.0 0.0 ) ">
              <text class="axis-text-y" text-anchor="end" dy="0.35em">
                <tspan>40</tspan>
              </text>
            </g>
          </g>
          <g transform="translate(0.0 5.125 ) ">
            <g transform="translate(-3.0 0.0 ) ">
              <text class="axis-text-y" text-anchor="end" dy="0.35em">
                <tspan>45</tspan>
              </text>
            </g>
          </g>
        </g>
      </g>
      <g clip-path="url(#xXxprefixXx1)" clip-bounds-jfx="[rect (21.961210910936405, 0.0), (647.0387890890636, 300.6666666666667)]">
        <g transform="translate(21.961210910936405 0.0 ) ">
          <g>
            <g>
              <g>
                <g >
                  <circle fill="#29567d" stroke="#29567d" stroke-opacity="0.0" stroke-width="0.0" cx="51.19667186394949" cy="141.79166666666669" r="4.4" />
                  <circle fill="#306591" stroke="#306591" stroke-opacity="0.0" stroke-width="0.0" cx="51.19667186394949" cy="141.79166666666669" r="4.4" />
                  <circle fill="#2e608a" stroke="#2e608a" stroke-opacity="0.0" stroke-width="0.0" cx="72.98248967839606" cy="124.70833333333337" r="4.4" />
                  <circle fill="#306591" stroke="#306591" stroke-opacity="0.0" stroke-width="0.0" cx="72.98248967839606" cy="133.25" r="4.4" />
                  <circle fill="#244c6f" stroke="#244c6f" stroke-opacity="0.0" stroke-width="0.0" cx="160.1257609361824" cy="167.41666666666669" r="4.4" />
                  <circle fill="#29567d" stroke="#29567d" stroke-opacity="0.0" stroke-width="0.0" cx="160.1257609361824" cy="167.41666666666669" r="4.4" />
                  <circle fill="#29567d" stroke="#29567d" stroke-opacity="0.0" stroke-width="0.0" cx="192.80448765785232" cy="158.87500000000003" r="4.4" />
                  <path fill="#29567d" stroke="#29567d" stroke-opacity="0.0" stroke-width="0.0" d="M51.19667186394949 163.60615489001515 L51.19667186394949 163.60615489001515 L55.596671863949496 171.22717844331822 L46.79667186394949 171.22717844331822 Z" transform="rotate(0.0 51.19667186394949 167.41666666666669 ) " />
                  <path fill="#244c6f" stroke="#244c6f" stroke-opacity="0.0" stroke-width="0.0" d="M51.19667186394949 172.1478215566818 L51.19667186394949 172.1478215566818 L55.596671863949496 179.76884510998488 L46.79667186394949 179.76884510998488 Z" transform="rotate(0.0 51.19667186394949 175.95833333333334 ) " />
                  <path fill="#2e608a" stroke="#2e608a" stroke-opacity="0.0" stroke-width="0.0" d="M72.98248967839606 146.5228215566818 L72.98248967839606 146.5228215566818 L77.38248967839606 154.14384510998488 L68.58248967839606 154.14384510998488 Z" transform="rotate(0.0 72.98248967839606 150.33333333333334 ) " />
                  <path fill="#2b5b83" stroke="#2b5b83" stroke-opacity="0.0" stroke-width="0.0" d="M72.98248967839606 155.0644882233485 L72.98248967839606 155.0644882233485 L77.38248967839606 162.68551177665157 L68.58248967839606 162.68551177665157 Z" transform="rotate(0.0 72.98248967839606 158.87500000000003 ) " />
                  <path fill="#214769" stroke="#214769" stroke-opacity="0.0" stroke-width="0.0" d="M160.1257609361824 172.1478215566818 L160.1257609361824 172.1478215566818 L164.5257609361824 179.76884510998488 L155.72576093618238 179.76884510998488 Z" transform="rotate(0.0 160.1257609361824 175.95833333333334 ) " />
                  <path fill="#265176" stroke="#265176" stroke-opacity="0.0" stroke-width="0.0" d="M160.1257609361824 172.1478215566818 L160.1257609361824 172.1478215566818 L164.5257609361824 179.76884510998488 L155.72576093618238 179.76884510998488 Z" transform="rotate(0.0 160.1257609361824 175.95833333333334 ) " />
                  <path fill="#265176" stroke="#265176" stroke-opacity="0.0" stroke-width="0.0" d="M192.80448765785232 172.1478215566818 L192.80448765785232 172.1478215566818 L197.20448765785233 179.76884510998488 L188.40448765785231 179.76884510998488 Z" transform="rotate(0.0 192.80448765785232 175.95833333333334 ) " />
                  <path fill="#214769" stroke="#214769" stroke-opacity="0.0" stroke-width="0.0" d="M192.80448765785232 172.1478215566818 L192.80448765785232 172.1478215566818 L197.20448765785233 179.76884510998488 L188.40448765785231 179.76884510998488 Z" transform="rotate(0.0 192.80448765785232 175.95833333333334 ) " />
                  <path fill="#214769" stroke="#214769" stroke-opacity="0.0" stroke-width="0.0" d="M160.1257609361824 180.68948822334846 L160.1257609361824 180.68948822334846 L164.5257609361824 188.31051177665154 L155.72576093618238 188.31051177665154 Z" transform="rotate(0.0 160.1257609361824 184.5 ) " />
                  <path fill="#265176" stroke="#265176" stroke-opacity="0.0" stroke-width="0.0" d="M192.80448765785232 172.1478215566818 L192.80448765785232 172.1478215566818 L197.20448765785233 179.76884510998488 L188.40448765785231 179.76884510998488 Z" transform="rotate(0.0 192.80448765785232 175.95833333333334 ) " />
                  <path fill="#244c6f" stroke="#244c6f" stroke-opacity="0.0" stroke-width="0.0" d="M312.6264856373085 189.23115489001515 L312.6264856373085 189.23115489001515 L317.02648563730855 196.85217844331822 L308.22648563730854 196.85217844331822 Z" transform="rotate(0.0 312.6264856373085 193.04166666666669 ) " />
                  <rect fill="#1f4262" stroke="#1f4262" stroke-opacity="0.0" stroke-width="0.0" x="428.04848361676477" y="214.26666666666668" height="8.8" width="8.8" transform="rotate(0.0 432.44848361676475 218.66666666666669 ) " />
                  <rect fill="#18344f" stroke="#18344f" stroke-opacity="0.0" stroke-width="0.0" x="428.04848361676477" y="256.975" height="8.8" width="8.8" transform="rotate(0.0 432.44848361676475 261.375 ) " />
                  <rect fill="#1f4262" stroke="#1f4262" stroke-opacity="0.0" stroke-width="0.0" x="428.04848361676477" y="214.26666666666668" height="8.8" width="8.8" transform="rotate(0.0 432.44848361676475 218.66666666666669 ) " />
                  <rect fill="#1c3d5c" stroke="#1c3d5c" stroke-opacity="0.0" stroke-width="0.0" x="471.620119245658" y="239.89166666666668" height="8.8" width="8.8" transform="rotate(0.0 476.02011924565795 244.29166666666669 ) " />
                  <rect fill="#1a3955" stroke="#1a3955" stroke-opacity="0.0" stroke-width="0.0" x="504.2988459673278" y="239.89166666666668" height="8.8" width="8.8" transform="rotate(0.0 508.69884596732777 244.29166666666669 ) " />
                  <rect fill="#244c6f" stroke="#244c6f" stroke-opacity="0.0" stroke-width="0.0" x="471.620119245658" y="163.01666666666668" height="8.8" width="8.8" transform="rotate(0.0 476.02011924565795 167.41666666666669 ) " />
                  <rect fill="#214769" stroke="#214769" stroke-opacity="0.0" stroke-width="0.0" x="471.620119245658" y="188.64166666666668" height="8.8" width="8.8" transform="rotate(0.0 476.02011924565795 193.04166666666669 ) " />
                  <rect fill="#244c6f" stroke="#244c6f" stroke-opacity="0.0" stroke-width="0.0" x="526.0846637817745" y="163.01666666666668" height="8.8" width="8.8" transform="rotate(0.0 530.4846637817744 167.41666666666669 ) " />
                  <rect fill="#214769" stroke="#214769" stroke-opacity="0.0" stroke-width="0.0" x="526.0846637817745" y="171.55833333333334" height="8.8" width="8.8" transform="rotate(0.0 530.4846637817744 175.95833333333334 ) " />
                  <rect fill="#214769" stroke="#214769" stroke-opacity="0.0" stroke-width="0.0" x="613.2279350395607" y="180.1" height="8.8" width="8.8" transform="rotate(0.0 617.6279350395607 184.5 ) " />
                  <path fill="#1f4262" stroke="#1f4262" stroke-opacity="0.0" stroke-width="0.0" d="M432.44848361676475 223.3978215566818 L432.44848361676475 223.3978215566818 L436.8484836167648 231.01884510998488 L428.04848361676477 231.01884510998488 Z" transform="rotate(0.0 432.44848361676475 227.20833333333334 ) " />
                  <path fill="#18344f" stroke="#18344f" stroke-opacity="0.0" stroke-width="0.0" d="M432.44848361676475 266.1061548900152 L432.44848361676475 266.1061548900152 L436.8484836167648 273.7271784433182 L428.04848361676477 273.7271784433182 Z" transform="rotate(0.0 432.44848361676475 269.9166666666667 ) " />
                  <path fill="#18344f" stroke="#18344f" stroke-opacity="0.0" stroke-width="0.0" d="M476.02011924565795 257.5644882233485 L476.02011924565795 257.5644882233485 L480.420119245658 265.18551177665154 L471.620119245658 265.18551177665154 Z" transform="rotate(0.0 476.02011924565795 261.375 ) " />
                  <path fill="#1f4262" stroke="#1f4262" stroke-opacity="0.0" stroke-width="0.0" d="M563.1633905034442 240.48115489001515 L563.1633905034442 240.48115489001515 L567.5633905034442 248.10217844331822 L558.7633905034443 248.10217844331822 Z" transform="rotate(0.0 563.1633905034442 244.29166666666669 ) " />
                  <circle fill="#2b5b83" stroke="#2b5b83" stroke-opacity="0.0" stroke-width="0.0" cx="116.55412530728924" cy="158.87500000000003" r="4.4" />
                  <circle fill="#336a98" stroke="#336a98" stroke-opacity="0.0" stroke-width="0.0" cx="116.55412530728924" cy="133.25" r="4.4" />
                  <circle fill="#29567d" stroke="#29567d" stroke-opacity="0.0" stroke-width="0.0" cx="192.80448765785232" cy="167.41666666666669" r="4.4" />
                  <circle fill="#29567d" stroke="#29567d" stroke-opacity="0.0" stroke-width="0.0" cx="236.37612328674547" cy="141.79166666666669" r="4.4" />
                  <circle fill="#265176" stroke="#265176" stroke-opacity="0.0" stroke-width="0.0" cx="247.2690321939688" cy="167.41666666666669" r="4.4" />
                  <circle fill="#29567d" stroke="#29567d" stroke-opacity="0.0" stroke-width="0.0" cx="116.55412530728924" cy="184.5" r="4.4" />
                  <circle fill="#265176" stroke="#265176" stroke-opacity="0.0" stroke-width="0.0" cx="181.911578750629" cy="184.5" r="4.4" />
                  <circle fill="#244c6f" stroke="#244c6f" stroke-opacity="0.0" stroke-width="0.0" cx="214.59030547229887" cy="201.58333333333334" r="4.4" />
                  <circle fill="#244c6f" stroke="#244c6f" stroke-opacity="0.0" stroke-width="0.0" cx="214.59030547229887" cy="201.58333333333334" r="4.4" />
                  <circle fill="#265176" stroke="#265176" stroke-opacity="0.0" stroke-width="0.0" cx="214.59030547229887" cy="184.5" r="4.4" />
                  <circle fill="#265176" stroke="#265176" stroke-opacity="0.0" stroke-width="0.0" cx="214.59030547229887" cy="184.5" r="4.4" />
                  <circle fill="#18344f" stroke="#18344f" stroke-opacity="0.0" stroke-width="0.0" cx="214.59030547229887" cy="244.29166666666669" r="4.4" />
                  <circle fill="#214769" stroke="#214769" stroke-opacity="0.0" stroke-width="0.0" cx="269.0548500084153" cy="201.58333333333334" r="4.4" />
                  <circle fill="#214769" stroke="#214769" stroke-opacity="0.0" stroke-width="0.0" cx="269.0548500084153" cy="210.125" r="4.4" />
                  <circle fill="#244c6f" stroke="#244c6f" stroke-opacity="0.0" stroke-width="0.0" cx="269.0548500084153" cy="193.04166666666669" r="4.4" />
                  <circle fill="#244c6f" stroke="#244c6f" stroke-opacity="0.0" stroke-width="0.0" cx="290.840667822862" cy="193.04166666666669" r="4.4" />
                  <path fill="#214769" stroke="#214769" stroke-opacity="0.0" stroke-width="0.0" d="M258.16194110119204 223.3978215566818 L258.16194110119204 223.3978215566818 L262.561941101192 231.01884510998488 L253.76194110119204 231.01884510998488 Z" transform="rotate(0.0 258.16194110119204 227.20833333333334 ) " />
                  <path fill="#1f4262" stroke="#1f4262" stroke-opacity="0.0" stroke-width="0.0" d="M258.16194110119204 231.93948822334846 L258.16194110119204 231.93948822334846 L262.561941101192 239.56051177665154 L253.76194110119204 239.56051177665154 Z" transform="rotate(0.0 258.16194110119204 235.75 ) " />
                  <path fill="#1c3d5c" stroke="#1c3d5c" stroke-opacity="0.0" stroke-width="0.0" d="M279.9477589156386 240.48115489001515 L279.9477589156386 240.48115489001515 L284.3477589156386 248.10217844331822 L275.5477589156386 248.10217844331822 Z" transform="rotate(0.0 279.9477589156386 244.29166666666669 ) " />
                  <path fill="#1f4262" stroke="#1f4262" stroke-opacity="0.0" stroke-width="0.0" d="M279.9477589156386 240.48115489001515 L279.9477589156386 240.48115489001515 L284.3477589156386 248.10217844331822 L275.5477589156386 248.10217844331822 Z" transform="rotate(0.0 279.9477589156386 244.29166666666669 ) " />
                  <path fill="#1f4262" stroke="#1f4262" stroke-opacity="0.0" stroke-width="0.0" d="M367.091030173425 223.3978215566818 L367.091030173425 223.3978215566818 L371.49103017342503 231.01884510998488 L362.691030173425 231.01884510998488 Z" transform="rotate(0.0 367.091030173425 227.20833333333334 ) " />
                  <path fill="#1f4262" stroke="#1f4262" stroke-opacity="0.0" stroke-width="0.0" d="M367.091030173425 223.3978215566818 L367.091030173425 223.3978215566818 L371.49103017342503 231.01884510998488 L362.691030173425 231.01884510998488 Z" transform="rotate(0.0 367.091030173425 227.20833333333334 ) " />
                  <path fill="#132b43" stroke="#132b43" stroke-opacity="0.0" stroke-width="0.0" d="M367.091030173425 283.1894882233485 L367.091030173425 283.1894882233485 L371.49103017342503 290.81051177665154 L362.691030173425 290.81051177665154 Z" transform="rotate(0.0 367.091030173425 287.0 ) " />
                  <path fill="#18344f" stroke="#18344f" stroke-opacity="0.0" stroke-width="0.0" d="M421.5555747095415 240.48115489001515 L421.5555747095415 240.48115489001515 L425.9555747095415 248.10217844331822 L417.1555747095415 248.10217844331822 Z" transform="rotate(0.0 421.5555747095415 244.29166666666669 ) " />
                  <path fill="#18344f" stroke="#18344f" stroke-opacity="0.0" stroke-width="0.0" d="M421.5555747095415 257.5644882233485 L421.5555747095415 257.5644882233485 L425.9555747095415 265.18551177665154 L417.1555747095415 265.18551177665154 Z" transform="rotate(0.0 421.5555747095415 261.375 ) " />
                  <path fill="#1c3d5c" stroke="#1c3d5c" stroke-opacity="0.0" stroke-width="0.0" d="M279.9477589156386 240.48115489001515 L279.9477589156386 240.48115489001515 L284.3477589156386 248.10217844331822 L275.5477589156386 248.10217844331822 Z" transform="rotate(0.0 279.9477589156386 244.29166666666669 ) " />
                  <path fill="#1c3d5c" stroke="#1c3d5c" stroke-opacity="0.0" stroke-width="0.0" d="M367.091030173425 240.48115489001515 L367.091030173425 240.48115489001515 L371.49103017342503 248.10217844331822 L362.691030173425 248.10217844331822 Z" transform="rotate(0.0 367.091030173425 244.29166666666669 ) " />
                  <path fill="#132b43" stroke="#132b43" stroke-opacity="0.0" stroke-width="0.0" d="M367.091030173425 283.1894882233485 L367.091030173425 283.1894882233485 L371.49103017342503 290.81051177665154 L362.691030173425 290.81051177665154 Z" transform="rotate(0.0 367.091030173425 287.0 ) " />
                  <path fill="#1c3d5c" stroke="#1c3d5c" stroke-opacity="0.0" stroke-width="0.0" d="M367.091030173425 240.48115489001515 L367.091030173425 240.48115489001515 L371.49103017342503 248.10217844331822 L362.691030173425 248.10217844331822 Z" transform="rotate(0.0 367.091030173425 244.29166666666669 ) " />
                  <path fill="#18344f" stroke="#18344f" stroke-opacity="0.0" stroke-width="0.0" d="M421.5555747095415 249.0228215566818 L421.5555747095415 249.0228215566818 L425.9555747095415 256.64384510998485 L417.1555747095415 256.64384510998485 Z" transform="rotate(0.0 421.5555747095415 252.83333333333334 ) " />
                  <path fill="#1c3d5c" stroke="#1c3d5c" stroke-opacity="0.0" stroke-width="0.0" d="M476.02011924565795 231.93948822334846 L476.02011924565795 231.93948822334846 L480.420119245658 239.56051177665154 L471.620119245658 239.56051177665154 Z" transform="rotate(0.0 476.02011924565795 235.75 ) " />
                  <path fill="#18344f" stroke="#18344f" stroke-opacity="0.0" stroke-width="0.0" d="M497.8059370601045 257.5644882233485 L497.8059370601045 257.5644882233485 L502.20593706010453 265.18551177665154 L493.4059370601045 265.18551177665154 Z" transform="rotate(0.0 497.8059370601045 261.375 ) " />
                  <path fill="#1a3955" stroke="#1a3955" stroke-opacity="0.0" stroke-width="0.0" d="M367.091030173425 249.0228215566818 L367.091030173425 249.0228215566818 L371.49103017342503 256.64384510998485 L362.691030173425 256.64384510998485 Z" transform="rotate(0.0 367.091030173425 252.83333333333334 ) " />
                  <path fill="#132b43" stroke="#132b43" stroke-opacity="0.0" stroke-width="0.0" d="M367.091030173425 283.1894882233485 L367.091030173425 283.1894882233485 L371.49103017342503 290.81051177665154 L362.691030173425 290.81051177665154 Z" transform="rotate(0.0 367.091030173425 287.0 ) " />
                  <path fill="#1c3d5c" stroke="#1c3d5c" stroke-opacity="0.0" stroke-width="0.0" d="M367.091030173425 240.48115489001515 L367.091030173425 240.48115489001515 L371.49103017342503 248.10217844331822 L362.691030173425 248.10217844331822 Z" transform="rotate(0.0 367.091030173425 244.29166666666669 ) " />
                  <path fill="#1c3d5c" stroke="#1c3d5c" stroke-opacity="0.0" stroke-width="0.0" d="M367.091030173425 240.48115489001515 L367.091030173425 240.48115489001515 L371.49103017342503 248.10217844331822 L362.691030173425 248.10217844331822 Z" transform="rotate(0.0 367.091030173425 244.29166666666669 ) " />
                  <path fill="#1a3955" stroke="#1a3955" stroke-opacity="0.0" stroke-width="0.0" d="M367.091030173425 249.0228215566818 L367.091030173425 249.0228215566818 L371.49103017342503 256.64384510998485 L362.691030173425 256.64384510998485 Z" transform="rotate(0.0 367.091030173425 252.83333333333334 ) " />
                  <path fill="#132b43" stroke="#132b43" stroke-opacity="0.0" stroke-width="0.0" d="M367.091030173425 283.1894882233485 L367.091030173425 283.1894882233485 L371.49103017342503 290.81051177665154 L362.691030173425 290.81051177665154 Z" transform="rotate(0.0 367.091030173425 287.0 ) " />
                  <path fill="#18344f" stroke="#18344f" stroke-opacity="0.0" stroke-width="0.0" d="M421.5555747095415 257.5644882233485 L421.5555747095415 257.5644882233485 L425.9555747095415 265.18551177665154 L417.1555747095415 265.18551177665154 Z" transform="rotate(0.0 421.5555747095415 261.375 ) " />
                  <path fill="#18344f" stroke="#18344f" stroke-opacity="0.0" stroke-width="0.0" d="M421.5555747095415 249.0228215566818 L421.5555747095415 249.0228215566818 L425.9555747095415 256.64384510998485 L417.1555747095415 256.64384510998485 Z" transform="rotate(0.0 421.5555747095415 252.83333333333334 ) " />
                  <path fill="#1c3d5c" stroke="#1c3d5c" stroke-opacity="0.0" stroke-width="0.0" d="M476.02011924565795 240.48115489001515 L476.02011924565795 240.48115489001515 L480.420119245658 248.10217844331822 L471.620119245658 248.10217844331822 Z" transform="rotate(0.0 476.02011924565795 244.29166666666669 ) " />
                  <path fill="#18344f" stroke="#18344f" stroke-opacity="0.0" stroke-width="0.0" d="M497.8059370601045 257.5644882233485 L497.8059370601045 257.5644882233485 L502.20593706010453 265.18551177665154 L493.4059370601045 265.18551177665154 Z" transform="rotate(0.0 497.8059370601045 261.375 ) " />
                  <rect fill="#18344f" stroke="#18344f" stroke-opacity="0.0" stroke-width="0.0" x="351.79812126620175" y="239.89166666666668" height="8.8" width="8.8" transform="rotate(0.0 356.1981212662017 244.29166666666669 ) " />
                  <rect fill="#18344f" stroke="#18344f" stroke-opacity="0.0" stroke-width="0.0" x="438.94139252398804" y="239.89166666666668" height="8.8" width="8.8" transform="rotate(0.0 443.341392523988 244.29166666666669 ) " />
                  <rect fill="#1a3955" stroke="#1a3955" stroke-opacity="0.0" stroke-width="0.0" x="438.94139252398804" y="231.35" height="8.8" width="8.8" transform="rotate(0.0 443.341392523988 235.75 ) " />
                  <path fill="#1f4262" stroke="#1f4262" stroke-opacity="0.0" stroke-width="0.0" d="M290.840667822862 240.48115489001515 L290.840667822862 240.48115489001515 L295.240667822862 248.10217844331822 L286.440667822862 248.10217844331822 Z" transform="rotate(0.0 290.840667822862 244.29166666666669 ) " />
                  <path fill="#214769" stroke="#214769" stroke-opacity="0.0" stroke-width="0.0" d="M290.840667822862 223.3978215566818 L290.840667822862 223.3978215566818 L295.240667822862 231.01884510998488 L286.440667822862 231.01884510998488 Z" transform="rotate(0.0 290.840667822862 227.20833333333334 ) " />
                  <path fill="#1f4262" stroke="#1f4262" stroke-opacity="0.0" stroke-width="0.0" d="M290.840667822862 240.48115489001515 L290.840667822862 240.48115489001515 L295.240667822862 248.10217844331822 L286.440667822862 248.10217844331822 Z" transform="rotate(0.0 290.840667822862 244.29166666666669 ) " />
                  <path fill="#1c3d5c" stroke="#1c3d5c" stroke-opacity="0.0" stroke-width="0.0" d="M290.840667822862 223.3978215566818 L290.840667822862 223.3978215566818 L295.240667822862 231.01884510998488 L286.440667822862 231.01884510998488 Z" transform="rotate(0.0 290.840667822862 227.20833333333334 ) " />
                  <path fill="#1c3d5c" stroke="#1c3d5c" stroke-opacity="0.0" stroke-width="0.0" d="M356.1981212662017 223.3978215566818 L356.1981212662017 223.3978215566818 L360.59812126620176 231.01884510998488 L351.79812126620175 231.01884510998488 Z" transform="rotate(0.0 356.1981212662017 227.20833333333334 ) " />
                  <path fill="#1c3d5c" stroke="#1c3d5c" stroke-opacity="0.0" stroke-width="0.0" d="M399.7697568950948 240.48115489001515 L399.7697568950948 240.48115489001515 L404.16975689509485 248.10217844331822 L395.36975689509484 248.10217844331822 Z" transform="rotate(0.0 399.7697568950948 244.29166666666669 ) " />
                  <path fill="#1f4262" stroke="#1f4262" stroke-opacity="0.0" stroke-width="0.0" d="M312.6264856373085 240.48115489001515 L312.6264856373085 240.48115489001515 L317.02648563730855 248.10217844331822 L308.22648563730854 248.10217844331822 Z" transform="rotate(0.0 312.6264856373085 244.29166666666669 ) " />
                  <path fill="#1f4262" stroke="#1f4262" stroke-opacity="0.0" stroke-width="0.0" d="M312.6264856373085 240.48115489001515 L312.6264856373085 240.48115489001515 L317.02648563730855 248.10217844331822 L308.22648563730854 248.10217844331822 Z" transform="rotate(0.0 312.6264856373085 244.29166666666669 ) " />
                  <path fill="#1c3d5c" stroke="#1c3d5c" stroke-opacity="0.0" stroke-width="0.0" d="M356.1981212662017 249.0228215566818 L356.1981212662017 249.0228215566818 L360.59812126620176 256.64384510998485 L351.79812126620175 256.64384510998485 Z" transform="rotate(0.0 356.1981212662017 252.83333333333334 ) " />
                  <path fill="#1c3d5c" stroke="#1c3d5c" stroke-opacity="0.0" stroke-width="0.0" d="M356.1981212662017 249.0228215566818 L356.1981212662017 249.0228215566818 L360.59812126620176 256.64384510998485 L351.79812126620175 256.64384510998485 Z" transform="rotate(0.0 356.1981212662017 252.83333333333334 ) " />
                  <path fill="#1c3d5c" stroke="#1c3d5c" stroke-opacity="0.0" stroke-width="0.0" d="M356.1981212662017 240.48115489001515 L356.1981212662017 240.48115489001515 L360.59812126620176 248.10217844331822 L351.79812126620175 248.10217844331822 Z" transform="rotate(0.0 356.1981212662017 244.29166666666669 ) " />
                  <path fill="#18344f" stroke="#18344f" stroke-opacity="0.0" stroke-width="0.0" d="M443.341392523988 257.5644882233485 L443.341392523988 257.5644882233485 L447.74139252398805 265.18551177665154 L438.94139252398804 265.18551177665154 Z" transform="rotate(0.0 443.341392523988 261.375 ) " />
                  <path fill="#1c3d5c" stroke="#1c3d5c" stroke-opacity="0.0" stroke-width="0.0" d="M443.341392523988 240.48115489001515 L443.341392523988 240.48115489001515 L447.74139252398805 248.10217844331822 L438.94139252398804 248.10217844331822 Z" transform="rotate(0.0 443.341392523988 244.29166666666669 ) " />
                  <rect fill="#29567d" stroke="#29567d" stroke-opacity="0.0" stroke-width="0.0" x="264.65485000841534" y="163.01666666666668" height="8.8" width="8.8" transform="rotate(0.0 269.0548500084153 167.41666666666669 ) " />
                  <rect fill="#29567d" stroke="#29567d" stroke-opacity="0.0" stroke-width="0.0" x="264.65485000841534" y="171.55833333333334" height="8.8" width="8.8" transform="rotate(0.0 269.0548500084153 175.95833333333334 ) " />
                  <rect fill="#265176" stroke="#265176" stroke-opacity="0.0" stroke-width="0.0" x="286.440667822862" y="163.01666666666668" height="8.8" width="8.8" transform="rotate(0.0 290.840667822862 167.41666666666669 ) " />
                  <rect fill="#244c6f" stroke="#244c6f" stroke-opacity="0.0" stroke-width="0.0" x="286.440667822862" y="180.1" height="8.8" width="8.8" transform="rotate(0.0 290.840667822862 184.5 ) " />
                  <rect fill="#214769" stroke="#214769" stroke-opacity="0.0" stroke-width="0.0" x="351.79812126620175" y="205.725" height="8.8" width="8.8" transform="rotate(0.0 356.1981212662017 210.125 ) " />
                  <rect fill="#214769" stroke="#214769" stroke-opacity="0.0" stroke-width="0.0" x="351.79812126620175" y="197.18333333333334" height="8.8" width="8.8" transform="rotate(0.0 356.1981212662017 201.58333333333334 ) " />
                  <rect fill="#214769" stroke="#214769" stroke-opacity="0.0" stroke-width="0.0" x="351.79812126620175" y="188.64166666666668" height="8.8" width="8.8" transform="rotate(0.0 356.1981212662017 193.04166666666669 ) " />
                  <rect fill="#214769" stroke="#214769" stroke-opacity="0.0" stroke-width="0.0" x="351.79812126620175" y="197.18333333333334" height="8.8" width="8.8" transform="rotate(0.0 356.1981212662017 201.58333333333334 ) " />
                  <rect fill="#1f4262" stroke="#1f4262" stroke-opacity="0.0" stroke-width="0.0" x="438.94139252398804" y="214.26666666666668" height="8.8" width="8.8" transform="rotate(0.0 443.341392523988 218.66666666666669 ) " />
                  <circle fill="#438ac3" stroke="#438ac3" stroke-opacity="0.0" stroke-width="0.0" cx="29.410854049502888" cy="107.625" r="4.4" />
                  <circle fill="#3875a6" stroke="#3875a6" stroke-opacity="0.0" stroke-width="0.0" cx="29.410854049502888" cy="116.16666666666669" r="4.4" />
                  <circle fill="#3b7aad" stroke="#3b7aad" stroke-opacity="0.0" stroke-width="0.0" cx="29.410854049502888" cy="116.16666666666669" r="4.4" />
                  <circle fill="#356f9f" stroke="#356f9f" stroke-opacity="0.0" stroke-width="0.0" cx="29.410854049502888" cy="141.79166666666669" r="4.4" />
                  <circle fill="#3875a6" stroke="#3875a6" stroke-opacity="0.0" stroke-width="0.0" cx="29.410854049502888" cy="116.16666666666669" r="4.4" />
                  <circle fill="#3d7fb4" stroke="#3d7fb4" stroke-opacity="0.0" stroke-width="0.0" cx="51.19667186394949" cy="99.08333333333337" r="4.4" />
                  <circle fill="#3b7aad" stroke="#3b7aad" stroke-opacity="0.0" stroke-width="0.0" cx="51.19667186394949" cy="82.0" r="4.4" />
                  <circle fill="#3875a6" stroke="#3875a6" stroke-opacity="0.0" stroke-width="0.0" cx="51.19667186394949" cy="82.0" r="4.4" />
                  <circle fill="#306591" stroke="#306591" stroke-opacity="0.0" stroke-width="0.0" cx="72.98248967839606" cy="141.79166666666669" r="4.4" />
                  <circle fill="#29567d" stroke="#29567d" stroke-opacity="0.0" stroke-width="0.0" cx="116.55412530728924" cy="167.41666666666669" r="4.4" />
                  <circle fill="#29567d" stroke="#29567d" stroke-opacity="0.0" stroke-width="0.0" cx="116.55412530728924" cy="158.87500000000003" r="4.4" />
                  <circle fill="#306591" stroke="#306591" stroke-opacity="0.0" stroke-width="0.0" cx="116.55412530728924" cy="133.25" r="4.4" />
                  <circle fill="#306591" stroke="#306591" stroke-opacity="0.0" stroke-width="0.0" cx="116.55412530728924" cy="124.70833333333337" r="4.4" />
                  <circle fill="#29567d" stroke="#29567d" stroke-opacity="0.0" stroke-width="0.0" cx="127.44703421451251" cy="167.41666666666669" r="4.4" />
                  <circle fill="#29567d" stroke="#29567d" stroke-opacity="0.0" stroke-width="0.0" cx="127.44703421451251" cy="167.41666666666669" r="4.4" />
                  <circle fill="#2b5b83" stroke="#2b5b83" stroke-opacity="0.0" stroke-width="0.0" cx="214.59030547229887" cy="150.33333333333334" r="4.4" />
                  <circle fill="#2b5b83" stroke="#2b5b83" stroke-opacity="0.0" stroke-width="0.0" cx="72.98248967839606" cy="167.41666666666669" r="4.4" />
                  <circle fill="#2b5b83" stroke="#2b5b83" stroke-opacity="0.0" stroke-width="0.0" cx="72.98248967839606" cy="141.79166666666669" r="4.4" />
                  <circle fill="#2e608a" stroke="#2e608a" stroke-opacity="0.0" stroke-width="0.0" cx="72.98248967839606" cy="150.33333333333334" r="4.4" />
                  <circle fill="#2e608a" stroke="#2e608a" stroke-opacity="0.0" stroke-width="0.0" cx="72.98248967839606" cy="158.87500000000003" r="4.4" />
                  <circle fill="#265176" stroke="#265176" stroke-opacity="0.0" stroke-width="0.0" cx="149.23285202895912" cy="184.5" r="4.4" />
                  <circle fill="#244c6f" stroke="#244c6f" stroke-opacity="0.0" stroke-width="0.0" cx="149.23285202895912" cy="184.5" r="4.4" />
                  <circle fill="#265176" stroke="#265176" stroke-opacity="0.0" stroke-width="0.0" cx="149.23285202895912" cy="184.5" r="4.4" />
                  <path fill="#265176" stroke="#265176" stroke-opacity="0.0" stroke-width="0.0" d="M181.911578750629 197.7728215566818 L181.911578750629 197.7728215566818 L186.311578750629 205.39384510998488 L177.51157875062898 205.39384510998488 Z" transform="rotate(0.0 181.911578750629 201.58333333333334 ) " />
                  <path fill="#214769" stroke="#214769" stroke-opacity="0.0" stroke-width="0.0" d="M258.16194110119204 223.3978215566818 L258.16194110119204 223.3978215566818 L262.561941101192 231.01884510998488 L253.76194110119204 231.01884510998488 Z" transform="rotate(0.0 258.16194110119204 227.20833333333334 ) " />
                  <path fill="#214769" stroke="#214769" stroke-opacity="0.0" stroke-width="0.0" d="M290.840667822862 214.85615489001515 L290.840667822862 214.85615489001515 L295.240667822862 222.47717844331822 L286.440667822862 222.47717844331822 Z" transform="rotate(0.0 290.840667822862 218.66666666666669 ) " />
                  <path fill="#1f4262" stroke="#1f4262" stroke-opacity="0.0" stroke-width="0.0" d="M367.091030173425 240.48115489001515 L367.091030173425 240.48115489001515 L371.49103017342503 248.10217844331822 L362.691030173425 248.10217844331822 Z" transform="rotate(0.0 367.091030173425 244.29166666666669 ) " />
                  <path fill="#132b43" stroke="#132b43" stroke-opacity="0.0" stroke-width="0.0" d="M367.091030173425 283.1894882233485 L367.091030173425 283.1894882233485 L371.49103017342503 290.81051177665154 L362.691030173425 290.81051177665154 Z" transform="rotate(0.0 367.091030173425 287.0 ) " />
                  <path fill="#1f4262" stroke="#1f4262" stroke-opacity="0.0" stroke-width="0.0" d="M367.091030173425 223.3978215566818 L367.091030173425 223.3978215566818 L371.49103017342503 231.01884510998488 L362.691030173425 231.01884510998488 Z" transform="rotate(0.0 367.091030173425 227.20833333333334 ) " />
                  <path fill="#1c3d5c" stroke="#1c3d5c" stroke-opacity="0.0" stroke-width="0.0" d="M476.02011924565795 231.93948822334846 L476.02011924565795 231.93948822334846 L480.420119245658 239.56051177665154 L471.620119245658 239.56051177665154 Z" transform="rotate(0.0 476.02011924565795 235.75 ) " />
                  <path fill="#18344f" stroke="#18344f" stroke-opacity="0.0" stroke-width="0.0" d="M519.591754874551 266.1061548900152 L519.591754874551 266.1061548900152 L523.991754874551 273.7271784433182 L515.1917548745511 273.7271784433182 Z" transform="rotate(0.0 519.591754874551 269.9166666666667 ) " />
                  <path fill="#18344f" stroke="#18344f" stroke-opacity="0.0" stroke-width="0.0" d="M290.840667822862 257.5644882233485 L290.840667822862 257.5644882233485 L295.240667822862 265.18551177665154 L286.440667822862 265.18551177665154 Z" transform="rotate(0.0 290.840667822862 261.375 ) " />
                  <path fill="#1a3955" stroke="#1a3955" stroke-opacity="0.0" stroke-width="0.0" d="M312.6264856373085 231.93948822334846 L312.6264856373085 231.93948822334846 L317.02648563730855 239.56051177665154 L308.22648563730854 239.56051177665154 Z" transform="rotate(0.0 312.6264856373085 235.75 ) " />
                  <path fill="#1a3955" stroke="#1a3955" stroke-opacity="0.0" stroke-width="0.0" d="M334.4123034517552 231.93948822334846 L334.4123034517552 231.93948822334846 L338.8123034517552 239.56051177665154 L330.0123034517552 239.56051177665154 Z" transform="rotate(0.0 334.4123034517552 235.75 ) " />
                  <path fill="#18344f" stroke="#18344f" stroke-opacity="0.0" stroke-width="0.0" d="M356.1981212662017 257.5644882233485 L356.1981212662017 257.5644882233485 L360.59812126620176 265.18551177665154 L351.79812126620175 265.18551177665154 Z" transform="rotate(0.0 356.1981212662017 261.375 ) " />
                  <rect fill="#18344f" stroke="#18344f" stroke-opacity="0.0" stroke-width="0.0" x="438.94139252398804" y="239.89166666666668" height="8.8" width="8.8" transform="rotate(0.0 443.341392523988 244.29166666666669 ) " />
                  <rect fill="#18344f" stroke="#18344f" stroke-opacity="0.0" stroke-width="0.0" x="438.94139252398804" y="248.43333333333334" height="8.8" width="8.8" transform="rotate(0.0 443.341392523988 252.83333333333334 ) " />
                  <rect fill="#1a3955" stroke="#1a3955" stroke-opacity="0.0" stroke-width="0.0" x="438.94139252398804" y="231.35" height="8.8" width="8.8" transform="rotate(0.0 443.341392523988 235.75 ) " />
                  <path fill="#1f4262" stroke="#1f4262" stroke-opacity="0.0" stroke-width="0.0" d="M290.840667822862 240.48115489001515 L290.840667822862 240.48115489001515 L295.240667822862 248.10217844331822 L286.440667822862 248.10217844331822 Z" transform="rotate(0.0 290.840667822862 244.29166666666669 ) " />
                  <path fill="#1c3d5c" stroke="#1c3d5c" stroke-opacity="0.0" stroke-width="0.0" d="M290.840667822862 223.3978215566818 L290.840667822862 223.3978215566818 L295.240667822862 231.01884510998488 L286.440667822862 231.01884510998488 Z" transform="rotate(0.0 290.840667822862 227.20833333333334 ) " />
                  <path fill="#1c3d5c" stroke="#1c3d5c" stroke-opacity="0.0" stroke-width="0.0" d="M356.1981212662017 223.3978215566818 L356.1981212662017 223.3978215566818 L360.59812126620176 231.01884510998488 L351.79812126620175 231.01884510998488 Z" transform="rotate(0.0 356.1981212662017 227.20833333333334 ) " />
                  <path fill="#1c3d5c" stroke="#1c3d5c" stroke-opacity="0.0" stroke-width="0.0" d="M399.7697568950948 240.48115489001515 L399.7697568950948 240.48115489001515 L404.16975689509485 248.10217844331822 L395.36975689509484 248.10217844331822 Z" transform="rotate(0.0 399.7697568950948 244.29166666666669 ) " />
                  <circle fill="#306591" stroke="#306591" stroke-opacity="0.0" stroke-width="0.0" cx="116.55412530728924" cy="141.79166666666669" r="4.4" />
                  <circle fill="#2b5b83" stroke="#2b5b83" stroke-opacity="0.0" stroke-width="0.0" cx="116.55412530728924" cy="158.87500000000003" r="4.4" />
                  <circle fill="#356f9f" stroke="#356f9f" stroke-opacity="0.0" stroke-width="0.0" cx="127.44703421451251" cy="124.70833333333337" r="4.4" />
                  <circle fill="#356f9f" stroke="#356f9f" stroke-opacity="0.0" stroke-width="0.0" cx="127.44703421451251" cy="116.16666666666669" r="4.4" />
                  <circle fill="#2b5b83" stroke="#2b5b83" stroke-opacity="0.0" stroke-width="0.0" cx="236.37612328674547" cy="158.87500000000003" r="4.4" />
                  <circle fill="#2b5b83" stroke="#2b5b83" stroke-opacity="0.0" stroke-width="0.0" cx="236.37612328674547" cy="167.41666666666669" r="4.4" />
                  <circle fill="#29567d" stroke="#29567d" stroke-opacity="0.0" stroke-width="0.0" cx="181.911578750629" cy="167.41666666666669" r="4.4" />
                  <circle fill="#2b5b83" stroke="#2b5b83" stroke-opacity="0.0" stroke-width="0.0" cx="181.911578750629" cy="175.95833333333334" r="4.4" />
                  <circle fill="#2b5b83" stroke="#2b5b83" stroke-opacity="0.0" stroke-width="0.0" cx="236.37612328674547" cy="175.95833333333334" r="4.4" />
                  <path fill="#1f4262" stroke="#1f4262" stroke-opacity="0.0" stroke-width="0.0" d="M214.59030547229887 240.48115489001515 L214.59030547229887 240.48115489001515 L218.99030547229887 248.10217844331822 L210.19030547229886 248.10217844331822 Z" transform="rotate(0.0 214.59030547229887 244.29166666666669 ) " />
                  <path fill="#214769" stroke="#214769" stroke-opacity="0.0" stroke-width="0.0" d="M214.59030547229887 240.48115489001515 L214.59030547229887 240.48115489001515 L218.99030547229887 248.10217844331822 L210.19030547229886 248.10217844331822 Z" transform="rotate(0.0 214.59030547229887 244.29166666666669 ) " />
                  <path fill="#1f4262" stroke="#1f4262" stroke-opacity="0.0" stroke-width="0.0" d="M290.840667822862 214.85615489001515 L290.840667822862 214.85615489001515 L295.240667822862 222.47717844331822 L286.440667822862 222.47717844331822 Z" transform="rotate(0.0 290.840667822862 218.66666666666669 ) " />
                  <path fill="#1a3955" stroke="#1a3955" stroke-opacity="0.0" stroke-width="0.0" d="M465.12721033843457 231.93948822334846 L465.12721033843457 231.93948822334846 L469.5272103384346 239.56051177665154 L460.7272103384346 239.56051177665154 Z" transform="rotate(0.0 465.12721033843457 235.75 ) " />
                  <circle fill="#29567d" stroke="#29567d" stroke-opacity="0.0" stroke-width="0.0" cx="192.80448765785232" cy="167.41666666666669" r="4.4" />
                  <circle fill="#244c6f" stroke="#244c6f" stroke-opacity="0.0" stroke-width="0.0" cx="269.0548500084153" cy="167.41666666666669" r="4.4" />
                  <circle fill="#265176" stroke="#265176" stroke-opacity="0.0" stroke-width="0.0" cx="269.0548500084153" cy="158.87500000000003" r="4.4" />
                  <circle fill="#29567d" stroke="#29567d" stroke-opacity="0.0" stroke-width="0.0" cx="269.0548500084153" cy="150.33333333333334" r="4.4" />
                  <circle fill="#244c6f" stroke="#244c6f" stroke-opacity="0.0" stroke-width="0.0" cx="432.44848361676475" cy="175.95833333333334" r="4.4" />
                  <path fill="#29567d" stroke="#29567d" stroke-opacity="0.0" stroke-width="0.0" d="M127.44703421451251 172.1478215566818 L127.44703421451251 172.1478215566818 L131.84703421451252 179.76884510998488 L123.04703421451251 179.76884510998488 Z" transform="rotate(0.0 127.44703421451251 175.95833333333334 ) " />
                  <path fill="#29567d" stroke="#29567d" stroke-opacity="0.0" stroke-width="0.0" d="M127.44703421451251 180.68948822334846 L127.44703421451251 180.68948822334846 L131.84703421451252 188.31051177665154 L123.04703421451251 188.31051177665154 Z" transform="rotate(0.0 127.44703421451251 184.5 ) " />
                  <path fill="#2e608a" stroke="#2e608a" stroke-opacity="0.0" stroke-width="0.0" d="M127.44703421451251 155.0644882233485 L127.44703421451251 155.0644882233485 L131.84703421451252 162.68551177665157 L123.04703421451251 162.68551177665157 Z" transform="rotate(0.0 127.44703421451251 158.87500000000003 ) " />
                  <path fill="#2b5b83" stroke="#2b5b83" stroke-opacity="0.0" stroke-width="0.0" d="M127.44703421451251 172.1478215566818 L127.44703421451251 172.1478215566818 L131.84703421451252 179.76884510998488 L123.04703421451251 179.76884510998488 Z" transform="rotate(0.0 127.44703421451251 175.95833333333334 ) " />
                  <path fill="#2e608a" stroke="#2e608a" stroke-opacity="0.0" stroke-width="0.0" d="M127.44703421451251 163.60615489001515 L127.44703421451251 163.60615489001515 L131.84703421451252 171.22717844331822 L123.04703421451251 171.22717844331822 Z" transform="rotate(0.0 127.44703421451251 167.41666666666669 ) " />
                  <path fill="#29567d" stroke="#29567d" stroke-opacity="0.0" stroke-width="0.0" d="M127.44703421451251 189.23115489001515 L127.44703421451251 189.23115489001515 L131.84703421451252 196.85217844331822 L123.04703421451251 196.85217844331822 Z" transform="rotate(0.0 127.44703421451251 193.04166666666669 ) " />
                  <path fill="#306591" stroke="#306591" stroke-opacity="0.0" stroke-width="0.0" d="M94.76830749284267 163.60615489001515 L94.76830749284267 163.60615489001515 L99.16830749284266 171.22717844331822 L90.36830749284266 171.22717844331822 Z" transform="rotate(0.0 94.76830749284267 167.41666666666669 ) " />
                  <path fill="#2b5b83" stroke="#2b5b83" stroke-opacity="0.0" stroke-width="0.0" d="M94.76830749284267 163.60615489001515 L94.76830749284267 163.60615489001515 L99.16830749284266 171.22717844331822 L90.36830749284266 171.22717844331822 Z" transform="rotate(0.0 94.76830749284267 167.41666666666669 ) " />
                  <path fill="#2b5b83" stroke="#2b5b83" stroke-opacity="0.0" stroke-width="0.0" d="M127.44703421451251 163.60615489001515 L127.44703421451251 163.60615489001515 L131.84703421451252 171.22717844331822 L123.04703421451251 171.22717844331822 Z" transform="rotate(0.0 127.44703421451251 167.41666666666669 ) " />
                  <path fill="#2b5b83" stroke="#2b5b83" stroke-opacity="0.0" stroke-width="0.0" d="M127.44703421451251 163.60615489001515 L127.44703421451251 163.60615489001515 L131.84703421451252 171.22717844331822 L123.04703421451251 171.22717844331822 Z" transform="rotate(0.0 127.44703421451251 167.41666666666669 ) " />
                  <path fill="#2e608a" stroke="#2e608a" stroke-opacity="0.0" stroke-width="0.0" d="M127.44703421451251 172.1478215566818 L127.44703421451251 172.1478215566818 L131.84703421451252 179.76884510998488 L123.04703421451251 179.76884510998488 Z" transform="rotate(0.0 127.44703421451251 175.95833333333334 ) " />
                  <path fill="#2e608a" stroke="#2e608a" stroke-opacity="0.0" stroke-width="0.0" d="M127.44703421451251 155.0644882233485 L127.44703421451251 155.0644882233485 L131.84703421451252 162.68551177665157 L123.04703421451251 162.68551177665157 Z" transform="rotate(0.0 127.44703421451251 158.87500000000003 ) " />
                  <path fill="#2b5b83" stroke="#2b5b83" stroke-opacity="0.0" stroke-width="0.0" d="M127.44703421451251 172.1478215566818 L127.44703421451251 172.1478215566818 L131.84703421451252 179.76884510998488 L123.04703421451251 179.76884510998488 Z" transform="rotate(0.0 127.44703421451251 175.95833333333334 ) " />
                  <path fill="#2e608a" stroke="#2e608a" stroke-opacity="0.0" stroke-width="0.0" d="M127.44703421451251 155.0644882233485 L127.44703421451251 155.0644882233485 L131.84703421451252 162.68551177665157 L123.04703421451251 162.68551177665157 Z" transform="rotate(0.0 127.44703421451251 158.87500000000003 ) " />
                  <path fill="#214769" stroke="#214769" stroke-opacity="0.0" stroke-width="0.0" d="M149.23285202895912 214.85615489001515 L149.23285202895912 214.85615489001515 L153.63285202895912 222.47717844331822 L144.8328520289591 222.47717844331822 Z" transform="rotate(0.0 149.23285202895912 218.66666666666669 ) " />
                  <path fill="#244c6f" stroke="#244c6f" stroke-opacity="0.0" stroke-width="0.0" d="M149.23285202895912 214.85615489001515 L149.23285202895912 214.85615489001515 L153.63285202895912 222.47717844331822 L144.8328520289591 222.47717844331822 Z" transform="rotate(0.0 149.23285202895912 218.66666666666669 ) " />
                  <path fill="#214769" stroke="#214769" stroke-opacity="0.0" stroke-width="0.0" d="M225.4832143795222 223.3978215566818 L225.4832143795222 223.3978215566818 L229.8832143795222 231.01884510998488 L221.0832143795222 231.01884510998488 Z" transform="rotate(0.0 225.4832143795222 227.20833333333334 ) " />
                  <path fill="#214769" stroke="#214769" stroke-opacity="0.0" stroke-width="0.0" d="M225.4832143795222 240.48115489001515 L225.4832143795222 240.48115489001515 L229.8832143795222 248.10217844331822 L221.0832143795222 248.10217844331822 Z" transform="rotate(0.0 225.4832143795222 244.29166666666669 ) " />
                  <path fill="#244c6f" stroke="#244c6f" stroke-opacity="0.0" stroke-width="0.0" d="M290.840667822862 214.85615489001515 L290.840667822862 214.85615489001515 L295.240667822862 222.47717844331822 L286.440667822862 222.47717844331822 Z" transform="rotate(0.0 290.840667822862 218.66666666666669 ) " />
                  <path fill="#1f4262" stroke="#1f4262" stroke-opacity="0.0" stroke-width="0.0" d="M367.091030173425 240.48115489001515 L367.091030173425 240.48115489001515 L371.49103017342503 248.10217844331822 L362.691030173425 248.10217844331822 Z" transform="rotate(0.0 367.091030173425 244.29166666666669 ) " />
                  <circle fill="#306591" stroke="#306591" stroke-opacity="0.0" stroke-width="0.0" cx="94.76830749284267" cy="141.79166666666669" r="4.4" />
                  <circle fill="#306591" stroke="#306591" stroke-opacity="0.0" stroke-width="0.0" cx="94.76830749284267" cy="158.87500000000003" r="4.4" />
                  <circle fill="#306591" stroke="#306591" stroke-opacity="0.0" stroke-width="0.0" cx="116.55412530728924" cy="124.70833333333337" r="4.4" />
                  <circle fill="#306591" stroke="#306591" stroke-opacity="0.0" stroke-width="0.0" cx="116.55412530728924" cy="124.70833333333337" r="4.4" />
                  <circle fill="#29567d" stroke="#29567d" stroke-opacity="0.0" stroke-width="0.0" cx="181.911578750629" cy="167.41666666666669" r="4.4" />
                  <circle fill="#29567d" stroke="#29567d" stroke-opacity="0.0" stroke-width="0.0" cx="181.911578750629" cy="167.41666666666669" r="4.4" />
                  <circle fill="#2b5b83" stroke="#2b5b83" stroke-opacity="0.0" stroke-width="0.0" cx="236.37612328674547" cy="150.33333333333334" r="4.4" />
                  <circle fill="#306591" stroke="#306591" stroke-opacity="0.0" stroke-width="0.0" cx="94.76830749284267" cy="158.87500000000003" r="4.4" />
                  <circle fill="#306591" stroke="#306591" stroke-opacity="0.0" stroke-width="0.0" cx="94.76830749284267" cy="141.79166666666669" r="4.4" />
                  <circle fill="#306591" stroke="#306591" stroke-opacity="0.0" stroke-width="0.0" cx="116.55412530728924" cy="124.70833333333337" r="4.4" />
                  <circle fill="#336a98" stroke="#336a98" stroke-opacity="0.0" stroke-width="0.0" cx="116.55412530728924" cy="124.70833333333337" r="4.4" />
                  <circle fill="#29567d" stroke="#29567d" stroke-opacity="0.0" stroke-width="0.0" cx="181.911578750629" cy="167.41666666666669" r="4.4" />
                  <circle fill="#29567d" stroke="#29567d" stroke-opacity="0.0" stroke-width="0.0" cx="181.911578750629" cy="167.41666666666669" r="4.4" />
                  <circle fill="#29567d" stroke="#29567d" stroke-opacity="0.0" stroke-width="0.0" cx="214.59030547229887" cy="158.87500000000003" r="4.4" />
                  <circle fill="#3875a6" stroke="#3875a6" stroke-opacity="0.0" stroke-width="0.0" cx="51.19667186394949" cy="133.25" r="4.4" />
                  <circle fill="#3875a6" stroke="#3875a6" stroke-opacity="0.0" stroke-width="0.0" cx="51.19667186394949" cy="107.625" r="4.4" />
                  <circle fill="#3d7fb4" stroke="#3d7fb4" stroke-opacity="0.0" stroke-width="0.0" cx="51.19667186394949" cy="90.54166666666669" r="4.4" />
                  <circle fill="#438ac3" stroke="#438ac3" stroke-opacity="0.0" stroke-width="0.0" cx="51.19667186394949" cy="73.45833333333337" r="4.4" />
                  <circle fill="#3d7fb4" stroke="#3d7fb4" stroke-opacity="0.0" stroke-width="0.0" cx="51.19667186394949" cy="90.54166666666669" r="4.4" />
                  <path fill="#18344f" stroke="#18344f" stroke-opacity="0.0" stroke-width="0.0" d="M367.091030173425 257.5644882233485 L367.091030173425 257.5644882233485 L371.49103017342503 265.18551177665154 L362.691030173425 265.18551177665154 Z" transform="rotate(0.0 367.091030173425 261.375 ) " />
                  <path fill="#1c3d5c" stroke="#1c3d5c" stroke-opacity="0.0" stroke-width="0.0" d="M476.02011924565795 231.93948822334846 L476.02011924565795 231.93948822334846 L480.420119245658 239.56051177665154 L471.620119245658 239.56051177665154 Z" transform="rotate(0.0 476.02011924565795 235.75 ) " />
                  <path fill="#214769" stroke="#214769" stroke-opacity="0.0" stroke-width="0.0" d="M149.23285202895912 214.85615489001515 L149.23285202895912 214.85615489001515 L153.63285202895912 222.47717844331822 L144.8328520289591 222.47717844331822 Z" transform="rotate(0.0 149.23285202895912 218.66666666666669 ) " />
                  <path fill="#244c6f" stroke="#244c6f" stroke-opacity="0.0" stroke-width="0.0" d="M149.23285202895912 214.85615489001515 L149.23285202895912 214.85615489001515 L153.63285202895912 222.47717844331822 L144.8328520289591 222.47717844331822 Z" transform="rotate(0.0 149.23285202895912 218.66666666666669 ) " />
                  <path fill="#265176" stroke="#265176" stroke-opacity="0.0" stroke-width="0.0" d="M149.23285202895912 197.7728215566818 L149.23285202895912 197.7728215566818 L153.63285202895912 205.39384510998488 L144.8328520289591 205.39384510998488 Z" transform="rotate(0.0 149.23285202895912 201.58333333333334 ) " />
                  <path fill="#214769" stroke="#214769" stroke-opacity="0.0" stroke-width="0.0" d="M225.4832143795222 240.48115489001515 L225.4832143795222 240.48115489001515 L229.8832143795222 248.10217844331822 L221.0832143795222 248.10217844331822 Z" transform="rotate(0.0 225.4832143795222 244.29166666666669 ) " />
                  <path fill="#214769" stroke="#214769" stroke-opacity="0.0" stroke-width="0.0" d="M225.4832143795222 223.3978215566818 L225.4832143795222 223.3978215566818 L229.8832143795222 231.01884510998488 L221.0832143795222 231.01884510998488 Z" transform="rotate(0.0 225.4832143795222 227.20833333333334 ) " />
                  <path fill="#214769" stroke="#214769" stroke-opacity="0.0" stroke-width="0.0" d="M290.840667822862 231.93948822334846 L290.840667822862 231.93948822334846 L295.240667822862 239.56051177665154 L286.440667822862 239.56051177665154 Z" transform="rotate(0.0 290.840667822862 235.75 ) " />
                  <path fill="#244c6f" stroke="#244c6f" stroke-opacity="0.0" stroke-width="0.0" d="M290.840667822862 214.85615489001515 L290.840667822862 214.85615489001515 L295.240667822862 222.47717844331822 L286.440667822862 222.47717844331822 Z" transform="rotate(0.0 290.840667822862 218.66666666666669 ) " />
                  <circle fill="#306591" stroke="#306591" stroke-opacity="0.0" stroke-width="0.0" cx="72.98248967839606" cy="141.79166666666669" r="4.4" />
                  <circle fill="#2b5b83" stroke="#2b5b83" stroke-opacity="0.0" stroke-width="0.0" cx="72.98248967839606" cy="167.41666666666669" r="4.4" />
                  <circle fill="#306591" stroke="#306591" stroke-opacity="0.0" stroke-width="0.0" cx="72.98248967839606" cy="141.79166666666669" r="4.4" />
                  <circle fill="#336a98" stroke="#336a98" stroke-opacity="0.0" stroke-width="0.0" cx="72.98248967839606" cy="141.79166666666669" r="4.4" />
                  <circle fill="#265176" stroke="#265176" stroke-opacity="0.0" stroke-width="0.0" cx="160.1257609361824" cy="184.5" r="4.4" />
                  <circle fill="#50a6e8" stroke="#50a6e8" stroke-opacity="0.0" stroke-width="0.0" cx="62.08958077117276" cy="13.666666666666686" r="4.4" />
                  <circle fill="#306591" stroke="#306591" stroke-opacity="0.0" stroke-width="0.0" cx="72.98248967839606" cy="141.79166666666669" r="4.4" />
                  <circle fill="#2b5b83" stroke="#2b5b83" stroke-opacity="0.0" stroke-width="0.0" cx="72.98248967839606" cy="167.41666666666669" r="4.4" />
                  <circle fill="#336a98" stroke="#336a98" stroke-opacity="0.0" stroke-width="0.0" cx="72.98248967839606" cy="141.79166666666669" r="4.4" />
                  <circle fill="#306591" stroke="#306591" stroke-opacity="0.0" stroke-width="0.0" cx="72.98248967839606" cy="141.79166666666669" r="4.4" />
                  <circle fill="#306591" stroke="#306591" stroke-opacity="0.0" stroke-width="0.0" cx="127.44703421451251" cy="141.79166666666669" r="4.4" />
                  <circle fill="#306591" stroke="#306591" stroke-opacity="0.0" stroke-width="0.0" cx="127.44703421451251" cy="141.79166666666669" r="4.4" />
                  <circle fill="#244c6f" stroke="#244c6f" stroke-opacity="0.0" stroke-width="0.0" cx="160.1257609361824" cy="193.04166666666669" r="4.4" />
                  <circle fill="#265176" stroke="#265176" stroke-opacity="0.0" stroke-width="0.0" cx="160.1257609361824" cy="184.5" r="4.4" />
                  <circle fill="#56b1f7" stroke="#56b1f7" stroke-opacity="0.0" stroke-width="0.0" cx="62.08958077117276" cy="13.666666666666686" r="4.4" />
                  <circle fill="#458fca" stroke="#458fca" stroke-opacity="0.0" stroke-width="0.0" cx="62.08958077117276" cy="39.291666666666686" r="4.4" />
                  <circle fill="#306591" stroke="#306591" stroke-opacity="0.0" stroke-width="0.0" cx="72.98248967839606" cy="141.79166666666669" r="4.4" />
                  <circle fill="#2b5b83" stroke="#2b5b83" stroke-opacity="0.0" stroke-width="0.0" cx="72.98248967839606" cy="167.41666666666669" r="4.4" />
                  <circle fill="#2e608a" stroke="#2e608a" stroke-opacity="0.0" stroke-width="0.0" cx="127.44703421451251" cy="150.33333333333334" r="4.4" />
                  <circle fill="#2e608a" stroke="#2e608a" stroke-opacity="0.0" stroke-width="0.0" cx="127.44703421451251" cy="141.79166666666669" r="4.4" />
                  <circle fill="#306591" stroke="#306591" stroke-opacity="0.0" stroke-width="0.0" cx="51.19667186394949" cy="141.79166666666669" r="4.4" />
                  <circle fill="#29567d" stroke="#29567d" stroke-opacity="0.0" stroke-width="0.0" cx="51.19667186394949" cy="141.79166666666669" r="4.4" />
                  <circle fill="#2b5b83" stroke="#2b5b83" stroke-opacity="0.0" stroke-width="0.0" cx="72.98248967839606" cy="150.33333333333334" r="4.4" />
                  <circle fill="#306591" stroke="#306591" stroke-opacity="0.0" stroke-width="0.0" cx="72.98248967839606" cy="141.79166666666669" r="4.4" />
                  <circle fill="#244c6f" stroke="#244c6f" stroke-opacity="0.0" stroke-width="0.0" cx="160.1257609361824" cy="167.41666666666669" r="4.4" />
                  <circle fill="#29567d" stroke="#29567d" stroke-opacity="0.0" stroke-width="0.0" cx="160.1257609361824" cy="167.41666666666669" r="4.4" />
                  <circle fill="#265176" stroke="#265176" stroke-opacity="0.0" stroke-width="0.0" cx="247.2690321939688" cy="167.41666666666669" r="4.4" />
                </g>
              </g>
            </g>
          </g>
        </g>
        <defs>
          <clipPath id="xXxprefixXx1">
            <rect x="21.961210910936405" y="0.0" width="647.0387890890636" height="300.6666666666667">
            </rect>
          </clipPath>
        </defs>
      </g>
      <g>
      </g>
    </g>
    <g transform="translate(16.0 156.83333333333334 ) rotate(-90.0 ) ">
      <text class="axis-title-y" y="0.0" text-anchor="middle">
        <tspan>hwy</tspan>
      </text>
    </g>
    <g transform="translate(374.9806054554682 352.6666666666667 ) ">
      <text class="axis-title-x" y="0.0" text-anchor="middle">
        <tspan>displ</tspan>
      </text>
    </g>
    <g transform="translate(236.48927362523443 359.6666666666667 ) ">
      <rect x="5.0" y="5.0" height="50.33333333333333" width="224.78867708962633" stroke="rgb(187,187,187)" stroke-opacity="1.0" stroke-width="0.0" fill="rgb(25,25,28)" fill-opacity="1.0">
      </rect>
      <g transform="translate(10.0 10.0 ) ">
        <g transform="translate(0.0 17.166666666666664 ) ">
          <text class="legend-title" y="0.0">
            <tspan>City mileage</tspan>
          </text>
          <text class="legend-title" y="15.0">
            <tspan>(mpg)</tspan>
          </text>
        </g>
        <g transform="translate(99.78867708962632 0.0 ) ">
          <g>
            <rect x="0.0" y="0.0" height="23.0" width="115.0" stroke-width="0.0" fill="rgb(20,46,71)" fill-opacity="1.0">
            </rect>
            <rect x="7.55" y="0.0" height="23.0" width="107.45" stroke-width="0.0" fill="rgb(24,52,79)" fill-opacity="1.0">
            </rect>
            <rect x="13.1" y="0.0" height="23.0" width="101.9" stroke-width="0.0" fill="rgb(27,58,87)" fill-opacity="1.0">
            </rect>
            <rect x="18.65" y="0.0" height="23.0" width="96.35" stroke-width="0.0" fill="rgb(30,64,95)" fill-opacity="1.0">
            </rect>
            <rect x="24.2" y="0.0" height="23.0" width="90.8" stroke-width="0.0" fill="rgb(33,70,104)" fill-opacity="1.0">
            </rect>
            <rect x="29.75" y="0.0" height="23.0" width="85.25" stroke-width="0.0" fill="rgb(36,77,112)" fill-opacity="1.0">
            </rect>
            <rect x="35.3" y="0.0" height="23.0" width="79.7" stroke-width="0.0" fill="rgb(39,83,121)" fill-opacity="1.0">
            </rect>
            <rect x="40.849999999999994" y="0.0" height="23.0" width="74.15" stroke-width="0.0" fill="rgb(42,90,130)" fill-opacity="1.0">
            </rect>
            <rect x="46.39999999999999" y="0.0" height="23.0" width="68.60000000000001" stroke-width="0.0" fill="rgb(46,96,138)" fill-opacity="1.0">
            </rect>
            <rect x="51.94999999999999" y="0.0" height="23.0" width="63.05000000000001" stroke-width="0.0" fill="rgb(49,103,147)" fill-opacity="1.0">
            </rect>
            <rect x="57.499999999999986" y="0.0" height="23.0" width="57.500000000000014" stroke-width="0.0" fill="rgb(52,110,156)" fill-opacity="1.0">
            </rect>
            <rect x="63.04999999999998" y="0.0" height="23.0" width="51.95000000000002" stroke-width="0.0" fill="rgb(56,116,166)" fill-opacity="1.0">
            </rect>
            <rect x="68.59999999999998" y="0.0" height="23.0" width="46.40000000000002" stroke-width="0.0" fill="rgb(59,123,175)" fill-opacity="1.0">
            </rect>
            <rect x="74.14999999999998" y="0.0" height="23.0" width="40.85000000000002" stroke-width="0.0" fill="rgb(63,130,184)" fill-opacity="1.0">
            </rect>
            <rect x="79.69999999999997" y="0.0" height="23.0" width="35.300000000000026" stroke-width="0.0" fill="rgb(66,137,194)" fill-opacity="1.0">
            </rect>
            <rect x="85.24999999999997" y="0.0" height="23.0" width="29.75000000000003" stroke-width="0.0" fill="rgb(70,144,203)" fill-opacity="1.0">
            </rect>
            <rect x="90.79999999999997" y="0.0" height="23.0" width="24.20000000000003" stroke-width="0.0" fill="rgb(73,151,213)" fill-opacity="1.0">
            </rect>
            <rect x="96.34999999999997" y="0.0" height="23.0" width="18.650000000000034" stroke-width="0.0" fill="rgb(77,159,222)" fill-opacity="1.0">
            </rect>
            <rect x="101.89999999999996" y="0.0" height="23.0" width="13.100000000000037" stroke-width="0.0" fill="rgb(81,166,232)" fill-opacity="1.0">
            </rect>
            <rect x="107.44999999999996" y="0.0" height="23.0" width="7.55000000000004" stroke-width="0.0" fill="rgb(84,173,242)" fill-opacity="1.0">
            </rect>
            <line x1="6.269230769230774" y1="0.0" x2="6.269230769230774" y2="4.6" stroke-width="1.0" stroke="rgb(25,25,28)" stroke-opacity="1.0">
            </line>
            <line x1="6.269230769230774" y1="18.4" x2="6.269230769230774" y2="23.0" stroke-width="1.0" stroke="rgb(25,25,28)" stroke-opacity="1.0">
            </line>
            <g transform="translate(6.269230769230774 36.43333333333333 ) ">
              <text class="legend-item" text-anchor="middle" y="0.0">
                <tspan>10</tspan>
              </text>
            </g>
            <line x1="27.615384615384613" y1="0.0" x2="27.615384615384613" y2="4.6" stroke-width="1.0" stroke="rgb(25,25,28)" stroke-opacity="1.0">
            </line>
            <line x1="27.615384615384613" y1="18.4" x2="27.615384615384613" y2="23.0" stroke-width="1.0" stroke="rgb(25,25,28)" stroke-opacity="1.0">
            </line>
            <g transform="translate(27.615384615384613 36.43333333333333 ) ">
              <text class="legend-item" text-anchor="middle" y="0.0">
                <tspan>15</tspan>
              </text>
            </g>
            <line x1="48.96153846153847" y1="0.0" x2="48.96153846153847" y2="4.6" stroke-width="1.0" stroke="rgb(25,25,28)" stroke-opacity="1.0">
            </line>
            <line x1="48.96153846153847" y1="18.4" x2="48.96153846153847" y2="23.0" stroke-width="1.0" stroke="rgb(25,25,28)" stroke-opacity="1.0">
            </line>
            <g transform="translate(48.96153846153847 36.43333333333333 ) ">
              <text class="legend-item" text-anchor="middle" y="0.0">
                <tspan>20</tspan>
              </text>
            </g>
            <line x1="70.3076923076923" y1="0.0" x2="70.3076923076923" y2="4.6" stroke-width="1.0" stroke="rgb(25,25,28)" stroke-opacity="1.0">
            </line>
            <line x1="70.3076923076923" y1="18.4" x2="70.3076923076923" y2="23.0" stroke-width="1.0" stroke="rgb(25,25,28)" stroke-opacity="1.0">
            </line>
            <g transform="translate(70.3076923076923 36.43333333333333 ) ">
              <text class="legend-item" text-anchor="middle" y="0.0">
                <tspan>25</tspan>
              </text>
            </g>
            <line x1="91.65384615384615" y1="0.0" x2="91.65384615384615" y2="4.6" stroke-width="1.0" stroke="rgb(25,25,28)" stroke-opacity="1.0">
            </line>
            <line x1="91.65384615384615" y1="18.4" x2="91.65384615384615" y2="23.0" stroke-width="1.0" stroke="rgb(25,25,28)" stroke-opacity="1.0">
            </line>
            <g transform="translate(91.65384615384615 36.43333333333333 ) ">
              <text class="legend-item" text-anchor="middle" y="0.0">
                <tspan>30</tspan>
              </text>
            </g>
            <line x1="113.00000000000001" y1="0.0" x2="113.00000000000001" y2="4.6" stroke-width="1.0" stroke="rgb(25,25,28)" stroke-opacity="1.0">
            </line>
            <line x1="113.00000000000001" y1="18.4" x2="113.00000000000001" y2="23.0" stroke-width="1.0" stroke="rgb(25,25,28)" stroke-opacity="1.0">
            </line>
            <g transform="translate(113.00000000000001 36.43333333333333 ) ">
              <text class="legend-item" text-anchor="middle" y="0.0">
                <tspan>35</tspan>
              </text>
            </g>
          </g>
        </g>
      </g>
    </g>
    <g transform="translate(236.48927362523443 420.0 ) ">
      <rect x="5.0" y="5.0" height="40.0" width="266.98266366046755" stroke="rgb(187,187,187)" stroke-opacity="1.0" stroke-width="0.0" fill="rgb(25,25,28)" fill-opacity="1.0">
      </rect>
      <g transform="translate(10.0 10.0 ) ">
        <g transform="translate(0.0 12.0 ) ">
          <text class="legend-title" y="0.0">
            <tspan>Drive type</tspan>
          </text>
          <text class="legend-title" y="15.0">
            <tspan>(front/4/rear wheel)</tspan>
          </text>
        </g>
        <g transform="translate(157.88416940310702 3.5 ) ">
          <g transform="">
            <g>
              <rect x="0.0" y="0.0" height="23.0" width="23.0" stroke-width="0.0" fill="rgb(25,25,28)" fill-opacity="1.0">
              </rect>
              <g transform="translate(1.0 1.0 ) ">
                <g>
                  <g >
                    <circle fill="#bbbbbb" stroke="#bbbbbb" stroke-opacity="0.0" stroke-width="0.0" cx="10.5" cy="10.5" r="5.5" />
                  </g>
                </g>
              </g>
              <rect x="0.0" y="0.0" height="23.0" width="23.0" stroke="rgb(25,25,28)" stroke-opacity="1.0" stroke-width="1.0" fill-opacity="0.0">
              </rect>
            </g>
            <g transform="translate(26.9903027277341 16.05 ) ">
              <text class="legend-item" y="0.0">
                <tspan>f</tspan>
              </text>
            </g>
          </g>
          <g transform="translate(32.06379303707911 0.0 ) ">
            <g>
              <rect x="0.0" y="0.0" height="23.0" width="23.0" stroke-width="0.0" fill="rgb(25,25,28)" fill-opacity="1.0">
              </rect>
              <g transform="translate(1.0 1.0 ) ">
                <g>
                  <g >
                    <path fill="#bbbbbb" stroke="#bbbbbb" stroke-opacity="0.0" stroke-width="0.0" d="M10.5 5.736860279185588 L10.5 5.736860279185588 L16.0 15.263139720814412 L5.0 15.263139720814412 Z" transform="rotate(0.0 10.5 10.5 ) " />
                  </g>
                </g>
              </g>
              <rect x="0.0" y="0.0" height="23.0" width="23.0" stroke="rgb(25,25,28)" stroke-opacity="1.0" stroke-width="1.0" fill-opacity="0.0">
              </rect>
            </g>
            <g transform="translate(26.9903027277341 16.05 ) ">
              <text class="legend-item" y="0.0">
                <tspan>4</tspan>
              </text>
            </g>
          </g>
          <g transform="translate(67.03470122028142 0.0 ) ">
            <g>
              <rect x="0.0" y="0.0" height="23.0" width="23.0" stroke-width="0.0" fill="rgb(25,25,28)" fill-opacity="1.0">
              </rect>
              <g transform="translate(1.0 1.0 ) ">
                <g>
                  <g >
                    <rect fill="#bbbbbb" stroke="#bbbbbb" stroke-opacity="0.0" stroke-width="0.0" x="5.0" y="5.0" height="11.0" width="11.0" transform="rotate(0.0 10.5 10.5 ) " />
                  </g>
                </g>
              </g>
              <rect x="0.0" y="0.0" height="23.0" width="23.0" stroke="rgb(25,25,28)" stroke-opacity="1.0" stroke-width="1.0" fill-opacity="0.0">
              </rect>
            </g>
            <g transform="translate(26.9903027277341 16.05 ) ">
              <text class="legend-item" y="0.0">
                <tspan>r</tspan>
              </text>
            </g>
          </g>
        </g>
      </g>
    </g>
    <path fill="rgb(0,0,0)" fill-opacity="0.0" stroke="rgb(187,187,187)" stroke-opacity="1.0" stroke-width="0.0" d="M0.0 0.0 L0.0 470.0 L705.0 470.0 L705.0 0.0 Z">
    </path>
  </g>
  <g id="xXxprefixXx2">
  </g>
</svg>