<svg xmlns="http://www.w3.org/2000/svg" xmlns:xlink="http://www.w3.org/1999/xlink" display="block" class="plt-container" width="705.0" height="470.0">
  <style type="text/css">
  .plt-container {
   font-family: Lucida Grande, sans-serif;
   user-select: none;
   -webkit-user-select: none;
   -moz-user-select: none;
   -ms-user-select: none;
}
text {
   text-rendering: optimizeLegibility;
}
#xXxprefixXx0 .plot-title {
fill: #474747;
font-weight: normal;
   font-style: normal;font-family: Lucida Grande, sans-serif;
font-size: 16.0px;

}
#xXxprefixXx0 .plot-subtitle {
fill: #474747;
font-weight: normal;
   font-style: normal;font-family: Lucida Grande, sans-serif;
font-size: 15.0px;

}
#xXxprefixXx0 .plot-caption {
fill: #474747;
font-weight: normal;
   font-style: normal;font-family: Lucida Grande, sans-serif;
font-size: 13.0px;

}
#xXxprefixXx0 .hyperlink-element {
fill: #118ed8;
font-weight: normal;
   font-style: normal;
}
#xXxprefixXx0 .legend-title {
fill: #474747;
font-weight: normal;
   font-style: normal;font-family: Lucida Grande, sans-serif;
font-size: 15.0px;

}
#xXxprefixXx0 .legend-item {
fill: #474747;
font-weight: normal;
   font-style: normal;font-family: Lucida Grande, sans-serif;
font-size: 13.0px;

}
#xXxprefixXx0 .axis-title-x {
fill: #474747;
font-weight: normal;
   font-style: normal;font-family: Lucida Grande, sans-serif;
font-size: 15.0px;

}
#xXxprefixXx0 .axis-text-x {
fill: #474747;
font-weight: normal;
   font-style: normal;font-family: Lucida Grande, sans-serif;
font-size: 13.0px;

}
#xXxprefixXx2 .axis-tooltip-text-x {
fill: #ffffff;
font-weight: normal;
   font-style: normal;font-family: Lucida Grande, sans-serif;
font-size: 13.0px;

}
#xXxprefixXx0 .axis-title-y {
fill: #474747;
font-weight: normal;
   font-style: normal;font-family: Lucida Grande, sans-serif;
font-size: 15.0px;

}
#xXxprefixXx0 .axis-text-y {
fill: #474747;
font-weight: normal;
   font-style: normal;font-family: Lucida Grande, sans-serif;
font-size: 13.0px;

}
#xXxprefixXx2 .axis-tooltip-text-y {
fill: #ffffff;
font-weight: normal;
   font-style: normal;font-family: Lucida Grande, sans-serif;
font-size: 13.0px;

}
#xXxprefixXx0 .facet-strip-text-x {
fill: #474747;
font-weight: normal;
   font-style: normal;font-family: Lucida Grande, sans-serif;
font-size: 13.0px;

}
#xXxprefixXx0 .facet-strip-text-y {
fill: #474747;
font-weight: normal;
   font-style: normal;font-family: Lucida Grande, sans-serif;
font-size: 13.0px;

}
#xXxprefixXx2 .tooltip-text {
fill: #474747;
font-weight: normal;
   font-style: normal;font-family: Lucida Grande, sans-serif;
font-size: 13.0px;

}
#xXxprefixXx2 .tooltip-title {
fill: #474747;
font-weight: bold;
   font-style: normal;font-family: Lucida Grande, sans-serif;
font-size: 13.0px;

}
#xXxprefixXx2 .tooltip-label {
fill: #474747;
font-weight: bold;
   font-style: normal;font-family: Lucida Grande, sans-serif;
font-size: 13.0px;

}

  </style>
  <g id="xXxprefixXx0">
    <path fill-rule="evenodd" fill="rgb(255,255,255)" fill-opacity="1.0" d="M0.0 0.0 L0.0 470.0 L705.0 470.0 L705.0 0.0 Z">
    </path>
    <g transform="translate(29.5 6.5 ) ">
      <g>
        <g transform="translate(21.961210910936405 0.0 ) ">
          <g>
            <line x1="18.517945142279586" y1="0.0" x2="18.517945142279586" y2="312.6666666666667" stroke="rgb(233,233,233)" stroke-opacity="1.0" stroke-width="1.0" fill="none">
            </line>
            <line x1="72.98248967839606" y1="0.0" x2="72.98248967839606" y2="312.6666666666667" stroke="rgb(233,233,233)" stroke-opacity="1.0" stroke-width="1.0" fill="none">
            </line>
            <line x1="127.44703421451251" y1="0.0" x2="127.44703421451251" y2="312.6666666666667" stroke="rgb(233,233,233)" stroke-opacity="1.0" stroke-width="1.0" fill="none">
            </line>
            <line x1="181.911578750629" y1="0.0" x2="181.911578750629" y2="312.6666666666667" stroke="rgb(233,233,233)" stroke-opacity="1.0" stroke-width="1.0" fill="none">
            </line>
            <line x1="236.37612328674547" y1="0.0" x2="236.37612328674547" y2="312.6666666666667" stroke="rgb(233,233,233)" stroke-opacity="1.0" stroke-width="1.0" fill="none">
            </line>
            <line x1="290.840667822862" y1="0.0" x2="290.840667822862" y2="312.6666666666667" stroke="rgb(233,233,233)" stroke-opacity="1.0" stroke-width="1.0" fill="none">
            </line>
            <line x1="345.30521235897845" y1="0.0" x2="345.30521235897845" y2="312.6666666666667" stroke="rgb(233,233,233)" stroke-opacity="1.0" stroke-width="1.0" fill="none">
            </line>
            <line x1="399.7697568950948" y1="0.0" x2="399.7697568950948" y2="312.6666666666667" stroke="rgb(233,233,233)" stroke-opacity="1.0" stroke-width="1.0" fill="none">
            </line>
            <line x1="454.2343014312113" y1="0.0" x2="454.2343014312113" y2="312.6666666666667" stroke="rgb(233,233,233)" stroke-opacity="1.0" stroke-width="1.0" fill="none">
            </line>
            <line x1="508.69884596732777" y1="0.0" x2="508.69884596732777" y2="312.6666666666667" stroke="rgb(233,233,233)" stroke-opacity="1.0" stroke-width="1.0" fill="none">
            </line>
            <line x1="563.1633905034442" y1="0.0" x2="563.1633905034442" y2="312.6666666666667" stroke="rgb(233,233,233)" stroke-opacity="1.0" stroke-width="1.0" fill="none">
            </line>
            <line x1="617.6279350395607" y1="0.0" x2="617.6279350395607" y2="312.6666666666667" stroke="rgb(233,233,233)" stroke-opacity="1.0" stroke-width="1.0" fill="none">
            </line>
          </g>
        </g>
        <g transform="translate(21.961210910936405 0.0 ) ">
          <g>
            <line x1="0.0" y1="271.8068181818182" x2="647.0387890890636" y2="271.8068181818182" stroke="rgb(233,233,233)" stroke-opacity="1.0" stroke-width="1.0" fill="none">
            </line>
            <line x1="0.0" y1="227.3939393939394" x2="647.0387890890636" y2="227.3939393939394" stroke="rgb(233,233,233)" stroke-opacity="1.0" stroke-width="1.0" fill="none">
            </line>
            <line x1="0.0" y1="182.98106060606062" x2="647.0387890890636" y2="182.98106060606062" stroke="rgb(233,233,233)" stroke-opacity="1.0" stroke-width="1.0" fill="none">
            </line>
            <line x1="0.0" y1="138.5681818181818" x2="647.0387890890636" y2="138.5681818181818" stroke="rgb(233,233,233)" stroke-opacity="1.0" stroke-width="1.0" fill="none">
            </line>
            <line x1="0.0" y1="94.15530303030306" x2="647.0387890890636" y2="94.15530303030306" stroke="rgb(233,233,233)" stroke-opacity="1.0" stroke-width="1.0" fill="none">
            </line>
            <line x1="0.0" y1="49.74242424242425" x2="647.0387890890636" y2="49.74242424242425" stroke="rgb(233,233,233)" stroke-opacity="1.0" stroke-width="1.0" fill="none">
            </line>
            <line x1="0.0" y1="5.329545454545439" x2="647.0387890890636" y2="5.329545454545439" stroke="rgb(233,233,233)" stroke-opacity="1.0" stroke-width="1.0" fill="none">
            </line>
          </g>
        </g>
        <g transform="translate(21.961210910936405 312.6666666666667 ) ">
          <g transform="translate(18.517945142279586 0.0 ) ">
            <line stroke-width="1.0" stroke="rgb(71,71,71)" stroke-opacity="1.0" x2="0.0" y2="4.0">
            </line>
            <g transform="translate(0.0 7.0 ) ">
              <text class="axis-text-x" text-anchor="middle" dy="0.7em">
                <tspan>1.5</tspan>
              </text>
            </g>
          </g>
          <g transform="translate(72.98248967839606 0.0 ) ">
            <line stroke-width="1.0" stroke="rgb(71,71,71)" stroke-opacity="1.0" x2="0.0" y2="4.0">
            </line>
            <g transform="translate(0.0 7.0 ) ">
              <text class="axis-text-x" text-anchor="middle" dy="0.7em">
                <tspan>2.0</tspan>
              </text>
            </g>
          </g>
          <g transform="translate(127.44703421451251 0.0 ) ">
            <line stroke-width="1.0" stroke="rgb(71,71,71)" stroke-opacity="1.0" x2="0.0" y2="4.0">
            </line>
            <g transform="translate(0.0 7.0 ) ">
              <text class="axis-text-x" text-anchor="middle" dy="0.7em">
                <tspan>2.5</tspan>
              </text>
            </g>
          </g>
          <g transform="translate(181.911578750629 0.0 ) ">
            <line stroke-width="1.0" stroke="rgb(71,71,71)" stroke-opacity="1.0" x2="0.0" y2="4.0">
            </line>
            <g transform="translate(0.0 7.0 ) ">
              <text class="axis-text-x" text-anchor="middle" dy="0.7em">
                <tspan>3.0</tspan>
              </text>
            </g>
          </g>
          <g transform="translate(236.37612328674547 0.0 ) ">
            <line stroke-width="1.0" stroke="rgb(71,71,71)" stroke-opacity="1.0" x2="0.0" y2="4.0">
            </line>
            <g transform="translate(0.0 7.0 ) ">
              <text class="axis-text-x" text-anchor="middle" dy="0.7em">
                <tspan>3.5</tspan>
              </text>
            </g>
          </g>
          <g transform="translate(290.840667822862 0.0 ) ">
            <line stroke-width="1.0" stroke="rgb(71,71,71)" stroke-opacity="1.0" x2="0.0" y2="4.0">
            </line>
            <g transform="translate(0.0 7.0 ) ">
              <text class="axis-text-x" text-anchor="middle" dy="0.7em">
                <tspan>4.0</tspan>
              </text>
            </g>
          </g>
          <g transform="translate(345.30521235897845 0.0 ) ">
            <line stroke-width="1.0" stroke="rgb(71,71,71)" stroke-opacity="1.0" x2="0.0" y2="4.0">
            </line>
            <g transform="translate(0.0 7.0 ) ">
              <text class="axis-text-x" text-anchor="middle" dy="0.7em">
                <tspan>4.5</tspan>
              </text>
            </g>
          </g>
          <g transform="translate(399.7697568950948 0.0 ) ">
            <line stroke-width="1.0" stroke="rgb(71,71,71)" stroke-opacity="1.0" x2="0.0" y2="4.0">
            </line>
            <g transform="translate(0.0 7.0 ) ">
              <text class="axis-text-x" text-anchor="middle" dy="0.7em">
                <tspan>5.0</tspan>
              </text>
            </g>
          </g>
          <g transform="translate(454.2343014312113 0.0 ) ">
            <line stroke-width="1.0" stroke="rgb(71,71,71)" stroke-opacity="1.0" x2="0.0" y2="4.0">
            </line>
            <g transform="translate(0.0 7.0 ) ">
              <text class="axis-text-x" text-anchor="middle" dy="0.7em">
                <tspan>5.5</tspan>
              </text>
            </g>
          </g>
          <g transform="translate(508.69884596732777 0.0 ) ">
            <line stroke-width="1.0" stroke="rgb(71,71,71)" stroke-opacity="1.0" x2="0.0" y2="4.0">
            </line>
            <g transform="translate(0.0 7.0 ) ">
              <text class="axis-text-x" text-anchor="middle" dy="0.7em">
                <tspan>6.0</tspan>
              </text>
            </g>
          </g>
          <g transform="translate(563.1633905034442 0.0 ) ">
            <line stroke-width="1.0" stroke="rgb(71,71,71)" stroke-opacity="1.0" x2="0.0" y2="4.0">
            </line>
            <g transform="translate(0.0 7.0 ) ">
              <text class="axis-text-x" text-anchor="middle" dy="0.7em">
                <tspan>6.5</tspan>
              </text>
            </g>
          </g>
          <g transform="translate(617.6279350395607 0.0 ) ">
            <line stroke-width="1.0" stroke="rgb(71,71,71)" stroke-opacity="1.0" x2="0.0" y2="4.0">
            </line>
            <g transform="translate(0.0 7.0 ) ">
              <text class="axis-text-x" text-anchor="middle" dy="0.7em">
                <tspan>7.0</tspan>
              </text>
            </g>
          </g>
          <line x1="0.0" y1="0.0" x2="647.0387890890636" y2="0.0" stroke-width="1.0" stroke="rgb(71,71,71)" stroke-opacity="1.0">
          </line>
        </g>
        <g transform="translate(21.961210910936405 0.0 ) ">
          <g transform="translate(0.0 271.8068181818182 ) ">
            <g transform="translate(-3.0 0.0 ) ">
              <text class="axis-text-y" text-anchor="end" dy="0.35em">
                <tspan>15</tspan>
              </text>
            </g>
          </g>
          <g transform="translate(0.0 227.3939393939394 ) ">
            <g transform="translate(-3.0 0.0 ) ">
              <text class="axis-text-y" text-anchor="end" dy="0.35em">
                <tspan>20</tspan>
              </text>
            </g>
          </g>
          <g transform="translate(0.0 182.98106060606062 ) ">
            <g transform="translate(-3.0 0.0 ) ">
              <text class="axis-text-y" text-anchor="end" dy="0.35em">
                <tspan>25</tspan>
              </text>
            </g>
          </g>
          <g transform="translate(0.0 138.5681818181818 ) ">
            <g transform="translate(-3.0 0.0 ) ">
              <text class="axis-text-y" text-anchor="end" dy="0.35em">
                <tspan>30</tspan>
              </text>
            </g>
          </g>
          <g transform="translate(0.0 94.15530303030306 ) ">
            <g transform="translate(-3.0 0.0 ) ">
              <text class="axis-text-y" text-anchor="end" dy="0.35em">
                <tspan>35</tspan>
              </text>
            </g>
          </g>
          <g transform="translate(0.0 49.74242424242425 ) ">
            <g transform="translate(-3.0 0.0 ) ">
              <text class="axis-text-y" text-anchor="end" dy="0.35em">
                <tspan>40</tspan>
              </text>
            </g>
          </g>
          <g transform="translate(0.0 5.329545454545439 ) ">
            <g transform="translate(-3.0 0.0 ) ">
              <text class="axis-text-y" text-anchor="end" dy="0.35em">
                <tspan>45</tspan>
              </text>
            </g>
          </g>
        </g>
      </g>
      <g clip-path="url(#xXxprefixXx1)" clip-bounds-jfx="[rect (21.961210910936405, 0.0), (647.0387890890636, 312.6666666666667)]">
        <g transform="translate(21.961210910936405 0.0 ) ">
          <g>
            <g>
              <g>
                <g >
                  <circle fill="#29567d" stroke="#29567d" stroke-opacity="0.0" stroke-width="0.0" cx="51.19667186394949" cy="147.45075757575756" r="4.4" />
                  <circle fill="#306591" stroke="#306591" stroke-opacity="0.0" stroke-width="0.0" cx="51.19667186394949" cy="147.45075757575756" r="4.4" />
                  <circle fill="#2e608a" stroke="#2e608a" stroke-opacity="0.0" stroke-width="0.0" cx="72.98248967839606" cy="129.68560606060606" r="4.4" />
                  <circle fill="#306591" stroke="#306591" stroke-opacity="0.0" stroke-width="0.0" cx="72.98248967839606" cy="138.5681818181818" r="4.4" />
                  <circle fill="#244c6f" stroke="#244c6f" stroke-opacity="0.0" stroke-width="0.0" cx="160.1257609361824" cy="174.09848484848487" r="4.4" />
                  <circle fill="#29567d" stroke="#29567d" stroke-opacity="0.0" stroke-width="0.0" cx="160.1257609361824" cy="174.09848484848487" r="4.4" />
                  <circle fill="#29567d" stroke="#29567d" stroke-opacity="0.0" stroke-width="0.0" cx="192.80448765785232" cy="165.2159090909091" r="4.4" />
                  <path fill="#29567d" stroke="#29567d" stroke-opacity="0.0" stroke-width="0.0" d="M51.19667186394949 169.06339955237627 L51.19667186394949 169.06339955237627 L55.596671863949496 176.68442310567934 L46.79667186394949 176.68442310567934 Z" transform="rotate(0.0 51.19667186394949 174.09848484848487 ) " />
                  <path fill="#244c6f" stroke="#244c6f" stroke-opacity="0.0" stroke-width="0.0" d="M51.19667186394949 177.94597530995202 L51.19667186394949 177.94597530995202 L55.596671863949496 185.5669988632551 L46.79667186394949 185.5669988632551 Z" transform="rotate(0.0 51.19667186394949 182.98106060606062 ) " />
                  <path fill="#2e608a" stroke="#2e608a" stroke-opacity="0.0" stroke-width="0.0" d="M72.98248967839606 151.29824803722474 L72.98248967839606 151.29824803722474 L77.38248967839606 158.9192715905278 L68.58248967839606 158.9192715905278 Z" transform="rotate(0.0 72.98248967839606 156.33333333333334 ) " />
                  <path fill="#2b5b83" stroke="#2b5b83" stroke-opacity="0.0" stroke-width="0.0" d="M72.98248967839606 160.1808237948005 L72.98248967839606 160.1808237948005 L77.38248967839606 167.80184734810356 L68.58248967839606 167.80184734810356 Z" transform="rotate(0.0 72.98248967839606 165.2159090909091 ) " />
                  <path fill="#214769" stroke="#214769" stroke-opacity="0.0" stroke-width="0.0" d="M160.1257609361824 177.94597530995202 L160.1257609361824 177.94597530995202 L164.5257609361824 185.5669988632551 L155.72576093618238 185.5669988632551 Z" transform="rotate(0.0 160.1257609361824 182.98106060606062 ) " />
                  <path fill="#265176" stroke="#265176" stroke-opacity="0.0" stroke-width="0.0" d="M160.1257609361824 177.94597530995202 L160.1257609361824 177.94597530995202 L164.5257609361824 185.5669988632551 L155.72576093618238 185.5669988632551 Z" transform="rotate(0.0 160.1257609361824 182.98106060606062 ) " />
                  <path fill="#265176" stroke="#265176" stroke-opacity="0.0" stroke-width="0.0" d="M192.80448765785232 177.94597530995202 L192.80448765785232 177.94597530995202 L197.20448765785233 185.5669988632551 L188.40448765785231 185.5669988632551 Z" transform="rotate(0.0 192.80448765785232 182.98106060606062 ) " />
                  <path fill="#214769" stroke="#214769" stroke-opacity="0.0" stroke-width="0.0" d="M192.80448765785232 177.94597530995202 L192.80448765785232 177.94597530995202 L197.20448765785233 185.5669988632551 L188.40448765785231 185.5669988632551 Z" transform="rotate(0.0 192.80448765785232 182.98106060606062 ) " />
                  <path fill="#214769" stroke="#214769" stroke-opacity="0.0" stroke-width="0.0" d="M160.1257609361824 186.82855106752777 L160.1257609361824 186.82855106752777 L164.5257609361824 194.44957462083084 L155.72576093618238 194.44957462083084 Z" transform="rotate(0.0 160.1257609361824 191.86363636363637 ) " />
                  <path fill="#265176" stroke="#265176" stroke-opacity="0.0" stroke-width="0.0" d="M192.80448765785232 177.94597530995202 L192.80448765785232 177.94597530995202 L197.20448765785233 185.5669988632551 L188.40448765785231 185.5669988632551 Z" transform="rotate(0.0 192.80448765785232 182.98106060606062 ) " />
                  <path fill="#244c6f" stroke="#244c6f" stroke-opacity="0.0" stroke-width="0.0" d="M312.6264856373085 195.71112682510352 L312.6264856373085 195.71112682510352 L317.02648563730855 203.3321503784066 L308.22648563730854 203.3321503784066 Z" transform="rotate(0.0 312.6264856373085 200.74621212121212 ) " />
                  <rect fill="#1f4262" stroke="#1f4262" stroke-opacity="0.0" stroke-width="0.0" x="428.04848361676477" y="222.9939393939394" height="8.8" width="8.8" transform="rotate(0.0 432.44848361676475 227.3939393939394 ) " />
                  <rect fill="#18344f" stroke="#18344f" stroke-opacity="0.0" stroke-width="0.0" x="428.04848361676477" y="267.4068181818182" height="8.8" width="8.8" transform="rotate(0.0 432.44848361676475 271.8068181818182 ) " />
                  <rect fill="#1f4262" stroke="#1f4262" stroke-opacity="0.0" stroke-width="0.0" x="428.04848361676477" y="222.9939393939394" height="8.8" width="8.8" transform="rotate(0.0 432.44848361676475 227.3939393939394 ) " />
                  <rect fill="#1c3d5c" stroke="#1c3d5c" stroke-opacity="0.0" stroke-width="0.0" x="471.620119245658" y="249.64166666666668" height="8.8" width="8.8" transform="rotate(0.0 476.02011924565795 254.04166666666669 ) " />
                  <rect fill="#1a3955" stroke="#1a3955" stroke-opacity="0.0" stroke-width="0.0" x="504.2988459673278" y="249.64166666666668" height="8.8" width="8.8" transform="rotate(0.0 508.69884596732777 254.04166666666669 ) " />
                  <rect fill="#244c6f" stroke="#244c6f" stroke-opacity="0.0" stroke-width="0.0" x="471.620119245658" y="169.69848484848487" height="8.8" width="8.8" transform="rotate(0.0 476.02011924565795 174.09848484848487 ) " />
                  <rect fill="#214769" stroke="#214769" stroke-opacity="0.0" stroke-width="0.0" x="471.620119245658" y="196.34621212121212" height="8.8" width="8.8" transform="rotate(0.0 476.02011924565795 200.74621212121212 ) " />
                  <rect fill="#244c6f" stroke="#244c6f" stroke-opacity="0.0" stroke-width="0.0" x="526.0846637817745" y="169.69848484848487" height="8.8" width="8.8" transform="rotate(0.0 530.4846637817744 174.09848484848487 ) " />
                  <rect fill="#214769" stroke="#214769" stroke-opacity="0.0" stroke-width="0.0" x="526.0846637817745" y="178.58106060606062" height="8.8" width="8.8" transform="rotate(0.0 530.4846637817744 182.98106060606062 ) " />
                  <rect fill="#214769" stroke="#214769" stroke-opacity="0.0" stroke-width="0.0" x="613.2279350395607" y="187.46363636363637" height="8.8" width="8.8" transform="rotate(0.0 617.6279350395607 191.86363636363637 ) " />
                  <path fill="#1f4262" stroke="#1f4262" stroke-opacity="0.0" stroke-width="0.0" d="M432.44848361676475 231.24142985540655 L432.44848361676475 231.24142985540655 L436.8484836167648 238.86245340870963 L428.04848361676477 238.86245340870963 Z" transform="rotate(0.0 432.44848361676475 236.27651515151516 ) " />
                  <path fill="#18344f" stroke="#18344f" stroke-opacity="0.0" stroke-width="0.0" d="M432.44848361676475 275.6543086432854 L432.44848361676475 275.6543086432854 L436.8484836167648 283.2753321965884 L428.04848361676477 283.2753321965884 Z" transform="rotate(0.0 432.44848361676475 280.68939393939394 ) " />
                  <path fill="#18344f" stroke="#18344f" stroke-opacity="0.0" stroke-width="0.0" d="M476.02011924565795 266.77173288570964 L476.02011924565795 266.77173288570964 L480.420119245658 274.39275643901266 L471.620119245658 274.39275643901266 Z" transform="rotate(0.0 476.02011924565795 271.8068181818182 ) " />
                  <path fill="#1f4262" stroke="#1f4262" stroke-opacity="0.0" stroke-width="0.0" d="M563.1633905034442 249.00658137055808 L563.1633905034442 249.00658137055808 L567.5633905034442 256.62760492386116 L558.7633905034443 256.62760492386116 Z" transform="rotate(0.0 563.1633905034442 254.04166666666669 ) " />
                  <circle fill="#2b5b83" stroke="#2b5b83" stroke-opacity="0.0" stroke-width="0.0" cx="116.55412530728924" cy="165.2159090909091" r="4.4" />
                  <circle fill="#336a98" stroke="#336a98" stroke-opacity="0.0" stroke-width="0.0" cx="116.55412530728924" cy="138.5681818181818" r="4.4" />
                  <circle fill="#29567d" stroke="#29567d" stroke-opacity="0.0" stroke-width="0.0" cx="192.80448765785232" cy="174.09848484848487" r="4.4" />
                  <circle fill="#29567d" stroke="#29567d" stroke-opacity="0.0" stroke-width="0.0" cx="236.37612328674547" cy="147.45075757575756" r="4.4" />
                  <circle fill="#265176" stroke="#265176" stroke-opacity="0.0" stroke-width="0.0" cx="247.2690321939688" cy="174.09848484848487" r="4.4" />
                  <circle fill="#29567d" stroke="#29567d" stroke-opacity="0.0" stroke-width="0.0" cx="116.55412530728924" cy="191.86363636363637" r="4.4" />
                  <circle fill="#265176" stroke="#265176" stroke-opacity="0.0" stroke-width="0.0" cx="181.911578750629" cy="191.86363636363637" r="4.4" />
                  <circle fill="#244c6f" stroke="#244c6f" stroke-opacity="0.0" stroke-width="0.0" cx="214.59030547229887" cy="209.62878787878788" r="4.4" />
                  <circle fill="#244c6f" stroke="#244c6f" stroke-opacity="0.0" stroke-width="0.0" cx="214.59030547229887" cy="209.62878787878788" r="4.4" />
                  <circle fill="#265176" stroke="#265176" stroke-opacity="0.0" stroke-width="0.0" cx="214.59030547229887" cy="191.86363636363637" r="4.4" />
                  <circle fill="#265176" stroke="#265176" stroke-opacity="0.0" stroke-width="0.0" cx="214.59030547229887" cy="191.86363636363637" r="4.4" />
                  <circle fill="#18344f" stroke="#18344f" stroke-opacity="0.0" stroke-width="0.0" cx="214.59030547229887" cy="254.04166666666669" r="4.4" />
                  <circle fill="#214769" stroke="#214769" stroke-opacity="0.0" stroke-width="0.0" cx="269.0548500084153" cy="209.62878787878788" r="4.4" />
                  <circle fill="#214769" stroke="#214769" stroke-opacity="0.0" stroke-width="0.0" cx="269.0548500084153" cy="218.51136363636365" r="4.4" />
                  <circle fill="#244c6f" stroke="#244c6f" stroke-opacity="0.0" stroke-width="0.0" cx="269.0548500084153" cy="200.74621212121212" r="4.4" />
                  <circle fill="#244c6f" stroke="#244c6f" stroke-opacity="0.0" stroke-width="0.0" cx="290.840667822862" cy="200.74621212121212" r="4.4" />
                  <path fill="#214769" stroke="#214769" stroke-opacity="0.0" stroke-width="0.0" d="M258.16194110119204 231.24142985540655 L258.16194110119204 231.24142985540655 L262.561941101192 238.86245340870963 L253.76194110119204 238.86245340870963 Z" transform="rotate(0.0 258.16194110119204 236.27651515151516 ) " />
                  <path fill="#1f4262" stroke="#1f4262" stroke-opacity="0.0" stroke-width="0.0" d="M258.16194110119204 240.12400561298233 L258.16194110119204 240.12400561298233 L262.561941101192 247.7450291662854 L253.76194110119204 247.7450291662854 Z" transform="rotate(0.0 258.16194110119204 245.15909090909093 ) " />
                  <path fill="#1c3d5c" stroke="#1c3d5c" stroke-opacity="0.0" stroke-width="0.0" d="M279.9477589156386 249.00658137055808 L279.9477589156386 249.00658137055808 L284.3477589156386 256.62760492386116 L275.5477589156386 256.62760492386116 Z" transform="rotate(0.0 279.9477589156386 254.04166666666669 ) " />
                  <path fill="#1f4262" stroke="#1f4262" stroke-opacity="0.0" stroke-width="0.0" d="M279.9477589156386 249.00658137055808 L279.9477589156386 249.00658137055808 L284.3477589156386 256.62760492386116 L275.5477589156386 256.62760492386116 Z" transform="rotate(0.0 279.9477589156386 254.04166666666669 ) " />
                  <path fill="#1f4262" stroke="#1f4262" stroke-opacity="0.0" stroke-width="0.0" d="M367.091030173425 231.24142985540655 L367.091030173425 231.24142985540655 L371.49103017342503 238.86245340870963 L362.691030173425 238.86245340870963 Z" transform="rotate(0.0 367.091030173425 236.27651515151516 ) " />
                  <path fill="#1f4262" stroke="#1f4262" stroke-opacity="0.0" stroke-width="0.0" d="M367.091030173425 231.24142985540655 L367.091030173425 231.24142985540655 L371.49103017342503 238.86245340870963 L362.691030173425 238.86245340870963 Z" transform="rotate(0.0 367.091030173425 236.27651515151516 ) " />
                  <path fill="#132b43" stroke="#132b43" stroke-opacity="0.0" stroke-width="0.0" d="M367.091030173425 293.41946015843695 L367.091030173425 293.41946015843695 L371.49103017342503 301.04048371173997 L362.691030173425 301.04048371173997 Z" transform="rotate(0.0 367.091030173425 298.4545454545455 ) " />
                  <path fill="#18344f" stroke="#18344f" stroke-opacity="0.0" stroke-width="0.0" d="M421.5555747095415 249.00658137055808 L421.5555747095415 249.00658137055808 L425.9555747095415 256.62760492386116 L417.1555747095415 256.62760492386116 Z" transform="rotate(0.0 421.5555747095415 254.04166666666669 ) " />
                  <path fill="#18344f" stroke="#18344f" stroke-opacity="0.0" stroke-width="0.0" d="M421.5555747095415 266.77173288570964 L421.5555747095415 266.77173288570964 L425.9555747095415 274.39275643901266 L417.1555747095415 274.39275643901266 Z" transform="rotate(0.0 421.5555747095415 271.8068181818182 ) " />
                  <path fill="#1c3d5c" stroke="#1c3d5c" stroke-opacity="0.0" stroke-width="0.0" d="M279.9477589156386 249.00658137055808 L279.9477589156386 249.00658137055808 L284.3477589156386 256.62760492386116 L275.5477589156386 256.62760492386116 Z" transform="rotate(0.0 279.9477589156386 254.04166666666669 ) " />
                  <path fill="#1c3d5c" stroke="#1c3d5c" stroke-opacity="0.0" stroke-width="0.0" d="M367.091030173425 249.00658137055808 L367.091030173425 249.00658137055808 L371.49103017342503 256.62760492386116 L362.691030173425 256.62760492386116 Z" transform="rotate(0.0 367.091030173425 254.04166666666669 ) " />
                  <path fill="#132b43" stroke="#132b43" stroke-opacity="0.0" stroke-width="0.0" d="M367.091030173425 293.41946015843695 L367.091030173425 293.41946015843695 L371.49103017342503 301.04048371173997 L362.691030173425 301.04048371173997 Z" transform="rotate(0.0 367.091030173425 298.4545454545455 ) " />
                  <path fill="#1c3d5c" stroke="#1c3d5c" stroke-opacity="0.0" stroke-width="0.0" d="M367.091030173425 249.00658137055808 L367.091030173425 249.00658137055808 L371.49103017342503 256.62760492386116 L362.691030173425 256.62760492386116 Z" transform="rotate(0.0 367.091030173425 254.04166666666669 ) " />
                  <path fill="#18344f" stroke="#18344f" stroke-opacity="0.0" stroke-width="0.0" d="M421.5555747095415 257.8891571281339 L421.5555747095415 257.8891571281339 L425.9555747095415 265.5101806814369 L417.1555747095415 265.5101806814369 Z" transform="rotate(0.0 421.5555747095415 262.92424242424244 ) " />
                  <path fill="#1c3d5c" stroke="#1c3d5c" stroke-opacity="0.0" stroke-width="0.0" d="M476.02011924565795 240.12400561298233 L476.02011924565795 240.12400561298233 L480.420119245658 247.7450291662854 L471.620119245658 247.7450291662854 Z" transform="rotate(0.0 476.02011924565795 245.15909090909093 ) " />
                  <path fill="#18344f" stroke="#18344f" stroke-opacity="0.0" stroke-width="0.0" d="M497.8059370601045 266.77173288570964 L497.8059370601045 266.77173288570964 L502.20593706010453 274.39275643901266 L493.4059370601045 274.39275643901266 Z" transform="rotate(0.0 497.8059370601045 271.8068181818182 ) " />
                  <path fill="#1a3955" stroke="#1a3955" stroke-opacity="0.0" stroke-width="0.0" d="M367.091030173425 257.8891571281339 L367.091030173425 257.8891571281339 L371.49103017342503 265.5101806814369 L362.691030173425 265.5101806814369 Z" transform="rotate(0.0 367.091030173425 262.92424242424244 ) " />
                  <path fill="#132b43" stroke="#132b43" stroke-opacity="0.0" stroke-width="0.0" d="M367.091030173425 293.41946015843695 L367.091030173425 293.41946015843695 L371.49103017342503 301.04048371173997 L362.691030173425 301.04048371173997 Z" transform="rotate(0.0 367.091030173425 298.4545454545455 ) " />
                  <path fill="#1c3d5c" stroke="#1c3d5c" stroke-opacity="0.0" stroke-width="0.0" d="M367.091030173425 249.00658137055808 L367.091030173425 249.00658137055808 L371.49103017342503 256.62760492386116 L362.691030173425 256.62760492386116 Z" transform="rotate(0.0 367.091030173425 254.04166666666669 ) " />
                  <path fill="#1c3d5c" stroke="#1c3d5c" stroke-opacity="0.0" stroke-width="0.0" d="M367.091030173425 249.00658137055808 L367.091030173425 249.00658137055808 L371.49103017342503 256.62760492386116 L362.691030173425 256.62760492386116 Z" transform="rotate(0.0 367.091030173425 254.04166666666669 ) " />
                  <path fill="#1a3955" stroke="#1a3955" stroke-opacity="0.0" stroke-width="0.0" d="M367.091030173425 257.8891571281339 L367.091030173425 257.8891571281339 L371.49103017342503 265.5101806814369 L362.691030173425 265.5101806814369 Z" transform="rotate(0.0 367.091030173425 262.92424242424244 ) " />
                  <path fill="#132b43" stroke="#132b43" stroke-opacity="0.0" stroke-width="0.0" d="M367.091030173425 293.41946015843695 L367.091030173425 293.41946015843695 L371.49103017342503 301.04048371173997 L362.691030173425 301.04048371173997 Z" transform="rotate(0.0 367.091030173425 298.4545454545455 ) " />
                  <path fill="#18344f" stroke="#18344f" stroke-opacity="0.0" stroke-width="0.0" d="M421.5555747095415 266.77173288570964 L421.5555747095415 266.77173288570964 L425.9555747095415 274.39275643901266 L417.1555747095415 274.39275643901266 Z" transform="rotate(0.0 421.5555747095415 271.8068181818182 ) " />
                  <path fill="#18344f" stroke="#18344f" stroke-opacity="0.0" stroke-width="0.0" d="M421.5555747095415 257.8891571281339 L421.5555747095415 257.8891571281339 L425.9555747095415 265.5101806814369 L417.1555747095415 265.5101806814369 Z" transform="rotate(0.0 421.5555747095415 262.92424242424244 ) " />
                  <path fill="#1c3d5c" stroke="#1c3d5c" stroke-opacity="0.0" stroke-width="0.0" d="M476.02011924565795 249.00658137055808 L476.02011924565795 249.00658137055808 L480.420119245658 256.62760492386116 L471.620119245658 256.62760492386116 Z" transform="rotate(0.0 476.02011924565795 254.04166666666669 ) " />
                  <path fill="#18344f" stroke="#18344f" stroke-opacity="0.0" stroke-width="0.0" d="M497.8059370601045 266.77173288570964 L497.8059370601045 266.77173288570964 L502.20593706010453 274.39275643901266 L493.4059370601045 274.39275643901266 Z" transform="rotate(0.0 497.8059370601045 271.8068181818182 ) " />
                  <rect fill="#18344f" stroke="#18344f" stroke-opacity="0.0" stroke-width="0.0" x="351.79812126620175" y="249.64166666666668" height="8.8" width="8.8" transform="rotate(0.0 356.1981212662017 254.04166666666669 ) " />
                  <rect fill="#18344f" stroke="#18344f" stroke-opacity="0.0" stroke-width="0.0" x="438.94139252398804" y="249.64166666666668" height="8.8" width="8.8" transform="rotate(0.0 443.341392523988 254.04166666666669 ) " />
                  <rect fill="#1a3955" stroke="#1a3955" stroke-opacity="0.0" stroke-width="0.0" x="438.94139252398804" y="240.75909090909093" height="8.8" width="8.8" transform="rotate(0.0 443.341392523988 245.15909090909093 ) " />
                  <path fill="#1f4262" stroke="#1f4262" stroke-opacity="0.0" stroke-width="0.0" d="M290.840667822862 249.00658137055808 L290.840667822862 249.00658137055808 L295.240667822862 256.62760492386116 L286.440667822862 256.62760492386116 Z" transform="rotate(0.0 290.840667822862 254.04166666666669 ) " />
                  <path fill="#214769" stroke="#214769" stroke-opacity="0.0" stroke-width="0.0" d="M290.840667822862 231.24142985540655 L290.840667822862 231.24142985540655 L295.240667822862 238.86245340870963 L286.440667822862 238.86245340870963 Z" transform="rotate(0.0 290.840667822862 236.27651515151516 ) " />
                  <path fill="#1f4262" stroke="#1f4262" stroke-opacity="0.0" stroke-width="0.0" d="M290.840667822862 249.00658137055808 L290.840667822862 249.00658137055808 L295.240667822862 256.62760492386116 L286.440667822862 256.62760492386116 Z" transform="rotate(0.0 290.840667822862 254.04166666666669 ) " />
                  <path fill="#1c3d5c" stroke="#1c3d5c" stroke-opacity="0.0" stroke-width="0.0" d="M290.840667822862 231.24142985540655 L290.840667822862 231.24142985540655 L295.240667822862 238.86245340870963 L286.440667822862 238.86245340870963 Z" transform="rotate(0.0 290.840667822862 236.27651515151516 ) " />
                  <path fill="#1c3d5c" stroke="#1c3d5c" stroke-opacity="0.0" stroke-width="0.0" d="M356.1981212662017 231.24142985540655 L356.1981212662017 231.24142985540655 L360.59812126620176 238.86245340870963 L351.79812126620175 238.86245340870963 Z" transform="rotate(0.0 356.1981212662017 236.27651515151516 ) " />
                  <path fill="#1c3d5c" stroke="#1c3d5c" stroke-opacity="0.0" stroke-width="0.0" d="M399.7697568950948 249.00658137055808 L399.7697568950948 249.00658137055808 L404.16975689509485 256.62760492386116 L395.36975689509484 256.62760492386116 Z" transform="rotate(0.0 399.7697568950948 254.04166666666669 ) " />
                  <path fill="#1f4262" stroke="#1f4262" stroke-opacity="0.0" stroke-width="0.0" d="M312.6264856373085 249.00658137055808 L312.6264856373085 249.00658137055808 L317.02648563730855 256.62760492386116 L308.22648563730854 256.62760492386116 Z" transform="rotate(0.0 312.6264856373085 254.04166666666669 ) " />
                  <path fill="#1f4262" stroke="#1f4262" stroke-opacity="0.0" stroke-width="0.0" d="M312.6264856373085 249.00658137055808 L312.6264856373085 249.00658137055808 L317.02648563730855 256.62760492386116 L308.22648563730854 256.62760492386116 Z" transform="rotate(0.0 312.6264856373085 254.04166666666669 ) " />
                  <path fill="#1c3d5c" stroke="#1c3d5c" stroke-opacity="0.0" stroke-width="0.0" d="M356.1981212662017 257.8891571281339 L356.1981212662017 257.8891571281339 L360.59812126620176 265.5101806814369 L351.79812126620175 265.5101806814369 Z" transform="rotate(0.0 356.1981212662017 262.92424242424244 ) " />
                  <path fill="#1c3d5c" stroke="#1c3d5c" stroke-opacity="0.0" stroke-width="0.0" d="M356.1981212662017 257.8891571281339 L356.1981212662017 257.8891571281339 L360.59812126620176 265.5101806814369 L351.79812126620175 265.5101806814369 Z" transform="rotate(0.0 356.1981212662017 262.92424242424244 ) " />
                  <path fill="#1c3d5c" stroke="#1c3d5c" stroke-opacity="0.0" stroke-width="0.0" d="M356.1981212662017 249.00658137055808 L356.1981212662017 249.00658137055808 L360.59812126620176 256.62760492386116 L351.79812126620175 256.62760492386116 Z" transform="rotate(0.0 356.1981212662017 254.04166666666669 ) " />
                  <path fill="#18344f" stroke="#18344f" stroke-opacity="0.0" stroke-width="0.0" d="M443.341392523988 266.77173288570964 L443.341392523988 266.77173288570964 L447.74139252398805 274.39275643901266 L438.94139252398804 274.39275643901266 Z" transform="rotate(0.0 443.341392523988 271.8068181818182 ) " />
                  <path fill="#1c3d5c" stroke="#1c3d5c" stroke-opacity="0.0" stroke-width="0.0" d="M443.341392523988 249.00658137055808 L443.341392523988 249.00658137055808 L447.74139252398805 256.62760492386116 L438.94139252398804 256.62760492386116 Z" transform="rotate(0.0 443.341392523988 254.04166666666669 ) " />
                  <rect fill="#29567d" stroke="#29567d" stroke-opacity="0.0" stroke-width="0.0" x="264.65485000841534" y="169.69848484848487" height="8.8" width="8.8" transform="rotate(0.0 269.0548500084153 174.09848484848487 ) " />
                  <rect fill="#29567d" stroke="#29567d" stroke-opacity="0.0" stroke-width="0.0" x="264.65485000841534" y="178.58106060606062" height="8.8" width="8.8" transform="rotate(0.0 269.0548500084153 182.98106060606062 ) " />
                  <rect fill="#265176" stroke="#265176" stroke-opacity="0.0" stroke-width="0.0" x="286.440667822862" y="169.69848484848487" height="8.8" width="8.8" transform="rotate(0.0 290.840667822862 174.09848484848487 ) " />
                  <rect fill="#244c6f" stroke="#244c6f" stroke-opacity="0.0" stroke-width="0.0" x="286.440667822862" y="187.46363636363637" height="8.8" width="8.8" transform="rotate(0.0 290.840667822862 191.86363636363637 ) " />
                  <rect fill="#214769" stroke="#214769" stroke-opacity="0.0" stroke-width="0.0" x="351.79812126620175" y="214.11136363636365" height="8.8" width="8.8" transform="rotate(0.0 356.1981212662017 218.51136363636365 ) " />
                  <rect fill="#214769" stroke="#214769" stroke-opacity="0.0" stroke-width="0.0" x="351.79812126620175" y="205.22878787878787" height="8.8" width="8.8" transform="rotate(0.0 356.1981212662017 209.62878787878788 ) " />
                  <rect fill="#214769" stroke="#214769" stroke-opacity="0.0" stroke-width="0.0" x="351.79812126620175" y="196.34621212121212" height="8.8" width="8.8" transform="rotate(0.0 356.1981212662017 200.74621212121212 ) " />
                  <rect fill="#214769" stroke="#214769" stroke-opacity="0.0" stroke-width="0.0" x="351.79812126620175" y="205.22878787878787" height="8.8" width="8.8" transform="rotate(0.0 356.1981212662017 209.62878787878788 ) " />
                  <rect fill="#1f4262" stroke="#1f4262" stroke-opacity="0.0" stroke-width="0.0" x="438.94139252398804" y="222.9939393939394" height="8.8" width="8.8" transform="rotate(0.0 443.341392523988 227.3939393939394 ) " />
                  <circle fill="#438ac3" stroke="#438ac3" stroke-opacity="0.0" stroke-width="0.0" cx="29.410854049502888" cy="111.92045454545456" r="4.4" />
                  <circle fill="#3875a6" stroke="#3875a6" stroke-opacity="0.0" stroke-width="0.0" cx="29.410854049502888" cy="120.80303030303031" r="4.4" />
                  <circle fill="#3b7aad" stroke="#3b7aad" stroke-opacity="0.0" stroke-width="0.0" cx="29.410854049502888" cy="120.80303030303031" r="4.4" />
                  <circle fill="#356f9f" stroke="#356f9f" stroke-opacity="0.0" stroke-width="0.0" cx="29.410854049502888" cy="147.45075757575756" r="4.4" />
                  <circle fill="#3875a6" stroke="#3875a6" stroke-opacity="0.0" stroke-width="0.0" cx="29.410854049502888" cy="120.80303030303031" r="4.4" />
                  <circle fill="#3d7fb4" stroke="#3d7fb4" stroke-opacity="0.0" stroke-width="0.0" cx="51.19667186394949" cy="103.03787878787881" r="4.4" />
                  <circle fill="#3b7aad" stroke="#3b7aad" stroke-opacity="0.0" stroke-width="0.0" cx="51.19667186394949" cy="85.27272727272731" r="4.4" />
                  <circle fill="#3875a6" stroke="#3875a6" stroke-opacity="0.0" stroke-width="0.0" cx="51.19667186394949" cy="85.27272727272731" r="4.4" />
                  <circle fill="#306591" stroke="#306591" stroke-opacity="0.0" stroke-width="0.0" cx="72.98248967839606" cy="147.45075757575756" r="4.4" />
                  <circle fill="#29567d" stroke="#29567d" stroke-opacity="0.0" stroke-width="0.0" cx="116.55412530728924" cy="174.09848484848487" r="4.4" />
                  <circle fill="#29567d" stroke="#29567d" stroke-opacity="0.0" stroke-width="0.0" cx="116.55412530728924" cy="165.2159090909091" r="4.4" />
                  <circle fill="#306591" stroke="#306591" stroke-opacity="0.0" stroke-width="0.0" cx="116.55412530728924" cy="138.5681818181818" r="4.4" />
                  <circle fill="#306591" stroke="#306591" stroke-opacity="0.0" stroke-width="0.0" cx="116.55412530728924" cy="129.68560606060606" r="4.4" />
                  <circle fill="#29567d" stroke="#29567d" stroke-opacity="0.0" stroke-width="0.0" cx="127.44703421451251" cy="174.09848484848487" r="4.4" />
                  <circle fill="#29567d" stroke="#29567d" stroke-opacity="0.0" stroke-width="0.0" cx="127.44703421451251" cy="174.09848484848487" r="4.4" />
                  <circle fill="#2b5b83" stroke="#2b5b83" stroke-opacity="0.0" stroke-width="0.0" cx="214.59030547229887" cy="156.33333333333334" r="4.4" />
                  <circle fill="#2b5b83" stroke="#2b5b83" stroke-opacity="0.0" stroke-width="0.0" cx="72.98248967839606" cy="174.09848484848487" r="4.4" />
                  <circle fill="#2b5b83" stroke="#2b5b83" stroke-opacity="0.0" stroke-width="0.0" cx="72.98248967839606" cy="147.45075757575756" r="4.4" />
                  <circle fill="#2e608a" stroke="#2e608a" stroke-opacity="0.0" stroke-width="0.0" cx="72.98248967839606" cy="156.33333333333334" r="4.4" />
                  <circle fill="#2e608a" stroke="#2e608a" stroke-opacity="0.0" stroke-width="0.0" cx="72.98248967839606" cy="165.2159090909091" r="4.4" />
                  <circle fill="#265176" stroke="#265176" stroke-opacity="0.0" stroke-width="0.0" cx="149.23285202895912" cy="191.86363636363637" r="4.4" />
                  <circle fill="#244c6f" stroke="#244c6f" stroke-opacity="0.0" stroke-width="0.0" cx="149.23285202895912" cy="191.86363636363637" r="4.4" />
                  <circle fill="#265176" stroke="#265176" stroke-opacity="0.0" stroke-width="0.0" cx="149.23285202895912" cy="191.86363636363637" r="4.4" />
                  <path fill="#265176" stroke="#265176" stroke-opacity="0.0" stroke-width="0.0" d="M181.911578750629 204.59370258267927 L181.911578750629 204.59370258267927 L186.311578750629 212.21472613598235 L177.51157875062898 212.21472613598235 Z" transform="rotate(0.0 181.911578750629 209.62878787878788 ) " />
                  <path fill="#214769" stroke="#214769" stroke-opacity="0.0" stroke-width="0.0" d="M258.16194110119204 231.24142985540655 L258.16194110119204 231.24142985540655 L262.561941101192 238.86245340870963 L253.76194110119204 238.86245340870963 Z" transform="rotate(0.0 258.16194110119204 236.27651515151516 ) " />
                  <path fill="#214769" stroke="#214769" stroke-opacity="0.0" stroke-width="0.0" d="M290.840667822862 222.3588540978308 L290.840667822862 222.3588540978308 L295.240667822862 229.97987765113388 L286.440667822862 229.97987765113388 Z" transform="rotate(0.0 290.840667822862 227.3939393939394 ) " />
                  <path fill="#1f4262" stroke="#1f4262" stroke-opacity="0.0" stroke-width="0.0" d="M367.091030173425 249.00658137055808 L367.091030173425 249.00658137055808 L371.49103017342503 256.62760492386116 L362.691030173425 256.62760492386116 Z" transform="rotate(0.0 367.091030173425 254.04166666666669 ) " />
                  <path fill="#132b43" stroke="#132b43" stroke-opacity="0.0" stroke-width="0.0" d="M367.091030173425 293.41946015843695 L367.091030173425 293.41946015843695 L371.49103017342503 301.04048371173997 L362.691030173425 301.04048371173997 Z" transform="rotate(0.0 367.091030173425 298.4545454545455 ) " />
                  <path fill="#1f4262" stroke="#1f4262" stroke-opacity="0.0" stroke-width="0.0" d="M367.091030173425 231.24142985540655 L367.091030173425 231.24142985540655 L371.49103017342503 238.86245340870963 L362.691030173425 238.86245340870963 Z" transform="rotate(0.0 367.091030173425 236.27651515151516 ) " />
                  <path fill="#1c3d5c" stroke="#1c3d5c" stroke-opacity="0.0" stroke-width="0.0" d="M476.02011924565795 240.12400561298233 L476.02011924565795 240.12400561298233 L480.420119245658 247.7450291662854 L471.620119245658 247.7450291662854 Z" transform="rotate(0.0 476.02011924565795 245.15909090909093 ) " />
                  <path fill="#18344f" stroke="#18344f" stroke-opacity="0.0" stroke-width="0.0" d="M519.591754874551 275.6543086432854 L519.591754874551 275.6543086432854 L523.991754874551 283.2753321965884 L515.1917548745511 283.2753321965884 Z" transform="rotate(0.0 519.591754874551 280.68939393939394 ) " />
                  <path fill="#18344f" stroke="#18344f" stroke-opacity="0.0" stroke-width="0.0" d="M290.840667822862 266.77173288570964 L290.840667822862 266.77173288570964 L295.240667822862 274.39275643901266 L286.440667822862 274.39275643901266 Z" transform="rotate(0.0 290.840667822862 271.8068181818182 ) " />
                  <path fill="#1a3955" stroke="#1a3955" stroke-opacity="0.0" stroke-width="0.0" d="M312.6264856373085 240.12400561298233 L312.6264856373085 240.12400561298233 L317.02648563730855 247.7450291662854 L308.22648563730854 247.7450291662854 Z" transform="rotate(0.0 312.6264856373085 245.15909090909093 ) " />
                  <path fill="#1a3955" stroke="#1a3955" stroke-opacity="0.0" stroke-width="0.0" d="M334.4123034517552 240.12400561298233 L334.4123034517552 240.12400561298233 L338.8123034517552 247.7450291662854 L330.0123034517552 247.7450291662854 Z" transform="rotate(0.0 334.4123034517552 245.15909090909093 ) " />
                  <path fill="#18344f" stroke="#18344f" stroke-opacity="0.0" stroke-width="0.0" d="M356.1981212662017 266.77173288570964 L356.1981212662017 266.77173288570964 L360.59812126620176 274.39275643901266 L351.79812126620175 274.39275643901266 Z" transform="rotate(0.0 356.1981212662017 271.8068181818182 ) " />
                  <rect fill="#18344f" stroke="#18344f" stroke-opacity="0.0" stroke-width="0.0" x="438.94139252398804" y="249.64166666666668" height="8.8" width="8.8" transform="rotate(0.0 443.341392523988 254.04166666666669 ) " />
                  <rect fill="#18344f" stroke="#18344f" stroke-opacity="0.0" stroke-width="0.0" x="438.94139252398804" y="258.52424242424246" height="8.8" width="8.8" transform="rotate(0.0 443.341392523988 262.92424242424244 ) " />
                  <rect fill="#1a3955" stroke="#1a3955" stroke-opacity="0.0" stroke-width="0.0" x="438.94139252398804" y="240.75909090909093" height="8.8" width="8.8" transform="rotate(0.0 443.341392523988 245.15909090909093 ) " />
                  <path fill="#1f4262" stroke="#1f4262" stroke-opacity="0.0" stroke-width="0.0" d="M290.840667822862 249.00658137055808 L290.840667822862 249.00658137055808 L295.240667822862 256.62760492386116 L286.440667822862 256.62760492386116 Z" transform="rotate(0.0 290.840667822862 254.04166666666669 ) " />
                  <path fill="#1c3d5c" stroke="#1c3d5c" stroke-opacity="0.0" stroke-width="0.0" d="M290.840667822862 231.24142985540655 L290.840667822862 231.24142985540655 L295.240667822862 238.86245340870963 L286.440667822862 238.86245340870963 Z" transform="rotate(0.0 290.840667822862 236.27651515151516 ) " />
                  <path fill="#1c3d5c" stroke="#1c3d5c" stroke-opacity="0.0" stroke-width="0.0" d="M356.1981212662017 231.24142985540655 L356.1981212662017 231.24142985540655 L360.59812126620176 238.86245340870963 L351.79812126620175 238.86245340870963 Z" transform="rotate(0.0 356.1981212662017 236.27651515151516 ) " />
                  <path fill="#1c3d5c" stroke="#1c3d5c" stroke-opacity="0.0" stroke-width="0.0" d="M399.7697568950948 249.00658137055808 L399.7697568950948 249.00658137055808 L404.16975689509485 256.62760492386116 L395.36975689509484 256.62760492386116 Z" transform="rotate(0.0 399.7697568950948 254.04166666666669 ) " />
                  <circle fill="#306591" stroke="#306591" stroke-opacity="0.0" stroke-width="0.0" cx="116.55412530728924" cy="147.45075757575756" r="4.4" />
                  <circle fill="#2b5b83" stroke="#2b5b83" stroke-opacity="0.0" stroke-width="0.0" cx="116.55412530728924" cy="165.2159090909091" r="4.4" />
                  <circle fill="#356f9f" stroke="#356f9f" stroke-opacity="0.0" stroke-width="0.0" cx="127.44703421451251" cy="129.68560606060606" r="4.4" />
                  <circle fill="#356f9f" stroke="#356f9f" stroke-opacity="0.0" stroke-width="0.0" cx="127.44703421451251" cy="120.80303030303031" r="4.4" />
                  <circle fill="#2b5b83" stroke="#2b5b83" stroke-opacity="0.0" stroke-width="0.0" cx="236.37612328674547" cy="165.2159090909091" r="4.4" />
                  <circle fill="#2b5b83" stroke="#2b5b83" stroke-opacity="0.0" stroke-width="0.0" cx="236.37612328674547" cy="174.09848484848487" r="4.4" />
                  <circle fill="#29567d" stroke="#29567d" stroke-opacity="0.0" stroke-width="0.0" cx="181.911578750629" cy="174.09848484848487" r="4.4" />
                  <circle fill="#2b5b83" stroke="#2b5b83" stroke-opacity="0.0" stroke-width="0.0" cx="181.911578750629" cy="182.98106060606062" r="4.4" />
                  <circle fill="#2b5b83" stroke="#2b5b83" stroke-opacity="0.0" stroke-width="0.0" cx="236.37612328674547" cy="182.98106060606062" r="4.4" />
                  <path fill="#1f4262" stroke="#1f4262" stroke-opacity="0.0" stroke-width="0.0" d="M214.59030547229887 249.00658137055808 L214.59030547229887 249.00658137055808 L218.99030547229887 256.62760492386116 L210.19030547229886 256.62760492386116 Z" transform="rotate(0.0 214.59030547229887 254.04166666666669 ) " />
                  <path fill="#214769" stroke="#214769" stroke-opacity="0.0" stroke-width="0.0" d="M214.59030547229887 249.00658137055808 L214.59030547229887 249.00658137055808 L218.99030547229887 256.62760492386116 L210.19030547229886 256.62760492386116 Z" transform="rotate(0.0 214.59030547229887 254.04166666666669 ) " />
                  <path fill="#1f4262" stroke="#1f4262" stroke-opacity="0.0" stroke-width="0.0" d="M290.840667822862 222.3588540978308 L290.840667822862 222.3588540978308 L295.240667822862 229.97987765113388 L286.440667822862 229.97987765113388 Z" transform="rotate(0.0 290.840667822862 227.3939393939394 ) " />
                  <path fill="#1a3955" stroke="#1a3955" stroke-opacity="0.0" stroke-width="0.0" d="M465.12721033843457 240.12400561298233 L465.12721033843457 240.12400561298233 L469.5272103384346 247.7450291662854 L460.7272103384346 247.7450291662854 Z" transform="rotate(0.0 465.12721033843457 245.15909090909093 ) " />
                  <circle fill="#29567d" stroke="#29567d" stroke-opacity="0.0" stroke-width="0.0" cx="192.80448765785232" cy="174.09848484848487" r="4.4" />
                  <circle fill="#244c6f" stroke="#244c6f" stroke-opacity="0.0" stroke-width="0.0" cx="269.0548500084153" cy="174.09848484848487" r="4.4" />
                  <circle fill="#265176" stroke="#265176" stroke-opacity="0.0" stroke-width="0.0" cx="269.0548500084153" cy="165.2159090909091" r="4.4" />
                  <circle fill="#29567d" stroke="#29567d" stroke-opacity="0.0" stroke-width="0.0" cx="269.0548500084153" cy="156.33333333333334" r="4.4" />
                  <circle fill="#244c6f" stroke="#244c6f" stroke-opacity="0.0" stroke-width="0.0" cx="432.44848361676475" cy="182.98106060606062" r="4.4" />
                  <path fill="#29567d" stroke="#29567d" stroke-opacity="0.0" stroke-width="0.0" d="M127.44703421451251 177.94597530995202 L127.44703421451251 177.94597530995202 L131.84703421451252 185.5669988632551 L123.04703421451251 185.5669988632551 Z" transform="rotate(0.0 127.44703421451251 182.98106060606062 ) " />
                  <path fill="#29567d" stroke="#29567d" stroke-opacity="0.0" stroke-width="0.0" d="M127.44703421451251 186.82855106752777 L127.44703421451251 186.82855106752777 L131.84703421451252 194.44957462083084 L123.04703421451251 194.44957462083084 Z" transform="rotate(0.0 127.44703421451251 191.86363636363637 ) " />
                  <path fill="#2e608a" stroke="#2e608a" stroke-opacity="0.0" stroke-width="0.0" d="M127.44703421451251 160.1808237948005 L127.44703421451251 160.1808237948005 L131.84703421451252 167.80184734810356 L123.04703421451251 167.80184734810356 Z" transform="rotate(0.0 127.44703421451251 165.2159090909091 ) " />
                  <path fill="#2b5b83" stroke="#2b5b83" stroke-opacity="0.0" stroke-width="0.0" d="M127.44703421451251 177.94597530995202 L127.44703421451251 177.94597530995202 L131.84703421451252 185.5669988632551 L123.04703421451251 185.5669988632551 Z" transform="rotate(0.0 127.44703421451251 182.98106060606062 ) " />
                  <path fill="#2e608a" stroke="#2e608a" stroke-opacity="0.0" stroke-width="0.0" d="M127.44703421451251 169.06339955237627 L127.44703421451251 169.06339955237627 L131.84703421451252 176.68442310567934 L123.04703421451251 176.68442310567934 Z" transform="rotate(0.0 127.44703421451251 174.09848484848487 ) " />
                  <path fill="#29567d" stroke="#29567d" stroke-opacity="0.0" stroke-width="0.0" d="M127.44703421451251 195.71112682510352 L127.44703421451251 195.71112682510352 L131.84703421451252 203.3321503784066 L123.04703421451251 203.3321503784066 Z" transform="rotate(0.0 127.44703421451251 200.74621212121212 ) " />
                  <path fill="#306591" stroke="#306591" stroke-opacity="0.0" stroke-width="0.0" d="M94.76830749284267 169.06339955237627 L94.76830749284267 169.06339955237627 L99.16830749284266 176.68442310567934 L90.36830749284266 176.68442310567934 Z" transform="rotate(0.0 94.76830749284267 174.09848484848487 ) " />
                  <path fill="#2b5b83" stroke="#2b5b83" stroke-opacity="0.0" stroke-width="0.0" d="M94.76830749284267 169.06339955237627 L94.76830749284267 169.06339955237627 L99.16830749284266 176.68442310567934 L90.36830749284266 176.68442310567934 Z" transform="rotate(0.0 94.76830749284267 174.09848484848487 ) " />
                  <path fill="#2b5b83" stroke="#2b5b83" stroke-opacity="0.0" stroke-width="0.0" d="M127.44703421451251 169.06339955237627 L127.44703421451251 169.06339955237627 L131.84703421451252 176.68442310567934 L123.04703421451251 176.68442310567934 Z" transform="rotate(0.0 127.44703421451251 174.09848484848487 ) " />
                  <path fill="#2b5b83" stroke="#2b5b83" stroke-opacity="0.0" stroke-width="0.0" d="M127.44703421451251 169.06339955237627 L127.44703421451251 169.06339955237627 L131.84703421451252 176.68442310567934 L123.04703421451251 176.68442310567934 Z" transform="rotate(0.0 127.44703421451251 174.09848484848487 ) " />
                  <path fill="#2e608a" stroke="#2e608a" stroke-opacity="0.0" stroke-width="0.0" d="M127.44703421451251 177.94597530995202 L127.44703421451251 177.94597530995202 L131.84703421451252 185.5669988632551 L123.04703421451251 185.5669988632551 Z" transform="rotate(0.0 127.44703421451251 182.98106060606062 ) " />
                  <path fill="#2e608a" stroke="#2e608a" stroke-opacity="0.0" stroke-width="0.0" d="M127.44703421451251 160.1808237948005 L127.44703421451251 160.1808237948005 L131.84703421451252 167.80184734810356 L123.04703421451251 167.80184734810356 Z" transform="rotate(0.0 127.44703421451251 165.2159090909091 ) " />
                  <path fill="#2b5b83" stroke="#2b5b83" stroke-opacity="0.0" stroke-width="0.0" d="M127.44703421451251 177.94597530995202 L127.44703421451251 177.94597530995202 L131.84703421451252 185.5669988632551 L123.04703421451251 185.5669988632551 Z" transform="rotate(0.0 127.44703421451251 182.98106060606062 ) " />
                  <path fill="#2e608a" stroke="#2e608a" stroke-opacity="0.0" stroke-width="0.0" d="M127.44703421451251 160.1808237948005 L127.44703421451251 160.1808237948005 L131.84703421451252 167.80184734810356 L123.04703421451251 167.80184734810356 Z" transform="rotate(0.0 127.44703421451251 165.2159090909091 ) " />
                  <path fill="#214769" stroke="#214769" stroke-opacity="0.0" stroke-width="0.0" d="M149.23285202895912 222.3588540978308 L149.23285202895912 222.3588540978308 L153.63285202895912 229.97987765113388 L144.8328520289591 229.97987765113388 Z" transform="rotate(0.0 149.23285202895912 227.3939393939394 ) " />
                  <path fill="#244c6f" stroke="#244c6f" stroke-opacity="0.0" stroke-width="0.0" d="M149.23285202895912 222.3588540978308 L149.23285202895912 222.3588540978308 L153.63285202895912 229.97987765113388 L144.8328520289591 229.97987765113388 Z" transform="rotate(0.0 149.23285202895912 227.3939393939394 ) " />
                  <path fill="#214769" stroke="#214769" stroke-opacity="0.0" stroke-width="0.0" d="M225.4832143795222 231.24142985540655 L225.4832143795222 231.24142985540655 L229.8832143795222 238.86245340870963 L221.0832143795222 238.86245340870963 Z" transform="rotate(0.0 225.4832143795222 236.27651515151516 ) " />
                  <path fill="#214769" stroke="#214769" stroke-opacity="0.0" stroke-width="0.0" d="M225.4832143795222 249.00658137055808 L225.4832143795222 249.00658137055808 L229.8832143795222 256.62760492386116 L221.0832143795222 256.62760492386116 Z" transform="rotate(0.0 225.4832143795222 254.04166666666669 ) " />
                  <path fill="#244c6f" stroke="#244c6f" stroke-opacity="0.0" stroke-width="0.0" d="M290.840667822862 222.3588540978308 L290.840667822862 222.3588540978308 L295.240667822862 229.97987765113388 L286.440667822862 229.97987765113388 Z" transform="rotate(0.0 290.840667822862 227.3939393939394 ) " />
                  <path fill="#1f4262" stroke="#1f4262" stroke-opacity="0.0" stroke-width="0.0" d="M367.091030173425 249.00658137055808 L367.091030173425 249.00658137055808 L371.49103017342503 256.62760492386116 L362.691030173425 256.62760492386116 Z" transform="rotate(0.0 367.091030173425 254.04166666666669 ) " />
                  <circle fill="#306591" stroke="#306591" stroke-opacity="0.0" stroke-width="0.0" cx="94.76830749284267" cy="147.45075757575756" r="4.4" />
                  <circle fill="#306591" stroke="#306591" stroke-opacity="0.0" stroke-width="0.0" cx="94.76830749284267" cy="165.2159090909091" r="4.4" />
                  <circle fill="#306591" stroke="#306591" stroke-opacity="0.0" stroke-width="0.0" cx="116.55412530728924" cy="129.68560606060606" r="4.4" />
                  <circle fill="#306591" stroke="#306591" stroke-opacity="0.0" stroke-width="0.0" cx="116.55412530728924" cy="129.68560606060606" r="4.4" />
                  <circle fill="#29567d" stroke="#29567d" stroke-opacity="0.0" stroke-width="0.0" cx="181.911578750629" cy="174.09848484848487" r="4.4" />
                  <circle fill="#29567d" stroke="#29567d" stroke-opacity="0.0" stroke-width="0.0" cx="181.911578750629" cy="174.09848484848487" r="4.4" />
                  <circle fill="#2b5b83" stroke="#2b5b83" stroke-opacity="0.0" stroke-width="0.0" cx="236.37612328674547" cy="156.33333333333334" r="4.4" />
                  <circle fill="#306591" stroke="#306591" stroke-opacity="0.0" stroke-width="0.0" cx="94.76830749284267" cy="165.2159090909091" r="4.4" />
                  <circle fill="#306591" stroke="#306591" stroke-opacity="0.0" stroke-width="0.0" cx="94.76830749284267" cy="147.45075757575756" r="4.4" />
                  <circle fill="#306591" stroke="#306591" stroke-opacity="0.0" stroke-width="0.0" cx="116.55412530728924" cy="129.68560606060606" r="4.4" />
                  <circle fill="#336a98" stroke="#336a98" stroke-opacity="0.0" stroke-width="0.0" cx="116.55412530728924" cy="129.68560606060606" r="4.4" />
                  <circle fill="#29567d" stroke="#29567d" stroke-opacity="0.0" stroke-width="0.0" cx="181.911578750629" cy="174.09848484848487" r="4.4" />
                  <circle fill="#29567d" stroke="#29567d" stroke-opacity="0.0" stroke-width="0.0" cx="181.911578750629" cy="174.09848484848487" r="4.4" />
                  <circle fill="#29567d" stroke="#29567d" stroke-opacity="0.0" stroke-width="0.0" cx="214.59030547229887" cy="165.2159090909091" r="4.4" />
                  <circle fill="#3875a6" stroke="#3875a6" stroke-opacity="0.0" stroke-width="0.0" cx="51.19667186394949" cy="138.5681818181818" r="4.4" />
                  <circle fill="#3875a6" stroke="#3875a6" stroke-opacity="0.0" stroke-width="0.0" cx="51.19667186394949" cy="111.92045454545456" r="4.4" />
                  <circle fill="#3d7fb4" stroke="#3d7fb4" stroke-opacity="0.0" stroke-width="0.0" cx="51.19667186394949" cy="94.15530303030306" r="4.4" />
                  <circle fill="#438ac3" stroke="#438ac3" stroke-opacity="0.0" stroke-width="0.0" cx="51.19667186394949" cy="76.3901515151515" r="4.4" />
                  <circle fill="#3d7fb4" stroke="#3d7fb4" stroke-opacity="0.0" stroke-width="0.0" cx="51.19667186394949" cy="94.15530303030306" r="4.4" />
                  <path fill="#18344f" stroke="#18344f" stroke-opacity="0.0" stroke-width="0.0" d="M367.091030173425 266.77173288570964 L367.091030173425 266.77173288570964 L371.49103017342503 274.39275643901266 L362.691030173425 274.39275643901266 Z" transform="rotate(0.0 367.091030173425 271.8068181818182 ) " />
                  <path fill="#1c3d5c" stroke="#1c3d5c" stroke-opacity="0.0" stroke-width="0.0" d="M476.02011924565795 240.12400561298233 L476.02011924565795 240.12400561298233 L480.420119245658 247.7450291662854 L471.620119245658 247.7450291662854 Z" transform="rotate(0.0 476.02011924565795 245.15909090909093 ) " />
                  <path fill="#214769" stroke="#214769" stroke-opacity="0.0" stroke-width="0.0" d="M149.23285202895912 222.3588540978308 L149.23285202895912 222.3588540978308 L153.63285202895912 229.97987765113388 L144.8328520289591 229.97987765113388 Z" transform="rotate(0.0 149.23285202895912 227.3939393939394 ) " />
                  <path fill="#244c6f" stroke="#244c6f" stroke-opacity="0.0" stroke-width="0.0" d="M149.23285202895912 222.3588540978308 L149.23285202895912 222.3588540978308 L153.63285202895912 229.97987765113388 L144.8328520289591 229.97987765113388 Z" transform="rotate(0.0 149.23285202895912 227.3939393939394 ) " />
                  <path fill="#265176" stroke="#265176" stroke-opacity="0.0" stroke-width="0.0" d="M149.23285202895912 204.59370258267927 L149.23285202895912 204.59370258267927 L153.63285202895912 212.21472613598235 L144.8328520289591 212.21472613598235 Z" transform="rotate(0.0 149.23285202895912 209.62878787878788 ) " />
                  <path fill="#214769" stroke="#214769" stroke-opacity="0.0" stroke-width="0.0" d="M225.4832143795222 249.00658137055808 L225.4832143795222 249.00658137055808 L229.8832143795222 256.62760492386116 L221.0832143795222 256.62760492386116 Z" transform="rotate(0.0 225.4832143795222 254.04166666666669 ) " />
                  <path fill="#214769" stroke="#214769" stroke-opacity="0.0" stroke-width="0.0" d="M225.4832143795222 231.24142985540655 L225.4832143795222 231.24142985540655 L229.8832143795222 238.86245340870963 L221.0832143795222 238.86245340870963 Z" transform="rotate(0.0 225.4832143795222 236.27651515151516 ) " />
                  <path fill="#214769" stroke="#214769" stroke-opacity="0.0" stroke-width="0.0" d="M290.840667822862 240.12400561298233 L290.840667822862 240.12400561298233 L295.240667822862 247.7450291662854 L286.440667822862 247.7450291662854 Z" transform="rotate(0.0 290.840667822862 245.15909090909093 ) " />
                  <path fill="#244c6f" stroke="#244c6f" stroke-opacity="0.0" stroke-width="0.0" d="M290.840667822862 222.3588540978308 L290.840667822862 222.3588540978308 L295.240667822862 229.97987765113388 L286.440667822862 229.97987765113388 Z" transform="rotate(0.0 290.840667822862 227.3939393939394 ) " />
                  <circle fill="#306591" stroke="#306591" stroke-opacity="0.0" stroke-width="0.0" cx="72.98248967839606" cy="147.45075757575756" r="4.4" />
                  <circle fill="#2b5b83" stroke="#2b5b83" stroke-opacity="0.0" stroke-width="0.0" cx="72.98248967839606" cy="174.09848484848487" r="4.4" />
                  <circle fill="#306591" stroke="#306591" stroke-opacity="0.0" stroke-width="0.0" cx="72.98248967839606" cy="147.45075757575756" r="4.4" />
                  <circle fill="#336a98" stroke="#336a98" stroke-opacity="0.0" stroke-width="0.0" cx="72.98248967839606" cy="147.45075757575756" r="4.4" />
                  <circle fill="#265176" stroke="#265176" stroke-opacity="0.0" stroke-width="0.0" cx="160.1257609361824" cy="191.86363636363637" r="4.4" />
                  <circle fill="#50a6e8" stroke="#50a6e8" stroke-opacity="0.0" stroke-width="0.0" cx="62.08958077117276" cy="14.21212121212119" r="4.4" />
                  <circle fill="#306591" stroke="#306591" stroke-opacity="0.0" stroke-width="0.0" cx="72.98248967839606" cy="147.45075757575756" r="4.4" />
                  <circle fill="#2b5b83" stroke="#2b5b83" stroke-opacity="0.0" stroke-width="0.0" cx="72.98248967839606" cy="174.09848484848487" r="4.4" />
                  <circle fill="#336a98" stroke="#336a98" stroke-opacity="0.0" stroke-width="0.0" cx="72.98248967839606" cy="147.45075757575756" r="4.4" />
                  <circle fill="#306591" stroke="#306591" stroke-opacity="0.0" stroke-width="0.0" cx="72.98248967839606" cy="147.45075757575756" r="4.4" />
                  <circle fill="#306591" stroke="#306591" stroke-opacity="0.0" stroke-width="0.0" cx="127.44703421451251" cy="147.45075757575756" r="4.4" />
                  <circle fill="#306591" stroke="#306591" stroke-opacity="0.0" stroke-width="0.0" cx="127.44703421451251" cy="147.45075757575756" r="4.4" />
                  <circle fill="#244c6f" stroke="#244c6f" stroke-opacity="0.0" stroke-width="0.0" cx="160.1257609361824" cy="200.74621212121212" r="4.4" />
                  <circle fill="#265176" stroke="#265176" stroke-opacity="0.0" stroke-width="0.0" cx="160.1257609361824" cy="191.86363636363637" r="4.4" />
                  <circle fill="#56b1f7" stroke="#56b1f7" stroke-opacity="0.0" stroke-width="0.0" cx="62.08958077117276" cy="14.21212121212119" r="4.4" />
                  <circle fill="#458fca" stroke="#458fca" stroke-opacity="0.0" stroke-width="0.0" cx="62.08958077117276" cy="40.8598484848485" r="4.4" />
                  <circle fill="#306591" stroke="#306591" stroke-opacity="0.0" stroke-width="0.0" cx="72.98248967839606" cy="147.45075757575756" r="4.4" />
                  <circle fill="#2b5b83" stroke="#2b5b83" stroke-opacity="0.0" stroke-width="0.0" cx="72.98248967839606" cy="174.09848484848487" r="4.4" />
                  <circle fill="#2e608a" stroke="#2e608a" stroke-opacity="0.0" stroke-width="0.0" cx="127.44703421451251" cy="156.33333333333334" r="4.4" />
                  <circle fill="#2e608a" stroke="#2e608a" stroke-opacity="0.0" stroke-width="0.0" cx="127.44703421451251" cy="147.45075757575756" r="4.4" />
                  <circle fill="#306591" stroke="#306591" stroke-opacity="0.0" stroke-width="0.0" cx="51.19667186394949" cy="147.45075757575756" r="4.4" />
                  <circle fill="#29567d" stroke="#29567d" stroke-opacity="0.0" stroke-width="0.0" cx="51.19667186394949" cy="147.45075757575756" r="4.4" />
                  <circle fill="#2b5b83" stroke="#2b5b83" stroke-opacity="0.0" stroke-width="0.0" cx="72.98248967839606" cy="156.33333333333334" r="4.4" />
                  <circle fill="#306591" stroke="#306591" stroke-opacity="0.0" stroke-width="0.0" cx="72.98248967839606" cy="147.45075757575756" r="4.4" />
                  <circle fill="#244c6f" stroke="#244c6f" stroke-opacity="0.0" stroke-width="0.0" cx="160.1257609361824" cy="174.09848484848487" r="4.4" />
                  <circle fill="#29567d" stroke="#29567d" stroke-opacity="0.0" stroke-width="0.0" cx="160.1257609361824" cy="174.09848484848487" r="4.4" />
                  <circle fill="#265176" stroke="#265176" stroke-opacity="0.0" stroke-width="0.0" cx="247.2690321939688" cy="174.09848484848487" r="4.4" />
                </g>
              </g>
            </g>
          </g>
        </g>
        <defs>
          <clipPath id="xXxprefixXx1">
            <rect x="21.961210910936405" y="0.0" width="647.0387890890636" height="312.6666666666667">
            </rect>
          </clipPath>
        </defs>
      </g>
      <g>
      </g>
    </g>
    <g transform="translate(16.0 162.83333333333334 ) rotate(-90.0 ) ">
      <text class="axis-title-y" y="0.0" text-anchor="middle">
        <tspan>hwy</tspan>
      </text>
    </g>
    <g transform="translate(374.9806054554682 364.6666666666667 ) ">
      <text class="axis-title-x" y="0.0" text-anchor="middle">
        <tspan>displ</tspan>
      </text>
    </g>
    <g transform="translate(262.586266910655 376.6666666666667 ) ">
      <rect x="0.0" y="0.0" height="50.33333333333333" width="224.78867708962633" stroke="rgb(71,71,71)" stroke-opacity="1.0" stroke-width="0.0" fill="rgb(255,255,255)" fill-opacity="1.0">
      </rect>
      <g transform="translate(5.0 5.0 ) ">
        <g transform="translate(0.0 24.666666666666664 ) ">
          <text class="legend-title" y="0.0">
            <tspan>City mileage</tspan>
          </text>
        </g>
        <g transform="translate(99.78867708962632 0.0 ) ">
          <g>
            <rect x="0.0" y="0.0" height="23.0" width="115.0" stroke-width="0.0" fill="rgb(20,46,71)" fill-opacity="1.0">
            </rect>
            <rect x="7.55" y="0.0" height="23.0" width="107.45" stroke-width="0.0" fill="rgb(24,52,79)" fill-opacity="1.0">
            </rect>
            <rect x="13.1" y="0.0" height="23.0" width="101.9" stroke-width="0.0" fill="rgb(27,58,87)" fill-opacity="1.0">
            </rect>
            <rect x="18.65" y="0.0" height="23.0" width="96.35" stroke-width="0.0" fill="rgb(30,64,95)" fill-opacity="1.0">
            </rect>
            <rect x="24.2" y="0.0" height="23.0" width="90.8" stroke-width="0.0" fill="rgb(33,70,104)" fill-opacity="1.0">
            </rect>
            <rect x="29.75" y="0.0" height="23.0" width="85.25" stroke-width="0.0" fill="rgb(36,77,112)" fill-opacity="1.0">
            </rect>
            <rect x="35.3" y="0.0" height="23.0" width="79.7" stroke-width="0.0" fill="rgb(39,83,121)" fill-opacity="1.0">
            </rect>
            <rect x="40.849999999999994" y="0.0" height="23.0" width="74.15" stroke-width="0.0" fill="rgb(42,90,130)" fill-opacity="1.0">
            </rect>
            <rect x="46.39999999999999" y="0.0" height="23.0" width="68.60000000000001" stroke-width="0.0" fill="rgb(46,96,138)" fill-opacity="1.0">
            </rect>
            <rect x="51.94999999999999" y="0.0" height="23.0" width="63.05000000000001" stroke-width="0.0" fill="rgb(49,103,147)" fill-opacity="1.0">
            </rect>
            <rect x="57.499999999999986" y="0.0" height="23.0" width="57.500000000000014" stroke-width="0.0" fill="rgb(52,110,156)" fill-opacity="1.0">
            </rect>
            <rect x="63.04999999999998" y="0.0" height="23.0" width="51.95000000000002" stroke-width="0.0" fill="rgb(56,116,166)" fill-opacity="1.0">
            </rect>
            <rect x="68.59999999999998" y="0.0" height="23.0" width="46.40000000000002" stroke-width="0.0" fill="rgb(59,123,175)" fill-opacity="1.0">
            </rect>
            <rect x="74.14999999999998" y="0.0" height="23.0" width="40.85000000000002" stroke-width="0.0" fill="rgb(63,130,184)" fill-opacity="1.0">
            </rect>
            <rect x="79.69999999999997" y="0.0" height="23.0" width="35.300000000000026" stroke-width="0.0" fill="rgb(66,137,194)" fill-opacity="1.0">
            </rect>
            <rect x="85.24999999999997" y="0.0" height="23.0" width="29.75000000000003" stroke-width="0.0" fill="rgb(70,144,203)" fill-opacity="1.0">
            </rect>
            <rect x="90.79999999999997" y="0.0" height="23.0" width="24.20000000000003" stroke-width="0.0" fill="rgb(73,151,213)" fill-opacity="1.0">
            </rect>
            <rect x="96.34999999999997" y="0.0" height="23.0" width="18.650000000000034" stroke-width="0.0" fill="rgb(77,159,222)" fill-opacity="1.0">
            </rect>
            <rect x="101.89999999999996" y="0.0" height="23.0" width="13.100000000000037" stroke-width="0.0" fill="rgb(81,166,232)" fill-opacity="1.0">
            </rect>
            <rect x="107.44999999999996" y="0.0" height="23.0" width="7.55000000000004" stroke-width="0.0" fill="rgb(84,173,242)" fill-opacity="1.0">
            </rect>
            <line x1="6.269230769230774" y1="0.0" x2="6.269230769230774" y2="4.6" stroke-width="1.0" stroke="rgb(255,255,255)" stroke-opacity="1.0">
            </line>
            <line x1="6.269230769230774" y1="18.4" x2="6.269230769230774" y2="23.0" stroke-width="1.0" stroke="rgb(255,255,255)" stroke-opacity="1.0">
            </line>
            <g transform="translate(6.269230769230774 36.43333333333333 ) ">
              <text class="legend-item" text-anchor="middle" y="0.0">
                <tspan>10</tspan>
              </text>
            </g>
            <line x1="27.615384615384613" y1="0.0" x2="27.615384615384613" y2="4.6" stroke-width="1.0" stroke="rgb(255,255,255)" stroke-opacity="1.0">
            </line>
            <line x1="27.615384615384613" y1="18.4" x2="27.615384615384613" y2="23.0" stroke-width="1.0" stroke="rgb(255,255,255)" stroke-opacity="1.0">
            </line>
            <g transform="translate(27.615384615384613 36.43333333333333 ) ">
              <text class="legend-item" text-anchor="middle" y="0.0">
                <tspan>15</tspan>
              </text>
            </g>
            <line x1="48.96153846153847" y1="0.0" x2="48.96153846153847" y2="4.6" stroke-width="1.0" stroke="rgb(255,255,255)" stroke-opacity="1.0">
            </line>
            <line x1="48.96153846153847" y1="18.4" x2="48.96153846153847" y2="23.0" stroke-width="1.0" stroke="rgb(255,255,255)" stroke-opacity="1.0">
            </line>
            <g transform="translate(48.96153846153847 36.43333333333333 ) ">
              <text class="legend-item" text-anchor="middle" y="0.0">
                <tspan>20</tspan>
              </text>
            </g>
            <line x1="70.3076923076923" y1="0.0" x2="70.3076923076923" y2="4.6" stroke-width="1.0" stroke="rgb(255,255,255)" stroke-opacity="1.0">
            </line>
            <line x1="70.3076923076923" y1="18.4" x2="70.3076923076923" y2="23.0" stroke-width="1.0" stroke="rgb(255,255,255)" stroke-opacity="1.0">
            </line>
            <g transform="translate(70.3076923076923 36.43333333333333 ) ">
              <text class="legend-item" text-anchor="middle" y="0.0">
                <tspan>25</tspan>
              </text>
            </g>
            <line x1="91.65384615384615" y1="0.0" x2="91.65384615384615" y2="4.6" stroke-width="1.0" stroke="rgb(255,255,255)" stroke-opacity="1.0">
            </line>
            <line x1="91.65384615384615" y1="18.4" x2="91.65384615384615" y2="23.0" stroke-width="1.0" stroke="rgb(255,255,255)" stroke-opacity="1.0">
            </line>
            <g transform="translate(91.65384615384615 36.43333333333333 ) ">
              <text class="legend-item" text-anchor="middle" y="0.0">
                <tspan>30</tspan>
              </text>
            </g>
            <line x1="113.00000000000001" y1="0.0" x2="113.00000000000001" y2="4.6" stroke-width="1.0" stroke="rgb(255,255,255)" stroke-opacity="1.0">
            </line>
            <line x1="113.00000000000001" y1="18.4" x2="113.00000000000001" y2="23.0" stroke-width="1.0" stroke="rgb(255,255,255)" stroke-opacity="1.0">
            </line>
            <g transform="translate(113.00000000000001 36.43333333333333 ) ">
              <text class="legend-item" text-anchor="middle" y="0.0">
                <tspan>35</tspan>
              </text>
            </g>
          </g>
        </g>
      </g>
    </g>
    <g transform="translate(262.586266910655 437.0 ) ">
      <rect x="0.0" y="0.0" height="33.0" width="215.6123890760267" stroke="rgb(71,71,71)" stroke-opacity="1.0" stroke-width="0.0" fill="rgb(255,255,255)" fill-opacity="1.0">
      </rect>
      <g transform="translate(5.0 5.0 ) ">
        <g transform="translate(0.0 16.0 ) ">
          <text class="legend-title" y="0.0">
            <tspan>Drive type</tspan>
          </text>
        </g>
        <g transform="translate(82.57207845226156 0.0 ) ">
          <g transform="">
            <g>
              <g transform="translate(1.0 1.0 ) ">
                <g>
                  <g >
                    <circle fill="#474747" stroke="#474747" stroke-opacity="0.0" stroke-width="0.0" cx="10.5" cy="10.5" r="5.5" />
                  </g>
                </g>
              </g>
            </g>
            <g transform="translate(26.9903027277341 16.05 ) ">
              <text class="legend-item" y="0.0">
                <tspan>f</tspan>
              </text>
            </g>
          </g>
          <g transform="translate(40.04439849254731 0.0 ) ">
            <g>
              <g transform="translate(1.0 1.0 ) ">
                <g>
                  <g >
                    <path fill="#474747" stroke="#474747" stroke-opacity="0.0" stroke-width="0.0" d="M10.5 5.736860279185588 L10.5 5.736860279185588 L16.0 15.263139720814412 L5.0 15.263139720814412 Z" transform="rotate(0.0 10.5 10.5 ) " />
                  </g>
                </g>
              </g>
            </g>
            <g transform="translate(26.9903027277341 16.05 ) ">
              <text class="legend-item" y="0.0">
                <tspan>4</tspan>
              </text>
            </g>
          </g>
          <g transform="translate(82.9959121312178 0.0 ) ">
            <g>
              <g transform="translate(1.0 1.0 ) ">
                <g>
                  <g >
                    <rect fill="#474747" stroke="#474747" stroke-opacity="0.0" stroke-width="0.0" x="5.0" y="5.0" height="11.0" width="11.0" transform="rotate(0.0 10.5 10.5 ) " />
                  </g>
                </g>
              </g>
            </g>
            <g transform="translate(26.9903027277341 16.05 ) ">
              <text class="legend-item" y="0.0">
                <tspan>r</tspan>
              </text>
            </g>
          </g>
        </g>
      </g>
    </g>
    <path fill="rgb(0,0,0)" fill-opacity="0.0" stroke="rgb(71,71,71)" stroke-opacity="1.0" stroke-width="0.0" d="M0.0 0.0 L0.0 470.0 L705.0 470.0 L705.0 0.0 Z" pointer-events="none">
    </path>
  </g>
  <g id="xXxprefixXx2">
  </g>
</svg>