<svg xmlns="http://www.w3.org/2000/svg" xmlns:xlink="http://www.w3.org/1999/xlink" display="block" class="plt-container" width="705.0" height="352.0">
  <style type="text/css">
  .plt-container {
   font-family: Lucida Grande, sans-serif;
   user-select: none;
   -webkit-user-select: none;
   -moz-user-select: none;
   -ms-user-select: none;
}
text {
   text-rendering: optimizeLegibility;
}
#xXxprefixXx0 .plot-title {
   fill: #bbbbbb;
   font-family: Lucida Grande, sans-serif;
   font-size: 16.0px;
   font-weight: normal;
   font-style: normal;   
}
#xXxprefixXx0 .plot-subtitle {
   fill: #bbbbbb;
   font-family: Lucida Grande, sans-serif;
   font-size: 15.0px;
   font-weight: normal;
   font-style: normal;   
}
#xXxprefixXx0 .plot-caption {
   fill: #bbbbbb;
   font-family: Lucida Grande, sans-serif;
   font-size: 13.0px;
   font-weight: normal;
   font-style: normal;   
}
#xXxprefixXx0 .legend-title {
   fill: #bbbbbb;
   font-family: Lucida Grande, sans-serif;
   font-size: 15.0px;
   font-weight: normal;
   font-style: normal;   
}
#xXxprefixXx0 .legend-item {
   fill: #bbbbbb;
   font-family: Lucida Grande, sans-serif;
   font-size: 13.0px;
   font-weight: normal;
   font-style: normal;   
}
#xXxprefixXx0 .axis-title-x {
   fill: #bbbbbb;
   font-family: Lucida Grande, sans-serif;
   font-size: 15.0px;
   font-weight: normal;
   font-style: normal;   
}
#xXxprefixXx0 .axis-text-x {
   fill: #bbbbbb;
   font-family: Lucida Grande, sans-serif;
   font-size: 13.0px;
   font-weight: normal;
   font-style: normal;   
}
#xXxprefixXx2 .axis-tooltip-text-x {
   fill: #303030;
   font-family: Lucida Grande, sans-serif;
   font-size: 13.0px;
   font-weight: normal;
   font-style: normal;   
}
#xXxprefixXx0 .axis-title-y {
   fill: #bbbbbb;
   font-family: Lucida Grande, sans-serif;
   font-size: 15.0px;
   font-weight: normal;
   font-style: normal;   
}
#xXxprefixXx0 .axis-text-y {
   fill: #bbbbbb;
   font-family: Lucida Grande, sans-serif;
   font-size: 13.0px;
   font-weight: normal;
   font-style: normal;   
}
#xXxprefixXx2 .axis-tooltip-text-y {
   fill: #303030;
   font-family: Lucida Grande, sans-serif;
   font-size: 13.0px;
   font-weight: normal;
   font-style: normal;   
}
#xXxprefixXx0 .facet-strip-text-x {
   fill: #bbbbbb;
   font-family: Lucida Grande, sans-serif;
   font-size: 13.0px;
   font-weight: normal;
   font-style: normal;   
}
#xXxprefixXx0 .facet-strip-text-y {
   fill: #bbbbbb;
   font-family: Lucida Grande, sans-serif;
   font-size: 13.0px;
   font-weight: normal;
   font-style: normal;   
}
#xXxprefixXx2 .tooltip-text {
   fill: #bbbbbb;
   font-family: Lucida Grande, sans-serif;
   font-size: 13.0px;
   font-weight: normal;
   font-style: normal;   
}
#xXxprefixXx2 .tooltip-title {
   fill: #bbbbbb;
   font-family: Lucida Grande, sans-serif;
   font-size: 13.0px;
   font-weight: bold;
   font-style: normal;   
}
#xXxprefixXx2 .tooltip-label {
   fill: #bbbbbb;
   font-family: Lucida Grande, sans-serif;
   font-size: 13.0px;
   font-weight: bold;
   font-style: normal;   
}

  </style>
  <g id="xXxprefixXx0">
    <path fill-rule="evenodd" fill="rgb(25,25,28)" fill-opacity="1.0" d="M0.0 0.0 L0.0 352.0 L705.0 352.0 L705.0 0.0 Z">
    </path>
    <g transform="translate(29.5 6.5 ) ">
      <g>
        <g transform="translate(21.961210910936405 0.0 ) ">
          <g>
            <line x1="65.88189807268745" y1="0.0" x2="65.88189807268745" y2="293.0" stroke="rgb(71,71,71)" stroke-opacity="1.0" stroke-width="1.0" fill="none">
            </line>
            <line x1="164.21308922595227" y1="0.0" x2="164.21308922595227" y2="293.0" stroke="rgb(71,71,71)" stroke-opacity="1.0" stroke-width="1.0" fill="none">
            </line>
            <line x1="262.5442803792171" y1="0.0" x2="262.5442803792171" y2="293.0" stroke="rgb(71,71,71)" stroke-opacity="1.0" stroke-width="1.0" fill="none">
            </line>
            <line x1="360.875471532482" y1="0.0" x2="360.875471532482" y2="293.0" stroke="rgb(71,71,71)" stroke-opacity="1.0" stroke-width="1.0" fill="none">
            </line>
            <line x1="459.2066626857468" y1="0.0" x2="459.2066626857468" y2="293.0" stroke="rgb(71,71,71)" stroke-opacity="1.0" stroke-width="1.0" fill="none">
            </line>
            <line x1="557.5378538390116" y1="0.0" x2="557.5378538390116" y2="293.0" stroke="rgb(71,71,71)" stroke-opacity="1.0" stroke-width="1.0" fill="none">
            </line>
          </g>
        </g>
        <g transform="translate(21.961210910936405 0.0 ) ">
          <g>
            <line x1="0.0" y1="254.7102272727273" x2="584.0872754503931" y2="254.7102272727273" stroke="rgb(71,71,71)" stroke-opacity="1.0" stroke-width="1.0" fill="none">
            </line>
            <line x1="0.0" y1="213.09090909090912" x2="584.0872754503931" y2="213.09090909090912" stroke="rgb(71,71,71)" stroke-opacity="1.0" stroke-width="1.0" fill="none">
            </line>
            <line x1="0.0" y1="171.47159090909093" x2="584.0872754503931" y2="171.47159090909093" stroke="rgb(71,71,71)" stroke-opacity="1.0" stroke-width="1.0" fill="none">
            </line>
            <line x1="0.0" y1="129.85227272727278" x2="584.0872754503931" y2="129.85227272727278" stroke="rgb(71,71,71)" stroke-opacity="1.0" stroke-width="1.0" fill="none">
            </line>
            <line x1="0.0" y1="88.23295454545462" x2="584.0872754503931" y2="88.23295454545462" stroke="rgb(71,71,71)" stroke-opacity="1.0" stroke-width="1.0" fill="none">
            </line>
            <line x1="0.0" y1="46.61363636363643" x2="584.0872754503931" y2="46.61363636363643" stroke="rgb(71,71,71)" stroke-opacity="1.0" stroke-width="1.0" fill="none">
            </line>
            <line x1="0.0" y1="4.994318181818244" x2="584.0872754503931" y2="4.994318181818244" stroke="rgb(71,71,71)" stroke-opacity="1.0" stroke-width="1.0" fill="none">
            </line>
          </g>
        </g>
        <g transform="translate(21.961210910936405 293.0 ) ">
          <g transform="translate(65.88189807268745 0.0 ) ">
            <line stroke-width="1.0" stroke="rgb(187,187,187)" stroke-opacity="1.0" x2="0.0" y2="4.0">
            </line>
            <g transform="translate(0.0 7.0 ) ">
              <text class="axis-text-x" text-anchor="middle" dy="0.7em">
                <tspan>2</tspan>
              </text>
            </g>
          </g>
          <g transform="translate(164.21308922595227 0.0 ) ">
            <line stroke-width="1.0" stroke="rgb(187,187,187)" stroke-opacity="1.0" x2="0.0" y2="4.0">
            </line>
            <g transform="translate(0.0 7.0 ) ">
              <text class="axis-text-x" text-anchor="middle" dy="0.7em">
                <tspan>3</tspan>
              </text>
            </g>
          </g>
          <g transform="translate(262.5442803792171 0.0 ) ">
            <line stroke-width="1.0" stroke="rgb(187,187,187)" stroke-opacity="1.0" x2="0.0" y2="4.0">
            </line>
            <g transform="translate(0.0 7.0 ) ">
              <text class="axis-text-x" text-anchor="middle" dy="0.7em">
                <tspan>4</tspan>
              </text>
            </g>
          </g>
          <g transform="translate(360.875471532482 0.0 ) ">
            <line stroke-width="1.0" stroke="rgb(187,187,187)" stroke-opacity="1.0" x2="0.0" y2="4.0">
            </line>
            <g transform="translate(0.0 7.0 ) ">
              <text class="axis-text-x" text-anchor="middle" dy="0.7em">
                <tspan>5</tspan>
              </text>
            </g>
          </g>
          <g transform="translate(459.2066626857468 0.0 ) ">
            <line stroke-width="1.0" stroke="rgb(187,187,187)" stroke-opacity="1.0" x2="0.0" y2="4.0">
            </line>
            <g transform="translate(0.0 7.0 ) ">
              <text class="axis-text-x" text-anchor="middle" dy="0.7em">
                <tspan>6</tspan>
              </text>
            </g>
          </g>
          <g transform="translate(557.5378538390116 0.0 ) ">
            <line stroke-width="1.0" stroke="rgb(187,187,187)" stroke-opacity="1.0" x2="0.0" y2="4.0">
            </line>
            <g transform="translate(0.0 7.0 ) ">
              <text class="axis-text-x" text-anchor="middle" dy="0.7em">
                <tspan>7</tspan>
              </text>
            </g>
          </g>
          <line x1="0.0" y1="0.0" x2="584.0872754503931" y2="0.0" stroke-width="1.0" stroke="rgb(187,187,187)" stroke-opacity="1.0">
          </line>
        </g>
        <g transform="translate(21.961210910936405 0.0 ) ">
          <g transform="translate(0.0 254.7102272727273 ) ">
            <g transform="translate(-3.0 0.0 ) ">
              <text class="axis-text-y" text-anchor="end" dy="0.35em">
                <tspan>15</tspan>
              </text>
            </g>
          </g>
          <g transform="translate(0.0 213.09090909090912 ) ">
            <g transform="translate(-3.0 0.0 ) ">
              <text class="axis-text-y" text-anchor="end" dy="0.35em">
                <tspan>20</tspan>
              </text>
            </g>
          </g>
          <g transform="translate(0.0 171.47159090909093 ) ">
            <g transform="translate(-3.0 0.0 ) ">
              <text class="axis-text-y" text-anchor="end" dy="0.35em">
                <tspan>25</tspan>
              </text>
            </g>
          </g>
          <g transform="translate(0.0 129.85227272727278 ) ">
            <g transform="translate(-3.0 0.0 ) ">
              <text class="axis-text-y" text-anchor="end" dy="0.35em">
                <tspan>30</tspan>
              </text>
            </g>
          </g>
          <g transform="translate(0.0 88.23295454545462 ) ">
            <g transform="translate(-3.0 0.0 ) ">
              <text class="axis-text-y" text-anchor="end" dy="0.35em">
                <tspan>35</tspan>
              </text>
            </g>
          </g>
          <g transform="translate(0.0 46.61363636363643 ) ">
            <g transform="translate(-3.0 0.0 ) ">
              <text class="axis-text-y" text-anchor="end" dy="0.35em">
                <tspan>40</tspan>
              </text>
            </g>
          </g>
          <g transform="translate(0.0 4.994318181818244 ) ">
            <g transform="translate(-3.0 0.0 ) ">
              <text class="axis-text-y" text-anchor="end" dy="0.35em">
                <tspan>45</tspan>
              </text>
            </g>
          </g>
        </g>
      </g>
      <g clip-path="url(#xXxprefixXx1)" clip-bounds-jfx="[rect (21.961210910936405, 0.0), (584.0872754503931, 293.0)]">
        <g transform="translate(21.961210910936405 0.0 ) ">
          <g>
            <g>
              <g>
                <g >
                  <circle fill="#29567d" stroke="#29567d" stroke-opacity="0.0" stroke-width="0.0" cx="46.21565984203448" cy="138.1761363636364" r="5.5" />
                  <circle fill="#306591" stroke="#306591" stroke-opacity="0.0" stroke-width="0.0" cx="46.21565984203448" cy="138.1761363636364" r="5.5" />
                  <circle fill="#2e608a" stroke="#2e608a" stroke-opacity="0.0" stroke-width="0.0" cx="65.88189807268745" cy="121.52840909090912" r="5.5" />
                  <circle fill="#306591" stroke="#306591" stroke-opacity="0.0" stroke-width="0.0" cx="65.88189807268745" cy="129.85227272727278" r="5.5" />
                  <circle fill="#244c6f" stroke="#244c6f" stroke-opacity="0.0" stroke-width="0.0" cx="144.54685099529928" cy="163.1477272727273" r="5.5" />
                  <circle fill="#29567d" stroke="#29567d" stroke-opacity="0.0" stroke-width="0.0" cx="144.54685099529928" cy="163.1477272727273" r="5.5" />
                  <circle fill="#29567d" stroke="#29567d" stroke-opacity="0.0" stroke-width="0.0" cx="174.04620834127877" cy="154.82386363636368" r="5.5" />
                  <path fill="#29567d" stroke="#29567d" stroke-opacity="0.0" stroke-width="0.0" d="M46.21565984203448 158.3845875519129 L46.21565984203448 158.3845875519129 L51.71565984203448 167.91086699354173 L40.71565984203448 167.91086699354173 Z" transform="rotate(0.0 46.21565984203448 163.1477272727273 ) " />
                  <path fill="#244c6f" stroke="#244c6f" stroke-opacity="0.0" stroke-width="0.0" d="M46.21565984203448 166.7084511882765 L46.21565984203448 166.7084511882765 L51.71565984203448 176.23473062990536 L40.71565984203448 176.23473062990536 Z" transform="rotate(0.0 46.21565984203448 171.47159090909093 ) " />
                  <path fill="#2e608a" stroke="#2e608a" stroke-opacity="0.0" stroke-width="0.0" d="M65.88189807268745 141.7368602791856 L65.88189807268745 141.7368602791856 L71.38189807268745 151.26313972081445 L60.38189807268745 151.26313972081445 Z" transform="rotate(0.0 65.88189807268745 146.50000000000003 ) " />
                  <path fill="#2b5b83" stroke="#2b5b83" stroke-opacity="0.0" stroke-width="0.0" d="M65.88189807268745 150.06072391554926 L65.88189807268745 150.06072391554926 L71.38189807268745 159.5870033571781 L60.38189807268745 159.5870033571781 Z" transform="rotate(0.0 65.88189807268745 154.82386363636368 ) " />
                  <path fill="#214769" stroke="#214769" stroke-opacity="0.0" stroke-width="0.0" d="M144.54685099529928 166.7084511882765 L144.54685099529928 166.7084511882765 L150.04685099529928 176.23473062990536 L139.04685099529928 176.23473062990536 Z" transform="rotate(0.0 144.54685099529928 171.47159090909093 ) " />
                  <path fill="#265176" stroke="#265176" stroke-opacity="0.0" stroke-width="0.0" d="M144.54685099529928 166.7084511882765 L144.54685099529928 166.7084511882765 L150.04685099529928 176.23473062990536 L139.04685099529928 176.23473062990536 Z" transform="rotate(0.0 144.54685099529928 171.47159090909093 ) " />
                  <path fill="#265176" stroke="#265176" stroke-opacity="0.0" stroke-width="0.0" d="M174.04620834127877 166.7084511882765 L174.04620834127877 166.7084511882765 L179.54620834127877 176.23473062990536 L168.54620834127877 176.23473062990536 Z" transform="rotate(0.0 174.04620834127877 171.47159090909093 ) " />
                  <path fill="#214769" stroke="#214769" stroke-opacity="0.0" stroke-width="0.0" d="M174.04620834127877 166.7084511882765 L174.04620834127877 166.7084511882765 L179.54620834127877 176.23473062990536 L168.54620834127877 176.23473062990536 Z" transform="rotate(0.0 174.04620834127877 171.47159090909093 ) " />
                  <path fill="#214769" stroke="#214769" stroke-opacity="0.0" stroke-width="0.0" d="M144.54685099529928 175.03231482464014 L144.54685099529928 175.03231482464014 L150.04685099529928 184.55859426626898 L139.04685099529928 184.55859426626898 Z" transform="rotate(0.0 144.54685099529928 179.79545454545456 ) " />
                  <path fill="#265176" stroke="#265176" stroke-opacity="0.0" stroke-width="0.0" d="M174.04620834127877 166.7084511882765 L174.04620834127877 166.7084511882765 L179.54620834127877 176.23473062990536 L168.54620834127877 176.23473062990536 Z" transform="rotate(0.0 174.04620834127877 171.47159090909093 ) " />
                  <path fill="#244c6f" stroke="#244c6f" stroke-opacity="0.0" stroke-width="0.0" d="M282.2105186098701 183.3561784610038 L282.2105186098701 183.3561784610038 L287.7105186098701 192.88245790263264 L276.7105186098701 192.88245790263264 Z" transform="rotate(0.0 282.2105186098701 188.11931818181822 ) " />
                  <rect fill="#1f4262" stroke="#1f4262" stroke-opacity="0.0" stroke-width="0.0" x="384.87482887846136" y="207.59090909090912" height="11.0" width="11.0" transform="rotate(0.0 390.37482887846136 213.09090909090912 ) " />
                  <rect fill="#18344f" stroke="#18344f" stroke-opacity="0.0" stroke-width="0.0" x="384.87482887846136" y="249.2102272727273" height="11.0" width="11.0" transform="rotate(0.0 390.37482887846136 254.7102272727273 ) " />
                  <rect fill="#1f4262" stroke="#1f4262" stroke-opacity="0.0" stroke-width="0.0" x="384.87482887846136" y="207.59090909090912" height="11.0" width="11.0" transform="rotate(0.0 390.37482887846136 213.09090909090912 ) " />
                  <rect fill="#1c3d5c" stroke="#1c3d5c" stroke-opacity="0.0" stroke-width="0.0" x="424.20730533976734" y="232.56250000000003" height="11.0" width="11.0" transform="rotate(0.0 429.70730533976734 238.06250000000003 ) " />
                  <rect fill="#1a3955" stroke="#1a3955" stroke-opacity="0.0" stroke-width="0.0" x="453.7066626857468" y="232.56250000000003" height="11.0" width="11.0" transform="rotate(0.0 459.2066626857468 238.06250000000003 ) " />
                  <rect fill="#244c6f" stroke="#244c6f" stroke-opacity="0.0" stroke-width="0.0" x="424.20730533976734" y="157.6477272727273" height="11.0" width="11.0" transform="rotate(0.0 429.70730533976734 163.1477272727273 ) " />
                  <rect fill="#214769" stroke="#214769" stroke-opacity="0.0" stroke-width="0.0" x="424.20730533976734" y="182.61931818181822" height="11.0" width="11.0" transform="rotate(0.0 429.70730533976734 188.11931818181822 ) " />
                  <rect fill="#244c6f" stroke="#244c6f" stroke-opacity="0.0" stroke-width="0.0" x="473.3729009163998" y="157.6477272727273" height="11.0" width="11.0" transform="rotate(0.0 478.8729009163998 163.1477272727273 ) " />
                  <rect fill="#214769" stroke="#214769" stroke-opacity="0.0" stroke-width="0.0" x="473.3729009163998" y="165.97159090909093" height="11.0" width="11.0" transform="rotate(0.0 478.8729009163998 171.47159090909093 ) " />
                  <rect fill="#214769" stroke="#214769" stroke-opacity="0.0" stroke-width="0.0" x="552.0378538390116" y="174.29545454545456" height="11.0" width="11.0" transform="rotate(0.0 557.5378538390116 179.79545454545456 ) " />
                  <path fill="#1f4262" stroke="#1f4262" stroke-opacity="0.0" stroke-width="0.0" d="M390.37482887846136 216.65163300645833 L390.37482887846136 216.65163300645833 L395.87482887846136 226.17791244808717 L384.87482887846136 226.17791244808717 Z" transform="rotate(0.0 390.37482887846136 221.41477272727275 ) " />
                  <path fill="#18344f" stroke="#18344f" stroke-opacity="0.0" stroke-width="0.0" d="M390.37482887846136 258.2709511882765 L390.37482887846136 258.2709511882765 L395.87482887846136 267.79723062990536 L384.87482887846136 267.79723062990536 Z" transform="rotate(0.0 390.37482887846136 263.03409090909093 ) " />
                  <path fill="#18344f" stroke="#18344f" stroke-opacity="0.0" stroke-width="0.0" d="M429.70730533976734 249.9470875519129 L429.70730533976734 249.9470875519129 L435.20730533976734 259.47336699354173 L424.20730533976734 259.47336699354173 Z" transform="rotate(0.0 429.70730533976734 254.7102272727273 ) " />
                  <path fill="#1f4262" stroke="#1f4262" stroke-opacity="0.0" stroke-width="0.0" d="M508.3722582623792 233.2993602791856 L508.3722582623792 233.2993602791856 L513.8722582623792 242.82563972081445 L502.8722582623792 242.82563972081445 Z" transform="rotate(0.0 508.3722582623792 238.06250000000003 ) " />
                  <circle fill="#2b5b83" stroke="#2b5b83" stroke-opacity="0.0" stroke-width="0.0" cx="105.21437453399338" cy="154.82386363636368" r="5.5" />
                  <circle fill="#336a98" stroke="#336a98" stroke-opacity="0.0" stroke-width="0.0" cx="105.21437453399338" cy="129.85227272727278" r="5.5" />
                  <circle fill="#29567d" stroke="#29567d" stroke-opacity="0.0" stroke-width="0.0" cx="174.04620834127877" cy="163.1477272727273" r="5.5" />
                  <circle fill="#29567d" stroke="#29567d" stroke-opacity="0.0" stroke-width="0.0" cx="213.3786848025847" cy="138.1761363636364" r="5.5" />
                  <circle fill="#265176" stroke="#265176" stroke-opacity="0.0" stroke-width="0.0" cx="223.2118039179112" cy="163.1477272727273" r="5.5" />
                  <circle fill="#29567d" stroke="#29567d" stroke-opacity="0.0" stroke-width="0.0" cx="105.21437453399338" cy="179.79545454545456" r="5.5" />
                  <circle fill="#265176" stroke="#265176" stroke-opacity="0.0" stroke-width="0.0" cx="164.21308922595227" cy="179.79545454545456" r="5.5" />
                  <circle fill="#244c6f" stroke="#244c6f" stroke-opacity="0.0" stroke-width="0.0" cx="193.7124465719317" cy="196.44318181818184" r="5.5" />
                  <circle fill="#244c6f" stroke="#244c6f" stroke-opacity="0.0" stroke-width="0.0" cx="193.7124465719317" cy="196.44318181818184" r="5.5" />
                  <circle fill="#265176" stroke="#265176" stroke-opacity="0.0" stroke-width="0.0" cx="193.7124465719317" cy="179.79545454545456" r="5.5" />
                  <circle fill="#265176" stroke="#265176" stroke-opacity="0.0" stroke-width="0.0" cx="193.7124465719317" cy="179.79545454545456" r="5.5" />
                  <circle fill="#18344f" stroke="#18344f" stroke-opacity="0.0" stroke-width="0.0" cx="193.7124465719317" cy="238.06250000000003" r="5.5" />
                  <circle fill="#214769" stroke="#214769" stroke-opacity="0.0" stroke-width="0.0" cx="242.87804214856413" cy="196.44318181818184" r="5.5" />
                  <circle fill="#214769" stroke="#214769" stroke-opacity="0.0" stroke-width="0.0" cx="242.87804214856413" cy="204.76704545454547" r="5.5" />
                  <circle fill="#244c6f" stroke="#244c6f" stroke-opacity="0.0" stroke-width="0.0" cx="242.87804214856413" cy="188.11931818181822" r="5.5" />
                  <circle fill="#244c6f" stroke="#244c6f" stroke-opacity="0.0" stroke-width="0.0" cx="262.5442803792171" cy="188.11931818181822" r="5.5" />
                  <path fill="#214769" stroke="#214769" stroke-opacity="0.0" stroke-width="0.0" d="M233.0449230332377 216.65163300645833 L233.0449230332377 216.65163300645833 L238.5449230332377 226.17791244808717 L227.5449230332377 226.17791244808717 Z" transform="rotate(0.0 233.0449230332377 221.41477272727275 ) " />
                  <path fill="#1f4262" stroke="#1f4262" stroke-opacity="0.0" stroke-width="0.0" d="M233.0449230332377 224.97549664282195 L233.0449230332377 224.97549664282195 L238.5449230332377 234.5017760844508 L227.5449230332377 234.5017760844508 Z" transform="rotate(0.0 233.0449230332377 229.73863636363637 ) " />
                  <path fill="#1c3d5c" stroke="#1c3d5c" stroke-opacity="0.0" stroke-width="0.0" d="M252.71116126389063 233.2993602791856 L252.71116126389063 233.2993602791856 L258.21116126389063 242.82563972081445 L247.21116126389063 242.82563972081445 Z" transform="rotate(0.0 252.71116126389063 238.06250000000003 ) " />
                  <path fill="#1f4262" stroke="#1f4262" stroke-opacity="0.0" stroke-width="0.0" d="M252.71116126389063 233.2993602791856 L252.71116126389063 233.2993602791856 L258.21116126389063 242.82563972081445 L247.21116126389063 242.82563972081445 Z" transform="rotate(0.0 252.71116126389063 238.06250000000003 ) " />
                  <path fill="#1f4262" stroke="#1f4262" stroke-opacity="0.0" stroke-width="0.0" d="M331.37611418650255 216.65163300645833 L331.37611418650255 216.65163300645833 L336.87611418650255 226.17791244808717 L325.87611418650255 226.17791244808717 Z" transform="rotate(0.0 331.37611418650255 221.41477272727275 ) " />
                  <path fill="#1f4262" stroke="#1f4262" stroke-opacity="0.0" stroke-width="0.0" d="M331.37611418650255 216.65163300645833 L331.37611418650255 216.65163300645833 L336.87611418650255 226.17791244808717 L325.87611418650255 226.17791244808717 Z" transform="rotate(0.0 331.37611418650255 221.41477272727275 ) " />
                  <path fill="#132b43" stroke="#132b43" stroke-opacity="0.0" stroke-width="0.0" d="M331.37611418650255 274.91867846100376 L331.37611418650255 274.91867846100376 L336.87611418650255 284.4449579026326 L325.87611418650255 284.4449579026326 Z" transform="rotate(0.0 331.37611418650255 279.6818181818182 ) " />
                  <path fill="#18344f" stroke="#18344f" stroke-opacity="0.0" stroke-width="0.0" d="M380.541709763135 233.2993602791856 L380.541709763135 233.2993602791856 L386.041709763135 242.82563972081445 L375.041709763135 242.82563972081445 Z" transform="rotate(0.0 380.541709763135 238.06250000000003 ) " />
                  <path fill="#18344f" stroke="#18344f" stroke-opacity="0.0" stroke-width="0.0" d="M380.541709763135 249.9470875519129 L380.541709763135 249.9470875519129 L386.041709763135 259.47336699354173 L375.041709763135 259.47336699354173 Z" transform="rotate(0.0 380.541709763135 254.7102272727273 ) " />
                  <path fill="#1c3d5c" stroke="#1c3d5c" stroke-opacity="0.0" stroke-width="0.0" d="M252.71116126389063 233.2993602791856 L252.71116126389063 233.2993602791856 L258.21116126389063 242.82563972081445 L247.21116126389063 242.82563972081445 Z" transform="rotate(0.0 252.71116126389063 238.06250000000003 ) " />
                  <path fill="#1c3d5c" stroke="#1c3d5c" stroke-opacity="0.0" stroke-width="0.0" d="M331.37611418650255 233.2993602791856 L331.37611418650255 233.2993602791856 L336.87611418650255 242.82563972081445 L325.87611418650255 242.82563972081445 Z" transform="rotate(0.0 331.37611418650255 238.06250000000003 ) " />
                  <path fill="#132b43" stroke="#132b43" stroke-opacity="0.0" stroke-width="0.0" d="M331.37611418650255 274.91867846100376 L331.37611418650255 274.91867846100376 L336.87611418650255 284.4449579026326 L325.87611418650255 284.4449579026326 Z" transform="rotate(0.0 331.37611418650255 279.6818181818182 ) " />
                  <path fill="#1c3d5c" stroke="#1c3d5c" stroke-opacity="0.0" stroke-width="0.0" d="M331.37611418650255 233.2993602791856 L331.37611418650255 233.2993602791856 L336.87611418650255 242.82563972081445 L325.87611418650255 242.82563972081445 Z" transform="rotate(0.0 331.37611418650255 238.06250000000003 ) " />
                  <path fill="#18344f" stroke="#18344f" stroke-opacity="0.0" stroke-width="0.0" d="M380.541709763135 241.62322391554923 L380.541709763135 241.62322391554923 L386.041709763135 251.14950335717808 L375.041709763135 251.14950335717808 Z" transform="rotate(0.0 380.541709763135 246.38636363636365 ) " />
                  <path fill="#1c3d5c" stroke="#1c3d5c" stroke-opacity="0.0" stroke-width="0.0" d="M429.70730533976734 224.97549664282195 L429.70730533976734 224.97549664282195 L435.20730533976734 234.5017760844508 L424.20730533976734 234.5017760844508 Z" transform="rotate(0.0 429.70730533976734 229.73863636363637 ) " />
                  <path fill="#18344f" stroke="#18344f" stroke-opacity="0.0" stroke-width="0.0" d="M449.37354357042034 249.9470875519129 L449.37354357042034 249.9470875519129 L454.87354357042034 259.47336699354173 L443.87354357042034 259.47336699354173 Z" transform="rotate(0.0 449.37354357042034 254.7102272727273 ) " />
                  <path fill="#1a3955" stroke="#1a3955" stroke-opacity="0.0" stroke-width="0.0" d="M331.37611418650255 241.62322391554923 L331.37611418650255 241.62322391554923 L336.87611418650255 251.14950335717808 L325.87611418650255 251.14950335717808 Z" transform="rotate(0.0 331.37611418650255 246.38636363636365 ) " />
                  <path fill="#132b43" stroke="#132b43" stroke-opacity="0.0" stroke-width="0.0" d="M331.37611418650255 274.91867846100376 L331.37611418650255 274.91867846100376 L336.87611418650255 284.4449579026326 L325.87611418650255 284.4449579026326 Z" transform="rotate(0.0 331.37611418650255 279.6818181818182 ) " />
                  <path fill="#1c3d5c" stroke="#1c3d5c" stroke-opacity="0.0" stroke-width="0.0" d="M331.37611418650255 233.2993602791856 L331.37611418650255 233.2993602791856 L336.87611418650255 242.82563972081445 L325.87611418650255 242.82563972081445 Z" transform="rotate(0.0 331.37611418650255 238.06250000000003 ) " />
                  <path fill="#1c3d5c" stroke="#1c3d5c" stroke-opacity="0.0" stroke-width="0.0" d="M331.37611418650255 233.2993602791856 L331.37611418650255 233.2993602791856 L336.87611418650255 242.82563972081445 L325.87611418650255 242.82563972081445 Z" transform="rotate(0.0 331.37611418650255 238.06250000000003 ) " />
                  <path fill="#1a3955" stroke="#1a3955" stroke-opacity="0.0" stroke-width="0.0" d="M331.37611418650255 241.62322391554923 L331.37611418650255 241.62322391554923 L336.87611418650255 251.14950335717808 L325.87611418650255 251.14950335717808 Z" transform="rotate(0.0 331.37611418650255 246.38636363636365 ) " />
                  <path fill="#132b43" stroke="#132b43" stroke-opacity="0.0" stroke-width="0.0" d="M331.37611418650255 274.91867846100376 L331.37611418650255 274.91867846100376 L336.87611418650255 284.4449579026326 L325.87611418650255 284.4449579026326 Z" transform="rotate(0.0 331.37611418650255 279.6818181818182 ) " />
                  <path fill="#18344f" stroke="#18344f" stroke-opacity="0.0" stroke-width="0.0" d="M380.541709763135 249.9470875519129 L380.541709763135 249.9470875519129 L386.041709763135 259.47336699354173 L375.041709763135 259.47336699354173 Z" transform="rotate(0.0 380.541709763135 254.7102272727273 ) " />
                  <path fill="#18344f" stroke="#18344f" stroke-opacity="0.0" stroke-width="0.0" d="M380.541709763135 241.62322391554923 L380.541709763135 241.62322391554923 L386.041709763135 251.14950335717808 L375.041709763135 251.14950335717808 Z" transform="rotate(0.0 380.541709763135 246.38636363636365 ) " />
                  <path fill="#1c3d5c" stroke="#1c3d5c" stroke-opacity="0.0" stroke-width="0.0" d="M429.70730533976734 233.2993602791856 L429.70730533976734 233.2993602791856 L435.20730533976734 242.82563972081445 L424.20730533976734 242.82563972081445 Z" transform="rotate(0.0 429.70730533976734 238.06250000000003 ) " />
                  <path fill="#18344f" stroke="#18344f" stroke-opacity="0.0" stroke-width="0.0" d="M449.37354357042034 249.9470875519129 L449.37354357042034 249.9470875519129 L454.87354357042034 259.47336699354173 L443.87354357042034 259.47336699354173 Z" transform="rotate(0.0 449.37354357042034 254.7102272727273 ) " />
                  <rect fill="#18344f" stroke="#18344f" stroke-opacity="0.0" stroke-width="0.0" x="316.042995071176" y="232.56250000000003" height="11.0" width="11.0" transform="rotate(0.0 321.542995071176 238.06250000000003 ) " />
                  <rect fill="#18344f" stroke="#18344f" stroke-opacity="0.0" stroke-width="0.0" x="394.7079479937879" y="232.56250000000003" height="11.0" width="11.0" transform="rotate(0.0 400.2079479937879 238.06250000000003 ) " />
                  <rect fill="#1a3955" stroke="#1a3955" stroke-opacity="0.0" stroke-width="0.0" x="394.7079479937879" y="224.23863636363637" height="11.0" width="11.0" transform="rotate(0.0 400.2079479937879 229.73863636363637 ) " />
                  <path fill="#1f4262" stroke="#1f4262" stroke-opacity="0.0" stroke-width="0.0" d="M262.5442803792171 233.2993602791856 L262.5442803792171 233.2993602791856 L268.0442803792171 242.82563972081445 L257.0442803792171 242.82563972081445 Z" transform="rotate(0.0 262.5442803792171 238.06250000000003 ) " />
                  <path fill="#214769" stroke="#214769" stroke-opacity="0.0" stroke-width="0.0" d="M262.5442803792171 216.65163300645833 L262.5442803792171 216.65163300645833 L268.0442803792171 226.17791244808717 L257.0442803792171 226.17791244808717 Z" transform="rotate(0.0 262.5442803792171 221.41477272727275 ) " />
                  <path fill="#1f4262" stroke="#1f4262" stroke-opacity="0.0" stroke-width="0.0" d="M262.5442803792171 233.2993602791856 L262.5442803792171 233.2993602791856 L268.0442803792171 242.82563972081445 L257.0442803792171 242.82563972081445 Z" transform="rotate(0.0 262.5442803792171 238.06250000000003 ) " />
                  <path fill="#1c3d5c" stroke="#1c3d5c" stroke-opacity="0.0" stroke-width="0.0" d="M262.5442803792171 216.65163300645833 L262.5442803792171 216.65163300645833 L268.0442803792171 226.17791244808717 L257.0442803792171 226.17791244808717 Z" transform="rotate(0.0 262.5442803792171 221.41477272727275 ) " />
                  <path fill="#1c3d5c" stroke="#1c3d5c" stroke-opacity="0.0" stroke-width="0.0" d="M321.542995071176 216.65163300645833 L321.542995071176 216.65163300645833 L327.042995071176 226.17791244808717 L316.042995071176 226.17791244808717 Z" transform="rotate(0.0 321.542995071176 221.41477272727275 ) " />
                  <path fill="#1c3d5c" stroke="#1c3d5c" stroke-opacity="0.0" stroke-width="0.0" d="M360.875471532482 233.2993602791856 L360.875471532482 233.2993602791856 L366.375471532482 242.82563972081445 L355.375471532482 242.82563972081445 Z" transform="rotate(0.0 360.875471532482 238.06250000000003 ) " />
                  <path fill="#1f4262" stroke="#1f4262" stroke-opacity="0.0" stroke-width="0.0" d="M282.2105186098701 233.2993602791856 L282.2105186098701 233.2993602791856 L287.7105186098701 242.82563972081445 L276.7105186098701 242.82563972081445 Z" transform="rotate(0.0 282.2105186098701 238.06250000000003 ) " />
                  <path fill="#1f4262" stroke="#1f4262" stroke-opacity="0.0" stroke-width="0.0" d="M282.2105186098701 233.2993602791856 L282.2105186098701 233.2993602791856 L287.7105186098701 242.82563972081445 L276.7105186098701 242.82563972081445 Z" transform="rotate(0.0 282.2105186098701 238.06250000000003 ) " />
                  <path fill="#1c3d5c" stroke="#1c3d5c" stroke-opacity="0.0" stroke-width="0.0" d="M321.542995071176 241.62322391554923 L321.542995071176 241.62322391554923 L327.042995071176 251.14950335717808 L316.042995071176 251.14950335717808 Z" transform="rotate(0.0 321.542995071176 246.38636363636365 ) " />
                  <path fill="#1c3d5c" stroke="#1c3d5c" stroke-opacity="0.0" stroke-width="0.0" d="M321.542995071176 241.62322391554923 L321.542995071176 241.62322391554923 L327.042995071176 251.14950335717808 L316.042995071176 251.14950335717808 Z" transform="rotate(0.0 321.542995071176 246.38636363636365 ) " />
                  <path fill="#1c3d5c" stroke="#1c3d5c" stroke-opacity="0.0" stroke-width="0.0" d="M321.542995071176 233.2993602791856 L321.542995071176 233.2993602791856 L327.042995071176 242.82563972081445 L316.042995071176 242.82563972081445 Z" transform="rotate(0.0 321.542995071176 238.06250000000003 ) " />
                  <path fill="#18344f" stroke="#18344f" stroke-opacity="0.0" stroke-width="0.0" d="M400.2079479937879 249.9470875519129 L400.2079479937879 249.9470875519129 L405.7079479937879 259.47336699354173 L394.7079479937879 259.47336699354173 Z" transform="rotate(0.0 400.2079479937879 254.7102272727273 ) " />
                  <path fill="#1c3d5c" stroke="#1c3d5c" stroke-opacity="0.0" stroke-width="0.0" d="M400.2079479937879 233.2993602791856 L400.2079479937879 233.2993602791856 L405.7079479937879 242.82563972081445 L394.7079479937879 242.82563972081445 Z" transform="rotate(0.0 400.2079479937879 238.06250000000003 ) " />
                  <rect fill="#29567d" stroke="#29567d" stroke-opacity="0.0" stroke-width="0.0" x="237.37804214856413" y="157.6477272727273" height="11.0" width="11.0" transform="rotate(0.0 242.87804214856413 163.1477272727273 ) " />
                  <rect fill="#29567d" stroke="#29567d" stroke-opacity="0.0" stroke-width="0.0" x="237.37804214856413" y="165.97159090909093" height="11.0" width="11.0" transform="rotate(0.0 242.87804214856413 171.47159090909093 ) " />
                  <rect fill="#265176" stroke="#265176" stroke-opacity="0.0" stroke-width="0.0" x="257.0442803792171" y="157.6477272727273" height="11.0" width="11.0" transform="rotate(0.0 262.5442803792171 163.1477272727273 ) " />
                  <rect fill="#244c6f" stroke="#244c6f" stroke-opacity="0.0" stroke-width="0.0" x="257.0442803792171" y="174.29545454545456" height="11.0" width="11.0" transform="rotate(0.0 262.5442803792171 179.79545454545456 ) " />
                  <rect fill="#214769" stroke="#214769" stroke-opacity="0.0" stroke-width="0.0" x="316.042995071176" y="199.26704545454547" height="11.0" width="11.0" transform="rotate(0.0 321.542995071176 204.76704545454547 ) " />
                  <rect fill="#214769" stroke="#214769" stroke-opacity="0.0" stroke-width="0.0" x="316.042995071176" y="190.94318181818184" height="11.0" width="11.0" transform="rotate(0.0 321.542995071176 196.44318181818184 ) " />
                  <rect fill="#214769" stroke="#214769" stroke-opacity="0.0" stroke-width="0.0" x="316.042995071176" y="182.61931818181822" height="11.0" width="11.0" transform="rotate(0.0 321.542995071176 188.11931818181822 ) " />
                  <rect fill="#214769" stroke="#214769" stroke-opacity="0.0" stroke-width="0.0" x="316.042995071176" y="190.94318181818184" height="11.0" width="11.0" transform="rotate(0.0 321.542995071176 196.44318181818184 ) " />
                  <rect fill="#1f4262" stroke="#1f4262" stroke-opacity="0.0" stroke-width="0.0" x="394.7079479937879" y="207.59090909090912" height="11.0" width="11.0" transform="rotate(0.0 400.2079479937879 213.09090909090912 ) " />
                  <circle fill="#438ac3" stroke="#438ac3" stroke-opacity="0.0" stroke-width="0.0" cx="26.54942161138152" cy="104.88068181818187" r="5.5" />
                  <circle fill="#3875a6" stroke="#3875a6" stroke-opacity="0.0" stroke-width="0.0" cx="26.54942161138152" cy="113.2045454545455" r="5.5" />
                  <circle fill="#3b7aad" stroke="#3b7aad" stroke-opacity="0.0" stroke-width="0.0" cx="26.54942161138152" cy="113.2045454545455" r="5.5" />
                  <circle fill="#356f9f" stroke="#356f9f" stroke-opacity="0.0" stroke-width="0.0" cx="26.54942161138152" cy="138.1761363636364" r="5.5" />
                  <circle fill="#3875a6" stroke="#3875a6" stroke-opacity="0.0" stroke-width="0.0" cx="26.54942161138152" cy="113.2045454545455" r="5.5" />
                  <circle fill="#3d7fb4" stroke="#3d7fb4" stroke-opacity="0.0" stroke-width="0.0" cx="46.21565984203448" cy="96.55681818181824" r="5.5" />
                  <circle fill="#3b7aad" stroke="#3b7aad" stroke-opacity="0.0" stroke-width="0.0" cx="46.21565984203448" cy="79.90909090909093" r="5.5" />
                  <circle fill="#3875a6" stroke="#3875a6" stroke-opacity="0.0" stroke-width="0.0" cx="46.21565984203448" cy="79.90909090909093" r="5.5" />
                  <circle fill="#306591" stroke="#306591" stroke-opacity="0.0" stroke-width="0.0" cx="65.88189807268745" cy="138.1761363636364" r="5.5" />
                  <circle fill="#29567d" stroke="#29567d" stroke-opacity="0.0" stroke-width="0.0" cx="105.21437453399338" cy="163.1477272727273" r="5.5" />
                  <circle fill="#29567d" stroke="#29567d" stroke-opacity="0.0" stroke-width="0.0" cx="105.21437453399338" cy="154.82386363636368" r="5.5" />
                  <circle fill="#306591" stroke="#306591" stroke-opacity="0.0" stroke-width="0.0" cx="105.21437453399338" cy="129.85227272727278" r="5.5" />
                  <circle fill="#306591" stroke="#306591" stroke-opacity="0.0" stroke-width="0.0" cx="105.21437453399338" cy="121.52840909090912" r="5.5" />
                  <circle fill="#29567d" stroke="#29567d" stroke-opacity="0.0" stroke-width="0.0" cx="115.04749364931988" cy="163.1477272727273" r="5.5" />
                  <circle fill="#29567d" stroke="#29567d" stroke-opacity="0.0" stroke-width="0.0" cx="115.04749364931988" cy="163.1477272727273" r="5.5" />
                  <circle fill="#2b5b83" stroke="#2b5b83" stroke-opacity="0.0" stroke-width="0.0" cx="193.7124465719317" cy="146.50000000000003" r="5.5" />
                  <circle fill="#2b5b83" stroke="#2b5b83" stroke-opacity="0.0" stroke-width="0.0" cx="65.88189807268745" cy="163.1477272727273" r="5.5" />
                  <circle fill="#2b5b83" stroke="#2b5b83" stroke-opacity="0.0" stroke-width="0.0" cx="65.88189807268745" cy="138.1761363636364" r="5.5" />
                  <circle fill="#2e608a" stroke="#2e608a" stroke-opacity="0.0" stroke-width="0.0" cx="65.88189807268745" cy="146.50000000000003" r="5.5" />
                  <circle fill="#2e608a" stroke="#2e608a" stroke-opacity="0.0" stroke-width="0.0" cx="65.88189807268745" cy="154.82386363636368" r="5.5" />
                  <circle fill="#265176" stroke="#265176" stroke-opacity="0.0" stroke-width="0.0" cx="134.71373187997284" cy="179.79545454545456" r="5.5" />
                  <circle fill="#244c6f" stroke="#244c6f" stroke-opacity="0.0" stroke-width="0.0" cx="134.71373187997284" cy="179.79545454545456" r="5.5" />
                  <circle fill="#265176" stroke="#265176" stroke-opacity="0.0" stroke-width="0.0" cx="134.71373187997284" cy="179.79545454545456" r="5.5" />
                  <path fill="#265176" stroke="#265176" stroke-opacity="0.0" stroke-width="0.0" d="M164.21308922595227 191.68004209736742 L164.21308922595227 191.68004209736742 L169.71308922595227 201.20632153899626 L158.71308922595227 201.20632153899626 Z" transform="rotate(0.0 164.21308922595227 196.44318181818184 ) " />
                  <path fill="#214769" stroke="#214769" stroke-opacity="0.0" stroke-width="0.0" d="M233.0449230332377 216.65163300645833 L233.0449230332377 216.65163300645833 L238.5449230332377 226.17791244808717 L227.5449230332377 226.17791244808717 Z" transform="rotate(0.0 233.0449230332377 221.41477272727275 ) " />
                  <path fill="#214769" stroke="#214769" stroke-opacity="0.0" stroke-width="0.0" d="M262.5442803792171 208.3277693700947 L262.5442803792171 208.3277693700947 L268.0442803792171 217.85404881172354 L257.0442803792171 217.85404881172354 Z" transform="rotate(0.0 262.5442803792171 213.09090909090912 ) " />
                  <path fill="#1f4262" stroke="#1f4262" stroke-opacity="0.0" stroke-width="0.0" d="M331.37611418650255 233.2993602791856 L331.37611418650255 233.2993602791856 L336.87611418650255 242.82563972081445 L325.87611418650255 242.82563972081445 Z" transform="rotate(0.0 331.37611418650255 238.06250000000003 ) " />
                  <path fill="#132b43" stroke="#132b43" stroke-opacity="0.0" stroke-width="0.0" d="M331.37611418650255 274.91867846100376 L331.37611418650255 274.91867846100376 L336.87611418650255 284.4449579026326 L325.87611418650255 284.4449579026326 Z" transform="rotate(0.0 331.37611418650255 279.6818181818182 ) " />
                  <path fill="#1f4262" stroke="#1f4262" stroke-opacity="0.0" stroke-width="0.0" d="M331.37611418650255 216.65163300645833 L331.37611418650255 216.65163300645833 L336.87611418650255 226.17791244808717 L325.87611418650255 226.17791244808717 Z" transform="rotate(0.0 331.37611418650255 221.41477272727275 ) " />
                  <path fill="#1c3d5c" stroke="#1c3d5c" stroke-opacity="0.0" stroke-width="0.0" d="M429.70730533976734 224.97549664282195 L429.70730533976734 224.97549664282195 L435.20730533976734 234.5017760844508 L424.20730533976734 234.5017760844508 Z" transform="rotate(0.0 429.70730533976734 229.73863636363637 ) " />
                  <path fill="#18344f" stroke="#18344f" stroke-opacity="0.0" stroke-width="0.0" d="M469.0397818010732 258.2709511882765 L469.0397818010732 258.2709511882765 L474.5397818010732 267.79723062990536 L463.5397818010732 267.79723062990536 Z" transform="rotate(0.0 469.0397818010732 263.03409090909093 ) " />
                  <path fill="#18344f" stroke="#18344f" stroke-opacity="0.0" stroke-width="0.0" d="M262.5442803792171 249.9470875519129 L262.5442803792171 249.9470875519129 L268.0442803792171 259.47336699354173 L257.0442803792171 259.47336699354173 Z" transform="rotate(0.0 262.5442803792171 254.7102272727273 ) " />
                  <path fill="#1a3955" stroke="#1a3955" stroke-opacity="0.0" stroke-width="0.0" d="M282.2105186098701 224.97549664282195 L282.2105186098701 224.97549664282195 L287.7105186098701 234.5017760844508 L276.7105186098701 234.5017760844508 Z" transform="rotate(0.0 282.2105186098701 229.73863636363637 ) " />
                  <path fill="#1a3955" stroke="#1a3955" stroke-opacity="0.0" stroke-width="0.0" d="M301.8767568405231 224.97549664282195 L301.8767568405231 224.97549664282195 L307.3767568405231 234.5017760844508 L296.3767568405231 234.5017760844508 Z" transform="rotate(0.0 301.8767568405231 229.73863636363637 ) " />
                  <path fill="#18344f" stroke="#18344f" stroke-opacity="0.0" stroke-width="0.0" d="M321.542995071176 249.9470875519129 L321.542995071176 249.9470875519129 L327.042995071176 259.47336699354173 L316.042995071176 259.47336699354173 Z" transform="rotate(0.0 321.542995071176 254.7102272727273 ) " />
                  <rect fill="#18344f" stroke="#18344f" stroke-opacity="0.0" stroke-width="0.0" x="394.7079479937879" y="232.56250000000003" height="11.0" width="11.0" transform="rotate(0.0 400.2079479937879 238.06250000000003 ) " />
                  <rect fill="#18344f" stroke="#18344f" stroke-opacity="0.0" stroke-width="0.0" x="394.7079479937879" y="240.88636363636365" height="11.0" width="11.0" transform="rotate(0.0 400.2079479937879 246.38636363636365 ) " />
                  <rect fill="#1a3955" stroke="#1a3955" stroke-opacity="0.0" stroke-width="0.0" x="394.7079479937879" y="224.23863636363637" height="11.0" width="11.0" transform="rotate(0.0 400.2079479937879 229.73863636363637 ) " />
                  <path fill="#1f4262" stroke="#1f4262" stroke-opacity="0.0" stroke-width="0.0" d="M262.5442803792171 233.2993602791856 L262.5442803792171 233.2993602791856 L268.0442803792171 242.82563972081445 L257.0442803792171 242.82563972081445 Z" transform="rotate(0.0 262.5442803792171 238.06250000000003 ) " />
                  <path fill="#1c3d5c" stroke="#1c3d5c" stroke-opacity="0.0" stroke-width="0.0" d="M262.5442803792171 216.65163300645833 L262.5442803792171 216.65163300645833 L268.0442803792171 226.17791244808717 L257.0442803792171 226.17791244808717 Z" transform="rotate(0.0 262.5442803792171 221.41477272727275 ) " />
                  <path fill="#1c3d5c" stroke="#1c3d5c" stroke-opacity="0.0" stroke-width="0.0" d="M321.542995071176 216.65163300645833 L321.542995071176 216.65163300645833 L327.042995071176 226.17791244808717 L316.042995071176 226.17791244808717 Z" transform="rotate(0.0 321.542995071176 221.41477272727275 ) " />
                  <path fill="#1c3d5c" stroke="#1c3d5c" stroke-opacity="0.0" stroke-width="0.0" d="M360.875471532482 233.2993602791856 L360.875471532482 233.2993602791856 L366.375471532482 242.82563972081445 L355.375471532482 242.82563972081445 Z" transform="rotate(0.0 360.875471532482 238.06250000000003 ) " />
                  <circle fill="#306591" stroke="#306591" stroke-opacity="0.0" stroke-width="0.0" cx="105.21437453399338" cy="138.1761363636364" r="5.5" />
                  <circle fill="#2b5b83" stroke="#2b5b83" stroke-opacity="0.0" stroke-width="0.0" cx="105.21437453399338" cy="154.82386363636368" r="5.5" />
                  <circle fill="#356f9f" stroke="#356f9f" stroke-opacity="0.0" stroke-width="0.0" cx="115.04749364931988" cy="121.52840909090912" r="5.5" />
                  <circle fill="#356f9f" stroke="#356f9f" stroke-opacity="0.0" stroke-width="0.0" cx="115.04749364931988" cy="113.2045454545455" r="5.5" />
                  <circle fill="#2b5b83" stroke="#2b5b83" stroke-opacity="0.0" stroke-width="0.0" cx="213.3786848025847" cy="154.82386363636368" r="5.5" />
                  <circle fill="#2b5b83" stroke="#2b5b83" stroke-opacity="0.0" stroke-width="0.0" cx="213.3786848025847" cy="163.1477272727273" r="5.5" />
                  <circle fill="#29567d" stroke="#29567d" stroke-opacity="0.0" stroke-width="0.0" cx="164.21308922595227" cy="163.1477272727273" r="5.5" />
                  <circle fill="#2b5b83" stroke="#2b5b83" stroke-opacity="0.0" stroke-width="0.0" cx="164.21308922595227" cy="171.47159090909093" r="5.5" />
                  <circle fill="#2b5b83" stroke="#2b5b83" stroke-opacity="0.0" stroke-width="0.0" cx="213.3786848025847" cy="171.47159090909093" r="5.5" />
                  <path fill="#1f4262" stroke="#1f4262" stroke-opacity="0.0" stroke-width="0.0" d="M193.7124465719317 233.2993602791856 L193.7124465719317 233.2993602791856 L199.2124465719317 242.82563972081445 L188.2124465719317 242.82563972081445 Z" transform="rotate(0.0 193.7124465719317 238.06250000000003 ) " />
                  <path fill="#214769" stroke="#214769" stroke-opacity="0.0" stroke-width="0.0" d="M193.7124465719317 233.2993602791856 L193.7124465719317 233.2993602791856 L199.2124465719317 242.82563972081445 L188.2124465719317 242.82563972081445 Z" transform="rotate(0.0 193.7124465719317 238.06250000000003 ) " />
                  <path fill="#1f4262" stroke="#1f4262" stroke-opacity="0.0" stroke-width="0.0" d="M262.5442803792171 208.3277693700947 L262.5442803792171 208.3277693700947 L268.0442803792171 217.85404881172354 L257.0442803792171 217.85404881172354 Z" transform="rotate(0.0 262.5442803792171 213.09090909090912 ) " />
                  <path fill="#1a3955" stroke="#1a3955" stroke-opacity="0.0" stroke-width="0.0" d="M419.8741862244408 224.97549664282195 L419.8741862244408 224.97549664282195 L425.3741862244408 234.5017760844508 L414.3741862244408 234.5017760844508 Z" transform="rotate(0.0 419.8741862244408 229.73863636363637 ) " />
                  <circle fill="#29567d" stroke="#29567d" stroke-opacity="0.0" stroke-width="0.0" cx="174.04620834127877" cy="163.1477272727273" r="5.5" />
                  <circle fill="#244c6f" stroke="#244c6f" stroke-opacity="0.0" stroke-width="0.0" cx="242.87804214856413" cy="163.1477272727273" r="5.5" />
                  <circle fill="#265176" stroke="#265176" stroke-opacity="0.0" stroke-width="0.0" cx="242.87804214856413" cy="154.82386363636368" r="5.5" />
                  <circle fill="#29567d" stroke="#29567d" stroke-opacity="0.0" stroke-width="0.0" cx="242.87804214856413" cy="146.50000000000003" r="5.5" />
                  <circle fill="#244c6f" stroke="#244c6f" stroke-opacity="0.0" stroke-width="0.0" cx="390.37482887846136" cy="171.47159090909093" r="5.5" />
                  <path fill="#29567d" stroke="#29567d" stroke-opacity="0.0" stroke-width="0.0" d="M115.04749364931988 166.7084511882765 L115.04749364931988 166.7084511882765 L120.54749364931988 176.23473062990536 L109.54749364931988 176.23473062990536 Z" transform="rotate(0.0 115.04749364931988 171.47159090909093 ) " />
                  <path fill="#29567d" stroke="#29567d" stroke-opacity="0.0" stroke-width="0.0" d="M115.04749364931988 175.03231482464014 L115.04749364931988 175.03231482464014 L120.54749364931988 184.55859426626898 L109.54749364931988 184.55859426626898 Z" transform="rotate(0.0 115.04749364931988 179.79545454545456 ) " />
                  <path fill="#2e608a" stroke="#2e608a" stroke-opacity="0.0" stroke-width="0.0" d="M115.04749364931988 150.06072391554926 L115.04749364931988 150.06072391554926 L120.54749364931988 159.5870033571781 L109.54749364931988 159.5870033571781 Z" transform="rotate(0.0 115.04749364931988 154.82386363636368 ) " />
                  <path fill="#2b5b83" stroke="#2b5b83" stroke-opacity="0.0" stroke-width="0.0" d="M115.04749364931988 166.7084511882765 L115.04749364931988 166.7084511882765 L120.54749364931988 176.23473062990536 L109.54749364931988 176.23473062990536 Z" transform="rotate(0.0 115.04749364931988 171.47159090909093 ) " />
                  <path fill="#2e608a" stroke="#2e608a" stroke-opacity="0.0" stroke-width="0.0" d="M115.04749364931988 158.3845875519129 L115.04749364931988 158.3845875519129 L120.54749364931988 167.91086699354173 L109.54749364931988 167.91086699354173 Z" transform="rotate(0.0 115.04749364931988 163.1477272727273 ) " />
                  <path fill="#29567d" stroke="#29567d" stroke-opacity="0.0" stroke-width="0.0" d="M115.04749364931988 183.3561784610038 L115.04749364931988 183.3561784610038 L120.54749364931988 192.88245790263264 L109.54749364931988 192.88245790263264 Z" transform="rotate(0.0 115.04749364931988 188.11931818181822 ) " />
                  <path fill="#306591" stroke="#306591" stroke-opacity="0.0" stroke-width="0.0" d="M85.54813630334044 158.3845875519129 L85.54813630334044 158.3845875519129 L91.04813630334044 167.91086699354173 L80.04813630334044 167.91086699354173 Z" transform="rotate(0.0 85.54813630334044 163.1477272727273 ) " />
                  <path fill="#2b5b83" stroke="#2b5b83" stroke-opacity="0.0" stroke-width="0.0" d="M85.54813630334044 158.3845875519129 L85.54813630334044 158.3845875519129 L91.04813630334044 167.91086699354173 L80.04813630334044 167.91086699354173 Z" transform="rotate(0.0 85.54813630334044 163.1477272727273 ) " />
                  <path fill="#2b5b83" stroke="#2b5b83" stroke-opacity="0.0" stroke-width="0.0" d="M115.04749364931988 158.3845875519129 L115.04749364931988 158.3845875519129 L120.54749364931988 167.91086699354173 L109.54749364931988 167.91086699354173 Z" transform="rotate(0.0 115.04749364931988 163.1477272727273 ) " />
                  <path fill="#2b5b83" stroke="#2b5b83" stroke-opacity="0.0" stroke-width="0.0" d="M115.04749364931988 158.3845875519129 L115.04749364931988 158.3845875519129 L120.54749364931988 167.91086699354173 L109.54749364931988 167.91086699354173 Z" transform="rotate(0.0 115.04749364931988 163.1477272727273 ) " />
                  <path fill="#2e608a" stroke="#2e608a" stroke-opacity="0.0" stroke-width="0.0" d="M115.04749364931988 166.7084511882765 L115.04749364931988 166.7084511882765 L120.54749364931988 176.23473062990536 L109.54749364931988 176.23473062990536 Z" transform="rotate(0.0 115.04749364931988 171.47159090909093 ) " />
                  <path fill="#2e608a" stroke="#2e608a" stroke-opacity="0.0" stroke-width="0.0" d="M115.04749364931988 150.06072391554926 L115.04749364931988 150.06072391554926 L120.54749364931988 159.5870033571781 L109.54749364931988 159.5870033571781 Z" transform="rotate(0.0 115.04749364931988 154.82386363636368 ) " />
                  <path fill="#2b5b83" stroke="#2b5b83" stroke-opacity="0.0" stroke-width="0.0" d="M115.04749364931988 166.7084511882765 L115.04749364931988 166.7084511882765 L120.54749364931988 176.23473062990536 L109.54749364931988 176.23473062990536 Z" transform="rotate(0.0 115.04749364931988 171.47159090909093 ) " />
                  <path fill="#2e608a" stroke="#2e608a" stroke-opacity="0.0" stroke-width="0.0" d="M115.04749364931988 150.06072391554926 L115.04749364931988 150.06072391554926 L120.54749364931988 159.5870033571781 L109.54749364931988 159.5870033571781 Z" transform="rotate(0.0 115.04749364931988 154.82386363636368 ) " />
                  <path fill="#214769" stroke="#214769" stroke-opacity="0.0" stroke-width="0.0" d="M134.71373187997284 208.3277693700947 L134.71373187997284 208.3277693700947 L140.21373187997284 217.85404881172354 L129.21373187997284 217.85404881172354 Z" transform="rotate(0.0 134.71373187997284 213.09090909090912 ) " />
                  <path fill="#244c6f" stroke="#244c6f" stroke-opacity="0.0" stroke-width="0.0" d="M134.71373187997284 208.3277693700947 L134.71373187997284 208.3277693700947 L140.21373187997284 217.85404881172354 L129.21373187997284 217.85404881172354 Z" transform="rotate(0.0 134.71373187997284 213.09090909090912 ) " />
                  <path fill="#214769" stroke="#214769" stroke-opacity="0.0" stroke-width="0.0" d="M203.5455656872582 216.65163300645833 L203.5455656872582 216.65163300645833 L209.0455656872582 226.17791244808717 L198.0455656872582 226.17791244808717 Z" transform="rotate(0.0 203.5455656872582 221.41477272727275 ) " />
                  <path fill="#214769" stroke="#214769" stroke-opacity="0.0" stroke-width="0.0" d="M203.5455656872582 233.2993602791856 L203.5455656872582 233.2993602791856 L209.0455656872582 242.82563972081445 L198.0455656872582 242.82563972081445 Z" transform="rotate(0.0 203.5455656872582 238.06250000000003 ) " />
                  <path fill="#244c6f" stroke="#244c6f" stroke-opacity="0.0" stroke-width="0.0" d="M262.5442803792171 208.3277693700947 L262.5442803792171 208.3277693700947 L268.0442803792171 217.85404881172354 L257.0442803792171 217.85404881172354 Z" transform="rotate(0.0 262.5442803792171 213.09090909090912 ) " />
                  <path fill="#1f4262" stroke="#1f4262" stroke-opacity="0.0" stroke-width="0.0" d="M331.37611418650255 233.2993602791856 L331.37611418650255 233.2993602791856 L336.87611418650255 242.82563972081445 L325.87611418650255 242.82563972081445 Z" transform="rotate(0.0 331.37611418650255 238.06250000000003 ) " />
                  <circle fill="#306591" stroke="#306591" stroke-opacity="0.0" stroke-width="0.0" cx="85.54813630334044" cy="138.1761363636364" r="5.5" />
                  <circle fill="#306591" stroke="#306591" stroke-opacity="0.0" stroke-width="0.0" cx="85.54813630334044" cy="154.82386363636368" r="5.5" />
                  <circle fill="#306591" stroke="#306591" stroke-opacity="0.0" stroke-width="0.0" cx="105.21437453399338" cy="121.52840909090912" r="5.5" />
                  <circle fill="#306591" stroke="#306591" stroke-opacity="0.0" stroke-width="0.0" cx="105.21437453399338" cy="121.52840909090912" r="5.5" />
                  <circle fill="#29567d" stroke="#29567d" stroke-opacity="0.0" stroke-width="0.0" cx="164.21308922595227" cy="163.1477272727273" r="5.5" />
                  <circle fill="#29567d" stroke="#29567d" stroke-opacity="0.0" stroke-width="0.0" cx="164.21308922595227" cy="163.1477272727273" r="5.5" />
                  <circle fill="#2b5b83" stroke="#2b5b83" stroke-opacity="0.0" stroke-width="0.0" cx="213.3786848025847" cy="146.50000000000003" r="5.5" />
                  <circle fill="#306591" stroke="#306591" stroke-opacity="0.0" stroke-width="0.0" cx="85.54813630334044" cy="154.82386363636368" r="5.5" />
                  <circle fill="#306591" stroke="#306591" stroke-opacity="0.0" stroke-width="0.0" cx="85.54813630334044" cy="138.1761363636364" r="5.5" />
                  <circle fill="#306591" stroke="#306591" stroke-opacity="0.0" stroke-width="0.0" cx="105.21437453399338" cy="121.52840909090912" r="5.5" />
                  <circle fill="#336a98" stroke="#336a98" stroke-opacity="0.0" stroke-width="0.0" cx="105.21437453399338" cy="121.52840909090912" r="5.5" />
                  <circle fill="#29567d" stroke="#29567d" stroke-opacity="0.0" stroke-width="0.0" cx="164.21308922595227" cy="163.1477272727273" r="5.5" />
                  <circle fill="#29567d" stroke="#29567d" stroke-opacity="0.0" stroke-width="0.0" cx="164.21308922595227" cy="163.1477272727273" r="5.5" />
                  <circle fill="#29567d" stroke="#29567d" stroke-opacity="0.0" stroke-width="0.0" cx="193.7124465719317" cy="154.82386363636368" r="5.5" />
                  <circle fill="#3875a6" stroke="#3875a6" stroke-opacity="0.0" stroke-width="0.0" cx="46.21565984203448" cy="129.85227272727278" r="5.5" />
                  <circle fill="#3875a6" stroke="#3875a6" stroke-opacity="0.0" stroke-width="0.0" cx="46.21565984203448" cy="104.88068181818187" r="5.5" />
                  <circle fill="#3d7fb4" stroke="#3d7fb4" stroke-opacity="0.0" stroke-width="0.0" cx="46.21565984203448" cy="88.23295454545462" r="5.5" />
                  <circle fill="#438ac3" stroke="#438ac3" stroke-opacity="0.0" stroke-width="0.0" cx="46.21565984203448" cy="71.58522727272731" r="5.5" />
                  <circle fill="#3d7fb4" stroke="#3d7fb4" stroke-opacity="0.0" stroke-width="0.0" cx="46.21565984203448" cy="88.23295454545462" r="5.5" />
                  <path fill="#18344f" stroke="#18344f" stroke-opacity="0.0" stroke-width="0.0" d="M331.37611418650255 249.9470875519129 L331.37611418650255 249.9470875519129 L336.87611418650255 259.47336699354173 L325.87611418650255 259.47336699354173 Z" transform="rotate(0.0 331.37611418650255 254.7102272727273 ) " />
                  <path fill="#1c3d5c" stroke="#1c3d5c" stroke-opacity="0.0" stroke-width="0.0" d="M429.70730533976734 224.97549664282195 L429.70730533976734 224.97549664282195 L435.20730533976734 234.5017760844508 L424.20730533976734 234.5017760844508 Z" transform="rotate(0.0 429.70730533976734 229.73863636363637 ) " />
                  <path fill="#214769" stroke="#214769" stroke-opacity="0.0" stroke-width="0.0" d="M134.71373187997284 208.3277693700947 L134.71373187997284 208.3277693700947 L140.21373187997284 217.85404881172354 L129.21373187997284 217.85404881172354 Z" transform="rotate(0.0 134.71373187997284 213.09090909090912 ) " />
                  <path fill="#244c6f" stroke="#244c6f" stroke-opacity="0.0" stroke-width="0.0" d="M134.71373187997284 208.3277693700947 L134.71373187997284 208.3277693700947 L140.21373187997284 217.85404881172354 L129.21373187997284 217.85404881172354 Z" transform="rotate(0.0 134.71373187997284 213.09090909090912 ) " />
                  <path fill="#265176" stroke="#265176" stroke-opacity="0.0" stroke-width="0.0" d="M134.71373187997284 191.68004209736742 L134.71373187997284 191.68004209736742 L140.21373187997284 201.20632153899626 L129.21373187997284 201.20632153899626 Z" transform="rotate(0.0 134.71373187997284 196.44318181818184 ) " />
                  <path fill="#214769" stroke="#214769" stroke-opacity="0.0" stroke-width="0.0" d="M203.5455656872582 233.2993602791856 L203.5455656872582 233.2993602791856 L209.0455656872582 242.82563972081445 L198.0455656872582 242.82563972081445 Z" transform="rotate(0.0 203.5455656872582 238.06250000000003 ) " />
                  <path fill="#214769" stroke="#214769" stroke-opacity="0.0" stroke-width="0.0" d="M203.5455656872582 216.65163300645833 L203.5455656872582 216.65163300645833 L209.0455656872582 226.17791244808717 L198.0455656872582 226.17791244808717 Z" transform="rotate(0.0 203.5455656872582 221.41477272727275 ) " />
                  <path fill="#214769" stroke="#214769" stroke-opacity="0.0" stroke-width="0.0" d="M262.5442803792171 224.97549664282195 L262.5442803792171 224.97549664282195 L268.0442803792171 234.5017760844508 L257.0442803792171 234.5017760844508 Z" transform="rotate(0.0 262.5442803792171 229.73863636363637 ) " />
                  <path fill="#244c6f" stroke="#244c6f" stroke-opacity="0.0" stroke-width="0.0" d="M262.5442803792171 208.3277693700947 L262.5442803792171 208.3277693700947 L268.0442803792171 217.85404881172354 L257.0442803792171 217.85404881172354 Z" transform="rotate(0.0 262.5442803792171 213.09090909090912 ) " />
                  <circle fill="#306591" stroke="#306591" stroke-opacity="0.0" stroke-width="0.0" cx="65.88189807268745" cy="138.1761363636364" r="5.5" />
                  <circle fill="#2b5b83" stroke="#2b5b83" stroke-opacity="0.0" stroke-width="0.0" cx="65.88189807268745" cy="163.1477272727273" r="5.5" />
                  <circle fill="#306591" stroke="#306591" stroke-opacity="0.0" stroke-width="0.0" cx="65.88189807268745" cy="138.1761363636364" r="5.5" />
                  <circle fill="#336a98" stroke="#336a98" stroke-opacity="0.0" stroke-width="0.0" cx="65.88189807268745" cy="138.1761363636364" r="5.5" />
                  <circle fill="#265176" stroke="#265176" stroke-opacity="0.0" stroke-width="0.0" cx="144.54685099529928" cy="179.79545454545456" r="5.5" />
                  <circle fill="#50a6e8" stroke="#50a6e8" stroke-opacity="0.0" stroke-width="0.0" cx="56.04877895736095" cy="13.31818181818187" r="5.5" />
                  <circle fill="#306591" stroke="#306591" stroke-opacity="0.0" stroke-width="0.0" cx="65.88189807268745" cy="138.1761363636364" r="5.5" />
                  <circle fill="#2b5b83" stroke="#2b5b83" stroke-opacity="0.0" stroke-width="0.0" cx="65.88189807268745" cy="163.1477272727273" r="5.5" />
                  <circle fill="#336a98" stroke="#336a98" stroke-opacity="0.0" stroke-width="0.0" cx="65.88189807268745" cy="138.1761363636364" r="5.5" />
                  <circle fill="#306591" stroke="#306591" stroke-opacity="0.0" stroke-width="0.0" cx="65.88189807268745" cy="138.1761363636364" r="5.5" />
                  <circle fill="#306591" stroke="#306591" stroke-opacity="0.0" stroke-width="0.0" cx="115.04749364931988" cy="138.1761363636364" r="5.5" />
                  <circle fill="#306591" stroke="#306591" stroke-opacity="0.0" stroke-width="0.0" cx="115.04749364931988" cy="138.1761363636364" r="5.5" />
                  <circle fill="#244c6f" stroke="#244c6f" stroke-opacity="0.0" stroke-width="0.0" cx="144.54685099529928" cy="188.11931818181822" r="5.5" />
                  <circle fill="#265176" stroke="#265176" stroke-opacity="0.0" stroke-width="0.0" cx="144.54685099529928" cy="179.79545454545456" r="5.5" />
                  <circle fill="#56b1f7" stroke="#56b1f7" stroke-opacity="0.0" stroke-width="0.0" cx="56.04877895736095" cy="13.31818181818187" r="5.5" />
                  <circle fill="#458fca" stroke="#458fca" stroke-opacity="0.0" stroke-width="0.0" cx="56.04877895736095" cy="38.289772727272805" r="5.5" />
                  <circle fill="#306591" stroke="#306591" stroke-opacity="0.0" stroke-width="0.0" cx="65.88189807268745" cy="138.1761363636364" r="5.5" />
                  <circle fill="#2b5b83" stroke="#2b5b83" stroke-opacity="0.0" stroke-width="0.0" cx="65.88189807268745" cy="163.1477272727273" r="5.5" />
                  <circle fill="#2e608a" stroke="#2e608a" stroke-opacity="0.0" stroke-width="0.0" cx="115.04749364931988" cy="146.50000000000003" r="5.5" />
                  <circle fill="#2e608a" stroke="#2e608a" stroke-opacity="0.0" stroke-width="0.0" cx="115.04749364931988" cy="138.1761363636364" r="5.5" />
                  <circle fill="#306591" stroke="#306591" stroke-opacity="0.0" stroke-width="0.0" cx="46.21565984203448" cy="138.1761363636364" r="5.5" />
                  <circle fill="#29567d" stroke="#29567d" stroke-opacity="0.0" stroke-width="0.0" cx="46.21565984203448" cy="138.1761363636364" r="5.5" />
                  <circle fill="#2b5b83" stroke="#2b5b83" stroke-opacity="0.0" stroke-width="0.0" cx="65.88189807268745" cy="146.50000000000003" r="5.5" />
                  <circle fill="#306591" stroke="#306591" stroke-opacity="0.0" stroke-width="0.0" cx="65.88189807268745" cy="138.1761363636364" r="5.5" />
                  <circle fill="#244c6f" stroke="#244c6f" stroke-opacity="0.0" stroke-width="0.0" cx="144.54685099529928" cy="163.1477272727273" r="5.5" />
                  <circle fill="#29567d" stroke="#29567d" stroke-opacity="0.0" stroke-width="0.0" cx="144.54685099529928" cy="163.1477272727273" r="5.5" />
                  <circle fill="#265176" stroke="#265176" stroke-opacity="0.0" stroke-width="0.0" cx="223.2118039179112" cy="163.1477272727273" r="5.5" />
                </g>
              </g>
            </g>
          </g>
        </g>
        <defs>
          <clipPath id="xXxprefixXx1">
            <rect x="21.961210910936405" y="0.0" width="584.0872754503931" height="293.0">
            </rect>
          </clipPath>
        </defs>
      </g>
      <g>
      </g>
    </g>
    <g transform="translate(16.0 153.0 ) rotate(-90.0 ) ">
      <text class="axis-title-y" y="0.0" text-anchor="middle">
        <tspan>hwy</tspan>
      </text>
    </g>
    <g transform="translate(343.504848636133 345.0 ) ">
      <text class="axis-title-x" y="0.0" text-anchor="middle">
        <tspan>displ</tspan>
      </text>
    </g>
    <g transform="translate(642.0484863613295 18.5 ) ">
      <rect x="5.0" y="5.0" height="147.5" width="52.951513638670505" stroke="rgb(187,187,187)" stroke-opacity="1.0" stroke-width="0.0" fill="rgb(25,25,28)" fill-opacity="1.0">
      </rect>
      <g transform="translate(10.0 10.0 ) ">
        <g transform="translate(0.0 12.0 ) ">
          <text class="legend-title" y="0.0">
            <tspan>cty</tspan>
          </text>
        </g>
        <g transform="translate(0.0 22.5 ) ">
          <g>
            <rect x="0.0" y="0.0" height="115.0" width="23.0" stroke-width="0.0" fill="rgb(84,173,242)" fill-opacity="1.0">
            </rect>
            <rect x="0.0" y="7.55" height="107.45" width="23.0" stroke-width="0.0" fill="rgb(81,166,232)" fill-opacity="1.0">
            </rect>
            <rect x="0.0" y="13.1" height="101.9" width="23.0" stroke-width="0.0" fill="rgb(77,159,222)" fill-opacity="1.0">
            </rect>
            <rect x="0.0" y="18.65" height="96.35" width="23.0" stroke-width="0.0" fill="rgb(73,151,213)" fill-opacity="1.0">
            </rect>
            <rect x="0.0" y="24.2" height="90.8" width="23.0" stroke-width="0.0" fill="rgb(70,144,203)" fill-opacity="1.0">
            </rect>
            <rect x="0.0" y="29.75" height="85.25" width="23.0" stroke-width="0.0" fill="rgb(66,137,194)" fill-opacity="1.0">
            </rect>
            <rect x="0.0" y="35.3" height="79.7" width="23.0" stroke-width="0.0" fill="rgb(63,130,184)" fill-opacity="1.0">
            </rect>
            <rect x="0.0" y="40.849999999999994" height="74.15" width="23.0" stroke-width="0.0" fill="rgb(59,123,175)" fill-opacity="1.0">
            </rect>
            <rect x="0.0" y="46.39999999999999" height="68.60000000000001" width="23.0" stroke-width="0.0" fill="rgb(56,116,166)" fill-opacity="1.0">
            </rect>
            <rect x="0.0" y="51.94999999999999" height="63.05000000000001" width="23.0" stroke-width="0.0" fill="rgb(52,110,156)" fill-opacity="1.0">
            </rect>
            <rect x="0.0" y="57.499999999999986" height="57.500000000000014" width="23.0" stroke-width="0.0" fill="rgb(49,103,147)" fill-opacity="1.0">
            </rect>
            <rect x="0.0" y="63.04999999999998" height="51.95000000000002" width="23.0" stroke-width="0.0" fill="rgb(46,96,138)" fill-opacity="1.0">
            </rect>
            <rect x="0.0" y="68.59999999999998" height="46.40000000000002" width="23.0" stroke-width="0.0" fill="rgb(42,90,130)" fill-opacity="1.0">
            </rect>
            <rect x="0.0" y="74.14999999999998" height="40.85000000000002" width="23.0" stroke-width="0.0" fill="rgb(39,83,121)" fill-opacity="1.0">
            </rect>
            <rect x="0.0" y="79.69999999999997" height="35.300000000000026" width="23.0" stroke-width="0.0" fill="rgb(36,77,112)" fill-opacity="1.0">
            </rect>
            <rect x="0.0" y="85.24999999999997" height="29.75000000000003" width="23.0" stroke-width="0.0" fill="rgb(33,70,104)" fill-opacity="1.0">
            </rect>
            <rect x="0.0" y="90.79999999999997" height="24.20000000000003" width="23.0" stroke-width="0.0" fill="rgb(30,64,95)" fill-opacity="1.0">
            </rect>
            <rect x="0.0" y="96.34999999999997" height="18.650000000000034" width="23.0" stroke-width="0.0" fill="rgb(27,58,87)" fill-opacity="1.0">
            </rect>
            <rect x="0.0" y="101.89999999999996" height="13.100000000000037" width="23.0" stroke-width="0.0" fill="rgb(24,52,79)" fill-opacity="1.0">
            </rect>
            <rect x="0.0" y="107.44999999999996" height="7.55000000000004" width="23.0" stroke-width="0.0" fill="rgb(20,46,71)" fill-opacity="1.0">
            </rect>
            <line x1="0.0" y1="108.73076923076921" x2="4.6" y2="108.73076923076921" stroke-width="1.0" stroke="rgb(25,25,28)" stroke-opacity="1.0">
            </line>
            <line x1="18.4" y1="108.73076923076921" x2="23.0" y2="108.73076923076921" stroke-width="1.0" stroke="rgb(25,25,28)" stroke-opacity="1.0">
            </line>
            <g transform="translate(26.9903027277341 113.28076923076921 ) ">
              <text class="legend-item" y="0.0">
                <tspan>10</tspan>
              </text>
            </g>
            <line x1="0.0" y1="87.38461538461537" x2="4.6" y2="87.38461538461537" stroke-width="1.0" stroke="rgb(25,25,28)" stroke-opacity="1.0">
            </line>
            <line x1="18.4" y1="87.38461538461537" x2="23.0" y2="87.38461538461537" stroke-width="1.0" stroke="rgb(25,25,28)" stroke-opacity="1.0">
            </line>
            <g transform="translate(26.9903027277341 91.93461538461537 ) ">
              <text class="legend-item" y="0.0">
                <tspan>15</tspan>
              </text>
            </g>
            <line x1="0.0" y1="66.03846153846152" x2="4.6" y2="66.03846153846152" stroke-width="1.0" stroke="rgb(25,25,28)" stroke-opacity="1.0">
            </line>
            <line x1="18.4" y1="66.03846153846152" x2="23.0" y2="66.03846153846152" stroke-width="1.0" stroke="rgb(25,25,28)" stroke-opacity="1.0">
            </line>
            <g transform="translate(26.9903027277341 70.58846153846152 ) ">
              <text class="legend-item" y="0.0">
                <tspan>20</tspan>
              </text>
            </g>
            <line x1="0.0" y1="44.69230769230768" x2="4.6" y2="44.69230769230768" stroke-width="1.0" stroke="rgb(25,25,28)" stroke-opacity="1.0">
            </line>
            <line x1="18.4" y1="44.69230769230768" x2="23.0" y2="44.69230769230768" stroke-width="1.0" stroke="rgb(25,25,28)" stroke-opacity="1.0">
            </line>
            <g transform="translate(26.9903027277341 49.242307692307676 ) ">
              <text class="legend-item" y="0.0">
                <tspan>25</tspan>
              </text>
            </g>
            <line x1="0.0" y1="23.34615384615384" x2="4.6" y2="23.34615384615384" stroke-width="1.0" stroke="rgb(25,25,28)" stroke-opacity="1.0">
            </line>
            <line x1="18.4" y1="23.34615384615384" x2="23.0" y2="23.34615384615384" stroke-width="1.0" stroke="rgb(25,25,28)" stroke-opacity="1.0">
            </line>
            <g transform="translate(26.9903027277341 27.896153846153837 ) ">
              <text class="legend-item" y="0.0">
                <tspan>30</tspan>
              </text>
            </g>
            <line x1="0.0" y1="1.9999999999999716" x2="4.6" y2="1.9999999999999716" stroke-width="1.0" stroke="rgb(25,25,28)" stroke-opacity="1.0">
            </line>
            <line x1="18.4" y1="1.9999999999999716" x2="23.0" y2="1.9999999999999716" stroke-width="1.0" stroke="rgb(25,25,28)" stroke-opacity="1.0">
            </line>
            <g transform="translate(26.9903027277341 6.5499999999999705 ) ">
              <text class="legend-item" y="0.0">
                <tspan>35</tspan>
              </text>
            </g>
          </g>
        </g>
      </g>
    </g>
    <g transform="translate(642.0484863613295 176.0 ) ">
      <rect x="5.0" y="5.0" height="101.5" width="44.970908183202305" stroke="rgb(187,187,187)" stroke-opacity="1.0" stroke-width="0.0" fill="rgb(25,25,28)" fill-opacity="1.0">
      </rect>
      <g transform="translate(10.0 10.0 ) ">
        <g transform="translate(0.0 12.0 ) ">
          <text class="legend-title" y="0.0">
            <tspan>drv</tspan>
          </text>
        </g>
        <g transform="translate(0.0 22.5 ) ">
          <g transform="">
            <g>
              <rect x="0.0" y="0.0" height="23.0" width="23.0" stroke-width="0.0" fill="rgb(25,25,28)" fill-opacity="1.0">
              </rect>
              <g transform="translate(1.0 1.0 ) ">
                <g>
                  <g >
                    <circle fill="#bbbbbb" stroke="#bbbbbb" stroke-opacity="0.0" stroke-width="0.0" cx="10.5" cy="10.5" r="5.5" />
                  </g>
                </g>
              </g>
              <rect x="0.0" y="0.0" height="23.0" width="23.0" stroke="rgb(25,25,28)" stroke-opacity="1.0" stroke-width="1.0" fill-opacity="0.0">
              </rect>
            </g>
            <g transform="translate(26.9903027277341 16.05 ) ">
              <text class="legend-item" y="0.0">
                <tspan>f</tspan>
              </text>
            </g>
          </g>
          <g transform="translate(0.0 23.0 ) ">
            <g>
              <rect x="0.0" y="0.0" height="23.0" width="23.0" stroke-width="0.0" fill="rgb(25,25,28)" fill-opacity="1.0">
              </rect>
              <g transform="translate(1.0 1.0 ) ">
                <g>
                  <g >
                    <path fill="#bbbbbb" stroke="#bbbbbb" stroke-opacity="0.0" stroke-width="0.0" d="M10.5 5.736860279185588 L10.5 5.736860279185588 L16.0 15.263139720814412 L5.0 15.263139720814412 Z" transform="rotate(0.0 10.5 10.5 ) " />
                  </g>
                </g>
              </g>
              <rect x="0.0" y="0.0" height="23.0" width="23.0" stroke="rgb(25,25,28)" stroke-opacity="1.0" stroke-width="1.0" fill-opacity="0.0">
              </rect>
            </g>
            <g transform="translate(26.9903027277341 16.05 ) ">
              <text class="legend-item" y="0.0">
                <tspan>4</tspan>
              </text>
            </g>
          </g>
          <g transform="translate(0.0 46.0 ) ">
            <g>
              <rect x="0.0" y="0.0" height="23.0" width="23.0" stroke-width="0.0" fill="rgb(25,25,28)" fill-opacity="1.0">
              </rect>
              <g transform="translate(1.0 1.0 ) ">
                <g>
                  <g >
                    <rect fill="#bbbbbb" stroke="#bbbbbb" stroke-opacity="0.0" stroke-width="0.0" x="5.0" y="5.0" height="11.0" width="11.0" transform="rotate(0.0 10.5 10.5 ) " />
                  </g>
                </g>
              </g>
              <rect x="0.0" y="0.0" height="23.0" width="23.0" stroke="rgb(25,25,28)" stroke-opacity="1.0" stroke-width="1.0" fill-opacity="0.0">
              </rect>
            </g>
            <g transform="translate(26.9903027277341 16.05 ) ">
              <text class="legend-item" y="0.0">
                <tspan>r</tspan>
              </text>
            </g>
          </g>
        </g>
      </g>
    </g>
    <path fill="rgb(0,0,0)" fill-opacity="0.0" stroke="rgb(187,187,187)" stroke-opacity="1.0" stroke-width="0.0" d="M0.0 0.0 L0.0 352.0 L705.0 352.0 L705.0 0.0 Z">
    </path>
  </g>
  <g id="xXxprefixXx2">
  </g>
</svg>