<svg xmlns="http://www.w3.org/2000/svg" xmlns:xlink="http://www.w3.org/1999/xlink" class="plt-container" width="705.0" height="313.0">
  <style type="text/css">
  .plt-container {
   font-family: Lucida Grande, sans-serif;
   user-select: none;
   -webkit-user-select: none;
   -moz-user-select: none;
   -ms-user-select: none;
}
text {
   text-rendering: optimizeLegibility;
}
#xXxprefixXx0 .plot-title {
   fill: #474747;
   font-family: Lucida Grande, sans-serif;
   font-size: 16.0px;
   font-weight: normal;
   font-style: normal;   
}
#xXxprefixXx0 .plot-subtitle {
   fill: #474747;
   font-family: Lucida Grande, sans-serif;
   font-size: 15.0px;
   font-weight: normal;
   font-style: normal;   
}
#xXxprefixXx0 .plot-caption {
   fill: #474747;
   font-family: Lucida Grande, sans-serif;
   font-size: 13.0px;
   font-weight: normal;
   font-style: normal;   
}
#xXxprefixXx0 .legend-title {
   fill: #474747;
   font-family: Lucida Grande, sans-serif;
   font-size: 15.0px;
   font-weight: normal;
   font-style: normal;   
}
#xXxprefixXx0 .legend-item {
   fill: #474747;
   font-family: Lucida Grande, sans-serif;
   font-size: 13.0px;
   font-weight: normal;
   font-style: normal;   
}
#xXxprefixXx0 .axis-title-x {
   fill: #474747;
   font-family: Lucida Grande, sans-serif;
   font-size: 15.0px;
   font-weight: normal;
   font-style: normal;   
}
#xXxprefixXx0 .axis-text-x {
   fill: #474747;
   font-family: Lucida Grande, sans-serif;
   font-size: 13.0px;
   font-weight: normal;
   font-style: normal;   
}
#xXxprefixXx2 .axis-tooltip-text-x {
   fill: #ffffff;
   font-family: Lucida Grande, sans-serif;
   font-size: 13.0px;
   font-weight: normal;
   font-style: normal;   
}
#xXxprefixXx0 .axis-title-y {
   fill: #474747;
   font-family: Lucida Grande, sans-serif;
   font-size: 15.0px;
   font-weight: normal;
   font-style: normal;   
}
#xXxprefixXx0 .axis-text-y {
   fill: #474747;
   font-family: Lucida Grande, sans-serif;
   font-size: 13.0px;
   font-weight: normal;
   font-style: normal;   
}
#xXxprefixXx2 .axis-tooltip-text-y {
   fill: #ffffff;
   font-family: Lucida Grande, sans-serif;
   font-size: 13.0px;
   font-weight: normal;
   font-style: normal;   
}
#xXxprefixXx0 .facet-strip-text-x {
   fill: #474747;
   font-family: Lucida Grande, sans-serif;
   font-size: 13.0px;
   font-weight: normal;
   font-style: normal;   
}
#xXxprefixXx0 .facet-strip-text-y {
   fill: #474747;
   font-family: Lucida Grande, sans-serif;
   font-size: 13.0px;
   font-weight: normal;
   font-style: normal;   
}
#xXxprefixXx2 .tooltip-text {
   fill: #474747;
   font-family: Lucida Grande, sans-serif;
   font-size: 13.0px;
   font-weight: normal;
   font-style: normal;   
}
#xXxprefixXx2 .tooltip-title {
   fill: #474747;
   font-family: Lucida Grande, sans-serif;
   font-size: 13.0px;
   font-weight: bold;
   font-style: normal;   
}
#xXxprefixXx2 .tooltip-label {
   fill: #474747;
   font-family: Lucida Grande, sans-serif;
   font-size: 13.0px;
   font-weight: bold;
   font-style: normal;   
}

  </style>
  <g id="xXxprefixXx0">
    <path fill-rule="evenodd" fill="rgb(255,255,255)" fill-opacity="1.0" d="M0.0 0.0 L0.0 313.0 L705.0 313.0 L705.0 0.0 Z">
    </path>
    <g transform="translate(23.0 10.0 ) ">
      <g transform="translate(21.961210910936405 0.0 ) ">
        <line x1="71.02197836863525" y1="257.0" x2="71.02197836863525" y2="0.0" stroke="rgb(233,233,233)" stroke-opacity="1.0" stroke-width="1.0" fill="none">
        </line>
        <line x1="153.93364052770698" y1="257.0" x2="153.93364052770698" y2="0.0" stroke="rgb(233,233,233)" stroke-opacity="1.0" stroke-width="1.0" fill="none">
        </line>
        <line x1="236.95888030617493" y1="257.0" x2="236.95888030617493" y2="0.0" stroke="rgb(233,233,233)" stroke-opacity="1.0" stroke-width="1.0" fill="none">
        </line>
        <line x1="319.8705424652469" y1="257.0" x2="319.8705424652469" y2="0.0" stroke="rgb(233,233,233)" stroke-opacity="1.0" stroke-width="1.0" fill="none">
        </line>
        <line x1="402.89578224371485" y1="257.0" x2="402.89578224371485" y2="0.0" stroke="rgb(233,233,233)" stroke-opacity="1.0" stroke-width="1.0" fill="none">
        </line>
        <line x1="485.8074444027868" y1="257.0" x2="485.8074444027868" y2="0.0" stroke="rgb(233,233,233)" stroke-opacity="1.0" stroke-width="1.0" fill="none">
        </line>
        <line x1="568.8326841812548" y1="257.0" x2="568.8326841812548" y2="0.0" stroke="rgb(233,233,233)" stroke-opacity="1.0" stroke-width="1.0" fill="none">
        </line>
      </g>
      <g transform="translate(21.961210910936405 257.0 ) ">
        <g transform="translate(71.02197836863525 0.0 ) ">
          <line stroke-width="1.0" stroke="rgb(71,71,71)" stroke-opacity="1.0" x2="0.0" y2="4.0">
          </line>
          <g transform="translate(0.0 7.0 ) ">
            <text class="axis-text-x" text-anchor="middle" dy="0.7em">
              <tspan>2002</tspan>
            </text>
          </g>
        </g>
        <g transform="translate(153.93364052770698 0.0 ) ">
          <line stroke-width="1.0" stroke="rgb(71,71,71)" stroke-opacity="1.0" x2="0.0" y2="4.0">
          </line>
          <g transform="translate(0.0 7.0 ) ">
            <text class="axis-text-x" text-anchor="middle" dy="0.7em">
              <tspan>2004</tspan>
            </text>
          </g>
        </g>
        <g transform="translate(236.95888030617493 0.0 ) ">
          <line stroke-width="1.0" stroke="rgb(71,71,71)" stroke-opacity="1.0" x2="0.0" y2="4.0">
          </line>
          <g transform="translate(0.0 7.0 ) ">
            <text class="axis-text-x" text-anchor="middle" dy="0.7em">
              <tspan>2006</tspan>
            </text>
          </g>
        </g>
        <g transform="translate(319.8705424652469 0.0 ) ">
          <line stroke-width="1.0" stroke="rgb(71,71,71)" stroke-opacity="1.0" x2="0.0" y2="4.0">
          </line>
          <g transform="translate(0.0 7.0 ) ">
            <text class="axis-text-x" text-anchor="middle" dy="0.7em">
              <tspan>2008</tspan>
            </text>
          </g>
        </g>
        <g transform="translate(402.89578224371485 0.0 ) ">
          <line stroke-width="1.0" stroke="rgb(71,71,71)" stroke-opacity="1.0" x2="0.0" y2="4.0">
          </line>
          <g transform="translate(0.0 7.0 ) ">
            <text class="axis-text-x" text-anchor="middle" dy="0.7em">
              <tspan>2010</tspan>
            </text>
          </g>
        </g>
        <g transform="translate(485.8074444027868 0.0 ) ">
          <line stroke-width="1.0" stroke="rgb(71,71,71)" stroke-opacity="1.0" x2="0.0" y2="4.0">
          </line>
          <g transform="translate(0.0 7.0 ) ">
            <text class="axis-text-x" text-anchor="middle" dy="0.7em">
              <tspan>2012</tspan>
            </text>
          </g>
        </g>
        <g transform="translate(568.8326841812548 0.0 ) ">
          <line stroke-width="1.0" stroke="rgb(71,71,71)" stroke-opacity="1.0" x2="0.0" y2="4.0">
          </line>
          <g transform="translate(0.0 7.0 ) ">
            <text class="axis-text-x" text-anchor="middle" dy="0.7em">
              <tspan>2014</tspan>
            </text>
          </g>
        </g>
        <line x1="0.0" y1="0.0" x2="650.0387890890636" y2="0.0" stroke-width="1.0" stroke="rgb(71,71,71)" stroke-opacity="1.0">
        </line>
      </g>
      <g transform="translate(21.961210910936405 0.0 ) ">
        <line x1="0.0" y1="194.73711340206182" x2="650.0387890890636" y2="194.73711340206182" stroke="rgb(233,233,233)" stroke-opacity="1.0" stroke-width="1.0" fill="none">
        </line>
        <line x1="0.0" y1="134.52155576382378" x2="650.0387890890636" y2="134.52155576382378" stroke="rgb(233,233,233)" stroke-opacity="1.0" stroke-width="1.0" fill="none">
        </line>
        <line x1="0.0" y1="74.30599812558572" x2="650.0387890890636" y2="74.30599812558572" stroke="rgb(233,233,233)" stroke-opacity="1.0" stroke-width="1.0" fill="none">
        </line>
        <line x1="0.0" y1="14.090440487347621" x2="650.0387890890636" y2="14.090440487347621" stroke="rgb(233,233,233)" stroke-opacity="1.0" stroke-width="1.0" fill="none">
        </line>
      </g>
      <g transform="translate(21.961210910936405 0.0 ) ">
        <g transform="translate(0.0 254.9526710402999 ) ">
          <g transform="translate(-3.0 0.0 ) ">
            <text class="axis-text-y" text-anchor="end" dy="0.35em">
              <tspan>5</tspan>
            </text>
          </g>
        </g>
        <g transform="translate(0.0 194.73711340206182 ) ">
          <g transform="translate(-3.0 0.0 ) ">
            <text class="axis-text-y" text-anchor="end" dy="0.35em">
              <tspan>10</tspan>
            </text>
          </g>
        </g>
        <g transform="translate(0.0 134.52155576382378 ) ">
          <g transform="translate(-3.0 0.0 ) ">
            <text class="axis-text-y" text-anchor="end" dy="0.35em">
              <tspan>15</tspan>
            </text>
          </g>
        </g>
        <g transform="translate(0.0 74.30599812558572 ) ">
          <g transform="translate(-3.0 0.0 ) ">
            <text class="axis-text-y" text-anchor="end" dy="0.35em">
              <tspan>20</tspan>
            </text>
          </g>
        </g>
        <g transform="translate(0.0 14.090440487347621 ) ">
          <g transform="translate(-3.0 0.0 ) ">
            <text class="axis-text-y" text-anchor="end" dy="0.35em">
              <tspan>25</tspan>
            </text>
          </g>
        </g>
      </g>
      <g transform="translate(21.961210910936405 0.0 ) " clip-path="url(#xXxprefixXx1)" clip-bounds-jfx="[rect (0.0, 0.0), (650.0387890890636, 257.0)]">
        <defs>
          <clipPath id="xXxprefixXx1">
            <rect x="0.0" y="0.0" width="650.0387890890636" height="257.0">
            </rect>
          </clipPath>
        </defs>
        <g>
          <path d="M29.5472176858666 245.3181818181818 L29.5472176858666 245.3181818181818 L33.068123887142065 241.70524835988752 L36.24829723022981 235.68369259606374 L39.76447103069745 244.11387066541704 L43.17179961257693 239.296626054358 L46.692705813852626 242.90955951265227 L50.10003439573234 233.2750702905342 L53.62094059700803 232.07075913776941 L57.14184679828372 228.45782567947515 L60.54917538016343 227.25351452671038 L64.07481398224718 222.43626991565134 L67.48214256412689 216.41471415182752 L71.00304876540258 214.006091846298 L74.52395496667805 215.21040299906275 L77.70412830976579 214.006091846298 L81.22030211023343 207.98453608247422 L84.62763069211292 200.75866916588564 L88.14853689338861 182.69400187441423 L91.55586547526832 207.98453608247422 L95.07677167654401 206.78022492970945 L98.5976778778197 200.75866916588564 L102.00500645969919 199.5543580131209 L105.53064506178316 203.16729147141515 L108.93797364366287 199.5543580131209 L112.45887984493856 199.5543580131209 L115.97978604621403 200.75866916588564 L119.15995938930178 198.35004686035614 L122.67613318976919 192.32849109653233 L126.0834617716489 195.9414245548266 L129.6043679729246 176.6724461105904 L133.0116965548043 191.12417994376756 L136.53260275608 193.53280224929708 L140.0535089573557 192.32849109653233 L143.46083753923517 189.91986879100278 L146.98647614131914 191.12417994376756 L150.39380472319885 189.91986879100278 L153.91471092447432 187.51124648547327 L157.43561712575 192.32849109653233 L160.72936808823374 192.32849109653233 L164.24554188870115 200.75866916588564 L167.65287047058087 195.9414245548266 L171.17377667185656 182.69400187441423 L174.58110525373627 207.98453608247422 L178.10201145501196 204.37160262417993 L181.62291765628765 199.5543580131209 L185.03024623816714 200.75866916588564 L188.5558848402511 198.35004686035614 L191.96321342213082 200.75866916588564 L195.4841196234063 201.9629803186504 L199.00502582468198 204.37160262417993 L202.18519916776972 203.16729147141515 L205.70137296823714 206.78022492970945 L209.10870155011685 205.57591377694467 L212.62960775139254 206.78022492970945 L216.03693633327225 209.18884723523894 L219.55784253454794 204.37160262417993 L223.07874873582364 214.006091846298 L226.48607731770312 211.5974695407685 L230.0117159197871 212.80178069353326 L233.4190445016668 210.39315838800374 L236.93995070294227 211.5974695407685 L240.46085690421796 205.57591377694467 L243.6410302473057 210.39315838800374 L247.15720404777312 214.006091846298 L250.56453262965283 212.80178069353326 L254.08543883092852 227.25351452671038 L257.49276741280823 218.82333645735707 L261.0136736140839 214.006091846298 L264.5345798153594 218.82333645735707 L267.9419083972391 220.02764761012182 L271.4675469993231 215.21040299906275 L274.87487558120256 224.84489222118088 L278.39578178247825 215.21040299906275 L281.91668798375395 212.80178069353326 L285.0968613268417 205.57591377694467 L288.6130351273091 211.5974695407685 L292.0203637091888 216.41471415182752 L295.5412699104645 222.43626991565134 L298.9485984923442 210.39315838800374 L302.4695046936199 209.18884723523894 L305.9904108948954 210.39315838800374 L309.3977394767751 214.006091846298 L312.92337807885906 211.5974695407685 L316.33070666073854 214.006091846298 L319.85161286201424 206.78022492970945 L323.37251906328993 210.39315838800374 L326.66627002577366 210.39315838800374 L330.18244382624107 201.9629803186504 L333.5897724081208 220.02764761012182 L337.1106786093965 206.78022492970945 L340.5180071912762 198.35004686035614 L344.0389133925519 198.35004686035614 L347.55981959382734 192.32849109653233 L350.96714817570705 189.91986879100278 L354.492786777791 197.14573570759134 L357.9001153596705 188.715557638238 L361.4210215609462 186.30693533270852 L364.9419277622219 174.2638238050609 L368.12210110530964 167.0379568884723 L371.63827490577705 157.40346766635423 L375.04560348765676 144.15604498594186 L378.56650968893246 108.02671040299904 L381.97383827081217 122.47844423617616 L385.49474447208786 118.86551077788187 L389.0156506733633 100.80084348641046 L392.42297925524304 87.55342080599809 L395.948617857327 76.71462043111524 L399.3559464392065 73.10168697282094 L402.8768526404822 74.30599812558572 L406.3977588417579 75.51030927835049 L409.5779321848456 69.48875351452668 L413.09410598531304 49.01546391752572 L416.50143456719275 46.606841611996174 L420.02234076846844 11.68181818181813 L423.42966935034815 46.606841611996174 L426.9505755516236 62.26288659793809 L430.4714817528993 70.69306466729142 L433.878810334779 59.85426429240857 L437.40444893686276 62.26288659793809 L440.8117775187425 51.42408622305527 L444.33268372001817 56.24133083411431 L447.85358992129386 61.05857544517332 L451.0337632643816 56.24133083411431 L454.549937064849 63.467197750702866 L457.95726564672873 55.037019681349534 L461.4781718480044 45.40253045923146 L464.88550042988413 50.219775070290495 L468.4064066311596 45.40253045923146 L471.9273128324353 50.219775070290495 L475.334641414315 67.08013120899713 L478.86028001639875 64.67150890346761 L482.26760859827846 68.2844423617619 L485.78851479955415 64.67150890346761 L489.30942100082984 77.91893158388001 L492.60317196331357 83.94048734770382 L496.12407816458926 85.14479850046854 L499.53140674646875 75.51030927835049 L503.05231294774444 69.48875351452668 L506.45964152962415 104.41377694470475 L509.98054773089984 93.5749765698219 L513.5014539321755 88.75773195876283 L516.9087825140552 75.51030927835049 L520.4296887153307 91.16635426429235 L523.8370172972104 102.00515463917523 L527.3579234984861 124.88706654170568 L530.8788296997618 108.02671040299904 L534.0590030428496 103.20946579193995 L537.5799092441252 109.23102155576376 L540.9872378260047 109.23102155576376 L544.5081440272804 110.43533270852853 L547.9154726091601 120.06982193064664 L551.4363788104358 116.45688847235235 L554.9572850117115 116.45688847235235 L558.3646135935912 118.86551077788187 L561.8855197948667 109.23102155576376 L565.2928483767464 106.82239925023424 L568.8137545780221 129.70431115276472 L572.3346607792978 123.6827553889409 L575.5148341223855 124.88706654170568 L579.035740323661 126.09137769447045 L582.4430689055407 139.33880037488282 L585.9639751068164 148.9732895970009 L589.3713036886961 157.40346766635423 L592.8922098899718 159.81208997188375 L596.4131160912475 153.79053420805994 L599.820444673127 151.38191190253045 L603.3413508744027 158.607778819119 L606.7486794562824 159.81208997188375 L610.2695856575581 156.1991565135895 L613.7904918588338 159.81208997188375 L616.9706652019215 170.6508903467666 L620.491571403197 176.6724461105904 " fill="none" stroke-width="1.6500000000000001" stroke="rgb(71,71,71)" stroke-opacity="1.0">
          </path>
        </g>
      </g>
    </g>
    <g transform="translate(14.5 138.5 ) rotate(-90.0 ) ">
      <text class="axis-title-y" y="0.0" text-anchor="middle">
        <tspan>unemployment rate</tspan>
      </text>
    </g>
    <g transform="translate(369.9806054554682 304.5 ) ">
      <text class="axis-title-x" y="0.0" text-anchor="middle">
        <tspan>date</tspan>
      </text>
    </g>
    <path fill="rgb(0,0,0)" fill-opacity="0.0" stroke="rgb(71,71,71)" stroke-opacity="1.0" stroke-width="0.0" d="M0.0 0.0 L0.0 313.0 L705.0 313.0 L705.0 0.0 Z">
    </path>
  </g>
  <g id="xXxprefixXx2">
  </g>
</svg>