<svg xmlns="http://www.w3.org/2000/svg" xmlns:xlink="http://www.w3.org/1999/xlink" class="plt-container" width="705.0" height="313.0">
  <style type="text/css">
  .plt-container {
   font-family: Lucida Grande, sans-serif;
   user-select: none;
   -webkit-user-select: none;
   -moz-user-select: none;
   -ms-user-select: none;
}
text {
   text-rendering: optimizeLegibility;
}
#xXxprefixXx0 .plot-title {
   fill: #474747;
   font-family: Lucida Grande, sans-serif;
   font-size: 16.0px;
   font-weight: normal;
   font-style: normal;   
}
#xXxprefixXx0 .plot-subtitle {
   fill: #474747;
   font-family: Lucida Grande, sans-serif;
   font-size: 15.0px;
   font-weight: normal;
   font-style: normal;   
}
#xXxprefixXx0 .plot-caption {
   fill: #474747;
   font-family: Lucida Grande, sans-serif;
   font-size: 13.0px;
   font-weight: normal;
   font-style: normal;   
}
#xXxprefixXx0 .legend-title {
   fill: #474747;
   font-family: Lucida Grande, sans-serif;
   font-size: 15.0px;
   font-weight: normal;
   font-style: normal;   
}
#xXxprefixXx0 .legend-item {
   fill: #474747;
   font-family: Lucida Grande, sans-serif;
   font-size: 13.0px;
   font-weight: normal;
   font-style: normal;   
}
#xXxprefixXx0 .axis-title-x {
   fill: #474747;
   font-family: Lucida Grande, sans-serif;
   font-size: 15.0px;
   font-weight: normal;
   font-style: normal;   
}
#xXxprefixXx0 .axis-text-x {
   fill: #474747;
   font-family: Lucida Grande, sans-serif;
   font-size: 13.0px;
   font-weight: normal;
   font-style: normal;   
}
#xXxprefixXx2 .axis-tooltip-text-x {
   fill: #ffffff;
   font-family: Lucida Grande, sans-serif;
   font-size: 13.0px;
   font-weight: normal;
   font-style: normal;   
}
#xXxprefixXx0 .axis-title-y {
   fill: #474747;
   font-family: Lucida Grande, sans-serif;
   font-size: 15.0px;
   font-weight: normal;
   font-style: normal;   
}
#xXxprefixXx0 .axis-text-y {
   fill: #474747;
   font-family: Lucida Grande, sans-serif;
   font-size: 13.0px;
   font-weight: normal;
   font-style: normal;   
}
#xXxprefixXx2 .axis-tooltip-text-y {
   fill: #ffffff;
   font-family: Lucida Grande, sans-serif;
   font-size: 13.0px;
   font-weight: normal;
   font-style: normal;   
}
#xXxprefixXx0 .facet-strip-text-x {
   fill: #474747;
   font-family: Lucida Grande, sans-serif;
   font-size: 13.0px;
   font-weight: normal;
   font-style: normal;   
}
#xXxprefixXx0 .facet-strip-text-y {
   fill: #474747;
   font-family: Lucida Grande, sans-serif;
   font-size: 13.0px;
   font-weight: normal;
   font-style: normal;   
}
#xXxprefixXx2 .tooltip-text {
   fill: #474747;
   font-family: Lucida Grande, sans-serif;
   font-size: 13.0px;
   font-weight: normal;
   font-style: normal;   
}
#xXxprefixXx2 .tooltip-title {
   fill: #474747;
   font-family: Lucida Grande, sans-serif;
   font-size: 13.0px;
   font-weight: bold;
   font-style: normal;   
}
#xXxprefixXx2 .tooltip-label {
   fill: #474747;
   font-family: Lucida Grande, sans-serif;
   font-size: 13.0px;
   font-weight: bold;
   font-style: normal;   
}

  </style>
  <g id="xXxprefixXx0">
    <path fill-rule="evenodd" fill="rgb(255,255,255)" fill-opacity="1.0" d="M0.0 0.0 L0.0 313.0 L705.0 313.0 L705.0 0.0 Z">
    </path>
    <g transform="translate(23.0 10.0 ) ">
      <g transform="translate(53.92376780579295 257.0 ) ">
        <line x1="67.51662792197612" y1="-0.0" x2="67.51662792197612" y2="-257.0" stroke="rgb(233,233,233)" stroke-opacity="1.0" stroke-width="1.0">
        </line>
        <line x1="146.3521358974249" y1="-0.0" x2="146.3521358974249" y2="-257.0" stroke="rgb(233,233,233)" stroke-opacity="1.0" stroke-width="1.0">
        </line>
        <line x1="225.29563771941548" y1="-0.0" x2="225.29563771941548" y2="-257.0" stroke="rgb(233,233,233)" stroke-opacity="1.0" stroke-width="1.0">
        </line>
        <line x1="304.1311456948645" y1="-0.0" x2="304.1311456948645" y2="-257.0" stroke="rgb(233,233,233)" stroke-opacity="1.0" stroke-width="1.0">
        </line>
        <line x1="383.07464751685507" y1="-0.0" x2="383.07464751685507" y2="-257.0" stroke="rgb(233,233,233)" stroke-opacity="1.0" stroke-width="1.0">
        </line>
        <line x1="461.91015549230383" y1="-0.0" x2="461.91015549230383" y2="-257.0" stroke="rgb(233,233,233)" stroke-opacity="1.0" stroke-width="1.0">
        </line>
        <line x1="540.8536573142947" y1="-0.0" x2="540.8536573142947" y2="-257.0" stroke="rgb(233,233,233)" stroke-opacity="1.0" stroke-width="1.0">
        </line>
        <g transform="translate(67.51662792197612 0.0 ) ">
          <line stroke-width="1.0" stroke="rgb(71,71,71)" stroke-opacity="1.0" x2="0.0" y2="4.0">
          </line>
          <g transform="translate(0.0 7.0 ) ">
            <text class="axis-text-x" text-anchor="middle" dy="0.7em">
            Jan 2002
            </text>
          </g>
        </g>
        <g transform="translate(146.3521358974249 0.0 ) ">
          <line stroke-width="1.0" stroke="rgb(71,71,71)" stroke-opacity="1.0" x2="0.0" y2="4.0">
          </line>
          <g transform="translate(0.0 7.0 ) ">
            <text class="axis-text-x" text-anchor="middle" dy="0.7em">
            Jan 2004
            </text>
          </g>
        </g>
        <g transform="translate(225.29563771941548 0.0 ) ">
          <line stroke-width="1.0" stroke="rgb(71,71,71)" stroke-opacity="1.0" x2="0.0" y2="4.0">
          </line>
          <g transform="translate(0.0 7.0 ) ">
            <text class="axis-text-x" text-anchor="middle" dy="0.7em">
            Jan 2006
            </text>
          </g>
        </g>
        <g transform="translate(304.1311456948645 0.0 ) ">
          <line stroke-width="1.0" stroke="rgb(71,71,71)" stroke-opacity="1.0" x2="0.0" y2="4.0">
          </line>
          <g transform="translate(0.0 7.0 ) ">
            <text class="axis-text-x" text-anchor="middle" dy="0.7em">
            Jan 2008
            </text>
          </g>
        </g>
        <g transform="translate(383.07464751685507 0.0 ) ">
          <line stroke-width="1.0" stroke="rgb(71,71,71)" stroke-opacity="1.0" x2="0.0" y2="4.0">
          </line>
          <g transform="translate(0.0 7.0 ) ">
            <text class="axis-text-x" text-anchor="middle" dy="0.7em">
            Jan 2010
            </text>
          </g>
        </g>
        <g transform="translate(461.91015549230383 0.0 ) ">
          <line stroke-width="1.0" stroke="rgb(71,71,71)" stroke-opacity="1.0" x2="0.0" y2="4.0">
          </line>
          <g transform="translate(0.0 7.0 ) ">
            <text class="axis-text-x" text-anchor="middle" dy="0.7em">
            Jan 2012
            </text>
          </g>
        </g>
        <g transform="translate(540.8536573142947 0.0 ) ">
          <line stroke-width="1.0" stroke="rgb(71,71,71)" stroke-opacity="1.0" x2="0.0" y2="4.0">
          </line>
          <g transform="translate(0.0 7.0 ) ">
            <text class="axis-text-x" text-anchor="middle" dy="0.7em">
            Jan 2014
            </text>
          </g>
        </g>
        <line x1="0.0" y1="0.0" x2="618.076232194207" y2="0.0" stroke-width="1.0" stroke="rgb(71,71,71)" stroke-opacity="1.0">
        </line>
      </g>
      <g transform="translate(53.92376780579295 0.0 ) ">
        <line x1="0.0" y1="194.73711340206182" x2="618.076232194207" y2="194.73711340206182" stroke="rgb(233,233,233)" stroke-opacity="1.0" stroke-width="1.0">
        </line>
        <line x1="0.0" y1="134.52155576382378" x2="618.076232194207" y2="134.52155576382378" stroke="rgb(233,233,233)" stroke-opacity="1.0" stroke-width="1.0">
        </line>
        <line x1="0.0" y1="74.30599812558572" x2="618.076232194207" y2="74.30599812558572" stroke="rgb(233,233,233)" stroke-opacity="1.0" stroke-width="1.0">
        </line>
        <line x1="0.0" y1="14.090440487347621" x2="618.076232194207" y2="14.090440487347621" stroke="rgb(233,233,233)" stroke-opacity="1.0" stroke-width="1.0">
        </line>
        <g transform="translate(0.0 254.9526710402999 ) ">
          <g transform="translate(-3.0 0.0 ) ">
            <text class="axis-text-y" text-anchor="end" dy="0.35em">
            5.0 %
            </text>
          </g>
        </g>
        <g transform="translate(0.0 194.73711340206182 ) ">
          <g transform="translate(-3.0 0.0 ) ">
            <text class="axis-text-y" text-anchor="end" dy="0.35em">
            10.0 %
            </text>
          </g>
        </g>
        <g transform="translate(0.0 134.52155576382378 ) ">
          <g transform="translate(-3.0 0.0 ) ">
            <text class="axis-text-y" text-anchor="end" dy="0.35em">
            15.0 %
            </text>
          </g>
        </g>
        <g transform="translate(0.0 74.30599812558572 ) ">
          <g transform="translate(-3.0 0.0 ) ">
            <text class="axis-text-y" text-anchor="end" dy="0.35em">
            20.0 %
            </text>
          </g>
        </g>
        <g transform="translate(0.0 14.090440487347621 ) ">
          <g transform="translate(-3.0 0.0 ) ">
            <text class="axis-text-y" text-anchor="end" dy="0.35em">
            25.0 %
            </text>
          </g>
        </g>
      </g>
      <g transform="translate(53.92376780579295 0.0 ) " clip-path="url(#xXxprefixXx1)" clip-bounds-jfx="[rect (0.0, 0.0), (618.076232194207, 257.0)]">
        <defs>
          <clipPath id="xXxprefixXx1">
            <rect x="0.0" y="0.0" width="618.076232194207" height="257.0">
            </rect>
          </clipPath>
        </defs>
        <g>
          <path d="M28.094374190645794 245.3181818181818 L28.094374190645794 245.3181818181818 L31.442183433438686 241.70524835988752 L34.46601113660654 235.68369259606374 L37.80932063579371 244.11387066541704 L41.049136032045 239.296626054358 L44.39694527483812 242.90955951265227 L47.636760671089405 233.2750702905342 L50.984569913882524 232.07075913776941 L54.33237915667564 228.45782567947515 L57.57219455292693 227.25351452671038 L60.92450353932577 222.43626991565134 L64.16431893557706 216.41471415182752 L67.51212817837018 214.006091846298 L70.8599374211633 215.21040299906275 L73.88376512433115 214.006091846298 L77.22707462351832 207.98453608247422 L80.46689001976961 200.75866916588564 L83.8146992625625 182.69400187441423 L87.05451465881401 207.98453608247422 L90.4023239016069 206.78022492970945 L93.75013314440002 200.75866916588564 L96.98994854065131 199.5543580131209 L100.34225752705015 203.16729147141515 L103.58207292330167 199.5543580131209 L106.92988216609456 199.5543580131209 L110.27769140888768 200.75866916588564 L113.30151911205553 198.35004686035614 L116.6448286112427 192.32849109653233 L119.88464400749399 195.9414245548266 L123.23245325028711 176.6724461105904 L126.4722686465384 191.12417994376756 L129.8200778893313 193.53280224929708 L133.1678871321244 192.32849109653233 L136.4077025283757 189.91986879100278 L139.76001151477476 191.12417994376756 L142.99982691102605 189.91986879100278 L146.34763615381894 187.51124648547327 L149.69544539661206 192.32849109653233 L152.82726694632174 192.32849109653233 L156.1705764455089 200.75866916588564 L159.4103918417602 195.9414245548266 L162.7582010845531 182.69400187441423 L165.9980164808046 207.98453608247422 L169.3458257235975 204.37160262417993 L172.69363496639062 199.5543580131209 L175.9334503626419 200.75866916588564 L179.28575934904075 198.35004686035614 L182.52557474529226 200.75866916588564 L185.87338398808515 201.9629803186504 L189.22119323087827 204.37160262417993 L192.24502093404612 203.16729147141515 L195.5883304332333 206.78022492970945 L198.82814582948458 205.57591377694467 L202.1759550722777 206.78022492970945 L205.415770468529 209.18884723523894 L208.76357971132188 204.37160262417993 L212.111388954115 214.006091846298 L215.3512043503663 211.5974695407685 L218.70351333676535 212.80178069353326 L221.94332873301664 210.39315838800374 L225.29113797580976 211.5974695407685 L228.63894721860265 205.57591377694467 L231.6627749217705 210.39315838800374 L235.00608442095768 214.006091846298 L238.24589981720897 212.80178069353326 L241.59370906000208 227.25351452671038 L244.83352445625337 218.82333645735707 L248.1813336990465 214.006091846298 L251.52914294183938 218.82333645735707 L254.7689583380909 220.02764761012182 L258.12126732448974 215.21040299906275 L261.361082720741 224.84489222118088 L264.70889196353414 215.21040299906275 L268.05670120632703 212.80178069353326 L271.0805289094951 205.57591377694467 L274.42383840868206 211.5974695407685 L277.6636538049336 216.41471415182752 L281.01146304772647 222.43626991565134 L284.25127844397775 210.39315838800374 L287.5990876867709 209.18884723523894 L290.946896929564 210.39315838800374 L294.1867123258153 214.006091846298 L297.5390213122141 211.5974695407685 L300.7788367084654 214.006091846298 L304.1266459512585 206.78022492970945 L307.47445519405164 210.39315838800374 L310.6062767437611 210.39315838800374 L313.94958624294827 201.9629803186504 L317.18940163919956 220.02764761012182 L320.5372108819927 206.78022492970945 L323.77702627824397 198.35004686035614 L327.1248355210371 198.35004686035614 L330.47264476383 192.32849109653233 L333.7124601600815 189.91986879100278 L337.06476914648033 197.14573570759134 L340.3045845427316 188.715557638238 L343.65239378552474 186.30693533270852 L347.0002030283176 174.2638238050609 L350.0240307314857 167.0379568884723 L353.3673402306729 157.40346766635423 L356.60715562692417 144.15604498594186 L359.95496486971706 108.02671040299904 L363.19478026596835 122.47844423617616 L366.54258950876147 118.86551077788187 L369.8903987515546 100.80084348641046 L373.1302141478059 87.55342080599809 L376.4825231342047 76.71462043111524 L379.722338530456 73.10168697282094 L383.0701477732491 74.30599812558572 L386.41795701604224 75.51030927835049 L389.4417847192101 69.48875351452668 L392.78509421839726 49.01546391752572 L396.02490961464855 46.606841611996174 L399.37271885744167 11.68181818181813 L402.61253425369296 46.606841611996174 L405.96034349648585 62.26288659793809 L409.30815273927897 70.69306466729142 L412.54796813553025 59.85426429240857 L415.9002771219293 62.26288659793809 L419.1400925181806 51.42408622305527 L422.4879017609735 56.24133083411431 L425.8357110037666 61.05857544517332 L428.8595387069345 56.24133083411431 L432.20284820612164 63.467197750702866 L435.44266360237293 55.037019681349534 L438.79047284516605 45.40253045923146 L442.03028824141734 50.219775070290495 L445.37809748421046 45.40253045923146 L448.72590672700335 50.219775070290495 L451.96572212325464 67.08013120899713 L455.3180311096537 64.67150890346761 L458.557846505905 68.2844423617619 L461.9056557486981 64.67150890346761 L465.253464991491 77.91893158388001 L468.3852865412007 83.94048734770382 L471.72859604038786 85.14479850046854 L474.96841143663914 75.51030927835049 L478.31622067943226 69.48875351452668 L481.55603607568355 104.41377694470475 L484.90384531847644 93.5749765698219 L488.25165456126956 88.75773195876283 L491.49146995752085 75.51030927835049 L494.8437789439199 91.16635426429235 L498.0835943401712 102.00515463917523 L501.4314035829641 124.88706654170568 L504.7792128257572 108.02671040299904 L507.80304052892507 103.20946579193995 L511.14635002811224 109.23102155576376 L514.3861654243635 109.23102155576376 L517.7339746671566 110.43533270852853 L520.9737900634079 120.06982193064664 L524.321599306201 116.45688847235235 L527.6694085489939 116.45688847235235 L530.9092239452452 118.86551077788187 L534.2615329316443 109.23102155576376 L537.5013483278956 106.82239925023424 L540.8491575706887 129.70431115276472 L544.1969668134816 123.6827553889409 L547.2207945166497 124.88706654170568 L550.5641040158366 126.09137769447045 L553.8039194120881 139.33880037488282 L557.151728654881 148.9732895970009 L560.3915440511323 157.40346766635423 L563.7393532939254 159.81208997188375 L567.0871625367186 153.79053420805994 L570.3269779329698 151.38191190253045 L573.6792869193687 158.607778819119 L576.91910231562 159.81208997188375 L580.2669115584131 156.1991565135895 L583.6147208012062 159.81208997188375 L586.6385485043741 170.6508903467666 L589.9818580035612 176.6724461105904 " fill="none" stroke-width="1.6500000000000001" stroke="rgb(71,71,71)" stroke-opacity="1.0">
          </path>
        </g>
      </g>
    </g>
    <g transform="translate(14.5 138.5 ) rotate(-90.0 ) ">
      <text class="axis-title-y" y="0.0" text-anchor="middle">
      unemployment rate
      </text>
    </g>
    <g transform="translate(385.9618839028965 304.5 ) ">
      <text class="axis-title-x" y="0.0" text-anchor="middle">
      date
      </text>
    </g>
    <path fill="rgb(0,0,0)" fill-opacity="0.0" stroke="rgb(71,71,71)" stroke-opacity="1.0" stroke-width="0.0" d="M0.0 0.0 L0.0 313.0 L705.0 313.0 L705.0 0.0 Z">
    </path>
  </g>
  <g id="xXxprefixXx2">
  </g>
</svg>