<svg xmlns="http://www.w3.org/2000/svg" xmlns:xlink="http://www.w3.org/1999/xlink" display="block" class="plt-container" width="705.0" height="470.0">
  <style type="text/css">
  .plt-container {
   font-family: Lucida Grande, sans-serif;
   user-select: none;
   -webkit-user-select: none;
   -moz-user-select: none;
   -ms-user-select: none;
}
text {
   text-rendering: optimizeLegibility;
}
#xXxprefixXx0 .plot-title {
   fill: #bbbbbb;
   font-family: Lucida Grande, sans-serif;
   font-size: 16.0px;
   font-weight: normal;
   font-style: normal;   
}
#xXxprefixXx0 .plot-subtitle {
   fill: #bbbbbb;
   font-family: Lucida Grande, sans-serif;
   font-size: 15.0px;
   font-weight: normal;
   font-style: normal;   
}
#xXxprefixXx0 .plot-caption {
   fill: #bbbbbb;
   font-family: Lucida Grande, sans-serif;
   font-size: 13.0px;
   font-weight: normal;
   font-style: normal;   
}
#xXxprefixXx0 .legend-title {
   fill: #bbbbbb;
   font-family: Lucida Grande, sans-serif;
   font-size: 15.0px;
   font-weight: normal;
   font-style: normal;   
}
#xXxprefixXx0 .legend-item {
   fill: #bbbbbb;
   font-family: Lucida Grande, sans-serif;
   font-size: 13.0px;
   font-weight: normal;
   font-style: normal;   
}
#xXxprefixXx0 .axis-title-x {
   fill: #bbbbbb;
   font-family: Lucida Grande, sans-serif;
   font-size: 15.0px;
   font-weight: normal;
   font-style: normal;   
}
#xXxprefixXx0 .axis-text-x {
   fill: #bbbbbb;
   font-family: Lucida Grande, sans-serif;
   font-size: 13.0px;
   font-weight: normal;
   font-style: normal;   
}
#xXxprefixXx2 .axis-tooltip-text-x {
   fill: #303030;
   font-family: Lucida Grande, sans-serif;
   font-size: 13.0px;
   font-weight: normal;
   font-style: normal;   
}
#xXxprefixXx0 .axis-title-y {
   fill: #bbbbbb;
   font-family: Lucida Grande, sans-serif;
   font-size: 15.0px;
   font-weight: normal;
   font-style: normal;   
}
#xXxprefixXx0 .axis-text-y {
   fill: #bbbbbb;
   font-family: Lucida Grande, sans-serif;
   font-size: 13.0px;
   font-weight: normal;
   font-style: normal;   
}
#xXxprefixXx2 .axis-tooltip-text-y {
   fill: #303030;
   font-family: Lucida Grande, sans-serif;
   font-size: 13.0px;
   font-weight: normal;
   font-style: normal;   
}
#xXxprefixXx0 .facet-strip-text-x {
   fill: #bbbbbb;
   font-family: Lucida Grande, sans-serif;
   font-size: 13.0px;
   font-weight: normal;
   font-style: normal;   
}
#xXxprefixXx0 .facet-strip-text-y {
   fill: #bbbbbb;
   font-family: Lucida Grande, sans-serif;
   font-size: 13.0px;
   font-weight: normal;
   font-style: normal;   
}
#xXxprefixXx2 .tooltip-text {
   fill: #bbbbbb;
   font-family: Lucida Grande, sans-serif;
   font-size: 13.0px;
   font-weight: normal;
   font-style: normal;   
}
#xXxprefixXx2 .tooltip-title {
   fill: #bbbbbb;
   font-family: Lucida Grande, sans-serif;
   font-size: 13.0px;
   font-weight: bold;
   font-style: normal;   
}
#xXxprefixXx2 .tooltip-label {
   fill: #bbbbbb;
   font-family: Lucida Grande, sans-serif;
   font-size: 13.0px;
   font-weight: bold;
   font-style: normal;   
}

  </style>
  <g id="xXxprefixXx0">
    <path fill-rule="evenodd" fill="rgb(25,25,28)" fill-opacity="1.0" d="M0.0 0.0 L0.0 470.0 L705.0 470.0 L705.0 0.0 Z">
    </path>
    <g transform="translate(29.5 6.5 ) ">
      <g>
        <g transform="translate(21.961210910936405 0.0 ) ">
          <g>
            <line x1="52.91811366828129" y1="0.0" x2="52.91811366828129" y2="411.0" stroke="rgb(71,71,71)" stroke-opacity="1.0" stroke-width="1.0" fill="none">
            </line>
            <line x1="131.9003728746713" y1="0.0" x2="131.9003728746713" y2="411.0" stroke="rgb(71,71,71)" stroke-opacity="1.0" stroke-width="1.0" fill="none">
            </line>
            <line x1="210.88263208106127" y1="0.0" x2="210.88263208106127" y2="411.0" stroke="rgb(71,71,71)" stroke-opacity="1.0" stroke-width="1.0" fill="none">
            </line>
            <line x1="289.86489128745126" y1="0.0" x2="289.86489128745126" y2="411.0" stroke="rgb(71,71,71)" stroke-opacity="1.0" stroke-width="1.0" fill="none">
            </line>
            <line x1="368.8471504938413" y1="0.0" x2="368.8471504938413" y2="411.0" stroke="rgb(71,71,71)" stroke-opacity="1.0" stroke-width="1.0" fill="none">
            </line>
            <line x1="447.8294097002312" y1="0.0" x2="447.8294097002312" y2="411.0" stroke="rgb(71,71,71)" stroke-opacity="1.0" stroke-width="1.0" fill="none">
            </line>
          </g>
        </g>
        <g transform="translate(21.961210910936405 0.0 ) ">
          <g>
            <line x1="0.0" y1="357.2897727272728" x2="469.15461968595656" y2="357.2897727272728" stroke="rgb(71,71,71)" stroke-opacity="1.0" stroke-width="1.0" fill="none">
            </line>
            <line x1="0.0" y1="298.909090909091" x2="469.15461968595656" y2="298.909090909091" stroke="rgb(71,71,71)" stroke-opacity="1.0" stroke-width="1.0" fill="none">
            </line>
            <line x1="0.0" y1="240.52840909090918" x2="469.15461968595656" y2="240.52840909090918" stroke="rgb(71,71,71)" stroke-opacity="1.0" stroke-width="1.0" fill="none">
            </line>
            <line x1="0.0" y1="182.14772727272737" x2="469.15461968595656" y2="182.14772727272737" stroke="rgb(71,71,71)" stroke-opacity="1.0" stroke-width="1.0" fill="none">
            </line>
            <line x1="0.0" y1="123.76704545454555" x2="469.15461968595656" y2="123.76704545454555" stroke="rgb(71,71,71)" stroke-opacity="1.0" stroke-width="1.0" fill="none">
            </line>
            <line x1="0.0" y1="65.38636363636374" x2="469.15461968595656" y2="65.38636363636374" stroke="rgb(71,71,71)" stroke-opacity="1.0" stroke-width="1.0" fill="none">
            </line>
            <line x1="0.0" y1="7.00568181818187" x2="469.15461968595656" y2="7.00568181818187" stroke="rgb(71,71,71)" stroke-opacity="1.0" stroke-width="1.0" fill="none">
            </line>
          </g>
        </g>
        <g transform="translate(21.961210910936405 411.0 ) ">
          <g transform="translate(52.91811366828129 0.0 ) ">
            <line stroke-width="1.0" stroke="rgb(187,187,187)" stroke-opacity="1.0" x2="0.0" y2="4.0">
            </line>
            <g transform="translate(0.0 7.0 ) ">
              <text class="axis-text-x" text-anchor="middle" dy="0.7em">
                <tspan>2</tspan>
              </text>
            </g>
          </g>
          <g transform="translate(131.9003728746713 0.0 ) ">
            <line stroke-width="1.0" stroke="rgb(187,187,187)" stroke-opacity="1.0" x2="0.0" y2="4.0">
            </line>
            <g transform="translate(0.0 7.0 ) ">
              <text class="axis-text-x" text-anchor="middle" dy="0.7em">
                <tspan>3</tspan>
              </text>
            </g>
          </g>
          <g transform="translate(210.88263208106127 0.0 ) ">
            <line stroke-width="1.0" stroke="rgb(187,187,187)" stroke-opacity="1.0" x2="0.0" y2="4.0">
            </line>
            <g transform="translate(0.0 7.0 ) ">
              <text class="axis-text-x" text-anchor="middle" dy="0.7em">
                <tspan>4</tspan>
              </text>
            </g>
          </g>
          <g transform="translate(289.86489128745126 0.0 ) ">
            <line stroke-width="1.0" stroke="rgb(187,187,187)" stroke-opacity="1.0" x2="0.0" y2="4.0">
            </line>
            <g transform="translate(0.0 7.0 ) ">
              <text class="axis-text-x" text-anchor="middle" dy="0.7em">
                <tspan>5</tspan>
              </text>
            </g>
          </g>
          <g transform="translate(368.8471504938413 0.0 ) ">
            <line stroke-width="1.0" stroke="rgb(187,187,187)" stroke-opacity="1.0" x2="0.0" y2="4.0">
            </line>
            <g transform="translate(0.0 7.0 ) ">
              <text class="axis-text-x" text-anchor="middle" dy="0.7em">
                <tspan>6</tspan>
              </text>
            </g>
          </g>
          <g transform="translate(447.8294097002312 0.0 ) ">
            <line stroke-width="1.0" stroke="rgb(187,187,187)" stroke-opacity="1.0" x2="0.0" y2="4.0">
            </line>
            <g transform="translate(0.0 7.0 ) ">
              <text class="axis-text-x" text-anchor="middle" dy="0.7em">
                <tspan>7</tspan>
              </text>
            </g>
          </g>
          <line x1="0.0" y1="0.0" x2="469.15461968595656" y2="0.0" stroke-width="1.0" stroke="rgb(187,187,187)" stroke-opacity="1.0">
          </line>
        </g>
        <g transform="translate(21.961210910936405 0.0 ) ">
          <g transform="translate(0.0 357.2897727272728 ) ">
            <g transform="translate(-3.0 0.0 ) ">
              <text class="axis-text-y" text-anchor="end" dy="0.35em">
                <tspan>15</tspan>
              </text>
            </g>
          </g>
          <g transform="translate(0.0 298.909090909091 ) ">
            <g transform="translate(-3.0 0.0 ) ">
              <text class="axis-text-y" text-anchor="end" dy="0.35em">
                <tspan>20</tspan>
              </text>
            </g>
          </g>
          <g transform="translate(0.0 240.52840909090918 ) ">
            <g transform="translate(-3.0 0.0 ) ">
              <text class="axis-text-y" text-anchor="end" dy="0.35em">
                <tspan>25</tspan>
              </text>
            </g>
          </g>
          <g transform="translate(0.0 182.14772727272737 ) ">
            <g transform="translate(-3.0 0.0 ) ">
              <text class="axis-text-y" text-anchor="end" dy="0.35em">
                <tspan>30</tspan>
              </text>
            </g>
          </g>
          <g transform="translate(0.0 123.76704545454555 ) ">
            <g transform="translate(-3.0 0.0 ) ">
              <text class="axis-text-y" text-anchor="end" dy="0.35em">
                <tspan>35</tspan>
              </text>
            </g>
          </g>
          <g transform="translate(0.0 65.38636363636374 ) ">
            <g transform="translate(-3.0 0.0 ) ">
              <text class="axis-text-y" text-anchor="end" dy="0.35em">
                <tspan>40</tspan>
              </text>
            </g>
          </g>
          <g transform="translate(0.0 7.00568181818187 ) ">
            <g transform="translate(-3.0 0.0 ) ">
              <text class="axis-text-y" text-anchor="end" dy="0.35em">
                <tspan>45</tspan>
              </text>
            </g>
          </g>
        </g>
      </g>
      <g clip-path="url(#xXxprefixXx1)" clip-bounds-jfx="[rect (21.961210910936405, 0.0), (469.15461968595656, 411.0)]">
        <g transform="translate(21.961210910936405 0.0 ) ">
          <g>
            <g>
              <g>
                <g >
                  <circle fill="#29567d" stroke="#29567d" stroke-opacity="0.0" stroke-width="0.0" cx="37.12166182700331" cy="193.82386363636368" r="4.4" />
                  <circle fill="#306591" stroke="#306591" stroke-opacity="0.0" stroke-width="0.0" cx="37.12166182700331" cy="193.82386363636368" r="4.4" />
                  <circle fill="#2e608a" stroke="#2e608a" stroke-opacity="0.0" stroke-width="0.0" cx="52.91811366828129" cy="170.471590909091" r="4.4" />
                  <circle fill="#306591" stroke="#306591" stroke-opacity="0.0" stroke-width="0.0" cx="52.91811366828129" cy="182.14772727272737" r="4.4" />
                  <circle fill="#244c6f" stroke="#244c6f" stroke-opacity="0.0" stroke-width="0.0" cx="116.10392103339329" cy="228.8522727272728" r="4.4" />
                  <circle fill="#29567d" stroke="#29567d" stroke-opacity="0.0" stroke-width="0.0" cx="116.10392103339329" cy="228.8522727272728" r="4.4" />
                  <circle fill="#29567d" stroke="#29567d" stroke-opacity="0.0" stroke-width="0.0" cx="139.79859879531028" cy="217.17613636363643" r="4.4" />
                  <path fill="#29567d" stroke="#29567d" stroke-opacity="0.0" stroke-width="0.0" d="M37.12166182700331 225.04176095062127 L37.12166182700331 225.04176095062127 L41.521661827003314 232.66278450392434 L32.72166182700331 232.66278450392434 Z" transform="rotate(0.0 37.12166182700331 228.8522727272728 ) " />
                  <path fill="#244c6f" stroke="#244c6f" stroke-opacity="0.0" stroke-width="0.0" d="M37.12166182700331 236.71789731425764 L37.12166182700331 236.71789731425764 L41.521661827003314 244.33892086756072 L32.72166182700331 244.33892086756072 Z" transform="rotate(0.0 37.12166182700331 240.52840909090918 ) " />
                  <path fill="#2e608a" stroke="#2e608a" stroke-opacity="0.0" stroke-width="0.0" d="M52.91811366828129 201.68948822334852 L52.91811366828129 201.68948822334852 L57.3181136682813 209.3105117766516 L48.518113668281295 209.3105117766516 Z" transform="rotate(0.0 52.91811366828129 205.50000000000006 ) " />
                  <path fill="#2b5b83" stroke="#2b5b83" stroke-opacity="0.0" stroke-width="0.0" d="M52.91811366828129 213.3656245869849 L52.91811366828129 213.3656245869849 L57.3181136682813 220.98664814028797 L48.518113668281295 220.98664814028797 Z" transform="rotate(0.0 52.91811366828129 217.17613636363643 ) " />
                  <path fill="#214769" stroke="#214769" stroke-opacity="0.0" stroke-width="0.0" d="M116.10392103339329 236.71789731425764 L116.10392103339329 236.71789731425764 L120.50392103339328 244.33892086756072 L111.70392103339329 244.33892086756072 Z" transform="rotate(0.0 116.10392103339329 240.52840909090918 ) " />
                  <path fill="#265176" stroke="#265176" stroke-opacity="0.0" stroke-width="0.0" d="M116.10392103339329 236.71789731425764 L116.10392103339329 236.71789731425764 L120.50392103339328 244.33892086756072 L111.70392103339329 244.33892086756072 Z" transform="rotate(0.0 116.10392103339329 240.52840909090918 ) " />
                  <path fill="#265176" stroke="#265176" stroke-opacity="0.0" stroke-width="0.0" d="M139.79859879531028 236.71789731425764 L139.79859879531028 236.71789731425764 L144.1985987953103 244.33892086756072 L135.39859879531028 244.33892086756072 Z" transform="rotate(0.0 139.79859879531028 240.52840909090918 ) " />
                  <path fill="#214769" stroke="#214769" stroke-opacity="0.0" stroke-width="0.0" d="M139.79859879531028 236.71789731425764 L139.79859879531028 236.71789731425764 L144.1985987953103 244.33892086756072 L135.39859879531028 244.33892086756072 Z" transform="rotate(0.0 139.79859879531028 240.52840909090918 ) " />
                  <path fill="#214769" stroke="#214769" stroke-opacity="0.0" stroke-width="0.0" d="M116.10392103339329 248.39403367789396 L116.10392103339329 248.39403367789396 L120.50392103339328 256.01505723119703 L111.70392103339329 256.01505723119703 Z" transform="rotate(0.0 116.10392103339329 252.2045454545455 ) " />
                  <path fill="#265176" stroke="#265176" stroke-opacity="0.0" stroke-width="0.0" d="M139.79859879531028 236.71789731425764 L139.79859879531028 236.71789731425764 L144.1985987953103 244.33892086756072 L135.39859879531028 244.33892086756072 Z" transform="rotate(0.0 139.79859879531028 240.52840909090918 ) " />
                  <path fill="#244c6f" stroke="#244c6f" stroke-opacity="0.0" stroke-width="0.0" d="M226.67908392233926 260.0701700415304 L226.67908392233926 260.0701700415304 L231.07908392233927 267.6911935948334 L222.27908392233925 267.6911935948334 Z" transform="rotate(0.0 226.67908392233926 263.88068181818187 ) " />
                  <rect fill="#1f4262" stroke="#1f4262" stroke-opacity="0.0" stroke-width="0.0" x="309.15956904936826" y="294.509090909091" height="8.8" width="8.8" transform="rotate(0.0 313.55956904936824 298.909090909091 ) " />
                  <rect fill="#18344f" stroke="#18344f" stroke-opacity="0.0" stroke-width="0.0" x="309.15956904936826" y="352.8897727272728" height="8.8" width="8.8" transform="rotate(0.0 313.55956904936824 357.2897727272728 ) " />
                  <rect fill="#1f4262" stroke="#1f4262" stroke-opacity="0.0" stroke-width="0.0" x="309.15956904936826" y="294.509090909091" height="8.8" width="8.8" transform="rotate(0.0 313.55956904936824 298.909090909091 ) " />
                  <rect fill="#1c3d5c" stroke="#1c3d5c" stroke-opacity="0.0" stroke-width="0.0" x="340.7524727319243" y="329.5375000000001" height="8.8" width="8.8" transform="rotate(0.0 345.15247273192426 333.93750000000006 ) " />
                  <rect fill="#1a3955" stroke="#1a3955" stroke-opacity="0.0" stroke-width="0.0" x="364.4471504938413" y="329.5375000000001" height="8.8" width="8.8" transform="rotate(0.0 368.8471504938413 333.93750000000006 ) " />
                  <rect fill="#244c6f" stroke="#244c6f" stroke-opacity="0.0" stroke-width="0.0" x="340.7524727319243" y="224.4522727272728" height="8.8" width="8.8" transform="rotate(0.0 345.15247273192426 228.8522727272728 ) " />
                  <rect fill="#214769" stroke="#214769" stroke-opacity="0.0" stroke-width="0.0" x="340.7524727319243" y="259.4806818181819" height="8.8" width="8.8" transform="rotate(0.0 345.15247273192426 263.88068181818187 ) " />
                  <rect fill="#244c6f" stroke="#244c6f" stroke-opacity="0.0" stroke-width="0.0" x="380.2436023351193" y="224.4522727272728" height="8.8" width="8.8" transform="rotate(0.0 384.6436023351193 228.8522727272728 ) " />
                  <rect fill="#214769" stroke="#214769" stroke-opacity="0.0" stroke-width="0.0" x="380.2436023351193" y="236.12840909090917" height="8.8" width="8.8" transform="rotate(0.0 384.6436023351193 240.52840909090918 ) " />
                  <rect fill="#214769" stroke="#214769" stroke-opacity="0.0" stroke-width="0.0" x="443.42940970023125" y="247.8045454545455" height="8.8" width="8.8" transform="rotate(0.0 447.8294097002312 252.2045454545455 ) " />
                  <path fill="#1f4262" stroke="#1f4262" stroke-opacity="0.0" stroke-width="0.0" d="M313.55956904936824 306.7747154960759 L313.55956904936824 306.7747154960759 L317.95956904936827 314.3957390493789 L309.15956904936826 314.3957390493789 Z" transform="rotate(0.0 313.55956904936824 310.58522727272737 ) " />
                  <path fill="#18344f" stroke="#18344f" stroke-opacity="0.0" stroke-width="0.0" d="M313.55956904936824 365.15539731425764 L313.55956904936824 365.15539731425764 L317.95956904936827 372.77642086756066 L309.15956904936826 372.77642086756066 Z" transform="rotate(0.0 313.55956904936824 368.9659090909091 ) " />
                  <path fill="#18344f" stroke="#18344f" stroke-opacity="0.0" stroke-width="0.0" d="M345.15247273192426 353.4792609506213 L345.15247273192426 353.4792609506213 L349.5524727319243 361.10028450392434 L340.7524727319243 361.10028450392434 Z" transform="rotate(0.0 345.15247273192426 357.2897727272728 ) " />
                  <path fill="#1f4262" stroke="#1f4262" stroke-opacity="0.0" stroke-width="0.0" d="M408.33828009703626 330.1269882233486 L408.33828009703626 330.1269882233486 L412.7382800970363 337.7480117766516 L403.9382800970363 337.7480117766516 Z" transform="rotate(0.0 408.33828009703626 333.93750000000006 ) " />
                  <circle fill="#2b5b83" stroke="#2b5b83" stroke-opacity="0.0" stroke-width="0.0" cx="84.51101735083729" cy="217.17613636363643" r="4.4" />
                  <circle fill="#336a98" stroke="#336a98" stroke-opacity="0.0" stroke-width="0.0" cx="84.51101735083729" cy="182.14772727272737" r="4.4" />
                  <circle fill="#29567d" stroke="#29567d" stroke-opacity="0.0" stroke-width="0.0" cx="139.79859879531028" cy="228.8522727272728" r="4.4" />
                  <circle fill="#29567d" stroke="#29567d" stroke-opacity="0.0" stroke-width="0.0" cx="171.39150247786625" cy="193.82386363636368" r="4.4" />
                  <circle fill="#265176" stroke="#265176" stroke-opacity="0.0" stroke-width="0.0" cx="179.2897283985053" cy="228.8522727272728" r="4.4" />
                  <circle fill="#29567d" stroke="#29567d" stroke-opacity="0.0" stroke-width="0.0" cx="84.51101735083729" cy="252.2045454545455" r="4.4" />
                  <circle fill="#265176" stroke="#265176" stroke-opacity="0.0" stroke-width="0.0" cx="131.9003728746713" cy="252.2045454545455" r="4.4" />
                  <circle fill="#244c6f" stroke="#244c6f" stroke-opacity="0.0" stroke-width="0.0" cx="155.59505063658827" cy="275.55681818181824" r="4.4" />
                  <circle fill="#244c6f" stroke="#244c6f" stroke-opacity="0.0" stroke-width="0.0" cx="155.59505063658827" cy="275.55681818181824" r="4.4" />
                  <circle fill="#265176" stroke="#265176" stroke-opacity="0.0" stroke-width="0.0" cx="155.59505063658827" cy="252.2045454545455" r="4.4" />
                  <circle fill="#265176" stroke="#265176" stroke-opacity="0.0" stroke-width="0.0" cx="155.59505063658827" cy="252.2045454545455" r="4.4" />
                  <circle fill="#18344f" stroke="#18344f" stroke-opacity="0.0" stroke-width="0.0" cx="155.59505063658827" cy="333.93750000000006" r="4.4" />
                  <circle fill="#214769" stroke="#214769" stroke-opacity="0.0" stroke-width="0.0" cx="195.0861802397833" cy="275.55681818181824" r="4.4" />
                  <circle fill="#214769" stroke="#214769" stroke-opacity="0.0" stroke-width="0.0" cx="195.0861802397833" cy="287.2329545454546" r="4.4" />
                  <circle fill="#244c6f" stroke="#244c6f" stroke-opacity="0.0" stroke-width="0.0" cx="195.0861802397833" cy="263.88068181818187" r="4.4" />
                  <circle fill="#244c6f" stroke="#244c6f" stroke-opacity="0.0" stroke-width="0.0" cx="210.88263208106127" cy="263.88068181818187" r="4.4" />
                  <path fill="#214769" stroke="#214769" stroke-opacity="0.0" stroke-width="0.0" d="M187.1879543191443 306.7747154960759 L187.1879543191443 306.7747154960759 L191.5879543191443 314.3957390493789 L182.7879543191443 314.3957390493789 Z" transform="rotate(0.0 187.1879543191443 310.58522727272737 ) " />
                  <path fill="#1f4262" stroke="#1f4262" stroke-opacity="0.0" stroke-width="0.0" d="M187.1879543191443 318.45085185971226 L187.1879543191443 318.45085185971226 L191.5879543191443 326.0718754130153 L182.7879543191443 326.0718754130153 Z" transform="rotate(0.0 187.1879543191443 322.26136363636374 ) " />
                  <path fill="#1c3d5c" stroke="#1c3d5c" stroke-opacity="0.0" stroke-width="0.0" d="M202.98440616042228 330.1269882233486 L202.98440616042228 330.1269882233486 L207.3844061604223 337.7480117766516 L198.58440616042228 337.7480117766516 Z" transform="rotate(0.0 202.98440616042228 333.93750000000006 ) " />
                  <path fill="#1f4262" stroke="#1f4262" stroke-opacity="0.0" stroke-width="0.0" d="M202.98440616042228 330.1269882233486 L202.98440616042228 330.1269882233486 L207.3844061604223 337.7480117766516 L198.58440616042228 337.7480117766516 Z" transform="rotate(0.0 202.98440616042228 333.93750000000006 ) " />
                  <path fill="#1f4262" stroke="#1f4262" stroke-opacity="0.0" stroke-width="0.0" d="M266.1702135255343 306.7747154960759 L266.1702135255343 306.7747154960759 L270.5702135255343 314.3957390493789 L261.7702135255343 314.3957390493789 Z" transform="rotate(0.0 266.1702135255343 310.58522727272737 ) " />
                  <path fill="#1f4262" stroke="#1f4262" stroke-opacity="0.0" stroke-width="0.0" d="M266.1702135255343 306.7747154960759 L266.1702135255343 306.7747154960759 L270.5702135255343 314.3957390493789 L261.7702135255343 314.3957390493789 Z" transform="rotate(0.0 266.1702135255343 310.58522727272737 ) " />
                  <path fill="#132b43" stroke="#132b43" stroke-opacity="0.0" stroke-width="0.0" d="M266.1702135255343 388.5076700415304 L266.1702135255343 388.5076700415304 L270.5702135255343 396.1286935948334 L261.7702135255343 396.1286935948334 Z" transform="rotate(0.0 266.1702135255343 392.31818181818187 ) " />
                  <path fill="#18344f" stroke="#18344f" stroke-opacity="0.0" stroke-width="0.0" d="M305.6613431287293 330.1269882233486 L305.6613431287293 330.1269882233486 L310.06134312872933 337.7480117766516 L301.2613431287293 337.7480117766516 Z" transform="rotate(0.0 305.6613431287293 333.93750000000006 ) " />
                  <path fill="#18344f" stroke="#18344f" stroke-opacity="0.0" stroke-width="0.0" d="M305.6613431287293 353.4792609506213 L305.6613431287293 353.4792609506213 L310.06134312872933 361.10028450392434 L301.2613431287293 361.10028450392434 Z" transform="rotate(0.0 305.6613431287293 357.2897727272728 ) " />
                  <path fill="#1c3d5c" stroke="#1c3d5c" stroke-opacity="0.0" stroke-width="0.0" d="M202.98440616042228 330.1269882233486 L202.98440616042228 330.1269882233486 L207.3844061604223 337.7480117766516 L198.58440616042228 337.7480117766516 Z" transform="rotate(0.0 202.98440616042228 333.93750000000006 ) " />
                  <path fill="#1c3d5c" stroke="#1c3d5c" stroke-opacity="0.0" stroke-width="0.0" d="M266.1702135255343 330.1269882233486 L266.1702135255343 330.1269882233486 L270.5702135255343 337.7480117766516 L261.7702135255343 337.7480117766516 Z" transform="rotate(0.0 266.1702135255343 333.93750000000006 ) " />
                  <path fill="#132b43" stroke="#132b43" stroke-opacity="0.0" stroke-width="0.0" d="M266.1702135255343 388.5076700415304 L266.1702135255343 388.5076700415304 L270.5702135255343 396.1286935948334 L261.7702135255343 396.1286935948334 Z" transform="rotate(0.0 266.1702135255343 392.31818181818187 ) " />
                  <path fill="#1c3d5c" stroke="#1c3d5c" stroke-opacity="0.0" stroke-width="0.0" d="M266.1702135255343 330.1269882233486 L266.1702135255343 330.1269882233486 L270.5702135255343 337.7480117766516 L261.7702135255343 337.7480117766516 Z" transform="rotate(0.0 266.1702135255343 333.93750000000006 ) " />
                  <path fill="#18344f" stroke="#18344f" stroke-opacity="0.0" stroke-width="0.0" d="M305.6613431287293 341.80312458698495 L305.6613431287293 341.80312458698495 L310.06134312872933 349.42414814028797 L301.2613431287293 349.42414814028797 Z" transform="rotate(0.0 305.6613431287293 345.61363636363643 ) " />
                  <path fill="#1c3d5c" stroke="#1c3d5c" stroke-opacity="0.0" stroke-width="0.0" d="M345.15247273192426 318.45085185971226 L345.15247273192426 318.45085185971226 L349.5524727319243 326.0718754130153 L340.7524727319243 326.0718754130153 Z" transform="rotate(0.0 345.15247273192426 322.26136363636374 ) " />
                  <path fill="#18344f" stroke="#18344f" stroke-opacity="0.0" stroke-width="0.0" d="M360.9489245732023 353.4792609506213 L360.9489245732023 353.4792609506213 L365.34892457320234 361.10028450392434 L356.5489245732023 361.10028450392434 Z" transform="rotate(0.0 360.9489245732023 357.2897727272728 ) " />
                  <path fill="#1a3955" stroke="#1a3955" stroke-opacity="0.0" stroke-width="0.0" d="M266.1702135255343 341.80312458698495 L266.1702135255343 341.80312458698495 L270.5702135255343 349.42414814028797 L261.7702135255343 349.42414814028797 Z" transform="rotate(0.0 266.1702135255343 345.61363636363643 ) " />
                  <path fill="#132b43" stroke="#132b43" stroke-opacity="0.0" stroke-width="0.0" d="M266.1702135255343 388.5076700415304 L266.1702135255343 388.5076700415304 L270.5702135255343 396.1286935948334 L261.7702135255343 396.1286935948334 Z" transform="rotate(0.0 266.1702135255343 392.31818181818187 ) " />
                  <path fill="#1c3d5c" stroke="#1c3d5c" stroke-opacity="0.0" stroke-width="0.0" d="M266.1702135255343 330.1269882233486 L266.1702135255343 330.1269882233486 L270.5702135255343 337.7480117766516 L261.7702135255343 337.7480117766516 Z" transform="rotate(0.0 266.1702135255343 333.93750000000006 ) " />
                  <path fill="#1c3d5c" stroke="#1c3d5c" stroke-opacity="0.0" stroke-width="0.0" d="M266.1702135255343 330.1269882233486 L266.1702135255343 330.1269882233486 L270.5702135255343 337.7480117766516 L261.7702135255343 337.7480117766516 Z" transform="rotate(0.0 266.1702135255343 333.93750000000006 ) " />
                  <path fill="#1a3955" stroke="#1a3955" stroke-opacity="0.0" stroke-width="0.0" d="M266.1702135255343 341.80312458698495 L266.1702135255343 341.80312458698495 L270.5702135255343 349.42414814028797 L261.7702135255343 349.42414814028797 Z" transform="rotate(0.0 266.1702135255343 345.61363636363643 ) " />
                  <path fill="#132b43" stroke="#132b43" stroke-opacity="0.0" stroke-width="0.0" d="M266.1702135255343 388.5076700415304 L266.1702135255343 388.5076700415304 L270.5702135255343 396.1286935948334 L261.7702135255343 396.1286935948334 Z" transform="rotate(0.0 266.1702135255343 392.31818181818187 ) " />
                  <path fill="#18344f" stroke="#18344f" stroke-opacity="0.0" stroke-width="0.0" d="M305.6613431287293 353.4792609506213 L305.6613431287293 353.4792609506213 L310.06134312872933 361.10028450392434 L301.2613431287293 361.10028450392434 Z" transform="rotate(0.0 305.6613431287293 357.2897727272728 ) " />
                  <path fill="#18344f" stroke="#18344f" stroke-opacity="0.0" stroke-width="0.0" d="M305.6613431287293 341.80312458698495 L305.6613431287293 341.80312458698495 L310.06134312872933 349.42414814028797 L301.2613431287293 349.42414814028797 Z" transform="rotate(0.0 305.6613431287293 345.61363636363643 ) " />
                  <path fill="#1c3d5c" stroke="#1c3d5c" stroke-opacity="0.0" stroke-width="0.0" d="M345.15247273192426 330.1269882233486 L345.15247273192426 330.1269882233486 L349.5524727319243 337.7480117766516 L340.7524727319243 337.7480117766516 Z" transform="rotate(0.0 345.15247273192426 333.93750000000006 ) " />
                  <path fill="#18344f" stroke="#18344f" stroke-opacity="0.0" stroke-width="0.0" d="M360.9489245732023 353.4792609506213 L360.9489245732023 353.4792609506213 L365.34892457320234 361.10028450392434 L356.5489245732023 361.10028450392434 Z" transform="rotate(0.0 360.9489245732023 357.2897727272728 ) " />
                  <rect fill="#18344f" stroke="#18344f" stroke-opacity="0.0" stroke-width="0.0" x="253.87198760489522" y="329.5375000000001" height="8.8" width="8.8" transform="rotate(0.0 258.27198760489523 333.93750000000006 ) " />
                  <rect fill="#18344f" stroke="#18344f" stroke-opacity="0.0" stroke-width="0.0" x="317.0577949700073" y="329.5375000000001" height="8.8" width="8.8" transform="rotate(0.0 321.4577949700073 333.93750000000006 ) " />
                  <rect fill="#1a3955" stroke="#1a3955" stroke-opacity="0.0" stroke-width="0.0" x="317.0577949700073" y="317.86136363636376" height="8.8" width="8.8" transform="rotate(0.0 321.4577949700073 322.26136363636374 ) " />
                  <path fill="#1f4262" stroke="#1f4262" stroke-opacity="0.0" stroke-width="0.0" d="M210.88263208106127 330.1269882233486 L210.88263208106127 330.1269882233486 L215.28263208106128 337.7480117766516 L206.48263208106127 337.7480117766516 Z" transform="rotate(0.0 210.88263208106127 333.93750000000006 ) " />
                  <path fill="#214769" stroke="#214769" stroke-opacity="0.0" stroke-width="0.0" d="M210.88263208106127 306.7747154960759 L210.88263208106127 306.7747154960759 L215.28263208106128 314.3957390493789 L206.48263208106127 314.3957390493789 Z" transform="rotate(0.0 210.88263208106127 310.58522727272737 ) " />
                  <path fill="#1f4262" stroke="#1f4262" stroke-opacity="0.0" stroke-width="0.0" d="M210.88263208106127 330.1269882233486 L210.88263208106127 330.1269882233486 L215.28263208106128 337.7480117766516 L206.48263208106127 337.7480117766516 Z" transform="rotate(0.0 210.88263208106127 333.93750000000006 ) " />
                  <path fill="#1c3d5c" stroke="#1c3d5c" stroke-opacity="0.0" stroke-width="0.0" d="M210.88263208106127 306.7747154960759 L210.88263208106127 306.7747154960759 L215.28263208106128 314.3957390493789 L206.48263208106127 314.3957390493789 Z" transform="rotate(0.0 210.88263208106127 310.58522727272737 ) " />
                  <path fill="#1c3d5c" stroke="#1c3d5c" stroke-opacity="0.0" stroke-width="0.0" d="M258.27198760489523 306.7747154960759 L258.27198760489523 306.7747154960759 L262.6719876048952 314.3957390493789 L253.87198760489522 314.3957390493789 Z" transform="rotate(0.0 258.27198760489523 310.58522727272737 ) " />
                  <path fill="#1c3d5c" stroke="#1c3d5c" stroke-opacity="0.0" stroke-width="0.0" d="M289.86489128745126 330.1269882233486 L289.86489128745126 330.1269882233486 L294.2648912874513 337.7480117766516 L285.4648912874513 337.7480117766516 Z" transform="rotate(0.0 289.86489128745126 333.93750000000006 ) " />
                  <path fill="#1f4262" stroke="#1f4262" stroke-opacity="0.0" stroke-width="0.0" d="M226.67908392233926 330.1269882233486 L226.67908392233926 330.1269882233486 L231.07908392233927 337.7480117766516 L222.27908392233925 337.7480117766516 Z" transform="rotate(0.0 226.67908392233926 333.93750000000006 ) " />
                  <path fill="#1f4262" stroke="#1f4262" stroke-opacity="0.0" stroke-width="0.0" d="M226.67908392233926 330.1269882233486 L226.67908392233926 330.1269882233486 L231.07908392233927 337.7480117766516 L222.27908392233925 337.7480117766516 Z" transform="rotate(0.0 226.67908392233926 333.93750000000006 ) " />
                  <path fill="#1c3d5c" stroke="#1c3d5c" stroke-opacity="0.0" stroke-width="0.0" d="M258.27198760489523 341.80312458698495 L258.27198760489523 341.80312458698495 L262.6719876048952 349.42414814028797 L253.87198760489522 349.42414814028797 Z" transform="rotate(0.0 258.27198760489523 345.61363636363643 ) " />
                  <path fill="#1c3d5c" stroke="#1c3d5c" stroke-opacity="0.0" stroke-width="0.0" d="M258.27198760489523 341.80312458698495 L258.27198760489523 341.80312458698495 L262.6719876048952 349.42414814028797 L253.87198760489522 349.42414814028797 Z" transform="rotate(0.0 258.27198760489523 345.61363636363643 ) " />
                  <path fill="#1c3d5c" stroke="#1c3d5c" stroke-opacity="0.0" stroke-width="0.0" d="M258.27198760489523 330.1269882233486 L258.27198760489523 330.1269882233486 L262.6719876048952 337.7480117766516 L253.87198760489522 337.7480117766516 Z" transform="rotate(0.0 258.27198760489523 333.93750000000006 ) " />
                  <path fill="#18344f" stroke="#18344f" stroke-opacity="0.0" stroke-width="0.0" d="M321.4577949700073 353.4792609506213 L321.4577949700073 353.4792609506213 L325.8577949700073 361.10028450392434 L317.0577949700073 361.10028450392434 Z" transform="rotate(0.0 321.4577949700073 357.2897727272728 ) " />
                  <path fill="#1c3d5c" stroke="#1c3d5c" stroke-opacity="0.0" stroke-width="0.0" d="M321.4577949700073 330.1269882233486 L321.4577949700073 330.1269882233486 L325.8577949700073 337.7480117766516 L317.0577949700073 337.7480117766516 Z" transform="rotate(0.0 321.4577949700073 333.93750000000006 ) " />
                  <rect fill="#29567d" stroke="#29567d" stroke-opacity="0.0" stroke-width="0.0" x="190.68618023978328" y="224.4522727272728" height="8.8" width="8.8" transform="rotate(0.0 195.0861802397833 228.8522727272728 ) " />
                  <rect fill="#29567d" stroke="#29567d" stroke-opacity="0.0" stroke-width="0.0" x="190.68618023978328" y="236.12840909090917" height="8.8" width="8.8" transform="rotate(0.0 195.0861802397833 240.52840909090918 ) " />
                  <rect fill="#265176" stroke="#265176" stroke-opacity="0.0" stroke-width="0.0" x="206.48263208106127" y="224.4522727272728" height="8.8" width="8.8" transform="rotate(0.0 210.88263208106127 228.8522727272728 ) " />
                  <rect fill="#244c6f" stroke="#244c6f" stroke-opacity="0.0" stroke-width="0.0" x="206.48263208106127" y="247.8045454545455" height="8.8" width="8.8" transform="rotate(0.0 210.88263208106127 252.2045454545455 ) " />
                  <rect fill="#214769" stroke="#214769" stroke-opacity="0.0" stroke-width="0.0" x="253.87198760489522" y="282.83295454545464" height="8.8" width="8.8" transform="rotate(0.0 258.27198760489523 287.2329545454546 ) " />
                  <rect fill="#214769" stroke="#214769" stroke-opacity="0.0" stroke-width="0.0" x="253.87198760489522" y="271.15681818181827" height="8.8" width="8.8" transform="rotate(0.0 258.27198760489523 275.55681818181824 ) " />
                  <rect fill="#214769" stroke="#214769" stroke-opacity="0.0" stroke-width="0.0" x="253.87198760489522" y="259.4806818181819" height="8.8" width="8.8" transform="rotate(0.0 258.27198760489523 263.88068181818187 ) " />
                  <rect fill="#214769" stroke="#214769" stroke-opacity="0.0" stroke-width="0.0" x="253.87198760489522" y="271.15681818181827" height="8.8" width="8.8" transform="rotate(0.0 258.27198760489523 275.55681818181824 ) " />
                  <rect fill="#1f4262" stroke="#1f4262" stroke-opacity="0.0" stroke-width="0.0" x="317.0577949700073" y="294.509090909091" height="8.8" width="8.8" transform="rotate(0.0 321.4577949700073 298.909090909091 ) " />
                  <circle fill="#438ac3" stroke="#438ac3" stroke-opacity="0.0" stroke-width="0.0" cx="21.325209985725294" cy="147.11931818181824" r="4.4" />
                  <circle fill="#3875a6" stroke="#3875a6" stroke-opacity="0.0" stroke-width="0.0" cx="21.325209985725294" cy="158.79545454545462" r="4.4" />
                  <circle fill="#3b7aad" stroke="#3b7aad" stroke-opacity="0.0" stroke-width="0.0" cx="21.325209985725294" cy="158.79545454545462" r="4.4" />
                  <circle fill="#356f9f" stroke="#356f9f" stroke-opacity="0.0" stroke-width="0.0" cx="21.325209985725294" cy="193.82386363636368" r="4.4" />
                  <circle fill="#3875a6" stroke="#3875a6" stroke-opacity="0.0" stroke-width="0.0" cx="21.325209985725294" cy="158.79545454545462" r="4.4" />
                  <circle fill="#3d7fb4" stroke="#3d7fb4" stroke-opacity="0.0" stroke-width="0.0" cx="37.12166182700331" cy="135.44318181818187" r="4.4" />
                  <circle fill="#3b7aad" stroke="#3b7aad" stroke-opacity="0.0" stroke-width="0.0" cx="37.12166182700331" cy="112.09090909090918" r="4.4" />
                  <circle fill="#3875a6" stroke="#3875a6" stroke-opacity="0.0" stroke-width="0.0" cx="37.12166182700331" cy="112.09090909090918" r="4.4" />
                  <circle fill="#306591" stroke="#306591" stroke-opacity="0.0" stroke-width="0.0" cx="52.91811366828129" cy="193.82386363636368" r="4.4" />
                  <circle fill="#29567d" stroke="#29567d" stroke-opacity="0.0" stroke-width="0.0" cx="84.51101735083729" cy="228.8522727272728" r="4.4" />
                  <circle fill="#29567d" stroke="#29567d" stroke-opacity="0.0" stroke-width="0.0" cx="84.51101735083729" cy="217.17613636363643" r="4.4" />
                  <circle fill="#306591" stroke="#306591" stroke-opacity="0.0" stroke-width="0.0" cx="84.51101735083729" cy="182.14772727272737" r="4.4" />
                  <circle fill="#306591" stroke="#306591" stroke-opacity="0.0" stroke-width="0.0" cx="84.51101735083729" cy="170.471590909091" r="4.4" />
                  <circle fill="#29567d" stroke="#29567d" stroke-opacity="0.0" stroke-width="0.0" cx="92.40924327147629" cy="228.8522727272728" r="4.4" />
                  <circle fill="#29567d" stroke="#29567d" stroke-opacity="0.0" stroke-width="0.0" cx="92.40924327147629" cy="228.8522727272728" r="4.4" />
                  <circle fill="#2b5b83" stroke="#2b5b83" stroke-opacity="0.0" stroke-width="0.0" cx="155.59505063658827" cy="205.50000000000006" r="4.4" />
                  <circle fill="#2b5b83" stroke="#2b5b83" stroke-opacity="0.0" stroke-width="0.0" cx="52.91811366828129" cy="228.8522727272728" r="4.4" />
                  <circle fill="#2b5b83" stroke="#2b5b83" stroke-opacity="0.0" stroke-width="0.0" cx="52.91811366828129" cy="193.82386363636368" r="4.4" />
                  <circle fill="#2e608a" stroke="#2e608a" stroke-opacity="0.0" stroke-width="0.0" cx="52.91811366828129" cy="205.50000000000006" r="4.4" />
                  <circle fill="#2e608a" stroke="#2e608a" stroke-opacity="0.0" stroke-width="0.0" cx="52.91811366828129" cy="217.17613636363643" r="4.4" />
                  <circle fill="#265176" stroke="#265176" stroke-opacity="0.0" stroke-width="0.0" cx="108.2056951127543" cy="252.2045454545455" r="4.4" />
                  <circle fill="#244c6f" stroke="#244c6f" stroke-opacity="0.0" stroke-width="0.0" cx="108.2056951127543" cy="252.2045454545455" r="4.4" />
                  <circle fill="#265176" stroke="#265176" stroke-opacity="0.0" stroke-width="0.0" cx="108.2056951127543" cy="252.2045454545455" r="4.4" />
                  <path fill="#265176" stroke="#265176" stroke-opacity="0.0" stroke-width="0.0" d="M131.9003728746713 271.74630640516676 L131.9003728746713 271.74630640516676 L136.3003728746713 279.3673299584698 L127.50037287467129 279.3673299584698 Z" transform="rotate(0.0 131.9003728746713 275.55681818181824 ) " />
                  <path fill="#214769" stroke="#214769" stroke-opacity="0.0" stroke-width="0.0" d="M187.1879543191443 306.7747154960759 L187.1879543191443 306.7747154960759 L191.5879543191443 314.3957390493789 L182.7879543191443 314.3957390493789 Z" transform="rotate(0.0 187.1879543191443 310.58522727272737 ) " />
                  <path fill="#214769" stroke="#214769" stroke-opacity="0.0" stroke-width="0.0" d="M210.88263208106127 295.0985791324395 L210.88263208106127 295.0985791324395 L215.28263208106128 302.71960268574253 L206.48263208106127 302.71960268574253 Z" transform="rotate(0.0 210.88263208106127 298.909090909091 ) " />
                  <path fill="#1f4262" stroke="#1f4262" stroke-opacity="0.0" stroke-width="0.0" d="M266.1702135255343 330.1269882233486 L266.1702135255343 330.1269882233486 L270.5702135255343 337.7480117766516 L261.7702135255343 337.7480117766516 Z" transform="rotate(0.0 266.1702135255343 333.93750000000006 ) " />
                  <path fill="#132b43" stroke="#132b43" stroke-opacity="0.0" stroke-width="0.0" d="M266.1702135255343 388.5076700415304 L266.1702135255343 388.5076700415304 L270.5702135255343 396.1286935948334 L261.7702135255343 396.1286935948334 Z" transform="rotate(0.0 266.1702135255343 392.31818181818187 ) " />
                  <path fill="#1f4262" stroke="#1f4262" stroke-opacity="0.0" stroke-width="0.0" d="M266.1702135255343 306.7747154960759 L266.1702135255343 306.7747154960759 L270.5702135255343 314.3957390493789 L261.7702135255343 314.3957390493789 Z" transform="rotate(0.0 266.1702135255343 310.58522727272737 ) " />
                  <path fill="#1c3d5c" stroke="#1c3d5c" stroke-opacity="0.0" stroke-width="0.0" d="M345.15247273192426 318.45085185971226 L345.15247273192426 318.45085185971226 L349.5524727319243 326.0718754130153 L340.7524727319243 326.0718754130153 Z" transform="rotate(0.0 345.15247273192426 322.26136363636374 ) " />
                  <path fill="#18344f" stroke="#18344f" stroke-opacity="0.0" stroke-width="0.0" d="M376.74537641448023 365.15539731425764 L376.74537641448023 365.15539731425764 L381.14537641448027 372.77642086756066 L372.34537641448026 372.77642086756066 Z" transform="rotate(0.0 376.74537641448023 368.9659090909091 ) " />
                  <path fill="#18344f" stroke="#18344f" stroke-opacity="0.0" stroke-width="0.0" d="M210.88263208106127 353.4792609506213 L210.88263208106127 353.4792609506213 L215.28263208106128 361.10028450392434 L206.48263208106127 361.10028450392434 Z" transform="rotate(0.0 210.88263208106127 357.2897727272728 ) " />
                  <path fill="#1a3955" stroke="#1a3955" stroke-opacity="0.0" stroke-width="0.0" d="M226.67908392233926 318.45085185971226 L226.67908392233926 318.45085185971226 L231.07908392233927 326.0718754130153 L222.27908392233925 326.0718754130153 Z" transform="rotate(0.0 226.67908392233926 322.26136363636374 ) " />
                  <path fill="#1a3955" stroke="#1a3955" stroke-opacity="0.0" stroke-width="0.0" d="M242.4755357636173 318.45085185971226 L242.4755357636173 318.45085185971226 L246.8755357636173 326.0718754130153 L238.0755357636173 326.0718754130153 Z" transform="rotate(0.0 242.4755357636173 322.26136363636374 ) " />
                  <path fill="#18344f" stroke="#18344f" stroke-opacity="0.0" stroke-width="0.0" d="M258.27198760489523 353.4792609506213 L258.27198760489523 353.4792609506213 L262.6719876048952 361.10028450392434 L253.87198760489522 361.10028450392434 Z" transform="rotate(0.0 258.27198760489523 357.2897727272728 ) " />
                  <rect fill="#18344f" stroke="#18344f" stroke-opacity="0.0" stroke-width="0.0" x="317.0577949700073" y="329.5375000000001" height="8.8" width="8.8" transform="rotate(0.0 321.4577949700073 333.93750000000006 ) " />
                  <rect fill="#18344f" stroke="#18344f" stroke-opacity="0.0" stroke-width="0.0" x="317.0577949700073" y="341.21363636363645" height="8.8" width="8.8" transform="rotate(0.0 321.4577949700073 345.61363636363643 ) " />
                  <rect fill="#1a3955" stroke="#1a3955" stroke-opacity="0.0" stroke-width="0.0" x="317.0577949700073" y="317.86136363636376" height="8.8" width="8.8" transform="rotate(0.0 321.4577949700073 322.26136363636374 ) " />
                  <path fill="#1f4262" stroke="#1f4262" stroke-opacity="0.0" stroke-width="0.0" d="M210.88263208106127 330.1269882233486 L210.88263208106127 330.1269882233486 L215.28263208106128 337.7480117766516 L206.48263208106127 337.7480117766516 Z" transform="rotate(0.0 210.88263208106127 333.93750000000006 ) " />
                  <path fill="#1c3d5c" stroke="#1c3d5c" stroke-opacity="0.0" stroke-width="0.0" d="M210.88263208106127 306.7747154960759 L210.88263208106127 306.7747154960759 L215.28263208106128 314.3957390493789 L206.48263208106127 314.3957390493789 Z" transform="rotate(0.0 210.88263208106127 310.58522727272737 ) " />
                  <path fill="#1c3d5c" stroke="#1c3d5c" stroke-opacity="0.0" stroke-width="0.0" d="M258.27198760489523 306.7747154960759 L258.27198760489523 306.7747154960759 L262.6719876048952 314.3957390493789 L253.87198760489522 314.3957390493789 Z" transform="rotate(0.0 258.27198760489523 310.58522727272737 ) " />
                  <path fill="#1c3d5c" stroke="#1c3d5c" stroke-opacity="0.0" stroke-width="0.0" d="M289.86489128745126 330.1269882233486 L289.86489128745126 330.1269882233486 L294.2648912874513 337.7480117766516 L285.4648912874513 337.7480117766516 Z" transform="rotate(0.0 289.86489128745126 333.93750000000006 ) " />
                  <circle fill="#306591" stroke="#306591" stroke-opacity="0.0" stroke-width="0.0" cx="84.51101735083729" cy="193.82386363636368" r="4.4" />
                  <circle fill="#2b5b83" stroke="#2b5b83" stroke-opacity="0.0" stroke-width="0.0" cx="84.51101735083729" cy="217.17613636363643" r="4.4" />
                  <circle fill="#356f9f" stroke="#356f9f" stroke-opacity="0.0" stroke-width="0.0" cx="92.40924327147629" cy="170.471590909091" r="4.4" />
                  <circle fill="#356f9f" stroke="#356f9f" stroke-opacity="0.0" stroke-width="0.0" cx="92.40924327147629" cy="158.79545454545462" r="4.4" />
                  <circle fill="#2b5b83" stroke="#2b5b83" stroke-opacity="0.0" stroke-width="0.0" cx="171.39150247786625" cy="217.17613636363643" r="4.4" />
                  <circle fill="#2b5b83" stroke="#2b5b83" stroke-opacity="0.0" stroke-width="0.0" cx="171.39150247786625" cy="228.8522727272728" r="4.4" />
                  <circle fill="#29567d" stroke="#29567d" stroke-opacity="0.0" stroke-width="0.0" cx="131.9003728746713" cy="228.8522727272728" r="4.4" />
                  <circle fill="#2b5b83" stroke="#2b5b83" stroke-opacity="0.0" stroke-width="0.0" cx="131.9003728746713" cy="240.52840909090918" r="4.4" />
                  <circle fill="#2b5b83" stroke="#2b5b83" stroke-opacity="0.0" stroke-width="0.0" cx="171.39150247786625" cy="240.52840909090918" r="4.4" />
                  <path fill="#1f4262" stroke="#1f4262" stroke-opacity="0.0" stroke-width="0.0" d="M155.59505063658827 330.1269882233486 L155.59505063658827 330.1269882233486 L159.99505063658827 337.7480117766516 L151.19505063658826 337.7480117766516 Z" transform="rotate(0.0 155.59505063658827 333.93750000000006 ) " />
                  <path fill="#214769" stroke="#214769" stroke-opacity="0.0" stroke-width="0.0" d="M155.59505063658827 330.1269882233486 L155.59505063658827 330.1269882233486 L159.99505063658827 337.7480117766516 L151.19505063658826 337.7480117766516 Z" transform="rotate(0.0 155.59505063658827 333.93750000000006 ) " />
                  <path fill="#1f4262" stroke="#1f4262" stroke-opacity="0.0" stroke-width="0.0" d="M210.88263208106127 295.0985791324395 L210.88263208106127 295.0985791324395 L215.28263208106128 302.71960268574253 L206.48263208106127 302.71960268574253 Z" transform="rotate(0.0 210.88263208106127 298.909090909091 ) " />
                  <path fill="#1a3955" stroke="#1a3955" stroke-opacity="0.0" stroke-width="0.0" d="M337.25424681128527 318.45085185971226 L337.25424681128527 318.45085185971226 L341.6542468112853 326.0718754130153 L332.8542468112853 326.0718754130153 Z" transform="rotate(0.0 337.25424681128527 322.26136363636374 ) " />
                  <circle fill="#29567d" stroke="#29567d" stroke-opacity="0.0" stroke-width="0.0" cx="139.79859879531028" cy="228.8522727272728" r="4.4" />
                  <circle fill="#244c6f" stroke="#244c6f" stroke-opacity="0.0" stroke-width="0.0" cx="195.0861802397833" cy="228.8522727272728" r="4.4" />
                  <circle fill="#265176" stroke="#265176" stroke-opacity="0.0" stroke-width="0.0" cx="195.0861802397833" cy="217.17613636363643" r="4.4" />
                  <circle fill="#29567d" stroke="#29567d" stroke-opacity="0.0" stroke-width="0.0" cx="195.0861802397833" cy="205.50000000000006" r="4.4" />
                  <circle fill="#244c6f" stroke="#244c6f" stroke-opacity="0.0" stroke-width="0.0" cx="313.55956904936824" cy="240.52840909090918" r="4.4" />
                  <path fill="#29567d" stroke="#29567d" stroke-opacity="0.0" stroke-width="0.0" d="M92.40924327147629 236.71789731425764 L92.40924327147629 236.71789731425764 L96.80924327147628 244.33892086756072 L88.00924327147628 244.33892086756072 Z" transform="rotate(0.0 92.40924327147629 240.52840909090918 ) " />
                  <path fill="#29567d" stroke="#29567d" stroke-opacity="0.0" stroke-width="0.0" d="M92.40924327147629 248.39403367789396 L92.40924327147629 248.39403367789396 L96.80924327147628 256.01505723119703 L88.00924327147628 256.01505723119703 Z" transform="rotate(0.0 92.40924327147629 252.2045454545455 ) " />
                  <path fill="#2e608a" stroke="#2e608a" stroke-opacity="0.0" stroke-width="0.0" d="M92.40924327147629 213.3656245869849 L92.40924327147629 213.3656245869849 L96.80924327147628 220.98664814028797 L88.00924327147628 220.98664814028797 Z" transform="rotate(0.0 92.40924327147629 217.17613636363643 ) " />
                  <path fill="#2b5b83" stroke="#2b5b83" stroke-opacity="0.0" stroke-width="0.0" d="M92.40924327147629 236.71789731425764 L92.40924327147629 236.71789731425764 L96.80924327147628 244.33892086756072 L88.00924327147628 244.33892086756072 Z" transform="rotate(0.0 92.40924327147629 240.52840909090918 ) " />
                  <path fill="#2e608a" stroke="#2e608a" stroke-opacity="0.0" stroke-width="0.0" d="M92.40924327147629 225.04176095062127 L92.40924327147629 225.04176095062127 L96.80924327147628 232.66278450392434 L88.00924327147628 232.66278450392434 Z" transform="rotate(0.0 92.40924327147629 228.8522727272728 ) " />
                  <path fill="#29567d" stroke="#29567d" stroke-opacity="0.0" stroke-width="0.0" d="M92.40924327147629 260.0701700415304 L92.40924327147629 260.0701700415304 L96.80924327147628 267.6911935948334 L88.00924327147628 267.6911935948334 Z" transform="rotate(0.0 92.40924327147629 263.88068181818187 ) " />
                  <path fill="#306591" stroke="#306591" stroke-opacity="0.0" stroke-width="0.0" d="M68.7145655095593 225.04176095062127 L68.7145655095593 225.04176095062127 L73.1145655095593 232.66278450392434 L64.3145655095593 232.66278450392434 Z" transform="rotate(0.0 68.7145655095593 228.8522727272728 ) " />
                  <path fill="#2b5b83" stroke="#2b5b83" stroke-opacity="0.0" stroke-width="0.0" d="M68.7145655095593 225.04176095062127 L68.7145655095593 225.04176095062127 L73.1145655095593 232.66278450392434 L64.3145655095593 232.66278450392434 Z" transform="rotate(0.0 68.7145655095593 228.8522727272728 ) " />
                  <path fill="#2b5b83" stroke="#2b5b83" stroke-opacity="0.0" stroke-width="0.0" d="M92.40924327147629 225.04176095062127 L92.40924327147629 225.04176095062127 L96.80924327147628 232.66278450392434 L88.00924327147628 232.66278450392434 Z" transform="rotate(0.0 92.40924327147629 228.8522727272728 ) " />
                  <path fill="#2b5b83" stroke="#2b5b83" stroke-opacity="0.0" stroke-width="0.0" d="M92.40924327147629 225.04176095062127 L92.40924327147629 225.04176095062127 L96.80924327147628 232.66278450392434 L88.00924327147628 232.66278450392434 Z" transform="rotate(0.0 92.40924327147629 228.8522727272728 ) " />
                  <path fill="#2e608a" stroke="#2e608a" stroke-opacity="0.0" stroke-width="0.0" d="M92.40924327147629 236.71789731425764 L92.40924327147629 236.71789731425764 L96.80924327147628 244.33892086756072 L88.00924327147628 244.33892086756072 Z" transform="rotate(0.0 92.40924327147629 240.52840909090918 ) " />
                  <path fill="#2e608a" stroke="#2e608a" stroke-opacity="0.0" stroke-width="0.0" d="M92.40924327147629 213.3656245869849 L92.40924327147629 213.3656245869849 L96.80924327147628 220.98664814028797 L88.00924327147628 220.98664814028797 Z" transform="rotate(0.0 92.40924327147629 217.17613636363643 ) " />
                  <path fill="#2b5b83" stroke="#2b5b83" stroke-opacity="0.0" stroke-width="0.0" d="M92.40924327147629 236.71789731425764 L92.40924327147629 236.71789731425764 L96.80924327147628 244.33892086756072 L88.00924327147628 244.33892086756072 Z" transform="rotate(0.0 92.40924327147629 240.52840909090918 ) " />
                  <path fill="#2e608a" stroke="#2e608a" stroke-opacity="0.0" stroke-width="0.0" d="M92.40924327147629 213.3656245869849 L92.40924327147629 213.3656245869849 L96.80924327147628 220.98664814028797 L88.00924327147628 220.98664814028797 Z" transform="rotate(0.0 92.40924327147629 217.17613636363643 ) " />
                  <path fill="#214769" stroke="#214769" stroke-opacity="0.0" stroke-width="0.0" d="M108.2056951127543 295.0985791324395 L108.2056951127543 295.0985791324395 L112.60569511275429 302.71960268574253 L103.8056951127543 302.71960268574253 Z" transform="rotate(0.0 108.2056951127543 298.909090909091 ) " />
                  <path fill="#244c6f" stroke="#244c6f" stroke-opacity="0.0" stroke-width="0.0" d="M108.2056951127543 295.0985791324395 L108.2056951127543 295.0985791324395 L112.60569511275429 302.71960268574253 L103.8056951127543 302.71960268574253 Z" transform="rotate(0.0 108.2056951127543 298.909090909091 ) " />
                  <path fill="#214769" stroke="#214769" stroke-opacity="0.0" stroke-width="0.0" d="M163.49327655722726 306.7747154960759 L163.49327655722726 306.7747154960759 L167.89327655722727 314.3957390493789 L159.09327655722726 314.3957390493789 Z" transform="rotate(0.0 163.49327655722726 310.58522727272737 ) " />
                  <path fill="#214769" stroke="#214769" stroke-opacity="0.0" stroke-width="0.0" d="M163.49327655722726 330.1269882233486 L163.49327655722726 330.1269882233486 L167.89327655722727 337.7480117766516 L159.09327655722726 337.7480117766516 Z" transform="rotate(0.0 163.49327655722726 333.93750000000006 ) " />
                  <path fill="#244c6f" stroke="#244c6f" stroke-opacity="0.0" stroke-width="0.0" d="M210.88263208106127 295.0985791324395 L210.88263208106127 295.0985791324395 L215.28263208106128 302.71960268574253 L206.48263208106127 302.71960268574253 Z" transform="rotate(0.0 210.88263208106127 298.909090909091 ) " />
                  <path fill="#1f4262" stroke="#1f4262" stroke-opacity="0.0" stroke-width="0.0" d="M266.1702135255343 330.1269882233486 L266.1702135255343 330.1269882233486 L270.5702135255343 337.7480117766516 L261.7702135255343 337.7480117766516 Z" transform="rotate(0.0 266.1702135255343 333.93750000000006 ) " />
                  <circle fill="#306591" stroke="#306591" stroke-opacity="0.0" stroke-width="0.0" cx="68.7145655095593" cy="193.82386363636368" r="4.4" />
                  <circle fill="#306591" stroke="#306591" stroke-opacity="0.0" stroke-width="0.0" cx="68.7145655095593" cy="217.17613636363643" r="4.4" />
                  <circle fill="#306591" stroke="#306591" stroke-opacity="0.0" stroke-width="0.0" cx="84.51101735083729" cy="170.471590909091" r="4.4" />
                  <circle fill="#306591" stroke="#306591" stroke-opacity="0.0" stroke-width="0.0" cx="84.51101735083729" cy="170.471590909091" r="4.4" />
                  <circle fill="#29567d" stroke="#29567d" stroke-opacity="0.0" stroke-width="0.0" cx="131.9003728746713" cy="228.8522727272728" r="4.4" />
                  <circle fill="#29567d" stroke="#29567d" stroke-opacity="0.0" stroke-width="0.0" cx="131.9003728746713" cy="228.8522727272728" r="4.4" />
                  <circle fill="#2b5b83" stroke="#2b5b83" stroke-opacity="0.0" stroke-width="0.0" cx="171.39150247786625" cy="205.50000000000006" r="4.4" />
                  <circle fill="#306591" stroke="#306591" stroke-opacity="0.0" stroke-width="0.0" cx="68.7145655095593" cy="217.17613636363643" r="4.4" />
                  <circle fill="#306591" stroke="#306591" stroke-opacity="0.0" stroke-width="0.0" cx="68.7145655095593" cy="193.82386363636368" r="4.4" />
                  <circle fill="#306591" stroke="#306591" stroke-opacity="0.0" stroke-width="0.0" cx="84.51101735083729" cy="170.471590909091" r="4.4" />
                  <circle fill="#336a98" stroke="#336a98" stroke-opacity="0.0" stroke-width="0.0" cx="84.51101735083729" cy="170.471590909091" r="4.4" />
                  <circle fill="#29567d" stroke="#29567d" stroke-opacity="0.0" stroke-width="0.0" cx="131.9003728746713" cy="228.8522727272728" r="4.4" />
                  <circle fill="#29567d" stroke="#29567d" stroke-opacity="0.0" stroke-width="0.0" cx="131.9003728746713" cy="228.8522727272728" r="4.4" />
                  <circle fill="#29567d" stroke="#29567d" stroke-opacity="0.0" stroke-width="0.0" cx="155.59505063658827" cy="217.17613636363643" r="4.4" />
                  <circle fill="#3875a6" stroke="#3875a6" stroke-opacity="0.0" stroke-width="0.0" cx="37.12166182700331" cy="182.14772727272737" r="4.4" />
                  <circle fill="#3875a6" stroke="#3875a6" stroke-opacity="0.0" stroke-width="0.0" cx="37.12166182700331" cy="147.11931818181824" r="4.4" />
                  <circle fill="#3d7fb4" stroke="#3d7fb4" stroke-opacity="0.0" stroke-width="0.0" cx="37.12166182700331" cy="123.76704545454555" r="4.4" />
                  <circle fill="#438ac3" stroke="#438ac3" stroke-opacity="0.0" stroke-width="0.0" cx="37.12166182700331" cy="100.4147727272728" r="4.4" />
                  <circle fill="#3d7fb4" stroke="#3d7fb4" stroke-opacity="0.0" stroke-width="0.0" cx="37.12166182700331" cy="123.76704545454555" r="4.4" />
                  <path fill="#18344f" stroke="#18344f" stroke-opacity="0.0" stroke-width="0.0" d="M266.1702135255343 353.4792609506213 L266.1702135255343 353.4792609506213 L270.5702135255343 361.10028450392434 L261.7702135255343 361.10028450392434 Z" transform="rotate(0.0 266.1702135255343 357.2897727272728 ) " />
                  <path fill="#1c3d5c" stroke="#1c3d5c" stroke-opacity="0.0" stroke-width="0.0" d="M345.15247273192426 318.45085185971226 L345.15247273192426 318.45085185971226 L349.5524727319243 326.0718754130153 L340.7524727319243 326.0718754130153 Z" transform="rotate(0.0 345.15247273192426 322.26136363636374 ) " />
                  <path fill="#214769" stroke="#214769" stroke-opacity="0.0" stroke-width="0.0" d="M108.2056951127543 295.0985791324395 L108.2056951127543 295.0985791324395 L112.60569511275429 302.71960268574253 L103.8056951127543 302.71960268574253 Z" transform="rotate(0.0 108.2056951127543 298.909090909091 ) " />
                  <path fill="#244c6f" stroke="#244c6f" stroke-opacity="0.0" stroke-width="0.0" d="M108.2056951127543 295.0985791324395 L108.2056951127543 295.0985791324395 L112.60569511275429 302.71960268574253 L103.8056951127543 302.71960268574253 Z" transform="rotate(0.0 108.2056951127543 298.909090909091 ) " />
                  <path fill="#265176" stroke="#265176" stroke-opacity="0.0" stroke-width="0.0" d="M108.2056951127543 271.74630640516676 L108.2056951127543 271.74630640516676 L112.60569511275429 279.3673299584698 L103.8056951127543 279.3673299584698 Z" transform="rotate(0.0 108.2056951127543 275.55681818181824 ) " />
                  <path fill="#214769" stroke="#214769" stroke-opacity="0.0" stroke-width="0.0" d="M163.49327655722726 330.1269882233486 L163.49327655722726 330.1269882233486 L167.89327655722727 337.7480117766516 L159.09327655722726 337.7480117766516 Z" transform="rotate(0.0 163.49327655722726 333.93750000000006 ) " />
                  <path fill="#214769" stroke="#214769" stroke-opacity="0.0" stroke-width="0.0" d="M163.49327655722726 306.7747154960759 L163.49327655722726 306.7747154960759 L167.89327655722727 314.3957390493789 L159.09327655722726 314.3957390493789 Z" transform="rotate(0.0 163.49327655722726 310.58522727272737 ) " />
                  <path fill="#214769" stroke="#214769" stroke-opacity="0.0" stroke-width="0.0" d="M210.88263208106127 318.45085185971226 L210.88263208106127 318.45085185971226 L215.28263208106128 326.0718754130153 L206.48263208106127 326.0718754130153 Z" transform="rotate(0.0 210.88263208106127 322.26136363636374 ) " />
                  <path fill="#244c6f" stroke="#244c6f" stroke-opacity="0.0" stroke-width="0.0" d="M210.88263208106127 295.0985791324395 L210.88263208106127 295.0985791324395 L215.28263208106128 302.71960268574253 L206.48263208106127 302.71960268574253 Z" transform="rotate(0.0 210.88263208106127 298.909090909091 ) " />
                  <circle fill="#306591" stroke="#306591" stroke-opacity="0.0" stroke-width="0.0" cx="52.91811366828129" cy="193.82386363636368" r="4.4" />
                  <circle fill="#2b5b83" stroke="#2b5b83" stroke-opacity="0.0" stroke-width="0.0" cx="52.91811366828129" cy="228.8522727272728" r="4.4" />
                  <circle fill="#306591" stroke="#306591" stroke-opacity="0.0" stroke-width="0.0" cx="52.91811366828129" cy="193.82386363636368" r="4.4" />
                  <circle fill="#336a98" stroke="#336a98" stroke-opacity="0.0" stroke-width="0.0" cx="52.91811366828129" cy="193.82386363636368" r="4.4" />
                  <circle fill="#265176" stroke="#265176" stroke-opacity="0.0" stroke-width="0.0" cx="116.10392103339329" cy="252.2045454545455" r="4.4" />
                  <circle fill="#50a6e8" stroke="#50a6e8" stroke-opacity="0.0" stroke-width="0.0" cx="45.0198877476423" cy="18.681818181818244" r="4.4" />
                  <circle fill="#306591" stroke="#306591" stroke-opacity="0.0" stroke-width="0.0" cx="52.91811366828129" cy="193.82386363636368" r="4.4" />
                  <circle fill="#2b5b83" stroke="#2b5b83" stroke-opacity="0.0" stroke-width="0.0" cx="52.91811366828129" cy="228.8522727272728" r="4.4" />
                  <circle fill="#336a98" stroke="#336a98" stroke-opacity="0.0" stroke-width="0.0" cx="52.91811366828129" cy="193.82386363636368" r="4.4" />
                  <circle fill="#306591" stroke="#306591" stroke-opacity="0.0" stroke-width="0.0" cx="52.91811366828129" cy="193.82386363636368" r="4.4" />
                  <circle fill="#306591" stroke="#306591" stroke-opacity="0.0" stroke-width="0.0" cx="92.40924327147629" cy="193.82386363636368" r="4.4" />
                  <circle fill="#306591" stroke="#306591" stroke-opacity="0.0" stroke-width="0.0" cx="92.40924327147629" cy="193.82386363636368" r="4.4" />
                  <circle fill="#244c6f" stroke="#244c6f" stroke-opacity="0.0" stroke-width="0.0" cx="116.10392103339329" cy="263.88068181818187" r="4.4" />
                  <circle fill="#265176" stroke="#265176" stroke-opacity="0.0" stroke-width="0.0" cx="116.10392103339329" cy="252.2045454545455" r="4.4" />
                  <circle fill="#56b1f7" stroke="#56b1f7" stroke-opacity="0.0" stroke-width="0.0" cx="45.0198877476423" cy="18.681818181818244" r="4.4" />
                  <circle fill="#458fca" stroke="#458fca" stroke-opacity="0.0" stroke-width="0.0" cx="45.0198877476423" cy="53.710227272727366" r="4.4" />
                  <circle fill="#306591" stroke="#306591" stroke-opacity="0.0" stroke-width="0.0" cx="52.91811366828129" cy="193.82386363636368" r="4.4" />
                  <circle fill="#2b5b83" stroke="#2b5b83" stroke-opacity="0.0" stroke-width="0.0" cx="52.91811366828129" cy="228.8522727272728" r="4.4" />
                  <circle fill="#2e608a" stroke="#2e608a" stroke-opacity="0.0" stroke-width="0.0" cx="92.40924327147629" cy="205.50000000000006" r="4.4" />
                  <circle fill="#2e608a" stroke="#2e608a" stroke-opacity="0.0" stroke-width="0.0" cx="92.40924327147629" cy="193.82386363636368" r="4.4" />
                  <circle fill="#306591" stroke="#306591" stroke-opacity="0.0" stroke-width="0.0" cx="37.12166182700331" cy="193.82386363636368" r="4.4" />
                  <circle fill="#29567d" stroke="#29567d" stroke-opacity="0.0" stroke-width="0.0" cx="37.12166182700331" cy="193.82386363636368" r="4.4" />
                  <circle fill="#2b5b83" stroke="#2b5b83" stroke-opacity="0.0" stroke-width="0.0" cx="52.91811366828129" cy="205.50000000000006" r="4.4" />
                  <circle fill="#306591" stroke="#306591" stroke-opacity="0.0" stroke-width="0.0" cx="52.91811366828129" cy="193.82386363636368" r="4.4" />
                  <circle fill="#244c6f" stroke="#244c6f" stroke-opacity="0.0" stroke-width="0.0" cx="116.10392103339329" cy="228.8522727272728" r="4.4" />
                  <circle fill="#29567d" stroke="#29567d" stroke-opacity="0.0" stroke-width="0.0" cx="116.10392103339329" cy="228.8522727272728" r="4.4" />
                  <circle fill="#265176" stroke="#265176" stroke-opacity="0.0" stroke-width="0.0" cx="179.2897283985053" cy="228.8522727272728" r="4.4" />
                </g>
              </g>
            </g>
          </g>
        </g>
        <defs>
          <clipPath id="xXxprefixXx1">
            <rect x="21.961210910936405" y="0.0" width="469.15461968595656" height="411.0">
            </rect>
          </clipPath>
        </defs>
      </g>
      <g>
      </g>
    </g>
    <g transform="translate(16.0 212.0 ) rotate(-90.0 ) ">
      <text class="axis-title-y" y="0.0" text-anchor="middle">
        <tspan>hwy</tspan>
      </text>
    </g>
    <g transform="translate(286.03852075391467 463.0 ) ">
      <text class="axis-title-x" y="0.0" text-anchor="middle">
        <tspan>displ</tspan>
      </text>
    </g>
    <g transform="translate(527.1158305968929 62.5 ) ">
      <rect x="5.0" y="5.0" height="162.5" width="109.78867708962632" stroke="rgb(187,187,187)" stroke-opacity="1.0" stroke-width="0.0" fill="rgb(25,25,28)" fill-opacity="1.0">
      </rect>
      <g transform="translate(10.0 10.0 ) ">
        <g transform="translate(0.0 12.0 ) ">
          <text class="legend-title" y="0.0">
            <tspan>City mileage</tspan>
          </text>
          <text class="legend-title" y="15.0">
            <tspan>(mpg)</tspan>
          </text>
        </g>
        <g transform="translate(0.0 37.5 ) ">
          <g>
            <rect x="0.0" y="0.0" height="115.0" width="23.0" stroke-width="0.0" fill="rgb(84,173,242)" fill-opacity="1.0">
            </rect>
            <rect x="0.0" y="7.55" height="107.45" width="23.0" stroke-width="0.0" fill="rgb(81,166,232)" fill-opacity="1.0">
            </rect>
            <rect x="0.0" y="13.1" height="101.9" width="23.0" stroke-width="0.0" fill="rgb(77,159,222)" fill-opacity="1.0">
            </rect>
            <rect x="0.0" y="18.65" height="96.35" width="23.0" stroke-width="0.0" fill="rgb(73,151,213)" fill-opacity="1.0">
            </rect>
            <rect x="0.0" y="24.2" height="90.8" width="23.0" stroke-width="0.0" fill="rgb(70,144,203)" fill-opacity="1.0">
            </rect>
            <rect x="0.0" y="29.75" height="85.25" width="23.0" stroke-width="0.0" fill="rgb(66,137,194)" fill-opacity="1.0">
            </rect>
            <rect x="0.0" y="35.3" height="79.7" width="23.0" stroke-width="0.0" fill="rgb(63,130,184)" fill-opacity="1.0">
            </rect>
            <rect x="0.0" y="40.849999999999994" height="74.15" width="23.0" stroke-width="0.0" fill="rgb(59,123,175)" fill-opacity="1.0">
            </rect>
            <rect x="0.0" y="46.39999999999999" height="68.60000000000001" width="23.0" stroke-width="0.0" fill="rgb(56,116,166)" fill-opacity="1.0">
            </rect>
            <rect x="0.0" y="51.94999999999999" height="63.05000000000001" width="23.0" stroke-width="0.0" fill="rgb(52,110,156)" fill-opacity="1.0">
            </rect>
            <rect x="0.0" y="57.499999999999986" height="57.500000000000014" width="23.0" stroke-width="0.0" fill="rgb(49,103,147)" fill-opacity="1.0">
            </rect>
            <rect x="0.0" y="63.04999999999998" height="51.95000000000002" width="23.0" stroke-width="0.0" fill="rgb(46,96,138)" fill-opacity="1.0">
            </rect>
            <rect x="0.0" y="68.59999999999998" height="46.40000000000002" width="23.0" stroke-width="0.0" fill="rgb(42,90,130)" fill-opacity="1.0">
            </rect>
            <rect x="0.0" y="74.14999999999998" height="40.85000000000002" width="23.0" stroke-width="0.0" fill="rgb(39,83,121)" fill-opacity="1.0">
            </rect>
            <rect x="0.0" y="79.69999999999997" height="35.300000000000026" width="23.0" stroke-width="0.0" fill="rgb(36,77,112)" fill-opacity="1.0">
            </rect>
            <rect x="0.0" y="85.24999999999997" height="29.75000000000003" width="23.0" stroke-width="0.0" fill="rgb(33,70,104)" fill-opacity="1.0">
            </rect>
            <rect x="0.0" y="90.79999999999997" height="24.20000000000003" width="23.0" stroke-width="0.0" fill="rgb(30,64,95)" fill-opacity="1.0">
            </rect>
            <rect x="0.0" y="96.34999999999997" height="18.650000000000034" width="23.0" stroke-width="0.0" fill="rgb(27,58,87)" fill-opacity="1.0">
            </rect>
            <rect x="0.0" y="101.89999999999996" height="13.100000000000037" width="23.0" stroke-width="0.0" fill="rgb(24,52,79)" fill-opacity="1.0">
            </rect>
            <rect x="0.0" y="107.44999999999996" height="7.55000000000004" width="23.0" stroke-width="0.0" fill="rgb(20,46,71)" fill-opacity="1.0">
            </rect>
            <line x1="0.0" y1="108.73076923076921" x2="4.6" y2="108.73076923076921" stroke-width="1.0" stroke="rgb(25,25,28)" stroke-opacity="1.0">
            </line>
            <line x1="18.4" y1="108.73076923076921" x2="23.0" y2="108.73076923076921" stroke-width="1.0" stroke="rgb(25,25,28)" stroke-opacity="1.0">
            </line>
            <g transform="translate(26.9903027277341 113.28076923076921 ) ">
              <text class="legend-item" y="0.0">
                <tspan>10</tspan>
              </text>
            </g>
            <line x1="0.0" y1="87.38461538461537" x2="4.6" y2="87.38461538461537" stroke-width="1.0" stroke="rgb(25,25,28)" stroke-opacity="1.0">
            </line>
            <line x1="18.4" y1="87.38461538461537" x2="23.0" y2="87.38461538461537" stroke-width="1.0" stroke="rgb(25,25,28)" stroke-opacity="1.0">
            </line>
            <g transform="translate(26.9903027277341 91.93461538461537 ) ">
              <text class="legend-item" y="0.0">
                <tspan>15</tspan>
              </text>
            </g>
            <line x1="0.0" y1="66.03846153846152" x2="4.6" y2="66.03846153846152" stroke-width="1.0" stroke="rgb(25,25,28)" stroke-opacity="1.0">
            </line>
            <line x1="18.4" y1="66.03846153846152" x2="23.0" y2="66.03846153846152" stroke-width="1.0" stroke="rgb(25,25,28)" stroke-opacity="1.0">
            </line>
            <g transform="translate(26.9903027277341 70.58846153846152 ) ">
              <text class="legend-item" y="0.0">
                <tspan>20</tspan>
              </text>
            </g>
            <line x1="0.0" y1="44.69230769230768" x2="4.6" y2="44.69230769230768" stroke-width="1.0" stroke="rgb(25,25,28)" stroke-opacity="1.0">
            </line>
            <line x1="18.4" y1="44.69230769230768" x2="23.0" y2="44.69230769230768" stroke-width="1.0" stroke="rgb(25,25,28)" stroke-opacity="1.0">
            </line>
            <g transform="translate(26.9903027277341 49.242307692307676 ) ">
              <text class="legend-item" y="0.0">
                <tspan>25</tspan>
              </text>
            </g>
            <line x1="0.0" y1="23.34615384615384" x2="4.6" y2="23.34615384615384" stroke-width="1.0" stroke="rgb(25,25,28)" stroke-opacity="1.0">
            </line>
            <line x1="18.4" y1="23.34615384615384" x2="23.0" y2="23.34615384615384" stroke-width="1.0" stroke="rgb(25,25,28)" stroke-opacity="1.0">
            </line>
            <g transform="translate(26.9903027277341 27.896153846153837 ) ">
              <text class="legend-item" y="0.0">
                <tspan>30</tspan>
              </text>
            </g>
            <line x1="0.0" y1="1.9999999999999716" x2="4.6" y2="1.9999999999999716" stroke-width="1.0" stroke="rgb(25,25,28)" stroke-opacity="1.0">
            </line>
            <line x1="18.4" y1="1.9999999999999716" x2="23.0" y2="1.9999999999999716" stroke-width="1.0" stroke="rgb(25,25,28)" stroke-opacity="1.0">
            </line>
            <g transform="translate(26.9903027277341 6.5499999999999705 ) ">
              <text class="legend-item" y="0.0">
                <tspan>35</tspan>
              </text>
            </g>
          </g>
        </g>
      </g>
    </g>
    <g transform="translate(527.1158305968929 235.0 ) ">
      <rect x="5.0" y="5.0" height="116.5" width="167.88416940310702" stroke="rgb(187,187,187)" stroke-opacity="1.0" stroke-width="0.0" fill="rgb(25,25,28)" fill-opacity="1.0">
      </rect>
      <g transform="translate(10.0 10.0 ) ">
        <g transform="translate(0.0 12.0 ) ">
          <text class="legend-title" y="0.0">
            <tspan>Drive type</tspan>
          </text>
          <text class="legend-title" y="15.0">
            <tspan>(front/4/rear wheel)</tspan>
          </text>
        </g>
        <g transform="translate(0.0 37.5 ) ">
          <g transform="">
            <g>
              <rect x="0.0" y="0.0" height="23.0" width="23.0" stroke-width="0.0" fill="rgb(25,25,28)" fill-opacity="1.0">
              </rect>
              <g transform="translate(1.0 1.0 ) ">
                <g>
                  <g >
                    <circle fill="#bbbbbb" stroke="#bbbbbb" stroke-opacity="0.0" stroke-width="0.0" cx="10.5" cy="10.5" r="5.5" />
                  </g>
                </g>
              </g>
              <rect x="0.0" y="0.0" height="23.0" width="23.0" stroke="rgb(25,25,28)" stroke-opacity="1.0" stroke-width="1.0" fill-opacity="0.0">
              </rect>
            </g>
            <g transform="translate(26.9903027277341 16.05 ) ">
              <text class="legend-item" y="0.0">
                <tspan>f</tspan>
              </text>
            </g>
          </g>
          <g transform="translate(0.0 23.0 ) ">
            <g>
              <rect x="0.0" y="0.0" height="23.0" width="23.0" stroke-width="0.0" fill="rgb(25,25,28)" fill-opacity="1.0">
              </rect>
              <g transform="translate(1.0 1.0 ) ">
                <g>
                  <g >
                    <path fill="#bbbbbb" stroke="#bbbbbb" stroke-opacity="0.0" stroke-width="0.0" d="M10.5 5.736860279185588 L10.5 5.736860279185588 L16.0 15.263139720814412 L5.0 15.263139720814412 Z" transform="rotate(0.0 10.5 10.5 ) " />
                  </g>
                </g>
              </g>
              <rect x="0.0" y="0.0" height="23.0" width="23.0" stroke="rgb(25,25,28)" stroke-opacity="1.0" stroke-width="1.0" fill-opacity="0.0">
              </rect>
            </g>
            <g transform="translate(26.9903027277341 16.05 ) ">
              <text class="legend-item" y="0.0">
                <tspan>4</tspan>
              </text>
            </g>
          </g>
          <g transform="translate(0.0 46.0 ) ">
            <g>
              <rect x="0.0" y="0.0" height="23.0" width="23.0" stroke-width="0.0" fill="rgb(25,25,28)" fill-opacity="1.0">
              </rect>
              <g transform="translate(1.0 1.0 ) ">
                <g>
                  <g >
                    <rect fill="#bbbbbb" stroke="#bbbbbb" stroke-opacity="0.0" stroke-width="0.0" x="5.0" y="5.0" height="11.0" width="11.0" transform="rotate(0.0 10.5 10.5 ) " />
                  </g>
                </g>
              </g>
              <rect x="0.0" y="0.0" height="23.0" width="23.0" stroke="rgb(25,25,28)" stroke-opacity="1.0" stroke-width="1.0" fill-opacity="0.0">
              </rect>
            </g>
            <g transform="translate(26.9903027277341 16.05 ) ">
              <text class="legend-item" y="0.0">
                <tspan>r</tspan>
              </text>
            </g>
          </g>
        </g>
      </g>
    </g>
    <path fill="rgb(0,0,0)" fill-opacity="0.0" stroke="rgb(187,187,187)" stroke-opacity="1.0" stroke-width="0.0" d="M0.0 0.0 L0.0 470.0 L705.0 470.0 L705.0 0.0 Z">
    </path>
  </g>
  <g id="xXxprefixXx2">
  </g>
</svg>