<svg xmlns="http://www.w3.org/2000/svg" xmlns:xlink="http://www.w3.org/1999/xlink" display="block" class="plt-container" width="705.0" height="313.0">
  <style type="text/css">
  .plt-container {
   font-family: Lucida Grande, sans-serif;
   user-select: none;
   -webkit-user-select: none;
   -moz-user-select: none;
   -ms-user-select: none;
}
text {
   text-rendering: optimizeLegibility;
}
#xXxprefixXx0 .plot-title {
fill: #474747;
font-weight: normal;
   font-style: normal;font-family: Lucida Grande, sans-serif;
font-size: 16.0px;

}
#xXxprefixXx0 .plot-subtitle {
fill: #474747;
font-weight: normal;
   font-style: normal;font-family: Lucida Grande, sans-serif;
font-size: 15.0px;

}
#xXxprefixXx0 .plot-caption {
fill: #474747;
font-weight: normal;
   font-style: normal;font-family: Lucida Grande, sans-serif;
font-size: 13.0px;

}
#xXxprefixXx0 .hyperlink-element {
fill: #118ed8;
font-weight: normal;
   font-style: normal;
}
#xXxprefixXx0 .legend-title {
fill: #474747;
font-weight: normal;
   font-style: normal;font-family: Lucida Grande, sans-serif;
font-size: 15.0px;

}
#xXxprefixXx0 .legend-item {
fill: #474747;
font-weight: normal;
   font-style: normal;font-family: Lucida Grande, sans-serif;
font-size: 13.0px;

}
#xXxprefixXx0 .axis-title-x {
fill: #474747;
font-weight: normal;
   font-style: normal;font-family: Lucida Grande, sans-serif;
font-size: 15.0px;

}
#xXxprefixXx0 .axis-text-x {
fill: #474747;
font-weight: normal;
   font-style: normal;font-family: Lucida Grande, sans-serif;
font-size: 13.0px;

}
#xXxprefixXx4 .axis-tooltip-text-x {
fill: #ffffff;
font-weight: normal;
   font-style: normal;font-family: Lucida Grande, sans-serif;
font-size: 13.0px;

}
#xXxprefixXx0 .axis-title-y {
fill: #474747;
font-weight: normal;
   font-style: normal;font-family: Lucida Grande, sans-serif;
font-size: 15.0px;

}
#xXxprefixXx0 .axis-text-y {
fill: #474747;
font-weight: normal;
   font-style: normal;font-family: Lucida Grande, sans-serif;
font-size: 13.0px;

}
#xXxprefixXx4 .axis-tooltip-text-y {
fill: #ffffff;
font-weight: normal;
   font-style: normal;font-family: Lucida Grande, sans-serif;
font-size: 13.0px;

}
#xXxprefixXx0 .facet-strip-text-x {
fill: #474747;
font-weight: normal;
   font-style: normal;font-family: Lucida Grande, sans-serif;
font-size: 13.0px;

}
#xXxprefixXx0 .facet-strip-text-y {
fill: #474747;
font-weight: normal;
   font-style: normal;font-family: Lucida Grande, sans-serif;
font-size: 13.0px;

}
#xXxprefixXx4 .tooltip-text {
fill: #474747;
font-weight: normal;
   font-style: normal;font-family: Lucida Grande, sans-serif;
font-size: 13.0px;

}
#xXxprefixXx4 .tooltip-title {
fill: #474747;
font-weight: bold;
   font-style: normal;font-family: Lucida Grande, sans-serif;
font-size: 13.0px;

}
#xXxprefixXx4 .tooltip-label {
fill: #474747;
font-weight: bold;
   font-style: normal;font-family: Lucida Grande, sans-serif;
font-size: 13.0px;

}

  </style>
  <g id="xXxprefixXx0">
    <path fill-rule="evenodd" fill="rgb(255,255,255)" fill-opacity="1.0" d="M0.0 0.0 L0.0 313.0 L705.0 313.0 L705.0 0.0 Z">
    </path>
    <g transform="translate(29.5 26.5 ) ">
      <g>
        <g transform="translate(21.961210910936405 0.0 ) ">
          <g>
            <line x1="70.67536194136733" y1="0.0" x2="70.67536194136733" y2="234.0" stroke="rgb(233,233,233)" stroke-opacity="1.0" stroke-width="1.0" fill="none">
            </line>
            <line x1="153.2043777250965" y1="0.0" x2="153.2043777250965" y2="234.0" stroke="rgb(233,233,233)" stroke-opacity="1.0" stroke-width="1.0" fill="none">
            </line>
            <line x1="235.8464469551045" y1="0.0" x2="235.8464469551045" y2="234.0" stroke="rgb(233,233,233)" stroke-opacity="1.0" stroke-width="1.0" fill="none">
            </line>
            <line x1="318.3754627388337" y1="0.0" x2="318.3754627388337" y2="234.0" stroke="rgb(233,233,233)" stroke-opacity="1.0" stroke-width="1.0" fill="none">
            </line>
            <line x1="401.0175319688417" y1="0.0" x2="401.0175319688417" y2="234.0" stroke="rgb(233,233,233)" stroke-opacity="1.0" stroke-width="1.0" fill="none">
            </line>
            <line x1="483.54654775257086" y1="0.0" x2="483.54654775257086" y2="234.0" stroke="rgb(233,233,233)" stroke-opacity="1.0" stroke-width="1.0" fill="none">
            </line>
            <line x1="566.1886169825789" y1="0.0" x2="566.1886169825789" y2="234.0" stroke="rgb(233,233,233)" stroke-opacity="1.0" stroke-width="1.0" fill="none">
            </line>
          </g>
        </g>
        <g transform="translate(21.961210910936405 0.0 ) ">
          <g>
            <line x1="0.0" y1="232.13589503280224" x2="647.0387890890636" y2="232.13589503280224" stroke="rgb(233,233,233)" stroke-opacity="1.0" stroke-width="1.0" fill="none">
            </line>
            <line x1="0.0" y1="177.30927835051543" x2="647.0387890890636" y2="177.30927835051543" stroke="rgb(233,233,233)" stroke-opacity="1.0" stroke-width="1.0" fill="none">
            </line>
            <line x1="0.0" y1="122.48266166822862" x2="647.0387890890636" y2="122.48266166822862" stroke="rgb(233,233,233)" stroke-opacity="1.0" stroke-width="1.0" fill="none">
            </line>
            <line x1="0.0" y1="67.65604498594183" x2="647.0387890890636" y2="67.65604498594183" stroke="rgb(233,233,233)" stroke-opacity="1.0" stroke-width="1.0" fill="none">
            </line>
            <line x1="0.0" y1="12.82942830365505" x2="647.0387890890636" y2="12.82942830365505" stroke="rgb(233,233,233)" stroke-opacity="1.0" stroke-width="1.0" fill="none">
            </line>
          </g>
        </g>
      </g>
      <g clip-path="url(#xXxprefixXx3)" clip-bounds-jfx="[rect (21.961210910936405, 0.0), (647.0387890890636, 234.0)]">
        <g transform="translate(21.961210910936405 0.0 ) ">
          <g>
            <g>
              <g>
                <path d="M29.41085404950286 223.36363636363635 L29.41085404950286 223.36363636363635 L32.9155108841544 220.07403936269912 L36.081007379968696 214.59137769447045 L39.58566421462024 222.2671040299906 L42.9772676029927 217.88097469540764 L46.48192443764401 221.17057169634487 L49.87352782601647 212.39831302717897 L53.37818466066801 211.30178069353323 L56.88284149531955 208.012183692596 L60.27444488369201 206.9156513589503 L63.779101718343554 202.52952202436734 L67.17070510671579 197.04686035613867 L70.67536194136733 194.85379568884719 L74.18001877601887 195.95032802249293 L77.34551527183316 194.85379568884719 L80.8501721064847 189.3711340206185 L84.24177549485717 182.7919400187441 L87.7464323295087 166.34395501405805 L91.13803571788094 189.3711340206185 L94.64269255253248 188.2746016869728 L98.14734938718402 182.7919400187441 L101.53895277555648 181.69540768509836 L105.04360961020802 184.98500468603555 L108.43521299858048 181.69540768509836 L111.93986983323202 181.69540768509836 L115.44452666788334 182.7919400187441 L118.61002316369763 180.59887535145265 L122.11467999834917 175.11621368322398 L125.50628338672163 178.40581068416117 L129.01094022137318 160.86129334582938 L132.40254360974563 174.0196813495782 L135.90720044439718 176.2127460168697 L139.4118572790485 175.11621368322398 L142.80346066742095 172.9231490159325 L146.3081175020725 174.0196813495782 L149.69972089044495 172.9231490159325 L153.2043777250965 170.73008434864101 L156.70903455974803 175.11621368322398 L159.98758450184118 175.11621368322398 L163.49224133649273 182.7919400187441 L166.88384472486518 178.40581068416117 L170.38850155951673 166.34395501405805 L173.78010494788919 189.3711340206185 L177.28476178254073 186.08153701968132 L180.78941861719227 181.69540768509836 L184.1810220055645 182.7919400187441 L187.68567884021604 180.59887535145265 L191.0772822285885 182.7919400187441 L194.58193906324004 183.88847235238984 L198.08659589789158 186.08153701968132 L201.25209239370588 184.98500468603555 L204.75674922835742 188.2746016869728 L208.14835261672965 187.17806935332706 L211.6530094513812 188.2746016869728 L215.04461283975365 190.46766635426425 L218.5492696744052 186.08153701968132 L222.05392650905674 194.85379568884719 L225.4455298974292 192.66073102155573 L228.95018673208074 193.75726335520147 L232.34179012045297 191.56419868791 L235.8464469551045 192.66073102155573 L239.35110378975605 187.17806935332706 L242.51660028557035 191.56419868791 L246.0212571202219 194.85379568884719 L249.41286050859435 193.75726335520147 L252.9175173432459 206.9156513589503 L256.3091207316181 199.23992502343015 L259.81377756626966 194.85379568884719 L263.3184344009212 199.23992502343015 L266.71003778929366 200.33645735707586 L270.2146946239452 195.95032802249293 L273.60629801231767 204.72258669165882 L277.110954846969 195.95032802249293 L280.6156116816205 193.75726335520147 L283.7811081774348 187.17806935332706 L287.28576501208636 192.66073102155573 L290.6773684004588 197.04686035613867 L294.18202523511036 202.52952202436734 L297.5736286234828 191.56419868791 L301.07828545813413 190.46766635426425 L304.5829422927857 191.56419868791 L307.97454568115813 194.85379568884719 L311.4792025158097 192.66073102155573 L314.87080590418213 194.85379568884719 L318.3754627388337 188.2746016869728 L321.8801195734852 191.56419868791 L325.15866951557837 191.56419868791 L328.6633263502299 183.88847235238984 L332.05492973860237 200.33645735707586 L335.5595865732539 188.2746016869728 L338.95118996162637 180.59887535145265 L342.4558467962779 180.59887535145265 L345.96050363092945 175.11621368322398 L349.3521070193017 172.9231490159325 L352.8567638539532 179.50234301780688 L356.2483672423257 171.82661668228675 L359.7530240769772 169.6335520149953 L363.25768091162877 158.66822867853793 L366.42317740744306 152.0890346766635 L369.9278342420944 143.31677600749762 L373.31943763046684 131.25492033739454 L376.8240944651184 98.35895032802244 L380.21569785349084 111.51733833177127 L383.7203546881424 108.22774133083405 L387.2250115227939 91.779756326148 L390.6166149111664 79.71790065604495 L394.1212717458177 69.84910965323328 L397.51287513419015 66.55951265229609 L401.0175319688417 67.65604498594183 L404.52218880349324 68.75257731958757 L407.68768529930753 63.2699156513589 L411.1923421339591 44.628865979381374 L414.58394552233153 42.43580131208989 L418.08860235698285 10.63636363636357 L421.4802057453553 42.43580131208989 L424.98486258000685 56.69072164948449 L428.4895194146584 64.36644798500461 L431.88112280303085 54.49765698219301 L435.3857796376824 56.69072164948449 L438.77738302605485 46.821930646672854 L442.28203986070616 51.208059981255786 L445.7866966953577 55.59418931583872 L448.952193191172 51.208059981255786 L452.45685002582354 57.78725398313023 L455.848453414196 50.111527647610046 L459.35311024884754 41.33926897844418 L462.74471363722 45.725398313027114 L466.2493704718713 41.33926897844418 L469.75402730652286 45.725398313027114 L473.1456306948953 61.07685098406739 L476.65028752954686 58.88378631677594 L480.0418909179193 62.17338331771316 L483.54654775257086 58.88378631677594 L487.0512045872222 70.94564198687905 L490.32975452931555 76.42830365510773 L493.8344113639671 77.52483598875344 L497.22601475233955 68.75257731958757 L500.7306715869911 63.2699156513589 L504.12227497536355 95.06935332708522 L507.6269318100151 85.20056232427362 L511.1315886446664 80.81443298969066 L514.5231920330389 68.75257731958757 L518.0278488676904 83.00749765698211 L521.4194522560629 92.87628865979377 L524.9241090907144 113.71040299906272 L528.428765925366 98.35895032802244 L531.5942624211802 93.97282099343948 L535.0989192558316 99.45548266166816 L538.490522644204 99.45548266166816 L541.9951794788556 100.55201499531393 L545.386782867228 109.32427366447982 L548.8914397018796 106.0346766635426 L552.3960965365311 106.0346766635426 L555.7876999249036 108.22774133083405 L559.2923567595549 99.45548266166816 L562.6839601479273 97.2624179943767 L566.1886169825789 118.09653233364568 L569.6932738172304 112.61387066541701 L572.8587703130447 113.71040299906272 L576.3634271476963 114.80693533270849 L579.7550305360685 126.86879100281158 L583.25968737072 135.64104967197744 L586.6512907590925 143.31677600749762 L590.155947593744 145.50984067478907 L593.6606044283956 140.0271790065604 L597.052207816768 137.83411433926895 L600.5568646514196 144.41330834114336 L603.9484680397918 145.50984067478907 L607.4531248744433 142.22024367385188 L610.9577817090949 145.50984067478907 L614.1232782049092 155.3786316776007 L617.6279350395607 160.86129334582938 " fill="none" stroke-width="1.6500000000000001" stroke="rgb(71,71,71)" stroke-opacity="1.0">
                </path>
              </g>
            </g>
            <g>
              <line x1="0.0" y1="146.30036398509185" x2="647.0387890890636" y2="146.30036398509185" stroke="rgb(238,102,102)" stroke-opacity="1.0" fill="none" stroke-width="1.6500000000000001" stroke-dasharray="6.6000000000000005,6.6000000000000005" stroke-dashoffset="0.0">
              </line>
            </g>
            <g>
              <g transform="rotate(0.0 29.41085404950286 140.81770231686315 ) ">
                <g transform="translate(29.41085404950286 145.01770231686314 ) ">
                  <text style="fill:#474747;font-size:14.0px;font-family:sans-serif;" fill-opacity="1.0" y="0.0" text-anchor="middle">
                    <tspan>12,83 %</tspan>
                  </text>
                </g>
              </g>
            </g>
          </g>
        </g>
        <defs>
          <clipPath id="xXxprefixXx1">
            <rect x="21.961210910936405" y="0.0" width="647.0387890890636" height="234.0">
            </rect>
          </clipPath>
        </defs>
        <defs>
          <clipPath id="xXxprefixXx2">
            <rect x="21.961210910936405" y="0.0" width="647.0387890890636" height="234.0">
            </rect>
          </clipPath>
        </defs>
        <defs>
          <clipPath id="xXxprefixXx3">
            <rect x="21.961210910936405" y="0.0" width="647.0387890890636" height="234.0">
            </rect>
          </clipPath>
        </defs>
      </g>
      <g>
        <g transform="translate(21.961210910936405 234.0 ) ">
          <g transform="translate(70.67536194136733 0.0 ) ">
            <line stroke-width="1.0" stroke="rgb(71,71,71)" stroke-opacity="1.0" x2="0.0" y2="4.0">
            </line>
            <g transform="translate(0.0 7.0 ) ">
              <text class="axis-text-x" text-anchor="middle" dy="0.7em">
                <tspan>2002</tspan>
              </text>
            </g>
          </g>
          <g transform="translate(153.2043777250965 0.0 ) ">
            <line stroke-width="1.0" stroke="rgb(71,71,71)" stroke-opacity="1.0" x2="0.0" y2="4.0">
            </line>
            <g transform="translate(0.0 7.0 ) ">
              <text class="axis-text-x" text-anchor="middle" dy="0.7em">
                <tspan>2004</tspan>
              </text>
            </g>
          </g>
          <g transform="translate(235.8464469551045 0.0 ) ">
            <line stroke-width="1.0" stroke="rgb(71,71,71)" stroke-opacity="1.0" x2="0.0" y2="4.0">
            </line>
            <g transform="translate(0.0 7.0 ) ">
              <text class="axis-text-x" text-anchor="middle" dy="0.7em">
                <tspan>2006</tspan>
              </text>
            </g>
          </g>
          <g transform="translate(318.3754627388337 0.0 ) ">
            <line stroke-width="1.0" stroke="rgb(71,71,71)" stroke-opacity="1.0" x2="0.0" y2="4.0">
            </line>
            <g transform="translate(0.0 7.0 ) ">
              <text class="axis-text-x" text-anchor="middle" dy="0.7em">
                <tspan>2008</tspan>
              </text>
            </g>
          </g>
          <g transform="translate(401.0175319688417 0.0 ) ">
            <line stroke-width="1.0" stroke="rgb(71,71,71)" stroke-opacity="1.0" x2="0.0" y2="4.0">
            </line>
            <g transform="translate(0.0 7.0 ) ">
              <text class="axis-text-x" text-anchor="middle" dy="0.7em">
                <tspan>2010</tspan>
              </text>
            </g>
          </g>
          <g transform="translate(483.54654775257086 0.0 ) ">
            <line stroke-width="1.0" stroke="rgb(71,71,71)" stroke-opacity="1.0" x2="0.0" y2="4.0">
            </line>
            <g transform="translate(0.0 7.0 ) ">
              <text class="axis-text-x" text-anchor="middle" dy="0.7em">
                <tspan>2012</tspan>
              </text>
            </g>
          </g>
          <g transform="translate(566.1886169825789 0.0 ) ">
            <line stroke-width="1.0" stroke="rgb(71,71,71)" stroke-opacity="1.0" x2="0.0" y2="4.0">
            </line>
            <g transform="translate(0.0 7.0 ) ">
              <text class="axis-text-x" text-anchor="middle" dy="0.7em">
                <tspan>2014</tspan>
              </text>
            </g>
          </g>
          <line x1="0.0" y1="0.0" x2="647.0387890890636" y2="0.0" stroke-width="1.0" stroke="rgb(71,71,71)" stroke-opacity="1.0">
          </line>
        </g>
        <g transform="translate(21.961210910936405 0.0 ) ">
          <g transform="translate(0.0 232.13589503280224 ) ">
            <g transform="translate(-3.0 0.0 ) ">
              <text class="axis-text-y" text-anchor="end" dy="0.35em">
                <tspan>5</tspan>
              </text>
            </g>
          </g>
          <g transform="translate(0.0 177.30927835051543 ) ">
            <g transform="translate(-3.0 0.0 ) ">
              <text class="axis-text-y" text-anchor="end" dy="0.35em">
                <tspan>10</tspan>
              </text>
            </g>
          </g>
          <g transform="translate(0.0 122.48266166822862 ) ">
            <g transform="translate(-3.0 0.0 ) ">
              <text class="axis-text-y" text-anchor="end" dy="0.35em">
                <tspan>15</tspan>
              </text>
            </g>
          </g>
          <g transform="translate(0.0 67.65604498594183 ) ">
            <g transform="translate(-3.0 0.0 ) ">
              <text class="axis-text-y" text-anchor="end" dy="0.35em">
                <tspan>20</tspan>
              </text>
            </g>
          </g>
          <g transform="translate(0.0 12.82942830365505 ) ">
            <g transform="translate(-3.0 0.0 ) ">
              <text class="axis-text-y" text-anchor="end" dy="0.35em">
                <tspan>25</tspan>
              </text>
            </g>
          </g>
        </g>
      </g>
    </g>
    <g transform="translate(51.4612109109364 16.8 ) ">
      <text class="plot-title" y="0.0">
        <tspan>The US Unemployment Rates 2000-2016.</tspan>
      </text>
    </g>
    <g transform="translate(16.0 143.5 ) rotate(-90.0 ) ">
      <text class="axis-title-y" y="0.0" text-anchor="middle">
        <tspan>unemployment rate</tspan>
      </text>
    </g>
    <g transform="translate(374.9806054554682 306.0 ) ">
      <text class="axis-title-x" y="0.0" text-anchor="middle">
        <tspan>date</tspan>
      </text>
    </g>
    <path fill="rgb(0,0,0)" fill-opacity="0.0" stroke="rgb(71,71,71)" stroke-opacity="1.0" stroke-width="0.0" d="M0.0 0.0 L0.0 313.0 L705.0 313.0 L705.0 0.0 Z" pointer-events="none">
    </path>
  </g>
  <g id="xXxprefixXx4">
  </g>
</svg>