<svg xmlns="http://www.w3.org/2000/svg" xmlns:xlink="http://www.w3.org/1999/xlink" display="block" class="plt-container" width="705.0" height="470.0">
  <style type="text/css">
  .plt-container {
   font-family: Lucida Grande, sans-serif;
   user-select: none;
   -webkit-user-select: none;
   -moz-user-select: none;
   -ms-user-select: none;
}
text {
   text-rendering: optimizeLegibility;
}
#xXxprefixXx0 .plot-title {
   fill: #bbbbbb;
   font-family: Lucida Grande, sans-serif;
   font-size: 16.0px;
   font-weight: normal;
   font-style: normal;   
}
#xXxprefixXx0 .plot-subtitle {
   fill: #bbbbbb;
   font-family: Lucida Grande, sans-serif;
   font-size: 15.0px;
   font-weight: normal;
   font-style: normal;   
}
#xXxprefixXx0 .plot-caption {
   fill: #bbbbbb;
   font-family: Lucida Grande, sans-serif;
   font-size: 13.0px;
   font-weight: normal;
   font-style: normal;   
}
#xXxprefixXx0 .legend-title {
   fill: #bbbbbb;
   font-family: Lucida Grande, sans-serif;
   font-size: 15.0px;
   font-weight: normal;
   font-style: normal;   
}
#xXxprefixXx0 .legend-item {
   fill: #bbbbbb;
   font-family: Lucida Grande, sans-serif;
   font-size: 13.0px;
   font-weight: normal;
   font-style: normal;   
}
#xXxprefixXx0 .axis-title-x {
   fill: #bbbbbb;
   font-family: Lucida Grande, sans-serif;
   font-size: 15.0px;
   font-weight: normal;
   font-style: normal;   
}
#xXxprefixXx0 .axis-text-x {
   fill: #bbbbbb;
   font-family: Lucida Grande, sans-serif;
   font-size: 13.0px;
   font-weight: normal;
   font-style: normal;   
}
#xXxprefixXx2 .axis-tooltip-text-x {
   fill: #303030;
   font-family: Lucida Grande, sans-serif;
   font-size: 13.0px;
   font-weight: normal;
   font-style: normal;   
}
#xXxprefixXx0 .axis-title-y {
   fill: #bbbbbb;
   font-family: Lucida Grande, sans-serif;
   font-size: 15.0px;
   font-weight: normal;
   font-style: normal;   
}
#xXxprefixXx0 .axis-text-y {
   fill: #bbbbbb;
   font-family: Lucida Grande, sans-serif;
   font-size: 13.0px;
   font-weight: normal;
   font-style: normal;   
}
#xXxprefixXx2 .axis-tooltip-text-y {
   fill: #303030;
   font-family: Lucida Grande, sans-serif;
   font-size: 13.0px;
   font-weight: normal;
   font-style: normal;   
}
#xXxprefixXx0 .facet-strip-text-x {
   fill: #bbbbbb;
   font-family: Lucida Grande, sans-serif;
   font-size: 13.0px;
   font-weight: normal;
   font-style: normal;   
}
#xXxprefixXx0 .facet-strip-text-y {
   fill: #bbbbbb;
   font-family: Lucida Grande, sans-serif;
   font-size: 13.0px;
   font-weight: normal;
   font-style: normal;   
}
#xXxprefixXx2 .tooltip-text {
   fill: #bbbbbb;
   font-family: Lucida Grande, sans-serif;
   font-size: 13.0px;
   font-weight: normal;
   font-style: normal;   
}
#xXxprefixXx2 .tooltip-title {
   fill: #bbbbbb;
   font-family: Lucida Grande, sans-serif;
   font-size: 13.0px;
   font-weight: bold;
   font-style: normal;   
}
#xXxprefixXx2 .tooltip-label {
   fill: #bbbbbb;
   font-family: Lucida Grande, sans-serif;
   font-size: 13.0px;
   font-weight: bold;
   font-style: normal;   
}

  </style>
  <g id="xXxprefixXx0">
    <path fill-rule="evenodd" fill="rgb(25,25,28)" fill-opacity="1.0" d="M0.0 0.0 L0.0 470.0 L705.0 470.0 L705.0 0.0 Z">
    </path>
    <g transform="translate(29.5 6.5 ) ">
      <g>
        <g transform="translate(21.961210910936405 0.0 ) ">
          <g>
            <line x1="18.517945142279586" y1="0.0" x2="18.517945142279586" y2="307.6666666666667" stroke="rgb(71,71,71)" stroke-opacity="1.0" stroke-width="1.0" fill="none">
            </line>
            <line x1="72.98248967839606" y1="0.0" x2="72.98248967839606" y2="307.6666666666667" stroke="rgb(71,71,71)" stroke-opacity="1.0" stroke-width="1.0" fill="none">
            </line>
            <line x1="127.44703421451251" y1="0.0" x2="127.44703421451251" y2="307.6666666666667" stroke="rgb(71,71,71)" stroke-opacity="1.0" stroke-width="1.0" fill="none">
            </line>
            <line x1="181.911578750629" y1="0.0" x2="181.911578750629" y2="307.6666666666667" stroke="rgb(71,71,71)" stroke-opacity="1.0" stroke-width="1.0" fill="none">
            </line>
            <line x1="236.37612328674547" y1="0.0" x2="236.37612328674547" y2="307.6666666666667" stroke="rgb(71,71,71)" stroke-opacity="1.0" stroke-width="1.0" fill="none">
            </line>
            <line x1="290.840667822862" y1="0.0" x2="290.840667822862" y2="307.6666666666667" stroke="rgb(71,71,71)" stroke-opacity="1.0" stroke-width="1.0" fill="none">
            </line>
            <line x1="345.30521235897845" y1="0.0" x2="345.30521235897845" y2="307.6666666666667" stroke="rgb(71,71,71)" stroke-opacity="1.0" stroke-width="1.0" fill="none">
            </line>
            <line x1="399.7697568950948" y1="0.0" x2="399.7697568950948" y2="307.6666666666667" stroke="rgb(71,71,71)" stroke-opacity="1.0" stroke-width="1.0" fill="none">
            </line>
            <line x1="454.2343014312113" y1="0.0" x2="454.2343014312113" y2="307.6666666666667" stroke="rgb(71,71,71)" stroke-opacity="1.0" stroke-width="1.0" fill="none">
            </line>
            <line x1="508.69884596732777" y1="0.0" x2="508.69884596732777" y2="307.6666666666667" stroke="rgb(71,71,71)" stroke-opacity="1.0" stroke-width="1.0" fill="none">
            </line>
            <line x1="563.1633905034442" y1="0.0" x2="563.1633905034442" y2="307.6666666666667" stroke="rgb(71,71,71)" stroke-opacity="1.0" stroke-width="1.0" fill="none">
            </line>
            <line x1="617.6279350395607" y1="0.0" x2="617.6279350395607" y2="307.6666666666667" stroke="rgb(71,71,71)" stroke-opacity="1.0" stroke-width="1.0" fill="none">
            </line>
          </g>
        </g>
        <g transform="translate(21.961210910936405 0.0 ) ">
          <g>
            <line x1="0.0" y1="267.46022727272737" x2="647.0387890890636" y2="267.46022727272737" stroke="rgb(71,71,71)" stroke-opacity="1.0" stroke-width="1.0" fill="none">
            </line>
            <line x1="0.0" y1="223.7575757575758" x2="647.0387890890636" y2="223.7575757575758" stroke="rgb(71,71,71)" stroke-opacity="1.0" stroke-width="1.0" fill="none">
            </line>
            <line x1="0.0" y1="180.0549242424243" x2="647.0387890890636" y2="180.0549242424243" stroke="rgb(71,71,71)" stroke-opacity="1.0" stroke-width="1.0" fill="none">
            </line>
            <line x1="0.0" y1="136.3522727272728" x2="647.0387890890636" y2="136.3522727272728" stroke="rgb(71,71,71)" stroke-opacity="1.0" stroke-width="1.0" fill="none">
            </line>
            <line x1="0.0" y1="92.64962121212125" x2="647.0387890890636" y2="92.64962121212125" stroke="rgb(71,71,71)" stroke-opacity="1.0" stroke-width="1.0" fill="none">
            </line>
            <line x1="0.0" y1="48.946969696969745" x2="647.0387890890636" y2="48.946969696969745" stroke="rgb(71,71,71)" stroke-opacity="1.0" stroke-width="1.0" fill="none">
            </line>
            <line x1="0.0" y1="5.244318181818244" x2="647.0387890890636" y2="5.244318181818244" stroke="rgb(71,71,71)" stroke-opacity="1.0" stroke-width="1.0" fill="none">
            </line>
          </g>
        </g>
        <g transform="translate(21.961210910936405 307.6666666666667 ) ">
          <g transform="translate(18.517945142279586 0.0 ) ">
            <line stroke-width="1.0" stroke="rgb(187,187,187)" stroke-opacity="1.0" x2="0.0" y2="4.0">
            </line>
            <g transform="translate(0.0 7.0 ) ">
              <text class="axis-text-x" text-anchor="middle" dy="0.7em">
                <tspan>1.5</tspan>
              </text>
            </g>
          </g>
          <g transform="translate(72.98248967839606 0.0 ) ">
            <line stroke-width="1.0" stroke="rgb(187,187,187)" stroke-opacity="1.0" x2="0.0" y2="4.0">
            </line>
            <g transform="translate(0.0 7.0 ) ">
              <text class="axis-text-x" text-anchor="middle" dy="0.7em">
                <tspan>2.0</tspan>
              </text>
            </g>
          </g>
          <g transform="translate(127.44703421451251 0.0 ) ">
            <line stroke-width="1.0" stroke="rgb(187,187,187)" stroke-opacity="1.0" x2="0.0" y2="4.0">
            </line>
            <g transform="translate(0.0 7.0 ) ">
              <text class="axis-text-x" text-anchor="middle" dy="0.7em">
                <tspan>2.5</tspan>
              </text>
            </g>
          </g>
          <g transform="translate(181.911578750629 0.0 ) ">
            <line stroke-width="1.0" stroke="rgb(187,187,187)" stroke-opacity="1.0" x2="0.0" y2="4.0">
            </line>
            <g transform="translate(0.0 7.0 ) ">
              <text class="axis-text-x" text-anchor="middle" dy="0.7em">
                <tspan>3.0</tspan>
              </text>
            </g>
          </g>
          <g transform="translate(236.37612328674547 0.0 ) ">
            <line stroke-width="1.0" stroke="rgb(187,187,187)" stroke-opacity="1.0" x2="0.0" y2="4.0">
            </line>
            <g transform="translate(0.0 7.0 ) ">
              <text class="axis-text-x" text-anchor="middle" dy="0.7em">
                <tspan>3.5</tspan>
              </text>
            </g>
          </g>
          <g transform="translate(290.840667822862 0.0 ) ">
            <line stroke-width="1.0" stroke="rgb(187,187,187)" stroke-opacity="1.0" x2="0.0" y2="4.0">
            </line>
            <g transform="translate(0.0 7.0 ) ">
              <text class="axis-text-x" text-anchor="middle" dy="0.7em">
                <tspan>4.0</tspan>
              </text>
            </g>
          </g>
          <g transform="translate(345.30521235897845 0.0 ) ">
            <line stroke-width="1.0" stroke="rgb(187,187,187)" stroke-opacity="1.0" x2="0.0" y2="4.0">
            </line>
            <g transform="translate(0.0 7.0 ) ">
              <text class="axis-text-x" text-anchor="middle" dy="0.7em">
                <tspan>4.5</tspan>
              </text>
            </g>
          </g>
          <g transform="translate(399.7697568950948 0.0 ) ">
            <line stroke-width="1.0" stroke="rgb(187,187,187)" stroke-opacity="1.0" x2="0.0" y2="4.0">
            </line>
            <g transform="translate(0.0 7.0 ) ">
              <text class="axis-text-x" text-anchor="middle" dy="0.7em">
                <tspan>5.0</tspan>
              </text>
            </g>
          </g>
          <g transform="translate(454.2343014312113 0.0 ) ">
            <line stroke-width="1.0" stroke="rgb(187,187,187)" stroke-opacity="1.0" x2="0.0" y2="4.0">
            </line>
            <g transform="translate(0.0 7.0 ) ">
              <text class="axis-text-x" text-anchor="middle" dy="0.7em">
                <tspan>5.5</tspan>
              </text>
            </g>
          </g>
          <g transform="translate(508.69884596732777 0.0 ) ">
            <line stroke-width="1.0" stroke="rgb(187,187,187)" stroke-opacity="1.0" x2="0.0" y2="4.0">
            </line>
            <g transform="translate(0.0 7.0 ) ">
              <text class="axis-text-x" text-anchor="middle" dy="0.7em">
                <tspan>6.0</tspan>
              </text>
            </g>
          </g>
          <g transform="translate(563.1633905034442 0.0 ) ">
            <line stroke-width="1.0" stroke="rgb(187,187,187)" stroke-opacity="1.0" x2="0.0" y2="4.0">
            </line>
            <g transform="translate(0.0 7.0 ) ">
              <text class="axis-text-x" text-anchor="middle" dy="0.7em">
                <tspan>6.5</tspan>
              </text>
            </g>
          </g>
          <g transform="translate(617.6279350395607 0.0 ) ">
            <line stroke-width="1.0" stroke="rgb(187,187,187)" stroke-opacity="1.0" x2="0.0" y2="4.0">
            </line>
            <g transform="translate(0.0 7.0 ) ">
              <text class="axis-text-x" text-anchor="middle" dy="0.7em">
                <tspan>7.0</tspan>
              </text>
            </g>
          </g>
          <line x1="0.0" y1="0.0" x2="647.0387890890636" y2="0.0" stroke-width="1.0" stroke="rgb(187,187,187)" stroke-opacity="1.0">
          </line>
        </g>
        <g transform="translate(21.961210910936405 0.0 ) ">
          <g transform="translate(0.0 267.46022727272737 ) ">
            <g transform="translate(-3.0 0.0 ) ">
              <text class="axis-text-y" text-anchor="end" dy="0.35em">
                <tspan>15</tspan>
              </text>
            </g>
          </g>
          <g transform="translate(0.0 223.7575757575758 ) ">
            <g transform="translate(-3.0 0.0 ) ">
              <text class="axis-text-y" text-anchor="end" dy="0.35em">
                <tspan>20</tspan>
              </text>
            </g>
          </g>
          <g transform="translate(0.0 180.0549242424243 ) ">
            <g transform="translate(-3.0 0.0 ) ">
              <text class="axis-text-y" text-anchor="end" dy="0.35em">
                <tspan>25</tspan>
              </text>
            </g>
          </g>
          <g transform="translate(0.0 136.3522727272728 ) ">
            <g transform="translate(-3.0 0.0 ) ">
              <text class="axis-text-y" text-anchor="end" dy="0.35em">
                <tspan>30</tspan>
              </text>
            </g>
          </g>
          <g transform="translate(0.0 92.64962121212125 ) ">
            <g transform="translate(-3.0 0.0 ) ">
              <text class="axis-text-y" text-anchor="end" dy="0.35em">
                <tspan>35</tspan>
              </text>
            </g>
          </g>
          <g transform="translate(0.0 48.946969696969745 ) ">
            <g transform="translate(-3.0 0.0 ) ">
              <text class="axis-text-y" text-anchor="end" dy="0.35em">
                <tspan>40</tspan>
              </text>
            </g>
          </g>
          <g transform="translate(0.0 5.244318181818244 ) ">
            <g transform="translate(-3.0 0.0 ) ">
              <text class="axis-text-y" text-anchor="end" dy="0.35em">
                <tspan>45</tspan>
              </text>
            </g>
          </g>
        </g>
      </g>
      <g clip-path="url(#xXxprefixXx1)" clip-bounds-jfx="[rect (21.961210910936405, 0.0), (647.0387890890636, 307.6666666666667)]">
        <g transform="translate(21.961210910936405 0.0 ) ">
          <g>
            <g>
              <g>
                <g >
                  <circle fill="#29567d" stroke="#29567d" stroke-opacity="0.0" stroke-width="0.0" cx="51.19667186394949" cy="145.0928030303031" r="4.4" />
                  <circle fill="#306591" stroke="#306591" stroke-opacity="0.0" stroke-width="0.0" cx="51.19667186394949" cy="145.0928030303031" r="4.4" />
                  <circle fill="#2e608a" stroke="#2e608a" stroke-opacity="0.0" stroke-width="0.0" cx="72.98248967839606" cy="127.6117424242425" r="4.4" />
                  <circle fill="#306591" stroke="#306591" stroke-opacity="0.0" stroke-width="0.0" cx="72.98248967839606" cy="136.3522727272728" r="4.4" />
                  <circle fill="#244c6f" stroke="#244c6f" stroke-opacity="0.0" stroke-width="0.0" cx="160.1257609361824" cy="171.314393939394" r="4.4" />
                  <circle fill="#29567d" stroke="#29567d" stroke-opacity="0.0" stroke-width="0.0" cx="160.1257609361824" cy="171.314393939394" r="4.4" />
                  <circle fill="#29567d" stroke="#29567d" stroke-opacity="0.0" stroke-width="0.0" cx="192.80448765785232" cy="162.57386363636368" r="4.4" />
                  <path fill="#29567d" stroke="#29567d" stroke-opacity="0.0" stroke-width="0.0" d="M51.19667186394949 167.50388216274246 L51.19667186394949 167.50388216274246 L55.596671863949496 175.12490571604553 L46.79667186394949 175.12490571604553 Z" transform="rotate(0.0 51.19667186394949 171.314393939394 ) " />
                  <path fill="#244c6f" stroke="#244c6f" stroke-opacity="0.0" stroke-width="0.0" d="M51.19667186394949 176.24441246577277 L51.19667186394949 176.24441246577277 L55.596671863949496 183.86543601907584 L46.79667186394949 183.86543601907584 Z" transform="rotate(0.0 51.19667186394949 180.0549242424243 ) " />
                  <path fill="#2e608a" stroke="#2e608a" stroke-opacity="0.0" stroke-width="0.0" d="M72.98248967839606 150.02282155668186 L72.98248967839606 150.02282155668186 L77.38248967839606 157.64384510998494 L68.58248967839606 157.64384510998494 Z" transform="rotate(0.0 72.98248967839606 153.8333333333334 ) " />
                  <path fill="#2b5b83" stroke="#2b5b83" stroke-opacity="0.0" stroke-width="0.0" d="M72.98248967839606 158.76335185971215 L72.98248967839606 158.76335185971215 L77.38248967839606 166.38437541301522 L68.58248967839606 166.38437541301522 Z" transform="rotate(0.0 72.98248967839606 162.57386363636368 ) " />
                  <path fill="#214769" stroke="#214769" stroke-opacity="0.0" stroke-width="0.0" d="M160.1257609361824 176.24441246577277 L160.1257609361824 176.24441246577277 L164.5257609361824 183.86543601907584 L155.72576093618238 183.86543601907584 Z" transform="rotate(0.0 160.1257609361824 180.0549242424243 ) " />
                  <path fill="#265176" stroke="#265176" stroke-opacity="0.0" stroke-width="0.0" d="M160.1257609361824 176.24441246577277 L160.1257609361824 176.24441246577277 L164.5257609361824 183.86543601907584 L155.72576093618238 183.86543601907584 Z" transform="rotate(0.0 160.1257609361824 180.0549242424243 ) " />
                  <path fill="#265176" stroke="#265176" stroke-opacity="0.0" stroke-width="0.0" d="M192.80448765785232 176.24441246577277 L192.80448765785232 176.24441246577277 L197.20448765785233 183.86543601907584 L188.40448765785231 183.86543601907584 Z" transform="rotate(0.0 192.80448765785232 180.0549242424243 ) " />
                  <path fill="#214769" stroke="#214769" stroke-opacity="0.0" stroke-width="0.0" d="M192.80448765785232 176.24441246577277 L192.80448765785232 176.24441246577277 L197.20448765785233 183.86543601907584 L188.40448765785231 183.86543601907584 Z" transform="rotate(0.0 192.80448765785232 180.0549242424243 ) " />
                  <path fill="#214769" stroke="#214769" stroke-opacity="0.0" stroke-width="0.0" d="M160.1257609361824 184.98494276880308 L160.1257609361824 184.98494276880308 L164.5257609361824 192.60596632210616 L155.72576093618238 192.60596632210616 Z" transform="rotate(0.0 160.1257609361824 188.79545454545462 ) " />
                  <path fill="#265176" stroke="#265176" stroke-opacity="0.0" stroke-width="0.0" d="M192.80448765785232 176.24441246577277 L192.80448765785232 176.24441246577277 L197.20448765785233 183.86543601907584 L188.40448765785231 183.86543601907584 Z" transform="rotate(0.0 192.80448765785232 180.0549242424243 ) " />
                  <path fill="#244c6f" stroke="#244c6f" stroke-opacity="0.0" stroke-width="0.0" d="M312.6264856373085 193.72547307183336 L312.6264856373085 193.72547307183336 L317.02648563730855 201.34649662513644 L308.22648563730854 201.34649662513644 Z" transform="rotate(0.0 312.6264856373085 197.5359848484849 ) " />
                  <rect fill="#1f4262" stroke="#1f4262" stroke-opacity="0.0" stroke-width="0.0" x="428.04848361676477" y="219.3575757575758" height="8.8" width="8.8" transform="rotate(0.0 432.44848361676475 223.7575757575758 ) " />
                  <rect fill="#18344f" stroke="#18344f" stroke-opacity="0.0" stroke-width="0.0" x="428.04848361676477" y="263.0602272727274" height="8.8" width="8.8" transform="rotate(0.0 432.44848361676475 267.46022727272737 ) " />
                  <rect fill="#1f4262" stroke="#1f4262" stroke-opacity="0.0" stroke-width="0.0" x="428.04848361676477" y="219.3575757575758" height="8.8" width="8.8" transform="rotate(0.0 432.44848361676475 223.7575757575758 ) " />
                  <rect fill="#1c3d5c" stroke="#1c3d5c" stroke-opacity="0.0" stroke-width="0.0" x="471.620119245658" y="245.5791666666667" height="8.8" width="8.8" transform="rotate(0.0 476.02011924565795 249.9791666666667 ) " />
                  <rect fill="#1a3955" stroke="#1a3955" stroke-opacity="0.0" stroke-width="0.0" x="504.2988459673278" y="245.5791666666667" height="8.8" width="8.8" transform="rotate(0.0 508.69884596732777 249.9791666666667 ) " />
                  <rect fill="#244c6f" stroke="#244c6f" stroke-opacity="0.0" stroke-width="0.0" x="471.620119245658" y="166.914393939394" height="8.8" width="8.8" transform="rotate(0.0 476.02011924565795 171.314393939394 ) " />
                  <rect fill="#214769" stroke="#214769" stroke-opacity="0.0" stroke-width="0.0" x="471.620119245658" y="193.1359848484849" height="8.8" width="8.8" transform="rotate(0.0 476.02011924565795 197.5359848484849 ) " />
                  <rect fill="#244c6f" stroke="#244c6f" stroke-opacity="0.0" stroke-width="0.0" x="526.0846637817745" y="166.914393939394" height="8.8" width="8.8" transform="rotate(0.0 530.4846637817744 171.314393939394 ) " />
                  <rect fill="#214769" stroke="#214769" stroke-opacity="0.0" stroke-width="0.0" x="526.0846637817745" y="175.6549242424243" height="8.8" width="8.8" transform="rotate(0.0 530.4846637817744 180.0549242424243 ) " />
                  <rect fill="#214769" stroke="#214769" stroke-opacity="0.0" stroke-width="0.0" x="613.2279350395607" y="184.3954545454546" height="8.8" width="8.8" transform="rotate(0.0 617.6279350395607 188.79545454545462 ) " />
                  <path fill="#1f4262" stroke="#1f4262" stroke-opacity="0.0" stroke-width="0.0" d="M432.44848361676475 228.68759428395458 L432.44848361676475 228.68759428395458 L436.8484836167648 236.30861783725766 L428.04848361676477 236.30861783725766 Z" transform="rotate(0.0 432.44848361676475 232.49810606060612 ) " />
                  <path fill="#18344f" stroke="#18344f" stroke-opacity="0.0" stroke-width="0.0" d="M432.44848361676475 272.39024579910614 L432.44848361676475 272.39024579910614 L436.8484836167648 280.01126935240916 L428.04848361676477 280.01126935240916 Z" transform="rotate(0.0 432.44848361676475 276.2007575757576 ) " />
                  <path fill="#18344f" stroke="#18344f" stroke-opacity="0.0" stroke-width="0.0" d="M476.02011924565795 263.6497154960759 L476.02011924565795 263.6497154960759 L480.420119245658 271.2707390493789 L471.620119245658 271.2707390493789 Z" transform="rotate(0.0 476.02011924565795 267.46022727272737 ) " />
                  <path fill="#1f4262" stroke="#1f4262" stroke-opacity="0.0" stroke-width="0.0" d="M563.1633905034442 246.16865489001518 L563.1633905034442 246.16865489001518 L567.5633905034442 253.78967844331825 L558.7633905034443 253.78967844331825 Z" transform="rotate(0.0 563.1633905034442 249.9791666666667 ) " />
                  <circle fill="#2b5b83" stroke="#2b5b83" stroke-opacity="0.0" stroke-width="0.0" cx="116.55412530728924" cy="162.57386363636368" r="4.4" />
                  <circle fill="#336a98" stroke="#336a98" stroke-opacity="0.0" stroke-width="0.0" cx="116.55412530728924" cy="136.3522727272728" r="4.4" />
                  <circle fill="#29567d" stroke="#29567d" stroke-opacity="0.0" stroke-width="0.0" cx="192.80448765785232" cy="171.314393939394" r="4.4" />
                  <circle fill="#29567d" stroke="#29567d" stroke-opacity="0.0" stroke-width="0.0" cx="236.37612328674547" cy="145.0928030303031" r="4.4" />
                  <circle fill="#265176" stroke="#265176" stroke-opacity="0.0" stroke-width="0.0" cx="247.2690321939688" cy="171.314393939394" r="4.4" />
                  <circle fill="#29567d" stroke="#29567d" stroke-opacity="0.0" stroke-width="0.0" cx="116.55412530728924" cy="188.79545454545462" r="4.4" />
                  <circle fill="#265176" stroke="#265176" stroke-opacity="0.0" stroke-width="0.0" cx="181.911578750629" cy="188.79545454545462" r="4.4" />
                  <circle fill="#244c6f" stroke="#244c6f" stroke-opacity="0.0" stroke-width="0.0" cx="214.59030547229887" cy="206.2765151515152" r="4.4" />
                  <circle fill="#244c6f" stroke="#244c6f" stroke-opacity="0.0" stroke-width="0.0" cx="214.59030547229887" cy="206.2765151515152" r="4.4" />
                  <circle fill="#265176" stroke="#265176" stroke-opacity="0.0" stroke-width="0.0" cx="214.59030547229887" cy="188.79545454545462" r="4.4" />
                  <circle fill="#265176" stroke="#265176" stroke-opacity="0.0" stroke-width="0.0" cx="214.59030547229887" cy="188.79545454545462" r="4.4" />
                  <circle fill="#18344f" stroke="#18344f" stroke-opacity="0.0" stroke-width="0.0" cx="214.59030547229887" cy="249.9791666666667" r="4.4" />
                  <circle fill="#214769" stroke="#214769" stroke-opacity="0.0" stroke-width="0.0" cx="269.0548500084153" cy="206.2765151515152" r="4.4" />
                  <circle fill="#214769" stroke="#214769" stroke-opacity="0.0" stroke-width="0.0" cx="269.0548500084153" cy="215.01704545454552" r="4.4" />
                  <circle fill="#244c6f" stroke="#244c6f" stroke-opacity="0.0" stroke-width="0.0" cx="269.0548500084153" cy="197.5359848484849" r="4.4" />
                  <circle fill="#244c6f" stroke="#244c6f" stroke-opacity="0.0" stroke-width="0.0" cx="290.840667822862" cy="197.5359848484849" r="4.4" />
                  <path fill="#214769" stroke="#214769" stroke-opacity="0.0" stroke-width="0.0" d="M258.16194110119204 228.68759428395458 L258.16194110119204 228.68759428395458 L262.561941101192 236.30861783725766 L253.76194110119204 236.30861783725766 Z" transform="rotate(0.0 258.16194110119204 232.49810606060612 ) " />
                  <path fill="#1f4262" stroke="#1f4262" stroke-opacity="0.0" stroke-width="0.0" d="M258.16194110119204 237.4281245869849 L258.16194110119204 237.4281245869849 L262.561941101192 245.04914814028797 L253.76194110119204 245.04914814028797 Z" transform="rotate(0.0 258.16194110119204 241.23863636363643 ) " />
                  <path fill="#1c3d5c" stroke="#1c3d5c" stroke-opacity="0.0" stroke-width="0.0" d="M279.9477589156386 246.16865489001518 L279.9477589156386 246.16865489001518 L284.3477589156386 253.78967844331825 L275.5477589156386 253.78967844331825 Z" transform="rotate(0.0 279.9477589156386 249.9791666666667 ) " />
                  <path fill="#1f4262" stroke="#1f4262" stroke-opacity="0.0" stroke-width="0.0" d="M279.9477589156386 246.16865489001518 L279.9477589156386 246.16865489001518 L284.3477589156386 253.78967844331825 L275.5477589156386 253.78967844331825 Z" transform="rotate(0.0 279.9477589156386 249.9791666666667 ) " />
                  <path fill="#1f4262" stroke="#1f4262" stroke-opacity="0.0" stroke-width="0.0" d="M367.091030173425 228.68759428395458 L367.091030173425 228.68759428395458 L371.49103017342503 236.30861783725766 L362.691030173425 236.30861783725766 Z" transform="rotate(0.0 367.091030173425 232.49810606060612 ) " />
                  <path fill="#1f4262" stroke="#1f4262" stroke-opacity="0.0" stroke-width="0.0" d="M367.091030173425 228.68759428395458 L367.091030173425 228.68759428395458 L371.49103017342503 236.30861783725766 L362.691030173425 236.30861783725766 Z" transform="rotate(0.0 367.091030173425 232.49810606060612 ) " />
                  <path fill="#132b43" stroke="#132b43" stroke-opacity="0.0" stroke-width="0.0" d="M367.091030173425 289.87130640516676 L367.091030173425 289.87130640516676 L371.49103017342503 297.4923299584698 L362.691030173425 297.4923299584698 Z" transform="rotate(0.0 367.091030173425 293.68181818181824 ) " />
                  <path fill="#18344f" stroke="#18344f" stroke-opacity="0.0" stroke-width="0.0" d="M421.5555747095415 246.16865489001518 L421.5555747095415 246.16865489001518 L425.9555747095415 253.78967844331825 L417.1555747095415 253.78967844331825 Z" transform="rotate(0.0 421.5555747095415 249.9791666666667 ) " />
                  <path fill="#18344f" stroke="#18344f" stroke-opacity="0.0" stroke-width="0.0" d="M421.5555747095415 263.6497154960759 L421.5555747095415 263.6497154960759 L425.9555747095415 271.2707390493789 L417.1555747095415 271.2707390493789 Z" transform="rotate(0.0 421.5555747095415 267.46022727272737 ) " />
                  <path fill="#1c3d5c" stroke="#1c3d5c" stroke-opacity="0.0" stroke-width="0.0" d="M279.9477589156386 246.16865489001518 L279.9477589156386 246.16865489001518 L284.3477589156386 253.78967844331825 L275.5477589156386 253.78967844331825 Z" transform="rotate(0.0 279.9477589156386 249.9791666666667 ) " />
                  <path fill="#1c3d5c" stroke="#1c3d5c" stroke-opacity="0.0" stroke-width="0.0" d="M367.091030173425 246.16865489001518 L367.091030173425 246.16865489001518 L371.49103017342503 253.78967844331825 L362.691030173425 253.78967844331825 Z" transform="rotate(0.0 367.091030173425 249.9791666666667 ) " />
                  <path fill="#132b43" stroke="#132b43" stroke-opacity="0.0" stroke-width="0.0" d="M367.091030173425 289.87130640516676 L367.091030173425 289.87130640516676 L371.49103017342503 297.4923299584698 L362.691030173425 297.4923299584698 Z" transform="rotate(0.0 367.091030173425 293.68181818181824 ) " />
                  <path fill="#1c3d5c" stroke="#1c3d5c" stroke-opacity="0.0" stroke-width="0.0" d="M367.091030173425 246.16865489001518 L367.091030173425 246.16865489001518 L371.49103017342503 253.78967844331825 L362.691030173425 253.78967844331825 Z" transform="rotate(0.0 367.091030173425 249.9791666666667 ) " />
                  <path fill="#18344f" stroke="#18344f" stroke-opacity="0.0" stroke-width="0.0" d="M421.5555747095415 254.90918519304546 L421.5555747095415 254.90918519304546 L425.9555747095415 262.53020874634853 L417.1555747095415 262.53020874634853 Z" transform="rotate(0.0 421.5555747095415 258.719696969697 ) " />
                  <path fill="#1c3d5c" stroke="#1c3d5c" stroke-opacity="0.0" stroke-width="0.0" d="M476.02011924565795 237.4281245869849 L476.02011924565795 237.4281245869849 L480.420119245658 245.04914814028797 L471.620119245658 245.04914814028797 Z" transform="rotate(0.0 476.02011924565795 241.23863636363643 ) " />
                  <path fill="#18344f" stroke="#18344f" stroke-opacity="0.0" stroke-width="0.0" d="M497.8059370601045 263.6497154960759 L497.8059370601045 263.6497154960759 L502.20593706010453 271.2707390493789 L493.4059370601045 271.2707390493789 Z" transform="rotate(0.0 497.8059370601045 267.46022727272737 ) " />
                  <path fill="#1a3955" stroke="#1a3955" stroke-opacity="0.0" stroke-width="0.0" d="M367.091030173425 254.90918519304546 L367.091030173425 254.90918519304546 L371.49103017342503 262.53020874634853 L362.691030173425 262.53020874634853 Z" transform="rotate(0.0 367.091030173425 258.719696969697 ) " />
                  <path fill="#132b43" stroke="#132b43" stroke-opacity="0.0" stroke-width="0.0" d="M367.091030173425 289.87130640516676 L367.091030173425 289.87130640516676 L371.49103017342503 297.4923299584698 L362.691030173425 297.4923299584698 Z" transform="rotate(0.0 367.091030173425 293.68181818181824 ) " />
                  <path fill="#1c3d5c" stroke="#1c3d5c" stroke-opacity="0.0" stroke-width="0.0" d="M367.091030173425 246.16865489001518 L367.091030173425 246.16865489001518 L371.49103017342503 253.78967844331825 L362.691030173425 253.78967844331825 Z" transform="rotate(0.0 367.091030173425 249.9791666666667 ) " />
                  <path fill="#1c3d5c" stroke="#1c3d5c" stroke-opacity="0.0" stroke-width="0.0" d="M367.091030173425 246.16865489001518 L367.091030173425 246.16865489001518 L371.49103017342503 253.78967844331825 L362.691030173425 253.78967844331825 Z" transform="rotate(0.0 367.091030173425 249.9791666666667 ) " />
                  <path fill="#1a3955" stroke="#1a3955" stroke-opacity="0.0" stroke-width="0.0" d="M367.091030173425 254.90918519304546 L367.091030173425 254.90918519304546 L371.49103017342503 262.53020874634853 L362.691030173425 262.53020874634853 Z" transform="rotate(0.0 367.091030173425 258.719696969697 ) " />
                  <path fill="#132b43" stroke="#132b43" stroke-opacity="0.0" stroke-width="0.0" d="M367.091030173425 289.87130640516676 L367.091030173425 289.87130640516676 L371.49103017342503 297.4923299584698 L362.691030173425 297.4923299584698 Z" transform="rotate(0.0 367.091030173425 293.68181818181824 ) " />
                  <path fill="#18344f" stroke="#18344f" stroke-opacity="0.0" stroke-width="0.0" d="M421.5555747095415 263.6497154960759 L421.5555747095415 263.6497154960759 L425.9555747095415 271.2707390493789 L417.1555747095415 271.2707390493789 Z" transform="rotate(0.0 421.5555747095415 267.46022727272737 ) " />
                  <path fill="#18344f" stroke="#18344f" stroke-opacity="0.0" stroke-width="0.0" d="M421.5555747095415 254.90918519304546 L421.5555747095415 254.90918519304546 L425.9555747095415 262.53020874634853 L417.1555747095415 262.53020874634853 Z" transform="rotate(0.0 421.5555747095415 258.719696969697 ) " />
                  <path fill="#1c3d5c" stroke="#1c3d5c" stroke-opacity="0.0" stroke-width="0.0" d="M476.02011924565795 246.16865489001518 L476.02011924565795 246.16865489001518 L480.420119245658 253.78967844331825 L471.620119245658 253.78967844331825 Z" transform="rotate(0.0 476.02011924565795 249.9791666666667 ) " />
                  <path fill="#18344f" stroke="#18344f" stroke-opacity="0.0" stroke-width="0.0" d="M497.8059370601045 263.6497154960759 L497.8059370601045 263.6497154960759 L502.20593706010453 271.2707390493789 L493.4059370601045 271.2707390493789 Z" transform="rotate(0.0 497.8059370601045 267.46022727272737 ) " />
                  <rect fill="#18344f" stroke="#18344f" stroke-opacity="0.0" stroke-width="0.0" x="351.79812126620175" y="245.5791666666667" height="8.8" width="8.8" transform="rotate(0.0 356.1981212662017 249.9791666666667 ) " />
                  <rect fill="#18344f" stroke="#18344f" stroke-opacity="0.0" stroke-width="0.0" x="438.94139252398804" y="245.5791666666667" height="8.8" width="8.8" transform="rotate(0.0 443.341392523988 249.9791666666667 ) " />
                  <rect fill="#1a3955" stroke="#1a3955" stroke-opacity="0.0" stroke-width="0.0" x="438.94139252398804" y="236.83863636363643" height="8.8" width="8.8" transform="rotate(0.0 443.341392523988 241.23863636363643 ) " />
                  <path fill="#1f4262" stroke="#1f4262" stroke-opacity="0.0" stroke-width="0.0" d="M290.840667822862 246.16865489001518 L290.840667822862 246.16865489001518 L295.240667822862 253.78967844331825 L286.440667822862 253.78967844331825 Z" transform="rotate(0.0 290.840667822862 249.9791666666667 ) " />
                  <path fill="#214769" stroke="#214769" stroke-opacity="0.0" stroke-width="0.0" d="M290.840667822862 228.68759428395458 L290.840667822862 228.68759428395458 L295.240667822862 236.30861783725766 L286.440667822862 236.30861783725766 Z" transform="rotate(0.0 290.840667822862 232.49810606060612 ) " />
                  <path fill="#1f4262" stroke="#1f4262" stroke-opacity="0.0" stroke-width="0.0" d="M290.840667822862 246.16865489001518 L290.840667822862 246.16865489001518 L295.240667822862 253.78967844331825 L286.440667822862 253.78967844331825 Z" transform="rotate(0.0 290.840667822862 249.9791666666667 ) " />
                  <path fill="#1c3d5c" stroke="#1c3d5c" stroke-opacity="0.0" stroke-width="0.0" d="M290.840667822862 228.68759428395458 L290.840667822862 228.68759428395458 L295.240667822862 236.30861783725766 L286.440667822862 236.30861783725766 Z" transform="rotate(0.0 290.840667822862 232.49810606060612 ) " />
                  <path fill="#1c3d5c" stroke="#1c3d5c" stroke-opacity="0.0" stroke-width="0.0" d="M356.1981212662017 228.68759428395458 L356.1981212662017 228.68759428395458 L360.59812126620176 236.30861783725766 L351.79812126620175 236.30861783725766 Z" transform="rotate(0.0 356.1981212662017 232.49810606060612 ) " />
                  <path fill="#1c3d5c" stroke="#1c3d5c" stroke-opacity="0.0" stroke-width="0.0" d="M399.7697568950948 246.16865489001518 L399.7697568950948 246.16865489001518 L404.16975689509485 253.78967844331825 L395.36975689509484 253.78967844331825 Z" transform="rotate(0.0 399.7697568950948 249.9791666666667 ) " />
                  <path fill="#1f4262" stroke="#1f4262" stroke-opacity="0.0" stroke-width="0.0" d="M312.6264856373085 246.16865489001518 L312.6264856373085 246.16865489001518 L317.02648563730855 253.78967844331825 L308.22648563730854 253.78967844331825 Z" transform="rotate(0.0 312.6264856373085 249.9791666666667 ) " />
                  <path fill="#1f4262" stroke="#1f4262" stroke-opacity="0.0" stroke-width="0.0" d="M312.6264856373085 246.16865489001518 L312.6264856373085 246.16865489001518 L317.02648563730855 253.78967844331825 L308.22648563730854 253.78967844331825 Z" transform="rotate(0.0 312.6264856373085 249.9791666666667 ) " />
                  <path fill="#1c3d5c" stroke="#1c3d5c" stroke-opacity="0.0" stroke-width="0.0" d="M356.1981212662017 254.90918519304546 L356.1981212662017 254.90918519304546 L360.59812126620176 262.53020874634853 L351.79812126620175 262.53020874634853 Z" transform="rotate(0.0 356.1981212662017 258.719696969697 ) " />
                  <path fill="#1c3d5c" stroke="#1c3d5c" stroke-opacity="0.0" stroke-width="0.0" d="M356.1981212662017 254.90918519304546 L356.1981212662017 254.90918519304546 L360.59812126620176 262.53020874634853 L351.79812126620175 262.53020874634853 Z" transform="rotate(0.0 356.1981212662017 258.719696969697 ) " />
                  <path fill="#1c3d5c" stroke="#1c3d5c" stroke-opacity="0.0" stroke-width="0.0" d="M356.1981212662017 246.16865489001518 L356.1981212662017 246.16865489001518 L360.59812126620176 253.78967844331825 L351.79812126620175 253.78967844331825 Z" transform="rotate(0.0 356.1981212662017 249.9791666666667 ) " />
                  <path fill="#18344f" stroke="#18344f" stroke-opacity="0.0" stroke-width="0.0" d="M443.341392523988 263.6497154960759 L443.341392523988 263.6497154960759 L447.74139252398805 271.2707390493789 L438.94139252398804 271.2707390493789 Z" transform="rotate(0.0 443.341392523988 267.46022727272737 ) " />
                  <path fill="#1c3d5c" stroke="#1c3d5c" stroke-opacity="0.0" stroke-width="0.0" d="M443.341392523988 246.16865489001518 L443.341392523988 246.16865489001518 L447.74139252398805 253.78967844331825 L438.94139252398804 253.78967844331825 Z" transform="rotate(0.0 443.341392523988 249.9791666666667 ) " />
                  <rect fill="#29567d" stroke="#29567d" stroke-opacity="0.0" stroke-width="0.0" x="264.65485000841534" y="166.914393939394" height="8.8" width="8.8" transform="rotate(0.0 269.0548500084153 171.314393939394 ) " />
                  <rect fill="#29567d" stroke="#29567d" stroke-opacity="0.0" stroke-width="0.0" x="264.65485000841534" y="175.6549242424243" height="8.8" width="8.8" transform="rotate(0.0 269.0548500084153 180.0549242424243 ) " />
                  <rect fill="#265176" stroke="#265176" stroke-opacity="0.0" stroke-width="0.0" x="286.440667822862" y="166.914393939394" height="8.8" width="8.8" transform="rotate(0.0 290.840667822862 171.314393939394 ) " />
                  <rect fill="#244c6f" stroke="#244c6f" stroke-opacity="0.0" stroke-width="0.0" x="286.440667822862" y="184.3954545454546" height="8.8" width="8.8" transform="rotate(0.0 290.840667822862 188.79545454545462 ) " />
                  <rect fill="#214769" stroke="#214769" stroke-opacity="0.0" stroke-width="0.0" x="351.79812126620175" y="210.61704545454552" height="8.8" width="8.8" transform="rotate(0.0 356.1981212662017 215.01704545454552 ) " />
                  <rect fill="#214769" stroke="#214769" stroke-opacity="0.0" stroke-width="0.0" x="351.79812126620175" y="201.8765151515152" height="8.8" width="8.8" transform="rotate(0.0 356.1981212662017 206.2765151515152 ) " />
                  <rect fill="#214769" stroke="#214769" stroke-opacity="0.0" stroke-width="0.0" x="351.79812126620175" y="193.1359848484849" height="8.8" width="8.8" transform="rotate(0.0 356.1981212662017 197.5359848484849 ) " />
                  <rect fill="#214769" stroke="#214769" stroke-opacity="0.0" stroke-width="0.0" x="351.79812126620175" y="201.8765151515152" height="8.8" width="8.8" transform="rotate(0.0 356.1981212662017 206.2765151515152 ) " />
                  <rect fill="#1f4262" stroke="#1f4262" stroke-opacity="0.0" stroke-width="0.0" x="438.94139252398804" y="219.3575757575758" height="8.8" width="8.8" transform="rotate(0.0 443.341392523988 223.7575757575758 ) " />
                  <circle fill="#438ac3" stroke="#438ac3" stroke-opacity="0.0" stroke-width="0.0" cx="29.410854049502888" cy="110.13068181818187" r="4.4" />
                  <circle fill="#3875a6" stroke="#3875a6" stroke-opacity="0.0" stroke-width="0.0" cx="29.410854049502888" cy="118.87121212121218" r="4.4" />
                  <circle fill="#3b7aad" stroke="#3b7aad" stroke-opacity="0.0" stroke-width="0.0" cx="29.410854049502888" cy="118.87121212121218" r="4.4" />
                  <circle fill="#356f9f" stroke="#356f9f" stroke-opacity="0.0" stroke-width="0.0" cx="29.410854049502888" cy="145.0928030303031" r="4.4" />
                  <circle fill="#3875a6" stroke="#3875a6" stroke-opacity="0.0" stroke-width="0.0" cx="29.410854049502888" cy="118.87121212121218" r="4.4" />
                  <circle fill="#3d7fb4" stroke="#3d7fb4" stroke-opacity="0.0" stroke-width="0.0" cx="51.19667186394949" cy="101.39015151515156" r="4.4" />
                  <circle fill="#3b7aad" stroke="#3b7aad" stroke-opacity="0.0" stroke-width="0.0" cx="51.19667186394949" cy="83.90909090909099" r="4.4" />
                  <circle fill="#3875a6" stroke="#3875a6" stroke-opacity="0.0" stroke-width="0.0" cx="51.19667186394949" cy="83.90909090909099" r="4.4" />
                  <circle fill="#306591" stroke="#306591" stroke-opacity="0.0" stroke-width="0.0" cx="72.98248967839606" cy="145.0928030303031" r="4.4" />
                  <circle fill="#29567d" stroke="#29567d" stroke-opacity="0.0" stroke-width="0.0" cx="116.55412530728924" cy="171.314393939394" r="4.4" />
                  <circle fill="#29567d" stroke="#29567d" stroke-opacity="0.0" stroke-width="0.0" cx="116.55412530728924" cy="162.57386363636368" r="4.4" />
                  <circle fill="#306591" stroke="#306591" stroke-opacity="0.0" stroke-width="0.0" cx="116.55412530728924" cy="136.3522727272728" r="4.4" />
                  <circle fill="#306591" stroke="#306591" stroke-opacity="0.0" stroke-width="0.0" cx="116.55412530728924" cy="127.6117424242425" r="4.4" />
                  <circle fill="#29567d" stroke="#29567d" stroke-opacity="0.0" stroke-width="0.0" cx="127.44703421451251" cy="171.314393939394" r="4.4" />
                  <circle fill="#29567d" stroke="#29567d" stroke-opacity="0.0" stroke-width="0.0" cx="127.44703421451251" cy="171.314393939394" r="4.4" />
                  <circle fill="#2b5b83" stroke="#2b5b83" stroke-opacity="0.0" stroke-width="0.0" cx="214.59030547229887" cy="153.8333333333334" r="4.4" />
                  <circle fill="#2b5b83" stroke="#2b5b83" stroke-opacity="0.0" stroke-width="0.0" cx="72.98248967839606" cy="171.314393939394" r="4.4" />
                  <circle fill="#2b5b83" stroke="#2b5b83" stroke-opacity="0.0" stroke-width="0.0" cx="72.98248967839606" cy="145.0928030303031" r="4.4" />
                  <circle fill="#2e608a" stroke="#2e608a" stroke-opacity="0.0" stroke-width="0.0" cx="72.98248967839606" cy="153.8333333333334" r="4.4" />
                  <circle fill="#2e608a" stroke="#2e608a" stroke-opacity="0.0" stroke-width="0.0" cx="72.98248967839606" cy="162.57386363636368" r="4.4" />
                  <circle fill="#265176" stroke="#265176" stroke-opacity="0.0" stroke-width="0.0" cx="149.23285202895912" cy="188.79545454545462" r="4.4" />
                  <circle fill="#244c6f" stroke="#244c6f" stroke-opacity="0.0" stroke-width="0.0" cx="149.23285202895912" cy="188.79545454545462" r="4.4" />
                  <circle fill="#265176" stroke="#265176" stroke-opacity="0.0" stroke-width="0.0" cx="149.23285202895912" cy="188.79545454545462" r="4.4" />
                  <path fill="#265176" stroke="#265176" stroke-opacity="0.0" stroke-width="0.0" d="M181.911578750629 202.46600337486367 L181.911578750629 202.46600337486367 L186.311578750629 210.08702692816675 L177.51157875062898 210.08702692816675 Z" transform="rotate(0.0 181.911578750629 206.2765151515152 ) " />
                  <path fill="#214769" stroke="#214769" stroke-opacity="0.0" stroke-width="0.0" d="M258.16194110119204 228.68759428395458 L258.16194110119204 228.68759428395458 L262.561941101192 236.30861783725766 L253.76194110119204 236.30861783725766 Z" transform="rotate(0.0 258.16194110119204 232.49810606060612 ) " />
                  <path fill="#214769" stroke="#214769" stroke-opacity="0.0" stroke-width="0.0" d="M290.840667822862 219.94706398092427 L290.840667822862 219.94706398092427 L295.240667822862 227.56808753422735 L286.440667822862 227.56808753422735 Z" transform="rotate(0.0 290.840667822862 223.7575757575758 ) " />
                  <path fill="#1f4262" stroke="#1f4262" stroke-opacity="0.0" stroke-width="0.0" d="M367.091030173425 246.16865489001518 L367.091030173425 246.16865489001518 L371.49103017342503 253.78967844331825 L362.691030173425 253.78967844331825 Z" transform="rotate(0.0 367.091030173425 249.9791666666667 ) " />
                  <path fill="#132b43" stroke="#132b43" stroke-opacity="0.0" stroke-width="0.0" d="M367.091030173425 289.87130640516676 L367.091030173425 289.87130640516676 L371.49103017342503 297.4923299584698 L362.691030173425 297.4923299584698 Z" transform="rotate(0.0 367.091030173425 293.68181818181824 ) " />
                  <path fill="#1f4262" stroke="#1f4262" stroke-opacity="0.0" stroke-width="0.0" d="M367.091030173425 228.68759428395458 L367.091030173425 228.68759428395458 L371.49103017342503 236.30861783725766 L362.691030173425 236.30861783725766 Z" transform="rotate(0.0 367.091030173425 232.49810606060612 ) " />
                  <path fill="#1c3d5c" stroke="#1c3d5c" stroke-opacity="0.0" stroke-width="0.0" d="M476.02011924565795 237.4281245869849 L476.02011924565795 237.4281245869849 L480.420119245658 245.04914814028797 L471.620119245658 245.04914814028797 Z" transform="rotate(0.0 476.02011924565795 241.23863636363643 ) " />
                  <path fill="#18344f" stroke="#18344f" stroke-opacity="0.0" stroke-width="0.0" d="M519.591754874551 272.39024579910614 L519.591754874551 272.39024579910614 L523.991754874551 280.01126935240916 L515.1917548745511 280.01126935240916 Z" transform="rotate(0.0 519.591754874551 276.2007575757576 ) " />
                  <path fill="#18344f" stroke="#18344f" stroke-opacity="0.0" stroke-width="0.0" d="M290.840667822862 263.6497154960759 L290.840667822862 263.6497154960759 L295.240667822862 271.2707390493789 L286.440667822862 271.2707390493789 Z" transform="rotate(0.0 290.840667822862 267.46022727272737 ) " />
                  <path fill="#1a3955" stroke="#1a3955" stroke-opacity="0.0" stroke-width="0.0" d="M312.6264856373085 237.4281245869849 L312.6264856373085 237.4281245869849 L317.02648563730855 245.04914814028797 L308.22648563730854 245.04914814028797 Z" transform="rotate(0.0 312.6264856373085 241.23863636363643 ) " />
                  <path fill="#1a3955" stroke="#1a3955" stroke-opacity="0.0" stroke-width="0.0" d="M334.4123034517552 237.4281245869849 L334.4123034517552 237.4281245869849 L338.8123034517552 245.04914814028797 L330.0123034517552 245.04914814028797 Z" transform="rotate(0.0 334.4123034517552 241.23863636363643 ) " />
                  <path fill="#18344f" stroke="#18344f" stroke-opacity="0.0" stroke-width="0.0" d="M356.1981212662017 263.6497154960759 L356.1981212662017 263.6497154960759 L360.59812126620176 271.2707390493789 L351.79812126620175 271.2707390493789 Z" transform="rotate(0.0 356.1981212662017 267.46022727272737 ) " />
                  <rect fill="#18344f" stroke="#18344f" stroke-opacity="0.0" stroke-width="0.0" x="438.94139252398804" y="245.5791666666667" height="8.8" width="8.8" transform="rotate(0.0 443.341392523988 249.9791666666667 ) " />
                  <rect fill="#18344f" stroke="#18344f" stroke-opacity="0.0" stroke-width="0.0" x="438.94139252398804" y="254.319696969697" height="8.8" width="8.8" transform="rotate(0.0 443.341392523988 258.719696969697 ) " />
                  <rect fill="#1a3955" stroke="#1a3955" stroke-opacity="0.0" stroke-width="0.0" x="438.94139252398804" y="236.83863636363643" height="8.8" width="8.8" transform="rotate(0.0 443.341392523988 241.23863636363643 ) " />
                  <path fill="#1f4262" stroke="#1f4262" stroke-opacity="0.0" stroke-width="0.0" d="M290.840667822862 246.16865489001518 L290.840667822862 246.16865489001518 L295.240667822862 253.78967844331825 L286.440667822862 253.78967844331825 Z" transform="rotate(0.0 290.840667822862 249.9791666666667 ) " />
                  <path fill="#1c3d5c" stroke="#1c3d5c" stroke-opacity="0.0" stroke-width="0.0" d="M290.840667822862 228.68759428395458 L290.840667822862 228.68759428395458 L295.240667822862 236.30861783725766 L286.440667822862 236.30861783725766 Z" transform="rotate(0.0 290.840667822862 232.49810606060612 ) " />
                  <path fill="#1c3d5c" stroke="#1c3d5c" stroke-opacity="0.0" stroke-width="0.0" d="M356.1981212662017 228.68759428395458 L356.1981212662017 228.68759428395458 L360.59812126620176 236.30861783725766 L351.79812126620175 236.30861783725766 Z" transform="rotate(0.0 356.1981212662017 232.49810606060612 ) " />
                  <path fill="#1c3d5c" stroke="#1c3d5c" stroke-opacity="0.0" stroke-width="0.0" d="M399.7697568950948 246.16865489001518 L399.7697568950948 246.16865489001518 L404.16975689509485 253.78967844331825 L395.36975689509484 253.78967844331825 Z" transform="rotate(0.0 399.7697568950948 249.9791666666667 ) " />
                  <circle fill="#306591" stroke="#306591" stroke-opacity="0.0" stroke-width="0.0" cx="116.55412530728924" cy="145.0928030303031" r="4.4" />
                  <circle fill="#2b5b83" stroke="#2b5b83" stroke-opacity="0.0" stroke-width="0.0" cx="116.55412530728924" cy="162.57386363636368" r="4.4" />
                  <circle fill="#356f9f" stroke="#356f9f" stroke-opacity="0.0" stroke-width="0.0" cx="127.44703421451251" cy="127.6117424242425" r="4.4" />
                  <circle fill="#356f9f" stroke="#356f9f" stroke-opacity="0.0" stroke-width="0.0" cx="127.44703421451251" cy="118.87121212121218" r="4.4" />
                  <circle fill="#2b5b83" stroke="#2b5b83" stroke-opacity="0.0" stroke-width="0.0" cx="236.37612328674547" cy="162.57386363636368" r="4.4" />
                  <circle fill="#2b5b83" stroke="#2b5b83" stroke-opacity="0.0" stroke-width="0.0" cx="236.37612328674547" cy="171.314393939394" r="4.4" />
                  <circle fill="#29567d" stroke="#29567d" stroke-opacity="0.0" stroke-width="0.0" cx="181.911578750629" cy="171.314393939394" r="4.4" />
                  <circle fill="#2b5b83" stroke="#2b5b83" stroke-opacity="0.0" stroke-width="0.0" cx="181.911578750629" cy="180.0549242424243" r="4.4" />
                  <circle fill="#2b5b83" stroke="#2b5b83" stroke-opacity="0.0" stroke-width="0.0" cx="236.37612328674547" cy="180.0549242424243" r="4.4" />
                  <path fill="#1f4262" stroke="#1f4262" stroke-opacity="0.0" stroke-width="0.0" d="M214.59030547229887 246.16865489001518 L214.59030547229887 246.16865489001518 L218.99030547229887 253.78967844331825 L210.19030547229886 253.78967844331825 Z" transform="rotate(0.0 214.59030547229887 249.9791666666667 ) " />
                  <path fill="#214769" stroke="#214769" stroke-opacity="0.0" stroke-width="0.0" d="M214.59030547229887 246.16865489001518 L214.59030547229887 246.16865489001518 L218.99030547229887 253.78967844331825 L210.19030547229886 253.78967844331825 Z" transform="rotate(0.0 214.59030547229887 249.9791666666667 ) " />
                  <path fill="#1f4262" stroke="#1f4262" stroke-opacity="0.0" stroke-width="0.0" d="M290.840667822862 219.94706398092427 L290.840667822862 219.94706398092427 L295.240667822862 227.56808753422735 L286.440667822862 227.56808753422735 Z" transform="rotate(0.0 290.840667822862 223.7575757575758 ) " />
                  <path fill="#1a3955" stroke="#1a3955" stroke-opacity="0.0" stroke-width="0.0" d="M465.12721033843457 237.4281245869849 L465.12721033843457 237.4281245869849 L469.5272103384346 245.04914814028797 L460.7272103384346 245.04914814028797 Z" transform="rotate(0.0 465.12721033843457 241.23863636363643 ) " />
                  <circle fill="#29567d" stroke="#29567d" stroke-opacity="0.0" stroke-width="0.0" cx="192.80448765785232" cy="171.314393939394" r="4.4" />
                  <circle fill="#244c6f" stroke="#244c6f" stroke-opacity="0.0" stroke-width="0.0" cx="269.0548500084153" cy="171.314393939394" r="4.4" />
                  <circle fill="#265176" stroke="#265176" stroke-opacity="0.0" stroke-width="0.0" cx="269.0548500084153" cy="162.57386363636368" r="4.4" />
                  <circle fill="#29567d" stroke="#29567d" stroke-opacity="0.0" stroke-width="0.0" cx="269.0548500084153" cy="153.8333333333334" r="4.4" />
                  <circle fill="#244c6f" stroke="#244c6f" stroke-opacity="0.0" stroke-width="0.0" cx="432.44848361676475" cy="180.0549242424243" r="4.4" />
                  <path fill="#29567d" stroke="#29567d" stroke-opacity="0.0" stroke-width="0.0" d="M127.44703421451251 176.24441246577277 L127.44703421451251 176.24441246577277 L131.84703421451252 183.86543601907584 L123.04703421451251 183.86543601907584 Z" transform="rotate(0.0 127.44703421451251 180.0549242424243 ) " />
                  <path fill="#29567d" stroke="#29567d" stroke-opacity="0.0" stroke-width="0.0" d="M127.44703421451251 184.98494276880308 L127.44703421451251 184.98494276880308 L131.84703421451252 192.60596632210616 L123.04703421451251 192.60596632210616 Z" transform="rotate(0.0 127.44703421451251 188.79545454545462 ) " />
                  <path fill="#2e608a" stroke="#2e608a" stroke-opacity="0.0" stroke-width="0.0" d="M127.44703421451251 158.76335185971215 L127.44703421451251 158.76335185971215 L131.84703421451252 166.38437541301522 L123.04703421451251 166.38437541301522 Z" transform="rotate(0.0 127.44703421451251 162.57386363636368 ) " />
                  <path fill="#2b5b83" stroke="#2b5b83" stroke-opacity="0.0" stroke-width="0.0" d="M127.44703421451251 176.24441246577277 L127.44703421451251 176.24441246577277 L131.84703421451252 183.86543601907584 L123.04703421451251 183.86543601907584 Z" transform="rotate(0.0 127.44703421451251 180.0549242424243 ) " />
                  <path fill="#2e608a" stroke="#2e608a" stroke-opacity="0.0" stroke-width="0.0" d="M127.44703421451251 167.50388216274246 L127.44703421451251 167.50388216274246 L131.84703421451252 175.12490571604553 L123.04703421451251 175.12490571604553 Z" transform="rotate(0.0 127.44703421451251 171.314393939394 ) " />
                  <path fill="#29567d" stroke="#29567d" stroke-opacity="0.0" stroke-width="0.0" d="M127.44703421451251 193.72547307183336 L127.44703421451251 193.72547307183336 L131.84703421451252 201.34649662513644 L123.04703421451251 201.34649662513644 Z" transform="rotate(0.0 127.44703421451251 197.5359848484849 ) " />
                  <path fill="#306591" stroke="#306591" stroke-opacity="0.0" stroke-width="0.0" d="M94.76830749284267 167.50388216274246 L94.76830749284267 167.50388216274246 L99.16830749284266 175.12490571604553 L90.36830749284266 175.12490571604553 Z" transform="rotate(0.0 94.76830749284267 171.314393939394 ) " />
                  <path fill="#2b5b83" stroke="#2b5b83" stroke-opacity="0.0" stroke-width="0.0" d="M94.76830749284267 167.50388216274246 L94.76830749284267 167.50388216274246 L99.16830749284266 175.12490571604553 L90.36830749284266 175.12490571604553 Z" transform="rotate(0.0 94.76830749284267 171.314393939394 ) " />
                  <path fill="#2b5b83" stroke="#2b5b83" stroke-opacity="0.0" stroke-width="0.0" d="M127.44703421451251 167.50388216274246 L127.44703421451251 167.50388216274246 L131.84703421451252 175.12490571604553 L123.04703421451251 175.12490571604553 Z" transform="rotate(0.0 127.44703421451251 171.314393939394 ) " />
                  <path fill="#2b5b83" stroke="#2b5b83" stroke-opacity="0.0" stroke-width="0.0" d="M127.44703421451251 167.50388216274246 L127.44703421451251 167.50388216274246 L131.84703421451252 175.12490571604553 L123.04703421451251 175.12490571604553 Z" transform="rotate(0.0 127.44703421451251 171.314393939394 ) " />
                  <path fill="#2e608a" stroke="#2e608a" stroke-opacity="0.0" stroke-width="0.0" d="M127.44703421451251 176.24441246577277 L127.44703421451251 176.24441246577277 L131.84703421451252 183.86543601907584 L123.04703421451251 183.86543601907584 Z" transform="rotate(0.0 127.44703421451251 180.0549242424243 ) " />
                  <path fill="#2e608a" stroke="#2e608a" stroke-opacity="0.0" stroke-width="0.0" d="M127.44703421451251 158.76335185971215 L127.44703421451251 158.76335185971215 L131.84703421451252 166.38437541301522 L123.04703421451251 166.38437541301522 Z" transform="rotate(0.0 127.44703421451251 162.57386363636368 ) " />
                  <path fill="#2b5b83" stroke="#2b5b83" stroke-opacity="0.0" stroke-width="0.0" d="M127.44703421451251 176.24441246577277 L127.44703421451251 176.24441246577277 L131.84703421451252 183.86543601907584 L123.04703421451251 183.86543601907584 Z" transform="rotate(0.0 127.44703421451251 180.0549242424243 ) " />
                  <path fill="#2e608a" stroke="#2e608a" stroke-opacity="0.0" stroke-width="0.0" d="M127.44703421451251 158.76335185971215 L127.44703421451251 158.76335185971215 L131.84703421451252 166.38437541301522 L123.04703421451251 166.38437541301522 Z" transform="rotate(0.0 127.44703421451251 162.57386363636368 ) " />
                  <path fill="#214769" stroke="#214769" stroke-opacity="0.0" stroke-width="0.0" d="M149.23285202895912 219.94706398092427 L149.23285202895912 219.94706398092427 L153.63285202895912 227.56808753422735 L144.8328520289591 227.56808753422735 Z" transform="rotate(0.0 149.23285202895912 223.7575757575758 ) " />
                  <path fill="#244c6f" stroke="#244c6f" stroke-opacity="0.0" stroke-width="0.0" d="M149.23285202895912 219.94706398092427 L149.23285202895912 219.94706398092427 L153.63285202895912 227.56808753422735 L144.8328520289591 227.56808753422735 Z" transform="rotate(0.0 149.23285202895912 223.7575757575758 ) " />
                  <path fill="#214769" stroke="#214769" stroke-opacity="0.0" stroke-width="0.0" d="M225.4832143795222 228.68759428395458 L225.4832143795222 228.68759428395458 L229.8832143795222 236.30861783725766 L221.0832143795222 236.30861783725766 Z" transform="rotate(0.0 225.4832143795222 232.49810606060612 ) " />
                  <path fill="#214769" stroke="#214769" stroke-opacity="0.0" stroke-width="0.0" d="M225.4832143795222 246.16865489001518 L225.4832143795222 246.16865489001518 L229.8832143795222 253.78967844331825 L221.0832143795222 253.78967844331825 Z" transform="rotate(0.0 225.4832143795222 249.9791666666667 ) " />
                  <path fill="#244c6f" stroke="#244c6f" stroke-opacity="0.0" stroke-width="0.0" d="M290.840667822862 219.94706398092427 L290.840667822862 219.94706398092427 L295.240667822862 227.56808753422735 L286.440667822862 227.56808753422735 Z" transform="rotate(0.0 290.840667822862 223.7575757575758 ) " />
                  <path fill="#1f4262" stroke="#1f4262" stroke-opacity="0.0" stroke-width="0.0" d="M367.091030173425 246.16865489001518 L367.091030173425 246.16865489001518 L371.49103017342503 253.78967844331825 L362.691030173425 253.78967844331825 Z" transform="rotate(0.0 367.091030173425 249.9791666666667 ) " />
                  <circle fill="#306591" stroke="#306591" stroke-opacity="0.0" stroke-width="0.0" cx="94.76830749284267" cy="145.0928030303031" r="4.4" />
                  <circle fill="#306591" stroke="#306591" stroke-opacity="0.0" stroke-width="0.0" cx="94.76830749284267" cy="162.57386363636368" r="4.4" />
                  <circle fill="#306591" stroke="#306591" stroke-opacity="0.0" stroke-width="0.0" cx="116.55412530728924" cy="127.6117424242425" r="4.4" />
                  <circle fill="#306591" stroke="#306591" stroke-opacity="0.0" stroke-width="0.0" cx="116.55412530728924" cy="127.6117424242425" r="4.4" />
                  <circle fill="#29567d" stroke="#29567d" stroke-opacity="0.0" stroke-width="0.0" cx="181.911578750629" cy="171.314393939394" r="4.4" />
                  <circle fill="#29567d" stroke="#29567d" stroke-opacity="0.0" stroke-width="0.0" cx="181.911578750629" cy="171.314393939394" r="4.4" />
                  <circle fill="#2b5b83" stroke="#2b5b83" stroke-opacity="0.0" stroke-width="0.0" cx="236.37612328674547" cy="153.8333333333334" r="4.4" />
                  <circle fill="#306591" stroke="#306591" stroke-opacity="0.0" stroke-width="0.0" cx="94.76830749284267" cy="162.57386363636368" r="4.4" />
                  <circle fill="#306591" stroke="#306591" stroke-opacity="0.0" stroke-width="0.0" cx="94.76830749284267" cy="145.0928030303031" r="4.4" />
                  <circle fill="#306591" stroke="#306591" stroke-opacity="0.0" stroke-width="0.0" cx="116.55412530728924" cy="127.6117424242425" r="4.4" />
                  <circle fill="#336a98" stroke="#336a98" stroke-opacity="0.0" stroke-width="0.0" cx="116.55412530728924" cy="127.6117424242425" r="4.4" />
                  <circle fill="#29567d" stroke="#29567d" stroke-opacity="0.0" stroke-width="0.0" cx="181.911578750629" cy="171.314393939394" r="4.4" />
                  <circle fill="#29567d" stroke="#29567d" stroke-opacity="0.0" stroke-width="0.0" cx="181.911578750629" cy="171.314393939394" r="4.4" />
                  <circle fill="#29567d" stroke="#29567d" stroke-opacity="0.0" stroke-width="0.0" cx="214.59030547229887" cy="162.57386363636368" r="4.4" />
                  <circle fill="#3875a6" stroke="#3875a6" stroke-opacity="0.0" stroke-width="0.0" cx="51.19667186394949" cy="136.3522727272728" r="4.4" />
                  <circle fill="#3875a6" stroke="#3875a6" stroke-opacity="0.0" stroke-width="0.0" cx="51.19667186394949" cy="110.13068181818187" r="4.4" />
                  <circle fill="#3d7fb4" stroke="#3d7fb4" stroke-opacity="0.0" stroke-width="0.0" cx="51.19667186394949" cy="92.64962121212125" r="4.4" />
                  <circle fill="#438ac3" stroke="#438ac3" stroke-opacity="0.0" stroke-width="0.0" cx="51.19667186394949" cy="75.16856060606068" r="4.4" />
                  <circle fill="#3d7fb4" stroke="#3d7fb4" stroke-opacity="0.0" stroke-width="0.0" cx="51.19667186394949" cy="92.64962121212125" r="4.4" />
                  <path fill="#18344f" stroke="#18344f" stroke-opacity="0.0" stroke-width="0.0" d="M367.091030173425 263.6497154960759 L367.091030173425 263.6497154960759 L371.49103017342503 271.2707390493789 L362.691030173425 271.2707390493789 Z" transform="rotate(0.0 367.091030173425 267.46022727272737 ) " />
                  <path fill="#1c3d5c" stroke="#1c3d5c" stroke-opacity="0.0" stroke-width="0.0" d="M476.02011924565795 237.4281245869849 L476.02011924565795 237.4281245869849 L480.420119245658 245.04914814028797 L471.620119245658 245.04914814028797 Z" transform="rotate(0.0 476.02011924565795 241.23863636363643 ) " />
                  <path fill="#214769" stroke="#214769" stroke-opacity="0.0" stroke-width="0.0" d="M149.23285202895912 219.94706398092427 L149.23285202895912 219.94706398092427 L153.63285202895912 227.56808753422735 L144.8328520289591 227.56808753422735 Z" transform="rotate(0.0 149.23285202895912 223.7575757575758 ) " />
                  <path fill="#244c6f" stroke="#244c6f" stroke-opacity="0.0" stroke-width="0.0" d="M149.23285202895912 219.94706398092427 L149.23285202895912 219.94706398092427 L153.63285202895912 227.56808753422735 L144.8328520289591 227.56808753422735 Z" transform="rotate(0.0 149.23285202895912 223.7575757575758 ) " />
                  <path fill="#265176" stroke="#265176" stroke-opacity="0.0" stroke-width="0.0" d="M149.23285202895912 202.46600337486367 L149.23285202895912 202.46600337486367 L153.63285202895912 210.08702692816675 L144.8328520289591 210.08702692816675 Z" transform="rotate(0.0 149.23285202895912 206.2765151515152 ) " />
                  <path fill="#214769" stroke="#214769" stroke-opacity="0.0" stroke-width="0.0" d="M225.4832143795222 246.16865489001518 L225.4832143795222 246.16865489001518 L229.8832143795222 253.78967844331825 L221.0832143795222 253.78967844331825 Z" transform="rotate(0.0 225.4832143795222 249.9791666666667 ) " />
                  <path fill="#214769" stroke="#214769" stroke-opacity="0.0" stroke-width="0.0" d="M225.4832143795222 228.68759428395458 L225.4832143795222 228.68759428395458 L229.8832143795222 236.30861783725766 L221.0832143795222 236.30861783725766 Z" transform="rotate(0.0 225.4832143795222 232.49810606060612 ) " />
                  <path fill="#214769" stroke="#214769" stroke-opacity="0.0" stroke-width="0.0" d="M290.840667822862 237.4281245869849 L290.840667822862 237.4281245869849 L295.240667822862 245.04914814028797 L286.440667822862 245.04914814028797 Z" transform="rotate(0.0 290.840667822862 241.23863636363643 ) " />
                  <path fill="#244c6f" stroke="#244c6f" stroke-opacity="0.0" stroke-width="0.0" d="M290.840667822862 219.94706398092427 L290.840667822862 219.94706398092427 L295.240667822862 227.56808753422735 L286.440667822862 227.56808753422735 Z" transform="rotate(0.0 290.840667822862 223.7575757575758 ) " />
                  <circle fill="#306591" stroke="#306591" stroke-opacity="0.0" stroke-width="0.0" cx="72.98248967839606" cy="145.0928030303031" r="4.4" />
                  <circle fill="#2b5b83" stroke="#2b5b83" stroke-opacity="0.0" stroke-width="0.0" cx="72.98248967839606" cy="171.314393939394" r="4.4" />
                  <circle fill="#306591" stroke="#306591" stroke-opacity="0.0" stroke-width="0.0" cx="72.98248967839606" cy="145.0928030303031" r="4.4" />
                  <circle fill="#336a98" stroke="#336a98" stroke-opacity="0.0" stroke-width="0.0" cx="72.98248967839606" cy="145.0928030303031" r="4.4" />
                  <circle fill="#265176" stroke="#265176" stroke-opacity="0.0" stroke-width="0.0" cx="160.1257609361824" cy="188.79545454545462" r="4.4" />
                  <circle fill="#50a6e8" stroke="#50a6e8" stroke-opacity="0.0" stroke-width="0.0" cx="62.08958077117276" cy="13.984848484848555" r="4.4" />
                  <circle fill="#306591" stroke="#306591" stroke-opacity="0.0" stroke-width="0.0" cx="72.98248967839606" cy="145.0928030303031" r="4.4" />
                  <circle fill="#2b5b83" stroke="#2b5b83" stroke-opacity="0.0" stroke-width="0.0" cx="72.98248967839606" cy="171.314393939394" r="4.4" />
                  <circle fill="#336a98" stroke="#336a98" stroke-opacity="0.0" stroke-width="0.0" cx="72.98248967839606" cy="145.0928030303031" r="4.4" />
                  <circle fill="#306591" stroke="#306591" stroke-opacity="0.0" stroke-width="0.0" cx="72.98248967839606" cy="145.0928030303031" r="4.4" />
                  <circle fill="#306591" stroke="#306591" stroke-opacity="0.0" stroke-width="0.0" cx="127.44703421451251" cy="145.0928030303031" r="4.4" />
                  <circle fill="#306591" stroke="#306591" stroke-opacity="0.0" stroke-width="0.0" cx="127.44703421451251" cy="145.0928030303031" r="4.4" />
                  <circle fill="#244c6f" stroke="#244c6f" stroke-opacity="0.0" stroke-width="0.0" cx="160.1257609361824" cy="197.5359848484849" r="4.4" />
                  <circle fill="#265176" stroke="#265176" stroke-opacity="0.0" stroke-width="0.0" cx="160.1257609361824" cy="188.79545454545462" r="4.4" />
                  <circle fill="#56b1f7" stroke="#56b1f7" stroke-opacity="0.0" stroke-width="0.0" cx="62.08958077117276" cy="13.984848484848555" r="4.4" />
                  <circle fill="#458fca" stroke="#458fca" stroke-opacity="0.0" stroke-width="0.0" cx="62.08958077117276" cy="40.206439393939434" r="4.4" />
                  <circle fill="#306591" stroke="#306591" stroke-opacity="0.0" stroke-width="0.0" cx="72.98248967839606" cy="145.0928030303031" r="4.4" />
                  <circle fill="#2b5b83" stroke="#2b5b83" stroke-opacity="0.0" stroke-width="0.0" cx="72.98248967839606" cy="171.314393939394" r="4.4" />
                  <circle fill="#2e608a" stroke="#2e608a" stroke-opacity="0.0" stroke-width="0.0" cx="127.44703421451251" cy="153.8333333333334" r="4.4" />
                  <circle fill="#2e608a" stroke="#2e608a" stroke-opacity="0.0" stroke-width="0.0" cx="127.44703421451251" cy="145.0928030303031" r="4.4" />
                  <circle fill="#306591" stroke="#306591" stroke-opacity="0.0" stroke-width="0.0" cx="51.19667186394949" cy="145.0928030303031" r="4.4" />
                  <circle fill="#29567d" stroke="#29567d" stroke-opacity="0.0" stroke-width="0.0" cx="51.19667186394949" cy="145.0928030303031" r="4.4" />
                  <circle fill="#2b5b83" stroke="#2b5b83" stroke-opacity="0.0" stroke-width="0.0" cx="72.98248967839606" cy="153.8333333333334" r="4.4" />
                  <circle fill="#306591" stroke="#306591" stroke-opacity="0.0" stroke-width="0.0" cx="72.98248967839606" cy="145.0928030303031" r="4.4" />
                  <circle fill="#244c6f" stroke="#244c6f" stroke-opacity="0.0" stroke-width="0.0" cx="160.1257609361824" cy="171.314393939394" r="4.4" />
                  <circle fill="#29567d" stroke="#29567d" stroke-opacity="0.0" stroke-width="0.0" cx="160.1257609361824" cy="171.314393939394" r="4.4" />
                  <circle fill="#265176" stroke="#265176" stroke-opacity="0.0" stroke-width="0.0" cx="247.2690321939688" cy="171.314393939394" r="4.4" />
                </g>
              </g>
            </g>
          </g>
        </g>
        <defs>
          <clipPath id="xXxprefixXx1">
            <rect x="21.961210910936405" y="0.0" width="647.0387890890636" height="307.6666666666667">
            </rect>
          </clipPath>
        </defs>
      </g>
      <g>
      </g>
    </g>
    <g transform="translate(16.0 160.33333333333334 ) rotate(-90.0 ) ">
      <text class="axis-title-y" y="0.0" text-anchor="middle">
        <tspan>hwy</tspan>
      </text>
    </g>
    <g transform="translate(374.9806054554682 359.6666666666667 ) ">
      <text class="axis-title-x" y="0.0" text-anchor="middle">
        <tspan>displ</tspan>
      </text>
    </g>
    <g transform="translate(257.586266910655 366.6666666666667 ) ">
      <rect x="5.0" y="5.0" height="50.33333333333333" width="224.78867708962633" stroke="rgb(187,187,187)" stroke-opacity="1.0" stroke-width="0.0" fill="rgb(25,25,28)" fill-opacity="1.0">
      </rect>
      <g transform="translate(10.0 10.0 ) ">
        <g transform="translate(0.0 24.666666666666664 ) ">
          <text class="legend-title" y="0.0">
            <tspan>City mileage</tspan>
          </text>
        </g>
        <g transform="translate(99.78867708962632 0.0 ) ">
          <g>
            <rect x="0.0" y="0.0" height="23.0" width="115.0" stroke-width="0.0" fill="rgb(20,46,71)" fill-opacity="1.0">
            </rect>
            <rect x="7.55" y="0.0" height="23.0" width="107.45" stroke-width="0.0" fill="rgb(24,52,79)" fill-opacity="1.0">
            </rect>
            <rect x="13.1" y="0.0" height="23.0" width="101.9" stroke-width="0.0" fill="rgb(27,58,87)" fill-opacity="1.0">
            </rect>
            <rect x="18.65" y="0.0" height="23.0" width="96.35" stroke-width="0.0" fill="rgb(30,64,95)" fill-opacity="1.0">
            </rect>
            <rect x="24.2" y="0.0" height="23.0" width="90.8" stroke-width="0.0" fill="rgb(33,70,104)" fill-opacity="1.0">
            </rect>
            <rect x="29.75" y="0.0" height="23.0" width="85.25" stroke-width="0.0" fill="rgb(36,77,112)" fill-opacity="1.0">
            </rect>
            <rect x="35.3" y="0.0" height="23.0" width="79.7" stroke-width="0.0" fill="rgb(39,83,121)" fill-opacity="1.0">
            </rect>
            <rect x="40.849999999999994" y="0.0" height="23.0" width="74.15" stroke-width="0.0" fill="rgb(42,90,130)" fill-opacity="1.0">
            </rect>
            <rect x="46.39999999999999" y="0.0" height="23.0" width="68.60000000000001" stroke-width="0.0" fill="rgb(46,96,138)" fill-opacity="1.0">
            </rect>
            <rect x="51.94999999999999" y="0.0" height="23.0" width="63.05000000000001" stroke-width="0.0" fill="rgb(49,103,147)" fill-opacity="1.0">
            </rect>
            <rect x="57.499999999999986" y="0.0" height="23.0" width="57.500000000000014" stroke-width="0.0" fill="rgb(52,110,156)" fill-opacity="1.0">
            </rect>
            <rect x="63.04999999999998" y="0.0" height="23.0" width="51.95000000000002" stroke-width="0.0" fill="rgb(56,116,166)" fill-opacity="1.0">
            </rect>
            <rect x="68.59999999999998" y="0.0" height="23.0" width="46.40000000000002" stroke-width="0.0" fill="rgb(59,123,175)" fill-opacity="1.0">
            </rect>
            <rect x="74.14999999999998" y="0.0" height="23.0" width="40.85000000000002" stroke-width="0.0" fill="rgb(63,130,184)" fill-opacity="1.0">
            </rect>
            <rect x="79.69999999999997" y="0.0" height="23.0" width="35.300000000000026" stroke-width="0.0" fill="rgb(66,137,194)" fill-opacity="1.0">
            </rect>
            <rect x="85.24999999999997" y="0.0" height="23.0" width="29.75000000000003" stroke-width="0.0" fill="rgb(70,144,203)" fill-opacity="1.0">
            </rect>
            <rect x="90.79999999999997" y="0.0" height="23.0" width="24.20000000000003" stroke-width="0.0" fill="rgb(73,151,213)" fill-opacity="1.0">
            </rect>
            <rect x="96.34999999999997" y="0.0" height="23.0" width="18.650000000000034" stroke-width="0.0" fill="rgb(77,159,222)" fill-opacity="1.0">
            </rect>
            <rect x="101.89999999999996" y="0.0" height="23.0" width="13.100000000000037" stroke-width="0.0" fill="rgb(81,166,232)" fill-opacity="1.0">
            </rect>
            <rect x="107.44999999999996" y="0.0" height="23.0" width="7.55000000000004" stroke-width="0.0" fill="rgb(84,173,242)" fill-opacity="1.0">
            </rect>
            <line x1="6.269230769230774" y1="0.0" x2="6.269230769230774" y2="4.6" stroke-width="1.0" stroke="rgb(25,25,28)" stroke-opacity="1.0">
            </line>
            <line x1="6.269230769230774" y1="18.4" x2="6.269230769230774" y2="23.0" stroke-width="1.0" stroke="rgb(25,25,28)" stroke-opacity="1.0">
            </line>
            <g transform="translate(6.269230769230774 36.43333333333333 ) ">
              <text class="legend-item" text-anchor="middle" y="0.0">
                <tspan>10</tspan>
              </text>
            </g>
            <line x1="27.615384615384613" y1="0.0" x2="27.615384615384613" y2="4.6" stroke-width="1.0" stroke="rgb(25,25,28)" stroke-opacity="1.0">
            </line>
            <line x1="27.615384615384613" y1="18.4" x2="27.615384615384613" y2="23.0" stroke-width="1.0" stroke="rgb(25,25,28)" stroke-opacity="1.0">
            </line>
            <g transform="translate(27.615384615384613 36.43333333333333 ) ">
              <text class="legend-item" text-anchor="middle" y="0.0">
                <tspan>15</tspan>
              </text>
            </g>
            <line x1="48.96153846153847" y1="0.0" x2="48.96153846153847" y2="4.6" stroke-width="1.0" stroke="rgb(25,25,28)" stroke-opacity="1.0">
            </line>
            <line x1="48.96153846153847" y1="18.4" x2="48.96153846153847" y2="23.0" stroke-width="1.0" stroke="rgb(25,25,28)" stroke-opacity="1.0">
            </line>
            <g transform="translate(48.96153846153847 36.43333333333333 ) ">
              <text class="legend-item" text-anchor="middle" y="0.0">
                <tspan>20</tspan>
              </text>
            </g>
            <line x1="70.3076923076923" y1="0.0" x2="70.3076923076923" y2="4.6" stroke-width="1.0" stroke="rgb(25,25,28)" stroke-opacity="1.0">
            </line>
            <line x1="70.3076923076923" y1="18.4" x2="70.3076923076923" y2="23.0" stroke-width="1.0" stroke="rgb(25,25,28)" stroke-opacity="1.0">
            </line>
            <g transform="translate(70.3076923076923 36.43333333333333 ) ">
              <text class="legend-item" text-anchor="middle" y="0.0">
                <tspan>25</tspan>
              </text>
            </g>
            <line x1="91.65384615384615" y1="0.0" x2="91.65384615384615" y2="4.6" stroke-width="1.0" stroke="rgb(25,25,28)" stroke-opacity="1.0">
            </line>
            <line x1="91.65384615384615" y1="18.4" x2="91.65384615384615" y2="23.0" stroke-width="1.0" stroke="rgb(25,25,28)" stroke-opacity="1.0">
            </line>
            <g transform="translate(91.65384615384615 36.43333333333333 ) ">
              <text class="legend-item" text-anchor="middle" y="0.0">
                <tspan>30</tspan>
              </text>
            </g>
            <line x1="113.00000000000001" y1="0.0" x2="113.00000000000001" y2="4.6" stroke-width="1.0" stroke="rgb(25,25,28)" stroke-opacity="1.0">
            </line>
            <line x1="113.00000000000001" y1="18.4" x2="113.00000000000001" y2="23.0" stroke-width="1.0" stroke="rgb(25,25,28)" stroke-opacity="1.0">
            </line>
            <g transform="translate(113.00000000000001 36.43333333333333 ) ">
              <text class="legend-item" text-anchor="middle" y="0.0">
                <tspan>35</tspan>
              </text>
            </g>
          </g>
        </g>
      </g>
    </g>
    <g transform="translate(257.586266910655 427.0 ) ">
      <rect x="5.0" y="5.0" height="33.0" width="191.6705727096221" stroke="rgb(187,187,187)" stroke-opacity="1.0" stroke-width="0.0" fill="rgb(25,25,28)" fill-opacity="1.0">
      </rect>
      <g transform="translate(10.0 10.0 ) ">
        <g transform="translate(0.0 16.0 ) ">
          <text class="legend-title" y="0.0">
            <tspan>Drive type</tspan>
          </text>
        </g>
        <g transform="translate(82.57207845226156 0.0 ) ">
          <g transform="">
            <g>
              <rect x="0.0" y="0.0" height="23.0" width="23.0" stroke-width="0.0" fill="rgb(25,25,28)" fill-opacity="1.0">
              </rect>
              <g transform="translate(1.0 1.0 ) ">
                <g>
                  <g >
                    <circle fill="#bbbbbb" stroke="#bbbbbb" stroke-opacity="0.0" stroke-width="0.0" cx="10.5" cy="10.5" r="5.5" />
                  </g>
                </g>
              </g>
              <rect x="0.0" y="0.0" height="23.0" width="23.0" stroke="rgb(25,25,28)" stroke-opacity="1.0" stroke-width="1.0" fill-opacity="0.0">
              </rect>
            </g>
            <g transform="translate(26.9903027277341 16.05 ) ">
              <text class="legend-item" y="0.0">
                <tspan>f</tspan>
              </text>
            </g>
          </g>
          <g transform="translate(32.06379303707911 0.0 ) ">
            <g>
              <rect x="0.0" y="0.0" height="23.0" width="23.0" stroke-width="0.0" fill="rgb(25,25,28)" fill-opacity="1.0">
              </rect>
              <g transform="translate(1.0 1.0 ) ">
                <g>
                  <g >
                    <path fill="#bbbbbb" stroke="#bbbbbb" stroke-opacity="0.0" stroke-width="0.0" d="M10.5 5.736860279185588 L10.5 5.736860279185588 L16.0 15.263139720814412 L5.0 15.263139720814412 Z" transform="rotate(0.0 10.5 10.5 ) " />
                  </g>
                </g>
              </g>
              <rect x="0.0" y="0.0" height="23.0" width="23.0" stroke="rgb(25,25,28)" stroke-opacity="1.0" stroke-width="1.0" fill-opacity="0.0">
              </rect>
            </g>
            <g transform="translate(26.9903027277341 16.05 ) ">
              <text class="legend-item" y="0.0">
                <tspan>4</tspan>
              </text>
            </g>
          </g>
          <g transform="translate(67.03470122028142 0.0 ) ">
            <g>
              <rect x="0.0" y="0.0" height="23.0" width="23.0" stroke-width="0.0" fill="rgb(25,25,28)" fill-opacity="1.0">
              </rect>
              <g transform="translate(1.0 1.0 ) ">
                <g>
                  <g >
                    <rect fill="#bbbbbb" stroke="#bbbbbb" stroke-opacity="0.0" stroke-width="0.0" x="5.0" y="5.0" height="11.0" width="11.0" transform="rotate(0.0 10.5 10.5 ) " />
                  </g>
                </g>
              </g>
              <rect x="0.0" y="0.0" height="23.0" width="23.0" stroke="rgb(25,25,28)" stroke-opacity="1.0" stroke-width="1.0" fill-opacity="0.0">
              </rect>
            </g>
            <g transform="translate(26.9903027277341 16.05 ) ">
              <text class="legend-item" y="0.0">
                <tspan>r</tspan>
              </text>
            </g>
          </g>
        </g>
      </g>
    </g>
    <path fill="rgb(0,0,0)" fill-opacity="0.0" stroke="rgb(187,187,187)" stroke-opacity="1.0" stroke-width="0.0" d="M0.0 0.0 L0.0 470.0 L705.0 470.0 L705.0 0.0 Z">
    </path>
  </g>
  <g id="xXxprefixXx2">
  </g>
</svg>