<svg xmlns="http://www.w3.org/2000/svg" xmlns:xlink="http://www.w3.org/1999/xlink" display="block" class="plt-container" width="705.0" height="470.0">
  <style type="text/css">
  .plt-container {
   font-family: Lucida Grande, sans-serif;
   user-select: none;
   -webkit-user-select: none;
   -moz-user-select: none;
   -ms-user-select: none;
}
text {
   text-rendering: optimizeLegibility;
}
#xXxprefixXx0 .plot-title {
fill: #bbbbbb;
font-weight: normal;
   font-style: normal;font-family: Lucida Grande, sans-serif;
font-size: 16.0px;

}
#xXxprefixXx0 .plot-subtitle {
fill: #bbbbbb;
font-weight: normal;
   font-style: normal;font-family: Lucida Grande, sans-serif;
font-size: 15.0px;

}
#xXxprefixXx0 .plot-caption {
fill: #bbbbbb;
font-weight: normal;
   font-style: normal;font-family: Lucida Grande, sans-serif;
font-size: 13.0px;

}
#xXxprefixXx0 .hyperlink-element {
fill: #118ed8;
font-weight: normal;
   font-style: normal;
}
#xXxprefixXx0 .legend-title {
fill: #bbbbbb;
font-weight: normal;
   font-style: normal;font-family: Lucida Grande, sans-serif;
font-size: 15.0px;

}
#xXxprefixXx0 .legend-item {
fill: #bbbbbb;
font-weight: normal;
   font-style: normal;font-family: Lucida Grande, sans-serif;
font-size: 13.0px;

}
#xXxprefixXx0 .axis-title-x {
fill: #bbbbbb;
font-weight: normal;
   font-style: normal;font-family: Lucida Grande, sans-serif;
font-size: 15.0px;

}
#xXxprefixXx0 .axis-text-x {
fill: #bbbbbb;
font-weight: normal;
   font-style: normal;font-family: Lucida Grande, sans-serif;
font-size: 13.0px;

}
#xXxprefixXx2 .axis-tooltip-text-x {
fill: #303030;
font-weight: normal;
   font-style: normal;font-family: Lucida Grande, sans-serif;
font-size: 13.0px;

}
#xXxprefixXx0 .axis-title-y {
fill: #bbbbbb;
font-weight: normal;
   font-style: normal;font-family: Lucida Grande, sans-serif;
font-size: 15.0px;

}
#xXxprefixXx0 .axis-text-y {
fill: #bbbbbb;
font-weight: normal;
   font-style: normal;font-family: Lucida Grande, sans-serif;
font-size: 13.0px;

}
#xXxprefixXx2 .axis-tooltip-text-y {
fill: #303030;
font-weight: normal;
   font-style: normal;font-family: Lucida Grande, sans-serif;
font-size: 13.0px;

}
#xXxprefixXx0 .facet-strip-text-x {
fill: #bbbbbb;
font-weight: normal;
   font-style: normal;font-family: Lucida Grande, sans-serif;
font-size: 13.0px;

}
#xXxprefixXx0 .facet-strip-text-y {
fill: #bbbbbb;
font-weight: normal;
   font-style: normal;font-family: Lucida Grande, sans-serif;
font-size: 13.0px;

}
#xXxprefixXx2 .tooltip-text {
fill: #bbbbbb;
font-weight: normal;
   font-style: normal;font-family: Lucida Grande, sans-serif;
font-size: 13.0px;

}
#xXxprefixXx2 .tooltip-title {
fill: #bbbbbb;
font-weight: bold;
   font-style: normal;font-family: Lucida Grande, sans-serif;
font-size: 13.0px;

}
#xXxprefixXx2 .tooltip-label {
fill: #bbbbbb;
font-weight: bold;
   font-style: normal;font-family: Lucida Grande, sans-serif;
font-size: 13.0px;

}

  </style>
  <g id="xXxprefixXx0">
    <path fill-rule="evenodd" fill="rgb(25,25,28)" fill-opacity="1.0" d="M0.0 0.0 L0.0 470.0 L705.0 470.0 L705.0 0.0 Z">
    </path>
    <g transform="translate(29.5 6.5 ) ">
      <g>
        <g transform="translate(21.961210910936405 0.0 ) ">
          <g>
            <line x1="18.517945142279586" y1="0.0" x2="18.517945142279586" y2="305.6666666666667" stroke="rgb(71,71,71)" stroke-opacity="1.0" stroke-width="1.0" fill="none">
            </line>
            <line x1="72.98248967839606" y1="0.0" x2="72.98248967839606" y2="305.6666666666667" stroke="rgb(71,71,71)" stroke-opacity="1.0" stroke-width="1.0" fill="none">
            </line>
            <line x1="127.44703421451251" y1="0.0" x2="127.44703421451251" y2="305.6666666666667" stroke="rgb(71,71,71)" stroke-opacity="1.0" stroke-width="1.0" fill="none">
            </line>
            <line x1="181.911578750629" y1="0.0" x2="181.911578750629" y2="305.6666666666667" stroke="rgb(71,71,71)" stroke-opacity="1.0" stroke-width="1.0" fill="none">
            </line>
            <line x1="236.37612328674547" y1="0.0" x2="236.37612328674547" y2="305.6666666666667" stroke="rgb(71,71,71)" stroke-opacity="1.0" stroke-width="1.0" fill="none">
            </line>
            <line x1="290.840667822862" y1="0.0" x2="290.840667822862" y2="305.6666666666667" stroke="rgb(71,71,71)" stroke-opacity="1.0" stroke-width="1.0" fill="none">
            </line>
            <line x1="345.30521235897845" y1="0.0" x2="345.30521235897845" y2="305.6666666666667" stroke="rgb(71,71,71)" stroke-opacity="1.0" stroke-width="1.0" fill="none">
            </line>
            <line x1="399.7697568950948" y1="0.0" x2="399.7697568950948" y2="305.6666666666667" stroke="rgb(71,71,71)" stroke-opacity="1.0" stroke-width="1.0" fill="none">
            </line>
            <line x1="454.2343014312113" y1="0.0" x2="454.2343014312113" y2="305.6666666666667" stroke="rgb(71,71,71)" stroke-opacity="1.0" stroke-width="1.0" fill="none">
            </line>
            <line x1="508.69884596732777" y1="0.0" x2="508.69884596732777" y2="305.6666666666667" stroke="rgb(71,71,71)" stroke-opacity="1.0" stroke-width="1.0" fill="none">
            </line>
            <line x1="563.1633905034442" y1="0.0" x2="563.1633905034442" y2="305.6666666666667" stroke="rgb(71,71,71)" stroke-opacity="1.0" stroke-width="1.0" fill="none">
            </line>
            <line x1="617.6279350395607" y1="0.0" x2="617.6279350395607" y2="305.6666666666667" stroke="rgb(71,71,71)" stroke-opacity="1.0" stroke-width="1.0" fill="none">
            </line>
          </g>
        </g>
        <g transform="translate(21.961210910936405 0.0 ) ">
          <g>
            <line x1="0.0" y1="265.72159090909093" x2="647.0387890890636" y2="265.72159090909093" stroke="rgb(71,71,71)" stroke-opacity="1.0" stroke-width="1.0" fill="none">
            </line>
            <line x1="0.0" y1="222.3030303030303" x2="647.0387890890636" y2="222.3030303030303" stroke="rgb(71,71,71)" stroke-opacity="1.0" stroke-width="1.0" fill="none">
            </line>
            <line x1="0.0" y1="178.88446969696972" x2="647.0387890890636" y2="178.88446969696972" stroke="rgb(71,71,71)" stroke-opacity="1.0" stroke-width="1.0" fill="none">
            </line>
            <line x1="0.0" y1="135.46590909090912" x2="647.0387890890636" y2="135.46590909090912" stroke="rgb(71,71,71)" stroke-opacity="1.0" stroke-width="1.0" fill="none">
            </line>
            <line x1="0.0" y1="92.0473484848485" x2="647.0387890890636" y2="92.0473484848485" stroke="rgb(71,71,71)" stroke-opacity="1.0" stroke-width="1.0" fill="none">
            </line>
            <line x1="0.0" y1="48.628787878787875" x2="647.0387890890636" y2="48.628787878787875" stroke="rgb(71,71,71)" stroke-opacity="1.0" stroke-width="1.0" fill="none">
            </line>
            <line x1="0.0" y1="5.210227272727309" x2="647.0387890890636" y2="5.210227272727309" stroke="rgb(71,71,71)" stroke-opacity="1.0" stroke-width="1.0" fill="none">
            </line>
          </g>
        </g>
        <g transform="translate(21.961210910936405 305.6666666666667 ) ">
          <g transform="translate(18.517945142279586 0.0 ) ">
            <line stroke-width="1.0" stroke="rgb(187,187,187)" stroke-opacity="1.0" x2="0.0" y2="4.0">
            </line>
            <g transform="translate(0.0 7.0 ) ">
              <text class="axis-text-x" text-anchor="middle" dy="0.7em">
                <tspan>1.5</tspan>
              </text>
            </g>
          </g>
          <g transform="translate(72.98248967839606 0.0 ) ">
            <line stroke-width="1.0" stroke="rgb(187,187,187)" stroke-opacity="1.0" x2="0.0" y2="4.0">
            </line>
            <g transform="translate(0.0 7.0 ) ">
              <text class="axis-text-x" text-anchor="middle" dy="0.7em">
                <tspan>2.0</tspan>
              </text>
            </g>
          </g>
          <g transform="translate(127.44703421451251 0.0 ) ">
            <line stroke-width="1.0" stroke="rgb(187,187,187)" stroke-opacity="1.0" x2="0.0" y2="4.0">
            </line>
            <g transform="translate(0.0 7.0 ) ">
              <text class="axis-text-x" text-anchor="middle" dy="0.7em">
                <tspan>2.5</tspan>
              </text>
            </g>
          </g>
          <g transform="translate(181.911578750629 0.0 ) ">
            <line stroke-width="1.0" stroke="rgb(187,187,187)" stroke-opacity="1.0" x2="0.0" y2="4.0">
            </line>
            <g transform="translate(0.0 7.0 ) ">
              <text class="axis-text-x" text-anchor="middle" dy="0.7em">
                <tspan>3.0</tspan>
              </text>
            </g>
          </g>
          <g transform="translate(236.37612328674547 0.0 ) ">
            <line stroke-width="1.0" stroke="rgb(187,187,187)" stroke-opacity="1.0" x2="0.0" y2="4.0">
            </line>
            <g transform="translate(0.0 7.0 ) ">
              <text class="axis-text-x" text-anchor="middle" dy="0.7em">
                <tspan>3.5</tspan>
              </text>
            </g>
          </g>
          <g transform="translate(290.840667822862 0.0 ) ">
            <line stroke-width="1.0" stroke="rgb(187,187,187)" stroke-opacity="1.0" x2="0.0" y2="4.0">
            </line>
            <g transform="translate(0.0 7.0 ) ">
              <text class="axis-text-x" text-anchor="middle" dy="0.7em">
                <tspan>4.0</tspan>
              </text>
            </g>
          </g>
          <g transform="translate(345.30521235897845 0.0 ) ">
            <line stroke-width="1.0" stroke="rgb(187,187,187)" stroke-opacity="1.0" x2="0.0" y2="4.0">
            </line>
            <g transform="translate(0.0 7.0 ) ">
              <text class="axis-text-x" text-anchor="middle" dy="0.7em">
                <tspan>4.5</tspan>
              </text>
            </g>
          </g>
          <g transform="translate(399.7697568950948 0.0 ) ">
            <line stroke-width="1.0" stroke="rgb(187,187,187)" stroke-opacity="1.0" x2="0.0" y2="4.0">
            </line>
            <g transform="translate(0.0 7.0 ) ">
              <text class="axis-text-x" text-anchor="middle" dy="0.7em">
                <tspan>5.0</tspan>
              </text>
            </g>
          </g>
          <g transform="translate(454.2343014312113 0.0 ) ">
            <line stroke-width="1.0" stroke="rgb(187,187,187)" stroke-opacity="1.0" x2="0.0" y2="4.0">
            </line>
            <g transform="translate(0.0 7.0 ) ">
              <text class="axis-text-x" text-anchor="middle" dy="0.7em">
                <tspan>5.5</tspan>
              </text>
            </g>
          </g>
          <g transform="translate(508.69884596732777 0.0 ) ">
            <line stroke-width="1.0" stroke="rgb(187,187,187)" stroke-opacity="1.0" x2="0.0" y2="4.0">
            </line>
            <g transform="translate(0.0 7.0 ) ">
              <text class="axis-text-x" text-anchor="middle" dy="0.7em">
                <tspan>6.0</tspan>
              </text>
            </g>
          </g>
          <g transform="translate(563.1633905034442 0.0 ) ">
            <line stroke-width="1.0" stroke="rgb(187,187,187)" stroke-opacity="1.0" x2="0.0" y2="4.0">
            </line>
            <g transform="translate(0.0 7.0 ) ">
              <text class="axis-text-x" text-anchor="middle" dy="0.7em">
                <tspan>6.5</tspan>
              </text>
            </g>
          </g>
          <g transform="translate(617.6279350395607 0.0 ) ">
            <line stroke-width="1.0" stroke="rgb(187,187,187)" stroke-opacity="1.0" x2="0.0" y2="4.0">
            </line>
            <g transform="translate(0.0 7.0 ) ">
              <text class="axis-text-x" text-anchor="middle" dy="0.7em">
                <tspan>7.0</tspan>
              </text>
            </g>
          </g>
          <line x1="0.0" y1="0.0" x2="647.0387890890636" y2="0.0" stroke-width="1.0" stroke="rgb(187,187,187)" stroke-opacity="1.0">
          </line>
        </g>
        <g transform="translate(21.961210910936405 0.0 ) ">
          <g transform="translate(0.0 265.72159090909093 ) ">
            <g transform="translate(-3.0 0.0 ) ">
              <text class="axis-text-y" text-anchor="end" dy="0.35em">
                <tspan>15</tspan>
              </text>
            </g>
          </g>
          <g transform="translate(0.0 222.3030303030303 ) ">
            <g transform="translate(-3.0 0.0 ) ">
              <text class="axis-text-y" text-anchor="end" dy="0.35em">
                <tspan>20</tspan>
              </text>
            </g>
          </g>
          <g transform="translate(0.0 178.88446969696972 ) ">
            <g transform="translate(-3.0 0.0 ) ">
              <text class="axis-text-y" text-anchor="end" dy="0.35em">
                <tspan>25</tspan>
              </text>
            </g>
          </g>
          <g transform="translate(0.0 135.46590909090912 ) ">
            <g transform="translate(-3.0 0.0 ) ">
              <text class="axis-text-y" text-anchor="end" dy="0.35em">
                <tspan>30</tspan>
              </text>
            </g>
          </g>
          <g transform="translate(0.0 92.0473484848485 ) ">
            <g transform="translate(-3.0 0.0 ) ">
              <text class="axis-text-y" text-anchor="end" dy="0.35em">
                <tspan>35</tspan>
              </text>
            </g>
          </g>
          <g transform="translate(0.0 48.628787878787875 ) ">
            <g transform="translate(-3.0 0.0 ) ">
              <text class="axis-text-y" text-anchor="end" dy="0.35em">
                <tspan>40</tspan>
              </text>
            </g>
          </g>
          <g transform="translate(0.0 5.210227272727309 ) ">
            <g transform="translate(-3.0 0.0 ) ">
              <text class="axis-text-y" text-anchor="end" dy="0.35em">
                <tspan>45</tspan>
              </text>
            </g>
          </g>
        </g>
      </g>
      <g clip-path="url(#xXxprefixXx1)" clip-bounds-jfx="[rect (21.961210910936405, 0.0), (647.0387890890636, 305.6666666666667)]">
        <g transform="translate(21.961210910936405 0.0 ) ">
          <g>
            <g>
              <g>
                <g >
                  <circle fill="#29567d" stroke="#29567d" stroke-opacity="0.0" stroke-width="0.0" cx="51.19667186394949" cy="144.14962121212125" r="4.4" />
                  <circle fill="#306591" stroke="#306591" stroke-opacity="0.0" stroke-width="0.0" cx="51.19667186394949" cy="144.14962121212125" r="4.4" />
                  <circle fill="#2e608a" stroke="#2e608a" stroke-opacity="0.0" stroke-width="0.0" cx="72.98248967839606" cy="126.782196969697" r="4.4" />
                  <circle fill="#306591" stroke="#306591" stroke-opacity="0.0" stroke-width="0.0" cx="72.98248967839606" cy="135.46590909090912" r="4.4" />
                  <circle fill="#244c6f" stroke="#244c6f" stroke-opacity="0.0" stroke-width="0.0" cx="160.1257609361824" cy="170.2007575757576" r="4.4" />
                  <circle fill="#29567d" stroke="#29567d" stroke-opacity="0.0" stroke-width="0.0" cx="160.1257609361824" cy="170.2007575757576" r="4.4" />
                  <circle fill="#29567d" stroke="#29567d" stroke-opacity="0.0" stroke-width="0.0" cx="192.80448765785232" cy="161.51704545454547" r="4.4" />
                  <path fill="#29567d" stroke="#29567d" stroke-opacity="0.0" stroke-width="0.0" d="M51.19667186394949 165.165672279649 L51.19667186394949 165.165672279649 L55.596671863949496 172.78669583295206 L46.79667186394949 172.78669583295206 Z" transform="rotate(0.0 51.19667186394949 170.2007575757576 ) " />
                  <path fill="#244c6f" stroke="#244c6f" stroke-opacity="0.0" stroke-width="0.0" d="M51.19667186394949 173.8493844008611 L51.19667186394949 173.8493844008611 L55.596671863949496 181.4704079541642 L46.79667186394949 181.4704079541642 Z" transform="rotate(0.0 51.19667186394949 178.88446969696972 ) " />
                  <path fill="#2e608a" stroke="#2e608a" stroke-opacity="0.0" stroke-width="0.0" d="M72.98248967839606 147.79824803722477 L72.98248967839606 147.79824803722477 L77.38248967839606 155.41927159052784 L68.58248967839606 155.41927159052784 Z" transform="rotate(0.0 72.98248967839606 152.83333333333337 ) " />
                  <path fill="#2b5b83" stroke="#2b5b83" stroke-opacity="0.0" stroke-width="0.0" d="M72.98248967839606 156.48196015843686 L72.98248967839606 156.48196015843686 L77.38248967839606 164.10298371173994 L68.58248967839606 164.10298371173994 Z" transform="rotate(0.0 72.98248967839606 161.51704545454547 ) " />
                  <path fill="#214769" stroke="#214769" stroke-opacity="0.0" stroke-width="0.0" d="M160.1257609361824 173.8493844008611 L160.1257609361824 173.8493844008611 L164.5257609361824 181.4704079541642 L155.72576093618238 181.4704079541642 Z" transform="rotate(0.0 160.1257609361824 178.88446969696972 ) " />
                  <path fill="#265176" stroke="#265176" stroke-opacity="0.0" stroke-width="0.0" d="M160.1257609361824 173.8493844008611 L160.1257609361824 173.8493844008611 L164.5257609361824 181.4704079541642 L155.72576093618238 181.4704079541642 Z" transform="rotate(0.0 160.1257609361824 178.88446969696972 ) " />
                  <path fill="#265176" stroke="#265176" stroke-opacity="0.0" stroke-width="0.0" d="M192.80448765785232 173.8493844008611 L192.80448765785232 173.8493844008611 L197.20448765785233 181.4704079541642 L188.40448765785231 181.4704079541642 Z" transform="rotate(0.0 192.80448765785232 178.88446969696972 ) " />
                  <path fill="#214769" stroke="#214769" stroke-opacity="0.0" stroke-width="0.0" d="M192.80448765785232 173.8493844008611 L192.80448765785232 173.8493844008611 L197.20448765785233 181.4704079541642 L188.40448765785231 181.4704079541642 Z" transform="rotate(0.0 192.80448765785232 178.88446969696972 ) " />
                  <path fill="#214769" stroke="#214769" stroke-opacity="0.0" stroke-width="0.0" d="M160.1257609361824 182.53309652207324 L160.1257609361824 182.53309652207324 L164.5257609361824 190.1541200753763 L155.72576093618238 190.1541200753763 Z" transform="rotate(0.0 160.1257609361824 187.56818181818184 ) " />
                  <path fill="#265176" stroke="#265176" stroke-opacity="0.0" stroke-width="0.0" d="M192.80448765785232 173.8493844008611 L192.80448765785232 173.8493844008611 L197.20448765785233 181.4704079541642 L188.40448765785231 181.4704079541642 Z" transform="rotate(0.0 192.80448765785232 178.88446969696972 ) " />
                  <path fill="#244c6f" stroke="#244c6f" stroke-opacity="0.0" stroke-width="0.0" d="M312.6264856373085 191.21680864328536 L312.6264856373085 191.21680864328536 L317.02648563730855 198.83783219658844 L308.22648563730854 198.83783219658844 Z" transform="rotate(0.0 312.6264856373085 196.25189393939397 ) " />
                  <rect fill="#1f4262" stroke="#1f4262" stroke-opacity="0.0" stroke-width="0.0" x="428.04848361676477" y="217.9030303030303" height="8.8" width="8.8" transform="rotate(0.0 432.44848361676475 222.3030303030303 ) " />
                  <rect fill="#18344f" stroke="#18344f" stroke-opacity="0.0" stroke-width="0.0" x="428.04848361676477" y="261.32159090909096" height="8.8" width="8.8" transform="rotate(0.0 432.44848361676475 265.72159090909093 ) " />
                  <rect fill="#1f4262" stroke="#1f4262" stroke-opacity="0.0" stroke-width="0.0" x="428.04848361676477" y="217.9030303030303" height="8.8" width="8.8" transform="rotate(0.0 432.44848361676475 222.3030303030303 ) " />
                  <rect fill="#1c3d5c" stroke="#1c3d5c" stroke-opacity="0.0" stroke-width="0.0" x="471.620119245658" y="243.95416666666668" height="8.8" width="8.8" transform="rotate(0.0 476.02011924565795 248.35416666666669 ) " />
                  <rect fill="#1a3955" stroke="#1a3955" stroke-opacity="0.0" stroke-width="0.0" x="504.2988459673278" y="243.95416666666668" height="8.8" width="8.8" transform="rotate(0.0 508.69884596732777 248.35416666666669 ) " />
                  <rect fill="#244c6f" stroke="#244c6f" stroke-opacity="0.0" stroke-width="0.0" x="471.620119245658" y="165.8007575757576" height="8.8" width="8.8" transform="rotate(0.0 476.02011924565795 170.2007575757576 ) " />
                  <rect fill="#214769" stroke="#214769" stroke-opacity="0.0" stroke-width="0.0" x="471.620119245658" y="191.85189393939396" height="8.8" width="8.8" transform="rotate(0.0 476.02011924565795 196.25189393939397 ) " />
                  <rect fill="#244c6f" stroke="#244c6f" stroke-opacity="0.0" stroke-width="0.0" x="526.0846637817745" y="165.8007575757576" height="8.8" width="8.8" transform="rotate(0.0 530.4846637817744 170.2007575757576 ) " />
                  <rect fill="#214769" stroke="#214769" stroke-opacity="0.0" stroke-width="0.0" x="526.0846637817745" y="174.4844696969697" height="8.8" width="8.8" transform="rotate(0.0 530.4846637817744 178.88446969696972 ) " />
                  <rect fill="#214769" stroke="#214769" stroke-opacity="0.0" stroke-width="0.0" x="613.2279350395607" y="183.16818181818184" height="8.8" width="8.8" transform="rotate(0.0 617.6279350395607 187.56818181818184 ) " />
                  <path fill="#1f4262" stroke="#1f4262" stroke-opacity="0.0" stroke-width="0.0" d="M432.44848361676475 225.95165712813383 L432.44848361676475 225.95165712813383 L436.8484836167648 233.5726806814369 L428.04848361676477 233.5726806814369 Z" transform="rotate(0.0 432.44848361676475 230.98674242424244 ) " />
                  <path fill="#18344f" stroke="#18344f" stroke-opacity="0.0" stroke-width="0.0" d="M432.44848361676475 269.3702177341945 L432.44848361676475 269.3702177341945 L436.8484836167648 276.99124128749753 L428.04848361676477 276.99124128749753 Z" transform="rotate(0.0 432.44848361676475 274.40530303030306 ) " />
                  <path fill="#18344f" stroke="#18344f" stroke-opacity="0.0" stroke-width="0.0" d="M476.02011924565795 260.6865056129824 L476.02011924565795 260.6865056129824 L480.420119245658 268.3075291662854 L471.620119245658 268.3075291662854 Z" transform="rotate(0.0 476.02011924565795 265.72159090909093 ) " />
                  <path fill="#1f4262" stroke="#1f4262" stroke-opacity="0.0" stroke-width="0.0" d="M563.1633905034442 243.31908137055808 L563.1633905034442 243.31908137055808 L567.5633905034442 250.94010492386116 L558.7633905034443 250.94010492386116 Z" transform="rotate(0.0 563.1633905034442 248.35416666666669 ) " />
                  <circle fill="#2b5b83" stroke="#2b5b83" stroke-opacity="0.0" stroke-width="0.0" cx="116.55412530728924" cy="161.51704545454547" r="4.4" />
                  <circle fill="#336a98" stroke="#336a98" stroke-opacity="0.0" stroke-width="0.0" cx="116.55412530728924" cy="135.46590909090912" r="4.4" />
                  <circle fill="#29567d" stroke="#29567d" stroke-opacity="0.0" stroke-width="0.0" cx="192.80448765785232" cy="170.2007575757576" r="4.4" />
                  <circle fill="#29567d" stroke="#29567d" stroke-opacity="0.0" stroke-width="0.0" cx="236.37612328674547" cy="144.14962121212125" r="4.4" />
                  <circle fill="#265176" stroke="#265176" stroke-opacity="0.0" stroke-width="0.0" cx="247.2690321939688" cy="170.2007575757576" r="4.4" />
                  <circle fill="#29567d" stroke="#29567d" stroke-opacity="0.0" stroke-width="0.0" cx="116.55412530728924" cy="187.56818181818184" r="4.4" />
                  <circle fill="#265176" stroke="#265176" stroke-opacity="0.0" stroke-width="0.0" cx="181.911578750629" cy="187.56818181818184" r="4.4" />
                  <circle fill="#244c6f" stroke="#244c6f" stroke-opacity="0.0" stroke-width="0.0" cx="214.59030547229887" cy="204.9356060606061" r="4.4" />
                  <circle fill="#244c6f" stroke="#244c6f" stroke-opacity="0.0" stroke-width="0.0" cx="214.59030547229887" cy="204.9356060606061" r="4.4" />
                  <circle fill="#265176" stroke="#265176" stroke-opacity="0.0" stroke-width="0.0" cx="214.59030547229887" cy="187.56818181818184" r="4.4" />
                  <circle fill="#265176" stroke="#265176" stroke-opacity="0.0" stroke-width="0.0" cx="214.59030547229887" cy="187.56818181818184" r="4.4" />
                  <circle fill="#18344f" stroke="#18344f" stroke-opacity="0.0" stroke-width="0.0" cx="214.59030547229887" cy="248.35416666666669" r="4.4" />
                  <circle fill="#214769" stroke="#214769" stroke-opacity="0.0" stroke-width="0.0" cx="269.0548500084153" cy="204.9356060606061" r="4.4" />
                  <circle fill="#214769" stroke="#214769" stroke-opacity="0.0" stroke-width="0.0" cx="269.0548500084153" cy="213.61931818181822" r="4.4" />
                  <circle fill="#244c6f" stroke="#244c6f" stroke-opacity="0.0" stroke-width="0.0" cx="269.0548500084153" cy="196.25189393939397" r="4.4" />
                  <circle fill="#244c6f" stroke="#244c6f" stroke-opacity="0.0" stroke-width="0.0" cx="290.840667822862" cy="196.25189393939397" r="4.4" />
                  <path fill="#214769" stroke="#214769" stroke-opacity="0.0" stroke-width="0.0" d="M258.16194110119204 225.95165712813383 L258.16194110119204 225.95165712813383 L262.561941101192 233.5726806814369 L253.76194110119204 233.5726806814369 Z" transform="rotate(0.0 258.16194110119204 230.98674242424244 ) " />
                  <path fill="#1f4262" stroke="#1f4262" stroke-opacity="0.0" stroke-width="0.0" d="M258.16194110119204 234.63536924934596 L258.16194110119204 234.63536924934596 L262.561941101192 242.25639280264903 L253.76194110119204 242.25639280264903 Z" transform="rotate(0.0 258.16194110119204 239.67045454545456 ) " />
                  <path fill="#1c3d5c" stroke="#1c3d5c" stroke-opacity="0.0" stroke-width="0.0" d="M279.9477589156386 243.31908137055808 L279.9477589156386 243.31908137055808 L284.3477589156386 250.94010492386116 L275.5477589156386 250.94010492386116 Z" transform="rotate(0.0 279.9477589156386 248.35416666666669 ) " />
                  <path fill="#1f4262" stroke="#1f4262" stroke-opacity="0.0" stroke-width="0.0" d="M279.9477589156386 243.31908137055808 L279.9477589156386 243.31908137055808 L284.3477589156386 250.94010492386116 L275.5477589156386 250.94010492386116 Z" transform="rotate(0.0 279.9477589156386 248.35416666666669 ) " />
                  <path fill="#1f4262" stroke="#1f4262" stroke-opacity="0.0" stroke-width="0.0" d="M367.091030173425 225.95165712813383 L367.091030173425 225.95165712813383 L371.49103017342503 233.5726806814369 L362.691030173425 233.5726806814369 Z" transform="rotate(0.0 367.091030173425 230.98674242424244 ) " />
                  <path fill="#1f4262" stroke="#1f4262" stroke-opacity="0.0" stroke-width="0.0" d="M367.091030173425 225.95165712813383 L367.091030173425 225.95165712813383 L371.49103017342503 233.5726806814369 L362.691030173425 233.5726806814369 Z" transform="rotate(0.0 367.091030173425 230.98674242424244 ) " />
                  <path fill="#132b43" stroke="#132b43" stroke-opacity="0.0" stroke-width="0.0" d="M367.091030173425 286.73764197661876 L367.091030173425 286.73764197661876 L371.49103017342503 294.3586655299218 L362.691030173425 294.3586655299218 Z" transform="rotate(0.0 367.091030173425 291.7727272727273 ) " />
                  <path fill="#18344f" stroke="#18344f" stroke-opacity="0.0" stroke-width="0.0" d="M421.5555747095415 243.31908137055808 L421.5555747095415 243.31908137055808 L425.9555747095415 250.94010492386116 L417.1555747095415 250.94010492386116 Z" transform="rotate(0.0 421.5555747095415 248.35416666666669 ) " />
                  <path fill="#18344f" stroke="#18344f" stroke-opacity="0.0" stroke-width="0.0" d="M421.5555747095415 260.6865056129824 L421.5555747095415 260.6865056129824 L425.9555747095415 268.3075291662854 L417.1555747095415 268.3075291662854 Z" transform="rotate(0.0 421.5555747095415 265.72159090909093 ) " />
                  <path fill="#1c3d5c" stroke="#1c3d5c" stroke-opacity="0.0" stroke-width="0.0" d="M279.9477589156386 243.31908137055808 L279.9477589156386 243.31908137055808 L284.3477589156386 250.94010492386116 L275.5477589156386 250.94010492386116 Z" transform="rotate(0.0 279.9477589156386 248.35416666666669 ) " />
                  <path fill="#1c3d5c" stroke="#1c3d5c" stroke-opacity="0.0" stroke-width="0.0" d="M367.091030173425 243.31908137055808 L367.091030173425 243.31908137055808 L371.49103017342503 250.94010492386116 L362.691030173425 250.94010492386116 Z" transform="rotate(0.0 367.091030173425 248.35416666666669 ) " />
                  <path fill="#132b43" stroke="#132b43" stroke-opacity="0.0" stroke-width="0.0" d="M367.091030173425 286.73764197661876 L367.091030173425 286.73764197661876 L371.49103017342503 294.3586655299218 L362.691030173425 294.3586655299218 Z" transform="rotate(0.0 367.091030173425 291.7727272727273 ) " />
                  <path fill="#1c3d5c" stroke="#1c3d5c" stroke-opacity="0.0" stroke-width="0.0" d="M367.091030173425 243.31908137055808 L367.091030173425 243.31908137055808 L371.49103017342503 250.94010492386116 L362.691030173425 250.94010492386116 Z" transform="rotate(0.0 367.091030173425 248.35416666666669 ) " />
                  <path fill="#18344f" stroke="#18344f" stroke-opacity="0.0" stroke-width="0.0" d="M421.5555747095415 252.0027934917702 L421.5555747095415 252.0027934917702 L425.9555747095415 259.6238170450733 L417.1555747095415 259.6238170450733 Z" transform="rotate(0.0 421.5555747095415 257.0378787878788 ) " />
                  <path fill="#1c3d5c" stroke="#1c3d5c" stroke-opacity="0.0" stroke-width="0.0" d="M476.02011924565795 234.63536924934596 L476.02011924565795 234.63536924934596 L480.420119245658 242.25639280264903 L471.620119245658 242.25639280264903 Z" transform="rotate(0.0 476.02011924565795 239.67045454545456 ) " />
                  <path fill="#18344f" stroke="#18344f" stroke-opacity="0.0" stroke-width="0.0" d="M497.8059370601045 260.6865056129824 L497.8059370601045 260.6865056129824 L502.20593706010453 268.3075291662854 L493.4059370601045 268.3075291662854 Z" transform="rotate(0.0 497.8059370601045 265.72159090909093 ) " />
                  <path fill="#1a3955" stroke="#1a3955" stroke-opacity="0.0" stroke-width="0.0" d="M367.091030173425 252.0027934917702 L367.091030173425 252.0027934917702 L371.49103017342503 259.6238170450733 L362.691030173425 259.6238170450733 Z" transform="rotate(0.0 367.091030173425 257.0378787878788 ) " />
                  <path fill="#132b43" stroke="#132b43" stroke-opacity="0.0" stroke-width="0.0" d="M367.091030173425 286.73764197661876 L367.091030173425 286.73764197661876 L371.49103017342503 294.3586655299218 L362.691030173425 294.3586655299218 Z" transform="rotate(0.0 367.091030173425 291.7727272727273 ) " />
                  <path fill="#1c3d5c" stroke="#1c3d5c" stroke-opacity="0.0" stroke-width="0.0" d="M367.091030173425 243.31908137055808 L367.091030173425 243.31908137055808 L371.49103017342503 250.94010492386116 L362.691030173425 250.94010492386116 Z" transform="rotate(0.0 367.091030173425 248.35416666666669 ) " />
                  <path fill="#1c3d5c" stroke="#1c3d5c" stroke-opacity="0.0" stroke-width="0.0" d="M367.091030173425 243.31908137055808 L367.091030173425 243.31908137055808 L371.49103017342503 250.94010492386116 L362.691030173425 250.94010492386116 Z" transform="rotate(0.0 367.091030173425 248.35416666666669 ) " />
                  <path fill="#1a3955" stroke="#1a3955" stroke-opacity="0.0" stroke-width="0.0" d="M367.091030173425 252.0027934917702 L367.091030173425 252.0027934917702 L371.49103017342503 259.6238170450733 L362.691030173425 259.6238170450733 Z" transform="rotate(0.0 367.091030173425 257.0378787878788 ) " />
                  <path fill="#132b43" stroke="#132b43" stroke-opacity="0.0" stroke-width="0.0" d="M367.091030173425 286.73764197661876 L367.091030173425 286.73764197661876 L371.49103017342503 294.3586655299218 L362.691030173425 294.3586655299218 Z" transform="rotate(0.0 367.091030173425 291.7727272727273 ) " />
                  <path fill="#18344f" stroke="#18344f" stroke-opacity="0.0" stroke-width="0.0" d="M421.5555747095415 260.6865056129824 L421.5555747095415 260.6865056129824 L425.9555747095415 268.3075291662854 L417.1555747095415 268.3075291662854 Z" transform="rotate(0.0 421.5555747095415 265.72159090909093 ) " />
                  <path fill="#18344f" stroke="#18344f" stroke-opacity="0.0" stroke-width="0.0" d="M421.5555747095415 252.0027934917702 L421.5555747095415 252.0027934917702 L425.9555747095415 259.6238170450733 L417.1555747095415 259.6238170450733 Z" transform="rotate(0.0 421.5555747095415 257.0378787878788 ) " />
                  <path fill="#1c3d5c" stroke="#1c3d5c" stroke-opacity="0.0" stroke-width="0.0" d="M476.02011924565795 243.31908137055808 L476.02011924565795 243.31908137055808 L480.420119245658 250.94010492386116 L471.620119245658 250.94010492386116 Z" transform="rotate(0.0 476.02011924565795 248.35416666666669 ) " />
                  <path fill="#18344f" stroke="#18344f" stroke-opacity="0.0" stroke-width="0.0" d="M497.8059370601045 260.6865056129824 L497.8059370601045 260.6865056129824 L502.20593706010453 268.3075291662854 L493.4059370601045 268.3075291662854 Z" transform="rotate(0.0 497.8059370601045 265.72159090909093 ) " />
                  <rect fill="#18344f" stroke="#18344f" stroke-opacity="0.0" stroke-width="0.0" x="351.79812126620175" y="243.95416666666668" height="8.8" width="8.8" transform="rotate(0.0 356.1981212662017 248.35416666666669 ) " />
                  <rect fill="#18344f" stroke="#18344f" stroke-opacity="0.0" stroke-width="0.0" x="438.94139252398804" y="243.95416666666668" height="8.8" width="8.8" transform="rotate(0.0 443.341392523988 248.35416666666669 ) " />
                  <rect fill="#1a3955" stroke="#1a3955" stroke-opacity="0.0" stroke-width="0.0" x="438.94139252398804" y="235.27045454545456" height="8.8" width="8.8" transform="rotate(0.0 443.341392523988 239.67045454545456 ) " />
                  <path fill="#1f4262" stroke="#1f4262" stroke-opacity="0.0" stroke-width="0.0" d="M290.840667822862 243.31908137055808 L290.840667822862 243.31908137055808 L295.240667822862 250.94010492386116 L286.440667822862 250.94010492386116 Z" transform="rotate(0.0 290.840667822862 248.35416666666669 ) " />
                  <path fill="#214769" stroke="#214769" stroke-opacity="0.0" stroke-width="0.0" d="M290.840667822862 225.95165712813383 L290.840667822862 225.95165712813383 L295.240667822862 233.5726806814369 L286.440667822862 233.5726806814369 Z" transform="rotate(0.0 290.840667822862 230.98674242424244 ) " />
                  <path fill="#1f4262" stroke="#1f4262" stroke-opacity="0.0" stroke-width="0.0" d="M290.840667822862 243.31908137055808 L290.840667822862 243.31908137055808 L295.240667822862 250.94010492386116 L286.440667822862 250.94010492386116 Z" transform="rotate(0.0 290.840667822862 248.35416666666669 ) " />
                  <path fill="#1c3d5c" stroke="#1c3d5c" stroke-opacity="0.0" stroke-width="0.0" d="M290.840667822862 225.95165712813383 L290.840667822862 225.95165712813383 L295.240667822862 233.5726806814369 L286.440667822862 233.5726806814369 Z" transform="rotate(0.0 290.840667822862 230.98674242424244 ) " />
                  <path fill="#1c3d5c" stroke="#1c3d5c" stroke-opacity="0.0" stroke-width="0.0" d="M356.1981212662017 225.95165712813383 L356.1981212662017 225.95165712813383 L360.59812126620176 233.5726806814369 L351.79812126620175 233.5726806814369 Z" transform="rotate(0.0 356.1981212662017 230.98674242424244 ) " />
                  <path fill="#1c3d5c" stroke="#1c3d5c" stroke-opacity="0.0" stroke-width="0.0" d="M399.7697568950948 243.31908137055808 L399.7697568950948 243.31908137055808 L404.16975689509485 250.94010492386116 L395.36975689509484 250.94010492386116 Z" transform="rotate(0.0 399.7697568950948 248.35416666666669 ) " />
                  <path fill="#1f4262" stroke="#1f4262" stroke-opacity="0.0" stroke-width="0.0" d="M312.6264856373085 243.31908137055808 L312.6264856373085 243.31908137055808 L317.02648563730855 250.94010492386116 L308.22648563730854 250.94010492386116 Z" transform="rotate(0.0 312.6264856373085 248.35416666666669 ) " />
                  <path fill="#1f4262" stroke="#1f4262" stroke-opacity="0.0" stroke-width="0.0" d="M312.6264856373085 243.31908137055808 L312.6264856373085 243.31908137055808 L317.02648563730855 250.94010492386116 L308.22648563730854 250.94010492386116 Z" transform="rotate(0.0 312.6264856373085 248.35416666666669 ) " />
                  <path fill="#1c3d5c" stroke="#1c3d5c" stroke-opacity="0.0" stroke-width="0.0" d="M356.1981212662017 252.0027934917702 L356.1981212662017 252.0027934917702 L360.59812126620176 259.6238170450733 L351.79812126620175 259.6238170450733 Z" transform="rotate(0.0 356.1981212662017 257.0378787878788 ) " />
                  <path fill="#1c3d5c" stroke="#1c3d5c" stroke-opacity="0.0" stroke-width="0.0" d="M356.1981212662017 252.0027934917702 L356.1981212662017 252.0027934917702 L360.59812126620176 259.6238170450733 L351.79812126620175 259.6238170450733 Z" transform="rotate(0.0 356.1981212662017 257.0378787878788 ) " />
                  <path fill="#1c3d5c" stroke="#1c3d5c" stroke-opacity="0.0" stroke-width="0.0" d="M356.1981212662017 243.31908137055808 L356.1981212662017 243.31908137055808 L360.59812126620176 250.94010492386116 L351.79812126620175 250.94010492386116 Z" transform="rotate(0.0 356.1981212662017 248.35416666666669 ) " />
                  <path fill="#18344f" stroke="#18344f" stroke-opacity="0.0" stroke-width="0.0" d="M443.341392523988 260.6865056129824 L443.341392523988 260.6865056129824 L447.74139252398805 268.3075291662854 L438.94139252398804 268.3075291662854 Z" transform="rotate(0.0 443.341392523988 265.72159090909093 ) " />
                  <path fill="#1c3d5c" stroke="#1c3d5c" stroke-opacity="0.0" stroke-width="0.0" d="M443.341392523988 243.31908137055808 L443.341392523988 243.31908137055808 L447.74139252398805 250.94010492386116 L438.94139252398804 250.94010492386116 Z" transform="rotate(0.0 443.341392523988 248.35416666666669 ) " />
                  <rect fill="#29567d" stroke="#29567d" stroke-opacity="0.0" stroke-width="0.0" x="264.65485000841534" y="165.8007575757576" height="8.8" width="8.8" transform="rotate(0.0 269.0548500084153 170.2007575757576 ) " />
                  <rect fill="#29567d" stroke="#29567d" stroke-opacity="0.0" stroke-width="0.0" x="264.65485000841534" y="174.4844696969697" height="8.8" width="8.8" transform="rotate(0.0 269.0548500084153 178.88446969696972 ) " />
                  <rect fill="#265176" stroke="#265176" stroke-opacity="0.0" stroke-width="0.0" x="286.440667822862" y="165.8007575757576" height="8.8" width="8.8" transform="rotate(0.0 290.840667822862 170.2007575757576 ) " />
                  <rect fill="#244c6f" stroke="#244c6f" stroke-opacity="0.0" stroke-width="0.0" x="286.440667822862" y="183.16818181818184" height="8.8" width="8.8" transform="rotate(0.0 290.840667822862 187.56818181818184 ) " />
                  <rect fill="#214769" stroke="#214769" stroke-opacity="0.0" stroke-width="0.0" x="351.79812126620175" y="209.2193181818182" height="8.8" width="8.8" transform="rotate(0.0 356.1981212662017 213.61931818181822 ) " />
                  <rect fill="#214769" stroke="#214769" stroke-opacity="0.0" stroke-width="0.0" x="351.79812126620175" y="200.53560606060609" height="8.8" width="8.8" transform="rotate(0.0 356.1981212662017 204.9356060606061 ) " />
                  <rect fill="#214769" stroke="#214769" stroke-opacity="0.0" stroke-width="0.0" x="351.79812126620175" y="191.85189393939396" height="8.8" width="8.8" transform="rotate(0.0 356.1981212662017 196.25189393939397 ) " />
                  <rect fill="#214769" stroke="#214769" stroke-opacity="0.0" stroke-width="0.0" x="351.79812126620175" y="200.53560606060609" height="8.8" width="8.8" transform="rotate(0.0 356.1981212662017 204.9356060606061 ) " />
                  <rect fill="#1f4262" stroke="#1f4262" stroke-opacity="0.0" stroke-width="0.0" x="438.94139252398804" y="217.9030303030303" height="8.8" width="8.8" transform="rotate(0.0 443.341392523988 222.3030303030303 ) " />
                  <circle fill="#438ac3" stroke="#438ac3" stroke-opacity="0.0" stroke-width="0.0" cx="29.410854049502888" cy="109.41477272727275" r="4.4" />
                  <circle fill="#3875a6" stroke="#3875a6" stroke-opacity="0.0" stroke-width="0.0" cx="29.410854049502888" cy="118.09848484848487" r="4.4" />
                  <circle fill="#3b7aad" stroke="#3b7aad" stroke-opacity="0.0" stroke-width="0.0" cx="29.410854049502888" cy="118.09848484848487" r="4.4" />
                  <circle fill="#356f9f" stroke="#356f9f" stroke-opacity="0.0" stroke-width="0.0" cx="29.410854049502888" cy="144.14962121212125" r="4.4" />
                  <circle fill="#3875a6" stroke="#3875a6" stroke-opacity="0.0" stroke-width="0.0" cx="29.410854049502888" cy="118.09848484848487" r="4.4" />
                  <circle fill="#3d7fb4" stroke="#3d7fb4" stroke-opacity="0.0" stroke-width="0.0" cx="51.19667186394949" cy="100.73106060606062" r="4.4" />
                  <circle fill="#3b7aad" stroke="#3b7aad" stroke-opacity="0.0" stroke-width="0.0" cx="51.19667186394949" cy="83.36363636363637" r="4.4" />
                  <circle fill="#3875a6" stroke="#3875a6" stroke-opacity="0.0" stroke-width="0.0" cx="51.19667186394949" cy="83.36363636363637" r="4.4" />
                  <circle fill="#306591" stroke="#306591" stroke-opacity="0.0" stroke-width="0.0" cx="72.98248967839606" cy="144.14962121212125" r="4.4" />
                  <circle fill="#29567d" stroke="#29567d" stroke-opacity="0.0" stroke-width="0.0" cx="116.55412530728924" cy="170.2007575757576" r="4.4" />
                  <circle fill="#29567d" stroke="#29567d" stroke-opacity="0.0" stroke-width="0.0" cx="116.55412530728924" cy="161.51704545454547" r="4.4" />
                  <circle fill="#306591" stroke="#306591" stroke-opacity="0.0" stroke-width="0.0" cx="116.55412530728924" cy="135.46590909090912" r="4.4" />
                  <circle fill="#306591" stroke="#306591" stroke-opacity="0.0" stroke-width="0.0" cx="116.55412530728924" cy="126.782196969697" r="4.4" />
                  <circle fill="#29567d" stroke="#29567d" stroke-opacity="0.0" stroke-width="0.0" cx="127.44703421451251" cy="170.2007575757576" r="4.4" />
                  <circle fill="#29567d" stroke="#29567d" stroke-opacity="0.0" stroke-width="0.0" cx="127.44703421451251" cy="170.2007575757576" r="4.4" />
                  <circle fill="#2b5b83" stroke="#2b5b83" stroke-opacity="0.0" stroke-width="0.0" cx="214.59030547229887" cy="152.83333333333337" r="4.4" />
                  <circle fill="#2b5b83" stroke="#2b5b83" stroke-opacity="0.0" stroke-width="0.0" cx="72.98248967839606" cy="170.2007575757576" r="4.4" />
                  <circle fill="#2b5b83" stroke="#2b5b83" stroke-opacity="0.0" stroke-width="0.0" cx="72.98248967839606" cy="144.14962121212125" r="4.4" />
                  <circle fill="#2e608a" stroke="#2e608a" stroke-opacity="0.0" stroke-width="0.0" cx="72.98248967839606" cy="152.83333333333337" r="4.4" />
                  <circle fill="#2e608a" stroke="#2e608a" stroke-opacity="0.0" stroke-width="0.0" cx="72.98248967839606" cy="161.51704545454547" r="4.4" />
                  <circle fill="#265176" stroke="#265176" stroke-opacity="0.0" stroke-width="0.0" cx="149.23285202895912" cy="187.56818181818184" r="4.4" />
                  <circle fill="#244c6f" stroke="#244c6f" stroke-opacity="0.0" stroke-width="0.0" cx="149.23285202895912" cy="187.56818181818184" r="4.4" />
                  <circle fill="#265176" stroke="#265176" stroke-opacity="0.0" stroke-width="0.0" cx="149.23285202895912" cy="187.56818181818184" r="4.4" />
                  <path fill="#265176" stroke="#265176" stroke-opacity="0.0" stroke-width="0.0" d="M181.911578750629 199.9005207644975 L181.911578750629 199.9005207644975 L186.311578750629 207.52154431780056 L177.51157875062898 207.52154431780056 Z" transform="rotate(0.0 181.911578750629 204.9356060606061 ) " />
                  <path fill="#214769" stroke="#214769" stroke-opacity="0.0" stroke-width="0.0" d="M258.16194110119204 225.95165712813383 L258.16194110119204 225.95165712813383 L262.561941101192 233.5726806814369 L253.76194110119204 233.5726806814369 Z" transform="rotate(0.0 258.16194110119204 230.98674242424244 ) " />
                  <path fill="#214769" stroke="#214769" stroke-opacity="0.0" stroke-width="0.0" d="M290.840667822862 217.2679450069217 L290.840667822862 217.2679450069217 L295.240667822862 224.88896856022478 L286.440667822862 224.88896856022478 Z" transform="rotate(0.0 290.840667822862 222.3030303030303 ) " />
                  <path fill="#1f4262" stroke="#1f4262" stroke-opacity="0.0" stroke-width="0.0" d="M367.091030173425 243.31908137055808 L367.091030173425 243.31908137055808 L371.49103017342503 250.94010492386116 L362.691030173425 250.94010492386116 Z" transform="rotate(0.0 367.091030173425 248.35416666666669 ) " />
                  <path fill="#132b43" stroke="#132b43" stroke-opacity="0.0" stroke-width="0.0" d="M367.091030173425 286.73764197661876 L367.091030173425 286.73764197661876 L371.49103017342503 294.3586655299218 L362.691030173425 294.3586655299218 Z" transform="rotate(0.0 367.091030173425 291.7727272727273 ) " />
                  <path fill="#1f4262" stroke="#1f4262" stroke-opacity="0.0" stroke-width="0.0" d="M367.091030173425 225.95165712813383 L367.091030173425 225.95165712813383 L371.49103017342503 233.5726806814369 L362.691030173425 233.5726806814369 Z" transform="rotate(0.0 367.091030173425 230.98674242424244 ) " />
                  <path fill="#1c3d5c" stroke="#1c3d5c" stroke-opacity="0.0" stroke-width="0.0" d="M476.02011924565795 234.63536924934596 L476.02011924565795 234.63536924934596 L480.420119245658 242.25639280264903 L471.620119245658 242.25639280264903 Z" transform="rotate(0.0 476.02011924565795 239.67045454545456 ) " />
                  <path fill="#18344f" stroke="#18344f" stroke-opacity="0.0" stroke-width="0.0" d="M519.591754874551 269.3702177341945 L519.591754874551 269.3702177341945 L523.991754874551 276.99124128749753 L515.1917548745511 276.99124128749753 Z" transform="rotate(0.0 519.591754874551 274.40530303030306 ) " />
                  <path fill="#18344f" stroke="#18344f" stroke-opacity="0.0" stroke-width="0.0" d="M290.840667822862 260.6865056129824 L290.840667822862 260.6865056129824 L295.240667822862 268.3075291662854 L286.440667822862 268.3075291662854 Z" transform="rotate(0.0 290.840667822862 265.72159090909093 ) " />
                  <path fill="#1a3955" stroke="#1a3955" stroke-opacity="0.0" stroke-width="0.0" d="M312.6264856373085 234.63536924934596 L312.6264856373085 234.63536924934596 L317.02648563730855 242.25639280264903 L308.22648563730854 242.25639280264903 Z" transform="rotate(0.0 312.6264856373085 239.67045454545456 ) " />
                  <path fill="#1a3955" stroke="#1a3955" stroke-opacity="0.0" stroke-width="0.0" d="M334.4123034517552 234.63536924934596 L334.4123034517552 234.63536924934596 L338.8123034517552 242.25639280264903 L330.0123034517552 242.25639280264903 Z" transform="rotate(0.0 334.4123034517552 239.67045454545456 ) " />
                  <path fill="#18344f" stroke="#18344f" stroke-opacity="0.0" stroke-width="0.0" d="M356.1981212662017 260.6865056129824 L356.1981212662017 260.6865056129824 L360.59812126620176 268.3075291662854 L351.79812126620175 268.3075291662854 Z" transform="rotate(0.0 356.1981212662017 265.72159090909093 ) " />
                  <rect fill="#18344f" stroke="#18344f" stroke-opacity="0.0" stroke-width="0.0" x="438.94139252398804" y="243.95416666666668" height="8.8" width="8.8" transform="rotate(0.0 443.341392523988 248.35416666666669 ) " />
                  <rect fill="#18344f" stroke="#18344f" stroke-opacity="0.0" stroke-width="0.0" x="438.94139252398804" y="252.6378787878788" height="8.8" width="8.8" transform="rotate(0.0 443.341392523988 257.0378787878788 ) " />
                  <rect fill="#1a3955" stroke="#1a3955" stroke-opacity="0.0" stroke-width="0.0" x="438.94139252398804" y="235.27045454545456" height="8.8" width="8.8" transform="rotate(0.0 443.341392523988 239.67045454545456 ) " />
                  <path fill="#1f4262" stroke="#1f4262" stroke-opacity="0.0" stroke-width="0.0" d="M290.840667822862 243.31908137055808 L290.840667822862 243.31908137055808 L295.240667822862 250.94010492386116 L286.440667822862 250.94010492386116 Z" transform="rotate(0.0 290.840667822862 248.35416666666669 ) " />
                  <path fill="#1c3d5c" stroke="#1c3d5c" stroke-opacity="0.0" stroke-width="0.0" d="M290.840667822862 225.95165712813383 L290.840667822862 225.95165712813383 L295.240667822862 233.5726806814369 L286.440667822862 233.5726806814369 Z" transform="rotate(0.0 290.840667822862 230.98674242424244 ) " />
                  <path fill="#1c3d5c" stroke="#1c3d5c" stroke-opacity="0.0" stroke-width="0.0" d="M356.1981212662017 225.95165712813383 L356.1981212662017 225.95165712813383 L360.59812126620176 233.5726806814369 L351.79812126620175 233.5726806814369 Z" transform="rotate(0.0 356.1981212662017 230.98674242424244 ) " />
                  <path fill="#1c3d5c" stroke="#1c3d5c" stroke-opacity="0.0" stroke-width="0.0" d="M399.7697568950948 243.31908137055808 L399.7697568950948 243.31908137055808 L404.16975689509485 250.94010492386116 L395.36975689509484 250.94010492386116 Z" transform="rotate(0.0 399.7697568950948 248.35416666666669 ) " />
                  <circle fill="#306591" stroke="#306591" stroke-opacity="0.0" stroke-width="0.0" cx="116.55412530728924" cy="144.14962121212125" r="4.4" />
                  <circle fill="#2b5b83" stroke="#2b5b83" stroke-opacity="0.0" stroke-width="0.0" cx="116.55412530728924" cy="161.51704545454547" r="4.4" />
                  <circle fill="#356f9f" stroke="#356f9f" stroke-opacity="0.0" stroke-width="0.0" cx="127.44703421451251" cy="126.782196969697" r="4.4" />
                  <circle fill="#356f9f" stroke="#356f9f" stroke-opacity="0.0" stroke-width="0.0" cx="127.44703421451251" cy="118.09848484848487" r="4.4" />
                  <circle fill="#2b5b83" stroke="#2b5b83" stroke-opacity="0.0" stroke-width="0.0" cx="236.37612328674547" cy="161.51704545454547" r="4.4" />
                  <circle fill="#2b5b83" stroke="#2b5b83" stroke-opacity="0.0" stroke-width="0.0" cx="236.37612328674547" cy="170.2007575757576" r="4.4" />
                  <circle fill="#29567d" stroke="#29567d" stroke-opacity="0.0" stroke-width="0.0" cx="181.911578750629" cy="170.2007575757576" r="4.4" />
                  <circle fill="#2b5b83" stroke="#2b5b83" stroke-opacity="0.0" stroke-width="0.0" cx="181.911578750629" cy="178.88446969696972" r="4.4" />
                  <circle fill="#2b5b83" stroke="#2b5b83" stroke-opacity="0.0" stroke-width="0.0" cx="236.37612328674547" cy="178.88446969696972" r="4.4" />
                  <path fill="#1f4262" stroke="#1f4262" stroke-opacity="0.0" stroke-width="0.0" d="M214.59030547229887 243.31908137055808 L214.59030547229887 243.31908137055808 L218.99030547229887 250.94010492386116 L210.19030547229886 250.94010492386116 Z" transform="rotate(0.0 214.59030547229887 248.35416666666669 ) " />
                  <path fill="#214769" stroke="#214769" stroke-opacity="0.0" stroke-width="0.0" d="M214.59030547229887 243.31908137055808 L214.59030547229887 243.31908137055808 L218.99030547229887 250.94010492386116 L210.19030547229886 250.94010492386116 Z" transform="rotate(0.0 214.59030547229887 248.35416666666669 ) " />
                  <path fill="#1f4262" stroke="#1f4262" stroke-opacity="0.0" stroke-width="0.0" d="M290.840667822862 217.2679450069217 L290.840667822862 217.2679450069217 L295.240667822862 224.88896856022478 L286.440667822862 224.88896856022478 Z" transform="rotate(0.0 290.840667822862 222.3030303030303 ) " />
                  <path fill="#1a3955" stroke="#1a3955" stroke-opacity="0.0" stroke-width="0.0" d="M465.12721033843457 234.63536924934596 L465.12721033843457 234.63536924934596 L469.5272103384346 242.25639280264903 L460.7272103384346 242.25639280264903 Z" transform="rotate(0.0 465.12721033843457 239.67045454545456 ) " />
                  <circle fill="#29567d" stroke="#29567d" stroke-opacity="0.0" stroke-width="0.0" cx="192.80448765785232" cy="170.2007575757576" r="4.4" />
                  <circle fill="#244c6f" stroke="#244c6f" stroke-opacity="0.0" stroke-width="0.0" cx="269.0548500084153" cy="170.2007575757576" r="4.4" />
                  <circle fill="#265176" stroke="#265176" stroke-opacity="0.0" stroke-width="0.0" cx="269.0548500084153" cy="161.51704545454547" r="4.4" />
                  <circle fill="#29567d" stroke="#29567d" stroke-opacity="0.0" stroke-width="0.0" cx="269.0548500084153" cy="152.83333333333337" r="4.4" />
                  <circle fill="#244c6f" stroke="#244c6f" stroke-opacity="0.0" stroke-width="0.0" cx="432.44848361676475" cy="178.88446969696972" r="4.4" />
                  <path fill="#29567d" stroke="#29567d" stroke-opacity="0.0" stroke-width="0.0" d="M127.44703421451251 173.8493844008611 L127.44703421451251 173.8493844008611 L131.84703421451252 181.4704079541642 L123.04703421451251 181.4704079541642 Z" transform="rotate(0.0 127.44703421451251 178.88446969696972 ) " />
                  <path fill="#29567d" stroke="#29567d" stroke-opacity="0.0" stroke-width="0.0" d="M127.44703421451251 182.53309652207324 L127.44703421451251 182.53309652207324 L131.84703421451252 190.1541200753763 L123.04703421451251 190.1541200753763 Z" transform="rotate(0.0 127.44703421451251 187.56818181818184 ) " />
                  <path fill="#2e608a" stroke="#2e608a" stroke-opacity="0.0" stroke-width="0.0" d="M127.44703421451251 156.48196015843686 L127.44703421451251 156.48196015843686 L131.84703421451252 164.10298371173994 L123.04703421451251 164.10298371173994 Z" transform="rotate(0.0 127.44703421451251 161.51704545454547 ) " />
                  <path fill="#2b5b83" stroke="#2b5b83" stroke-opacity="0.0" stroke-width="0.0" d="M127.44703421451251 173.8493844008611 L127.44703421451251 173.8493844008611 L131.84703421451252 181.4704079541642 L123.04703421451251 181.4704079541642 Z" transform="rotate(0.0 127.44703421451251 178.88446969696972 ) " />
                  <path fill="#2e608a" stroke="#2e608a" stroke-opacity="0.0" stroke-width="0.0" d="M127.44703421451251 165.165672279649 L127.44703421451251 165.165672279649 L131.84703421451252 172.78669583295206 L123.04703421451251 172.78669583295206 Z" transform="rotate(0.0 127.44703421451251 170.2007575757576 ) " />
                  <path fill="#29567d" stroke="#29567d" stroke-opacity="0.0" stroke-width="0.0" d="M127.44703421451251 191.21680864328536 L127.44703421451251 191.21680864328536 L131.84703421451252 198.83783219658844 L123.04703421451251 198.83783219658844 Z" transform="rotate(0.0 127.44703421451251 196.25189393939397 ) " />
                  <path fill="#306591" stroke="#306591" stroke-opacity="0.0" stroke-width="0.0" d="M94.76830749284267 165.165672279649 L94.76830749284267 165.165672279649 L99.16830749284266 172.78669583295206 L90.36830749284266 172.78669583295206 Z" transform="rotate(0.0 94.76830749284267 170.2007575757576 ) " />
                  <path fill="#2b5b83" stroke="#2b5b83" stroke-opacity="0.0" stroke-width="0.0" d="M94.76830749284267 165.165672279649 L94.76830749284267 165.165672279649 L99.16830749284266 172.78669583295206 L90.36830749284266 172.78669583295206 Z" transform="rotate(0.0 94.76830749284267 170.2007575757576 ) " />
                  <path fill="#2b5b83" stroke="#2b5b83" stroke-opacity="0.0" stroke-width="0.0" d="M127.44703421451251 165.165672279649 L127.44703421451251 165.165672279649 L131.84703421451252 172.78669583295206 L123.04703421451251 172.78669583295206 Z" transform="rotate(0.0 127.44703421451251 170.2007575757576 ) " />
                  <path fill="#2b5b83" stroke="#2b5b83" stroke-opacity="0.0" stroke-width="0.0" d="M127.44703421451251 165.165672279649 L127.44703421451251 165.165672279649 L131.84703421451252 172.78669583295206 L123.04703421451251 172.78669583295206 Z" transform="rotate(0.0 127.44703421451251 170.2007575757576 ) " />
                  <path fill="#2e608a" stroke="#2e608a" stroke-opacity="0.0" stroke-width="0.0" d="M127.44703421451251 173.8493844008611 L127.44703421451251 173.8493844008611 L131.84703421451252 181.4704079541642 L123.04703421451251 181.4704079541642 Z" transform="rotate(0.0 127.44703421451251 178.88446969696972 ) " />
                  <path fill="#2e608a" stroke="#2e608a" stroke-opacity="0.0" stroke-width="0.0" d="M127.44703421451251 156.48196015843686 L127.44703421451251 156.48196015843686 L131.84703421451252 164.10298371173994 L123.04703421451251 164.10298371173994 Z" transform="rotate(0.0 127.44703421451251 161.51704545454547 ) " />
                  <path fill="#2b5b83" stroke="#2b5b83" stroke-opacity="0.0" stroke-width="0.0" d="M127.44703421451251 173.8493844008611 L127.44703421451251 173.8493844008611 L131.84703421451252 181.4704079541642 L123.04703421451251 181.4704079541642 Z" transform="rotate(0.0 127.44703421451251 178.88446969696972 ) " />
                  <path fill="#2e608a" stroke="#2e608a" stroke-opacity="0.0" stroke-width="0.0" d="M127.44703421451251 156.48196015843686 L127.44703421451251 156.48196015843686 L131.84703421451252 164.10298371173994 L123.04703421451251 164.10298371173994 Z" transform="rotate(0.0 127.44703421451251 161.51704545454547 ) " />
                  <path fill="#214769" stroke="#214769" stroke-opacity="0.0" stroke-width="0.0" d="M149.23285202895912 217.2679450069217 L149.23285202895912 217.2679450069217 L153.63285202895912 224.88896856022478 L144.8328520289591 224.88896856022478 Z" transform="rotate(0.0 149.23285202895912 222.3030303030303 ) " />
                  <path fill="#244c6f" stroke="#244c6f" stroke-opacity="0.0" stroke-width="0.0" d="M149.23285202895912 217.2679450069217 L149.23285202895912 217.2679450069217 L153.63285202895912 224.88896856022478 L144.8328520289591 224.88896856022478 Z" transform="rotate(0.0 149.23285202895912 222.3030303030303 ) " />
                  <path fill="#214769" stroke="#214769" stroke-opacity="0.0" stroke-width="0.0" d="M225.4832143795222 225.95165712813383 L225.4832143795222 225.95165712813383 L229.8832143795222 233.5726806814369 L221.0832143795222 233.5726806814369 Z" transform="rotate(0.0 225.4832143795222 230.98674242424244 ) " />
                  <path fill="#214769" stroke="#214769" stroke-opacity="0.0" stroke-width="0.0" d="M225.4832143795222 243.31908137055808 L225.4832143795222 243.31908137055808 L229.8832143795222 250.94010492386116 L221.0832143795222 250.94010492386116 Z" transform="rotate(0.0 225.4832143795222 248.35416666666669 ) " />
                  <path fill="#244c6f" stroke="#244c6f" stroke-opacity="0.0" stroke-width="0.0" d="M290.840667822862 217.2679450069217 L290.840667822862 217.2679450069217 L295.240667822862 224.88896856022478 L286.440667822862 224.88896856022478 Z" transform="rotate(0.0 290.840667822862 222.3030303030303 ) " />
                  <path fill="#1f4262" stroke="#1f4262" stroke-opacity="0.0" stroke-width="0.0" d="M367.091030173425 243.31908137055808 L367.091030173425 243.31908137055808 L371.49103017342503 250.94010492386116 L362.691030173425 250.94010492386116 Z" transform="rotate(0.0 367.091030173425 248.35416666666669 ) " />
                  <circle fill="#306591" stroke="#306591" stroke-opacity="0.0" stroke-width="0.0" cx="94.76830749284267" cy="144.14962121212125" r="4.4" />
                  <circle fill="#306591" stroke="#306591" stroke-opacity="0.0" stroke-width="0.0" cx="94.76830749284267" cy="161.51704545454547" r="4.4" />
                  <circle fill="#306591" stroke="#306591" stroke-opacity="0.0" stroke-width="0.0" cx="116.55412530728924" cy="126.782196969697" r="4.4" />
                  <circle fill="#306591" stroke="#306591" stroke-opacity="0.0" stroke-width="0.0" cx="116.55412530728924" cy="126.782196969697" r="4.4" />
                  <circle fill="#29567d" stroke="#29567d" stroke-opacity="0.0" stroke-width="0.0" cx="181.911578750629" cy="170.2007575757576" r="4.4" />
                  <circle fill="#29567d" stroke="#29567d" stroke-opacity="0.0" stroke-width="0.0" cx="181.911578750629" cy="170.2007575757576" r="4.4" />
                  <circle fill="#2b5b83" stroke="#2b5b83" stroke-opacity="0.0" stroke-width="0.0" cx="236.37612328674547" cy="152.83333333333337" r="4.4" />
                  <circle fill="#306591" stroke="#306591" stroke-opacity="0.0" stroke-width="0.0" cx="94.76830749284267" cy="161.51704545454547" r="4.4" />
                  <circle fill="#306591" stroke="#306591" stroke-opacity="0.0" stroke-width="0.0" cx="94.76830749284267" cy="144.14962121212125" r="4.4" />
                  <circle fill="#306591" stroke="#306591" stroke-opacity="0.0" stroke-width="0.0" cx="116.55412530728924" cy="126.782196969697" r="4.4" />
                  <circle fill="#336a98" stroke="#336a98" stroke-opacity="0.0" stroke-width="0.0" cx="116.55412530728924" cy="126.782196969697" r="4.4" />
                  <circle fill="#29567d" stroke="#29567d" stroke-opacity="0.0" stroke-width="0.0" cx="181.911578750629" cy="170.2007575757576" r="4.4" />
                  <circle fill="#29567d" stroke="#29567d" stroke-opacity="0.0" stroke-width="0.0" cx="181.911578750629" cy="170.2007575757576" r="4.4" />
                  <circle fill="#29567d" stroke="#29567d" stroke-opacity="0.0" stroke-width="0.0" cx="214.59030547229887" cy="161.51704545454547" r="4.4" />
                  <circle fill="#3875a6" stroke="#3875a6" stroke-opacity="0.0" stroke-width="0.0" cx="51.19667186394949" cy="135.46590909090912" r="4.4" />
                  <circle fill="#3875a6" stroke="#3875a6" stroke-opacity="0.0" stroke-width="0.0" cx="51.19667186394949" cy="109.41477272727275" r="4.4" />
                  <circle fill="#3d7fb4" stroke="#3d7fb4" stroke-opacity="0.0" stroke-width="0.0" cx="51.19667186394949" cy="92.0473484848485" r="4.4" />
                  <circle fill="#438ac3" stroke="#438ac3" stroke-opacity="0.0" stroke-width="0.0" cx="51.19667186394949" cy="74.67992424242425" r="4.4" />
                  <circle fill="#3d7fb4" stroke="#3d7fb4" stroke-opacity="0.0" stroke-width="0.0" cx="51.19667186394949" cy="92.0473484848485" r="4.4" />
                  <path fill="#18344f" stroke="#18344f" stroke-opacity="0.0" stroke-width="0.0" d="M367.091030173425 260.6865056129824 L367.091030173425 260.6865056129824 L371.49103017342503 268.3075291662854 L362.691030173425 268.3075291662854 Z" transform="rotate(0.0 367.091030173425 265.72159090909093 ) " />
                  <path fill="#1c3d5c" stroke="#1c3d5c" stroke-opacity="0.0" stroke-width="0.0" d="M476.02011924565795 234.63536924934596 L476.02011924565795 234.63536924934596 L480.420119245658 242.25639280264903 L471.620119245658 242.25639280264903 Z" transform="rotate(0.0 476.02011924565795 239.67045454545456 ) " />
                  <path fill="#214769" stroke="#214769" stroke-opacity="0.0" stroke-width="0.0" d="M149.23285202895912 217.2679450069217 L149.23285202895912 217.2679450069217 L153.63285202895912 224.88896856022478 L144.8328520289591 224.88896856022478 Z" transform="rotate(0.0 149.23285202895912 222.3030303030303 ) " />
                  <path fill="#244c6f" stroke="#244c6f" stroke-opacity="0.0" stroke-width="0.0" d="M149.23285202895912 217.2679450069217 L149.23285202895912 217.2679450069217 L153.63285202895912 224.88896856022478 L144.8328520289591 224.88896856022478 Z" transform="rotate(0.0 149.23285202895912 222.3030303030303 ) " />
                  <path fill="#265176" stroke="#265176" stroke-opacity="0.0" stroke-width="0.0" d="M149.23285202895912 199.9005207644975 L149.23285202895912 199.9005207644975 L153.63285202895912 207.52154431780056 L144.8328520289591 207.52154431780056 Z" transform="rotate(0.0 149.23285202895912 204.9356060606061 ) " />
                  <path fill="#214769" stroke="#214769" stroke-opacity="0.0" stroke-width="0.0" d="M225.4832143795222 243.31908137055808 L225.4832143795222 243.31908137055808 L229.8832143795222 250.94010492386116 L221.0832143795222 250.94010492386116 Z" transform="rotate(0.0 225.4832143795222 248.35416666666669 ) " />
                  <path fill="#214769" stroke="#214769" stroke-opacity="0.0" stroke-width="0.0" d="M225.4832143795222 225.95165712813383 L225.4832143795222 225.95165712813383 L229.8832143795222 233.5726806814369 L221.0832143795222 233.5726806814369 Z" transform="rotate(0.0 225.4832143795222 230.98674242424244 ) " />
                  <path fill="#214769" stroke="#214769" stroke-opacity="0.0" stroke-width="0.0" d="M290.840667822862 234.63536924934596 L290.840667822862 234.63536924934596 L295.240667822862 242.25639280264903 L286.440667822862 242.25639280264903 Z" transform="rotate(0.0 290.840667822862 239.67045454545456 ) " />
                  <path fill="#244c6f" stroke="#244c6f" stroke-opacity="0.0" stroke-width="0.0" d="M290.840667822862 217.2679450069217 L290.840667822862 217.2679450069217 L295.240667822862 224.88896856022478 L286.440667822862 224.88896856022478 Z" transform="rotate(0.0 290.840667822862 222.3030303030303 ) " />
                  <circle fill="#306591" stroke="#306591" stroke-opacity="0.0" stroke-width="0.0" cx="72.98248967839606" cy="144.14962121212125" r="4.4" />
                  <circle fill="#2b5b83" stroke="#2b5b83" stroke-opacity="0.0" stroke-width="0.0" cx="72.98248967839606" cy="170.2007575757576" r="4.4" />
                  <circle fill="#306591" stroke="#306591" stroke-opacity="0.0" stroke-width="0.0" cx="72.98248967839606" cy="144.14962121212125" r="4.4" />
                  <circle fill="#336a98" stroke="#336a98" stroke-opacity="0.0" stroke-width="0.0" cx="72.98248967839606" cy="144.14962121212125" r="4.4" />
                  <circle fill="#265176" stroke="#265176" stroke-opacity="0.0" stroke-width="0.0" cx="160.1257609361824" cy="187.56818181818184" r="4.4" />
                  <circle fill="#50a6e8" stroke="#50a6e8" stroke-opacity="0.0" stroke-width="0.0" cx="62.08958077117276" cy="13.893939393939434" r="4.4" />
                  <circle fill="#306591" stroke="#306591" stroke-opacity="0.0" stroke-width="0.0" cx="72.98248967839606" cy="144.14962121212125" r="4.4" />
                  <circle fill="#2b5b83" stroke="#2b5b83" stroke-opacity="0.0" stroke-width="0.0" cx="72.98248967839606" cy="170.2007575757576" r="4.4" />
                  <circle fill="#336a98" stroke="#336a98" stroke-opacity="0.0" stroke-width="0.0" cx="72.98248967839606" cy="144.14962121212125" r="4.4" />
                  <circle fill="#306591" stroke="#306591" stroke-opacity="0.0" stroke-width="0.0" cx="72.98248967839606" cy="144.14962121212125" r="4.4" />
                  <circle fill="#306591" stroke="#306591" stroke-opacity="0.0" stroke-width="0.0" cx="127.44703421451251" cy="144.14962121212125" r="4.4" />
                  <circle fill="#306591" stroke="#306591" stroke-opacity="0.0" stroke-width="0.0" cx="127.44703421451251" cy="144.14962121212125" r="4.4" />
                  <circle fill="#244c6f" stroke="#244c6f" stroke-opacity="0.0" stroke-width="0.0" cx="160.1257609361824" cy="196.25189393939397" r="4.4" />
                  <circle fill="#265176" stroke="#265176" stroke-opacity="0.0" stroke-width="0.0" cx="160.1257609361824" cy="187.56818181818184" r="4.4" />
                  <circle fill="#56b1f7" stroke="#56b1f7" stroke-opacity="0.0" stroke-width="0.0" cx="62.08958077117276" cy="13.893939393939434" r="4.4" />
                  <circle fill="#458fca" stroke="#458fca" stroke-opacity="0.0" stroke-width="0.0" cx="62.08958077117276" cy="39.94507575757581" r="4.4" />
                  <circle fill="#306591" stroke="#306591" stroke-opacity="0.0" stroke-width="0.0" cx="72.98248967839606" cy="144.14962121212125" r="4.4" />
                  <circle fill="#2b5b83" stroke="#2b5b83" stroke-opacity="0.0" stroke-width="0.0" cx="72.98248967839606" cy="170.2007575757576" r="4.4" />
                  <circle fill="#2e608a" stroke="#2e608a" stroke-opacity="0.0" stroke-width="0.0" cx="127.44703421451251" cy="152.83333333333337" r="4.4" />
                  <circle fill="#2e608a" stroke="#2e608a" stroke-opacity="0.0" stroke-width="0.0" cx="127.44703421451251" cy="144.14962121212125" r="4.4" />
                  <circle fill="#306591" stroke="#306591" stroke-opacity="0.0" stroke-width="0.0" cx="51.19667186394949" cy="144.14962121212125" r="4.4" />
                  <circle fill="#29567d" stroke="#29567d" stroke-opacity="0.0" stroke-width="0.0" cx="51.19667186394949" cy="144.14962121212125" r="4.4" />
                  <circle fill="#2b5b83" stroke="#2b5b83" stroke-opacity="0.0" stroke-width="0.0" cx="72.98248967839606" cy="152.83333333333337" r="4.4" />
                  <circle fill="#306591" stroke="#306591" stroke-opacity="0.0" stroke-width="0.0" cx="72.98248967839606" cy="144.14962121212125" r="4.4" />
                  <circle fill="#244c6f" stroke="#244c6f" stroke-opacity="0.0" stroke-width="0.0" cx="160.1257609361824" cy="170.2007575757576" r="4.4" />
                  <circle fill="#29567d" stroke="#29567d" stroke-opacity="0.0" stroke-width="0.0" cx="160.1257609361824" cy="170.2007575757576" r="4.4" />
                  <circle fill="#265176" stroke="#265176" stroke-opacity="0.0" stroke-width="0.0" cx="247.2690321939688" cy="170.2007575757576" r="4.4" />
                </g>
              </g>
            </g>
          </g>
        </g>
        <defs>
          <clipPath id="xXxprefixXx1">
            <rect x="21.961210910936405" y="0.0" width="647.0387890890636" height="305.6666666666667">
            </rect>
          </clipPath>
        </defs>
      </g>
      <g>
      </g>
    </g>
    <g transform="translate(16.0 159.33333333333334 ) rotate(-90.0 ) ">
      <text class="axis-title-y" y="0.0" text-anchor="middle">
        <tspan>hwy</tspan>
      </text>
    </g>
    <g transform="translate(374.9806054554682 357.6666666666667 ) ">
      <text class="axis-title-x" y="0.0" text-anchor="middle">
        <tspan>displ</tspan>
      </text>
    </g>
    <g transform="translate(229.51836544203212 369.6666666666667 ) ">
      <rect x="0.0" y="0.0" height="50.33333333333333" width="224.78867708962633" stroke="rgb(187,187,187)" stroke-opacity="1.0" stroke-width="0.0" fill="rgb(25,25,28)" fill-opacity="1.0">
      </rect>
      <g transform="translate(5.0 5.0 ) ">
        <g transform="translate(0.0 17.166666666666664 ) ">
          <text class="legend-title" y="0.0">
            <tspan>City mileage</tspan>
          </text>
          <text class="legend-title" y="15.0">
            <tspan>(mpg)</tspan>
          </text>
        </g>
        <g transform="translate(99.78867708962632 0.0 ) ">
          <g>
            <rect x="0.0" y="0.0" height="23.0" width="115.0" stroke-width="0.0" fill="rgb(20,46,71)" fill-opacity="1.0">
            </rect>
            <rect x="7.55" y="0.0" height="23.0" width="107.45" stroke-width="0.0" fill="rgb(24,52,79)" fill-opacity="1.0">
            </rect>
            <rect x="13.1" y="0.0" height="23.0" width="101.9" stroke-width="0.0" fill="rgb(27,58,87)" fill-opacity="1.0">
            </rect>
            <rect x="18.65" y="0.0" height="23.0" width="96.35" stroke-width="0.0" fill="rgb(30,64,95)" fill-opacity="1.0">
            </rect>
            <rect x="24.2" y="0.0" height="23.0" width="90.8" stroke-width="0.0" fill="rgb(33,70,104)" fill-opacity="1.0">
            </rect>
            <rect x="29.75" y="0.0" height="23.0" width="85.25" stroke-width="0.0" fill="rgb(36,77,112)" fill-opacity="1.0">
            </rect>
            <rect x="35.3" y="0.0" height="23.0" width="79.7" stroke-width="0.0" fill="rgb(39,83,121)" fill-opacity="1.0">
            </rect>
            <rect x="40.849999999999994" y="0.0" height="23.0" width="74.15" stroke-width="0.0" fill="rgb(42,90,130)" fill-opacity="1.0">
            </rect>
            <rect x="46.39999999999999" y="0.0" height="23.0" width="68.60000000000001" stroke-width="0.0" fill="rgb(46,96,138)" fill-opacity="1.0">
            </rect>
            <rect x="51.94999999999999" y="0.0" height="23.0" width="63.05000000000001" stroke-width="0.0" fill="rgb(49,103,147)" fill-opacity="1.0">
            </rect>
            <rect x="57.499999999999986" y="0.0" height="23.0" width="57.500000000000014" stroke-width="0.0" fill="rgb(52,110,156)" fill-opacity="1.0">
            </rect>
            <rect x="63.04999999999998" y="0.0" height="23.0" width="51.95000000000002" stroke-width="0.0" fill="rgb(56,116,166)" fill-opacity="1.0">
            </rect>
            <rect x="68.59999999999998" y="0.0" height="23.0" width="46.40000000000002" stroke-width="0.0" fill="rgb(59,123,175)" fill-opacity="1.0">
            </rect>
            <rect x="74.14999999999998" y="0.0" height="23.0" width="40.85000000000002" stroke-width="0.0" fill="rgb(63,130,184)" fill-opacity="1.0">
            </rect>
            <rect x="79.69999999999997" y="0.0" height="23.0" width="35.300000000000026" stroke-width="0.0" fill="rgb(66,137,194)" fill-opacity="1.0">
            </rect>
            <rect x="85.24999999999997" y="0.0" height="23.0" width="29.75000000000003" stroke-width="0.0" fill="rgb(70,144,203)" fill-opacity="1.0">
            </rect>
            <rect x="90.79999999999997" y="0.0" height="23.0" width="24.20000000000003" stroke-width="0.0" fill="rgb(73,151,213)" fill-opacity="1.0">
            </rect>
            <rect x="96.34999999999997" y="0.0" height="23.0" width="18.650000000000034" stroke-width="0.0" fill="rgb(77,159,222)" fill-opacity="1.0">
            </rect>
            <rect x="101.89999999999996" y="0.0" height="23.0" width="13.100000000000037" stroke-width="0.0" fill="rgb(81,166,232)" fill-opacity="1.0">
            </rect>
            <rect x="107.44999999999996" y="0.0" height="23.0" width="7.55000000000004" stroke-width="0.0" fill="rgb(84,173,242)" fill-opacity="1.0">
            </rect>
            <line x1="6.269230769230774" y1="0.0" x2="6.269230769230774" y2="4.6" stroke-width="1.0" stroke="rgb(25,25,28)" stroke-opacity="1.0">
            </line>
            <line x1="6.269230769230774" y1="18.4" x2="6.269230769230774" y2="23.0" stroke-width="1.0" stroke="rgb(25,25,28)" stroke-opacity="1.0">
            </line>
            <g transform="translate(6.269230769230774 36.43333333333333 ) ">
              <text class="legend-item" text-anchor="middle" y="0.0">
                <tspan>10</tspan>
              </text>
            </g>
            <line x1="27.615384615384613" y1="0.0" x2="27.615384615384613" y2="4.6" stroke-width="1.0" stroke="rgb(25,25,28)" stroke-opacity="1.0">
            </line>
            <line x1="27.615384615384613" y1="18.4" x2="27.615384615384613" y2="23.0" stroke-width="1.0" stroke="rgb(25,25,28)" stroke-opacity="1.0">
            </line>
            <g transform="translate(27.615384615384613 36.43333333333333 ) ">
              <text class="legend-item" text-anchor="middle" y="0.0">
                <tspan>15</tspan>
              </text>
            </g>
            <line x1="48.96153846153847" y1="0.0" x2="48.96153846153847" y2="4.6" stroke-width="1.0" stroke="rgb(25,25,28)" stroke-opacity="1.0">
            </line>
            <line x1="48.96153846153847" y1="18.4" x2="48.96153846153847" y2="23.0" stroke-width="1.0" stroke="rgb(25,25,28)" stroke-opacity="1.0">
            </line>
            <g transform="translate(48.96153846153847 36.43333333333333 ) ">
              <text class="legend-item" text-anchor="middle" y="0.0">
                <tspan>20</tspan>
              </text>
            </g>
            <line x1="70.3076923076923" y1="0.0" x2="70.3076923076923" y2="4.6" stroke-width="1.0" stroke="rgb(25,25,28)" stroke-opacity="1.0">
            </line>
            <line x1="70.3076923076923" y1="18.4" x2="70.3076923076923" y2="23.0" stroke-width="1.0" stroke="rgb(25,25,28)" stroke-opacity="1.0">
            </line>
            <g transform="translate(70.3076923076923 36.43333333333333 ) ">
              <text class="legend-item" text-anchor="middle" y="0.0">
                <tspan>25</tspan>
              </text>
            </g>
            <line x1="91.65384615384615" y1="0.0" x2="91.65384615384615" y2="4.6" stroke-width="1.0" stroke="rgb(25,25,28)" stroke-opacity="1.0">
            </line>
            <line x1="91.65384615384615" y1="18.4" x2="91.65384615384615" y2="23.0" stroke-width="1.0" stroke="rgb(25,25,28)" stroke-opacity="1.0">
            </line>
            <g transform="translate(91.65384615384615 36.43333333333333 ) ">
              <text class="legend-item" text-anchor="middle" y="0.0">
                <tspan>30</tspan>
              </text>
            </g>
            <line x1="113.00000000000001" y1="0.0" x2="113.00000000000001" y2="4.6" stroke-width="1.0" stroke="rgb(25,25,28)" stroke-opacity="1.0">
            </line>
            <line x1="113.00000000000001" y1="18.4" x2="113.00000000000001" y2="23.0" stroke-width="1.0" stroke="rgb(25,25,28)" stroke-opacity="1.0">
            </line>
            <g transform="translate(113.00000000000001 36.43333333333333 ) ">
              <text class="legend-item" text-anchor="middle" y="0.0">
                <tspan>35</tspan>
              </text>
            </g>
          </g>
        </g>
      </g>
    </g>
    <g transform="translate(229.51836544203212 430.0 ) ">
      <rect x="0.0" y="0.0" height="40.0" width="290.9244800268722" stroke="rgb(187,187,187)" stroke-opacity="1.0" stroke-width="0.0" fill="rgb(25,25,28)" fill-opacity="1.0">
      </rect>
      <g transform="translate(5.0 5.0 ) ">
        <g transform="translate(0.0 12.0 ) ">
          <text class="legend-title" y="0.0">
            <tspan>Drive type</tspan>
          </text>
          <text class="legend-title" y="15.0">
            <tspan>(front/4/rear wheel)</tspan>
          </text>
        </g>
        <g transform="translate(157.88416940310702 3.5 ) ">
          <g transform="">
            <g>
              <g transform="translate(1.0 1.0 ) ">
                <g>
                  <g >
                    <circle fill="#bbbbbb" stroke="#bbbbbb" stroke-opacity="0.0" stroke-width="0.0" cx="10.5" cy="10.5" r="5.5" />
                  </g>
                </g>
              </g>
            </g>
            <g transform="translate(26.9903027277341 16.05 ) ">
              <text class="legend-item" y="0.0">
                <tspan>f</tspan>
              </text>
            </g>
          </g>
          <g transform="translate(40.04439849254731 0.0 ) ">
            <g>
              <g transform="translate(1.0 1.0 ) ">
                <g>
                  <g >
                    <path fill="#bbbbbb" stroke="#bbbbbb" stroke-opacity="0.0" stroke-width="0.0" d="M10.5 5.736860279185588 L10.5 5.736860279185588 L16.0 15.263139720814412 L5.0 15.263139720814412 Z" transform="rotate(0.0 10.5 10.5 ) " />
                  </g>
                </g>
              </g>
            </g>
            <g transform="translate(26.9903027277341 16.05 ) ">
              <text class="legend-item" y="0.0">
                <tspan>4</tspan>
              </text>
            </g>
          </g>
          <g transform="translate(82.9959121312178 0.0 ) ">
            <g>
              <g transform="translate(1.0 1.0 ) ">
                <g>
                  <g >
                    <rect fill="#bbbbbb" stroke="#bbbbbb" stroke-opacity="0.0" stroke-width="0.0" x="5.0" y="5.0" height="11.0" width="11.0" transform="rotate(0.0 10.5 10.5 ) " />
                  </g>
                </g>
              </g>
            </g>
            <g transform="translate(26.9903027277341 16.05 ) ">
              <text class="legend-item" y="0.0">
                <tspan>r</tspan>
              </text>
            </g>
          </g>
        </g>
      </g>
    </g>
    <path fill="rgb(0,0,0)" fill-opacity="0.0" stroke="rgb(187,187,187)" stroke-opacity="1.0" stroke-width="0.0" d="M0.0 0.0 L0.0 470.0 L705.0 470.0 L705.0 0.0 Z" pointer-events="none">
    </path>
  </g>
  <g id="xXxprefixXx2">
  </g>
</svg>