<svg xmlns="http://www.w3.org/2000/svg" xmlns:xlink="http://www.w3.org/1999/xlink" display="block" class="plt-container" width="705.0" height="352.0">
  <style type="text/css">
  .plt-container {
   font-family: Lucida Grande, sans-serif;
   user-select: none;
   -webkit-user-select: none;
   -moz-user-select: none;
   -ms-user-select: none;
}
text {
   text-rendering: optimizeLegibility;
}
#xXxprefixXx0 .plot-title {
   fill: #474747;
   font-family: Lucida Grande, sans-serif;
   font-size: 16.0px;
   font-weight: normal;
   font-style: normal;   
}
#xXxprefixXx0 .plot-subtitle {
   fill: #474747;
   font-family: Lucida Grande, sans-serif;
   font-size: 15.0px;
   font-weight: normal;
   font-style: normal;   
}
#xXxprefixXx0 .plot-caption {
   fill: #474747;
   font-family: Lucida Grande, sans-serif;
   font-size: 13.0px;
   font-weight: normal;
   font-style: normal;   
}
#xXxprefixXx0 .legend-title {
   fill: #474747;
   font-family: Lucida Grande, sans-serif;
   font-size: 15.0px;
   font-weight: normal;
   font-style: normal;   
}
#xXxprefixXx0 .legend-item {
   fill: #474747;
   font-family: Lucida Grande, sans-serif;
   font-size: 13.0px;
   font-weight: normal;
   font-style: normal;   
}
#xXxprefixXx0 .axis-title-x {
   fill: #474747;
   font-family: Lucida Grande, sans-serif;
   font-size: 15.0px;
   font-weight: normal;
   font-style: normal;   
}
#xXxprefixXx0 .axis-text-x {
   fill: #474747;
   font-family: Lucida Grande, sans-serif;
   font-size: 13.0px;
   font-weight: normal;
   font-style: normal;   
}
#xXxprefixXx2 .axis-tooltip-text-x {
   fill: #ffffff;
   font-family: Lucida Grande, sans-serif;
   font-size: 13.0px;
   font-weight: normal;
   font-style: normal;   
}
#xXxprefixXx0 .axis-title-y {
   fill: #474747;
   font-family: Lucida Grande, sans-serif;
   font-size: 15.0px;
   font-weight: normal;
   font-style: normal;   
}
#xXxprefixXx0 .axis-text-y {
   fill: #474747;
   font-family: Lucida Grande, sans-serif;
   font-size: 13.0px;
   font-weight: normal;
   font-style: normal;   
}
#xXxprefixXx2 .axis-tooltip-text-y {
   fill: #ffffff;
   font-family: Lucida Grande, sans-serif;
   font-size: 13.0px;
   font-weight: normal;
   font-style: normal;   
}
#xXxprefixXx0 .facet-strip-text-x {
   fill: #474747;
   font-family: Lucida Grande, sans-serif;
   font-size: 13.0px;
   font-weight: normal;
   font-style: normal;   
}
#xXxprefixXx0 .facet-strip-text-y {
   fill: #474747;
   font-family: Lucida Grande, sans-serif;
   font-size: 13.0px;
   font-weight: normal;
   font-style: normal;   
}
#xXxprefixXx2 .tooltip-text {
   fill: #474747;
   font-family: Lucida Grande, sans-serif;
   font-size: 13.0px;
   font-weight: normal;
   font-style: normal;   
}
#xXxprefixXx2 .tooltip-title {
   fill: #474747;
   font-family: Lucida Grande, sans-serif;
   font-size: 13.0px;
   font-weight: bold;
   font-style: normal;   
}
#xXxprefixXx2 .tooltip-label {
   fill: #474747;
   font-family: Lucida Grande, sans-serif;
   font-size: 13.0px;
   font-weight: bold;
   font-style: normal;   
}

  </style>
  <g id="xXxprefixXx0">
    <path fill-rule="evenodd" fill="rgb(255,255,255)" fill-opacity="1.0" d="M0.0 0.0 L0.0 352.0 L705.0 352.0 L705.0 0.0 Z">
    </path>
    <g transform="translate(29.5 6.5 ) ">
      <g>
        <g transform="translate(21.961210910936405 0.0 ) ">
          <g>
            <line x1="18.517945142279586" y1="0.0" x2="18.517945142279586" y2="293.0" stroke="rgb(233,233,233)" stroke-opacity="1.0" stroke-width="1.0" fill="none">
            </line>
            <line x1="72.98248967839606" y1="0.0" x2="72.98248967839606" y2="293.0" stroke="rgb(233,233,233)" stroke-opacity="1.0" stroke-width="1.0" fill="none">
            </line>
            <line x1="127.44703421451251" y1="0.0" x2="127.44703421451251" y2="293.0" stroke="rgb(233,233,233)" stroke-opacity="1.0" stroke-width="1.0" fill="none">
            </line>
            <line x1="181.911578750629" y1="0.0" x2="181.911578750629" y2="293.0" stroke="rgb(233,233,233)" stroke-opacity="1.0" stroke-width="1.0" fill="none">
            </line>
            <line x1="236.37612328674547" y1="0.0" x2="236.37612328674547" y2="293.0" stroke="rgb(233,233,233)" stroke-opacity="1.0" stroke-width="1.0" fill="none">
            </line>
            <line x1="290.840667822862" y1="0.0" x2="290.840667822862" y2="293.0" stroke="rgb(233,233,233)" stroke-opacity="1.0" stroke-width="1.0" fill="none">
            </line>
            <line x1="345.30521235897845" y1="0.0" x2="345.30521235897845" y2="293.0" stroke="rgb(233,233,233)" stroke-opacity="1.0" stroke-width="1.0" fill="none">
            </line>
            <line x1="399.7697568950948" y1="0.0" x2="399.7697568950948" y2="293.0" stroke="rgb(233,233,233)" stroke-opacity="1.0" stroke-width="1.0" fill="none">
            </line>
            <line x1="454.2343014312113" y1="0.0" x2="454.2343014312113" y2="293.0" stroke="rgb(233,233,233)" stroke-opacity="1.0" stroke-width="1.0" fill="none">
            </line>
            <line x1="508.69884596732777" y1="0.0" x2="508.69884596732777" y2="293.0" stroke="rgb(233,233,233)" stroke-opacity="1.0" stroke-width="1.0" fill="none">
            </line>
            <line x1="563.1633905034442" y1="0.0" x2="563.1633905034442" y2="293.0" stroke="rgb(233,233,233)" stroke-opacity="1.0" stroke-width="1.0" fill="none">
            </line>
            <line x1="617.6279350395607" y1="0.0" x2="617.6279350395607" y2="293.0" stroke="rgb(233,233,233)" stroke-opacity="1.0" stroke-width="1.0" fill="none">
            </line>
          </g>
        </g>
        <g transform="translate(21.961210910936405 0.0 ) ">
          <g>
            <line x1="0.0" y1="254.7102272727273" x2="647.0387890890636" y2="254.7102272727273" stroke="rgb(233,233,233)" stroke-opacity="1.0" stroke-width="1.0" fill="none">
            </line>
            <line x1="0.0" y1="213.09090909090912" x2="647.0387890890636" y2="213.09090909090912" stroke="rgb(233,233,233)" stroke-opacity="1.0" stroke-width="1.0" fill="none">
            </line>
            <line x1="0.0" y1="171.47159090909093" x2="647.0387890890636" y2="171.47159090909093" stroke="rgb(233,233,233)" stroke-opacity="1.0" stroke-width="1.0" fill="none">
            </line>
            <line x1="0.0" y1="129.85227272727278" x2="647.0387890890636" y2="129.85227272727278" stroke="rgb(233,233,233)" stroke-opacity="1.0" stroke-width="1.0" fill="none">
            </line>
            <line x1="0.0" y1="88.23295454545462" x2="647.0387890890636" y2="88.23295454545462" stroke="rgb(233,233,233)" stroke-opacity="1.0" stroke-width="1.0" fill="none">
            </line>
            <line x1="0.0" y1="46.61363636363643" x2="647.0387890890636" y2="46.61363636363643" stroke="rgb(233,233,233)" stroke-opacity="1.0" stroke-width="1.0" fill="none">
            </line>
            <line x1="0.0" y1="4.994318181818244" x2="647.0387890890636" y2="4.994318181818244" stroke="rgb(233,233,233)" stroke-opacity="1.0" stroke-width="1.0" fill="none">
            </line>
          </g>
        </g>
        <g transform="translate(21.961210910936405 293.0 ) ">
          <g transform="translate(18.517945142279586 0.0 ) ">
            <line stroke-width="1.0" stroke="rgb(71,71,71)" stroke-opacity="1.0" x2="0.0" y2="4.0">
            </line>
            <g transform="translate(0.0 7.0 ) ">
              <text class="axis-text-x" text-anchor="middle" dy="0.7em">
                <tspan>1.5</tspan>
              </text>
            </g>
          </g>
          <g transform="translate(72.98248967839606 0.0 ) ">
            <line stroke-width="1.0" stroke="rgb(71,71,71)" stroke-opacity="1.0" x2="0.0" y2="4.0">
            </line>
            <g transform="translate(0.0 7.0 ) ">
              <text class="axis-text-x" text-anchor="middle" dy="0.7em">
                <tspan>2.0</tspan>
              </text>
            </g>
          </g>
          <g transform="translate(127.44703421451251 0.0 ) ">
            <line stroke-width="1.0" stroke="rgb(71,71,71)" stroke-opacity="1.0" x2="0.0" y2="4.0">
            </line>
            <g transform="translate(0.0 7.0 ) ">
              <text class="axis-text-x" text-anchor="middle" dy="0.7em">
                <tspan>2.5</tspan>
              </text>
            </g>
          </g>
          <g transform="translate(181.911578750629 0.0 ) ">
            <line stroke-width="1.0" stroke="rgb(71,71,71)" stroke-opacity="1.0" x2="0.0" y2="4.0">
            </line>
            <g transform="translate(0.0 7.0 ) ">
              <text class="axis-text-x" text-anchor="middle" dy="0.7em">
                <tspan>3.0</tspan>
              </text>
            </g>
          </g>
          <g transform="translate(236.37612328674547 0.0 ) ">
            <line stroke-width="1.0" stroke="rgb(71,71,71)" stroke-opacity="1.0" x2="0.0" y2="4.0">
            </line>
            <g transform="translate(0.0 7.0 ) ">
              <text class="axis-text-x" text-anchor="middle" dy="0.7em">
                <tspan>3.5</tspan>
              </text>
            </g>
          </g>
          <g transform="translate(290.840667822862 0.0 ) ">
            <line stroke-width="1.0" stroke="rgb(71,71,71)" stroke-opacity="1.0" x2="0.0" y2="4.0">
            </line>
            <g transform="translate(0.0 7.0 ) ">
              <text class="axis-text-x" text-anchor="middle" dy="0.7em">
                <tspan>4.0</tspan>
              </text>
            </g>
          </g>
          <g transform="translate(345.30521235897845 0.0 ) ">
            <line stroke-width="1.0" stroke="rgb(71,71,71)" stroke-opacity="1.0" x2="0.0" y2="4.0">
            </line>
            <g transform="translate(0.0 7.0 ) ">
              <text class="axis-text-x" text-anchor="middle" dy="0.7em">
                <tspan>4.5</tspan>
              </text>
            </g>
          </g>
          <g transform="translate(399.7697568950948 0.0 ) ">
            <line stroke-width="1.0" stroke="rgb(71,71,71)" stroke-opacity="1.0" x2="0.0" y2="4.0">
            </line>
            <g transform="translate(0.0 7.0 ) ">
              <text class="axis-text-x" text-anchor="middle" dy="0.7em">
                <tspan>5.0</tspan>
              </text>
            </g>
          </g>
          <g transform="translate(454.2343014312113 0.0 ) ">
            <line stroke-width="1.0" stroke="rgb(71,71,71)" stroke-opacity="1.0" x2="0.0" y2="4.0">
            </line>
            <g transform="translate(0.0 7.0 ) ">
              <text class="axis-text-x" text-anchor="middle" dy="0.7em">
                <tspan>5.5</tspan>
              </text>
            </g>
          </g>
          <g transform="translate(508.69884596732777 0.0 ) ">
            <line stroke-width="1.0" stroke="rgb(71,71,71)" stroke-opacity="1.0" x2="0.0" y2="4.0">
            </line>
            <g transform="translate(0.0 7.0 ) ">
              <text class="axis-text-x" text-anchor="middle" dy="0.7em">
                <tspan>6.0</tspan>
              </text>
            </g>
          </g>
          <g transform="translate(563.1633905034442 0.0 ) ">
            <line stroke-width="1.0" stroke="rgb(71,71,71)" stroke-opacity="1.0" x2="0.0" y2="4.0">
            </line>
            <g transform="translate(0.0 7.0 ) ">
              <text class="axis-text-x" text-anchor="middle" dy="0.7em">
                <tspan>6.5</tspan>
              </text>
            </g>
          </g>
          <g transform="translate(617.6279350395607 0.0 ) ">
            <line stroke-width="1.0" stroke="rgb(71,71,71)" stroke-opacity="1.0" x2="0.0" y2="4.0">
            </line>
            <g transform="translate(0.0 7.0 ) ">
              <text class="axis-text-x" text-anchor="middle" dy="0.7em">
                <tspan>7.0</tspan>
              </text>
            </g>
          </g>
          <line x1="0.0" y1="0.0" x2="647.0387890890636" y2="0.0" stroke-width="1.0" stroke="rgb(71,71,71)" stroke-opacity="1.0">
          </line>
        </g>
        <g transform="translate(21.961210910936405 0.0 ) ">
          <g transform="translate(0.0 254.7102272727273 ) ">
            <g transform="translate(-3.0 0.0 ) ">
              <text class="axis-text-y" text-anchor="end" dy="0.35em">
                <tspan>15</tspan>
              </text>
            </g>
          </g>
          <g transform="translate(0.0 213.09090909090912 ) ">
            <g transform="translate(-3.0 0.0 ) ">
              <text class="axis-text-y" text-anchor="end" dy="0.35em">
                <tspan>20</tspan>
              </text>
            </g>
          </g>
          <g transform="translate(0.0 171.47159090909093 ) ">
            <g transform="translate(-3.0 0.0 ) ">
              <text class="axis-text-y" text-anchor="end" dy="0.35em">
                <tspan>25</tspan>
              </text>
            </g>
          </g>
          <g transform="translate(0.0 129.85227272727278 ) ">
            <g transform="translate(-3.0 0.0 ) ">
              <text class="axis-text-y" text-anchor="end" dy="0.35em">
                <tspan>30</tspan>
              </text>
            </g>
          </g>
          <g transform="translate(0.0 88.23295454545462 ) ">
            <g transform="translate(-3.0 0.0 ) ">
              <text class="axis-text-y" text-anchor="end" dy="0.35em">
                <tspan>35</tspan>
              </text>
            </g>
          </g>
          <g transform="translate(0.0 46.61363636363643 ) ">
            <g transform="translate(-3.0 0.0 ) ">
              <text class="axis-text-y" text-anchor="end" dy="0.35em">
                <tspan>40</tspan>
              </text>
            </g>
          </g>
          <g transform="translate(0.0 4.994318181818244 ) ">
            <g transform="translate(-3.0 0.0 ) ">
              <text class="axis-text-y" text-anchor="end" dy="0.35em">
                <tspan>45</tspan>
              </text>
            </g>
          </g>
        </g>
      </g>
      <g clip-path="url(#xXxprefixXx1)" clip-bounds-jfx="[rect (21.961210910936405, 0.0), (647.0387890890636, 293.0)]">
        <g transform="translate(21.961210910936405 0.0 ) ">
          <g>
            <g>
              <g>
                <g >
                  <circle fill="#29567d" stroke="#29567d" stroke-opacity="0.0" stroke-width="0.0" cx="51.19667186394949" cy="138.1761363636364" r="5.5" />
                  <circle fill="#306591" stroke="#306591" stroke-opacity="0.0" stroke-width="0.0" cx="51.19667186394949" cy="138.1761363636364" r="5.5" />
                  <circle fill="#2e608a" stroke="#2e608a" stroke-opacity="0.0" stroke-width="0.0" cx="72.98248967839606" cy="121.52840909090912" r="5.5" />
                  <circle fill="#306591" stroke="#306591" stroke-opacity="0.0" stroke-width="0.0" cx="72.98248967839606" cy="129.85227272727278" r="5.5" />
                  <circle fill="#244c6f" stroke="#244c6f" stroke-opacity="0.0" stroke-width="0.0" cx="160.1257609361824" cy="163.1477272727273" r="5.5" />
                  <circle fill="#29567d" stroke="#29567d" stroke-opacity="0.0" stroke-width="0.0" cx="160.1257609361824" cy="163.1477272727273" r="5.5" />
                  <circle fill="#29567d" stroke="#29567d" stroke-opacity="0.0" stroke-width="0.0" cx="192.80448765785232" cy="154.82386363636368" r="5.5" />
                  <path fill="#29567d" stroke="#29567d" stroke-opacity="0.0" stroke-width="0.0" d="M51.19667186394949 158.3845875519129 L51.19667186394949 158.3845875519129 L56.69667186394949 167.91086699354173 L45.69667186394949 167.91086699354173 Z" transform="rotate(0.0 51.19667186394949 163.1477272727273 ) " />
                  <path fill="#244c6f" stroke="#244c6f" stroke-opacity="0.0" stroke-width="0.0" d="M51.19667186394949 166.7084511882765 L51.19667186394949 166.7084511882765 L56.69667186394949 176.23473062990536 L45.69667186394949 176.23473062990536 Z" transform="rotate(0.0 51.19667186394949 171.47159090909093 ) " />
                  <path fill="#2e608a" stroke="#2e608a" stroke-opacity="0.0" stroke-width="0.0" d="M72.98248967839606 141.7368602791856 L72.98248967839606 141.7368602791856 L78.48248967839606 151.26313972081445 L67.48248967839606 151.26313972081445 Z" transform="rotate(0.0 72.98248967839606 146.50000000000003 ) " />
                  <path fill="#2b5b83" stroke="#2b5b83" stroke-opacity="0.0" stroke-width="0.0" d="M72.98248967839606 150.06072391554926 L72.98248967839606 150.06072391554926 L78.48248967839606 159.5870033571781 L67.48248967839606 159.5870033571781 Z" transform="rotate(0.0 72.98248967839606 154.82386363636368 ) " />
                  <path fill="#214769" stroke="#214769" stroke-opacity="0.0" stroke-width="0.0" d="M160.1257609361824 166.7084511882765 L160.1257609361824 166.7084511882765 L165.6257609361824 176.23473062990536 L154.6257609361824 176.23473062990536 Z" transform="rotate(0.0 160.1257609361824 171.47159090909093 ) " />
                  <path fill="#265176" stroke="#265176" stroke-opacity="0.0" stroke-width="0.0" d="M160.1257609361824 166.7084511882765 L160.1257609361824 166.7084511882765 L165.6257609361824 176.23473062990536 L154.6257609361824 176.23473062990536 Z" transform="rotate(0.0 160.1257609361824 171.47159090909093 ) " />
                  <path fill="#265176" stroke="#265176" stroke-opacity="0.0" stroke-width="0.0" d="M192.80448765785232 166.7084511882765 L192.80448765785232 166.7084511882765 L198.30448765785232 176.23473062990536 L187.30448765785232 176.23473062990536 Z" transform="rotate(0.0 192.80448765785232 171.47159090909093 ) " />
                  <path fill="#214769" stroke="#214769" stroke-opacity="0.0" stroke-width="0.0" d="M192.80448765785232 166.7084511882765 L192.80448765785232 166.7084511882765 L198.30448765785232 176.23473062990536 L187.30448765785232 176.23473062990536 Z" transform="rotate(0.0 192.80448765785232 171.47159090909093 ) " />
                  <path fill="#214769" stroke="#214769" stroke-opacity="0.0" stroke-width="0.0" d="M160.1257609361824 175.03231482464014 L160.1257609361824 175.03231482464014 L165.6257609361824 184.55859426626898 L154.6257609361824 184.55859426626898 Z" transform="rotate(0.0 160.1257609361824 179.79545454545456 ) " />
                  <path fill="#265176" stroke="#265176" stroke-opacity="0.0" stroke-width="0.0" d="M192.80448765785232 166.7084511882765 L192.80448765785232 166.7084511882765 L198.30448765785232 176.23473062990536 L187.30448765785232 176.23473062990536 Z" transform="rotate(0.0 192.80448765785232 171.47159090909093 ) " />
                  <path fill="#244c6f" stroke="#244c6f" stroke-opacity="0.0" stroke-width="0.0" d="M312.6264856373085 183.3561784610038 L312.6264856373085 183.3561784610038 L318.1264856373085 192.88245790263264 L307.1264856373085 192.88245790263264 Z" transform="rotate(0.0 312.6264856373085 188.11931818181822 ) " />
                  <rect fill="#1f4262" stroke="#1f4262" stroke-opacity="0.0" stroke-width="0.0" x="426.94848361676475" y="207.59090909090912" height="11.0" width="11.0" transform="rotate(0.0 432.44848361676475 213.09090909090912 ) " />
                  <rect fill="#18344f" stroke="#18344f" stroke-opacity="0.0" stroke-width="0.0" x="426.94848361676475" y="249.2102272727273" height="11.0" width="11.0" transform="rotate(0.0 432.44848361676475 254.7102272727273 ) " />
                  <rect fill="#1f4262" stroke="#1f4262" stroke-opacity="0.0" stroke-width="0.0" x="426.94848361676475" y="207.59090909090912" height="11.0" width="11.0" transform="rotate(0.0 432.44848361676475 213.09090909090912 ) " />
                  <rect fill="#1c3d5c" stroke="#1c3d5c" stroke-opacity="0.0" stroke-width="0.0" x="470.52011924565795" y="232.56250000000003" height="11.0" width="11.0" transform="rotate(0.0 476.02011924565795 238.06250000000003 ) " />
                  <rect fill="#1a3955" stroke="#1a3955" stroke-opacity="0.0" stroke-width="0.0" x="503.19884596732777" y="232.56250000000003" height="11.0" width="11.0" transform="rotate(0.0 508.69884596732777 238.06250000000003 ) " />
                  <rect fill="#244c6f" stroke="#244c6f" stroke-opacity="0.0" stroke-width="0.0" x="470.52011924565795" y="157.6477272727273" height="11.0" width="11.0" transform="rotate(0.0 476.02011924565795 163.1477272727273 ) " />
                  <rect fill="#214769" stroke="#214769" stroke-opacity="0.0" stroke-width="0.0" x="470.52011924565795" y="182.61931818181822" height="11.0" width="11.0" transform="rotate(0.0 476.02011924565795 188.11931818181822 ) " />
                  <rect fill="#244c6f" stroke="#244c6f" stroke-opacity="0.0" stroke-width="0.0" x="524.9846637817744" y="157.6477272727273" height="11.0" width="11.0" transform="rotate(0.0 530.4846637817744 163.1477272727273 ) " />
                  <rect fill="#214769" stroke="#214769" stroke-opacity="0.0" stroke-width="0.0" x="524.9846637817744" y="165.97159090909093" height="11.0" width="11.0" transform="rotate(0.0 530.4846637817744 171.47159090909093 ) " />
                  <rect fill="#214769" stroke="#214769" stroke-opacity="0.0" stroke-width="0.0" x="612.1279350395607" y="174.29545454545456" height="11.0" width="11.0" transform="rotate(0.0 617.6279350395607 179.79545454545456 ) " />
                  <path fill="#1f4262" stroke="#1f4262" stroke-opacity="0.0" stroke-width="0.0" d="M432.44848361676475 216.65163300645833 L432.44848361676475 216.65163300645833 L437.94848361676475 226.17791244808717 L426.94848361676475 226.17791244808717 Z" transform="rotate(0.0 432.44848361676475 221.41477272727275 ) " />
                  <path fill="#18344f" stroke="#18344f" stroke-opacity="0.0" stroke-width="0.0" d="M432.44848361676475 258.2709511882765 L432.44848361676475 258.2709511882765 L437.94848361676475 267.79723062990536 L426.94848361676475 267.79723062990536 Z" transform="rotate(0.0 432.44848361676475 263.03409090909093 ) " />
                  <path fill="#18344f" stroke="#18344f" stroke-opacity="0.0" stroke-width="0.0" d="M476.02011924565795 249.9470875519129 L476.02011924565795 249.9470875519129 L481.52011924565795 259.47336699354173 L470.52011924565795 259.47336699354173 Z" transform="rotate(0.0 476.02011924565795 254.7102272727273 ) " />
                  <path fill="#1f4262" stroke="#1f4262" stroke-opacity="0.0" stroke-width="0.0" d="M563.1633905034442 233.2993602791856 L563.1633905034442 233.2993602791856 L568.6633905034442 242.82563972081445 L557.6633905034442 242.82563972081445 Z" transform="rotate(0.0 563.1633905034442 238.06250000000003 ) " />
                  <circle fill="#2b5b83" stroke="#2b5b83" stroke-opacity="0.0" stroke-width="0.0" cx="116.55412530728924" cy="154.82386363636368" r="5.5" />
                  <circle fill="#336a98" stroke="#336a98" stroke-opacity="0.0" stroke-width="0.0" cx="116.55412530728924" cy="129.85227272727278" r="5.5" />
                  <circle fill="#29567d" stroke="#29567d" stroke-opacity="0.0" stroke-width="0.0" cx="192.80448765785232" cy="163.1477272727273" r="5.5" />
                  <circle fill="#29567d" stroke="#29567d" stroke-opacity="0.0" stroke-width="0.0" cx="236.37612328674547" cy="138.1761363636364" r="5.5" />
                  <circle fill="#265176" stroke="#265176" stroke-opacity="0.0" stroke-width="0.0" cx="247.2690321939688" cy="163.1477272727273" r="5.5" />
                  <circle fill="#29567d" stroke="#29567d" stroke-opacity="0.0" stroke-width="0.0" cx="116.55412530728924" cy="179.79545454545456" r="5.5" />
                  <circle fill="#265176" stroke="#265176" stroke-opacity="0.0" stroke-width="0.0" cx="181.911578750629" cy="179.79545454545456" r="5.5" />
                  <circle fill="#244c6f" stroke="#244c6f" stroke-opacity="0.0" stroke-width="0.0" cx="214.59030547229887" cy="196.44318181818184" r="5.5" />
                  <circle fill="#244c6f" stroke="#244c6f" stroke-opacity="0.0" stroke-width="0.0" cx="214.59030547229887" cy="196.44318181818184" r="5.5" />
                  <circle fill="#265176" stroke="#265176" stroke-opacity="0.0" stroke-width="0.0" cx="214.59030547229887" cy="179.79545454545456" r="5.5" />
                  <circle fill="#265176" stroke="#265176" stroke-opacity="0.0" stroke-width="0.0" cx="214.59030547229887" cy="179.79545454545456" r="5.5" />
                  <circle fill="#18344f" stroke="#18344f" stroke-opacity="0.0" stroke-width="0.0" cx="214.59030547229887" cy="238.06250000000003" r="5.5" />
                  <circle fill="#214769" stroke="#214769" stroke-opacity="0.0" stroke-width="0.0" cx="269.0548500084153" cy="196.44318181818184" r="5.5" />
                  <circle fill="#214769" stroke="#214769" stroke-opacity="0.0" stroke-width="0.0" cx="269.0548500084153" cy="204.76704545454547" r="5.5" />
                  <circle fill="#244c6f" stroke="#244c6f" stroke-opacity="0.0" stroke-width="0.0" cx="269.0548500084153" cy="188.11931818181822" r="5.5" />
                  <circle fill="#244c6f" stroke="#244c6f" stroke-opacity="0.0" stroke-width="0.0" cx="290.840667822862" cy="188.11931818181822" r="5.5" />
                  <path fill="#214769" stroke="#214769" stroke-opacity="0.0" stroke-width="0.0" d="M258.16194110119204 216.65163300645833 L258.16194110119204 216.65163300645833 L263.66194110119204 226.17791244808717 L252.66194110119204 226.17791244808717 Z" transform="rotate(0.0 258.16194110119204 221.41477272727275 ) " />
                  <path fill="#1f4262" stroke="#1f4262" stroke-opacity="0.0" stroke-width="0.0" d="M258.16194110119204 224.97549664282195 L258.16194110119204 224.97549664282195 L263.66194110119204 234.5017760844508 L252.66194110119204 234.5017760844508 Z" transform="rotate(0.0 258.16194110119204 229.73863636363637 ) " />
                  <path fill="#1c3d5c" stroke="#1c3d5c" stroke-opacity="0.0" stroke-width="0.0" d="M279.9477589156386 233.2993602791856 L279.9477589156386 233.2993602791856 L285.4477589156386 242.82563972081445 L274.4477589156386 242.82563972081445 Z" transform="rotate(0.0 279.9477589156386 238.06250000000003 ) " />
                  <path fill="#1f4262" stroke="#1f4262" stroke-opacity="0.0" stroke-width="0.0" d="M279.9477589156386 233.2993602791856 L279.9477589156386 233.2993602791856 L285.4477589156386 242.82563972081445 L274.4477589156386 242.82563972081445 Z" transform="rotate(0.0 279.9477589156386 238.06250000000003 ) " />
                  <path fill="#1f4262" stroke="#1f4262" stroke-opacity="0.0" stroke-width="0.0" d="M367.091030173425 216.65163300645833 L367.091030173425 216.65163300645833 L372.591030173425 226.17791244808717 L361.591030173425 226.17791244808717 Z" transform="rotate(0.0 367.091030173425 221.41477272727275 ) " />
                  <path fill="#1f4262" stroke="#1f4262" stroke-opacity="0.0" stroke-width="0.0" d="M367.091030173425 216.65163300645833 L367.091030173425 216.65163300645833 L372.591030173425 226.17791244808717 L361.591030173425 226.17791244808717 Z" transform="rotate(0.0 367.091030173425 221.41477272727275 ) " />
                  <path fill="#132b43" stroke="#132b43" stroke-opacity="0.0" stroke-width="0.0" d="M367.091030173425 274.91867846100376 L367.091030173425 274.91867846100376 L372.591030173425 284.4449579026326 L361.591030173425 284.4449579026326 Z" transform="rotate(0.0 367.091030173425 279.6818181818182 ) " />
                  <path fill="#18344f" stroke="#18344f" stroke-opacity="0.0" stroke-width="0.0" d="M421.5555747095415 233.2993602791856 L421.5555747095415 233.2993602791856 L427.0555747095415 242.82563972081445 L416.0555747095415 242.82563972081445 Z" transform="rotate(0.0 421.5555747095415 238.06250000000003 ) " />
                  <path fill="#18344f" stroke="#18344f" stroke-opacity="0.0" stroke-width="0.0" d="M421.5555747095415 249.9470875519129 L421.5555747095415 249.9470875519129 L427.0555747095415 259.47336699354173 L416.0555747095415 259.47336699354173 Z" transform="rotate(0.0 421.5555747095415 254.7102272727273 ) " />
                  <path fill="#1c3d5c" stroke="#1c3d5c" stroke-opacity="0.0" stroke-width="0.0" d="M279.9477589156386 233.2993602791856 L279.9477589156386 233.2993602791856 L285.4477589156386 242.82563972081445 L274.4477589156386 242.82563972081445 Z" transform="rotate(0.0 279.9477589156386 238.06250000000003 ) " />
                  <path fill="#1c3d5c" stroke="#1c3d5c" stroke-opacity="0.0" stroke-width="0.0" d="M367.091030173425 233.2993602791856 L367.091030173425 233.2993602791856 L372.591030173425 242.82563972081445 L361.591030173425 242.82563972081445 Z" transform="rotate(0.0 367.091030173425 238.06250000000003 ) " />
                  <path fill="#132b43" stroke="#132b43" stroke-opacity="0.0" stroke-width="0.0" d="M367.091030173425 274.91867846100376 L367.091030173425 274.91867846100376 L372.591030173425 284.4449579026326 L361.591030173425 284.4449579026326 Z" transform="rotate(0.0 367.091030173425 279.6818181818182 ) " />
                  <path fill="#1c3d5c" stroke="#1c3d5c" stroke-opacity="0.0" stroke-width="0.0" d="M367.091030173425 233.2993602791856 L367.091030173425 233.2993602791856 L372.591030173425 242.82563972081445 L361.591030173425 242.82563972081445 Z" transform="rotate(0.0 367.091030173425 238.06250000000003 ) " />
                  <path fill="#18344f" stroke="#18344f" stroke-opacity="0.0" stroke-width="0.0" d="M421.5555747095415 241.62322391554923 L421.5555747095415 241.62322391554923 L427.0555747095415 251.14950335717808 L416.0555747095415 251.14950335717808 Z" transform="rotate(0.0 421.5555747095415 246.38636363636365 ) " />
                  <path fill="#1c3d5c" stroke="#1c3d5c" stroke-opacity="0.0" stroke-width="0.0" d="M476.02011924565795 224.97549664282195 L476.02011924565795 224.97549664282195 L481.52011924565795 234.5017760844508 L470.52011924565795 234.5017760844508 Z" transform="rotate(0.0 476.02011924565795 229.73863636363637 ) " />
                  <path fill="#18344f" stroke="#18344f" stroke-opacity="0.0" stroke-width="0.0" d="M497.8059370601045 249.9470875519129 L497.8059370601045 249.9470875519129 L503.3059370601045 259.47336699354173 L492.3059370601045 259.47336699354173 Z" transform="rotate(0.0 497.8059370601045 254.7102272727273 ) " />
                  <path fill="#1a3955" stroke="#1a3955" stroke-opacity="0.0" stroke-width="0.0" d="M367.091030173425 241.62322391554923 L367.091030173425 241.62322391554923 L372.591030173425 251.14950335717808 L361.591030173425 251.14950335717808 Z" transform="rotate(0.0 367.091030173425 246.38636363636365 ) " />
                  <path fill="#132b43" stroke="#132b43" stroke-opacity="0.0" stroke-width="0.0" d="M367.091030173425 274.91867846100376 L367.091030173425 274.91867846100376 L372.591030173425 284.4449579026326 L361.591030173425 284.4449579026326 Z" transform="rotate(0.0 367.091030173425 279.6818181818182 ) " />
                  <path fill="#1c3d5c" stroke="#1c3d5c" stroke-opacity="0.0" stroke-width="0.0" d="M367.091030173425 233.2993602791856 L367.091030173425 233.2993602791856 L372.591030173425 242.82563972081445 L361.591030173425 242.82563972081445 Z" transform="rotate(0.0 367.091030173425 238.06250000000003 ) " />
                  <path fill="#1c3d5c" stroke="#1c3d5c" stroke-opacity="0.0" stroke-width="0.0" d="M367.091030173425 233.2993602791856 L367.091030173425 233.2993602791856 L372.591030173425 242.82563972081445 L361.591030173425 242.82563972081445 Z" transform="rotate(0.0 367.091030173425 238.06250000000003 ) " />
                  <path fill="#1a3955" stroke="#1a3955" stroke-opacity="0.0" stroke-width="0.0" d="M367.091030173425 241.62322391554923 L367.091030173425 241.62322391554923 L372.591030173425 251.14950335717808 L361.591030173425 251.14950335717808 Z" transform="rotate(0.0 367.091030173425 246.38636363636365 ) " />
                  <path fill="#132b43" stroke="#132b43" stroke-opacity="0.0" stroke-width="0.0" d="M367.091030173425 274.91867846100376 L367.091030173425 274.91867846100376 L372.591030173425 284.4449579026326 L361.591030173425 284.4449579026326 Z" transform="rotate(0.0 367.091030173425 279.6818181818182 ) " />
                  <path fill="#18344f" stroke="#18344f" stroke-opacity="0.0" stroke-width="0.0" d="M421.5555747095415 249.9470875519129 L421.5555747095415 249.9470875519129 L427.0555747095415 259.47336699354173 L416.0555747095415 259.47336699354173 Z" transform="rotate(0.0 421.5555747095415 254.7102272727273 ) " />
                  <path fill="#18344f" stroke="#18344f" stroke-opacity="0.0" stroke-width="0.0" d="M421.5555747095415 241.62322391554923 L421.5555747095415 241.62322391554923 L427.0555747095415 251.14950335717808 L416.0555747095415 251.14950335717808 Z" transform="rotate(0.0 421.5555747095415 246.38636363636365 ) " />
                  <path fill="#1c3d5c" stroke="#1c3d5c" stroke-opacity="0.0" stroke-width="0.0" d="M476.02011924565795 233.2993602791856 L476.02011924565795 233.2993602791856 L481.52011924565795 242.82563972081445 L470.52011924565795 242.82563972081445 Z" transform="rotate(0.0 476.02011924565795 238.06250000000003 ) " />
                  <path fill="#18344f" stroke="#18344f" stroke-opacity="0.0" stroke-width="0.0" d="M497.8059370601045 249.9470875519129 L497.8059370601045 249.9470875519129 L503.3059370601045 259.47336699354173 L492.3059370601045 259.47336699354173 Z" transform="rotate(0.0 497.8059370601045 254.7102272727273 ) " />
                  <rect fill="#18344f" stroke="#18344f" stroke-opacity="0.0" stroke-width="0.0" x="350.6981212662017" y="232.56250000000003" height="11.0" width="11.0" transform="rotate(0.0 356.1981212662017 238.06250000000003 ) " />
                  <rect fill="#18344f" stroke="#18344f" stroke-opacity="0.0" stroke-width="0.0" x="437.841392523988" y="232.56250000000003" height="11.0" width="11.0" transform="rotate(0.0 443.341392523988 238.06250000000003 ) " />
                  <rect fill="#1a3955" stroke="#1a3955" stroke-opacity="0.0" stroke-width="0.0" x="437.841392523988" y="224.23863636363637" height="11.0" width="11.0" transform="rotate(0.0 443.341392523988 229.73863636363637 ) " />
                  <path fill="#1f4262" stroke="#1f4262" stroke-opacity="0.0" stroke-width="0.0" d="M290.840667822862 233.2993602791856 L290.840667822862 233.2993602791856 L296.340667822862 242.82563972081445 L285.340667822862 242.82563972081445 Z" transform="rotate(0.0 290.840667822862 238.06250000000003 ) " />
                  <path fill="#214769" stroke="#214769" stroke-opacity="0.0" stroke-width="0.0" d="M290.840667822862 216.65163300645833 L290.840667822862 216.65163300645833 L296.340667822862 226.17791244808717 L285.340667822862 226.17791244808717 Z" transform="rotate(0.0 290.840667822862 221.41477272727275 ) " />
                  <path fill="#1f4262" stroke="#1f4262" stroke-opacity="0.0" stroke-width="0.0" d="M290.840667822862 233.2993602791856 L290.840667822862 233.2993602791856 L296.340667822862 242.82563972081445 L285.340667822862 242.82563972081445 Z" transform="rotate(0.0 290.840667822862 238.06250000000003 ) " />
                  <path fill="#1c3d5c" stroke="#1c3d5c" stroke-opacity="0.0" stroke-width="0.0" d="M290.840667822862 216.65163300645833 L290.840667822862 216.65163300645833 L296.340667822862 226.17791244808717 L285.340667822862 226.17791244808717 Z" transform="rotate(0.0 290.840667822862 221.41477272727275 ) " />
                  <path fill="#1c3d5c" stroke="#1c3d5c" stroke-opacity="0.0" stroke-width="0.0" d="M356.1981212662017 216.65163300645833 L356.1981212662017 216.65163300645833 L361.6981212662017 226.17791244808717 L350.6981212662017 226.17791244808717 Z" transform="rotate(0.0 356.1981212662017 221.41477272727275 ) " />
                  <path fill="#1c3d5c" stroke="#1c3d5c" stroke-opacity="0.0" stroke-width="0.0" d="M399.7697568950948 233.2993602791856 L399.7697568950948 233.2993602791856 L405.2697568950948 242.82563972081445 L394.2697568950948 242.82563972081445 Z" transform="rotate(0.0 399.7697568950948 238.06250000000003 ) " />
                  <path fill="#1f4262" stroke="#1f4262" stroke-opacity="0.0" stroke-width="0.0" d="M312.6264856373085 233.2993602791856 L312.6264856373085 233.2993602791856 L318.1264856373085 242.82563972081445 L307.1264856373085 242.82563972081445 Z" transform="rotate(0.0 312.6264856373085 238.06250000000003 ) " />
                  <path fill="#1f4262" stroke="#1f4262" stroke-opacity="0.0" stroke-width="0.0" d="M312.6264856373085 233.2993602791856 L312.6264856373085 233.2993602791856 L318.1264856373085 242.82563972081445 L307.1264856373085 242.82563972081445 Z" transform="rotate(0.0 312.6264856373085 238.06250000000003 ) " />
                  <path fill="#1c3d5c" stroke="#1c3d5c" stroke-opacity="0.0" stroke-width="0.0" d="M356.1981212662017 241.62322391554923 L356.1981212662017 241.62322391554923 L361.6981212662017 251.14950335717808 L350.6981212662017 251.14950335717808 Z" transform="rotate(0.0 356.1981212662017 246.38636363636365 ) " />
                  <path fill="#1c3d5c" stroke="#1c3d5c" stroke-opacity="0.0" stroke-width="0.0" d="M356.1981212662017 241.62322391554923 L356.1981212662017 241.62322391554923 L361.6981212662017 251.14950335717808 L350.6981212662017 251.14950335717808 Z" transform="rotate(0.0 356.1981212662017 246.38636363636365 ) " />
                  <path fill="#1c3d5c" stroke="#1c3d5c" stroke-opacity="0.0" stroke-width="0.0" d="M356.1981212662017 233.2993602791856 L356.1981212662017 233.2993602791856 L361.6981212662017 242.82563972081445 L350.6981212662017 242.82563972081445 Z" transform="rotate(0.0 356.1981212662017 238.06250000000003 ) " />
                  <path fill="#18344f" stroke="#18344f" stroke-opacity="0.0" stroke-width="0.0" d="M443.341392523988 249.9470875519129 L443.341392523988 249.9470875519129 L448.841392523988 259.47336699354173 L437.841392523988 259.47336699354173 Z" transform="rotate(0.0 443.341392523988 254.7102272727273 ) " />
                  <path fill="#1c3d5c" stroke="#1c3d5c" stroke-opacity="0.0" stroke-width="0.0" d="M443.341392523988 233.2993602791856 L443.341392523988 233.2993602791856 L448.841392523988 242.82563972081445 L437.841392523988 242.82563972081445 Z" transform="rotate(0.0 443.341392523988 238.06250000000003 ) " />
                  <rect fill="#29567d" stroke="#29567d" stroke-opacity="0.0" stroke-width="0.0" x="263.5548500084153" y="157.6477272727273" height="11.0" width="11.0" transform="rotate(0.0 269.0548500084153 163.1477272727273 ) " />
                  <rect fill="#29567d" stroke="#29567d" stroke-opacity="0.0" stroke-width="0.0" x="263.5548500084153" y="165.97159090909093" height="11.0" width="11.0" transform="rotate(0.0 269.0548500084153 171.47159090909093 ) " />
                  <rect fill="#265176" stroke="#265176" stroke-opacity="0.0" stroke-width="0.0" x="285.340667822862" y="157.6477272727273" height="11.0" width="11.0" transform="rotate(0.0 290.840667822862 163.1477272727273 ) " />
                  <rect fill="#244c6f" stroke="#244c6f" stroke-opacity="0.0" stroke-width="0.0" x="285.340667822862" y="174.29545454545456" height="11.0" width="11.0" transform="rotate(0.0 290.840667822862 179.79545454545456 ) " />
                  <rect fill="#214769" stroke="#214769" stroke-opacity="0.0" stroke-width="0.0" x="350.6981212662017" y="199.26704545454547" height="11.0" width="11.0" transform="rotate(0.0 356.1981212662017 204.76704545454547 ) " />
                  <rect fill="#214769" stroke="#214769" stroke-opacity="0.0" stroke-width="0.0" x="350.6981212662017" y="190.94318181818184" height="11.0" width="11.0" transform="rotate(0.0 356.1981212662017 196.44318181818184 ) " />
                  <rect fill="#214769" stroke="#214769" stroke-opacity="0.0" stroke-width="0.0" x="350.6981212662017" y="182.61931818181822" height="11.0" width="11.0" transform="rotate(0.0 356.1981212662017 188.11931818181822 ) " />
                  <rect fill="#214769" stroke="#214769" stroke-opacity="0.0" stroke-width="0.0" x="350.6981212662017" y="190.94318181818184" height="11.0" width="11.0" transform="rotate(0.0 356.1981212662017 196.44318181818184 ) " />
                  <rect fill="#1f4262" stroke="#1f4262" stroke-opacity="0.0" stroke-width="0.0" x="437.841392523988" y="207.59090909090912" height="11.0" width="11.0" transform="rotate(0.0 443.341392523988 213.09090909090912 ) " />
                  <circle fill="#438ac3" stroke="#438ac3" stroke-opacity="0.0" stroke-width="0.0" cx="29.410854049502888" cy="104.88068181818187" r="5.5" />
                  <circle fill="#3875a6" stroke="#3875a6" stroke-opacity="0.0" stroke-width="0.0" cx="29.410854049502888" cy="113.2045454545455" r="5.5" />
                  <circle fill="#3b7aad" stroke="#3b7aad" stroke-opacity="0.0" stroke-width="0.0" cx="29.410854049502888" cy="113.2045454545455" r="5.5" />
                  <circle fill="#356f9f" stroke="#356f9f" stroke-opacity="0.0" stroke-width="0.0" cx="29.410854049502888" cy="138.1761363636364" r="5.5" />
                  <circle fill="#3875a6" stroke="#3875a6" stroke-opacity="0.0" stroke-width="0.0" cx="29.410854049502888" cy="113.2045454545455" r="5.5" />
                  <circle fill="#3d7fb4" stroke="#3d7fb4" stroke-opacity="0.0" stroke-width="0.0" cx="51.19667186394949" cy="96.55681818181824" r="5.5" />
                  <circle fill="#3b7aad" stroke="#3b7aad" stroke-opacity="0.0" stroke-width="0.0" cx="51.19667186394949" cy="79.90909090909093" r="5.5" />
                  <circle fill="#3875a6" stroke="#3875a6" stroke-opacity="0.0" stroke-width="0.0" cx="51.19667186394949" cy="79.90909090909093" r="5.5" />
                  <circle fill="#306591" stroke="#306591" stroke-opacity="0.0" stroke-width="0.0" cx="72.98248967839606" cy="138.1761363636364" r="5.5" />
                  <circle fill="#29567d" stroke="#29567d" stroke-opacity="0.0" stroke-width="0.0" cx="116.55412530728924" cy="163.1477272727273" r="5.5" />
                  <circle fill="#29567d" stroke="#29567d" stroke-opacity="0.0" stroke-width="0.0" cx="116.55412530728924" cy="154.82386363636368" r="5.5" />
                  <circle fill="#306591" stroke="#306591" stroke-opacity="0.0" stroke-width="0.0" cx="116.55412530728924" cy="129.85227272727278" r="5.5" />
                  <circle fill="#306591" stroke="#306591" stroke-opacity="0.0" stroke-width="0.0" cx="116.55412530728924" cy="121.52840909090912" r="5.5" />
                  <circle fill="#29567d" stroke="#29567d" stroke-opacity="0.0" stroke-width="0.0" cx="127.44703421451251" cy="163.1477272727273" r="5.5" />
                  <circle fill="#29567d" stroke="#29567d" stroke-opacity="0.0" stroke-width="0.0" cx="127.44703421451251" cy="163.1477272727273" r="5.5" />
                  <circle fill="#2b5b83" stroke="#2b5b83" stroke-opacity="0.0" stroke-width="0.0" cx="214.59030547229887" cy="146.50000000000003" r="5.5" />
                  <circle fill="#2b5b83" stroke="#2b5b83" stroke-opacity="0.0" stroke-width="0.0" cx="72.98248967839606" cy="163.1477272727273" r="5.5" />
                  <circle fill="#2b5b83" stroke="#2b5b83" stroke-opacity="0.0" stroke-width="0.0" cx="72.98248967839606" cy="138.1761363636364" r="5.5" />
                  <circle fill="#2e608a" stroke="#2e608a" stroke-opacity="0.0" stroke-width="0.0" cx="72.98248967839606" cy="146.50000000000003" r="5.5" />
                  <circle fill="#2e608a" stroke="#2e608a" stroke-opacity="0.0" stroke-width="0.0" cx="72.98248967839606" cy="154.82386363636368" r="5.5" />
                  <circle fill="#265176" stroke="#265176" stroke-opacity="0.0" stroke-width="0.0" cx="149.23285202895912" cy="179.79545454545456" r="5.5" />
                  <circle fill="#244c6f" stroke="#244c6f" stroke-opacity="0.0" stroke-width="0.0" cx="149.23285202895912" cy="179.79545454545456" r="5.5" />
                  <circle fill="#265176" stroke="#265176" stroke-opacity="0.0" stroke-width="0.0" cx="149.23285202895912" cy="179.79545454545456" r="5.5" />
                  <path fill="#265176" stroke="#265176" stroke-opacity="0.0" stroke-width="0.0" d="M181.911578750629 191.68004209736742 L181.911578750629 191.68004209736742 L187.411578750629 201.20632153899626 L176.411578750629 201.20632153899626 Z" transform="rotate(0.0 181.911578750629 196.44318181818184 ) " />
                  <path fill="#214769" stroke="#214769" stroke-opacity="0.0" stroke-width="0.0" d="M258.16194110119204 216.65163300645833 L258.16194110119204 216.65163300645833 L263.66194110119204 226.17791244808717 L252.66194110119204 226.17791244808717 Z" transform="rotate(0.0 258.16194110119204 221.41477272727275 ) " />
                  <path fill="#214769" stroke="#214769" stroke-opacity="0.0" stroke-width="0.0" d="M290.840667822862 208.3277693700947 L290.840667822862 208.3277693700947 L296.340667822862 217.85404881172354 L285.340667822862 217.85404881172354 Z" transform="rotate(0.0 290.840667822862 213.09090909090912 ) " />
                  <path fill="#1f4262" stroke="#1f4262" stroke-opacity="0.0" stroke-width="0.0" d="M367.091030173425 233.2993602791856 L367.091030173425 233.2993602791856 L372.591030173425 242.82563972081445 L361.591030173425 242.82563972081445 Z" transform="rotate(0.0 367.091030173425 238.06250000000003 ) " />
                  <path fill="#132b43" stroke="#132b43" stroke-opacity="0.0" stroke-width="0.0" d="M367.091030173425 274.91867846100376 L367.091030173425 274.91867846100376 L372.591030173425 284.4449579026326 L361.591030173425 284.4449579026326 Z" transform="rotate(0.0 367.091030173425 279.6818181818182 ) " />
                  <path fill="#1f4262" stroke="#1f4262" stroke-opacity="0.0" stroke-width="0.0" d="M367.091030173425 216.65163300645833 L367.091030173425 216.65163300645833 L372.591030173425 226.17791244808717 L361.591030173425 226.17791244808717 Z" transform="rotate(0.0 367.091030173425 221.41477272727275 ) " />
                  <path fill="#1c3d5c" stroke="#1c3d5c" stroke-opacity="0.0" stroke-width="0.0" d="M476.02011924565795 224.97549664282195 L476.02011924565795 224.97549664282195 L481.52011924565795 234.5017760844508 L470.52011924565795 234.5017760844508 Z" transform="rotate(0.0 476.02011924565795 229.73863636363637 ) " />
                  <path fill="#18344f" stroke="#18344f" stroke-opacity="0.0" stroke-width="0.0" d="M519.591754874551 258.2709511882765 L519.591754874551 258.2709511882765 L525.091754874551 267.79723062990536 L514.091754874551 267.79723062990536 Z" transform="rotate(0.0 519.591754874551 263.03409090909093 ) " />
                  <path fill="#18344f" stroke="#18344f" stroke-opacity="0.0" stroke-width="0.0" d="M290.840667822862 249.9470875519129 L290.840667822862 249.9470875519129 L296.340667822862 259.47336699354173 L285.340667822862 259.47336699354173 Z" transform="rotate(0.0 290.840667822862 254.7102272727273 ) " />
                  <path fill="#1a3955" stroke="#1a3955" stroke-opacity="0.0" stroke-width="0.0" d="M312.6264856373085 224.97549664282195 L312.6264856373085 224.97549664282195 L318.1264856373085 234.5017760844508 L307.1264856373085 234.5017760844508 Z" transform="rotate(0.0 312.6264856373085 229.73863636363637 ) " />
                  <path fill="#1a3955" stroke="#1a3955" stroke-opacity="0.0" stroke-width="0.0" d="M334.4123034517552 224.97549664282195 L334.4123034517552 224.97549664282195 L339.9123034517552 234.5017760844508 L328.9123034517552 234.5017760844508 Z" transform="rotate(0.0 334.4123034517552 229.73863636363637 ) " />
                  <path fill="#18344f" stroke="#18344f" stroke-opacity="0.0" stroke-width="0.0" d="M356.1981212662017 249.9470875519129 L356.1981212662017 249.9470875519129 L361.6981212662017 259.47336699354173 L350.6981212662017 259.47336699354173 Z" transform="rotate(0.0 356.1981212662017 254.7102272727273 ) " />
                  <rect fill="#18344f" stroke="#18344f" stroke-opacity="0.0" stroke-width="0.0" x="437.841392523988" y="232.56250000000003" height="11.0" width="11.0" transform="rotate(0.0 443.341392523988 238.06250000000003 ) " />
                  <rect fill="#18344f" stroke="#18344f" stroke-opacity="0.0" stroke-width="0.0" x="437.841392523988" y="240.88636363636365" height="11.0" width="11.0" transform="rotate(0.0 443.341392523988 246.38636363636365 ) " />
                  <rect fill="#1a3955" stroke="#1a3955" stroke-opacity="0.0" stroke-width="0.0" x="437.841392523988" y="224.23863636363637" height="11.0" width="11.0" transform="rotate(0.0 443.341392523988 229.73863636363637 ) " />
                  <path fill="#1f4262" stroke="#1f4262" stroke-opacity="0.0" stroke-width="0.0" d="M290.840667822862 233.2993602791856 L290.840667822862 233.2993602791856 L296.340667822862 242.82563972081445 L285.340667822862 242.82563972081445 Z" transform="rotate(0.0 290.840667822862 238.06250000000003 ) " />
                  <path fill="#1c3d5c" stroke="#1c3d5c" stroke-opacity="0.0" stroke-width="0.0" d="M290.840667822862 216.65163300645833 L290.840667822862 216.65163300645833 L296.340667822862 226.17791244808717 L285.340667822862 226.17791244808717 Z" transform="rotate(0.0 290.840667822862 221.41477272727275 ) " />
                  <path fill="#1c3d5c" stroke="#1c3d5c" stroke-opacity="0.0" stroke-width="0.0" d="M356.1981212662017 216.65163300645833 L356.1981212662017 216.65163300645833 L361.6981212662017 226.17791244808717 L350.6981212662017 226.17791244808717 Z" transform="rotate(0.0 356.1981212662017 221.41477272727275 ) " />
                  <path fill="#1c3d5c" stroke="#1c3d5c" stroke-opacity="0.0" stroke-width="0.0" d="M399.7697568950948 233.2993602791856 L399.7697568950948 233.2993602791856 L405.2697568950948 242.82563972081445 L394.2697568950948 242.82563972081445 Z" transform="rotate(0.0 399.7697568950948 238.06250000000003 ) " />
                  <circle fill="#306591" stroke="#306591" stroke-opacity="0.0" stroke-width="0.0" cx="116.55412530728924" cy="138.1761363636364" r="5.5" />
                  <circle fill="#2b5b83" stroke="#2b5b83" stroke-opacity="0.0" stroke-width="0.0" cx="116.55412530728924" cy="154.82386363636368" r="5.5" />
                  <circle fill="#356f9f" stroke="#356f9f" stroke-opacity="0.0" stroke-width="0.0" cx="127.44703421451251" cy="121.52840909090912" r="5.5" />
                  <circle fill="#356f9f" stroke="#356f9f" stroke-opacity="0.0" stroke-width="0.0" cx="127.44703421451251" cy="113.2045454545455" r="5.5" />
                  <circle fill="#2b5b83" stroke="#2b5b83" stroke-opacity="0.0" stroke-width="0.0" cx="236.37612328674547" cy="154.82386363636368" r="5.5" />
                  <circle fill="#2b5b83" stroke="#2b5b83" stroke-opacity="0.0" stroke-width="0.0" cx="236.37612328674547" cy="163.1477272727273" r="5.5" />
                  <circle fill="#29567d" stroke="#29567d" stroke-opacity="0.0" stroke-width="0.0" cx="181.911578750629" cy="163.1477272727273" r="5.5" />
                  <circle fill="#2b5b83" stroke="#2b5b83" stroke-opacity="0.0" stroke-width="0.0" cx="181.911578750629" cy="171.47159090909093" r="5.5" />
                  <circle fill="#2b5b83" stroke="#2b5b83" stroke-opacity="0.0" stroke-width="0.0" cx="236.37612328674547" cy="171.47159090909093" r="5.5" />
                  <path fill="#1f4262" stroke="#1f4262" stroke-opacity="0.0" stroke-width="0.0" d="M214.59030547229887 233.2993602791856 L214.59030547229887 233.2993602791856 L220.09030547229887 242.82563972081445 L209.09030547229887 242.82563972081445 Z" transform="rotate(0.0 214.59030547229887 238.06250000000003 ) " />
                  <path fill="#214769" stroke="#214769" stroke-opacity="0.0" stroke-width="0.0" d="M214.59030547229887 233.2993602791856 L214.59030547229887 233.2993602791856 L220.09030547229887 242.82563972081445 L209.09030547229887 242.82563972081445 Z" transform="rotate(0.0 214.59030547229887 238.06250000000003 ) " />
                  <path fill="#1f4262" stroke="#1f4262" stroke-opacity="0.0" stroke-width="0.0" d="M290.840667822862 208.3277693700947 L290.840667822862 208.3277693700947 L296.340667822862 217.85404881172354 L285.340667822862 217.85404881172354 Z" transform="rotate(0.0 290.840667822862 213.09090909090912 ) " />
                  <path fill="#1a3955" stroke="#1a3955" stroke-opacity="0.0" stroke-width="0.0" d="M465.12721033843457 224.97549664282195 L465.12721033843457 224.97549664282195 L470.62721033843457 234.5017760844508 L459.62721033843457 234.5017760844508 Z" transform="rotate(0.0 465.12721033843457 229.73863636363637 ) " />
                  <circle fill="#29567d" stroke="#29567d" stroke-opacity="0.0" stroke-width="0.0" cx="192.80448765785232" cy="163.1477272727273" r="5.5" />
                  <circle fill="#244c6f" stroke="#244c6f" stroke-opacity="0.0" stroke-width="0.0" cx="269.0548500084153" cy="163.1477272727273" r="5.5" />
                  <circle fill="#265176" stroke="#265176" stroke-opacity="0.0" stroke-width="0.0" cx="269.0548500084153" cy="154.82386363636368" r="5.5" />
                  <circle fill="#29567d" stroke="#29567d" stroke-opacity="0.0" stroke-width="0.0" cx="269.0548500084153" cy="146.50000000000003" r="5.5" />
                  <circle fill="#244c6f" stroke="#244c6f" stroke-opacity="0.0" stroke-width="0.0" cx="432.44848361676475" cy="171.47159090909093" r="5.5" />
                  <path fill="#29567d" stroke="#29567d" stroke-opacity="0.0" stroke-width="0.0" d="M127.44703421451251 166.7084511882765 L127.44703421451251 166.7084511882765 L132.9470342145125 176.23473062990536 L121.94703421451251 176.23473062990536 Z" transform="rotate(0.0 127.44703421451251 171.47159090909093 ) " />
                  <path fill="#29567d" stroke="#29567d" stroke-opacity="0.0" stroke-width="0.0" d="M127.44703421451251 175.03231482464014 L127.44703421451251 175.03231482464014 L132.9470342145125 184.55859426626898 L121.94703421451251 184.55859426626898 Z" transform="rotate(0.0 127.44703421451251 179.79545454545456 ) " />
                  <path fill="#2e608a" stroke="#2e608a" stroke-opacity="0.0" stroke-width="0.0" d="M127.44703421451251 150.06072391554926 L127.44703421451251 150.06072391554926 L132.9470342145125 159.5870033571781 L121.94703421451251 159.5870033571781 Z" transform="rotate(0.0 127.44703421451251 154.82386363636368 ) " />
                  <path fill="#2b5b83" stroke="#2b5b83" stroke-opacity="0.0" stroke-width="0.0" d="M127.44703421451251 166.7084511882765 L127.44703421451251 166.7084511882765 L132.9470342145125 176.23473062990536 L121.94703421451251 176.23473062990536 Z" transform="rotate(0.0 127.44703421451251 171.47159090909093 ) " />
                  <path fill="#2e608a" stroke="#2e608a" stroke-opacity="0.0" stroke-width="0.0" d="M127.44703421451251 158.3845875519129 L127.44703421451251 158.3845875519129 L132.9470342145125 167.91086699354173 L121.94703421451251 167.91086699354173 Z" transform="rotate(0.0 127.44703421451251 163.1477272727273 ) " />
                  <path fill="#29567d" stroke="#29567d" stroke-opacity="0.0" stroke-width="0.0" d="M127.44703421451251 183.3561784610038 L127.44703421451251 183.3561784610038 L132.9470342145125 192.88245790263264 L121.94703421451251 192.88245790263264 Z" transform="rotate(0.0 127.44703421451251 188.11931818181822 ) " />
                  <path fill="#306591" stroke="#306591" stroke-opacity="0.0" stroke-width="0.0" d="M94.76830749284267 158.3845875519129 L94.76830749284267 158.3845875519129 L100.26830749284267 167.91086699354173 L89.26830749284267 167.91086699354173 Z" transform="rotate(0.0 94.76830749284267 163.1477272727273 ) " />
                  <path fill="#2b5b83" stroke="#2b5b83" stroke-opacity="0.0" stroke-width="0.0" d="M94.76830749284267 158.3845875519129 L94.76830749284267 158.3845875519129 L100.26830749284267 167.91086699354173 L89.26830749284267 167.91086699354173 Z" transform="rotate(0.0 94.76830749284267 163.1477272727273 ) " />
                  <path fill="#2b5b83" stroke="#2b5b83" stroke-opacity="0.0" stroke-width="0.0" d="M127.44703421451251 158.3845875519129 L127.44703421451251 158.3845875519129 L132.9470342145125 167.91086699354173 L121.94703421451251 167.91086699354173 Z" transform="rotate(0.0 127.44703421451251 163.1477272727273 ) " />
                  <path fill="#2b5b83" stroke="#2b5b83" stroke-opacity="0.0" stroke-width="0.0" d="M127.44703421451251 158.3845875519129 L127.44703421451251 158.3845875519129 L132.9470342145125 167.91086699354173 L121.94703421451251 167.91086699354173 Z" transform="rotate(0.0 127.44703421451251 163.1477272727273 ) " />
                  <path fill="#2e608a" stroke="#2e608a" stroke-opacity="0.0" stroke-width="0.0" d="M127.44703421451251 166.7084511882765 L127.44703421451251 166.7084511882765 L132.9470342145125 176.23473062990536 L121.94703421451251 176.23473062990536 Z" transform="rotate(0.0 127.44703421451251 171.47159090909093 ) " />
                  <path fill="#2e608a" stroke="#2e608a" stroke-opacity="0.0" stroke-width="0.0" d="M127.44703421451251 150.06072391554926 L127.44703421451251 150.06072391554926 L132.9470342145125 159.5870033571781 L121.94703421451251 159.5870033571781 Z" transform="rotate(0.0 127.44703421451251 154.82386363636368 ) " />
                  <path fill="#2b5b83" stroke="#2b5b83" stroke-opacity="0.0" stroke-width="0.0" d="M127.44703421451251 166.7084511882765 L127.44703421451251 166.7084511882765 L132.9470342145125 176.23473062990536 L121.94703421451251 176.23473062990536 Z" transform="rotate(0.0 127.44703421451251 171.47159090909093 ) " />
                  <path fill="#2e608a" stroke="#2e608a" stroke-opacity="0.0" stroke-width="0.0" d="M127.44703421451251 150.06072391554926 L127.44703421451251 150.06072391554926 L132.9470342145125 159.5870033571781 L121.94703421451251 159.5870033571781 Z" transform="rotate(0.0 127.44703421451251 154.82386363636368 ) " />
                  <path fill="#214769" stroke="#214769" stroke-opacity="0.0" stroke-width="0.0" d="M149.23285202895912 208.3277693700947 L149.23285202895912 208.3277693700947 L154.73285202895912 217.85404881172354 L143.73285202895912 217.85404881172354 Z" transform="rotate(0.0 149.23285202895912 213.09090909090912 ) " />
                  <path fill="#244c6f" stroke="#244c6f" stroke-opacity="0.0" stroke-width="0.0" d="M149.23285202895912 208.3277693700947 L149.23285202895912 208.3277693700947 L154.73285202895912 217.85404881172354 L143.73285202895912 217.85404881172354 Z" transform="rotate(0.0 149.23285202895912 213.09090909090912 ) " />
                  <path fill="#214769" stroke="#214769" stroke-opacity="0.0" stroke-width="0.0" d="M225.4832143795222 216.65163300645833 L225.4832143795222 216.65163300645833 L230.9832143795222 226.17791244808717 L219.9832143795222 226.17791244808717 Z" transform="rotate(0.0 225.4832143795222 221.41477272727275 ) " />
                  <path fill="#214769" stroke="#214769" stroke-opacity="0.0" stroke-width="0.0" d="M225.4832143795222 233.2993602791856 L225.4832143795222 233.2993602791856 L230.9832143795222 242.82563972081445 L219.9832143795222 242.82563972081445 Z" transform="rotate(0.0 225.4832143795222 238.06250000000003 ) " />
                  <path fill="#244c6f" stroke="#244c6f" stroke-opacity="0.0" stroke-width="0.0" d="M290.840667822862 208.3277693700947 L290.840667822862 208.3277693700947 L296.340667822862 217.85404881172354 L285.340667822862 217.85404881172354 Z" transform="rotate(0.0 290.840667822862 213.09090909090912 ) " />
                  <path fill="#1f4262" stroke="#1f4262" stroke-opacity="0.0" stroke-width="0.0" d="M367.091030173425 233.2993602791856 L367.091030173425 233.2993602791856 L372.591030173425 242.82563972081445 L361.591030173425 242.82563972081445 Z" transform="rotate(0.0 367.091030173425 238.06250000000003 ) " />
                  <circle fill="#306591" stroke="#306591" stroke-opacity="0.0" stroke-width="0.0" cx="94.76830749284267" cy="138.1761363636364" r="5.5" />
                  <circle fill="#306591" stroke="#306591" stroke-opacity="0.0" stroke-width="0.0" cx="94.76830749284267" cy="154.82386363636368" r="5.5" />
                  <circle fill="#306591" stroke="#306591" stroke-opacity="0.0" stroke-width="0.0" cx="116.55412530728924" cy="121.52840909090912" r="5.5" />
                  <circle fill="#306591" stroke="#306591" stroke-opacity="0.0" stroke-width="0.0" cx="116.55412530728924" cy="121.52840909090912" r="5.5" />
                  <circle fill="#29567d" stroke="#29567d" stroke-opacity="0.0" stroke-width="0.0" cx="181.911578750629" cy="163.1477272727273" r="5.5" />
                  <circle fill="#29567d" stroke="#29567d" stroke-opacity="0.0" stroke-width="0.0" cx="181.911578750629" cy="163.1477272727273" r="5.5" />
                  <circle fill="#2b5b83" stroke="#2b5b83" stroke-opacity="0.0" stroke-width="0.0" cx="236.37612328674547" cy="146.50000000000003" r="5.5" />
                  <circle fill="#306591" stroke="#306591" stroke-opacity="0.0" stroke-width="0.0" cx="94.76830749284267" cy="154.82386363636368" r="5.5" />
                  <circle fill="#306591" stroke="#306591" stroke-opacity="0.0" stroke-width="0.0" cx="94.76830749284267" cy="138.1761363636364" r="5.5" />
                  <circle fill="#306591" stroke="#306591" stroke-opacity="0.0" stroke-width="0.0" cx="116.55412530728924" cy="121.52840909090912" r="5.5" />
                  <circle fill="#336a98" stroke="#336a98" stroke-opacity="0.0" stroke-width="0.0" cx="116.55412530728924" cy="121.52840909090912" r="5.5" />
                  <circle fill="#29567d" stroke="#29567d" stroke-opacity="0.0" stroke-width="0.0" cx="181.911578750629" cy="163.1477272727273" r="5.5" />
                  <circle fill="#29567d" stroke="#29567d" stroke-opacity="0.0" stroke-width="0.0" cx="181.911578750629" cy="163.1477272727273" r="5.5" />
                  <circle fill="#29567d" stroke="#29567d" stroke-opacity="0.0" stroke-width="0.0" cx="214.59030547229887" cy="154.82386363636368" r="5.5" />
                  <circle fill="#3875a6" stroke="#3875a6" stroke-opacity="0.0" stroke-width="0.0" cx="51.19667186394949" cy="129.85227272727278" r="5.5" />
                  <circle fill="#3875a6" stroke="#3875a6" stroke-opacity="0.0" stroke-width="0.0" cx="51.19667186394949" cy="104.88068181818187" r="5.5" />
                  <circle fill="#3d7fb4" stroke="#3d7fb4" stroke-opacity="0.0" stroke-width="0.0" cx="51.19667186394949" cy="88.23295454545462" r="5.5" />
                  <circle fill="#438ac3" stroke="#438ac3" stroke-opacity="0.0" stroke-width="0.0" cx="51.19667186394949" cy="71.58522727272731" r="5.5" />
                  <circle fill="#3d7fb4" stroke="#3d7fb4" stroke-opacity="0.0" stroke-width="0.0" cx="51.19667186394949" cy="88.23295454545462" r="5.5" />
                  <path fill="#18344f" stroke="#18344f" stroke-opacity="0.0" stroke-width="0.0" d="M367.091030173425 249.9470875519129 L367.091030173425 249.9470875519129 L372.591030173425 259.47336699354173 L361.591030173425 259.47336699354173 Z" transform="rotate(0.0 367.091030173425 254.7102272727273 ) " />
                  <path fill="#1c3d5c" stroke="#1c3d5c" stroke-opacity="0.0" stroke-width="0.0" d="M476.02011924565795 224.97549664282195 L476.02011924565795 224.97549664282195 L481.52011924565795 234.5017760844508 L470.52011924565795 234.5017760844508 Z" transform="rotate(0.0 476.02011924565795 229.73863636363637 ) " />
                  <path fill="#214769" stroke="#214769" stroke-opacity="0.0" stroke-width="0.0" d="M149.23285202895912 208.3277693700947 L149.23285202895912 208.3277693700947 L154.73285202895912 217.85404881172354 L143.73285202895912 217.85404881172354 Z" transform="rotate(0.0 149.23285202895912 213.09090909090912 ) " />
                  <path fill="#244c6f" stroke="#244c6f" stroke-opacity="0.0" stroke-width="0.0" d="M149.23285202895912 208.3277693700947 L149.23285202895912 208.3277693700947 L154.73285202895912 217.85404881172354 L143.73285202895912 217.85404881172354 Z" transform="rotate(0.0 149.23285202895912 213.09090909090912 ) " />
                  <path fill="#265176" stroke="#265176" stroke-opacity="0.0" stroke-width="0.0" d="M149.23285202895912 191.68004209736742 L149.23285202895912 191.68004209736742 L154.73285202895912 201.20632153899626 L143.73285202895912 201.20632153899626 Z" transform="rotate(0.0 149.23285202895912 196.44318181818184 ) " />
                  <path fill="#214769" stroke="#214769" stroke-opacity="0.0" stroke-width="0.0" d="M225.4832143795222 233.2993602791856 L225.4832143795222 233.2993602791856 L230.9832143795222 242.82563972081445 L219.9832143795222 242.82563972081445 Z" transform="rotate(0.0 225.4832143795222 238.06250000000003 ) " />
                  <path fill="#214769" stroke="#214769" stroke-opacity="0.0" stroke-width="0.0" d="M225.4832143795222 216.65163300645833 L225.4832143795222 216.65163300645833 L230.9832143795222 226.17791244808717 L219.9832143795222 226.17791244808717 Z" transform="rotate(0.0 225.4832143795222 221.41477272727275 ) " />
                  <path fill="#214769" stroke="#214769" stroke-opacity="0.0" stroke-width="0.0" d="M290.840667822862 224.97549664282195 L290.840667822862 224.97549664282195 L296.340667822862 234.5017760844508 L285.340667822862 234.5017760844508 Z" transform="rotate(0.0 290.840667822862 229.73863636363637 ) " />
                  <path fill="#244c6f" stroke="#244c6f" stroke-opacity="0.0" stroke-width="0.0" d="M290.840667822862 208.3277693700947 L290.840667822862 208.3277693700947 L296.340667822862 217.85404881172354 L285.340667822862 217.85404881172354 Z" transform="rotate(0.0 290.840667822862 213.09090909090912 ) " />
                  <circle fill="#306591" stroke="#306591" stroke-opacity="0.0" stroke-width="0.0" cx="72.98248967839606" cy="138.1761363636364" r="5.5" />
                  <circle fill="#2b5b83" stroke="#2b5b83" stroke-opacity="0.0" stroke-width="0.0" cx="72.98248967839606" cy="163.1477272727273" r="5.5" />
                  <circle fill="#306591" stroke="#306591" stroke-opacity="0.0" stroke-width="0.0" cx="72.98248967839606" cy="138.1761363636364" r="5.5" />
                  <circle fill="#336a98" stroke="#336a98" stroke-opacity="0.0" stroke-width="0.0" cx="72.98248967839606" cy="138.1761363636364" r="5.5" />
                  <circle fill="#265176" stroke="#265176" stroke-opacity="0.0" stroke-width="0.0" cx="160.1257609361824" cy="179.79545454545456" r="5.5" />
                  <circle fill="#50a6e8" stroke="#50a6e8" stroke-opacity="0.0" stroke-width="0.0" cx="62.08958077117276" cy="13.31818181818187" r="5.5" />
                  <circle fill="#306591" stroke="#306591" stroke-opacity="0.0" stroke-width="0.0" cx="72.98248967839606" cy="138.1761363636364" r="5.5" />
                  <circle fill="#2b5b83" stroke="#2b5b83" stroke-opacity="0.0" stroke-width="0.0" cx="72.98248967839606" cy="163.1477272727273" r="5.5" />
                  <circle fill="#336a98" stroke="#336a98" stroke-opacity="0.0" stroke-width="0.0" cx="72.98248967839606" cy="138.1761363636364" r="5.5" />
                  <circle fill="#306591" stroke="#306591" stroke-opacity="0.0" stroke-width="0.0" cx="72.98248967839606" cy="138.1761363636364" r="5.5" />
                  <circle fill="#306591" stroke="#306591" stroke-opacity="0.0" stroke-width="0.0" cx="127.44703421451251" cy="138.1761363636364" r="5.5" />
                  <circle fill="#306591" stroke="#306591" stroke-opacity="0.0" stroke-width="0.0" cx="127.44703421451251" cy="138.1761363636364" r="5.5" />
                  <circle fill="#244c6f" stroke="#244c6f" stroke-opacity="0.0" stroke-width="0.0" cx="160.1257609361824" cy="188.11931818181822" r="5.5" />
                  <circle fill="#265176" stroke="#265176" stroke-opacity="0.0" stroke-width="0.0" cx="160.1257609361824" cy="179.79545454545456" r="5.5" />
                  <circle fill="#56b1f7" stroke="#56b1f7" stroke-opacity="0.0" stroke-width="0.0" cx="62.08958077117276" cy="13.31818181818187" r="5.5" />
                  <circle fill="#458fca" stroke="#458fca" stroke-opacity="0.0" stroke-width="0.0" cx="62.08958077117276" cy="38.289772727272805" r="5.5" />
                  <circle fill="#306591" stroke="#306591" stroke-opacity="0.0" stroke-width="0.0" cx="72.98248967839606" cy="138.1761363636364" r="5.5" />
                  <circle fill="#2b5b83" stroke="#2b5b83" stroke-opacity="0.0" stroke-width="0.0" cx="72.98248967839606" cy="163.1477272727273" r="5.5" />
                  <circle fill="#2e608a" stroke="#2e608a" stroke-opacity="0.0" stroke-width="0.0" cx="127.44703421451251" cy="146.50000000000003" r="5.5" />
                  <circle fill="#2e608a" stroke="#2e608a" stroke-opacity="0.0" stroke-width="0.0" cx="127.44703421451251" cy="138.1761363636364" r="5.5" />
                  <circle fill="#306591" stroke="#306591" stroke-opacity="0.0" stroke-width="0.0" cx="51.19667186394949" cy="138.1761363636364" r="5.5" />
                  <circle fill="#29567d" stroke="#29567d" stroke-opacity="0.0" stroke-width="0.0" cx="51.19667186394949" cy="138.1761363636364" r="5.5" />
                  <circle fill="#2b5b83" stroke="#2b5b83" stroke-opacity="0.0" stroke-width="0.0" cx="72.98248967839606" cy="146.50000000000003" r="5.5" />
                  <circle fill="#306591" stroke="#306591" stroke-opacity="0.0" stroke-width="0.0" cx="72.98248967839606" cy="138.1761363636364" r="5.5" />
                  <circle fill="#244c6f" stroke="#244c6f" stroke-opacity="0.0" stroke-width="0.0" cx="160.1257609361824" cy="163.1477272727273" r="5.5" />
                  <circle fill="#29567d" stroke="#29567d" stroke-opacity="0.0" stroke-width="0.0" cx="160.1257609361824" cy="163.1477272727273" r="5.5" />
                  <circle fill="#265176" stroke="#265176" stroke-opacity="0.0" stroke-width="0.0" cx="247.2690321939688" cy="163.1477272727273" r="5.5" />
                </g>
              </g>
            </g>
          </g>
        </g>
        <defs>
          <clipPath id="xXxprefixXx1">
            <rect x="21.961210910936405" y="0.0" width="647.0387890890636" height="293.0">
            </rect>
          </clipPath>
        </defs>
      </g>
      <g>
      </g>
    </g>
    <g transform="translate(16.0 153.0 ) rotate(-90.0 ) ">
      <text class="axis-title-y" y="0.0" text-anchor="middle">
        <tspan>hwy</tspan>
      </text>
    </g>
    <g transform="translate(374.9806054554682 345.0 ) ">
      <text class="axis-title-x" y="0.0" text-anchor="middle">
        <tspan>displ</tspan>
      </text>
    </g>
    <g transform="translate(539.2291908996754 6.5 ) ">
      <rect x="5.0" y="5.0" height="50.33333333333333" width="149.2708091003247" stroke="rgb(71,71,71)" stroke-opacity="1.0" stroke-width="0.0" fill="rgb(255,255,255)" fill-opacity="1.0">
      </rect>
      <g transform="translate(10.0 10.0 ) ">
        <g transform="translate(0.0 24.666666666666664 ) ">
          <text class="legend-title" y="0.0">
            <tspan>cty</tspan>
          </text>
        </g>
        <g transform="translate(24.270809100324705 0.0 ) ">
          <g>
            <rect x="0.0" y="0.0" height="23.0" width="115.0" stroke-width="0.0" fill="rgb(20,46,71)" fill-opacity="1.0">
            </rect>
            <rect x="7.55" y="0.0" height="23.0" width="107.45" stroke-width="0.0" fill="rgb(24,52,79)" fill-opacity="1.0">
            </rect>
            <rect x="13.1" y="0.0" height="23.0" width="101.9" stroke-width="0.0" fill="rgb(27,58,87)" fill-opacity="1.0">
            </rect>
            <rect x="18.65" y="0.0" height="23.0" width="96.35" stroke-width="0.0" fill="rgb(30,64,95)" fill-opacity="1.0">
            </rect>
            <rect x="24.2" y="0.0" height="23.0" width="90.8" stroke-width="0.0" fill="rgb(33,70,104)" fill-opacity="1.0">
            </rect>
            <rect x="29.75" y="0.0" height="23.0" width="85.25" stroke-width="0.0" fill="rgb(36,77,112)" fill-opacity="1.0">
            </rect>
            <rect x="35.3" y="0.0" height="23.0" width="79.7" stroke-width="0.0" fill="rgb(39,83,121)" fill-opacity="1.0">
            </rect>
            <rect x="40.849999999999994" y="0.0" height="23.0" width="74.15" stroke-width="0.0" fill="rgb(42,90,130)" fill-opacity="1.0">
            </rect>
            <rect x="46.39999999999999" y="0.0" height="23.0" width="68.60000000000001" stroke-width="0.0" fill="rgb(46,96,138)" fill-opacity="1.0">
            </rect>
            <rect x="51.94999999999999" y="0.0" height="23.0" width="63.05000000000001" stroke-width="0.0" fill="rgb(49,103,147)" fill-opacity="1.0">
            </rect>
            <rect x="57.499999999999986" y="0.0" height="23.0" width="57.500000000000014" stroke-width="0.0" fill="rgb(52,110,156)" fill-opacity="1.0">
            </rect>
            <rect x="63.04999999999998" y="0.0" height="23.0" width="51.95000000000002" stroke-width="0.0" fill="rgb(56,116,166)" fill-opacity="1.0">
            </rect>
            <rect x="68.59999999999998" y="0.0" height="23.0" width="46.40000000000002" stroke-width="0.0" fill="rgb(59,123,175)" fill-opacity="1.0">
            </rect>
            <rect x="74.14999999999998" y="0.0" height="23.0" width="40.85000000000002" stroke-width="0.0" fill="rgb(63,130,184)" fill-opacity="1.0">
            </rect>
            <rect x="79.69999999999997" y="0.0" height="23.0" width="35.300000000000026" stroke-width="0.0" fill="rgb(66,137,194)" fill-opacity="1.0">
            </rect>
            <rect x="85.24999999999997" y="0.0" height="23.0" width="29.75000000000003" stroke-width="0.0" fill="rgb(70,144,203)" fill-opacity="1.0">
            </rect>
            <rect x="90.79999999999997" y="0.0" height="23.0" width="24.20000000000003" stroke-width="0.0" fill="rgb(73,151,213)" fill-opacity="1.0">
            </rect>
            <rect x="96.34999999999997" y="0.0" height="23.0" width="18.650000000000034" stroke-width="0.0" fill="rgb(77,159,222)" fill-opacity="1.0">
            </rect>
            <rect x="101.89999999999996" y="0.0" height="23.0" width="13.100000000000037" stroke-width="0.0" fill="rgb(81,166,232)" fill-opacity="1.0">
            </rect>
            <rect x="107.44999999999996" y="0.0" height="23.0" width="7.55000000000004" stroke-width="0.0" fill="rgb(84,173,242)" fill-opacity="1.0">
            </rect>
            <line x1="6.269230769230774" y1="0.0" x2="6.269230769230774" y2="4.6" stroke-width="1.0" stroke="rgb(255,255,255)" stroke-opacity="1.0">
            </line>
            <line x1="6.269230769230774" y1="18.4" x2="6.269230769230774" y2="23.0" stroke-width="1.0" stroke="rgb(255,255,255)" stroke-opacity="1.0">
            </line>
            <g transform="translate(6.269230769230774 36.43333333333333 ) ">
              <text class="legend-item" text-anchor="middle" y="0.0">
                <tspan>10</tspan>
              </text>
            </g>
            <line x1="27.615384615384613" y1="0.0" x2="27.615384615384613" y2="4.6" stroke-width="1.0" stroke="rgb(255,255,255)" stroke-opacity="1.0">
            </line>
            <line x1="27.615384615384613" y1="18.4" x2="27.615384615384613" y2="23.0" stroke-width="1.0" stroke="rgb(255,255,255)" stroke-opacity="1.0">
            </line>
            <g transform="translate(27.615384615384613 36.43333333333333 ) ">
              <text class="legend-item" text-anchor="middle" y="0.0">
                <tspan>15</tspan>
              </text>
            </g>
            <line x1="48.96153846153847" y1="0.0" x2="48.96153846153847" y2="4.6" stroke-width="1.0" stroke="rgb(255,255,255)" stroke-opacity="1.0">
            </line>
            <line x1="48.96153846153847" y1="18.4" x2="48.96153846153847" y2="23.0" stroke-width="1.0" stroke="rgb(255,255,255)" stroke-opacity="1.0">
            </line>
            <g transform="translate(48.96153846153847 36.43333333333333 ) ">
              <text class="legend-item" text-anchor="middle" y="0.0">
                <tspan>20</tspan>
              </text>
            </g>
            <line x1="70.3076923076923" y1="0.0" x2="70.3076923076923" y2="4.6" stroke-width="1.0" stroke="rgb(255,255,255)" stroke-opacity="1.0">
            </line>
            <line x1="70.3076923076923" y1="18.4" x2="70.3076923076923" y2="23.0" stroke-width="1.0" stroke="rgb(255,255,255)" stroke-opacity="1.0">
            </line>
            <g transform="translate(70.3076923076923 36.43333333333333 ) ">
              <text class="legend-item" text-anchor="middle" y="0.0">
                <tspan>25</tspan>
              </text>
            </g>
            <line x1="91.65384615384615" y1="0.0" x2="91.65384615384615" y2="4.6" stroke-width="1.0" stroke="rgb(255,255,255)" stroke-opacity="1.0">
            </line>
            <line x1="91.65384615384615" y1="18.4" x2="91.65384615384615" y2="23.0" stroke-width="1.0" stroke="rgb(255,255,255)" stroke-opacity="1.0">
            </line>
            <g transform="translate(91.65384615384615 36.43333333333333 ) ">
              <text class="legend-item" text-anchor="middle" y="0.0">
                <tspan>30</tspan>
              </text>
            </g>
            <line x1="113.00000000000001" y1="0.0" x2="113.00000000000001" y2="4.6" stroke-width="1.0" stroke="rgb(255,255,255)" stroke-opacity="1.0">
            </line>
            <line x1="113.00000000000001" y1="18.4" x2="113.00000000000001" y2="23.0" stroke-width="1.0" stroke="rgb(255,255,255)" stroke-opacity="1.0">
            </line>
            <g transform="translate(113.00000000000001 36.43333333333333 ) ">
              <text class="legend-item" text-anchor="middle" y="0.0">
                <tspan>35</tspan>
              </text>
            </g>
          </g>
        </g>
      </g>
    </g>
    <g transform="translate(539.2291908996754 66.83333333333333 ) ">
      <rect x="5.0" y="5.0" height="33.0" width="133.36930335768523" stroke="rgb(71,71,71)" stroke-opacity="1.0" stroke-width="0.0" fill="rgb(255,255,255)" fill-opacity="1.0">
      </rect>
      <g transform="translate(10.0 10.0 ) ">
        <g transform="translate(0.0 16.0 ) ">
          <text class="legend-title" y="0.0">
            <tspan>drv</tspan>
          </text>
        </g>
        <g transform="translate(24.270809100324705 0.0 ) ">
          <g transform="">
            <g>
              <rect x="0.0" y="0.0" height="23.0" width="23.0" stroke-width="0.0" fill="rgb(255,255,255)" fill-opacity="1.0">
              </rect>
              <g transform="translate(1.0 1.0 ) ">
                <g>
                  <g >
                    <circle fill="#474747" stroke="#474747" stroke-opacity="0.0" stroke-width="0.0" cx="10.5" cy="10.5" r="5.5" />
                  </g>
                </g>
              </g>
              <rect x="0.0" y="0.0" height="23.0" width="23.0" stroke="rgb(255,255,255)" stroke-opacity="1.0" stroke-width="1.0" fill-opacity="0.0">
              </rect>
            </g>
            <g transform="translate(26.9903027277341 16.05 ) ">
              <text class="legend-item" y="0.0">
                <tspan>f</tspan>
              </text>
            </g>
          </g>
          <g transform="translate(32.06379303707911 0.0 ) ">
            <g>
              <rect x="0.0" y="0.0" height="23.0" width="23.0" stroke-width="0.0" fill="rgb(255,255,255)" fill-opacity="1.0">
              </rect>
              <g transform="translate(1.0 1.0 ) ">
                <g>
                  <g >
                    <path fill="#474747" stroke="#474747" stroke-opacity="0.0" stroke-width="0.0" d="M10.5 5.736860279185588 L10.5 5.736860279185588 L16.0 15.263139720814412 L5.0 15.263139720814412 Z" transform="rotate(0.0 10.5 10.5 ) " />
                  </g>
                </g>
              </g>
              <rect x="0.0" y="0.0" height="23.0" width="23.0" stroke="rgb(255,255,255)" stroke-opacity="1.0" stroke-width="1.0" fill-opacity="0.0">
              </rect>
            </g>
            <g transform="translate(26.9903027277341 16.05 ) ">
              <text class="legend-item" y="0.0">
                <tspan>4</tspan>
              </text>
            </g>
          </g>
          <g transform="translate(67.03470122028142 0.0 ) ">
            <g>
              <rect x="0.0" y="0.0" height="23.0" width="23.0" stroke-width="0.0" fill="rgb(255,255,255)" fill-opacity="1.0">
              </rect>
              <g transform="translate(1.0 1.0 ) ">
                <g>
                  <g >
                    <rect fill="#474747" stroke="#474747" stroke-opacity="0.0" stroke-width="0.0" x="5.0" y="5.0" height="11.0" width="11.0" transform="rotate(0.0 10.5 10.5 ) " />
                  </g>
                </g>
              </g>
              <rect x="0.0" y="0.0" height="23.0" width="23.0" stroke="rgb(255,255,255)" stroke-opacity="1.0" stroke-width="1.0" fill-opacity="0.0">
              </rect>
            </g>
            <g transform="translate(26.9903027277341 16.05 ) ">
              <text class="legend-item" y="0.0">
                <tspan>r</tspan>
              </text>
            </g>
          </g>
        </g>
      </g>
    </g>
    <path fill="rgb(0,0,0)" fill-opacity="0.0" stroke="rgb(71,71,71)" stroke-opacity="1.0" stroke-width="0.0" d="M0.0 0.0 L0.0 352.0 L705.0 352.0 L705.0 0.0 Z">
    </path>
  </g>
  <g id="xXxprefixXx2">
  </g>
</svg>