<svg xmlns="http://www.w3.org/2000/svg" xmlns:xlink="http://www.w3.org/1999/xlink" class="plt-container" width="705.0" height="313.0">
  <style type="text/css">
  .plt-container {
   font-family: Lucida Grande, sans-serif;
   user-select: none;
   -webkit-user-select: none;
   -moz-user-select: none;
   -ms-user-select: none;
}
text {
   text-rendering: optimizeLegibility;
}
#xXxprefixXx0 .plot-title {
   fill: #474747;
   font-family: Lucida Grande, sans-serif;
   font-size: 16.0px;
   font-weight: normal;
   font-style: normal;   
}
#xXxprefixXx0 .plot-subtitle {
   fill: #474747;
   font-family: Lucida Grande, sans-serif;
   font-size: 15.0px;
   font-weight: normal;
   font-style: normal;   
}
#xXxprefixXx0 .plot-caption {
   fill: #474747;
   font-family: Lucida Grande, sans-serif;
   font-size: 13.0px;
   font-weight: normal;
   font-style: normal;   
}
#xXxprefixXx0 .legend-title {
   fill: #474747;
   font-family: Lucida Grande, sans-serif;
   font-size: 15.0px;
   font-weight: normal;
   font-style: normal;   
}
#xXxprefixXx0 .legend-item {
   fill: #474747;
   font-family: Lucida Grande, sans-serif;
   font-size: 13.0px;
   font-weight: normal;
   font-style: normal;   
}
#xXxprefixXx0 .axis-title-x {
   fill: #474747;
   font-family: Lucida Grande, sans-serif;
   font-size: 15.0px;
   font-weight: normal;
   font-style: normal;   
}
#xXxprefixXx0 .axis-text-x {
   fill: #474747;
   font-family: Lucida Grande, sans-serif;
   font-size: 13.0px;
   font-weight: normal;
   font-style: normal;   
}
#xXxprefixXx2 .axis-tooltip-text-x {
   fill: #ffffff;
   font-family: Lucida Grande, sans-serif;
   font-size: 13.0px;
   font-weight: normal;
   font-style: normal;   
}
#xXxprefixXx0 .axis-title-y {
   fill: #474747;
   font-family: Lucida Grande, sans-serif;
   font-size: 15.0px;
   font-weight: normal;
   font-style: normal;   
}
#xXxprefixXx0 .axis-text-y {
   fill: #474747;
   font-family: Lucida Grande, sans-serif;
   font-size: 13.0px;
   font-weight: normal;
   font-style: normal;   
}
#xXxprefixXx2 .axis-tooltip-text-y {
   fill: #ffffff;
   font-family: Lucida Grande, sans-serif;
   font-size: 13.0px;
   font-weight: normal;
   font-style: normal;   
}
#xXxprefixXx0 .facet-strip-text-x {
   fill: #474747;
   font-family: Lucida Grande, sans-serif;
   font-size: 13.0px;
   font-weight: normal;
   font-style: normal;   
}
#xXxprefixXx0 .facet-strip-text-y {
   fill: #474747;
   font-family: Lucida Grande, sans-serif;
   font-size: 13.0px;
   font-weight: normal;
   font-style: normal;   
}
#xXxprefixXx2 .tooltip-text {
   fill: #474747;
   font-family: Lucida Grande, sans-serif;
   font-size: 13.0px;
   font-weight: normal;
   font-style: normal;   
}
#xXxprefixXx2 .tooltip-title {
   fill: #474747;
   font-family: Lucida Grande, sans-serif;
   font-size: 13.0px;
   font-weight: bold;
   font-style: normal;   
}
#xXxprefixXx2 .tooltip-label {
   fill: #474747;
   font-family: Lucida Grande, sans-serif;
   font-size: 13.0px;
   font-weight: bold;
   font-style: normal;   
}

  </style>
  <g id="xXxprefixXx0">
    <path fill-rule="evenodd" fill="rgb(255,255,255)" fill-opacity="1.0" d="M0.0 0.0 L0.0 313.0 L705.0 313.0 L705.0 0.0 Z">
    </path>
    <g transform="translate(23.0 10.0 ) ">
      <g transform="translate(21.961210910936405 257.0 ) ">
        <line x1="71.00811319337072" y1="-0.0" x2="71.00811319337072" y2="-257.0" stroke="rgb(233,233,233)" stroke-opacity="1.0" stroke-width="1.0">
        </line>
        <line x1="153.92043933096556" y1="-0.0" x2="153.92043933096556" y2="-257.0" stroke="rgb(233,233,233)" stroke-opacity="1.0" stroke-width="1.0">
        </line>
        <line x1="236.94634399751635" y1="-0.0" x2="236.94634399751635" y2="-257.0" stroke="rgb(233,233,233)" stroke-opacity="1.0" stroke-width="1.0">
        </line>
        <line x1="319.8586701351114" y1="-0.0" x2="319.8586701351114" y2="-257.0" stroke="rgb(233,233,233)" stroke-opacity="1.0" stroke-width="1.0">
        </line>
        <line x1="402.884574801662" y1="-0.0" x2="402.884574801662" y2="-257.0" stroke="rgb(233,233,233)" stroke-opacity="1.0" stroke-width="1.0">
        </line>
        <line x1="485.79690093925706" y1="-0.0" x2="485.79690093925706" y2="-257.0" stroke="rgb(233,233,233)" stroke-opacity="1.0" stroke-width="1.0">
        </line>
        <line x1="568.8228056058078" y1="-0.0" x2="568.8228056058078" y2="-257.0" stroke="rgb(233,233,233)" stroke-opacity="1.0" stroke-width="1.0">
        </line>
        <g transform="translate(71.00811319337072 0.0 ) ">
          <line stroke-width="1.0" stroke="rgb(71,71,71)" stroke-opacity="1.0" x2="0.0" y2="4.0">
          </line>
          <g transform="translate(0.0 7.0 ) ">
            <text class="axis-text-x" text-anchor="middle" dy="0.7em">
            2002
            </text>
          </g>
        </g>
        <g transform="translate(153.92043933096556 0.0 ) ">
          <line stroke-width="1.0" stroke="rgb(71,71,71)" stroke-opacity="1.0" x2="0.0" y2="4.0">
          </line>
          <g transform="translate(0.0 7.0 ) ">
            <text class="axis-text-x" text-anchor="middle" dy="0.7em">
            2004
            </text>
          </g>
        </g>
        <g transform="translate(236.94634399751635 0.0 ) ">
          <line stroke-width="1.0" stroke="rgb(71,71,71)" stroke-opacity="1.0" x2="0.0" y2="4.0">
          </line>
          <g transform="translate(0.0 7.0 ) ">
            <text class="axis-text-x" text-anchor="middle" dy="0.7em">
            2006
            </text>
          </g>
        </g>
        <g transform="translate(319.8586701351114 0.0 ) ">
          <line stroke-width="1.0" stroke="rgb(71,71,71)" stroke-opacity="1.0" x2="0.0" y2="4.0">
          </line>
          <g transform="translate(0.0 7.0 ) ">
            <text class="axis-text-x" text-anchor="middle" dy="0.7em">
            2008
            </text>
          </g>
        </g>
        <g transform="translate(402.884574801662 0.0 ) ">
          <line stroke-width="1.0" stroke="rgb(71,71,71)" stroke-opacity="1.0" x2="0.0" y2="4.0">
          </line>
          <g transform="translate(0.0 7.0 ) ">
            <text class="axis-text-x" text-anchor="middle" dy="0.7em">
            2010
            </text>
          </g>
        </g>
        <g transform="translate(485.79690093925706 0.0 ) ">
          <line stroke-width="1.0" stroke="rgb(71,71,71)" stroke-opacity="1.0" x2="0.0" y2="4.0">
          </line>
          <g transform="translate(0.0 7.0 ) ">
            <text class="axis-text-x" text-anchor="middle" dy="0.7em">
            2012
            </text>
          </g>
        </g>
        <g transform="translate(568.8228056058078 0.0 ) ">
          <line stroke-width="1.0" stroke="rgb(71,71,71)" stroke-opacity="1.0" x2="0.0" y2="4.0">
          </line>
          <g transform="translate(0.0 7.0 ) ">
            <text class="axis-text-x" text-anchor="middle" dy="0.7em">
            2014
            </text>
          </g>
        </g>
        <line x1="0.0" y1="0.0" x2="650.0387890890636" y2="0.0" stroke-width="1.0" stroke="rgb(71,71,71)" stroke-opacity="1.0">
        </line>
      </g>
      <g transform="translate(21.961210910936405 0.0 ) ">
        <line x1="0.0" y1="194.73711340206182" x2="650.0387890890636" y2="194.73711340206182" stroke="rgb(233,233,233)" stroke-opacity="1.0" stroke-width="1.0">
        </line>
        <line x1="0.0" y1="134.52155576382378" x2="650.0387890890636" y2="134.52155576382378" stroke="rgb(233,233,233)" stroke-opacity="1.0" stroke-width="1.0">
        </line>
        <line x1="0.0" y1="74.30599812558572" x2="650.0387890890636" y2="74.30599812558572" stroke="rgb(233,233,233)" stroke-opacity="1.0" stroke-width="1.0">
        </line>
        <line x1="0.0" y1="14.090440487347621" x2="650.0387890890636" y2="14.090440487347621" stroke="rgb(233,233,233)" stroke-opacity="1.0" stroke-width="1.0">
        </line>
        <g transform="translate(0.0 254.9526710402999 ) ">
          <g transform="translate(-3.0 0.0 ) ">
            <text class="axis-text-y" text-anchor="end" dy="0.35em">
            5
            </text>
          </g>
        </g>
        <g transform="translate(0.0 194.73711340206182 ) ">
          <g transform="translate(-3.0 0.0 ) ">
            <text class="axis-text-y" text-anchor="end" dy="0.35em">
            10
            </text>
          </g>
        </g>
        <g transform="translate(0.0 134.52155576382378 ) ">
          <g transform="translate(-3.0 0.0 ) ">
            <text class="axis-text-y" text-anchor="end" dy="0.35em">
            15
            </text>
          </g>
        </g>
        <g transform="translate(0.0 74.30599812558572 ) ">
          <g transform="translate(-3.0 0.0 ) ">
            <text class="axis-text-y" text-anchor="end" dy="0.35em">
            20
            </text>
          </g>
        </g>
        <g transform="translate(0.0 14.090440487347621 ) ">
          <g transform="translate(-3.0 0.0 ) ">
            <text class="axis-text-y" text-anchor="end" dy="0.35em">
            25
            </text>
          </g>
        </g>
      </g>
      <g transform="translate(21.961210910936405 0.0 ) " clip-path="url(#xXxprefixXx1)" clip-bounds-jfx="[rect (0.0, 0.0), (650.0387890890636, 257.0)]">
        <defs>
          <clipPath id="xXxprefixXx1">
            <rect x="0.0" y="0.0" width="650.0387890890636" height="257.0">
            </rect>
          </clipPath>
        </defs>
        <g>
          <path d="M29.5472176858666 245.3181818181818 L29.5472176858666 245.3181818181818 L33.06815208349053 241.70524835988752 L36.24835089424755 235.68369259606374 L39.764552853165014 244.11387066541704 L43.17190872183323 239.296626054358 L46.692843119457166 242.90955951265227 L50.100198988125385 233.2750702905342 L53.62113338574932 232.07075913776941 L57.14206778337325 228.45782567947515 L60.54942365204147 227.25351452671038 L64.07509048837187 222.43626991565134 L67.48244635704032 216.41471415182752 L71.00338075466425 214.006091846298 L74.52431515228795 215.21040299906275 L77.7045139630452 214.006091846298 L81.22071592196244 207.98453608247422 L84.62807179063088 200.75866916588564 L88.14900618825482 182.69400187441423 L91.55636205692304 207.98453608247422 L95.07729645454697 206.78022492970945 L98.5982308521709 200.75866916588564 L102.00558672083912 199.5543580131209 L105.53125355716952 203.16729147141515 L108.93860942583774 199.5543580131209 L112.45954382346167 199.5543580131209 L115.9804782210856 200.75866916588564 L119.16067703184262 198.35004686035614 L122.67687899076009 192.32849109653233 L126.0842348594283 195.9414245548266 L129.60516925705224 176.6724461105904 L133.01252512572046 191.12417994376756 L136.5334595233444 193.53280224929708 L140.05439392096832 192.32849109653233 L143.46174978963654 189.91986879100278 L146.98741662596694 191.12417994376756 L150.3947724946354 189.91986879100278 L153.9157068922591 187.51124648547327 L157.43664128988303 192.32849109653233 L160.73041862959576 192.32849109653233 L164.24662058851322 200.75866916588564 L167.65397645718144 195.9414245548266 L171.17491085480538 182.69400187441423 L174.5822667234736 207.98453608247422 L178.10320112109753 204.37160262417993 L181.62413551872146 199.5543580131209 L185.03149138738968 200.75866916588564 L188.55715822372008 198.35004686035614 L191.96451409238853 200.75866916588564 L195.48544849001223 201.9629803186504 L199.00638288763616 204.37160262417993 L202.18658169839318 203.16729147141515 L205.70278365731065 206.78022492970945 L209.1101395259791 205.57591377694467 L212.6310739236028 206.78022492970945 L216.03842979227124 209.18884723523894 L219.55936418989518 204.37160262417993 L223.08029858751888 214.006091846298 L226.48765445618733 211.5974695407685 L230.01332129251773 212.80178069353326 L233.42067716118595 210.39315838800374 L236.94161155880988 211.5974695407685 L240.46254595643381 205.57591377694467 L243.64274476719083 210.39315838800374 L247.1589467261083 214.006091846298 L250.56630259477652 212.80178069353326 L254.08723699240045 227.25351452671038 L257.49459286106867 218.82333645735707 L261.0155272586926 214.006091846298 L264.53646165631653 218.82333645735707 L267.94381752498475 220.02764761012182 L271.46948436131515 215.21040299906275 L274.8768402299834 224.84489222118088 L278.3977746276073 215.21040299906275 L281.91870902523124 212.80178069353326 L285.09890783598826 205.57591377694467 L288.6151097949057 211.5974695407685 L292.02246566357394 216.41471415182752 L295.5434000611979 222.43626991565134 L298.9507559298663 210.39315838800374 L302.47169032749 209.18884723523894 L305.99262472511396 210.39315838800374 L309.3999805937824 214.006091846298 L312.9256474301128 211.5974695407685 L316.333003298781 214.006091846298 L319.85393769640496 206.78022492970945 L323.3748720940289 210.39315838800374 L326.6686494337414 210.39315838800374 L330.18485139265886 201.9629803186504 L333.5922072613271 220.02764761012182 L337.113141658951 206.78022492970945 L340.52049752761945 198.35004686035614 L344.04143192524316 198.35004686035614 L347.5623663228671 192.32849109653233 L350.96972219153554 189.91986879100278 L354.49538902786594 197.14573570759134 L357.90274489653416 188.715557638238 L361.4236792941581 186.30693533270852 L364.944613691782 174.2638238050609 L368.12481250253904 167.0379568884723 L371.6410144614565 157.40346766635423 L375.0483703301247 144.15604498594186 L378.56930472774866 108.02671040299904 L381.9766605964169 122.47844423617616 L385.4975949940408 118.86551077788187 L389.01852939166474 100.80084348641046 L392.42588526033296 87.55342080599809 L395.95155209666336 76.71462043111524 L399.3589079653316 73.10168697282094 L402.8798423629555 74.30599812558572 L406.40077676057945 75.51030927835049 L409.58097557133647 69.48875351452668 L413.09717753025393 49.01546391752572 L416.50453339892215 46.606841611996174 L420.0254677965461 11.68181818181813 L423.4328236652145 46.606841611996174 L426.95375806283823 62.26288659793809 L430.47469246046217 70.69306466729142 L433.8820483291306 59.85426429240857 L437.4077151654608 62.26288659793809 L440.81507103412923 51.42408622305527 L444.33600543175316 56.24133083411431 L447.85693982937687 61.05857544517332 L451.0371386401341 56.24133083411431 L454.55334059905135 63.467197750702866 L457.9606964677198 55.037019681349534 L461.48163086534373 45.40253045923146 L464.88898673401195 50.219775070290495 L468.4099211316359 45.40253045923146 L471.9308555292598 50.219775070290495 L475.33821139792803 67.08013120899713 L478.86387823425844 64.67150890346761 L482.27123410292666 68.2844423617619 L485.7921685005506 64.67150890346761 L489.3131028981745 77.91893158388001 L492.60688023788725 83.94048734770382 L496.1230821968045 85.14479850046854 L499.53043806547294 75.51030927835049 L503.05137246309687 69.48875351452668 L506.4587283317651 104.41377694470475 L509.979662729389 93.5749765698219 L513.500597127013 88.75773195876283 L516.9079529956812 75.51030927835049 L520.4336198320116 91.16635426429235 L523.8409757006798 102.00515463917523 L527.3619100983037 124.88706654170568 L530.8828444959277 108.02671040299904 L534.0630433066847 103.20946579193995 L537.5792452656021 109.23102155576376 L540.9866011342704 109.23102155576376 L544.5075355318943 110.43533270852853 L547.9148914005625 120.06982193064664 L551.4358257981864 116.45688847235235 L554.9567601958104 116.45688847235235 L558.3641160644786 118.86551077788187 L561.889782900809 109.23102155576376 L565.2971387694774 106.82239925023424 L568.8180731671011 129.70431115276472 L572.3390075647251 123.6827553889409 L575.5192063754823 124.88706654170568 L579.0354083343996 126.09137769447045 L582.442764203068 139.33880037488282 L585.9636986006919 148.9732895970009 L589.3710544693602 157.40346766635423 L592.8919888669841 159.81208997188375 L596.412923264608 153.79053420805994 L599.8202791332762 151.38191190253045 L603.3459459696066 158.607778819119 L606.7533018382749 159.81208997188375 L610.2742362358988 156.1991565135895 L613.7951706335227 159.81208997188375 L616.9753694442797 170.6508903467666 L620.4915714031972 176.6724461105904 " fill="none" stroke-width="1.6500000000000001" stroke="rgb(71,71,71)" stroke-opacity="1.0">
          </path>
        </g>
      </g>
    </g>
    <g transform="translate(14.5 138.5 ) rotate(-90.0 ) ">
      <text class="axis-title-y" y="0.0" text-anchor="middle">
      unemployment rate
      </text>
    </g>
    <g transform="translate(369.9806054554682 304.5 ) ">
      <text class="axis-title-x" y="0.0" text-anchor="middle">
      date
      </text>
    </g>
    <path fill="rgb(0,0,0)" fill-opacity="0.0" stroke="rgb(71,71,71)" stroke-opacity="1.0" stroke-width="0.0" d="M0.0 0.0 L0.0 313.0 L705.0 313.0 L705.0 0.0 Z">
    </path>
  </g>
  <g id="xXxprefixXx2">
  </g>
</svg>