<svg xmlns="http://www.w3.org/2000/svg" xmlns:xlink="http://www.w3.org/1999/xlink" display="block" class="plt-container" width="705.0" height="470.0">
  <style type="text/css">
  .plt-container {
   font-family: Lucida Grande, sans-serif;
   user-select: none;
   -webkit-user-select: none;
   -moz-user-select: none;
   -ms-user-select: none;
}
text {
   text-rendering: optimizeLegibility;
}
#xXxprefixXx0 .plot-title {
fill: #474747;
font-weight: normal;
   font-style: normal;font-family: Lucida Grande, sans-serif;
font-size: 16.0px;

}
#xXxprefixXx0 .plot-subtitle {
fill: #474747;
font-weight: normal;
   font-style: normal;font-family: Lucida Grande, sans-serif;
font-size: 15.0px;

}
#xXxprefixXx0 .plot-caption {
fill: #474747;
font-weight: normal;
   font-style: normal;font-family: Lucida Grande, sans-serif;
font-size: 13.0px;

}
#xXxprefixXx0 .hyperlink-element {
fill: #118ed8;
font-weight: normal;
   font-style: normal;
}
#xXxprefixXx0 .legend-title {
fill: #474747;
font-weight: normal;
   font-style: normal;font-family: Lucida Grande, sans-serif;
font-size: 15.0px;

}
#xXxprefixXx0 .legend-item {
fill: #474747;
font-weight: normal;
   font-style: normal;font-family: Lucida Grande, sans-serif;
font-size: 13.0px;

}
#xXxprefixXx0 .axis-title-x {
fill: #474747;
font-weight: normal;
   font-style: normal;font-family: Lucida Grande, sans-serif;
font-size: 15.0px;

}
#xXxprefixXx0 .axis-text-x {
fill: #474747;
font-weight: normal;
   font-style: normal;font-family: Lucida Grande, sans-serif;
font-size: 13.0px;

}
#xXxprefixXx2 .axis-tooltip-text-x {
fill: #ffffff;
font-weight: normal;
   font-style: normal;font-family: Lucida Grande, sans-serif;
font-size: 13.0px;

}
#xXxprefixXx0 .axis-title-y {
fill: #474747;
font-weight: normal;
   font-style: normal;font-family: Lucida Grande, sans-serif;
font-size: 15.0px;

}
#xXxprefixXx0 .axis-text-y {
fill: #474747;
font-weight: normal;
   font-style: normal;font-family: Lucida Grande, sans-serif;
font-size: 13.0px;

}
#xXxprefixXx2 .axis-tooltip-text-y {
fill: #ffffff;
font-weight: normal;
   font-style: normal;font-family: Lucida Grande, sans-serif;
font-size: 13.0px;

}
#xXxprefixXx0 .facet-strip-text-x {
fill: #474747;
font-weight: normal;
   font-style: normal;font-family: Lucida Grande, sans-serif;
font-size: 13.0px;

}
#xXxprefixXx0 .facet-strip-text-y {
fill: #474747;
font-weight: normal;
   font-style: normal;font-family: Lucida Grande, sans-serif;
font-size: 13.0px;

}
#xXxprefixXx2 .tooltip-text {
fill: #474747;
font-weight: normal;
   font-style: normal;font-family: Lucida Grande, sans-serif;
font-size: 13.0px;

}
#xXxprefixXx2 .tooltip-title {
fill: #474747;
font-weight: bold;
   font-style: normal;font-family: Lucida Grande, sans-serif;
font-size: 13.0px;

}
#xXxprefixXx2 .tooltip-label {
fill: #474747;
font-weight: bold;
   font-style: normal;font-family: Lucida Grande, sans-serif;
font-size: 13.0px;

}

  </style>
  <g id="xXxprefixXx0">
    <path fill-rule="evenodd" fill="rgb(255,255,255)" fill-opacity="1.0" d="M0.0 0.0 L0.0 470.0 L705.0 470.0 L705.0 0.0 Z">
    </path>
    <g transform="translate(29.5 6.5 ) ">
      <g>
        <g transform="translate(21.961210910936405 0.0 ) ">
          <g>
            <line x1="53.48208673225436" y1="0.0" x2="53.48208673225436" y2="411.0" stroke="rgb(233,233,233)" stroke-opacity="1.0" stroke-width="1.0" fill="none">
            </line>
            <line x1="133.3060967803952" y1="0.0" x2="133.3060967803952" y2="411.0" stroke="rgb(233,233,233)" stroke-opacity="1.0" stroke-width="1.0" fill="none">
            </line>
            <line x1="213.13010682853604" y1="0.0" x2="213.13010682853604" y2="411.0" stroke="rgb(233,233,233)" stroke-opacity="1.0" stroke-width="1.0" fill="none">
            </line>
            <line x1="292.9541168766769" y1="0.0" x2="292.9541168766769" y2="411.0" stroke="rgb(233,233,233)" stroke-opacity="1.0" stroke-width="1.0" fill="none">
            </line>
            <line x1="372.77812692481774" y1="0.0" x2="372.77812692481774" y2="411.0" stroke="rgb(233,233,233)" stroke-opacity="1.0" stroke-width="1.0" fill="none">
            </line>
            <line x1="452.6021369729586" y1="0.0" x2="452.6021369729586" y2="411.0" stroke="rgb(233,233,233)" stroke-opacity="1.0" stroke-width="1.0" fill="none">
            </line>
          </g>
        </g>
        <g transform="translate(21.961210910936405 0.0 ) ">
          <g>
            <line x1="0.0" y1="357.2897727272728" x2="474.15461968595656" y2="357.2897727272728" stroke="rgb(233,233,233)" stroke-opacity="1.0" stroke-width="1.0" fill="none">
            </line>
            <line x1="0.0" y1="298.909090909091" x2="474.15461968595656" y2="298.909090909091" stroke="rgb(233,233,233)" stroke-opacity="1.0" stroke-width="1.0" fill="none">
            </line>
            <line x1="0.0" y1="240.52840909090918" x2="474.15461968595656" y2="240.52840909090918" stroke="rgb(233,233,233)" stroke-opacity="1.0" stroke-width="1.0" fill="none">
            </line>
            <line x1="0.0" y1="182.14772727272737" x2="474.15461968595656" y2="182.14772727272737" stroke="rgb(233,233,233)" stroke-opacity="1.0" stroke-width="1.0" fill="none">
            </line>
            <line x1="0.0" y1="123.76704545454555" x2="474.15461968595656" y2="123.76704545454555" stroke="rgb(233,233,233)" stroke-opacity="1.0" stroke-width="1.0" fill="none">
            </line>
            <line x1="0.0" y1="65.38636363636374" x2="474.15461968595656" y2="65.38636363636374" stroke="rgb(233,233,233)" stroke-opacity="1.0" stroke-width="1.0" fill="none">
            </line>
            <line x1="0.0" y1="7.00568181818187" x2="474.15461968595656" y2="7.00568181818187" stroke="rgb(233,233,233)" stroke-opacity="1.0" stroke-width="1.0" fill="none">
            </line>
          </g>
        </g>
      </g>
      <g clip-path="url(#xXxprefixXx1)" clip-bounds-jfx="[rect (21.961210910936405, 0.0), (474.15461968595656, 411.0)]">
        <g transform="translate(21.961210910936405 0.0 ) ">
          <g>
            <g>
              <g>
                <g >
                  <circle fill="#29567d" stroke="#29567d" stroke-opacity="0.0" stroke-width="0.0" cx="37.5172847226262" cy="193.82386363636368" r="4.4" />
                  <circle fill="#306591" stroke="#306591" stroke-opacity="0.0" stroke-width="0.0" cx="37.5172847226262" cy="193.82386363636368" r="4.4" />
                  <circle fill="#2e608a" stroke="#2e608a" stroke-opacity="0.0" stroke-width="0.0" cx="53.48208673225436" cy="170.471590909091" r="4.4" />
                  <circle fill="#306591" stroke="#306591" stroke-opacity="0.0" stroke-width="0.0" cx="53.48208673225436" cy="182.14772727272737" r="4.4" />
                  <circle fill="#244c6f" stroke="#244c6f" stroke-opacity="0.0" stroke-width="0.0" cx="117.34129477076702" cy="228.8522727272728" r="4.4" />
                  <circle fill="#29567d" stroke="#29567d" stroke-opacity="0.0" stroke-width="0.0" cx="117.34129477076702" cy="228.8522727272728" r="4.4" />
                  <circle fill="#29567d" stroke="#29567d" stroke-opacity="0.0" stroke-width="0.0" cx="141.2884977852093" cy="217.17613636363643" r="4.4" />
                  <path fill="#29567d" stroke="#29567d" stroke-opacity="0.0" stroke-width="0.0" d="M37.5172847226262 223.8171874311642 L37.5172847226262 223.8171874311642 L41.917284722626206 231.43821098446728 L33.1172847226262 231.43821098446728 Z" transform="rotate(0.0 37.5172847226262 228.8522727272728 ) " />
                  <path fill="#244c6f" stroke="#244c6f" stroke-opacity="0.0" stroke-width="0.0" d="M37.5172847226262 235.49332379480057 L37.5172847226262 235.49332379480057 L41.917284722626206 243.11434734810365 L33.1172847226262 243.11434734810365 Z" transform="rotate(0.0 37.5172847226262 240.52840909090918 ) " />
                  <path fill="#2e608a" stroke="#2e608a" stroke-opacity="0.0" stroke-width="0.0" d="M53.48208673225436 200.46491470389145 L53.48208673225436 200.46491470389145 L57.882086732254365 208.08593825719453 L49.08208673225436 208.08593825719453 Z" transform="rotate(0.0 53.48208673225436 205.50000000000006 ) " />
                  <path fill="#2b5b83" stroke="#2b5b83" stroke-opacity="0.0" stroke-width="0.0" d="M53.48208673225436 212.14105106752783 L53.48208673225436 212.14105106752783 L57.882086732254365 219.7620746208309 L49.08208673225436 219.7620746208309 Z" transform="rotate(0.0 53.48208673225436 217.17613636363643 ) " />
                  <path fill="#214769" stroke="#214769" stroke-opacity="0.0" stroke-width="0.0" d="M117.34129477076702 235.49332379480057 L117.34129477076702 235.49332379480057 L121.74129477076701 243.11434734810365 L112.94129477076702 243.11434734810365 Z" transform="rotate(0.0 117.34129477076702 240.52840909090918 ) " />
                  <path fill="#265176" stroke="#265176" stroke-opacity="0.0" stroke-width="0.0" d="M117.34129477076702 235.49332379480057 L117.34129477076702 235.49332379480057 L121.74129477076701 243.11434734810365 L112.94129477076702 243.11434734810365 Z" transform="rotate(0.0 117.34129477076702 240.52840909090918 ) " />
                  <path fill="#265176" stroke="#265176" stroke-opacity="0.0" stroke-width="0.0" d="M141.2884977852093 235.49332379480057 L141.2884977852093 235.49332379480057 L145.6884977852093 243.11434734810365 L136.8884977852093 243.11434734810365 Z" transform="rotate(0.0 141.2884977852093 240.52840909090918 ) " />
                  <path fill="#214769" stroke="#214769" stroke-opacity="0.0" stroke-width="0.0" d="M141.2884977852093 235.49332379480057 L141.2884977852093 235.49332379480057 L145.6884977852093 243.11434734810365 L136.8884977852093 243.11434734810365 Z" transform="rotate(0.0 141.2884977852093 240.52840909090918 ) " />
                  <path fill="#214769" stroke="#214769" stroke-opacity="0.0" stroke-width="0.0" d="M117.34129477076702 247.1694601584369 L117.34129477076702 247.1694601584369 L121.74129477076701 254.79048371173997 L112.94129477076702 254.79048371173997 Z" transform="rotate(0.0 117.34129477076702 252.2045454545455 ) " />
                  <path fill="#265176" stroke="#265176" stroke-opacity="0.0" stroke-width="0.0" d="M141.2884977852093 235.49332379480057 L141.2884977852093 235.49332379480057 L145.6884977852093 243.11434734810365 L136.8884977852093 243.11434734810365 Z" transform="rotate(0.0 141.2884977852093 240.52840909090918 ) " />
                  <path fill="#244c6f" stroke="#244c6f" stroke-opacity="0.0" stroke-width="0.0" d="M229.0949088381642 258.8455965220733 L229.0949088381642 258.8455965220733 L233.4949088381642 266.46662007537634 L224.6949088381642 266.46662007537634 Z" transform="rotate(0.0 229.0949088381642 263.88068181818187 ) " />
                  <rect fill="#1f4262" stroke="#1f4262" stroke-opacity="0.0" stroke-width="0.0" x="312.5013198911192" y="294.509090909091" height="8.8" width="8.8" transform="rotate(0.0 316.90131989111916 298.909090909091 ) " />
                  <rect fill="#18344f" stroke="#18344f" stroke-opacity="0.0" stroke-width="0.0" x="312.5013198911192" y="352.8897727272728" height="8.8" width="8.8" transform="rotate(0.0 316.90131989111916 357.2897727272728 ) " />
                  <rect fill="#1f4262" stroke="#1f4262" stroke-opacity="0.0" stroke-width="0.0" x="312.5013198911192" y="294.509090909091" height="8.8" width="8.8" transform="rotate(0.0 316.90131989111916 298.909090909091 ) " />
                  <rect fill="#1c3d5c" stroke="#1c3d5c" stroke-opacity="0.0" stroke-width="0.0" x="344.4309239103755" y="329.5375000000001" height="8.8" width="8.8" transform="rotate(0.0 348.8309239103755 333.93750000000006 ) " />
                  <rect fill="#1a3955" stroke="#1a3955" stroke-opacity="0.0" stroke-width="0.0" x="368.37812692481776" y="329.5375000000001" height="8.8" width="8.8" transform="rotate(0.0 372.77812692481774 333.93750000000006 ) " />
                  <rect fill="#244c6f" stroke="#244c6f" stroke-opacity="0.0" stroke-width="0.0" x="344.4309239103755" y="224.4522727272728" height="8.8" width="8.8" transform="rotate(0.0 348.8309239103755 228.8522727272728 ) " />
                  <rect fill="#214769" stroke="#214769" stroke-opacity="0.0" stroke-width="0.0" x="344.4309239103755" y="259.4806818181819" height="8.8" width="8.8" transform="rotate(0.0 348.8309239103755 263.88068181818187 ) " />
                  <rect fill="#244c6f" stroke="#244c6f" stroke-opacity="0.0" stroke-width="0.0" x="384.3429289344459" y="224.4522727272728" height="8.8" width="8.8" transform="rotate(0.0 388.7429289344459 228.8522727272728 ) " />
                  <rect fill="#214769" stroke="#214769" stroke-opacity="0.0" stroke-width="0.0" x="384.3429289344459" y="236.12840909090917" height="8.8" width="8.8" transform="rotate(0.0 388.7429289344459 240.52840909090918 ) " />
                  <rect fill="#214769" stroke="#214769" stroke-opacity="0.0" stroke-width="0.0" x="448.2021369729586" y="247.8045454545455" height="8.8" width="8.8" transform="rotate(0.0 452.6021369729586 252.2045454545455 ) " />
                  <path fill="#1f4262" stroke="#1f4262" stroke-opacity="0.0" stroke-width="0.0" d="M316.90131989111916 305.5501419766188 L316.90131989111916 305.5501419766188 L321.3013198911192 313.17116552992184 L312.5013198911192 313.17116552992184 Z" transform="rotate(0.0 316.90131989111916 310.58522727272737 ) " />
                  <path fill="#18344f" stroke="#18344f" stroke-opacity="0.0" stroke-width="0.0" d="M316.90131989111916 363.9308237948006 L316.90131989111916 363.9308237948006 L321.3013198911192 371.5518473481036 L312.5013198911192 371.5518473481036 Z" transform="rotate(0.0 316.90131989111916 368.9659090909091 ) " />
                  <path fill="#18344f" stroke="#18344f" stroke-opacity="0.0" stroke-width="0.0" d="M348.8309239103755 352.25468743116426 L348.8309239103755 352.25468743116426 L353.2309239103755 359.8757109844673 L344.4309239103755 359.8757109844673 Z" transform="rotate(0.0 348.8309239103755 357.2897727272728 ) " />
                  <path fill="#1f4262" stroke="#1f4262" stroke-opacity="0.0" stroke-width="0.0" d="M412.6901319488881 328.9024147038915 L412.6901319488881 328.9024147038915 L417.09013194888814 336.5234382571945 L408.29013194888813 336.5234382571945 Z" transform="rotate(0.0 412.6901319488881 333.93750000000006 ) " />
                  <circle fill="#2b5b83" stroke="#2b5b83" stroke-opacity="0.0" stroke-width="0.0" cx="85.4116907515107" cy="217.17613636363643" r="4.4" />
                  <circle fill="#336a98" stroke="#336a98" stroke-opacity="0.0" stroke-width="0.0" cx="85.4116907515107" cy="182.14772727272737" r="4.4" />
                  <circle fill="#29567d" stroke="#29567d" stroke-opacity="0.0" stroke-width="0.0" cx="141.2884977852093" cy="228.8522727272728" r="4.4" />
                  <circle fill="#29567d" stroke="#29567d" stroke-opacity="0.0" stroke-width="0.0" cx="173.21810180446562" cy="193.82386363636368" r="4.4" />
                  <circle fill="#265176" stroke="#265176" stroke-opacity="0.0" stroke-width="0.0" cx="181.20050280927973" cy="228.8522727272728" r="4.4" />
                  <circle fill="#29567d" stroke="#29567d" stroke-opacity="0.0" stroke-width="0.0" cx="85.4116907515107" cy="252.2045454545455" r="4.4" />
                  <circle fill="#265176" stroke="#265176" stroke-opacity="0.0" stroke-width="0.0" cx="133.3060967803952" cy="252.2045454545455" r="4.4" />
                  <circle fill="#244c6f" stroke="#244c6f" stroke-opacity="0.0" stroke-width="0.0" cx="157.25329979483746" cy="275.55681818181824" r="4.4" />
                  <circle fill="#244c6f" stroke="#244c6f" stroke-opacity="0.0" stroke-width="0.0" cx="157.25329979483746" cy="275.55681818181824" r="4.4" />
                  <circle fill="#265176" stroke="#265176" stroke-opacity="0.0" stroke-width="0.0" cx="157.25329979483746" cy="252.2045454545455" r="4.4" />
                  <circle fill="#265176" stroke="#265176" stroke-opacity="0.0" stroke-width="0.0" cx="157.25329979483746" cy="252.2045454545455" r="4.4" />
                  <circle fill="#18344f" stroke="#18344f" stroke-opacity="0.0" stroke-width="0.0" cx="157.25329979483746" cy="333.93750000000006" r="4.4" />
                  <circle fill="#214769" stroke="#214769" stroke-opacity="0.0" stroke-width="0.0" cx="197.16530481890788" cy="275.55681818181824" r="4.4" />
                  <circle fill="#214769" stroke="#214769" stroke-opacity="0.0" stroke-width="0.0" cx="197.16530481890788" cy="287.2329545454546" r="4.4" />
                  <circle fill="#244c6f" stroke="#244c6f" stroke-opacity="0.0" stroke-width="0.0" cx="197.16530481890788" cy="263.88068181818187" r="4.4" />
                  <circle fill="#244c6f" stroke="#244c6f" stroke-opacity="0.0" stroke-width="0.0" cx="213.13010682853604" cy="263.88068181818187" r="4.4" />
                  <path fill="#214769" stroke="#214769" stroke-opacity="0.0" stroke-width="0.0" d="M189.18290381409378 305.5501419766188 L189.18290381409378 305.5501419766188 L193.58290381409378 313.17116552992184 L184.78290381409377 313.17116552992184 Z" transform="rotate(0.0 189.18290381409378 310.58522727272737 ) " />
                  <path fill="#1f4262" stroke="#1f4262" stroke-opacity="0.0" stroke-width="0.0" d="M189.18290381409378 317.2262783402552 L189.18290381409378 317.2262783402552 L193.58290381409378 324.8473018935582 L184.78290381409377 324.8473018935582 Z" transform="rotate(0.0 189.18290381409378 322.26136363636374 ) " />
                  <path fill="#1c3d5c" stroke="#1c3d5c" stroke-opacity="0.0" stroke-width="0.0" d="M205.14770582372194 328.9024147038915 L205.14770582372194 328.9024147038915 L209.54770582372194 336.5234382571945 L200.74770582372193 336.5234382571945 Z" transform="rotate(0.0 205.14770582372194 333.93750000000006 ) " />
                  <path fill="#1f4262" stroke="#1f4262" stroke-opacity="0.0" stroke-width="0.0" d="M205.14770582372194 328.9024147038915 L205.14770582372194 328.9024147038915 L209.54770582372194 336.5234382571945 L200.74770582372193 336.5234382571945 Z" transform="rotate(0.0 205.14770582372194 333.93750000000006 ) " />
                  <path fill="#1f4262" stroke="#1f4262" stroke-opacity="0.0" stroke-width="0.0" d="M269.0069138622346 305.5501419766188 L269.0069138622346 305.5501419766188 L273.40691386223466 313.17116552992184 L264.60691386223465 313.17116552992184 Z" transform="rotate(0.0 269.0069138622346 310.58522727272737 ) " />
                  <path fill="#1f4262" stroke="#1f4262" stroke-opacity="0.0" stroke-width="0.0" d="M269.0069138622346 305.5501419766188 L269.0069138622346 305.5501419766188 L273.40691386223466 313.17116552992184 L264.60691386223465 313.17116552992184 Z" transform="rotate(0.0 269.0069138622346 310.58522727272737 ) " />
                  <path fill="#132b43" stroke="#132b43" stroke-opacity="0.0" stroke-width="0.0" d="M269.0069138622346 387.2830965220733 L269.0069138622346 387.2830965220733 L273.40691386223466 394.90412007537634 L264.60691386223465 394.90412007537634 Z" transform="rotate(0.0 269.0069138622346 392.31818181818187 ) " />
                  <path fill="#18344f" stroke="#18344f" stroke-opacity="0.0" stroke-width="0.0" d="M308.91891888630505 328.9024147038915 L308.91891888630505 328.9024147038915 L313.3189188863051 336.5234382571945 L304.5189188863051 336.5234382571945 Z" transform="rotate(0.0 308.91891888630505 333.93750000000006 ) " />
                  <path fill="#18344f" stroke="#18344f" stroke-opacity="0.0" stroke-width="0.0" d="M308.91891888630505 352.25468743116426 L308.91891888630505 352.25468743116426 L313.3189188863051 359.8757109844673 L304.5189188863051 359.8757109844673 Z" transform="rotate(0.0 308.91891888630505 357.2897727272728 ) " />
                  <path fill="#1c3d5c" stroke="#1c3d5c" stroke-opacity="0.0" stroke-width="0.0" d="M205.14770582372194 328.9024147038915 L205.14770582372194 328.9024147038915 L209.54770582372194 336.5234382571945 L200.74770582372193 336.5234382571945 Z" transform="rotate(0.0 205.14770582372194 333.93750000000006 ) " />
                  <path fill="#1c3d5c" stroke="#1c3d5c" stroke-opacity="0.0" stroke-width="0.0" d="M269.0069138622346 328.9024147038915 L269.0069138622346 328.9024147038915 L273.40691386223466 336.5234382571945 L264.60691386223465 336.5234382571945 Z" transform="rotate(0.0 269.0069138622346 333.93750000000006 ) " />
                  <path fill="#132b43" stroke="#132b43" stroke-opacity="0.0" stroke-width="0.0" d="M269.0069138622346 387.2830965220733 L269.0069138622346 387.2830965220733 L273.40691386223466 394.90412007537634 L264.60691386223465 394.90412007537634 Z" transform="rotate(0.0 269.0069138622346 392.31818181818187 ) " />
                  <path fill="#1c3d5c" stroke="#1c3d5c" stroke-opacity="0.0" stroke-width="0.0" d="M269.0069138622346 328.9024147038915 L269.0069138622346 328.9024147038915 L273.40691386223466 336.5234382571945 L264.60691386223465 336.5234382571945 Z" transform="rotate(0.0 269.0069138622346 333.93750000000006 ) " />
                  <path fill="#18344f" stroke="#18344f" stroke-opacity="0.0" stroke-width="0.0" d="M308.91891888630505 340.5785510675279 L308.91891888630505 340.5785510675279 L313.3189188863051 348.1995746208309 L304.5189188863051 348.1995746208309 Z" transform="rotate(0.0 308.91891888630505 345.61363636363643 ) " />
                  <path fill="#1c3d5c" stroke="#1c3d5c" stroke-opacity="0.0" stroke-width="0.0" d="M348.8309239103755 317.2262783402552 L348.8309239103755 317.2262783402552 L353.2309239103755 324.8473018935582 L344.4309239103755 324.8473018935582 Z" transform="rotate(0.0 348.8309239103755 322.26136363636374 ) " />
                  <path fill="#18344f" stroke="#18344f" stroke-opacity="0.0" stroke-width="0.0" d="M364.7957259200037 352.25468743116426 L364.7957259200037 352.25468743116426 L369.1957259200037 359.8757109844673 L360.3957259200037 359.8757109844673 Z" transform="rotate(0.0 364.7957259200037 357.2897727272728 ) " />
                  <path fill="#1a3955" stroke="#1a3955" stroke-opacity="0.0" stroke-width="0.0" d="M269.0069138622346 340.5785510675279 L269.0069138622346 340.5785510675279 L273.40691386223466 348.1995746208309 L264.60691386223465 348.1995746208309 Z" transform="rotate(0.0 269.0069138622346 345.61363636363643 ) " />
                  <path fill="#132b43" stroke="#132b43" stroke-opacity="0.0" stroke-width="0.0" d="M269.0069138622346 387.2830965220733 L269.0069138622346 387.2830965220733 L273.40691386223466 394.90412007537634 L264.60691386223465 394.90412007537634 Z" transform="rotate(0.0 269.0069138622346 392.31818181818187 ) " />
                  <path fill="#1c3d5c" stroke="#1c3d5c" stroke-opacity="0.0" stroke-width="0.0" d="M269.0069138622346 328.9024147038915 L269.0069138622346 328.9024147038915 L273.40691386223466 336.5234382571945 L264.60691386223465 336.5234382571945 Z" transform="rotate(0.0 269.0069138622346 333.93750000000006 ) " />
                  <path fill="#1c3d5c" stroke="#1c3d5c" stroke-opacity="0.0" stroke-width="0.0" d="M269.0069138622346 328.9024147038915 L269.0069138622346 328.9024147038915 L273.40691386223466 336.5234382571945 L264.60691386223465 336.5234382571945 Z" transform="rotate(0.0 269.0069138622346 333.93750000000006 ) " />
                  <path fill="#1a3955" stroke="#1a3955" stroke-opacity="0.0" stroke-width="0.0" d="M269.0069138622346 340.5785510675279 L269.0069138622346 340.5785510675279 L273.40691386223466 348.1995746208309 L264.60691386223465 348.1995746208309 Z" transform="rotate(0.0 269.0069138622346 345.61363636363643 ) " />
                  <path fill="#132b43" stroke="#132b43" stroke-opacity="0.0" stroke-width="0.0" d="M269.0069138622346 387.2830965220733 L269.0069138622346 387.2830965220733 L273.40691386223466 394.90412007537634 L264.60691386223465 394.90412007537634 Z" transform="rotate(0.0 269.0069138622346 392.31818181818187 ) " />
                  <path fill="#18344f" stroke="#18344f" stroke-opacity="0.0" stroke-width="0.0" d="M308.91891888630505 352.25468743116426 L308.91891888630505 352.25468743116426 L313.3189188863051 359.8757109844673 L304.5189188863051 359.8757109844673 Z" transform="rotate(0.0 308.91891888630505 357.2897727272728 ) " />
                  <path fill="#18344f" stroke="#18344f" stroke-opacity="0.0" stroke-width="0.0" d="M308.91891888630505 340.5785510675279 L308.91891888630505 340.5785510675279 L313.3189188863051 348.1995746208309 L304.5189188863051 348.1995746208309 Z" transform="rotate(0.0 308.91891888630505 345.61363636363643 ) " />
                  <path fill="#1c3d5c" stroke="#1c3d5c" stroke-opacity="0.0" stroke-width="0.0" d="M348.8309239103755 328.9024147038915 L348.8309239103755 328.9024147038915 L353.2309239103755 336.5234382571945 L344.4309239103755 336.5234382571945 Z" transform="rotate(0.0 348.8309239103755 333.93750000000006 ) " />
                  <path fill="#18344f" stroke="#18344f" stroke-opacity="0.0" stroke-width="0.0" d="M364.7957259200037 352.25468743116426 L364.7957259200037 352.25468743116426 L369.1957259200037 359.8757109844673 L360.3957259200037 359.8757109844673 Z" transform="rotate(0.0 364.7957259200037 357.2897727272728 ) " />
                  <rect fill="#18344f" stroke="#18344f" stroke-opacity="0.0" stroke-width="0.0" x="256.62451285742054" y="329.5375000000001" height="8.8" width="8.8" transform="rotate(0.0 261.0245128574205 333.93750000000006 ) " />
                  <rect fill="#18344f" stroke="#18344f" stroke-opacity="0.0" stroke-width="0.0" x="320.4837208959333" y="329.5375000000001" height="8.8" width="8.8" transform="rotate(0.0 324.88372089593327 333.93750000000006 ) " />
                  <rect fill="#1a3955" stroke="#1a3955" stroke-opacity="0.0" stroke-width="0.0" x="320.4837208959333" y="317.86136363636376" height="8.8" width="8.8" transform="rotate(0.0 324.88372089593327 322.26136363636374 ) " />
                  <path fill="#1f4262" stroke="#1f4262" stroke-opacity="0.0" stroke-width="0.0" d="M213.13010682853604 328.9024147038915 L213.13010682853604 328.9024147038915 L217.53010682853605 336.5234382571945 L208.73010682853604 336.5234382571945 Z" transform="rotate(0.0 213.13010682853604 333.93750000000006 ) " />
                  <path fill="#214769" stroke="#214769" stroke-opacity="0.0" stroke-width="0.0" d="M213.13010682853604 305.5501419766188 L213.13010682853604 305.5501419766188 L217.53010682853605 313.17116552992184 L208.73010682853604 313.17116552992184 Z" transform="rotate(0.0 213.13010682853604 310.58522727272737 ) " />
                  <path fill="#1f4262" stroke="#1f4262" stroke-opacity="0.0" stroke-width="0.0" d="M213.13010682853604 328.9024147038915 L213.13010682853604 328.9024147038915 L217.53010682853605 336.5234382571945 L208.73010682853604 336.5234382571945 Z" transform="rotate(0.0 213.13010682853604 333.93750000000006 ) " />
                  <path fill="#1c3d5c" stroke="#1c3d5c" stroke-opacity="0.0" stroke-width="0.0" d="M213.13010682853604 305.5501419766188 L213.13010682853604 305.5501419766188 L217.53010682853605 313.17116552992184 L208.73010682853604 313.17116552992184 Z" transform="rotate(0.0 213.13010682853604 310.58522727272737 ) " />
                  <path fill="#1c3d5c" stroke="#1c3d5c" stroke-opacity="0.0" stroke-width="0.0" d="M261.0245128574205 305.5501419766188 L261.0245128574205 305.5501419766188 L265.42451285742055 313.17116552992184 L256.62451285742054 313.17116552992184 Z" transform="rotate(0.0 261.0245128574205 310.58522727272737 ) " />
                  <path fill="#1c3d5c" stroke="#1c3d5c" stroke-opacity="0.0" stroke-width="0.0" d="M292.9541168766769 328.9024147038915 L292.9541168766769 328.9024147038915 L297.3541168766769 336.5234382571945 L288.5541168766769 336.5234382571945 Z" transform="rotate(0.0 292.9541168766769 333.93750000000006 ) " />
                  <path fill="#1f4262" stroke="#1f4262" stroke-opacity="0.0" stroke-width="0.0" d="M229.0949088381642 328.9024147038915 L229.0949088381642 328.9024147038915 L233.4949088381642 336.5234382571945 L224.6949088381642 336.5234382571945 Z" transform="rotate(0.0 229.0949088381642 333.93750000000006 ) " />
                  <path fill="#1f4262" stroke="#1f4262" stroke-opacity="0.0" stroke-width="0.0" d="M229.0949088381642 328.9024147038915 L229.0949088381642 328.9024147038915 L233.4949088381642 336.5234382571945 L224.6949088381642 336.5234382571945 Z" transform="rotate(0.0 229.0949088381642 333.93750000000006 ) " />
                  <path fill="#1c3d5c" stroke="#1c3d5c" stroke-opacity="0.0" stroke-width="0.0" d="M261.0245128574205 340.5785510675279 L261.0245128574205 340.5785510675279 L265.42451285742055 348.1995746208309 L256.62451285742054 348.1995746208309 Z" transform="rotate(0.0 261.0245128574205 345.61363636363643 ) " />
                  <path fill="#1c3d5c" stroke="#1c3d5c" stroke-opacity="0.0" stroke-width="0.0" d="M261.0245128574205 340.5785510675279 L261.0245128574205 340.5785510675279 L265.42451285742055 348.1995746208309 L256.62451285742054 348.1995746208309 Z" transform="rotate(0.0 261.0245128574205 345.61363636363643 ) " />
                  <path fill="#1c3d5c" stroke="#1c3d5c" stroke-opacity="0.0" stroke-width="0.0" d="M261.0245128574205 328.9024147038915 L261.0245128574205 328.9024147038915 L265.42451285742055 336.5234382571945 L256.62451285742054 336.5234382571945 Z" transform="rotate(0.0 261.0245128574205 333.93750000000006 ) " />
                  <path fill="#18344f" stroke="#18344f" stroke-opacity="0.0" stroke-width="0.0" d="M324.88372089593327 352.25468743116426 L324.88372089593327 352.25468743116426 L329.2837208959333 359.8757109844673 L320.4837208959333 359.8757109844673 Z" transform="rotate(0.0 324.88372089593327 357.2897727272728 ) " />
                  <path fill="#1c3d5c" stroke="#1c3d5c" stroke-opacity="0.0" stroke-width="0.0" d="M324.88372089593327 328.9024147038915 L324.88372089593327 328.9024147038915 L329.2837208959333 336.5234382571945 L320.4837208959333 336.5234382571945 Z" transform="rotate(0.0 324.88372089593327 333.93750000000006 ) " />
                  <rect fill="#29567d" stroke="#29567d" stroke-opacity="0.0" stroke-width="0.0" x="192.76530481890788" y="224.4522727272728" height="8.8" width="8.8" transform="rotate(0.0 197.16530481890788 228.8522727272728 ) " />
                  <rect fill="#29567d" stroke="#29567d" stroke-opacity="0.0" stroke-width="0.0" x="192.76530481890788" y="236.12840909090917" height="8.8" width="8.8" transform="rotate(0.0 197.16530481890788 240.52840909090918 ) " />
                  <rect fill="#265176" stroke="#265176" stroke-opacity="0.0" stroke-width="0.0" x="208.73010682853604" y="224.4522727272728" height="8.8" width="8.8" transform="rotate(0.0 213.13010682853604 228.8522727272728 ) " />
                  <rect fill="#244c6f" stroke="#244c6f" stroke-opacity="0.0" stroke-width="0.0" x="208.73010682853604" y="247.8045454545455" height="8.8" width="8.8" transform="rotate(0.0 213.13010682853604 252.2045454545455 ) " />
                  <rect fill="#214769" stroke="#214769" stroke-opacity="0.0" stroke-width="0.0" x="256.62451285742054" y="282.83295454545464" height="8.8" width="8.8" transform="rotate(0.0 261.0245128574205 287.2329545454546 ) " />
                  <rect fill="#214769" stroke="#214769" stroke-opacity="0.0" stroke-width="0.0" x="256.62451285742054" y="271.15681818181827" height="8.8" width="8.8" transform="rotate(0.0 261.0245128574205 275.55681818181824 ) " />
                  <rect fill="#214769" stroke="#214769" stroke-opacity="0.0" stroke-width="0.0" x="256.62451285742054" y="259.4806818181819" height="8.8" width="8.8" transform="rotate(0.0 261.0245128574205 263.88068181818187 ) " />
                  <rect fill="#214769" stroke="#214769" stroke-opacity="0.0" stroke-width="0.0" x="256.62451285742054" y="271.15681818181827" height="8.8" width="8.8" transform="rotate(0.0 261.0245128574205 275.55681818181824 ) " />
                  <rect fill="#1f4262" stroke="#1f4262" stroke-opacity="0.0" stroke-width="0.0" x="320.4837208959333" y="294.509090909091" height="8.8" width="8.8" transform="rotate(0.0 324.88372089593327 298.909090909091 ) " />
                  <circle fill="#438ac3" stroke="#438ac3" stroke-opacity="0.0" stroke-width="0.0" cx="21.552482712998028" cy="147.11931818181824" r="4.4" />
                  <circle fill="#3875a6" stroke="#3875a6" stroke-opacity="0.0" stroke-width="0.0" cx="21.552482712998028" cy="158.79545454545462" r="4.4" />
                  <circle fill="#3b7aad" stroke="#3b7aad" stroke-opacity="0.0" stroke-width="0.0" cx="21.552482712998028" cy="158.79545454545462" r="4.4" />
                  <circle fill="#356f9f" stroke="#356f9f" stroke-opacity="0.0" stroke-width="0.0" cx="21.552482712998028" cy="193.82386363636368" r="4.4" />
                  <circle fill="#3875a6" stroke="#3875a6" stroke-opacity="0.0" stroke-width="0.0" cx="21.552482712998028" cy="158.79545454545462" r="4.4" />
                  <circle fill="#3d7fb4" stroke="#3d7fb4" stroke-opacity="0.0" stroke-width="0.0" cx="37.5172847226262" cy="135.44318181818187" r="4.4" />
                  <circle fill="#3b7aad" stroke="#3b7aad" stroke-opacity="0.0" stroke-width="0.0" cx="37.5172847226262" cy="112.09090909090918" r="4.4" />
                  <circle fill="#3875a6" stroke="#3875a6" stroke-opacity="0.0" stroke-width="0.0" cx="37.5172847226262" cy="112.09090909090918" r="4.4" />
                  <circle fill="#306591" stroke="#306591" stroke-opacity="0.0" stroke-width="0.0" cx="53.48208673225436" cy="193.82386363636368" r="4.4" />
                  <circle fill="#29567d" stroke="#29567d" stroke-opacity="0.0" stroke-width="0.0" cx="85.4116907515107" cy="228.8522727272728" r="4.4" />
                  <circle fill="#29567d" stroke="#29567d" stroke-opacity="0.0" stroke-width="0.0" cx="85.4116907515107" cy="217.17613636363643" r="4.4" />
                  <circle fill="#306591" stroke="#306591" stroke-opacity="0.0" stroke-width="0.0" cx="85.4116907515107" cy="182.14772727272737" r="4.4" />
                  <circle fill="#306591" stroke="#306591" stroke-opacity="0.0" stroke-width="0.0" cx="85.4116907515107" cy="170.471590909091" r="4.4" />
                  <circle fill="#29567d" stroke="#29567d" stroke-opacity="0.0" stroke-width="0.0" cx="93.39409175632478" cy="228.8522727272728" r="4.4" />
                  <circle fill="#29567d" stroke="#29567d" stroke-opacity="0.0" stroke-width="0.0" cx="93.39409175632478" cy="228.8522727272728" r="4.4" />
                  <circle fill="#2b5b83" stroke="#2b5b83" stroke-opacity="0.0" stroke-width="0.0" cx="157.25329979483746" cy="205.50000000000006" r="4.4" />
                  <circle fill="#2b5b83" stroke="#2b5b83" stroke-opacity="0.0" stroke-width="0.0" cx="53.48208673225436" cy="228.8522727272728" r="4.4" />
                  <circle fill="#2b5b83" stroke="#2b5b83" stroke-opacity="0.0" stroke-width="0.0" cx="53.48208673225436" cy="193.82386363636368" r="4.4" />
                  <circle fill="#2e608a" stroke="#2e608a" stroke-opacity="0.0" stroke-width="0.0" cx="53.48208673225436" cy="205.50000000000006" r="4.4" />
                  <circle fill="#2e608a" stroke="#2e608a" stroke-opacity="0.0" stroke-width="0.0" cx="53.48208673225436" cy="217.17613636363643" r="4.4" />
                  <circle fill="#265176" stroke="#265176" stroke-opacity="0.0" stroke-width="0.0" cx="109.35889376595297" cy="252.2045454545455" r="4.4" />
                  <circle fill="#244c6f" stroke="#244c6f" stroke-opacity="0.0" stroke-width="0.0" cx="109.35889376595297" cy="252.2045454545455" r="4.4" />
                  <circle fill="#265176" stroke="#265176" stroke-opacity="0.0" stroke-width="0.0" cx="109.35889376595297" cy="252.2045454545455" r="4.4" />
                  <path fill="#265176" stroke="#265176" stroke-opacity="0.0" stroke-width="0.0" d="M133.3060967803952 270.5217328857097 L133.3060967803952 270.5217328857097 L137.7060967803952 278.1427564390127 L128.9060967803952 278.1427564390127 Z" transform="rotate(0.0 133.3060967803952 275.55681818181824 ) " />
                  <path fill="#214769" stroke="#214769" stroke-opacity="0.0" stroke-width="0.0" d="M189.18290381409378 305.5501419766188 L189.18290381409378 305.5501419766188 L193.58290381409378 313.17116552992184 L184.78290381409377 313.17116552992184 Z" transform="rotate(0.0 189.18290381409378 310.58522727272737 ) " />
                  <path fill="#214769" stroke="#214769" stroke-opacity="0.0" stroke-width="0.0" d="M213.13010682853604 293.87400561298244 L213.13010682853604 293.87400561298244 L217.53010682853605 301.49502916628546 L208.73010682853604 301.49502916628546 Z" transform="rotate(0.0 213.13010682853604 298.909090909091 ) " />
                  <path fill="#1f4262" stroke="#1f4262" stroke-opacity="0.0" stroke-width="0.0" d="M269.0069138622346 328.9024147038915 L269.0069138622346 328.9024147038915 L273.40691386223466 336.5234382571945 L264.60691386223465 336.5234382571945 Z" transform="rotate(0.0 269.0069138622346 333.93750000000006 ) " />
                  <path fill="#132b43" stroke="#132b43" stroke-opacity="0.0" stroke-width="0.0" d="M269.0069138622346 387.2830965220733 L269.0069138622346 387.2830965220733 L273.40691386223466 394.90412007537634 L264.60691386223465 394.90412007537634 Z" transform="rotate(0.0 269.0069138622346 392.31818181818187 ) " />
                  <path fill="#1f4262" stroke="#1f4262" stroke-opacity="0.0" stroke-width="0.0" d="M269.0069138622346 305.5501419766188 L269.0069138622346 305.5501419766188 L273.40691386223466 313.17116552992184 L264.60691386223465 313.17116552992184 Z" transform="rotate(0.0 269.0069138622346 310.58522727272737 ) " />
                  <path fill="#1c3d5c" stroke="#1c3d5c" stroke-opacity="0.0" stroke-width="0.0" d="M348.8309239103755 317.2262783402552 L348.8309239103755 317.2262783402552 L353.2309239103755 324.8473018935582 L344.4309239103755 324.8473018935582 Z" transform="rotate(0.0 348.8309239103755 322.26136363636374 ) " />
                  <path fill="#18344f" stroke="#18344f" stroke-opacity="0.0" stroke-width="0.0" d="M380.7605279296318 363.9308237948006 L380.7605279296318 363.9308237948006 L385.1605279296318 371.5518473481036 L376.3605279296318 371.5518473481036 Z" transform="rotate(0.0 380.7605279296318 368.9659090909091 ) " />
                  <path fill="#18344f" stroke="#18344f" stroke-opacity="0.0" stroke-width="0.0" d="M213.13010682853604 352.25468743116426 L213.13010682853604 352.25468743116426 L217.53010682853605 359.8757109844673 L208.73010682853604 359.8757109844673 Z" transform="rotate(0.0 213.13010682853604 357.2897727272728 ) " />
                  <path fill="#1a3955" stroke="#1a3955" stroke-opacity="0.0" stroke-width="0.0" d="M229.0949088381642 317.2262783402552 L229.0949088381642 317.2262783402552 L233.4949088381642 324.8473018935582 L224.6949088381642 324.8473018935582 Z" transform="rotate(0.0 229.0949088381642 322.26136363636374 ) " />
                  <path fill="#1a3955" stroke="#1a3955" stroke-opacity="0.0" stroke-width="0.0" d="M245.05971084779242 317.2262783402552 L245.05971084779242 317.2262783402552 L249.45971084779242 324.8473018935582 L240.6597108477924 324.8473018935582 Z" transform="rotate(0.0 245.05971084779242 322.26136363636374 ) " />
                  <path fill="#18344f" stroke="#18344f" stroke-opacity="0.0" stroke-width="0.0" d="M261.0245128574205 352.25468743116426 L261.0245128574205 352.25468743116426 L265.42451285742055 359.8757109844673 L256.62451285742054 359.8757109844673 Z" transform="rotate(0.0 261.0245128574205 357.2897727272728 ) " />
                  <rect fill="#18344f" stroke="#18344f" stroke-opacity="0.0" stroke-width="0.0" x="320.4837208959333" y="329.5375000000001" height="8.8" width="8.8" transform="rotate(0.0 324.88372089593327 333.93750000000006 ) " />
                  <rect fill="#18344f" stroke="#18344f" stroke-opacity="0.0" stroke-width="0.0" x="320.4837208959333" y="341.21363636363645" height="8.8" width="8.8" transform="rotate(0.0 324.88372089593327 345.61363636363643 ) " />
                  <rect fill="#1a3955" stroke="#1a3955" stroke-opacity="0.0" stroke-width="0.0" x="320.4837208959333" y="317.86136363636376" height="8.8" width="8.8" transform="rotate(0.0 324.88372089593327 322.26136363636374 ) " />
                  <path fill="#1f4262" stroke="#1f4262" stroke-opacity="0.0" stroke-width="0.0" d="M213.13010682853604 328.9024147038915 L213.13010682853604 328.9024147038915 L217.53010682853605 336.5234382571945 L208.73010682853604 336.5234382571945 Z" transform="rotate(0.0 213.13010682853604 333.93750000000006 ) " />
                  <path fill="#1c3d5c" stroke="#1c3d5c" stroke-opacity="0.0" stroke-width="0.0" d="M213.13010682853604 305.5501419766188 L213.13010682853604 305.5501419766188 L217.53010682853605 313.17116552992184 L208.73010682853604 313.17116552992184 Z" transform="rotate(0.0 213.13010682853604 310.58522727272737 ) " />
                  <path fill="#1c3d5c" stroke="#1c3d5c" stroke-opacity="0.0" stroke-width="0.0" d="M261.0245128574205 305.5501419766188 L261.0245128574205 305.5501419766188 L265.42451285742055 313.17116552992184 L256.62451285742054 313.17116552992184 Z" transform="rotate(0.0 261.0245128574205 310.58522727272737 ) " />
                  <path fill="#1c3d5c" stroke="#1c3d5c" stroke-opacity="0.0" stroke-width="0.0" d="M292.9541168766769 328.9024147038915 L292.9541168766769 328.9024147038915 L297.3541168766769 336.5234382571945 L288.5541168766769 336.5234382571945 Z" transform="rotate(0.0 292.9541168766769 333.93750000000006 ) " />
                  <circle fill="#306591" stroke="#306591" stroke-opacity="0.0" stroke-width="0.0" cx="85.4116907515107" cy="193.82386363636368" r="4.4" />
                  <circle fill="#2b5b83" stroke="#2b5b83" stroke-opacity="0.0" stroke-width="0.0" cx="85.4116907515107" cy="217.17613636363643" r="4.4" />
                  <circle fill="#356f9f" stroke="#356f9f" stroke-opacity="0.0" stroke-width="0.0" cx="93.39409175632478" cy="170.471590909091" r="4.4" />
                  <circle fill="#356f9f" stroke="#356f9f" stroke-opacity="0.0" stroke-width="0.0" cx="93.39409175632478" cy="158.79545454545462" r="4.4" />
                  <circle fill="#2b5b83" stroke="#2b5b83" stroke-opacity="0.0" stroke-width="0.0" cx="173.21810180446562" cy="217.17613636363643" r="4.4" />
                  <circle fill="#2b5b83" stroke="#2b5b83" stroke-opacity="0.0" stroke-width="0.0" cx="173.21810180446562" cy="228.8522727272728" r="4.4" />
                  <circle fill="#29567d" stroke="#29567d" stroke-opacity="0.0" stroke-width="0.0" cx="133.3060967803952" cy="228.8522727272728" r="4.4" />
                  <circle fill="#2b5b83" stroke="#2b5b83" stroke-opacity="0.0" stroke-width="0.0" cx="133.3060967803952" cy="240.52840909090918" r="4.4" />
                  <circle fill="#2b5b83" stroke="#2b5b83" stroke-opacity="0.0" stroke-width="0.0" cx="173.21810180446562" cy="240.52840909090918" r="4.4" />
                  <path fill="#1f4262" stroke="#1f4262" stroke-opacity="0.0" stroke-width="0.0" d="M157.25329979483746 328.9024147038915 L157.25329979483746 328.9024147038915 L161.65329979483747 336.5234382571945 L152.85329979483745 336.5234382571945 Z" transform="rotate(0.0 157.25329979483746 333.93750000000006 ) " />
                  <path fill="#214769" stroke="#214769" stroke-opacity="0.0" stroke-width="0.0" d="M157.25329979483746 328.9024147038915 L157.25329979483746 328.9024147038915 L161.65329979483747 336.5234382571945 L152.85329979483745 336.5234382571945 Z" transform="rotate(0.0 157.25329979483746 333.93750000000006 ) " />
                  <path fill="#1f4262" stroke="#1f4262" stroke-opacity="0.0" stroke-width="0.0" d="M213.13010682853604 293.87400561298244 L213.13010682853604 293.87400561298244 L217.53010682853605 301.49502916628546 L208.73010682853604 301.49502916628546 Z" transform="rotate(0.0 213.13010682853604 298.909090909091 ) " />
                  <path fill="#1a3955" stroke="#1a3955" stroke-opacity="0.0" stroke-width="0.0" d="M340.84852290556137 317.2262783402552 L340.84852290556137 317.2262783402552 L345.2485229055614 324.8473018935582 L336.4485229055614 324.8473018935582 Z" transform="rotate(0.0 340.84852290556137 322.26136363636374 ) " />
                  <circle fill="#29567d" stroke="#29567d" stroke-opacity="0.0" stroke-width="0.0" cx="141.2884977852093" cy="228.8522727272728" r="4.4" />
                  <circle fill="#244c6f" stroke="#244c6f" stroke-opacity="0.0" stroke-width="0.0" cx="197.16530481890788" cy="228.8522727272728" r="4.4" />
                  <circle fill="#265176" stroke="#265176" stroke-opacity="0.0" stroke-width="0.0" cx="197.16530481890788" cy="217.17613636363643" r="4.4" />
                  <circle fill="#29567d" stroke="#29567d" stroke-opacity="0.0" stroke-width="0.0" cx="197.16530481890788" cy="205.50000000000006" r="4.4" />
                  <circle fill="#244c6f" stroke="#244c6f" stroke-opacity="0.0" stroke-width="0.0" cx="316.90131989111916" cy="240.52840909090918" r="4.4" />
                  <path fill="#29567d" stroke="#29567d" stroke-opacity="0.0" stroke-width="0.0" d="M93.39409175632478 235.49332379480057 L93.39409175632478 235.49332379480057 L97.79409175632478 243.11434734810365 L88.99409175632478 243.11434734810365 Z" transform="rotate(0.0 93.39409175632478 240.52840909090918 ) " />
                  <path fill="#29567d" stroke="#29567d" stroke-opacity="0.0" stroke-width="0.0" d="M93.39409175632478 247.1694601584369 L93.39409175632478 247.1694601584369 L97.79409175632478 254.79048371173997 L88.99409175632478 254.79048371173997 Z" transform="rotate(0.0 93.39409175632478 252.2045454545455 ) " />
                  <path fill="#2e608a" stroke="#2e608a" stroke-opacity="0.0" stroke-width="0.0" d="M93.39409175632478 212.14105106752783 L93.39409175632478 212.14105106752783 L97.79409175632478 219.7620746208309 L88.99409175632478 219.7620746208309 Z" transform="rotate(0.0 93.39409175632478 217.17613636363643 ) " />
                  <path fill="#2b5b83" stroke="#2b5b83" stroke-opacity="0.0" stroke-width="0.0" d="M93.39409175632478 235.49332379480057 L93.39409175632478 235.49332379480057 L97.79409175632478 243.11434734810365 L88.99409175632478 243.11434734810365 Z" transform="rotate(0.0 93.39409175632478 240.52840909090918 ) " />
                  <path fill="#2e608a" stroke="#2e608a" stroke-opacity="0.0" stroke-width="0.0" d="M93.39409175632478 223.8171874311642 L93.39409175632478 223.8171874311642 L97.79409175632478 231.43821098446728 L88.99409175632478 231.43821098446728 Z" transform="rotate(0.0 93.39409175632478 228.8522727272728 ) " />
                  <path fill="#29567d" stroke="#29567d" stroke-opacity="0.0" stroke-width="0.0" d="M93.39409175632478 258.8455965220733 L93.39409175632478 258.8455965220733 L97.79409175632478 266.46662007537634 L88.99409175632478 266.46662007537634 Z" transform="rotate(0.0 93.39409175632478 263.88068181818187 ) " />
                  <path fill="#306591" stroke="#306591" stroke-opacity="0.0" stroke-width="0.0" d="M69.44688874188255 223.8171874311642 L69.44688874188255 223.8171874311642 L73.84688874188254 231.43821098446728 L65.04688874188254 231.43821098446728 Z" transform="rotate(0.0 69.44688874188255 228.8522727272728 ) " />
                  <path fill="#2b5b83" stroke="#2b5b83" stroke-opacity="0.0" stroke-width="0.0" d="M69.44688874188255 223.8171874311642 L69.44688874188255 223.8171874311642 L73.84688874188254 231.43821098446728 L65.04688874188254 231.43821098446728 Z" transform="rotate(0.0 69.44688874188255 228.8522727272728 ) " />
                  <path fill="#2b5b83" stroke="#2b5b83" stroke-opacity="0.0" stroke-width="0.0" d="M93.39409175632478 223.8171874311642 L93.39409175632478 223.8171874311642 L97.79409175632478 231.43821098446728 L88.99409175632478 231.43821098446728 Z" transform="rotate(0.0 93.39409175632478 228.8522727272728 ) " />
                  <path fill="#2b5b83" stroke="#2b5b83" stroke-opacity="0.0" stroke-width="0.0" d="M93.39409175632478 223.8171874311642 L93.39409175632478 223.8171874311642 L97.79409175632478 231.43821098446728 L88.99409175632478 231.43821098446728 Z" transform="rotate(0.0 93.39409175632478 228.8522727272728 ) " />
                  <path fill="#2e608a" stroke="#2e608a" stroke-opacity="0.0" stroke-width="0.0" d="M93.39409175632478 235.49332379480057 L93.39409175632478 235.49332379480057 L97.79409175632478 243.11434734810365 L88.99409175632478 243.11434734810365 Z" transform="rotate(0.0 93.39409175632478 240.52840909090918 ) " />
                  <path fill="#2e608a" stroke="#2e608a" stroke-opacity="0.0" stroke-width="0.0" d="M93.39409175632478 212.14105106752783 L93.39409175632478 212.14105106752783 L97.79409175632478 219.7620746208309 L88.99409175632478 219.7620746208309 Z" transform="rotate(0.0 93.39409175632478 217.17613636363643 ) " />
                  <path fill="#2b5b83" stroke="#2b5b83" stroke-opacity="0.0" stroke-width="0.0" d="M93.39409175632478 235.49332379480057 L93.39409175632478 235.49332379480057 L97.79409175632478 243.11434734810365 L88.99409175632478 243.11434734810365 Z" transform="rotate(0.0 93.39409175632478 240.52840909090918 ) " />
                  <path fill="#2e608a" stroke="#2e608a" stroke-opacity="0.0" stroke-width="0.0" d="M93.39409175632478 212.14105106752783 L93.39409175632478 212.14105106752783 L97.79409175632478 219.7620746208309 L88.99409175632478 219.7620746208309 Z" transform="rotate(0.0 93.39409175632478 217.17613636363643 ) " />
                  <path fill="#214769" stroke="#214769" stroke-opacity="0.0" stroke-width="0.0" d="M109.35889376595297 293.87400561298244 L109.35889376595297 293.87400561298244 L113.75889376595296 301.49502916628546 L104.95889376595296 301.49502916628546 Z" transform="rotate(0.0 109.35889376595297 298.909090909091 ) " />
                  <path fill="#244c6f" stroke="#244c6f" stroke-opacity="0.0" stroke-width="0.0" d="M109.35889376595297 293.87400561298244 L109.35889376595297 293.87400561298244 L113.75889376595296 301.49502916628546 L104.95889376595296 301.49502916628546 Z" transform="rotate(0.0 109.35889376595297 298.909090909091 ) " />
                  <path fill="#214769" stroke="#214769" stroke-opacity="0.0" stroke-width="0.0" d="M165.2357007996515 305.5501419766188 L165.2357007996515 305.5501419766188 L169.63570079965152 313.17116552992184 L160.8357007996515 313.17116552992184 Z" transform="rotate(0.0 165.2357007996515 310.58522727272737 ) " />
                  <path fill="#214769" stroke="#214769" stroke-opacity="0.0" stroke-width="0.0" d="M165.2357007996515 328.9024147038915 L165.2357007996515 328.9024147038915 L169.63570079965152 336.5234382571945 L160.8357007996515 336.5234382571945 Z" transform="rotate(0.0 165.2357007996515 333.93750000000006 ) " />
                  <path fill="#244c6f" stroke="#244c6f" stroke-opacity="0.0" stroke-width="0.0" d="M213.13010682853604 293.87400561298244 L213.13010682853604 293.87400561298244 L217.53010682853605 301.49502916628546 L208.73010682853604 301.49502916628546 Z" transform="rotate(0.0 213.13010682853604 298.909090909091 ) " />
                  <path fill="#1f4262" stroke="#1f4262" stroke-opacity="0.0" stroke-width="0.0" d="M269.0069138622346 328.9024147038915 L269.0069138622346 328.9024147038915 L273.40691386223466 336.5234382571945 L264.60691386223465 336.5234382571945 Z" transform="rotate(0.0 269.0069138622346 333.93750000000006 ) " />
                  <circle fill="#306591" stroke="#306591" stroke-opacity="0.0" stroke-width="0.0" cx="69.44688874188255" cy="193.82386363636368" r="4.4" />
                  <circle fill="#306591" stroke="#306591" stroke-opacity="0.0" stroke-width="0.0" cx="69.44688874188255" cy="217.17613636363643" r="4.4" />
                  <circle fill="#306591" stroke="#306591" stroke-opacity="0.0" stroke-width="0.0" cx="85.4116907515107" cy="170.471590909091" r="4.4" />
                  <circle fill="#306591" stroke="#306591" stroke-opacity="0.0" stroke-width="0.0" cx="85.4116907515107" cy="170.471590909091" r="4.4" />
                  <circle fill="#29567d" stroke="#29567d" stroke-opacity="0.0" stroke-width="0.0" cx="133.3060967803952" cy="228.8522727272728" r="4.4" />
                  <circle fill="#29567d" stroke="#29567d" stroke-opacity="0.0" stroke-width="0.0" cx="133.3060967803952" cy="228.8522727272728" r="4.4" />
                  <circle fill="#2b5b83" stroke="#2b5b83" stroke-opacity="0.0" stroke-width="0.0" cx="173.21810180446562" cy="205.50000000000006" r="4.4" />
                  <circle fill="#306591" stroke="#306591" stroke-opacity="0.0" stroke-width="0.0" cx="69.44688874188255" cy="217.17613636363643" r="4.4" />
                  <circle fill="#306591" stroke="#306591" stroke-opacity="0.0" stroke-width="0.0" cx="69.44688874188255" cy="193.82386363636368" r="4.4" />
                  <circle fill="#306591" stroke="#306591" stroke-opacity="0.0" stroke-width="0.0" cx="85.4116907515107" cy="170.471590909091" r="4.4" />
                  <circle fill="#336a98" stroke="#336a98" stroke-opacity="0.0" stroke-width="0.0" cx="85.4116907515107" cy="170.471590909091" r="4.4" />
                  <circle fill="#29567d" stroke="#29567d" stroke-opacity="0.0" stroke-width="0.0" cx="133.3060967803952" cy="228.8522727272728" r="4.4" />
                  <circle fill="#29567d" stroke="#29567d" stroke-opacity="0.0" stroke-width="0.0" cx="133.3060967803952" cy="228.8522727272728" r="4.4" />
                  <circle fill="#29567d" stroke="#29567d" stroke-opacity="0.0" stroke-width="0.0" cx="157.25329979483746" cy="217.17613636363643" r="4.4" />
                  <circle fill="#3875a6" stroke="#3875a6" stroke-opacity="0.0" stroke-width="0.0" cx="37.5172847226262" cy="182.14772727272737" r="4.4" />
                  <circle fill="#3875a6" stroke="#3875a6" stroke-opacity="0.0" stroke-width="0.0" cx="37.5172847226262" cy="147.11931818181824" r="4.4" />
                  <circle fill="#3d7fb4" stroke="#3d7fb4" stroke-opacity="0.0" stroke-width="0.0" cx="37.5172847226262" cy="123.76704545454555" r="4.4" />
                  <circle fill="#438ac3" stroke="#438ac3" stroke-opacity="0.0" stroke-width="0.0" cx="37.5172847226262" cy="100.4147727272728" r="4.4" />
                  <circle fill="#3d7fb4" stroke="#3d7fb4" stroke-opacity="0.0" stroke-width="0.0" cx="37.5172847226262" cy="123.76704545454555" r="4.4" />
                  <path fill="#18344f" stroke="#18344f" stroke-opacity="0.0" stroke-width="0.0" d="M269.0069138622346 352.25468743116426 L269.0069138622346 352.25468743116426 L273.40691386223466 359.8757109844673 L264.60691386223465 359.8757109844673 Z" transform="rotate(0.0 269.0069138622346 357.2897727272728 ) " />
                  <path fill="#1c3d5c" stroke="#1c3d5c" stroke-opacity="0.0" stroke-width="0.0" d="M348.8309239103755 317.2262783402552 L348.8309239103755 317.2262783402552 L353.2309239103755 324.8473018935582 L344.4309239103755 324.8473018935582 Z" transform="rotate(0.0 348.8309239103755 322.26136363636374 ) " />
                  <path fill="#214769" stroke="#214769" stroke-opacity="0.0" stroke-width="0.0" d="M109.35889376595297 293.87400561298244 L109.35889376595297 293.87400561298244 L113.75889376595296 301.49502916628546 L104.95889376595296 301.49502916628546 Z" transform="rotate(0.0 109.35889376595297 298.909090909091 ) " />
                  <path fill="#244c6f" stroke="#244c6f" stroke-opacity="0.0" stroke-width="0.0" d="M109.35889376595297 293.87400561298244 L109.35889376595297 293.87400561298244 L113.75889376595296 301.49502916628546 L104.95889376595296 301.49502916628546 Z" transform="rotate(0.0 109.35889376595297 298.909090909091 ) " />
                  <path fill="#265176" stroke="#265176" stroke-opacity="0.0" stroke-width="0.0" d="M109.35889376595297 270.5217328857097 L109.35889376595297 270.5217328857097 L113.75889376595296 278.1427564390127 L104.95889376595296 278.1427564390127 Z" transform="rotate(0.0 109.35889376595297 275.55681818181824 ) " />
                  <path fill="#214769" stroke="#214769" stroke-opacity="0.0" stroke-width="0.0" d="M165.2357007996515 328.9024147038915 L165.2357007996515 328.9024147038915 L169.63570079965152 336.5234382571945 L160.8357007996515 336.5234382571945 Z" transform="rotate(0.0 165.2357007996515 333.93750000000006 ) " />
                  <path fill="#214769" stroke="#214769" stroke-opacity="0.0" stroke-width="0.0" d="M165.2357007996515 305.5501419766188 L165.2357007996515 305.5501419766188 L169.63570079965152 313.17116552992184 L160.8357007996515 313.17116552992184 Z" transform="rotate(0.0 165.2357007996515 310.58522727272737 ) " />
                  <path fill="#214769" stroke="#214769" stroke-opacity="0.0" stroke-width="0.0" d="M213.13010682853604 317.2262783402552 L213.13010682853604 317.2262783402552 L217.53010682853605 324.8473018935582 L208.73010682853604 324.8473018935582 Z" transform="rotate(0.0 213.13010682853604 322.26136363636374 ) " />
                  <path fill="#244c6f" stroke="#244c6f" stroke-opacity="0.0" stroke-width="0.0" d="M213.13010682853604 293.87400561298244 L213.13010682853604 293.87400561298244 L217.53010682853605 301.49502916628546 L208.73010682853604 301.49502916628546 Z" transform="rotate(0.0 213.13010682853604 298.909090909091 ) " />
                  <circle fill="#306591" stroke="#306591" stroke-opacity="0.0" stroke-width="0.0" cx="53.48208673225436" cy="193.82386363636368" r="4.4" />
                  <circle fill="#2b5b83" stroke="#2b5b83" stroke-opacity="0.0" stroke-width="0.0" cx="53.48208673225436" cy="228.8522727272728" r="4.4" />
                  <circle fill="#306591" stroke="#306591" stroke-opacity="0.0" stroke-width="0.0" cx="53.48208673225436" cy="193.82386363636368" r="4.4" />
                  <circle fill="#336a98" stroke="#336a98" stroke-opacity="0.0" stroke-width="0.0" cx="53.48208673225436" cy="193.82386363636368" r="4.4" />
                  <circle fill="#265176" stroke="#265176" stroke-opacity="0.0" stroke-width="0.0" cx="117.34129477076702" cy="252.2045454545455" r="4.4" />
                  <circle fill="#50a6e8" stroke="#50a6e8" stroke-opacity="0.0" stroke-width="0.0" cx="45.49968572744028" cy="18.681818181818244" r="4.4" />
                  <circle fill="#306591" stroke="#306591" stroke-opacity="0.0" stroke-width="0.0" cx="53.48208673225436" cy="193.82386363636368" r="4.4" />
                  <circle fill="#2b5b83" stroke="#2b5b83" stroke-opacity="0.0" stroke-width="0.0" cx="53.48208673225436" cy="228.8522727272728" r="4.4" />
                  <circle fill="#336a98" stroke="#336a98" stroke-opacity="0.0" stroke-width="0.0" cx="53.48208673225436" cy="193.82386363636368" r="4.4" />
                  <circle fill="#306591" stroke="#306591" stroke-opacity="0.0" stroke-width="0.0" cx="53.48208673225436" cy="193.82386363636368" r="4.4" />
                  <circle fill="#306591" stroke="#306591" stroke-opacity="0.0" stroke-width="0.0" cx="93.39409175632478" cy="193.82386363636368" r="4.4" />
                  <circle fill="#306591" stroke="#306591" stroke-opacity="0.0" stroke-width="0.0" cx="93.39409175632478" cy="193.82386363636368" r="4.4" />
                  <circle fill="#244c6f" stroke="#244c6f" stroke-opacity="0.0" stroke-width="0.0" cx="117.34129477076702" cy="263.88068181818187" r="4.4" />
                  <circle fill="#265176" stroke="#265176" stroke-opacity="0.0" stroke-width="0.0" cx="117.34129477076702" cy="252.2045454545455" r="4.4" />
                  <circle fill="#56b1f7" stroke="#56b1f7" stroke-opacity="0.0" stroke-width="0.0" cx="45.49968572744028" cy="18.681818181818244" r="4.4" />
                  <circle fill="#458fca" stroke="#458fca" stroke-opacity="0.0" stroke-width="0.0" cx="45.49968572744028" cy="53.710227272727366" r="4.4" />
                  <circle fill="#306591" stroke="#306591" stroke-opacity="0.0" stroke-width="0.0" cx="53.48208673225436" cy="193.82386363636368" r="4.4" />
                  <circle fill="#2b5b83" stroke="#2b5b83" stroke-opacity="0.0" stroke-width="0.0" cx="53.48208673225436" cy="228.8522727272728" r="4.4" />
                  <circle fill="#2e608a" stroke="#2e608a" stroke-opacity="0.0" stroke-width="0.0" cx="93.39409175632478" cy="205.50000000000006" r="4.4" />
                  <circle fill="#2e608a" stroke="#2e608a" stroke-opacity="0.0" stroke-width="0.0" cx="93.39409175632478" cy="193.82386363636368" r="4.4" />
                  <circle fill="#306591" stroke="#306591" stroke-opacity="0.0" stroke-width="0.0" cx="37.5172847226262" cy="193.82386363636368" r="4.4" />
                  <circle fill="#29567d" stroke="#29567d" stroke-opacity="0.0" stroke-width="0.0" cx="37.5172847226262" cy="193.82386363636368" r="4.4" />
                  <circle fill="#2b5b83" stroke="#2b5b83" stroke-opacity="0.0" stroke-width="0.0" cx="53.48208673225436" cy="205.50000000000006" r="4.4" />
                  <circle fill="#306591" stroke="#306591" stroke-opacity="0.0" stroke-width="0.0" cx="53.48208673225436" cy="193.82386363636368" r="4.4" />
                  <circle fill="#244c6f" stroke="#244c6f" stroke-opacity="0.0" stroke-width="0.0" cx="117.34129477076702" cy="228.8522727272728" r="4.4" />
                  <circle fill="#29567d" stroke="#29567d" stroke-opacity="0.0" stroke-width="0.0" cx="117.34129477076702" cy="228.8522727272728" r="4.4" />
                  <circle fill="#265176" stroke="#265176" stroke-opacity="0.0" stroke-width="0.0" cx="181.20050280927973" cy="228.8522727272728" r="4.4" />
                </g>
              </g>
            </g>
          </g>
        </g>
        <defs>
          <clipPath id="xXxprefixXx1">
            <rect x="21.961210910936405" y="0.0" width="474.15461968595656" height="411.0">
            </rect>
          </clipPath>
        </defs>
      </g>
      <g>
        <g transform="translate(21.961210910936405 411.0 ) ">
          <g transform="translate(53.48208673225436 0.0 ) ">
            <line stroke-width="1.0" stroke="rgb(71,71,71)" stroke-opacity="1.0" x2="0.0" y2="4.0">
            </line>
            <g transform="translate(0.0 7.0 ) ">
              <text class="axis-text-x" text-anchor="middle" dy="0.7em">
                <tspan>2</tspan>
              </text>
            </g>
          </g>
          <g transform="translate(133.3060967803952 0.0 ) ">
            <line stroke-width="1.0" stroke="rgb(71,71,71)" stroke-opacity="1.0" x2="0.0" y2="4.0">
            </line>
            <g transform="translate(0.0 7.0 ) ">
              <text class="axis-text-x" text-anchor="middle" dy="0.7em">
                <tspan>3</tspan>
              </text>
            </g>
          </g>
          <g transform="translate(213.13010682853604 0.0 ) ">
            <line stroke-width="1.0" stroke="rgb(71,71,71)" stroke-opacity="1.0" x2="0.0" y2="4.0">
            </line>
            <g transform="translate(0.0 7.0 ) ">
              <text class="axis-text-x" text-anchor="middle" dy="0.7em">
                <tspan>4</tspan>
              </text>
            </g>
          </g>
          <g transform="translate(292.9541168766769 0.0 ) ">
            <line stroke-width="1.0" stroke="rgb(71,71,71)" stroke-opacity="1.0" x2="0.0" y2="4.0">
            </line>
            <g transform="translate(0.0 7.0 ) ">
              <text class="axis-text-x" text-anchor="middle" dy="0.7em">
                <tspan>5</tspan>
              </text>
            </g>
          </g>
          <g transform="translate(372.77812692481774 0.0 ) ">
            <line stroke-width="1.0" stroke="rgb(71,71,71)" stroke-opacity="1.0" x2="0.0" y2="4.0">
            </line>
            <g transform="translate(0.0 7.0 ) ">
              <text class="axis-text-x" text-anchor="middle" dy="0.7em">
                <tspan>6</tspan>
              </text>
            </g>
          </g>
          <g transform="translate(452.6021369729586 0.0 ) ">
            <line stroke-width="1.0" stroke="rgb(71,71,71)" stroke-opacity="1.0" x2="0.0" y2="4.0">
            </line>
            <g transform="translate(0.0 7.0 ) ">
              <text class="axis-text-x" text-anchor="middle" dy="0.7em">
                <tspan>7</tspan>
              </text>
            </g>
          </g>
          <line x1="0.0" y1="0.0" x2="474.15461968595656" y2="0.0" stroke-width="1.0" stroke="rgb(71,71,71)" stroke-opacity="1.0">
          </line>
        </g>
        <g transform="translate(21.961210910936405 0.0 ) ">
          <g transform="translate(0.0 357.2897727272728 ) ">
            <g transform="translate(-3.0 0.0 ) ">
              <text class="axis-text-y" text-anchor="end" dy="0.35em">
                <tspan>15</tspan>
              </text>
            </g>
          </g>
          <g transform="translate(0.0 298.909090909091 ) ">
            <g transform="translate(-3.0 0.0 ) ">
              <text class="axis-text-y" text-anchor="end" dy="0.35em">
                <tspan>20</tspan>
              </text>
            </g>
          </g>
          <g transform="translate(0.0 240.52840909090918 ) ">
            <g transform="translate(-3.0 0.0 ) ">
              <text class="axis-text-y" text-anchor="end" dy="0.35em">
                <tspan>25</tspan>
              </text>
            </g>
          </g>
          <g transform="translate(0.0 182.14772727272737 ) ">
            <g transform="translate(-3.0 0.0 ) ">
              <text class="axis-text-y" text-anchor="end" dy="0.35em">
                <tspan>30</tspan>
              </text>
            </g>
          </g>
          <g transform="translate(0.0 123.76704545454555 ) ">
            <g transform="translate(-3.0 0.0 ) ">
              <text class="axis-text-y" text-anchor="end" dy="0.35em">
                <tspan>35</tspan>
              </text>
            </g>
          </g>
          <g transform="translate(0.0 65.38636363636374 ) ">
            <g transform="translate(-3.0 0.0 ) ">
              <text class="axis-text-y" text-anchor="end" dy="0.35em">
                <tspan>40</tspan>
              </text>
            </g>
          </g>
          <g transform="translate(0.0 7.00568181818187 ) ">
            <g transform="translate(-3.0 0.0 ) ">
              <text class="axis-text-y" text-anchor="end" dy="0.35em">
                <tspan>45</tspan>
              </text>
            </g>
          </g>
        </g>
      </g>
    </g>
    <g transform="translate(16.0 212.0 ) rotate(-90.0 ) ">
      <text class="axis-title-y" y="0.0" text-anchor="middle">
        <tspan>hwy</tspan>
      </text>
    </g>
    <g transform="translate(288.53852075391467 463.0 ) ">
      <text class="axis-title-x" y="0.0" text-anchor="middle">
        <tspan>displ</tspan>
      </text>
    </g>
    <g transform="translate(537.1158305968929 67.5 ) ">
      <rect x="0.0" y="0.0" height="162.5" width="109.78867708962632" stroke="rgb(71,71,71)" stroke-opacity="1.0" stroke-width="0.0" fill="rgb(255,255,255)" fill-opacity="1.0">
      </rect>
      <g transform="translate(5.0 5.0 ) ">
        <g transform="translate(0.0 12.0 ) ">
          <text class="legend-title" y="0.0">
            <tspan>City mileage</tspan>
          </text>
          <text class="legend-title" y="15.0">
            <tspan>(mpg)</tspan>
          </text>
        </g>
        <g transform="translate(0.0 37.5 ) ">
          <g>
            <rect x="0.0" y="0.0" height="115.0" width="23.0" stroke-width="0.0" fill="rgb(84,173,242)" fill-opacity="1.0">
            </rect>
            <rect x="0.0" y="7.55" height="107.45" width="23.0" stroke-width="0.0" fill="rgb(81,166,232)" fill-opacity="1.0">
            </rect>
            <rect x="0.0" y="13.1" height="101.9" width="23.0" stroke-width="0.0" fill="rgb(77,159,222)" fill-opacity="1.0">
            </rect>
            <rect x="0.0" y="18.65" height="96.35" width="23.0" stroke-width="0.0" fill="rgb(73,151,213)" fill-opacity="1.0">
            </rect>
            <rect x="0.0" y="24.2" height="90.8" width="23.0" stroke-width="0.0" fill="rgb(70,144,203)" fill-opacity="1.0">
            </rect>
            <rect x="0.0" y="29.75" height="85.25" width="23.0" stroke-width="0.0" fill="rgb(66,137,194)" fill-opacity="1.0">
            </rect>
            <rect x="0.0" y="35.3" height="79.7" width="23.0" stroke-width="0.0" fill="rgb(63,130,184)" fill-opacity="1.0">
            </rect>
            <rect x="0.0" y="40.849999999999994" height="74.15" width="23.0" stroke-width="0.0" fill="rgb(59,123,175)" fill-opacity="1.0">
            </rect>
            <rect x="0.0" y="46.39999999999999" height="68.60000000000001" width="23.0" stroke-width="0.0" fill="rgb(56,116,166)" fill-opacity="1.0">
            </rect>
            <rect x="0.0" y="51.94999999999999" height="63.05000000000001" width="23.0" stroke-width="0.0" fill="rgb(52,110,156)" fill-opacity="1.0">
            </rect>
            <rect x="0.0" y="57.499999999999986" height="57.500000000000014" width="23.0" stroke-width="0.0" fill="rgb(49,103,147)" fill-opacity="1.0">
            </rect>
            <rect x="0.0" y="63.04999999999998" height="51.95000000000002" width="23.0" stroke-width="0.0" fill="rgb(46,96,138)" fill-opacity="1.0">
            </rect>
            <rect x="0.0" y="68.59999999999998" height="46.40000000000002" width="23.0" stroke-width="0.0" fill="rgb(42,90,130)" fill-opacity="1.0">
            </rect>
            <rect x="0.0" y="74.14999999999998" height="40.85000000000002" width="23.0" stroke-width="0.0" fill="rgb(39,83,121)" fill-opacity="1.0">
            </rect>
            <rect x="0.0" y="79.69999999999997" height="35.300000000000026" width="23.0" stroke-width="0.0" fill="rgb(36,77,112)" fill-opacity="1.0">
            </rect>
            <rect x="0.0" y="85.24999999999997" height="29.75000000000003" width="23.0" stroke-width="0.0" fill="rgb(33,70,104)" fill-opacity="1.0">
            </rect>
            <rect x="0.0" y="90.79999999999997" height="24.20000000000003" width="23.0" stroke-width="0.0" fill="rgb(30,64,95)" fill-opacity="1.0">
            </rect>
            <rect x="0.0" y="96.34999999999997" height="18.650000000000034" width="23.0" stroke-width="0.0" fill="rgb(27,58,87)" fill-opacity="1.0">
            </rect>
            <rect x="0.0" y="101.89999999999996" height="13.100000000000037" width="23.0" stroke-width="0.0" fill="rgb(24,52,79)" fill-opacity="1.0">
            </rect>
            <rect x="0.0" y="107.44999999999996" height="7.55000000000004" width="23.0" stroke-width="0.0" fill="rgb(20,46,71)" fill-opacity="1.0">
            </rect>
            <line x1="0.0" y1="108.73076923076921" x2="4.6" y2="108.73076923076921" stroke-width="1.0" stroke="rgb(255,255,255)" stroke-opacity="1.0">
            </line>
            <line x1="18.4" y1="108.73076923076921" x2="23.0" y2="108.73076923076921" stroke-width="1.0" stroke="rgb(255,255,255)" stroke-opacity="1.0">
            </line>
            <g transform="translate(26.9903027277341 113.28076923076921 ) ">
              <text class="legend-item" y="0.0">
                <tspan>10</tspan>
              </text>
            </g>
            <line x1="0.0" y1="87.38461538461537" x2="4.6" y2="87.38461538461537" stroke-width="1.0" stroke="rgb(255,255,255)" stroke-opacity="1.0">
            </line>
            <line x1="18.4" y1="87.38461538461537" x2="23.0" y2="87.38461538461537" stroke-width="1.0" stroke="rgb(255,255,255)" stroke-opacity="1.0">
            </line>
            <g transform="translate(26.9903027277341 91.93461538461537 ) ">
              <text class="legend-item" y="0.0">
                <tspan>15</tspan>
              </text>
            </g>
            <line x1="0.0" y1="66.03846153846152" x2="4.6" y2="66.03846153846152" stroke-width="1.0" stroke="rgb(255,255,255)" stroke-opacity="1.0">
            </line>
            <line x1="18.4" y1="66.03846153846152" x2="23.0" y2="66.03846153846152" stroke-width="1.0" stroke="rgb(255,255,255)" stroke-opacity="1.0">
            </line>
            <g transform="translate(26.9903027277341 70.58846153846152 ) ">
              <text class="legend-item" y="0.0">
                <tspan>20</tspan>
              </text>
            </g>
            <line x1="0.0" y1="44.69230769230768" x2="4.6" y2="44.69230769230768" stroke-width="1.0" stroke="rgb(255,255,255)" stroke-opacity="1.0">
            </line>
            <line x1="18.4" y1="44.69230769230768" x2="23.0" y2="44.69230769230768" stroke-width="1.0" stroke="rgb(255,255,255)" stroke-opacity="1.0">
            </line>
            <g transform="translate(26.9903027277341 49.242307692307676 ) ">
              <text class="legend-item" y="0.0">
                <tspan>25</tspan>
              </text>
            </g>
            <line x1="0.0" y1="23.34615384615384" x2="4.6" y2="23.34615384615384" stroke-width="1.0" stroke="rgb(255,255,255)" stroke-opacity="1.0">
            </line>
            <line x1="18.4" y1="23.34615384615384" x2="23.0" y2="23.34615384615384" stroke-width="1.0" stroke="rgb(255,255,255)" stroke-opacity="1.0">
            </line>
            <g transform="translate(26.9903027277341 27.896153846153837 ) ">
              <text class="legend-item" y="0.0">
                <tspan>30</tspan>
              </text>
            </g>
            <line x1="0.0" y1="1.9999999999999716" x2="4.6" y2="1.9999999999999716" stroke-width="1.0" stroke="rgb(255,255,255)" stroke-opacity="1.0">
            </line>
            <line x1="18.4" y1="1.9999999999999716" x2="23.0" y2="1.9999999999999716" stroke-width="1.0" stroke="rgb(255,255,255)" stroke-opacity="1.0">
            </line>
            <g transform="translate(26.9903027277341 6.5499999999999705 ) ">
              <text class="legend-item" y="0.0">
                <tspan>35</tspan>
              </text>
            </g>
          </g>
        </g>
      </g>
    </g>
    <g transform="translate(537.1158305968929 240.0 ) ">
      <rect x="0.0" y="0.0" height="116.5" width="167.88416940310702" stroke="rgb(71,71,71)" stroke-opacity="1.0" stroke-width="0.0" fill="rgb(255,255,255)" fill-opacity="1.0">
      </rect>
      <g transform="translate(5.0 5.0 ) ">
        <g transform="translate(0.0 12.0 ) ">
          <text class="legend-title" y="0.0">
            <tspan>Drive type</tspan>
          </text>
          <text class="legend-title" y="15.0">
            <tspan>(front/4/rear wheel)</tspan>
          </text>
        </g>
        <g transform="translate(0.0 37.5 ) ">
          <g transform="">
            <g>
              <g transform="translate(1.0 1.0 ) ">
                <g>
                  <g >
                    <circle fill="#474747" stroke="#474747" stroke-opacity="0.0" stroke-width="0.0" cx="10.5" cy="10.5" r="5.5" />
                  </g>
                </g>
              </g>
            </g>
            <g transform="translate(26.9903027277341 16.05 ) ">
              <text class="legend-item" y="0.0">
                <tspan>f</tspan>
              </text>
            </g>
          </g>
          <g transform="translate(0.0 23.0 ) ">
            <g>
              <g transform="translate(1.0 1.0 ) ">
                <g>
                  <g >
                    <path fill="#474747" stroke="#474747" stroke-opacity="0.0" stroke-width="0.0" d="M10.5 5.736860279185588 L10.5 5.736860279185588 L16.0 15.263139720814412 L5.0 15.263139720814412 Z" transform="rotate(0.0 10.5 10.5 ) " />
                  </g>
                </g>
              </g>
            </g>
            <g transform="translate(26.9903027277341 16.05 ) ">
              <text class="legend-item" y="0.0">
                <tspan>4</tspan>
              </text>
            </g>
          </g>
          <g transform="translate(0.0 46.0 ) ">
            <g>
              <g transform="translate(1.0 1.0 ) ">
                <g>
                  <g >
                    <rect fill="#474747" stroke="#474747" stroke-opacity="0.0" stroke-width="0.0" x="5.0" y="5.0" height="11.0" width="11.0" transform="rotate(0.0 10.5 10.5 ) " />
                  </g>
                </g>
              </g>
            </g>
            <g transform="translate(26.9903027277341 16.05 ) ">
              <text class="legend-item" y="0.0">
                <tspan>r</tspan>
              </text>
            </g>
          </g>
        </g>
      </g>
    </g>
    <path fill="rgb(0,0,0)" fill-opacity="0.0" stroke="rgb(71,71,71)" stroke-opacity="1.0" stroke-width="0.0" d="M0.0 0.0 L0.0 470.0 L705.0 470.0 L705.0 0.0 Z" pointer-events="none">
    </path>
  </g>
  <g id="xXxprefixXx2">
  </g>
</svg>