<svg xmlns="http://www.w3.org/2000/svg" xmlns:xlink="http://www.w3.org/1999/xlink" display="block" class="plt-container" width="705.0" height="470.0">
  <style type="text/css">
  .plt-container {
   font-family: Lucida Grande, sans-serif;
   user-select: none;
   -webkit-user-select: none;
   -moz-user-select: none;
   -ms-user-select: none;
}
text {
   text-rendering: optimizeLegibility;
}
#xXxprefixXx0 .plot-title {
fill: #bbbbbb;
font-weight: normal;
   font-style: normal;font-family: Lucida Grande, sans-serif;
font-size: 16.0px;

}
#xXxprefixXx0 .plot-subtitle {
fill: #bbbbbb;
font-weight: normal;
   font-style: normal;font-family: Lucida Grande, sans-serif;
font-size: 15.0px;

}
#xXxprefixXx0 .plot-caption {
fill: #bbbbbb;
font-weight: normal;
   font-style: normal;font-family: Lucida Grande, sans-serif;
font-size: 13.0px;

}
#xXxprefixXx0 .hyperlink-element {
fill: #118ed8;
font-weight: normal;
   font-style: normal;
}
#xXxprefixXx0 .legend-title {
fill: #bbbbbb;
font-weight: normal;
   font-style: normal;font-family: Lucida Grande, sans-serif;
font-size: 15.0px;

}
#xXxprefixXx0 .legend-item {
fill: #bbbbbb;
font-weight: normal;
   font-style: normal;font-family: Lucida Grande, sans-serif;
font-size: 13.0px;

}
#xXxprefixXx0 .axis-title-x {
fill: #bbbbbb;
font-weight: normal;
   font-style: normal;font-family: Lucida Grande, sans-serif;
font-size: 15.0px;

}
#xXxprefixXx0 .axis-text-x {
fill: #bbbbbb;
font-weight: normal;
   font-style: normal;font-family: Lucida Grande, sans-serif;
font-size: 13.0px;

}
#xXxprefixXx2 .axis-tooltip-text-x {
fill: #303030;
font-weight: normal;
   font-style: normal;font-family: Lucida Grande, sans-serif;
font-size: 13.0px;

}
#xXxprefixXx0 .axis-title-y {
fill: #bbbbbb;
font-weight: normal;
   font-style: normal;font-family: Lucida Grande, sans-serif;
font-size: 15.0px;

}
#xXxprefixXx0 .axis-text-y {
fill: #bbbbbb;
font-weight: normal;
   font-style: normal;font-family: Lucida Grande, sans-serif;
font-size: 13.0px;

}
#xXxprefixXx2 .axis-tooltip-text-y {
fill: #303030;
font-weight: normal;
   font-style: normal;font-family: Lucida Grande, sans-serif;
font-size: 13.0px;

}
#xXxprefixXx0 .facet-strip-text-x {
fill: #bbbbbb;
font-weight: normal;
   font-style: normal;font-family: Lucida Grande, sans-serif;
font-size: 13.0px;

}
#xXxprefixXx0 .facet-strip-text-y {
fill: #bbbbbb;
font-weight: normal;
   font-style: normal;font-family: Lucida Grande, sans-serif;
font-size: 13.0px;

}
#xXxprefixXx2 .tooltip-text {
fill: #bbbbbb;
font-weight: normal;
   font-style: normal;font-family: Lucida Grande, sans-serif;
font-size: 13.0px;

}
#xXxprefixXx2 .tooltip-title {
fill: #bbbbbb;
font-weight: bold;
   font-style: normal;font-family: Lucida Grande, sans-serif;
font-size: 13.0px;

}
#xXxprefixXx2 .tooltip-label {
fill: #bbbbbb;
font-weight: bold;
   font-style: normal;font-family: Lucida Grande, sans-serif;
font-size: 13.0px;

}

  </style>
  <g id="xXxprefixXx0">
    <path fill-rule="evenodd" fill="rgb(25,25,28)" fill-opacity="1.0" d="M0.0 0.0 L0.0 470.0 L705.0 470.0 L705.0 0.0 Z">
    </path>
    <g transform="translate(29.5 6.5 ) ">
      <g>
        <g transform="translate(21.961210910936405 0.0 ) ">
          <g>
            <line x1="18.517945142279586" y1="0.0" x2="18.517945142279586" y2="266.6666666666667" stroke="rgb(71,71,71)" stroke-opacity="1.0" stroke-width="1.0" fill="none">
            </line>
            <line x1="72.98248967839606" y1="0.0" x2="72.98248967839606" y2="266.6666666666667" stroke="rgb(71,71,71)" stroke-opacity="1.0" stroke-width="1.0" fill="none">
            </line>
            <line x1="127.44703421451251" y1="0.0" x2="127.44703421451251" y2="266.6666666666667" stroke="rgb(71,71,71)" stroke-opacity="1.0" stroke-width="1.0" fill="none">
            </line>
            <line x1="181.911578750629" y1="0.0" x2="181.911578750629" y2="266.6666666666667" stroke="rgb(71,71,71)" stroke-opacity="1.0" stroke-width="1.0" fill="none">
            </line>
            <line x1="236.37612328674547" y1="0.0" x2="236.37612328674547" y2="266.6666666666667" stroke="rgb(71,71,71)" stroke-opacity="1.0" stroke-width="1.0" fill="none">
            </line>
            <line x1="290.840667822862" y1="0.0" x2="290.840667822862" y2="266.6666666666667" stroke="rgb(71,71,71)" stroke-opacity="1.0" stroke-width="1.0" fill="none">
            </line>
            <line x1="345.30521235897845" y1="0.0" x2="345.30521235897845" y2="266.6666666666667" stroke="rgb(71,71,71)" stroke-opacity="1.0" stroke-width="1.0" fill="none">
            </line>
            <line x1="399.7697568950948" y1="0.0" x2="399.7697568950948" y2="266.6666666666667" stroke="rgb(71,71,71)" stroke-opacity="1.0" stroke-width="1.0" fill="none">
            </line>
            <line x1="454.2343014312113" y1="0.0" x2="454.2343014312113" y2="266.6666666666667" stroke="rgb(71,71,71)" stroke-opacity="1.0" stroke-width="1.0" fill="none">
            </line>
            <line x1="508.69884596732777" y1="0.0" x2="508.69884596732777" y2="266.6666666666667" stroke="rgb(71,71,71)" stroke-opacity="1.0" stroke-width="1.0" fill="none">
            </line>
            <line x1="563.1633905034442" y1="0.0" x2="563.1633905034442" y2="266.6666666666667" stroke="rgb(71,71,71)" stroke-opacity="1.0" stroke-width="1.0" fill="none">
            </line>
            <line x1="617.6279350395607" y1="0.0" x2="617.6279350395607" y2="266.6666666666667" stroke="rgb(71,71,71)" stroke-opacity="1.0" stroke-width="1.0" fill="none">
            </line>
          </g>
        </g>
        <g transform="translate(21.961210910936405 0.0 ) ">
          <g>
            <line x1="0.0" y1="231.81818181818187" x2="647.0387890890636" y2="231.81818181818187" stroke="rgb(71,71,71)" stroke-opacity="1.0" stroke-width="1.0" fill="none">
            </line>
            <line x1="0.0" y1="193.939393939394" x2="647.0387890890636" y2="193.939393939394" stroke="rgb(71,71,71)" stroke-opacity="1.0" stroke-width="1.0" fill="none">
            </line>
            <line x1="0.0" y1="156.06060606060612" x2="647.0387890890636" y2="156.06060606060612" stroke="rgb(71,71,71)" stroke-opacity="1.0" stroke-width="1.0" fill="none">
            </line>
            <line x1="0.0" y1="118.18181818181824" x2="647.0387890890636" y2="118.18181818181824" stroke="rgb(71,71,71)" stroke-opacity="1.0" stroke-width="1.0" fill="none">
            </line>
            <line x1="0.0" y1="80.30303030303037" x2="647.0387890890636" y2="80.30303030303037" stroke="rgb(71,71,71)" stroke-opacity="1.0" stroke-width="1.0" fill="none">
            </line>
            <line x1="0.0" y1="42.42424242424249" x2="647.0387890890636" y2="42.42424242424249" stroke="rgb(71,71,71)" stroke-opacity="1.0" stroke-width="1.0" fill="none">
            </line>
            <line x1="0.0" y1="4.545454545454618" x2="647.0387890890636" y2="4.545454545454618" stroke="rgb(71,71,71)" stroke-opacity="1.0" stroke-width="1.0" fill="none">
            </line>
          </g>
        </g>
        <g transform="translate(21.961210910936405 266.6666666666667 ) ">
          <g transform="translate(18.517945142279586 0.0 ) ">
            <line stroke-width="1.0" stroke="rgb(187,187,187)" stroke-opacity="1.0" x2="0.0" y2="4.0">
            </line>
            <g transform="translate(0.0 7.0 ) ">
              <text class="axis-text-x" text-anchor="middle" dy="0.7em">
                <tspan>1.5</tspan>
              </text>
            </g>
          </g>
          <g transform="translate(72.98248967839606 0.0 ) ">
            <line stroke-width="1.0" stroke="rgb(187,187,187)" stroke-opacity="1.0" x2="0.0" y2="4.0">
            </line>
            <g transform="translate(0.0 7.0 ) ">
              <text class="axis-text-x" text-anchor="middle" dy="0.7em">
                <tspan>2.0</tspan>
              </text>
            </g>
          </g>
          <g transform="translate(127.44703421451251 0.0 ) ">
            <line stroke-width="1.0" stroke="rgb(187,187,187)" stroke-opacity="1.0" x2="0.0" y2="4.0">
            </line>
            <g transform="translate(0.0 7.0 ) ">
              <text class="axis-text-x" text-anchor="middle" dy="0.7em">
                <tspan>2.5</tspan>
              </text>
            </g>
          </g>
          <g transform="translate(181.911578750629 0.0 ) ">
            <line stroke-width="1.0" stroke="rgb(187,187,187)" stroke-opacity="1.0" x2="0.0" y2="4.0">
            </line>
            <g transform="translate(0.0 7.0 ) ">
              <text class="axis-text-x" text-anchor="middle" dy="0.7em">
                <tspan>3.0</tspan>
              </text>
            </g>
          </g>
          <g transform="translate(236.37612328674547 0.0 ) ">
            <line stroke-width="1.0" stroke="rgb(187,187,187)" stroke-opacity="1.0" x2="0.0" y2="4.0">
            </line>
            <g transform="translate(0.0 7.0 ) ">
              <text class="axis-text-x" text-anchor="middle" dy="0.7em">
                <tspan>3.5</tspan>
              </text>
            </g>
          </g>
          <g transform="translate(290.840667822862 0.0 ) ">
            <line stroke-width="1.0" stroke="rgb(187,187,187)" stroke-opacity="1.0" x2="0.0" y2="4.0">
            </line>
            <g transform="translate(0.0 7.0 ) ">
              <text class="axis-text-x" text-anchor="middle" dy="0.7em">
                <tspan>4.0</tspan>
              </text>
            </g>
          </g>
          <g transform="translate(345.30521235897845 0.0 ) ">
            <line stroke-width="1.0" stroke="rgb(187,187,187)" stroke-opacity="1.0" x2="0.0" y2="4.0">
            </line>
            <g transform="translate(0.0 7.0 ) ">
              <text class="axis-text-x" text-anchor="middle" dy="0.7em">
                <tspan>4.5</tspan>
              </text>
            </g>
          </g>
          <g transform="translate(399.7697568950948 0.0 ) ">
            <line stroke-width="1.0" stroke="rgb(187,187,187)" stroke-opacity="1.0" x2="0.0" y2="4.0">
            </line>
            <g transform="translate(0.0 7.0 ) ">
              <text class="axis-text-x" text-anchor="middle" dy="0.7em">
                <tspan>5.0</tspan>
              </text>
            </g>
          </g>
          <g transform="translate(454.2343014312113 0.0 ) ">
            <line stroke-width="1.0" stroke="rgb(187,187,187)" stroke-opacity="1.0" x2="0.0" y2="4.0">
            </line>
            <g transform="translate(0.0 7.0 ) ">
              <text class="axis-text-x" text-anchor="middle" dy="0.7em">
                <tspan>5.5</tspan>
              </text>
            </g>
          </g>
          <g transform="translate(508.69884596732777 0.0 ) ">
            <line stroke-width="1.0" stroke="rgb(187,187,187)" stroke-opacity="1.0" x2="0.0" y2="4.0">
            </line>
            <g transform="translate(0.0 7.0 ) ">
              <text class="axis-text-x" text-anchor="middle" dy="0.7em">
                <tspan>6.0</tspan>
              </text>
            </g>
          </g>
          <g transform="translate(563.1633905034442 0.0 ) ">
            <line stroke-width="1.0" stroke="rgb(187,187,187)" stroke-opacity="1.0" x2="0.0" y2="4.0">
            </line>
            <g transform="translate(0.0 7.0 ) ">
              <text class="axis-text-x" text-anchor="middle" dy="0.7em">
                <tspan>6.5</tspan>
              </text>
            </g>
          </g>
          <g transform="translate(617.6279350395607 0.0 ) ">
            <line stroke-width="1.0" stroke="rgb(187,187,187)" stroke-opacity="1.0" x2="0.0" y2="4.0">
            </line>
            <g transform="translate(0.0 7.0 ) ">
              <text class="axis-text-x" text-anchor="middle" dy="0.7em">
                <tspan>7.0</tspan>
              </text>
            </g>
          </g>
          <line x1="0.0" y1="0.0" x2="647.0387890890636" y2="0.0" stroke-width="1.0" stroke="rgb(187,187,187)" stroke-opacity="1.0">
          </line>
        </g>
        <g transform="translate(21.961210910936405 0.0 ) ">
          <g transform="translate(0.0 231.81818181818187 ) ">
            <g transform="translate(-3.0 0.0 ) ">
              <text class="axis-text-y" text-anchor="end" dy="0.35em">
                <tspan>15</tspan>
              </text>
            </g>
          </g>
          <g transform="translate(0.0 193.939393939394 ) ">
            <g transform="translate(-3.0 0.0 ) ">
              <text class="axis-text-y" text-anchor="end" dy="0.35em">
                <tspan>20</tspan>
              </text>
            </g>
          </g>
          <g transform="translate(0.0 156.06060606060612 ) ">
            <g transform="translate(-3.0 0.0 ) ">
              <text class="axis-text-y" text-anchor="end" dy="0.35em">
                <tspan>25</tspan>
              </text>
            </g>
          </g>
          <g transform="translate(0.0 118.18181818181824 ) ">
            <g transform="translate(-3.0 0.0 ) ">
              <text class="axis-text-y" text-anchor="end" dy="0.35em">
                <tspan>30</tspan>
              </text>
            </g>
          </g>
          <g transform="translate(0.0 80.30303030303037 ) ">
            <g transform="translate(-3.0 0.0 ) ">
              <text class="axis-text-y" text-anchor="end" dy="0.35em">
                <tspan>35</tspan>
              </text>
            </g>
          </g>
          <g transform="translate(0.0 42.42424242424249 ) ">
            <g transform="translate(-3.0 0.0 ) ">
              <text class="axis-text-y" text-anchor="end" dy="0.35em">
                <tspan>40</tspan>
              </text>
            </g>
          </g>
          <g transform="translate(0.0 4.545454545454618 ) ">
            <g transform="translate(-3.0 0.0 ) ">
              <text class="axis-text-y" text-anchor="end" dy="0.35em">
                <tspan>45</tspan>
              </text>
            </g>
          </g>
        </g>
      </g>
      <g clip-path="url(#xXxprefixXx1)" clip-bounds-jfx="[rect (21.961210910936405, 0.0), (647.0387890890636, 266.6666666666667)]">
        <g transform="translate(21.961210910936405 0.0 ) ">
          <g>
            <g>
              <g>
                <g >
                  <circle fill="#29567d" stroke="#29567d" stroke-opacity="0.0" stroke-width="0.0" cx="51.19667186394949" cy="125.75757575757581" r="4.4" />
                  <circle fill="#306591" stroke="#306591" stroke-opacity="0.0" stroke-width="0.0" cx="51.19667186394949" cy="125.75757575757581" r="4.4" />
                  <circle fill="#2e608a" stroke="#2e608a" stroke-opacity="0.0" stroke-width="0.0" cx="72.98248967839606" cy="110.60606060606065" r="4.4" />
                  <circle fill="#306591" stroke="#306591" stroke-opacity="0.0" stroke-width="0.0" cx="72.98248967839606" cy="118.18181818181824" r="4.4" />
                  <circle fill="#244c6f" stroke="#244c6f" stroke-opacity="0.0" stroke-width="0.0" cx="160.1257609361824" cy="148.48484848484853" r="4.4" />
                  <circle fill="#29567d" stroke="#29567d" stroke-opacity="0.0" stroke-width="0.0" cx="160.1257609361824" cy="148.48484848484853" r="4.4" />
                  <circle fill="#29567d" stroke="#29567d" stroke-opacity="0.0" stroke-width="0.0" cx="192.80448765785232" cy="140.90909090909096" r="4.4" />
                  <path fill="#29567d" stroke="#29567d" stroke-opacity="0.0" stroke-width="0.0" d="M51.19667186394949 143.44976318873992 L51.19667186394949 143.44976318873992 L55.596671863949496 151.070786742043 L46.79667186394949 151.070786742043 Z" transform="rotate(0.0 51.19667186394949 148.48484848484853 ) " />
                  <path fill="#244c6f" stroke="#244c6f" stroke-opacity="0.0" stroke-width="0.0" d="M51.19667186394949 151.02552076449751 L51.19667186394949 151.02552076449751 L55.596671863949496 158.6465443178006 L46.79667186394949 158.6465443178006 Z" transform="rotate(0.0 51.19667186394949 156.06060606060612 ) " />
                  <path fill="#2e608a" stroke="#2e608a" stroke-opacity="0.0" stroke-width="0.0" d="M72.98248967839606 128.2982480372248 L72.98248967839606 128.2982480372248 L77.38248967839606 135.91927159052787 L68.58248967839606 135.91927159052787 Z" transform="rotate(0.0 72.98248967839606 133.3333333333334 ) " />
                  <path fill="#2b5b83" stroke="#2b5b83" stroke-opacity="0.0" stroke-width="0.0" d="M72.98248967839606 135.87400561298236 L72.98248967839606 135.87400561298236 L77.38248967839606 143.49502916628543 L68.58248967839606 143.49502916628543 Z" transform="rotate(0.0 72.98248967839606 140.90909090909096 ) " />
                  <path fill="#214769" stroke="#214769" stroke-opacity="0.0" stroke-width="0.0" d="M160.1257609361824 151.02552076449751 L160.1257609361824 151.02552076449751 L164.5257609361824 158.6465443178006 L155.72576093618238 158.6465443178006 Z" transform="rotate(0.0 160.1257609361824 156.06060606060612 ) " />
                  <path fill="#265176" stroke="#265176" stroke-opacity="0.0" stroke-width="0.0" d="M160.1257609361824 151.02552076449751 L160.1257609361824 151.02552076449751 L164.5257609361824 158.6465443178006 L155.72576093618238 158.6465443178006 Z" transform="rotate(0.0 160.1257609361824 156.06060606060612 ) " />
                  <path fill="#265176" stroke="#265176" stroke-opacity="0.0" stroke-width="0.0" d="M192.80448765785232 151.02552076449751 L192.80448765785232 151.02552076449751 L197.20448765785233 158.6465443178006 L188.40448765785231 158.6465443178006 Z" transform="rotate(0.0 192.80448765785232 156.06060606060612 ) " />
                  <path fill="#214769" stroke="#214769" stroke-opacity="0.0" stroke-width="0.0" d="M192.80448765785232 151.02552076449751 L192.80448765785232 151.02552076449751 L197.20448765785233 158.6465443178006 L188.40448765785231 158.6465443178006 Z" transform="rotate(0.0 192.80448765785232 156.06060606060612 ) " />
                  <path fill="#214769" stroke="#214769" stroke-opacity="0.0" stroke-width="0.0" d="M160.1257609361824 158.60127834025508 L160.1257609361824 158.60127834025508 L164.5257609361824 166.22230189355815 L155.72576093618238 166.22230189355815 Z" transform="rotate(0.0 160.1257609361824 163.63636363636368 ) " />
                  <path fill="#265176" stroke="#265176" stroke-opacity="0.0" stroke-width="0.0" d="M192.80448765785232 151.02552076449751 L192.80448765785232 151.02552076449751 L197.20448765785233 158.6465443178006 L188.40448765785231 158.6465443178006 Z" transform="rotate(0.0 192.80448765785232 156.06060606060612 ) " />
                  <path fill="#244c6f" stroke="#244c6f" stroke-opacity="0.0" stroke-width="0.0" d="M312.6264856373085 166.17703591601267 L312.6264856373085 166.17703591601267 L317.02648563730855 173.79805946931575 L308.22648563730854 173.79805946931575 Z" transform="rotate(0.0 312.6264856373085 171.21212121212127 ) " />
                  <rect fill="#1f4262" stroke="#1f4262" stroke-opacity="0.0" stroke-width="0.0" x="428.04848361676477" y="189.539393939394" height="8.8" width="8.8" transform="rotate(0.0 432.44848361676475 193.939393939394 ) " />
                  <rect fill="#18344f" stroke="#18344f" stroke-opacity="0.0" stroke-width="0.0" x="428.04848361676477" y="227.41818181818186" height="8.8" width="8.8" transform="rotate(0.0 432.44848361676475 231.81818181818187 ) " />
                  <rect fill="#1f4262" stroke="#1f4262" stroke-opacity="0.0" stroke-width="0.0" x="428.04848361676477" y="189.539393939394" height="8.8" width="8.8" transform="rotate(0.0 432.44848361676475 193.939393939394 ) " />
                  <rect fill="#1c3d5c" stroke="#1c3d5c" stroke-opacity="0.0" stroke-width="0.0" x="471.620119245658" y="212.2666666666667" height="8.8" width="8.8" transform="rotate(0.0 476.02011924565795 216.6666666666667 ) " />
                  <rect fill="#1a3955" stroke="#1a3955" stroke-opacity="0.0" stroke-width="0.0" x="504.2988459673278" y="212.2666666666667" height="8.8" width="8.8" transform="rotate(0.0 508.69884596732777 216.6666666666667 ) " />
                  <rect fill="#244c6f" stroke="#244c6f" stroke-opacity="0.0" stroke-width="0.0" x="471.620119245658" y="144.08484848484852" height="8.8" width="8.8" transform="rotate(0.0 476.02011924565795 148.48484848484853 ) " />
                  <rect fill="#214769" stroke="#214769" stroke-opacity="0.0" stroke-width="0.0" x="471.620119245658" y="166.81212121212127" height="8.8" width="8.8" transform="rotate(0.0 476.02011924565795 171.21212121212127 ) " />
                  <rect fill="#244c6f" stroke="#244c6f" stroke-opacity="0.0" stroke-width="0.0" x="526.0846637817745" y="144.08484848484852" height="8.8" width="8.8" transform="rotate(0.0 530.4846637817744 148.48484848484853 ) " />
                  <rect fill="#214769" stroke="#214769" stroke-opacity="0.0" stroke-width="0.0" x="526.0846637817745" y="151.6606060606061" height="8.8" width="8.8" transform="rotate(0.0 530.4846637817744 156.06060606060612 ) " />
                  <rect fill="#214769" stroke="#214769" stroke-opacity="0.0" stroke-width="0.0" x="613.2279350395607" y="159.23636363636368" height="8.8" width="8.8" transform="rotate(0.0 617.6279350395607 163.63636363636368 ) " />
                  <path fill="#1f4262" stroke="#1f4262" stroke-opacity="0.0" stroke-width="0.0" d="M432.44848361676475 196.48006621904295 L432.44848361676475 196.48006621904295 L436.8484836167648 204.10108977234603 L428.04848361676477 204.10108977234603 Z" transform="rotate(0.0 432.44848361676475 201.51515151515156 ) " />
                  <path fill="#18344f" stroke="#18344f" stroke-opacity="0.0" stroke-width="0.0" d="M432.44848361676475 234.35885409783083 L432.44848361676475 234.35885409783083 L436.8484836167648 241.9798776511339 L428.04848361676477 241.9798776511339 Z" transform="rotate(0.0 432.44848361676475 239.39393939393943 ) " />
                  <path fill="#18344f" stroke="#18344f" stroke-opacity="0.0" stroke-width="0.0" d="M476.02011924565795 226.78309652207327 L476.02011924565795 226.78309652207327 L480.420119245658 234.40412007537634 L471.620119245658 234.40412007537634 Z" transform="rotate(0.0 476.02011924565795 231.81818181818187 ) " />
                  <path fill="#1f4262" stroke="#1f4262" stroke-opacity="0.0" stroke-width="0.0" d="M563.1633905034442 211.6315813705581 L563.1633905034442 211.6315813705581 L567.5633905034442 219.25260492386118 L558.7633905034443 219.25260492386118 Z" transform="rotate(0.0 563.1633905034442 216.6666666666667 ) " />
                  <circle fill="#2b5b83" stroke="#2b5b83" stroke-opacity="0.0" stroke-width="0.0" cx="116.55412530728924" cy="140.90909090909096" r="4.4" />
                  <circle fill="#336a98" stroke="#336a98" stroke-opacity="0.0" stroke-width="0.0" cx="116.55412530728924" cy="118.18181818181824" r="4.4" />
                  <circle fill="#29567d" stroke="#29567d" stroke-opacity="0.0" stroke-width="0.0" cx="192.80448765785232" cy="148.48484848484853" r="4.4" />
                  <circle fill="#29567d" stroke="#29567d" stroke-opacity="0.0" stroke-width="0.0" cx="236.37612328674547" cy="125.75757575757581" r="4.4" />
                  <circle fill="#265176" stroke="#265176" stroke-opacity="0.0" stroke-width="0.0" cx="247.2690321939688" cy="148.48484848484853" r="4.4" />
                  <circle fill="#29567d" stroke="#29567d" stroke-opacity="0.0" stroke-width="0.0" cx="116.55412530728924" cy="163.63636363636368" r="4.4" />
                  <circle fill="#265176" stroke="#265176" stroke-opacity="0.0" stroke-width="0.0" cx="181.911578750629" cy="163.63636363636368" r="4.4" />
                  <circle fill="#244c6f" stroke="#244c6f" stroke-opacity="0.0" stroke-width="0.0" cx="214.59030547229887" cy="178.78787878787884" r="4.4" />
                  <circle fill="#244c6f" stroke="#244c6f" stroke-opacity="0.0" stroke-width="0.0" cx="214.59030547229887" cy="178.78787878787884" r="4.4" />
                  <circle fill="#265176" stroke="#265176" stroke-opacity="0.0" stroke-width="0.0" cx="214.59030547229887" cy="163.63636363636368" r="4.4" />
                  <circle fill="#265176" stroke="#265176" stroke-opacity="0.0" stroke-width="0.0" cx="214.59030547229887" cy="163.63636363636368" r="4.4" />
                  <circle fill="#18344f" stroke="#18344f" stroke-opacity="0.0" stroke-width="0.0" cx="214.59030547229887" cy="216.6666666666667" r="4.4" />
                  <circle fill="#214769" stroke="#214769" stroke-opacity="0.0" stroke-width="0.0" cx="269.0548500084153" cy="178.78787878787884" r="4.4" />
                  <circle fill="#214769" stroke="#214769" stroke-opacity="0.0" stroke-width="0.0" cx="269.0548500084153" cy="186.3636363636364" r="4.4" />
                  <circle fill="#244c6f" stroke="#244c6f" stroke-opacity="0.0" stroke-width="0.0" cx="269.0548500084153" cy="171.21212121212127" r="4.4" />
                  <circle fill="#244c6f" stroke="#244c6f" stroke-opacity="0.0" stroke-width="0.0" cx="290.840667822862" cy="171.21212121212127" r="4.4" />
                  <path fill="#214769" stroke="#214769" stroke-opacity="0.0" stroke-width="0.0" d="M258.16194110119204 196.48006621904295 L258.16194110119204 196.48006621904295 L262.561941101192 204.10108977234603 L253.76194110119204 204.10108977234603 Z" transform="rotate(0.0 258.16194110119204 201.51515151515156 ) " />
                  <path fill="#1f4262" stroke="#1f4262" stroke-opacity="0.0" stroke-width="0.0" d="M258.16194110119204 204.05582379480055 L258.16194110119204 204.05582379480055 L262.561941101192 211.67684734810362 L253.76194110119204 211.67684734810362 Z" transform="rotate(0.0 258.16194110119204 209.09090909090915 ) " />
                  <path fill="#1c3d5c" stroke="#1c3d5c" stroke-opacity="0.0" stroke-width="0.0" d="M279.9477589156386 211.6315813705581 L279.9477589156386 211.6315813705581 L284.3477589156386 219.25260492386118 L275.5477589156386 219.25260492386118 Z" transform="rotate(0.0 279.9477589156386 216.6666666666667 ) " />
                  <path fill="#1f4262" stroke="#1f4262" stroke-opacity="0.0" stroke-width="0.0" d="M279.9477589156386 211.6315813705581 L279.9477589156386 211.6315813705581 L284.3477589156386 219.25260492386118 L275.5477589156386 219.25260492386118 Z" transform="rotate(0.0 279.9477589156386 216.6666666666667 ) " />
                  <path fill="#1f4262" stroke="#1f4262" stroke-opacity="0.0" stroke-width="0.0" d="M367.091030173425 196.48006621904295 L367.091030173425 196.48006621904295 L371.49103017342503 204.10108977234603 L362.691030173425 204.10108977234603 Z" transform="rotate(0.0 367.091030173425 201.51515151515156 ) " />
                  <path fill="#1f4262" stroke="#1f4262" stroke-opacity="0.0" stroke-width="0.0" d="M367.091030173425 196.48006621904295 L367.091030173425 196.48006621904295 L371.49103017342503 204.10108977234603 L362.691030173425 204.10108977234603 Z" transform="rotate(0.0 367.091030173425 201.51515151515156 ) " />
                  <path fill="#132b43" stroke="#132b43" stroke-opacity="0.0" stroke-width="0.0" d="M367.091030173425 249.51036924934598 L367.091030173425 249.51036924934598 L371.49103017342503 257.13139280264903 L362.691030173425 257.13139280264903 Z" transform="rotate(0.0 367.091030173425 254.5454545454546 ) " />
                  <path fill="#18344f" stroke="#18344f" stroke-opacity="0.0" stroke-width="0.0" d="M421.5555747095415 211.6315813705581 L421.5555747095415 211.6315813705581 L425.9555747095415 219.25260492386118 L417.1555747095415 219.25260492386118 Z" transform="rotate(0.0 421.5555747095415 216.6666666666667 ) " />
                  <path fill="#18344f" stroke="#18344f" stroke-opacity="0.0" stroke-width="0.0" d="M421.5555747095415 226.78309652207327 L421.5555747095415 226.78309652207327 L425.9555747095415 234.40412007537634 L417.1555747095415 234.40412007537634 Z" transform="rotate(0.0 421.5555747095415 231.81818181818187 ) " />
                  <path fill="#1c3d5c" stroke="#1c3d5c" stroke-opacity="0.0" stroke-width="0.0" d="M279.9477589156386 211.6315813705581 L279.9477589156386 211.6315813705581 L284.3477589156386 219.25260492386118 L275.5477589156386 219.25260492386118 Z" transform="rotate(0.0 279.9477589156386 216.6666666666667 ) " />
                  <path fill="#1c3d5c" stroke="#1c3d5c" stroke-opacity="0.0" stroke-width="0.0" d="M367.091030173425 211.6315813705581 L367.091030173425 211.6315813705581 L371.49103017342503 219.25260492386118 L362.691030173425 219.25260492386118 Z" transform="rotate(0.0 367.091030173425 216.6666666666667 ) " />
                  <path fill="#132b43" stroke="#132b43" stroke-opacity="0.0" stroke-width="0.0" d="M367.091030173425 249.51036924934598 L367.091030173425 249.51036924934598 L371.49103017342503 257.13139280264903 L362.691030173425 257.13139280264903 Z" transform="rotate(0.0 367.091030173425 254.5454545454546 ) " />
                  <path fill="#1c3d5c" stroke="#1c3d5c" stroke-opacity="0.0" stroke-width="0.0" d="M367.091030173425 211.6315813705581 L367.091030173425 211.6315813705581 L371.49103017342503 219.25260492386118 L362.691030173425 219.25260492386118 Z" transform="rotate(0.0 367.091030173425 216.6666666666667 ) " />
                  <path fill="#18344f" stroke="#18344f" stroke-opacity="0.0" stroke-width="0.0" d="M421.5555747095415 219.2073389463157 L421.5555747095415 219.2073389463157 L425.9555747095415 226.82836249961878 L417.1555747095415 226.82836249961878 Z" transform="rotate(0.0 421.5555747095415 224.2424242424243 ) " />
                  <path fill="#1c3d5c" stroke="#1c3d5c" stroke-opacity="0.0" stroke-width="0.0" d="M476.02011924565795 204.05582379480055 L476.02011924565795 204.05582379480055 L480.420119245658 211.67684734810362 L471.620119245658 211.67684734810362 Z" transform="rotate(0.0 476.02011924565795 209.09090909090915 ) " />
                  <path fill="#18344f" stroke="#18344f" stroke-opacity="0.0" stroke-width="0.0" d="M497.8059370601045 226.78309652207327 L497.8059370601045 226.78309652207327 L502.20593706010453 234.40412007537634 L493.4059370601045 234.40412007537634 Z" transform="rotate(0.0 497.8059370601045 231.81818181818187 ) " />
                  <path fill="#1a3955" stroke="#1a3955" stroke-opacity="0.0" stroke-width="0.0" d="M367.091030173425 219.2073389463157 L367.091030173425 219.2073389463157 L371.49103017342503 226.82836249961878 L362.691030173425 226.82836249961878 Z" transform="rotate(0.0 367.091030173425 224.2424242424243 ) " />
                  <path fill="#132b43" stroke="#132b43" stroke-opacity="0.0" stroke-width="0.0" d="M367.091030173425 249.51036924934598 L367.091030173425 249.51036924934598 L371.49103017342503 257.13139280264903 L362.691030173425 257.13139280264903 Z" transform="rotate(0.0 367.091030173425 254.5454545454546 ) " />
                  <path fill="#1c3d5c" stroke="#1c3d5c" stroke-opacity="0.0" stroke-width="0.0" d="M367.091030173425 211.6315813705581 L367.091030173425 211.6315813705581 L371.49103017342503 219.25260492386118 L362.691030173425 219.25260492386118 Z" transform="rotate(0.0 367.091030173425 216.6666666666667 ) " />
                  <path fill="#1c3d5c" stroke="#1c3d5c" stroke-opacity="0.0" stroke-width="0.0" d="M367.091030173425 211.6315813705581 L367.091030173425 211.6315813705581 L371.49103017342503 219.25260492386118 L362.691030173425 219.25260492386118 Z" transform="rotate(0.0 367.091030173425 216.6666666666667 ) " />
                  <path fill="#1a3955" stroke="#1a3955" stroke-opacity="0.0" stroke-width="0.0" d="M367.091030173425 219.2073389463157 L367.091030173425 219.2073389463157 L371.49103017342503 226.82836249961878 L362.691030173425 226.82836249961878 Z" transform="rotate(0.0 367.091030173425 224.2424242424243 ) " />
                  <path fill="#132b43" stroke="#132b43" stroke-opacity="0.0" stroke-width="0.0" d="M367.091030173425 249.51036924934598 L367.091030173425 249.51036924934598 L371.49103017342503 257.13139280264903 L362.691030173425 257.13139280264903 Z" transform="rotate(0.0 367.091030173425 254.5454545454546 ) " />
                  <path fill="#18344f" stroke="#18344f" stroke-opacity="0.0" stroke-width="0.0" d="M421.5555747095415 226.78309652207327 L421.5555747095415 226.78309652207327 L425.9555747095415 234.40412007537634 L417.1555747095415 234.40412007537634 Z" transform="rotate(0.0 421.5555747095415 231.81818181818187 ) " />
                  <path fill="#18344f" stroke="#18344f" stroke-opacity="0.0" stroke-width="0.0" d="M421.5555747095415 219.2073389463157 L421.5555747095415 219.2073389463157 L425.9555747095415 226.82836249961878 L417.1555747095415 226.82836249961878 Z" transform="rotate(0.0 421.5555747095415 224.2424242424243 ) " />
                  <path fill="#1c3d5c" stroke="#1c3d5c" stroke-opacity="0.0" stroke-width="0.0" d="M476.02011924565795 211.6315813705581 L476.02011924565795 211.6315813705581 L480.420119245658 219.25260492386118 L471.620119245658 219.25260492386118 Z" transform="rotate(0.0 476.02011924565795 216.6666666666667 ) " />
                  <path fill="#18344f" stroke="#18344f" stroke-opacity="0.0" stroke-width="0.0" d="M497.8059370601045 226.78309652207327 L497.8059370601045 226.78309652207327 L502.20593706010453 234.40412007537634 L493.4059370601045 234.40412007537634 Z" transform="rotate(0.0 497.8059370601045 231.81818181818187 ) " />
                  <rect fill="#18344f" stroke="#18344f" stroke-opacity="0.0" stroke-width="0.0" x="351.79812126620175" y="212.2666666666667" height="8.8" width="8.8" transform="rotate(0.0 356.1981212662017 216.6666666666667 ) " />
                  <rect fill="#18344f" stroke="#18344f" stroke-opacity="0.0" stroke-width="0.0" x="438.94139252398804" y="212.2666666666667" height="8.8" width="8.8" transform="rotate(0.0 443.341392523988 216.6666666666667 ) " />
                  <rect fill="#1a3955" stroke="#1a3955" stroke-opacity="0.0" stroke-width="0.0" x="438.94139252398804" y="204.69090909090914" height="8.8" width="8.8" transform="rotate(0.0 443.341392523988 209.09090909090915 ) " />
                  <path fill="#1f4262" stroke="#1f4262" stroke-opacity="0.0" stroke-width="0.0" d="M290.840667822862 211.6315813705581 L290.840667822862 211.6315813705581 L295.240667822862 219.25260492386118 L286.440667822862 219.25260492386118 Z" transform="rotate(0.0 290.840667822862 216.6666666666667 ) " />
                  <path fill="#214769" stroke="#214769" stroke-opacity="0.0" stroke-width="0.0" d="M290.840667822862 196.48006621904295 L290.840667822862 196.48006621904295 L295.240667822862 204.10108977234603 L286.440667822862 204.10108977234603 Z" transform="rotate(0.0 290.840667822862 201.51515151515156 ) " />
                  <path fill="#1f4262" stroke="#1f4262" stroke-opacity="0.0" stroke-width="0.0" d="M290.840667822862 211.6315813705581 L290.840667822862 211.6315813705581 L295.240667822862 219.25260492386118 L286.440667822862 219.25260492386118 Z" transform="rotate(0.0 290.840667822862 216.6666666666667 ) " />
                  <path fill="#1c3d5c" stroke="#1c3d5c" stroke-opacity="0.0" stroke-width="0.0" d="M290.840667822862 196.48006621904295 L290.840667822862 196.48006621904295 L295.240667822862 204.10108977234603 L286.440667822862 204.10108977234603 Z" transform="rotate(0.0 290.840667822862 201.51515151515156 ) " />
                  <path fill="#1c3d5c" stroke="#1c3d5c" stroke-opacity="0.0" stroke-width="0.0" d="M356.1981212662017 196.48006621904295 L356.1981212662017 196.48006621904295 L360.59812126620176 204.10108977234603 L351.79812126620175 204.10108977234603 Z" transform="rotate(0.0 356.1981212662017 201.51515151515156 ) " />
                  <path fill="#1c3d5c" stroke="#1c3d5c" stroke-opacity="0.0" stroke-width="0.0" d="M399.7697568950948 211.6315813705581 L399.7697568950948 211.6315813705581 L404.16975689509485 219.25260492386118 L395.36975689509484 219.25260492386118 Z" transform="rotate(0.0 399.7697568950948 216.6666666666667 ) " />
                  <path fill="#1f4262" stroke="#1f4262" stroke-opacity="0.0" stroke-width="0.0" d="M312.6264856373085 211.6315813705581 L312.6264856373085 211.6315813705581 L317.02648563730855 219.25260492386118 L308.22648563730854 219.25260492386118 Z" transform="rotate(0.0 312.6264856373085 216.6666666666667 ) " />
                  <path fill="#1f4262" stroke="#1f4262" stroke-opacity="0.0" stroke-width="0.0" d="M312.6264856373085 211.6315813705581 L312.6264856373085 211.6315813705581 L317.02648563730855 219.25260492386118 L308.22648563730854 219.25260492386118 Z" transform="rotate(0.0 312.6264856373085 216.6666666666667 ) " />
                  <path fill="#1c3d5c" stroke="#1c3d5c" stroke-opacity="0.0" stroke-width="0.0" d="M356.1981212662017 219.2073389463157 L356.1981212662017 219.2073389463157 L360.59812126620176 226.82836249961878 L351.79812126620175 226.82836249961878 Z" transform="rotate(0.0 356.1981212662017 224.2424242424243 ) " />
                  <path fill="#1c3d5c" stroke="#1c3d5c" stroke-opacity="0.0" stroke-width="0.0" d="M356.1981212662017 219.2073389463157 L356.1981212662017 219.2073389463157 L360.59812126620176 226.82836249961878 L351.79812126620175 226.82836249961878 Z" transform="rotate(0.0 356.1981212662017 224.2424242424243 ) " />
                  <path fill="#1c3d5c" stroke="#1c3d5c" stroke-opacity="0.0" stroke-width="0.0" d="M356.1981212662017 211.6315813705581 L356.1981212662017 211.6315813705581 L360.59812126620176 219.25260492386118 L351.79812126620175 219.25260492386118 Z" transform="rotate(0.0 356.1981212662017 216.6666666666667 ) " />
                  <path fill="#18344f" stroke="#18344f" stroke-opacity="0.0" stroke-width="0.0" d="M443.341392523988 226.78309652207327 L443.341392523988 226.78309652207327 L447.74139252398805 234.40412007537634 L438.94139252398804 234.40412007537634 Z" transform="rotate(0.0 443.341392523988 231.81818181818187 ) " />
                  <path fill="#1c3d5c" stroke="#1c3d5c" stroke-opacity="0.0" stroke-width="0.0" d="M443.341392523988 211.6315813705581 L443.341392523988 211.6315813705581 L447.74139252398805 219.25260492386118 L438.94139252398804 219.25260492386118 Z" transform="rotate(0.0 443.341392523988 216.6666666666667 ) " />
                  <rect fill="#29567d" stroke="#29567d" stroke-opacity="0.0" stroke-width="0.0" x="264.65485000841534" y="144.08484848484852" height="8.8" width="8.8" transform="rotate(0.0 269.0548500084153 148.48484848484853 ) " />
                  <rect fill="#29567d" stroke="#29567d" stroke-opacity="0.0" stroke-width="0.0" x="264.65485000841534" y="151.6606060606061" height="8.8" width="8.8" transform="rotate(0.0 269.0548500084153 156.06060606060612 ) " />
                  <rect fill="#265176" stroke="#265176" stroke-opacity="0.0" stroke-width="0.0" x="286.440667822862" y="144.08484848484852" height="8.8" width="8.8" transform="rotate(0.0 290.840667822862 148.48484848484853 ) " />
                  <rect fill="#244c6f" stroke="#244c6f" stroke-opacity="0.0" stroke-width="0.0" x="286.440667822862" y="159.23636363636368" height="8.8" width="8.8" transform="rotate(0.0 290.840667822862 163.63636363636368 ) " />
                  <rect fill="#214769" stroke="#214769" stroke-opacity="0.0" stroke-width="0.0" x="351.79812126620175" y="181.9636363636364" height="8.8" width="8.8" transform="rotate(0.0 356.1981212662017 186.3636363636364 ) " />
                  <rect fill="#214769" stroke="#214769" stroke-opacity="0.0" stroke-width="0.0" x="351.79812126620175" y="174.38787878787883" height="8.8" width="8.8" transform="rotate(0.0 356.1981212662017 178.78787878787884 ) " />
                  <rect fill="#214769" stroke="#214769" stroke-opacity="0.0" stroke-width="0.0" x="351.79812126620175" y="166.81212121212127" height="8.8" width="8.8" transform="rotate(0.0 356.1981212662017 171.21212121212127 ) " />
                  <rect fill="#214769" stroke="#214769" stroke-opacity="0.0" stroke-width="0.0" x="351.79812126620175" y="174.38787878787883" height="8.8" width="8.8" transform="rotate(0.0 356.1981212662017 178.78787878787884 ) " />
                  <rect fill="#1f4262" stroke="#1f4262" stroke-opacity="0.0" stroke-width="0.0" x="438.94139252398804" y="189.539393939394" height="8.8" width="8.8" transform="rotate(0.0 443.341392523988 193.939393939394 ) " />
                  <circle fill="#438ac3" stroke="#438ac3" stroke-opacity="0.0" stroke-width="0.0" cx="29.410854049502888" cy="95.45454545454552" r="4.4" />
                  <circle fill="#3875a6" stroke="#3875a6" stroke-opacity="0.0" stroke-width="0.0" cx="29.410854049502888" cy="103.03030303030309" r="4.4" />
                  <circle fill="#3b7aad" stroke="#3b7aad" stroke-opacity="0.0" stroke-width="0.0" cx="29.410854049502888" cy="103.03030303030309" r="4.4" />
                  <circle fill="#356f9f" stroke="#356f9f" stroke-opacity="0.0" stroke-width="0.0" cx="29.410854049502888" cy="125.75757575757581" r="4.4" />
                  <circle fill="#3875a6" stroke="#3875a6" stroke-opacity="0.0" stroke-width="0.0" cx="29.410854049502888" cy="103.03030303030309" r="4.4" />
                  <circle fill="#3d7fb4" stroke="#3d7fb4" stroke-opacity="0.0" stroke-width="0.0" cx="51.19667186394949" cy="87.87878787878793" r="4.4" />
                  <circle fill="#3b7aad" stroke="#3b7aad" stroke-opacity="0.0" stroke-width="0.0" cx="51.19667186394949" cy="72.7272727272728" r="4.4" />
                  <circle fill="#3875a6" stroke="#3875a6" stroke-opacity="0.0" stroke-width="0.0" cx="51.19667186394949" cy="72.7272727272728" r="4.4" />
                  <circle fill="#306591" stroke="#306591" stroke-opacity="0.0" stroke-width="0.0" cx="72.98248967839606" cy="125.75757575757581" r="4.4" />
                  <circle fill="#29567d" stroke="#29567d" stroke-opacity="0.0" stroke-width="0.0" cx="116.55412530728924" cy="148.48484848484853" r="4.4" />
                  <circle fill="#29567d" stroke="#29567d" stroke-opacity="0.0" stroke-width="0.0" cx="116.55412530728924" cy="140.90909090909096" r="4.4" />
                  <circle fill="#306591" stroke="#306591" stroke-opacity="0.0" stroke-width="0.0" cx="116.55412530728924" cy="118.18181818181824" r="4.4" />
                  <circle fill="#306591" stroke="#306591" stroke-opacity="0.0" stroke-width="0.0" cx="116.55412530728924" cy="110.60606060606065" r="4.4" />
                  <circle fill="#29567d" stroke="#29567d" stroke-opacity="0.0" stroke-width="0.0" cx="127.44703421451251" cy="148.48484848484853" r="4.4" />
                  <circle fill="#29567d" stroke="#29567d" stroke-opacity="0.0" stroke-width="0.0" cx="127.44703421451251" cy="148.48484848484853" r="4.4" />
                  <circle fill="#2b5b83" stroke="#2b5b83" stroke-opacity="0.0" stroke-width="0.0" cx="214.59030547229887" cy="133.3333333333334" r="4.4" />
                  <circle fill="#2b5b83" stroke="#2b5b83" stroke-opacity="0.0" stroke-width="0.0" cx="72.98248967839606" cy="148.48484848484853" r="4.4" />
                  <circle fill="#2b5b83" stroke="#2b5b83" stroke-opacity="0.0" stroke-width="0.0" cx="72.98248967839606" cy="125.75757575757581" r="4.4" />
                  <circle fill="#2e608a" stroke="#2e608a" stroke-opacity="0.0" stroke-width="0.0" cx="72.98248967839606" cy="133.3333333333334" r="4.4" />
                  <circle fill="#2e608a" stroke="#2e608a" stroke-opacity="0.0" stroke-width="0.0" cx="72.98248967839606" cy="140.90909090909096" r="4.4" />
                  <circle fill="#265176" stroke="#265176" stroke-opacity="0.0" stroke-width="0.0" cx="149.23285202895912" cy="163.63636363636368" r="4.4" />
                  <circle fill="#244c6f" stroke="#244c6f" stroke-opacity="0.0" stroke-width="0.0" cx="149.23285202895912" cy="163.63636363636368" r="4.4" />
                  <circle fill="#265176" stroke="#265176" stroke-opacity="0.0" stroke-width="0.0" cx="149.23285202895912" cy="163.63636363636368" r="4.4" />
                  <path fill="#265176" stroke="#265176" stroke-opacity="0.0" stroke-width="0.0" d="M181.911578750629 173.75279349177023 L181.911578750629 173.75279349177023 L186.311578750629 181.3738170450733 L177.51157875062898 181.3738170450733 Z" transform="rotate(0.0 181.911578750629 178.78787878787884 ) " />
                  <path fill="#214769" stroke="#214769" stroke-opacity="0.0" stroke-width="0.0" d="M258.16194110119204 196.48006621904295 L258.16194110119204 196.48006621904295 L262.561941101192 204.10108977234603 L253.76194110119204 204.10108977234603 Z" transform="rotate(0.0 258.16194110119204 201.51515151515156 ) " />
                  <path fill="#214769" stroke="#214769" stroke-opacity="0.0" stroke-width="0.0" d="M290.840667822862 188.9043086432854 L290.840667822862 188.9043086432854 L295.240667822862 196.52533219658847 L286.440667822862 196.52533219658847 Z" transform="rotate(0.0 290.840667822862 193.939393939394 ) " />
                  <path fill="#1f4262" stroke="#1f4262" stroke-opacity="0.0" stroke-width="0.0" d="M367.091030173425 211.6315813705581 L367.091030173425 211.6315813705581 L371.49103017342503 219.25260492386118 L362.691030173425 219.25260492386118 Z" transform="rotate(0.0 367.091030173425 216.6666666666667 ) " />
                  <path fill="#132b43" stroke="#132b43" stroke-opacity="0.0" stroke-width="0.0" d="M367.091030173425 249.51036924934598 L367.091030173425 249.51036924934598 L371.49103017342503 257.13139280264903 L362.691030173425 257.13139280264903 Z" transform="rotate(0.0 367.091030173425 254.5454545454546 ) " />
                  <path fill="#1f4262" stroke="#1f4262" stroke-opacity="0.0" stroke-width="0.0" d="M367.091030173425 196.48006621904295 L367.091030173425 196.48006621904295 L371.49103017342503 204.10108977234603 L362.691030173425 204.10108977234603 Z" transform="rotate(0.0 367.091030173425 201.51515151515156 ) " />
                  <path fill="#1c3d5c" stroke="#1c3d5c" stroke-opacity="0.0" stroke-width="0.0" d="M476.02011924565795 204.05582379480055 L476.02011924565795 204.05582379480055 L480.420119245658 211.67684734810362 L471.620119245658 211.67684734810362 Z" transform="rotate(0.0 476.02011924565795 209.09090909090915 ) " />
                  <path fill="#18344f" stroke="#18344f" stroke-opacity="0.0" stroke-width="0.0" d="M519.591754874551 234.35885409783083 L519.591754874551 234.35885409783083 L523.991754874551 241.9798776511339 L515.1917548745511 241.9798776511339 Z" transform="rotate(0.0 519.591754874551 239.39393939393943 ) " />
                  <path fill="#18344f" stroke="#18344f" stroke-opacity="0.0" stroke-width="0.0" d="M290.840667822862 226.78309652207327 L290.840667822862 226.78309652207327 L295.240667822862 234.40412007537634 L286.440667822862 234.40412007537634 Z" transform="rotate(0.0 290.840667822862 231.81818181818187 ) " />
                  <path fill="#1a3955" stroke="#1a3955" stroke-opacity="0.0" stroke-width="0.0" d="M312.6264856373085 204.05582379480055 L312.6264856373085 204.05582379480055 L317.02648563730855 211.67684734810362 L308.22648563730854 211.67684734810362 Z" transform="rotate(0.0 312.6264856373085 209.09090909090915 ) " />
                  <path fill="#1a3955" stroke="#1a3955" stroke-opacity="0.0" stroke-width="0.0" d="M334.4123034517552 204.05582379480055 L334.4123034517552 204.05582379480055 L338.8123034517552 211.67684734810362 L330.0123034517552 211.67684734810362 Z" transform="rotate(0.0 334.4123034517552 209.09090909090915 ) " />
                  <path fill="#18344f" stroke="#18344f" stroke-opacity="0.0" stroke-width="0.0" d="M356.1981212662017 226.78309652207327 L356.1981212662017 226.78309652207327 L360.59812126620176 234.40412007537634 L351.79812126620175 234.40412007537634 Z" transform="rotate(0.0 356.1981212662017 231.81818181818187 ) " />
                  <rect fill="#18344f" stroke="#18344f" stroke-opacity="0.0" stroke-width="0.0" x="438.94139252398804" y="212.2666666666667" height="8.8" width="8.8" transform="rotate(0.0 443.341392523988 216.6666666666667 ) " />
                  <rect fill="#18344f" stroke="#18344f" stroke-opacity="0.0" stroke-width="0.0" x="438.94139252398804" y="219.8424242424243" height="8.8" width="8.8" transform="rotate(0.0 443.341392523988 224.2424242424243 ) " />
                  <rect fill="#1a3955" stroke="#1a3955" stroke-opacity="0.0" stroke-width="0.0" x="438.94139252398804" y="204.69090909090914" height="8.8" width="8.8" transform="rotate(0.0 443.341392523988 209.09090909090915 ) " />
                  <path fill="#1f4262" stroke="#1f4262" stroke-opacity="0.0" stroke-width="0.0" d="M290.840667822862 211.6315813705581 L290.840667822862 211.6315813705581 L295.240667822862 219.25260492386118 L286.440667822862 219.25260492386118 Z" transform="rotate(0.0 290.840667822862 216.6666666666667 ) " />
                  <path fill="#1c3d5c" stroke="#1c3d5c" stroke-opacity="0.0" stroke-width="0.0" d="M290.840667822862 196.48006621904295 L290.840667822862 196.48006621904295 L295.240667822862 204.10108977234603 L286.440667822862 204.10108977234603 Z" transform="rotate(0.0 290.840667822862 201.51515151515156 ) " />
                  <path fill="#1c3d5c" stroke="#1c3d5c" stroke-opacity="0.0" stroke-width="0.0" d="M356.1981212662017 196.48006621904295 L356.1981212662017 196.48006621904295 L360.59812126620176 204.10108977234603 L351.79812126620175 204.10108977234603 Z" transform="rotate(0.0 356.1981212662017 201.51515151515156 ) " />
                  <path fill="#1c3d5c" stroke="#1c3d5c" stroke-opacity="0.0" stroke-width="0.0" d="M399.7697568950948 211.6315813705581 L399.7697568950948 211.6315813705581 L404.16975689509485 219.25260492386118 L395.36975689509484 219.25260492386118 Z" transform="rotate(0.0 399.7697568950948 216.6666666666667 ) " />
                  <circle fill="#306591" stroke="#306591" stroke-opacity="0.0" stroke-width="0.0" cx="116.55412530728924" cy="125.75757575757581" r="4.4" />
                  <circle fill="#2b5b83" stroke="#2b5b83" stroke-opacity="0.0" stroke-width="0.0" cx="116.55412530728924" cy="140.90909090909096" r="4.4" />
                  <circle fill="#356f9f" stroke="#356f9f" stroke-opacity="0.0" stroke-width="0.0" cx="127.44703421451251" cy="110.60606060606065" r="4.4" />
                  <circle fill="#356f9f" stroke="#356f9f" stroke-opacity="0.0" stroke-width="0.0" cx="127.44703421451251" cy="103.03030303030309" r="4.4" />
                  <circle fill="#2b5b83" stroke="#2b5b83" stroke-opacity="0.0" stroke-width="0.0" cx="236.37612328674547" cy="140.90909090909096" r="4.4" />
                  <circle fill="#2b5b83" stroke="#2b5b83" stroke-opacity="0.0" stroke-width="0.0" cx="236.37612328674547" cy="148.48484848484853" r="4.4" />
                  <circle fill="#29567d" stroke="#29567d" stroke-opacity="0.0" stroke-width="0.0" cx="181.911578750629" cy="148.48484848484853" r="4.4" />
                  <circle fill="#2b5b83" stroke="#2b5b83" stroke-opacity="0.0" stroke-width="0.0" cx="181.911578750629" cy="156.06060606060612" r="4.4" />
                  <circle fill="#2b5b83" stroke="#2b5b83" stroke-opacity="0.0" stroke-width="0.0" cx="236.37612328674547" cy="156.06060606060612" r="4.4" />
                  <path fill="#1f4262" stroke="#1f4262" stroke-opacity="0.0" stroke-width="0.0" d="M214.59030547229887 211.6315813705581 L214.59030547229887 211.6315813705581 L218.99030547229887 219.25260492386118 L210.19030547229886 219.25260492386118 Z" transform="rotate(0.0 214.59030547229887 216.6666666666667 ) " />
                  <path fill="#214769" stroke="#214769" stroke-opacity="0.0" stroke-width="0.0" d="M214.59030547229887 211.6315813705581 L214.59030547229887 211.6315813705581 L218.99030547229887 219.25260492386118 L210.19030547229886 219.25260492386118 Z" transform="rotate(0.0 214.59030547229887 216.6666666666667 ) " />
                  <path fill="#1f4262" stroke="#1f4262" stroke-opacity="0.0" stroke-width="0.0" d="M290.840667822862 188.9043086432854 L290.840667822862 188.9043086432854 L295.240667822862 196.52533219658847 L286.440667822862 196.52533219658847 Z" transform="rotate(0.0 290.840667822862 193.939393939394 ) " />
                  <path fill="#1a3955" stroke="#1a3955" stroke-opacity="0.0" stroke-width="0.0" d="M465.12721033843457 204.05582379480055 L465.12721033843457 204.05582379480055 L469.5272103384346 211.67684734810362 L460.7272103384346 211.67684734810362 Z" transform="rotate(0.0 465.12721033843457 209.09090909090915 ) " />
                  <circle fill="#29567d" stroke="#29567d" stroke-opacity="0.0" stroke-width="0.0" cx="192.80448765785232" cy="148.48484848484853" r="4.4" />
                  <circle fill="#244c6f" stroke="#244c6f" stroke-opacity="0.0" stroke-width="0.0" cx="269.0548500084153" cy="148.48484848484853" r="4.4" />
                  <circle fill="#265176" stroke="#265176" stroke-opacity="0.0" stroke-width="0.0" cx="269.0548500084153" cy="140.90909090909096" r="4.4" />
                  <circle fill="#29567d" stroke="#29567d" stroke-opacity="0.0" stroke-width="0.0" cx="269.0548500084153" cy="133.3333333333334" r="4.4" />
                  <circle fill="#244c6f" stroke="#244c6f" stroke-opacity="0.0" stroke-width="0.0" cx="432.44848361676475" cy="156.06060606060612" r="4.4" />
                  <path fill="#29567d" stroke="#29567d" stroke-opacity="0.0" stroke-width="0.0" d="M127.44703421451251 151.02552076449751 L127.44703421451251 151.02552076449751 L131.84703421451252 158.6465443178006 L123.04703421451251 158.6465443178006 Z" transform="rotate(0.0 127.44703421451251 156.06060606060612 ) " />
                  <path fill="#29567d" stroke="#29567d" stroke-opacity="0.0" stroke-width="0.0" d="M127.44703421451251 158.60127834025508 L127.44703421451251 158.60127834025508 L131.84703421451252 166.22230189355815 L123.04703421451251 166.22230189355815 Z" transform="rotate(0.0 127.44703421451251 163.63636363636368 ) " />
                  <path fill="#2e608a" stroke="#2e608a" stroke-opacity="0.0" stroke-width="0.0" d="M127.44703421451251 135.87400561298236 L127.44703421451251 135.87400561298236 L131.84703421451252 143.49502916628543 L123.04703421451251 143.49502916628543 Z" transform="rotate(0.0 127.44703421451251 140.90909090909096 ) " />
                  <path fill="#2b5b83" stroke="#2b5b83" stroke-opacity="0.0" stroke-width="0.0" d="M127.44703421451251 151.02552076449751 L127.44703421451251 151.02552076449751 L131.84703421451252 158.6465443178006 L123.04703421451251 158.6465443178006 Z" transform="rotate(0.0 127.44703421451251 156.06060606060612 ) " />
                  <path fill="#2e608a" stroke="#2e608a" stroke-opacity="0.0" stroke-width="0.0" d="M127.44703421451251 143.44976318873992 L127.44703421451251 143.44976318873992 L131.84703421451252 151.070786742043 L123.04703421451251 151.070786742043 Z" transform="rotate(0.0 127.44703421451251 148.48484848484853 ) " />
                  <path fill="#29567d" stroke="#29567d" stroke-opacity="0.0" stroke-width="0.0" d="M127.44703421451251 166.17703591601267 L127.44703421451251 166.17703591601267 L131.84703421451252 173.79805946931575 L123.04703421451251 173.79805946931575 Z" transform="rotate(0.0 127.44703421451251 171.21212121212127 ) " />
                  <path fill="#306591" stroke="#306591" stroke-opacity="0.0" stroke-width="0.0" d="M94.76830749284267 143.44976318873992 L94.76830749284267 143.44976318873992 L99.16830749284266 151.070786742043 L90.36830749284266 151.070786742043 Z" transform="rotate(0.0 94.76830749284267 148.48484848484853 ) " />
                  <path fill="#2b5b83" stroke="#2b5b83" stroke-opacity="0.0" stroke-width="0.0" d="M94.76830749284267 143.44976318873992 L94.76830749284267 143.44976318873992 L99.16830749284266 151.070786742043 L90.36830749284266 151.070786742043 Z" transform="rotate(0.0 94.76830749284267 148.48484848484853 ) " />
                  <path fill="#2b5b83" stroke="#2b5b83" stroke-opacity="0.0" stroke-width="0.0" d="M127.44703421451251 143.44976318873992 L127.44703421451251 143.44976318873992 L131.84703421451252 151.070786742043 L123.04703421451251 151.070786742043 Z" transform="rotate(0.0 127.44703421451251 148.48484848484853 ) " />
                  <path fill="#2b5b83" stroke="#2b5b83" stroke-opacity="0.0" stroke-width="0.0" d="M127.44703421451251 143.44976318873992 L127.44703421451251 143.44976318873992 L131.84703421451252 151.070786742043 L123.04703421451251 151.070786742043 Z" transform="rotate(0.0 127.44703421451251 148.48484848484853 ) " />
                  <path fill="#2e608a" stroke="#2e608a" stroke-opacity="0.0" stroke-width="0.0" d="M127.44703421451251 151.02552076449751 L127.44703421451251 151.02552076449751 L131.84703421451252 158.6465443178006 L123.04703421451251 158.6465443178006 Z" transform="rotate(0.0 127.44703421451251 156.06060606060612 ) " />
                  <path fill="#2e608a" stroke="#2e608a" stroke-opacity="0.0" stroke-width="0.0" d="M127.44703421451251 135.87400561298236 L127.44703421451251 135.87400561298236 L131.84703421451252 143.49502916628543 L123.04703421451251 143.49502916628543 Z" transform="rotate(0.0 127.44703421451251 140.90909090909096 ) " />
                  <path fill="#2b5b83" stroke="#2b5b83" stroke-opacity="0.0" stroke-width="0.0" d="M127.44703421451251 151.02552076449751 L127.44703421451251 151.02552076449751 L131.84703421451252 158.6465443178006 L123.04703421451251 158.6465443178006 Z" transform="rotate(0.0 127.44703421451251 156.06060606060612 ) " />
                  <path fill="#2e608a" stroke="#2e608a" stroke-opacity="0.0" stroke-width="0.0" d="M127.44703421451251 135.87400561298236 L127.44703421451251 135.87400561298236 L131.84703421451252 143.49502916628543 L123.04703421451251 143.49502916628543 Z" transform="rotate(0.0 127.44703421451251 140.90909090909096 ) " />
                  <path fill="#214769" stroke="#214769" stroke-opacity="0.0" stroke-width="0.0" d="M149.23285202895912 188.9043086432854 L149.23285202895912 188.9043086432854 L153.63285202895912 196.52533219658847 L144.8328520289591 196.52533219658847 Z" transform="rotate(0.0 149.23285202895912 193.939393939394 ) " />
                  <path fill="#244c6f" stroke="#244c6f" stroke-opacity="0.0" stroke-width="0.0" d="M149.23285202895912 188.9043086432854 L149.23285202895912 188.9043086432854 L153.63285202895912 196.52533219658847 L144.8328520289591 196.52533219658847 Z" transform="rotate(0.0 149.23285202895912 193.939393939394 ) " />
                  <path fill="#214769" stroke="#214769" stroke-opacity="0.0" stroke-width="0.0" d="M225.4832143795222 196.48006621904295 L225.4832143795222 196.48006621904295 L229.8832143795222 204.10108977234603 L221.0832143795222 204.10108977234603 Z" transform="rotate(0.0 225.4832143795222 201.51515151515156 ) " />
                  <path fill="#214769" stroke="#214769" stroke-opacity="0.0" stroke-width="0.0" d="M225.4832143795222 211.6315813705581 L225.4832143795222 211.6315813705581 L229.8832143795222 219.25260492386118 L221.0832143795222 219.25260492386118 Z" transform="rotate(0.0 225.4832143795222 216.6666666666667 ) " />
                  <path fill="#244c6f" stroke="#244c6f" stroke-opacity="0.0" stroke-width="0.0" d="M290.840667822862 188.9043086432854 L290.840667822862 188.9043086432854 L295.240667822862 196.52533219658847 L286.440667822862 196.52533219658847 Z" transform="rotate(0.0 290.840667822862 193.939393939394 ) " />
                  <path fill="#1f4262" stroke="#1f4262" stroke-opacity="0.0" stroke-width="0.0" d="M367.091030173425 211.6315813705581 L367.091030173425 211.6315813705581 L371.49103017342503 219.25260492386118 L362.691030173425 219.25260492386118 Z" transform="rotate(0.0 367.091030173425 216.6666666666667 ) " />
                  <circle fill="#306591" stroke="#306591" stroke-opacity="0.0" stroke-width="0.0" cx="94.76830749284267" cy="125.75757575757581" r="4.4" />
                  <circle fill="#306591" stroke="#306591" stroke-opacity="0.0" stroke-width="0.0" cx="94.76830749284267" cy="140.90909090909096" r="4.4" />
                  <circle fill="#306591" stroke="#306591" stroke-opacity="0.0" stroke-width="0.0" cx="116.55412530728924" cy="110.60606060606065" r="4.4" />
                  <circle fill="#306591" stroke="#306591" stroke-opacity="0.0" stroke-width="0.0" cx="116.55412530728924" cy="110.60606060606065" r="4.4" />
                  <circle fill="#29567d" stroke="#29567d" stroke-opacity="0.0" stroke-width="0.0" cx="181.911578750629" cy="148.48484848484853" r="4.4" />
                  <circle fill="#29567d" stroke="#29567d" stroke-opacity="0.0" stroke-width="0.0" cx="181.911578750629" cy="148.48484848484853" r="4.4" />
                  <circle fill="#2b5b83" stroke="#2b5b83" stroke-opacity="0.0" stroke-width="0.0" cx="236.37612328674547" cy="133.3333333333334" r="4.4" />
                  <circle fill="#306591" stroke="#306591" stroke-opacity="0.0" stroke-width="0.0" cx="94.76830749284267" cy="140.90909090909096" r="4.4" />
                  <circle fill="#306591" stroke="#306591" stroke-opacity="0.0" stroke-width="0.0" cx="94.76830749284267" cy="125.75757575757581" r="4.4" />
                  <circle fill="#306591" stroke="#306591" stroke-opacity="0.0" stroke-width="0.0" cx="116.55412530728924" cy="110.60606060606065" r="4.4" />
                  <circle fill="#336a98" stroke="#336a98" stroke-opacity="0.0" stroke-width="0.0" cx="116.55412530728924" cy="110.60606060606065" r="4.4" />
                  <circle fill="#29567d" stroke="#29567d" stroke-opacity="0.0" stroke-width="0.0" cx="181.911578750629" cy="148.48484848484853" r="4.4" />
                  <circle fill="#29567d" stroke="#29567d" stroke-opacity="0.0" stroke-width="0.0" cx="181.911578750629" cy="148.48484848484853" r="4.4" />
                  <circle fill="#29567d" stroke="#29567d" stroke-opacity="0.0" stroke-width="0.0" cx="214.59030547229887" cy="140.90909090909096" r="4.4" />
                  <circle fill="#3875a6" stroke="#3875a6" stroke-opacity="0.0" stroke-width="0.0" cx="51.19667186394949" cy="118.18181818181824" r="4.4" />
                  <circle fill="#3875a6" stroke="#3875a6" stroke-opacity="0.0" stroke-width="0.0" cx="51.19667186394949" cy="95.45454545454552" r="4.4" />
                  <circle fill="#3d7fb4" stroke="#3d7fb4" stroke-opacity="0.0" stroke-width="0.0" cx="51.19667186394949" cy="80.30303030303037" r="4.4" />
                  <circle fill="#438ac3" stroke="#438ac3" stroke-opacity="0.0" stroke-width="0.0" cx="51.19667186394949" cy="65.15151515151518" r="4.4" />
                  <circle fill="#3d7fb4" stroke="#3d7fb4" stroke-opacity="0.0" stroke-width="0.0" cx="51.19667186394949" cy="80.30303030303037" r="4.4" />
                  <path fill="#18344f" stroke="#18344f" stroke-opacity="0.0" stroke-width="0.0" d="M367.091030173425 226.78309652207327 L367.091030173425 226.78309652207327 L371.49103017342503 234.40412007537634 L362.691030173425 234.40412007537634 Z" transform="rotate(0.0 367.091030173425 231.81818181818187 ) " />
                  <path fill="#1c3d5c" stroke="#1c3d5c" stroke-opacity="0.0" stroke-width="0.0" d="M476.02011924565795 204.05582379480055 L476.02011924565795 204.05582379480055 L480.420119245658 211.67684734810362 L471.620119245658 211.67684734810362 Z" transform="rotate(0.0 476.02011924565795 209.09090909090915 ) " />
                  <path fill="#214769" stroke="#214769" stroke-opacity="0.0" stroke-width="0.0" d="M149.23285202895912 188.9043086432854 L149.23285202895912 188.9043086432854 L153.63285202895912 196.52533219658847 L144.8328520289591 196.52533219658847 Z" transform="rotate(0.0 149.23285202895912 193.939393939394 ) " />
                  <path fill="#244c6f" stroke="#244c6f" stroke-opacity="0.0" stroke-width="0.0" d="M149.23285202895912 188.9043086432854 L149.23285202895912 188.9043086432854 L153.63285202895912 196.52533219658847 L144.8328520289591 196.52533219658847 Z" transform="rotate(0.0 149.23285202895912 193.939393939394 ) " />
                  <path fill="#265176" stroke="#265176" stroke-opacity="0.0" stroke-width="0.0" d="M149.23285202895912 173.75279349177023 L149.23285202895912 173.75279349177023 L153.63285202895912 181.3738170450733 L144.8328520289591 181.3738170450733 Z" transform="rotate(0.0 149.23285202895912 178.78787878787884 ) " />
                  <path fill="#214769" stroke="#214769" stroke-opacity="0.0" stroke-width="0.0" d="M225.4832143795222 211.6315813705581 L225.4832143795222 211.6315813705581 L229.8832143795222 219.25260492386118 L221.0832143795222 219.25260492386118 Z" transform="rotate(0.0 225.4832143795222 216.6666666666667 ) " />
                  <path fill="#214769" stroke="#214769" stroke-opacity="0.0" stroke-width="0.0" d="M225.4832143795222 196.48006621904295 L225.4832143795222 196.48006621904295 L229.8832143795222 204.10108977234603 L221.0832143795222 204.10108977234603 Z" transform="rotate(0.0 225.4832143795222 201.51515151515156 ) " />
                  <path fill="#214769" stroke="#214769" stroke-opacity="0.0" stroke-width="0.0" d="M290.840667822862 204.05582379480055 L290.840667822862 204.05582379480055 L295.240667822862 211.67684734810362 L286.440667822862 211.67684734810362 Z" transform="rotate(0.0 290.840667822862 209.09090909090915 ) " />
                  <path fill="#244c6f" stroke="#244c6f" stroke-opacity="0.0" stroke-width="0.0" d="M290.840667822862 188.9043086432854 L290.840667822862 188.9043086432854 L295.240667822862 196.52533219658847 L286.440667822862 196.52533219658847 Z" transform="rotate(0.0 290.840667822862 193.939393939394 ) " />
                  <circle fill="#306591" stroke="#306591" stroke-opacity="0.0" stroke-width="0.0" cx="72.98248967839606" cy="125.75757575757581" r="4.4" />
                  <circle fill="#2b5b83" stroke="#2b5b83" stroke-opacity="0.0" stroke-width="0.0" cx="72.98248967839606" cy="148.48484848484853" r="4.4" />
                  <circle fill="#306591" stroke="#306591" stroke-opacity="0.0" stroke-width="0.0" cx="72.98248967839606" cy="125.75757575757581" r="4.4" />
                  <circle fill="#336a98" stroke="#336a98" stroke-opacity="0.0" stroke-width="0.0" cx="72.98248967839606" cy="125.75757575757581" r="4.4" />
                  <circle fill="#265176" stroke="#265176" stroke-opacity="0.0" stroke-width="0.0" cx="160.1257609361824" cy="163.63636363636368" r="4.4" />
                  <circle fill="#50a6e8" stroke="#50a6e8" stroke-opacity="0.0" stroke-width="0.0" cx="62.08958077117276" cy="12.121212121212182" r="4.4" />
                  <circle fill="#306591" stroke="#306591" stroke-opacity="0.0" stroke-width="0.0" cx="72.98248967839606" cy="125.75757575757581" r="4.4" />
                  <circle fill="#2b5b83" stroke="#2b5b83" stroke-opacity="0.0" stroke-width="0.0" cx="72.98248967839606" cy="148.48484848484853" r="4.4" />
                  <circle fill="#336a98" stroke="#336a98" stroke-opacity="0.0" stroke-width="0.0" cx="72.98248967839606" cy="125.75757575757581" r="4.4" />
                  <circle fill="#306591" stroke="#306591" stroke-opacity="0.0" stroke-width="0.0" cx="72.98248967839606" cy="125.75757575757581" r="4.4" />
                  <circle fill="#306591" stroke="#306591" stroke-opacity="0.0" stroke-width="0.0" cx="127.44703421451251" cy="125.75757575757581" r="4.4" />
                  <circle fill="#306591" stroke="#306591" stroke-opacity="0.0" stroke-width="0.0" cx="127.44703421451251" cy="125.75757575757581" r="4.4" />
                  <circle fill="#244c6f" stroke="#244c6f" stroke-opacity="0.0" stroke-width="0.0" cx="160.1257609361824" cy="171.21212121212127" r="4.4" />
                  <circle fill="#265176" stroke="#265176" stroke-opacity="0.0" stroke-width="0.0" cx="160.1257609361824" cy="163.63636363636368" r="4.4" />
                  <circle fill="#56b1f7" stroke="#56b1f7" stroke-opacity="0.0" stroke-width="0.0" cx="62.08958077117276" cy="12.121212121212182" r="4.4" />
                  <circle fill="#458fca" stroke="#458fca" stroke-opacity="0.0" stroke-width="0.0" cx="62.08958077117276" cy="34.84848484848493" r="4.4" />
                  <circle fill="#306591" stroke="#306591" stroke-opacity="0.0" stroke-width="0.0" cx="72.98248967839606" cy="125.75757575757581" r="4.4" />
                  <circle fill="#2b5b83" stroke="#2b5b83" stroke-opacity="0.0" stroke-width="0.0" cx="72.98248967839606" cy="148.48484848484853" r="4.4" />
                  <circle fill="#2e608a" stroke="#2e608a" stroke-opacity="0.0" stroke-width="0.0" cx="127.44703421451251" cy="133.3333333333334" r="4.4" />
                  <circle fill="#2e608a" stroke="#2e608a" stroke-opacity="0.0" stroke-width="0.0" cx="127.44703421451251" cy="125.75757575757581" r="4.4" />
                  <circle fill="#306591" stroke="#306591" stroke-opacity="0.0" stroke-width="0.0" cx="51.19667186394949" cy="125.75757575757581" r="4.4" />
                  <circle fill="#29567d" stroke="#29567d" stroke-opacity="0.0" stroke-width="0.0" cx="51.19667186394949" cy="125.75757575757581" r="4.4" />
                  <circle fill="#2b5b83" stroke="#2b5b83" stroke-opacity="0.0" stroke-width="0.0" cx="72.98248967839606" cy="133.3333333333334" r="4.4" />
                  <circle fill="#306591" stroke="#306591" stroke-opacity="0.0" stroke-width="0.0" cx="72.98248967839606" cy="125.75757575757581" r="4.4" />
                  <circle fill="#244c6f" stroke="#244c6f" stroke-opacity="0.0" stroke-width="0.0" cx="160.1257609361824" cy="148.48484848484853" r="4.4" />
                  <circle fill="#29567d" stroke="#29567d" stroke-opacity="0.0" stroke-width="0.0" cx="160.1257609361824" cy="148.48484848484853" r="4.4" />
                  <circle fill="#265176" stroke="#265176" stroke-opacity="0.0" stroke-width="0.0" cx="247.2690321939688" cy="148.48484848484853" r="4.4" />
                </g>
              </g>
            </g>
          </g>
        </g>
        <defs>
          <clipPath id="xXxprefixXx1">
            <rect x="21.961210910936405" y="0.0" width="647.0387890890636" height="266.6666666666667">
            </rect>
          </clipPath>
        </defs>
      </g>
      <g>
      </g>
    </g>
    <g transform="translate(16.0 139.83333333333334 ) rotate(-90.0 ) ">
      <text class="axis-title-y" y="0.0" text-anchor="middle">
        <tspan>hwy</tspan>
      </text>
    </g>
    <g transform="translate(374.9806054554682 318.6666666666667 ) ">
      <text class="axis-title-x" y="0.0" text-anchor="middle">
        <tspan>displ</tspan>
      </text>
    </g>
    <g transform="translate(262.586266910655 330.6666666666667 ) ">
      <rect x="0.0" y="0.0" height="50.33333333333333" width="224.78867708962633" stroke="rgb(187,187,187)" stroke-opacity="1.0" stroke-width="0.0" fill="rgb(25,25,28)" fill-opacity="1.0">
      </rect>
      <g transform="translate(5.0 5.0 ) ">
        <g transform="translate(0.0 17.166666666666664 ) ">
          <text class="legend-title" y="0.0">
            <tspan>City mileage</tspan>
          </text>
          <text class="legend-title" y="15.0">
            <tspan>(mpg)</tspan>
          </text>
        </g>
        <g transform="translate(99.78867708962632 0.0 ) ">
          <g>
            <rect x="0.0" y="0.0" height="23.0" width="115.0" stroke-width="0.0" fill="rgb(20,46,71)" fill-opacity="1.0">
            </rect>
            <rect x="7.55" y="0.0" height="23.0" width="107.45" stroke-width="0.0" fill="rgb(24,52,79)" fill-opacity="1.0">
            </rect>
            <rect x="13.1" y="0.0" height="23.0" width="101.9" stroke-width="0.0" fill="rgb(27,58,87)" fill-opacity="1.0">
            </rect>
            <rect x="18.65" y="0.0" height="23.0" width="96.35" stroke-width="0.0" fill="rgb(30,64,95)" fill-opacity="1.0">
            </rect>
            <rect x="24.2" y="0.0" height="23.0" width="90.8" stroke-width="0.0" fill="rgb(33,70,104)" fill-opacity="1.0">
            </rect>
            <rect x="29.75" y="0.0" height="23.0" width="85.25" stroke-width="0.0" fill="rgb(36,77,112)" fill-opacity="1.0">
            </rect>
            <rect x="35.3" y="0.0" height="23.0" width="79.7" stroke-width="0.0" fill="rgb(39,83,121)" fill-opacity="1.0">
            </rect>
            <rect x="40.849999999999994" y="0.0" height="23.0" width="74.15" stroke-width="0.0" fill="rgb(42,90,130)" fill-opacity="1.0">
            </rect>
            <rect x="46.39999999999999" y="0.0" height="23.0" width="68.60000000000001" stroke-width="0.0" fill="rgb(46,96,138)" fill-opacity="1.0">
            </rect>
            <rect x="51.94999999999999" y="0.0" height="23.0" width="63.05000000000001" stroke-width="0.0" fill="rgb(49,103,147)" fill-opacity="1.0">
            </rect>
            <rect x="57.499999999999986" y="0.0" height="23.0" width="57.500000000000014" stroke-width="0.0" fill="rgb(52,110,156)" fill-opacity="1.0">
            </rect>
            <rect x="63.04999999999998" y="0.0" height="23.0" width="51.95000000000002" stroke-width="0.0" fill="rgb(56,116,166)" fill-opacity="1.0">
            </rect>
            <rect x="68.59999999999998" y="0.0" height="23.0" width="46.40000000000002" stroke-width="0.0" fill="rgb(59,123,175)" fill-opacity="1.0">
            </rect>
            <rect x="74.14999999999998" y="0.0" height="23.0" width="40.85000000000002" stroke-width="0.0" fill="rgb(63,130,184)" fill-opacity="1.0">
            </rect>
            <rect x="79.69999999999997" y="0.0" height="23.0" width="35.300000000000026" stroke-width="0.0" fill="rgb(66,137,194)" fill-opacity="1.0">
            </rect>
            <rect x="85.24999999999997" y="0.0" height="23.0" width="29.75000000000003" stroke-width="0.0" fill="rgb(70,144,203)" fill-opacity="1.0">
            </rect>
            <rect x="90.79999999999997" y="0.0" height="23.0" width="24.20000000000003" stroke-width="0.0" fill="rgb(73,151,213)" fill-opacity="1.0">
            </rect>
            <rect x="96.34999999999997" y="0.0" height="23.0" width="18.650000000000034" stroke-width="0.0" fill="rgb(77,159,222)" fill-opacity="1.0">
            </rect>
            <rect x="101.89999999999996" y="0.0" height="23.0" width="13.100000000000037" stroke-width="0.0" fill="rgb(81,166,232)" fill-opacity="1.0">
            </rect>
            <rect x="107.44999999999996" y="0.0" height="23.0" width="7.55000000000004" stroke-width="0.0" fill="rgb(84,173,242)" fill-opacity="1.0">
            </rect>
            <line x1="6.269230769230774" y1="0.0" x2="6.269230769230774" y2="4.6" stroke-width="1.0" stroke="rgb(25,25,28)" stroke-opacity="1.0">
            </line>
            <line x1="6.269230769230774" y1="18.4" x2="6.269230769230774" y2="23.0" stroke-width="1.0" stroke="rgb(25,25,28)" stroke-opacity="1.0">
            </line>
            <g transform="translate(6.269230769230774 36.43333333333333 ) ">
              <text class="legend-item" text-anchor="middle" y="0.0">
                <tspan>10</tspan>
              </text>
            </g>
            <line x1="27.615384615384613" y1="0.0" x2="27.615384615384613" y2="4.6" stroke-width="1.0" stroke="rgb(25,25,28)" stroke-opacity="1.0">
            </line>
            <line x1="27.615384615384613" y1="18.4" x2="27.615384615384613" y2="23.0" stroke-width="1.0" stroke="rgb(25,25,28)" stroke-opacity="1.0">
            </line>
            <g transform="translate(27.615384615384613 36.43333333333333 ) ">
              <text class="legend-item" text-anchor="middle" y="0.0">
                <tspan>15</tspan>
              </text>
            </g>
            <line x1="48.96153846153847" y1="0.0" x2="48.96153846153847" y2="4.6" stroke-width="1.0" stroke="rgb(25,25,28)" stroke-opacity="1.0">
            </line>
            <line x1="48.96153846153847" y1="18.4" x2="48.96153846153847" y2="23.0" stroke-width="1.0" stroke="rgb(25,25,28)" stroke-opacity="1.0">
            </line>
            <g transform="translate(48.96153846153847 36.43333333333333 ) ">
              <text class="legend-item" text-anchor="middle" y="0.0">
                <tspan>20</tspan>
              </text>
            </g>
            <line x1="70.3076923076923" y1="0.0" x2="70.3076923076923" y2="4.6" stroke-width="1.0" stroke="rgb(25,25,28)" stroke-opacity="1.0">
            </line>
            <line x1="70.3076923076923" y1="18.4" x2="70.3076923076923" y2="23.0" stroke-width="1.0" stroke="rgb(25,25,28)" stroke-opacity="1.0">
            </line>
            <g transform="translate(70.3076923076923 36.43333333333333 ) ">
              <text class="legend-item" text-anchor="middle" y="0.0">
                <tspan>25</tspan>
              </text>
            </g>
            <line x1="91.65384615384615" y1="0.0" x2="91.65384615384615" y2="4.6" stroke-width="1.0" stroke="rgb(25,25,28)" stroke-opacity="1.0">
            </line>
            <line x1="91.65384615384615" y1="18.4" x2="91.65384615384615" y2="23.0" stroke-width="1.0" stroke="rgb(25,25,28)" stroke-opacity="1.0">
            </line>
            <g transform="translate(91.65384615384615 36.43333333333333 ) ">
              <text class="legend-item" text-anchor="middle" y="0.0">
                <tspan>30</tspan>
              </text>
            </g>
            <line x1="113.00000000000001" y1="0.0" x2="113.00000000000001" y2="4.6" stroke-width="1.0" stroke="rgb(25,25,28)" stroke-opacity="1.0">
            </line>
            <line x1="113.00000000000001" y1="18.4" x2="113.00000000000001" y2="23.0" stroke-width="1.0" stroke="rgb(25,25,28)" stroke-opacity="1.0">
            </line>
            <g transform="translate(113.00000000000001 36.43333333333333 ) ">
              <text class="legend-item" text-anchor="middle" y="0.0">
                <tspan>35</tspan>
              </text>
            </g>
          </g>
        </g>
      </g>
    </g>
    <g transform="translate(262.586266910655 391.0 ) ">
      <rect x="0.0" y="0.0" height="79.0" width="210.83568304177754" stroke="rgb(187,187,187)" stroke-opacity="1.0" stroke-width="0.0" fill="rgb(25,25,28)" fill-opacity="1.0">
      </rect>
      <g transform="translate(5.0 5.0 ) ">
        <g transform="translate(0.0 31.5 ) ">
          <text class="legend-title" y="0.0">
            <tspan>Drive type</tspan>
          </text>
          <text class="legend-title" y="15.0">
            <tspan>(front/4/rear wheel)</tspan>
          </text>
        </g>
        <g transform="translate(157.88416940310702 0.0 ) ">
          <g transform="">
            <g>
              <g transform="translate(1.0 1.0 ) ">
                <g>
                  <g >
                    <circle fill="#bbbbbb" stroke="#bbbbbb" stroke-opacity="0.0" stroke-width="0.0" cx="10.5" cy="10.5" r="5.5" />
                  </g>
                </g>
              </g>
            </g>
            <g transform="translate(26.9903027277341 16.05 ) ">
              <text class="legend-item" y="0.0">
                <tspan>f</tspan>
              </text>
            </g>
          </g>
          <g transform="translate(0.0 23.0 ) ">
            <g>
              <g transform="translate(1.0 1.0 ) ">
                <g>
                  <g >
                    <path fill="#bbbbbb" stroke="#bbbbbb" stroke-opacity="0.0" stroke-width="0.0" d="M10.5 5.736860279185588 L10.5 5.736860279185588 L16.0 15.263139720814412 L5.0 15.263139720814412 Z" transform="rotate(0.0 10.5 10.5 ) " />
                  </g>
                </g>
              </g>
            </g>
            <g transform="translate(26.9903027277341 16.05 ) ">
              <text class="legend-item" y="0.0">
                <tspan>4</tspan>
              </text>
            </g>
          </g>
          <g transform="translate(0.0 46.0 ) ">
            <g>
              <g transform="translate(1.0 1.0 ) ">
                <g>
                  <g >
                    <rect fill="#bbbbbb" stroke="#bbbbbb" stroke-opacity="0.0" stroke-width="0.0" x="5.0" y="5.0" height="11.0" width="11.0" transform="rotate(0.0 10.5 10.5 ) " />
                  </g>
                </g>
              </g>
            </g>
            <g transform="translate(26.9903027277341 16.05 ) ">
              <text class="legend-item" y="0.0">
                <tspan>r</tspan>
              </text>
            </g>
          </g>
        </g>
      </g>
    </g>
    <path fill="rgb(0,0,0)" fill-opacity="0.0" stroke="rgb(187,187,187)" stroke-opacity="1.0" stroke-width="0.0" d="M0.0 0.0 L0.0 470.0 L705.0 470.0 L705.0 0.0 Z" pointer-events="none">
    </path>
  </g>
  <g id="xXxprefixXx2">
  </g>
</svg>