<svg width="1085" height="657" viewBox="0 0 1085 657" fill="none" xmlns="http://www.w3.org/2000/svg">
<g filter="url(#filter0_d_23_106)">
<rect x="477" y="40.5649" width="250" height="100" rx="25" fill="url(#paint0_linear_23_106)" shape-rendering="crispEdges"/>
</g>
<path d="M564.944 100.565V77.2049H572.464C573.915 77.2049 575.173 77.4929 576.24 78.0689C577.307 78.6235 578.128 79.4129 578.704 80.4369C579.301 81.4609 579.6 82.6769 579.6 84.0849C579.6 85.4715 579.301 86.6875 578.704 87.7329C578.128 88.7569 577.307 89.5569 576.24 90.1329C575.173 90.6875 573.915 90.9649 572.464 90.9649H567.824V100.565H564.944ZM567.824 88.3729H572.464C573.723 88.3729 574.725 87.9889 575.472 87.2209C576.24 86.4315 576.624 85.3862 576.624 84.0849C576.624 82.7622 576.24 81.7169 575.472 80.9489C574.725 80.1809 573.723 79.7969 572.464 79.7969H567.824V88.3729ZM593.188 100.565C592.164 100.565 591.268 100.362 590.5 99.9569C589.732 99.5515 589.134 98.9755 588.708 98.2289C588.281 97.4822 588.068 96.6075 588.068 95.6049V79.8289H582.148V77.2049H590.948V95.6049C590.948 96.3302 591.15 96.9062 591.556 97.3329C591.961 97.7382 592.505 97.9409 593.188 97.9409H598.788V100.565H593.188ZM609.975 100.821C608.567 100.821 607.351 100.554 606.327 100.021C605.303 99.4875 604.503 98.7195 603.927 97.7169C603.372 96.6929 603.095 95.4875 603.095 94.1009V89.4289C603.095 88.0209 603.372 86.8155 603.927 85.8129C604.503 84.8102 605.303 84.0422 606.327 83.5089C607.351 82.9755 608.567 82.7089 609.975 82.7089C611.383 82.7089 612.599 82.9755 613.623 83.5089C614.647 84.0422 615.436 84.8102 615.991 85.8129C616.567 86.8155 616.855 88.0102 616.855 89.3969V94.1009C616.855 95.4875 616.567 96.6929 615.991 97.7169C615.436 98.7195 614.647 99.4875 613.623 100.021C612.599 100.554 611.383 100.821 609.975 100.821ZM609.975 98.2609C611.234 98.2609 612.215 97.9089 612.919 97.2049C613.623 96.5009 613.975 95.4662 613.975 94.1009V89.4289C613.975 88.0635 613.623 87.0289 612.919 86.3249C612.215 85.6209 611.234 85.2689 609.975 85.2689C608.738 85.2689 607.756 85.6209 607.031 86.3249C606.327 87.0289 605.975 88.0635 605.975 89.4289V94.1009C605.975 95.4662 606.327 96.5009 607.031 97.2049C607.756 97.9089 608.738 98.2609 609.975 98.2609ZM631.083 100.565C629.568 100.565 628.384 100.16 627.531 99.3489C626.699 98.5382 626.283 97.3969 626.283 95.9249V85.5889H621.323V82.9649H626.283V78.0049H629.163V82.9649H636.203V85.5889H629.163V95.9249C629.163 97.2689 629.803 97.9409 631.083 97.9409H635.883V100.565H631.083Z" fill="white"/>
<g filter="url(#filter1_d_23_106)">
<rect x="215" y="304.565" width="150" height="45" rx="22.5" fill="#F2F2F2"/>
</g>
<path d="M257.864 334.725C257.16 334.725 256.547 334.592 256.024 334.325C255.512 334.058 255.112 333.674 254.824 333.173C254.547 332.661 254.408 332.058 254.408 331.365V326.085C254.408 325.381 254.547 324.778 254.824 324.277C255.112 323.776 255.512 323.392 256.024 323.125C256.547 322.858 257.16 322.725 257.864 322.725C258.568 322.725 259.176 322.864 259.688 323.141C260.2 323.408 260.595 323.792 260.872 324.293C261.149 324.794 261.288 325.392 261.288 326.085H259.848C259.848 325.424 259.672 324.917 259.32 324.565C258.979 324.202 258.493 324.021 257.864 324.021C257.235 324.021 256.739 324.197 256.376 324.549C256.024 324.901 255.848 325.408 255.848 326.069V331.365C255.848 332.026 256.024 332.538 256.376 332.901C256.739 333.264 257.235 333.445 257.864 333.445C258.493 333.445 258.979 333.264 259.32 332.901C259.672 332.538 259.848 332.026 259.848 331.365V329.925H257.48V328.613H261.288V331.365C261.288 332.048 261.149 332.645 260.872 333.157C260.595 333.658 260.2 334.048 259.688 334.325C259.176 334.592 258.568 334.725 257.864 334.725ZM264.37 334.565V325.765H265.778V327.445H266.114L265.65 328.485C265.65 327.536 265.852 326.821 266.258 326.341C266.674 325.85 267.287 325.605 268.098 325.605C269.026 325.605 269.762 325.898 270.306 326.485C270.86 327.061 271.138 327.845 271.138 328.837V329.365H269.698V328.965C269.698 328.272 269.527 327.744 269.186 327.381C268.855 327.008 268.38 326.821 267.762 326.821C267.154 326.821 266.674 327.008 266.322 327.381C265.98 327.754 265.81 328.282 265.81 328.965V334.565H264.37ZM276.988 334.693C276.284 334.693 275.676 334.56 275.164 334.293C274.652 334.026 274.252 333.642 273.964 333.141C273.686 332.629 273.548 332.026 273.548 331.333V328.997C273.548 328.293 273.686 327.69 273.964 327.189C274.252 326.688 274.652 326.304 275.164 326.037C275.676 325.77 276.284 325.637 276.988 325.637C277.692 325.637 278.3 325.77 278.812 326.037C279.324 326.304 279.718 326.688 279.996 327.189C280.284 327.69 280.428 328.288 280.428 328.981V331.333C280.428 332.026 280.284 332.629 279.996 333.141C279.718 333.642 279.324 334.026 278.812 334.293C278.3 334.56 277.692 334.693 276.988 334.693ZM276.988 333.413C277.617 333.413 278.108 333.237 278.46 332.885C278.812 332.533 278.988 332.016 278.988 331.333V328.997C278.988 328.314 278.812 327.797 278.46 327.445C278.108 327.093 277.617 326.917 276.988 326.917C276.369 326.917 275.878 327.093 275.516 327.445C275.164 327.797 274.988 328.314 274.988 328.997V331.333C274.988 332.016 275.164 332.533 275.516 332.885C275.878 333.237 276.369 333.413 276.988 333.413ZM286.565 334.725C285.552 334.725 284.741 334.426 284.133 333.829C283.525 333.221 283.221 332.4 283.221 331.365V325.765H284.661V331.365C284.661 332.026 284.832 332.544 285.173 332.917C285.515 333.28 285.979 333.461 286.565 333.461C287.163 333.461 287.632 333.28 287.973 332.917C288.325 332.544 288.501 332.026 288.501 331.365V325.765H289.941V331.365C289.941 332.4 289.632 333.221 289.013 333.829C288.395 334.426 287.579 334.725 286.565 334.725ZM292.847 337.445V325.765H294.287V327.445H294.575L294.287 327.781C294.287 327.109 294.506 326.581 294.943 326.197C295.391 325.802 295.978 325.605 296.703 325.605C297.588 325.605 298.292 325.898 298.815 326.485C299.348 327.061 299.615 327.856 299.615 328.869V331.445C299.615 332.117 299.492 332.698 299.247 333.189C299.012 333.68 298.676 334.058 298.239 334.325C297.812 334.592 297.3 334.725 296.703 334.725C295.988 334.725 295.407 334.528 294.959 334.133C294.511 333.738 294.287 333.21 294.287 332.549L294.575 332.885H294.255L294.287 334.885V337.445H292.847ZM296.223 333.477C296.831 333.477 297.306 333.296 297.647 332.933C297.999 332.57 298.175 332.048 298.175 331.365V328.965C298.175 328.282 297.999 327.76 297.647 327.397C297.306 327.034 296.831 326.853 296.223 326.853C295.636 326.853 295.167 327.04 294.815 327.413C294.463 327.786 294.287 328.304 294.287 328.965V331.365C294.287 332.026 294.463 332.544 294.815 332.917C295.167 333.29 295.636 333.477 296.223 333.477ZM302.329 334.565V333.253H305.449V327.077H302.729V325.765H306.889V333.253H309.849V334.565H302.329ZM306.009 324.181C305.657 324.181 305.379 324.09 305.177 323.909C304.974 323.728 304.873 323.482 304.873 323.173C304.873 322.853 304.974 322.602 305.177 322.421C305.379 322.229 305.657 322.133 306.009 322.133C306.361 322.133 306.638 322.229 306.841 322.421C307.043 322.602 307.145 322.853 307.145 323.173C307.145 323.482 307.043 323.728 306.841 323.909C306.638 324.09 306.361 324.181 306.009 324.181ZM312.035 334.565V325.765H313.475V327.445H313.779L313.475 327.781C313.475 327.088 313.683 326.554 314.099 326.181C314.515 325.797 315.091 325.605 315.827 325.605C316.712 325.605 317.416 325.877 317.939 326.421C318.461 326.965 318.723 327.706 318.723 328.645V334.565H317.283V328.805C317.283 328.176 317.112 327.696 316.771 327.365C316.44 327.024 315.987 326.853 315.411 326.853C314.813 326.853 314.339 327.034 313.987 327.397C313.645 327.76 313.475 328.282 313.475 328.965V334.565H312.035ZM322.732 337.445V336.133H325.532C325.98 336.133 326.306 336.032 326.508 335.829C326.722 335.626 326.828 335.312 326.828 334.885V333.765L326.86 332.165H326.572L326.844 331.925C326.844 332.565 326.631 333.072 326.204 333.445C325.778 333.818 325.207 334.005 324.492 334.005C323.586 334.005 322.871 333.712 322.348 333.125C321.826 332.528 321.564 331.728 321.564 330.725V328.869C321.564 327.866 321.826 327.072 322.348 326.485C322.871 325.898 323.586 325.605 324.492 325.605C325.207 325.605 325.778 325.792 326.204 326.165C326.631 326.538 326.844 327.045 326.844 327.685L326.572 327.445H326.844V325.765H328.268V334.885C328.268 335.674 328.023 336.298 327.532 336.757C327.052 337.216 326.38 337.445 325.516 337.445H322.732ZM324.924 332.757C325.522 332.757 325.991 332.57 326.332 332.197C326.674 331.824 326.844 331.306 326.844 330.645V328.965C326.844 328.304 326.674 327.786 326.332 327.413C325.991 327.04 325.522 326.853 324.924 326.853C324.316 326.853 323.842 327.034 323.5 327.397C323.17 327.76 323.004 328.282 323.004 328.965V330.645C323.004 331.328 323.17 331.85 323.5 332.213C323.842 332.576 324.316 332.757 324.924 332.757Z" fill="black"/>
<g filter="url(#filter2_d_23_106)">
<rect x="215" y="250.565" width="150" height="45" rx="22.5" fill="#F2F2F2"/>
</g>
<path d="M243.928 280.868C243.16 280.868 242.499 280.74 241.944 280.484C241.4 280.228 240.979 279.86 240.68 279.38C240.382 278.9 240.227 278.329 240.216 277.668H241.656C241.656 278.254 241.854 278.718 242.248 279.06C242.654 279.401 243.214 279.572 243.928 279.572C244.6 279.572 245.123 279.406 245.496 279.076C245.88 278.745 246.072 278.286 246.072 277.7C246.072 277.23 245.944 276.82 245.688 276.468C245.443 276.116 245.086 275.87 244.616 275.732L243.032 275.236C242.232 274.99 241.614 274.58 241.176 274.004C240.75 273.428 240.536 272.75 240.536 271.972C240.536 271.342 240.675 270.798 240.952 270.34C241.24 269.87 241.64 269.508 242.152 269.252C242.664 268.985 243.267 268.852 243.96 268.852C244.984 268.852 245.806 269.14 246.424 269.716C247.043 270.281 247.358 271.038 247.368 271.988H245.928C245.928 271.412 245.752 270.964 245.4 270.644C245.059 270.313 244.574 270.148 243.944 270.148C243.326 270.148 242.84 270.297 242.488 270.596C242.147 270.894 241.976 271.31 241.976 271.844C241.976 272.324 242.104 272.74 242.36 273.092C242.616 273.444 242.984 273.694 243.464 273.844L245.064 274.356C245.843 274.601 246.446 275.017 246.872 275.604C247.299 276.19 247.512 276.878 247.512 277.668C247.512 278.308 247.363 278.868 247.064 279.348C246.766 279.828 246.344 280.201 245.8 280.468C245.267 280.734 244.643 280.868 243.928 280.868ZM254.418 280.708C253.661 280.708 253.069 280.505 252.642 280.1C252.226 279.694 252.018 279.124 252.018 278.388V273.22H249.538V271.908H252.018V269.428H253.458V271.908H256.978V273.22H253.458V278.388C253.458 279.06 253.778 279.396 254.418 279.396H256.818V280.708H254.418ZM262.284 280.868C261.356 280.868 260.625 280.633 260.092 280.164C259.558 279.684 259.292 279.038 259.292 278.228C259.292 277.406 259.558 276.761 260.092 276.292C260.625 275.822 261.345 275.588 262.252 275.588H264.972V274.708C264.972 274.164 264.806 273.748 264.476 273.46C264.156 273.161 263.697 273.012 263.1 273.012C262.577 273.012 262.14 273.124 261.788 273.348C261.436 273.561 261.233 273.854 261.18 274.228H259.74C259.836 273.47 260.193 272.868 260.812 272.42C261.43 271.972 262.204 271.748 263.132 271.748C264.145 271.748 264.945 272.009 265.532 272.532C266.118 273.054 266.412 273.764 266.412 274.66V280.708H265.004V279.028H264.764L265.004 278.788C265.004 279.428 264.753 279.934 264.252 280.308C263.761 280.681 263.105 280.868 262.284 280.868ZM262.636 279.732C263.318 279.732 263.878 279.561 264.316 279.22C264.753 278.878 264.972 278.441 264.972 277.908V276.66H262.284C261.804 276.66 261.425 276.793 261.148 277.06C260.87 277.326 260.732 277.689 260.732 278.148C260.732 278.638 260.897 279.028 261.228 279.316C261.569 279.593 262.038 279.732 262.636 279.732ZM273.605 280.708C272.848 280.708 272.256 280.505 271.829 280.1C271.413 279.694 271.205 279.124 271.205 278.388V273.22H268.725V271.908H271.205V269.428H272.645V271.908H276.165V273.22H272.645V278.388C272.645 279.06 272.965 279.396 273.605 279.396H276.005V280.708H273.605ZM278.799 280.708V279.396H281.919V273.22H279.199V271.908H283.359V279.396H286.319V280.708H278.799ZM282.479 270.324C282.127 270.324 281.85 270.233 281.647 270.052C281.445 269.87 281.343 269.625 281.343 269.316C281.343 268.996 281.445 268.745 281.647 268.564C281.85 268.372 282.127 268.276 282.479 268.276C282.831 268.276 283.109 268.372 283.311 268.564C283.514 268.745 283.615 268.996 283.615 269.316C283.615 269.625 283.514 269.87 283.311 270.052C283.109 270.233 282.831 270.324 282.479 270.324ZM291.561 280.836C290.964 280.836 290.441 280.745 289.993 280.564C289.556 280.372 289.204 280.105 288.937 279.764C288.681 279.422 288.526 279.017 288.473 278.548H289.913C289.977 278.857 290.148 279.102 290.425 279.284C290.713 279.465 291.092 279.556 291.561 279.556H292.233C292.798 279.556 293.22 279.444 293.497 279.22C293.774 278.985 293.913 278.676 293.913 278.292C293.913 277.918 293.785 277.625 293.529 277.412C293.284 277.188 292.916 277.038 292.425 276.964L291.241 276.772C290.377 276.622 289.732 276.356 289.305 275.972C288.889 275.577 288.681 275.006 288.681 274.26C288.681 273.47 288.932 272.862 289.433 272.436C289.934 271.998 290.686 271.78 291.689 271.78H292.297C293.14 271.78 293.817 271.977 294.329 272.372C294.841 272.766 295.15 273.3 295.257 273.972H293.817C293.753 273.694 293.593 273.476 293.337 273.316C293.081 273.145 292.734 273.06 292.297 273.06H291.689C291.145 273.06 290.745 273.161 290.489 273.364C290.244 273.566 290.121 273.87 290.121 274.276C290.121 274.638 290.228 274.905 290.441 275.076C290.654 275.246 290.99 275.369 291.449 275.444L292.633 275.636C293.582 275.785 294.27 276.062 294.697 276.468C295.134 276.873 295.353 277.46 295.353 278.228C295.353 279.038 295.092 279.678 294.569 280.148C294.057 280.606 293.278 280.836 292.233 280.836H291.561ZM302.387 280.708C301.629 280.708 301.037 280.505 300.611 280.1C300.195 279.694 299.987 279.124 299.987 278.388V273.22H297.507V271.908H299.987V269.428H301.427V271.908H304.947V273.22H301.427V278.388C301.427 279.06 301.747 279.396 302.387 279.396H304.787V280.708H302.387ZM307.58 280.708V279.396H310.7V273.22H307.98V271.908H312.14V279.396H315.1V280.708H307.58ZM311.26 270.324C310.908 270.324 310.631 270.233 310.428 270.052C310.226 269.87 310.124 269.625 310.124 269.316C310.124 268.996 310.226 268.745 310.428 268.564C310.631 268.372 310.908 268.276 311.26 268.276C311.612 268.276 311.89 268.372 312.092 268.564C312.295 268.745 312.396 268.996 312.396 269.316C312.396 269.625 312.295 269.87 312.092 270.052C311.89 270.233 311.612 270.324 311.26 270.324ZM320.678 280.868C319.974 280.868 319.356 280.734 318.822 280.468C318.3 280.201 317.894 279.817 317.606 279.316C317.318 278.804 317.174 278.201 317.174 277.508V275.108C317.174 274.404 317.318 273.801 317.606 273.3C317.894 272.798 318.3 272.414 318.822 272.148C319.356 271.881 319.974 271.748 320.678 271.748C321.692 271.748 322.508 272.02 323.126 272.564C323.745 273.108 324.07 273.849 324.102 274.788H322.662C322.63 274.222 322.438 273.79 322.086 273.492C321.745 273.182 321.276 273.028 320.678 273.028C320.049 273.028 319.548 273.209 319.174 273.572C318.801 273.924 318.614 274.43 318.614 275.092V277.508C318.614 278.169 318.801 278.681 319.174 279.044C319.548 279.406 320.049 279.588 320.678 279.588C321.276 279.588 321.745 279.433 322.086 279.124C322.438 278.814 322.63 278.382 322.662 277.828H324.102C324.07 278.766 323.745 279.508 323.126 280.052C322.508 280.596 321.692 280.868 320.678 280.868ZM329.44 280.868C328.512 280.868 327.781 280.633 327.248 280.164C326.715 279.684 326.448 279.038 326.448 278.228C326.448 277.406 326.715 276.761 327.248 276.292C327.781 275.822 328.501 275.588 329.408 275.588H332.128V274.708C332.128 274.164 331.963 273.748 331.632 273.46C331.312 273.161 330.853 273.012 330.256 273.012C329.733 273.012 329.296 273.124 328.944 273.348C328.592 273.561 328.389 273.854 328.336 274.228H326.896C326.992 273.47 327.349 272.868 327.968 272.42C328.587 271.972 329.36 271.748 330.288 271.748C331.301 271.748 332.101 272.009 332.688 272.532C333.275 273.054 333.568 273.764 333.568 274.66V280.708H332.16V279.028H331.92L332.16 278.788C332.16 279.428 331.909 279.934 331.408 280.308C330.917 280.681 330.261 280.868 329.44 280.868ZM329.792 279.732C330.475 279.732 331.035 279.561 331.472 279.22C331.909 278.878 332.128 278.441 332.128 277.908V276.66H329.44C328.96 276.66 328.581 276.793 328.304 277.06C328.027 277.326 327.888 277.689 327.888 278.148C327.888 278.638 328.053 279.028 328.384 279.316C328.725 279.593 329.195 279.732 329.792 279.732ZM341.002 280.708C340.49 280.708 340.042 280.606 339.658 280.404C339.274 280.201 338.975 279.913 338.762 279.54C338.548 279.166 338.442 278.729 338.442 278.228V270.34H335.482V269.028H339.882V278.228C339.882 278.59 339.983 278.878 340.186 279.092C340.388 279.294 340.66 279.396 341.002 279.396H343.802V280.708H341.002Z" fill="black"/>
<g filter="url(#filter3_d_23_106)">
<rect x="10" y="250.565" width="200" height="100" rx="25" fill="url(#paint1_linear_23_106)" shape-rendering="crispEdges"/>
</g>
<path d="M83.9268 294.565V277.045H88.4628C89.5988 277.045 90.5748 277.261 91.3908 277.693C92.2228 278.125 92.8628 278.733 93.3108 279.517C93.7748 280.301 94.0068 281.229 94.0068 282.301V289.285C94.0068 290.357 93.7748 291.293 93.3108 292.093C92.8628 292.877 92.2228 293.485 91.3908 293.917C90.5748 294.349 89.5988 294.565 88.4628 294.565H83.9268ZM86.0868 292.645H88.4628C89.5188 292.645 90.3428 292.349 90.9348 291.757C91.5428 291.165 91.8468 290.341 91.8468 289.285V282.301C91.8468 281.261 91.5428 280.445 90.9348 279.853C90.3428 279.261 89.5188 278.965 88.4628 278.965H86.0868V292.645ZM102.157 294.805C100.765 294.805 99.6694 294.453 98.8694 293.749C98.0694 293.029 97.6694 292.061 97.6694 290.845C97.6694 289.613 98.0694 288.645 98.8694 287.941C99.6694 287.237 100.749 286.885 102.109 286.885H106.189V285.565C106.189 284.749 105.941 284.125 105.445 283.693C104.965 283.245 104.277 283.021 103.381 283.021C102.597 283.021 101.941 283.189 101.413 283.525C100.885 283.845 100.581 284.285 100.501 284.845H98.3414C98.4854 283.709 99.0214 282.805 99.9494 282.133C100.877 281.461 102.037 281.125 103.429 281.125C104.949 281.125 106.149 281.517 107.029 282.301C107.909 283.085 108.349 284.149 108.349 285.493V294.565H106.237V292.045H105.877L106.237 291.685C106.237 292.645 105.861 293.405 105.109 293.965C104.373 294.525 103.389 294.805 102.157 294.805ZM102.685 293.101C103.709 293.101 104.549 292.845 105.205 292.333C105.861 291.821 106.189 291.165 106.189 290.365V288.493H102.157C101.437 288.493 100.869 288.693 100.453 289.093C100.037 289.493 99.8294 290.037 99.8294 290.725C99.8294 291.461 100.077 292.045 100.573 292.477C101.085 292.893 101.789 293.101 102.685 293.101ZM119.14 294.565C118.004 294.565 117.116 294.261 116.476 293.653C115.852 293.045 115.54 292.189 115.54 291.085V283.333H111.82V281.365H115.54V277.645H117.7V281.365H122.98V283.333H117.7V291.085C117.7 292.093 118.18 292.597 119.14 292.597H122.74V294.565H119.14ZM130.939 294.805C129.547 294.805 128.451 294.453 127.651 293.749C126.851 293.029 126.451 292.061 126.451 290.845C126.451 289.613 126.851 288.645 127.651 287.941C128.451 287.237 129.531 286.885 130.891 286.885H134.971V285.565C134.971 284.749 134.723 284.125 134.227 283.693C133.747 283.245 133.059 283.021 132.163 283.021C131.379 283.021 130.723 283.189 130.195 283.525C129.667 283.845 129.363 284.285 129.283 284.845H127.123C127.267 283.709 127.803 282.805 128.731 282.133C129.659 281.461 130.819 281.125 132.211 281.125C133.731 281.125 134.931 281.517 135.811 282.301C136.691 283.085 137.131 284.149 137.131 285.493V294.565H135.019V292.045H134.659L135.019 291.685C135.019 292.645 134.643 293.405 133.891 293.965C133.155 294.525 132.171 294.805 130.939 294.805ZM131.467 293.101C132.491 293.101 133.331 292.845 133.987 292.333C134.643 291.821 134.971 291.165 134.971 290.365V288.493H130.939C130.219 288.493 129.651 288.693 129.235 289.093C128.819 289.493 128.611 290.037 128.611 290.725C128.611 291.461 128.859 292.045 129.355 292.477C129.867 292.893 130.571 293.101 131.467 293.101ZM25.9803 326.565V309.045H28.8123L30.6363 314.709C30.8123 315.221 30.9723 315.733 31.1163 316.245C31.2603 316.741 31.3643 317.125 31.4283 317.397C31.5083 317.125 31.6123 316.741 31.7403 316.245C31.8683 315.733 32.0123 315.213 32.1723 314.685L33.9003 309.045H36.7323V326.565H34.6203V320.205C34.6203 319.501 34.6443 318.701 34.6923 317.805C34.7403 316.909 34.8043 315.997 34.8843 315.069C34.9643 314.125 35.0443 313.229 35.1243 312.381C35.2203 311.517 35.3003 310.765 35.3643 310.125L32.5323 318.885H30.2523L27.3963 310.125C27.4763 310.749 27.5563 311.477 27.6363 312.309C27.7163 313.125 27.7883 313.997 27.8523 314.925C27.9163 315.837 27.9723 316.749 28.0203 317.661C28.0683 318.573 28.0923 319.421 28.0923 320.205V326.565H25.9803ZM44.5949 326.805C43.2029 326.805 42.1069 326.453 41.3069 325.749C40.5069 325.029 40.1069 324.061 40.1069 322.845C40.1069 321.613 40.5069 320.645 41.3069 319.941C42.1069 319.237 43.1869 318.885 44.5469 318.885H48.6269V317.565C48.6269 316.749 48.3789 316.125 47.8829 315.693C47.4029 315.245 46.7149 315.021 45.8189 315.021C45.0349 315.021 44.3789 315.189 43.8509 315.525C43.3229 315.845 43.0189 316.285 42.9389 316.845H40.7789C40.9229 315.709 41.4589 314.805 42.3869 314.133C43.3149 313.461 44.4749 313.125 45.8669 313.125C47.3869 313.125 48.5869 313.517 49.4669 314.301C50.3469 315.085 50.7869 316.149 50.7869 317.493V326.565H48.6749V324.045H48.3149L48.6749 323.685C48.6749 324.645 48.2989 325.405 47.5469 325.965C46.8109 326.525 45.8269 326.805 44.5949 326.805ZM45.1229 325.101C46.1469 325.101 46.9869 324.845 47.6429 324.333C48.2989 323.821 48.6269 323.165 48.6269 322.365V320.493H44.5949C43.8749 320.493 43.3069 320.693 42.8909 321.093C42.4749 321.493 42.2669 322.037 42.2669 322.725C42.2669 323.461 42.5149 324.045 43.0109 324.477C43.5229 324.893 44.2269 325.101 45.1229 325.101ZM55.1455 326.565V313.365H57.3055V315.885H57.7615L57.3055 316.389C57.3055 315.349 57.6175 314.549 58.2415 313.989C58.8655 313.413 59.7295 313.125 60.8335 313.125C62.1615 313.125 63.2175 313.533 64.0015 314.349C64.7855 315.165 65.1775 316.277 65.1775 317.685V326.565H63.0175V317.925C63.0175 316.981 62.7615 316.261 62.2495 315.765C61.7535 315.253 61.0735 314.997 60.2095 314.997C59.3135 314.997 58.6015 315.269 58.0735 315.813C57.5615 316.357 57.3055 317.141 57.3055 318.165V326.565H55.1455ZM69.3681 326.565V324.597H74.0481V315.333H69.9681V313.365H76.2081V324.597H80.6481V326.565H69.3681ZM74.8881 310.989C74.3601 310.989 73.9441 310.853 73.6401 310.581C73.3361 310.309 73.1841 309.941 73.1841 309.477C73.1841 308.997 73.3361 308.621 73.6401 308.349C73.9441 308.061 74.3601 307.917 74.8881 307.917C75.4161 307.917 75.8321 308.061 76.1361 308.349C76.4401 308.621 76.5921 308.997 76.5921 309.477C76.5921 309.941 76.4401 310.309 76.1361 310.581C75.8321 310.853 75.4161 310.989 74.8881 310.989ZM83.9268 330.885V313.365H86.0868V315.885H86.5188L86.0868 316.389C86.0868 315.381 86.4148 314.589 87.0708 314.013C87.7428 313.421 88.6228 313.125 89.7108 313.125C91.0388 313.125 92.0948 313.565 92.8788 314.445C93.6788 315.309 94.0788 316.501 94.0788 318.021V321.885C94.0788 322.893 93.8948 323.765 93.5268 324.501C93.1748 325.237 92.6708 325.805 92.0148 326.205C91.3748 326.605 90.6068 326.805 89.7108 326.805C88.6388 326.805 87.7668 326.509 87.0948 325.917C86.4228 325.325 86.0868 324.533 86.0868 323.541L86.5188 324.045H86.0388L86.0868 327.045V330.885H83.9268ZM88.9908 324.933C89.9028 324.933 90.6148 324.661 91.1268 324.117C91.6548 323.573 91.9188 322.789 91.9188 321.765V318.165C91.9188 317.141 91.6548 316.357 91.1268 315.813C90.6148 315.269 89.9028 314.997 88.9908 314.997C88.1108 314.997 87.4068 315.277 86.8788 315.837C86.3508 316.397 86.0868 317.173 86.0868 318.165V321.765C86.0868 322.757 86.3508 323.533 86.8788 324.093C87.4068 324.653 88.1108 324.933 88.9908 324.933ZM103.285 326.805C101.765 326.805 100.549 326.357 99.6374 325.461C98.7254 324.549 98.2694 323.317 98.2694 321.765V313.365H100.429V321.765C100.429 322.757 100.685 323.533 101.197 324.093C101.709 324.637 102.405 324.909 103.285 324.909C104.181 324.909 104.885 324.637 105.397 324.093C105.925 323.533 106.189 322.757 106.189 321.765V313.365H108.349V321.765C108.349 323.317 107.885 324.549 106.957 325.461C106.029 326.357 104.805 326.805 103.285 326.805ZM119.5 326.565C118.732 326.565 118.06 326.413 117.484 326.109C116.908 325.805 116.46 325.373 116.14 324.813C115.82 324.253 115.66 323.597 115.66 322.845V311.013H111.22V309.045H117.82V322.845C117.82 323.389 117.972 323.821 118.276 324.141C118.58 324.445 118.988 324.597 119.5 324.597H123.7V326.565H119.5ZM130.939 326.805C129.547 326.805 128.451 326.453 127.651 325.749C126.851 325.029 126.451 324.061 126.451 322.845C126.451 321.613 126.851 320.645 127.651 319.941C128.451 319.237 129.531 318.885 130.891 318.885H134.971V317.565C134.971 316.749 134.723 316.125 134.227 315.693C133.747 315.245 133.059 315.021 132.163 315.021C131.379 315.021 130.723 315.189 130.195 315.525C129.667 315.845 129.363 316.285 129.283 316.845H127.123C127.267 315.709 127.803 314.805 128.731 314.133C129.659 313.461 130.819 313.125 132.211 313.125C133.731 313.125 134.931 313.517 135.811 314.301C136.691 315.085 137.131 316.149 137.131 317.493V326.565H135.019V324.045H134.659L135.019 323.685C135.019 324.645 134.643 325.405 133.891 325.965C133.155 326.525 132.171 326.805 130.939 326.805ZM131.467 325.101C132.491 325.101 133.331 324.845 133.987 324.333C134.643 323.821 134.971 323.165 134.971 322.365V320.493H130.939C130.219 320.493 129.651 320.693 129.235 321.093C128.819 321.493 128.611 322.037 128.611 322.725C128.611 323.461 128.859 324.045 129.355 324.477C129.867 324.893 130.571 325.101 131.467 325.101ZM147.921 326.565C146.785 326.565 145.897 326.261 145.257 325.653C144.633 325.045 144.321 324.189 144.321 323.085V315.333H140.601V313.365H144.321V309.645H146.481V313.365H151.761V315.333H146.481V323.085C146.481 324.093 146.961 324.597 147.921 324.597H151.521V326.565H147.921ZM155.712 326.565V324.597H160.392V315.333H156.312V313.365H162.552V324.597H166.992V326.565H155.712ZM161.232 310.989C160.704 310.989 160.288 310.853 159.984 310.581C159.68 310.309 159.528 309.941 159.528 309.477C159.528 308.997 159.68 308.621 159.984 308.349C160.288 308.061 160.704 307.917 161.232 307.917C161.76 307.917 162.176 308.061 162.48 308.349C162.784 308.621 162.936 308.997 162.936 309.477C162.936 309.941 162.784 310.309 162.48 310.581C162.176 310.853 161.76 310.989 161.232 310.989ZM175.263 326.757C174.207 326.757 173.295 326.557 172.527 326.157C171.759 325.757 171.159 325.181 170.727 324.429C170.311 323.661 170.103 322.757 170.103 321.717V318.213C170.103 317.157 170.311 316.253 170.727 315.501C171.159 314.749 171.759 314.173 172.527 313.773C173.295 313.373 174.207 313.173 175.263 313.173C176.319 313.173 177.231 313.373 177.999 313.773C178.767 314.173 179.359 314.749 179.775 315.501C180.207 316.253 180.423 317.149 180.423 318.189V321.717C180.423 322.757 180.207 323.661 179.775 324.429C179.359 325.181 178.767 325.757 177.999 326.157C177.231 326.557 176.319 326.757 175.263 326.757ZM175.263 324.837C176.207 324.837 176.943 324.573 177.471 324.045C177.999 323.517 178.263 322.741 178.263 321.717V318.213C178.263 317.189 177.999 316.413 177.471 315.885C176.943 315.357 176.207 315.093 175.263 315.093C174.335 315.093 173.599 315.357 173.055 315.885C172.527 316.413 172.263 317.189 172.263 318.213V321.717C172.263 322.741 172.527 323.517 173.055 324.045C173.599 324.573 174.335 324.837 175.263 324.837ZM184.661 326.565V313.365H186.821V315.885H187.277L186.821 316.389C186.821 315.349 187.133 314.549 187.757 313.989C188.381 313.413 189.245 313.125 190.349 313.125C191.677 313.125 192.733 313.533 193.517 314.349C194.301 315.165 194.693 316.277 194.693 317.685V326.565H192.533V317.925C192.533 316.981 192.277 316.261 191.765 315.765C191.269 315.253 190.589 314.997 189.725 314.997C188.829 314.997 188.117 315.269 187.589 315.813C187.077 316.357 186.821 317.141 186.821 318.165V326.565H184.661Z" fill="white"/>
<rect x="0.5" y="241.065" width="376" height="119" rx="24.5" stroke="#CDCDCD"/>
<g filter="url(#filter4_d_23_106)">
<rect x="477" y="520.565" width="250" height="50" rx="25" fill="#F2F2F2"/>
</g>
<path d="M559.628 538.565L562.668 526.885H564.604L567.628 538.565H566.172L565.404 535.461H561.868L561.1 538.565H559.628ZM562.156 534.245H565.1L564.204 530.645C564.033 529.962 563.9 529.392 563.804 528.933C563.708 528.474 563.649 528.176 563.628 528.037C563.607 528.176 563.548 528.474 563.452 528.933C563.356 529.392 563.223 529.957 563.052 530.629L562.156 534.245ZM573.222 538.725C572.529 538.725 571.921 538.586 571.398 538.309C570.886 538.032 570.486 537.642 570.198 537.141C569.921 536.629 569.782 536.037 569.782 535.365V532.965C569.782 532.282 569.921 531.69 570.198 531.189C570.486 530.688 570.886 530.298 571.398 530.021C571.921 529.744 572.529 529.605 573.222 529.605C573.915 529.605 574.518 529.744 575.03 530.021C575.553 530.298 575.953 530.688 576.23 531.189C576.518 531.69 576.662 532.282 576.662 532.965V534.517H571.19V535.365C571.19 536.058 571.366 536.592 571.718 536.965C572.07 537.328 572.571 537.509 573.222 537.509C573.777 537.509 574.225 537.413 574.566 537.221C574.907 537.018 575.115 536.72 575.19 536.325H576.63C576.534 537.061 576.171 537.648 575.542 538.085C574.923 538.512 574.15 538.725 573.222 538.725ZM575.254 533.557V532.965C575.254 532.272 575.078 531.738 574.726 531.365C574.385 530.992 573.883 530.805 573.222 530.805C572.571 530.805 572.07 530.992 571.718 531.365C571.366 531.738 571.19 532.272 571.19 532.965V533.429H575.366L575.254 533.557ZM582.544 538.693C581.946 538.693 581.424 538.602 580.976 538.421C580.538 538.229 580.186 537.962 579.92 537.621C579.664 537.28 579.509 536.874 579.456 536.405H580.896C580.96 536.714 581.13 536.96 581.408 537.141C581.696 537.322 582.074 537.413 582.544 537.413H583.216C583.781 537.413 584.202 537.301 584.48 537.077C584.757 536.842 584.896 536.533 584.896 536.149C584.896 535.776 584.768 535.482 584.512 535.269C584.266 535.045 583.898 534.896 583.408 534.821L582.224 534.629C581.36 534.48 580.714 534.213 580.288 533.829C579.872 533.434 579.664 532.864 579.664 532.117C579.664 531.328 579.914 530.72 580.416 530.293C580.917 529.856 581.669 529.637 582.672 529.637H583.28C584.122 529.637 584.8 529.834 585.312 530.229C585.824 530.624 586.133 531.157 586.24 531.829H584.8C584.736 531.552 584.576 531.333 584.32 531.173C584.064 531.002 583.717 530.917 583.28 530.917H582.672C582.128 530.917 581.728 531.018 581.472 531.221C581.226 531.424 581.104 531.728 581.104 532.133C581.104 532.496 581.21 532.762 581.424 532.933C581.637 533.104 581.973 533.226 582.432 533.301L583.616 533.493C584.565 533.642 585.253 533.92 585.68 534.325C586.117 534.73 586.336 535.317 586.336 536.085C586.336 536.896 586.074 537.536 585.552 538.005C585.04 538.464 584.261 538.693 583.216 538.693H582.544ZM593.369 538.565C592.612 538.565 592.02 538.362 591.593 537.957C591.177 537.552 590.969 536.981 590.969 536.245V531.077H588.489V529.765H590.969V527.285H592.409V529.765H595.929V531.077H592.409V536.245C592.409 536.917 592.729 537.253 593.369 537.253H595.769V538.565H593.369ZM598.675 538.565V526.885H600.115V529.765V531.445H600.419L600.115 531.781C600.115 531.088 600.323 530.554 600.739 530.181C601.155 529.797 601.731 529.605 602.467 529.605C603.352 529.605 604.056 529.877 604.579 530.421C605.102 530.965 605.363 531.706 605.363 532.645V538.565H603.923V532.805C603.923 532.176 603.752 531.69 603.411 531.349C603.08 530.997 602.627 530.821 602.051 530.821C601.454 530.821 600.979 531.008 600.627 531.381C600.286 531.754 600.115 532.282 600.115 532.965V538.565H598.675ZM611.597 538.725C610.904 538.725 610.296 538.586 609.773 538.309C609.261 538.032 608.861 537.642 608.573 537.141C608.296 536.629 608.157 536.037 608.157 535.365V532.965C608.157 532.282 608.296 531.69 608.573 531.189C608.861 530.688 609.261 530.298 609.773 530.021C610.296 529.744 610.904 529.605 611.597 529.605C612.29 529.605 612.893 529.744 613.405 530.021C613.928 530.298 614.328 530.688 614.605 531.189C614.893 531.69 615.037 532.282 615.037 532.965V534.517H609.565V535.365C609.565 536.058 609.741 536.592 610.093 536.965C610.445 537.328 610.946 537.509 611.597 537.509C612.152 537.509 612.6 537.413 612.941 537.221C613.282 537.018 613.49 536.72 613.565 536.325H615.005C614.909 537.061 614.546 537.648 613.917 538.085C613.298 538.512 612.525 538.725 611.597 538.725ZM613.629 533.557V532.965C613.629 532.272 613.453 531.738 613.101 531.365C612.76 530.992 612.258 530.805 611.597 530.805C610.946 530.805 610.445 530.992 610.093 531.365C609.741 531.738 609.565 532.272 609.565 532.965V533.429H613.741L613.629 533.557ZM622.151 538.565C621.393 538.565 620.801 538.362 620.375 537.957C619.959 537.552 619.751 536.981 619.751 536.245V531.077H617.271V529.765H619.751V527.285H621.191V529.765H624.711V531.077H621.191V536.245C621.191 536.917 621.511 537.253 622.151 537.253H624.551V538.565H622.151ZM627.344 538.565V537.253H630.464V531.077H627.744V529.765H631.904V537.253H634.864V538.565H627.344ZM631.024 528.181C630.672 528.181 630.395 528.09 630.192 527.909C629.99 527.728 629.888 527.482 629.888 527.173C629.888 526.853 629.99 526.602 630.192 526.421C630.395 526.229 630.672 526.133 631.024 526.133C631.376 526.133 631.654 526.229 631.856 526.421C632.059 526.602 632.16 526.853 632.16 527.173C632.16 527.482 632.059 527.728 631.856 527.909C631.654 528.09 631.376 528.181 631.024 528.181ZM640.442 538.725C639.738 538.725 639.119 538.592 638.586 538.325C638.063 538.058 637.658 537.674 637.37 537.173C637.082 536.661 636.938 536.058 636.938 535.365V532.965C636.938 532.261 637.082 531.658 637.37 531.157C637.658 530.656 638.063 530.272 638.586 530.005C639.119 529.738 639.738 529.605 640.442 529.605C641.455 529.605 642.271 529.877 642.89 530.421C643.509 530.965 643.834 531.706 643.866 532.645H642.426C642.394 532.08 642.202 531.648 641.85 531.349C641.509 531.04 641.039 530.885 640.442 530.885C639.813 530.885 639.311 531.066 638.938 531.429C638.565 531.781 638.378 532.288 638.378 532.949V535.365C638.378 536.026 638.565 536.538 638.938 536.901C639.311 537.264 639.813 537.445 640.442 537.445C641.039 537.445 641.509 537.29 641.85 536.981C642.202 536.672 642.394 536.24 642.426 535.685H643.866C643.834 536.624 643.509 537.365 642.89 537.909C642.271 538.453 641.455 538.725 640.442 538.725ZM511.915 559.565V550.765H513.179V551.821H513.467L513.243 552.205C513.243 551.714 513.371 551.325 513.627 551.037C513.894 550.749 514.251 550.605 514.699 550.605C515.19 550.605 515.569 550.786 515.835 551.149C516.102 551.512 516.235 552.024 516.235 552.685L515.803 551.821H516.475L516.171 552.205C516.171 551.714 516.305 551.325 516.571 551.037C516.849 550.749 517.211 550.605 517.659 550.605C518.214 550.605 518.641 550.813 518.939 551.229C519.249 551.645 519.403 552.194 519.403 552.877V559.565H518.075V552.861C518.075 552.498 517.995 552.216 517.835 552.013C517.686 551.81 517.462 551.709 517.163 551.709C516.875 551.709 516.646 551.81 516.475 552.013C516.315 552.205 516.235 552.482 516.235 552.845V559.565H515.083V552.861C515.083 552.488 514.998 552.205 514.827 552.013C514.667 551.81 514.438 551.709 514.139 551.709C513.841 551.709 513.617 551.81 513.467 552.013C513.318 552.205 513.243 552.482 513.243 552.845V559.565H511.915ZM524.485 559.725C523.557 559.725 522.826 559.49 522.293 559.021C521.76 558.541 521.493 557.896 521.493 557.085C521.493 556.264 521.76 555.618 522.293 555.149C522.826 554.68 523.546 554.445 524.453 554.445H527.173V553.565C527.173 553.021 527.008 552.605 526.677 552.317C526.357 552.018 525.898 551.869 525.301 551.869C524.778 551.869 524.341 551.981 523.989 552.205C523.637 552.418 523.434 552.712 523.381 553.085H521.941C522.037 552.328 522.394 551.725 523.013 551.277C523.632 550.829 524.405 550.605 525.333 550.605C526.346 550.605 527.146 550.866 527.733 551.389C528.32 551.912 528.613 552.621 528.613 553.517V559.565H527.205V557.885H526.965L527.205 557.645C527.205 558.285 526.954 558.792 526.453 559.165C525.962 559.538 525.306 559.725 524.485 559.725ZM524.837 558.589C525.52 558.589 526.08 558.418 526.517 558.077C526.954 557.736 527.173 557.298 527.173 556.765V555.517H524.485C524.005 555.517 523.626 555.65 523.349 555.917C523.072 556.184 522.933 556.546 522.933 557.005C522.933 557.496 523.098 557.885 523.429 558.173C523.77 558.45 524.24 558.589 524.837 558.589ZM531.519 562.445V550.765H532.959V552.445H533.247L532.959 552.781C532.959 552.109 533.178 551.581 533.615 551.197C534.063 550.802 534.65 550.605 535.375 550.605C536.26 550.605 536.964 550.898 537.487 551.485C538.02 552.061 538.287 552.856 538.287 553.869V556.445C538.287 557.117 538.164 557.698 537.919 558.189C537.684 558.68 537.348 559.058 536.911 559.325C536.484 559.592 535.972 559.725 535.375 559.725C534.66 559.725 534.079 559.528 533.631 559.133C533.183 558.738 532.959 558.21 532.959 557.549L533.247 557.885H532.927L532.959 559.885V562.445H531.519ZM534.895 558.477C535.503 558.477 535.978 558.296 536.319 557.933C536.671 557.57 536.847 557.048 536.847 556.365V553.965C536.847 553.282 536.671 552.76 536.319 552.397C535.978 552.034 535.503 551.853 534.895 551.853C534.308 551.853 533.839 552.04 533.487 552.413C533.135 552.786 532.959 553.304 532.959 553.965V556.365C532.959 557.026 533.135 557.544 533.487 557.917C533.839 558.29 534.308 558.477 534.895 558.477ZM541.113 562.445V550.765H542.553V552.445H542.841L542.553 552.781C542.553 552.109 542.771 551.581 543.209 551.197C543.657 550.802 544.243 550.605 544.969 550.605C545.854 550.605 546.558 550.898 547.081 551.485C547.614 552.061 547.881 552.856 547.881 553.869V556.445C547.881 557.117 547.758 557.698 547.513 558.189C547.278 558.68 546.942 559.058 546.505 559.325C546.078 559.592 545.566 559.725 544.969 559.725C544.254 559.725 543.673 559.528 543.225 559.133C542.777 558.738 542.553 558.21 542.553 557.549L542.841 557.885H542.521L542.553 559.885V562.445H541.113ZM544.489 558.477C545.097 558.477 545.571 558.296 545.913 557.933C546.265 557.57 546.441 557.048 546.441 556.365V553.965C546.441 553.282 546.265 552.76 545.913 552.397C545.571 552.034 545.097 551.853 544.489 551.853C543.902 551.853 543.433 552.04 543.081 552.413C542.729 552.786 542.553 553.304 542.553 553.965V556.365C542.553 557.026 542.729 557.544 543.081 557.917C543.433 558.29 543.902 558.477 544.489 558.477ZM550.594 559.565V558.253H553.714V552.077H550.994V550.765H555.154V558.253H558.114V559.565H550.594ZM554.274 549.181C553.922 549.181 553.645 549.09 553.442 548.909C553.24 548.728 553.138 548.482 553.138 548.173C553.138 547.853 553.24 547.602 553.442 547.421C553.645 547.229 553.922 547.133 554.274 547.133C554.626 547.133 554.904 547.229 555.106 547.421C555.309 547.602 555.41 547.853 555.41 548.173C555.41 548.482 555.309 548.728 555.106 548.909C554.904 549.09 554.626 549.181 554.274 549.181ZM560.3 559.565V550.765H561.74V552.445H562.044L561.74 552.781C561.74 552.088 561.948 551.554 562.364 551.181C562.78 550.797 563.356 550.605 564.092 550.605C564.977 550.605 565.681 550.877 566.204 551.421C566.727 551.965 566.988 552.706 566.988 553.645V559.565H565.548V553.805C565.548 553.176 565.377 552.696 565.036 552.365C564.705 552.024 564.252 551.853 563.676 551.853C563.079 551.853 562.604 552.034 562.252 552.397C561.911 552.76 561.74 553.282 561.74 553.965V559.565H560.3ZM570.998 562.445V561.133H573.798C574.246 561.133 574.571 561.032 574.774 560.829C574.987 560.626 575.094 560.312 575.094 559.885V558.765L575.126 557.165H574.838L575.11 556.925C575.11 557.565 574.897 558.072 574.47 558.445C574.043 558.818 573.473 559.005 572.758 559.005C571.851 559.005 571.137 558.712 570.614 558.125C570.091 557.528 569.83 556.728 569.83 555.725V553.869C569.83 552.866 570.091 552.072 570.614 551.485C571.137 550.898 571.851 550.605 572.758 550.605C573.473 550.605 574.043 550.792 574.47 551.165C574.897 551.538 575.11 552.045 575.11 552.685L574.838 552.445H575.11V550.765H576.534V559.885C576.534 560.674 576.289 561.298 575.798 561.757C575.318 562.216 574.646 562.445 573.782 562.445H570.998ZM573.19 557.757C573.787 557.757 574.257 557.57 574.598 557.197C574.939 556.824 575.11 556.306 575.11 555.645V553.965C575.11 553.304 574.939 552.786 574.598 552.413C574.257 552.04 573.787 551.853 573.19 551.853C572.582 551.853 572.107 552.034 571.766 552.397C571.435 552.76 571.27 553.282 571.27 553.965V555.645C571.27 556.328 571.435 556.85 571.766 557.213C572.107 557.576 572.582 557.757 573.19 557.757ZM582.544 559.693C581.946 559.693 581.424 559.602 580.976 559.421C580.538 559.229 580.186 558.962 579.92 558.621C579.664 558.28 579.509 557.874 579.456 557.405H580.896C580.96 557.714 581.13 557.96 581.408 558.141C581.696 558.322 582.074 558.413 582.544 558.413H583.216C583.781 558.413 584.202 558.301 584.48 558.077C584.757 557.842 584.896 557.533 584.896 557.149C584.896 556.776 584.768 556.482 584.512 556.269C584.266 556.045 583.898 555.896 583.408 555.821L582.224 555.629C581.36 555.48 580.714 555.213 580.288 554.829C579.872 554.434 579.664 553.864 579.664 553.117C579.664 552.328 579.914 551.72 580.416 551.293C580.917 550.856 581.669 550.637 582.672 550.637H583.28C584.122 550.637 584.8 550.834 585.312 551.229C585.824 551.624 586.133 552.157 586.24 552.829H584.8C584.736 552.552 584.576 552.333 584.32 552.173C584.064 552.002 583.717 551.917 583.28 551.917H582.672C582.128 551.917 581.728 552.018 581.472 552.221C581.226 552.424 581.104 552.728 581.104 553.133C581.104 553.496 581.21 553.762 581.424 553.933C581.637 554.104 581.973 554.226 582.432 554.301L583.616 554.493C584.565 554.642 585.253 554.92 585.68 555.325C586.117 555.73 586.336 556.317 586.336 557.085C586.336 557.896 586.074 558.536 585.552 559.005C585.04 559.464 584.261 559.693 583.216 559.693H582.544ZM598.403 561.325L604.083 546.285H605.603L599.923 561.325H598.403ZM620.919 559.693C620.321 559.693 619.799 559.602 619.351 559.421C618.913 559.229 618.561 558.962 618.295 558.621C618.039 558.28 617.884 557.874 617.831 557.405H619.271C619.335 557.714 619.505 557.96 619.783 558.141C620.071 558.322 620.449 558.413 620.919 558.413H621.591C622.156 558.413 622.577 558.301 622.855 558.077C623.132 557.842 623.271 557.533 623.271 557.149C623.271 556.776 623.143 556.482 622.887 556.269C622.641 556.045 622.273 555.896 621.783 555.821L620.599 555.629C619.735 555.48 619.089 555.213 618.663 554.829C618.247 554.434 618.039 553.864 618.039 553.117C618.039 552.328 618.289 551.72 618.791 551.293C619.292 550.856 620.044 550.637 621.047 550.637H621.655C622.497 550.637 623.175 550.834 623.687 551.229C624.199 551.624 624.508 552.157 624.615 552.829H623.175C623.111 552.552 622.951 552.333 622.695 552.173C622.439 552.002 622.092 551.917 621.655 551.917H621.047C620.503 551.917 620.103 552.018 619.847 552.221C619.601 552.424 619.479 552.728 619.479 553.133C619.479 553.496 619.585 553.762 619.799 553.933C620.012 554.104 620.348 554.226 620.807 554.301L621.991 554.493C622.94 554.642 623.628 554.92 624.055 555.325C624.492 555.73 624.711 556.317 624.711 557.085C624.711 557.896 624.449 558.536 623.927 559.005C623.415 559.464 622.636 559.693 621.591 559.693H620.919ZM630.784 559.725C630.091 559.725 629.483 559.586 628.96 559.309C628.448 559.032 628.048 558.642 627.76 558.141C627.483 557.629 627.344 557.037 627.344 556.365V553.965C627.344 553.282 627.483 552.69 627.76 552.189C628.048 551.688 628.448 551.298 628.96 551.021C629.483 550.744 630.091 550.605 630.784 550.605C631.478 550.605 632.08 550.744 632.592 551.021C633.115 551.298 633.515 551.688 633.792 552.189C634.08 552.69 634.224 553.282 634.224 553.965V555.517H628.752V556.365C628.752 557.058 628.928 557.592 629.28 557.965C629.632 558.328 630.134 558.509 630.784 558.509C631.339 558.509 631.787 558.413 632.128 558.221C632.47 558.018 632.678 557.72 632.752 557.325H634.192C634.096 558.061 633.734 558.648 633.104 559.085C632.486 559.512 631.712 559.725 630.784 559.725ZM632.816 554.557V553.965C632.816 553.272 632.64 552.738 632.288 552.365C631.947 551.992 631.446 551.805 630.784 551.805C630.134 551.805 629.632 551.992 629.28 552.365C628.928 552.738 628.752 553.272 628.752 553.965V554.429H632.928L632.816 554.557ZM641.338 559.565C640.581 559.565 639.989 559.362 639.562 558.957C639.146 558.552 638.938 557.981 638.938 557.245V552.077H636.458V550.765H638.938V548.285H640.378V550.765H643.898V552.077H640.378V557.245C640.378 557.917 640.698 558.253 641.338 558.253H643.738V559.565H641.338ZM650.932 559.565C650.175 559.565 649.583 559.362 649.156 558.957C648.74 558.552 648.532 557.981 648.532 557.245V552.077H646.052V550.765H648.532V548.285H649.972V550.765H653.492V552.077H649.972V557.245C649.972 557.917 650.292 558.253 650.932 558.253H653.332V559.565H650.932ZM656.126 559.565V558.253H659.246V552.077H656.526V550.765H660.686V558.253H663.646V559.565H656.126ZM659.806 549.181C659.454 549.181 659.176 549.09 658.974 548.909C658.771 548.728 658.67 548.482 658.67 548.173C658.67 547.853 658.771 547.602 658.974 547.421C659.176 547.229 659.454 547.133 659.806 547.133C660.158 547.133 660.435 547.229 660.638 547.421C660.84 547.602 660.942 547.853 660.942 548.173C660.942 548.482 660.84 548.728 660.638 548.909C660.435 549.09 660.158 549.181 659.806 549.181ZM665.831 559.565V550.765H667.271V552.445H667.575L667.271 552.781C667.271 552.088 667.479 551.554 667.895 551.181C668.311 550.797 668.887 550.605 669.623 550.605C670.509 550.605 671.213 550.877 671.735 551.421C672.258 551.965 672.519 552.706 672.519 553.645V559.565H671.079V553.805C671.079 553.176 670.909 552.696 670.567 552.365C670.237 552.024 669.783 551.853 669.207 551.853C668.61 551.853 668.135 552.034 667.783 552.397C667.442 552.76 667.271 553.282 667.271 553.965V559.565H665.831ZM676.529 562.445V561.133H679.329C679.777 561.133 680.102 561.032 680.305 560.829C680.518 560.626 680.625 560.312 680.625 559.885V558.765L680.657 557.165H680.369L680.641 556.925C680.641 557.565 680.428 558.072 680.001 558.445C679.574 558.818 679.004 559.005 678.289 559.005C677.382 559.005 676.668 558.712 676.145 558.125C675.622 557.528 675.361 556.728 675.361 555.725V553.869C675.361 552.866 675.622 552.072 676.145 551.485C676.668 550.898 677.382 550.605 678.289 550.605C679.004 550.605 679.574 550.792 680.001 551.165C680.428 551.538 680.641 552.045 680.641 552.685L680.369 552.445H680.641V550.765H682.065V559.885C682.065 560.674 681.82 561.298 681.329 561.757C680.849 562.216 680.177 562.445 679.313 562.445H676.529ZM678.721 557.757C679.318 557.757 679.788 557.57 680.129 557.197C680.47 556.824 680.641 556.306 680.641 555.645V553.965C680.641 553.304 680.47 552.786 680.129 552.413C679.788 552.04 679.318 551.853 678.721 551.853C678.113 551.853 677.638 552.034 677.297 552.397C676.966 552.76 676.801 553.282 676.801 553.965V555.645C676.801 556.328 676.966 556.85 677.297 557.213C677.638 557.576 678.113 557.757 678.721 557.757ZM688.075 559.693C687.478 559.693 686.955 559.602 686.507 559.421C686.07 559.229 685.718 558.962 685.451 558.621C685.195 558.28 685.04 557.874 684.987 557.405H686.427C686.491 557.714 686.662 557.96 686.939 558.141C687.227 558.322 687.606 558.413 688.075 558.413H688.747C689.312 558.413 689.734 558.301 690.011 558.077C690.288 557.842 690.427 557.533 690.427 557.149C690.427 556.776 690.299 556.482 690.043 556.269C689.798 556.045 689.43 555.896 688.939 555.821L687.755 555.629C686.891 555.48 686.246 555.213 685.819 554.829C685.403 554.434 685.195 553.864 685.195 553.117C685.195 552.328 685.446 551.72 685.947 551.293C686.448 550.856 687.2 550.637 688.203 550.637H688.811C689.654 550.637 690.331 550.834 690.843 551.229C691.355 551.624 691.664 552.157 691.771 552.829H690.331C690.267 552.552 690.107 552.333 689.851 552.173C689.595 552.002 689.248 551.917 688.811 551.917H688.203C687.659 551.917 687.259 552.018 687.003 552.221C686.758 552.424 686.635 552.728 686.635 553.133C686.635 553.496 686.742 553.762 686.955 553.933C687.168 554.104 687.504 554.226 687.963 554.301L689.147 554.493C690.096 554.642 690.784 554.92 691.211 555.325C691.648 555.73 691.867 556.317 691.867 557.085C691.867 557.896 691.606 558.536 691.083 559.005C690.571 559.464 689.792 559.693 688.747 559.693H688.075Z" fill="black"/>
<g filter="url(#filter5_d_23_106)">
<rect x="477" y="600.565" width="250" height="50" rx="25" fill="#F2F2F2"/>
</g>
<path d="M582.88 621.725C582.112 621.725 581.45 621.597 580.896 621.341C580.352 621.085 579.93 620.717 579.632 620.237C579.333 619.757 579.178 619.186 579.168 618.525H580.608C580.608 619.112 580.805 619.576 581.2 619.917C581.605 620.258 582.165 620.429 582.88 620.429C583.552 620.429 584.074 620.264 584.448 619.933C584.832 619.602 585.024 619.144 585.024 618.557C585.024 618.088 584.896 617.677 584.64 617.325C584.394 616.973 584.037 616.728 583.568 616.589L581.984 616.093C581.184 615.848 580.565 615.437 580.128 614.861C579.701 614.285 579.488 613.608 579.488 612.829C579.488 612.2 579.626 611.656 579.904 611.197C580.192 610.728 580.592 610.365 581.104 610.109C581.616 609.842 582.218 609.709 582.912 609.709C583.936 609.709 584.757 609.997 585.376 610.573C585.994 611.138 586.309 611.896 586.32 612.845H584.88C584.88 612.269 584.704 611.821 584.352 611.501C584.01 611.17 583.525 611.005 582.896 611.005C582.277 611.005 581.792 611.154 581.44 611.453C581.098 611.752 580.928 612.168 580.928 612.701C580.928 613.181 581.056 613.597 581.312 613.949C581.568 614.301 581.936 614.552 582.416 614.701L584.016 615.213C584.794 615.458 585.397 615.874 585.824 616.461C586.25 617.048 586.464 617.736 586.464 618.525C586.464 619.165 586.314 619.725 586.016 620.205C585.717 620.685 585.296 621.058 584.752 621.325C584.218 621.592 583.594 621.725 582.88 621.725ZM592.473 621.725C591.769 621.725 591.151 621.592 590.617 621.325C590.095 621.058 589.689 620.674 589.401 620.173C589.113 619.661 588.969 619.058 588.969 618.365V615.965C588.969 615.261 589.113 614.658 589.401 614.157C589.689 613.656 590.095 613.272 590.617 613.005C591.151 612.738 591.769 612.605 592.473 612.605C593.487 612.605 594.303 612.877 594.921 613.421C595.54 613.965 595.865 614.706 595.897 615.645H594.457C594.425 615.08 594.233 614.648 593.881 614.349C593.54 614.04 593.071 613.885 592.473 613.885C591.844 613.885 591.343 614.066 590.969 614.429C590.596 614.781 590.409 615.288 590.409 615.949V618.365C590.409 619.026 590.596 619.538 590.969 619.901C591.343 620.264 591.844 620.445 592.473 620.445C593.071 620.445 593.54 620.29 593.881 619.981C594.233 619.672 594.425 619.24 594.457 618.685H595.897C595.865 619.624 595.54 620.365 594.921 620.909C594.303 621.453 593.487 621.725 592.473 621.725ZM601.235 621.725C600.307 621.725 599.576 621.49 599.043 621.021C598.51 620.541 598.243 619.896 598.243 619.085C598.243 618.264 598.51 617.618 599.043 617.149C599.576 616.68 600.296 616.445 601.203 616.445H603.923V615.565C603.923 615.021 603.758 614.605 603.427 614.317C603.107 614.018 602.648 613.869 602.051 613.869C601.528 613.869 601.091 613.981 600.739 614.205C600.387 614.418 600.184 614.712 600.131 615.085H598.691C598.787 614.328 599.144 613.725 599.763 613.277C600.382 612.829 601.155 612.605 602.083 612.605C603.096 612.605 603.896 612.866 604.483 613.389C605.07 613.912 605.363 614.621 605.363 615.517V621.565H603.955V619.885H603.715L603.955 619.645C603.955 620.285 603.704 620.792 603.203 621.165C602.712 621.538 602.056 621.725 601.235 621.725ZM601.587 620.589C602.27 620.589 602.83 620.418 603.267 620.077C603.704 619.736 603.923 619.298 603.923 618.765V617.517H601.235C600.755 617.517 600.376 617.65 600.099 617.917C599.822 618.184 599.683 618.546 599.683 619.005C599.683 619.496 599.848 619.885 600.179 620.173C600.52 620.45 600.99 620.589 601.587 620.589ZM612.797 621.565C612.285 621.565 611.837 621.464 611.453 621.261C611.069 621.058 610.77 620.77 610.557 620.397C610.344 620.024 610.237 619.586 610.237 619.085V611.197H607.277V609.885H611.677V619.085C611.677 619.448 611.778 619.736 611.981 619.949C612.184 620.152 612.456 620.253 612.797 620.253H615.597V621.565H612.797ZM621.191 621.725C620.497 621.725 619.889 621.586 619.367 621.309C618.855 621.032 618.455 620.642 618.167 620.141C617.889 619.629 617.751 619.037 617.751 618.365V615.965C617.751 615.282 617.889 614.69 618.167 614.189C618.455 613.688 618.855 613.298 619.367 613.021C619.889 612.744 620.497 612.605 621.191 612.605C621.884 612.605 622.487 612.744 622.999 613.021C623.521 613.298 623.921 613.688 624.199 614.189C624.487 614.69 624.631 615.282 624.631 615.965V617.517H619.159V618.365C619.159 619.058 619.335 619.592 619.687 619.965C620.039 620.328 620.54 620.509 621.191 620.509C621.745 620.509 622.193 620.413 622.535 620.221C622.876 620.018 623.084 619.72 623.159 619.325H624.599C624.503 620.061 624.14 620.648 623.511 621.085C622.892 621.512 622.119 621.725 621.191 621.725ZM623.223 616.557V615.965C623.223 615.272 623.047 614.738 622.695 614.365C622.353 613.992 621.852 613.805 621.191 613.805C620.54 613.805 620.039 613.992 619.687 614.365C619.335 614.738 619.159 615.272 619.159 615.965V616.429H623.335L623.223 616.557ZM544.505 642.725C543.737 642.725 543.075 642.597 542.521 642.341C541.977 642.085 541.555 641.717 541.257 641.237C540.958 640.757 540.803 640.186 540.793 639.525H542.233C542.233 640.112 542.43 640.576 542.825 640.917C543.23 641.258 543.79 641.429 544.505 641.429C545.177 641.429 545.699 641.264 546.073 640.933C546.457 640.602 546.649 640.144 546.649 639.557C546.649 639.088 546.521 638.677 546.265 638.325C546.019 637.973 545.662 637.728 545.193 637.589L543.609 637.093C542.809 636.848 542.19 636.437 541.753 635.861C541.326 635.285 541.113 634.608 541.113 633.829C541.113 633.2 541.251 632.656 541.529 632.197C541.817 631.728 542.217 631.365 542.729 631.109C543.241 630.842 543.843 630.709 544.537 630.709C545.561 630.709 546.382 630.997 547.001 631.573C547.619 632.138 547.934 632.896 547.945 633.845H546.505C546.505 633.269 546.329 632.821 545.977 632.501C545.635 632.17 545.15 632.005 544.521 632.005C543.902 632.005 543.417 632.154 543.065 632.453C542.723 632.752 542.553 633.168 542.553 633.701C542.553 634.181 542.681 634.597 542.937 634.949C543.193 635.301 543.561 635.552 544.041 635.701L545.641 636.213C546.419 636.458 547.022 636.874 547.449 637.461C547.875 638.048 548.089 638.736 548.089 639.525C548.089 640.165 547.939 640.725 547.641 641.205C547.342 641.685 546.921 642.058 546.377 642.325C545.843 642.592 545.219 642.725 544.505 642.725ZM550.706 645.445V633.765H552.146V635.445H552.434L552.146 635.781C552.146 635.109 552.365 634.581 552.802 634.197C553.25 633.802 553.837 633.605 554.562 633.605C555.448 633.605 556.152 633.898 556.674 634.485C557.208 635.061 557.474 635.856 557.474 636.869V639.445C557.474 640.117 557.352 640.698 557.106 641.189C556.872 641.68 556.536 642.058 556.098 642.325C555.672 642.592 555.16 642.725 554.562 642.725C553.848 642.725 553.266 642.528 552.818 642.133C552.37 641.738 552.146 641.21 552.146 640.549L552.434 640.885H552.114L552.146 642.885V645.445H550.706ZM554.082 641.477C554.69 641.477 555.165 641.296 555.506 640.933C555.858 640.57 556.034 640.048 556.034 639.365V636.965C556.034 636.282 555.858 635.76 555.506 635.397C555.165 635.034 554.69 634.853 554.082 634.853C553.496 634.853 553.026 635.04 552.674 635.413C552.322 635.786 552.146 636.304 552.146 636.965V639.365C552.146 640.026 552.322 640.544 552.674 640.917C553.026 641.29 553.496 641.477 554.082 641.477ZM563.628 642.725C562.935 642.725 562.327 642.586 561.804 642.309C561.292 642.032 560.892 641.642 560.604 641.141C560.327 640.629 560.188 640.037 560.188 639.365V636.965C560.188 636.282 560.327 635.69 560.604 635.189C560.892 634.688 561.292 634.298 561.804 634.021C562.327 633.744 562.935 633.605 563.628 633.605C564.321 633.605 564.924 633.744 565.436 634.021C565.959 634.298 566.359 634.688 566.636 635.189C566.924 635.69 567.068 636.282 567.068 636.965V638.517H561.596V639.365C561.596 640.058 561.772 640.592 562.124 640.965C562.476 641.328 562.977 641.509 563.628 641.509C564.183 641.509 564.631 641.413 564.972 641.221C565.313 641.018 565.521 640.72 565.596 640.325H567.036C566.94 641.061 566.577 641.648 565.948 642.085C565.329 642.512 564.556 642.725 563.628 642.725ZM565.66 637.557V636.965C565.66 636.272 565.484 635.738 565.132 635.365C564.791 634.992 564.289 634.805 563.628 634.805C562.977 634.805 562.476 634.992 562.124 635.365C561.772 635.738 561.596 636.272 561.596 636.965V637.429H565.772L565.66 637.557ZM573.286 642.725C572.582 642.725 571.963 642.592 571.43 642.325C570.907 642.058 570.502 641.674 570.214 641.173C569.926 640.661 569.782 640.058 569.782 639.365V636.965C569.782 636.261 569.926 635.658 570.214 635.157C570.502 634.656 570.907 634.272 571.43 634.005C571.963 633.738 572.582 633.605 573.286 633.605C574.299 633.605 575.115 633.877 575.734 634.421C576.353 634.965 576.678 635.706 576.71 636.645H575.27C575.238 636.08 575.046 635.648 574.694 635.349C574.353 635.04 573.883 634.885 573.286 634.885C572.657 634.885 572.155 635.066 571.782 635.429C571.409 635.781 571.222 636.288 571.222 636.949V639.365C571.222 640.026 571.409 640.538 571.782 640.901C572.155 641.264 572.657 641.445 573.286 641.445C573.883 641.445 574.353 641.29 574.694 640.981C575.046 640.672 575.238 640.24 575.27 639.685H576.71C576.678 640.624 576.353 641.365 575.734 641.909C575.115 642.453 574.299 642.725 573.286 642.725ZM579.376 642.565V641.253H582.496V635.077H579.776V633.765H583.936V641.253H586.896V642.565H579.376ZM583.056 632.181C582.704 632.181 582.426 632.09 582.224 631.909C582.021 631.728 581.92 631.482 581.92 631.173C581.92 630.853 582.021 630.602 582.224 630.421C582.426 630.229 582.704 630.133 583.056 630.133C583.408 630.133 583.685 630.229 583.888 630.421C584.09 630.602 584.192 630.853 584.192 631.173C584.192 631.482 584.09 631.728 583.888 631.909C583.685 632.09 583.408 632.181 583.056 632.181ZM591.129 642.565V635.957H588.569V634.645H591.129V633.125C591.129 632.432 591.348 631.888 591.785 631.493C592.223 631.088 592.825 630.885 593.593 630.885H596.169V632.197H593.593C593.263 632.197 593.007 632.277 592.825 632.437C592.655 632.586 592.569 632.816 592.569 633.125V634.645H596.169V635.957H592.569V642.565H591.129ZM598.563 642.565V641.253H601.683V635.077H598.963V633.765H603.123V641.253H606.083V642.565H598.563ZM602.243 632.181C601.891 632.181 601.614 632.09 601.411 631.909C601.208 631.728 601.107 631.482 601.107 631.173C601.107 630.853 601.208 630.602 601.411 630.421C601.614 630.229 601.891 630.133 602.243 630.133C602.595 630.133 602.872 630.229 603.075 630.421C603.278 630.602 603.379 630.853 603.379 631.173C603.379 631.482 603.278 631.728 603.075 631.909C602.872 632.09 602.595 632.181 602.243 632.181ZM611.661 642.725C610.957 642.725 610.338 642.592 609.805 642.325C609.282 642.058 608.877 641.674 608.589 641.173C608.301 640.661 608.157 640.058 608.157 639.365V636.965C608.157 636.261 608.301 635.658 608.589 635.157C608.877 634.656 609.282 634.272 609.805 634.005C610.338 633.738 610.957 633.605 611.661 633.605C612.674 633.605 613.49 633.877 614.109 634.421C614.728 634.965 615.053 635.706 615.085 636.645H613.645C613.613 636.08 613.421 635.648 613.069 635.349C612.728 635.04 612.258 634.885 611.661 634.885C611.032 634.885 610.53 635.066 610.157 635.429C609.784 635.781 609.597 636.288 609.597 636.949V639.365C609.597 640.026 609.784 640.538 610.157 640.901C610.53 641.264 611.032 641.445 611.661 641.445C612.258 641.445 612.728 641.29 613.069 640.981C613.421 640.672 613.613 640.24 613.645 639.685H615.085C615.053 640.624 614.728 641.365 614.109 641.909C613.49 642.453 612.674 642.725 611.661 642.725ZM620.423 642.725C619.495 642.725 618.764 642.49 618.231 642.021C617.697 641.541 617.431 640.896 617.431 640.085C617.431 639.264 617.697 638.618 618.231 638.149C618.764 637.68 619.484 637.445 620.391 637.445H623.111V636.565C623.111 636.021 622.945 635.605 622.615 635.317C622.295 635.018 621.836 634.869 621.239 634.869C620.716 634.869 620.279 634.981 619.927 635.205C619.575 635.418 619.372 635.712 619.319 636.085H617.879C617.975 635.328 618.332 634.725 618.951 634.277C619.569 633.829 620.343 633.605 621.271 633.605C622.284 633.605 623.084 633.866 623.671 634.389C624.257 634.912 624.551 635.621 624.551 636.517V642.565H623.143V640.885H622.903L623.143 640.645C623.143 641.285 622.892 641.792 622.391 642.165C621.9 642.538 621.244 642.725 620.423 642.725ZM620.775 641.589C621.457 641.589 622.017 641.418 622.455 641.077C622.892 640.736 623.111 640.298 623.111 639.765V638.517H620.423C619.943 638.517 619.564 638.65 619.287 638.917C619.009 639.184 618.871 639.546 618.871 640.005C618.871 640.496 619.036 640.885 619.367 641.173C619.708 641.45 620.177 641.589 620.775 641.589ZM631.744 642.565C630.987 642.565 630.395 642.362 629.968 641.957C629.552 641.552 629.344 640.981 629.344 640.245V635.077H626.864V633.765H629.344V631.285H630.784V633.765H634.304V635.077H630.784V640.245C630.784 640.917 631.104 641.253 631.744 641.253H634.144V642.565H631.744ZM636.938 642.565V641.253H640.058V635.077H637.338V633.765H641.498V641.253H644.458V642.565H636.938ZM640.618 632.181C640.266 632.181 639.989 632.09 639.786 631.909C639.583 631.728 639.482 631.482 639.482 631.173C639.482 630.853 639.583 630.602 639.786 630.421C639.989 630.229 640.266 630.133 640.618 630.133C640.97 630.133 641.247 630.229 641.45 630.421C641.653 630.602 641.754 630.853 641.754 631.173C641.754 631.482 641.653 631.728 641.45 631.909C641.247 632.09 640.97 632.181 640.618 632.181ZM649.972 642.693C649.268 642.693 648.66 642.56 648.148 642.293C647.636 642.026 647.236 641.642 646.948 641.141C646.671 640.629 646.532 640.026 646.532 639.333V636.997C646.532 636.293 646.671 635.69 646.948 635.189C647.236 634.688 647.636 634.304 648.148 634.037C648.66 633.77 649.268 633.637 649.972 633.637C650.676 633.637 651.284 633.77 651.796 634.037C652.308 634.304 652.703 634.688 652.98 635.189C653.268 635.69 653.412 636.288 653.412 636.981V639.333C653.412 640.026 653.268 640.629 652.98 641.141C652.703 641.642 652.308 642.026 651.796 642.293C651.284 642.56 650.676 642.693 649.972 642.693ZM649.972 641.413C650.601 641.413 651.092 641.237 651.444 640.885C651.796 640.533 651.972 640.016 651.972 639.333V636.997C651.972 636.314 651.796 635.797 651.444 635.445C651.092 635.093 650.601 634.917 649.972 634.917C649.353 634.917 648.863 635.093 648.5 635.445C648.148 635.797 647.972 636.314 647.972 636.997V639.333C647.972 640.016 648.148 640.533 648.5 640.885C648.863 641.237 649.353 641.413 649.972 641.413ZM656.238 642.565V633.765H657.678V635.445H657.982L657.678 635.781C657.678 635.088 657.886 634.554 658.302 634.181C658.718 633.797 659.294 633.605 660.03 633.605C660.915 633.605 661.619 633.877 662.142 634.421C662.664 634.965 662.926 635.706 662.926 636.645V642.565H661.486V636.805C661.486 636.176 661.315 635.696 660.974 635.365C660.643 635.024 660.19 634.853 659.614 634.853C659.016 634.853 658.542 635.034 658.19 635.397C657.848 635.76 657.678 636.282 657.678 636.965V642.565H656.238Z" fill="black"/>
<g filter="url(#filter6_d_23_106)">
<rect x="478" y="390.565" width="250" height="100" rx="25" fill="url(#paint2_linear_23_106)" shape-rendering="crispEdges"/>
</g>
<path d="M562.088 450.565V433.045H564.248V448.597H572.168V450.565H562.088ZM579.767 450.805C578.375 450.805 577.279 450.453 576.479 449.749C575.679 449.029 575.279 448.061 575.279 446.845C575.279 445.613 575.679 444.645 576.479 443.941C577.279 443.237 578.359 442.885 579.719 442.885H583.799V441.565C583.799 440.749 583.551 440.125 583.055 439.693C582.575 439.245 581.887 439.021 580.991 439.021C580.207 439.021 579.551 439.189 579.023 439.525C578.495 439.845 578.191 440.285 578.111 440.845H575.951C576.095 439.709 576.631 438.805 577.559 438.133C578.487 437.461 579.647 437.125 581.039 437.125C582.559 437.125 583.759 437.517 584.639 438.301C585.519 439.085 585.959 440.149 585.959 441.493V450.565H583.847V448.045H583.487L583.847 447.685C583.847 448.645 583.471 449.405 582.719 449.965C581.983 450.525 580.999 450.805 579.767 450.805ZM580.295 449.101C581.319 449.101 582.159 448.845 582.815 448.333C583.471 447.821 583.799 447.165 583.799 446.365V444.493H579.767C579.047 444.493 578.479 444.693 578.063 445.093C577.647 445.493 577.439 446.037 577.439 446.725C577.439 447.461 577.687 448.045 578.183 448.477C578.695 448.893 579.399 449.101 580.295 449.101ZM592.381 454.885L594.325 449.749L589.429 437.365H591.829L594.901 445.525C595.013 445.797 595.117 446.125 595.213 446.509C595.309 446.877 595.389 447.189 595.453 447.445C595.517 447.189 595.597 446.877 595.693 446.509C595.789 446.125 595.885 445.797 595.981 445.525L598.861 437.365H601.189L594.685 454.885H592.381ZM609.7 450.805C608.66 450.805 607.748 450.597 606.964 450.181C606.196 449.765 605.596 449.181 605.164 448.429C604.748 447.661 604.54 446.773 604.54 445.765V442.165C604.54 441.141 604.748 440.253 605.164 439.501C605.596 438.749 606.196 438.165 606.964 437.749C607.748 437.333 608.66 437.125 609.7 437.125C610.74 437.125 611.644 437.333 612.412 437.749C613.196 438.165 613.796 438.749 614.212 439.501C614.644 440.253 614.86 441.141 614.86 442.165V444.493H606.652V445.765C606.652 446.805 606.916 447.605 607.444 448.165C607.972 448.709 608.724 448.981 609.7 448.981C610.532 448.981 611.204 448.837 611.716 448.549C612.228 448.245 612.54 447.797 612.652 447.205H614.812C614.668 448.309 614.124 449.189 613.18 449.845C612.252 450.485 611.092 450.805 609.7 450.805ZM612.748 443.053V442.165C612.748 441.125 612.484 440.325 611.956 439.765C611.444 439.205 610.692 438.925 609.7 438.925C608.724 438.925 607.972 439.205 607.444 439.765C606.916 440.325 606.652 441.125 606.652 442.165V442.861H612.916L612.748 443.053ZM619.555 450.565V437.365H621.667V439.885H622.171L621.475 441.445C621.475 440.021 621.779 438.949 622.387 438.229C623.011 437.493 623.931 437.125 625.147 437.125C626.539 437.125 627.643 437.565 628.459 438.445C629.291 439.309 629.707 440.485 629.707 441.973V442.765H627.547V442.165C627.547 441.125 627.291 440.333 626.779 439.789C626.283 439.229 625.571 438.949 624.643 438.949C623.731 438.949 623.011 439.229 622.483 439.789C621.971 440.349 621.715 441.141 621.715 442.165V450.565H619.555ZM638.073 450.757C637.177 450.757 636.393 450.621 635.721 450.349C635.065 450.061 634.537 449.661 634.137 449.149C633.753 448.637 633.521 448.029 633.441 447.325H635.601C635.697 447.789 635.953 448.157 636.369 448.429C636.801 448.701 637.369 448.837 638.073 448.837H639.081C639.929 448.837 640.561 448.669 640.977 448.333C641.393 447.981 641.601 447.517 641.601 446.941C641.601 446.381 641.409 445.941 641.025 445.621C640.657 445.285 640.105 445.061 639.369 444.949L637.593 444.661C636.297 444.437 635.329 444.037 634.689 443.461C634.065 442.869 633.753 442.013 633.753 440.893C633.753 439.709 634.129 438.797 634.881 438.157C635.633 437.501 636.761 437.173 638.265 437.173H639.177C640.441 437.173 641.457 437.469 642.225 438.061C642.993 438.653 643.457 439.453 643.617 440.461H641.457C641.361 440.045 641.121 439.717 640.737 439.477C640.353 439.221 639.833 439.093 639.177 439.093H638.265C637.449 439.093 636.849 439.245 636.465 439.549C636.097 439.853 635.913 440.309 635.913 440.917C635.913 441.461 636.073 441.861 636.393 442.117C636.713 442.373 637.217 442.557 637.905 442.669L639.681 442.957C641.105 443.181 642.137 443.597 642.777 444.205C643.433 444.813 643.761 445.693 643.761 446.845C643.761 448.061 643.369 449.021 642.585 449.725C641.817 450.413 640.649 450.757 639.081 450.757H638.073Z" fill="white"/>
<g filter="url(#filter7_d_23_106)">
<rect x="828" y="390.565" width="250" height="100" rx="25" fill="url(#paint3_linear_23_106)" shape-rendering="crispEdges"/>
</g>
<path d="M912.088 450.565V433.045H914.248V448.597H922.168V450.565H912.088ZM929.767 450.805C928.375 450.805 927.279 450.453 926.479 449.749C925.679 449.029 925.279 448.061 925.279 446.845C925.279 445.613 925.679 444.645 926.479 443.941C927.279 443.237 928.359 442.885 929.719 442.885H933.799V441.565C933.799 440.749 933.551 440.125 933.055 439.693C932.575 439.245 931.887 439.021 930.991 439.021C930.207 439.021 929.551 439.189 929.023 439.525C928.495 439.845 928.191 440.285 928.111 440.845H925.951C926.095 439.709 926.631 438.805 927.559 438.133C928.487 437.461 929.647 437.125 931.039 437.125C932.559 437.125 933.759 437.517 934.639 438.301C935.519 439.085 935.959 440.149 935.959 441.493V450.565H933.847V448.045H933.487L933.847 447.685C933.847 448.645 933.471 449.405 932.719 449.965C931.983 450.525 930.999 450.805 929.767 450.805ZM930.295 449.101C931.319 449.101 932.159 448.845 932.815 448.333C933.471 447.821 933.799 447.165 933.799 446.365V444.493H929.767C929.047 444.493 928.479 444.693 928.063 445.093C927.647 445.493 927.439 446.037 927.439 446.725C927.439 447.461 927.687 448.045 928.183 448.477C928.695 448.893 929.399 449.101 930.295 449.101ZM942.381 454.885L944.325 449.749L939.429 437.365H941.829L944.901 445.525C945.013 445.797 945.117 446.125 945.213 446.509C945.309 446.877 945.389 447.189 945.453 447.445C945.517 447.189 945.597 446.877 945.693 446.509C945.789 446.125 945.885 445.797 945.981 445.525L948.861 437.365H951.189L944.685 454.885H942.381ZM959.7 450.757C958.644 450.757 957.732 450.557 956.964 450.157C956.196 449.757 955.596 449.181 955.164 448.429C954.748 447.661 954.54 446.757 954.54 445.717V442.213C954.54 441.157 954.748 440.253 955.164 439.501C955.596 438.749 956.196 438.173 956.964 437.773C957.732 437.373 958.644 437.173 959.7 437.173C960.756 437.173 961.668 437.373 962.436 437.773C963.204 438.173 963.796 438.749 964.212 439.501C964.644 440.253 964.86 441.149 964.86 442.189V445.717C964.86 446.757 964.644 447.661 964.212 448.429C963.796 449.181 963.204 449.757 962.436 450.157C961.668 450.557 960.756 450.757 959.7 450.757ZM959.7 448.837C960.644 448.837 961.38 448.573 961.908 448.045C962.436 447.517 962.7 446.741 962.7 445.717V442.213C962.7 441.189 962.436 440.413 961.908 439.885C961.38 439.357 960.644 439.093 959.7 439.093C958.772 439.093 958.036 439.357 957.492 439.885C956.964 440.413 956.7 441.189 956.7 442.213V445.717C956.7 446.741 956.964 447.517 957.492 448.045C958.036 448.573 958.772 448.837 959.7 448.837ZM974.067 450.805C972.547 450.805 971.331 450.357 970.419 449.461C969.507 448.549 969.051 447.317 969.051 445.765V437.365H971.211V445.765C971.211 446.757 971.467 447.533 971.979 448.093C972.491 448.637 973.187 448.909 974.067 448.909C974.963 448.909 975.667 448.637 976.179 448.093C976.707 447.533 976.971 446.757 976.971 445.765V437.365H979.131V445.765C979.131 447.317 978.667 448.549 977.739 449.461C976.811 450.357 975.587 450.805 974.067 450.805ZM989.921 450.565C988.785 450.565 987.897 450.261 987.257 449.653C986.633 449.045 986.321 448.189 986.321 447.085V439.333H982.601V437.365H986.321V433.645H988.481V437.365H993.761V439.333H988.481V447.085C988.481 448.093 988.961 448.597 989.921 448.597H993.521V450.565H989.921Z" fill="white"/>
<path d="M204.564 220.565L205.564 220.565L205.564 220.565L204.564 220.565ZM204.564 240.565L210.337 230.565L198.79 230.565L204.564 240.565ZM592.564 160.565L591.564 160.565L592.564 160.565ZM562.564 190.565L562.564 191.565L562.564 190.565ZM234.564 190.565L234.564 191.565L234.564 190.565ZM203.564 220.565L203.564 231.565L205.564 231.565L205.564 220.565L203.564 220.565ZM591.564 140.565L591.564 160.565L593.564 160.565L593.564 140.565L591.564 140.565ZM562.564 189.565L234.564 189.565L234.564 191.565L562.564 191.565L562.564 189.565ZM591.564 160.565C591.564 176.581 578.58 189.565 562.564 189.565L562.564 191.565C579.685 191.565 593.564 177.686 593.564 160.565L591.564 160.565ZM205.564 220.565C205.564 204.549 218.547 191.565 234.564 191.565L234.564 189.565C217.443 189.565 203.564 203.444 203.564 220.565L205.564 220.565Z" fill="#CDCDCD"/>
<path d="M602 390.565L607.774 380.565L596.226 380.565L602 390.565ZM601 140.565L601 381.565L603 381.565L603 140.565L601 140.565Z" fill="#CDCDCD"/>
<path d="M611.999 160.565L612.999 160.565L611.999 160.565ZM641.999 190.565L641.999 189.565L641.999 190.565ZM922 190.565L922 191.565L922 190.565ZM952 220.565L951 220.565L952 220.565ZM952 390.565L957.774 380.565L946.227 380.565L952 390.565ZM610.999 140.565L610.999 160.565L612.999 160.565L612.999 140.565L610.999 140.565ZM641.999 191.565L922 191.565L922 189.565L641.999 189.565L641.999 191.565ZM951 220.565L951 381.565L953 381.565L953 220.565L951 220.565ZM922 191.565C938.016 191.565 951 204.549 951 220.565L953 220.565C953 203.444 939.121 189.565 922 189.565L922 191.565ZM610.999 160.565C610.999 177.686 624.878 191.565 641.999 191.565L641.999 189.565C625.982 189.565 612.999 176.581 612.999 160.565L610.999 160.565Z" fill="#CDCDCD"/>
<path d="M602 520.565L607.774 510.565H596.226L602 520.565ZM601 490.565V511.565H603V490.565H601Z" fill="#CDCDCD"/>
<path d="M602 600.565L607.774 590.565H596.226L602 600.565ZM601 570.565V591.565H603V570.565H601Z" fill="#CDCDCD"/>
<path d="M210 411L211 411V411L210 411ZM240 441L240 442H240L240 441ZM477 441L467 435.226L467 446.773L477 441ZM209 361L209 411L211 411L211 361L209 361ZM240 442L468 442L468 440L240 440L240 442ZM209 411C209 428.121 222.879 442 240 442L240 440C223.984 440 211 427.016 211 411L209 411Z" fill="#CDCDCD"/>
<defs>
<filter id="filter0_d_23_106" x="476" y="40.5649" width="258" height="108" filterUnits="userSpaceOnUse" color-interpolation-filters="sRGB">
<feFlood flood-opacity="0" result="BackgroundImageFix"/>
<feColorMatrix in="SourceAlpha" type="matrix" values="0 0 0 0 0 0 0 0 0 0 0 0 0 0 0 0 0 0 127 0" result="hardAlpha"/>
<feOffset dx="3" dy="4"/>
<feGaussianBlur stdDeviation="2"/>
<feComposite in2="hardAlpha" operator="out"/>
<feColorMatrix type="matrix" values="0 0 0 0 0 0 0 0 0 0 0 0 0 0 0 0 0 0 0.25 0"/>
<feBlend mode="normal" in2="BackgroundImageFix" result="effect1_dropShadow_23_106"/>
<feBlend mode="normal" in="SourceGraphic" in2="effect1_dropShadow_23_106" result="shape"/>
</filter>
<filter id="filter1_d_23_106" x="212" y="302.565" width="158" height="53" filterUnits="userSpaceOnUse" color-interpolation-filters="sRGB">
<feFlood flood-opacity="0" result="BackgroundImageFix"/>
<feColorMatrix in="SourceAlpha" type="matrix" values="0 0 0 0 0 0 0 0 0 0 0 0 0 0 0 0 0 0 127 0" result="hardAlpha"/>
<feOffset dx="1" dy="2"/>
<feGaussianBlur stdDeviation="2"/>
<feComposite in2="hardAlpha" operator="out"/>
<feColorMatrix type="matrix" values="0 0 0 0 0 0 0 0 0 0 0 0 0 0 0 0 0 0 0.25 0"/>
<feBlend mode="normal" in2="BackgroundImageFix" result="effect1_dropShadow_23_106"/>
<feBlend mode="normal" in="SourceGraphic" in2="effect1_dropShadow_23_106" result="shape"/>
</filter>
<filter id="filter2_d_23_106" x="212" y="248.565" width="158" height="53" filterUnits="userSpaceOnUse" color-interpolation-filters="sRGB">
<feFlood flood-opacity="0" result="BackgroundImageFix"/>
<feColorMatrix in="SourceAlpha" type="matrix" values="0 0 0 0 0 0 0 0 0 0 0 0 0 0 0 0 0 0 127 0" result="hardAlpha"/>
<feOffset dx="1" dy="2"/>
<feGaussianBlur stdDeviation="2"/>
<feComposite in2="hardAlpha" operator="out"/>
<feColorMatrix type="matrix" values="0 0 0 0 0 0 0 0 0 0 0 0 0 0 0 0 0 0 0.25 0"/>
<feBlend mode="normal" in2="BackgroundImageFix" result="effect1_dropShadow_23_106"/>
<feBlend mode="normal" in="SourceGraphic" in2="effect1_dropShadow_23_106" result="shape"/>
</filter>
<filter id="filter3_d_23_106" x="9" y="250.565" width="208" height="108" filterUnits="userSpaceOnUse" color-interpolation-filters="sRGB">
<feFlood flood-opacity="0" result="BackgroundImageFix"/>
<feColorMatrix in="SourceAlpha" type="matrix" values="0 0 0 0 0 0 0 0 0 0 0 0 0 0 0 0 0 0 127 0" result="hardAlpha"/>
<feOffset dx="3" dy="4"/>
<feGaussianBlur stdDeviation="2"/>
<feComposite in2="hardAlpha" operator="out"/>
<feColorMatrix type="matrix" values="0 0 0 0 0 0 0 0 0 0 0 0 0 0 0 0 0 0 0.25 0"/>
<feBlend mode="normal" in2="BackgroundImageFix" result="effect1_dropShadow_23_106"/>
<feBlend mode="normal" in="SourceGraphic" in2="effect1_dropShadow_23_106" result="shape"/>
</filter>
<filter id="filter4_d_23_106" x="474" y="518.565" width="258" height="58" filterUnits="userSpaceOnUse" color-interpolation-filters="sRGB">
<feFlood flood-opacity="0" result="BackgroundImageFix"/>
<feColorMatrix in="SourceAlpha" type="matrix" values="0 0 0 0 0 0 0 0 0 0 0 0 0 0 0 0 0 0 127 0" result="hardAlpha"/>
<feOffset dx="1" dy="2"/>
<feGaussianBlur stdDeviation="2"/>
<feComposite in2="hardAlpha" operator="out"/>
<feColorMatrix type="matrix" values="0 0 0 0 0 0 0 0 0 0 0 0 0 0 0 0 0 0 0.25 0"/>
<feBlend mode="normal" in2="BackgroundImageFix" result="effect1_dropShadow_23_106"/>
<feBlend mode="normal" in="SourceGraphic" in2="effect1_dropShadow_23_106" result="shape"/>
</filter>
<filter id="filter5_d_23_106" x="474" y="598.565" width="258" height="58" filterUnits="userSpaceOnUse" color-interpolation-filters="sRGB">
<feFlood flood-opacity="0" result="BackgroundImageFix"/>
<feColorMatrix in="SourceAlpha" type="matrix" values="0 0 0 0 0 0 0 0 0 0 0 0 0 0 0 0 0 0 127 0" result="hardAlpha"/>
<feOffset dx="1" dy="2"/>
<feGaussianBlur stdDeviation="2"/>
<feComposite in2="hardAlpha" operator="out"/>
<feColorMatrix type="matrix" values="0 0 0 0 0 0 0 0 0 0 0 0 0 0 0 0 0 0 0.25 0"/>
<feBlend mode="normal" in2="BackgroundImageFix" result="effect1_dropShadow_23_106"/>
<feBlend mode="normal" in="SourceGraphic" in2="effect1_dropShadow_23_106" result="shape"/>
</filter>
<filter id="filter6_d_23_106" x="477" y="390.565" width="258" height="108" filterUnits="userSpaceOnUse" color-interpolation-filters="sRGB">
<feFlood flood-opacity="0" result="BackgroundImageFix"/>
<feColorMatrix in="SourceAlpha" type="matrix" values="0 0 0 0 0 0 0 0 0 0 0 0 0 0 0 0 0 0 127 0" result="hardAlpha"/>
<feOffset dx="3" dy="4"/>
<feGaussianBlur stdDeviation="2"/>
<feComposite in2="hardAlpha" operator="out"/>
<feColorMatrix type="matrix" values="0 0 0 0 0 0 0 0 0 0 0 0 0 0 0 0 0 0 0.25 0"/>
<feBlend mode="normal" in2="BackgroundImageFix" result="effect1_dropShadow_23_106"/>
<feBlend mode="normal" in="SourceGraphic" in2="effect1_dropShadow_23_106" result="shape"/>
</filter>
<filter id="filter7_d_23_106" x="827" y="390.565" width="258" height="108" filterUnits="userSpaceOnUse" color-interpolation-filters="sRGB">
<feFlood flood-opacity="0" result="BackgroundImageFix"/>
<feColorMatrix in="SourceAlpha" type="matrix" values="0 0 0 0 0 0 0 0 0 0 0 0 0 0 0 0 0 0 127 0" result="hardAlpha"/>
<feOffset dx="3" dy="4"/>
<feGaussianBlur stdDeviation="2"/>
<feComposite in2="hardAlpha" operator="out"/>
<feColorMatrix type="matrix" values="0 0 0 0 0 0 0 0 0 0 0 0 0 0 0 0 0 0 0.25 0"/>
<feBlend mode="normal" in2="BackgroundImageFix" result="effect1_dropShadow_23_106"/>
<feBlend mode="normal" in="SourceGraphic" in2="effect1_dropShadow_23_106" result="shape"/>
</filter>
<linearGradient id="paint0_linear_23_106" x1="477" y1="140.565" x2="729.505" y2="47.352" gradientUnits="userSpaceOnUse">
<stop offset="0.00193747" stop-color="#E24462"/>
<stop offset="0.5" stop-color="#B125EA" stop-opacity="0.9"/>
<stop offset="1" stop-color="#7F52FF"/>
</linearGradient>
<linearGradient id="paint1_linear_23_106" x1="10" y1="343.565" x2="217.751" y2="273.569" gradientUnits="userSpaceOnUse">
<stop offset="0.00193747" stop-color="#E24462"/>
<stop offset="0.5" stop-color="#B125EA" stop-opacity="0.9"/>
<stop offset="1" stop-color="#7F52FF"/>
</linearGradient>
<linearGradient id="paint2_linear_23_106" x1="478" y1="490.565" x2="730.505" y2="397.352" gradientUnits="userSpaceOnUse">
<stop offset="0.00193747" stop-color="#E24462"/>
<stop offset="0.5" stop-color="#B125EA" stop-opacity="0.9"/>
<stop offset="1" stop-color="#7F52FF"/>
</linearGradient>
<linearGradient id="paint3_linear_23_106" x1="828" y1="490.565" x2="1080.51" y2="397.352" gradientUnits="userSpaceOnUse">
<stop offset="0.00193747" stop-color="#E24462"/>
<stop offset="0.510417" stop-color="#B125EA" stop-opacity="0.9"/>
<stop offset="1" stop-color="#7F52FF"/>
</linearGradient>
</defs>
</svg>
