<svg width="987" height="801" xmlns="http://www.w3.org/2000/svg" xmlns:xlink="http://www.w3.org/1999/xlink" version="1.1" baseProfile="full" viewBox="0 0 987 801">
<rect width="987" height="801" x="0" y="0" id="0" fill="none"></rect>
<path d="M0 600.0825C80.1938 600.0825 80.1938 486.2738 160.3875 486.2738" transform="translate(148.05 40.05)" fill="none" stroke="#ccc" stroke-width="2"></path>
<path d="M160.3875 486.2738C240.5813 486.2738 240.5813 310.3875 320.775 310.3875" transform="translate(148.05 40.05)" fill="none" stroke="#ccc" stroke-width="2"></path>
<path d="M320.775 310.3875C400.9688 310.3875 400.9688 51.7313 481.1625 51.7313" transform="translate(148.05 40.05)" fill="none" stroke="#ccc" stroke-width="2"></path>
<path d="M481.1625 51.7313C561.3563 51.7313 561.3563 20.6925 641.55 20.6925" transform="translate(148.05 40.05)" fill="none" stroke="#ccc" stroke-width="2"></path>
<path d="M481.1625 51.7313C561.3563 51.7313 561.3563 41.385 641.55 41.385" transform="translate(148.05 40.05)" fill="none" stroke="#ccc" stroke-width="2"></path>
<path d="M481.1625 51.7313C561.3563 51.7313 561.3563 62.0775 641.55 62.0775" transform="translate(148.05 40.05)" fill="none" stroke="#ccc" stroke-width="2"></path>
<path d="M481.1625 51.7313C561.3563 51.7313 561.3563 82.77 641.55 82.77" transform="translate(148.05 40.05)" fill="none" stroke="#ccc" stroke-width="2"></path>
<path d="M320.775 310.3875C400.9688 310.3875 400.9688 258.6563 481.1625 258.6563" transform="translate(148.05 40.05)" fill="none" stroke="#ccc" stroke-width="2"></path>
<path d="M481.1625 258.6563C561.3563 258.6563 561.3563 124.155 641.55 124.155" transform="translate(148.05 40.05)" fill="none" stroke="#ccc" stroke-width="2"></path>
<path d="M481.1625 258.6563C561.3563 258.6563 561.3563 144.8475 641.55 144.8475" transform="translate(148.05 40.05)" fill="none" stroke="#ccc" stroke-width="2"></path>
<path d="M481.1625 258.6563C561.3563 258.6563 561.3563 165.54 641.55 165.54" transform="translate(148.05 40.05)" fill="none" stroke="#ccc" stroke-width="2"></path>
<path d="M481.1625 258.6563C561.3563 258.6563 561.3563 186.2325 641.55 186.2325" transform="translate(148.05 40.05)" fill="none" stroke="#ccc" stroke-width="2"></path>
<path d="M481.1625 258.6563C561.3563 258.6563 561.3563 206.925 641.55 206.925" transform="translate(148.05 40.05)" fill="none" stroke="#ccc" stroke-width="2"></path>
<path d="M481.1625 258.6563C561.3563 258.6563 561.3563 227.6175 641.55 227.6175" transform="translate(148.05 40.05)" fill="none" stroke="#ccc" stroke-width="2"></path>
<path d="M481.1625 258.6563C561.3563 258.6563 561.3563 248.31 641.55 248.31" transform="translate(148.05 40.05)" fill="none" stroke="#ccc" stroke-width="2"></path>
<path d="M481.1625 258.6563C561.3563 258.6563 561.3563 269.0025 641.55 269.0025" transform="translate(148.05 40.05)" fill="none" stroke="#ccc" stroke-width="2"></path>
<path d="M481.1625 258.6563C561.3563 258.6563 561.3563 289.695 641.55 289.695" transform="translate(148.05 40.05)" fill="none" stroke="#ccc" stroke-width="2"></path>
<path d="M481.1625 258.6563C561.3563 258.6563 561.3563 310.3875 641.55 310.3875" transform="translate(148.05 40.05)" fill="none" stroke="#ccc" stroke-width="2"></path>
<path d="M481.1625 258.6563C561.3563 258.6563 561.3563 331.08 641.55 331.08" transform="translate(148.05 40.05)" fill="none" stroke="#ccc" stroke-width="2"></path>
<path d="M481.1625 258.6563C561.3563 258.6563 561.3563 351.7725 641.55 351.7725" transform="translate(148.05 40.05)" fill="none" stroke="#ccc" stroke-width="2"></path>
<path d="M481.1625 258.6563C561.3563 258.6563 561.3563 372.465 641.55 372.465" transform="translate(148.05 40.05)" fill="none" stroke="#ccc" stroke-width="2"></path>
<path d="M481.1625 258.6563C561.3563 258.6563 561.3563 393.1575 641.55 393.1575" transform="translate(148.05 40.05)" fill="none" stroke="#ccc" stroke-width="2"></path>
<path d="M320.775 310.3875C400.9688 310.3875 400.9688 569.0438 481.1625 569.0438" transform="translate(148.05 40.05)" fill="none" stroke="#ccc" stroke-width="2"></path>
<path d="M481.1625 569.0438C561.3563 569.0438 561.3563 434.5425 641.55 434.5425" transform="translate(148.05 40.05)" fill="none" stroke="#ccc" stroke-width="2"></path>
<path d="M481.1625 569.0438C561.3563 569.0438 561.3563 455.235 641.55 455.235" transform="translate(148.05 40.05)" fill="none" stroke="#ccc" stroke-width="2"></path>
<path d="M481.1625 569.0438C561.3563 569.0438 561.3563 475.9275 641.55 475.9275" transform="translate(148.05 40.05)" fill="none" stroke="#ccc" stroke-width="2"></path>
<path d="M481.1625 569.0438C561.3563 569.0438 561.3563 496.62 641.55 496.62" transform="translate(148.05 40.05)" fill="none" stroke="#ccc" stroke-width="2"></path>
<path d="M481.1625 569.0438C561.3563 569.0438 561.3563 517.3125 641.55 517.3125" transform="translate(148.05 40.05)" fill="none" stroke="#ccc" stroke-width="2"></path>
<path d="M481.1625 569.0438C561.3563 569.0438 561.3563 538.005 641.55 538.005" transform="translate(148.05 40.05)" fill="none" stroke="#ccc" stroke-width="2"></path>
<path d="M481.1625 569.0438C561.3563 569.0438 561.3563 558.6975 641.55 558.6975" transform="translate(148.05 40.05)" fill="none" stroke="#ccc" stroke-width="2"></path>
<path d="M481.1625 569.0438C561.3563 569.0438 561.3563 579.39 641.55 579.39" transform="translate(148.05 40.05)" fill="none" stroke="#ccc" stroke-width="2"></path>
<path d="M481.1625 569.0438C561.3563 569.0438 561.3563 600.0825 641.55 600.0825" transform="translate(148.05 40.05)" fill="none" stroke="#ccc" stroke-width="2"></path>
<path d="M481.1625 569.0438C561.3563 569.0438 561.3563 620.775 641.55 620.775" transform="translate(148.05 40.05)" fill="none" stroke="#ccc" stroke-width="2"></path>
<path d="M481.1625 569.0438C561.3563 569.0438 561.3563 641.4675 641.55 641.4675" transform="translate(148.05 40.05)" fill="none" stroke="#ccc" stroke-width="2"></path>
<path d="M481.1625 569.0438C561.3563 569.0438 561.3563 662.16 641.55 662.16" transform="translate(148.05 40.05)" fill="none" stroke="#ccc" stroke-width="2"></path>
<path d="M481.1625 569.0438C561.3563 569.0438 561.3563 682.8525 641.55 682.8525" transform="translate(148.05 40.05)" fill="none" stroke="#ccc" stroke-width="2"></path>
<path d="M481.1625 569.0438C561.3563 569.0438 561.3563 703.545 641.55 703.545" transform="translate(148.05 40.05)" fill="none" stroke="#ccc" stroke-width="2"></path>
<path d="M160.3875 486.2738C240.5813 486.2738 240.5813 486.2738 320.775 486.2738" transform="translate(148.05 40.05)" fill="none" stroke="#ccc" stroke-width="2"></path>
<path d="M160.3875 486.2738C240.5813 486.2738 240.5813 662.16 320.775 662.16" transform="translate(148.05 40.05)" fill="none" stroke="#ccc" stroke-width="2"></path>
<path d="M320.775 662.16C400.9688 662.16 400.9688 610.4288 481.1625 610.4288" transform="translate(148.05 40.05)" fill="none" stroke="#ccc" stroke-width="2"></path>
<path d="M320.775 662.16C400.9688 662.16 400.9688 631.1213 481.1625 631.1213" transform="translate(148.05 40.05)" fill="none" stroke="#ccc" stroke-width="2"></path>
<path d="M320.775 662.16C400.9688 662.16 400.9688 651.8138 481.1625 651.8138" transform="translate(148.05 40.05)" fill="none" stroke="#ccc" stroke-width="2"></path>
<path d="M320.775 662.16C400.9688 662.16 400.9688 672.5063 481.1625 672.5063" transform="translate(148.05 40.05)" fill="none" stroke="#ccc" stroke-width="2"></path>
<path d="M320.775 662.16C400.9688 662.16 400.9688 693.1988 481.1625 693.1988" transform="translate(148.05 40.05)" fill="none" stroke="#ccc" stroke-width="2"></path>
<path d="M320.775 662.16C400.9688 662.16 400.9688 713.8913 481.1625 713.8913" transform="translate(148.05 40.05)" fill="none" stroke="#ccc" stroke-width="2"></path>
<path d="M0 600.0825C80.1938 600.0825 80.1938 713.8913 160.3875 713.8913" transform="translate(148.05 40.05)" fill="none" stroke="rgb(204,204,204)" stroke-width="2"></path>
<path d="M160.3875 713.8913C240.5813 713.8913 240.5813 703.545 320.775 703.545" transform="translate(148.05 40.05)" fill="none" stroke="#ccc" stroke-width="2"></path>
<path d="M160.3875 713.8913C240.5813 713.8913 240.5813 724.2375 320.775 724.2375" transform="translate(148.05 40.05)" fill="none" stroke="#ccc" stroke-width="2"></path>
<path d="M1 0A1 1 0 1 1 1 -0.0001" transform="matrix(3.5,0,0,3.5,148.05,640.1325)" fill="#2f7fff"></path>
<path d="M1 0A1 1 0 1 1 1 -0.0001" transform="matrix(3.5,0,0,3.5,308.4375,526.3238)" fill="#2f7fff"></path>
<path d="M1 0A1 1 0 1 1 1 -0.0001" transform="matrix(3.5,0,0,3.5,468.825,350.4375)" fill="#2f7fff"></path>
<path d="M1 0A1 1 0 1 1 1 -0.0001" transform="matrix(3.5,0,0,3.5,629.2125,91.7813)" fill="#2f7fff"></path>
<path d="M1 0A1 1 0 1 1 1 -0.0001" transform="matrix(3.5,0,0,3.5,789.6,60.7425)" fill="#2f7fff"></path>
<path d="M1 0A1 1 0 1 1 1 -0.0001" transform="matrix(3.5,0,0,3.5,789.6,81.435)" fill="#2f7fff"></path>
<path d="M1 0A1 1 0 1 1 1 -0.0001" transform="matrix(3.5,0,0,3.5,789.6,102.1275)" fill="#2f7fff"></path>
<path d="M1 0A1 1 0 1 1 1 -0.0001" transform="matrix(3.5,0,0,3.5,789.6,122.82)" fill="#2f7fff"></path>
<path d="M1 0A1 1 0 1 1 1 -0.0001" transform="matrix(3.5,0,0,3.5,629.2125,298.7063)" fill="#2f7fff"></path>
<path d="M1 0A1 1 0 1 1 1 -0.0001" transform="matrix(3.5,0,0,3.5,789.6,164.205)" fill="#2f7fff"></path>
<path d="M1 0A1 1 0 1 1 1 -0.0001" transform="matrix(3.5,0,0,3.5,789.6,184.8975)" fill="#2f7fff"></path>
<path d="M1 0A1 1 0 1 1 1 -0.0001" transform="matrix(3.5,0,0,3.5,789.6,205.59)" fill="#2f7fff"></path>
<path d="M1 0A1 1 0 1 1 1 -0.0001" transform="matrix(3.5,0,0,3.5,789.6,226.2825)" fill="#2f7fff"></path>
<path d="M1 0A1 1 0 1 1 1 -0.0001" transform="matrix(3.5,0,0,3.5,789.6,246.975)" fill="#2f7fff"></path>
<path d="M1 0A1 1 0 1 1 1 -0.0001" transform="matrix(3.5,0,0,3.5,789.6,267.6675)" fill="#2f7fff"></path>
<path d="M1 0A1 1 0 1 1 1 -0.0001" transform="matrix(3.5,0,0,3.5,789.6,288.36)" fill="#2f7fff"></path>
<path d="M1 0A1 1 0 1 1 1 -0.0001" transform="matrix(3.5,0,0,3.5,789.6,309.0525)" fill="#2f7fff"></path>
<path d="M1 0A1 1 0 1 1 1 -0.0001" transform="matrix(3.5,0,0,3.5,789.6,329.745)" fill="#2f7fff"></path>
<path d="M1 0A1 1 0 1 1 1 -0.0001" transform="matrix(3.5,0,0,3.5,789.6,350.4375)" fill="#2f7fff"></path>
<path d="M1 0A1 1 0 1 1 1 -0.0001" transform="matrix(3.5,0,0,3.5,789.6,371.13)" fill="#2f7fff"></path>
<path d="M1 0A1 1 0 1 1 1 -0.0001" transform="matrix(3.5,0,0,3.5,789.6,391.8225)" fill="#2f7fff"></path>
<path d="M1 0A1 1 0 1 1 1 -0.0001" transform="matrix(3.5,0,0,3.5,789.6,412.515)" fill="#2f7fff"></path>
<path d="M1 0A1 1 0 1 1 1 -0.0001" transform="matrix(3.5,0,0,3.5,789.6,433.2075)" fill="#2f7fff"></path>
<path d="M1 0A1 1 0 1 1 1 -0.0001" transform="matrix(3.5,0,0,3.5,629.2125,609.0938)" fill="#2f7fff"></path>
<path d="M1 0A1 1 0 1 1 1 -0.0001" transform="matrix(3.5,0,0,3.5,789.6,474.5925)" fill="#2f7fff"></path>
<path d="M1 0A1 1 0 1 1 1 -0.0001" transform="matrix(3.5,0,0,3.5,789.6,495.285)" fill="#2f7fff"></path>
<path d="M1 0A1 1 0 1 1 1 -0.0001" transform="matrix(3.5,0,0,3.5,789.6,515.9775)" fill="#2f7fff"></path>
<path d="M1 0A1 1 0 1 1 1 -0.0001" transform="matrix(3.5,0,0,3.5,789.6,536.67)" fill="#2f7fff"></path>
<path d="M1 0A1 1 0 1 1 1 -0.0001" transform="matrix(3.5,0,0,3.5,789.6,557.3625)" fill="#2f7fff"></path>
<path d="M1 0A1 1 0 1 1 1 -0.0001" transform="matrix(3.5,0,0,3.5,789.6,578.055)" fill="#2f7fff"></path>
<path d="M1 0A1 1 0 1 1 1 -0.0001" transform="matrix(3.5,0,0,3.5,789.6,598.7475)" fill="#2f7fff"></path>
<path d="M1 0A1 1 0 1 1 1 -0.0001" transform="matrix(3.5,0,0,3.5,789.6,619.44)" fill="#2f7fff"></path>
<path d="M1 0A1 1 0 1 1 1 -0.0001" transform="matrix(3.5,0,0,3.5,789.6,640.1325)" fill="#2f7fff"></path>
<path d="M1 0A1 1 0 1 1 1 -0.0001" transform="matrix(3.5,0,0,3.5,789.6,660.825)" fill="#2f7fff"></path>
<path d="M1 0A1 1 0 1 1 1 -0.0001" transform="matrix(3.5,0,0,3.5,789.6,681.5175)" fill="#2f7fff"></path>
<path d="M1 0A1 1 0 1 1 1 -0.0001" transform="matrix(3.5,0,0,3.5,789.6,702.21)" fill="#2f7fff"></path>
<path d="M1 0A1 1 0 1 1 1 -0.0001" transform="matrix(3.5,0,0,3.5,789.6,722.9025)" fill="#2f7fff"></path>
<path d="M1 0A1 1 0 1 1 1 -0.0001" transform="matrix(3.5,0,0,3.5,789.6,743.595)" fill="#2f7fff"></path>
<path d="M1 0A1 1 0 1 1 1 -0.0001" transform="matrix(3.5,0,0,3.5,468.825,526.3238)" fill="#2f7fff"></path>
<path d="M1 0A1 1 0 1 1 1 -0.0001" transform="matrix(3.5,0,0,3.5,468.825,702.21)" fill="#2f7fff"></path>
<path d="M1 0A1 1 0 1 1 1 -0.0001" transform="matrix(3.5,0,0,3.5,629.2125,650.4788)" fill="#2f7fff"></path>
<path d="M1 0A1 1 0 1 1 1 -0.0001" transform="matrix(3.5,0,0,3.5,629.2125,671.1713)" fill="#2f7fff"></path>
<path d="M1 0A1 1 0 1 1 1 -0.0001" transform="matrix(3.5,0,0,3.5,629.2125,691.8638)" fill="#2f7fff"></path>
<path d="M1 0A1 1 0 1 1 1 -0.0001" transform="matrix(3.5,0,0,3.5,629.2125,712.5563)" fill="#2f7fff"></path>
<path d="M1 0A1 1 0 1 1 1 -0.0001" transform="matrix(3.5,0,0,3.5,629.2125,733.2488)" fill="#2f7fff"></path>
<path d="M1 0A1 1 0 1 1 1 -0.0001" transform="matrix(3.5,0,0,3.5,629.2125,753.9413)" fill="#2f7fff"></path>
<path d="M1 0A1 1 0 1 1 1 -0.0001" transform="matrix(3.5,0,0,3.5,308.4375,753.9413)" fill="rgb(47,127,255)"></path>
<path d="M1 0A1 1 0 1 1 1 -0.0001" transform="matrix(3.5,0,0,3.5,468.825,743.595)" fill="#2f7fff"></path>
<path d="M1 0A1 1 0 1 1 1 -0.0001" transform="matrix(3.5,0,0,3.5,468.825,764.2875)" fill="#2f7fff"></path>
<text dominant-baseline="central" text-anchor="start" style="font-size:16px;font-family:sans-serif;" transform="translate(156.55 640.1325)" fill="#333" stroke="rgb(255,255,255)" stroke-width="2" paint-order="stroke" stroke-miterlimit="2">Kandy</text>
<text dominant-baseline="central" text-anchor="start" style="font-size:16px;font-family:sans-serif;" transform="translate(316.9375 526.3238)" fill="#333" stroke="rgb(255,255,255)" stroke-width="2" paint-order="stroke" stroke-miterlimit="2">plot</text>
<text dominant-baseline="central" text-anchor="start" style="font-size:16px;font-family:sans-serif;" transform="translate(477.325 350.4375)" fill="#333" stroke="rgb(255,255,255)" stroke-width="2" paint-order="stroke" stroke-miterlimit="2">data</text>
<text dominant-baseline="central" text-anchor="start" style="font-size:16px;font-family:sans-serif;" transform="translate(637.7125 91.7813)" fill="#333" stroke="rgb(255,255,255)" stroke-width="2" paint-order="stroke" stroke-miterlimit="2">statistics</text>
<text dominant-baseline="central" text-anchor="start" style="font-size:16px;font-family:sans-serif;" transform="translate(798.1 60.7425)" fill="#333" stroke="rgb(255,255,255)" stroke-width="2" paint-order="stroke" stroke-miterlimit="2">bins</text>
<text dominant-baseline="central" text-anchor="start" style="font-size:16px;font-family:sans-serif;" transform="translate(798.1 81.435)" fill="#333" stroke="rgb(255,255,255)" stroke-width="2" paint-order="stroke" stroke-miterlimit="2">counting</text>
<text dominant-baseline="central" text-anchor="start" style="font-size:16px;font-family:sans-serif;" transform="translate(798.1 102.1275)" fill="#333" stroke="rgb(255,255,255)" stroke-width="2" paint-order="stroke" stroke-miterlimit="2">boxplot</text>
<text dominant-baseline="central" text-anchor="start" style="font-size:16px;font-family:sans-serif;" transform="translate(798.1 122.82)" fill="#333" stroke="rgb(255,255,255)" stroke-width="2" paint-order="stroke" stroke-miterlimit="2">histogram</text>
<text dominant-baseline="central" text-anchor="start" style="font-size:16px;font-family:sans-serif;" xml:space="preserve" transform="translate(637.7125 298.7063)" fill="#333" stroke="rgb(255,255,255)" stroke-width="2" paint-order="stroke" stroke-miterlimit="2">table data</text>
<text dominant-baseline="central" text-anchor="start" style="font-size:16px;font-family:sans-serif;" transform="translate(798.1 164.205)" fill="#333" stroke="rgb(255,255,255)" stroke-width="2" paint-order="stroke" stroke-miterlimit="2">abline</text>
<text dominant-baseline="central" text-anchor="start" style="font-size:16px;font-family:sans-serif;" transform="translate(798.1 184.8975)" fill="#333" stroke="rgb(255,255,255)" stroke-width="2" paint-order="stroke" stroke-miterlimit="2">area</text>
<text dominant-baseline="central" text-anchor="start" style="font-size:16px;font-family:sans-serif;" transform="translate(798.1 205.59)" fill="#333" stroke="rgb(255,255,255)" stroke-width="2" paint-order="stroke" stroke-miterlimit="2">bars</text>
<text dominant-baseline="central" text-anchor="start" style="font-size:16px;font-family:sans-serif;" transform="translate(798.1 226.2825)" fill="#333" stroke="rgb(255,255,255)" stroke-width="2" paint-order="stroke" stroke-miterlimit="2">crossbar</text>
<text dominant-baseline="central" text-anchor="start" style="font-size:16px;font-family:sans-serif;" transform="translate(798.1 246.975)" fill="#333" stroke="rgb(255,255,255)" stroke-width="2" paint-order="stroke" stroke-miterlimit="2">errorbar</text>
<text dominant-baseline="central" text-anchor="start" style="font-size:16px;font-family:sans-serif;" transform="translate(798.1 267.6675)" fill="#333" stroke="rgb(255,255,255)" stroke-width="2" paint-order="stroke" stroke-miterlimit="2">hLine</text>
<text dominant-baseline="central" text-anchor="start" style="font-size:16px;font-family:sans-serif;" transform="translate(798.1 288.36)" fill="#333" stroke="rgb(255,255,255)" stroke-width="2" paint-order="stroke" stroke-miterlimit="2">line</text>
<text dominant-baseline="central" text-anchor="start" style="font-size:16px;font-family:sans-serif;" transform="translate(798.1 309.0525)" fill="#333" stroke="rgb(255,255,255)" stroke-width="2" paint-order="stroke" stroke-miterlimit="2">pie</text>
<text dominant-baseline="central" text-anchor="start" style="font-size:16px;font-family:sans-serif;" transform="translate(798.1 329.745)" fill="#333" stroke="rgb(255,255,255)" stroke-width="2" paint-order="stroke" stroke-miterlimit="2">points</text>
<text dominant-baseline="central" text-anchor="start" style="font-size:16px;font-family:sans-serif;" transform="translate(798.1 350.4375)" fill="#333" stroke="rgb(255,255,255)" stroke-width="2" paint-order="stroke" stroke-miterlimit="2">raster</text>
<text dominant-baseline="central" text-anchor="start" style="font-size:16px;font-family:sans-serif;" transform="translate(798.1 371.13)" fill="#333" stroke="rgb(255,255,255)" stroke-width="2" paint-order="stroke" stroke-miterlimit="2">rect</text>
<text dominant-baseline="central" text-anchor="start" style="font-size:16px;font-family:sans-serif;" transform="translate(798.1 391.8225)" fill="#333" stroke="rgb(255,255,255)" stroke-width="2" paint-order="stroke" stroke-miterlimit="2">segment</text>
<text dominant-baseline="central" text-anchor="start" style="font-size:16px;font-family:sans-serif;" transform="translate(798.1 412.515)" fill="#333" stroke="rgb(255,255,255)" stroke-width="2" paint-order="stroke" stroke-miterlimit="2">tile</text>
<text dominant-baseline="central" text-anchor="start" style="font-size:16px;font-family:sans-serif;" transform="translate(798.1 433.2075)" fill="#333" stroke="rgb(255,255,255)" stroke-width="2" paint-order="stroke" stroke-miterlimit="2">vLine</text>
<text dominant-baseline="central" text-anchor="start" style="font-size:16px;font-family:sans-serif;" xml:space="preserve" transform="translate(637.7125 609.0938)" fill="#333" stroke="rgb(255,255,255)" stroke-width="2" paint-order="stroke" stroke-miterlimit="2">grouped data</text>
<text dominant-baseline="central" text-anchor="start" style="font-size:16px;font-family:sans-serif;" transform="translate(798.1 474.5925)" fill="#333" stroke="rgb(255,255,255)" stroke-width="2" paint-order="stroke" stroke-miterlimit="2">abline</text>
<text dominant-baseline="central" text-anchor="start" style="font-size:16px;font-family:sans-serif;" transform="translate(798.1 495.285)" fill="#333" stroke="rgb(255,255,255)" stroke-width="2" paint-order="stroke" stroke-miterlimit="2">area</text>
<text dominant-baseline="central" text-anchor="start" style="font-size:16px;font-family:sans-serif;" transform="translate(798.1 515.9775)" fill="#333" stroke="rgb(255,255,255)" stroke-width="2" paint-order="stroke" stroke-miterlimit="2">bars</text>
<text dominant-baseline="central" text-anchor="start" style="font-size:16px;font-family:sans-serif;" transform="translate(798.1 536.67)" fill="#333" stroke="rgb(255,255,255)" stroke-width="2" paint-order="stroke" stroke-miterlimit="2">crossbar</text>
<text dominant-baseline="central" text-anchor="start" style="font-size:16px;font-family:sans-serif;" transform="translate(798.1 557.3625)" fill="#333" stroke="rgb(255,255,255)" stroke-width="2" paint-order="stroke" stroke-miterlimit="2">errorbar</text>
<text dominant-baseline="central" text-anchor="start" style="font-size:16px;font-family:sans-serif;" transform="translate(798.1 578.055)" fill="#333" stroke="rgb(255,255,255)" stroke-width="2" paint-order="stroke" stroke-miterlimit="2">hLine</text>
<text dominant-baseline="central" text-anchor="start" style="font-size:16px;font-family:sans-serif;" transform="translate(798.1 598.7475)" fill="#333" stroke="rgb(255,255,255)" stroke-width="2" paint-order="stroke" stroke-miterlimit="2">line</text>
<text dominant-baseline="central" text-anchor="start" style="font-size:16px;font-family:sans-serif;" transform="translate(798.1 619.44)" fill="#333" stroke="rgb(255,255,255)" stroke-width="2" paint-order="stroke" stroke-miterlimit="2">pie</text>
<text dominant-baseline="central" text-anchor="start" style="font-size:16px;font-family:sans-serif;" transform="translate(798.1 640.1325)" fill="#333" stroke="rgb(255,255,255)" stroke-width="2" paint-order="stroke" stroke-miterlimit="2">points</text>
<text dominant-baseline="central" text-anchor="start" style="font-size:16px;font-family:sans-serif;" transform="translate(798.1 660.825)" fill="#333" stroke="rgb(255,255,255)" stroke-width="2" paint-order="stroke" stroke-miterlimit="2">raster</text>
<text dominant-baseline="central" text-anchor="start" style="font-size:16px;font-family:sans-serif;" transform="translate(798.1 681.5175)" fill="#333" stroke="rgb(255,255,255)" stroke-width="2" paint-order="stroke" stroke-miterlimit="2">rect</text>
<text dominant-baseline="central" text-anchor="start" style="font-size:16px;font-family:sans-serif;" transform="translate(798.1 702.21)" fill="#333" stroke="rgb(255,255,255)" stroke-width="2" paint-order="stroke" stroke-miterlimit="2">segment</text>
<text dominant-baseline="central" text-anchor="start" style="font-size:16px;font-family:sans-serif;" transform="translate(798.1 722.9025)" fill="#333" stroke="rgb(255,255,255)" stroke-width="2" paint-order="stroke" stroke-miterlimit="2">tile</text>
<text dominant-baseline="central" text-anchor="start" style="font-size:16px;font-family:sans-serif;" transform="translate(798.1 743.595)" fill="#333" stroke="rgb(255,255,255)" stroke-width="2" paint-order="stroke" stroke-miterlimit="2">vLine</text>
<text dominant-baseline="central" text-anchor="start" style="font-size:16px;font-family:sans-serif;" transform="translate(477.325 526.3238)" fill="#333" stroke="rgb(255,255,255)" stroke-width="2" paint-order="stroke" stroke-miterlimit="2">facetting</text>
<text dominant-baseline="central" text-anchor="start" style="font-size:16px;font-family:sans-serif;" transform="translate(477.325 702.21)" fill="#333" stroke="rgb(255,255,255)" stroke-width="2" paint-order="stroke" stroke-miterlimit="2">layout</text>
<text dominant-baseline="central" text-anchor="start" style="font-size:16px;font-family:sans-serif;" transform="translate(637.7125 650.4788)" fill="#333" stroke="rgb(255,255,255)" stroke-width="2" paint-order="stroke" stroke-miterlimit="2">title</text>
<text dominant-baseline="central" text-anchor="start" style="font-size:16px;font-family:sans-serif;" transform="translate(637.7125 671.1713)" fill="#333" stroke="rgb(255,255,255)" stroke-width="2" paint-order="stroke" stroke-miterlimit="2">subtitle</text>
<text dominant-baseline="central" text-anchor="start" style="font-size:16px;font-family:sans-serif;" transform="translate(637.7125 691.8638)" fill="#333" stroke="rgb(255,255,255)" stroke-width="2" paint-order="stroke" stroke-miterlimit="2">caption</text>
<text dominant-baseline="central" text-anchor="start" style="font-size:16px;font-family:sans-serif;" transform="translate(637.7125 712.5563)" fill="#333" stroke="rgb(255,255,255)" stroke-width="2" paint-order="stroke" stroke-miterlimit="2">size</text>
<text dominant-baseline="central" text-anchor="start" style="font-size:16px;font-family:sans-serif;" transform="translate(637.7125 733.2488)" fill="#333" stroke="rgb(255,255,255)" stroke-width="2" paint-order="stroke" stroke-miterlimit="2">themes</text>
<text dominant-baseline="central" text-anchor="start" style="font-size:16px;font-family:sans-serif;" transform="translate(637.7125 753.9413)" fill="#333" stroke="rgb(255,255,255)" stroke-width="2" paint-order="stroke" stroke-miterlimit="2">tooltips</text>
<text dominant-baseline="central" text-anchor="start" style="font-size:16px;font-family:sans-serif;" transform="translate(316.9375 753.9413)" fill="#333" stroke="rgb(255,255,255)" stroke-width="2" paint-order="stroke" stroke-miterlimit="2">multiplot</text>
<text dominant-baseline="central" text-anchor="start" style="font-size:16px;font-family:sans-serif;" xml:space="preserve" transform="translate(477.325 743.595)" fill="#333" stroke="rgb(255,255,255)" stroke-width="2" paint-order="stroke" stroke-miterlimit="2">Plot Grid</text>
<text dominant-baseline="central" text-anchor="start" style="font-size:16px;font-family:sans-serif;" xml:space="preserve" transform="translate(477.325 764.2875)" fill="#333" stroke="rgb(255,255,255)" stroke-width="2" paint-order="stroke" stroke-miterlimit="2">Plot Bunch</text>
</svg>